<svg xmlns="http://www.w3.org/2000/svg" xmlns:xlink="http://www.w3.org/1999/xlink" width="512" height="512" viewBox="0 0 512 512"><path fill="currentColor" d="M448 400H64a16 16 0 0 1 0-32h384a16 16 0 0 1 0 32Zm-32 48H96a16 16 0 0 1 0-32h320a16 16 0 0 1 0 32ZM32 272H16v48a32 32 0 0 0 32 32h48v-16a64.07 64.07 0 0 0-64-64Z"/><path fill="currentColor" d="M480 240h16v-64h-16a96.11 96.11 0 0 1-96-96V64H128v16a96.11 96.11 0 0 1-96 96H16v64h16a96.11 96.11 0 0 1 96 96v16h256v-16a96.11 96.11 0 0 1 96-96Zm-224 64a96 96 0 1 1 96-96a96.11 96.11 0 0 1-96 96Z"/><circle cx="256" cy="208" r="64" fill="currentColor"/><path fill="currentColor" d="M416 336v16h48a32 32 0 0 0 32-32v-48h-16a64.07 64.07 0 0 0-64 64Zm64-192h16V96a32 32 0 0 0-32-32h-48v16a64.07 64.07 0 0 0 64 64ZM96 80V64H48a32 32 0 0 0-32 32v48h16a64.07 64.07 0 0 0 64-64Z"/></svg>