<svg xmlns="http://www.w3.org/2000/svg" xmlns:xlink="http://www.w3.org/1999/xlink" width="512" height="512" viewBox="0 0 512 512"><path fill="currentColor" d="M253.72 202.53a4 4 0 0 0 4.56 0a151.88 151.88 0 0 1 128.44-20.41a4 4 0 0 0 5.15-4C388.8 105.86 329 48 256 48s-132.8 57.86-135.87 130.15a4 4 0 0 0 5.15 4a151.88 151.88 0 0 1 128.44 20.41Zm151.59 10.03a152.53 152.53 0 0 1-83.08 108.23a4 4 0 0 0-2.28 3.69c0 1.17.05 2.34.05 3.52a151.58 151.58 0 0 1-47.15 109.94a4 4 0 0 0 .64 6.31A135.24 135.24 0 0 0 344 464c72.07 0 134.1-60.28 136-132.34a136.07 136.07 0 0 0-68.76-121.87a4 4 0 0 0-5.93 2.77Z"/><path fill="currentColor" d="M390.57 203.67a4 4 0 0 0-2.69-4.4a135.84 135.84 0 0 0-114.4 12.49a4 4 0 0 0-.64 6.29a151.92 151.92 0 0 1 44.47 81.4a4 4 0 0 0 5.94 2.72a136.29 136.29 0 0 0 67.32-98.5ZM192 328c0-1.18 0-2.35.05-3.52a4 4 0 0 0-2.28-3.69a152.53 152.53 0 0 1-83.08-108.23a4 4 0 0 0-5.88-2.77a136.07 136.07 0 0 0-68.76 121.87C34 403.72 96 464 168.05 464a135.24 135.24 0 0 0 70.46-19.75a4 4 0 0 0 .64-6.31A151.58 151.58 0 0 1 192 328Z"/><path fill="currentColor" d="M168 192a135.34 135.34 0 0 0-43.88 7.27a4 4 0 0 0-2.69 4.4a136.29 136.29 0 0 0 67.32 98.5a4 4 0 0 0 5.94-2.72a151.92 151.92 0 0 1 44.47-81.4a4 4 0 0 0-.64-6.29A135.18 135.18 0 0 0 168 192Zm88 144a151.44 151.44 0 0 1-42.72-6.12a4 4 0 0 0-5.15 4a135.69 135.69 0 0 0 45.18 95.4a4 4 0 0 0 5.38 0a135.69 135.69 0 0 0 45.18-95.4a4 4 0 0 0-5.15-4A151.44 151.44 0 0 1 256 336Zm46.57-27.67a135.94 135.94 0 0 0-43.87-81.58a4.06 4.06 0 0 0-5.4 0a135.94 135.94 0 0 0-43.87 81.58a4 4 0 0 0 2.69 4.4a136.06 136.06 0 0 0 87.76 0a4 4 0 0 0 2.69-4.4Z"/></svg>