<svg xmlns="http://www.w3.org/2000/svg" xmlns:xlink="http://www.w3.org/1999/xlink" width="512" height="512" viewBox="0 0 512 512"><rect width="96" height="96" x="80" y="16" fill="currentColor" rx="8" ry="8"/><rect width="96" height="96" x="208" y="16" fill="currentColor" rx="8" ry="8"/><rect width="96" height="96" x="336" y="16" fill="currentColor" rx="8" ry="8"/><rect width="96" height="96" x="80" y="144" fill="currentColor" rx="8" ry="8"/><rect width="96" height="96" x="208" y="144" fill="currentColor" rx="8" ry="8"/><rect width="96" height="96" x="336" y="144" fill="currentColor" rx="8" ry="8"/><rect width="96" height="96" x="80" y="272" fill="currentColor" rx="8" ry="8"/><rect width="96" height="96" x="208" y="272" fill="currentColor" rx="8" ry="8"/><rect width="96" height="96" x="208" y="400" fill="currentColor" rx="8" ry="8"/><rect width="96" height="96" x="336" y="272" fill="currentColor" rx="8" ry="8"/></svg>