<svg xmlns="http://www.w3.org/2000/svg" xmlns:xlink="http://www.w3.org/1999/xlink" width="512" height="512" viewBox="0 0 512 512"><path fill="none" stroke="currentColor" stroke-linecap="round" stroke-linejoin="round" stroke-width="32" d="M320 96H88a40 40 0 0 0-40 40v240a40 40 0 0 0 40 40h334.73a40 40 0 0 0 40-40V239"/><path fill="none" stroke="currentColor" stroke-linecap="round" stroke-linejoin="round" stroke-width="32" d="m112 160l144 112l87-65.67"/><circle cx="431.95" cy="128.05" r="47.95" fill="currentColor"/><path fill="currentColor" d="M432 192a63.95 63.95 0 1 1 63.95-63.95A64 64 0 0 1 432 192Zm0-95.9a32 32 0 1 0 31.95 32a32 32 0 0 0-31.95-32Z"/></svg>