<svg xmlns="http://www.w3.org/2000/svg" xmlns:xlink="http://www.w3.org/1999/xlink" width="512" height="512" viewBox="0 0 512 512"><path fill="currentColor" d="M384 512H128a64.07 64.07 0 0 1-64-64V64a64.07 64.07 0 0 1 64-64h256a64.07 64.07 0 0 1 64 64v384a64.07 64.07 0 0 1-64 64ZM128 32a32 32 0 0 0-32 32v384a32 32 0 0 0 32 32h256a32 32 0 0 0 32-32V64a32 32 0 0 0-32-32Z"/><path fill="currentColor" d="M384 0a64.07 64.07 0 0 1 64 64v384a64.07 64.07 0 0 1-64 64H128a64.07 64.07 0 0 1-64-64V64a64.07 64.07 0 0 1 64-64h256M128 480h256a32 32 0 0 0 32-32V64a32 32 0 0 0-32-32H128a32 32 0 0 0-32 32v384a32 32 0 0 0 32 32m0-16a16 16 0 0 1-16-16V64a16 16 0 0 1 16-16h256a16 16 0 0 1 16 16v384a16 16 0 0 1-16 16Z"/></svg>