<svg xmlns="http://www.w3.org/2000/svg" xmlns:xlink="http://www.w3.org/1999/xlink" width="32" height="24" viewBox="0 0 32 24"><mask id="flagpackAq0" width="32" height="24" x="0" y="0" maskUnits="userSpaceOnUse"><path fill="#fff" d="M0 0h32v24H0z"/></mask><g fill="none" mask="url(#flagpackAq0)"><path fill="#5196ED" fill-rule="evenodd" d="M0 0v24h32V0H0z" clip-rule="evenodd"/><mask id="flagpackAq1" width="32" height="24" x="0" y="0" maskUnits="userSpaceOnUse"><path fill="#fff" fill-rule="evenodd" d="M0 0v24h32V0H0z" clip-rule="evenodd"/></mask><g mask="url(#flagpackAq1)"><path fill="#F5F8FB" fill-rule="evenodd" d="M8.717 7.894s2.064 1.132 2.352 1.445c.286.314.746 1.464 1.464.814c.717-.65 1.434-.145 1.434-1.181s1.072-3.44 2.626-2.838c1.554.603 2.832.226 3.19.467c.359.24 1.22 1.437 1.89 1.437c.669 0 1.003.699 1.051 1.71c.048 1.013-.215 1.11.407 1.23c.622.12.86.579.55 1.18c-.31.603-.287.338-.24.965c.049.626-.62 4.321-2.678 4.683c-2.056.361-4.005.168-3.48-.53c.527-.7 1.255-1.503.18-1.672c-1.077-.169-1.755-.313-2.831-.023c-1.076.289-2.2.746-2.87-.12c-.67-.868-.526-1.495-1.076-1.905c-.55-.41-1.22-.337-.67-1.132c.55-.795 1.005-.498.55-1.125c-.454-.626-2.169-.9-2.169-1.525c0-.627-1.09-2 .32-1.88z" clip-rule="evenodd"/></g></g></svg>