<svg xmlns="http://www.w3.org/2000/svg" xmlns:xlink="http://www.w3.org/1999/xlink" width="32" height="24" viewBox="0 0 32 24"><mask id="flagpackAr0" width="32" height="24" x="0" y="0" maskUnits="userSpaceOnUse"><path fill="#fff" d="M0 0h32v24H0z"/></mask><g fill="none"><g mask="url(#flagpackAr0)"><path fill="#F7FCFF" fill-rule="evenodd" d="M0 0v24h32V0H0z" clip-rule="evenodd"/><mask id="flagpackAr1" width="32" height="24" x="0" y="0" maskUnits="userSpaceOnUse"><path fill="#fff" fill-rule="evenodd" d="M0 0v24h32V0H0z" clip-rule="evenodd"/></mask><g fill="#58A5FF" fill-rule="evenodd" clip-rule="evenodd" mask="url(#flagpackAr1)"><path d="M0 0v7h32V0H0zm0 17v7h32v-7H0z"/></g></g><path fill="#FFC125" fill-rule="evenodd" d="M15.22 7.128a.134.134 0 0 0-.18.06c-.147.297-.037.558.052.77l.027.066l.05.118l.058.132c.024.055.043.096.06.13a.49.49 0 0 1 .067.276c0 .07-.002.154-.004.245c-.009.439-.022 1.055.137 1.313c.038.062.23-.036.293-.074c.062-.038.039-.241 0-.303c-.16-.26-.16-.79-.16-1.157V8.68a.725.725 0 0 0-.093-.386l-.055-.123a20.506 20.506 0 0 0-.105-.244a1.303 1.303 0 0 0-.039-.083c-.067-.137-.157-.32-.048-.54a.13.13 0 0 0-.06-.176zm1.953.079a.134.134 0 0 0-.188-.015c-.251.216-.253.5-.254.73v.198l.002.145c0 .06.002.105.004.143a.492.492 0 0 1-.046.28l-.1.225c-.18.4-.432.962-.387 1.26c.012.073.226.058.299.048c.072-.01.13-.207.119-.279c-.046-.301.161-.79.305-1.127l.01-.023a.744.744 0 0 0 .064-.391L17 8.265A28.916 28.916 0 0 0 16.997 8l-.003-.091c-.009-.153-.02-.357.166-.516a.13.13 0 0 0 .013-.186zm1.583.718a.134.134 0 0 1 .168.083a.13.13 0 0 1-.081.168c-.233.078-.299.271-.348.416c-.01.031-.02.06-.031.086a3.64 3.64 0 0 0-.045.11l-.053.137c-.02.048-.035.09-.048.125a.736.736 0 0 1-.207.34l-.018.017c-.26.26-.634.634-.704.93c-.017.072-.144.232-.215.215c-.072-.018-.276-.084-.26-.155c.07-.294.515-.721.832-1.025c.066-.063.126-.12.176-.171c.098-.098.113-.142.148-.242a1.68 1.68 0 0 1 .05-.134c.01-.03.052-.135.052-.135a4.147 4.147 0 0 1 .075-.184c.087-.213.195-.476.509-.581zm1.494 1.509a.134.134 0 0 0-.123-.143c-.33-.026-.531.173-.695.336a4.453 4.453 0 0 0-.14.14l-.102.103a2.822 2.822 0 0 0-.098.104a.486.486 0 0 1-.23.166l-.23.088c-.41.156-.986.375-1.165.619c-.043.059.119.2.178.243c.058.045.238-.053.28-.112c.181-.246.673-.445 1.014-.582l.022-.01a.736.736 0 0 0 .323-.23l.093-.097a23.105 23.105 0 0 0 .187-.19a1.3 1.3 0 0 0 .063-.066c.102-.114.238-.266.482-.247a.13.13 0 0 0 .14-.122zm.606 1.615a.134.134 0 0 1 .06.178a.13.13 0 0 1-.176.061c-.22-.11-.403-.02-.54.048c-.03.015-.058.029-.083.039a4.021 4.021 0 0 0-.11.047l-.134.058l-.123.056a.736.736 0 0 1-.386.092h-.024c-.367 0-.898 0-1.157.16c-.062.039-.265.062-.303 0c-.038-.063-.136-.255-.073-.293c.257-.159.873-.146 1.312-.137c.09.002.174.004.245.004c.14 0 .18-.02.276-.067c.034-.016.075-.036.13-.06a27.316 27.316 0 0 0 .25-.108l.065-.027c.213-.09.474-.199.771-.051zm-.02 2.115a.134.134 0 0 0 .015-.188c-.215-.252-.498-.253-.73-.254h-.197l-.145.001c-.06 0-.105.003-.143.005c-.107.005-.152.008-.28-.047a11.934 11.934 0 0 1-.225-.1c-.4-.179-.962-.432-1.261-.386c-.072.011-.057.225-.047.298c.01.073.207.13.279.12c.301-.047.79.16 1.127.304l.023.01c.168.071.238.07.391.065c.039-.001.083-.003.135-.003a29.045 29.045 0 0 0 .266-.002c.027 0 .058 0 .091-.003c.153-.008.356-.02.516.167a.13.13 0 0 0 .186.013zm-.724 1.566a.134.134 0 0 1-.084.169a.13.13 0 0 1-.167-.082c-.078-.232-.271-.298-.416-.348a.935.935 0 0 1-.086-.031a26.924 26.924 0 0 1-.373-.146a.735.735 0 0 1-.339-.207l-.017-.017c-.26-.26-.634-.635-.931-.705c-.071-.017-.232-.144-.214-.215c.018-.071.084-.276.155-.259c.294.07.721.515 1.025.831c.063.066.12.126.17.176c.1.099.142.114.243.148c.036.013.079.028.134.05a41.717 41.717 0 0 0 .253.1l.066.027c.213.088.476.195.58.509zm-1.521 1.482a.134.134 0 0 0 .142-.122c.026-.33-.173-.532-.336-.696l-.05-.05a4.73 4.73 0 0 0-.09-.09l-.103-.102a2.8 2.8 0 0 0-.104-.097a.496.496 0 0 1-.166-.231a12.314 12.314 0 0 1-.088-.23c-.156-.41-.375-.986-.619-1.165c-.058-.043-.2.12-.243.178c-.044.059.054.238.112.281c.246.18.445.673.582 1.013l.01.023c.068.17.118.217.23.322l.097.094a24.315 24.315 0 0 0 .19.187c.018.02.041.04.066.062c.114.102.266.238.247.483a.13.13 0 0 0 .122.14zm-1.632.6a.134.134 0 0 1-.178.06a.13.13 0 0 1-.061-.176c.109-.22.019-.403-.048-.54a1.247 1.247 0 0 1-.039-.083a20.447 20.447 0 0 1-.16-.367c-.065-.14-.094-.202-.094-.386v-.024c0-.367 0-.898-.16-1.157c-.038-.062-.062-.265.001-.303c.063-.038.255-.136.293-.074c.159.258.146.874.137 1.313c-.002.09-.004.174-.004.245c0 .14.02.18.067.276c.016.034.036.075.06.13a29.663 29.663 0 0 0 .108.25l.027.065c.089.213.198.474.051.771zm-2.132-.019a.134.134 0 0 0 .187.015c.252-.216.253-.5.254-.73l.001-.071v-.127l-.002-.145c0-.06-.002-.105-.004-.143a.492.492 0 0 1 .046-.28l.1-.225c.18-.4.432-.962.386-1.261c-.01-.072-.225-.057-.298-.047c-.072.01-.13.207-.119.279c.046.301-.161.79-.305 1.127l-.01.023a.755.755 0 0 0-.065.391a21.966 21.966 0 0 0 .005.4l.003.092c.008.153.02.357-.167.516a.13.13 0 0 0-.012.186zm-1.583-.718a.134.134 0 0 1-.168-.083a.13.13 0 0 1 .08-.168c.234-.078.3-.271.349-.416c.01-.031.02-.06.031-.086l.045-.11a26.924 26.924 0 0 1 .101-.263a.735.735 0 0 1 .207-.338l.018-.018c.259-.26.634-.634.704-.931c.017-.071.144-.231.215-.214c.072.018.276.084.26.155c-.07.294-.515.721-.832 1.025c-.066.063-.126.12-.176.171c-.098.098-.113.142-.148.242a2.81 2.81 0 0 1-.05.134l-.052.135a4.133 4.133 0 0 1-.075.184c-.087.213-.195.476-.509.581zm-1.48-1.485a.134.134 0 0 0 .124.141c.331.02.529-.183.69-.348a21.445 21.445 0 0 1 .238-.248c.04-.043.07-.077.095-.106c.07-.08.1-.115.228-.169a8.12 8.12 0 0 1 .228-.092c.407-.164.98-.393 1.154-.64c.042-.059-.122-.197-.182-.24c-.06-.043-.237.058-.28.118c-.175.249-.664.456-1.001.6l-.023.009a.735.735 0 0 0-.319.236l-.091.099l-.1.106a3.83 3.83 0 0 1-.084.086c-.02.02-.04.043-.061.068c-.1.116-.234.27-.479.255a.13.13 0 0 0-.138.125zm-.62-1.639a.134.134 0 0 1-.06-.178a.13.13 0 0 1 .176-.061c.22.109.402.02.54-.048c.03-.015.057-.029.083-.039l.11-.047l.134-.059l.122-.054a.73.73 0 0 1 .386-.094h.025c.367 0 .897 0 1.157-.16c.062-.038.265-.062.303.001c.038.063.135.255.073.293c-.257.159-.873.146-1.312.137a12.502 12.502 0 0 0-.246-.004a.49.49 0 0 0-.276.067a2.756 2.756 0 0 1-.13.06l-.132.058a4.17 4.17 0 0 1-.182.077c-.213.09-.475.199-.771.051zm.019-2.115a.134.134 0 0 0-.014.188c.215.252.498.253.73.254h.197l.145-.001c.06 0 .105-.003.143-.005a.492.492 0 0 1 .28.047c.065.027.142.062.225.1c.4.179.962.432 1.261.386c.072-.011.057-.226.047-.298c-.01-.073-.207-.13-.279-.12c-.301.047-.79-.16-1.127-.304l-.023-.01a.735.735 0 0 0-.391-.065c-.039.001-.083.003-.135.003a21.966 21.966 0 0 0-.266.002c-.027 0-.058 0-.091.003c-.153.008-.357.02-.516-.167a.13.13 0 0 0-.186-.013zm.725-1.566a.134.134 0 0 1 .084-.169a.13.13 0 0 1 .167.082c.078.232.271.298.416.348l.086.03c.033.015.068.029.11.046a26.924 26.924 0 0 1 .263.1c.144.054.209.078.338.208l.018.017c.26.26.634.635.931.705c.07.017.231.144.214.215c-.018.071-.084.276-.155.259c-.294-.07-.721-.515-1.025-.831a11.442 11.442 0 0 0-.171-.176a.491.491 0 0 0-.242-.149a2.883 2.883 0 0 1-.134-.049l-.135-.052a4.234 4.234 0 0 1-.118-.048l-.066-.027c-.213-.088-.476-.195-.581-.51zm1.521-1.482a.134.134 0 0 0-.143.122c-.025.33.174.532.336.696l.05.05c.028.029.055.057.09.09l.104.102c.042.042.076.072.104.097c.08.072.113.102.165.231c.027.066.057.144.089.23c.156.41.375.986.618 1.165c.06.043.2-.12.244-.178c.044-.059-.054-.238-.113-.281c-.245-.18-.444-.673-.581-1.013l-.01-.023a.736.736 0 0 0-.23-.323a3.495 3.495 0 0 1-.097-.093l-.105-.102a4.127 4.127 0 0 1-.085-.085a1.273 1.273 0 0 0-.066-.062c-.114-.102-.266-.238-.247-.483a.13.13 0 0 0-.123-.14z" clip-rule="evenodd"/><path fill="#984111" d="m15.04 7.188l-.066-.033l.067.033zm.052.77l.07-.028l-.07.029zm0 0l-.07.03l.07-.03zm.027.066l-.07.029l.07-.029zm.05.118l-.069.03l.138-.06l-.07.03zm.058.132l-.069.03l.07-.03zm.06.13l-.067.033l.067-.033zm.063.521l.075.002l-.075-.002zm0 0l-.075-.002l.075.002zm.137 1.313l.064-.04l-.064.04zm.293-.377l.064-.04l-.064.04zm-.16-1.157h.075h-.075zm0-.024h.075h-.075zm-.093-.386l.069-.032l-.069.032zm-.055-.123l.07-.03l-.07.03zm-.058-.134l-.07.03l.138-.06l-.068.03zm-.047-.11l-.07.028l.07-.028zm-.039-.083l-.067.033l.067-.033zm-.048-.54l.067.033l-.067-.033zm1.705-.112l-.048-.056l.048.056zm.188.015l-.056.05l.056-.05zm-.442.715h-.075h.075zm0 0h.075h-.075zm0 .071l-.075-.001l.075.001zm0 .127l-.075.001h.075zm0 0l-.075.001h.075zm0 0h.075h-.075zm.002.145h.075h-.075zm.004.143l-.075.004l.075-.004zm-.046.28l-.07-.03l.07.03zm-.1.225l-.068-.031l.068.03zm0 0l.069.03l-.069-.03zm-.387 1.26l.075-.01l-.075.01zm.299.048l-.01-.075l.01.075zm.119-.279l-.074.011l.074-.011zm.305-1.127l.069.029v-.001l-.07-.028zm0 0l-.07-.029l.07.029zm0 0l-.07-.03v.001l.07.029zm.01-.023l.068.03l-.069-.03zM17 8.401h-.075v.002L17 8.401zm0 0h.075v-.003L17 8.4zm0-.136h.075H17zm-.002-.146h-.075l.15-.001h-.075zm0-.12l.075.001h-.075zm-.003-.091l.075-.004l-.075.004zm.166-.516l-.048-.057l.049.057zm1.764.615l-.07.025l.07-.025zm-.168-.083l.023.07l-.023-.07zm.087.251l-.024-.071l.024.071zm-.348.416l.071.024l-.071-.024zm-.031.086l.069.03l-.07-.03zm-.098.247l.07.028l-.07-.028zm-.048.125l-.07-.026l.07.026zm0 0l-.07-.025l.07.026zm0 0l.07.028v-.002l-.07-.025zm0 0l-.07-.026l-.001.003l.07.024zm0 0l.07.025l-.07-.024zm0 0l.07.027v-.002l-.07-.024zm0 0l-.07-.026v.002l.07.025zm0 0l.07.027v-.001l-.07-.025zm0 0l.07.027l-.07-.026zm-.207.34l.053.053l-.053-.054zm-.018.017l.053.053l-.053-.053zm-.704.93l.072.018l-.072-.017zm-.215.215l.018-.073l-.018.073zm-.26-.155l-.072-.018l.073.018zm.832-1.025l-.052-.054l.052.054zm.324-.413L18 8.934l.07.025zm.05-.134l-.07-.028l.07.027zm.052-.135l-.07-.028l.14.055l-.07-.027zm.047-.118l.07.029l-.07-.03zm.028-.066l-.07-.029l.07.03zm0 0l-.07-.029l.07.03zm0 0l.069.03l.001-.004l-.07-.026zm0 0l-.07-.028v.002l.07.026zm1.88.785l.006-.075l-.006.075zm.123.143l.075.005l-.075-.005zm-.818.193l-.053-.053l.053.053zm0 0l-.053-.053l.053.053zm0 0l.052.053l-.052-.053zm0 0l.052.054l-.053-.054zm-.051.05l-.052-.054l.052.054zm-.09.09l-.054-.053l.108.105l-.054-.052zm-.101.103l-.053-.052l.053.052zm-.098.104l.056.05l-.056-.05zm-.23.166l-.029-.07l.028.07zm-.23.088l-.027-.07l.027.07zm-1.165.619l-.06-.045l.06.045zm.178.243l-.046.06l.046-.06zm.28-.112l-.06-.045l.06.045zm1.014-.582l.027.07l-.027-.07zm.022-.01l.028.07l-.028-.07zm.323-.23l.055.052l-.055-.052zm.093-.097l.054.053l-.054-.053zm.103-.105l-.054-.052l.107.105l-.053-.053zm.084-.084l-.052-.054l.052.054zm.063-.067l-.055-.051l-.001.001l.056.05zm0 0l.055.052l.005-.008l-.06-.044zm0 0l-.056-.05l-.005.006l.06.044zm.482-.247l.006-.075l-.006.075zm.747 1.493l-.033.067l.033-.067zm-.116.24l.034-.068l-.034.067zm-.54.047l-.033-.067l.033.067zm0 0l.033.068l-.033-.068zm-.083.039l-.028-.07l.028.07zm-.11.047l-.03-.07l.06.138l-.03-.068zm-.134.058l.03.07l-.03-.07zm-.123.056l-.031-.069l-.002.001l.033.068zm0 0l.032.068l.002-.001l-.034-.067zm-.386.092v.075v-.075zm-.024 0v.075v-.075zm-1.157.16l-.04-.063l.04.064zm-.303 0l.064-.04l-.064.04zm-.073-.293l.039.064l-.04-.064zm1.312-.137l.002-.075l-.002.075zm0 0l-.002.075l.002-.075zm.521-.063l.033.068l-.033-.068zm.13-.06l-.03-.069l.03.07zm.133-.058l-.03-.069l.06.137l-.03-.068zm.117-.05l-.029-.07l.029.07zm.065-.027l-.028-.07l.028.07zm0 0l.028.07h.001l-.029-.07zm.766 1.876l.057-.049l-.057.049zm-.73-.254l.001-.075v.075zm0 0v.075v-.075zm-.07 0l.001-.076l-.001.075zm-.127 0l-.001-.076v.075zm0 0v.074v-.075zm0 0v-.076h-.002l.001.075zm-.145.001v.075v-.075zm-.143.005l-.004-.075l.004.075zm-.28-.047l.03-.069l-.03.07zm-.225-.1l-.032.069h.001l.031-.068zm0 0l.032-.067h-.001l-.03.068zm-1.261-.386l.011.074l-.011-.074zm-.047.298l-.074.01l.074-.01zm.279.12l-.012-.075l.012.074zm1.127.304l-.03.069l.03-.069zm.023.01l-.03.069l.03-.07zm.391.065v-.075h-.002l.002.075zm0 0v.075h.002l-.002-.075zm.135-.003v.075v-.075zm.146-.002v-.075l.001.15v-.075zm.12 0l-.002.075l.002-.075zm.091-.003l.004.075l-.004-.075zm.516.167l.057-.049l-.057.049zm-.54 1.579l.072-.024l-.071.024zm-.25.087l.07-.024l-.07.024zm-.416-.348l-.024.071l.024-.07zm-.086-.031l.03-.069l-.03.069zm-.111-.045l.027-.07l-.054.14l.027-.07zm-.136-.053l-.028.07l.028-.07zm-.126-.048l.026-.07l-.026.07zm0 0l-.026.07l.026-.07zm-.339-.207l-.053.053l.053-.053zm-.017-.017l-.053.053l.053-.053zm-.931-.705l-.017.073l.017-.073zm-.059-.474l.017-.073l-.017.073zm1.025.831l-.055.052l.002.001l.053-.053zm0 0l.054-.052h-.001l-.053.052zm0 0l-.055.052l.055-.052zm0 0l.054-.052l-.054.052zm.413.324l-.024.071l.024-.07zm.134.05l.028-.07l-.028.07zm.135.052l.027-.07l-.055.14l.028-.07zm.118.048l-.03.069l.03-.069zm.066.027l.028-.07l-.028.07zm-.797 1.869l-.075-.006l.075.006zm-.144.122l-.005.075l.005-.075zm-.193-.818l.054-.053l-.054.053zm-.05-.05l.054-.053l-.053.052zm-.09-.09l.053-.054l-.105.107l.053-.054zm-.103-.102l.053-.053l-.053.053zm-.104-.097l-.053.053l.002.002l.05-.055zm0 0l.053-.053l-.003-.003l-.05.056zm-.166-.231l.07-.028l-.07.028zm-.088-.23l.07-.026l-.07.026zm-.619-1.165l.045-.06l-.045.06zm-.13.46l-.045.06l.044-.06zm.581 1.012l-.07.028l.07-.028zm.01.023l-.07.028l.07-.028zm.23.322l-.051.055l.051-.055zm.097.094l-.053.053l.053-.053zm.105.102l.052-.054l-.105.107l.053-.053zm.084.085l.054-.053l-.054.053zm.067.062l-.05.056l.003.003l.047-.06zm0 0l.05-.056l-.003-.003l-.047.059zm.247.483l-.075-.006l.075.006zm-1.687.8l.032-.067l-.032.067zm.178-.06l-.067-.033l.067.033zm-.24-.116l.068.033l-.067-.033zm-.047-.54l.067-.033l-.067.033zm0 0l-.068.033l.068-.033zm-.039-.083l.07-.028l-.07.028zm-.047-.11l.069-.03l-.137.06l.068-.03zm-.059-.134l-.069.03l.07-.03zm-.055-.123l.069-.031l-.069.031zm-.093-.386h-.075h.075zm0-.024h-.075h.075zm-.16-1.157l.064-.04l-.064.04zm.001-.303l.039.064l-.039-.064zm.293-.074l-.064.04l.064-.04zm.137 1.313l.075.002l-.075-.002zm0 0l-.075-.002l.075.002zm.063.521l-.068.033l.068-.033zm.06.13l-.07.03l.07-.03zm.058.132l.069-.03l-.138.06l.069-.03zm.05.117l.07-.028l-.07.029zm.027.066l.07-.028h-.001l-.07.028zm0 0l-.07.028v.001l.07-.029zm-1.894.767l-.048-.058l.048.058zm.254-.73h.075h-.075zm0 0h-.075h.075zm.001-.071l.075.001l-.075-.001zm0-.127l.075-.001h-.075zm0 0l.075-.002l-.075.002zm-.002-.145h.075h-.075zm-.004-.143l.075-.004l-.075.004zm0 0l-.075.004l.075-.004zm.046-.28l.07.03l-.07-.03zm.1-.225l.068.031l.001-.003l-.07-.028zm0 0l-.069-.03l-.001.002l.07.028zm.386-1.261l.074-.011l-.074.011zm-.298-.047l-.01-.074l.01.074zm-.119.279l-.074.011l.074-.011zm-.305 1.127l-.069-.03l.07.03zm-.01.023l-.068-.03l.069.03zm-.065.391l-.074.003l.075-.003zm.003.135h.075h-.075zm.002.146h.075l-.15.001h.075zm0 .12l-.075-.002l.075.002zm.003.091l.075-.004l-.075.004zm-.167.516l-.049-.057l.05.057zm-1.764-.615l-.07.024l.07-.024zm.17.083l.023.071l-.024-.07zm-.088-.251l.024.071l-.024-.071zm.348-.416l.07.024l-.07-.024zm.031-.086l.07.03l-.07-.03zm.045-.11l.07.027l-.14-.055l.07.027zm.053-.137l.07.027l-.07-.027zm.048-.126l-.07-.029v.003l.07.026zm0 0l.07.029v-.003l-.07-.026zm.207-.338l-.053-.054l.053.053zm.018-.018l-.047-.059l-.006.006l.053.053zm0 0l.047.059l.006-.006l-.053-.053zm.704-.931l-.073-.017l.073.017zm.474-.059l-.073-.017l.073.017zm-.83 1.025l.049.056l.002-.002l-.052-.054zm0 0l-.05-.056l-.003.002l.052.054zm-.001 0l.052.054l-.052-.054zm0 0l-.052-.054l.052.054zm0 0l-.052-.054l.052.054zm0 0l.052.054l-.052-.054zm-.176.171l.053.053l-.053-.053zm-.148.242l.07.027v-.002l-.07-.025zm0 0l-.07-.026l-.001.002l.07.024zm-.05.134l-.07-.027l.07.027zm-.052.135l.07.028l-.14-.055l.07.027zm-.048.118l-.069-.03l.07.03zm-.027.066l.07.028l-.07-.028zm-1.865-.763l-.004.075l.004-.075zm-.125-.14l-.075-.004l.075.003zm.815-.208l-.054-.053l.054.053zm.05-.05l.053.052l-.053-.053zm.088-.092l.055.051l-.109-.103l.054.052zm.1-.106l-.055-.052l.054.052zm.095-.106l-.056-.049l.056.05zm.228-.169l-.03-.069l.03.07zm.228-.092l-.028-.07l.028.07zm0 0l-.027-.07l.027.07zm0 0l.027.07l-.027-.07zm1.154-.64l.061.044l-.06-.043zm-.182-.24l-.044.06l.044-.06zm-.28.118l.062.043l-.061-.043zm-1.001.6l-.03-.07l.03.07zm-.023.009l-.03-.07l.03.07zm-.319.236l-.055-.05l.055.05zm-.091.099l.054.051l-.054-.051zm-.1.106l.054.052l-.11-.103l.055.051zm-.084.086l-.053-.053l.053.053zm-.061.068l.057.05l-.057-.05zm-.479.255l-.004.075l.005-.075zm-.817-1.692l.067.032l-.067-.032zm.06.178l.033-.067l-.033.067zm.116-.24l.033-.066l-.033.067zm.54-.047l-.031-.069l-.002.001l.033.068zm0 0l.03.068l.003-.001l-.033-.067zm.083-.039l.028.07l-.028-.07zm.11-.047l.03.069l-.06-.137l.03.068zm.134-.059l-.03-.068l.03.068zm.122-.054l.032.068l-.032-.068zm0 0l.032.068l-.032-.069zm0 0l.032.068l.002-.002l-.034-.067zm0 0l-.03-.069l-.003.001l.034.067zm.386-.094v-.075v.075zm.025 0v-.075v.075zm1.157-.16l-.04-.063l.04.063zm.303.001l.064-.038l-.064.038zm.073.293l-.04-.064l.04.064zm-1.312.137l-.002.075l.002-.075zm0 0l.002-.075l-.002.075zm-.522.063l.033.067l-.033-.067zm-.13.06l-.029-.069l.03.069zm-.132.058l.03.069l-.06-.138l.03.07zm-.117.05l.028.07l-.028-.07zm-.066.027l.029.07l-.028-.07zm0 0l-.028-.07l.029.07zm-.765-1.876l.057-.049l-.057.049zm.014-.188l.05.057l-.05-.057zm.715.442v.075v-.075zm0 0v-.075v.075zm.071 0l-.001.076l.001-.075zm.127 0l.001.076v-.075zm0 0l.002.076l-.002-.075zm0 0l.002.076l-.001-.075zm.145-.001v-.075v.075zm.143-.005v-.075h-.004l.004.075zm0 0v.075h.005l-.005-.075zm0 0l-.004-.075h-.001l.005.075zm.28.047l-.03.069l.03-.07zm.225.1l-.031.068l.03-.069zm1.261.386l.011.074l-.011-.074zm-.232-.417l-.011-.075l.011.075zm-1.127-.305l.03-.07l-.03.07zm-.023-.01l.03-.069l-.03.07zm-.391-.065l-.003-.075l.003.075zm-.135.003v.075v-.075zm-.146.002v.075l-.001-.15v.075zm-.12 0l.002-.075l-.002.075zm-.091.003v.075h.004l-.004-.075zm0 0v-.075h-.004l.004.075zm-.516-.167l.057-.049l-.057.049zm.623-1.748l-.025-.07l.025.07zm-.084.169l.071-.024l-.071.024zm.251-.087l.071-.024l-.07.024zm.416.348l-.024.07l.024-.07zm.086.03l-.03.07l.03-.07zm.247.099l-.027.07l.027-.07zm.126.048l.028-.07h-.002l-.026.07zm0 0l-.028.07h.002l.026-.07zm.338.207l.054-.053l-.054.053zm.018.017l.053-.053l-.053.053zm.931.705l.017-.073l-.017.073zm.214.215l-.073-.018l.073.018zm-.155.259l-.018.073l.018-.073zm-1.025-.831l-.055.05l.001.002l.054-.052zm0 0l.055-.05v-.002l-.055.052zm-.171-.176l.053-.054l-.053.053zm-.242-.149l.024-.07l-.024.07zm0 0l-.025.071h.001l.024-.07zm-.134-.049l.027-.07l-.027.07zm-.135-.052l-.028.07l.055-.14l-.027.07zm-.118-.048l-.03.069l.03-.069zm-.066-.027l-.028.07l.028-.07zm.797-1.869l-.074-.005l.074.005zm.143-.122l-.005.075l.005-.075zm.193.818l-.053.053l.053-.053zm.05.05l.054-.051l-.054.052zm.09.09l-.052.054l.105-.107l-.053.054zm.104.102l-.053.053l.053-.053zm.104.097l-.05.056l.05-.056zm.165.231l-.07.028l.07-.028zm.089.23l-.07.026l.07-.026zm.618 1.165l-.044.06l.044-.06zm.244-.178l.06.045l-.06-.045zm-.113-.281l-.044.06l.044-.06zm-.581-1.013l-.07.028l.07-.028zm-.01-.023l.07-.028l-.07.028zm-.23-.323l-.052.055l.052-.055zm-.097-.093l-.053.054l.053-.054zm-.105-.102l-.052.054l.104-.108l-.052.054zm-.085-.085l-.053.053l.053-.053zm-.066-.062l.05-.056l-.05.056zm-.247-.483l-.075-.006l.075.006zm1.576-.707a.059.059 0 0 1 .079-.026l.065-.135a.21.21 0 0 0-.278.095l.134.066zm.053.709c-.09-.216-.184-.446-.053-.709l-.134-.066c-.165.33-.04.623.049.833l.138-.058zm0 0l-.138.057l.138-.057zm.028.066a4.72 4.72 0 0 0-.028-.066l-.138.058l.027.065l.139-.057zm.049.115a4.183 4.183 0 0 1-.05-.115l-.138.057c.015.037.03.074.05.119l.138-.06zm.058.133a9.677 9.677 0 0 0-.034-.077l-.017-.04l-.006-.011a.046.046 0 0 0-.001-.004s-.1-.04-.138.06l.138-.06c-.039.098-.138.06-.138.06v.001l.002.003l.005.012l.018.04l.033.076l.138-.06zm.059.127l-.06-.127l-.137.06c.024.056.045.098.062.133l.134-.066zm.074.309a.647.647 0 0 0-.019-.174c-.013-.048-.033-.088-.056-.135l-.134.066a.668.668 0 0 1 .046.108a.525.525 0 0 1 .013.135h.15zm-.004.247c.002-.091.004-.175.004-.247h-.15c0 .07-.002.152-.004.244l.15.003zm0 0l-.15-.004l.15.004zm.126 1.271a.728.728 0 0 1-.08-.228a2.381 2.381 0 0 1-.04-.325a8.686 8.686 0 0 1-.006-.718l-.15-.003c-.004.219-.01.486.006.73c.008.123.02.241.043.347a.87.87 0 0 0 .1.276l.127-.079zm.19-.098a.878.878 0 0 1-.142.068a.239.239 0 0 1-.062.015c-.017 0 .001-.005.014.015l-.128.079c.032.051.088.057.12.055a.378.378 0 0 0 .106-.023a1.16 1.16 0 0 0 .17-.08l-.078-.13zm-.024-.2a.45.45 0 0 1 .026.125a.26.26 0 0 1-.004.067c-.005.02-.009.014.002.008l.077.128a.157.157 0 0 0 .066-.101a.402.402 0 0 0 .009-.109a.59.59 0 0 0-.015-.106a.312.312 0 0 0-.034-.09l-.127.078zm-.172-1.196c0 .183 0 .41.02.626c.02.212.062.425.152.57l.127-.078c-.07-.114-.11-.297-.129-.506c-.02-.207-.02-.428-.02-.612h-.15zm0-.024v.024h.15V8.68h-.15zm-.086-.355c.033.071.053.116.067.165a.7.7 0 0 1 .02.19h.15a.843.843 0 0 0-.026-.23c-.017-.062-.043-.119-.074-.188l-.137.063zm-.055-.124c.02.048.04.089.055.124l.137-.063a5.651 5.651 0 0 1-.055-.12l-.137.059zm.078-.194c-.032.096-.133.067-.137.061l.002.004a.677.677 0 0 1 .005.012l.017.039l.035.078l.137-.06l-.034-.079l-.018-.039a.705.705 0 0 0-.005-.012l-.001-.003v-.001h-.001v-.001c-.003-.006-.105-.035-.138.06v.001l.138-.06zm-.185-.052l.048.112l.137-.06a4.127 4.127 0 0 1-.046-.108l-.139.056zm-.036-.078c.015.03.027.056.036.078l.14-.056a1.338 1.338 0 0 0-.041-.088l-.135.066zm-.048-.606c-.127.255-.019.47.048.606l.135-.066c-.069-.14-.14-.29-.049-.474l-.134-.066zm-.026-.076c.029.014.04.048.026.075l.134.067a.206.206 0 0 0-.095-.277l-.066.135zm1.847.054a.06.06 0 0 1 .083.007l.113-.099a.21.21 0 0 0-.293-.021l.097.113zm-.228.673c.002-.233.005-.482.228-.673l-.097-.113c-.28.24-.28.558-.28.786h.15zm0 0h-.15h.15zm0 0h-.15h.15zm0 0h-.15h.15zm0 0h-.15h.15zm0 0h-.15h.15zm0 0h-.15h.15zm0 0h-.15h.15zm0 0h-.15h.15zm0 0h-.15h.15zm0 0h-.15h.15zm0 0h-.15h.15zm0 0h-.15h.15zm0 0h-.15h.15zm0 0h-.15h.15zm0 .072v-.071h-.15v.069l.15.002zm0 .125v-.125l-.15-.002v.13l.15-.003zm0 0l-.15.002l.15-.002zm0 0l-.15.003l.15-.002zm.002.146l-.002-.145l-.15.002l.002.143h.15zm.004.139a3.775 3.775 0 0 1-.005-.14l-.15.001c0 .062.003.109.005.147l.15-.008zm-.052.313a.644.644 0 0 0 .05-.167a.71.71 0 0 0 .002-.146l-.15.008a.63.63 0 0 1 0 .118a.501.501 0 0 1-.04.129l.138.058zm-.1.226c.037-.083.072-.16.1-.226l-.138-.058l-.1.223l.138.061zm0 0l-.137-.061l.137.061zm-.381 1.22a.727.727 0 0 1 .015-.241c.02-.097.05-.204.09-.316c.079-.224.186-.462.276-.663l-.137-.061c-.09.2-.2.443-.28.675c-.041.115-.075.23-.096.335a.869.869 0 0 0-.017.293l.149-.023zm.213-.017a.88.88 0 0 1-.157.007a.235.235 0 0 1-.063-.01c-.015-.006.003-.004.007.02l-.149.022c.01.06.059.087.09.098a.381.381 0 0 0 .106.02c.07.004.148-.003.187-.008l-.02-.149zm.056-.193a.18.18 0 0 1-.004.049a.448.448 0 0 1-.02.076a.253.253 0 0 1-.031.06c-.012.016-.013.01 0 .008l.02.149a.157.157 0 0 0 .1-.068a.403.403 0 0 0 .05-.096a.602.602 0 0 0 .029-.104a.317.317 0 0 0 .004-.096l-.148.022zm.31-1.168a6.569 6.569 0 0 0-.226.584c-.065.204-.11.415-.084.584l.148-.022c-.02-.133.015-.316.079-.516c.062-.198.149-.402.22-.571l-.137-.059zm-.001.002l.14.056l-.14-.056zm0-.001l.139.057l-.139-.057zm.01-.023l-.01.022l.139.059l.01-.023l-.139-.058zm.06-.36a1.07 1.07 0 0 1-.004.177a.7.7 0 0 1-.056.183l.138.058a.846.846 0 0 0 .067-.22c.008-.065.006-.127.004-.203l-.15.005zm0-.002h.15h-.15zm0 0h.15h-.15zm-.003-.135l.002.137l.15-.005l-.002-.132h-.15zm.148-.147c-.068.075-.15.009-.15.003V8.12v.062l.002.085h.15a12.281 12.281 0 0 0-.002-.143v-.006c0-.006-.082-.073-.15.002l.15-.001zm-.15-.12v.122l.15-.002V8h-.151zm-.003-.086l.003.086l.15.002l-.003-.096l-.15.008zm.193-.577c-.217.186-.201.426-.193.577l.15-.008c-.009-.155-.015-.322.14-.455l-.097-.114zm.005-.08a.056.056 0 0 1-.005.08l.097.114a.206.206 0 0 0 .02-.293l-.112.1zm1.878.728a.21.21 0 0 0-.263-.13l.047.142a.06.06 0 0 1 .074.037l.142-.05zm-.128.263a.206.206 0 0 0 .128-.263l-.142.05a.056.056 0 0 1-.034.071l.048.142zm-.301.37c.05-.147.106-.305.3-.37l-.047-.142c-.271.091-.346.32-.395.463l.142.048zm-.033.09c.012-.028.022-.06.033-.09l-.142-.05c-.011.033-.02.06-.03.082l.139.058zm-.044.109c.016-.043.03-.076.044-.109l-.139-.058l-.045.112l.14.055zm-.054.137l.032-.08l.015-.04l.005-.013l.001-.003v-.001l.001-.001c.002-.006-.05-.098-.14-.054l.14.055c-.091.045-.143-.047-.14-.053v-.001l-.002.004l-.005.012l-.015.04l-.031.08l.14.055zm-.047.124c.014-.036.028-.077.047-.124l-.139-.056c-.02.05-.035.091-.048.127l.14.053zm0 0l-.14-.052l.14.051zm0 0l-.14-.052l.14.051zm0 0l-.14-.053l.14.054zm0-.002l-.141-.048l.142.048zm0 0l-.141-.049l.142.05zm0 .002l-.14-.053l.14.053zm0-.001l-.14-.05l.14.05zm0 0l-.14-.051l.14.052zm-.224.366a.846.846 0 0 0 .144-.18c.032-.056.054-.114.08-.185l-.14-.052c-.028.073-.045.12-.07.163a.704.704 0 0 1-.12.148l.106.106zm-.018.018l.018-.018l-.106-.106l-.018.018l.106.106zm-.685.895c.031-.13.133-.287.267-.449a6.59 6.59 0 0 1 .418-.446l-.106-.106c-.13.129-.29.29-.428.457c-.136.164-.257.343-.296.51l.145.034zm-.306.27a.157.157 0 0 0 .12-.025a.404.404 0 0 0 .082-.071a.59.59 0 0 0 .065-.086a.312.312 0 0 0 .04-.088l-.146-.034a.184.184 0 0 1-.022.043a.441.441 0 0 1-.048.063a.257.257 0 0 1-.05.045c-.018.01-.017.004-.004.007l-.037.145zm-.313-.246c-.014.059.021.103.045.125c.026.023.06.043.092.058c.064.03.138.053.176.062l.037-.145a.884.884 0 0 1-.149-.053a.242.242 0 0 1-.054-.033c-.012-.011.004-.002-.001.02l-.146-.034zm.852-1.061c-.158.151-.35.336-.513.52a2.536 2.536 0 0 0-.214.276a.868.868 0 0 0-.125.265l.146.035a.725.725 0 0 1 .104-.218c.054-.082.123-.17.202-.259c.157-.178.345-.359.504-.51l-.104-.109zm.175-.17c-.05.05-.11.107-.175.17l.104.108c.065-.063.126-.121.177-.172l-.106-.106zm.13-.214a.627.627 0 0 1-.044.11a.498.498 0 0 1-.086.104l.106.106a.646.646 0 0 0 .11-.136a.814.814 0 0 0 .056-.135L18 8.933zm.05-.137c-.022.057-.037.101-.05.137l.142.05c.012-.037.027-.078.048-.132l-.14-.055zm.193-.08c-.097.043-.14-.054-.14-.054l-.002.004l-.005.013l-.015.039l-.03.078l.139.055c.006-.015.02-.049.03-.079l.016-.04l.005-.012l.001-.003v-.001s-.042-.097-.139-.055l.14.055zm-.091-.175l-.05.12l.14.055l.047-.116l-.137-.059zm.026-.064l-.026.064l.137.059l.028-.066l-.139-.057zm0 0l.139.057l-.139-.058zm0-.001l.139.058l-.138-.058zm0 .003l.14.052l-.14-.052zm.555-.626c-.35.117-.468.413-.555.624l.14.056c.088-.216.184-.445.462-.538l-.047-.142zm1.39 1.511a.06.06 0 0 1 .053.064l.15.01a.21.21 0 0 0-.192-.223l-.012.15zm-.637.315c.165-.164.344-.337.636-.315l.012-.15c-.368-.028-.592.198-.754.359l.105.106zm0 0l-.106-.106l.106.106zm0 0l-.107-.106l.107.106zm0 0l-.106-.106l.105.107zm-.052.05l.051-.05l-.106-.106a5.775 5.775 0 0 1-.05.049l.105.108zm-.088.089a1.82 1.82 0 0 1 .088-.088l-.104-.108a4.245 4.245 0 0 0-.092.091l.108.105zm-.102.104a12.259 12.259 0 0 0 .09-.091l.008-.01c.002 0 .002-.002.003-.002v-.001s0-.106-.107-.105l.108.105c-.106.001-.108-.105-.108-.105v.001l-.003.003l-.01.01a6.681 6.681 0 0 1-.087.09l.106.105zm-.095.102c.025-.028.055-.061.095-.102l-.106-.105a2.89 2.89 0 0 0-.1.106l.11.1zm-.259.184a.644.644 0 0 0 .155-.082a.77.77 0 0 0 .104-.102l-.111-.1a.635.635 0 0 1-.084.083a.5.5 0 0 1-.12.062l.056.14zm-.23.09c.085-.033.164-.063.23-.09l-.056-.139l-.227.088l.053.14zm-1.132.592a.728.728 0 0 1 .181-.16c.082-.054.18-.107.287-.159c.215-.103.458-.195.664-.274l-.053-.14c-.205.078-.455.173-.676.279c-.11.053-.215.11-.305.17a.87.87 0 0 0-.219.195l.121.09zm.163.14a.873.873 0 0 1-.116-.107a.238.238 0 0 1-.038-.052c-.006-.014.005 0-.009.02l-.12-.09c-.036.049-.02.103-.007.132a.377.377 0 0 0 .061.09c.047.053.107.102.138.126l.09-.12zm.175-.098a.181.181 0 0 1-.036.032a.435.435 0 0 1-.133.06c-.02.003-.016-.002-.006.005l-.09.12c.039.03.086.029.118.024a.401.401 0 0 0 .104-.033a.589.589 0 0 0 .093-.053a.314.314 0 0 0 .071-.066l-.12-.089zm1.045-.606c-.17.068-.38.153-.572.253c-.19.098-.371.216-.473.353l.121.09c.08-.109.234-.213.42-.31c.185-.096.39-.178.56-.247l-.056-.14zm.023-.01l-.023.01l.056.139l.023-.01l-.056-.139zm.297-.212a1.076 1.076 0 0 1-.128.123a.702.702 0 0 1-.169.09l.056.138a.84.84 0 0 0 .203-.109c.052-.04.095-.085.147-.14l-.11-.102zm.094-.099a3.47 3.47 0 0 0-.094.099l.109.103a3.48 3.48 0 0 1 .092-.096l-.107-.106zm.21 0l-.001.001c-.1.005-.112-.1-.108-.104l-.002.002l-.01.01a9.748 9.748 0 0 1-.03.03l-.059.061l.107.106l.06-.062l.03-.03l.01-.01l.002-.003l.001-.001c.004-.005-.007-.11-.107-.105h-.001l.107.106zm-.022-.19a4.07 4.07 0 0 0-.086.086l.107.105l.083-.083l-.104-.108zm.059-.063a1.258 1.258 0 0 1-.059.063l.104.108l.067-.07l-.112-.1zm.001-.001l.11.102l-.11-.102zm-.006.007l.121.088l-.121-.088zm.55-.278c-.286-.022-.444.16-.545.272l.111.1c.104-.115.217-.238.422-.222l.011-.15zm.059-.052a.056.056 0 0 1-.06.052l-.011.15a.206.206 0 0 0 .22-.192l-.149-.01zm.809 1.831a.21.21 0 0 0-.095-.278l-.066.134a.06.06 0 0 1 .026.079l.135.065zm-.277.095a.206.206 0 0 0 .277-.095l-.135-.065a.056.056 0 0 1-.075.026l-.067.134zm-.474.049c.14-.069.29-.14.474-.049l.067-.134c-.256-.127-.471-.019-.607.048l.066.135zm0 0l-.067-.135l.068.134zm-.088.04c.029-.011.059-.026.088-.04l-.066-.135c-.03.015-.056.027-.078.036l.056.14zm-.108.046l.108-.046l-.056-.139l-.112.048l.06.137zm-.134.06l.079-.035l.04-.018l.011-.005l.003-.001h.001v-.001h.001c.007-.004.034-.105-.06-.138h-.001l.06.138c-.095-.031-.068-.133-.061-.137l-.003.002l-.012.005l-.04.017l-.078.035l.06.137zm-.121.054l.12-.055l-.059-.137c-.048.02-.089.04-.124.055l.063.137zm.002-.001l-.067-.135l.067.135zm-.42.1a.847.847 0 0 0 .23-.025c.063-.017.119-.043.188-.074l-.063-.137a1.066 1.066 0 0 1-.165.067a.702.702 0 0 1-.19.02v.15zm-.024 0h.024v-.15h-.024v.15zm-1.117.15c.113-.071.296-.11.505-.13c.207-.02.428-.02.612-.02v-.15c-.183 0-.41 0-.626.02c-.212.02-.425.062-.57.152l.079.127zm-.407-.027a.15.15 0 0 0 .101.066c.035.009.073.01.109.009a.607.607 0 0 0 .106-.015a.318.318 0 0 0 .09-.034l-.078-.127a.18.18 0 0 1-.046.015a.438.438 0 0 1-.079.011a.251.251 0 0 1-.067-.004c-.02-.005-.014-.009-.008.002l-.128.077zm-.049-.395c-.051.032-.057.088-.055.12a.382.382 0 0 0 .023.106c.024.067.06.135.08.17l.13-.078a.875.875 0 0 1-.068-.142a.239.239 0 0 1-.015-.062c-.001-.017.004.001-.016.014l-.079-.128zm1.353-.148a8.844 8.844 0 0 0-.73.006a2.527 2.527 0 0 0-.347.043a.872.872 0 0 0-.276.1l.079.127a.724.724 0 0 1 .228-.08a2.29 2.29 0 0 1 .325-.04a8.73 8.73 0 0 1 .718-.006l.003-.15zm0 0l-.003.15l.004-.15zm.244.004c-.07 0-.152-.002-.244-.004l-.003.15c.091.002.175.004.247.004v-.15zm.244-.06a.63.63 0 0 1-.11.047a.498.498 0 0 1-.134.013v.15a.642.642 0 0 0 .174-.019c.048-.013.088-.033.135-.055l-.065-.135zm.132-.06c-.056.024-.098.044-.132.06l.065.136c.034-.017.074-.036.127-.059l-.06-.138zm.193.079c-.1-.039-.06-.138-.06-.138h-.002l-.003.002l-.012.006l-.04.017l-.076.033l.06.138l.077-.034l.04-.017l.011-.006l.004-.001s.04-.1-.06-.138l.06.137zm.058-.188l-.119.05l.06.137l.116-.048l-.056-.14zm.065-.027l-.065.027l.057.139l.066-.028l-.058-.138zm.002 0l.055.139l-.055-.14zm.832-.05c-.331-.164-.623-.038-.834.05l.058.138c.216-.09.446-.184.709-.053l.067-.134zm-.096 2.044a.06.06 0 0 1-.006.082l.098.113a.21.21 0 0 0 .022-.293l-.114.098zm-.673-.228c.234.001.483.005.673.228l.114-.098c-.24-.28-.558-.279-.786-.28v.15zm0 0v-.15v.15zm0 0v-.15v.15zm0 0v-.15v.15zm0 0v-.15v.15zm-.072 0h.072l.001-.15h-.07l-.003.15zm-.125 0h.125l.003-.15h-.13l.002.15zm0 0l-.002-.15l.002.15zm0 0v-.15v.15zm-.145.001l.145-.002l-.002-.15l-.144.002l.001.15zm-.14.005c.038-.002.082-.005.14-.005v-.15c-.062 0-.109.003-.147.005l.008.15zm-.313-.053a.64.64 0 0 0 .168.051c.049.007.094.004.146.002l-.008-.15a.63.63 0 0 1-.118 0a.5.5 0 0 1-.129-.04l-.059.137zm-.226-.1c.083.037.16.072.226.1l.06-.138c-.065-.027-.14-.061-.224-.099l-.062.137zm0 0l.063-.136l-.064.136zm-1.219-.38a.727.727 0 0 1 .241.014c.096.02.204.051.316.09c.224.08.462.186.662.276l.062-.137a8.65 8.65 0 0 0-.675-.28a2.529 2.529 0 0 0-.336-.096a.869.869 0 0 0-.293-.016l.023.148zm.016.213a.87.87 0 0 1-.006-.157a.235.235 0 0 1 .01-.064c.006-.015.004.004-.02.007l-.023-.148c-.059.01-.086.059-.098.089a.374.374 0 0 0-.02.106c-.004.071.003.148.009.188l.148-.021zm.193.055a.174.174 0 0 1-.048-.003a.442.442 0 0 1-.077-.021a.254.254 0 0 1-.06-.03c-.016-.012-.01-.014-.008-.001l-.148.02a.156.156 0 0 0 .067.101a.403.403 0 0 0 .097.05a.51.51 0 0 0 .103.028a.313.313 0 0 0 .097.005l-.023-.149zm1.168.31a6.762 6.762 0 0 0-.584-.226c-.203-.064-.415-.11-.584-.084l.023.149c.133-.02.316.014.516.078c.198.063.401.15.57.221l.06-.138zm.023.01l-.023-.01l-.058.138l.022.01l.059-.138zm.36.059a1.068 1.068 0 0 1-.178-.004a.7.7 0 0 1-.182-.055l-.059.138a.846.846 0 0 0 .22.066c.066.009.128.007.203.005l-.004-.15zm.002 0v.15v-.15zm0 0v.15v-.15zm0 0v.15v-.15zm.134-.003c-.053 0-.097.002-.136.003l.004.15l.133-.003v-.15zm.148.148c-.076-.068-.009-.15-.003-.15h-.017l-.043.001l-.085.001l.001.15h.087l.042-.001h.018c.006-.001.073-.083-.002-.15l.001.15zm.12-.15h-.122l.002.15h.117l.003-.15zm.086-.003a1.252 1.252 0 0 1-.086.003l-.003.15c.031 0 .065-.001.097-.003l-.008-.15zm.577.193c-.186-.217-.426-.201-.577-.193l.008.15c.155-.008.322-.015.455.14l.114-.097zm.08.005a.056.056 0 0 1-.08-.005l-.114.098a.206.206 0 0 0 .292.02l-.098-.113zm-.735 1.863a.21.21 0 0 0 .13-.264l-.142.048a.059.059 0 0 1-.037.074l.049.142zm-.263-.129c.036.11.155.166.263.129l-.05-.142a.056.056 0 0 1-.071-.034l-.142.047zm-.37-.3c.147.05.304.106.37.3l.142-.047c-.091-.272-.32-.347-.463-.396l-.049.142zm-.09-.034c.028.012.06.023.09.033l.049-.142a1.26 1.26 0 0 1-.08-.029l-.06.138zm-.11-.044l.11.044l.058-.138a4.393 4.393 0 0 0-.113-.046l-.054.14zm-.136-.053l.08.031l.04.016l.013.004l.003.002h.001c.007.003.099-.049.055-.14l-.055.14h-.001c-.044-.09.048-.142.054-.14l-.003-.001a2.869 2.869 0 0 1-.012-.005l-.04-.016a13.34 13.34 0 0 1-.08-.03l-.055.139zm-.124-.047l.124.047l.055-.14a5.44 5.44 0 0 0-.127-.048l-.052.14zm0 0l.052-.141l-.052.14zm-.366-.225a.836.836 0 0 0 .18.144c.057.033.115.054.186.08l.052-.14a1.063 1.063 0 0 1-.163-.07a.699.699 0 0 1-.149-.12l-.106.106zm-.017-.017l.017.017l.106-.106l-.017-.017l-.106.106zm-.895-.685c.13.03.287.132.449.266c.16.133.316.289.446.419l.106-.106c-.13-.13-.29-.29-.457-.429c-.164-.135-.343-.257-.51-.296l-.034.146zm-.27-.306a.157.157 0 0 0 .025.118c.019.03.045.06.071.083a.597.597 0 0 0 .085.065a.313.313 0 0 0 .089.04l.034-.146a.178.178 0 0 1-.043-.021a.448.448 0 0 1-.064-.049a.254.254 0 0 1-.044-.05c-.01-.017-.004-.016-.007-.004l-.146-.036zm.245-.314c-.058-.014-.102.022-.124.046a.38.38 0 0 0-.058.091a1.11 1.11 0 0 0-.063.177l.146.036a.875.875 0 0 1 .052-.148a.236.236 0 0 1 .034-.055c.01-.012.002.005-.021 0l.034-.147zm1.062.852c-.152-.158-.336-.35-.52-.512a2.519 2.519 0 0 0-.276-.215a.868.868 0 0 0-.266-.125l-.034.146c.061.015.135.05.217.104c.083.054.17.124.26.202a8.7 8.7 0 0 1 .51.504l.109-.104zm-.001 0l-.106.105l.106-.106zm.001 0l-.109.104l.11-.104zm0 0l-.108.104l.108-.104zm.17.176c-.05-.05-.107-.11-.17-.176l-.108.104c.063.066.121.127.172.178l.106-.106zm.214.13a.62.62 0 0 1-.11-.045a.498.498 0 0 1-.104-.085l-.106.106a.64.64 0 0 0 .136.11c.043.024.086.038.135.055l.049-.141zm.137.05a2.23 2.23 0 0 0-.137-.05l-.05.141c.036.013.078.027.132.049l.055-.14zm.08.192c-.043-.097.054-.14.054-.14h-.001s-.002 0-.003-.002l-.013-.004l-.04-.016l-.077-.03l-.055.14l.079.03l.04.016l.012.004l.003.002h.001s.097-.042.055-.14l-.056.14zm.174-.091a4.49 4.49 0 0 0-.12-.049l-.054.14l.116.047l.058-.138zm.065.027l-.065-.027l-.058.138c.021.01.044.018.066.028l.057-.14zm.624.554c-.117-.35-.413-.468-.624-.554l-.057.139c.216.088.446.185.539.463l.142-.048zm-1.524 1.378a.06.06 0 0 1-.063.053l-.01.15a.21.21 0 0 0 .222-.192l-.15-.011zm-.315-.637c.164.166.337.344.315.637l.15.011c.028-.368-.198-.592-.358-.754l-.107.106zm-.05-.052l.05.052l.107-.106l-.05-.05l-.107.104zm-.089-.088l.089.088l.107-.104a4.339 4.339 0 0 0-.091-.091l-.105.107zm-.104-.101c.012.01.038.036.06.059l.031.03l.01.009l.002.002h.001v.001s.106-.001.105-.107l-.105.107c-.001-.106.105-.107.105-.107l-.001-.001l-.003-.003l-.01-.01a7.982 7.982 0 0 1-.03-.029l-.06-.058l-.105.107zM18 15.11c.028.026.061.055.102.096l.106-.107a2.877 2.877 0 0 0-.107-.1l-.1.111zm-.002-.002l.106-.107l-.106.107zm-.182-.256a.64.64 0 0 0 .082.154c.03.04.064.07.102.104l.1-.111a.635.635 0 0 1-.082-.084a.502.502 0 0 1-.063-.12l-.139.057zm-.09-.23l.09.23l.139-.056a12.7 12.7 0 0 1-.088-.228l-.14.053zm-.592-1.132c.05.037.105.098.16.18c.054.082.108.18.159.288c.103.214.196.457.274.663l.14-.053a8.994 8.994 0 0 0-.279-.675a2.524 2.524 0 0 0-.17-.306a.868.868 0 0 0-.195-.218l-.089.12zm-.14.162a.874.874 0 0 1 .107-.116a.235.235 0 0 1 .052-.037c.015-.007 0 .005-.019-.01l.089-.12c-.049-.036-.103-.02-.132-.007a.38.38 0 0 0-.09.062a1.027 1.027 0 0 0-.126.138l.12.09zm.098.176a.181.181 0 0 1-.032-.037a.435.435 0 0 1-.06-.133c-.003-.02.002-.016-.005-.006l-.12-.09a.156.156 0 0 0-.024.119a.405.405 0 0 0 .033.104a.597.597 0 0 0 .053.092a.311.311 0 0 0 .066.072l.089-.121zm.607 1.045a6.72 6.72 0 0 0-.253-.573c-.099-.19-.216-.371-.354-.472l-.089.12c.108.08.212.234.31.421c.095.184.178.39.246.56l.14-.056zm.009.022l-.01-.022l-.139.056l.01.023l.139-.057zm.212.297a1.079 1.079 0 0 1-.123-.128a.699.699 0 0 1-.09-.169l-.138.057c.036.088.068.15.109.203c.04.052.085.094.14.146l.102-.109zm.099.094a5.411 5.411 0 0 0-.099-.094l-.102.109l.095.092l.106-.107zm0 .21l-.001-.001c-.006-.1.099-.112.104-.108v.001c.001 0 0 0 0 0l-.002-.003l-.01-.01l-.03-.029l-.061-.06l-.106.107l.062.06l.03.03l.01.01a.076.076 0 0 1 .004.003c.006.005.11-.007.105-.107l-.106.107zm.19-.022a4.337 4.337 0 0 0-.086-.086l-.105.108c.033.032.059.057.083.083l.108-.105zm.063.059a1.226 1.226 0 0 1-.063-.059l-.108.105c.022.022.047.044.071.066l.1-.112zm-.003-.003l-.094.118l.094-.118zm.275.548c.022-.285-.16-.444-.272-.545l-.1.112c.116.103.238.216.222.42l.15.012zm.053.06a.056.056 0 0 1-.053-.06l-.15-.012a.206.206 0 0 0 .192.221l.01-.15zm-1.848.802a.21.21 0 0 0 .278-.095l-.134-.066a.06.06 0 0 1-.079.026l-.065.135zm-.096-.277a.206.206 0 0 0 .096.277l.065-.135a.056.056 0 0 1-.026-.076l-.134-.066zm-.048-.474c.069.14.14.29.049.474l.134.066c.127-.256.018-.47-.048-.606l-.135.066zm0 0l.135-.067l-.135.067zm0 0l.135-.067l-.135.067zm-.04-.088c.01.029.026.059.04.088l.135-.066l-.037-.078l-.139.056zm-.046-.108l.045.108l.14-.056a3.989 3.989 0 0 0-.048-.112l-.137.06zm-.06-.134a11.377 11.377 0 0 0 .053.118l.005.012l.001.003v.001l.001.001c.003.006.104.035.137-.06v-.001l-.137.06c.032-.096.133-.067.136-.061l-.001-.004l-.005-.012l-.017-.039l-.035-.078l-.137.06zm-.054-.122l.055.122l.137-.06a5.435 5.435 0 0 0-.055-.124l-.137.062zm-.1-.417c0 .096.008.165.026.23c.017.062.043.119.074.187l.137-.062a1.077 1.077 0 0 1-.067-.165a.7.7 0 0 1-.02-.19h-.15zm0-.024v.024h.15v-.024h-.15zm-.148-1.118c.07.114.109.297.129.506c.02.207.02.428.02.612h.15c0-.183 0-.411-.02-.626c-.02-.212-.062-.425-.152-.57l-.127.078zm.026-.406a.157.157 0 0 0-.067.101a.403.403 0 0 0-.008.109a.59.59 0 0 0 .015.106a.312.312 0 0 0 .034.09l.127-.078a.18.18 0 0 1-.015-.046a.44.44 0 0 1-.011-.079a.261.261 0 0 1 .004-.067c.005-.02.009-.014-.002-.008l-.077-.128zm.395-.049c-.032-.051-.088-.057-.12-.056a.378.378 0 0 0-.106.024a1.16 1.16 0 0 0-.17.08l.078.13a.881.881 0 0 1 .142-.069a.234.234 0 0 1 .062-.015c.016 0-.001.005-.014-.015l.128-.079zm.148 1.353c.004-.219.01-.486-.006-.73a2.543 2.543 0 0 0-.043-.347a.869.869 0 0 0-.1-.276l-.127.079c.033.053.06.13.08.228c.02.096.033.207.04.325c.016.238.01.498.006.718l.15.003zm0 0l-.15-.004l.15.005zm-.004.244c0-.07.002-.152.004-.244l-.15-.003a12.52 12.52 0 0 0-.004.247h.15zm.06.243a.621.621 0 0 1-.047-.108a.498.498 0 0 1-.013-.135h-.15c0 .073.005.126.019.174c.013.048.033.088.055.135l.135-.066zm.06.133a3.078 3.078 0 0 0-.06-.133l-.136.066c.017.034.036.074.059.127l.138-.06zm-.079.193c.039-.1.138-.06.138-.06v-.002l-.002-.003l-.006-.012l-.017-.04l-.033-.076l-.138.06c.006.014.02.048.034.077l.017.039l.005.012l.002.004s.1.039.138-.06l-.138.06zm.188.058a4.166 4.166 0 0 0-.05-.119l-.138.06l.05.116l.138-.057zm.027.065l-.027-.065l-.139.057l.028.066l.138-.058zm0 .001l-.139.056l.14-.056zm.05.832c.164-.33.038-.623-.05-.833l-.138.058c.09.216.183.446.053.709l.134.066zm-2.061-.095a.06.06 0 0 1-.083-.006l-.113.099a.209.209 0 0 0 .293.021l-.097-.114zm.227-.672c0 .233-.005.482-.227.672l.097.114c.28-.24.28-.558.28-.786h-.15zm0 0h.15h-.15zm0 0h.15h-.15zm0 0h.15h-.15zm0 0h.15h-.15zm0 0h.15h-.15zm.001-.072v.071l.15.001v-.07l-.15-.002zm0-.125v.125l.15.002v-.13l-.15.003zm0 0l.15-.002l-.15.002zm-.002-.146l.002.146l.15-.003l-.002-.143h-.15zm-.004-.139c.002.038.004.082.004.14l.15-.002c0-.06-.003-.108-.004-.146l-.15.008zm0 0l.15-.008l-.15.009zm.052-.313a.645.645 0 0 0-.05.167a.71.71 0 0 0-.002.146l.15-.008a.631.631 0 0 1 0-.118a.502.502 0 0 1 .04-.129l-.138-.058zm.1-.226c-.037.082-.072.16-.1.226l.138.058l.099-.223l-.137-.062zm-.001.002l.14.056l-.14-.056zm.382-1.222a.724.724 0 0 1-.015.241c-.02.097-.051.204-.09.316a8.692 8.692 0 0 1-.276.662l.137.062c.09-.2.2-.443.28-.675c.04-.115.075-.23.096-.335a.872.872 0 0 0 .016-.293l-.148.022zm-.213.017c.033-.005.1-.01.157-.007c.03.002.05.005.063.01c.015.006-.003.004-.007-.02l.148-.022c-.009-.06-.058-.087-.088-.098a.374.374 0 0 0-.107-.02a1.018 1.018 0 0 0-.187.008l.02.149zm-.056.193c0-.007 0-.023.004-.049a.449.449 0 0 1 .02-.076a.261.261 0 0 1 .03-.06c.013-.016.014-.01.002-.008l-.021-.149a.157.157 0 0 0-.101.068a.4.4 0 0 0-.05.096a.583.583 0 0 0-.028.104a.314.314 0 0 0-.004.096l.148-.022zm-.31 1.168c.072-.169.161-.378.226-.584c.065-.204.11-.415.084-.584l-.148.022c.02.133-.015.316-.079.516a6.81 6.81 0 0 1-.22.57l.137.06zm-.01.022l.01-.022l-.138-.06l-.01.024l.139.058zm-.059.36a1.069 1.069 0 0 1 .004-.178a.698.698 0 0 1 .056-.182l-.138-.059a.847.847 0 0 0-.067.221c-.009.065-.007.127-.005.203l.15-.005zm.003.136c0-.053-.001-.097-.003-.136l-.15.005c.002.038.003.081.003.132h.15zm-.148.148c.068-.075.15-.009.15-.003v-.004a8.25 8.25 0 0 1-.002-.141l-.15.001a11.262 11.262 0 0 0 .002.13v.018c0 .006.082.073.15-.002l-.15.001zm.15.12v-.122l-.15.002v.117l.15.003zm.003.086l-.003-.086l-.15-.003c0 .031.001.065.003.097l.15-.008zm-.193.577c.217-.186.201-.426.193-.577l-.15.008c.009.155.015.322-.14.455l.097.114zm-.005.08a.056.056 0 0 1 .005-.08l-.098-.114a.206.206 0 0 0-.02.293l.113-.1zm-1.878-.728a.209.209 0 0 0 .263.13l-.048-.142a.06.06 0 0 1-.074-.037l-.141.05zm.128-.263a.206.206 0 0 0-.128.263l.141-.05a.056.056 0 0 1 .035-.071l-.048-.142zm.3-.37c-.05.147-.106.305-.3.37l.048.142c.27-.091.346-.32.395-.463l-.142-.048zm.034-.09c-.012.028-.023.06-.033.09l.142.05c.01-.033.02-.06.03-.082l-.139-.058zm.044-.11a2.09 2.09 0 0 1-.044.11l.138.058a4.08 4.08 0 0 0 .046-.113l-.14-.054zm.054-.136l-.032.08a6.277 6.277 0 0 1-.02.053l-.002.003v.002c-.002.006.049.098.14.054l-.14-.055c.091-.045.142.047.14.053v.001l.002-.004l.004-.012l.016-.04l.03-.08l-.138-.055zm.047-.124a5.676 5.676 0 0 1-.047.124l.139.055c.02-.049.035-.09.048-.127l-.14-.052zm0-.003l.14.058l-.14-.058zm.224-.363a.846.846 0 0 0-.144.18c-.033.057-.054.115-.08.186l.14.052c.028-.073.045-.12.07-.163a.696.696 0 0 1 .12-.148l-.106-.107zm.018-.017l-.018.017l.106.107l.018-.018l-.106-.106zm.006-.005l.093.117l-.093-.117zm.678-.89c-.03.13-.132.287-.266.449a6.62 6.62 0 0 1-.418.446l.106.106c.129-.13.29-.29.428-.457c.136-.164.257-.343.296-.51l-.146-.034zm.306-.27a.156.156 0 0 0-.118.025a.405.405 0 0 0-.083.071a.59.59 0 0 0-.065.086a.313.313 0 0 0-.04.088l.146.034a.184.184 0 0 1 .022-.043a.435.435 0 0 1 .098-.108c.017-.01.016-.004.004-.007l.036-.145zm.314.246c.014-.059-.022-.103-.045-.125a.376.376 0 0 0-.092-.058a1.024 1.024 0 0 0-.177-.062l-.036.145a.875.875 0 0 1 .148.053a.233.233 0 0 1 .055.033c.012.011-.004.002.001-.02l.146.034zm-.852 1.061a8.85 8.85 0 0 0 .513-.52c.08-.093.155-.186.214-.276a.868.868 0 0 0 .125-.265l-.146-.035a.727.727 0 0 1-.104.218c-.054.082-.124.17-.202.258a8.698 8.698 0 0 1-.504.512l.104.108zm-.002.002l-.1-.112l.1.112zm.002-.002l-.104-.108l.104.108zm0 0l-.104-.108l.104.108zm0 0l-.104-.108l.104.108zm0 0l-.104-.108l.104.108zm-.175.17c.05-.05.109-.107.175-.17l-.104-.108c-.066.063-.127.121-.177.172l.106.106zm-.13.214a.626.626 0 0 1 .044-.11a.5.5 0 0 1 .086-.104l-.106-.106a.644.644 0 0 0-.11.136a.673.673 0 0 0-.056.135l.142.049zm-.001.002l-.14-.053l.14.053zm-.05.135a2.23 2.23 0 0 0 .05-.137l-.141-.05a2.458 2.458 0 0 1-.048.132l.14.055zm-.192.08c.097-.042.14.054.14.054l.002-.004c0-.003.002-.007.005-.013l.015-.04l.03-.077l-.14-.055l-.03.079l-.015.04a.418.418 0 0 0-.007.016s.043.097.14.055l-.14-.055zm.091.175l.049-.12l-.14-.055c-.017.045-.032.08-.047.116l.138.059zm-.027.064l.027-.064l-.138-.06l-.027.068l.139.056zm-.554.624c.35-.117.468-.413.554-.624l-.138-.056c-.089.216-.186.445-.464.538l.048.142zm-1.375-1.49a.06.06 0 0 1-.055-.062l-.15-.007a.21.21 0 0 0 .196.219l.009-.15zm.631-.326c-.163.168-.338.344-.631.326l-.01.15c.37.022.59-.208.749-.37l-.108-.106zm.05-.051l-.05.051l.108.105l.049-.05l-.106-.106zm.088-.09l-.087.09l.106.106l.09-.093l-.11-.103zm.099-.106a10.54 10.54 0 0 0-.058.062l-.03.031a.895.895 0 0 1-.008.01l-.003.002v.001s.002.106.108.104l-.108-.104c.106-.003.109.103.109.103v-.001l.003-.003l.01-.01l.028-.03l.058-.061l-.109-.104zm.094-.103a2.744 2.744 0 0 1-.094.103l.109.104c.042-.044.073-.08.098-.108l-.113-.099zm.255-.189a.638.638 0 0 0-.153.085c-.039.03-.068.065-.102.104l.113.099a.626.626 0 0 1 .082-.085a.498.498 0 0 1 .118-.065l-.058-.138zm.229-.093l-.23.093l.06.138l.225-.092l-.055-.14zm0 0l.055.14l-.055-.14zm0 0l.055.14l-.054-.14zm1.12-.613a.726.726 0 0 1-.177.163a2.514 2.514 0 0 1-.284.165a8.703 8.703 0 0 1-.66.285l.057.14c.203-.082.45-.181.67-.291a2.53 2.53 0 0 0 .302-.176a.873.873 0 0 0 .215-.199l-.122-.087zm-.164-.136a.88.88 0 0 1 .118.104c.02.022.032.04.038.051c.007.015-.005 0 .009-.018l.122.086c.035-.049.018-.103.004-.132a.378.378 0 0 0-.063-.088a1.023 1.023 0 0 0-.14-.124l-.088.12zm-.174.1a.185.185 0 0 1 .036-.032a.451.451 0 0 1 .068-.04a.258.258 0 0 1 .064-.023c.02-.003.016.002.006-.005l.088-.121a.157.157 0 0 0-.12-.022a.398.398 0 0 0-.102.035a.584.584 0 0 0-.092.055a.314.314 0 0 0-.07.066l.122.087zm-1.034.625a6.59 6.59 0 0 0 .568-.263c.188-.101.367-.222.466-.362L14 12.962c-.078.11-.23.217-.415.317a6.593 6.593 0 0 1-.556.257l.059.138zm-.023.01l.023-.01l-.059-.138l-.022.01l.058.138zm-.293.218c.053-.058.086-.095.126-.126a.698.698 0 0 1 .167-.092l-.058-.138a.845.845 0 0 0-.201.112c-.052.04-.094.087-.144.143l.11.1zm-.092.1l.092-.1l-.11-.101l-.09.097l.108.103zm-.21.003l.001-.001c.1-.007.114.098.11.103h-.001l.003-.003a.953.953 0 0 0 .01-.01l.028-.03l.059-.063l-.109-.103l-.059.063l-.03.03a.73.73 0 0 0-.008.01l-.003.003v.001h-.001c-.004.006.009.11.11.103l-.11-.103zm.025.19a2.44 2.44 0 0 0 .085-.087l-.11-.103c-.03.033-.056.06-.08.084l.105.106zm-.057.064a1.08 1.08 0 0 1 .057-.064l-.106-.106a1.352 1.352 0 0 0-.065.072l.114.098zm-.54.281c.285.017.44-.167.54-.28l-.114-.099c-.101.117-.212.242-.417.23l-.009.15zm-.059.054a.056.056 0 0 1 .059-.054l.009-.15a.206.206 0 0 0-.218.197l.15.007zm-.822-1.854a.21.21 0 0 0 .094.278l.067-.134a.06.06 0 0 1-.026-.079l-.135-.065zm.277-.095a.206.206 0 0 0-.277.095l.135.065a.056.056 0 0 1 .075-.026l.067-.134zm.474-.049c-.14.069-.29.14-.474.049l-.067.134c.256.127.471.018.607-.048l-.066-.135zm.002 0l.062.136l-.062-.137zm.086-.04a.991.991 0 0 0-.088.04l.066.135a.973.973 0 0 1 .078-.036l-.056-.14zm.108-.046a3.949 3.949 0 0 1-.108.046l.056.139a4.31 4.31 0 0 0 .112-.048l-.06-.137zm.134-.06l-.08.035l-.038.018l-.012.005l-.004.001l-.001.001c-.006.003-.035.104.06.137l-.06-.137h.001c.096.033.066.134.06.137h.001l.003-.002l.012-.005l.04-.017l.077-.035l-.059-.137zm.121-.054l-.12.055l.058.137c.05-.02.09-.04.125-.055l-.063-.137zm0 0l.063.137l-.063-.137zm0 0l.063.136l-.063-.136zm-.002.001l.067.134l-.067-.134zm.42-.1a.843.843 0 0 0-.23.025c-.063.017-.12.043-.188.074l.063.137c.07-.033.116-.053.165-.067a.7.7 0 0 1 .19-.02v-.15zm.024 0h-.024v.15h.024v-.15zm1.117-.15c-.114.071-.296.11-.505.13c-.207.02-.428.02-.612.02v.15c.183 0 .41 0 .626-.02c.212-.02.425-.062.57-.152l-.079-.127zm.407.027a.157.157 0 0 0-.101-.067a.403.403 0 0 0-.109-.008a.589.589 0 0 0-.106.015a.312.312 0 0 0-.09.034l.078.127a.182.182 0 0 1 .046-.015a.449.449 0 0 1 .079-.011a.26.26 0 0 1 .067.004c.02.005.014.009.008-.002l.128-.077zm.049.395c.05-.032.056-.088.055-.12a.378.378 0 0 0-.023-.106a1.024 1.024 0 0 0-.08-.17l-.13.078a.877.877 0 0 1 .068.142c.01.028.015.049.015.062c.001.017-.004-.001.016-.014l.079.128zm-1.353.148c.218.004.485.01.73-.006a2.55 2.55 0 0 0 .347-.043a.869.869 0 0 0 .276-.1l-.08-.127a.727.727 0 0 1-.227.08c-.096.02-.207.033-.326.04c-.237.016-.497.01-.717.006l-.003.15zm0 0l.003-.15l-.004.15zm-.245-.004c.07 0 .153.002.245.004l.003-.15a12.52 12.52 0 0 0-.248-.004v.15zm-.243.06a.637.637 0 0 1 .109-.047a.503.503 0 0 1 .134-.013v-.15a.647.647 0 0 0-.174.019c-.047.013-.088.033-.134.055l.065.135zm-.133.06c.057-.024.1-.044.133-.06l-.065-.136a2.522 2.522 0 0 1-.127.059l.06.138zm-.192-.079c.099.039.06.138.06.138h.002l.003-.002l.012-.006l.039-.017l.076-.033l-.059-.138a9.869 9.869 0 0 0-.077.034l-.04.017l-.011.005a.045.045 0 0 0-.004.002h-.001s-.038.1.06.138l-.06-.138zm-.059.188l.12-.05l-.06-.138a4.25 4.25 0 0 1-.116.05l.056.138zm-.064.027l.064-.027l-.056-.139l-.066.028l.058.138zm-.001 0l-.057-.138l.057.138zm-.833.05c.331.164.623.038.834-.05l-.059-.138c-.215.09-.445.184-.708.053l-.067.134zm.096-2.044a.06.06 0 0 1 .006-.082l-.098-.113a.209.209 0 0 0-.022.293l.114-.098zm.672.228c-.233-.001-.482-.005-.672-.228l-.114.098c.24.28.558.279.786.28v-.15zm0 0v.15v-.15zm0 0v.15v-.15zm.072 0h-.071l-.001.15h.07l.002-.15zm.125 0h-.125l-.002.15h.13l-.003-.15zm0 0l.002.15l-.002-.15zm0 0l.003.15l-.002-.15zm.146-.001l-.145.002l.002.15l.144-.002l-.001-.15zm.139-.005c-.038.002-.082.005-.14.005l.002.15c.06 0 .108-.003.146-.005l-.008-.15zm.004 0v.15v-.15zm-.005 0l.01.15l-.01-.15zm.314.053a.645.645 0 0 0-.167-.051c-.049-.007-.094-.004-.146-.002l.008.15a.631.631 0 0 1 .118 0a.502.502 0 0 1 .129.04l.058-.137zm.226.1a7.6 7.6 0 0 0-.226-.1l-.058.138c.064.027.14.061.223.099l.062-.137zm1.22.38a.724.724 0 0 1-.241-.015a2.378 2.378 0 0 1-.316-.09a8.692 8.692 0 0 1-.662-.275l-.062.137c.2.09.443.199.675.28c.115.04.23.075.335.096c.105.02.206.03.293.016l-.022-.148zm-.017-.213c.005.034.01.1.007.157a.235.235 0 0 1-.01.064c-.006.015-.004-.004.02-.007l.022.148c.06-.01.087-.059.098-.089a.374.374 0 0 0 .02-.106a1.018 1.018 0 0 0-.008-.188l-.149.021zm-.193-.055a.192.192 0 0 1 .049.003a.449.449 0 0 1 .076.021c.026.01.047.02.06.03c.016.012.01.014.008.001l.149-.02a.156.156 0 0 0-.068-.101a.397.397 0 0 0-.096-.05a.583.583 0 0 0-.104-.028a.314.314 0 0 0-.096-.005l.022.149zm-1.168-.31c.169.071.378.16.584.226c.204.064.415.11.584.084l-.022-.149c-.133.02-.316-.015-.516-.078c-.198-.063-.402-.15-.57-.221l-.06.138zm-.022-.01l.022.01l.06-.138l-.024-.01l-.058.138zm-.36-.059c.078-.002.127-.003.178.003a.698.698 0 0 1 .182.056l.059-.138a.847.847 0 0 0-.221-.066c-.065-.009-.127-.007-.203-.005l.005.15zm-.136.003c.053 0 .097-.002.136-.003l-.005-.15l-.132.003v.15zm-.148-.148c.075.067.009.15.003.15h-.001h.005a8.25 8.25 0 0 1 .141-.002l-.001-.15a11.262 11.262 0 0 0-.13.001h-.018c-.006.001-.073.083.002.15l-.001-.15zm-.12.15h.122l-.002-.15h-.117l-.003.15zm-.086.003c.034-.002.062-.004.086-.003l.002-.15l-.096.003l.008.15zm-.004 0v-.15v.15zm0 0v-.15v.15zm-.573-.193c.186.217.426.2.577.193l-.008-.15c-.155.008-.322.015-.455-.14l-.114.097zm-.08-.005a.056.056 0 0 1 .08.005l.114-.098a.206.206 0 0 0-.293-.02l.1.113zm.735-1.863a.21.21 0 0 0-.13.264l.142-.048a.059.059 0 0 1 .037-.074l-.05-.142zm.263.129a.206.206 0 0 0-.263-.129l.05.142c.03-.01.061.006.071.034l.142-.047zm.37.3c-.147-.05-.305-.106-.37-.3l-.142.047c.091.272.32.347.463.395l.048-.141zm.09.034a1.194 1.194 0 0 0-.09-.033l-.05.141c.033.011.06.02.082.03l.058-.138zm.11.044a3.802 3.802 0 0 1-.11-.044l-.058.138l.113.046l.054-.14zm.136.053l-.08-.031l-.04-.016l-.013-.005a.108.108 0 0 1-.003 0l-.001-.001h-.001c-.006-.003-.098.049-.054.14l.055-.14c.045.09-.047.142-.053.14h-.001l.004.001l.012.005a21.316 21.316 0 0 1 .12.047l.055-.14zm.124.047a5.328 5.328 0 0 1-.124-.047l-.056.14c.05.02.092.035.128.048l.052-.14zm.002.001l-.056.14l.056-.14zm.364.224a.843.843 0 0 0-.18-.144c-.057-.033-.115-.054-.186-.08l-.052.14c.073.027.12.045.163.07a.701.701 0 0 1 .149.12l.105-.106zm.017.017l-.017-.017l-.107.106l.018.017l.106-.106zm.895.685c-.13-.03-.287-.132-.449-.266a6.58 6.58 0 0 1-.446-.419l-.106.106c.13.13.29.29.457.428c.164.136.343.258.51.297l.034-.146zm.27.306a.157.157 0 0 0-.025-.119a.403.403 0 0 0-.071-.082a.596.596 0 0 0-.086-.065a.317.317 0 0 0-.088-.04l-.034.146a.18.18 0 0 1 .043.021a.435.435 0 0 1 .108.099c.01.017.004.016.007.004l.145.036zm-.246.314c.059.014.103-.022.124-.046a.378.378 0 0 0 .059-.091c.03-.064.053-.138.062-.177l-.145-.036a.875.875 0 0 1-.053.148a.235.235 0 0 1-.033.055c-.011.012-.002-.005.02 0l-.034.147zm-1.061-.852c.151.157.336.35.52.512c.093.081.186.156.276.215a.87.87 0 0 0 .265.125l.035-.146a.727.727 0 0 1-.218-.105a2.385 2.385 0 0 1-.259-.201a8.698 8.698 0 0 1-.51-.504l-.109.104zm-.001-.002l.11-.1l-.11.1zm-.17-.174c.05.05.108.11.171.176l.108-.104a13.047 13.047 0 0 0-.172-.178l-.106.106zm-.213-.13a.675.675 0 0 1 .11.045a.497.497 0 0 1 .104.085l.106-.106a.644.644 0 0 0-.136-.11a.734.734 0 0 0-.135-.055l-.049.141zm.001 0l.047-.142l-.047.143zm-.138-.05c.057.023.101.038.137.05l.05-.141a2.795 2.795 0 0 1-.132-.049l-.055.14zm-.08-.192c.043.097-.054.14-.054.14l.004.001l.012.005a17.178 17.178 0 0 1 .118.046l.055-.14a13.334 13.334 0 0 0-.118-.046l-.013-.004l-.003-.002h-.001s-.097.042-.055.14l.055-.14zm-.175.091l.12.049l.055-.14a4.26 4.26 0 0 1-.116-.047l-.059.138zm-.064-.027l.064.027l.059-.138l-.066-.028l-.057.14zm-.624-.554c.117.35.413.468.624.554l.056-.139c-.216-.088-.445-.185-.538-.463l-.142.048zm1.524-1.378a.06.06 0 0 1 .063-.053l.01-.15a.21.21 0 0 0-.222.192l.15.011zm.315.637c-.165-.166-.338-.344-.315-.637l-.15-.011c-.028.368.198.592.358.754l.107-.106zm.05.052a5.458 5.458 0 0 0-.05-.052l-.107.106l.05.05l.107-.104zm.089.088a4.05 4.05 0 0 1-.089-.088l-.108.104l.092.091l.105-.107zm.104.101a11.635 11.635 0 0 0-.061-.059l-.03-.03a2.012 2.012 0 0 0-.01-.009l-.003-.002v-.001s-.106.001-.105.107l.105-.107c.001.106-.105.107-.105.107v.001c.002 0 .002.002.004.003a.705.705 0 0 1 .04.039l.06.058l.105-.107zm.1.096a2.883 2.883 0 0 1-.101-.096l-.106.107c.044.043.079.075.107.1l.1-.111zm.185.258a.644.644 0 0 0-.082-.154A.675.675 0 0 0 14 8.89l-.1.11c.04.037.063.058.083.084c.02.025.038.058.063.12l.139-.057zm.09.23a12.049 12.049 0 0 0-.09-.23l-.14.056c.027.065.056.143.089.228l.14-.053zm.592 1.132a.722.722 0 0 1-.16-.18a2.376 2.376 0 0 1-.16-.288a8.679 8.679 0 0 1-.273-.663l-.14.053c.078.205.172.454.279.675c.053.111.11.216.17.306a.87.87 0 0 0 .195.218l.089-.12zm.14-.162a.886.886 0 0 1-.107.116a.238.238 0 0 1-.052.037c-.015.007 0-.005.019.01l-.089.12c.048.036.103.02.132.007a.381.381 0 0 0 .09-.062c.052-.047.102-.106.126-.138l-.12-.09zm-.098-.176a.18.18 0 0 1 .032.037a.5.5 0 0 1 .04.069a.259.259 0 0 1 .02.064c.003.02-.002.016.005.006l.12.09a.156.156 0 0 0 .024-.119a.404.404 0 0 0-.033-.104a.598.598 0 0 0-.054-.092a.317.317 0 0 0-.065-.072l-.089.121zm-.607-1.045c.069.17.154.381.253.573c.098.19.216.37.354.472l.089-.12c-.108-.08-.213-.234-.31-.421a6.616 6.616 0 0 1-.247-.56l-.139.056zm-.009-.022l.01.022l.138-.056l-.009-.023l-.139.057zm-.213-.297c.057.054.093.088.124.128a.7.7 0 0 1 .089.169l.14-.057a.85.85 0 0 0-.11-.203c-.04-.052-.085-.094-.14-.146l-.103.109zm-.098-.094l.098.094l.103-.11c-.028-.026-.06-.055-.095-.091l-.106.107zm0-.21l.001.001c.005.1-.1.112-.104.108h-.001v-.001l.003.003l.01.01l.03.029l.061.06l.106-.107a14.692 14.692 0 0 0-.062-.06l-.031-.03a1.53 1.53 0 0 1-.013-.013c-.005-.005-.11.006-.105.107l.105-.107zm-.19.022l.086.086l.104-.108a3.71 3.71 0 0 1-.082-.083l-.108.105zm-.063-.06c.025.024.046.042.063.06l.107-.105c-.02-.022-.046-.044-.07-.066l-.1.112zm-.272-.544c-.022.285.16.444.272.545l.1-.112c-.116-.103-.238-.217-.223-.421l-.149-.012zm-.053-.06c.033.003.055.03.053.06l.15.012a.206.206 0 0 0-.193-.221l-.01.15z"/><path fill="#FFC125" fill-rule="evenodd" d="M16 7a.12.12 0 0 0-.119.11l-.214 3.048h.666L16.12 7.11a.12.12 0 0 0-.12-.111zm4.979 4.934a.12.12 0 0 0-.11-.119l-3.048-.214v.666l3.047-.214a.12.12 0 0 0 .11-.119zm-4.86 4.824a.12.12 0 0 1-.238 0l-.214-3.047h.666l-.214 3.047zm-5.098-4.824a.12.12 0 0 0 .11.12l3.048.213v-.666l-3.047.214a.12.12 0 0 0-.111.12zm8.398-3.436a.12.12 0 0 1 .165.171l-2.043 2.271l-.463-.48l2.341-1.962zm.04 6.986a.12.12 0 0 0 .008-.163l-1.962-2.34l-.48.463l2.271 2.042a.12.12 0 0 0 .163-.002zm-6.878-.114a.12.12 0 0 1-.165-.17l2.042-2.272l.463.48l-2.34 1.962zm-.04-6.985a.12.12 0 0 0-.008.162l1.962 2.341l.48-.463l-2.271-2.043a.12.12 0 0 0-.163.003zm1.525-.878a.12.12 0 0 1 .22-.09l1.34 2.745l-.617.25l-.943-2.905zm6.55 2.579a.12.12 0 0 0-.147-.069l-2.905.943l.25.618l2.744-1.34a.12.12 0 0 0 .058-.152zm-2.682 6.276a.12.12 0 0 1-.22.089l-1.34-2.745l.617-.25l.943 2.906zm-6.55-2.58a.12.12 0 0 0 .147.07l2.905-.943l-.25-.618l-2.744 1.34a.12.12 0 0 0-.059.152zm6.409-6.334a.12.12 0 0 1 .219.093l-.994 2.888l-.613-.26l1.388-2.721zm2.79 6.414a.12.12 0 0 0-.055-.153l-2.721-1.388l-.261.614l2.889.993a.12.12 0 0 0 .148-.066zm-6.376 2.559a.12.12 0 0 1-.219-.093l.994-2.889l.613.26l-1.388 2.722zm-2.79-6.415a.119.119 0 0 0 .055.153l2.721 1.388l.26-.614l-2.888-.993a.12.12 0 0 0-.148.066z" clip-rule="evenodd"/><path fill="#984111" d="m15.881 7.11l.075.006l-.075-.005zm-.214 3.048l-.075-.005l-.006.08h.08v-.075zm.666 0v.075h.08l-.005-.08l-.075.005zM16.12 7.11l.075-.005l-.075.005zm4.75 4.704l-.006.075l.005-.075zm-3.048-.214l.005-.075l-.08-.006v.08h.075zm0 .666h-.075v.081l.08-.006l-.005-.075zm3.047-.214l.005.075l-.005-.075zm-4.75 4.705l-.074-.006l.075.006zm-.237 0l-.075.005l.075-.005zm-.214-3.047v-.075h-.08l.005.08l.075-.005zm.666 0l.075.005l.006-.08h-.08v.075zm-5.201-1.658l.005-.075l-.005.075zm3.047.214l-.005.075l.08.006v-.08h-.075zm0-.666h.075v-.08l-.08.005l.005.075zm-3.047.214l-.005-.074l.005.074zm8.287-3.317l-.048-.057l.048.057zm.165.171l.056.05l-.056-.05zm-2.043 2.271l-.053.052l.055.058l.054-.06l-.056-.05zm-.463-.48l-.048-.057l-.062.052l.056.058l.054-.053zm2.39 4.861l.057-.048l-.058.048zm-.01.163l.053.053l-.052-.053zm-1.953-2.504l.057-.048l-.052-.061l-.057.056l.052.053zm-.48.463l-.052-.053l-.058.055l.06.054l.05-.056zm2.271 2.043l-.05.056l.05-.056zm-6.878-.124l-.054.052l.054-.052zm.163.008l-.048-.057l.048.057zm-.165-.17l-.056-.05l.056.05zm2.042-2.272l.054-.052l-.056-.058l-.053.06l.055.05zm.463.48l.049.057l.061-.051l-.056-.058l-.053.052zm-2.388-4.86l.057-.049l-.057.048zm.008-.163l-.052-.054l.052.054zm1.954 2.503l-.057.048l.051.062l.058-.056l-.052-.054zm.48-.463l.052.054l.058-.056l-.06-.054l-.05.056zm-2.271-2.043l-.05.056l.05-.056zm1.43-1.023l-.027-.07l.028.07zm-.068.148l.071-.024l-.07.024zm.22-.09l.068-.032l-.067.033zm1.34 2.745l.029.07l.075-.03l-.036-.072l-.067.032zm-.617.25l-.072.023l.025.077l.075-.03l-.028-.07zm5.46-.395l.023.071l-.023-.07zm.147.069l-.07.028l.07-.028zm-3.052.874l-.024-.072l-.076.025l.03.075l.07-.028zm.25.618l-.07.028l.03.075l.072-.036l-.033-.067zm2.744-1.34l.033.067l-.033-.067zm-2.693 6.271l-.028-.07l.028.07zm.069-.147l-.072.023l.072-.023zm-.22.089l-.068.033l.067-.033zm-1.34-2.745l-.029-.07l-.075.03l.036.073l.067-.033zm.617-.25l.072-.023l-.025-.076l-.075.03l.028.07zm-5.46.395l.023.072l-.023-.072zm-.148-.068l.07-.028l-.07.028zm3.053-.874l.024.071l.076-.025l-.03-.074l-.07.028zm-.25-.618l.07-.029l-.03-.074l-.072.035l.033.068zm-2.744 1.34l-.033-.068l.033.068zm6.503-6.239l.03-.069l-.03.07zm-.152.056l-.067-.034l.067.034zm.219.093l.07.024l-.07-.024zm-.994 2.888l-.029.07l.074.03l.026-.075l-.07-.025zm-.613-.26l-.067-.034l-.037.072l.074.03l.03-.068zm4.122 3.54l.035-.066l-.035.066zm.056.153l.07.03l-.07-.03zm-2.776-1.54l.034-.067l-.072-.037l-.032.074l.07.03zm-.261.613l-.069-.03l-.032.075l.077.026l.024-.07zm2.889.993L20.41 14l.025-.07zm-6.38 2.548l-.03.07l.03-.07zm.152-.055l.067.034l-.067-.034zm-.219-.093l-.07-.025l.07.025zm.994-2.889l.029-.069l-.074-.031l-.026.076l.07.024zm.613.26l.067.035l.037-.072l-.075-.032l-.029.07zm-4.123-3.54l-.034.067l.034-.067zm-.055-.153l.069.03l-.07-.03zm2.776 1.541l-.034.067l.072.036l.031-.074l-.069-.029zm.26-.614l.07.03l.031-.074l-.076-.027l-.024.071zm-2.888-.993l.025-.07l-.025.07zm4.39-2.824a.044.044 0 0 1 .044-.04v-.15a.194.194 0 0 0-.194.18l.15.011zm-.214 3.047l.215-3.047l-.15-.01l-.214 3.047l.15.01zm.592-.08h-.666v.15h.666v-.15zm-.289-2.967l.215 3.047l.15-.01l-.215-3.047l-.15.01zM16 7.075c.023 0 .042.018.044.041l.15-.01A.194.194 0 0 0 16 6.925v.15zm4.863 4.815c.023.002.04.021.04.044h.15a.194.194 0 0 0-.18-.193l-.01.15zm-3.047-.214l3.047.214l.01-.15l-3.047-.214l-.01.15zm.08.591v-.666h-.15v.666h.15zm2.967-.289l-3.047.215l.01.15l3.047-.215l-.01-.15zm.04-.044a.044.044 0 0 1-.04.044l.01.15a.194.194 0 0 0 .18-.194h-.15zM16 16.944a.194.194 0 0 0 .194-.181l-.15-.01a.044.044 0 0 1-.044.04v.15zm-.194-.181c.007.102.092.18.194.18v-.15a.044.044 0 0 1-.044-.04l-.15.01zm-.214-3.047l.214 3.047l.15-.01l-.215-3.048l-.15.01zm.741-.08h-.666v.15h.666v-.15zm-.14 3.127l.215-3.047l-.15-.01l-.214 3.046l.15.01zm-5.056-4.785a.044.044 0 0 1-.041-.044h-.15c0 .102.079.187.18.194l.011-.15zm3.047.215l-3.047-.215l-.01.15l3.047.214l.01-.15zm-.08-.592v.666h.15v-.666h-.15zm-2.967.29l3.047-.215l-.01-.15l-3.047.215l.01.15zm-.041.043c0-.023.018-.042.041-.044l-.01-.15a.194.194 0 0 0-.181.194h.15zm8.54-3.48a.194.194 0 0 0-.265-.013l.096.115a.044.044 0 0 1 .06.003l.108-.104zm.004.265a.194.194 0 0 0-.005-.264l-.108.104a.044.044 0 0 1 .002.06l.111.1zm-2.043 2.271l2.043-2.27l-.111-.101l-2.043 2.27l.111.101zm-.573-.477l.463.48l.108-.105l-.463-.48l-.108.105zm2.347-2.072l-2.34 1.962l.096.115l2.34-1.962l-.096-.115zm.039 6.928a.044.044 0 0 1-.003.06l.104.108a.194.194 0 0 0 .014-.264l-.115.096zm-1.963-2.34l1.963 2.34l.115-.096l-1.963-2.34l-.115.096zm-.37.469l.48-.464l-.104-.107l-.48.463l.104.107zm2.27 1.933l-2.272-2.043l-.1.111l2.27 2.043l.101-.111zm.06-.001a.044.044 0 0 1-.06 0l-.101.112a.194.194 0 0 0 .265-.005l-.104-.107zm-7.043-.016c.071.073.187.08.265.014l-.096-.115a.044.044 0 0 1-.06-.003l-.109.104zm-.004-.265a.194.194 0 0 0 .004.265l.108-.104a.044.044 0 0 1 0-.06l-.112-.1zm2.043-2.27l-2.043 2.27l.111.1l2.043-2.27l-.111-.1zm.572.477l-.463-.48l-.107.104l.463.48l.107-.104zm-2.346 2.072l2.34-1.963l-.096-.115l-2.34 1.963l.096.115zm-.039-6.929a.044.044 0 0 1 .003-.06l-.104-.108a.194.194 0 0 0-.014.264l.115-.096zm1.963 2.34L12.59 8.5l-.115.096l1.963 2.341l.115-.096zm.37-.468l-.48.463l.104.108l.48-.463l-.104-.108zm-2.27-1.933l2.272 2.043l.1-.112l-2.271-2.043l-.1.112zm-.06 0a.044.044 0 0 1 .06 0l.101-.112a.194.194 0 0 0-.265.005l.104.108zm1.514-1.148a.194.194 0 0 0-.112.24l.142-.047a.044.044 0 0 1 .026-.054l-.056-.14zm.247.095a.194.194 0 0 0-.247-.095l.056.139a.044.044 0 0 1 .056.021l.135-.065zm1.34 2.745l-1.34-2.745l-.135.065l1.34 2.745l.135-.066zm-.657.352l.618-.25l-.056-.14l-.618.25l.056.14zM13.995 7.53l.942 2.905l.143-.046l-.943-2.906l-.142.047zm6.497 2.558a.044.044 0 0 1 .055.026l.139-.056a.194.194 0 0 0-.24-.112l.046.142zm-2.905.943l2.905-.943l-.046-.142l-2.906.942l.047.143zm.296.519l-.25-.618l-.139.056l.25.618l.139-.056zm2.642-1.38l-2.745 1.34l.066.135l2.745-1.34l-.066-.135zm.022-.056a.044.044 0 0 1-.022.056l.066.135a.194.194 0 0 0 .095-.247l-.14.056zm-2.654 6.465a.194.194 0 0 0 .112-.24l-.142.046a.044.044 0 0 1-.026.055l.056.139zm-.247-.095a.194.194 0 0 0 .247.095l-.056-.14a.044.044 0 0 1-.056-.021l-.135.066zm-1.34-2.745l1.34 2.745l.135-.066l-1.34-2.745l-.135.066zm.657-.352l-.618.25l.056.139l.618-.25l-.056-.14zm1.042 2.952l-.942-2.906l-.143.046l.942 2.906l.143-.046zm-6.497-2.559a.044.044 0 0 1-.055-.025l-.139.056a.194.194 0 0 0 .24.112l-.046-.143zm2.905-.943l-2.905.943l.046.143l2.905-.943l-.046-.143zm-.296-.518l.25.618l.139-.056l-.25-.619l-.139.057zm-2.642 1.38l2.745-1.341l-.066-.135l-2.745 1.34l.066.135zm-.022.056a.044.044 0 0 1 .022-.057l-.066-.135a.194.194 0 0 0-.095.248l.14-.056zm6.522-6.432a.194.194 0 0 0-.25.09l.134.069c.011-.02.036-.03.057-.02l.059-.139zm.107.242a.194.194 0 0 0-.107-.242l-.059.138c.021.01.032.033.025.055l.141.05zm-.993 2.889l.993-2.889l-.141-.049l-.994 2.889l.142.049zm-.714-.216l.614.26l.059-.138l-.614-.26l-.059.138zm1.35-2.824l-1.387 2.72l.133.069l1.388-2.721l-.133-.068zm2.768 6.362c.021.01.03.036.021.057l.138.059a.194.194 0 0 0-.09-.25l-.069.134zm-2.72-1.388l2.72 1.388l.069-.133l-2.721-1.388l-.069.133zm-.158.576l.26-.613l-.138-.059l-.26.614l.138.058zm2.844.893l-2.889-.993l-.048.142l2.888.993l.049-.142zm.055-.024a.044.044 0 0 1-.055.024L20.41 14a.194.194 0 0 0 .242-.107l-.138-.06zm-6.489 2.712c.094.04.203 0 .25-.09l-.135-.068a.044.044 0 0 1-.056.02l-.059.138zm-.108-.242a.194.194 0 0 0 .108.242l.059-.138a.044.044 0 0 1-.025-.055l-.142-.049zm.994-2.888l-.994 2.888l.142.05l.994-2.89l-.142-.048zm.713.216l-.613-.261l-.059.138l.614.26l.058-.138zm-1.35 2.824l1.388-2.721l-.134-.069l-1.388 2.722l.134.068zm-2.768-6.363a.044.044 0 0 1-.02-.056l-.138-.059c-.04.094 0 .203.09.249l.068-.134zm2.721 1.388l-2.72-1.388l-.069.134l2.721 1.388l.068-.134zm.158-.576l-.26.614l.137.058l.26-.613l-.137-.059zm-2.844-.893l2.889.993l.048-.142l-2.888-.993l-.05.142zm-.055.025a.044.044 0 0 1 .055-.025l.049-.142a.194.194 0 0 0-.242.108l.138.059z"/><path fill="#FFC125" fill-rule="evenodd" stroke="#984111" stroke-width=".15" d="M16 13.842c1.068 0 1.933-.854 1.933-1.908c0-1.053-.865-1.908-1.933-1.908s-1.933.854-1.933 1.908c0 1.054.865 1.908 1.933 1.908z" clip-rule="evenodd"/><path fill="#984111" d="m15.813 11.437l-.125-.082a.81.81 0 0 0-.186-.093a.278.278 0 0 0-.08-.014c-.119 0-.285.073-.495.223l-.078-.107c.23-.164.42-.248.572-.248c.04 0 .08.007.122.02a.923.923 0 0 1 .217.108l.124.081l.048.027c.16 0 .169.57.056.744a.499.499 0 0 1-.116.124l-.087.064c-.04.03-.052.048-.052.07c0 .003.048.015.155.01l.073-.005c.076-.006.086-.006.11-.006v.131c-.019 0-.029 0-.1.006a2.864 2.864 0 0 1-.077.005c-.187.009-.294-.017-.294-.142c0-.071.035-.12.103-.173c.011-.008.07-.05.086-.063a.372.372 0 0 0 .087-.092c.034-.053.056-.192.053-.34a.928.928 0 0 0-.026-.205a.325.325 0 0 1-.09-.043z"/><path fill="#984111" fill-rule="evenodd" d="M16.352 11.39c-.03.02-.06.04-.072.046a.325.325 0 0 1-.09.044a.92.92 0 0 0-.026.205c-.002.148.02.287.054.34a.37.37 0 0 0 .087.092l.054.04l.032.023c.068.053.103.102.103.173c0 .125-.107.151-.295.142a2.886 2.886 0 0 1-.077-.005a1.282 1.282 0 0 0-.1-.006v-.131c.025 0 .035 0 .11.006l.074.005c.107.005.154-.007.154-.01c0-.022-.012-.04-.051-.07l-.026-.02a2.99 2.99 0 0 1-.06-.044a.498.498 0 0 1-.117-.124c-.113-.175-.103-.744.056-.744c.005-.003.023-.012.047-.027l.066-.043l.059-.038a.923.923 0 0 1 .217-.108a.408.408 0 0 1 .122-.02c.152 0 .341.084.572.248l-.078.107c-.21-.15-.377-.223-.494-.223a.277.277 0 0 0-.082.014a.808.808 0 0 0-.185.093l-.054.035zm-.157.08l-.002.003l.001-.002z" clip-rule="evenodd"/><path fill="#984111" d="m15.665 12.723l.034.067l-.034-.067zm.677.001l.039-.064l-.039.064zm.069.041l.061.043l.046-.066l-.069-.041l-.038.064zm-.046.066l-.062-.043l.062.043zm-.723.008l.057-.05l-.057.05zm-.063-.073l-.033-.068l-.086.043l.062.073l.057-.048zm.252.051l-.023-.072l-.13.04l.104.089l.049-.057zm.354-.002l.054.053l.082-.085l-.111-.038l-.025.07zm-.574-.042l-.039-.064l-.07.043l.05.066l.06-.045zm.771 0l.064.039l.036-.058l-.055-.041l-.045.06zm-.859-.122l.04.064l-.04-.064zm.958.008l-.046.06l.046-.06zm.046.036l.046-.06l-.046.06zm.052.04l.065.039l.034-.057l-.053-.04l-.046.059zm-.034.058l-.064-.039l.064.039zm-.03.05l.065.038l-.064-.039zm-1.03.011l-.06.045l.06-.045zm-.043-.057l.06-.045l-.06.045zm-.049-.066l-.04-.063l-.069.043l.049.065l.06-.045zm.07-.043l-.04-.063l.04.063zm.553-.124a.85.85 0 0 0-.384.092l.067.134a.7.7 0 0 1 .317-.076v-.15zm.365.096a.696.696 0 0 0-.365-.096v.15c.11 0 .205.025.287.074l.078-.128zm.068.041l-.068-.041l-.078.128l.07.041l.076-.128zm-.022.173l.045-.066l-.123-.085l-.046.065l.124.086zm-.411.25c.172 0 .307-.101.41-.25l-.123-.086c-.087.126-.183.186-.287.186v.15zm-.431-.237c.12.141.264.237.43.237v-.15c-.104 0-.21-.06-.316-.184l-.114.097zm-.063-.073l.063.073l.114-.097l-.063-.073l-.114.097zm.11-.158l-.086.042l.067.135l.086-.043l-.067-.134zm.384.168c-.032 0-.077-.013-.136-.064l-.098.114c.078.067.157.1.234.1v-.15zm.115-.06c-.047.049-.085.06-.115.06v.15a.307.307 0 0 0 .223-.106l-.108-.105zm-.115.1c.056 0 .103.008.145.022l.049-.141a.588.588 0 0 0-.194-.03v.15zm-.163.025a.542.542 0 0 1 .163-.025v-.15a.69.69 0 0 0-.208.031l.045.144zm.163.066c-.1 0-.216-.057-.345-.227l-.12.09c.144.19.299.287.465.287v-.15zm.302-.221c-.101.166-.204.221-.302.221v.15c.169 0 .313-.1.43-.293l-.128-.078zm-.302-.002c.129 0 .234.035.321.1l.09-.12a.667.667 0 0 0-.411-.13v.15zm-.366.105a.696.696 0 0 1 .366-.104v-.15a.846.846 0 0 0-.443.126l.077.128zm.366-.405a.998.998 0 0 0-.532.155l.079.128a.848.848 0 0 1 .453-.133v-.15zm.51.168a.816.816 0 0 0-.51-.168v.15a.67.67 0 0 1 .419.136l.092-.118zm.047.036l-.046-.036l-.092.119l.046.035l.092-.118zm.052.04l-.052-.04l-.092.118l.052.04l.092-.118zm-.015.155l.034-.057l-.129-.077l-.034.057l.129.077zm-.03.05l.03-.05l-.13-.077l-.029.05l.129.077zm-.564.374c.244 0 .43-.151.564-.374l-.129-.077c-.118.198-.264.301-.435.301v.15zm-.592-.356c.16.213.356.356.592.356v-.15c-.17 0-.326-.1-.471-.296l-.12.09zm-.042-.057l.042.057l.12-.09l-.042-.057l-.12.09zm-.049-.066l.049.066l.12-.09l-.049-.065l-.12.09zm.09-.151l-.07.043l.08.127l.07-.043l-.08-.127zm.061-.038l-.06.038l.078.127l.061-.037l-.079-.128zm-.419-1.134l.033.068l-.033-.068zm0 .361l-.032.068l.032-.068zm.537 0l.032.068l-.033-.068zm0-.361l-.033.068l.032-.068zm-.526.178l-.07-.03l.07.03zm.006-.01l.057.05l-.056-.05zm.048-.033l-.032-.067l.032.067zm.407 0l.032-.067l-.032.067zm.047.033l-.056.05l.056-.05zm.007.01l-.069.03l.069-.03zm0 .005l-.069-.029l.069.03zm-.007.01l-.056-.05l.056.05zm-.047.033l.032.068l-.032-.068zm-.407 0l-.032.068l.032-.068zm-.048-.033l-.056.05l.056-.05zm-.006-.01l-.07.03l.07-.03zm1.323-.183l-.033-.068l.033.068zm0 .361l-.033.068l.033-.068zm.536 0l-.033-.067l.033.067zm0-.361l-.033.068l.033-.068zm-.526.178l-.069-.03l.07.03zm.007-.01l-.056-.05l.056.05zm.047-.033l.033.068l-.032-.068zm.407 0l-.033.068l.033-.068zm.048.033l-.057.05l.057-.05zm.006.01l-.069.03l.07-.03zm0 .005l-.069-.029l.07.03zm-.006.01l-.057-.05l.057.05zm-.048.033l-.033-.067l.033.067zm-.407 0l.033-.067l-.032.067zm-.047-.033l-.056.05l.056-.05zm-.007-.01l-.069.03l.07-.03zm-1.311-.115a.56.56 0 0 1 .235-.047v-.15a.709.709 0 0 0-.3.061l.065.136zm-.098.113c0-.044.037-.084.098-.114l-.065-.135c-.073.036-.183.113-.183.249H15zm.098.113c-.061-.03-.098-.07-.098-.113h-.15c0 .135.11.213.183.248l.065-.135zm.235.047a.559.559 0 0 1-.235-.047l-.065.135c.085.04.19.062.3.062v-.15zm.236-.047a.559.559 0 0 1-.236.047v.15c.11 0 .216-.021.301-.062l-.065-.135zm.098-.113c0 .043-.037.084-.098.113l.065.135c.073-.035.183-.113.183-.248h-.15zm-.098-.114c.061.03.098.07.098.114h.15c0-.136-.11-.213-.183-.249l-.065.136zm-.236-.046a.56.56 0 0 1 .236.046l.065-.135a.709.709 0 0 0-.3-.061v.15zm-.326.127a.082.082 0 0 0-.007.033h.15v.006a.069.069 0 0 1-.005.02l-.138-.059zm.02-.03a.115.115 0 0 0-.02.03l.138.06l-.006.01l-.113-.1zm.07-.05a.225.225 0 0 0-.07.05l.112.1s.006-.007.024-.015l-.065-.136zm.236-.047a.56.56 0 0 0-.235.046l.065.136a.412.412 0 0 1 .17-.032v-.15zm.236.046a.56.56 0 0 0-.236-.046v.15c.075 0 .135.014.171.032l.065-.136zm.071.051a.223.223 0 0 0-.07-.05l-.066.135a.072.072 0 0 1 .024.015l.112-.1zm.02.03a.11.11 0 0 0-.02-.03l-.112.1l-.006-.01l.138-.06zm.007.033a.082.082 0 0 0-.007-.033l-.138.06a.066.066 0 0 1-.005-.021v-.006h.15zm-.007.032a.081.081 0 0 0 .007-.032h-.15v-.007l.001-.008a.066.066 0 0 1 .004-.012l.138.059zm-.02.03a.11.11 0 0 0 .02-.03l-.138-.059a.036.036 0 0 1 .006-.01l.112.099zm-.07.05a.223.223 0 0 0 .07-.05l-.112-.1s-.006.007-.024.016l.065.135zm-.237.048a.559.559 0 0 0 .236-.047l-.065-.135a.414.414 0 0 1-.17.032v.15zm-.235-.047c.06.029.143.047.235.047v-.15a.414.414 0 0 1-.17-.032l-.065.135zm-.072-.051c.017.02.042.036.072.05l.065-.134a.177.177 0 0 1-.024-.015l-.113.099zm-.02-.03c.005.01.012.02.02.03l.113-.1l.006.011l-.138.059zM15 11.634c0 .01.002.021.007.032l.138-.059a.06.06 0 0 1 .005.02v.007H15zm1.431-.114a.56.56 0 0 1 .236-.046v-.15a.709.709 0 0 0-.3.061l.064.136zm-.098.114c0-.044.037-.084.098-.114l-.065-.135c-.073.036-.183.113-.183.249h.15zm.098.113c-.06-.03-.098-.07-.098-.113h-.15c0 .135.11.213.183.248l.065-.135zm.236.047a.559.559 0 0 1-.236-.047l-.065.135c.085.04.191.062.3.062v-.15zm.235-.047a.559.559 0 0 1-.235.047v.15c.11 0 .216-.021.3-.062l-.065-.135zm.098-.113c0 .043-.037.084-.098.113l.065.135c.074-.035.183-.113.183-.248H17zm-.098-.114c.061.03.098.07.098.114h.15c0-.136-.11-.213-.183-.249l-.065.136zm-.235-.046a.56.56 0 0 1 .235.046l.065-.135a.709.709 0 0 0-.3-.061v.15zm-.327.127a.082.082 0 0 0-.007.033h.15v.006l-.001.008a.066.066 0 0 1-.004.012l-.138-.059zm.02-.03a.11.11 0 0 0-.02.03l.138.06a.036.036 0 0 1-.006.01l-.112-.1zm.071-.05a.223.223 0 0 0-.071.05l.112.1s.006-.007.024-.015l-.065-.136zm.236-.047a.56.56 0 0 0-.236.046l.065.136a.413.413 0 0 1 .17-.032v-.15zm.235.046a.56.56 0 0 0-.235-.046v.15c.074 0 .135.014.17.032l.065-.136zm.072.051a.225.225 0 0 0-.072-.05l-.065.135a.072.072 0 0 1 .024.015l.113-.1zm.02.03a.115.115 0 0 0-.02-.03l-.113.1l-.006-.01l.138-.06zm.006.033a.082.082 0 0 0-.007-.033l-.138.06a.06.06 0 0 1-.005-.021v-.006H17zm-.007.032a.081.081 0 0 0 .007-.032h-.15a.138.138 0 0 1 .002-.015a.06.06 0 0 1 .003-.012l.138.059zm-.02.03a.116.116 0 0 0 .02-.03l-.138-.059l.006-.01l.113.099zm-.07.05a.225.225 0 0 0 .07-.05l-.112-.1s-.006.007-.024.016l.065.135zm-.236.048a.559.559 0 0 0 .235-.047l-.065-.135a.414.414 0 0 1-.17.032v.15zm-.236-.047a.56.56 0 0 0 .236.047v-.15a.414.414 0 0 1-.171-.032l-.065.135zm-.071-.051c.016.02.04.036.071.05l.065-.134a.177.177 0 0 1-.024-.015l-.112.099zm-.02-.03a.13.13 0 0 0 .02.03l.112-.1l.006.011l-.138.059zm-.007-.032c0 .01.003.021.007.032l.138-.059a.066.066 0 0 1 .005.02v.007h-.15z"/></g></svg>