<svg xmlns="http://www.w3.org/2000/svg" xmlns:xlink="http://www.w3.org/1999/xlink" width="32" height="24" viewBox="0 0 32 24"><mask id="flagpackCa0" width="32" height="24" x="0" y="0" maskUnits="userSpaceOnUse"><path fill="#fff" d="M0 0h32v24H0z"/></mask><g fill="none" fill-rule="evenodd" clip-rule="evenodd" mask="url(#flagpackCa0)"><path fill="#F7FCFF" d="M8 0h16v24H8V0z"/><path fill="#E31D1C" d="M15.976 7L16 19h-.6l.368-2.97c-2.69.484-3.924.604-3.701.36c.222-.244.397-.59.525-1.038L9 12.955c.378-.004.72-.098 1.028-.281c.307-.183.153-.816-.461-1.9l1.813.264l.687-.746l1.368 1.432h.615l-.615-3.28l1.103.615L15.976 7zm0 0l1.486 2.06l1.103-.617l-.615 3.281h.615l1.368-1.432l.686.746l1.814-.264c-.614 1.084-.768 1.717-.46 1.9c.307.183.65.277 1.027.281l-3.593 2.397c.129.448.304.794.526 1.038c.223.244-1.011.124-3.701-.36l.367 2.97H16l-.024-12zM24 0h8v24h-8V0zM0 0h8v24H0V0z"/></g></svg>