<svg xmlns="http://www.w3.org/2000/svg" xmlns:xlink="http://www.w3.org/1999/xlink" width="32" height="24" viewBox="0 0 32 24"><g fill="none"><path fill="#5EAA22" fill-rule="evenodd" d="M0 0h32v24H0z" clip-rule="evenodd"/><path fill="#FECA00" fill-rule="evenodd" d="m24 7l-1 .732l.134-1.232L22 6l1.134-.5L23 4.268L24 5l1-.732l-.134 1.232L26 6l-1.134.5L25 7.732zm-1.037 6.679l-1 .732l.134-1.232l-1.134-.5l1.134-.5l-.134-1.232l1 .732l1-.732l-.134 1.232l1.134.5l-1.134.5l.134 1.232zM26 19l-1 .732l.134-1.232L24 18l1.134-.5L25 16.268L26 17l1-.732l-.134 1.232L28 18l-1.134.5l.134 1.232zm1-9.5l-.5.366l.067-.616L26 9l.567-.25l-.067-.616l.5.366l.5-.366l-.067.616L28 9l-.567.25l.067.616zM7 14A5 5 0 1 0 7 4a5 5 0 0 0 0 10m12.898.945c-.658 1.13-1.704 1.642-3.104 1.642a3.794 3.794 0 1 1 0-7.587c1.598 0 2.874.56 3.459 2.083c-.463-.46-1.18-.775-2.253-.735c-1.657 0-2.735 1.29-2.735 2.395S16.343 15.35 18 15.35c.833-.013 1.449-.165 1.898-.405" clip-rule="evenodd"/><path fill="#915E2B" d="M7.582 8.694s-.977 3.58-1.38 3.92c-.18.078 1.618 0 1.618 0s-.674-.295-.437-.688s.548-2.916.437-3.776s-.238.544-.238.544"/><path fill="#5EAA22" fill-rule="evenodd" d="M7.79 8.827s1.049.314 1.049.85s.872 1.289.872.576s-.163-1.426-.518-1.426c-.354 0 .174-.48.477-.082s1.366-.037 1.15-.316c-.216-.28-.982-.628-1.11-.628c-.126 0 .873-.68 0-.68c-.871 0-.371.58-.962-.036c-.591-.618.252.3.252-.736s-.24-1.46-1.029-.878c-.79.582-.638.213-.919-.006c-.281-.22-.528.803-.218 1.012c.309.208.652.726.342.726c-.309 0-.527-.299-.527-.513c0-.213-.841-.591-1.64-.591s-.282.591 0 .591s1.544.43.913.43s.049-.318-.747-.318c-.795 0-1.72-.362-1.72.318c0 .681.795.982 1.043.681s.536-.81.536-.302c0 .507-.633.3-1.58.615c-.945.315-.674 1.144.455.942c1.128-.203 1.006-.192 1.46-.507c.452-.314 1.013-.227.553.278c-.46.504-.92 1.426-.46 1.426s.757.125.757-.362s.267-1.436.267-.835c0 .6.348 1.054.657.835s-.072-.902.28-.902c.354 0 .367-.162.367-.162" clip-rule="evenodd"/></g></svg>