<svg xmlns="http://www.w3.org/2000/svg" xmlns:xlink="http://www.w3.org/1999/xlink" width="32" height="24" viewBox="0 0 32 24"><mask id="flagpackCd0" width="32" height="24" x="0" y="0" maskUnits="userSpaceOnUse"><path fill="#fff" d="M0 0h32v24H0z"/></mask><g fill="none" mask="url(#flagpackCd0)"><path fill="#3195F9" fill-rule="evenodd" d="M0 0v24h32V0H0z" clip-rule="evenodd"/><mask id="flagpackCd1" width="32" height="24" x="0" y="0" maskUnits="userSpaceOnUse"><path fill="#fff" fill-rule="evenodd" d="M0 0v24h32V0H0z" clip-rule="evenodd"/></mask><g mask="url(#flagpackCd1)"><path fill="#E31D1C" stroke="#FECA00" stroke-width="2.5" d="m-1.822 25.44l.694 1.039l1.04-.694L36.172 1.58l1.04-.693l-.693-1.04l-2.221-3.327l-.694-1.04l-1.04.694l-36.26 24.204l-1.04.694l.694 1.04l2.22 3.326z"/><path fill="#FECA00" fill-rule="evenodd" d="m4.93 8.606l-3.485 2.418l1.114-4.141L0 4.238l3.465-.143L4.93 0l1.466 4.095h3.458L7.302 6.883l1.279 3.897l-3.65-2.174z" clip-rule="evenodd"/></g></g></svg>