<svg xmlns="http://www.w3.org/2000/svg" xmlns:xlink="http://www.w3.org/1999/xlink" width="32" height="24" viewBox="0 0 32 24"><defs><path id="flagpackDj0" fill="#fff" fill-rule="evenodd" d="M0 0v24l18-12L0 0z" clip-rule="evenodd"/></defs><mask id="flagpackDj1" width="32" height="24" x="0" y="0" maskUnits="userSpaceOnUse"><path fill="#fff" d="M0 0h32v24H0z"/></mask><g fill="none" mask="url(#flagpackDj1)"><path fill="#73BE4A" fill-rule="evenodd" d="M0 0v24h32V0H0z" clip-rule="evenodd"/><mask id="flagpackDj2" width="32" height="24" x="0" y="0" maskUnits="userSpaceOnUse"><path fill="#fff" fill-rule="evenodd" d="M0 0v24h32V0H0z" clip-rule="evenodd"/></mask><g mask="url(#flagpackDj2)"><path fill="#69F" fill-rule="evenodd" d="M0-2v14h32V-2H0z" clip-rule="evenodd"/></g><use href="#flagpackDj0" fill-rule="evenodd" clip-rule="evenodd"/><mask id="flagpackDj3" width="18" height="24" x="0" y="0" maskUnits="userSpaceOnUse"><use href="#flagpackDj0" fill-rule="evenodd" clip-rule="evenodd"/></mask><g mask="url(#flagpackDj3)"><path fill="#E31D1C" fill-rule="evenodd" d="m7.002 14.07l-1.87 1.13l.426-2.204L4 11.347l2.11-.09l.892-2.057l.892 2.058H10l-1.554 1.738l.468 2.204l-1.912-1.13z" clip-rule="evenodd"/></g></g></svg>