<svg xmlns="http://www.w3.org/2000/svg" xmlns:xlink="http://www.w3.org/1999/xlink" width="32" height="24" viewBox="0 0 32 24"><g fill="none"><path fill="#2E42A5" fill-rule="evenodd" d="M0 0v24h32V0z" clip-rule="evenodd"/><mask id="flagpackEc0" width="32" height="24" x="0" y="0" maskUnits="userSpaceOnUse" style="mask-type:luminance"><path fill="#fff" fill-rule="evenodd" d="M0 0v24h32V0z" clip-rule="evenodd"/></mask><g mask="url(#flagpackEc0)"><path fill="#FECA00" fill-rule="evenodd" d="M0 0v12h32V0z" clip-rule="evenodd"/><path fill="#E31D1C" fill-rule="evenodd" d="M0 18v6h32v-6z" clip-rule="evenodd"/><path fill="#7B2900" fill-rule="evenodd" d="M9.717 5.714s4.156-1.877 4.534-1.664s.469.821.795.821s.983-.192 1.257-.192s.545.192.545.192h1.17v-.65l5.309 1.493s-3.096.405-3.33.405s0 .333 0 .333s-.441-.333-1.113-.333c-.673 0-2.036.694-2.036.694l.496 1.066l-.496.314l-.545-.314s.035-.876-.2-.876c-.234 0-.406.563-.406.876s-.65.314-.65.314l.29-.587s.29-.973-.29-.973c-.581 0-3.226-.514-3.226-.514l-.676.333l.242-.738z" clip-rule="evenodd"/><path fill="#E31D1C" fill-rule="evenodd" d="M11.501 15.774c-.648-1.458 0-4.687 0-4.687l1.261.66c-.15.754-.173 2.179.299 3.344s2.255 2.082 2.255 2.082s.9.2-.468.345c-1.366.145-2.698-.286-3.347-1.744m3.232 5.743c-.406 0 .813-2.71.813-2.71l.376-.752s.046 3.189-.212 3.462c-.165.175-.353.125-.574.067a1.6 1.6 0 0 0-.403-.067" clip-rule="evenodd"/><path fill="#2E42A5" fill-rule="evenodd" d="M10.327 15.298c-.544-2.177.304-5.133.304-5.133l.854.61c-.126 1.125-.126 4.036.596 5.297s3.887 1.791 3.887 1.791s-.624.462-1.77.678s-3.328-1.066-3.871-3.243m3.629 5.92l.502-1.793l.707-.866h.51s-.717 3.08-1.217 3.08c-.325 0-.228-.178-.12-.376c.059-.107.12-.22.12-.313c0-.266-.502.267-.502.267" clip-rule="evenodd"/><path fill="#FECA00" fill-rule="evenodd" d="M9.498 15.671c-.27-1.874.27-6.351.27-6.351l.853.61c-.386 1.084-.266 4.196 0 5.741s2.785 2.477 2.785 2.477s-.624.461-1.77.677c-1.144.216-1.868-1.28-2.138-3.154m4.189 3.745c-.486 0 .211-.697.211-.697h1.164s-.398.984-.89.984c-.246 0-.245-.072-.245-.144c.001-.072.002-.143-.24-.143" clip-rule="evenodd"/><path fill="#E31D1C" fill-rule="evenodd" d="M20.365 15.774c.65-1.458 0-4.687 0-4.687l-1.26.66c.15.754.173 2.179-.3 3.344c-.47 1.165-2.254 2.082-2.254 2.082s-.9.2.467.345s2.699-.286 3.347-1.744m-3.232 5.743c.407 0-.812-2.71-.812-2.71l-.376-.752s-.046 3.189.212 3.462c.165.175.353.125.573.067c.124-.032.258-.067.403-.067" clip-rule="evenodd"/><path fill="#2E42A5" fill-rule="evenodd" d="M21.54 15.298c.543-2.177-.305-5.133-.305-5.133l-.853.61c.125 1.125.125 4.036-.596 5.297c-.722 1.262-3.888 1.791-3.888 1.791s.625.462 1.77.678s3.328-1.066 3.872-3.243m-3.63 5.92l-.501-1.793l-.708-.866h-.509s.717 3.08 1.217 3.08c.325 0 .228-.178.12-.376c-.059-.107-.12-.22-.12-.313c0-.266.502.267.502.267" clip-rule="evenodd"/><path fill="#FECA00" fill-rule="evenodd" d="M22.369 15.671c.27-1.874-.27-6.351-.27-6.351l-.853.61c.386 1.084.266 4.196 0 5.741s-2.786 2.477-2.786 2.477s.625.461 1.77.677s1.87-1.28 2.139-3.154m-4.189 3.745c.486 0-.212-.697-.212-.697h-1.163s.398.984.89.984c.246 0 .245-.072.244-.144c0-.072-.001-.143.241-.143" clip-rule="evenodd"/><path fill="#6FAE21" d="m10.203 10.446l.091-.552l1.601.103l-1.214-1.258l.41-.389l1.641 1.702l-1.404-2.64l.486-.29l1.278 1.881l-.61-1.954l.525-.209l1.965 3.92l-.754-.049l.074.237l.642.17l-.146.544l-.298-.08l.278.892l-.483-.71l.841 1.58l-2.066-2.14zm11.723 0l-.091-.552l-1.601.103l1.214-1.258l-.41-.389l-1.642 1.702l1.405-2.64l-.486-.29l-1.278 1.881l.61-1.954l-.525-.209l-1.965 3.92l.754-.049l-.074.237l-.642.17l.146.544l.298-.08l-.278.892l.483-.71l-.841 1.58l2.066-2.14z"/><path fill="#171401" d="m11.067 21.311l-.413-.386l12.19-12.834l.413.385z"/><path fill="#CECECC" fill-rule="evenodd" d="m22.535 8.19l.625.589l.352-.975zM11.376 21.309l-.717-.472l-.233.967z" clip-rule="evenodd"/><path fill="#171401" d="m10.16 19.399l-.412-.386l12.19-12.835l.412.386z"/><path fill="#CECECC" fill-rule="evenodd" d="m21.628 6.277l.625.59l.353-.975zM10.47 19.396l-.718-.472l-.233.968z" clip-rule="evenodd"/><path fill="#171401" d="m21.253 21.311l.413-.386L9.476 8.091l-.413.385z"/><path fill="#CECECC" fill-rule="evenodd" d="m9.785 8.19l-.625.589l-.353-.975zm11.159 13.119l.717-.472l.233.967z" clip-rule="evenodd"/><path fill="#171401" d="m22.387 19.849l.412-.386l-12.19-12.835l-.413.386z"/><path fill="#CECECC" fill-rule="evenodd" d="m10.918 6.727l-.625.59l-.352-.975zm11.159 13.119l.718-.472l.232.968z" clip-rule="evenodd"/><path fill="#B74E01" d="M13.667 16.375H18.2v2.25h-4.533z"/><path fill="#7DB8FF" stroke="#FECA00" stroke-width=".5" d="M15.948 17.287c.898 0 1.675-.578 2.215-1.435c.541-.86.868-2.033.868-3.315s-.327-2.455-.868-3.315c-.54-.857-1.317-1.435-2.215-1.435c-.9 0-1.676.578-2.215 1.435c-.542.86-.869 2.032-.869 3.315s.327 2.455.869 3.315c.54.857 1.316 1.435 2.215 1.435Z"/><mask id="flagpackEc1" width="8" height="11" x="12" y="7" maskUnits="userSpaceOnUse" style="mask-type:luminance"><path fill="#fff" stroke="#fff" stroke-width=".5" d="M15.948 17.287c.898 0 1.675-.578 2.215-1.435c.541-.86.868-2.033.868-3.315s-.327-2.455-.868-3.315c-.54-.857-1.317-1.435-2.215-1.435c-.9 0-1.676.578-2.215 1.435c-.542.86-.869 2.032-.869 3.315s.327 2.455.869 3.315c.54.857 1.316 1.435 2.215 1.435Z"/></mask><g fill-rule="evenodd" clip-rule="evenodd" mask="url(#flagpackEc1)"><path fill="#6FAE21" d="M12.88 12.61h1.612s1.108.245.554.439c-.554.193-.554.257-.554.532v1.5c0 .215.394.676-.437.676c-.83 0-1.547-3.416-1.547-3.416zm6.3.186s-1.499.295-2.525.197c-1.026-.099-1.476-.197-1.476-.197s.715.371.97.683c.253.312.774.85 1.304.85s1.344.504 1.344.504z"/><path fill="#F7FCFF" d="M13.319 10.136s1.234.238 1.532.596c.297.357-.393.714 1.406.357s3.227-.98 3.227 0s-.157 1.883-.931 1.883h-3.444c-2.361 0-3.648.723-3.483-.44c.165-1.161 1.693-2.396 1.693-2.396"/></g></g></g></svg>