<svg xmlns="http://www.w3.org/2000/svg" xmlns:xlink="http://www.w3.org/1999/xlink" width="32" height="24" viewBox="0 0 32 24"><mask id="flagpackEg0" width="32" height="24" x="0" y="0" maskUnits="userSpaceOnUse"><path fill="#fff" d="M0 0h32v24H0z"/></mask><g fill="none" mask="url(#flagpackEg0)"><path fill="#F7FCFF" fill-rule="evenodd" d="M0 0v24h32V0H0z" clip-rule="evenodd"/><mask id="flagpackEg1" width="32" height="24" x="0" y="0" maskUnits="userSpaceOnUse"><path fill="#fff" fill-rule="evenodd" d="M0 0v24h32V0H0z" clip-rule="evenodd"/></mask><g mask="url(#flagpackEg1)"><path fill="#BF2714" fill-rule="evenodd" d="M0 0v8h32V0H0z" clip-rule="evenodd"/><path fill="#272727" fill-rule="evenodd" d="M0 16v8h32v-8H0z" clip-rule="evenodd"/><path fill="#C09302" d="m12.26 10.22l1 .046l-.252 5.47l-.998-.046l.25-5.47zm1.044.34l.998.056l-.25 4.436l-.999-.057l.251-4.435z"/><path fill="#C09302" d="m14.348 10.892l.997.082l-.25 3.056l-.997-.082l.25-3.056zm5.392-.672l-1 .046l.251 5.47l1-.046l-.251-5.47zm-1.044.34l-.998.056l.25 4.436l.999-.057l-.251-4.435z"/><path fill="#C09302" d="m17.651 10.892l-.996.082l.25 3.056l.997-.082l-.25-3.056zm-1.678 4.435l-.975-.224l.413-1.8l.975.223l-.413 1.8z"/><path fill="#C09302" d="m16.72 15.327l.974-.224l-.412-1.8l-.975.223l.413 1.8z"/><path fill="#C09302" d="M16.472 15.31h-1v-1.768h1v1.768zm-1.837-4.397l1 .025l-.059 2.38l-1-.024l.059-2.38zm1.739 0l1 .025l-.059 2.38l-1-.024l.059-2.38z"/><path fill="#C09302" d="m13.338 15.923l.26-.966c1.06.285 1.875.427 2.43.427c.556 0 1.371-.142 2.432-.427l.26.966c-1.139.306-2.031.46-2.691.46c-.66 0-1.553-.154-2.691-.46zm-1.056-5.7c-.066-.66.32-1.108.975-1.051c.216.019.458.082.78.192l.186.065c.443.157.563.198.588.203c-.098-.022.191-.545.258-.633c.007.056-.026.048-.106.032l-.902-.18l.642-.66a1.17 1.17 0 0 1 .865-.344c.035 0 .068-.002.176-.008l.17-.009c.625-.02 1.072.156 1.072.798c0 .23.03.599.077.879c.016.094.047.182-.045.221c.004-.033.223-.12.563-.262l.04-.017c.988-.412 1.103-.45 1.422-.257c.212.13.414.36.64.707l-.837.547c-.146-.223-.262-.358-.317-.396c.125.088-.298.228-.522.322l-.04.017c-.77.321-.87.36-1.09.36c-.599 0-.813-.613-.872-1.49c-.185.607-.735 1.374-1.19 1.374c-.198 0-.102.031-.927-.262l-.172-.06a2.692 2.692 0 0 0-.544-.143a.449.449 0 0 1 .04-.04l-.93.095z"/></g></g></svg>