<svg xmlns="http://www.w3.org/2000/svg" xmlns:xlink="http://www.w3.org/1999/xlink" width="32" height="24" viewBox="0 0 32 24"><mask id="flagpackEh0" width="32" height="24" x="0" y="0" maskUnits="userSpaceOnUse"><path fill="#fff" d="M0 0h32v24H0z"/></mask><g fill="none" fill-rule="evenodd" clip-rule="evenodd" mask="url(#flagpackEh0)"><path fill="#F7FCFF" d="M0 0h32v24H0V0z"/><path fill="#272727" d="M0 0v8h32V0H0z"/><path fill="#5EAA22" d="M0 16v8h32v-8H0z"/><path fill="#E31D1C" d="m0 0l16 12L0 24V0zm21.688 15.477s-2.275-1.375-2.275-3.646c0-2.272 2.275-3.467 2.275-3.467c-1.018-.646-4.549.276-4.549 3.54c0 3.265 3.498 3.869 4.549 3.573zm1.84-4.165l-1.323-1.24l.457 1.584l-1.281.607l1.573.512l.683 1.714l.3-1.587l1.553.343l-1.175-1.148l.397-1.225l-1.184.44z"/></g></svg>