<svg xmlns="http://www.w3.org/2000/svg" xmlns:xlink="http://www.w3.org/1999/xlink" width="32" height="24" viewBox="0 0 32 24"><g fill="none"><path fill="#2E42A5" fill-rule="evenodd" d="M0 0v24h32V0z" clip-rule="evenodd"/><mask id="flagpackGbNir0" width="32" height="24" x="0" y="0" maskUnits="userSpaceOnUse" style="mask-type:luminance"><path fill="#fff" fill-rule="evenodd" d="M0 0v24h32V0z" clip-rule="evenodd"/></mask><g mask="url(#flagpackGbNir0)"><path fill="#fff" d="m-3.563 22.285l7.041 2.979L32.16 3.238l3.714-4.426l-7.53-.995l-11.698 9.491l-9.416 6.396z"/><path fill="#F50100" d="M-2.6 24.372L.989 26.1L34.54-1.599h-5.037z"/><path fill="#fff" d="m35.563 22.285l-7.042 2.979L-.159 3.238l-3.715-4.426l7.53-.995l11.698 9.491l9.416 6.396z"/><path fill="#F50100" d="m35.323 23.783l-3.588 1.728l-14.286-11.86l-4.236-1.324l-17.445-13.5H.806l17.434 13.18l4.631 1.588z"/><mask id="flagpackGbNir1" fill="#fff"><path fill-rule="evenodd" d="M19.778-2h-7.556V8H-1.973v8h14.195v10h7.556V16h14.25V8h-14.25z" clip-rule="evenodd"/></mask><path fill="#F50100" fill-rule="evenodd" d="M19.778-2h-7.556V8H-1.973v8h14.195v10h7.556V16h14.25V8h-14.25z" clip-rule="evenodd"/><path fill="#fff" d="M12.222-2v-2h-2v2zm7.556 0h2v-2h-2zM12.222 8v2h2V8zM-1.973 8V6h-2v2zm0 8h-2v2h2zm14.195 0h2v-2h-2zm0 10h-2v2h2zm7.556 0v2h2v-2zm0-10v-2h-2v2zm14.25 0v2h2v-2zm0-8h2V6h-2zm-14.25 0h-2v2h2zm-7.556-8h7.556v-4h-7.556zm2 8V-2h-4V8zm-16.195 2h14.195V6H-1.973zm2 6V8h-4v8zm12.195-2H-1.973v4h14.195zm2 12V16h-4v10zm5.556-2h-7.556v4h7.556zm-2-8v10h4V16zm16.25-2h-14.25v4h14.25zm-2-6v8h4V8zm-12.25 2h14.25V6h-14.25zm-2-12V8h4V-2z" mask="url(#flagpackGbNir1)"/></g></g></svg>