<svg xmlns="http://www.w3.org/2000/svg" xmlns:xlink="http://www.w3.org/1999/xlink" width="32" height="24" viewBox="0 0 32 24"><mask id="flagpackGl0" width="32" height="24" x="0" y="0" maskUnits="userSpaceOnUse"><path fill="#fff" d="M0 0h32v24H0z"/></mask><g fill="none" mask="url(#flagpackGl0)"><path fill="#C51918" fill-rule="evenodd" d="M0 12h32v12H0V12z" clip-rule="evenodd"/><mask id="flagpackGl1" width="32" height="12" x="0" y="12" maskUnits="userSpaceOnUse"><path fill="#fff" fill-rule="evenodd" d="M0 12h32v12H0V12z" clip-rule="evenodd"/></mask><g mask="url(#flagpackGl1)"><path fill="#F7FCFF" fill-rule="evenodd" d="M12 20a8 8 0 1 0 0-16a8 8 0 0 0 0 16z" clip-rule="evenodd"/></g><path fill="#F7FCFF" fill-rule="evenodd" d="M0 0h32v12H0V0z" clip-rule="evenodd"/><mask id="flagpackGl2" width="32" height="12" x="0" y="0" maskUnits="userSpaceOnUse"><path fill="#fff" fill-rule="evenodd" d="M0 0h32v12H0V0z" clip-rule="evenodd"/></mask><g mask="url(#flagpackGl2)"><path fill="#C51918" fill-rule="evenodd" d="M12 20a8 8 0 1 0 0-16a8 8 0 0 0 0 16z" clip-rule="evenodd"/></g></g></svg>