<svg xmlns="http://www.w3.org/2000/svg" xmlns:xlink="http://www.w3.org/1999/xlink" width="32" height="24" viewBox="0 0 32 24"><mask id="flagpackGt0" width="32" height="24" x="0" y="0" maskUnits="userSpaceOnUse"><path fill="#fff" d="M0 0h32v24H0z"/></mask><g fill="none" mask="url(#flagpackGt0)"><path fill="#58A5FF" fill-rule="evenodd" d="M22 0h10v24H22V0zM0 0h12v24H0V0z" clip-rule="evenodd"/><path fill="#fff" fill-rule="evenodd" d="M10 0h12v24H10V0z" clip-rule="evenodd"/><path fill="#6C301F" fill-rule="evenodd" d="m11.768 15.718l.522.683l2.37-3.211v-.569l-2.892 3.097z" clip-rule="evenodd"/><path fill="#979797" d="m13.404 12.136l.174-.239c2.243 1.687 3.833 2.982 4.722 4.062l-.555.457c-.845-1.026-2.139-2.625-4.34-4.28zm3.617-1.41l-.258-.25l1.415-1.46l.31.301l1.468-1.367l.245.263l-1.719 1.6l-.297-.288l-1.164 1.2z"/><path fill="#5AB92D" fill-rule="evenodd" d="M12.506 8.445c-.076-.328-.16-.733-.16-.733c-.19.432-.25.825-.174 1.176c-.08.111-.153.215-.219.312c-.203-.27-.458-.772-.458-.772c.01.146.005.296.001.44c-.009.342-.017.66.143.858l-.002.004a5.267 5.267 0 0 0-.09.197c-.222-.22-.588-.617-.588-.617c.029.476.16.85.4 1.118a4.36 4.36 0 0 0-.108.416c-.185-.191-.363-.38-.363-.38c.026.434.098.721.287.962a3.805 3.805 0 0 0-.006.205c-.195-.202-.394-.412-.394-.412c.027.458.206.76.442 1.01c.023.146.055.29.095.431l.022.075a37.623 37.623 0 0 1-.557-.275c.173.4.427.621.715.776c.062.18.127.353.195.52a39.607 39.607 0 0 1-.778-.225c.276.419.615.585.98.681c.074.156.152.304.232.446a45.819 45.819 0 0 1-.643-.187c.268.406.596.575.948.672c.233.33.482.602.742.805c-.287.13-.647.286-.647.286c.407.12.732.075 1.03-.04l.034.017c.128.062.272.12.434.176c-.235.104-.459.2-.459.2a1.51 1.51 0 0 0 1.009-.031l.032.008c.142.04.288.076.48.124l.436.108c.304.078.477.132.56.179l.017.01l.005.002l.232-.169a.34.34 0 0 0-.113-.094c-.114-.064-.299-.122-.63-.207l-.445-.11a19.879 19.879 0 0 1-.588-.154a1.508 1.508 0 0 0-.214-.976s-.09.552-.152.864a4.189 4.189 0 0 1-.48-.19a1.823 1.823 0 0 1-.138-.073a1.51 1.51 0 0 0-.381-.94s.004.351.003.655a3.79 3.79 0 0 1-.548-.64l.123.066c.013-.39-.047-.773-.384-1.166c0 0 .005.379.003.69a7.203 7.203 0 0 1-.314-.617a1.511 1.511 0 0 0-.033-1.023s-.088.25-.18.503a9.477 9.477 0 0 1-.08-.219c.189-.316.31-.667.22-1.15c0 0-.215.382-.378.658a3.493 3.493 0 0 1-.116-.481c.268-.227.486-.511.563-.974c0 0-.36.308-.61.513a3.478 3.478 0 0 1 .003-.311c.29-.176.539-.416.69-.841c0 0-.355.21-.632.366c.02-.105.044-.21.073-.316v.01c.344-.182.646-.426.819-.914c0 0-.356.21-.633.367a3.644 3.644 0 0 1 .33-.628c.306-.097.592-.265.835-.62c0 0-.245.07-.5.138c.148-.201.32-.426.52-.675l-.225-.18l-.233.296z" clip-rule="evenodd"/><path fill="#5AB92D" fill-rule="evenodd" d="M19.634 8.445c.075-.328.16-.733.16-.733c.19.432.25.825.173 1.176c.081.111.154.215.22.312c.203-.27.457-.772.457-.772a5.113 5.113 0 0 0 0 .44c.008.342.017.66-.143.858l.002.004c.032.065.062.131.09.197c.221-.22.588-.617.588-.617c-.03.476-.16.85-.4 1.118c.043.14.079.279.107.416c.185-.191.364-.38.364-.38c-.026.434-.099.721-.288.962c.004.069.006.137.006.205c.196-.202.395-.412.395-.412c-.028.458-.207.76-.442 1.01a3.79 3.79 0 0 1-.096.431l-.021.075c.266-.128.557-.275.557-.275c-.174.4-.427.621-.716.776c-.061.18-.127.353-.195.52c.313-.085.779-.225.779-.225c-.277.419-.616.585-.98.681a7.347 7.347 0 0 1-.232.446c.296-.083.643-.187.643-.187c-.269.406-.596.575-.949.672c-.232.33-.481.602-.741.805c.286.13.647.286.647.286a1.512 1.512 0 0 1-1.03-.04a4.202 4.202 0 0 1-.469.193c.236.104.46.2.46.2a1.509 1.509 0 0 1-1.01-.031l-.031.008c-.143.04-.288.076-.48.124l-.436.108c-.304.078-.478.132-.56.179l-.018.01l-.004.002l-.233-.169a.34.34 0 0 1 .113-.094c.114-.064.3-.122.63-.207l.446-.11a20.14 20.14 0 0 0 .588-.154a1.507 1.507 0 0 1 .213-.976s.091.552.153.864a4.29 4.29 0 0 0 .48-.19c.045-.021.091-.046.137-.073a1.51 1.51 0 0 1 .381-.94s-.004.351-.002.655a3.78 3.78 0 0 0 .548-.64l-.123.066c-.014-.39.047-.773.383-1.166c0 0-.004.379-.002.69c.11-.19.214-.397.313-.617a1.511 1.511 0 0 1 .034-1.023s.088.25.18.503l.08-.219c-.189-.316-.31-.667-.22-1.15c0 0 .214.382.378.658l.033-.113c.034-.121.062-.244.083-.368a1.534 1.534 0 0 1-.563-.974s.36.308.61.513a3.478 3.478 0 0 0-.004-.311a1.524 1.524 0 0 1-.689-.841s.355.21.631.366a3.986 3.986 0 0 0-.073-.316v.01c-.344-.182-.646-.426-.818-.914c0 0 .356.21.633.367a3.66 3.66 0 0 0-.33-.628a1.514 1.514 0 0 1-.836-.62s.246.07.5.138c-.147-.201-.32-.426-.519-.675l.225-.18l.233.296z" clip-rule="evenodd"/><path fill="#EFE298" fill-rule="evenodd" d="m13.417 9.323l1.207 3.2h-.887s-.32 1.009.284 1.009h3.714s.404-.253.202-1.01c-.202-.756-1.224-2.845-1.224-2.845s.437-.346.437-.603s-.437-.285-.437-.285h-2.755c-.352.057-.54.534-.54.534z" clip-rule="evenodd"/><path fill="#C5A042" d="m14.444 10.5l1.875-.116l-1.875.117z"/><path stroke="#B47D00" stroke-width=".5" d="m14.444 10.5l1.875-.116"/><path fill="#C5A042" d="m14.9 11.521l1.875-.116l-1.875.116z"/><path stroke="#B47D00" stroke-width=".5" d="m14.9 11.521l1.875-.116"/><path fill="#C5A042" d="m15.257 12.541l1.874-.116l-1.874.116z"/><path stroke="#B47D00" stroke-width=".5" d="m15.257 12.541l1.874-.116"/><path fill="#5AB92D" fill-rule="evenodd" d="M15.88 7.588s-.288.058-.288.24c0 .183-.078.339-.078.339s.088.832.746 1.025c.659.193 1.044.24 1.322.626c.277.388 1.127 1.48.786 2.424c-.341.943-.609 1.424-.609 1.424s1.244-1.171 1.244-1.727c0-.555-.184-1.093-.735-1.799c-.55-.705-.807-1.117-1.218-1.435c-.41-.317-.998-.61-.998-.61s.21-.224.105-.33a1.011 1.011 0 0 0-.277-.177z" clip-rule="evenodd"/></g></svg>