<svg xmlns="http://www.w3.org/2000/svg" xmlns:xlink="http://www.w3.org/1999/xlink" width="32" height="24" viewBox="0 0 32 24"><g fill="none"><path fill="#E31D1C" fill-rule="evenodd" d="M0 0v24h32V0z" clip-rule="evenodd"/><mask id="flagpackIm0" width="32" height="24" x="0" y="0" maskUnits="userSpaceOnUse" style="mask-type:luminance"><path fill="#fff" fill-rule="evenodd" d="M0 0v24h32V0z" clip-rule="evenodd"/></mask><g mask="url(#flagpackIm0)"><path fill="#F7FCFF" fill-rule="evenodd" d="M6.094 4.141c-.008-.093.103-.137.165-.069c.45.492 1.636 1.716 2.323 1.716c.859 0 4.232-2.843 5.23-2.38c.997.463 3.016 5.305 3.016 5.305l-1.316 1.65l-1.7-.927l-.322-3.648S10.217 7.47 8.582 6.86l-.92.773S6.778 5.88 6.43 5.343c-.231-.354-.31-.884-.335-1.202" clip-rule="evenodd"/><path fill="#FECA00" fill-rule="evenodd" d="m8.262 8.124l-.56.34l.107-.719l-.453-.509l.626-.104l.28-.654l.28.654l.626.104l-.453.51l.107.718zm4.751-4.332a.363.363 0 0 1 .725 0v1.714a.363.363 0 0 1-.725 0z" clip-rule="evenodd"/><path fill="#F7FCFF" fill-rule="evenodd" d="M25.22 5.103c.083.043.062.16-.03.177c-.654.12-2.321.479-2.685 1.061c-.455.728.168 5.096-.753 5.696s-6.097-.253-6.097-.253l-.703-1.99l1.688-.951l3.264 1.66s.307-3.667 1.692-4.73l-.168-1.19s1.955.179 2.595.167c.423-.007.914.207 1.197.353" clip-rule="evenodd"/><path fill="#FECA00" fill-rule="evenodd" d="m20.693 4.831l.009-.654l.553.471l.671-.114l-.243.586l.406.584l-.702-.11l-.421.476l-.191-.654l-.666-.29zm1.221 6.374a.392.392 0 1 1-.424.659l-1.549-1.035a.36.36 0 0 1 .39-.606z" clip-rule="evenodd"/><path fill="#F7FCFF" fill-rule="evenodd" d="M14.863 20.984c-.079.05-.17-.027-.139-.114c.223-.628.747-2.25.424-2.857c-.403-.758-4.497-2.402-4.556-3.5S13.86 9.36 13.86 9.36l2.075.386l-.021 1.937l-3.07 1.997s3.023 2.1 3.251 3.83l1.114.449s-1.132 1.605-1.442 2.164c-.205.37-.636.688-.904.86" clip-rule="evenodd"/><path fill="#FECA00" fill-rule="evenodd" d="m17.362 17.199l.562.335l-.684.243l-.237.639l-.387-.504l-.708.06l.446-.554l-.202-.602l.662.161l.584-.431zm-6.259-2.242a.406.406 0 0 1-.292-.758l1.668-.651a.413.413 0 1 1 .298.77z" clip-rule="evenodd"/><path fill="#FECA00" d="M13.663 9.765a.245.245 0 0 1-.149-.31c.043-.127.242-.34.366-.297l1.736.607a.24.24 0 0 1 .16.21l.156 1.904c.01.135-.185.243-.316.254a.24.24 0 0 1-.257-.222l-.144-1.638z"/><path fill="#FECA00" d="M16.68 8.768c.104-.083.29.013.37.119s.063.26-.041.342l-1.203 1.233c-.103.082-.337-.079-.417-.185c-.081-.106-.104-.396 0-.479z"/></g></g></svg>