<svg xmlns="http://www.w3.org/2000/svg" xmlns:xlink="http://www.w3.org/1999/xlink" width="32" height="24" viewBox="0 0 32 24"><g fill="none"><path fill="#F7FCFF" fill-rule="evenodd" d="M0 0h32v24H0z" clip-rule="evenodd"/><path fill="#F7FCFF" stroke="#E31D1C" stroke-width="2.7" d="M-2.701 1.245L-4.75.006v24.788l2.049-1.239l16.537-10l1.91-1.155l-1.91-1.155z"/><path fill="#F7FCFF" stroke="#E31D1C" stroke-width="2.7" d="M34.92 1.233L36.95.055v24.69l-2.028-1.178l-17.219-10l-2.01-1.167l2.01-1.167z"/><path fill="#E31D1C" fill-rule="evenodd" d="M13.675 4.703s-.859 3.798 2.106 5.257c0 0 2.846-1.551 2.207-5.257c0 0-1.223-.409-2.195-.409s-2.118.409-2.118.409" clip-rule="evenodd"/><path fill="#FFD100" fill-rule="evenodd" d="M13.982 5.499s.317-.14.474 0s.286-.012.286-.097c0-.084.25-.375.25-.14c0 .237-.078.37.14.37c.22 0 1.206-.326 1.443-.23c.236.097.417.073.357-.066c-.06-.138-.214-.224-.512-.149s-.227.15-.485.15c-.257 0-.543-.074-.543-.074s.08-.124.374-.036s.699-.11.809-.11s.413-.005.443.07s.213.145.074.215c-.14.07-.37.115-.212.205c.159.09.523.072.54.166s.19.234.121.234c-.07 0-.194.132-.31.092c-.117-.04-.131-.076-.02-.108c.112-.033.111-.17.02-.17c-.093 0-.048.048-.258 0s-.487-.101-.47 0c.016.101.153.257-.1.278c-.252.02-.37.104-.418.037c-.05-.067-.225-.157-.087-.185c.138-.029.27.097.32.076c.049-.02.162-.032.067-.119c-.094-.087-.25-.138-.105-.203c.144-.066.03-.067-.245.068c-.274.135-.427.25-.668.234s-.331.005-.409-.016s-.455.242-.563.175c-.109-.067-.46-.093-.397-.175c.064-.083.148-.125.243-.083c.094.043.188.085.252.043c.063-.043.247-.188.201-.217c-.046-.03-.002-.127-.263-.127c-.262 0-.354.109-.416.04c-.063-.069.067-.148.067-.148m.262 1.248s.279-.124.417 0c.138.123.25-.01.25-.085c0-.074.22-.33.22-.123s-.068.325.124.325c.193 0 1.06-.287 1.268-.202s.367.064.314-.058c-.052-.121-.188-.197-.45-.131s-.2.131-.426.131s-.478-.065-.478-.065s.071-.109.33-.031c.257.077.613-.096.71-.096s.364-.005.39.061s.187.127.065.189c-.123.062-.325.1-.186.18s.46.064.474.146c.016.082.168.205.107.205s-.171.117-.274.081c-.102-.035-.114-.066-.016-.095s.097-.149.016-.149c-.08 0-.041.042-.226 0c-.184-.042-.428-.089-.414 0c.015.09.135.226-.086.244c-.222.018-.326.092-.369.033c-.043-.06-.197-.138-.076-.163s.237.086.28.068c.045-.019.144-.029.06-.105c-.082-.077-.219-.122-.092-.18c.126-.057.026-.058-.215.061s-.376.22-.588.205c-.211-.014-.29.005-.359-.014c-.068-.02-.4.213-.495.154c-.096-.059-.404-.081-.349-.154c.056-.072.13-.11.213-.072c.083.037.166.074.222.037s.217-.165.177-.19c-.04-.026-.002-.112-.232-.112s-.311.096-.366.035c-.054-.06.06-.13.06-.13m.37 1.266s.212-.093.316 0c.105.094.19-.007.19-.064c0-.056.167-.25.167-.093s-.052.246.094.246s.804-.217.962-.153s.278.049.238-.044c-.04-.092-.143-.15-.342-.099c-.198.05-.151.1-.323.1c-.171 0-.362-.05-.362-.05s.053-.082.25-.024c.195.06.465-.072.539-.072c.073 0 .275-.004.295.046s.142.096.05.143c-.094.047-.247.077-.142.137s.349.048.36.11c.012.063.127.156.08.156c-.045 0-.129.088-.207.062c-.077-.027-.086-.05-.012-.072c.075-.022.074-.113.012-.113c-.061 0-.031.032-.17 0c-.14-.032-.326-.068-.315 0c.011.067.102.17-.066.185c-.168.013-.246.069-.28.024c-.032-.045-.149-.104-.057-.123s.18.065.213.051s.108-.021.045-.08c-.062-.057-.166-.092-.07-.135s.02-.044-.163.046s-.285.166-.445.155c-.161-.01-.221.004-.273-.01s-.303.16-.376.116c-.072-.044-.306-.062-.264-.117c.042-.054.099-.083.162-.054c.063.028.125.056.168.028c.042-.028.165-.125.134-.145c-.03-.02-.001-.084-.176-.084c-.174 0-.236.072-.277.027c-.042-.046.045-.1.045-.1" clip-rule="evenodd"/></g></svg>