<svg xmlns="http://www.w3.org/2000/svg" xmlns:xlink="http://www.w3.org/1999/xlink" width="32" height="24" viewBox="0 0 32 24"><g fill="none"><path fill="#E31D1C" fill-rule="evenodd" d="M0 0v24h32V0z" clip-rule="evenodd"/><mask id="flagpackKi0" width="32" height="24" x="0" y="0" maskUnits="userSpaceOnUse" style="mask-type:luminance"><path fill="#fff" fill-rule="evenodd" d="M0 0v24h32V0z" clip-rule="evenodd"/></mask><g mask="url(#flagpackKi0)"><path fill="#FFC84A" fill-rule="evenodd" d="m16.01 9.96l.049.006c.057-.196.158-.518.288-.822c.206-.482.8-.752.8-.752s-.293.331-.37.856a8 8 0 0 0-.07.853l.041.013c.104-.177.277-.459.473-.717c.316-.418.958-.537.958-.537s-.365.25-.567.741a8 8 0 0 0-.265.78l.061.037a8 8 0 0 1 .601-.571c.402-.336 1.055-.307 1.055-.307s-.412.161-.72.594c-.168.238-.317.49-.416.67l.065.06c.172-.112.422-.267.68-.398c.467-.237 1.097-.062 1.097-.062s-.439.065-.835.418a7 7 0 0 0-.528.527l.055.081c.192-.066.454-.149.718-.209c.51-.117 1.079.205 1.079.205s-.44-.043-.911.204c-.22.115-.432.246-.595.353l.049.127c.195-.02.445-.038.692-.037c.525 0 1.006.442 1.006.442s-.42-.14-.934-.006a7 7 0 0 0-.613.194q.012.078.02.158c.186.025.412.061.631.113c.51.119.88.657.88.657s-.377-.232-.908-.216a7 7 0 0 0-.594.045q-.007.087-.019.172c.166.067.36.151.544.246c.467.239.695.85.695.85s-.31-.315-.828-.429a7 7 0 0 0-.54-.093a3 3 0 0 1-.07.191c.137.097.291.213.437.336c.401.337.486.985.486.985s-.231-.378-.71-.605a7 7 0 0 0-.473-.2q-.06.093-.123.183c.105.12.22.256.325.397c.315.42.252 1.07.252 1.07s-.14-.42-.556-.75a7 7 0 0 0-.393-.286q-.081.08-.168.153c.07.136.144.289.21.444c.204.483-.015 1.099-.015 1.099s-.034-.442-.358-.862a7 7 0 0 0-.296-.355q-.105.062-.214.116c.036.143.071.301.099.46c.09.516-.261 1.067-.261 1.067s.066-.438-.156-.92a7 7 0 0 0-.203-.403a3 3 0 0 1-.241.06c.002.146.001.304-.007.46c-.029.524-.495.982-.495.982s.163-.412.056-.932a7 7 0 0 0-.108-.439a3 3 0 0 1-.241.002a7 7 0 0 1-.12.45c-.154.5-.717.831-.717.831s.258-.36.28-.89c.006-.156.005-.311.001-.454a3 3 0 0 1-.239-.057a6 6 0 0 1-.22.416c-.262.453-.886.65-.886.65s.332-.294.473-.806a7 7 0 0 0 .107-.457a3 3 0 0 1-.211-.11a7 7 0 0 1-.318.368c-.358.382-1.01.433-1.01.433s.39-.21.642-.678a7 7 0 0 0 .218-.445a3 3 0 0 1-.164-.145a7 7 0 0 1-.42.299c-.44.284-1.085.176-1.085.176s.43-.11.787-.502a7 7 0 0 0 .336-.402a3 3 0 0 1-.12-.174a7 7 0 0 1-.505.21c-.493.177-1.097-.073-1.097-.073s.443-.011.88-.313a7 7 0 0 0 .449-.341a3 3 0 0 1-.069-.18a7 7 0 0 1-.575.097c-.52.063-1.052-.317-1.052-.317s.434.089.927-.107c.2-.08.396-.171.558-.253a3 3 0 0 1-.02-.16a7 7 0 0 1-.631-.046c-.52-.065-.944-.562-.944-.562s.4.191.925.12a7 7 0 0 0 .646-.12q.007-.074.017-.147a7 7 0 0 1-.649-.199c-.492-.18-.793-.76-.793-.76s.346.277.875.326c.254.024.51.029.709.027l.042-.117a7 7 0 0 1-.628-.36c-.439-.286-.602-.919-.602-.919s.275.347.78.514c.263.088.536.154.735.197l.048-.074a7 7 0 0 1-.56-.534c-.357-.385-.363-1.038-.363-1.038s.184.403.632.688c.25.159.516.296.7.386l.059-.057a7 7 0 0 1-.448-.678c-.261-.454-.12-1.092-.12-1.092s.088.434.461.812c.221.224.464.428.625.557l.055-.034a8 8 0 0 1-.296-.788c-.152-.502.13-1.092.13-1.092s-.013.443.266.895c.172.28.371.543.499.704l.037-.013a8 8 0 0 1-.1-.863c-.027-.523.389-1.027.389-1.027s-.119.427.042.933c.1.316.232.623.317.809l.049-.006c.01-.203.037-.542.096-.87c.092-.517.61-.914.61-.914s-.211.389-.168.918c.026.33.086.66.126.86" clip-rule="evenodd"/><path fill="#F7FCFF" fill-rule="evenodd" d="m-.792 13.92l2.615-1.061a1.56 1.56 0 0 1 1.188.005l3.63 1.511a1.56 1.56 0 0 0 1.276-.034l2.929-1.405c.42-.202.908-.205 1.331-.01l3.068 1.417a1.56 1.56 0 0 0 1.303.003l3.139-1.431a1.56 1.56 0 0 1 1.303.003l3.099 1.43c.406.188.874.192 1.284.012l3.386-1.491a1.56 1.56 0 0 1 1.158-.04l3.036 1.091v10.014H-.881z" clip-rule="evenodd"/><mask id="flagpackKi1" width="34" height="12" x="-1" y="12" maskUnits="userSpaceOnUse" style="mask-type:luminance"><path fill="#fff" fill-rule="evenodd" d="m-.792 13.92l2.615-1.061a1.56 1.56 0 0 1 1.188.005l3.63 1.511a1.56 1.56 0 0 0 1.276-.034l2.929-1.405c.42-.202.908-.205 1.331-.01l3.068 1.417a1.56 1.56 0 0 0 1.303.003l3.139-1.431a1.56 1.56 0 0 1 1.303.003l3.099 1.43c.406.188.874.192 1.284.012l3.386-1.491a1.56 1.56 0 0 1 1.158-.04l3.036 1.091v10.014H-.881z" clip-rule="evenodd"/></mask><g mask="url(#flagpackKi1)"><path stroke="#015989" stroke-width="2" d="m-.792 16.246l2.615-1.061a1.56 1.56 0 0 1 1.188.005l3.63 1.51c.411.172.875.16 1.276-.033l2.929-1.406c.42-.201.908-.205 1.331-.01l3.068 1.418c.413.19.889.192 1.303.003l3.139-1.431c.414-.19.89-.188 1.303.003l3.099 1.43c.406.188.874.192 1.284.012l3.386-1.492a1.56 1.56 0 0 1 1.158-.04l3.036 1.092M-.792 19.575l2.615-1.061a1.56 1.56 0 0 1 1.188.005l3.63 1.51c.411.172.875.16 1.276-.033l2.929-1.406c.42-.201.908-.205 1.331-.01l3.068 1.418c.413.19.889.192 1.303.003l3.139-1.431c.414-.19.89-.188 1.303.003l3.099 1.43c.406.188.874.192 1.284.012l3.386-1.492a1.56 1.56 0 0 1 1.158-.04l3.036 1.092"/><path fill="#015989" fill-rule="evenodd" d="M-.792 22.227L.3 21.784a5.56 5.56 0 0 1 4.228.019l2.113.88c.411.17.875.158 1.276-.035l1.231-.59a5.56 5.56 0 0 1 4.739-.035l1.358.627c.413.191.889.192 1.303.004l1.469-.67a5.56 5.56 0 0 1 4.639.01l1.433.662c.406.188.874.192 1.284.011l1.924-.847a5.56 5.56 0 0 1 4.123-.144l1.533.551v3.315H-.608z" clip-rule="evenodd"/></g><path fill="#FFC84A" fill-rule="evenodd" d="M9.78 3.418h1.86c.47 0 1.526-.716 2.138-.477s1.64 1.01 1.64 1.01s1.7-1.342 2.714-1.342c1.013 0 2.842-.149 2.842-.149s-.43 1.113-1.636 1.302s-2.65 1.112-2.65 1.112h1.961c.3 0 .69.451.69.451s-.805.547-1.207.547h-.846s-.854.733-1.909.577s-1.902-1.124-1.902-1.124s-.923-.132-.923-.291c0 0-.11-.05-.16-.05c-.29.009-.484.06-.58.05c.53-.208.74-.39.74-.39s.365-.344.644-.344c.28 0 1.21.574 1.21.574l.223-.23l-1.154-.882c-2.353.247-3.695-.344-3.695-.344" clip-rule="evenodd"/></g></g></svg>