<svg xmlns="http://www.w3.org/2000/svg" xmlns:xlink="http://www.w3.org/1999/xlink" width="32" height="24" viewBox="0 0 32 24"><mask id="flagpackNr0" width="32" height="24" x="0" y="0" maskUnits="userSpaceOnUse"><path fill="#fff" fill-rule="evenodd" d="M0 0v24h32V0H0z" clip-rule="evenodd"/></mask><g fill="none" fill-rule="evenodd" clip-rule="evenodd"><path fill="#2E42A5" d="M0 0v24h32V0H0z"/><g mask="url(#flagpackNr0)"><path fill="#FECA00" d="M0 8v4h32V8H0z"/><path fill="#F7FCFF" d="m8.83 19.58l-1.545 2.005l-.072-2.53l-2.428.714l1.43-2.09l-2.385-.85l2.384-.85l-1.43-2.088l2.43.714l.07-2.53L8.83 14.08l1.545-2.006l.071 2.53l2.429-.713l-1.43 2.089l2.385.85l-2.385.85l1.43 2.089l-2.429-.715l-.071 2.53L8.83 19.58z"/></g></g></svg>