<svg xmlns="http://www.w3.org/2000/svg" xmlns:xlink="http://www.w3.org/1999/xlink" width="32" height="24" viewBox="0 0 32 24"><g fill="none"><path fill="#F7FCFF" fill-rule="evenodd" d="M0 0v24h32V0z" clip-rule="evenodd"/><mask id="flagpackSm0" width="32" height="24" x="0" y="0" maskUnits="userSpaceOnUse" style="mask-type:luminance"><path fill="#fff" fill-rule="evenodd" d="M0 0v24h32V0z" clip-rule="evenodd"/></mask><g mask="url(#flagpackSm0)"><path fill="#56C6F5" fill-rule="evenodd" d="M0 12v12h32V12z" clip-rule="evenodd"/><path fill="#006923" fill-rule="evenodd" d="M10.254 9.028a.6.6 0 0 0-.056-.214c-.256-.479-.173-1.078-.173-1.078s-.307.702-.487 1.362c-.19-.307-.255-.616-.255-.616s-.123 1.938.252 2.397c.374.46.623.66.623.66s.029-.804-.08-1.433c.077-.262.146-.55.17-.797a10 10 0 0 0 .341-.266a4 4 0 0 0-.071.581s1.41-1.024 1.446-1.566s.424-1.006.424-1.006s-.32.22-.687.513c.097-.455.396-.813.396-.813s-1.602 1.096-1.733 1.674c-.057.251-.09.454-.11.602m.069 3.33c-.154-.29-.822-1.505-1.289-1.61c-.53-.121-.927-.577-.927-.577s.832 1.754 1.382 1.974c.442.177.732.248.83.268c-.016.237-.019.4-.019.4s.26-.188.658-.627s.377-2.38.377-2.38s-.158.584-.582.924c-.284.228-.39 1.088-.43 1.629m-1.252-.183c.606-.003 1.537 1.481 1.537 1.481s-.36.02-.991-.08c-.63-.1-1.613-1.79-1.613-1.79s.462.393 1.067.39m2.951 3.457s.36-1.891-.18-2.332s-.635-1.1-.635-1.1s-.479 2.098 0 2.64c.48.544.815.792.815.792m-2.176-.51c.352.417 1.474 0 1.474 0s.247.224-.643-.59c-.89-.813-2.7-.299-2.213-.299s1.03.471 1.382.889m.831 2.22c.653.553 2.064-.762 2.064-.762s-.363-.44-1.036-.764s-3.156 0-3.156 0l1.105.492s-1.23.481-.904.454c.327-.027 1.274.027 1.927.58" clip-rule="evenodd"/><path fill="#093" fill-rule="evenodd" d="M19.213 16.196s-.56-.943 0-1.399c.562-.456.784-.152.784-.676s.057-.368.333-.628c.275-.26.08-.892.45-.576c.369.316.438-.29.438.968v-1.848c0-.707-.439-.54-.439-1.014s-.438-1.182 0-1.182c.439 0 .697.527.697.527s.43.734.43 0s-.767-.516-1.127-1.326s-.303.09-.782-.953c-.48-1.044-1.05-1.375-.525-1.375h.858c.45 0 1.146-.374 1.146 0v.789c0 .586.43.586.43.586s.234-1.173.529-.586c.294.586.093 1.54.309 1.54c.215 0 .037-.986.507-.231c.47.754 0 1.265 0 1.556s-.507 1.004-.507 1.004s.099.349.507 0s.795-.697.795-.349c0 .35.796.457 0 1.014c-.795.556-.288 1.113-.795 1.113s-1.105.735-1.345.735s-1.137.563-.688.563c.448 0 .907-1.125 1.217-.563c.309.563.305-.091.56.236s.512 2.1.256 1.388s-.656-.712-1.345-.712c-.688 0-2.026.052-1.576.382s.955-.33 1.146 0s.135.66.43.33c.296-.33.586 0 .838 0c.251 0-.252.37 0 .687c.251.318.812.74.251.74c-.56 0-.849-.448-1.089 0c-.24.449-.25 1.227-.688.614c-.439-.614-1.221-.302-1.221-.614c0-.31.171-.361-.306-.361c-.478 0-.478-.379-.478-.379" clip-rule="evenodd"/><path fill="#C51918" fill-rule="evenodd" d="M21.516 9.45c0 .138-.108.25-.242.25a.246.246 0 0 1-.242-.25c0-.138.109-.25.242-.25c.134 0 .242.112.242.25M10.34 10a.246.246 0 0 0 .242-.25a.246.246 0 0 0-.242-.25a.246.246 0 0 0-.242.25c0 .138.108.25.242.25m.242 1.05c0 .138-.109.25-.242.25a.246.246 0 0 1-.242-.25c0-.138.108-.25.242-.25c.133 0 .242.112.242.25m.145 2.55a.246.246 0 0 0 .242-.25a.246.246 0 0 0-.242-.25a.246.246 0 0 0-.242.25c0 .138.108.25.242.25m1.935 2.5a.246.246 0 0 0 .242-.25a.246.246 0 0 0-.242-.25a.246.246 0 0 0-.242.25c0 .138.109.25.242.25m9.29-3.8a.246.246 0 0 0 .243-.25a.246.246 0 0 0-.242-.25a.246.246 0 0 0-.242.25c0 .138.108.25.242.25m-.532 1.75c0 .138-.108.25-.242.25a.246.246 0 0 1-.241-.25c0-.138.108-.25.241-.25c.134 0 .242.112.242.25m-2.274 2.45a.246.246 0 0 0 .242-.25a.246.246 0 0 0-.242-.25a.246.246 0 0 0-.242.25c0 .138.109.25.242.25M13 16.55c0 .138-.108.25-.242.25a.246.246 0 0 1-.242-.25c0-.138.108-.25.242-.25s.242.112.242.25" clip-rule="evenodd"/><path fill="#FECA00" fill-rule="evenodd" d="M18.038 19.82c0-.205-3.1-2.342-3.933-2.813S9.21 13.942 10.315 10h-.167s-.749 4.857 4.411 7.875c2.35 1.577 2.467 1.945 2.467 1.945s1.012.205 1.012 0" clip-rule="evenodd"/><path fill="#FECA00" fill-rule="evenodd" d="M13.924 19.82c0-.205 3.1-2.342 3.933-2.813s4.896-3.065 3.79-7.007h.167s.749 4.857-4.411 7.875c-2.35 1.577-2.467 1.945-2.467 1.945s-1.012.205-1.012 0" clip-rule="evenodd"/><path fill="#56C6F5" fill-rule="evenodd" d="M16.048 16.886c2.165 0 3.92-2.802 3.92-5.536s-1.755-4.15-3.92-4.15s-3.919 1.416-3.919 4.15s1.755 5.536 3.92 5.536" clip-rule="evenodd"/><path fill="#fff" fill-rule="evenodd" d="M14.313 9.539s.604-.533.302-.533a2 2 0 0 1-.207-.023c-.319-.052-.735-.118-.735.556V10.7h-.09a.1.1 0 0 0 0 .2h.08l-.061 1.127l-.115.01a.11.11 0 0 0-.097.117l.007.084c.005.06.057.103.117.098l.072-.006c-.027.514-.05.963-.05 1.018c0 .135.919.083.919.083s-.029-.542-.06-1.172l.061-.005a.11.11 0 0 0 .098-.117l-.007-.085a.11.11 0 0 0-.117-.097l-.05.004c-.019-.377-.037-.76-.05-1.059h.118a.1.1 0 1 0 0-.2h-.126c-.005-.15-.009-.261-.009-.318z" clip-rule="evenodd"/><path fill="#000" fill-rule="evenodd" d="M13.871 11h.323v.43h-.323zm-.097 1.5h.538v1h-.538z" clip-rule="evenodd"/><path fill="#fff" fill-rule="evenodd" d="M16.346 9.539s.603-.533.301-.533c-.058 0-.13-.011-.206-.023c-.32-.052-.736-.118-.736.556V10.7h-.089a.1.1 0 1 0 0 .2h.078l-.06 1.127l-.114.01a.11.11 0 0 0-.098.117l.007.084c.005.06.058.103.117.098l.072-.006c-.027.514-.05.963-.05 1.018c0 .135.919.083.919.083s-.029-.542-.06-1.172l.061-.005a.107.107 0 0 0 .098-.117l-.007-.085a.11.11 0 0 0-.117-.097l-.05.004c-.018-.377-.037-.76-.05-1.059h.119a.1.1 0 0 0 0-.2h-.126c-.006-.15-.01-.261-.01-.318z" clip-rule="evenodd"/><path fill="#000" fill-rule="evenodd" d="M15.903 11h.323v.43h-.323zm-.096 1.5h.537v1h-.538z" clip-rule="evenodd"/><path fill="#fff" fill-rule="evenodd" d="M18.28 9.539s.604-.533.303-.533a2 2 0 0 1-.207-.023c-.32-.052-.735-.118-.735.556V10.7h-.09a.1.1 0 0 0 0 .2h.079l-.06 1.127l-.115.01a.11.11 0 0 0-.098.117l.008.084c.005.06.057.103.116.098l.073-.006c-.027.514-.05.963-.05 1.018c0 .135.918.083.918.083l-.06-1.172l.062-.005a.107.107 0 0 0 .098-.117l-.008-.085a.11.11 0 0 0-.116-.097l-.05.004l-.05-1.059h.118a.1.1 0 0 0 0-.2h-.126c-.006-.15-.01-.261-.01-.318z" clip-rule="evenodd"/><path fill="#000" fill-rule="evenodd" d="M17.839 11h.322v.43h-.322zm-.097 1.5h.538v1h-.538z" clip-rule="evenodd"/><path fill="#E8AA00" fill-rule="evenodd" d="M18.516 6.4h-5.129v.766l-.034.003s-2.513 1.952-1.816 4.878c.698 2.925 3.468 5.094 3.468 5.094l.14-.505s-2.64-3.589-2.64-5.023s.498-2.78 1.025-2.99c.317-.125.372-.1.458-.06c.058.027.129.06.3.06c.428 0 .856-.306.856-.306s.298.306.575.306s.28-.306.28-.306V7.3h.032v1.017s.004.306.28.306c.277 0 .575-.306.575-.306s.429.306.857.306c.17 0 .242-.033.3-.06c.086-.04.14-.065.458.06c.527.21 1.025 1.556 1.025 2.99s-2.64 5.023-2.64 5.023l.14.505s2.77-2.17 3.468-5.094c.697-2.926-1.816-4.878-1.816-4.878l-.162-.015z" clip-rule="evenodd"/><path fill="#FFD018" d="M13.387 6.4v-.5h-.5v.5zm5.13 0h.5v-.5h-.5zm-5.13.766l.045.498l.455-.041v-.457zm-.034.003l-.045-.498l-.146.013l-.116.09zm-1.816 4.878l-.486.116zm3.468 5.094l-.309.394l.59.462l.2-.723zm.14-.505l.481.134l.065-.234l-.144-.196zM13.53 8.623l-.184-.464zm.458-.06l-.211.453zm1.156-.246l.359-.349l-.3-.308l-.35.25zm.856 0l.5.006v-.006zM16 7.3v-.5h-.5v.5zm.03 0h.5v-.5h-.5zm0 1.017h-.5v.006zm.856 0l.291-.407l-.35-.25l-.3.308zm1.156.246l.212.453zm.459.06l-.185.465zm-1.615 8.013l-.402-.296l-.144.196l.064.234zm.14.505l-.482.134l.2.722l.59-.462zm1.652-9.972l.307-.395l-.116-.09l-.146-.013zm-.162-.015h-.5v.458l.456.04zM13.387 6.9h5.13v-1h-5.13zm.5.266V6.4h-1v.766zm-.49.5l.035-.002l-.09-.996l-.034.003zm-1.373 4.265c-.308-1.291.087-2.372.582-3.153a5.6 5.6 0 0 1 .97-1.144l.082-.069l.002-.002l-.307-.394l-.307-.395l-.002.001l-.003.002a3 3 0 0 0-.125.106a6.6 6.6 0 0 0-1.155 1.36c-.587.927-1.1 2.285-.71 3.92zm2.98 5.21l.31-.393h-.001l-.005-.004l-.02-.016l-.081-.068a12 12 0 0 1-1.295-1.295c-.756-.88-1.566-2.082-1.888-3.434l-.973.232c.375 1.572 1.298 2.917 2.102 3.854a13 13 0 0 0 1.409 1.407l.123.102l.008.006l.002.002h.001zm-.341-.638l-.14.505l.964.267l.14-.505zm-2.658-4.89c0 .476.208 1.056.458 1.599c.26.563.6 1.165.935 1.712a32 32 0 0 0 1.312 1.965l.023.032l.006.008l.002.003l.403-.296l.403-.296l-.001-.002l-.005-.007l-.022-.029l-.081-.113a31 31 0 0 1-1.187-1.787a16 16 0 0 1-.88-1.608c-.245-.533-.366-.94-.366-1.181zm1.34-3.454c-.266.106-.466.324-.611.537a3.5 3.5 0 0 0-.386.797a6.6 6.6 0 0 0-.343 2.12h1c0-.664.116-1.303.286-1.788a2.5 2.5 0 0 1 .27-.567c.097-.143.157-.171.154-.17zm.855-.049c-.06-.028-.192-.091-.388-.078c-.147.01-.302.061-.466.127l.369.93q.104-.042.146-.053c.03-.009.033-.007.018-.006a.2.2 0 0 1-.086-.01l-.028-.009l.012.005zm.088.013l-.069-.004l-.019-.009l-.423.906a1 1 0 0 0 .196.072c.094.024.196.035.315.035zm.856.194l-.29-.407l.001-.001l-.008.005q-.01.008-.038.024a2 2 0 0 1-.148.08a.9.9 0 0 1-.373.105v1c.322 0 .615-.111.804-.202a3 3 0 0 0 .332-.19l.007-.004l.003-.002v-.001h.001zm.575-.194c.02 0 .019.005-.009-.007a.6.6 0 0 1-.095-.055a1 1 0 0 1-.11-.09l-.004-.005v.001h.001v.001l-.358.349l-.358.348v.001h.001l.002.003l.006.005a1 1 0 0 0 .068.064c.042.038.104.09.178.141c.127.09.378.244.678.244zm.28.194l-.5-.007v-.001l.001-.002v-.015l.002-.008s0-.01.008-.024a.23.23 0 0 1 .075-.088a.24.24 0 0 1 .134-.049v1a.76.76 0 0 0 .456-.144a.8.8 0 0 0 .242-.298a.9.9 0 0 0 .082-.34v-.017zM15.5 7.3v1.017h1V7.3zm.532-.5H16v1h.03zm-.5.5v1.017h1V7.3zm.5 1.017l-.5.007v.007l.002.037a.9.9 0 0 0 .08.313a.8.8 0 0 0 .243.298c.13.096.288.144.455.144v-1c.03 0 .083.01.135.049a.23.23 0 0 1 .075.088q.01.023.008.024l.001.008v.018zm.28.806c.3 0 .552-.154.68-.244a2 2 0 0 0 .245-.205l.005-.005l.002-.002l.001-.001l-.358-.35l-.358-.348l.002-.001l-.004.003a1 1 0 0 1-.11.091a.6.6 0 0 1-.095.055c-.028.012-.03.007-.01.007zm.575-.806l-.29.407h.001l.003.003l.007.004l.02.015l.072.045c.058.036.14.083.24.13c.189.09.482.202.804.202v-1a.9.9 0 0 1-.374-.104a2 2 0 0 1-.186-.105l-.007-.005l.001.001zm.857.806c.118 0 .22-.011.314-.035a1 1 0 0 0 .197-.072l-.423-.906l-.02.01l.001-.001h.001l-.015.002l-.055.002zm.51-.107l.013-.005a.2.2 0 0 1-.076.018h-.039c-.015 0-.012-.002.018.007c.03.008.076.024.147.052l.37-.93a1.6 1.6 0 0 0-.468-.126c-.196-.013-.328.05-.387.078zm.063.072c-.003-.001.057.027.154.17c.09.132.184.323.27.567c.17.485.286 1.124.286 1.788h1a6.6 6.6 0 0 0-.343-2.12a3.5 3.5 0 0 0-.386-.797c-.145-.213-.345-.431-.612-.537zm.71 2.525c0 .241-.122.648-.367 1.181a16 16 0 0 1-.88 1.607a31 31 0 0 1-1.289 1.93l-.005.007l-.001.002l.402.296l.403.297v-.001l.002-.003l.007-.008l.109-.15c.073-.104.178-.252.303-.434c.251-.364.586-.865.922-1.413c.335-.547.677-1.149.936-1.712c.25-.543.458-1.123.458-1.599zm-2.622 5.157l.14.505l.964-.267l-.14-.505zm.622.371l.308.394l.002-.001l.002-.002l.008-.006a3 3 0 0 0 .123-.102a13 13 0 0 0 1.409-1.408c.804-.936 1.727-2.28 2.102-3.853l-.973-.232c-.322 1.352-1.133 2.555-1.888 3.434a12 12 0 0 1-1.295 1.295l-.102.084l-.004.003zm3.954-4.978c.39-1.635-.123-2.993-.71-3.92a6.6 6.6 0 0 0-1.155-1.36l-.118-.1l-.008-.006l-.002-.002h-.001c-.001 0-.001-.001-.308.394l-.307.394l.002.002a1 1 0 0 1 .082.07a5.6 5.6 0 0 1 .97 1.144c.494.78.89 1.86.582 3.152zM18.723 6.67l-.162-.015l-.09.996l.163.015zm-.707-.271v.754h1V6.4z"/><path fill="#8FC753" fill-rule="evenodd" d="M13.104 13.785s.314-.844.864-.563s.502 1.261 1.002.912c.5-.35.217-.912.958-.912c.742 0 .633.912 1.077.912c.445 0 .483-.912.98-.912c.498 0 1.002.563 1.002.563l-2.942 4.002z" clip-rule="evenodd"/><path fill="#fff" fill-rule="evenodd" d="m7.929 18.457l-.317-.426s1.313 0 1.49.309c.05.087.073.153.09.204c.042.128.05.154.406.154c.496 0 0-.492-.206-.667c-.207-.175-.08-.481.206-.481c.11 0 .303-.025.54-.056c.377-.05.867-.115 1.316-.115c.73 0 .125.652.125.652s.945 0 .71-.271c-.234-.272.788-.602 1.23-.602c.412 0 2.266.093 2.516.105c.26-.012 2.199-.105 2.61-.105c.442 0 1.465.33 1.23.602s.71.271.71.271s-.605-.652.126-.652c.448 0 .938.065 1.316.114c.236.032.429.057.54.057c.286 0 .412.306.206.481c-.207.175-.702.667-.207.667c.356 0 .365-.026.407-.154c.017-.051.039-.117.089-.204c.172-.298 1.398-.309 1.485-.309a.26.26 0 0 1-.03-.123c0-.138.107-.25.241-.25s.242.112.242.25c0 .139-.108.25-.242.25a.24.24 0 0 1-.209-.123l-.313.422l.326.405a.24.24 0 0 1 .196-.104c.134 0 .242.112.242.25c0 .139-.108.25-.242.25a.246.246 0 0 1-.242-.25q0-.042.013-.081c-.185-.09-.504-.229-.712-.229h-.577c.145 0 .945.528.703.756l-.041.04c-.238.225-.548.52-.84.359c-.31-.17-.496-.399-.496-.399l-.242-.756s-1.43-.369-1.43-.113c0 .255-.003.38-.51.38c-.284 0-.558-.048-.8-.09a3 3 0 0 0-.497-.064c-.197 0-.503.061-.729.106a2 2 0 0 1-.278.048c-.108 0-.687-.026-.29-.267c.396-.24.488-.492.488-.492s-1.588.236-2.216.25v.001h-.056c-.623-.015-2.12-.25-2.12-.25s.092.25.489.491c.396.24-.182.267-.29.267c-.04 0-.146-.021-.279-.048c-.226-.045-.531-.106-.729-.106c-.138 0-.307.03-.497.064c-.242.042-.516.09-.8.09c-.506 0-.51-.125-.51-.38c0-.256-1.43.113-1.43.113l-.242.756s-.186.229-.495.399c-.293.16-.603-.134-.84-.36l-.041-.039c-.242-.228.557-.756.703-.756h-.578c-.306 0-.858.304-.858.304zm-.687-.299a.246.246 0 0 0 .242-.25a.246.246 0 0 0-.242-.25a.246.246 0 0 0-.242.25c0 .139.108.25.242.25m0 1.1a.246.246 0 0 0 .242-.25a.246.246 0 0 0-.242-.25a.246.246 0 0 0-.242.25c0 .139.108.25.242.25" clip-rule="evenodd"/><path fill="#FFD018" fill-rule="evenodd" d="M15.894 2.03h.2v.214h.246v.2h-.246v.364a.595.595 0 0 1 .487.592c0 .331-.26.6-.581.6a.59.59 0 0 1-.58-.6c0-.294.204-.539.474-.59v-.366h-.225v-.2h.225z" clip-rule="evenodd"/><path fill="#E31D1C" fill-rule="evenodd" d="M13.747 5.226c-.28 0-.87.3-.87.3l.458 1.017l2.77-.104l2.768.104l.459-1.018s-.59-.3-.87-.3c-.123 0-.139-.072-.157-.153c-.022-.103-.047-.221-.303-.221c-.182 0-.31.03-.413.054c-.158.037-.26.06-.405-.054l-.019-.015c-.236-.186-.481-.38-.878-.38c-.08 0-.139.075-.183.195c-.044-.12-.103-.195-.182-.195c-.397 0-.643.194-.88.38l-.017.015c-.146.115-.248.091-.405.054a1.7 1.7 0 0 0-.413-.054c-.256 0-.282.118-.304.221c-.018.081-.033.154-.156.154" clip-rule="evenodd"/><path fill="#FFD018" fill-rule="evenodd" d="m15.608 3.568l-.194.068q-.77.267-1.334.179c-.774-.12-1.783.283-1.656.872c.055.259.217.747.385 1.16c.233.574.397.863.588.863l.398.02c.281.014.529.022.767.02c.69-.002 1.116-.07 1.269-.277l.045-.06l-.021-.074q-.272-.934-.25-2.559zm-2.9 1.055c-.063-.29.726-.604 1.329-.511q.562.086 1.276-.13q-.004 1.444.237 2.348c-.138.072-.5.119-.99.12a12 12 0 0 1-.75-.02l-.384-.02l-.011-.012a1 1 0 0 1-.095-.143a5 5 0 0 1-.243-.524a8 8 0 0 1-.37-1.108m3.748-1.055l.194.068q.77.267 1.334.179c.773-.12 1.783.283 1.656.872a8.5 8.5 0 0 1-.385 1.16c-.234.574-.397.863-.588.863c-.025 0-.284.014-.37.019l-.028.001c-.281.014-.529.022-.767.02c-.69-.002-1.117-.07-1.27-.277l-.044-.06l.021-.074q.272-.934.25-2.559zm2.9 1.055c.063-.29-.727-.604-1.33-.511q-.562.086-1.275-.13q.004 1.444-.237 2.348c.138.072.5.119.989.12c.232.002.475-.005.752-.02l.383-.02l.011-.012a1 1 0 0 0 .095-.143c.072-.128.156-.31.243-.524c.162-.399.319-.87.37-1.108" clip-rule="evenodd"/><path fill="#5E5E5E" fill-rule="evenodd" d="M12.837 6.471c0-.055-.032-.156-.102-.342c-.096-.256-.162-.334-.302-.42c-.07-.043-.099-.08-.132-.21a2 2 0 0 0-.118-.332l-.03-.068a.5.5 0 0 1-.03-.18c0-.09.023-.162.085-.292a2 2 0 0 0 .054-.12a.5.5 0 0 0 .04-.183v-.385c0-.225.01-.24.12-.224l.033.005l.067.012a.13.13 0 0 0 .07-.009c.039-.018.068-.053.138-.157c.033-.049.068-.044.193.017l.04.019c.128.059.217.06.293-.032c.117-.142.193-.133.335.004c.07.068.104.094.15.1h.003c.047.008.05.008.182-.073c.01.019.029.026.06.033c.043.01.106.014.148.007c.035-.006.06-.016.077-.05q.084-.003.199-.003v-.1q-.147 0-.246.004l-.018-.016c-.037-.032-.093-.082-.12-.074l-.029.023c-.023.02-.056.05-.087.07c-.132.08-.137.083-.156.08c-.018-.002-.042-.02-.097-.074c-.177-.172-.317-.188-.475.004c-.04.05-.086.048-.18.005l-.038-.018c-.167-.081-.241-.091-.314.017c-.057.086-.082.116-.097.123h-.003v.001c-.004.002-.009.001-.052-.007l-.026-.004l-.037-.006c-.183-.025-.23.046-.23.323v.385q0 .063-.032.144c-.012.03-.017.04-.052.115c-.068.143-.095.226-.095.335c0 .091.011.153.038.22l.034.076l.03.067c.029.07.054.146.08.244c.04.155.083.214.176.27c.121.075.173.135.26.37a3 3 0 0 1 .095.29c-.014.01-.012.019-.008.04l.006.013l.002.003l.012.012l.01.006l-.006-.002l.023.03c.095.123.215.123.329.003l-.07-.07c-.074.079-.126.079-.183.004zm1.162-2.937h-.002zm5.116 2.937c0-.055.032-.156.102-.342c.096-.256.162-.334.302-.42c.07-.043.098-.08.132-.21a2 2 0 0 1 .148-.4a.5.5 0 0 0 .03-.18c0-.09-.023-.162-.085-.292a2 2 0 0 1-.055-.12a.5.5 0 0 1-.04-.183v-.385c0-.225-.009-.24-.12-.224l-.032.005l-.067.012a.13.13 0 0 1-.07-.009c-.04-.018-.068-.053-.138-.157c-.033-.049-.068-.044-.193.017l-.04.019c-.129.059-.218.06-.293-.032c-.117-.142-.194-.133-.335.004c-.07.068-.105.094-.15.1h-.003c-.047.008-.05.008-.182-.073c-.01.019-.029.026-.06.033a.5.5 0 0 1-.149.007c-.035-.006-.06-.016-.076-.05l-.199-.003v-.1q.147 0 .246.004l.018-.016c.037-.032.093-.082.12-.074q.006.002.029.023c.022.02.053.048.084.067l.003.003c.132.08.137.083.156.08c.017-.002.042-.02.097-.074c.177-.172.317-.188.475.004c.04.05.086.048.18.005l.037-.018c.168-.081.242-.091.315.017c.057.086.082.116.097.123h.002l.002.001c.003.002.008.001.05-.007l.027-.004l.037-.006c.183-.025.229.046.229.323v.385q0 .063.033.144c.012.03.016.04.052.115c.068.143.095.226.095.335a.6.6 0 0 1-.038.22l-.064.143a2 2 0 0 0-.08.244c-.04.155-.083.214-.176.27c-.122.075-.173.135-.261.37a3 3 0 0 0-.094.29c.014.01.012.019.008.04l-.006.013l-.002.003c-.006.007-.006.007-.013.012l-.008.006q.003 0 .005-.002l-.024.03c-.095.123-.214.123-.328.003l.07-.07c.074.079.125.079.182.004z" clip-rule="evenodd"/><path fill="#272727" d="m13.774 17.885l.06-.496q1.612.197 2.154.197q.818.037 1.949-.119l.068.495c-.781.108-1.46.15-2.028.124c-.377 0-1.108-.067-2.203-.201"/></g></g></svg>