<svg xmlns="http://www.w3.org/2000/svg" xmlns:xlink="http://www.w3.org/1999/xlink" width="32" height="24" viewBox="0 0 32 24"><mask id="flagpackTf0" width="32" height="24" x="0" y="0" maskUnits="userSpaceOnUse"><path fill="#fff" d="M0 0h32v24H0z"/></mask><g fill="none" mask="url(#flagpackTf0)"><path fill="#2E42A5" fill-rule="evenodd" d="M0 0v24h32V0H0z" clip-rule="evenodd"/><mask id="flagpackTf1" width="32" height="24" x="0" y="0" maskUnits="userSpaceOnUse"><path fill="#fff" fill-rule="evenodd" d="M0 0v24h32V0H0z" clip-rule="evenodd"/></mask><g mask="url(#flagpackTf1)"><path fill="#F7FCFF" fill-rule="evenodd" d="M18.789 6.2h8.048l-.784 1.504h-2.442v.808h1.872l-.762 1.4h-1.11v2.797L25.44 9.83l2.364 4.095h-.966l-.337-.449h-2.14l-1.506 2.781v.154l-.041-.077l-.042.077v-.154l-1.504-2.78h-2.14l-.338.448h-.966l2.364-4.095l1.828 2.88V7.703h-2.442L18.789 6.2zm6.697 5.31l-.526.807h.995l-.47-.808zm-5.346 0l.526.807h-.995l.47-.808zm-3.826-.897l.83-.612l.832.612l-.293-1.026l.806-.648l-1.012-.022l-.332-1.014l-.333 1.014l-1.012.022l.807.648l-.293 1.026zm12.141-.612l-.83.612l.293-1.026l-.807-.648l1.012-.022l.332-1.014l.333 1.014l1.012.022l-.807.648l.293 1.026l-.83-.612zm-3.375 7.802l.83-.612l.831.612l-.293-1.026l.807-.648l-1.012-.022l-.332-1.013l-.333 1.013l-1.012.022l.807.648l-.294 1.026zm-5.39-.612l-.831.612l.293-1.026l-.807-.648l1.012-.022l.333-1.013l.332 1.013l1.012.022l-.806.648l.293 1.026l-.831-.612zm2.279 3.009l.831-.613l.831.613l-.293-1.027l.807-.648l-1.012-.022l-.333-1.013l-.332 1.013l-1.013.022l.807.648l-.293 1.027z" clip-rule="evenodd"/><path fill="#2E42A5" stroke="#fff" d="M-.5-.5h13v11h-13z"/><mask id="flagpackTf2" width="14" height="12" x="-1" y="-1" maskUnits="userSpaceOnUse"><path fill="#fff" stroke="#fff" d="M-.5-.5h13v11h-13z"/></mask><g fill-rule="evenodd" clip-rule="evenodd" mask="url(#flagpackTf2)"><path fill="#F50100" d="M8 0h4v10H8V0z"/><path fill="#2E42A5" d="M0 0h4v10H0V0z"/><path fill="#F7FCFF" d="M4 0h4v10H4V0z"/></g></g></g></svg>