<svg xmlns="http://www.w3.org/2000/svg" xmlns:xlink="http://www.w3.org/1999/xlink" width="32" height="24" viewBox="0 0 32 24"><g fill="none"><path fill="#EF0000" fill-rule="evenodd" d="M0 0v24h32V0z" clip-rule="evenodd"/><mask id="flagpackTw0" width="32" height="24" x="0" y="0" maskUnits="userSpaceOnUse" style="mask-type:luminance"><path fill="#fff" fill-rule="evenodd" d="M0 0v24h32V0z" clip-rule="evenodd"/></mask><g fill-rule="evenodd" clip-rule="evenodd" mask="url(#flagpackTw0)"><path fill="#2E42A5" d="M0 0v14h18V0z"/><path fill="#FEFFFF" d="m8.73 10.81l-1.482 1.85l-.359-2.342l-2.207.86l.86-2.208L3.2 8.611L5.048 7.13L3.2 5.648l2.342-.359l-.86-2.207l2.207.86l.359-2.342L8.73 3.448L10.21 1.6l.36 2.342l2.207-.86l-.86 2.207l2.341.359L12.41 7.13l1.848 1.481l-2.341.36l.86 2.207l-2.208-.86l-.359 2.341zm0-.818a2.862 2.862 0 1 0 0-5.725a2.862 2.862 0 0 0 0 5.725m2.29-2.862a2.29 2.29 0 1 1-4.58 0a2.29 2.29 0 0 1 4.58 0"/></g></g></svg>