<svg xmlns="http://www.w3.org/2000/svg" xmlns:xlink="http://www.w3.org/1999/xlink" width="32" height="24" viewBox="0 0 32 24"><mask id="flagpackUy0" width="32" height="24" x="0" y="0" maskUnits="userSpaceOnUse"><path fill="#fff" d="M0 0h32v24H0z"/></mask><g fill="none" mask="url(#flagpackUy0)"><path fill="#F7FCFF" fill-rule="evenodd" d="M0 0v24h32V0H0z" clip-rule="evenodd"/><mask id="flagpackUy1" width="32" height="24" x="0" y="0" maskUnits="userSpaceOnUse"><path fill="#fff" fill-rule="evenodd" d="M0 0v24h32V0H0z" clip-rule="evenodd"/></mask><g mask="url(#flagpackUy1)"><path fill="#2E42A5" d="M0 2h32v3H0zm0 6h32v3H0zm0 6h32v3H0zm0 5h32v3H0z"/><path fill="#F7FCFF" d="M0 0h14v14H0z"/><path fill="#FFC125" fill-rule="evenodd" d="M4.783 2.582a.134.134 0 0 0-.143.123c-.028.353.283.674.455.852l.017.017c.027.029.055.056.09.09l.104.101c.15.148.181.287.218.442l.009.038c.016.066.032.146.05.233c.078.388.188.928.428 1.105c.059.043.47-.214.515-.272a.737.737 0 0 1 .112-.093c.093-.068.2-.148.162-.176c-.251-.185-.442-.632-.69-1.277c-.133-.303-.48-.496-.767-.656c-.246-.136-.449-.25-.438-.386a.13.13 0 0 0-.122-.14zm4.047.1a.134.134 0 0 0-.18-.053c-.312.169-.412.605-.467.846l-.006.023a29.38 29.38 0 0 1-.055.266c-.042.207-.14.31-.251.424l-.027.029a6.815 6.815 0 0 1-.169.168c-.282.277-.675.664-.692.961c-.005.073.435.279.508.284a.75.75 0 0 1 .139.044c.108.04.233.086.236.04c.018-.312.29-.716.694-1.275c.183-.276.156-.672.133-1c-.02-.28-.035-.512.086-.578a.13.13 0 0 0 .05-.18zm2.586 2.349c.07.018.114.09.096.162a.13.13 0 0 1-.16.096c-.133-.034-.279.146-.456.364c-.208.256-.458.564-.78.641c-.677.133-1.15.243-1.376.459c-.034.032-.094-.088-.146-.19a.683.683 0 0 0-.072-.127c-.05-.054-.231-.504-.178-.554c.215-.206.767-.22 1.162-.23c.09-.003.17-.005.238-.01l.04-.001c.159-.01.3-.017.472-.139l.117-.084l.105-.073l.02-.014c.205-.138.575-.389.918-.3zm-9.093.443a.134.134 0 0 0-.015.188c.23.269.678.276.925.28h.152l.144-.001c.21-.002.331.073.467.158l.033.02c.058.036.126.08.2.13c.33.218.79.523 1.084.478c.072-.011.182-.484.172-.556c-.004-.026.005-.083.014-.145c.017-.114.036-.247-.01-.24c-.309.047-.76-.134-1.391-.414c-.308-.12-.69-.012-1.006.078c-.27.077-.494.141-.583.037a.13.13 0 0 0-.186-.013z" clip-rule="evenodd"/><path fill="#984111" d="m4.64 2.705l-.075-.006l.075.006zm.143-.123l-.006.075l.006-.075zm.312.975l.054-.052l-.054.052zm.017.017l.054-.052l-.054.052zm.09.09l-.052.054l.105-.107l-.053.053zm.104.101l-.053.054l.053-.054zm.218.442l-.073.017l.073-.017zm.009.038l-.073.017l.073-.017zm.05.233l-.074.015l.001.005l.073-.02zm0 0l.073-.015l-.001-.004l-.072.02zm.428 1.105l-.044.06l.044-.06zm.515-.272l.06.045l-.06-.045zm.112-.093l-.042-.062l-.003.002l.045.06zm0 0l.042.063l.003-.002l-.045-.06zm.162-.176l-.044.06l.044-.06zm-.69-1.277l.07-.027l-.001-.003l-.07.03zm-.767-.656l-.037.066l.037-.066zm-.438-.386l-.075-.006l.075.006zm3.744-.094l-.036-.066l.036.066zm.18.053l.066-.037l-.065.037zm-.646.793l.073.016l-.073-.016zm-.006.023l.073.017l-.073-.017zm-.026.125l-.074-.015l.147.03l-.073-.015zm-.029.142l.074.015l-.074-.015zm-.251.423l-.054-.052l.054.052zm-.027.029l-.054-.052l.054.052zm-.169.168l-.052-.053l.052.053zm-.692.961l.074.005l-.074-.005zm.508.284l-.005.075l.005-.075zm.139.044l.026-.07l-.026.07zm.236.04l-.075-.005l.075.004zm.694-1.275l.061.044l.002-.002l-.063-.042zm.133-1l.075-.005l-.075.005zm.086-.578l-.036-.066l.036.066zm2.637 2.17l.019-.073l-.019.073zm-.064.258l-.018.073l.018-.073zm-.456.364l-.059-.047l.059.047zm-.78.641l.015.074h.003l-.018-.074zm-1.376.459l-.052-.055l.052.055zm-.146-.19l-.07.027l.003.006l.067-.034zm0 0l.07-.029l-.003-.005l-.067.033zm0 0l.067-.034l-.067.033zm-.072-.127l-.055.05l.055-.05zm-.178-.554l.052.054l-.052-.054zm1.162-.23l.002.074l-.002-.075zm0 0l-.002-.076l.002.075zm.238-.01l-.004-.074l.004.075zm.04-.001l-.005-.075l.004.075zm.472-.139l-.043-.06l.043.06zm.117-.084l-.043-.061l.043.06zm0 0l-.043-.061l.043.06zm.105-.073l.042.062l-.042-.062zm.02-.014l.042.062l-.042-.062zm-8.19.33l.057-.048l-.057.049zm.015-.187l.05.056l-.05-.056zm.91.468l-.001.075l.001-.075zm.024 0l.002-.075l-.002.075zm.128 0v.075l-.001-.15v.075zm.144-.001v.075v-.075zm.467.158l.04-.064l-.04.064zm.033.02l-.039.064l.04-.064zm.2.13l-.041.062l.041-.062zm1.084.478l.012.074l-.012-.074zm.172-.556l.074-.011l-.074.01zm.014-.145l.074.01l-.074-.01zm-.01-.24l-.012-.074l.011.074zm-1.391-.414l.03-.069h-.003l-.027.069zm-1.006.078l.02.072l-.02-.072zm-.583.037l.057-.05l-.057.05zM4.714 2.71a.06.06 0 0 1 .063-.054l.01-.15a.21.21 0 0 0-.222.192l.15.012zm.435.794a2.404 2.404 0 0 1-.294-.35c-.091-.14-.153-.291-.14-.444l-.15-.012c-.016.2.065.386.165.539c.1.153.226.283.311.371l.108-.104zm.017.017l-.017-.017l-.108.104l.017.018l.108-.105zm.088.089a4.177 4.177 0 0 1-.088-.089l-.108.104c.028.03.056.058.092.092l.104-.107zm.104.101a13.713 13.713 0 0 0-.06-.06a7.15 7.15 0 0 1-.043-.042s-.107.002-.106.108l.106-.107c0 .106-.105.107-.105.107v.001l.003.003l.01.009l.03.03l.06.058l.105-.107zm.239.478c-.037-.157-.073-.314-.239-.478l-.105.107c.133.131.162.251.198.405l.146-.034zm.009.038l-.01-.038l-.145.034l.009.038l.146-.034zm.05.235c-.018-.087-.034-.168-.05-.235l-.146.035c.015.064.031.142.049.23l.147-.03zm-.001-.004l-.145.039l.145-.04zm.4 1.063c-.099-.073-.18-.23-.247-.436a5.722 5.722 0 0 1-.152-.623l-.147.03c.04.193.087.43.156.64c.068.206.16.407.302.51l.089-.12zm.41-.256l-.019.017a2.208 2.208 0 0 1-.21.137c-.056.032-.11.06-.154.077a.265.265 0 0 1-.047.015h-.003c.002 0 .012.002.024.01l-.09.121a.12.12 0 0 0 .054.02c.015 0 .03-.001.041-.003a.407.407 0 0 0 .077-.024a1.32 1.32 0 0 0 .173-.086a2.359 2.359 0 0 0 .23-.15a.27.27 0 0 0 .045-.044l-.12-.09zm.128-.108l-.071.054a.335.335 0 0 0-.056.054l.12.09l.008-.008a2.503 2.503 0 0 1 .09-.07l-.09-.12zm.003-.002l.084.125l-.084-.125zm.16-.054a.057.057 0 0 1-.023-.04c-.001-.014.003-.024.004-.024c0 0-.005.007-.02.022a1.47 1.47 0 0 1-.124.098l.09.12c.045-.033.099-.073.137-.109a.245.245 0 0 0 .051-.064a.106.106 0 0 0 .011-.058a.093.093 0 0 0-.037-.066l-.09.121zm-.716-1.31c.124.322.235.599.347.818c.112.218.229.39.369.492l.089-.12c-.112-.083-.216-.228-.324-.44a8.814 8.814 0 0 1-.341-.804l-.14.054zm-.734-.617c.145.08.299.166.433.268a.927.927 0 0 1 .302.352l.138-.06a1.075 1.075 0 0 0-.349-.411c-.144-.11-.308-.2-.45-.28l-.074.13zm-.476-.458c-.008.11.07.194.152.258c.085.067.203.133.324.2l.073-.131a2.556 2.556 0 0 1-.305-.187c-.078-.06-.096-.101-.094-.128l-.15-.012zm-.053-.06c.033.002.056.03.053.06l.15.012a.206.206 0 0 0-.192-.222l-.01.15zm3.908.038a.06.06 0 0 1 .08.023l.13-.073a.21.21 0 0 0-.282-.082l.072.132zm-.43.796c.029-.12.066-.283.134-.436c.067-.153.161-.287.296-.36l-.072-.132c-.176.096-.288.264-.362.431a2.512 2.512 0 0 0-.141.464l.146.033zm-.005.024l.006-.024l-.146-.033l-.006.024l.146.033zm-.026.123a4.18 4.18 0 0 1 .026-.123l-.146-.033l-.027.126l.147.03zm-.028.142l.017-.083l.008-.042a20.265 20.265 0 0 0 .003-.016v-.001s-.059-.089-.147-.03l.147.03c-.088.058-.147-.03-.147-.03v.005l-.003.013l-.009.042l-.016.082l.147.03zm-.271.46c.112-.116.224-.232.27-.46l-.146-.03c-.038.183-.123.272-.232.386l.108.104zm-.027.029l.027-.029l-.108-.103l-.027.028l.108.104zm-.17.17c.063-.062.122-.12.17-.17l-.109-.104c-.045.048-.102.104-.166.167l.105.107zm-.67.912c.006-.123.095-.278.23-.446c.133-.164.298-.327.44-.466l-.105-.107c-.14.138-.313.307-.452.48c-.136.168-.253.356-.263.53l.15.009zm.438.204c.001 0-.006 0-.025-.007a2.211 2.211 0 0 1-.23-.101a1.317 1.317 0 0 1-.148-.088a.265.265 0 0 1-.038-.031l-.002-.003c0 .002.005.011.004.026l-.15-.009a.103.103 0 0 0 .014.055a.165.165 0 0 0 .024.033a.405.405 0 0 0 .062.052c.045.032.106.067.166.098a2.358 2.358 0 0 0 .251.11a.28.28 0 0 0 .062.015l.01-.15zm.16.048l-.085-.03a.336.336 0 0 0-.075-.018l-.01.15l.01.002a2.504 2.504 0 0 1 .107.037l.053-.14zm.135.106a.053.053 0 0 1 .022-.04a.045.045 0 0 1 .022-.01s-.009 0-.03-.006a1.47 1.47 0 0 1-.15-.05l-.052.14c.053.02.116.044.167.056a.245.245 0 0 0 .082.008a.106.106 0 0 0 .055-.022a.093.093 0 0 0 .034-.067l-.15-.01zM8.5 4.395c-.203.28-.374.523-.497.737c-.122.212-.202.403-.212.577l.15.009c.008-.138.073-.304.192-.511c.119-.206.285-.444.488-.724L8.5 4.395zm.118-.951c.012.165.023.34.01.509a.927.927 0 0 1-.13.445l.125.083c.101-.154.142-.336.155-.517c.014-.18.001-.367-.01-.53l-.15.01zm.125-.649c-.097.053-.125.164-.134.268c-.01.108 0 .243.01.38l.149-.01a2.554 2.554 0 0 1-.01-.357c.009-.099.033-.136.057-.15l-.072-.131zm.021-.077a.056.056 0 0 1-.021.077l.072.132a.206.206 0 0 0 .08-.282l-.13.073zm2.82 2.493a.21.21 0 0 0-.15-.253l-.037.145c.03.008.05.04.042.072l.146.036zm-.25.15a.206.206 0 0 0 .25-.15l-.145-.036a.056.056 0 0 1-.068.041l-.037.146zm-.38.34c.09-.112.167-.206.237-.27c.073-.065.116-.076.143-.07l.037-.145c-.107-.027-.203.035-.28.104a2.594 2.594 0 0 0-.253.286l.116.094zm-.82.666c.178-.043.332-.149.466-.271c.133-.123.25-.269.354-.396l-.117-.094a3.602 3.602 0 0 1-.339.38a.927.927 0 0 1-.4.235l.036.146zm-1.342.44c.1-.096.26-.173.489-.243c.227-.07.51-.13.85-.196l-.029-.147c-.338.066-.63.127-.865.2c-.235.072-.423.157-.55.277l.105.109zm-.265-.211c.025.05.055.11.084.154c.014.02.032.045.054.061c.012.009.03.02.055.022a.093.093 0 0 0 .072-.026l-.104-.109a.057.057 0 0 1 .043-.015c.015.001.023.007.023.008c0 0-.006-.006-.018-.024a1.474 1.474 0 0 1-.075-.139l-.134.068zm-.003-.006l.14-.056l-.14.056zm.003.006l.134-.067l-.134.067zm-.06-.11l.007.01a2.488 2.488 0 0 1 .053.1l.134-.068l-.041-.08a.335.335 0 0 0-.043-.064l-.11.103zm-.175-.659a.103.103 0 0 0-.028.05a.165.165 0 0 0-.005.04a.38.38 0 0 0 .01.08c.011.055.032.121.055.186a2.359 2.359 0 0 0 .108.252c.01.017.022.038.035.052l.11-.103a.966.966 0 0 1-.043-.082a2.209 2.209 0 0 1-.069-.17a1.317 1.317 0 0 1-.05-.165a.265.265 0 0 1-.006-.05v-.003a.048.048 0 0 1-.013.022l-.104-.109zm1.212-.25c-.197.004-.438.01-.657.042c-.215.03-.429.088-.555.208l.104.109c.089-.085.258-.138.472-.169c.21-.03.441-.036.64-.04l-.004-.15zm0 0l.005.15l-.006-.15zm.236-.009a7.469 7.469 0 0 1-.236.008l.004.15c.089-.002.171-.004.24-.008l-.008-.15zm.039-.002l-.04.002l.01.15l.038-.003l-.008-.15zm.434-.125c-.153.108-.276.116-.434.125l.008.15c.161-.01.322-.018.512-.152l-.086-.123zm.117-.084l-.117.084l.086.123l.118-.085l-.088-.122zm0 0l.087.122l-.087-.122zm.106-.074a4.46 4.46 0 0 0-.106.074l.087.122l.103-.072l-.084-.124zm.02-.014l-.02.014l.084.124l.02-.014l-.084-.124zm.979-.311c-.195-.05-.391-.003-.56.069c-.168.072-.317.173-.419.242l.084.124a2.32 2.32 0 0 1 .395-.228c.154-.066.314-.1.462-.062l.038-.145zm-9.07.655a.06.06 0 0 1 .007-.083l-.099-.113a.21.21 0 0 0-.022.293l.114-.097zm.87.254a2.404 2.404 0 0 1-.455-.04c-.164-.034-.315-.098-.415-.214l-.114.097c.131.153.32.227.498.265c.18.037.36.04.483.042l.002-.15zm.024 0h-.025l-.002.15h.024l.003-.15zm.125 0h-.125l-.003.15h.13l-.002-.15zm.145-.001h-.085l-.042.001h-.018s-.074.076.001.15l-.001-.15c.076.074.002.15.002.15h.06l.084-.001l-.001-.15zm.506.169c-.136-.085-.273-.17-.506-.17v.15c.188 0 .293.064.427.147l.08-.127zm.034.02l-.034-.02l-.079.127l.034.021l.079-.128zm.202.131a6.81 6.81 0 0 0-.202-.13l-.079.127c.056.035.123.079.198.128l.083-.125zm1.03.467c-.12.018-.29-.036-.483-.133a5.722 5.722 0 0 1-.547-.334l-.083.125c.164.109.365.242.563.342c.193.099.4.174.574.148l-.023-.148zm.11-.472l-.002.026a2.21 2.21 0 0 1-.051.245a1.317 1.317 0 0 1-.055.164a.265.265 0 0 1-.023.044l-.002.003a.048.048 0 0 1 .024-.01l.023.148a.103.103 0 0 0 .051-.025c.011-.01.02-.02.027-.03a.407.407 0 0 0 .038-.07a2.359 2.359 0 0 0 .117-.452a.271.271 0 0 0 .001-.064l-.148.021zm.014-.166c-.005.03-.01.062-.012.089a.335.335 0 0 0-.002.077l.148-.021v-.011l.003-.029c.002-.023.006-.052.011-.083l-.148-.022zM5.5 5.86a.057.057 0 0 1-.044-.012c-.012-.01-.015-.019-.015-.02a1.471 1.471 0 0 1-.016.186l.148.023c.008-.056.018-.122.02-.175c0-.024 0-.055-.01-.081a.106.106 0 0 0-.033-.05a.093.093 0 0 0-.073-.019l.023.148zm-1.432-.42c.315.14.589.257.823.333c.233.076.437.114.609.087l-.023-.148c-.136.02-.312-.008-.54-.082a8.813 8.813 0 0 1-.809-.327l-.06.137zm-.956.082c.16-.045.329-.093.496-.116a.927.927 0 0 1 .463.036l.054-.14a1.075 1.075 0 0 0-.537-.044c-.18.024-.36.075-.517.12l.041.144zm-.66.013c.071.084.186.089.29.076c.107-.013.237-.05.37-.089l-.04-.144c-.138.04-.255.073-.349.084c-.098.012-.14-.003-.157-.024l-.114.097zm-.08-.005a.056.056 0 0 1 .08.005l.114-.097a.206.206 0 0 0-.293-.02l.1.112z"/><path fill="#FFC125" fill-rule="evenodd" d="M4.756 11.245a.134.134 0 0 1-.143-.122c-.028-.353.283-.674.455-.852l.017-.018a4.427 4.427 0 0 1 .194-.19c.15-.148.182-.287.218-.442l.009-.039a7.52 7.52 0 0 0 .05-.232c.078-.388.188-.929.428-1.105c.059-.043.47.213.515.272a.8.8 0 0 0 .112.092c.093.07.2.15.162.177c-.251.185-.442.632-.69 1.276c-.132.304-.48.496-.767.656c-.246.137-.449.25-.438.387a.13.13 0 0 1-.122.14zm4.047-.099a.134.134 0 0 1-.18.053c-.312-.17-.412-.605-.467-.846l-.006-.024a4.32 4.32 0 0 1-.026-.124l-.028-.142c-.043-.206-.141-.309-.252-.424l-.027-.028c-.047-.05-.106-.107-.17-.17c-.287-.282-.691-.679-.691-.96c0-.127.435-.278.508-.283a.737.737 0 0 0 .139-.044c.108-.04.234-.087.236-.04c.018.312.29.716.695 1.274c.182.277.155.672.132 1.001c-.02.28-.035.512.086.578a.13.13 0 0 1 .05.179zm2.586-2.349a.134.134 0 0 0 .096-.162a.13.13 0 0 0-.16-.096c-.133.034-.279-.146-.456-.364c-.208-.256-.458-.564-.78-.642c-.677-.132-1.15-.242-1.376-.458c-.034-.032-.094.087-.146.19a.683.683 0 0 1-.072.127c-.05.054-.23.504-.178.554c.215.206.767.22 1.162.23c.09.003.17.005.238.009l.04.002c.159.009.3.017.472.138l.118.085l.104.073l.02.013c.205.139.575.39.918.301zm-9.093-.443a.134.134 0 0 1-.014-.188c.23-.269.677-.276.924-.28h.152l.144.001c.21.001.331-.074.467-.158l.033-.02c.058-.036.126-.08.2-.13c.33-.218.79-.523 1.084-.478c.072.011.182.484.172.556a.736.736 0 0 0 .014.145c.017.114.036.247-.01.24c-.309-.048-.76.134-1.39.414c-.309.12-.69.012-1.007-.079c-.27-.077-.494-.14-.583-.036a.13.13 0 0 1-.186.013z" clip-rule="evenodd"/><path fill="#984111" d="m4.613 11.123l-.075.006l.075-.006zm.143.122l-.005-.074l.005.074zm.312-.974l.054.052l-.054-.052zm.017-.018l.054.052l-.054-.052zm.09-.09l-.052-.053l.105.107l-.053-.054zm.104-.1l-.053-.054l.053.053zm.218-.442l-.073-.017l.073.017zm.009-.039l-.073-.017l.073.017zm.05-.232l-.074-.015l.001-.005l.073.02zm0 0l.073.014v.005l-.073-.02zm.428-1.105l-.044-.06l.044.06zm.515.272l.06-.045l-.06.045zm.112.092l-.042.063l-.003-.003l.045-.06zm0 0l.042-.062l.003.002l-.045.06zm.162.177l-.044-.06l.044.06zm-.69 1.276l.07.027l-.001.003l-.069-.03zm-.767.656l-.036-.065l.036.065zm-.438.387l-.075.006l.075-.006zm3.744.094l-.036.066l.036-.066zm.18-.053l.066.036l-.065-.036zm-.646-.793l.073-.017l-.073.017zm-.006-.024l.073-.017l-.073.017zm-.026-.124l-.074.015l.147-.03l-.073.015zm-.028-.142l.073-.015l-.073.015zm-.252-.424l-.054.052l.054-.052zm-.027-.028l-.054.052l.054-.052zm-.17-.17l-.053.053l.052-.054zm0 0l.052-.055l-.053.054zm0 0l-.053.053l.052-.054zm-.183-1.243l-.005-.075l.005.075zm.139-.044l.026.07l-.026-.07zm.236-.04l-.075.005l.075-.005zm.695 1.274l.06-.044l.002.003l-.062.041zm.132 1.001l.075.005l-.075-.005zm.086.578l-.036.066l.036-.066zm2.637-2.17l.019.073l-.019-.073zm-.063-.258l-.02-.073l.02.073zm-.457-.364l-.058.047l.058-.047zm-.78-.642l.015-.073h.003l-.018.073zm-1.376-.458l-.052.054l.052-.054zm-.146.19l-.07-.027l.003-.006l.067.034zm0 0l.07.029l-.003.005l-.067-.033zm0 0l.067.034l-.067-.033zm-.072.127l-.054-.051l.054.051zm-.178.554l.052-.054l-.052.054zm1.162.23l.002-.075h.001l-.003.075zm0 0l-.002.075l.002-.075zm.238.009l-.004.075l.004-.075zm.04.002l-.005.075l.004-.075zm.472.138l-.043.062l.043-.062zm.118.085l-.044.06l.044-.06zm0 0l-.044.06l.044-.06zm.104.073l.042-.062l-.042.062zm.02.013l.042-.062l-.042.062zm-8.19-.33l.058.049l-.057-.049zm.015.188l.05-.057l-.05.057zm.91-.468l-.001-.075l.001.075zm.025 0v.074v-.075zm.127 0V7.81l-.001.15v-.075zm.144.001v-.075v.075zm.467-.158l.04.064l-.04-.064zm.033-.02l-.039-.064l.04.064zm.2-.13l-.041-.063l.041.063zM5.286 7.1l.012-.074l-.012.074zm.172.556l.074.01l-.074-.01zm.014.145l.074-.011l-.074.01zm-.01.24l-.012.074l.012-.074zm-1.39.414l.03.068l-.004.002l-.027-.07zm-1.007-.079l.02-.072l-.02.072zm-.583-.036l.057.049l-.057-.049zm2.206 2.776a.06.06 0 0 0 .063.054l.01.15a.21.21 0 0 1-.223-.192l.15-.012zm.434-.794c-.086.09-.202.21-.294.35c-.091.14-.152.291-.14.444l-.15.012c-.016-.2.065-.386.165-.539c.1-.153.226-.283.311-.371l.108.104zm.017-.018l-.017.018l-.108-.104l.017-.018l.108.104zm.089-.088a4.159 4.159 0 0 0-.089.088l-.108-.104l.092-.091l.105.107zm.104-.101c-.012.01-.038.036-.061.059l-.03.03a.03.03 0 0 0-.01.009l-.003.002v.001s-.106-.001-.106-.107l.106.107c0-.106-.105-.107-.105-.107v-.001l.003-.003l.01-.01l.03-.029l.06-.058l.106.107zm.238-.478c-.037.157-.073.314-.238.478l-.106-.107c.133-.132.162-.252.198-.405l.146.034zm.009-.038l-.009.038l-.146-.035l.009-.038l.146.035zm.05-.236a6.532 6.532 0 0 1-.05.236l-.146-.035c.015-.064.031-.143.05-.23l.146.03zm0 .005l-.146-.039l.145.039zm.4-1.064c-.1.073-.181.231-.248.436c-.066.201-.112.429-.152.623l-.147-.03c.04-.192.087-.429.156-.64c.068-.206.161-.406.302-.51l.089.121zm.41.257l-.02-.017a2.212 2.212 0 0 0-.21-.137a1.318 1.318 0 0 0-.153-.077a.265.265 0 0 0-.048-.015c-.004-.001-.005 0-.003-.001a.048.048 0 0 0 .024-.01l-.09-.12a.103.103 0 0 1 .055-.02a.165.165 0 0 1 .04.003a.395.395 0 0 1 .077.023a2.357 2.357 0 0 1 .403.237a.272.272 0 0 1 .045.044l-.12.09zm.127.107l-.071-.054a.334.334 0 0 1-.056-.053l.12-.09l.008.008a2.48 2.48 0 0 0 .09.07l-.09.12zm.003.003l.084-.125l-.084.125zm.16.054a.057.057 0 0 0-.023.04c-.001.014.004.023.004.024c0 0-.005-.008-.02-.023a1.471 1.471 0 0 0-.124-.098l.09-.12c.045.034.1.074.137.11c.018.017.039.04.051.064a.106.106 0 0 1 .012.058a.093.093 0 0 1-.038.066l-.09-.121zm-.716 1.31a8.94 8.94 0 0 1 .347-.818c.112-.218.229-.39.369-.492l.089.12c-.111.082-.216.227-.324.44a8.78 8.78 0 0 0-.341.803l-.14-.054zm-.733.617a3.61 3.61 0 0 0 .432-.269a.928.928 0 0 0 .302-.352l.138.06a1.075 1.075 0 0 1-.349.412c-.144.11-.307.2-.45.28l-.073-.131zm-.477.458c-.008-.11.07-.195.152-.259c.085-.066.204-.132.325-.2l.072.132c-.124.07-.23.129-.305.187c-.078.06-.096.101-.094.128l-.15.012zm-.052.06a.056.056 0 0 0 .052-.06l.15-.012a.206.206 0 0 1-.192.221l-.01-.15zm3.907-.038a.06.06 0 0 0 .08-.023l.13.072a.21.21 0 0 1-.282.083l.072-.132zm-.429-.797c.028.121.065.284.133.437c.067.153.161.287.296.36l-.072.132c-.176-.096-.288-.264-.361-.432a2.42 2.42 0 0 1-.142-.463l.146-.034zm-.005-.024l.005.024l-.146.034l-.006-.024l.147-.034zm-.027-.122l.027.122l-.147.034a4.269 4.269 0 0 1-.027-.126l.147-.03zm-.028-.142a14.604 14.604 0 0 1 .025.124l.003.013v.004a.036.036 0 0 1 0 .001s-.058.088-.147.03l.147-.03c-.088-.059-.147.03-.147.03v-.006l-.003-.013l-.008-.041a13.454 13.454 0 0 0-.017-.082l.147-.03zm-.27-.46c.11.116.223.231.27.46l-.147.03c-.038-.183-.123-.273-.232-.387l.108-.104zm-.028-.029l.027.028l-.108.104l-.027-.028l.108-.104zM7.7 9.387c.065.063.124.122.172.172l-.108.104c-.046-.048-.104-.105-.169-.17l.105-.106zm0 0l-.105.107l.105-.107zm0 0l-.105.107l.105-.108zm-.67-.907c0 .054.02.119.059.194c.039.075.095.156.162.239c.134.165.303.332.447.473l-.105.107a5.998 5.998 0 0 1-.459-.486a1.642 1.642 0 0 1-.178-.263a.583.583 0 0 1-.076-.264h.15zm.438-.208h-.002l-.006.001a1.611 1.611 0 0 0-.247.088a.786.786 0 0 0-.144.082a.184.184 0 0 0-.035.033c-.007.01-.004.01-.004.004h-.15c0-.037.016-.069.033-.093a.33.33 0 0 1 .065-.064a.93.93 0 0 1 .172-.098a1.5 1.5 0 0 1 .308-.103l.01.15zm.16-.049c-.03.011-.059.022-.085.03a.335.335 0 0 1-.075.019l-.01-.15l.01-.002a2.495 2.495 0 0 0 .107-.037l.053.14zm.135-.105a.058.058 0 0 0 .022.04c.011.01.021.01.022.01c0 0-.009 0-.03.006c-.04.009-.094.029-.15.05l-.051-.141c.052-.02.115-.043.166-.055a.245.245 0 0 1 .082-.008a.106.106 0 0 1 .055.022a.093.093 0 0 1 .034.067l-.15.009zm.709 1.313a8.944 8.944 0 0 1-.497-.736c-.122-.212-.202-.404-.212-.577l.15-.009c.008.138.073.304.192.511c.119.206.286.444.488.723l-.121.088zm.118.952c.012-.165.024-.341.01-.51a.927.927 0 0 0-.13-.444l.125-.083c.101.153.142.336.155.516c.014.181.001.368-.01.531l-.15-.01zm.125.649c-.097-.053-.125-.165-.134-.268c-.01-.108 0-.243.01-.381l.149.01c-.01.143-.018.264-.01.358c.009.099.033.136.057.149l-.072.132zm.021.077a.056.056 0 0 0-.021-.077l.072-.132a.206.206 0 0 1 .08.281l-.13-.072zm2.821-2.493a.21.21 0 0 1-.15.253l-.037-.146a.06.06 0 0 0 .041-.071l.146-.036zm-.251-.15a.206.206 0 0 1 .251.15l-.146.036a.056.056 0 0 0-.068-.042l-.037-.145zm-.38-.34c.09.111.167.206.237.269c.074.066.117.077.143.07l.037.145c-.107.028-.203-.034-.28-.104a2.577 2.577 0 0 1-.253-.285l.116-.095zm-.82-.667c.178.044.333.15.466.272c.133.123.25.268.354.395l-.116.095a3.59 3.59 0 0 0-.34-.38a.928.928 0 0 0-.4-.236l.036-.146zm-1.342-.44c.1.096.26.174.489.244c.227.07.51.13.85.196l-.029.147a8.942 8.942 0 0 1-.865-.2c-.235-.072-.423-.157-.549-.278l.104-.108zm-.265.212c.025-.05.055-.11.084-.154a.245.245 0 0 1 .055-.062a.106.106 0 0 1 .055-.021a.093.093 0 0 1 .07.026l-.103.108c.01.01.025.017.043.016a.04.04 0 0 0 .023-.008s-.006.006-.018.024a1.472 1.472 0 0 0-.075.138L8.5 7.232zm-.003.006l.14.055l-.14-.055zm.003-.006l.134.067l-.134-.067zm-.06.109l.007-.01a2.536 2.536 0 0 0 .053-.1l.134.068l-.041.08a.335.335 0 0 1-.043.064l-.11-.102zM8.266 8a.103.103 0 0 1-.028-.05a.165.165 0 0 1-.005-.04c0-.026.004-.053.01-.08a1.46 1.46 0 0 1 .055-.186a2.36 2.36 0 0 1 .108-.252a.272.272 0 0 1 .036-.052l.11.102s-.005.005-.014.022a2.205 2.205 0 0 0-.099.23a1.25 1.25 0 0 0-.049.166a.266.266 0 0 0-.007.05v.003a.047.047 0 0 0-.013-.022L8.265 8zm1.212.25c-.197-.005-.438-.01-.657-.042c-.215-.03-.429-.088-.555-.209l.104-.108c.089.085.259.138.472.168c.21.03.442.036.64.041l-.004.15zm0 0l.005-.15l-.006.15zm.236.009a7.439 7.439 0 0 0-.236-.009l.004-.15c.089.003.171.005.24.009l-.008.15zm.04.002l-.04-.002l.008-.15l.04.002l-.009.15zm.433.125c-.153-.109-.276-.116-.434-.125l.008-.15c.161.01.322.017.513.152l-.087.123zm.117.084a28.055 28.055 0 0 0-.117-.084l.087-.123l.117.085l-.087.122zm0 0l.087-.122l-.087.122zm.106.074a4.258 4.258 0 0 1-.106-.074l.087-.122l.103.072l-.084.124zm.02.014l-.02-.014l.084-.124l.02.013l-.084.125zm.979.31c-.194.05-.391.004-.56-.068c-.168-.072-.317-.174-.419-.242l.084-.125c.103.07.241.163.395.229c.154.066.314.1.463.061l.037.146zm-9.07-.654a.06.06 0 0 0 .007.082l-.098.113a.21.21 0 0 1-.022-.293l.114.098zm.87-.254a2.404 2.404 0 0 0-.457.04c-.164.034-.315.098-.414.215l-.114-.098c.13-.152.318-.226.497-.264c.18-.038.36-.04.483-.042l.002.15zm.024 0h-.025l-.002-.15h.024l.003.15zm.125 0h-.125l-.003-.15h.13l-.002.15zm.145.001h-.085l-.042-.001h-.018s-.074-.077.001-.15l-.001.15c.076-.075.002-.15.002-.15h.005a9.283 9.283 0 0 0 .139.001l-.001.15zm.507-.17c-.137.086-.274.171-.507.17v-.15c.188.001.293-.063.428-.147l.079.128zm.033-.02l-.033.02l-.08-.127l.034-.02l.079.127zm.202-.13c-.074.048-.143.094-.202.13l-.079-.127c.057-.035.123-.08.198-.129l.083.125zm1.031-.467c-.122-.019-.291.036-.484.133a5.722 5.722 0 0 0-.547.333l-.083-.125c.164-.108.365-.242.563-.342c.193-.098.401-.174.574-.147l-.023.148zm.109.472l-.002-.026a2.206 2.206 0 0 0-.051-.245a1.316 1.316 0 0 0-.055-.164a.265.265 0 0 0-.023-.044l-.002-.003c.002.001.01.008.024.01l.023-.148c.023.003.04.015.051.024c.011.01.02.02.027.031c.014.02.027.045.038.07a2.357 2.357 0 0 1 .117.452c.002.02.004.044.001.064l-.148-.021zm.014.166c-.005-.031-.01-.062-.012-.089a.335.335 0 0 1-.002-.077l.148.02v.012l.003.029c.002.023.006.051.011.083l-.148.022zm.075.154a.057.057 0 0 0-.044.013c-.012.009-.015.019-.015.02c0 0 .002-.01.002-.031a1.472 1.472 0 0 0-.018-.156l.148-.022c.008.055.018.122.02.174c0 .025 0 .056-.01.082a.106.106 0 0 1-.033.05a.093.093 0 0 1-.073.019l.023-.149zm-1.432.42c.315-.14.589-.257.823-.332c.233-.076.437-.114.609-.088l-.023.149c-.136-.021-.312.008-.54.081a8.814 8.814 0 0 0-.808.327l-.061-.137zm-.956-.082c.16.046.329.094.496.116a.927.927 0 0 0 .463-.035l.054.14c-.17.067-.357.068-.537.044c-.18-.024-.36-.076-.517-.12l.041-.145zm-.66-.013c.072-.083.186-.088.29-.075c.108.013.237.05.37.088l-.04.145a2.556 2.556 0 0 0-.349-.084c-.098-.013-.14.003-.157.024l-.114-.098zm-.08.005c.025.022.06.019.08-.005l.114.098a.206.206 0 0 1-.292.02l.098-.113z"/><path fill="#FFC125" fill-rule="evenodd" d="M7 2.06a.256.256 0 0 0-.253.22l-.414 2.937h1.334L7.253 2.28A.256.256 0 0 0 7 2.06zm3.494 1.446a.256.256 0 0 0-.335-.023L7.79 5.268l.943.943l1.785-2.37a.256.256 0 0 0-.023-.335zm1.227 3.24a.256.256 0 0 1 0 .507l-2.938.414V6.333l2.938.414zm-1.227 3.748c.09-.09.1-.233.023-.335L8.732 7.79l-.943.943l2.37 1.785a.256.256 0 0 0 .335-.023zm-3.24 1.227a.256.256 0 0 1-.507 0l-.414-2.938h1.334l-.414 2.938zm-3.748-1.227c.09.09.233.1.335.023l2.37-1.785l-.943-.943l-1.785 2.37a.256.256 0 0 0 .023.335zM2.28 7.254a.256.256 0 0 1 0-.507l2.938-.414v1.334L2.28 7.253zm1.227-3.748c-.09.09-.1.233-.023.335l1.785 2.37l.943-.943l-2.37-1.785a.256.256 0 0 0-.335.023z" clip-rule="evenodd"/><path fill="#984111" d="m6.747 2.28l-.074-.011l.074.01zm-.414 2.937l-.074-.01l-.012.085h.086v-.075zm1.334 0v.075h.086l-.012-.085l-.074.01zM7.253 2.28l.074-.01l-.074.01zm2.906 1.204l-.045-.06l.045.06zM7.79 5.268l-.045-.06l-.069.052l.061.06l.053-.052zm.943.943l-.053.053l.061.06l.052-.068l-.06-.045zm1.785-2.37l-.06-.045l.06.045zm1.204 2.906l-.01.074l.01-.074zm0 .506l.01.074l-.01-.074zm-2.938.414h-.075v.086l.085-.012l-.01-.074zm0-1.334l.01-.074l-.085-.012v.086h.075zm1.734 3.826l.06-.045l-.06.045zm-.023.335l.053.053l-.053-.053zM8.732 7.789l.06-.045l-.052-.069l-.06.061l.052.053zm-.943.943l-.053-.053l-.06.061l.068.052l.045-.06zm2.37 1.785l.045-.06l-.045.06zm-2.906 1.204l-.074-.01l.074.01zm-.506 0l-.074.01l.074-.01zm-.414-2.938v-.075h-.086l.012.085l.074-.01zm1.334 0l.074.01l.012-.085h-.086v.075zM3.84 10.517l-.045-.06l.045.06zm-.335-.023l-.053.053l.053-.053zM6.21 8.732l.045.06l.069-.052l-.061-.06l-.053.052zm-.943-.943l.053-.053l-.061-.06l-.052.068l.06.045zm-1.785 2.37l.06.045l-.06-.045zM2.279 7.253l-.01.074l.01-.074zm0-.506l-.01-.074l.01.074zm2.938-.414h.075v-.086l-.085.012l.01.074zm0 1.334l-.01.074l.085.012v-.086h-.075zM3.483 3.84l.06-.045l-.06.045zm.023-.335l-.053-.053l.053.053zM5.268 6.21l-.06.045l.052.069l.06-.061l-.052-.053zm.943-.943l.053.053l.06-.061l-.068-.052l-.045.06zM3.84 3.483l-.045.06l.045-.06zM6.82 2.29A.18.18 0 0 1 7 2.134v-.15a.33.33 0 0 0-.327.285l.148.02zm-.413 2.938L6.82 2.29l-.148-.021l-.414 2.938l.149.02zm1.259-.086H6.333v.15h1.334v-.15zM7.179 2.29l.413 2.938l.149-.021l-.414-2.938l-.148.02zM7 2.134a.18.18 0 0 1 .179.156l.148-.021A.33.33 0 0 0 7 1.984v.15zm3.204 1.409a.18.18 0 0 1 .237.016l.106-.106a.33.33 0 0 0-.433-.03l.09.12zm-2.37 1.785l2.37-1.785l-.09-.12l-2.37 1.785l.09.12zm.951.83l-.943-.943l-.106.106l.943.943l.106-.106zm1.672-2.362l-1.785 2.37l.12.09l1.785-2.37l-.12-.09zm-.016-.237a.18.18 0 0 1 .016.237l.12.09a.33.33 0 0 0-.03-.433l-.106.106zM12.016 7a.33.33 0 0 0-.285-.327l-.02.148a.18.18 0 0 1 .155.179h.15zm-.285.327A.33.33 0 0 0 12.016 7h-.15a.18.18 0 0 1-.156.179l.021.148zm-2.938.414l2.938-.414l-.02-.148l-2.938.413l.02.149zm-.085-1.408v1.334h.15V6.333h-.15zm3.023.34l-2.938-.414l-.02.149l2.937.413l.021-.148zm-1.274 3.531a.18.18 0 0 1-.016.237l.106.106a.33.33 0 0 0 .03-.433l-.12.09zm-1.785-2.37l1.785 2.37l.12-.09l-1.785-2.37l-.12.09zm-.83.951l.943-.943l-.106-.106l-.943.943l.106.106zm2.362 1.672l-2.37-1.785l-.09.12l2.37 1.785l.09-.12zm.237-.016a.18.18 0 0 1-.237.016l-.09.12a.33.33 0 0 0 .433-.03l-.106-.106zM7 12.016a.33.33 0 0 0 .327-.285l-.148-.02a.18.18 0 0 1-.179.155v.15zm-.327-.285a.33.33 0 0 0 .327.285v-.15a.18.18 0 0 1-.179-.156l-.148.021zm-.414-2.938l.414 2.938l.148-.02l-.413-2.938l-.149.02zm1.408-.085H6.333v.15h1.334v-.15zm-.34 3.023l.414-2.938l-.149-.02l-.413 2.937l.148.021zm-3.531-1.274a.18.18 0 0 1-.237-.016l-.106.106a.33.33 0 0 0 .433.03l-.09-.12zm2.37-1.785l-2.37 1.785l.09.12l2.37-1.785l-.09-.12zm-.951-.83l.943.943l.106-.106l-.943-.943l-.106.106zm-1.672 2.362l1.785-2.37l-.12-.09l-1.785 2.37l.12.09zm.016.237a.18.18 0 0 1-.016-.237l-.12-.09a.33.33 0 0 0 .03.433l.106-.106zM1.984 7a.33.33 0 0 0 .285.327l.02-.148A.18.18 0 0 1 2.135 7h-.15zm.285-.327A.33.33 0 0 0 1.984 7h.15a.18.18 0 0 1 .156-.179l-.021-.148zm2.938-.414l-2.938.414l.02.148l2.939-.413l-.021-.149zm.085 1.408V6.333h-.15v1.334h.15zm-3.023-.34l2.938.414l.02-.149L2.29 7.18l-.021.148zm1.274-3.531a.18.18 0 0 1 .016-.237l-.106-.106a.33.33 0 0 0-.03.433l.12-.09zm1.785 2.37l-1.785-2.37l-.12.09l1.785 2.37l.12-.09zm.83-.951l-.943.943l.106.106l.943-.943l-.106-.106zM3.796 3.543l2.37 1.785l.09-.12l-2.37-1.785l-.09.12zm-.237.016a.18.18 0 0 1 .237-.016l.09-.12a.33.33 0 0 0-.433.03l.106.106z"/><path fill="#FFC125" fill-rule="evenodd" stroke="#984111" stroke-width=".15" d="M7 8.842c1.068 0 1.933-.854 1.933-1.908c0-1.053-.865-1.908-1.933-1.908s-1.933.855-1.933 1.908c0 1.054.865 1.908 1.933 1.908z" clip-rule="evenodd"/><path fill="#984111" d="m6.813 6.437l-.125-.082a.806.806 0 0 0-.186-.093a.275.275 0 0 0-.08-.014c-.119 0-.285.073-.495.223l-.078-.107c.23-.164.42-.248.572-.248c.04 0 .08.007.122.02a.924.924 0 0 1 .217.108l.124.081l.048.027c.16 0 .169.57.056.744a.498.498 0 0 1-.116.124l-.087.064c-.04.03-.052.048-.052.07c0 .003.048.015.155.01a2.42 2.42 0 0 0 .073-.005a1.29 1.29 0 0 1 .11-.006v.131c-.019 0-.029 0-.1.006a2.56 2.56 0 0 1-.077.005c-.187.01-.294-.017-.294-.142c0-.071.035-.12.103-.173c.011-.008.07-.05.086-.063a.37.37 0 0 0 .087-.092c.034-.053.056-.192.053-.34a.919.919 0 0 0-.026-.205a.325.325 0 0 1-.09-.043z"/><path fill="#984111" fill-rule="evenodd" d="m7.352 6.39l-.072.047a.325.325 0 0 1-.09.043a.919.919 0 0 0-.026.205c-.002.148.02.287.054.34a.37.37 0 0 0 .087.092a3.013 3.013 0 0 0 .086.063c.068.053.103.102.103.173c0 .125-.107.151-.295.142a2.558 2.558 0 0 1-.077-.005a1.258 1.258 0 0 0-.1-.006v-.131c.025 0 .035 0 .11.006l.074.005c.107.005.155-.007.155-.01c0-.022-.013-.04-.052-.07l-.026-.02l-.06-.044a.498.498 0 0 1-.117-.124c-.113-.175-.103-.744.056-.744a.546.546 0 0 0 .048-.027a5.509 5.509 0 0 0 .124-.08a.924.924 0 0 1 .217-.109a.408.408 0 0 1 .122-.02c.152 0 .341.084.572.248l-.078.107c-.21-.15-.377-.223-.494-.223a.275.275 0 0 0-.082.014a.806.806 0 0 0-.185.093l-.054.035zm-.157.08l-.002.004l.001-.003z" clip-rule="evenodd"/><path fill="#984111" d="m6.665 7.723l.034.067l-.034-.067zm.677.001l.039-.064l-.039.064zm.069.041l.061.043l.046-.066l-.069-.041l-.038.064zm-.046.066l-.062-.043l.062.043zm-.723.008l.057-.05l-.057.05zm-.063-.073l-.033-.067l-.086.043l.062.072l.057-.048zm.252.051l-.023-.071l-.13.04l.104.088l.049-.057zm.354-.001l.054.052l.082-.085l-.111-.038l-.025.07zm-.574-.043l-.039-.064l-.07.043l.05.066l.06-.045zm.771 0l.064.039l.036-.058l-.055-.041l-.045.06zm-.858-.122l.039.064l-.04-.064zm.957.008l-.046.06l.046-.06zm.046.036l.046-.06l-.046.06zm.052.04l.065.039l.034-.057l-.053-.04l-.046.059zm-.034.058l-.064-.039l.064.039zm-.03.05l.065.038l-.064-.039zm-1.03.011l-.06.045l.06-.045zm-.043-.057l.06-.045l-.06.045zm-.049-.066l-.04-.063l-.069.043l.049.065l.06-.045zm.07-.043l-.04-.063l.04.063zm.553-.124a.85.85 0 0 0-.384.092l.067.134a.7.7 0 0 1 .317-.076v-.15zm.365.096a.696.696 0 0 0-.365-.096v.15c.11 0 .205.025.287.074l.078-.128zm.068.041l-.068-.041l-.078.128l.07.042l.076-.129zm-.022.173l.045-.066l-.123-.085l-.046.065l.124.086zm-.411.25c.172 0 .307-.101.41-.25l-.123-.086c-.087.126-.183.186-.287.186v.15zm-.431-.237c.12.141.264.237.43.237v-.15c-.104 0-.21-.06-.316-.184l-.114.097zm-.063-.073l.063.073l.114-.097l-.063-.073l-.114.097zm.11-.158l-.086.043l.067.134l.086-.043l-.067-.134zm.384.168c-.032 0-.077-.013-.136-.064l-.098.114c.078.067.157.1.234.1v-.15zm.115-.06c-.047.049-.085.06-.115.06v.15a.307.307 0 0 0 .223-.106l-.108-.105zm-.115.1a.44.44 0 0 1 .145.022l.049-.141a.59.59 0 0 0-.194-.03v.15zm-.163.025a.544.544 0 0 1 .163-.025v-.15a.67.67 0 0 0-.208.032l.045.143zm.163.066c-.1 0-.216-.057-.345-.227l-.12.09c.144.19.299.287.465.287v-.15zm.302-.221c-.101.166-.204.221-.302.221v.15c.169 0 .313-.1.43-.293l-.128-.078zm-.302-.001c.129 0 .234.034.321.1l.09-.12a.667.667 0 0 0-.411-.13v.15zm-.366.104a.696.696 0 0 1 .366-.104v-.15a.846.846 0 0 0-.444.126l.078.128zm.366-.404a.998.998 0 0 0-.532.154l.079.128a.848.848 0 0 1 .453-.132v-.15zm.51.167a.816.816 0 0 0-.51-.167v.15c.161 0 .302.045.419.136l.092-.119zm.047.036L7.527 7.6l-.092.119l.046.035l.092-.118zm.052.04l-.052-.04l-.092.118l.052.04l.092-.118zm-.015.155l.034-.057l-.129-.077l-.034.057l.129.077zm-.03.05l.03-.05l-.13-.077l-.029.05l.13.077zm-.564.374c.244 0 .43-.151.564-.374l-.129-.077c-.118.198-.264.301-.435.301v.15zM6.424 7.9c.16.213.355.356.592.356v-.15c-.17 0-.326-.1-.471-.296l-.12.09zm-.042-.057l.042.057l.12-.09l-.042-.057l-.12.09zm-.049-.066l.049.066l.12-.09l-.049-.065l-.12.09zm.09-.151l-.07.043l.08.127l.07-.043l-.08-.127zm.061-.038l-.06.038l.078.127l.061-.037l-.079-.128zm-.419-1.135l.033.068l-.033-.068zm0 .361l-.032.068l.032-.068zm.537 0l.032.068l-.032-.068zm0-.361l-.033.068l.033-.068zm-.526.178l-.07-.03l.07.03zm.007-.01l.056.05l-.056-.05zm.047-.033l-.032-.067l.032.067zm.407 0l.032-.067l-.032.067zm.047.033l-.056.05l.056-.05zm.007.01l-.069.03l.069-.03zm0 .006l-.069-.03l.069.03zm-.007.01l-.056-.05l.056.05zm-.047.032l.032.068l-.032-.068zm-.407 0l-.032.068l.032-.068zm-.047-.033l-.057.05l.057-.05zm-.007-.01l-.07.03l.07-.03zm1.323-.183l-.033-.068l.033.068zm0 .361l-.033.068l.033-.068zm.536 0l-.033-.067l.033.067zm0-.361l-.033.068l.033-.068zm-.526.178L7.34 6.6l.07.03zm.007-.01l-.056-.05l.056.05zm.047-.033l.033.068l-.033-.068zm.407 0l-.032.068l.032-.068zm.048.033l-.057.05l.057-.05zm.006.01l-.069.03l.07-.03zm0 .006l-.069-.03l.07.03zm-.006.01l-.057-.05l.057.05zm-.048.032l-.032-.067l.032.067zm-.407 0l.033-.067l-.033.067zm-.047-.033l-.056.05l.056-.05zm-.007-.01l-.069.03l.07-.03zm-1.311-.115a.56.56 0 0 1 .235-.047v-.15a.708.708 0 0 0-.3.061l.065.136zM6 6.634c0-.044.037-.084.098-.113l-.065-.136c-.074.036-.183.114-.183.249H6zm.098.113C6.037 6.717 6 6.677 6 6.634h-.15c0 .135.11.213.183.248l.065-.135zm.235.047a.56.56 0 0 1-.235-.047l-.065.135c.084.04.19.062.3.062v-.15zm.236-.047a.56.56 0 0 1-.236.047v.15c.11 0 .216-.021.301-.062l-.065-.135zm.098-.113c0 .044-.037.084-.098.113l.065.135c.073-.035.183-.113.183-.248h-.15zm-.098-.113c.061.029.098.069.098.113h.15c0-.135-.11-.213-.183-.249l-.065.136zm-.236-.047a.56.56 0 0 1 .236.047l.065-.136a.708.708 0 0 0-.3-.061v.15zm-.326.127A.082.082 0 0 0 6 6.635h.15a.073.073 0 0 1-.005.026l-.138-.059zm.02-.03a.113.113 0 0 0-.02.03l.138.06a.04.04 0 0 1-.006.01l-.113-.1zm.07-.05a.224.224 0 0 0-.07.05l.112.1s.006-.007.024-.015l-.065-.135zm.236-.047a.56.56 0 0 0-.235.047l.065.135a.413.413 0 0 1 .17-.032v-.15zm.236.047a.56.56 0 0 0-.236-.047v.15c.075 0 .135.015.171.032l.065-.135zm.072.05a.224.224 0 0 0-.072-.05l-.065.135a.072.072 0 0 1 .024.015l.113-.1zm.019.03a.112.112 0 0 0-.02-.03l-.112.1a.04.04 0 0 1-.006-.01l.138-.06zm.007.033A.082.082 0 0 0 6.66 6.6l-.138.06a.063.063 0 0 1-.005-.02v-.007h.15zm-.007.032a.082.082 0 0 0 .007-.032h-.15v-.007a.069.069 0 0 1 .005-.02l.138.059zm-.02.03a.112.112 0 0 0 .02-.03l-.138-.059a.04.04 0 0 1 .006-.01l.113.099zm-.07.05a.224.224 0 0 0 .07-.05l-.112-.1s-.006.007-.024.016l.065.135zm-.237.048a.56.56 0 0 0 .236-.047l-.065-.135a.413.413 0 0 1-.17.032v.15zm-.235-.047a.56.56 0 0 0 .235.047v-.15a.413.413 0 0 1-.17-.032l-.065.135zm-.072-.051c.017.02.042.036.072.05l.065-.134a.101.101 0 0 1-.024-.015l-.113.099zm-.02-.03c.005.01.012.02.02.03l.113-.1l.006.011l-.138.059zM6 6.634c0 .01.002.021.007.032l.138-.059a.065.065 0 0 1 .005.027H6zm1.431-.113a.56.56 0 0 1 .236-.047v-.15a.708.708 0 0 0-.3.061l.064.136zm-.098.113c0-.044.037-.084.098-.113l-.065-.136c-.073.036-.183.114-.183.249h.15zm.098.113c-.06-.03-.098-.07-.098-.113h-.15c0 .135.11.213.183.248l.065-.135zm.236.047a.56.56 0 0 1-.236-.047l-.065.135c.085.04.191.062.3.062v-.15zm.235-.047a.56.56 0 0 1-.235.047v.15c.11 0 .216-.021.3-.062l-.065-.135zM8 6.634c0 .044-.037.084-.098.113l.065.135c.074-.035.183-.113.183-.248H8zm-.098-.113c.061.029.098.069.098.113h.15c0-.135-.11-.213-.183-.249l-.065.136zm-.235-.047a.56.56 0 0 1 .235.047l.065-.136a.708.708 0 0 0-.3-.061v.15zM7.34 6.6a.082.082 0 0 0-.007.033h.15a.073.073 0 0 1-.005.026L7.34 6.6zm.02-.03a.113.113 0 0 0-.02.03l.138.06a.04.04 0 0 1-.006.01l-.112-.1zm.071-.05a.224.224 0 0 0-.071.05l.112.1s.006-.007.024-.015L7.43 6.52zm.236-.047a.56.56 0 0 0-.236.047l.065.135a.413.413 0 0 1 .17-.032v-.15zm.235.047a.56.56 0 0 0-.235-.047v.15c.074 0 .135.015.17.032l.065-.135zm.072.05a.224.224 0 0 0-.072-.05l-.064.135c.018.008.024.015.023.015l.113-.1zm.02.03a.113.113 0 0 0-.02-.03l-.113.1a.04.04 0 0 1-.006-.01l.138-.06zM8 6.635a.082.082 0 0 0-.007-.033l-.138.06a.065.065 0 0 1-.005-.027H8zm-.007.032A.082.082 0 0 0 8 6.634h-.15a.073.073 0 0 1 .005-.027l.138.059zm-.02.03a.112.112 0 0 0 .02-.03l-.138-.059a.04.04 0 0 1 .006-.01l.113.099zm-.07.05a.224.224 0 0 0 .07-.05l-.112-.1s-.005.007-.023.016l.064.135zm-.236.048a.56.56 0 0 0 .235-.047l-.064-.135a.413.413 0 0 1-.171.032v.15zm-.236-.047a.56.56 0 0 0 .236.047v-.15a.413.413 0 0 1-.171-.032l-.065.135zm-.071-.051c.016.02.04.036.071.05l.065-.134a.101.101 0 0 1-.024-.015l-.112.099zm-.02-.03a.13.13 0 0 0 .02.03l.112-.1l.006.011l-.138.059zm-.007-.032c0 .01.003.021.007.032l.138-.059a.064.064 0 0 1 .005.027h-.15z"/></g></g></svg>