<svg xmlns="http://www.w3.org/2000/svg" xmlns:xlink="http://www.w3.org/1999/xlink" width="32" height="24" viewBox="0 0 32 24"><g fill="none"><path fill="#F7FCFF" fill-rule="evenodd" d="M0 0v24h32V0z" clip-rule="evenodd"/><mask id="flagpackUy0" width="32" height="24" x="0" y="0" maskUnits="userSpaceOnUse" style="mask-type:luminance"><path fill="#fff" fill-rule="evenodd" d="M0 0v24h32V0z" clip-rule="evenodd"/></mask><g mask="url(#flagpackUy0)"><path fill="#2E42A5" d="M0 2h32v3H0zm0 6h32v3H0zm0 6h32v3H0zm0 5h32v3H0z"/><path fill="#F7FCFF" d="M0 0h14v14H0z"/><path fill="#FFC125" fill-rule="evenodd" d="M4.783 2.582a.134.134 0 0 0-.143.123c-.028.353.283.674.455.852l.017.017c.027.029.055.056.09.09l.104.101c.15.148.181.287.218.442l.009.038q.024.1.05.233c.078.388.188.928.428 1.105c.059.043.47-.214.515-.272a1 1 0 0 1 .112-.093c.093-.068.2-.148.162-.176c-.251-.185-.442-.632-.69-1.277c-.133-.303-.48-.496-.767-.656c-.246-.136-.449-.25-.438-.386a.13.13 0 0 0-.122-.14m4.047.1a.134.134 0 0 0-.18-.053c-.312.169-.412.605-.467.846l-.006.023l-.026.125l-.029.142c-.042.206-.14.308-.251.423l-.027.029q-.072.074-.169.168c-.282.277-.675.664-.692.961c-.005.073.435.279.508.284a1 1 0 0 1 .139.044c.108.04.233.086.236.04c.018-.312.29-.716.694-1.275c.183-.276.156-.672.133-1c-.02-.28-.035-.512.086-.578a.13.13 0 0 0 .05-.18m2.586 2.349c.07.018.114.09.096.162a.13.13 0 0 1-.16.096c-.133-.034-.279.146-.456.364c-.208.256-.458.564-.78.641c-.677.133-1.15.243-1.376.459c-.034.032-.094-.088-.146-.19a.7.7 0 0 0-.072-.127c-.05-.054-.231-.504-.178-.554c.215-.206.767-.22 1.162-.23q.136-.004.238-.01l.04-.001c.159-.01.3-.017.472-.139l.117-.084l.105-.073l.02-.014c.205-.138.575-.389.918-.3m-9.093.443a.134.134 0 0 0-.015.188c.23.269.678.276.925.28h.152l.144-.001c.21-.002.331.073.467.158l.033.02q.088.054.2.13c.33.218.79.523 1.084.478c.072-.011.182-.484.172-.556c-.004-.026.005-.083.014-.145c.017-.114.036-.247-.01-.24c-.309.047-.76-.134-1.391-.414c-.308-.12-.69-.012-1.006.078c-.27.077-.494.141-.583.037a.13.13 0 0 0-.186-.013" clip-rule="evenodd"/><path fill="#984111" d="m4.64 2.705l-.075-.006zm.143-.123l-.006.075zm.312.975l.054-.052zm.017.017l.054-.052zm.09.09l-.052.054l.105-.107zm.104.101l-.053.054zm.218.442l-.073.017zm.009.038l-.073.017zm.05.233l-.074.015l.001.005zm0 0l.073-.015l-.001-.004zm.428 1.105l-.044.06zm.515-.272l.06.045zm.112-.093l-.042-.062l-.003.002zm0 0l.042.063l.003-.002zm.162-.176l-.044.06zm-.69-1.277l.07-.027l-.001-.003zm-.767-.656l-.037.066zm-.438-.386l-.075-.006zm3.744-.094l-.036-.066zm.18.053l.066-.037zm-.646.793l.073.016zm-.006.023l.073.017zm-.026.125l-.074-.015l.147.03zm-.029.142l.074.015zm-.251.423l-.054-.052zm-.027.029l-.054-.052zm-.169.168l-.052-.053zm-.692.961l.074.005zm.508.284l-.005.075zm.139.044l.026-.07zm.236.04l-.075-.005zm.694-1.275l.061.044l.002-.002zm.133-1l.075-.005zm.086-.578l-.036-.066zm2.637 2.17l.019-.073zm-.064.258l-.018.073zm-.456.364l-.059-.047zm-.78.641l.015.074h.003zm-1.376.459l-.052-.055zm-.146-.19l-.07.027l.003.006zm0 0l.07-.029l-.003-.005zm0 0l.067-.034zm-.072-.127l-.055.05zm-.178-.554l.052.054zm1.162-.23l.002.074zm0 0l-.002-.076zm.238-.01l-.004-.074zm.04-.001l-.005-.075zm.472-.139l-.043-.06zm.117-.084l-.043-.061zm0 0l-.043-.061zm.105-.073l.042.062zm.02-.014l.042.062zm-8.19.33l.057-.048zm.015-.187l.05.056zm.91.468l-.001.075zm.024 0l.002-.075zm.128 0v.075l-.001-.15zm.144-.001v.075zm.467.158l.04-.064zm.033.02l-.039.064zm.2.13l-.041.062zm1.084.478l.012.074zm.172-.556l.074-.011zm.014-.145l.074.01zm-.01-.24l-.012-.074zm-1.391-.414l.03-.069h-.003zm-1.006.078l.02.072zm-.583.037l.057-.05zM4.714 2.71a.06.06 0 0 1 .063-.054l.01-.15a.21.21 0 0 0-.222.192zm.435.794a2.4 2.4 0 0 1-.294-.35c-.091-.14-.153-.291-.14-.444l-.15-.012c-.016.2.065.386.165.539s.226.283.311.371zm.017.017l-.017-.017l-.108.104l.017.018zm.088.089l-.088-.089l-.108.104c.028.03.056.058.092.092zm.104.101l-.06-.06q-.019-.016-.03-.029l-.014-.012s-.106 0-.105.107l.106-.107c0 .106-.105.107-.105.107v.001l.003.003l.01.009l.03.03l.06.058zm.239.478c-.037-.157-.073-.314-.239-.478l-.105.107c.133.131.162.251.198.405zm.009.038l-.01-.038l-.145.034l.009.038zm.05.235q-.027-.132-.05-.235l-.146.035q.022.097.049.23zm-.001-.004l-.145.039zm.4 1.063c-.099-.073-.18-.23-.247-.436a6 6 0 0 1-.152-.623l-.147.03c.04.193.087.43.156.64c.068.206.16.407.302.51zm.41-.256l-.019.017l-.054.04c-.043.03-.099.065-.155.097c-.057.032-.112.06-.155.077a.3.3 0 0 1-.047.015h-.003q.004-.001.024.01l-.09.121q.031.019.054.02q.024 0 .041-.003a.4.4 0 0 0 .077-.024a1.3 1.3 0 0 0 .173-.086a2 2 0 0 0 .23-.15a.3.3 0 0 0 .045-.044zm.128-.108l-.071.054a.3.3 0 0 0-.056.054l.12.09l.008-.008l.022-.019l.067-.05zm.003-.002l.084.125zm.16-.054a.06.06 0 0 1-.023-.04q0-.022.004-.024l-.02.022a2 2 0 0 1-.124.098l.09.12c.045-.033.099-.073.137-.109a.3.3 0 0 0 .051-.064a.1.1 0 0 0 .011-.058a.1.1 0 0 0-.037-.066zm-.716-1.31c.124.322.235.599.347.818s.229.39.369.492l.089-.12c-.112-.083-.216-.228-.324-.44a9 9 0 0 1-.341-.804zm-.734-.617c.145.08.299.166.433.268a.9.9 0 0 1 .302.352l.138-.06a1.1 1.1 0 0 0-.349-.411c-.144-.11-.308-.2-.45-.28zm-.476-.458c-.008.11.07.194.152.258c.085.067.203.133.324.2l.073-.131a3 3 0 0 1-.305-.187c-.078-.06-.096-.101-.094-.128zm-.053-.06c.033.002.056.03.053.06l.15.012a.206.206 0 0 0-.192-.222zm3.908.038a.06.06 0 0 1 .08.023l.13-.073a.21.21 0 0 0-.282-.082zm-.43.796c.029-.12.066-.283.134-.436c.067-.153.161-.287.296-.36l-.072-.132c-.176.096-.288.264-.362.431a2.5 2.5 0 0 0-.141.464zm-.005.024l.006-.024l-.146-.033l-.006.024zm-.026.123l.026-.123l-.146-.033l-.027.126zm-.028.142l.017-.083l.008-.042l.003-.016v-.001s-.059-.089-.147-.03l.147.03c-.088.058-.147-.03-.147-.03v.005l-.003.013l-.009.042l-.016.082zm-.271.46c.112-.116.224-.232.27-.46l-.146-.03c-.038.183-.123.272-.232.386zm-.027.029l.027-.029l-.108-.103l-.027.028zm-.17.17q.096-.094.17-.17l-.109-.104q-.069.072-.166.167zm-.67.912c.006-.123.095-.278.23-.446c.133-.164.298-.327.44-.466l-.105-.107c-.14.138-.313.307-.452.48c-.136.168-.253.356-.263.53zm.438.204q.002.002-.025-.007l-.062-.024a2 2 0 0 1-.167-.077a1 1 0 0 1-.149-.088a.3.3 0 0 1-.038-.031l-.002-.003c0 .002.005.011.004.026l-.15-.009a.1.1 0 0 0 .014.055a.2.2 0 0 0 .024.033a.4.4 0 0 0 .062.052c.045.032.106.067.166.098a2 2 0 0 0 .251.11q.031.011.062.015zm.16.048l-.085-.03a.3.3 0 0 0-.075-.018l-.01.15l.01.002l.028.008l.08.029zm.135.106a.05.05 0 0 1 .022-.04l.022-.01q0 .002-.03-.006a2 2 0 0 1-.15-.05l-.052.14c.053.02.116.044.167.056a.3.3 0 0 0 .082.008a.1.1 0 0 0 .055-.022a.1.1 0 0 0 .034-.067zM8.5 4.395c-.203.28-.374.523-.497.737c-.122.212-.202.403-.212.577l.15.009c.008-.138.073-.304.192-.511c.119-.206.285-.444.488-.724zm.118-.951c.012.165.023.34.01.509a.9.9 0 0 1-.13.445l.125.083c.101-.154.142-.336.155-.517c.014-.18.001-.367-.01-.53zm.125-.649c-.097.053-.125.164-.134.268c-.01.108 0 .243.01.38l.149-.01a3 3 0 0 1-.01-.357c.009-.099.033-.136.057-.15zm.021-.077a.056.056 0 0 1-.021.077l.072.132a.206.206 0 0 0 .08-.282zm2.82 2.493a.21.21 0 0 0-.15-.253l-.037.145c.03.008.05.04.042.072zm-.25.15a.206.206 0 0 0 .25-.15l-.145-.036a.056.056 0 0 1-.068.041zm-.38.34c.09-.112.167-.206.237-.27c.073-.065.116-.076.143-.07l.037-.145c-.107-.027-.203.035-.28.104a3 3 0 0 0-.253.286zm-.82.666c.178-.043.332-.149.466-.271c.133-.123.25-.269.354-.396l-.117-.094a4 4 0 0 1-.339.38a.9.9 0 0 1-.4.235zm-1.342.44c.1-.096.26-.173.489-.243c.227-.07.51-.13.85-.196l-.029-.147c-.338.066-.63.127-.865.2c-.235.072-.423.157-.55.277zm-.265-.211c.025.05.055.11.084.154c.014.02.032.045.054.061c.012.009.03.02.055.022a.1.1 0 0 0 .072-.026l-.104-.109a.06.06 0 0 1 .043-.015c.015.001.023.007.023.008q0 .002-.018-.024a2 2 0 0 1-.075-.139zm-.003-.006l.14-.056zm.003.006l.134-.067zm-.06-.11l.007.01l.014.025q.017.03.039.075l.134-.068l-.041-.08a.3.3 0 0 0-.043-.064zm-.175-.659a.1.1 0 0 0-.028.05a.2.2 0 0 0-.005.04q0 .038.01.08c.011.055.032.121.055.186a2 2 0 0 0 .108.252c.01.017.022.038.035.052l.11-.103q0 .003-.013-.022l-.03-.06a2 2 0 0 1-.069-.17a1 1 0 0 1-.05-.165a.3.3 0 0 1-.006-.05v-.003l-.013.022zm1.212-.25c-.197.004-.438.01-.657.042c-.215.03-.429.088-.555.208l.104.109c.089-.085.258-.138.472-.169c.21-.03.441-.036.64-.04zm0 0l.005.15zm.236-.009l-.236.008l.004.15q.135-.002.24-.008zm.039-.002l-.04.002l.01.15l.038-.003zm.434-.125c-.153.108-.276.116-.434.125l.008.15c.161-.01.322-.018.512-.152zm.117-.084l-.117.084l.086.123l.118-.085zm0 0l.087.122zm.106-.074l-.106.074l.087.122l.103-.072zm.02-.014l-.02.014l.084.124l.02-.014zm.979-.311c-.195-.05-.391-.003-.56.069c-.168.072-.317.173-.419.242l.084.124a2.3 2.3 0 0 1 .395-.228c.154-.066.314-.1.462-.062zm-9.07.655a.06.06 0 0 1 .007-.083l-.099-.113a.21.21 0 0 0-.022.293zm.87.254a2.4 2.4 0 0 1-.455-.04c-.164-.034-.315-.098-.415-.214l-.114.097c.131.153.32.227.498.265c.18.037.36.04.483.042zm.024 0h-.025l-.002.15h.024zm.125 0h-.125l-.003.15h.13zm.145-.001h-.085l-.042.001h-.018s-.074.076.001.15l-.001-.15c.076.074.002.15.002.15h.06l.084-.001zm.506.169c-.136-.085-.273-.17-.506-.17v.15c.188 0 .293.064.427.147zm.034.02l-.034-.02l-.079.127l.034.021zm.202.131q-.112-.075-.202-.13l-.079.127q.085.053.198.128zm1.03.467c-.12.018-.29-.036-.483-.133a6 6 0 0 1-.547-.334l-.083.125c.164.109.365.242.563.342c.193.099.4.174.574.148zm.11-.472l-.002.026l-.01.066a2 2 0 0 1-.041.179a1 1 0 0 1-.055.164a.3.3 0 0 1-.023.044l-.002.003l.024-.01l.023.148a.1.1 0 0 0 .051-.025q.017-.015.027-.03a.4.4 0 0 0 .038-.07a2.4 2.4 0 0 0 .117-.452a.3.3 0 0 0 .001-.064zm.014-.166q-.008.047-.012.089a.3.3 0 0 0-.002.077l.148-.021v-.011l.003-.029q.003-.035.011-.083zM5.5 5.86a.06.06 0 0 1-.044-.012q-.016-.017-.015-.02l.001.03c0 .042-.009.098-.017.157l.148.022c.008-.056.018-.122.02-.175c0-.024 0-.055-.01-.081a.1.1 0 0 0-.033-.05a.1.1 0 0 0-.073-.019zm-1.432-.42c.315.14.589.257.823.333s.437.114.609.087l-.023-.148c-.136.02-.312-.008-.54-.082a9 9 0 0 1-.809-.327zm-.956.082c.16-.045.329-.093.496-.116a.9.9 0 0 1 .463.036l.054-.14a1.1 1.1 0 0 0-.537-.044c-.18.024-.36.075-.517.12zm-.66.013c.071.084.186.089.29.076c.107-.013.237-.05.37-.089l-.04-.144c-.138.04-.255.073-.349.084c-.098.012-.14-.003-.157-.024zm-.08-.005a.056.056 0 0 1 .08.005l.114-.097a.206.206 0 0 0-.293-.02z"/><path fill="#FFC125" fill-rule="evenodd" d="M4.756 11.245a.134.134 0 0 1-.143-.122c-.028-.353.283-.674.455-.852l.017-.018a4 4 0 0 1 .194-.19c.15-.148.182-.287.218-.442l.009-.039l.05-.232c.078-.388.188-.929.428-1.105c.059-.043.47.213.515.272a1 1 0 0 0 .112.092c.093.07.2.15.162.177c-.251.185-.442.632-.69 1.276c-.132.304-.48.496-.767.656c-.246.137-.449.25-.438.387a.13.13 0 0 1-.122.14m4.047-.099a.134.134 0 0 1-.18.053c-.312-.17-.412-.605-.467-.846l-.006-.024l-.026-.124l-.028-.142c-.043-.206-.141-.309-.252-.424l-.027-.028q-.072-.075-.17-.17c-.287-.282-.691-.679-.691-.96c0-.127.435-.278.508-.283a1 1 0 0 0 .139-.044c.108-.04.234-.087.236-.04c.018.312.29.716.695 1.274c.182.277.155.672.132 1.001c-.02.28-.035.512.086.578a.13.13 0 0 1 .05.179m2.586-2.349a.134.134 0 0 0 .096-.162a.13.13 0 0 0-.16-.096c-.133.034-.279-.146-.456-.364c-.208-.256-.458-.564-.78-.642c-.677-.132-1.15-.242-1.376-.458c-.034-.032-.094.087-.146.19a.7.7 0 0 1-.072.127c-.05.054-.23.504-.178.554c.215.206.767.22 1.162.23q.136.004.238.009l.04.002c.159.009.3.017.472.138l.118.085l.104.073l.02.013c.205.139.575.39.918.301m-9.093-.443a.134.134 0 0 1-.014-.188c.23-.269.677-.276.924-.28h.152l.144.001c.21.001.331-.074.467-.158l.033-.02q.088-.054.2-.13c.33-.218.79-.523 1.084-.478c.072.011.182.484.172.556a1 1 0 0 0 .014.145c.017.114.036.247-.01.24c-.309-.048-.76.134-1.39.414c-.309.12-.69.012-1.007-.079c-.27-.077-.494-.14-.583-.036a.13.13 0 0 1-.186.013" clip-rule="evenodd"/><path fill="#984111" d="m4.613 11.123l-.075.006zm.143.122l-.005-.074zm.312-.974l.054.052zm.017-.018l.054.052zm.09-.09l-.052-.053l.105.107zm.104-.1l-.053-.054zm.218-.442l-.073-.017zm.009-.039l-.073-.017zm.05-.232l-.074-.015l.001-.005zm0 0l.073.014v.005zm.428-1.105l-.044-.06zm.515.272l.06-.045zm.112.092l-.042.063l-.003-.003zm0 0l.042-.062l.003.002zm.162.177l-.044-.06zm-.69 1.276l.07.027l-.001.003zm-.767.656l-.036-.065zm-.438.387l-.075.006zm3.744.094l-.036.066zm.18-.053l.066.036zm-.646-.793l.073-.017zm-.006-.024l.073-.017zm-.026-.124l-.074.015l.147-.03zm-.028-.142l.073-.015zm-.252-.424l-.054.052zm-.027-.028l-.054.052zm-.17-.17l-.053.053zm0 0l.052-.055zm0 0l-.053.053zm-.183-1.243l-.005-.075zm.139-.044l.026.07zm.236-.04l-.075.005zm.695 1.274l.06-.044l.002.003zm.132 1.001l.075.005zm.086.578l-.036.066zm2.637-2.17l.019.073zm-.063-.258l-.02-.073zm-.457-.364l-.058.047zm-.78-.642l.015-.073h.003zm-1.376-.458l-.052.054zm-.146.19l-.07-.027l.003-.006zm0 0l.07.029l-.003.005zm0 0l.067.034zm-.072.127l-.054-.051zm-.178.554l.052-.054zm1.162.23l.002-.075h.001zm0 0l-.002.075zm.238.009l-.004.075zm.04.002l-.005.075zm.472.138l-.043.062zm.118.085l-.044.06zm0 0l-.044.06zm.104.073l.042-.062zm.02.013l.042-.062zm-8.19-.33l.058.049zm.015.188l.05-.057zm.91-.468l-.001-.075zm.025 0v.074zm.127 0V7.81l-.001.15zm.144.001v-.075zm.467-.158l.04.064zm.033-.02l-.039-.064zm.2-.13l-.041-.063zM5.286 7.1l.012-.074zm.172.556l.074.01zm.014.145l.074-.011zm-.01.24l-.012.074zm-1.39.414l.03.068l-.004.002zm-1.007-.079l.02-.072zm-.583-.036l.057.049zm2.206 2.776a.06.06 0 0 0 .063.054l.01.15a.21.21 0 0 1-.223-.192zm.434-.794c-.086.09-.202.21-.294.35s-.152.291-.14.444l-.15.012c-.016-.2.065-.386.165-.539s.226-.283.311-.371zm.017-.018l-.017.018l-.108-.104l.017-.018zm.089-.088l-.089.088l-.108-.104l.092-.091zm.104-.101c-.012.01-.038.036-.061.059l-.03.03l-.01.009l-.003.002v.001s-.106-.001-.106-.107l.106.107c0-.106-.105-.107-.105-.107v-.001l.003-.003l.01-.01l.03-.029l.06-.058zm.238-.478c-.037.157-.073.314-.238.478l-.106-.107c.133-.132.162-.252.198-.405zm.009-.038l-.009.038l-.146-.035l.009-.038zm.05-.236q-.026.132-.05.236l-.146-.035l.05-.23zm0 .005l-.146-.039zm.4-1.064c-.1.073-.181.231-.248.436c-.066.201-.112.429-.152.623l-.147-.03c.04-.192.087-.429.156-.64c.068-.206.161-.406.302-.51zm.41.257l-.02-.017l-.053-.04c-.044-.03-.1-.065-.156-.097a1 1 0 0 0-.154-.077a.3.3 0 0 0-.048-.015q-.006 0-.003-.001l.024-.01l-.09-.12a.1.1 0 0 1 .055-.02a.2.2 0 0 1 .04.003q.038.007.077.023a2.4 2.4 0 0 1 .403.237a.3.3 0 0 1 .045.044zm.127.107l-.071-.054a.3.3 0 0 1-.056-.053l.12-.09l.008.008l.022.018q.027.023.067.051zm.003.003l.084-.125zm.16.054a.06.06 0 0 0-.023.04c-.001.014.004.023.004.024l-.02-.023a2 2 0 0 0-.124-.098l.09-.12c.045.034.1.074.137.11c.018.017.039.04.051.064a.1.1 0 0 1 .012.058a.1.1 0 0 1-.038.066zm-.716 1.31a9 9 0 0 1 .347-.818c.112-.218.229-.39.369-.492l.089.12c-.111.082-.216.227-.324.44a9 9 0 0 0-.341.803zm-.733.617a4 4 0 0 0 .432-.269a.9.9 0 0 0 .302-.352l.138.06a1.1 1.1 0 0 1-.349.412c-.144.11-.307.2-.45.28zm-.477.458c-.008-.11.07-.195.152-.259c.085-.066.204-.132.325-.2l.072.132c-.124.07-.23.129-.305.187c-.078.06-.096.101-.094.128zm-.052.06a.056.056 0 0 0 .052-.06l.15-.012a.206.206 0 0 1-.192.221zm3.907-.038a.06.06 0 0 0 .08-.023l.13.072a.21.21 0 0 1-.282.083zm-.429-.797c.028.121.065.284.133.437c.067.153.161.287.296.36l-.072.132c-.176-.096-.288-.264-.361-.432a2.4 2.4 0 0 1-.142-.463zm-.005-.024l.005.024l-.146.034l-.006-.024zm-.027-.122l.027.122l-.147.034l-.027-.126zm-.028-.142l.025.124l.003.013v.005s-.058.088-.147.03l.147-.03c-.088-.059-.147.03-.147.03v-.006l-.003-.013l-.008-.041l-.017-.082zm-.27-.46c.11.116.223.231.27.46l-.147.03c-.038-.183-.123-.273-.232-.387zm-.028-.029l.027.028l-.108.104l-.027-.028zM7.7 9.387q.099.096.172.172l-.108.104q-.07-.072-.169-.17zm0 0l-.105.107zm0 0l-.105.107zm-.67-.907q0 .081.059.194q.06.114.162.239c.134.165.303.332.447.473l-.105.107a6 6 0 0 1-.459-.486a1.6 1.6 0 0 1-.178-.263a.6.6 0 0 1-.076-.264zm.438-.208h-.002l-.006.001l-.021.005q-.025.006-.063.019a2 2 0 0 0-.163.064a1 1 0 0 0-.144.082a.2.2 0 0 0-.035.033c-.007.01-.004.01-.004.004h-.15c0-.037.016-.069.033-.093a.3.3 0 0 1 .065-.064a1 1 0 0 1 .172-.098a1.5 1.5 0 0 1 .308-.103zm.16-.049q-.045.017-.085.03a.3.3 0 0 1-.075.019l-.01-.15l.01-.002l.028-.009l.08-.028zm.135-.105a.06.06 0 0 0 .022.04c.011.01.021.01.022.01q0-.002-.03.006c-.04.009-.094.029-.15.05l-.051-.141c.052-.02.115-.043.166-.055a.3.3 0 0 1 .082-.008a.1.1 0 0 1 .055.022a.1.1 0 0 1 .034.067zm.709 1.313a9 9 0 0 1-.497-.736c-.122-.212-.202-.404-.212-.577l.15-.009c.008.138.073.304.192.511c.119.206.286.444.488.723zm.118.952c.012-.165.024-.341.01-.51a.9.9 0 0 0-.13-.444l.125-.083c.101.153.142.336.155.516c.014.181.001.368-.01.531zm.125.649c-.097-.053-.125-.165-.134-.268c-.01-.108 0-.243.01-.381l.149.01c-.01.143-.018.264-.01.358c.009.099.033.136.057.149zm.021.077a.056.056 0 0 0-.021-.077l.072-.132a.206.206 0 0 1 .08.281zm2.821-2.493a.21.21 0 0 1-.15.253l-.037-.146a.06.06 0 0 0 .041-.071zm-.251-.15a.206.206 0 0 1 .251.15l-.146.036a.056.056 0 0 0-.068-.042zm-.38-.34c.09.111.167.206.237.269c.074.066.117.077.143.07l.037.145c-.107.028-.203-.034-.28-.104a3 3 0 0 1-.253-.285zm-.82-.667c.178.044.333.15.466.272s.25.268.354.395l-.116.095a4 4 0 0 0-.34-.38a.9.9 0 0 0-.4-.236zm-1.342-.44c.1.096.26.174.489.244c.227.07.51.13.85.196l-.029.147a9 9 0 0 1-.865-.2c-.235-.072-.423-.157-.549-.278zm-.265.212c.025-.05.055-.11.084-.154a.3.3 0 0 1 .055-.062a.1.1 0 0 1 .055-.021a.1.1 0 0 1 .07.026l-.103.108q.015.016.043.016a.04.04 0 0 0 .023-.008q0-.002-.018.024a2 2 0 0 0-.075.138zm-.003.006l.14.055zm.003-.006l.134.067zm-.06.109l.007-.01l.014-.024l.039-.075l.134.067l-.041.08a.3.3 0 0 1-.043.064zM8.266 8a.1.1 0 0 1-.028-.05a.2.2 0 0 1-.005-.04q0-.04.01-.08a2 2 0 0 1 .055-.186a2 2 0 0 1 .108-.252a.3.3 0 0 1 .036-.052l.11.102q0-.002-.014.022l-.03.06c-.022.049-.047.11-.069.17q-.034.095-.05.166a.3.3 0 0 0-.006.05v.003l-.013-.022zm1.212.25c-.197-.005-.438-.01-.657-.042c-.215-.03-.429-.088-.555-.209l.104-.108c.089.085.259.138.472.168c.21.03.442.036.64.041zm0 0l.005-.15zm.236.009l-.236-.009l.004-.15q.135.004.24.009zm.04.002l-.04-.002l.008-.15l.04.002zm.433.125c-.153-.109-.276-.116-.434-.125l.008-.15c.161.01.322.017.513.152zm.117.084l-.117-.084l.087-.123l.117.085zm0 0l.087-.122zm.106.074l-.106-.074l.087-.122l.103.072zm.02.014l-.02-.014l.084-.124l.02.013zm.979.31c-.194.05-.391.004-.56-.068c-.168-.072-.317-.174-.419-.242l.084-.125c.103.07.241.163.395.229s.314.1.463.061zm-9.07-.654a.06.06 0 0 0 .007.082l-.098.113a.21.21 0 0 1-.022-.293zm.87-.254a2.4 2.4 0 0 0-.457.04c-.164.034-.315.098-.414.215l-.114-.098c.13-.152.318-.226.497-.264c.18-.038.36-.04.483-.042zm.024 0h-.025l-.002-.15h.024zm.125 0h-.125l-.003-.15h.13zm.145.001h-.085l-.042-.001h-.018s-.074-.077.001-.15l-.001.15c.076-.075.002-.15.002-.15h.005l.139.001zm.507-.17c-.137.086-.274.171-.507.17v-.15c.188.001.293-.063.428-.147zm.033-.02l-.033.02l-.08-.127l.034-.02zm.202-.13q-.112.074-.202.13l-.079-.127q.086-.054.198-.129zm1.031-.467c-.122-.019-.291.036-.484.133a6 6 0 0 0-.547.333l-.083-.125c.164-.108.365-.242.563-.342c.193-.098.401-.174.574-.147zm.109.472l-.002-.026l-.01-.066a2 2 0 0 0-.041-.18a1 1 0 0 0-.055-.163a.3.3 0 0 0-.023-.044l-.002-.003c.002.001.01.008.024.01l.023-.148c.023.003.04.015.051.024q.017.015.027.031q.021.031.038.07a2.4 2.4 0 0 1 .117.452q.004.032.001.064zm.014.166q-.008-.047-.012-.089a.3.3 0 0 1-.002-.077l.148.02v.012l.003.029q.003.035.011.083zm.075.154a.06.06 0 0 0-.044.013c-.012.009-.015.019-.015.02l.002-.031a2 2 0 0 0-.018-.156l.148-.022c.008.055.018.122.02.174c0 .025 0 .056-.01.082a.1.1 0 0 1-.033.05a.1.1 0 0 1-.073.019zm-1.432.42c.315-.14.589-.257.823-.332s.437-.114.609-.088l-.023.149c-.136-.021-.312.008-.54.081a9 9 0 0 0-.808.327zm-.956-.082c.16.046.329.094.496.116a.9.9 0 0 0 .463-.035l.054.14c-.17.067-.357.068-.537.044s-.36-.076-.517-.12zm-.66-.013c.072-.083.186-.088.29-.075c.108.013.237.05.37.088l-.04.145a3 3 0 0 0-.349-.084c-.098-.013-.14.003-.157.024zm-.08.005c.025.022.06.019.08-.005l.114.098a.206.206 0 0 1-.292.02z"/><path fill="#FFC125" fill-rule="evenodd" d="M7 2.06a.256.256 0 0 0-.253.22l-.414 2.937h1.334L7.253 2.28A.256.256 0 0 0 7 2.06m3.494 1.446a.256.256 0 0 0-.335-.023L7.79 5.268l.943.943l1.785-2.37a.256.256 0 0 0-.023-.335m1.227 3.24a.256.256 0 0 1 0 .507l-2.938.414V6.333zm-1.227 3.748c.09-.09.1-.233.023-.335L8.732 7.79l-.943.943l2.37 1.785a.256.256 0 0 0 .335-.023m-3.24 1.227a.256.256 0 0 1-.507 0l-.414-2.938h1.334zm-3.748-1.227c.09.09.233.1.335.023l2.37-1.785l-.943-.943l-1.785 2.37a.256.256 0 0 0 .023.335M2.28 7.254a.256.256 0 0 1 0-.507l2.938-.414v1.334zm1.227-3.748c-.09.09-.1.233-.023.335l1.785 2.37l.943-.943l-2.37-1.785a.256.256 0 0 0-.335.023" clip-rule="evenodd"/><path fill="#984111" d="m6.747 2.28l-.074-.011zm-.414 2.937l-.074-.01l-.012.085h.086zm1.334 0v.075h.086l-.012-.085zM7.253 2.28l.074-.01zm2.906 1.204l-.045-.06zM7.79 5.268l-.045-.06l-.069.052l.061.06zm.943.943l-.053.053l.061.06l.052-.068zm1.785-2.37l-.06-.045zm1.204 2.906l-.01.074zm0 .506l.01.074zm-2.938.414h-.075v.086l.085-.012zm0-1.334l.01-.074l-.085-.012v.086zm1.734 3.826l.06-.045zm-.023.335l.053.053zM8.732 7.789l.06-.045l-.052-.069l-.06.061zm-.943.943l-.053-.053l-.06.061l.068.052zm2.37 1.785l.045-.06zm-2.906 1.204l-.074-.01zm-.506 0l-.074.01zm-.414-2.938v-.075h-.086l.012.085zm1.334 0l.074.01l.012-.085h-.086zM3.84 10.517l-.045-.06zm-.335-.023l-.053.053zM6.21 8.732l.045.06l.069-.052l-.061-.06zm-.943-.943l.053-.053l-.061-.06l-.052.068zm-1.785 2.37l.06.045zM2.279 7.253l-.01.074zm0-.506l-.01-.074zm2.938-.414h.075v-.086l-.085.012zm0 1.334l-.01.074l.085.012v-.086zM3.483 3.84l.06-.045zm.023-.335l-.053-.053zM5.268 6.21l-.06.045l.052.069l.06-.061zm.943-.943l.053.053l.06-.061l-.068-.052zM3.84 3.483l-.045.06zM6.82 2.29A.18.18 0 0 1 7 2.134v-.15a.33.33 0 0 0-.327.285zm-.413 2.938L6.82 2.29l-.148-.021l-.414 2.938zm1.259-.086H6.333v.15h1.334zM7.179 2.29l.413 2.938l.149-.021l-.414-2.938zM7 2.134a.18.18 0 0 1 .179.156l.148-.021A.33.33 0 0 0 7 1.984zm3.204 1.409a.18.18 0 0 1 .237.016l.106-.106a.33.33 0 0 0-.433-.03zm-2.37 1.785l2.37-1.785l-.09-.12l-2.37 1.785zm.951.83l-.943-.943l-.106.106l.943.943zm1.672-2.362l-1.785 2.37l.12.09l1.785-2.37zm-.016-.237a.18.18 0 0 1 .016.237l.12.09a.33.33 0 0 0-.03-.433zM12.016 7a.33.33 0 0 0-.285-.327l-.02.148a.18.18 0 0 1 .155.179zm-.285.327A.33.33 0 0 0 12.016 7h-.15a.18.18 0 0 1-.156.179zm-2.938.414l2.938-.414l-.02-.148l-2.938.413zm-.085-1.408v1.334h.15V6.333zm3.023.34l-2.938-.414l-.02.149l2.937.413zm-1.274 3.531a.18.18 0 0 1-.016.237l.106.106a.33.33 0 0 0 .03-.433zm-1.785-2.37l1.785 2.37l.12-.09l-1.785-2.37zm-.83.951l.943-.943l-.106-.106l-.943.943zm2.362 1.672l-2.37-1.785l-.09.12l2.37 1.785zm.237-.016a.18.18 0 0 1-.237.016l-.09.12a.33.33 0 0 0 .433-.03zM7 12.016a.33.33 0 0 0 .327-.285l-.148-.02a.18.18 0 0 1-.179.155zm-.327-.285a.33.33 0 0 0 .327.285v-.15a.18.18 0 0 1-.179-.156zm-.414-2.938l.414 2.938l.148-.02l-.413-2.938zm1.408-.085H6.333v.15h1.334zm-.34 3.023l.414-2.938l-.149-.02l-.413 2.937zm-3.531-1.274a.18.18 0 0 1-.237-.016l-.106.106a.33.33 0 0 0 .433.03zm2.37-1.785l-2.37 1.785l.09.12l2.37-1.785zm-.951-.83l.943.943l.106-.106l-.943-.943zm-1.672 2.362l1.785-2.37l-.12-.09l-1.785 2.37zm.016.237a.18.18 0 0 1-.016-.237l-.12-.09a.33.33 0 0 0 .03.433zM1.984 7a.33.33 0 0 0 .285.327l.02-.148A.18.18 0 0 1 2.135 7zm.285-.327A.33.33 0 0 0 1.984 7h.15a.18.18 0 0 1 .156-.179zm2.938-.414l-2.938.414l.02.148l2.939-.413zm.085 1.408V6.333h-.15v1.334zm-3.023-.34l2.938.414l.02-.149L2.29 7.18zm1.274-3.531a.18.18 0 0 1 .016-.237l-.106-.106a.33.33 0 0 0-.03.433zm1.785 2.37l-1.785-2.37l-.12.09l1.785 2.37zm.83-.951l-.943.943l.106.106l.943-.943zM3.796 3.543l2.37 1.785l.09-.12l-2.37-1.785zm-.237.016a.18.18 0 0 1 .237-.016l.09-.12a.33.33 0 0 0-.433.03z"/><path fill="#FFC125" fill-rule="evenodd" stroke="#984111" stroke-width=".15" d="M7 8.842c1.068 0 1.933-.854 1.933-1.908S8.068 5.026 7 5.026s-1.933.855-1.933 1.908c0 1.054.865 1.908 1.933 1.908Z" clip-rule="evenodd"/><path fill="#984111" d="m6.813 6.437l-.125-.082a.8.8 0 0 0-.186-.093a.3.3 0 0 0-.08-.014q-.18-.001-.495.223l-.078-.107q.345-.247.572-.248q.06 0 .122.02a1 1 0 0 1 .217.108l.124.081l.048.027c.16 0 .169.57.056.744a.5.5 0 0 1-.116.124l-.087.064c-.04.03-.052.048-.052.07c0 .003.048.015.155.01l.073-.005a1 1 0 0 1 .11-.006v.131c-.019 0-.029 0-.1.006l-.077.005c-.187.01-.294-.017-.294-.142c0-.071.035-.12.103-.173c.011-.008.07-.05.086-.063a.4.4 0 0 0 .087-.092c.034-.053.056-.192.053-.34a1 1 0 0 0-.026-.205a.3.3 0 0 1-.09-.043"/><path fill="#984111" fill-rule="evenodd" d="m7.352 6.39l-.072.047a.3.3 0 0 1-.09.043l-.008.032a1 1 0 0 0-.017.173c-.003.148.019.287.053.34a.4.4 0 0 0 .087.092l.086.063c.068.053.103.102.103.173c0 .125-.107.151-.295.142l-.077-.005l-.1-.006v-.131c.025 0 .035 0 .11.006l.074.005c.107.005.155-.007.155-.01c0-.022-.013-.04-.052-.07l-.026-.02l-.06-.044a.5.5 0 0 1-.117-.124c-.113-.175-.103-.744.056-.744l.048-.027l.124-.08a1 1 0 0 1 .217-.109a.4.4 0 0 1 .122-.02q.227.001.572.248l-.078.107q-.317-.224-.494-.223a.3.3 0 0 0-.082.014a.8.8 0 0 0-.185.093zm-.157.08l-.002.004z" clip-rule="evenodd"/><path fill="#984111" d="m6.665 7.723l.034.067zm.677.001l.039-.064zm.069.041l.061.043l.046-.066l-.069-.041zm-.046.066l-.062-.043zm-.723.008l.057-.05zm-.063-.073l-.033-.067l-.086.043l.062.072zm.252.051l-.023-.071l-.13.04l.104.088zm.354-.001l.054.052l.082-.085l-.111-.038zm-.574-.043l-.039-.064l-.07.043l.05.066zm.771 0l.064.039l.036-.058l-.055-.041zm-.858-.122l.039.064zm.957.008l-.046.06zm.046.036l.046-.06zm.052.04l.065.039l.034-.057l-.053-.04zm-.034.058l-.064-.039zm-.03.05l.065.038zm-1.03.011l-.06.045zm-.043-.057l.06-.045zm-.049-.066l-.04-.063l-.069.043l.049.065zm.07-.043l-.04-.063zm.553-.124a.85.85 0 0 0-.384.092l.067.134a.7.7 0 0 1 .317-.076zm.365.096a.7.7 0 0 0-.365-.096v.15q.165 0 .287.074zm.068.041l-.068-.041l-.078.128l.07.042zm-.022.173l.045-.066l-.123-.085l-.046.065zm-.411.25c.172 0 .307-.101.41-.25l-.123-.086q-.13.188-.287.186zm-.431-.237c.12.141.264.237.43.237v-.15q-.157.001-.316-.184zm-.063-.073l.063.073l.114-.097l-.063-.073zm.11-.158l-.086.043l.067.134l.086-.043zm.384.168c-.032 0-.077-.013-.136-.064l-.098.114q.118.1.234.1zm.115-.06c-.047.049-.085.06-.115.06v.15a.3.3 0 0 0 .223-.106zm-.115.1a.4.4 0 0 1 .145.022l.049-.141a.6.6 0 0 0-.194-.03zm-.163.025a.5.5 0 0 1 .163-.025v-.15q-.106 0-.208.032zm.163.066c-.1 0-.216-.057-.345-.227l-.12.09q.216.286.465.287zm.302-.221c-.101.166-.204.221-.302.221v.15q.254-.002.43-.293zm-.302-.001q.192 0 .321.1l.09-.12a.67.67 0 0 0-.411-.13zm-.366.104a.7.7 0 0 1 .366-.104v-.15a.85.85 0 0 0-.444.126zm.366-.404a1 1 0 0 0-.532.154l.079.128a.85.85 0 0 1 .453-.132zm.51.167a.8.8 0 0 0-.51-.167v.15q.242 0 .419.136zm.047.036L7.527 7.6l-.092.119l.046.035zm.052.04l-.052-.04l-.092.118l.052.04zm-.015.155l.034-.057l-.129-.077l-.034.057zm-.03.05l.03-.05l-.13-.077l-.029.05zm-.564.374c.244 0 .43-.151.564-.374l-.129-.077q-.178.299-.435.301zM6.424 7.9c.16.213.355.356.592.356v-.15q-.254-.001-.471-.296zm-.042-.057l.042.057l.12-.09l-.042-.057zm-.049-.066l.049.066l.12-.09l-.049-.065zm.09-.151l-.07.043l.08.127l.07-.043zm.061-.038l-.06.038l.078.127l.061-.037zm-.419-1.135l.033.068zm0 .361l-.032.068zm.537 0l.032.068zm0-.361l-.033.068zm-.526.178l-.07-.03zm.007-.01l.056.05zm.047-.033l-.032-.067zm.407 0l.032-.067zm.047.033l-.056.05zm.007.01l-.069.03zm0 .006l-.069-.03zm-.007.01l-.056-.05zm-.047.032l.032.068zm-.407 0l-.032.068zm-.047-.033l-.057.05zm-.007-.01l-.07.03zm1.323-.183l-.033-.068zm0 .361l-.033.068zm.536 0l-.033-.067zm0-.361l-.033.068zm-.526.178L7.34 6.6zm.007-.01l-.056-.05zm.047-.033l.033.068zm.407 0l-.032.068zm.048.033l-.057.05zm.006.01l-.069.03zm0 .006l-.069-.03zm-.006.01l-.057-.05zm-.048.032l-.032-.067zm-.407 0l.033-.067zm-.047-.033l-.056.05zm-.007-.01l-.069.03zm-1.311-.115a.6.6 0 0 1 .235-.047v-.15a.7.7 0 0 0-.3.061zM6 6.634c0-.044.037-.084.098-.113l-.065-.136c-.074.036-.183.114-.183.249zm.098.113C6.037 6.717 6 6.677 6 6.634h-.15c0 .135.11.213.183.248zm.235.047a.6.6 0 0 1-.235-.047l-.065.135c.084.04.19.062.3.062zm.236-.047a.6.6 0 0 1-.236.047v.15c.11 0 .216-.021.301-.062zm.098-.113c0 .044-.037.084-.098.113l.065.135c.073-.035.183-.113.183-.248zm-.098-.113c.061.029.098.069.098.113h.15c0-.135-.11-.213-.183-.249zm-.236-.047a.6.6 0 0 1 .236.047l.065-.136a.7.7 0 0 0-.3-.061zm-.326.127A.1.1 0 0 0 6 6.635h.15l-.005.026zm.02-.03a.1.1 0 0 0-.02.03l.138.06l-.006.01zm.07-.05a.2.2 0 0 0-.07.05l.112.1q-.002-.001.024-.015zm.236-.047a.6.6 0 0 0-.235.047l.065.135a.4.4 0 0 1 .17-.032zm.236.047a.6.6 0 0 0-.236-.047v.15c.075 0 .135.015.171.032zm.072.05a.2.2 0 0 0-.072-.05l-.065.135q.026.014.024.015zm.019.03a.1.1 0 0 0-.02-.03l-.112.1l-.006-.01zm.007.033A.1.1 0 0 0 6.66 6.6l-.138.06l-.005-.02v-.007zm-.007.032a.1.1 0 0 0 .007-.032h-.15v-.007l.005-.02zm-.02.03a.1.1 0 0 0 .02-.03l-.138-.059l.006-.01zm-.07.05a.2.2 0 0 0 .07-.05l-.112-.1q.002.001-.024.016zm-.237.048a.6.6 0 0 0 .236-.047l-.065-.135a.4.4 0 0 1-.17.032zm-.235-.047a.6.6 0 0 0 .235.047v-.15a.4.4 0 0 1-.17-.032zm-.072-.051q.026.03.072.05l.065-.134q-.026-.014-.024-.015zm-.02-.03q.008.015.02.03l.113-.1l.006.011zM6 6.634q0 .015.007.032l.138-.059l.005.027zm1.431-.113a.6.6 0 0 1 .236-.047v-.15a.7.7 0 0 0-.3.061zm-.098.113c0-.044.037-.084.098-.113l-.065-.136c-.073.036-.183.114-.183.249zm.098.113c-.06-.03-.098-.07-.098-.113h-.15c0 .135.11.213.183.248zm.236.047a.6.6 0 0 1-.236-.047l-.065.135c.085.04.191.062.3.062zm.235-.047a.6.6 0 0 1-.235.047v.15c.11 0 .216-.021.3-.062zM8 6.634c0 .044-.037.084-.098.113l.065.135c.074-.035.183-.113.183-.248zm-.098-.113c.061.029.098.069.098.113h.15c0-.135-.11-.213-.183-.249zm-.235-.047a.6.6 0 0 1 .235.047l.065-.136a.7.7 0 0 0-.3-.061zM7.34 6.6a.1.1 0 0 0-.007.033h.15l-.005.026zm.02-.03a.1.1 0 0 0-.02.03l.138.06l-.006.01zm.071-.05a.2.2 0 0 0-.071.05l.112.1q-.002-.001.024-.015zm.236-.047a.6.6 0 0 0-.236.047l.065.135a.4.4 0 0 1 .17-.032zm.235.047a.6.6 0 0 0-.235-.047v.15c.074 0 .135.015.17.032zm.072.05a.2.2 0 0 0-.072-.05l-.064.135q.026.014.023.015zm.02.03a.1.1 0 0 0-.02-.03l-.113.1l-.006-.01zM8 6.635a.1.1 0 0 0-.007-.033l-.138.06l-.005-.027zm-.007.032A.1.1 0 0 0 8 6.634h-.15l.005-.027zm-.02.03a.1.1 0 0 0 .02-.03l-.138-.059l.006-.01zm-.07.05a.2.2 0 0 0 .07-.05l-.112-.1q.002.001-.023.016zm-.236.048a.6.6 0 0 0 .235-.047l-.064-.135a.4.4 0 0 1-.171.032zm-.236-.047a.6.6 0 0 0 .236.047v-.15a.4.4 0 0 1-.171-.032zm-.071-.051q.024.03.071.05l.065-.134q-.026-.014-.024-.015zm-.02-.03q.007.015.02.03l.112-.1l.006.011zm-.007-.032q0 .015.007.032l.138-.059l.005.027z"/></g></g></svg>