<svg xmlns="http://www.w3.org/2000/svg" xmlns:xlink="http://www.w3.org/1999/xlink" width="32" height="24" viewBox="0 0 32 24"><g fill="none" fill-rule="evenodd" clip-rule="evenodd"><path fill="#F7FCFF" d="M0 0v24h32V0H0z"/><path fill="#E8AA00" d="M17.602 8.215c.242.138.388.49.388.49h-4.088l.282-.49s-.282-.128-.14-.128c.141 0 .546-.568.546-.568h-.168s-.087-.142.168-.142c.256 0 .46-.914.46-.914s.168-.428-.242-.536c-.411-.108-.906.358-.906.358s.12-.745.282-.907c.075-.075.215-.087.343-.098c.148-.012.28-.023.28-.128c0-.196.482-.349 1.268-.349c.787 0 1.072.94 1.072 1.124c0 .185.27 1.165.27 1.165s-.27 0-.27.127c0 .126.843.673.843.673s-.63.185-.387.323zM2.777 4.87c.314-.135 3.501.815 5.889 1.526c1.373.41 2.481.74 2.627.74c.398 0 1.148.965.773 1.371c-.375.406-.502.644-.25.644c.25 0 1.516-.329 1.516-.329v3.772s-1.213.288-1.517 0c-.147-.14-.37-.148-.563-.155c-.205-.008-.373-.014-.373-.176c0-.313-.699-.363-.699-.363s-.646-.213-.646-.414c0-.2-.424-.767-.424-.767s-1.612-.913-2.984-1.915c-.277-.203-.55-.393-.813-.576c-1.035-.721-1.888-1.316-2.042-2.005c-.716-.71-.988-1.141-.494-1.353zm10.067 7.962s-.543.374-1.144 1.376c-.295.493-.32.927-.336 1.24c-.018.325-.029.521-.325.521a2.6 2.6 0 0 0-.8.136a1.35 1.35 0 0 1-.369.076c-.274 0-.8 1.035-.537 1.275s1.366.621 1.366 0s.296-.974.835-.974c.539 0 1.502-.357 1.502-1.14c0-.783 1.05-.727 1.05-.727l-1.242-1.783zM23.56 6.396c2.388-.711 5.575-1.661 5.889-1.526c.494.212.222.644-.494 1.353c-.154.69-1.007 1.284-2.043 2.005c-.262.183-.535.373-.812.576c-1.372 1.002-2.985 1.915-2.985 1.915s-.423.567-.423.768c0 .2-.646.413-.646.413s-.7.05-.7.363c0 .162-.167.168-.372.176c-.192.007-.416.016-.563.155c-.304.288-1.517 0-1.517 0V8.822s1.266.329 1.517.329c.25 0 .124-.238-.251-.644s.375-1.371.773-1.371c.146 0 1.254-.33 2.627-.74zm-4.178 6.436s.543.374 1.144 1.376c.296.493.32.927.336 1.24c.018.325.029.521.325.521a2.6 2.6 0 0 1 .8.136c.14.041.257.076.369.076c.274 0 .8 1.035.537 1.275s-1.366.621-1.366 0s-.296-.974-.835-.974c-.54 0-1.502-.357-1.502-1.14c0-.783-1.05-.727-1.05-.727l1.242-1.783zm-5.842 2.61c0-.345.61-.605.61-.605l1.834-.774l.024.465l.023-.465l1.835.774s.61.26.61.605c0 .173.258.479.517.784c.258.303.515.606.515.777c0 .3-.696.978-1.117 1.386l-.154.15c-.096.096-.2.214-.308.337c-.31.35-.651.738-.938.738c-.202 0-.365.14-.522.275c-.143.124-.281.242-.438.242a.032.032 0 0 1-.023-.01a.036.036 0 0 1-.024.01c-.157 0-.294-.118-.438-.242c-.157-.134-.32-.275-.522-.275c-.287 0-.629-.388-.938-.738a7.354 7.354 0 0 0-.308-.336l-.154-.15c-.42-.41-1.117-1.086-1.117-1.387c0-.17.257-.474.515-.777c.259-.305.518-.61.518-.784z"/><path fill="#46A000" d="M7.01 10.673c.04.463.172.736.172.736s.231.364.363.368c.067.168.14.34.22.514c.36.96.85 2.222 1.353 3.371a.806.806 0 0 0-.142-.081c-.421-.197-.723-.22-.723-.22s-.564.025-.506.185c.059.16.758.507 1.042.404l.095-.034c.13-.045.25-.086.284-.14l.201.447c-.42-.196-.72-.219-.72-.219s-.565.024-.506.184c.058.16.757.508 1.04.404l.096-.033c.079-.027.154-.053.208-.081c.507 1.08.996 1.943 1.345 2.16h.705s-.61-.86-1.377-2.065c.232-.164.554-.526.554-.754l.001-.101c.005-.266.008-.493-.284-.201c-.329.328-.453.604-.453.604s-.015.047-.032.114a54.07 54.07 0 0 1-.186-.3c.231-.163.559-.53.559-.759v-.101c.005-.266.009-.492-.283-.201c-.329.328-.453.604-.453.604s-.015.048-.032.116a47.68 47.68 0 0 1-.268-.445c.227-.12.64-.55.64-.808l.001-.101c.005-.266.009-.493-.283-.201c-.33.328-.454.604-.454.604s-.037.117-.059.243a40.14 40.14 0 0 1-.347-.605h.011c.17 0 .736-.538.736-.84l.001-.1c.005-.267.008-.493-.284-.202a2.295 2.295 0 0 0-.453.604s-.084.265-.075.423c-.157-.283-.31-.567-.456-.849h.004c.17 0 .736-.538.736-.84l.001-.1c.005-.267.008-.493-.284-.202c-.328.328-.453.604-.453.604s-.075.239-.076.398a20.43 20.43 0 0 1-.425-.886c-.07-.185-.134-.359-.193-.519a.062.062 0 0 0 .023-.018c.11-.13.06-.909-.17-1.103a5.56 5.56 0 0 1-.077-.066c-.201-.174-.372-.323-.337.088zm.782 1.184s.023-.302.22-.723c.174-.374.248-.16.335.092c.01.031.022.064.034.095c.103.284-.245.983-.405 1.041c-.16.059-.184-.505-.184-.505zm.788 2.889c-.42-.197-.722-.22-.722-.22s-.564.024-.506.184c.058.16.757.508 1.041.404l.096-.033c.251-.087.465-.16.091-.335zm-1.118-1.12s.302.023.723.22c.374.175.16.249-.092.335l-.095.034c-.284.103-.983-.244-1.041-.404c-.058-.16.505-.184.505-.184zm.394-.68c-.421-.196-.723-.219-.723-.219s-.564.024-.506.184c.059.16.758.508 1.042.404l.095-.033c.251-.087.465-.16.092-.336zm-.881-1.301s.276.124.604.453c.292.292.065.288-.2.284l-.102-.001c-.302 0-.84-.566-.84-.736c0-.17.538 0 .538 0z"/><path fill="#0093E1" d="M28.692 10.339h-2.138s.454 0 .503.437c0 0 .01 3.694 0 3.984c-.01.29-.503.39-.503.39s2.593.007 2.138 0a.564.564 0 0 1-.556-.39v-3.984c0-.337.556-.437.556-.437zM4.565 14.853a6000.93 6000.93 0 0 0-1.735-4.449h1.478c-.256 0-.352.327-.352.327l1.036 2.953s1.002-2.41 1.002-2.838c0-.428-.42-.442-.42-.442H7.5l-.466.156s-1.542 3.536-1.542 4.293c-.074.168.71.28.71.28h-2.07l.432-.28zm17.702-1.396l1.145-2.111l.034 2.348l-.355-.115l-.252 1.569l1.267-2.43l-.422-.159l1.569-1.697l-.534 2.294l-.304-.267l-1.797 3.352l2.006-2.298l-.387-.193l1.98-1.296l-.862 2.112l-.48-.346l-2.036 2.562l-.844-.325l.844-3h-.572zm-.662 4.003h-.634v.482h-.498L19.06 19.58h.78l.27.923l.363-.326v.326l.708-.326l.677.586l.505-2.253l-.34-.25l.175-.152l-.175-.648h-.418z"/><path fill="#F7FCFF" d="M12.344 8.013s.93.642 1.86.642c.931 0 1.862-.642 1.862-.642s.93.642 1.861.642c.93 0 1.861-.642 1.861-.642v2.9c0 3-3.722 5.325-3.722 5.325s-3.903-2.135-3.722-5.36V8.013z"/><path fill="#2E42A5" d="M12.08 7.82h7.84v3.02h-7.84V7.82z"/><path fill="#AF0100" d="M13.595 10.84h-.659v6.105h.66V10.84zm1.12 0h-.659v6.105h.66V10.84zm.462 0h.658v6.105h-.659V10.84zm1.778 0h-.658v6.105h.658V10.84zm.462 0h.658v6.105h-.659V10.84zm1.778 0h-.659v6.105h.66V10.84z"/></g></svg>