<svg xmlns="http://www.w3.org/2000/svg" xmlns:xlink="http://www.w3.org/1999/xlink" width="32" height="24" viewBox="0 0 32 24"><mask id="flagpackZw0" width="32" height="24" x="0" y="0" maskUnits="userSpaceOnUse"><path fill="#fff" d="M0 0h32v24H0z"/></mask><g fill="none" mask="url(#flagpackZw0)"><path fill="#F7FCFF" fill-rule="evenodd" d="M0 0v24h32V0H0z" clip-rule="evenodd"/><mask id="flagpackZw1" width="32" height="24" x="0" y="0" maskUnits="userSpaceOnUse"><path fill="#fff" fill-rule="evenodd" d="M0 0v24h32V0H0z" clip-rule="evenodd"/></mask><g mask="url(#flagpackZw1)"><path fill="#FECA00" fill-rule="evenodd" d="M0 2v20h32V2H0z" clip-rule="evenodd"/><path fill="#272727" stroke="#E31D1C" stroke-width="3.5" d="M0 8.25h-1.75v7.5h35.5v-7.5H0z"/><path fill="#5EAA22" fill-rule="evenodd" d="M0 4V0h32v4H0zm0 20v-4h32v4H0z" clip-rule="evenodd"/></g><path fill="#F7FCFF" stroke="#272727" stroke-width="2" d="M.597-.802L-1-1.991V25.96l1.587-1.15l16.331-11.85l1.102-.799l-1.092-.812L.597-.802z"/><mask id="flagpackZw2" width="22" height="32" x="-2" y="-4" maskUnits="userSpaceOnUse"><path fill="#fff" stroke="#fff" stroke-width="2" d="M.597-.802L-1-1.991V25.96l1.587-1.15l16.331-11.85l1.102-.799l-1.092-.812L.597-.802z"/></mask><g mask="url(#flagpackZw2)"><path fill="#E31D1C" fill-rule="evenodd" d="M7.478 14.278L3.7 17.328l1.733-4.076l-2.979-2.868H5.97l1.443-3.459l1.532 3.459h3.51l-3.136 2.868l1.57 4.077l-3.41-3.05z" clip-rule="evenodd"/><path fill="#FECA00" fill-rule="evenodd" d="M5.018 8.422s-.055-.133.269-.25c.323-.117.422-.364.676-.182c.254.182.413-.184.485.342c.073.525.274 1.355.274 1.355l3.288 2.47h-.618s-.962 1.413-.803 2.653c0 0-.664-.1-1.563-.1c-.9 0-1.489.215-1.489.215l-.52-1.924s.189-.323.27-.583c.08-.26.415-.309.415-.516c0-.207-.33-.38-.165-.917s.165-2.14.165-2.14s-.522-.23-.415-.23c.106 0 .348-.193.174-.193h-.443z" clip-rule="evenodd"/><path stroke="#0A0A0A" stroke-width=".25" d="m6.722 9.687l-.121.029l.01.044l.036.027l2.988 2.245h-.309l-.037.055l.103.07l-.103-.07l-.001.001l-.003.004l-.008.013a5.17 5.17 0 0 0-.14.23a6.29 6.29 0 0 0-.32.634c-.206.473-.401 1.093-.367 1.697a12.662 12.662 0 0 0-1.424-.082c-.46 0-.84.056-1.107.11a4.123 4.123 0 0 0-.295.073l-.472-1.749l.006-.011c.02-.035.046-.085.075-.143c.058-.116.13-.269.173-.41c.027-.085.095-.14.194-.214l.003-.002c.044-.034.098-.074.14-.123a.32.32 0 0 0 .084-.213a.459.459 0 0 0-.063-.214a2.524 2.524 0 0 0-.036-.064a1.333 1.333 0 0 1-.056-.109c-.051-.111-.088-.257-.015-.493c.045-.147.077-.358.1-.585c.023-.23.04-.483.05-.718a22.485 22.485 0 0 0 .02-.804v-.07h-.125h.125v-.083l-.074-.032l-.002-.001l-.004-.002l-.016-.007l-.057-.026a7.24 7.24 0 0 1-.135-.063a.48.48 0 0 0 .075-.079a.181.181 0 0 0 .033-.101a.149.149 0 0 0-.08-.131a.223.223 0 0 0-.106-.023h-.15a1.189 1.189 0 0 0 .248-.122l.07-.046a.862.862 0 0 1 .082-.05c.04-.023.064-.03.082-.029c.017 0 .047.006.096.041a.463.463 0 0 0 .387.066c.012.02.031.072.048.192c.037.268.106.61.165.884a24.83 24.83 0 0 0 .102.446l.006.027l.002.008v.002l.122-.03z"/></g></g></svg>