<svg xmlns="http://www.w3.org/2000/svg" xmlns:xlink="http://www.w3.org/1999/xlink" width="30" height="30" viewBox="0 0 30 30"><path fill="currentColor" d="M1.48 16.91c0 1.12.33 2.13 1 3.01q1.005 1.32 2.58 1.77c.09.01.17-.01.24-.08l1.17-1.41c-.89 0-1.66-.32-2.3-.97s-.96-1.42-.96-2.33c0-.83.28-1.55.85-2.17c.57-.61 1.27-.97 2.11-1.07l.49-.03c.13 0 .2-.06.2-.19l.07-.54c.11-1.08.57-1.99 1.38-2.72s1.77-1.1 2.86-1.1c1.1 0 2.06.37 2.88 1.1s1.28 1.64 1.39 2.72l.07.59c.04.11.12.17.22.17h1.64c.88 0 1.64.32 2.28.95s.96 1.4.96 2.28c0 .84-.28 1.58-.85 2.21s-1.25.98-2.07 1.05c-.49.06-.79.15-.9.28l-2.19 2.82a.84.84 0 0 0-.16.63c.03.23.13.42.31.56q.225.255.6.21t.6-.36l1.92-2.46c.82-.08 1.57-.35 2.25-.82c.68-.46 1.21-1.06 1.61-1.79c.39-.73.59-1.51.59-2.34q0-1.08-.42-2.01c.79-.96 1.18-2.07 1.18-3.33c0-.71-.14-1.38-.42-2.03a5.3 5.3 0 0 0-1.13-1.68c-.47-.47-1.03-.84-1.68-1.12q-.975-.42-2.04-.42c-1.5 0-2.79.58-3.88 1.74c-.79-.44-1.7-.66-2.72-.66q-2.115 0-3.75 1.32c-1.635 1.32-1.78 2-2.07 3.37c-1.13.26-2.06.83-2.79 1.73s-1.12 1.97-1.12 3.12m3.9 8.24c.07.22.23.38.46.48c.22.1.44.1.67.01s.38-.25.46-.47a.71.71 0 0 0 0-.62a.88.88 0 0 0-.45-.46a.8.8 0 0 0-.66-.02c-.22.09-.37.24-.45.46c-.09.25-.1.46-.03.62m1.81-2.74v.11c.02.22.12.4.3.55s.38.22.63.2c.24-.02.43-.12.57-.29l2.18-2.82c.14-.18.21-.39.19-.63s-.12-.43-.29-.57a.84.84 0 0 0-.63-.19c-.24.02-.44.13-.6.31l-2.15 2.8c-.14.16-.2.34-.2.53m.51 4.86q0 .09.06.3c.09.22.24.37.46.46c.11.04.23.07.36.07c.09 0 .2-.02.31-.05c.21-.08.36-.23.44-.44c.1-.22.11-.44.02-.67a.71.71 0 0 0-.45-.46c-.22-.1-.44-.1-.67-.01s-.38.24-.45.45c-.05.11-.08.23-.08.35m1.67-2.37v.1c.02.23.13.42.33.58c.15.16.35.23.6.2a.84.84 0 0 0 .6-.34l4.14-5.23c.14-.2.19-.41.17-.64s-.13-.42-.31-.59a.8.8 0 0 0-.62-.17c-.23.03-.42.13-.56.31l-4.16 5.26c-.13.15-.19.33-.19.52m.58-20.29c0 .24.09.44.27.59l.61.66c.16.16.34.24.54.26c.21.03.41-.04.61-.22s.3-.39.3-.64c0-.22-.08-.43-.24-.6l-.64-.65a.75.75 0 0 0-.58-.24c-.24 0-.45.08-.62.24c-.16.17-.25.37-.25.6m2.95 21.43c0 .12.02.22.07.31c.09.22.24.37.45.46c.11.05.22.08.35.08q.09 0 .3-.06c.22-.09.38-.24.46-.46a.8.8 0 0 0 .02-.66a.72.72 0 0 0-.45-.45a.82.82 0 0 0-.67-.02a.76.76 0 0 0-.46.45c-.05.11-.07.23-.07.35m2.4-17.01c.71-.64 1.53-.97 2.48-.97c.99 0 1.83.34 2.53 1.03s1.05 1.51 1.05 2.49c0 .66-.17 1.28-.52 1.86c-.97-.97-2.13-1.45-3.48-1.45h-.34a5.73 5.73 0 0 0-1.72-2.96m1.63-5.26c0 .23.08.43.25.59q.255.24.6.24c.24 0 .45-.08.62-.24s.25-.36.25-.59V1.7c0-.23-.09-.43-.26-.6a.84.84 0 0 0-.61-.25c-.23 0-.43.08-.6.25s-.25.37-.25.6zm5.57 2.28c0 .24.07.44.22.6c.18.17.38.25.61.26c.23 0 .42-.08.57-.26l1.5-1.45c.16-.16.24-.37.24-.61s-.09-.44-.26-.61a.83.83 0 0 0-.6-.26c-.22 0-.42.08-.6.25l-1.45 1.47a.9.9 0 0 0-.23.61m.78 11.9q0 .36.24.6l.66.63q.24.24.54.27h.06c.18 0 .38-.09.62-.27c.16-.16.24-.36.24-.58q0-.36-.24-.63l-.66-.62a.78.78 0 0 0-.59-.25c-.24 0-.45.08-.62.25a.84.84 0 0 0-.25.6m1.5-6.37q0 .36.24.6q.24.27.6.27h2.04c.24 0 .44-.09.61-.26s.25-.38.25-.61s-.08-.43-.25-.59a.85.85 0 0 0-.61-.24h-2.04q-.36 0-.6.24c-.16.16-.24.36-.24.59"/></svg>