<svg xmlns="http://www.w3.org/2000/svg" xmlns:xlink="http://www.w3.org/1999/xlink" width="30" height="30" viewBox="0 0 30 30"><path fill="currentColor" d="M5.25 15.3c0 .16.06.29.17.4c.11.11.25.16.4.16H8.8c.14 0 .27-.04.38-.13c.11-.09.17-.2.2-.34l.9-5.27L11.9 23.3c.02.14.09.26.19.36c.1.09.22.14.36.14c.15 0 .28-.05.38-.14s.17-.21.2-.36l1.25-9.67l1.04 2.8c.04.11.1.2.2.27s.2.1.32.1h.05c.12-.01.23-.05.32-.13c.1-.08.16-.18.19-.31l1.53-6.86l.71 13.18c.01.14.06.27.15.37c.09.1.21.16.36.17c.14.01.27-.02.38-.1a.59.59 0 0 0 .22-.33l1.65-6.94h2.77c.16 0 .29-.05.4-.16c.11-.11.17-.24.17-.4c0-.16-.06-.29-.17-.4a.56.56 0 0 0-.4-.17h-3.23c-.13 0-.25.04-.35.12s-.17.18-.2.31l-.83 3.54l-.72-13.36a.568.568 0 0 0-.16-.37a.5.5 0 0 0-.36-.16c-.14-.01-.27.02-.39.11s-.19.2-.22.34l-2 8.97l-1.16-3.16c-.04-.12-.12-.21-.24-.28s-.24-.1-.36-.08c-.13.01-.24.07-.33.16c-.09.09-.15.21-.17.34l-.98 7.51l-1.53-12.56a.635.635 0 0 0-.19-.35a.585.585 0 0 0-.36-.15a.527.527 0 0 0-.38.12c-.11.09-.18.2-.2.35l-1.48 8.61H5.82c-.16 0-.29.06-.4.17c-.11.11-.17.24-.17.4z"/></svg>