<svg xmlns="http://www.w3.org/2000/svg" xmlns:xlink="http://www.w3.org/1999/xlink" width="30" height="30" viewBox="0 0 30 30"><path fill="currentColor" d="M3.74 14.44c0-1.52.3-2.98.89-4.37s1.4-2.58 2.4-3.59s2.2-1.81 3.59-2.4s2.84-.89 4.37-.89s2.98.3 4.37.89s2.59 1.4 3.6 2.4s1.81 2.2 2.4 3.59s.89 2.84.89 4.37s-.3 2.98-.89 4.37s-1.4 2.59-2.4 3.6s-2.2 1.81-3.6 2.4s-2.85.89-4.37.89s-2.98-.3-4.37-.89s-2.58-1.4-3.59-2.4s-1.81-2.2-2.4-3.6s-.89-2.84-.89-4.37zM15.15 4.39c1.83 3.22 2.74 6.57 2.74 10.05c0 4.16-.88 7.51-2.65 10.06c1.34-.03 2.61-.32 3.82-.86s2.25-1.27 3.13-2.16s1.57-1.95 2.09-3.18s.78-2.51.78-3.86c0-1.8-.44-3.46-1.33-5s-2.08-2.75-3.6-3.65s-3.18-1.37-4.98-1.4z"/></svg>