<svg xmlns="http://www.w3.org/2000/svg" xmlns:xlink="http://www.w3.org/1999/xlink" width="30" height="30" viewBox="0 0 30 30"><path fill="currentColor" d="M4.09 16.89q0 1.665.99 2.97c.66.87 1.52 1.47 2.58 1.79l-.65 1.7c-.04.14 0 .21.14.21h2.12l-1.29 4.18h.28l4.23-5.62c.04-.04.04-.09.02-.14c-.03-.05-.07-.07-.14-.07h-2.18l2.47-4.64c.07-.14.03-.22-.13-.22H9.57c-.09 0-.16.05-.22.15l-1.07 2.88c-.71-.18-1.3-.57-1.78-1.17s-.71-1.27-.71-2.01c0-.83.28-1.55.85-2.17c.57-.61 1.27-.97 2.1-1.07l.53-.07c.13 0 .2-.06.2-.18l.07-.51c.11-1.08.56-1.99 1.37-2.72s1.76-1.1 2.85-1.1s2.04.37 2.86 1.1s1.28 1.64 1.4 2.71l.07.57c0 .12.06.19.17.19h1.62c.91 0 1.68.32 2.33.95s.97 1.4.97 2.28c0 .85-.3 1.59-.9 2.21s-1.33.97-2.2 1.03c-.12 0-.19.06-.19.19v1.36c0 .12.06.18.19.18c1.33-.04 2.46-.55 3.39-1.51c.93-.97 1.39-2.12 1.39-3.45c0-.87-.22-1.68-.66-2.45c.76-.74 1.27-1.61 1.51-2.62l.19-.68c.01-.01.01-.03.01-.07c0-.08-.05-.13-.15-.16l-.62-.17c-.57-.17-1.06-.45-1.46-.84s-.68-.8-.85-1.22s-.25-.84-.24-1.26c0-.28.03-.56.1-.85l.11-.61c.02-.1-.02-.18-.14-.23l-.8-.24c-.47-.09-.88-.14-1.24-.14c-.37-.01-.75.03-1.13.12c-.38.08-.78.22-1.19.4s-.8.45-1.18.79q-.57.51-.99 1.2c-.83-.31-1.62-.46-2.36-.46c-1.41 0-2.67.44-3.76 1.32s-1.8 2-2.11 3.36c-1.11.26-2.02.84-2.74 1.74c-.71.89-1.07 1.92-1.07 3.07m9.59 6.07c0 .24.08.44.24.59c.16.16.36.24.58.24c.24 0 .44-.08.61-.24s.25-.36.25-.59c0-.24-.08-.44-.25-.61s-.37-.26-.61-.26c-.22 0-.41.09-.58.26s-.24.37-.24.61m0-3.64c0 .24.08.43.24.58c.16.16.36.24.58.24c.24 0 .45-.08.61-.23s.25-.35.25-.59c0-.23-.08-.43-.25-.6s-.37-.25-.61-.25c-.23 0-.42.08-.58.25s-.24.37-.24.6m0 7.31q0 .33.24.57c.17.17.36.25.58.25c.24 0 .44-.08.61-.24s.25-.35.25-.59s-.08-.44-.25-.61a.83.83 0 0 0-.61-.26c-.22 0-.41.09-.58.26c-.16.18-.24.39-.24.62m3.23-5.61c0 .24.08.44.25.6s.36.25.6.25c.23 0 .43-.08.59-.25q.24-.255.24-.6c0-.22-.08-.42-.24-.58a.8.8 0 0 0-.59-.24q-.345 0-.6.24c-.255.24-.25.35-.25.58m0 3.64c0 .23.08.42.24.58q.24.24.6.24c.24 0 .43-.08.59-.24s.23-.35.23-.59s-.08-.43-.23-.59a.78.78 0 0 0-.59-.23c-.24 0-.44.08-.6.23q-.24.24-.24.6m.68-15.89c.33-.56.78-.99 1.34-1.29s1.15-.45 1.76-.45h.22v.32c0 .64.11 1.26.34 1.86s.56 1.15 1.02 1.66c.45.51.99.91 1.61 1.21c-.17.38-.42.72-.76 1.03c-.91-.78-1.98-1.17-3.22-1.17h-.33c-.29-1.26-.95-2.32-1.98-3.17"/></svg>