<svg xmlns="http://www.w3.org/2000/svg" xmlns:xlink="http://www.w3.org/1999/xlink" width="30" height="30" viewBox="0 0 30 30"><path fill="currentColor" d="M2.88 15.47c0-.28.1-.5.3-.68c.17-.18.4-.26.68-.26h2.31a.904.904 0 0 1 .93.94c0 .28-.09.52-.27.71s-.4.29-.66.29h-2.3q-.405 0-.69-.3c-.2-.2-.3-.43-.3-.7m3.29-7.86c0-.28.08-.51.25-.68c.2-.2.43-.3.7-.3c.29 0 .51.1.68.3l1.62 1.63q.69.66 0 1.35a.88.88 0 0 1-.65.28c-.22 0-.44-.09-.68-.28L6.43 8.29a.96.96 0 0 1-.26-.68m1.97 13.28q0-.39.3-.69c.18-.18.41-.27.68-.27h3.22c.11 0 .2.02.28.08l2.35 2.22L17.36 20c.07-.05.17-.08.29-.08h3.3c.27 0 .5.09.69.28s.29.42.29.68c0 .27-.1.5-.29.69s-.42.29-.69.29h-2.68l-3.14 2.84q-.18.135-.33 0l-3.08-2.84h-2.6c-.27 0-.5-.1-.69-.29a.9.9 0 0 1-.29-.68m.94-5.42c0 .99.19 1.87.58 2.62c.06.11.15.16.27.16h1.87c.08 0 .13-.02.15-.07s-.01-.11-.07-.18c-.59-.74-.89-1.59-.89-2.53c0-1.1.39-2.04 1.18-2.81s1.74-1.16 2.85-1.16c1.1 0 2.04.39 2.83 1.16c.78.78 1.18 1.71 1.18 2.8c0 .94-.3 1.79-.89 2.53c-.07.07-.09.13-.07.18s.07.07.15.07h1.88c.13 0 .21-.05.24-.16c.41-.78.62-1.66.62-2.62c0-.79-.16-1.56-.47-2.29s-.74-1.37-1.27-1.9s-1.16-.95-1.89-1.27a5.7 5.7 0 0 0-2.3-.47c-.8 0-1.57.16-2.3.47c-.73.32-1.36.74-1.89 1.27s-.95 1.16-1.27 1.9s-.49 1.51-.49 2.3m4.96-8.81V4.33c0-.27.1-.5.29-.69s.42-.29.69-.29s.5.1.69.29s.29.42.29.69v2.32c0 .27-.1.5-.29.69s-.42.29-.69.29s-.5-.1-.69-.29a.9.9 0 0 1-.29-.68m6.27 2.58c0-.28.09-.51.26-.67l1.63-1.63c.16-.2.39-.3.68-.3c.27 0 .5.1.68.29q.27.285.27.69c0 .28-.08.51-.25.68l-1.66 1.63c-.23.19-.46.28-.69.28a.87.87 0 0 1-.66-.28c-.17-.19-.26-.42-.26-.69m2.59 6.23c0-.27.09-.49.26-.67s.4-.27.67-.27h2.32q.405 0 .69.27c.19.18.29.4.29.67s-.1.5-.29.7q-.285.3-.69.3h-2.32c-.26 0-.48-.1-.66-.29a1 1 0 0 1-.27-.71"/></svg>