<svg xmlns="http://www.w3.org/2000/svg" xmlns:xlink="http://www.w3.org/1999/xlink" width="30" height="30" viewBox="0 0 30 30"><path fill="currentColor" d="M4.64 14.65c.01-.34.18-.86.5-1.58c.32-.72.76-1.48 1.33-2.3c1.86-2.61 4.49-3.98 7.88-4.13v-.43c0-.21.07-.37.21-.5c.14-.13.3-.19.48-.19c.19 0 .35.06.5.19c.14.13.22.3.22.5v.44c.98.04 1.9.19 2.75.45c.85.26 1.59.59 2.22 1c.63.41 1.17.83 1.61 1.27c.45.43.85.9 1.2 1.41c.41.59.77 1.23 1.06 1.9c.29.67.5 1.21.61 1.61c.11.4.17.6.18.61v.19c0 .18-.07.32-.21.44s-.3.17-.49.17c-.31 0-.51-.09-.6-.26c-.78-.88-1.63-1.31-2.55-1.31c-.34.02-.69.1-1.03.23c-.34.13-.62.27-.82.42c-.21.14-.4.29-.58.44c-.18.15-.27.22-.28.23c-.19.17-.37.26-.53.26c-.23 0-.4-.06-.52-.18c-.73-.73-1.39-1.17-2.01-1.32v7.74l-.01.21l-.04.23l-.06.25l-.09.26l-.13.27l-.17.26l-.21.25c-.51.59-1.23.88-2.18.88c-1.01 0-1.77-.29-2.28-.88c-.12-.12-.22-.25-.31-.38c-.09-.14-.16-.27-.21-.41c-.05-.13-.09-.26-.12-.38s-.05-.24-.06-.36c-.02-.15-.03-.25-.03-.33v-.23c0-.07.01-.12.01-.13c0-.18.08-.34.23-.47a.64.64 0 0 1 .55-.14c.18 0 .32.08.44.23s.18.34.18.56c-.06.41.02.76.25 1.05c.21.29.65.44 1.32.44c.52 0 .9-.12 1.13-.36c.13-.13.23-.29.29-.48c.06-.19.09-.34.08-.47l-.01-.19v-7.36c-.73.18-1.38.56-1.93 1.14c-.04.08-.12.16-.23.23s-.21.11-.3.11c-.18 0-.38-.11-.6-.34c-.8-.89-1.65-1.33-2.55-1.31c-.4.01-.78.07-1.12.2c-.35.13-.61.26-.79.39c-.17.13-.36.28-.54.45s-.29.27-.32.29c-.21.14-.38.22-.51.22s-.3-.06-.48-.17c-.16-.1-.26-.21-.3-.32c-.03-.12-.04-.29-.03-.51zm2.09-1.42c.68-.36 1.32-.53 1.92-.53h.08c1.15 0 2.2.44 3.15 1.33c.38-.33.84-.62 1.39-.88c.54-.26 1.13-.41 1.77-.45h.08c1.15 0 2.2.44 3.15 1.33c.38-.33.84-.62 1.39-.88c.54-.26 1.13-.41 1.77-.45h.09c.56 0 1.15.15 1.75.44c-.44-.86-.74-1.41-.88-1.66c-1.79-2.34-4.27-3.51-7.43-3.51c-1.58 0-2.99.3-4.24.9c-1.24.6-2.26 1.47-3.05 2.61c-.23.34-.55.93-.94 1.75z"/></svg>