<svg xmlns="http://www.w3.org/2000/svg" xmlns:xlink="http://www.w3.org/1999/xlink" width="1534" height="1536" viewBox="0 0 1534 1536"><path d="M0 767q0-156 60.5-298.5t163-244.5t244-163T765 0q157 0 299 61t245 163.5T1473 469t61 297q0 156-61 298.5T1309 1310t-245 163.5t-298 60.5q-155 0-297-60.5t-244.5-163T61 1066T0 767zm168 0q0 162 80.5 299.5t218.5 217t299 79.5q121 0 232-47.5t191.5-127.5t128-190.5T1365 766q0-244-178-422q-178-176-422-176q-121 0-231.5 48T343 344T215.5 535T168 767zm357 233l250-605q1-10 10-10q10 0 14 10l104 231q2 9 16 14l230 104q11 4 11 14q0 9-11 12l-605 248q-10 4-15-1t-4-17z" fill="currentColor"/></svg>