<svg xmlns="http://www.w3.org/2000/svg" xmlns:xlink="http://www.w3.org/1999/xlink" width="30" height="30" viewBox="0 0 30 30"><path fill="currentColor" d="M6.77 19.61c0 .97.35 1.81 1.06 2.52s1.55 1.06 2.52 1.06h6.85q1.455 0 2.49-1.05c.69-.7 1.04-1.54 1.04-2.53q0-.72-.21-1.23c.83-.53 1.49-1.24 1.97-2.12s.73-1.83.73-2.84c0-.81-.16-1.59-.47-2.33c-.32-.74-.74-1.38-1.28-1.91s-1.17-.96-1.91-1.28s-1.51-.48-2.32-.48c-1.09 0-2.1.27-3.02.81s-1.65 1.27-2.18 2.18c-.53.92-.79 1.92-.79 3.01v.34c-1.01.57-1.67 1.41-1.99 2.49c-.76.24-1.36.66-1.81 1.27a3.44 3.44 0 0 0-.68 2.09m1.98 0c0-.42.13-.78.4-1.08q.405-.45 1.02-.51l.63-.08c.12 0 .19-.08.19-.23l.1-.56c.07-.58.31-1.06.73-1.44c.42-.39.91-.58 1.48-.58c.58 0 1.09.19 1.51.58q.645.585.75 1.44l.08.65c.06.15.15.23.25.23h1.31c.43 0 .8.16 1.12.47s.47.68.47 1.12c0 .45-.16.83-.47 1.15s-.69.48-1.12.48h-6.85q-.675 0-1.14-.48c-.465-.48-.46-.71-.46-1.16m4.43-6.39c.07-1.09.49-2.01 1.27-2.76c.78-.74 1.71-1.12 2.8-1.12c1.11 0 2.06.4 2.84 1.19s1.17 1.76 1.17 2.89q0 1.05-.51 1.95c-.34.6-.8 1.08-1.38 1.45c-.59-.49-1.27-.73-2.03-.73c-.29-.88-.81-1.57-1.54-2.09q-1.095-.78-2.49-.78z"/></svg>