<svg xmlns="http://www.w3.org/2000/svg" xmlns:xlink="http://www.w3.org/1999/xlink" width="48" height="48" viewBox="0 0 48 48"><path fill="#7CB342" d="M12 29.001a2 2 0 0 1-4 0v-9a2 2 0 0 1 4 0zm28 0a2 2 0 0 1-4 0v-9a2 2 0 0 1 4 0zM22 40a2 2 0 0 1-4 0v-9a2 2 0 0 1 4 0zm8 0a2 2 0 0 1-4 0v-9a2 2 0 0 1 4 0z"/><path fill="#7CB342" d="M14 18.001V33a2 2 0 0 0 2 2h16a2 2 0 0 0 2-2V18.001zM24 8c-6 0-9.655 3.645-10 8h20c-.346-4.355-4-8-10-8m-4 5.598a1 1 0 1 1 0-2a1 1 0 0 1 0 2m8 0a1 1 0 1 1 0-2a1 1 0 0 1 0 2"/><path fill="none" stroke="#7CB342" stroke-linecap="round" stroke-width="2" d="m30 7l-1.666 2.499M18 7l1.333 2.082"/></svg>