<svg xmlns="http://www.w3.org/2000/svg" xmlns:xlink="http://www.w3.org/1999/xlink" width="48" height="48" viewBox="0 0 48 48"><path fill="#8CBCD6" d="M40 41H8c-2.2 0-4-1.8-4-4V11c0-2.2 1.8-4 4-4h32c2.2 0 4 1.8 4 4v26c0 2.2-1.8 4-4 4"/><circle cx="35" cy="16" r="3" fill="#B3DDF5"/><path fill="#9AC9E3" d="M20 16L9 32h22z"/><path fill="#B3DDF5" d="m31 22l-8 10h16z"/><circle cx="38" cy="38" r="10" fill="#F44336"/><g fill="#fff"><path d="m43.31 41.181l-2.12 2.122l-8.485-8.484l2.121-2.122z"/><path d="m34.819 43.31l-2.122-2.12l8.484-8.485l2.122 2.121z"/></g></svg>