<svg xmlns="http://www.w3.org/2000/svg" xmlns:xlink="http://www.w3.org/1999/xlink" width="28" height="28" viewBox="0 0 28 28"><path fill="currentColor" d="M12 5.5a2 2 0 0 0 1.491 1.935c.337.053.68.053 1.018 0A2 2 0 1 0 12 5.5m-1.337 1.058a3.5 3.5 0 1 1 6.675 0l4.419-1.436a2.477 2.477 0 1 1 1.53 4.712L18 11.552v1.598a7.4 7.4 0 0 0-1.5.474V11.37c0-.541.349-1.021.864-1.189l5.46-1.774a.977.977 0 0 0-.604-1.859l-6.752 2.194q-.32.104-.649.162a3.5 3.5 0 0 1-1.639 0a5 5 0 0 1-.648-.162L5.78 6.548a.977.977 0 0 0-.604 1.859l5.46 1.774c.515.168.864.648.864 1.189v3.957c0 .35-.067.698-.198 1.024l-2.734 6.811a.977.977 0 0 0 .538 1.267a.96.96 0 0 0 1.252-.531l1.684-4.196a7.6 7.6 0 0 0 .342 3.174l-.634 1.58a2.46 2.46 0 0 1-3.21 1.363a2.477 2.477 0 0 1-1.364-3.215l2.734-6.812q.09-.224.09-.466v-3.774L4.712 9.834a2.477 2.477 0 0 1 1.531-4.712zM26 20.5a6.5 6.5 0 1 1-13 0a6.5 6.5 0 0 1 13 0m-2.646-2.854a.5.5 0 0 0-.708 0L18 22.293l-1.646-1.647a.5.5 0 0 0-.708.708l2 2a.5.5 0 0 0 .708 0l5-5a.5.5 0 0 0 0-.708"/></svg>