<svg xmlns="http://www.w3.org/2000/svg" xmlns:xlink="http://www.w3.org/1999/xlink" width="20" height="20" viewBox="0 0 20 20"><path fill="currentColor" d="M8.5 4.498a1.5 1.5 0 1 1 3 0a1.5 1.5 0 0 1-3 0m1.5-2.5a2.5 2.5 0 0 0-2.43 3.086L5.471 4.15a1.76 1.76 0 0 0-2.317.88c-.4.882-.008 1.917.877 2.31L7 8.662v2.287l-1.877 4.645a1.75 1.75 0 0 0 3.245 1.311l.086-.213a5.5 5.5 0 0 1-.424-1.618l-.589 1.457a.75.75 0 1 1-1.39-.562l1.876-4.645A1 1 0 0 0 8 10.949V8.662a1 1 0 0 0-.593-.914L4.438 6.427a.74.74 0 0 1-.373-.983a.76.76 0 0 1 1-.38l3.918 1.744a2.5 2.5 0 0 0 2.034 0l3.918-1.744a.76.76 0 0 1 1 .38a.74.74 0 0 1-.373.983l-2.969 1.321a1 1 0 0 0-.593.914v.545a5.5 5.5 0 0 1 1-.185v-.36l2.968-1.322a1.74 1.74 0 0 0 .877-2.31a1.76 1.76 0 0 0-2.317-.88l-2.097.934a2.5 2.5 0 0 0-2.43-3.086M18 14.5a4.5 4.5 0 1 1-9 0a4.5 4.5 0 0 1 9 0m-2.146-1.854a.5.5 0 0 0-.708 0L12.5 15.293l-.646-.647a.5.5 0 0 0-.708.708l1 1a.5.5 0 0 0 .708 0l3-3a.5.5 0 0 0 0-.708"/></svg>