<svg xmlns="http://www.w3.org/2000/svg" xmlns:xlink="http://www.w3.org/1999/xlink" width="24" height="24" viewBox="0 0 24 24"><path fill="currentColor" d="M11.214 1.383a1 1 0 0 1 1.579 0L14.206 3.2a.25.25 0 0 0 .291.079l2.131-.867a1 1 0 0 1 1.368.79l.315 2.279a.25.25 0 0 0 .213.213l2.28.315a1 1 0 0 1 .789 1.367l-.867 2.132a.25.25 0 0 0 .079.291l1.816 1.413a1 1 0 0 1 0 1.579l-1.816 1.413a.25.25 0 0 0-.079.291l.867 2.132a1 1 0 0 1-.79 1.367l-2.279.315a.25.25 0 0 0-.213.213l-.315 2.28a1 1 0 0 1-1.367.79l-2.132-.868a.25.25 0 0 0-.291.079l-1.413 1.816a1 1 0 0 1-1.579 0l-1.413-1.816a.25.25 0 0 0-.291-.079l-2.132.867a1 1 0 0 1-1.367-.79l-.315-2.279a.25.25 0 0 0-.213-.213l-2.28-.315a1 1 0 0 1-.79-1.367l.868-2.132a.25.25 0 0 0-.079-.291L1.386 12.79a1 1 0 0 1 0-1.579l1.816-1.413a.25.25 0 0 0 .079-.291l-.867-2.132a1 1 0 0 1 .79-1.367l2.279-.315a.25.25 0 0 0 .213-.213L6.01 3.2a1 1 0 0 1 1.367-.79l2.132.868a.25.25 0 0 0 .291-.079zM12.75 7.75a.75.75 0 0 0-1.5 0v3.5h-3.5a.75.75 0 0 0 0 1.5h3.5v3.5a.75.75 0 0 0 1.5 0v-3.5h3.5a.75.75 0 0 0 0-1.5h-3.5z"/></svg>