<svg xmlns="http://www.w3.org/2000/svg" xmlns:xlink="http://www.w3.org/1999/xlink" width="16" height="16" viewBox="0 0 16 16"><path fill="currentColor" d="M8 4.5a.5.5 0 0 1 .5.5v2.5H11a.5.5 0 0 1 0 1H8.5V11a.5.5 0 0 1-1 0V8.5H5a.5.5 0 0 1 0-1h2.5V5a.5.5 0 0 1 .5-.5M8.399.213a.5.5 0 0 0-.792 0L6.314 1.889a.5.5 0 0 1-.537.174l-2.03-.595a.5.5 0 0 0-.641.465l-.062 2.116a.5.5 0 0 1-.331.456l-1.994.712a.5.5 0 0 0-.244.753l1.194 1.748a.5.5 0 0 1 0 .564L.475 10.03a.5.5 0 0 0 .244.753l1.994.712a.5.5 0 0 1 .331.456l.062 2.116a.5.5 0 0 0 .64.465l2.031-.595a.5.5 0 0 1 .537.175l1.293 1.675a.5.5 0 0 0 .792 0l1.293-1.676a.5.5 0 0 1 .537-.174l2.03.595a.5.5 0 0 0 .641-.465l.062-2.116a.5.5 0 0 1 .331-.456l1.994-.712a.5.5 0 0 0 .244-.753l-1.194-1.748a.5.5 0 0 1 0-.564l1.194-1.748a.5.5 0 0 0-.245-.753l-1.993-.712a.5.5 0 0 1-.331-.456L12.9 1.933a.5.5 0 0 0-.64-.465l-2.031.595a.5.5 0 0 1-.537-.174zM7.105 2.5l.898-1.163l.898 1.163a1.5 1.5 0 0 0 1.609.522l1.41-.413l.042 1.469a1.5 1.5 0 0 0 .995 1.369l1.383.494l-.828 1.213a1.5 1.5 0 0 0 0 1.692l.828 1.213l-1.383.494a1.5 1.5 0 0 0-.995 1.37l-.043 1.468l-1.41-.413a1.5 1.5 0 0 0-1.608.522l-.898 1.163l-.898-1.163a1.5 1.5 0 0 0-1.609-.522l-1.41.413l-.042-1.469a1.5 1.5 0 0 0-.995-1.369l-1.383-.494l.828-1.213a1.5 1.5 0 0 0 0-1.692l-.828-1.213l1.383-.494a1.5 1.5 0 0 0 .995-1.37l.042-1.468l1.41.413a1.5 1.5 0 0 0 1.61-.522"/></svg>