<svg xmlns="http://www.w3.org/2000/svg" xmlns:xlink="http://www.w3.org/1999/xlink" width="48" height="48" viewBox="0 0 48 48"><path fill="currentColor" d="M19.016 5.561A2.327 2.327 0 0 1 21.331 3a4.84 4.84 0 0 1 4.404 2.833l5.925 13.002c2.272-.112 4.565-.335 6.84-.335a5.5 5.5 0 1 1 0 11c-2.275 0-4.568-.223-6.84-.335l-5.925 13.002A4.84 4.84 0 0 1 21.33 45a2.327 2.327 0 0 1-2.315-2.561l1.4-13.827l-3.756-.185l-1.68 2.94A5.23 5.23 0 0 1 10.443 34A2.443 2.443 0 0 1 8 31.557v-3.555L7.966 28a4 4 0 0 1 0-8L8 19.998v-3.555A2.443 2.443 0 0 1 10.443 14a5.23 5.23 0 0 1 4.537 2.633l1.68 2.94l3.757-.185zm2.508-.053l1.645 16.248l-7.919.389l-2.44-4.272a2.73 2.73 0 0 0-2.31-1.372v5.878l-2.47.121H8a1.5 1.5 0 0 0 0 3h.03l2.47.121V31.5a2.73 2.73 0 0 0 2.31-1.372l2.44-4.272l7.92.39l-1.646 16.247a2.34 2.34 0 0 0 1.936-1.361l6.628-14.546l8.112.4q.147.015.3.015a3 3 0 1 0-.3-5.985l-8.112.4L23.46 6.87a2.34 2.34 0 0 0-1.936-1.361"/></svg>