<svg xmlns="http://www.w3.org/2000/svg" xmlns:xlink="http://www.w3.org/1999/xlink" width="28" height="28" viewBox="0 0 28 28"><path fill="currentColor" d="M12.294 2c-.771 0-1.369.675-1.275 1.44l.996 8.137l-2.704.143l-1.643-2.876A1.68 1.68 0 0 0 6.213 8C5.543 8 5 8.543 5 9.213v2.733L3.978 12a2 2 0 0 0 0 4L5 16.054v2.733C5 19.457 5.543 20 6.213 20c.601 0 1.156-.322 1.455-.844L9.31 16.28l2.704.142l-.996 8.136A1.284 1.284 0 0 0 12.294 26a1.82 1.82 0 0 0 1.66-1.074l3.684-8.207c1.78.093 3.58.281 5.362.281a3 3 0 1 0 0-6c-1.782 0-3.582.188-5.362.281l-3.685-8.207A1.82 1.82 0 0 0 12.295 2"/></svg>