<svg xmlns="http://www.w3.org/2000/svg" xmlns:xlink="http://www.w3.org/1999/xlink" width="28" height="28" viewBox="0 0 28 28"><path fill="currentColor" d="M14 3a8.5 8.5 0 0 1 8.497 8.246l.004.255v4.612l1.414 3.644q.057.148.077.305l.01.158a1.28 1.28 0 0 1-1.15 1.273l-.13.007l-5.22.001a3.502 3.502 0 0 1-6.998.192l-.006-.194l-5.223.001a1.28 1.28 0 0 1-1.235-1.62l.042-.124l1.416-3.644v-4.61A8.5 8.5 0 0 1 14 3m1.996 18.65L16 21.5l-4 .001a2.001 2.001 0 0 0 3.997.15M14 4.5a7 7 0 0 0-6.997 6.76l-.004.241v4.752a.8.8 0 0 1-.023.184l-.028.088L5.596 20H22.4l-1.348-3.474a.8.8 0 0 1-.045-.18L21 16.254v-4.752A7 7 0 0 0 14 4.5"/></svg>