<svg xmlns="http://www.w3.org/2000/svg" xmlns:xlink="http://www.w3.org/1999/xlink" width="16" height="16" viewBox="0 0 16 16"><path fill="currentColor" d="M1.5 2a.5.5 0 0 0 0 1h13a.5.5 0 0 0 0-1zM2 5.75C2 4.784 2.784 4 3.75 4h1.5C6.216 4 7 4.784 7 5.75v6.5A1.75 1.75 0 0 1 5.25 14h-1.5A1.75 1.75 0 0 1 2 12.25zM3.75 5a.75.75 0 0 0-.75.75v6.5c0 .414.336.75.75.75h1.5a.75.75 0 0 0 .75-.75v-6.5A.75.75 0 0 0 5.25 5zM9 5.75C9 4.784 9.784 4 10.75 4h1.5c.966 0 1.75.784 1.75 1.75v4.5A1.75 1.75 0 0 1 12.25 12h-1.5A1.75 1.75 0 0 1 9 10.25zM10.75 5a.75.75 0 0 0-.75.75v4.5c0 .414.336.75.75.75h1.5a.75.75 0 0 0 .75-.75v-4.5a.75.75 0 0 0-.75-.75z"/></svg>