<svg xmlns="http://www.w3.org/2000/svg" xmlns:xlink="http://www.w3.org/1999/xlink" width="28" height="28" viewBox="0 0 28 28"><path fill="currentColor" d="M16.996 10.772L15.079 8.88a2.27 2.27 0 0 1 0-3.213a2.274 2.274 0 0 1 3.214 0l6.33 6.292a4.696 4.696 0 0 1 0 6.646a4.7 4.7 0 0 1-3.7 1.36a3.18 3.18 0 0 1-2.971 2.044H9.191A3.19 3.19 0 0 1 6 18.829v-1.864q-.245.036-.5.036a3.5 3.5 0 1 1 3.048-5.221a5.3 5.3 0 0 1 2.771-.777h4.505q.46 0 .901.076q.124-.157.27-.308m.238-4.044a.774.774 0 0 0-1.094 0a.77.77 0 0 0-.002 1.09l.002.001L19.362 11l-1.004.577c-.246.159-.51.468-.648.713l-.289.513l-.567-.159a3.8 3.8 0 0 0-1.03-.14h-4.505A3.816 3.816 0 0 0 7.5 16.308v2.52c0 .923.758 1.68 1.69 1.68H14v-.327c0-.927-.753-1.68-1.683-1.68h-1.571a.75.75 0 0 1 0-1.5h1.571a3.18 3.18 0 0 1 3.182 3.18v.327h2.453a1.68 1.68 0 0 0 1.668-1.477l.099-.84l.822.199a3.2 3.2 0 0 0 3.021-.848a3.196 3.196 0 0 0 .001-4.522v-.001zM7.36 12.766a2 2 0 1 0-1.286 2.65a5.3 5.3 0 0 1 1.286-2.65"/></svg>