<svg xmlns="http://www.w3.org/2000/svg" xmlns:xlink="http://www.w3.org/1999/xlink" width="48" height="48" viewBox="0 0 48 48"><path fill="currentColor" d="M18.25 6c-2.84 0-4.75 2.7-4.75 5.5s1.91 5.5 4.75 5.5S23 14.3 23 11.5S21.09 6 18.25 6M3 17.5C3 14.7 4.91 12 7.75 12s4.75 2.7 4.75 5.5S10.59 23 7.75 23S3 20.3 3 17.5m22.5-6c0-2.8 1.91-5.5 4.75-5.5S35 8.7 35 11.5S33.09 17 30.25 17s-4.75-2.7-4.75-5.5m10 6c0-2.8 1.91-5.5 4.75-5.5S45 14.7 45 17.5S43.09 23 40.25 23s-4.75-2.7-4.75-5.5M10 34c0-7.732 6.268-14 14-14s14 6.268 14 14q0 .255-.01.508c-.09 2.551-1.478 4.464-3.353 5.694C32.789 41.415 30.433 42 28.169 42h-8.338c-2.264 0-4.62-.585-6.468-1.798c-1.875-1.23-3.263-3.143-3.354-5.694Q10 34.255 10 34"/></svg>