<svg xmlns="http://www.w3.org/2000/svg" xmlns:xlink="http://www.w3.org/1999/xlink" width="48" height="48" viewBox="0 0 48 48"><path fill="currentColor" d="M25.25 20a1.25 1.25 0 1 0 0 2.5h9.5a1.25 1.25 0 1 0 0-2.5zM24 26.25c0-.69.56-1.25 1.25-1.25h6.5a1.25 1.25 0 1 1 0 2.5h-6.5c-.69 0-1.25-.56-1.25-1.25M12 23a3 3 0 0 1 3-3h3a3 3 0 0 1 3 3v10a3 3 0 0 1-3 3h-3a3 3 0 0 1-3-3zm2.5-.5v11h4v-11zM12.25 6A6.25 6.25 0 0 0 6 12.25v23.5A6.25 6.25 0 0 0 12.25 42h23.5A6.25 6.25 0 0 0 42 35.75v-23.5A6.25 6.25 0 0 0 35.75 6zm0 33.5a3.75 3.75 0 0 1-3.75-3.75V16.5h31v19.25a3.75 3.75 0 0 1-3.75 3.75z"/></svg>