<svg xmlns="http://www.w3.org/2000/svg" xmlns:xlink="http://www.w3.org/1999/xlink" width="32" height="32" viewBox="0 0 32 32"><path fill="currentColor" d="M7 9.5A2.5 2.5 0 0 1 9.5 7h3A2.5 2.5 0 0 1 15 9.5v3a2.5 2.5 0 0 1-2.5 2.5h-3A2.5 2.5 0 0 1 7 12.5zM9.5 8A1.5 1.5 0 0 0 8 9.5v3A1.5 1.5 0 0 0 9.5 14h3a1.5 1.5 0 0 0 1.5-1.5v-3A1.5 1.5 0 0 0 12.5 8zm0 9A2.5 2.5 0 0 0 7 19.5v3A2.5 2.5 0 0 0 9.5 25h3a2.5 2.5 0 0 0 2.5-2.5v-3a2.5 2.5 0 0 0-2.5-2.5zM8 19.5A1.5 1.5 0 0 1 9.5 18h3a1.5 1.5 0 0 1 1.5 1.5v3a1.5 1.5 0 0 1-1.5 1.5h-3A1.5 1.5 0 0 1 8 22.5zm9-10A2.5 2.5 0 0 1 19.5 7h3A2.5 2.5 0 0 1 25 9.5v3a2.5 2.5 0 0 1-2.5 2.5h-3a2.5 2.5 0 0 1-2.5-2.5zM19.5 8A1.5 1.5 0 0 0 18 9.5v3a1.5 1.5 0 0 0 1.5 1.5h3a1.5 1.5 0 0 0 1.5-1.5v-3A1.5 1.5 0 0 0 22.5 8zm0 9a2.5 2.5 0 0 0-2.5 2.5v3a2.5 2.5 0 0 0 2.5 2.5h3a2.5 2.5 0 0 0 2.5-2.5v-3a2.5 2.5 0 0 0-2.5-2.5zM18 19.5a1.5 1.5 0 0 1 1.5-1.5h3a1.5 1.5 0 0 1 1.5 1.5v3a1.5 1.5 0 0 1-1.5 1.5h-3a1.5 1.5 0 0 1-1.5-1.5zM7.5 3A4.5 4.5 0 0 0 3 7.5v17A4.5 4.5 0 0 0 7.5 29h17a4.5 4.5 0 0 0 4.5-4.5v-17A4.5 4.5 0 0 0 24.5 3zm17 1A3.5 3.5 0 0 1 28 7.5v17a3.5 3.5 0 0 1-3.5 3.5h-17A3.5 3.5 0 0 1 4 24.5v-17A3.5 3.5 0 0 1 7.5 4z"/></svg>