<svg xmlns="http://www.w3.org/2000/svg" xmlns:xlink="http://www.w3.org/1999/xlink" width="16" height="16" viewBox="0 0 16 16"><path fill="currentColor" d="M12.81 1.449a1.5 1.5 0 0 0-2.12 0L8.961 3.176A1.5 1.5 0 0 0 7.497 2h-3a1.5 1.5 0 0 0-1.5 1.5v2.584a1.55 1.55 0 0 1 1-.002V3.5a.5.5 0 0 1 .5-.5h3a.5.5 0 0 1 .5.5V7h-2.81c.43.338.958.641 1.52.723c.24.034.476.13.678.277h.612v1.101Q8 9.147 8 9.194v2.323q0 .094-.003.187v.294h-.016c-.028.356-.088.69-.172 1.002H12.5a1.5 1.5 0 0 0 1.5-1.5v-3a1.5 1.5 0 0 0-1.125-1.453l1.706-1.706a1.5 1.5 0 0 0 0-2.122zm-3.813 3.97L10.578 7h-1.58zm0 6.581V8H12.5a.5.5 0 0 1 .5.5v3a.5.5 0 0 1-.5.5zM3.881 7.16c.507.532 1.483 1.379 2.683 1.552A.5.5 0 0 1 7 9.194v2.323c0 3.122-2.784 4.255-3.386 4.463a.34.34 0 0 1-.228 0C2.784 15.772 0 14.64 0 11.517V9.194a.5.5 0 0 1 .436-.482c1.2-.173 2.175-1.02 2.683-1.553a.535.535 0 0 1 .762 0"/></svg>