<svg xmlns="http://www.w3.org/2000/svg" xmlns:xlink="http://www.w3.org/1999/xlink" width="16" height="16" viewBox="0 0 16 16"><path fill="currentColor" d="M11.81 2.45a1.5 1.5 0 0 0-2.12 0L7.961 4.175A1.5 1.5 0 0 0 6.497 3h-3a1.5 1.5 0 0 0-1.5 1.5v8c0 .51.255.96.644 1.231c.243.17.54.27.859.27h8a1.5 1.5 0 0 0 1.5-1.5v-3a1.5 1.5 0 0 0-1.125-1.452L13.58 6.34a1.5 1.5 0 0 0 0-2.121zM7.997 6.42L9.577 8h-1.58zm-1 1.58h-4V4.5a.5.5 0 0 1 .5-.5h3a.5.5 0 0 1 .5.5zm-3.786 4.91A.5.5 0 0 1 3 12.5V9h3.997v4h-3.5a.5.5 0 0 1-.286-.09m4.786.09V9H11.5a.5.5 0 0 1 .5.5v3a.5.5 0 0 1-.5.5z"/></svg>