<svg xmlns="http://www.w3.org/2000/svg" xmlns:xlink="http://www.w3.org/1999/xlink" width="24" height="24" viewBox="0 0 24 24"><path fill="currentColor" d="m3.22 4.28l-1-1a.75.75 0 1 1 1.06-1.06l18.5 18.5a.75.75 0 0 1-1.06 1.06l-1-1a2.24 2.24 0 0 1-.97.22H5.25A2.25 2.25 0 0 1 3 18.75V5.25c0-.347.079-.676.22-.97M18.438 19.5l-5.69-5.69v5.69zm-8.25-8.25L4.5 5.56v5.69zm1.061-6v2.819l1.5 1.5V5.25A2.25 2.25 0 0 0 10.5 3H6.182l1.5 1.5H10.5a.75.75 0 0 1 .75.75m4.681 7.5l-1.5-1.5h4.319A2.25 2.25 0 0 1 21 13.5v4.319l-1.5-1.5V13.5a.75.75 0 0 0-.75-.75zm-4.681 0H4.5v6c0 .414.336.75.75.75h5.999zm6.648-10.743L18 2a.75.75 0 0 1 .743.648l.007.102v2.5h2.5a.75.75 0 0 1 .743.648L22 6a.75.75 0 0 1-.648.743l-.102.007h-2.5v2.5a.75.75 0 0 1-.648.743L18 10a.75.75 0 0 1-.743-.648l-.007-.102v-2.5h-2.5a.75.75 0 0 1-.743-.648L14 6a.75.75 0 0 1 .648-.743l.102-.007h2.5v-2.5a.75.75 0 0 1 .648-.743"/></svg>