<svg xmlns="http://www.w3.org/2000/svg" xmlns:xlink="http://www.w3.org/1999/xlink" width="32" height="32" viewBox="0 0 32 32"><path fill="currentColor" d="m27.23 28.644l1.063 1.063a1 1 0 0 0 1.414-1.414l-26-26a1 1 0 1 0-1.414 1.414L3.356 4.77A3.24 3.24 0 0 0 3 6.25v19.5A3.25 3.25 0 0 0 6.25 29h19.5a3.2 3.2 0 0 0 1.48-.356M25.586 27H17v-8.585zm-12-12H5V6.415zM15 6.25v5.214l2 2V6.25A3.25 3.25 0 0 0 13.75 3H6.536l2 2h5.214c.69 0 1.25.56 1.25 1.25M20.537 17l-2-2h7.213A3.25 3.25 0 0 1 29 18.25v7.213l-2-2V18.25c0-.69-.56-1.25-1.25-1.25zM25 3.5a1 1 0 1 0-2 0V7h-3.5a1 1 0 1 0 0 2H23v3.5a1 1 0 1 0 2 0V9h3.5a1 1 0 1 0 0-2H25zM5 17h10v10H6.25C5.56 27 5 26.44 5 25.75z"/></svg>