<svg xmlns="http://www.w3.org/2000/svg" xmlns:xlink="http://www.w3.org/1999/xlink" width="48" height="48" viewBox="0 0 48 48"><path fill="currentColor" d="M35.75 4.5c.69 0 1.25.56 1.25 1.25V11h5.25a1.25 1.25 0 1 1 0 2.5H37v5.25a1.25 1.25 0 1 1-2.5 0V13.5h-5.25a1.25 1.25 0 1 1 0-2.5h5.25V5.75c0-.69.56-1.25 1.25-1.25M6 10.25A4.25 4.25 0 0 1 10.25 6H21a4.25 4.25 0 0 1 4.25 4.25v12.5h12.5A4.25 4.25 0 0 1 42 27v10.75A4.25 4.25 0 0 1 37.75 42h-27.5A4.25 4.25 0 0 1 6 37.75zm16.75 12.5v-12.5A1.75 1.75 0 0 0 21 8.5H10.25a1.75 1.75 0 0 0-1.75 1.75v12.5zM8.5 25.25v12.5c0 .967.784 1.75 1.75 1.75h12.5V25.25zM25.25 39.5h12.5a1.75 1.75 0 0 0 1.75-1.75V27a1.75 1.75 0 0 0-1.75-1.75h-12.5z"/></svg>