<svg xmlns="http://www.w3.org/2000/svg" xmlns:xlink="http://www.w3.org/1999/xlink" width="48" height="48" viewBox="0 0 48 48"><path fill="currentColor" d="M20.5 22.25a1.25 1.25 0 1 0 0 2.5h6.503q.822-.643 1.743-1.15q.004-.05.004-.1c0-.69-.56-1.25-1.25-1.25zm-5 17h7.21c.305.88.701 1.717 1.177 2.5H15.5a7.25 7.25 0 0 1-7.25-7.25V17.318a3.75 3.75 0 0 1-2-3.318v-4A3.75 3.75 0 0 1 10 6.25h28A3.75 3.75 0 0 1 41.75 10v4a3.75 3.75 0 0 1-2 3.317v5.578a13 13 0 0 0-2.5-.701V17.75h-26.5V34.5a4.75 4.75 0 0 0 4.75 4.75M10 8.75c-.69 0-1.25.56-1.25 1.25v4c0 .69.56 1.25 1.25 1.25h28c.69 0 1.25-.56 1.25-1.25v-4c0-.69-.56-1.25-1.25-1.25zM46 35c0 6.075-4.925 11-11 11s-11-4.925-11-11s4.925-11 11-11s11 4.925 11 11m-14.293-3.293a1 1 0 0 0-1.414-1.414l-3 3a1 1 0 0 0 0 1.414l3 3a1 1 0 0 0 1.414-1.414L30.414 35H36a4 4 0 0 1 4 4a1 1 0 1 0 2 0a6 6 0 0 0-6-6h-5.586z"/></svg>