<svg xmlns="http://www.w3.org/2000/svg" xmlns:xlink="http://www.w3.org/1999/xlink" width="48" height="48" viewBox="0 0 48 48"><path fill="currentColor" d="M13.453 9.412c-.596.432-.63 1.29-.11 1.81c.459.459 1.187.49 1.717.115a15.4 15.4 0 0 1 6.307-2.614c.64-.11 1.133-.647 1.133-1.295c0-.736-.63-1.319-1.356-1.203a17.9 17.9 0 0 0-7.691 3.187M25.5 7.428c0-.736.63-1.319 1.357-1.203a17.95 17.95 0 0 1 9.643 4.823V8.25a1.25 1.25 0 1 1 2.5 0v6.5c0 .69-.56 1.25-1.25 1.25h-6.5a1.25 1.25 0 1 1 0-2.5h4.152a15.47 15.47 0 0 0-8.768-4.777c-.64-.11-1.134-.647-1.134-1.295m13.778 19.205c.109-.64.646-1.134 1.294-1.134c.736 0 1.319.63 1.203 1.357a17.9 17.9 0 0 1-3.187 7.691c-.432.597-1.29.63-1.81.11c-.459-.459-.489-1.187-.115-1.716a15.4 15.4 0 0 0 2.615-6.308m-6.337 10.03c.529-.374 1.257-.344 1.715.115c.521.52.487 1.378-.109 1.81a17.9 17.9 0 0 1-7.69 3.186c-.727.116-1.357-.467-1.357-1.202c0-.649.494-1.186 1.134-1.295a15.4 15.4 0 0 0 6.307-2.614m-11.574 2.614c.64.11 1.133.646 1.133 1.295c0 .735-.63 1.318-1.356 1.202a17.9 17.9 0 0 1-7.692-3.187c-.596-.432-.63-1.29-.11-1.81c.46-.459 1.188-.49 1.717-.115a15.4 15.4 0 0 0 6.308 2.615m-10.03-6.338c.374.53.343 1.258-.115 1.716c-.52.52-1.379.487-1.81-.11a17.9 17.9 0 0 1-3.186-7.69c-.116-.726.467-1.356 1.202-1.356c.649 0 1.186.495 1.295 1.134a15.4 15.4 0 0 0 2.613 6.306M8.722 21.366c-.11.64-.646 1.133-1.294 1.133c-.736 0-1.32-.63-1.203-1.356a17.9 17.9 0 0 1 3.186-7.69c.432-.596 1.29-.63 1.81-.11c.459.459.49 1.187.115 1.717a15.4 15.4 0 0 0-2.614 6.306"/></svg>