<svg xmlns="http://www.w3.org/2000/svg" xmlns:xlink="http://www.w3.org/1999/xlink" width="24" height="24" viewBox="0 0 24 24"><path fill="currentColor" d="M19 4a1 1 0 1 0-2 0v.514a9 9 0 0 0-2.881-1.264c-.589-.142-1.117.334-1.117.94c0 .505.374.926.862 1.06a7 7 0 0 1 1.745.75H15a1 1 0 1 0 0 2h3a1 1 0 0 0 1-1zm-9.115-.75c.588-.142 1.117.334 1.117.94c0 .505-.375.926-.862 1.06a7 7 0 0 0-1.594.66c-.439.25-1.001.218-1.359-.14c-.428-.428-.39-1.138.127-1.454a9 9 0 0 1 2.57-1.066m-1.34 14.838c-.44-.25-1.002-.217-1.36.14c-.428.428-.39 1.139.126 1.455a9 9 0 0 0 2.574 1.067c.588.141 1.117-.334 1.117-.94c0-.505-.375-.926-.862-1.06a7 7 0 0 1-1.595-.662m-3.293-4.227c-.134-.488-.555-.863-1.06-.863c-.606 0-1.082.529-.94 1.117a9 9 0 0 0 1.065 2.573c.316.516 1.027.554 1.455.126c.357-.358.39-.92.14-1.36a7 7 0 0 1-.66-1.593m.661-5.318c.25-.439.217-1.001-.14-1.359c-.428-.428-1.138-.39-1.454.126a9 9 0 0 0-1.066 2.571c-.142.589.333 1.117.939 1.117c.505 0 .926-.374 1.06-.861a7 7 0 0 1 .661-1.594m8.364 5.433a2 2 0 0 1-1.441 2.496l-.584.145a5.7 5.7 0 0 0 .006 1.807l.54.13a2 2 0 0 1 1.45 2.51l-.187.631c.44.386.94.7 1.485.922l.493-.519a2 2 0 0 1 2.899 0l.499.526a5.3 5.3 0 0 0 1.482-.913l-.198-.686a2 2 0 0 1 1.442-2.496l.583-.145a5.7 5.7 0 0 0-.006-1.807l-.54-.13a2 2 0 0 1-1.449-2.51l.186-.631a5.3 5.3 0 0 0-1.484-.922l-.493.518a2 2 0 0 1-2.9 0l-.498-.525c-.544.22-1.044.53-1.483.913zM17.5 19c-.8 0-1.45-.671-1.45-1.5c0-.828.65-1.5 1.45-1.5s1.45.672 1.45 1.5c0 .829-.65 1.5-1.45 1.5"/></svg>