<svg xmlns="http://www.w3.org/2000/svg" xmlns:xlink="http://www.w3.org/1999/xlink" width="28" height="28" viewBox="0 0 28 28"><path fill="currentColor" d="M2.22 9.967L7.97 4.22l.085-.074l.058-.038l.072-.039l.105-.04l.105-.022l.052-.005L8.5 4l.057.002l.092.013l.107.03l.085.037l.054.03l.063.044l.072.064l5.75 5.747a.75.75 0 0 1-.976 1.133l-.084-.072L9.25 6.56v16.69a.75.75 0 0 1-1.493.102l-.007-.102V6.56l-4.47 4.468a.75.75 0 0 1-.976.072l-.084-.072a.75.75 0 0 1-.073-.977zM19.5 4a.75.75 0 0 1 .743.648l.007.102v16.687l4.47-4.467l.084-.073a.75.75 0 0 1 1.049 1.05l-.073.083l-5.728 5.727a.75.75 0 0 1-1.031.07l-.073-.07l-5.728-5.727l-.073-.084a.75.75 0 0 1-.007-.882l.08-.094l.084-.073a.75.75 0 0 1 .882-.007l.094.08l4.47 4.469V4.75l.007-.102A.75.75 0 0 1 19.5 4"/></svg>