<svg xmlns="http://www.w3.org/2000/svg" xmlns:xlink="http://www.w3.org/1999/xlink" width="24" height="24" viewBox="0 0 24 24"><path fill="currentColor" d="M3.28 2.22a.75.75 0 1 0-1.06 1.06l3.704 3.705A8.8 8.8 0 0 0 3 6.5a1 1 0 0 0 0 2c2.475 0 4.185 1.18 5.886 2.799q.326-.33.67-.683l.707.708C8.045 13.604 6.137 15.5 3 15.5a1 1 0 1 0 0 2c4.05 0 6.503-2.525 8.632-4.715l.045-.047l.707.707l-.097.1q-.279.289-.574.588c1.182 1.13 2.516 2.195 4.173 2.814l1.684 1.684a1 1 0 0 0 1.299 1.299l1.85 1.85a.75.75 0 0 0 1.061-1.06zm14.304 12.182l3.464 3.464l.66-.659a1 1 0 0 0 0-1.414l-2.5-2.5a1 1 0 0 0-1.624 1.11M12.41 9.228l1.42 1.42c1.377-1.188 2.829-2.028 4.744-2.136l-.781.78a1 1 0 0 0 1.414 1.415l2.5-2.5a1 1 0 0 0 0-1.414l-2.5-2.5a1 1 0 1 0-1.414 1.414l.801.802c-2.624.111-4.56 1.299-6.184 2.719"/></svg>