<svg xmlns="http://www.w3.org/2000/svg" xmlns:xlink="http://www.w3.org/1999/xlink" width="16" height="16" viewBox="0 0 16 16"><path fill="currentColor" d="m11.69 8l-2.256 2.256a.75.75 0 0 0 .977 1.133l.084-.073l3.535-3.535l.069-.08l.04-.058l.05-.095l.032-.092l.016-.067l.01-.062l.003-.094l-.004-.059l-.016-.094l-.03-.1l-.046-.098l-.035-.055a.746.746 0 0 0-.089-.107l.069.079a.743.743 0 0 0-.069-.079l-3.535-3.535a.75.75 0 0 0-1.133.976l.072.084L11.69 6.5H8c-3.651 0-6.133 2.077-6.246 5.037l-.004.213a.75.75 0 0 0 1.5 0c0-2.128 1.692-3.658 4.492-3.746L8 8h3.69Z"/></svg>