<svg xmlns="http://www.w3.org/2000/svg" xmlns:xlink="http://www.w3.org/1999/xlink" width="24" height="24" viewBox="0 0 24 24"><path fill="currentColor" d="M6 3a1 1 0 0 0 0 2h12a1 1 0 1 0 0-2H6Zm4.354 10.701l.099.085l.799.8v-1.957l-.002-.026V9.414l-.8.8l-.097.085l-.008.006a1 1 0 0 1-1.399-1.4l.006-.007l.084-.098l2.354-2.357c.18-.273.505-.443.86-.443c.324 0 .62.14.806.368l.005.007l.046.064L15.465 8.8l.085.098l.005.008a1 1 0 0 1 .01 1.177l-.006.008l-.099.117l-.106.091l-.007.006a1 1 0 0 1-1.177.01l-.009-.007l-.11-.093l-.801-.801v1.957l.002.026v3.19l.794-.795a1 1 0 0 1 1.303-.097l.007.006l.098.085l.007.006a1 1 0 0 1 .096 1.302l-.005.008l-.085.098l-2.354 2.356a1.023 1.023 0 0 1-.86.444c-.356 0-.681-.17-.86-.443l-2.348-2.35a1 1 0 0 1 1.302-1.512l.008.006ZM5 20a1 1 0 0 1 1-1h12a1 1 0 1 1 0 2H6a1 1 0 0 1-1-1Z"/></svg>