<svg xmlns="http://www.w3.org/2000/svg" xmlns:xlink="http://www.w3.org/1999/xlink" width="32" height="32" viewBox="0 0 32 32"><path fill="currentColor" d="M28.997 16.289a9 9 0 0 0-2.05-1.38C26.399 9.346 21.707 5 16 5a10.96 10.96 0 0 0-7.55 3H11a1 1 0 1 1 0 2H6a1 1 0 0 1-1-1V4a1 1 0 0 1 2 0v2.62A12.96 12.96 0 0 1 16 3c7.18 0 13 5.82 13 13q0 .145-.003.289M16 29q.145 0 .289-.003a9 9 0 0 1-1.38-2.05C9.346 26.399 5 21.707 5 16q0-.464.038-.918a1 1 0 1 0-1.994-.164Q3 15.454 3 16c0 7.18 5.82 13 13 13m-.5-6a7.5 7.5 0 1 0 15 0a7.5 7.5 0 0 0-15 0m6.75 4.25v-5.5a.75.75 0 0 1 1.5 0v5.5a.75.75 0 0 1-1.5 0M22 19a1 1 0 1 1 2 0a1 1 0 0 1-2 0"/></svg>