<svg xmlns="http://www.w3.org/2000/svg" xmlns:xlink="http://www.w3.org/1999/xlink" width="28" height="28" viewBox="0 0 28 28"><path fill="currentColor" d="M12.18 3.15c.439-.073.82.277.82.721a.8.8 0 0 1-.673.776a9.45 9.45 0 0 0-3.754 1.555a.8.8 0 0 1-1.024-.072c-.314-.314-.292-.833.07-1.09c1.33-.95 2.882-1.61 4.562-1.89M15 3.87c0 .387.294.708.675.776A9.5 9.5 0 0 1 20.929 7.5H18.25a.75.75 0 0 0 0 1.5h4a.75.75 0 0 0 .75-.75v-4a.75.75 0 0 0-1.5 0v1.703a10.97 10.97 0 0 0-5.68-2.803c-.437-.073-.82.277-.82.721M24.13 15a.8.8 0 0 0-.776.674a9.45 9.45 0 0 1-1.555 3.754a.8.8 0 0 0 .072 1.025c.314.314.832.291 1.09-.07a10.94 10.94 0 0 0 1.89-4.564c.073-.437-.278-.82-.722-.82m-8.456 8.354a.8.8 0 0 0-.673.775c0 .445.381.795.82.722a10.94 10.94 0 0 0 4.567-1.893c.361-.259.383-.776.07-1.09a.8.8 0 0 0-1.025-.072a9.45 9.45 0 0 1-3.759 1.558m-7.102-1.556a.8.8 0 0 0-1.024.073c-.314.314-.292.832.07 1.09a10.94 10.94 0 0 0 4.563 1.89c.438.073.82-.277.82-.722a.8.8 0 0 0-.674-.775a9.45 9.45 0 0 1-3.755-1.556m-3.925-6.124a.8.8 0 0 0-.775-.674c-.444 0-.795.381-.722.82c.28 1.682.942 3.235 1.893 4.567c.258.362.776.384 1.09.07a.8.8 0 0 0 .072-1.024a9.45 9.45 0 0 1-1.558-3.76m1.559-7.105a.8.8 0 0 0-.072-1.025c-.314-.314-.832-.292-1.09.07a10.94 10.94 0 0 0-1.893 4.566c-.073.438.277.82.721.82a.8.8 0 0 0 .776-.674a9.45 9.45 0 0 1 1.558-3.757"/></svg>