<svg xmlns="http://www.w3.org/2000/svg" xmlns:xlink="http://www.w3.org/1999/xlink" width="16" height="16" viewBox="0 0 16 16"><path fill="currentColor" d="M3.418 4.126A5.98 5.98 0 0 0 2 8c0 1.853.84 3.51 2.159 4.61a.75.75 0 0 0 .96-1.152A4.49 4.49 0 0 1 3.5 8a4.48 4.48 0 0 1 .984-2.809l6.325 6.325a4.5 4.5 0 0 1-2.209.944l.43-.43a.75.75 0 1 0-1.06-1.06l-1.75 1.75a.75.75 0 0 0 0 1.06l1.75 1.75a.75.75 0 0 0 1.06-1.06l-.493-.494a5.97 5.97 0 0 0 3.337-1.395l2.272 2.273a.5.5 0 0 0 .708-.708l-13-13a.5.5 0 1 0-.708.708zM6.97 3.97a.75.75 0 0 0-.206.672l.594.594a.75.75 0 0 0 .672-.206l1.75-1.75a.75.75 0 0 0 0-1.06L8.03.47a.75.75 0 0 0-1.06 1.06l.493.494c-.91.08-1.763.365-2.51.807L6.06 3.939a4.5 4.5 0 0 1 1.34-.4zm5.091 5.97l1.108 1.108A5.97 5.97 0 0 0 14 8c0-1.853-.84-3.51-2.159-4.61a.75.75 0 1 0-.96 1.152A4.49 4.49 0 0 1 12.5 8c0 .695-.157 1.353-.439 1.94"/></svg>