<svg xmlns="http://www.w3.org/2000/svg" xmlns:xlink="http://www.w3.org/1999/xlink" width="20" height="20" viewBox="0 0 20 20"><path fill="currentColor" d="M11.414 3.635a.5.5 0 0 0 0-.707L9.293.807a.5.5 0 0 0-.707.707l.997.997a7.5 7.5 0 0 0-4.075 13.495a.5.5 0 0 0 .6-.8A6.5 6.5 0 0 1 10.066 3.5q.037 0 .073-.005L8.586 5.049a.5.5 0 0 0 .707.707zM8.586 16.363a.5.5 0 0 0 0 .707l2.121 2.121a.5.5 0 0 0 .707-.707l-.997-.997a7.5 7.5 0 0 0 4.075-13.495a.5.5 0 1 0-.6.8q.369.277.704.61A6.5 6.5 0 0 1 9.934 16.5l-.074.004l1.554-1.554a.5.5 0 1 0-.707-.707z"/></svg>