<svg xmlns="http://www.w3.org/2000/svg" xmlns:xlink="http://www.w3.org/1999/xlink" width="24" height="24" viewBox="0 0 24 24"><path fill="currentColor" d="M13.838 3.187c-.443-.091-.837.263-.837.715c0 .38.283.697.654.78a7.5 7.5 0 0 1 2.35.975c.321.203.745.179 1.014-.09c.32-.32.292-.849-.086-1.097a9 9 0 0 0-3.095-1.283M11 3.902c0 .38-.282.697-.653.78A7.5 7.5 0 0 0 6.902 6.5H8.25a.75.75 0 0 1 0 1.5h-3a.75.75 0 0 1-.75-.75v-3a.75.75 0 1 1 1.5 0v1.042a9 9 0 0 1 4.165-2.105c.442-.091.836.263.836.715m-7.098 9.097c.38 0 .697.282.78.653a7.5 7.5 0 0 0 .975 2.352c.203.321.179.745-.09 1.014c-.32.32-.849.291-1.097-.087a9 9 0 0 1-1.283-3.096c-.091-.443.263-.837.715-.837m6.445 6.318c.37.084.653.4.653.781c0 .452-.394.806-.836.715a9 9 0 0 1-3.097-1.284c-.377-.248-.405-.777-.086-1.097c.269-.268.693-.293 1.014-.09a7.5 7.5 0 0 0 2.352.975m5.659-.975c.321-.203.745-.179 1.014.09c.32.32.291.849-.086 1.097a9 9 0 0 1-3.097 1.284c-.443.091-.837-.263-.837-.715c0-.38.283-.697.654-.781a7.5 7.5 0 0 0 2.352-.975m3.312-4.69c.083-.37.4-.653.78-.653c.453 0 .807.393.715.836a9 9 0 0 1-1.282 3.096c-.248.378-.778.406-1.097.086c-.269-.268-.294-.692-.09-1.014c.45-.711.783-1.504.974-2.35m-.976-5.657c-.203-.321-.178-.745.09-1.014c.32-.32.85-.292 1.097.086a9 9 0 0 1 1.283 3.095c.092.443-.262.836-.714.836c-.38 0-.698-.282-.781-.653a7.5 7.5 0 0 0-.975-2.35"/></svg>