<svg xmlns="http://www.w3.org/2000/svg" xmlns:xlink="http://www.w3.org/1999/xlink" width="24" height="24" viewBox="0 0 24 24"><path fill="currentColor" d="M10.163 3.187c.442-.091.836.263.836.715c0 .38-.283.697-.653.78a7.5 7.5 0 0 0-2.35.975c-.322.203-.746.179-1.015-.09c-.32-.32-.291-.849.087-1.097a9 9 0 0 1 3.095-1.283m2.836.715c0 .38.283.697.654.78A7.5 7.5 0 0 1 17.098 6.5H15.75a.75.75 0 0 0 0 1.5h3a.75.75 0 0 0 .75-.75v-3a.75.75 0 0 0-1.5 0v1.042a9 9 0 0 0-4.164-2.105c-.443-.091-.837.263-.837.715m7.099 9.097c-.38 0-.698.282-.781.653a7.5 7.5 0 0 1-.975 2.352c-.203.321-.178.745.09 1.014c.32.32.85.291 1.097-.087a9 9 0 0 0 1.283-3.096c.092-.443-.263-.837-.714-.837m-6.445 6.318c-.371.084-.654.4-.654.781c0 .452.394.806.836.715a9 9 0 0 0 3.097-1.284c.378-.248.406-.777.086-1.097c-.268-.268-.692-.293-1.014-.09a7.5 7.5 0 0 1-2.351.975m-5.66-.975c-.32-.203-.745-.179-1.013.09c-.32.32-.292.849.086 1.097a9 9 0 0 0 3.097 1.284c.442.091.836-.263.836-.715c0-.38-.283-.697-.653-.781a7.5 7.5 0 0 1-2.352-.975m-3.311-4.69c-.084-.37-.4-.653-.781-.653c-.452 0-.806.393-.715.836A9 9 0 0 0 4.47 16.93c.248.378.777.406 1.097.086c.268-.268.293-.692.09-1.014a7.5 7.5 0 0 1-.974-2.35m.975-5.657c.203-.321.179-.745-.09-1.014c-.32-.32-.849-.292-1.097.086a9 9 0 0 0-1.283 3.095c-.092.443.263.836.714.836c.38 0 .698-.282.781-.653a7.5 7.5 0 0 1 .975-2.35"/></svg>