<svg xmlns="http://www.w3.org/2000/svg" xmlns:xlink="http://www.w3.org/1999/xlink" width="24" height="24" viewBox="0 0 24 24"><path fill="currentColor" d="m14.61 2.47l-.077-.067a.75.75 0 0 0-.983.067l-.068.078a.755.755 0 0 0 .068.987l1.971 1.977H8.5l-.233.004C4.785 5.639 2 8.51 2 12.036c0 1.69.64 3.23 1.692 4.39l.072.069a.751.751 0 0 0 1.08-1.033l-.2-.231A5 5 0 0 1 3.5 12.035c0-2.771 2.239-5.018 5-5.018h6.881l-1.832 1.84l-.067.078a.755.755 0 0 0 .068.987a.75.75 0 0 0 1.06 0l3.182-3.193l.067-.078a.755.755 0 0 0-.067-.987zm5.62 5.101a.751.751 0 0 0-1.05 1.066a5 5 0 0 1 1.31 3.09c.539.28 1.032.632 1.47 1.044q.04-.363.04-.736a6.5 6.5 0 0 0-1.697-4.395zM8.558 17.054h2.457a6.6 6.6 0 0 0 .07 1.505h-2.52l1.9 1.906l.066.077a.755.755 0 0 1-.067.987a.75.75 0 0 1-.976.073l-.084-.073l-3.182-3.193l-.067-.077a.755.755 0 0 1-.006-.902l.073-.085l3.182-3.194l.077-.067a.75.75 0 0 1 .899-.006l.084.073l.068.077a.755.755 0 0 1 .005.902l-.073.085zM23 17.5a5.5 5.5 0 1 1-11 0a5.5 5.5 0 0 1 11 0m-4.885-3.487a.5.5 0 0 0-.562.263a4.8 4.8 0 0 1-.613.828c-.334.373-.744.739-1.164.949a.5.5 0 1 0 .448.894c.489-.244.926-.616 1.276-.977v4.53a.5.5 0 0 0 1 0v-6a.5.5 0 0 0-.385-.487"/></svg>