<svg xmlns="http://www.w3.org/2000/svg" xmlns:xlink="http://www.w3.org/1999/xlink" width="20" height="20" viewBox="0 0 20 20"><path fill="currentColor" d="M16.5 3.25a.75.75 0 0 0-1.5 0v1.158a7.5 7.5 0 0 0-3.42-1.742c-.44-.094-.829.26-.829.71c0 .383.287.7.66.79a6 6 0 0 1 2.56 1.334H12.75a.75.75 0 0 0 0 1.5h3a.75.75 0 0 0 .75-.75zm-8.077-.584c.44-.094.828.26.828.71c0 .383-.287.7-.66.79a6 6 0 0 0-1.718.713c-.327.2-.754.178-1.025-.093c-.318-.318-.293-.844.084-1.088a7.5 7.5 0 0 1 2.491-1.032m-1.55 12.455c-.327-.2-.754-.178-1.025.093c-.318.317-.293.843.084 1.087c.75.485 1.59.84 2.491 1.032c.44.095.828-.26.828-.709c0-.383-.287-.701-.66-.79a6 6 0 0 1-1.718-.713m-2.705-3.712c-.09-.372-.408-.66-.791-.66c-.45 0-.803.39-.71.829c.194.9.548 1.742 1.033 2.49c.244.378.77.403 1.087.085c.271-.27.293-.698.093-1.025a6 6 0 0 1-.712-1.719m.712-4.537c.2-.327.178-.755-.093-1.025c-.317-.318-.843-.293-1.087.084a7.5 7.5 0 0 0-1.032 2.49c-.094.44.26.829.709.829c.383 0 .701-.287.79-.66a6 6 0 0 1 .713-1.718m7.187 4.57a2 2 0 0 1-1.431 2.478l-.461.118a4.7 4.7 0 0 0 .01 1.016l.35.083a2 2 0 0 1 1.456 2.519l-.127.422q.387.307.835.518l.325-.344a2 2 0 0 1 2.91.002l.337.358q.44-.203.822-.498l-.157-.556a2 2 0 0 1 1.431-2.479l.46-.117a4.7 4.7 0 0 0-.01-1.017l-.348-.082a2 2 0 0 1-1.456-2.52l.126-.421a4.3 4.3 0 0 0-.835-.519l-.325.344a2 2 0 0 1-2.91-.001l-.337-.358a4.3 4.3 0 0 0-.821.497zM14.5 15.5a1 1 0 1 1 0-2a1 1 0 0 1 0 2"/></svg>