<svg xmlns="http://www.w3.org/2000/svg" xmlns:xlink="http://www.w3.org/1999/xlink" width="24" height="24" viewBox="0 0 24 24"><path fill="currentColor" d="M3.28 2.22a.75.75 0 1 0-1.06 1.06l4.696 4.696A9.25 9.25 0 0 0 2.75 7a.75.75 0 1 0 0 1.5c2.65 0 4.533 1.231 6.386 2.832q.292-.264.594-.542l.707.708C8.122 13.627 6.019 15.5 2.75 15.5a.75.75 0 0 0 0 1.5c3.918 0 6.423-2.302 8.692-4.388l.057-.052l.708.708l-.023.02l-.132.122l-.303.278c.937.82 1.943 1.608 3.087 2.21l5.883 5.883a.75.75 0 0 0 1.061-1.061zm15.38 13.259l2.211 2.21l.91-.909a.75.75 0 0 0 0-1.06l-2.5-2.5a.75.75 0 1 0-1.061 1.06l1.22 1.22h-.19q-.3 0-.59-.021M12.7 9.517l1.07 1.07C15.346 9.365 17.028 8.5 19.25 8.5h.19l-1.22 1.22a.75.75 0 1 0 1.06 1.06l2.5-2.5a.75.75 0 0 0 0-1.06l-2.5-2.5a.75.75 0 1 0-1.06 1.06L19.44 7h-.19c-2.74 0-4.79 1.127-6.55 2.517"/></svg>