<svg xmlns="http://www.w3.org/2000/svg" xmlns:xlink="http://www.w3.org/1999/xlink" width="20" height="20" viewBox="0 0 20 20"><path fill="currentColor" d="M16.5 3.25a.75.75 0 0 0-1.5 0v1.158a7.5 7.5 0 0 0-3.42-1.742c-.44-.094-.829.26-.829.71c0 .383.287.7.66.79a6 6 0 0 1 2.56 1.334H12.75a.75.75 0 0 0 0 1.5h3a.75.75 0 0 0 .75-.75zm-8.077-.584c.44-.094.828.26.828.71c0 .383-.287.7-.66.79a6 6 0 0 0-1.718.713c-.327.2-.754.178-1.025-.093c-.318-.318-.293-.844.084-1.088a7.5 7.5 0 0 1 2.491-1.032m8.202 8.084c-.383 0-.7.287-.79.66a6 6 0 0 1-.713 1.718c-.2.327-.178.754.093 1.025c.318.318.843.293 1.088-.084a7.5 7.5 0 0 0 1.032-2.491c.094-.44-.26-.828-.71-.828m-5.214 5.083c-.373.09-.66.408-.66.791c0 .45.39.803.829.71a7.5 7.5 0 0 0 2.49-1.033c.377-.244.402-.77.084-1.087c-.27-.271-.698-.293-1.024-.093a6 6 0 0 1-1.72.712m-4.538-.712c-.327-.2-.754-.178-1.025.093c-.318.317-.293.843.084 1.087c.75.485 1.59.84 2.491 1.032c.44.095.828-.26.828-.709c0-.383-.287-.701-.66-.79a6 6 0 0 1-1.718-.713m-2.705-3.712c-.09-.372-.408-.66-.791-.66c-.45 0-.803.39-.71.829c.194.9.548 1.742 1.033 2.49c.244.378.77.403 1.087.085c.271-.27.293-.698.093-1.025a6 6 0 0 1-.712-1.719m.712-4.537c.2-.327.178-.755-.093-1.025c-.317-.318-.843-.293-1.087.084a7.5 7.5 0 0 0-1.032 2.49c-.094.44.26.829.709.829c.383 0 .701-.287.79-.66a6 6 0 0 1 .713-1.718"/></svg>