<svg xmlns="http://www.w3.org/2000/svg" xmlns:xlink="http://www.w3.org/1999/xlink" width="32" height="32" viewBox="0 0 32 32"><path fill="currentColor" d="M28.997 16.289a9 9 0 0 0-2.58-1.618C25.764 9.5 21.349 5.5 16 5.5c-2.594 0-4.968.94-6.801 2.5h2.051a1.25 1.25 0 1 1 0 2.5h-5C5.56 10.5 5 9.94 5 9.25v-5a1.25 1.25 0 1 1 2.5 0v1.914A12.95 12.95 0 0 1 16 3c7.18 0 13 5.82 13 13q0 .145-.003.289M16 29q.145 0 .289-.003a9 9 0 0 1-1.618-2.58C9.5 25.764 5.5 21.349 5.5 16q0-.34.021-.674a1.25 1.25 0 0 0-2.495-.157Q3 15.582 3 16c0 7.18 5.82 13 13 13m-.5-6a7.5 7.5 0 1 0 15 0a7.5 7.5 0 0 0-15 0m6.75 4.25v-5.5a.75.75 0 0 1 1.5 0v5.5a.75.75 0 0 1-1.5 0M22 19a1 1 0 1 1 2 0a1 1 0 0 1-2 0"/></svg>