<svg xmlns="http://www.w3.org/2000/svg" xmlns:xlink="http://www.w3.org/1999/xlink" width="28" height="28" viewBox="0 0 28 28"><path fill="currentColor" d="M14 2a5 5 0 0 0-4.936 4.198A9.75 9.75 0 0 0 4 14.75v7.5A3.75 3.75 0 0 0 7.75 26h7.65a7.5 7.5 0 0 1-1.245-1.5H7.75a2.25 2.25 0 0 1-2.25-2.25V17.5H9v1.75a.75.75 0 0 0 1.5 0V17.5h3.124A7.5 7.5 0 0 1 14.5 16h-9v-1.25a8.25 8.25 0 0 1 8.25-8.25h.5a8.25 8.25 0 0 1 8.11 6.733q.843.217 1.598.61a9.75 9.75 0 0 0-5.022-7.645A5 5 0 0 0 14 2m-.25 3c-1.003 0-1.97.151-2.88.432a3.5 3.5 0 0 1 6.26 0A9.8 9.8 0 0 0 14.25 5zm3.006 9a7.5 7.5 0 0 1 1.954-.785c.183-.277.29-.608.29-.965A3.25 3.25 0 0 0 15.75 9h-3.5A3.25 3.25 0 0 0 9 12.25c0 .966.784 1.75 1.75 1.75zm-4.506-3.5h3.5c.966 0 1.75.784 1.75 1.75a.25.25 0 0 1-.25.25h-6.5a.25.25 0 0 1-.25-.25c0-.966.784-1.75 1.75-1.75M27 20.5a6.5 6.5 0 1 1-13 0a6.5 6.5 0 0 1 13 0m-6-4a.5.5 0 0 0-1 0V20h-3.5a.5.5 0 0 0 0 1H20v3.5a.5.5 0 0 0 1 0V21h3.5a.5.5 0 0 0 0-1H21z"/></svg>