<svg xmlns="http://www.w3.org/2000/svg" xmlns:xlink="http://www.w3.org/1999/xlink" width="20" height="20" viewBox="0 0 20 20"><path fill="currentColor" d="M14.5 9a4.5 4.5 0 1 1 0 9a4.5 4.5 0 0 1 0-9m-12 4a.5.5 0 0 1 .5.5v1A1.5 1.5 0 0 0 4.5 16h1a.5.5 0 0 1 0 1h-1A2.5 2.5 0 0 1 2 14.5v-1a.5.5 0 0 1 .5-.5m13.854-1.354a.5.5 0 0 0-.707 0L14.5 12.794l-1.146-1.146a.5.5 0 1 0-.707.707l1.146 1.146l-1.146 1.146a.5.5 0 1 0 .707.707l1.146-1.146l1.146 1.146a.5.5 0 1 0 .707-.707L15.208 13.5l1.146-1.146a.5.5 0 0 0 0-.707M5.5 6a.5.5 0 0 1 .5.5v7a.5.5 0 0 1-1 0v-7a.5.5 0 0 1 .5-.5m3 0a.5.5 0 0 1 .5.5v7a.5.5 0 0 1-1 0v-7a.5.5 0 0 1 .5-.5m3 0a.5.5 0 0 1 .5.5v2.1a5.5 5.5 0 0 0-1 .657V6.5a.5.5 0 0 1 .5-.5m3 0a.5.5 0 0 1 .5.5v1.523a5.6 5.6 0 0 0-1 0V6.5a.5.5 0 0 1 .5-.5m-9-3a.5.5 0 0 1 0 1h-1A1.5 1.5 0 0 0 3 5.5v1a.5.5 0 0 1-1 0v-1A2.5 2.5 0 0 1 4.5 3zm10 0A2.5 2.5 0 0 1 18 5.5v1a.5.5 0 0 1-1 0v-1A1.5 1.5 0 0 0 15.5 4h-1a.5.5 0 0 1 0-1z"/></svg>