<svg xmlns="http://www.w3.org/2000/svg" xmlns:xlink="http://www.w3.org/1999/xlink" width="48" height="48" viewBox="0 0 48 48"><path fill="currentColor" d="M35 23c6.075 0 11 4.925 11 11s-4.925 11-11 11s-11-4.925-11-11s4.925-11 11-11M5.25 32c.69 0 1.25.56 1.25 1.25v2.5a3.75 3.75 0 0 0 3.75 3.75h2.5a1.25 1.25 0 1 1 0 2.5h-2.5A6.25 6.25 0 0 1 4 35.75v-2.5c0-.69.56-1.25 1.25-1.25m35.457-3.707a1 1 0 0 0-1.414 0L35 32.586l-4.293-4.293a1 1 0 1 0-1.414 1.414L33.586 34l-4.293 4.293a1 1 0 1 0 1.414 1.414L35 35.414l4.293 4.293a1 1 0 1 0 1.414-1.414L36.414 34l4.293-4.293a1 1 0 0 0 0-1.414M11.75 14c.69 0 1.25.56 1.25 1.25v17.5l-.007.128a1.25 1.25 0 0 1-2.486 0l-.007-.128v-17.5c0-.69.56-1.25 1.25-1.25m8 0c.69 0 1.25.56 1.25 1.25v17.5l-.007.128a1.25 1.25 0 0 1-2.486 0l-.007-.128v-17.5c0-.69.56-1.25 1.25-1.25m7.5 0c.69 0 1.25.56 1.25 1.25v7.49a13 13 0 0 0-2.5 1.883V15.25c0-.69.56-1.25 1.25-1.25m8 0c.69 0 1.25.56 1.25 1.25v5.836a13 13 0 0 0-2.5-.048V15.25c0-.69.56-1.25 1.25-1.25m-22.5-8a1.25 1.25 0 1 1 0 2.5h-2.5a3.75 3.75 0 0 0-3.75 3.75v2.5a1.25 1.25 0 1 1-2.5 0v-2.5A6.25 6.25 0 0 1 10.25 6zm25 0A6.25 6.25 0 0 1 44 12.25v2.5a1.25 1.25 0 1 1-2.5 0v-2.5a3.75 3.75 0 0 0-3.75-3.75h-2.5a1.25 1.25 0 1 1 0-2.5z"/></svg>