<svg xmlns="http://www.w3.org/2000/svg" xmlns:xlink="http://www.w3.org/1999/xlink" width="24" height="24" viewBox="0 0 24 24"><path fill="currentColor" d="M17.5 11a5.5 5.5 0 1 1 0 11a5.5 5.5 0 0 1 0-11M2.75 16a.75.75 0 0 1 .75.75v1.5c0 .69.56 1.25 1.25 1.25h1.5a.75.75 0 0 1 0 1.5h-1.5A2.75 2.75 0 0 1 2 18.25v-1.5a.75.75 0 0 1 .75-.75m14.75-3.001a.5.5 0 0 0-.5.5V16h-2.505a.5.5 0 0 0 0 1h2.506v2.504a.5.5 0 0 0 1 0V17h2.496a.5.5 0 0 0 0-1H18v-2.501a.5.5 0 0 0-.5-.5M5.75 7a.75.75 0 0 1 .75.75v8.5a.75.75 0 0 1-1.5 0v-8.5A.75.75 0 0 1 5.75 7m4 0a.75.75 0 0 1 .75.75v8.5a.75.75 0 0 1-1.5 0v-8.5A.75.75 0 0 1 9.75 7m4 0a.75.75 0 0 1 .75.75v2.983a6.5 6.5 0 0 0-1.5 1.079V7.75a.75.75 0 0 1 .75-.75m4 0a.75.75 0 0 1 .75.75v2.326a6.5 6.5 0 0 0-1.5-.056V7.75a.75.75 0 0 1 .75-.75M6.25 3a.75.75 0 0 1 0 1.5h-1.5c-.69 0-1.25.56-1.25 1.25v1.5a.75.75 0 0 1-1.5 0v-1.5A2.75 2.75 0 0 1 4.75 3zm13 0A2.75 2.75 0 0 1 22 5.75v1.5a.75.75 0 0 1-1.5 0v-1.5c0-.69-.56-1.25-1.25-1.25h-1.5a.75.75 0 0 1 0-1.5z"/></svg>