<svg xmlns="http://www.w3.org/2000/svg" xmlns:xlink="http://www.w3.org/1999/xlink" width="20" height="20" viewBox="0 0 20 20"><path fill="currentColor" d="m9.585 5l3.915.015a2.5 2.5 0 0 1 2.496 2.353l.004.147v.833h1.167a.83.83 0 0 1 .827.732l.006.102v1.666a.83.83 0 0 1-.721.826l-.112.008H16v.833a2.5 2.5 0 0 1-2.353 2.496l-.147.004L6 15c-.18 0-.499-.12-.499-.502S5.792 14 6 14h.045C7.317 14 10 13.01 10 9.716c0-1.014-.452-2.675-.955-3.913a.583.583 0 0 1 .46-.798zm-2.419-.712C8.382 6.528 9 8.328 9 9.564c0 1.237-.578 2.274-1.14 2.764a1 1 0 0 1-.152.107l-.089.045a.35.35 0 0 1-.467-.177a.36.36 0 0 1-.025-.211l.02-.07q.713-1.784.687-3.505a.586.586 0 0 0-.592-.58a.586.586 0 0 0-.573.563l.003.018q.006.435-.043.88l-.052.374l-.032.186l-.054.259l-.079.324l-.033.122a10 10 0 0 1-.532 1.44c-.593 1.301-1.616 2.257-3.04 2.852a.58.58 0 0 1-.763-.319a.59.59 0 0 1 .316-.77q1.124-.469 1.806-1.273c-1.292-.412-2.045-1.311-2.147-2.567c-.117-1.42.413-2.382 1.757-3.464l.657-.507l.287-.227q.971-.794 1.459-1.555c.234-.364.779-.369.987.015"/></svg>