<svg xmlns="http://www.w3.org/2000/svg" xmlns:xlink="http://www.w3.org/1999/xlink" width="28" height="28" viewBox="0 0 28 28"><path fill="currentColor" d="M5 5.75a.75.75 0 0 0-1.5 0V7h-.75a.75.75 0 0 0-.75.75v2.5c0 .966.784 1.75 1.75 1.75h1v8.25a.75.75 0 0 0 1.5 0V12h1A1.75 1.75 0 0 0 9 10.25v-2.5A.75.75 0 0 0 8.25 7H7.5V5.75a.75.75 0 0 0-1.5 0V7H5zm-1.5 4.5V8.5h4v1.75a.25.25 0 0 1-.25.25h-3.5a.25.25 0 0 1-.25-.25m6.5-2.5a.75.75 0 0 1 .75-.75h9.5A3.75 3.75 0 0 1 24 10.75V12h1a1 1 0 0 1 1 1v2a1 1 0 0 1-1 1h-1v1.25A3.75 3.75 0 0 1 20.25 21H8a.75.75 0 0 1 0-1.5h12.25a2.25 2.25 0 0 0 2.25-2.25v-6.5a2.25 2.25 0 0 0-2.25-2.25h-9.5a.75.75 0 0 1-.75-.75"/></svg>