<svg xmlns="http://www.w3.org/2000/svg" xmlns:xlink="http://www.w3.org/1999/xlink" width="20" height="20" viewBox="0 0 20 20"><path fill="currentColor" d="M6 2.207V4h2.293l-1.94-1.94A.207.207 0 0 0 6 2.208M5 4V2.207a1.207 1.207 0 0 1 2.06-.853L9 3.293V2.5A1.5 1.5 0 0 1 10.5 1h3A1.5 1.5 0 0 1 15 2.5V4h.999a.5.5 0 0 1 .497.557L15.149 16.23A2 2 0 0 1 13.163 18H6.836a2 2 0 0 1-1.986-1.77L3.502 4.556A.5.5 0 0 1 4 4zm9 0V2.5a.5.5 0 0 0-.5-.5h-3a.5.5 0 0 0-.5.5V4zm-2.701 3.75a1.5 1.5 0 0 0-2.598 0l-.452.782a.5.5 0 1 0 .866.5l.452-.782a.5.5 0 0 1 .866 0l.451.782a.5.5 0 0 0 .867-.5zm.866 3.5a.5.5 0 0 1-.433.75H11a.5.5 0 0 0 0 1h.732a1.5 1.5 0 0 0 1.299-2.25l-.107-.186a.5.5 0 0 0-.867.5zM9 12h-.732a.5.5 0 0 1-.433-.75l.107-.186a.5.5 0 0 0-.866-.5l-.107.186A1.5 1.5 0 0 0 8.268 13H9a.5.5 0 0 0 0-1"/></svg>