<svg xmlns="http://www.w3.org/2000/svg" xmlns:xlink="http://www.w3.org/1999/xlink" width="24" height="24" viewBox="0 0 24 24"><path fill="currentColor" d="M3.803 5.6A3.25 3.25 0 0 1 7.035 2h9.93a3.25 3.25 0 0 1 3.231 3.6L18.64 19.991A2.25 2.25 0 0 1 16.403 22H7.596a2.25 2.25 0 0 1-2.237-2.008zm1.5-.603h13.394A1.75 1.75 0 0 0 16.965 3.5h-9.93c-.89 0-1.612.66-1.733 1.497m6.49 5.412a.25.25 0 0 1 .415 0l.67 1a.75.75 0 1 0 1.246-.834l-.669-1a1.75 1.75 0 0 0-2.91 0l-.668 1a.75.75 0 0 0 1.247.834zm-1.9 3.219a.75.75 0 1 0-1.286-.772l-.364.607c-.8 1.333.16 3.03 1.715 3.03h.792a.75.75 0 0 0 0-1.5h-.792a.5.5 0 0 1-.429-.758zm4.474-1.03a.75.75 0 0 0-.258 1.03l.364.607a.5.5 0 0 1-.429.757h-.794a.75.75 0 0 0 0 1.5h.794c1.554 0 2.515-1.695 1.716-3.028l-.364-.607a.75.75 0 0 0-1.029-.258"/></svg>