<svg xmlns="http://www.w3.org/2000/svg" xmlns:xlink="http://www.w3.org/1999/xlink" width="24" height="24" viewBox="0 0 24 24"><path fill="currentColor" d="M11.617 2.076a1 1 0 0 1 1.09.217l5 5a1 1 0 0 1-.082 1.488L13.6 12l4.024 3.22a1 1 0 0 1 .082 1.487l-5 5A1 1 0 0 1 11 21v-6.92l-3.375 2.7a1 1 0 0 1-1.25-1.56L10.4 12L6.375 8.78a1 1 0 0 1 1.25-1.56L11 9.92V3a1 1 0 0 1 .617-.924M13 14.081v4.505l2.503-2.503zm0-4.162l2.503-2.002L13 5.414zM20 12a1 1 0 1 1-2 0a1 1 0 0 1 2 0M5 13a1 1 0 1 0 0-2a1 1 0 0 0 0 2"/></svg>