<svg xmlns="http://www.w3.org/2000/svg" xmlns:xlink="http://www.w3.org/1999/xlink" width="24" height="24" viewBox="0 0 24 24"><path fill="currentColor" d="M11.463 2.057a.75.75 0 0 1 .817.163l5 5a.75.75 0 0 1-.044 1.101L12.908 12l4.328 3.679a.75.75 0 0 1 .044 1.101l-5 5a.75.75 0 0 1-1.28-.53v-7.628l-3.764 3.2a.75.75 0 0 1-.972-1.143L10.592 12L6.264 8.321a.75.75 0 0 1 .972-1.142l3.764 3.2V2.75a.75.75 0 0 1 .463-.693M12.5 13.622v5.817l3.145-3.144zm0-3.244l3.145-2.673L12.5 4.561zm5.467-.791a.75.75 0 0 1 1.014.313c.331.627.519 1.343.519 2.1s-.187 1.473-.52 2.1a.75.75 0 1 1-1.326-.7c.22-.418.346-.893.346-1.4s-.125-.982-.346-1.4a.75.75 0 0 1 .313-1.013M20.6 7.799a.75.75 0 1 0-1.2.9c.691.92 1.1 2.062 1.1 3.301s-.409 2.38-1.1 3.3a.75.75 0 1 0 1.2.901A6.97 6.97 0 0 0 22 12a6.97 6.97 0 0 0-1.4-4.201"/></svg>