<svg xmlns="http://www.w3.org/2000/svg" xmlns:xlink="http://www.w3.org/1999/xlink" width="24" height="24" viewBox="0 0 24 24"><path fill="currentColor" d="M21.496 5.564a3.25 3.25 0 0 0-3.245-3.066h-12A3.25 3.25 0 0 0 3 5.748v12.004l.005.184a3.25 3.25 0 0 0 3.245 3.066h7.116L11.915 19.5H11.5v.001H6.25a1.75 1.75 0 0 1-1.743-1.589l-.007-.16V9.499l7-.001v2.675a4.5 4.5 0 0 1 1.5-.912V3.997l5.251.001a1.75 1.75 0 0 1 1.743 1.59l.007.16v5.28a4.4 4.4 0 0 1 1.5.45v-5.73zM6.251 3.998l5.249-.001v4.001l-7 .001V5.75a1.75 1.75 0 0 1 1.607-1.745zm15.726 9.06c1.364 1.413 1.364 3.703 0 5.115l-4.442 4.598a.74.74 0 0 1-1.07 0l-4.442-4.598a3.6 3.6 0 0 1-.523-.691a3.73 3.73 0 0 1 0-3.732a3.6 3.6 0 0 1 .523-.691a3.41 3.41 0 0 1 4.94 0l.037.038l.036-.038A3.42 3.42 0 0 1 20 12.036a3.4 3.4 0 0 1 1.501.61q.252.181.476.413"/></svg>