<svg xmlns="http://www.w3.org/2000/svg" xmlns:xlink="http://www.w3.org/1999/xlink" width="24" height="24" viewBox="0 0 24 24"><path fill="currentColor" d="M6.5 2A2.5 2.5 0 0 0 4 4.5v15A2.5 2.5 0 0 0 6.5 22h6.034c-.318-.416-.534-.924-.534-1.5H6.5a1 1 0 0 1-1-1H12v-5.207l.008.007c.099-1.166 1.052-1.984 2.01-2.462C15.087 11.302 16.497 11 18 11c.573 0 1.13.044 1.655.127q.436.068.845.172V4.5A2.5 2.5 0 0 0 18 2zM8 5h8a1 1 0 0 1 1 1v1a1 1 0 0 1-1 1H8a1 1 0 0 1-1-1V6a1 1 0 0 1 1-1m11.5 7.114a7.7 7.7 0 0 1 1.5.386c1.214.456 2 1.182 2 2s-.786 1.544-2 2a7.7 7.7 0 0 1-1.5.386A10 10 0 0 1 18 17c-2.761 0-5-1.12-5-2.5s2.239-2.5 5-2.5c.523 0 1.026.04 1.5.114m0 5.782a9 9 0 0 0 1.5-.338q.527-.169.983-.396a5 5 0 0 0 1.017-.67V20.5c0 1.38-2.239 2.5-5 2.5c-2.05 0-3.812-.617-4.584-1.5c-.268-.306-.416-.644-.416-1v-4.008c.31.27.663.493 1.017.67c1.071.536 2.48.838 3.983.838c.514 0 1.017-.035 1.5-.104"/></svg>