<svg xmlns="http://www.w3.org/2000/svg" xmlns:xlink="http://www.w3.org/1999/xlink" width="24" height="24" viewBox="0 0 24 24"><g fill="currentColor"><path d="M3.5 5.75a.25.25 0 0 1 .25-.25H10c.69 0 1.25.56 1.25 1.25v8.959a6.5 6.5 0 0 1 1.5-2.646V6.75c0-.69.56-1.25 1.25-1.25h6.25a.25.25 0 0 1 .25.25v5.982A6.5 6.5 0 0 1 22 12.81V5.75A1.75 1.75 0 0 0 20.25 4H14c-.788 0-1.499.331-2 .863A2.74 2.74 0 0 0 10 4H3.75A1.75 1.75 0 0 0 2 5.75v12.5c0 .966.784 1.75 1.75 1.75H10c.495 0 .96-.13 1.36-.36a6.5 6.5 0 0 1-.343-1.663A1.25 1.25 0 0 1 10 18.5H3.75a.25.25 0 0 1-.25-.25z"/><path d="M16.007 17c.04-1.415.248-2.669.553-3.585c.171-.513.364-.893.554-1.134c.195-.247.329-.281.386-.281s.192.034.386.281c.19.241.383.62.554 1.134c.305.916.513 2.17.553 3.585zm-.395-3.9c.107-.323.23-.622.367-.887A5.5 5.5 0 0 0 12.023 17h2.984c.04-1.5.26-2.866.604-3.9m3.778 0a6 6 0 0 0-.368-.887A5.5 5.5 0 0 1 22.978 17h-2.985c-.04-1.5-.26-2.866-.604-3.9m.604 4.9h2.985a5.5 5.5 0 0 1-3.957 4.787c.138-.265.26-.564.368-.886c.345-1.035.564-2.4.604-3.901m-2.107 4.719c-.194.247-.329.281-.386.281s-.191-.034-.386-.281c-.19-.241-.383-.62-.554-1.135c-.305-.915-.513-2.17-.553-3.584h2.986c-.04 1.415-.248 2.669-.553 3.584c-.171.514-.364.894-.554 1.135M12.023 18a5.5 5.5 0 0 0 3.956 4.787a6 6 0 0 1-.367-.886c-.346-1.035-.565-2.4-.605-3.901z"/></g></svg>