<svg xmlns="http://www.w3.org/2000/svg" xmlns:xlink="http://www.w3.org/1999/xlink" width="24" height="24" viewBox="0 0 24 24"><path fill="currentColor" d="M14.115 14.007c.372-.512.666-1.201.802-2.007h-4.834c.136.806.43 1.495.802 2.007c.519.714 1.109.993 1.615.993s1.096-.28 1.615-.993m0-6.014c.447.615.781 1.486.865 2.507h-4.96c.084-1.021.418-1.892.865-2.507C11.404 7.28 11.994 7 12.5 7s1.096.28 1.615.993M4 4.5A2.5 2.5 0 0 1 6.5 2H18a2.5 2.5 0 0 1 2.5 2.5v14.25a.75.75 0 0 1-.75.75H5.5a1 1 0 0 0 1 1h13.25a.75.75 0 0 1 0 1.5H6.5A2.5 2.5 0 0 1 4 19.5zm8.5 12c2.21 0 4-2.462 4-5.5s-1.79-5.5-4-5.5s-4 2.462-4 5.5s1.79 5.5 4 5.5"/></svg>