<svg xmlns="http://www.w3.org/2000/svg" xmlns:xlink="http://www.w3.org/1999/xlink" width="24" height="24" viewBox="0 0 24 24"><path fill="currentColor" d="M4 4.5v15A2.5 2.5 0 0 0 6.5 22h13.25a.75.75 0 0 0 0-1.5H6.5a1 1 0 0 1-1-1h14.25a.75.75 0 0 0 .75-.75V4.5A2.5 2.5 0 0 0 18 2H6.5A2.5 2.5 0 0 0 4 4.5m7 3.518a.75.75 0 0 1-.75.732c-.75 0-.75-.751-.75-.751V7.99a1 1 0 0 1 .008-.134a2.2 2.2 0 0 1 .42-1.067c.454-.613 1.27-1.062 2.585-1.039c.95.017 1.793.415 2.321 1.07c.537.667.718 1.57.362 2.459c-.362.905-1.181 1.265-1.652 1.471l-.05.023c-.28.123-.413.187-.493.251l-.001.001v.724a.75.75 0 0 1-1.5.001V11c0-.523.252-.897.563-1.147c.25-.2.565-.338.786-.436l.038-.017c.542-.239.8-.387.917-.679a.92.92 0 0 0-.138-.96c-.222-.275-.629-.502-1.179-.511c-.935-.016-1.245.285-1.353.432a.7.7 0 0 0-.134.33zm2.25 6.482a1 1 0 1 1-2 0a1 1 0 0 1 2 0"/></svg>