<svg xmlns="http://www.w3.org/2000/svg" xmlns:xlink="http://www.w3.org/1999/xlink" width="48" height="48" viewBox="0 0 48 48"><path fill="currentColor" d="M20 8c1.602 0 3.037.718 4 1.85A5.24 5.24 0 0 1 28 8h13.25A2.75 2.75 0 0 1 44 10.75V29a6.99 6.99 0 0 0-2.5-5.362V10.75a.25.25 0 0 0-.25-.25H28a2.75 2.75 0 0 0-2.75 2.75v21.5c0 .803.344 1.526.893 2.028a11 11 0 0 0 1.023 3.156A5.24 5.24 0 0 1 24 38.151A5.24 5.24 0 0 1 20 40H6.75A2.75 2.75 0 0 1 4 37.25v-26.5A2.75 2.75 0 0 1 6.75 8zm2.75 26.75v-21.5A2.75 2.75 0 0 0 20 10.5H6.75a.25.25 0 0 0-.25.25v26.5c0 .138.112.25.25.25H20a2.75 2.75 0 0 0 2.75-2.75m5.602 2.75A9 9 0 0 1 28 35a1 1 0 1 1 2 0a7 7 0 0 0 2.101 5A6.98 6.98 0 0 0 37 42a6.98 6.98 0 0 0 5.29-2.415A6.97 6.97 0 0 0 44 35a1 1 0 1 1 2 0a9 9 0 0 1-8 8.945V45a1 1 0 1 1-2 0v-1.055a9 9 0 0 1-7.648-6.445m4.317 0A5 5 0 0 0 37 40a5 5 0 0 0 5-5v-6a5 5 0 0 0-10 0v6c0 .91.243 1.765.669 2.5"/></svg>