<svg xmlns="http://www.w3.org/2000/svg" xmlns:xlink="http://www.w3.org/1999/xlink" width="24" height="24" viewBox="0 0 24 24"><path fill="currentColor" d="M12.04 6.017a4.75 4.75 0 1 0 .335-.012h-.01a1.4 1.4 0 0 0-.326.012m-1.622 1.835c-.226.677-.368 1.506-.407 2.398h-1.1a3.5 3.5 0 0 1 1.507-2.398m-.374 3.898a8.4 8.4 0 0 0 .379 1.91a3.5 3.5 0 0 1-1.405-1.91zm3.966 2.1l.003-.008c.22-.587.373-1.306.443-2.092h1.276a3.5 3.5 0 0 1-1.722 2.1m-1.061-2.1a6.6 6.6 0 0 1-.34 1.565c-.118.313-.24.514-.336.623l-.023.025l-.023-.025c-.097-.11-.218-.31-.335-.623c-.154-.41-.276-.947-.341-1.565zm.039-1.5h-1.476c.042-.828.185-1.547.38-2.065c.117-.313.238-.514.335-.623l.023-.025l.023.025c.097.11.218.31.335.623c.195.518.338 1.237.38 2.065m1.501 0c-.043-.978-.21-1.88-.475-2.588a3.5 3.5 0 0 1 1.825 2.588zm-2.182-2.76l-.004.002zm-.113 0l.003.002l-.004-.003zM6.5 2A2.5 2.5 0 0 0 4 4.5v15A2.5 2.5 0 0 0 6.5 22h13.25a.75.75 0 0 0 0-1.5H6.5a1 1 0 0 1-1-1h14.25a.75.75 0 0 0 .75-.75V4.5A2.5 2.5 0 0 0 18 2zM19 4.5V18H5.5V4.5a1 1 0 0 1 1-1H18a1 1 0 0 1 1 1m-6.697 9.509l.004.002Z"/></svg>