<svg xmlns="http://www.w3.org/2000/svg" xmlns:xlink="http://www.w3.org/1999/xlink" width="20" height="20" viewBox="0 0 20 20"><path fill="currentColor" d="M19 5.5a4.5 4.5 0 1 1-9 0a4.5 4.5 0 0 1 9 0m-4-2a.5.5 0 0 0-1 0V5h-1.5a.5.5 0 0 0 0 1H14v1.5a.5.5 0 0 0 1 0V6h1.5a.5.5 0 0 0 0-1H15zm0 13.018v-5.54a5.5 5.5 0 0 0 1-.185V17.5a.5.5 0 0 1-.794.404L10 14.118l-5.206 3.786A.5.5 0 0 1 4 17.5v-13A2.5 2.5 0 0 1 6.5 2h3.757A5.5 5.5 0 0 0 9.6 3H6.5A1.5 1.5 0 0 0 5 4.5v12.018l4.706-3.422a.5.5 0 0 1 .588 0z"/></svg>