<svg xmlns="http://www.w3.org/2000/svg" xmlns:xlink="http://www.w3.org/1999/xlink" width="20" height="20" viewBox="0 0 20 20"><path fill="currentColor" d="M8 3.5a.5.5 0 0 1 .5-.5h3a.5.5 0 0 1 0 1h-3a.5.5 0 0 1-.5-.5m-2.46.553A2 2 0 0 0 4.052 5.54a.51.51 0 0 1-.6.462a.51.51 0 0 1-.38-.663a3 3 0 0 1 2.265-2.265a.51.51 0 0 1 .663.38a.51.51 0 0 1-.462.6m0 11.894a2 2 0 0 1-1.487-1.486a.51.51 0 0 0-.6-.463a.51.51 0 0 0-.38.664a3 3 0 0 0 2.265 2.265a.505.505 0 1 0 .201-.98m9.05-12.893l.072.02a3 3 0 0 1 2.265 2.264a.506.506 0 0 1-.38.664a.51.51 0 0 1-.6-.463a2 2 0 0 0-1.486-1.486a.51.51 0 0 1-.462-.6a.51.51 0 0 1 .592-.4m-.13 12.893a2 2 0 0 0 1.487-1.486l.008-.063a.51.51 0 0 1 .592-.4a.51.51 0 0 1 .38.664a3 3 0 0 1-2.265 2.265a.51.51 0 0 1-.663-.38a.51.51 0 0 1 .462-.6M16 11.5a.5.5 0 0 0 1 0v-3a.5.5 0 0 0-1 0zM3.5 12a.5.5 0 0 1-.5-.5v-3a.5.5 0 0 1 1 0v3a.5.5 0 0 1-.5.5m5 4a.5.5 0 0 0 0 1h3a.5.5 0 0 0 0-1z"/></svg>