<svg xmlns="http://www.w3.org/2000/svg" xmlns:xlink="http://www.w3.org/1999/xlink" width="28" height="28" viewBox="0 0 28 28"><path fill="currentColor" d="M14.75 2.25a.75.75 0 0 0-1.5 0V3h-4.5A2.75 2.75 0 0 0 6 5.75v5.5A2.75 2.75 0 0 0 8.75 14h10.5A2.75 2.75 0 0 0 22 11.25v-5.5A2.75 2.75 0 0 0 19.25 3h-4.5zM7.5 5.75c0-.69.56-1.25 1.25-1.25h10.5c.69 0 1.25.56 1.25 1.25v5.5c0 .69-.56 1.25-1.25 1.25H8.75c-.69 0-1.25-.56-1.25-1.25zm-2 13c0-.69.56-1.25 1.25-1.25h14.5c.69 0 1.25.56 1.25 1.25v.75c0 1.423-.664 2.633-2.033 3.52c-1.398.907-3.55 1.48-6.467 1.48s-5.069-.573-6.467-1.48C6.163 22.134 5.5 20.924 5.5 19.5zM6.75 16A2.75 2.75 0 0 0 4 18.75v.75c0 1.977.961 3.642 2.717 4.78C8.444 25.397 10.917 26 14 26s5.556-.602 7.283-1.72C23.039 23.141 24 21.476 24 19.5v-.75A2.75 2.75 0 0 0 21.25 16zm5.75-7.5a1.5 1.5 0 1 1-3 0a1.5 1.5 0 0 1 3 0M17 10a1.5 1.5 0 1 0 0-3a1.5 1.5 0 0 0 0 3"/></svg>