<svg xmlns="http://www.w3.org/2000/svg" xmlns:xlink="http://www.w3.org/1999/xlink" width="48" height="48" viewBox="0 0 48 48"><path fill="currentColor" d="M25.25 5.25a1.25 1.25 0 1 0-2.5 0V7h-7.5A4.25 4.25 0 0 0 11 11.25v8.5A4.25 4.25 0 0 0 15.25 24h12.819c2.006-1.267 4.383-2 6.931-2q.666 0 1.314.066A4.23 4.23 0 0 0 37 19.75v-8.5A4.25 4.25 0 0 0 32.75 7h-7.5zM12.25 28h11.794c-.5.78-.919 1.618-1.244 2.5H12.25a1.75 1.75 0 0 0-1.75 1.75v1.05c0 2.246 1.056 4.237 3.238 5.715c2.177 1.474 5.506 2.448 10 2.484c.518.894 1.138 1.72 1.846 2.464Q24.81 44 24 44c-4.94 0-8.9-1.043-11.664-2.915C9.535 39.188 8 36.454 8 33.3v-1.05A4.25 4.25 0 0 1 12.25 28m1.25-16.75c0-.966.784-1.75 1.75-1.75h17.5c.967 0 1.75.784 1.75 1.75v8.5a1.75 1.75 0 0 1-1.75 1.75h-17.5a1.75 1.75 0 0 1-1.75-1.75zM19 18a2.5 2.5 0 1 0 0-5a2.5 2.5 0 0 0 0 5m12.5-2.5a2.5 2.5 0 1 1-5 0a2.5 2.5 0 0 1 5 0M46 35c0 6.075-4.925 11-11 11s-11-4.925-11-11s4.925-11 11-11s11 4.925 11 11m-10-7a1 1 0 1 0-2 0v6h-6a1 1 0 1 0 0 2h6v6a1 1 0 1 0 2 0v-6h6a1 1 0 1 0 0-2h-6z"/></svg>