<svg xmlns="http://www.w3.org/2000/svg" xmlns:xlink="http://www.w3.org/1999/xlink" width="32" height="32" viewBox="0 0 32 32"><path fill="currentColor" d="M17 3a1 1 0 1 0-2 0v1h-4.75A3.25 3.25 0 0 0 7 7.25v5.5A3.25 3.25 0 0 0 10.25 16h7.093A8.96 8.96 0 0 1 23 14q.863.001 1.68.157c.205-.426.32-.903.32-1.407v-5.5A3.25 3.25 0 0 0 21.75 4H17zM8.25 19h6.685a9 9 0 0 0-.712 2H8.25C7.56 21 7 21.56 7 22.25v.45c0 1.43.68 2.707 2.122 3.668c1.394.928 3.518 1.562 6.39 1.627a9 9 0 0 0 1.786 1.969Q16.667 30 16 30c-3.366 0-6.08-.698-7.987-1.968C6.077 26.742 5 24.871 5 22.7v-.45A3.25 3.25 0 0 1 8.25 19M9 7.25C9 6.56 9.56 6 10.25 6h11.5c.69 0 1.25.56 1.25 1.25v5.5c0 .69-.56 1.25-1.25 1.25h-11.5C9.56 14 9 13.44 9 12.75zM14.25 10a1.75 1.75 0 1 1-3.5 0a1.75 1.75 0 0 1 3.5 0m5.25 1.75a1.75 1.75 0 1 0 0-3.5a1.75 1.75 0 0 0 0 3.5M23 30.5a7.5 7.5 0 1 0 0-15a7.5 7.5 0 0 0 0 15m1-12.25V22h3.75a.75.75 0 0 1 0 1.5H24v3.75a.75.75 0 0 1-1.5 0V23.5h-3.75a.75.75 0 0 1 0-1.5h3.75v-3.75a.75.75 0 0 1 1.5 0"/></svg>