<svg xmlns="http://www.w3.org/2000/svg" xmlns:xlink="http://www.w3.org/1999/xlink" width="16" height="16" viewBox="0 0 16 16"><path fill="currentColor" d="M7 1a.5.5 0 0 1 .5.5V2h2A1.5 1.5 0 0 1 11 3.5v2.522A5.5 5.5 0 0 0 7.257 8H4.5A1.5 1.5 0 0 1 3 6.5v-3A1.5 1.5 0 0 1 4.5 2h2v-.5A.5.5 0 0 1 7 1M6 11.5c0-.706.133-1.38.375-2H3.5A1.5 1.5 0 0 0 2 11v.35c0 1.305.6 2.25 1.554 2.843C4.479 14.768 5.71 15 7 15l.255-.003A5.48 5.48 0 0 1 6 11.5m-.5-5.75a.75.75 0 1 0 0-1.5a.75.75 0 0 0 0 1.5M9.25 5a.75.75 0 1 0-1.5 0a.75.75 0 0 0 1.5 0M16 11.5a4.5 4.5 0 1 1-9 0a4.5 4.5 0 0 1 9 0m-4-2a.5.5 0 0 0-1 0V11H9.5a.5.5 0 0 0 0 1H11v1.5a.5.5 0 0 0 1 0V12h1.5a.5.5 0 0 0 0-1H12z"/></svg>