<svg xmlns="http://www.w3.org/2000/svg" xmlns:xlink="http://www.w3.org/1999/xlink" width="28" height="28" viewBox="0 0 28 28"><path fill="currentColor" d="M14.75 2.25a.75.75 0 0 0-1.5 0V3h-4.5A2.75 2.75 0 0 0 6 5.75v5.5A2.75 2.75 0 0 0 8.75 14h8.006a7.47 7.47 0 0 1 4.577-.954A2.74 2.74 0 0 0 22 11.25v-5.5A2.75 2.75 0 0 0 19.25 3h-4.5zM6.75 16h7.75a7.5 7.5 0 0 0-.876 1.5H6.75c-.69 0-1.25.56-1.25 1.25v.75c0 1.423.664 2.633 2.033 3.52c1.398.907 3.55 1.48 6.467 1.48h.154a7.5 7.5 0 0 0 1.203 1.459Q14.7 25.999 14 26c-3.084 0-5.556-.602-7.283-1.72C4.961 23.141 4 21.476 4 19.5v-.75A2.75 2.75 0 0 1 6.75 16M7.5 5.75c0-.69.56-1.25 1.25-1.25h10.5c.69 0 1.25.56 1.25 1.25v5.5c0 .69-.56 1.25-1.25 1.25H8.75c-.69 0-1.25-.56-1.25-1.25zm5 2.75a1.5 1.5 0 1 1-3 0a1.5 1.5 0 0 1 3 0M17 10a1.5 1.5 0 1 0 0-3a1.5 1.5 0 0 0 0 3m10 10.5a6.5 6.5 0 1 1-13 0a6.5 6.5 0 0 1 13 0m-6-4a.5.5 0 0 0-1 0V20h-3.5a.5.5 0 0 0 0 1H20v3.5a.5.5 0 0 0 1 0V21h3.5a.5.5 0 0 0 0-1H21z"/></svg>