<svg xmlns="http://www.w3.org/2000/svg" xmlns:xlink="http://www.w3.org/1999/xlink" width="20" height="20" viewBox="0 0 20 20"><path fill="currentColor" d="M6.923 4.833a3.5 3.5 0 0 1 6.242.168a3.75 3.75 0 0 0-3.383 2.321a6.2 6.2 0 0 0-.913-1.173a6.5 6.5 0 0 0-1.946-1.316M16.992 9Q17 8.876 17 8.75a3.75 3.75 0 0 0-2.705-3.603a4.502 4.502 0 0 0-8.314-.67a10 10 0 0 0-1.213-.296A11.5 11.5 0 0 0 2.666 4l-.184.006h-.004a.5.5 0 0 0-.47.47v.001L2 4.665a11.5 11.5 0 0 0 .18 2.105c.123.682.331 1.464.685 2.23H2.5a.5.5 0 0 0-.5.5v.5a8 8 0 1 0 16 0v-.5a.5.5 0 0 0-.5-.5zM3.984 9c-.434-.782-.682-1.639-.82-2.408a10.5 10.5 0 0 1-.162-1.59l.114.004c.372.013.89.053 1.474.159c1.18.213 2.566.685 3.572 1.691c.616.616 1.033 1.376 1.313 2.144H7.708L5.854 7.146a.5.5 0 1 0-.707.708L6.294 9zm6.548 0l-.027-.081A2.75 2.75 0 1 1 15.99 9zM3 10h14c0 .695-.101 1.366-.29 2H3.29A7 7 0 0 1 3 10m7 7a7 7 0 0 1-6.326-4h12.652A7 7 0 0 1 10 17"/></svg>