<svg xmlns="http://www.w3.org/2000/svg" xmlns:xlink="http://www.w3.org/1999/xlink" width="16" height="16" viewBox="0 0 16 16"><path fill="currentColor" d="M11.647 4.322L5.036 1.489l-2.074.798c-.206.08-.387.2-.535.352L9 5.456zM7.923.379l-1.55.596l6.544 2.802l2.656-1.138a1.5 1.5 0 0 0-.534-.352L10.077.379a3 3 0 0 0-2.154 0M9.5 6.329l6.493-2.782q.007.07.007.14v6.626a1.5 1.5 0 0 1-.961 1.4l-4.962 1.909a3 3 0 0 1-.577.158zm-1 4.171V6.33L2.007 3.547a2 2 0 0 0-.007.14v2.57C2.47 6.09 2.974 6 3.5 6c2.761 0 5 2.015 5 4.5m-5 3.5c.786 0 1.512-.26 2.096-.697l2.55 2.55a.5.5 0 1 0 .708-.707l-2.55-2.55A3.5 3.5 0 1 0 3.5 14m0-1a2.5 2.5 0 1 1 0-5a2.5 2.5 0 0 1 0 5"/></svg>