<svg xmlns="http://www.w3.org/2000/svg" xmlns:xlink="http://www.w3.org/1999/xlink" width="28" height="28" viewBox="0 0 28 28"><path fill="currentColor" d="M15.395 2.5a3.75 3.75 0 0 0-2.786 0L3.732 6.05a2.75 2.75 0 0 0-1.728 2.553v10.792a2.75 2.75 0 0 0 1.728 2.554l8.877 3.55a3.75 3.75 0 0 0 2.786 0l8.877-3.55a2.75 2.75 0 0 0 1.729-2.554V8.604a2.75 2.75 0 0 0-1.729-2.553zm-2.229 1.392a2.25 2.25 0 0 1 1.672 0L23.23 7.25l-3.605 1.442L10.397 5zM8.378 5.808l9.23 3.692l-3.606 1.443L4.773 7.25zm-4.851 2.56l9.725 3.89V24.14l-.086-.032l-8.876-3.551a1.25 1.25 0 0 1-.786-1.16V8.603q0-.12.023-.237M14.752 24.14V12.258l9.726-3.89q.022.115.022.236v10.792c0 .511-.31.971-.785 1.16l-8.877 3.552z"/></svg>