<svg xmlns="http://www.w3.org/2000/svg" xmlns:xlink="http://www.w3.org/1999/xlink" width="48" height="48" viewBox="0 0 48 48"><path fill="currentColor" d="M26.321 4.832a6.25 6.25 0 0 0-4.642 0l-5.29 2.116l18.738 7.505l7.344-2.938a4.3 4.3 0 0 0-1.143-.68zm5.442 10.967L13.024 8.294l-6.352 2.54c-.422.17-.806.4-1.143.681L24 18.904zM4 14.78c0-.386.052-.764.151-1.124l18.599 7.44v9.54A13 13 0 0 0 22 35c0 1.53.264 2.999.75 4.362v4.126a6 6 0 0 1-1.071-.32L6.672 37.163A4.25 4.25 0 0 1 4 33.219zM35 22c3.493 0 6.664 1.378 9 3.62V14.78c0-.385-.052-.763-.151-1.123l-18.599 7.44V26.4A12.97 12.97 0 0 1 35 22m11 13c0 6.075-4.925 11-11 11s-11-4.925-11-11s4.925-11 11-11s11 4.925 11 11m-12.293 4.707l8-8a1 1 0 0 0-1.414-1.414L33 37.586l-3.293-3.293a1 1 0 0 0-1.414 1.414l4 4a1 1 0 0 0 1.414 0"/></svg>