<svg xmlns="http://www.w3.org/2000/svg" xmlns:xlink="http://www.w3.org/1999/xlink" width="20" height="20" viewBox="0 0 20 20"><path fill="currentColor" d="m10 7.961l3.03-1.211l-7.5-3l-2.586 1.034a1.5 1.5 0 0 0-.364.209zM2.035 5.853A1.5 1.5 0 0 0 2 6.177v3.08a4.5 4.5 0 0 1 5.561 6.184l1.94 1.938v-8.54zm8.465 11.88q.409-.059.8-.215l5.757-2.302A1.5 1.5 0 0 0 18 13.823V6.177q0-.167-.035-.324L10.5 8.838zm6.921-12.74l-3.046 1.218l-7.5-3l1.825-.73a3.5 3.5 0 0 1 2.6 0l5.757 2.303a1.5 1.5 0 0 1 .364.209M3.5 17c.786 0 1.512-.26 2.096-.697l2.55 2.55a.5.5 0 1 0 .708-.707l-2.55-2.55A3.5 3.5 0 1 0 3.5 17m0-1a2.5 2.5 0 1 1 0-5a2.5 2.5 0 0 1 0 5"/></svg>