<svg xmlns="http://www.w3.org/2000/svg" xmlns:xlink="http://www.w3.org/1999/xlink" width="20" height="20" viewBox="0 0 20 20"><path fill="currentColor" d="m17.421 4.992l-3.046 1.219l-7.5-3L8.7 2.48a3.5 3.5 0 0 1 2.6 0l5.757 2.303a1.5 1.5 0 0 1 .364.208m-7.42 2.969l3.028-1.212l-7.5-3l-2.586 1.035a1.5 1.5 0 0 0-.364.208zM2 6.176q0-.166.035-.324L9.5 8.838v3.367a5.5 5.5 0 0 0-.5 2.294c0 .82.18 1.597.5 2.295v.938q-.409-.058-.8-.214l-5.757-2.303A1.5 1.5 0 0 1 2 13.822zm16 0v4.08A5.48 5.48 0 0 0 14.5 9a5.5 5.5 0 0 0-4 1.724V8.838l7.465-2.986q.035.158.035.324m1 8.324a4.5 4.5 0 1 0-9 0a4.5 4.5 0 0 0 9 0m-6.856-.352l.003-.002l2-2a.5.5 0 1 1 .707.707L13.707 14H16.5a.5.5 0 0 1 0 1h-2.793l1.147 1.147a.5.5 0 1 1-.707.707l-2-2a.5.5 0 0 1-.147-.35v-.007a.5.5 0 0 1 .144-.348"/></svg>