<svg xmlns="http://www.w3.org/2000/svg" xmlns:xlink="http://www.w3.org/1999/xlink" width="16" height="16" viewBox="0 0 16 16"><path fill="currentColor" d="M10.077.379a3 3 0 0 0-2.154 0L2.962 2.287A1.5 1.5 0 0 0 2 3.687v2.57q.478-.17 1-.23V3.973L8.5 6.33v7.049l.442.442a3 3 0 0 0 1.135-.2l4.962-1.908a1.5 1.5 0 0 0 .961-1.4V3.687a1.5 1.5 0 0 0-.961-1.4zm-1.795.933a2 2 0 0 1 1.436 0l4.718 1.815l-1.947.834l-5.591-2.116zM9.5 6.33L15 3.973v6.34a.5.5 0 0 1-.32.467l-4.962 1.908q-.107.042-.218.07zM9 5.456l-5.436-2.33l1.933-.743l5.667 2.146zM3.5 14c.786 0 1.512-.26 2.096-.697l2.55 2.55a.5.5 0 1 0 .708-.707l-2.55-2.55A3.5 3.5 0 1 0 3.5 14m0-1a2.5 2.5 0 1 1 0-5a2.5 2.5 0 0 1 0 5"/></svg>