<svg xmlns="http://www.w3.org/2000/svg" xmlns:xlink="http://www.w3.org/1999/xlink" width="24" height="24" viewBox="0 0 24 24"><path fill="currentColor" d="M10.591 2.513a3.75 3.75 0 0 1 2.818 0l7.498 3.04A1.75 1.75 0 0 1 22 7.175v5.635a6.5 6.5 0 0 0-1.5-1.077v-3.96l-7.75 2.992v2.298a6.5 6.5 0 0 0-1.5 2.645v-4.944L3.5 7.75v9.078a.25.25 0 0 0 .156.231l7.499 3.04q.047.02.095.036l.189.076q.088.036.179.06c.248.526.565 1.014.94 1.451a3.75 3.75 0 0 1-1.967-.233l-7.498-3.04A1.75 1.75 0 0 1 2 16.827V7.176a1.75 1.75 0 0 1 1.093-1.622zm2.254 1.39a2.25 2.25 0 0 0-1.69 0L9.24 4.68l7.527 2.927l2.67-1.03zM4.59 6.564l7.411 2.883l2.69-1.04L7.216 5.5zM17.5 23.001a5.5 5.5 0 1 0 0-11a5.5 5.5 0 0 0 0 11m-1-4.207l3.646-3.647a.5.5 0 0 1 .708.707l-4 4a.5.5 0 0 1-.708 0l-2-2a.5.5 0 0 1 .708-.707z"/></svg>