<svg xmlns="http://www.w3.org/2000/svg" xmlns:xlink="http://www.w3.org/1999/xlink" width="24" height="24" viewBox="0 0 24 24"><path fill="currentColor" d="M13.409 2.513a3.75 3.75 0 0 0-2.818 0l-2.19.888l9.592 3.73l3.374-1.303a1.8 1.8 0 0 0-.46-.275zM22 7.191l-9.25 3.574v6.841l5.643-5.643A3.29 3.29 0 0 1 22 11.261zm-10.75 3.574v9.897l-.187.747a2 2 0 0 0-.044.225a4 4 0 0 1-.428-.145l-7.498-3.04A1.75 1.75 0 0 1 2 16.827V7.192zM2.633 5.828L12 9.447l3.917-1.514l-9.543-3.71l-3.281 1.33q-.256.104-.46.275M19.1 12.67l-5.903 5.903a2.7 2.7 0 0 0-.706 1.247l-.458 1.831a1.087 1.087 0 0 0 1.319 1.318l1.83-.457a2.7 2.7 0 0 0 1.248-.707l5.902-5.902A2.286 2.286 0 0 0 19.1 12.67"/></svg>