<svg xmlns="http://www.w3.org/2000/svg" xmlns:xlink="http://www.w3.org/1999/xlink" width="24" height="24" viewBox="0 0 24 24"><path fill="currentColor" d="M13.409 2.513a3.75 3.75 0 0 0-2.818 0l-2.19.888l9.592 3.73l3.374-1.303a1.8 1.8 0 0 0-.46-.275zM22 7.191l-9.25 3.574v2.3A6.48 6.48 0 0 1 17.5 11c1.747 0 3.332.689 4.5 1.81zm-10.75 3.574v4.945a6.5 6.5 0 0 0-.25 1.791c0 .621.087 1.222.25 1.79v2.397a4 4 0 0 1-.659-.199l-7.498-3.04A1.75 1.75 0 0 1 2 16.827V7.192zM2.633 5.828L12 9.447l3.917-1.514l-9.543-3.71l-3.281 1.33q-.256.104-.46.275M23 17.5a5.5 5.5 0 1 1-11 0a5.5 5.5 0 0 1 11 0m-7.146-2.354a.5.5 0 0 0-.708.707l1.647 1.647l-1.647 1.646a.5.5 0 0 0 .708.708l1.646-1.647l1.646 1.647a.5.5 0 0 0 .708-.708L18.207 17.5l1.647-1.647a.5.5 0 0 0-.708-.707L17.5 16.794z"/></svg>