<svg xmlns="http://www.w3.org/2000/svg" xmlns:xlink="http://www.w3.org/1999/xlink" width="24" height="24" viewBox="0 0 24 24"><path fill="currentColor" d="M4 6a3 3 0 0 1 3-3a1 1 0 0 1 0 2a1 1 0 0 0-1 1v3.938c0 .789-.307 1.519-.82 2.062c.513.543.82 1.273.82 2.062V18a1 1 0 0 0 1 1a1 1 0 1 1 0 2a3 3 0 0 1-3-3v-3.938a1 1 0 0 0-.757-.97l-.486-.122a1 1 0 0 1 0-1.94l.486-.121A1 1 0 0 0 4 9.939zm16 0a3 3 0 0 0-3-3a1 1 0 1 0 0 2a1 1 0 0 1 1 1v3.938c0 .789.307 1.519.82 2.062a3 3 0 0 0-.82 2.062V18a1 1 0 0 1-1 1a1 1 0 1 0 0 2a3 3 0 0 0 3-3v-3.938a1 1 0 0 1 .758-.97l.485-.122a1 1 0 0 0 0-1.94l-.485-.121a1 1 0 0 1-.758-.97z"/></svg>