<svg xmlns="http://www.w3.org/2000/svg" xmlns:xlink="http://www.w3.org/1999/xlink" width="32" height="32" viewBox="0 0 32 32"><path fill="currentColor" d="M9.25 4.004a3.75 3.75 0 0 0-3.75 3.75v5.025c0 .571-.021.833-.154 1.07c-.113.204-.433.59-1.518.978a1.25 1.25 0 0 0 0 2.354c1.082.387 1.372.76 1.488.995c.16.327.184.746.184 1.66v4.418a3.75 3.75 0 0 0 3.75 3.75h.5a1.25 1.25 0 1 0 0-2.5h-.5c-.69 0-1.25-.56-1.25-1.25v-4.526c.001-.756.003-1.752-.44-2.654a3.6 3.6 0 0 0-.795-1.061q.474-.426.764-.945c.473-.848.472-1.715.471-2.228V7.754c0-.69.56-1.25 1.25-1.25h.5a1.25 1.25 0 1 0 0-2.5zm13.5 0a3.75 3.75 0 0 1 3.75 3.75v5.025c0 .571.021.833.154 1.07c.113.204.433.59 1.518.978a1.25 1.25 0 0 1 0 2.354c-1.082.387-1.372.76-1.488.995c-.16.327-.184.746-.184 1.66v4.418a3.75 3.75 0 0 1-3.75 3.75h-.5a1.25 1.25 0 1 1 0-2.5h.5c.69 0 1.25-.56 1.25-1.25v-4.526c-.001-.756-.003-1.752.44-2.654a3.6 3.6 0 0 1 .795-1.061a3.7 3.7 0 0 1-.764-.945c-.473-.848-.472-1.715-.471-2.228V7.754c0-.69-.56-1.25-1.25-1.25h-.5a1.25 1.25 0 1 1 0-2.5z"/></svg>