<svg xmlns="http://www.w3.org/2000/svg" xmlns:xlink="http://www.w3.org/1999/xlink" width="20" height="20" viewBox="0 0 20 20"><path fill="currentColor" d="M5.75 2.5A2.75 2.75 0 0 0 3 5.25v3.132c0 .397-.222.76-.574.942a.75.75 0 0 0 0 1.352c.352.182.574.545.574.942v3.132a2.75 2.75 0 0 0 2.75 2.75a.75.75 0 0 0 0-1.5c-.69 0-1.25-.56-1.25-1.25v-3.132c0-.6-.21-1.17-.576-1.618A2.56 2.56 0 0 0 4.5 8.382V5.25C4.5 4.56 5.06 4 5.75 4a.75.75 0 0 0 0-1.5m8.5 0A2.75 2.75 0 0 1 17 5.25v3.132c0 .397.222.76.574.942a.75.75 0 0 1 0 1.352a1.06 1.06 0 0 0-.574.942v3.132a2.75 2.75 0 0 1-2.75 2.75a.75.75 0 0 1 0-1.5c.69 0 1.25-.56 1.25-1.25v-3.132c0-.6.21-1.17.576-1.618a2.56 2.56 0 0 1-.576-1.618V5.25c0-.69-.56-1.25-1.25-1.25a.75.75 0 0 1 0-1.5M8.11 6.064a.75.75 0 1 0-1.22.872L9.078 10L6.89 13.064a.75.75 0 0 0 1.22.872L10 11.29l1.89 2.646a.75.75 0 0 0 1.22-.872L10.922 10l2.188-3.064a.75.75 0 0 0-1.22-.872L10 8.71z"/></svg>