<svg xmlns="http://www.w3.org/2000/svg" xmlns:xlink="http://www.w3.org/1999/xlink" width="20" height="20" viewBox="0 0 20 20"><path fill="currentColor" d="M5.7 3.948a2.423 2.423 0 0 1 4.3-1a2.423 2.423 0 0 1 4.3 1l.125.627l.406.081A2.7 2.7 0 0 1 17 7.302V7.5c0 .726-.31 1.38-.805 1.837a3.248 3.248 0 0 1-.77 6.088l-.037.185A2.973 2.973 0 0 1 10 16.678a2.973 2.973 0 0 1-5.388-1.068l-.037-.185a3.248 3.248 0 0 1-.77-6.088A2.5 2.5 0 0 1 3 7.5v-.198a2.7 2.7 0 0 1 2.169-2.646l.406-.08zM14.5 10a.5.5 0 0 1 0-1A1.5 1.5 0 0 0 16 7.5v-.198c0-.81-.571-1.506-1.365-1.665l-.733-.147a.5.5 0 0 1-.392-.392l-.191-.954a1.423 1.423 0 0 0-2.819.28v10.603a1.973 1.973 0 0 0 3.907.387l.103-.512a.5.5 0 0 1 .392-.392l.291-.059a2.248 2.248 0 0 0-.44-4.451zm-5 4V4.422a1.423 1.423 0 0 0-2.819-.279l-.19.954a.5.5 0 0 1-.393.392l-.733.147A1.7 1.7 0 0 0 4 7.302V7.5A1.5 1.5 0 0 0 5.5 9a.5.5 0 0 1 0 1h-.252a2.248 2.248 0 0 0-.441 4.451l.291.059a.5.5 0 0 1 .392.392l.103.512a1.973 1.973 0 0 0 3.907-.387z"/></svg>