<svg xmlns="http://www.w3.org/2000/svg" xmlns:xlink="http://www.w3.org/1999/xlink" width="20" height="20" viewBox="0 0 20 20"><path fill="currentColor" d="M4.5 5.208A2.5 2.5 0 0 0 3 7.5v1A1.5 1.5 0 0 0 4.5 10H9v-.293l1.968 1.968A.5.5 0 0 1 10.5 12h-1a.5.5 0 0 1-.5-.5V11H4.5a2.5 2.5 0 0 1-1.5-.5v3A2.5 2.5 0 0 0 5.5 16h9q.362-.001.695-.098l1.951 1.952a.5.5 0 0 0 .708-.708l-15-15a.5.5 0 1 0-.708.708zM13.122 11l3.617 3.616A2.5 2.5 0 0 0 17 13.5v-3a2.5 2.5 0 0 1-1.5.5zM7 4.879L12.121 10H15.5A1.5 1.5 0 0 0 17 8.5v-1A2.5 2.5 0 0 0 14.5 5H13V3.75A1.75 1.75 0 0 0 11.25 2h-2.5A1.75 1.75 0 0 0 7 3.75zM8 5V3.75A.75.75 0 0 1 8.75 3h2.5a.75.75 0 0 1 .75.75V5z"/></svg>