<svg xmlns="http://www.w3.org/2000/svg" xmlns:xlink="http://www.w3.org/1999/xlink" width="28" height="28" viewBox="0 0 28 28"><path fill="currentColor" d="M14.75 2.75a.75.75 0 0 0-1.5 0v1.496a.75.75 0 0 0 1.5 0zM20 14a6 6 0 1 1-12 0a6 6 0 0 1 12 0m-1.5 0A4.5 4.5 0 0 0 14 9.5v9a4.5 4.5 0 0 0 4.5-4.5m7.5 0a.75.75 0 0 1-.75.75h-1.497a.75.75 0 0 1 0-1.5h1.496A.75.75 0 0 1 26 14m-11.25 9.754a.75.75 0 0 0-1.5 0v1.496a.75.75 0 0 0 1.5 0zM5 14a.75.75 0 0 1-.75.75h-1.5a.75.75 0 0 1 0-1.5h1.5A.75.75 0 0 1 5 14m1.28-8.781a.75.75 0 1 0-1.061 1.06l1.5 1.5a.75.75 0 0 0 1.06-1.06zm-1.061 17.56a.75.75 0 0 0 1.06 0l1.5-1.5a.75.75 0 1 0-1.06-1.06l-1.5 1.5a.75.75 0 0 0 0 1.06m16.5-17.56a.75.75 0 1 1 1.06 1.06l-1.5 1.5a.75.75 0 1 1-1.06-1.06zm1.06 17.56a.75.75 0 0 1-1.06 0l-1.5-1.5a.75.75 0 1 1 1.06-1.06l1.5 1.5a.75.75 0 0 1 0 1.06"/></svg>