<svg xmlns="http://www.w3.org/2000/svg" xmlns:xlink="http://www.w3.org/1999/xlink" width="24" height="24" viewBox="0 0 24 24"><path fill="currentColor" d="M3.5 3.75a.25.25 0 0 1 .25-.25h5.5a.25.25 0 0 1 .25.25v3c0 .966.784 1.75 1.75 1.75h1a.25.25 0 0 1 .25.25v1.324c.478-.137.98-.215 1.5-.226V8.75A1.75 1.75 0 0 0 12.25 7h-1a.25.25 0 0 1-.25-.25v-3A1.75 1.75 0 0 0 9.25 2h-5.5A1.75 1.75 0 0 0 2 3.75v12.5c0 .966.784 1.75 1.75 1.75h1.507a4.714 4.714 0 0 1 .331-1.5H3.75a.25.25 0 0 1-.25-.25V3.75ZM5.25 6.5a.75.75 0 1 0 0-1.5a.75.75 0 0 0 0 1.5Zm0 3a.75.75 0 1 0 0-1.5a.75.75 0 0 0 0 1.5Zm0 3a.75.75 0 1 0 0-1.5a.75.75 0 0 0 0 1.5Zm2.5-6a.75.75 0 1 0 0-1.5a.75.75 0 0 0 0 1.5Zm0 3a.75.75 0 1 0 0-1.5a.75.75 0 0 0 0 1.5Zm0 3a.75.75 0 1 0 0-1.5a.75.75 0 0 0 0 1.5Zm6.375-1.653a4.889 4.889 0 0 0-4.748 3.727A3.739 3.739 0 0 0 9.987 22h8.275a3.738 3.738 0 0 0 .611-7.426a4.889 4.889 0 0 0-4.748-3.727Zm-3.366 4.51a3.388 3.388 0 0 1 6.732 0l.075.67l.696-.003h.002a2.238 2.238 0 0 1-.002 4.476H9.988a2.238 2.238 0 0 1-.001-4.476l.697.003l.075-.67Z"/></svg>