<svg xmlns="http://www.w3.org/2000/svg" xmlns:xlink="http://www.w3.org/1999/xlink" width="48" height="48" viewBox="0 0 48 48"><path fill="currentColor" d="M7.25 12.5a1.75 1.75 0 1 0 0-3.5a1.75 1.75 0 0 0 0 3.5m35.25-1.75a1.75 1.75 0 1 1-3.5 0a1.75 1.75 0 0 1 3.5 0m-34 4.5a1.25 1.25 0 1 0-2.5 0v24.5A2.25 2.25 0 0 0 8.25 42h9.5A2.25 2.25 0 0 0 20 39.75v-3A3.75 3.75 0 0 1 23.75 33h.5A3.75 3.75 0 0 1 28 36.75v3A2.25 2.25 0 0 0 30.25 42h9.5A2.25 2.25 0 0 0 42 39.75v-24.5a1.25 1.25 0 1 0-2.5 0V26h-4.588A12 12 0 0 0 36 21c0-1.868-.843-3.548-1.946-4.955c-1.107-1.413-2.552-2.65-3.946-3.659a35 35 0 0 0-3.835-2.391a34 34 0 0 0-1.723-.868l-.027-.012l-.008-.004l-.004-.002a1.25 1.25 0 0 0-1.022 0h-.001l-.003.002l-.008.004l-.027.012l-.099.046q-.129.06-.36.172c-.308.15-.743.369-1.264.65a35 35 0 0 0-3.835 2.391c-1.394 1.01-2.84 2.246-3.946 3.659C12.843 17.452 12 19.132 12 21c0 1.784.39 3.478 1.088 5H8.5zm16.015-6.14l.035.017l-.039-.018l.012.006"/></svg>