<svg xmlns="http://www.w3.org/2000/svg" xmlns:xlink="http://www.w3.org/1999/xlink" width="20" height="20" viewBox="0 0 20 20"><path fill="currentColor" d="M8.228 2.183a1.33 1.33 0 0 1 1.543 0l5.852 4.152c.727.516.363 1.662-.528 1.664H2.907c-.894 0-1.26-1.147-.53-1.664zM9 5.874a.833.833 0 1 0 0-1.667a.833.833 0 0 0 0 1.667M3.5 9v4h2V9zm.666 5C2.97 14 2 14.97 2 16.166v.333a.5.5 0 0 0 .5.5H9v-3zm7.334-4V9h-2v3a2.5 2.5 0 0 1 1.542-.958c.071-.386.231-.74.458-1.042m-3 3V9h-2v4zm3.5-1v-.5a1.5 1.5 0 0 1 1.5-1.5h2a1.5 1.5 0 0 1 1.5 1.5v.5h.5a1.5 1.5 0 0 1 1.5 1.5V15h-2v-.5a.5.5 0 0 0-1 0v.5h-3v-.5a.5.5 0 0 0-1 0v.5h-2v-1.5a1.5 1.5 0 0 1 1.5-1.5zm1-.5v.5h3v-.5a.5.5 0 0 0-.5-.5h-2a.5.5 0 0 0-.5.5m4 4.5h2v1.5a1.5 1.5 0 0 1-1.5 1.5h-6a1.5 1.5 0 0 1-1.5-1.5V16h2v.5a.5.5 0 1 0 1 0V16h3v.5a.5.5 0 1 0 1 0z"/></svg>