<svg xmlns="http://www.w3.org/2000/svg" xmlns:xlink="http://www.w3.org/1999/xlink" width="24" height="24" viewBox="0 0 24 24"><path fill="currentColor" d="M12 11a1 1 0 1 1-2 0a1 1 0 0 1 2 0m-1 4a1 1 0 1 0 0-2a1 1 0 0 0 0 2m-2-4a1 1 0 1 1-2 0a1 1 0 0 1 2 0m-1 4a1 1 0 1 0 0-2a1 1 0 0 0 0 2m10 0a1 1 0 1 1-2 0a1 1 0 0 1 2 0m-1 4a1 1 0 1 0 0-2a1 1 0 0 0 0 2M8.25 2.002a.75.75 0 0 0-.75.75V5H6.25a.75.75 0 0 0-.75.75V7.8A2.75 2.75 0 0 0 4 10.25v10.5c0 .415.336.75.75.75h15a.75.75 0 0 0 .75-.75v-5a5.75 5.75 0 0 0-5.51-5.745a2.75 2.75 0 0 0-1.487-2.203V5.75a.75.75 0 0 0-.75-.75H11.5V2.752a.75.75 0 0 0-.75-.75zM12.003 7.5H7v-1h5.003zM13.5 20H12v-2.75a.75.75 0 0 0-.75-.75h-3.5a.75.75 0 0 0-.75.75V20H5.5v-9.75C5.5 9.56 6.06 9 6.75 9h5.5c.69 0 1.25.56 1.25 1.25zm-5 0v-2h2v2zm6.5 0v-8.492a4.25 4.25 0 0 1 4 4.242V20zM10 5H9V3.502h1z"/></svg>