<svg xmlns="http://www.w3.org/2000/svg" xmlns:xlink="http://www.w3.org/1999/xlink" width="48" height="48" viewBox="0 0 48 48"><path fill="currentColor" d="M19.763 4.372a2.25 2.25 0 0 1 2.478 0l7.636 5.038c2.07 1.366 1.102 4.587-1.377 4.587H28v5.052a4.25 4.25 0 0 1 3.562 3.626l2.41 17.635a3.25 3.25 0 0 1-3.22 3.69H11.254a3.25 3.25 0 0 1-3.22-3.69l2.409-17.635A4.25 4.25 0 0 1 14 19.05v-5.053h-.495c-2.48 0-3.447-3.221-1.377-4.587zM16.5 13.997V19h9v-5.003zm19.634-2.363a1.25 1.25 0 0 1-1.768-1.768l2.5-2.5a1.25 1.25 0 0 1 1.769 1.767zm-24.33 19.545l-.767 5.618l19.23-5.129l-.713-5.222zM35.25 14.5a1.25 1.25 0 1 0 0 2.5h5.5a1.25 1.25 0 0 0 0-2.5zm.884 5.366l2.5 2.5a1.25 1.25 0 0 1-1.767 1.768l-2.5-2.5a1.25 1.25 0 0 1 1.767-1.768"/></svg>