<svg xmlns="http://www.w3.org/2000/svg" xmlns:xlink="http://www.w3.org/1999/xlink" width="20" height="20" viewBox="0 0 20 20"><path fill="currentColor" d="m10.333 2.686l-.778-.518A1 1 0 0 0 9.002 2h-.004a1 1 0 0 0-.551.168l-.768.511L5.57 3.884A1.13 1.13 0 0 0 5 4.929c-.03.528.358 1.068.999 1.069v2.166a2 2 0 0 0-1.193 1.612l-.8 7.112A1 1 0 0 0 5 18h8a1 1 0 0 0 .993-1.112l-.8-7.112A2 2 0 0 0 12 8.165V5.998c.648 0 1.038-.55 1-1.084v-.047c0-.406-.218-.782-.57-.983zM11 8H7V6h4zM6.108 4.998a.13.13 0 0 1-.062-.03L8.205 3.53L9 3.076l.807.461l2.147 1.43a.13.13 0 0 1-.062.03zM6.835 9h4.33a1 1 0 0 1 .986.89l.02.18l-3.556.948l-2.979.784l.213-1.912A1 1 0 0 1 6.835 9m2.037 2.985l3.412-.898l.211 1.897l-3.88 1.034l-3.322.875l.223-2.013zm-3.699 3.986l3.698-.986l3.737-.983l.333 2.998H5.06zM16.5 7h-2a.5.5 0 0 1-.006-1H16.5q.052 0 .1.01a.5.5 0 0 1-.1.99m-.646-3.854a.5.5 0 0 1 0 .708l-1 1a.499.499 0 1 1-.707-.708l1-1a.5.5 0 0 1 .707 0m0 6a.5.5 0 0 1-.707.708l-1-1a.5.5 0 1 1 .707-.708z"/></svg>