<svg xmlns="http://www.w3.org/2000/svg" xmlns:xlink="http://www.w3.org/1999/xlink" width="20" height="20" viewBox="0 0 20 20"><path fill="currentColor" d="M6.75 9.5a.75.75 0 1 0 0-1.5a.75.75 0 0 0 0 1.5m3-3a.75.75 0 1 0 0-1.5a.75.75 0 0 0 0 1.5M4 17.5a.5.5 0 0 0 .5.5h4.796a3.3 3.3 0 0 1-.273-1H5V3.5a.5.5 0 0 1 .5-.5h6a.5.5 0 0 1 .5.5v5a.5.5 0 0 0 .5.5h2a.5.5 0 0 1 .5.5v.863c.2.21.365.453.49.719q.23-.208.51-.348V9.5A1.5 1.5 0 0 0 14.5 8H13V3.5A1.5 1.5 0 0 0 11.5 2h-6A1.5 1.5 0 0 0 4 3.5zm2.75-5a.75.75 0 1 0 0-1.5a.75.75 0 0 0 0 1.5m3.75-3.75a.75.75 0 1 1-1.5 0a.75.75 0 0 1 1.5 0M6.75 6.5a.75.75 0 1 0 0-1.5a.75.75 0 0 0 0 1.5m8 5.75a1.75 1.75 0 1 1-3.5 0a1.75 1.75 0 0 1 3.5 0m3.5.5a1.25 1.25 0 1 1-2.5 0a1.25 1.25 0 0 1 2.5 0M16 16.6c0 1.183-.8 2.4-3 2.4s-3-1.216-3-2.4a1.6 1.6 0 0 1 1.6-1.6h2.8a1.6 1.6 0 0 1 1.6 1.6m.704 1.4h.046c1.65 0 2.25-.912 2.25-1.8a1.2 1.2 0 0 0-1.2-1.2h-1.35c.345.441.55.997.55 1.6a3.4 3.4 0 0 1-.296 1.4"/></svg>