<svg xmlns="http://www.w3.org/2000/svg" xmlns:xlink="http://www.w3.org/1999/xlink" width="28" height="28" viewBox="0 0 28 28"><path fill="currentColor" d="M4.75 6a1 1 0 1 1-2 0a1 1 0 0 1 2 0m19.5 1a1 1 0 1 0 0-2a1 1 0 0 0 0 2M3.75 8a.75.75 0 0 1 .75.75V15h3.174A7 7 0 0 1 7 12c0-1.093.493-2.075 1.136-2.895c.646-.824 1.488-1.544 2.3-2.132a20.4 20.4 0 0 1 3.177-1.87l.058-.027l.016-.007l.004-.002l.002-.002a.75.75 0 0 1 .614 0l.002.002l.005.002l.015.007l.058.026l.21.1c.179.088.433.215.736.38c.605.326 1.416.8 2.232 1.391c.811.588 1.653 1.308 2.299 2.132C20.506 9.925 21 10.907 21 12c0 1.074-.242 2.09-.674 3H23.5V8.75a.75.75 0 0 1 1.5 0v14.5A1.75 1.75 0 0 1 23.25 25h-5.5A1.75 1.75 0 0 1 16 23.25V21a2 2 0 1 0-4 0v2.25A1.75 1.75 0 0 1 10.25 25h-5.5A1.75 1.75 0 0 1 3 23.25V8.75A.75.75 0 0 1 3.75 8"/></svg>