<svg xmlns="http://www.w3.org/2000/svg" xmlns:xlink="http://www.w3.org/1999/xlink" width="32" height="32" viewBox="0 0 32 32"><path fill="currentColor" d="M2 5.25A3.25 3.25 0 0 1 5.25 2h7.5A3.25 3.25 0 0 1 16 5.25V8a1 1 0 0 0 1 1a3 3 0 0 1 3 3v.5h-2.75a4.75 4.75 0 0 0-4.75 4.75v5.5c0 .814.205 1.58.566 2.25H5.25A3.25 3.25 0 0 1 2 21.75zM17.25 16c-.69 0-1.25.56-1.25 1.25v5.5c0 .69.56 1.25 1.25 1.25h9.5c.69 0 1.25-.56 1.25-1.25v-5.5c0-.69-.56-1.25-1.25-1.25zm9.5 10H25v2h1a1 1 0 1 1 0 2h-8a1 1 0 1 1 0-2h1v-2h-1.75A3.25 3.25 0 0 1 14 22.75v-5.5A3.25 3.25 0 0 1 17.25 14h9.5A3.25 3.25 0 0 1 30 17.25v5.5A3.25 3.25 0 0 1 26.75 26M21 28h2v-2h-2zM8 8a1 1 0 1 0-2 0a1 1 0 0 0 2 0m-1 5a1 1 0 1 0 0-2a1 1 0 0 0 0 2m1 3a1 1 0 1 0-2 0a1 1 0 0 0 2 0m3-7a1 1 0 1 0 0-2a1 1 0 0 0 0 2m1 3a1 1 0 1 0-2 0a1 1 0 0 0 2 0m-1 5a1 1 0 1 0 0-2a1 1 0 0 0 0 2"/></svg>