<svg xmlns="http://www.w3.org/2000/svg" xmlns:xlink="http://www.w3.org/1999/xlink" width="32" height="32" viewBox="0 0 32 32"><path fill="currentColor" d="M16 2h4.667c.368 0 .666.298.666.667v2.666a.667.667 0 0 1-.666.667H17v1.055A9 9 0 0 1 25 16h2a3 3 0 0 1 3 3v9a1 1 0 0 1-1 1H19v-4a1 1 0 0 0-1-1h-3.65q.149-.729.15-1.5a7.47 7.47 0 0 0-1.76-4.827A1 1 0 0 0 13 17v-3a1 1 0 1 0-2 0v2.155A7.46 7.46 0 0 0 7.055 15A9.004 9.004 0 0 1 15 7.055V3a1 1 0 0 1 1-1m5 12a1 1 0 1 0-2 0v3a1 1 0 1 0 2 0zm-4 3v-3a1 1 0 1 0-2 0v3a1 1 0 1 0 2 0m8 4a1 1 0 1 0-2 0v3a1 1 0 0 0 2 0zM7 28.5c1.296 0 2.496-.41 3.476-1.11l3.317 3.317a1 1 0 0 0 1.414-1.414l-3.316-3.316A6 6 0 1 0 7 28.5m0-2a4 4 0 1 1 0-8a4 4 0 0 1 0 8"/></svg>