<svg xmlns="http://www.w3.org/2000/svg" xmlns:xlink="http://www.w3.org/1999/xlink" width="32" height="32" viewBox="0 0 32 32"><path fill="currentColor" d="M13.244 2.205a1.5 1.5 0 0 1 1.513 0l5.25 3.066C21.766 6.3 21.038 8.996 19 8.998v3.115a3.25 3.25 0 0 1 2.372 2.725l1.612 12.627A2.25 2.25 0 0 1 20.752 30H7.25a2.25 2.25 0 0 1-2.232-2.535L6.63 14.838A3.25 3.25 0 0 1 9 12.114V8.998C6.961 8.996 6.232 6.3 7.994 5.271zM9.853 14a1.25 1.25 0 0 0-1.24 1.092l-.486 3.806l11.359-3.03l-.1-.776A1.25 1.25 0 0 0 18.148 14zm9.889 3.87L7.855 21.04l-.453 3.551l12.764-3.404zm-12.74 9.848A.25.25 0 0 0 7.25 28h13.502a.25.25 0 0 0 .248-.282l-.578-4.529l-13.294 3.545zM17 12V8.998h-6V12zm-3-7.92L9.002 6.997h9.995zM23 10a1 1 0 0 1 1-1h4a1 1 0 1 1 0 2h-4a1 1 0 0 1-1-1m3.707-5.293a1 1 0 0 0-1.414-1.414l-2 2a1 1 0 0 0 1.414 1.414zm0 12a1 1 0 0 0 0-1.414l-2-2a1 1 0 0 0-1.414 1.414l2 2a1 1 0 0 0 1.414 0"/></svg>