<svg xmlns="http://www.w3.org/2000/svg" xmlns:xlink="http://www.w3.org/1999/xlink" width="24" height="24" viewBox="0 0 24 24"><path fill="currentColor" d="M13 6.26a1 1 0 1 1-2-.001a1 1 0 0 1 2 0m.032-3.924a1.75 1.75 0 0 0-2.064 0L3.547 7.75c-.978.712-.473 2.258.736 2.258H4.5v5.796c-.89.455-1.5 1.38-1.5 2.448v1.5a.75.75 0 0 0 .75.749H11v-1.499H4.5v-.75c0-.69.56-1.249 1.25-1.249H11V16.5c0-.354.074-.691.207-.997H9.5v-5.496h1.75v5.402a2.5 2.5 0 0 1 1.5-1.295v-4.107h1.75v1.543c.375-.192.8-.3 1.25-.3H16v-1.243h2v1.243h1.25q.127 0 .25.011v-1.254h.217c1.21 0 1.713-1.546.736-2.258zm-1.18 1.211a.25.25 0 0 1 .295 0l6.803 4.96H5.05zM6 15.503v-5.496h2v5.496zM14 15h-.5a1.5 1.5 0 0 0-1.5 1.5V18h2.5v-.25a.75.75 0 0 1 1.5 0V18h3v-.25a.75.75 0 0 1 1.5 0V18H23v-1.5a1.5 1.5 0 0 0-1.5-1.5H21v-1a1.75 1.75 0 0 0-1.75-1.75h-3.5A1.75 1.75 0 0 0 14 14zm1.5-1a.25.25 0 0 1 .25-.25h3.5a.25.25 0 0 1 .25.25v1h-4zm-2 9a1.5 1.5 0 0 1-1.5-1.5v-2h2.5v.75a.75.75 0 0 0 1.5 0v-.75h3v.75a.75.75 0 0 0 1.5 0v-.75H23v2a1.5 1.5 0 0 1-1.5 1.5z"/></svg>