<svg xmlns="http://www.w3.org/2000/svg" xmlns:xlink="http://www.w3.org/1999/xlink" width="24" height="24" viewBox="0 0 24 24"><path fill="currentColor" d="M4.75 22a.75.75 0 0 1-.75-.75v-17A2.25 2.25 0 0 1 6.25 2h8a2.25 2.25 0 0 1 2.25 2.25V9.5h1.25A2.25 2.25 0 0 1 20 11.75v1.3a2.5 2.5 0 0 0-1.5.95v-2.25a.75.75 0 0 0-.75-.75h-2a.75.75 0 0 1-.75-.75v-6a.75.75 0 0 0-.75-.75h-8a.75.75 0 0 0-.75.75V20.5h5.528a4 4 0 0 0 .478 1.5zM7.5 6.5a1 1 0 1 1 2 0a1 1 0 0 1-2 0m0 7a1 1 0 1 1 2 0a1 1 0 0 1-2 0M12 9a1 1 0 1 0 0 2a1 1 0 0 0 0-2m-1-2.5a1 1 0 1 1 2 0a1 1 0 0 1-2 0M8.5 9a1 1 0 1 0 0 2a1 1 0 0 0 0-2m7 8a2 2 0 1 0 0-4a2 2 0 0 0 0 4m0 6c2.567 0 3.5-1.52 3.5-3a2 2 0 0 0-2-2h-3a2 2 0 0 0-2 2c0 1.48.933 3 3.5 3m4.007-1.022q.234.021.493.022c2.2 0 3-1.216 3-2.4a1.6 1.6 0 0 0-1.6-1.6h-2.164c.475.53.764 1.232.764 2c0 .656-.144 1.35-.493 1.978M22 15.5a1.5 1.5 0 1 1-3 0a1.5 1.5 0 0 1 3 0"/></svg>