<svg xmlns="http://www.w3.org/2000/svg" xmlns:xlink="http://www.w3.org/1999/xlink" width="24" height="24" viewBox="0 0 24 24"><path fill="currentColor" d="M7.5 11.5v-2h9v1.215a7.5 7.5 0 0 1-1.334.785zM18 8.75v1.217c.37 0 .74.127 1.036.38A7.7 7.7 0 0 0 21 11.572v-4.84A2 2 0 0 0 20 3H4a2 2 0 0 0-1 3.732V20.25c0 .414.336.75.75.75H6v-5.25a.75.75 0 0 1 .75-.75h4a.75.75 0 0 1 .75.75V21h1.815c-.757-1.006-1.314-2.322-1.314-4v-3.5q.002-.268.083-.5H6.75a.75.75 0 0 1-.75-.75v-3.5A.75.75 0 0 1 6.75 8h10.5a.75.75 0 0 1 .75.75M3.5 5a.5.5 0 0 1 .5-.5h16a.5.5 0 0 1 0 1H4a.5.5 0 0 1-.5-.5M10 16.5V21H7.5v-4.5zm12.5-3.523c-1.906-.172-3.433-1.287-4.115-1.87a.6.6 0 0 0-.77 0c-.68.583-2.209 1.698-4.115 1.87a.54.54 0 0 0-.5.523V17c0 4.223 4.094 5.716 4.873 5.962a.42.42 0 0 0 .255 0C18.907 22.716 23 21.222 23 17v-3.5a.54.54 0 0 0-.5-.523"/></svg>