<svg xmlns="http://www.w3.org/2000/svg" xmlns:xlink="http://www.w3.org/1999/xlink" width="20" height="20" viewBox="0 0 20 20"><path fill="currentColor" d="M13.5 2h-7A2.5 2.5 0 0 0 4 4.5v11A2.5 2.5 0 0 0 6.5 18h7a2.5 2.5 0 0 0 2.5-2.5v-11A2.5 2.5 0 0 0 13.5 2m-6 2h5A1.5 1.5 0 0 1 14 5.5v1A1.5 1.5 0 0 1 12.5 8h-5A1.5 1.5 0 0 1 6 6.5v-1A1.5 1.5 0 0 1 7.5 4m.5 7a1 1 0 1 1-2 0a1 1 0 0 1 2 0m0 3a1 1 0 1 1-2 0a1 1 0 0 1 2 0m5-2a1 1 0 1 1 0-2a1 1 0 0 1 0 2m1 2a1 1 0 1 1-2 0a1 1 0 0 1 2 0m-4-2a1 1 0 1 1 0-2a1 1 0 0 1 0 2m1 2a1 1 0 1 1-2 0a1 1 0 0 1 2 0"/></svg>