<svg xmlns="http://www.w3.org/2000/svg" xmlns:xlink="http://www.w3.org/1999/xlink" width="24" height="24" viewBox="0 0 24 24"><path fill="currentColor" d="M21 14.333V8.5H3v9.25A3.25 3.25 0 0 0 6.25 21h5.316a4.75 4.75 0 0 1 4.184-7h3.5c.618 0 1.208.118 1.75.333m0-8.083A3.25 3.25 0 0 0 17.75 3H6.25A3.25 3.25 0 0 0 3 6.25V7h18zm2 12.5A3.75 3.75 0 0 0 19.25 15l-.102.007a.75.75 0 0 0 .102 1.493l.154.005A2.25 2.25 0 0 1 19.25 21l-.003.005l-.102.007a.75.75 0 0 0 .108 1.493V22.5l.2-.005A3.75 3.75 0 0 0 23 18.75m-6.5-3a.75.75 0 0 0-.75-.75l-.2.005a3.75 3.75 0 0 0 .2 7.495l.102-.007A.75.75 0 0 0 15.75 21l-.154-.005a2.25 2.25 0 0 1 .154-4.495l.102-.007a.75.75 0 0 0 .648-.743m3.5 3a.75.75 0 0 0-.75-.75h-3.5l-.102.007a.75.75 0 0 0 .102 1.493h3.5l.102-.007A.75.75 0 0 0 20 18.75"/></svg>