<svg xmlns="http://www.w3.org/2000/svg" xmlns:xlink="http://www.w3.org/1999/xlink" width="20" height="20" viewBox="0 0 20 20"><path fill="currentColor" d="M16.999 5.5a2.5 2.5 0 0 0-2.5-2.5h-9A2.5 2.5 0 0 0 3 5.5v8.999a2.5 2.5 0 0 0 2.5 2.5h3.72l.21-.845q.02-.078.044-.155H5.5a1.5 1.5 0 0 1-1.5-1.5v-7.5h11.999v2.232a2.9 2.9 0 0 1 1-.229zM5.499 4h9a1.5 1.5 0 0 1 1.5 1.5V6h-12v-.5A1.5 1.5 0 0 1 5.5 4m10.309 6.547l-4.83 4.829a2.2 2.2 0 0 0-.577 1.02l-.374 1.498a.89.89 0 0 0 1.078 1.079l1.498-.375a2.2 2.2 0 0 0 1.02-.578l4.83-4.828a1.87 1.87 0 0 0-2.645-2.645M8 10a1 1 0 1 1-2 0a1 1 0 0 1 2 0m-1 4a1 1 0 1 0 0-2a1 1 0 0 0 0 2m4-4a1 1 0 1 1-2 0a1 1 0 0 1 2 0m-1 4a1 1 0 1 0 0-2a1 1 0 0 0 0 2m4-4a1 1 0 1 1-2 0a1 1 0 0 1 2 0"/></svg>