<svg xmlns="http://www.w3.org/2000/svg" xmlns:xlink="http://www.w3.org/1999/xlink" width="20" height="20" viewBox="0 0 20 20"><path fill="currentColor" d="M17 7v7.5a2.5 2.5 0 0 1-2.336 2.495L14.5 17h-9a2.5 2.5 0 0 1-2.495-2.336L3 14.5V7zm-5.484 1.234q-.796 0-1.265.426q-.47.426-.469 1.152q0 .419.213.745q.213.325.58.513q-.437.196-.68.559a1.45 1.45 0 0 0-.242.82q0 .746.51 1.188t1.357.441q.844 0 1.352-.44q.508-.438.508-1.189q0-.453-.24-.812a1.6 1.6 0 0 0-.686-.567a1.5 1.5 0 0 0 .586-.513q.215-.327.215-.745q0-.726-.47-1.152q-.468-.426-1.269-.426m-3.02.059h-.121l-2.219.816v.801l1.395-.476V14h.945zm3.016 3.168q.415 0 .666.26t.252.681q0 .435-.24.676q-.24.243-.67.242q-.429 0-.673-.25t-.245-.668q0-.425.248-.683t.662-.258m.004-2.465q.364 0 .579.24t.214.612q0 .39-.212.62q-.213.231-.577.231q-.363 0-.576-.23t-.213-.621q0-.395.211-.623q.21-.23.574-.229M14.5 3a2.5 2.5 0 0 1 2.495 2.336L17 5.5V6H3v-.5a2.5 2.5 0 0 1 2.336-2.495L5.5 3z"/></svg>