<svg xmlns="http://www.w3.org/2000/svg" xmlns:xlink="http://www.w3.org/1999/xlink" width="28" height="28" viewBox="0 0 28 28"><path fill="currentColor" d="M21.75 3A3.25 3.25 0 0 1 25 6.25v10.763a1.74 1.74 0 0 0-1.072.235a1.75 1.75 0 0 0-.428-1.723V9.503h-19V21.75c0 .966.784 1.75 1.75 1.75h6.709a1.75 1.75 0 0 0 2.113.253c-.121.41-.09.856.096 1.247H6.25A3.25 3.25 0 0 1 3 21.75V6.25A3.25 3.25 0 0 1 6.25 3zm0 1.5H6.25A1.75 1.75 0 0 0 4.5 6.25v1.753h19V6.25a1.75 1.75 0 0 0-1.75-1.75m-.97 9.72a.75.75 0 1 0-1.06 1.06l.72.72H17.5a4.5 4.5 0 0 0-3.982 6.597a.75.75 0 1 0 1.326-.7A3 3 0 0 1 17.5 17.5h2.94l-.72.72a.75.75 0 1 0 1.06 1.06l2-2a.75.75 0 0 0 0-1.06zm4.703 4.184a.75.75 0 0 0-1.327.7A3 3 0 0 1 21.5 23.5h-2.94l.723-.723a.75.75 0 0 0-1.06-1.06L16.22 23.72a.75.75 0 0 0 0 1.06l2.003 2.003a.75.75 0 0 0 1.06-1.06L18.561 25H21.5a4.5 4.5 0 0 0 3.983-6.596"/></svg>