<svg xmlns="http://www.w3.org/2000/svg" xmlns:xlink="http://www.w3.org/1999/xlink" width="24" height="24" viewBox="0 0 24 24"><path fill="currentColor" d="M17.5 12a5.5 5.5 0 1 1 0 11a5.5 5.5 0 0 1 0-11m-2.476 3.024a.5.5 0 0 0 0 .707l1.769 1.77l-1.767 1.766a.5.5 0 1 0 .707.708l1.767-1.767l1.77 1.769a.5.5 0 1 0 .707-.707l-1.769-1.77l1.771-1.77a.5.5 0 0 0-.707-.707l-1.771 1.77l-1.77-1.77a.5.5 0 0 0-.707 0M21 8.5l.001 3.523a6.5 6.5 0 0 0-8.979 8.979L6.25 21A3.25 3.25 0 0 1 3 17.75V8.5zM17.75 3A3.25 3.25 0 0 1 21 6.25V7H3v-.75A3.25 3.25 0 0 1 6.25 3z"/></svg>