<svg xmlns="http://www.w3.org/2000/svg" xmlns:xlink="http://www.w3.org/1999/xlink" width="16" height="16" viewBox="0 0 16 16"><path fill="currentColor" d="M13.998 4.5a2.5 2.5 0 0 0-2.5-2.5H4.5A2.5 2.5 0 0 0 2 4.5v6.998a2.5 2.5 0 0 0 2.5 2.5h1.546l.25-1H4.5a1.5 1.5 0 0 1-1.5-1.5V6h10.336q.104-.005.207 0h.455zM4.5 3h6.998a1.5 1.5 0 0 1 1.5 1.5V5H3v-.5A1.5 1.5 0 0 1 4.5 3m9.02 3.999a1.6 1.6 0 0 0-.522.061c-.242.072-.47.203-.662.394L8.05 11.742a2.8 2.8 0 0 0-.722 1.256l-.009.033l-.303 1.211a.61.61 0 0 0 .74.74l1.21-.303a2.8 2.8 0 0 0 1.29-.73l4.288-4.288a1.56 1.56 0 0 0-1.023-2.662m-7.523 1.25a.748.748 0 1 1-1.497 0a.748.748 0 0 1 1.497 0m-.749 3.248a.748.748 0 1 0 0-1.497a.748.748 0 0 0 0 1.497m3.5-3.249a.748.748 0 1 1-1.496 0a.748.748 0 0 1 1.497 0"/></svg>