<svg xmlns="http://www.w3.org/2000/svg" xmlns:xlink="http://www.w3.org/1999/xlink" width="20" height="20" viewBox="0 0 20 20"><path fill="currentColor" d="M14.5 3A2.5 2.5 0 0 1 17 5.5v4.1a5.5 5.5 0 0 0-1-.393V7H4v7.5A1.5 1.5 0 0 0 5.5 16h3.707q.149.524.393 1H5.5A2.5 2.5 0 0 1 3 14.5v-9A2.5 2.5 0 0 1 5.5 3zm0 1h-9A1.5 1.5 0 0 0 4 5.5V6h12v-.5A1.5 1.5 0 0 0 14.5 4M19 14.5a4.5 4.5 0 1 1-9 0a4.5 4.5 0 0 1 9 0m-4.5.707l1.146 1.147a.5.5 0 0 0 .708-.708L15.207 14.5l1.147-1.146a.5.5 0 0 0-.708-.708L14.5 13.793l-1.146-1.147a.5.5 0 0 0-.708.708l1.147 1.146l-1.147 1.146a.5.5 0 0 0 .708.708z"/></svg>