<svg xmlns="http://www.w3.org/2000/svg" xmlns:xlink="http://www.w3.org/1999/xlink" width="20" height="20" viewBox="0 0 20 20"><path fill="currentColor" d="M14.5 3A2.5 2.5 0 0 1 17 5.5v4.1a5.5 5.5 0 0 0-1-.393V7H4v7.5A1.5 1.5 0 0 0 5.5 16h3.707q.149.524.393 1H5.5A2.5 2.5 0 0 1 3 14.5v-9A2.5 2.5 0 0 1 5.5 3zm0 1h-9A1.5 1.5 0 0 0 4 5.5V6h12v-.5A1.5 1.5 0 0 0 14.5 4m0 15a4.5 4.5 0 1 0 0-9a4.5 4.5 0 0 0 0 9m-.896-6.396l-.897.896h1.543A2.75 2.75 0 0 1 17 16.25v.25a.5.5 0 0 1-1 0v-.25a1.75 1.75 0 0 0-1.75-1.75h-1.543l.897.896a.5.5 0 0 1-.708.708l-1.752-1.753a.5.5 0 0 1 .002-.705l1.75-1.75a.5.5 0 0 1 .708.708"/></svg>