<svg xmlns="http://www.w3.org/2000/svg" xmlns:xlink="http://www.w3.org/1999/xlink" width="32" height="32" viewBox="0 0 32 32"><path fill="currentColor" d="M7.5 3A4.5 4.5 0 0 0 3 7.5v17A4.5 4.5 0 0 0 7.5 29h9.965l-.233-.232a2.5 2.5 0 0 1-.703-1.386A2.5 2.5 0 0 1 14.585 27H7.5A2.5 2.5 0 0 1 5 24.5V11h22v6.5c.253.335.41.72.47 1.118a2.5 2.5 0 0 1 1.53.153V7.5A4.5 4.5 0 0 0 24.5 3zM5 7.5A2.5 2.5 0 0 1 7.5 5h17A2.5 2.5 0 0 1 27 7.5V9H5zm18.207 8.293a1 1 0 0 0-1.414 1.414l.793.793H19.5a5 5 0 0 0-4.374 7.423a1 1 0 0 0 1.748-.97A3 3 0 0 1 19.5 20h3.086l-.793.793a1 1 0 0 0 1.414 1.414l2.5-2.5a1 1 0 0 0 0-1.414zm5.667 4.784a1 1 0 0 0-1.748.97A3 3 0 0 1 24.5 26h-3.086l.793-.793a1 1 0 0 0-1.414-1.414l-2.5 2.5a1 1 0 0 0 0 1.414l2.5 2.5a1 1 0 0 0 1.414-1.414L21.414 28H24.5a5 5 0 0 0 4.374-7.423"/></svg>