<svg xmlns="http://www.w3.org/2000/svg" xmlns:xlink="http://www.w3.org/1999/xlink" width="28" height="28" viewBox="0 0 28 28"><path fill="currentColor" d="M25 9.5v12.25A3.25 3.25 0 0 1 21.75 25H6.25A3.25 3.25 0 0 1 3 21.75V9.5zm-8.006 2.734q-1.196 0-1.898.639q-.703.639-.703 1.729q0 .627.319 1.116q.32.49.87.77a2.33 2.33 0 0 0-1.02.838a2.17 2.17 0 0 0-.363 1.23q0 1.12.765 1.782T17 21q1.266 0 2.027-.66q.762-.658.762-1.783q0-.68-.36-1.22q-.36-.538-1.029-.849q.558-.28.88-.77q.322-.489.322-1.116q0-1.09-.704-1.729q-.702-.639-1.904-.639m-5.03.088h-.182l-3.328 1.225v1.201l2.092-.715v6.85h1.418zm5.024 4.752q.62 0 1 .39q.377.39.377 1.022q0 .651-.36 1.014T17 19.863t-1.01-.375t-.367-1.002q0-.638.372-1.025q.373-.387.993-.387m.006-3.697q.544 0 .867.36t.323.917q0 .585-.32.932q-.319.346-.864.346t-.864-.346q-.32-.345-.32-.932q0-.592.317-.934q.316-.343.861-.343M21.75 3A3.25 3.25 0 0 1 25 6.25V8H3V6.25A3.25 3.25 0 0 1 6.25 3z"/></svg>