<svg xmlns="http://www.w3.org/2000/svg" xmlns:xlink="http://www.w3.org/1999/xlink" width="32" height="32" viewBox="0 0 32 32"><path fill="currentColor" d="M3 7.5A4.5 4.5 0 0 1 7.5 3h15A4.5 4.5 0 0 1 27 7.5v15a4.5 4.5 0 0 1-4.5 4.5h-15A4.5 4.5 0 0 1 3 22.5zM22.5 4h-15A3.5 3.5 0 0 0 4 7.5V9h22V7.5A3.5 3.5 0 0 0 22.5 4m3.5 6H4v12.5A3.5 3.5 0 0 0 7.5 26h15a3.5 3.5 0 0 0 3.5-3.5zM7.671 29c.773.625 1.757 1 2.829 1h12a7.5 7.5 0 0 0 7.5-7.5v-12a4.48 4.48 0 0 0-1-2.829V22.5a6.5 6.5 0 0 1-6.5 6.5H7.67"/></svg>