<svg xmlns="http://www.w3.org/2000/svg" xmlns:xlink="http://www.w3.org/1999/xlink" width="32" height="32" viewBox="0 0 32 32"><path fill="currentColor" d="M7.5 3A4.5 4.5 0 0 0 3 7.5V9h26V7.5A4.5 4.5 0 0 0 24.5 3zM29 11H3v13.5A4.5 4.5 0 0 0 7.5 29h9.467a10 10 0 0 1-.416-.483C15.18 26.82 14.5 24.8 14.5 22.533V18.5a2 2 0 0 1 1.717-1.98a13.55 13.55 0 0 0 5.674-2.184a2 2 0 0 1 2.218 0A13.6 13.6 0 0 0 29 16.386zm0 6.913a15.1 15.1 0 0 1-5.723-2.329a.5.5 0 0 0-.554 0a15.05 15.05 0 0 1-6.294 2.421a.5.5 0 0 0-.429.495v4.033c0 2.648 1.068 4.81 3.174 6.467q1.482 1.167 3.646 2a.5.5 0 0 0 .36 0c4.513-1.736 6.82-4.575 6.82-8.467V18.5a.5.5 0 0 0-.43-.495a15 15 0 0 1-.57-.092"/></svg>