<svg xmlns="http://www.w3.org/2000/svg" xmlns:xlink="http://www.w3.org/1999/xlink" width="16" height="16" viewBox="0 0 16 16"><path fill="currentColor" d="M14 8V6h-1.879l1.44 1.44c.164.164.282.357.354.562zm-7.03 6H4.5A2.5 2.5 0 0 1 2 11.5V6h7.882A1.5 1.5 0 0 0 9.5 7H9a4 4 0 0 0-3.2 6.401A1.5 1.5 0 0 0 6.97 14M14 4.5A2.5 2.5 0 0 0 11.5 2h-7A2.5 2.5 0 0 0 2 4.5V5h12zm-2.646 2.146a.5.5 0 0 0-.708.708l.647.646H9a3 3 0 0 0-2.4 4.8a.5.5 0 1 0 .8-.6A2 2 0 0 1 9 9h2.293l-.647.646a.5.5 0 0 0 .708.708l1.5-1.5a.5.5 0 0 0 0-.708zM14.4 9.2a.5.5 0 0 0-.8.6A2 2 0 0 1 12 13H9.707l.647-.646a.5.5 0 0 0-.708-.708l-1.5 1.5a.5.5 0 0 0 0 .708l1.5 1.5a.5.5 0 0 0 .708-.708L9.707 14H12a3 3 0 0 0 2.4-4.8"/></svg>