<svg xmlns="http://www.w3.org/2000/svg" xmlns:xlink="http://www.w3.org/1999/xlink" width="20" height="20" viewBox="0 0 20 20"><g fill="none"><path d="M5.5 3A2.5 2.5 0 0 0 3 5.5V6h14v-.5A2.5 2.5 0 0 0 14.5 3h-9z" fill="currentColor"/><path d="M17 7H3v7.5A2.5 2.5 0 0 0 5.5 17h9a2.5 2.5 0 0 0 2.5-2.5V7zm-9 3a1 1 0 1 1-2 0a1 1 0 0 1 2 0zm-1 4a1 1 0 1 1 0-2a1 1 0 0 1 0 2zm4-4a1 1 0 1 1-2 0a1 1 0 0 1 2 0zm-1 4a1 1 0 1 1 0-2a1 1 0 0 1 0 2zm4-4a1 1 0 1 1-2 0a1 1 0 0 1 2 0z" fill="currentColor"/></g></svg>