<svg xmlns="http://www.w3.org/2000/svg" xmlns:xlink="http://www.w3.org/1999/xlink" width="28" height="28" viewBox="0 0 28 28"><path fill="currentColor" d="M5 1.25A3.75 3.75 0 0 0 1.25 5v10A3.75 3.75 0 0 0 5 18.75h2v-1.5H5A2.25 2.25 0 0 1 2.75 15V7.5h14.5V12h1.5V5A3.75 3.75 0 0 0 15 1.25zM17.25 6H2.75V5A2.25 2.25 0 0 1 5 2.75h10A2.25 2.25 0 0 1 17.25 5zM8 16.75A3.75 3.75 0 0 1 11.75 13h6.5A3.75 3.75 0 0 1 22 16.739l3.25-2.262c1.16-.807 2.75.023 2.75 1.437v8.172c0 1.414-1.589 2.244-2.75 1.437L22 23.26A3.75 3.75 0 0 1 18.25 27h-6.5A3.75 3.75 0 0 1 8 23.25zm14 4.684l4.107 2.857a.25.25 0 0 0 .393-.205v-8.172a.25.25 0 0 0-.393-.205L22 18.566zM11.75 14.5a2.25 2.25 0 0 0-2.25 2.25v6.5a2.25 2.25 0 0 0 2.25 2.25h6.5a2.25 2.25 0 0 0 2.25-2.25v-6.5a2.25 2.25 0 0 0-2.25-2.25z"/></svg>