<svg xmlns="http://www.w3.org/2000/svg" xmlns:xlink="http://www.w3.org/1999/xlink" width="20" height="20" viewBox="0 0 20 20"><path fill="currentColor" d="M9.288 2.198L8.44 2.04c-.842-.156-1.725.152-2.321.812Q3.994 5.204 4 10.199q.006 4.988 2.132 7.125c.6.603 1.49.823 2.334.577l.849-.248a1.735 1.735 0 0 0 1.237-1.821l-.167-1.628a1.53 1.53 0 0 0-1.267-1.368l-1.805-.313a6.4 6.4 0 0 1-.58-2.512q-.04-1.35.43-2.472l1.93-.505a1.74 1.74 0 0 0 1.281-1.503l.162-1.637c.082-.822-.452-1.548-1.248-1.696m5.066 3.448a.5.5 0 0 0-.708.708L16.293 9H10.5a.5.5 0 0 0 0 1h5.793l-2.647 2.646a.5.5 0 0 0 .708.708l3.5-3.5a.5.5 0 0 0 0-.708z"/></svg>