<svg xmlns="http://www.w3.org/2000/svg" xmlns:xlink="http://www.w3.org/1999/xlink" width="48" height="48" viewBox="0 0 48 48"><path fill="currentColor" d="M10.132 16.623c3.625-1.659 8.56-2.62 13.868-2.62s10.244.961 13.869 2.62c3.519 1.61 6.29 4.136 6.125 7.463q-.002.045-.008.088l-.559 4.645a4.75 4.75 0 0 1-5.48 4.12l-5.112-.833a4.25 4.25 0 0 1-3.478-3.336l-.935-4.533a.2.2 0 0 0-.022-.058c-.754-.259-2.265-.659-4.4-.659c-2.134 0-3.645.4-4.4.66a.2.2 0 0 0-.02.057l-.936 4.533a4.25 4.25 0 0 1-3.478 3.336l-5.112.834a4.75 4.75 0 0 1-5.48-4.121l-.56-4.646l-.007-.087c-.166-3.327 2.606-5.853 6.125-7.463m-3.63 7.3l.553 4.597a2.25 2.25 0 0 0 2.597 1.952l5.111-.834a1.75 1.75 0 0 0 1.432-1.373l.936-4.533c.168-.815.725-1.595 1.637-1.91c.97-.335 2.764-.802 5.232-.802s4.262.467 5.233.802c.911.315 1.469 1.095 1.637 1.91l.935 4.533a1.75 1.75 0 0 0 1.432 1.373l5.112.834a2.25 2.25 0 0 0 2.596-1.952l.553-4.598c.06-1.673-1.368-3.516-4.67-5.026c-3.221-1.474-7.783-2.393-12.828-2.393s-9.606.919-12.828 2.393c-3.301 1.51-4.73 3.353-4.67 5.026"/></svg>