<svg xmlns="http://www.w3.org/2000/svg" xmlns:xlink="http://www.w3.org/1999/xlink" width="24" height="24" viewBox="0 0 24 24"><path fill="currentColor" d="M20.934 5.66q-2.94-2.595-9.185-2.588q-6.236.009-8.907 2.604c-.754.733-1.029 1.819-.721 2.85l.31 1.037c.288.967 1.261 1.613 2.276 1.511l2.035-.204c.873-.088 1.563-.711 1.711-1.547l.391-2.205a8.1 8.1 0 0 1 3.14-.707q1.689-.05 3.09.525l.632 2.355c.226.847.986 1.48 1.878 1.566l2.047.198c1.028.1 1.935-.553 2.12-1.524l.198-1.037c.195-1.028-.19-2.106-1.015-2.834M11.75 14a.75.75 0 0 1 .75.75v1.75h1a.75.75 0 0 1 0 1.5h-1.75a.75.75 0 0 1-.75-.75v-2.5a.75.75 0 0 1 .75-.75m.25-3a5.5 5.5 0 1 0 0 11a5.5 5.5 0 0 0 0-11m-4 5.5a4 4 0 1 1 8 0a4 4 0 0 1-8 0"/></svg>