<svg xmlns="http://www.w3.org/2000/svg" xmlns:xlink="http://www.w3.org/1999/xlink" width="32" height="32" viewBox="0 0 32 32"><path fill="currentColor" d="M14.6 2.067c-1.977-.22-4.632.011-6.712 2.09c-1.17 1.171-2.133 2.98-2.804 5.02A22.2 22.2 0 0 0 4 16c0 2.383.407 4.763 1.084 6.822c.67 2.041 1.633 3.85 2.804 5.02c2.08 2.08 4.735 2.31 6.712 2.09c2.645-.294 3.773-2.94 3.298-5.154l-.413-1.926a4 4 0 0 0-3.126-3.084l-2.68-.536a4 4 0 0 1-.208-.424C11.25 18.278 11 17.375 11 16s.25-2.278.47-2.809q.116-.27.208-.423l2.68-.536a4 4 0 0 0 3.127-3.085l.413-1.926c.475-2.213-.653-4.86-3.298-5.154m-4.226 18.761a1 1 0 0 0 .524.287l3.068.614a2 2 0 0 1 1.563 1.542l.413 1.926c.313 1.462-.473 2.626-1.564 2.748c-1.675.186-3.603-.044-5.077-1.518c-.866-.866-1.7-2.35-2.318-4.23A20.2 20.2 0 0 1 6 16c0-2.166.372-4.335.984-6.198c.617-1.88 1.452-3.364 2.318-4.23c1.474-1.474 3.402-1.704 5.077-1.517c1.092.121 1.877 1.285 1.564 2.747l-.413 1.926a2 2 0 0 1-1.563 1.543l-3.068.613a1 1 0 0 0-.524.287l-.002.001l-.002.002l-.004.005l-.01.01a2 2 0 0 0-.086.1a3 3 0 0 0-.178.244a5 5 0 0 0-.469.89C9.297 13.21 9 14.376 9 16s.297 2.79.624 3.576c.163.392.331.685.469.89a3 3 0 0 0 .265.344l.01.01l.003.005zM23.248 9.795a1 1 0 0 0-1.42 1.41L25.599 15H16a1 1 0 1 0 0 2h9.598l-3.77 3.795a1 1 0 0 0 1.42 1.41l5.462-5.5a1 1 0 0 0 0-1.41z"/></svg>