<svg xmlns="http://www.w3.org/2000/svg" xmlns:xlink="http://www.w3.org/1999/xlink" width="24" height="24" viewBox="0 0 24 24"><path fill="currentColor" d="M14 2.75a.75.75 0 0 1 .75-.75h6.5a.75.75 0 0 1 .75.75v6.5a.75.75 0 0 1-1.5 0V4.56l-3.97 3.97a.75.75 0 1 1-1.06-1.06l3.97-3.97h-4.69a.75.75 0 0 1-.75-.75m0 8a.75.75 0 1 0 0-1.5a.75.75 0 0 0 0 1.5M12.75 12a.75.75 0 1 1-1.5 0a.75.75 0 0 1 1.5 0m-2.526-6.66l-.86-2.028c-.432-1.018-1.51-1.54-2.518-1.217l-1.077.344C4.702 2.78 3.884 3.695 3.62 4.843q-.94 4.094 2.258 9.968q3.195 5.865 7.003 7.053c1.076.336 2.238.04 3.052-.778l.818-.82c.763-.767.874-2.013.259-2.916l-1.233-1.811c-.529-.777-1.468-1.108-2.33-.82l-2.275.759A8.7 8.7 0 0 1 8.9 12.883q-.909-1.563-1.084-3.177L9.71 7.908c.68-.646.889-1.685.514-2.568"/></svg>