<svg xmlns="http://www.w3.org/2000/svg" xmlns:xlink="http://www.w3.org/1999/xlink" width="20" height="20" viewBox="0 0 20 20"><path fill="currentColor" d="M6.784 2.826A1.5 1.5 0 0 1 8.124 2h3.764a1.5 1.5 0 0 1 1.342.83L13.815 4h1.69a2.5 2.5 0 0 1 2.5 2.5v3.761a5.48 5.48 0 0 0-4.122-1.227A4.002 4.002 0 0 0 6 10a4 4 0 0 0 3.034 3.883A5.5 5.5 0 0 0 9.6 17H4.506a2.5 2.5 0 0 1-2.5-2.5v-8a2.5 2.5 0 0 1 2.5-2.5h1.69zM10 7c1.393 0 2.564.95 2.902 2.236a5.51 5.51 0 0 0-3.666 3.666A3.001 3.001 0 0 1 10 7m9 7.5a4.5 4.5 0 1 1-9 0a4.5 4.5 0 0 1 9 0m-4-2a.5.5 0 0 0-1 0V14h-1.5a.5.5 0 1 0 0 1H14v1.5a.5.5 0 1 0 1 0V15h1.5a.5.5 0 0 0 0-1H15z"/></svg>