<svg xmlns="http://www.w3.org/2000/svg" xmlns:xlink="http://www.w3.org/1999/xlink" width="24" height="24" viewBox="0 0 24 24"><path fill="currentColor" d="M17.5 12a5.5 5.5 0 1 1 0 11a5.5 5.5 0 0 1 0-11m0 2l-.09.008a.5.5 0 0 0-.402.402L17 14.5V17h-2.502l-.09.009a.5.5 0 0 0-.402.402l-.008.09l.008.09a.5.5 0 0 0 .402.402l.09.008H17v2.503l.008.09a.5.5 0 0 0 .402.402l.09.008l.09-.008a.5.5 0 0 0 .402-.402l.008-.09V18h2.504l.09-.007a.5.5 0 0 0 .402-.402l.008-.09l-.008-.09a.5.5 0 0 0-.403-.402l-.09-.008H18v-2.5l-.008-.09a.5.5 0 0 0-.402-.403zM13.925 2.504a2.25 2.25 0 0 1 1.94 1.11l.814 1.387h2.071A3.25 3.25 0 0 1 22 8.25v4.56A6.48 6.48 0 0 0 17.5 11q-.625 0-1.218.114a4.501 4.501 0 1 0-5.254 5.78A6.5 6.5 0 0 0 12.022 21H5.25A3.25 3.25 0 0 1 2 17.75v-9.5A3.25 3.25 0 0 1 5.25 5h2.08l.875-1.424a2.25 2.25 0 0 1 1.917-1.073zM12 9.5a3 3 0 0 1 2.85 2.063a6.52 6.52 0 0 0-3.512 3.862A3 3 0 0 1 12 9.501"/></svg>