<svg xmlns="http://www.w3.org/2000/svg" xmlns:xlink="http://www.w3.org/1999/xlink" width="20" height="20" viewBox="0 0 20 20"><path fill="currentColor" d="m15.226 1.353l-.348-1.07a.423.423 0 0 0-.799 0l-.348 1.07a2.2 2.2 0 0 1-1.377 1.397l-1.071.348a.423.423 0 0 0 0 .798l1.071.348a2.2 2.2 0 0 1 1.399 1.403l.348 1.07a.423.423 0 0 0 .798 0l.349-1.07a2.2 2.2 0 0 1 1.398-1.397l1.072-.348a.423.423 0 0 0 0-.798l-.022-.006l-1.072-.348a2.2 2.2 0 0 1-1.398-1.397m3.791 6.612l.766.248l.015.004a.303.303 0 0 1 0 .57l-.765.248a1.58 1.58 0 0 0-1 .999l-.248.764a.302.302 0 0 1-.57 0l-.249-.764a1.58 1.58 0 0 0-.999-1.002l-.765-.249a.303.303 0 0 1 0-.57l.765-.248a1.58 1.58 0 0 0 .984-.999l.249-.764a.302.302 0 0 1 .57 0l.249.764a1.58 1.58 0 0 0 .999.999M8.124 2h3.283L11 2.15a1.36 1.36 0 0 0-.71.53a1.4 1.4 0 0 0-.185.32h-1.98a.5.5 0 0 0-.448.275L6.95 4.724a.5.5 0 0 1-.446.275H4.505a1.5 1.5 0 0 0-1.5 1.5V14.5a1.5 1.5 0 0 0 1.5 1.5h11a1.5 1.5 0 0 0 1.5-1.5v-2.598a1.3 1.3 0 0 0 1-.004V14.5a2.5 2.5 0 0 1-2.5 2.5h-11a2.5 2.5 0 0 1-2.5-2.5v-8a2.5 2.5 0 0 1 2.5-2.5h1.69l.589-1.174A1.5 1.5 0 0 1 8.124 2M10 6a4 4 0 1 0 0 8a4 4 0 0 0 0-8m-3 4a3 3 0 1 1 6 0a3 3 0 0 1-6 0"/></svg>