<svg xmlns="http://www.w3.org/2000/svg" xmlns:xlink="http://www.w3.org/1999/xlink" width="24" height="24" viewBox="0 0 24 24"><path fill="currentColor" d="M8.25 3A3.25 3.25 0 0 0 5 6.25v3.76a3.25 3.25 0 0 0-3 3.24v4.5A3.25 3.25 0 0 0 5.25 21h5a3.25 3.25 0 0 0 3.24-3h5.26A3.25 3.25 0 0 0 22 14.75v-8.5A3.25 3.25 0 0 0 18.75 3zm-3 8.5h2a.75.75 0 0 0 0-1.5H6.5V6.25c0-.966.784-1.75 1.75-1.75h10.5c.966 0 1.75.784 1.75 1.75v8.5a1.75 1.75 0 0 1-1.75 1.75H13.5v-.75a.75.75 0 0 0-1.5 0v2a1.75 1.75 0 0 1-1.75 1.75h-5a1.75 1.75 0 0 1-1.75-1.75v-4.5c0-.966.784-1.75 1.75-1.75m5.252 2.5a.998.998 0 1 0 0-1.996a.998.998 0 0 0 0 1.996m-.252-4.993a.75.75 0 0 0 0 1.5a2.747 2.747 0 0 1 2.747 2.747a.75.75 0 0 0 1.5 0a4.247 4.247 0 0 0-4.247-4.247m0-3.007a.75.75 0 0 0 0 1.5a5.754 5.754 0 0 1 5.754 5.754a.75.75 0 0 0 1.5 0A7.254 7.254 0 0 0 10.25 6"/></svg>