<svg xmlns="http://www.w3.org/2000/svg" xmlns:xlink="http://www.w3.org/1999/xlink" width="24" height="24" viewBox="0 0 24 24"><path fill="currentColor" d="M12.896 3.619a.75.75 0 0 1-1.277.787l-.015-.018a.6.6 0 0 0-.154-.116c-.147-.082-.467-.2-1.065-.091c-.408.075-.619.334-.749.667A2.1 2.1 0 0 0 9.5 5.5v1.25a1 1 0 0 0 1 1h.25a1 1 0 0 0 .969-.75h-.469a.75.75 0 0 1 0-1.5h1.25a.75.75 0 0 1 .75.75v.5a2.5 2.5 0 0 1-2.5 2.5h-.25A2.5 2.5 0 0 1 8 6.75V5.459l.004-.08q.005-.1.026-.263a3.6 3.6 0 0 1 .209-.814c.245-.627.784-1.396 1.875-1.597c.913-.167 1.592-.008 2.068.258c.23.129.399.275.514.397a2 2 0 0 1 .19.242l.006.01l.002.004zm-8.403.946l-.057.045a.75.75 0 1 1-.872-1.22c-.078.056.634-.64 1.686-.64c1.064 0 1.74.723 1.94 1.51A2.07 2.07 0 0 1 6.862 6c.306.403.42.895.39 1.35c-.06.914-.746 1.9-2.002 1.9c-.537 0-.97-.17-1.266-.339c-.294-.167-.486-.353-.472-.342a.75.75 0 0 1 .976-1.138l.014.012c.075.067.341.307.748.307c.184 0 .29-.063.358-.136a.6.6 0 0 0 .147-.363a.5.5 0 0 0-.099-.358c-.05-.06-.155-.143-.406-.143a.75.75 0 1 1 0-1.5c.278 0 .382-.102.43-.176a.57.57 0 0 0 .057-.444a.53.53 0 0 0-.163-.276a.48.48 0 0 0-.324-.104c-.212 0-.39.067-.525.144a1.2 1.2 0 0 0-.198.141l-.017.016zM11.75 12a.75.75 0 0 1 .743.648l.007.102v7.5a.75.75 0 0 1-1.493.102L11 20.25v-7.5a.75.75 0 0 1 .75-.75m4-3a.75.75 0 0 1 .743.648l.007.102v10.5a.75.75 0 0 1-1.493.102L15 20.25V9.75a.75.75 0 0 1 .75-.75m-12 9a.75.75 0 0 1 .743.648l.007.102v1.5a.75.75 0 0 1-1.493.102L3 20.25v-1.5a.75.75 0 0 1 .75-.75M19.743 6a.75.75 0 0 1 .75.64l.007.102v13.501a.75.75 0 0 1-1.492.116L19 20.258V6.757A.75.75 0 0 1 19.743 6M7.75 15a.75.75 0 0 1 .743.648l.007.102v4.499a.75.75 0 0 1-1.493.102L7 20.249V15.75a.75.75 0 0 1 .75-.75"/></svg>