<svg xmlns="http://www.w3.org/2000/svg" xmlns:xlink="http://www.w3.org/1999/xlink" width="32" height="32" viewBox="0 0 32 32"><path fill="currentColor" d="M2 7.25A3.25 3.25 0 0 1 5.25 4h21.5A3.25 3.25 0 0 1 30 7.25v14.5A3.25 3.25 0 0 1 26.75 25H13.5v-1.893l.063-.107H26.75c.69 0 1.25-.56 1.25-1.25V7.25C28 6.56 27.44 6 26.75 6H5.25C4.56 6 4 6.56 4 7.25v6.187a7 7 0 0 0-2 1.732zM13 19.5a5.5 5.5 0 1 1-11 0a5.5 5.5 0 0 1 11 0m-1 5.362A6.97 6.97 0 0 1 7.5 26.5A6.97 6.97 0 0 1 3 24.862V29a1 1 0 0 0 1.528.849l2.972-1.85l2.972 1.85a1 1 0 0 0 1.528-.85zM8 11a1 1 0 0 1 1-1h14a1 1 0 1 1 0 2H9a1 1 0 0 1-1-1m9 6a1 1 0 1 0 0 2h6a1 1 0 1 0 0-2z"/></svg>