<svg xmlns="http://www.w3.org/2000/svg" xmlns:xlink="http://www.w3.org/1999/xlink" width="16" height="16" viewBox="0 0 16 16"><path fill="currentColor" d="M1 4a2 2 0 0 1 2-2h10a2 2 0 0 1 2 2v6a2 2 0 0 1-2 2H7v-.354A4 4 0 0 0 7.465 11H13a1 1 0 0 0 1-1V4a1 1 0 0 0-1-1H3a1 1 0 0 0-1 1v1.535a4 4 0 0 0-1 .82zm5.646 2a4 4 0 0 0-2.275-.983A.5.5 0 0 1 4.5 5h7a.5.5 0 0 1 0 1zM8.5 8a.5.5 0 0 0 0 1h3a.5.5 0 0 0 0-1zM7 9a3 3 0 1 1-6 0a3 3 0 0 1 6 0m-5 3.443V14.5a.5.5 0 0 0 .264.441a.5.5 0 0 0 .513-.026L4 14.1l1.223.816a.5.5 0 0 0 .706-.16a.5.5 0 0 0 .071-.257v-2.056a3.96 3.96 0 0 1-2 .556a3.96 3.96 0 0 1-2-.556"/></svg>