<svg xmlns="http://www.w3.org/2000/svg" xmlns:xlink="http://www.w3.org/1999/xlink" width="24" height="24" viewBox="0 0 24 24"><path fill="currentColor" d="M2 5.75A2.75 2.75 0 0 1 4.75 3h14.5A2.75 2.75 0 0 1 22 5.75v9.5A2.75 2.75 0 0 1 19.25 18H10v-1q.18-.24.331-.5h8.919c.69 0 1.25-.56 1.25-1.25v-9.5c0-.69-.56-1.25-1.25-1.25H4.75c-.69 0-1.25.56-1.25 1.25v3.919a5 5 0 0 0-1.5 1.33zM6.75 7a.75.75 0 0 0 0 1.5h10.5a.75.75 0 0 0 0-1.5zm6 5a.75.75 0 0 0 0 1.5h4.5a.75.75 0 0 0 0-1.5zM6 10a4 4 0 1 0 0 8.001A4 4 0 0 0 6 10m3 8.001c-.835.628-1.874 1-3 1a4.98 4.98 0 0 1-3-.998v3.246c0 .57.605.92 1.09.669l.09-.055L6 20.592l1.82 1.272a.75.75 0 0 0 1.172-.51L9 21.249z"/></svg>