<svg xmlns="http://www.w3.org/2000/svg" xmlns:xlink="http://www.w3.org/1999/xlink" width="48" height="48" viewBox="0 0 48 48"><path fill="currentColor" d="M7.5 10.5c-.46 0-.9.077-1.311.22A6.25 6.25 0 0 1 12.25 6h23.5A6.25 6.25 0 0 1 42 12.25v11.794c-.78-.5-1.618-.919-2.5-1.244V12.25a3.75 3.75 0 0 0-3.75-3.75h-23.5a3.75 3.75 0 0 0-3.427 2.224A4 4 0 0 0 7.5 10.5m15.3 29c.325.882.744 1.72 1.244 2.5H12.25A6.25 6.25 0 0 1 6 35.75V18.21a4 4 0 0 0 2.5.165V35.75a3.75 3.75 0 0 0 3.75 3.75zm.94-11a13 13 0 0 1 1.88-2.5h-8.37a1.25 1.25 0 1 0 0 2.5zM7.5 12A2.496 2.496 0 0 0 5 14.5A2.496 2.496 0 0 0 7.5 17a2.5 2.5 0 0 0 0-5m9.75 7a1.25 1.25 0 1 0 0 2.5h13.5a1.25 1.25 0 1 0 0-2.5zM46 35c0 6.075-4.925 11-11 11s-11-4.925-11-11s4.925-11 11-11s11 4.925 11 11m-10-7a1 1 0 1 0-2 0v6h-6a1 1 0 1 0 0 2h6v6a1 1 0 1 0 2 0v-6h6a1 1 0 1 0 0-2h-6z"/></svg>