<svg xmlns="http://www.w3.org/2000/svg" xmlns:xlink="http://www.w3.org/1999/xlink" width="28" height="28" viewBox="0 0 28 28"><path fill="currentColor" d="M3 11.397v9.353A4.25 4.25 0 0 0 7.25 25h7.25a7.5 7.5 0 0 1-.876-1.5H7.25a2.75 2.75 0 0 1-2.75-2.75v-9.353a2.75 2.75 0 0 1-1.5 0M25 7.25v7.25a7.5 7.5 0 0 0-1.5-.876V7.25a2.75 2.75 0 0 0-2.75-2.75H7.25a2.75 2.75 0 0 0-2.532 1.675a2.74 2.74 0 0 0-1.55-.113A4.25 4.25 0 0 1 7.25 3h13.5A4.25 4.25 0 0 1 25 7.25M9.75 15h5.65a7.5 7.5 0 0 0-1.245 1.5H9.75a.75.75 0 0 1 0-1.5M2 8.75a1.75 1.75 0 1 0 3.5 0a1.75 1.75 0 0 0-3.5 0M9.75 11a.75.75 0 0 0 0 1.5h8.5a.75.75 0 0 0 0-1.5zM27 20.5a6.5 6.5 0 1 1-13 0a6.5 6.5 0 0 1 13 0m-6-4a.5.5 0 0 0-1 0V20h-3.5a.5.5 0 0 0 0 1H20v3.5a.5.5 0 0 0 1 0V21h3.5a.5.5 0 0 0 0-1H21z"/></svg>