<svg xmlns="http://www.w3.org/2000/svg" xmlns:xlink="http://www.w3.org/1999/xlink" width="24" height="24" viewBox="0 0 24 24"><path fill="currentColor" d="M22 12c0-5.523-4.477-10-10-10S2 6.477 2 12c0 1.643.397 3.23 1.145 4.65l-1.116 4.29a.85.85 0 0 0 1.036 1.036l4.29-1.117a9.96 9.96 0 0 0 5.685 1.089A2.5 2.5 0 0 1 13 21.5v-5a2.5 2.5 0 0 1 2-2.45V14a3.5 3.5 0 0 1 6.922-.74q.077-.62.078-1.26m-6 3h-.5a1.5 1.5 0 0 0-1.5 1.5v5a1.5 1.5 0 0 0 1.5 1.5h6a1.5 1.5 0 0 0 1.5-1.5v-5a1.5 1.5 0 0 0-1.5-1.5H21v-1a2.5 2.5 0 0 0-5 0zm1.5-1a1 1 0 1 1 2 0v1h-2zm2 5a1 1 0 1 1-2 0a1 1 0 0 1 2 0"/></svg>