<svg xmlns="http://www.w3.org/2000/svg" xmlns:xlink="http://www.w3.org/1999/xlink" width="16" height="16" viewBox="0 0 16 16"><path fill="currentColor" d="M1 7a6 6 0 0 1 11.813-1.491a5.5 5.5 0 0 0-1.18-.392A5.002 5.002 0 1 0 2.7 9.552a.5.5 0 0 1 .051.393l-.509 1.78l1.658-.552a.5.5 0 0 1 .426.052q.376.24.792.408q.13.62.392 1.18a6 6 0 0 1-1.513-.618l-2.338.78a.5.5 0 0 1-.639-.612l.712-2.491A6 6 0 0 1 1 7m9.5-1a4.5 4.5 0 1 1 0 9a4.5 4.5 0 0 1 0-9m-.896 6.396l-.897-.896h1.543A2.75 2.75 0 0 0 13 8.75V8.5a.5.5 0 0 0-1 0v.25a1.75 1.75 0 0 1-1.75 1.75H8.707l.897-.896a.5.5 0 1 0-.708-.708L7.144 10.65a.5.5 0 0 0 .002.705l1.75 1.75a.5.5 0 0 0 .708-.708"/></svg>