<svg xmlns="http://www.w3.org/2000/svg" xmlns:xlink="http://www.w3.org/1999/xlink" width="28" height="28" viewBox="0 0 28 28"><path fill="currentColor" d="M14 3.5C8.201 3.5 3.5 8.201 3.5 14c0 1.884.496 3.65 1.363 5.178a.75.75 0 0 1 .07.575l-1.318 4.634l4.634-1.318a.75.75 0 0 1 .576.07a10.45 10.45 0 0 0 5.329 1.36c.33.524.724 1.003 1.17 1.429A12 12 0 0 1 14 26a11.95 11.95 0 0 1-5.637-1.404l-4.77 1.357a1.25 1.25 0 0 1-1.544-1.544l1.356-4.77A11.95 11.95 0 0 1 2 14C2 7.373 7.373 2 14 2s12 5.373 12 12q0 .672-.072 1.324a7.5 7.5 0 0 0-1.43-1.17L24.5 14c0-5.799-4.701-10.5-10.5-10.5m13 17a6.5 6.5 0 1 0-13 0a6.5 6.5 0 0 0 13 0m-8.146 2.646a.5.5 0 0 1-.708.708l-2-2a.5.5 0 0 1 0-.708l2-2a.5.5 0 0 1 .708.708L17.707 21h2.543A2.75 2.75 0 0 0 23 18.25V18a.5.5 0 0 1 1 0v.25A3.75 3.75 0 0 1 20.25 22h-2.543z"/></svg>