<svg xmlns="http://www.w3.org/2000/svg" xmlns:xlink="http://www.w3.org/1999/xlink" width="20" height="20" viewBox="0 0 20 20"><path fill="currentColor" d="M11.354 6.646a.5.5 0 0 1 0 .708l-3.25 3.25a.5.5 0 0 1-.708 0l-1.75-1.75a.5.5 0 1 1 .708-.708L7.75 9.543l2.896-2.897a.5.5 0 0 1 .708 0M2.038 8.5a6.5 6.5 0 1 1 3.721 5.877l-2.487.697a1 1 0 0 1-1.204-1.32l.796-2.082A6.5 6.5 0 0 1 2.038 8.5m6.5-5.5a5.5 5.5 0 0 0-4.695 8.366l.128.21l-.97 2.535l2.86-.8l.175.088A5.5 5.5 0 1 0 8.538 3M6.574 15.74A6.49 6.49 0 0 0 11.501 18c.993 0 1.936-.223 2.78-.623l2.486.697a1 1 0 0 0 1.204-1.32l-.795-2.082A6.5 6.5 0 0 0 18 11.5c0-1.94-.85-3.682-2.199-4.873a7.5 7.5 0 0 1 .235 1.762c.608.885.964 1.957.964 3.111c0 1.05-.294 2.031-.805 2.866l-.128.21l.97 2.535l-2.86-.8l-.175.088c-.75.384-1.6.601-2.502.601a5.5 5.5 0 0 1-3.167-1.003a7.5 7.5 0 0 1-1.76-.257"/></svg>