<svg xmlns="http://www.w3.org/2000/svg" xmlns:xlink="http://www.w3.org/1999/xlink" width="28" height="28" viewBox="0 0 28 28"><path fill="currentColor" d="M2 12a9 9 0 1 1 4.96 8.045l-3.385.907a1.25 1.25 0 0 1-1.531-1.531l.908-3.389A9 9 0 0 1 2 12m12.22-3.03l-4.47 4.47l-1.97-1.97l-.084-.073a.75.75 0 0 0-.976 1.133l2.5 2.5l.084.073a.75.75 0 0 0 .976-.073l5-5l.073-.084a.75.75 0 0 0-1.133-.976m-3.952 13.004A8.98 8.98 0 0 0 17 25a9 9 0 0 0 4.04-.955l3.385.907a1.25 1.25 0 0 0 1.531-1.531l-.908-3.388a9.004 9.004 0 0 0-5.122-12.546a10 10 0 0 1 .749 1.973A7.5 7.5 0 0 1 24.5 16c0 1.3-.33 2.52-.91 3.585a.75.75 0 0 0-.067.553l.872 3.253l-3.25-.871a.75.75 0 0 0-.554.066A7.46 7.46 0 0 1 17 23.5a7.47 7.47 0 0 1-4.623-1.594a10 10 0 0 1-2.109.068"/></svg>