<svg xmlns="http://www.w3.org/2000/svg" xmlns:xlink="http://www.w3.org/1999/xlink" width="20" height="20" viewBox="0 0 20 20"><path fill="currentColor" d="M6 8a1 1 0 0 1 1-1h3a1 1 0 0 1 1 1v4a1 1 0 0 1-1 1H7a1 1 0 0 1-1-1zm6 1l1.146-1.146a.5.5 0 0 1 .854.353v3.586a.5.5 0 0 1-.854.353L12 11zm-2-7a8 8 0 1 1-3.613 15.14l-.121-.065l-3.645.91a.5.5 0 0 1-.62-.441v-.082l.014-.083l.91-3.644l-.063-.12a8 8 0 0 1-.83-2.887l-.025-.382L2 10a8 8 0 0 1 8-8m0 1a7 7 0 0 0-6.106 10.425a.5.5 0 0 1 .063.272l-.014.094l-.756 3.021l3.024-.754a.5.5 0 0 1 .188-.01l.091.021l.087.039A7 7 0 1 0 10 3"/></svg>