<svg xmlns="http://www.w3.org/2000/svg" xmlns:xlink="http://www.w3.org/1999/xlink" width="24" height="24" viewBox="0 0 24 24"><path fill="currentColor" d="M6.25 3A3.25 3.25 0 0 0 3 6.25v11.5A3.25 3.25 0 0 0 6.25 21h4.804a2.5 2.5 0 0 1 .216-.62l.44-.88H6.25a1.75 1.75 0 0 1-1.75-1.75V6.25c0-.966.784-1.75 1.75-1.75h11.5c.966 0 1.75.784 1.75 1.75v5.742q.135.18.24.391L21 14.905V6.25A3.25 3.25 0 0 0 17.75 3zm11.03 6.28a.75.75 0 1 0-1.06-1.06l-6.223 6.216L7.78 12.22a.75.75 0 0 0-1.06 1.06l2.745 2.746a.75.75 0 0 0 1.06 0zm-1.119 3.55l-3.996 7.998A1.5 1.5 0 0 0 13.508 23H21.5a1.5 1.5 0 0 0 1.343-2.172l-3.997-7.998c-.553-1.107-2.132-1.107-2.686 0m1.844 2.666v3.001a.5.5 0 0 1-1.001 0v-3.001a.5.5 0 0 1 1 0m-.5 5.503a.5.5 0 1 1 0-1a.5.5 0 0 1 0 1"/></svg>