<svg xmlns="http://www.w3.org/2000/svg" xmlns:xlink="http://www.w3.org/1999/xlink" width="16" height="16" viewBox="0 0 16 16"><path fill="currentColor" d="m11.334 2.064l.077.153l.576 1.533c.045.12.14.216.261.261l1.48.556c.65.243.999.937.826 1.594l-.042.13l-.688 1.523a.45.45 0 0 0 0 .37l.654 1.44a1.34 1.34 0 0 1-.544 1.71l-.153.077l-1.533.576a.45.45 0 0 0-.26.261l-.556 1.48a1.34 1.34 0 0 1-1.595.826l-.13-.042l-1.523-.688a.45.45 0 0 0-.37 0l-1.439.654a1.34 1.34 0 0 1-1.71-.544l-.077-.153l-.577-1.533a.45.45 0 0 0-.261-.26l-1.48-.556a1.34 1.34 0 0 1-.826-1.595l.042-.13l.689-1.523a.45.45 0 0 0 0-.37L1.52 6.375a1.34 1.34 0 0 1 .543-1.71l.153-.077L3.75 4.01a.45.45 0 0 0 .261-.261l.556-1.48a1.34 1.34 0 0 1 1.594-.826l.13.042l1.523.689a.45.45 0 0 0 .37 0l1.44-.654a1.34 1.34 0 0 1 1.71.543m-5.931.52l-.555 1.48a1.34 1.34 0 0 1-.784.784l-1.48.555l-.098.051a.45.45 0 0 0-.152.552l.654 1.439c.16.352.16.756 0 1.108l-.66 1.454l-.027.091a.45.45 0 0 0 .283.497l1.48.556c.362.136.648.421.784.784l.555 1.48l.051.098c.12.174.352.242.552.151l1.439-.653a1.34 1.34 0 0 1 1.108 0l1.454.66l.091.026a.45.45 0 0 0 .497-.282l.556-1.48a1.34 1.34 0 0 1 .784-.784l1.48-.556l.098-.05a.45.45 0 0 0 .151-.552l-.653-1.44a1.34 1.34 0 0 1 0-1.108l.66-1.453l.026-.092a.45.45 0 0 0-.282-.497l-1.48-.555a1.34 1.34 0 0 1-.784-.784l-.556-1.48l-.05-.098a.45.45 0 0 0-.552-.152l-1.44.654a1.34 1.34 0 0 1-1.108 0l-1.44-.654l-.027-.012a.447.447 0 0 0-.575.262m1.574 6.762l3.186-3.64a.447.447 0 0 1 .725.514l-.053.073l-3.5 4a.45.45 0 0 1-.578.082l-.074-.06l-1.5-1.5a.447.447 0 0 1 .562-.689l.07.057zl3.186-3.64z"/></svg>