<svg xmlns="http://www.w3.org/2000/svg" xmlns:xlink="http://www.w3.org/1999/xlink" width="24" height="24" viewBox="0 0 24 24"><path fill="currentColor" d="M6.25 3A3.25 3.25 0 0 0 3 6.25v11.5A3.25 3.25 0 0 0 6.25 21h10.007a3.9 3.9 0 0 1 .386-1.5H6.25a1.75 1.75 0 0 1-1.75-1.75V6.25c0-.966.784-1.75 1.75-1.75h11.5c.966 0 1.75.784 1.75 1.75v7.25q.34 0 .675.065c.277.054.557.146.825.28V6.25A3.25 3.25 0 0 0 17.75 3zm11.558 16.5a2.86 2.86 0 0 0-.549 1.5q-.009.121-.009.25c0 .414.336.75.75.75h3a.75.75 0 0 0 0-1.5h-2.057c.195-.331.535-.604.997-.938l.086-.062l.045-.032c.218-.156.472-.337.716-.557c.504-.457.963-1.083.963-2.001c0-.634-.168-1.184-.505-1.609a2 2 0 0 0-.245-.26a2.15 2.15 0 0 0-1.018-.495a2.5 2.5 0 0 0-.482-.046a2.82 2.82 0 0 0-2.058.907a.75.75 0 1 0 1.116 1.002c.23-.257.607-.409.942-.409a1 1 0 0 1 .193.018a.6.6 0 0 1 .377.215c.085.107.18.308.18.677c0 .448-.234.718-.774 1.13q-.183.14-.416.307c-.394.285-.882.642-1.252 1.152M17.28 9.28a.75.75 0 1 0-1.06-1.06l-6.223 6.216L7.78 12.22a.75.75 0 0 0-1.06 1.06l2.745 2.746a.75.75 0 0 0 1.06 0z"/></svg>