<svg xmlns="http://www.w3.org/2000/svg" xmlns:xlink="http://www.w3.org/1999/xlink" width="20" height="20" viewBox="0 0 20 20"><path fill="currentColor" d="M7 13A6 6 0 1 0 7 1a6 6 0 0 0 0 12m2.854-7.146l-3 3a.5.5 0 0 1-.708 0l-1.5-1.5a.5.5 0 1 1 .708-.708L6.5 7.793l2.646-2.647a.5.5 0 1 1 .708.708M8 13.929V16a3 3 0 0 0 3 3h5a3 3 0 0 0 3-3v-5a3 3 0 0 0-3-3h-2.07a7 7 0 0 1-.22 1H16a2 2 0 0 1 2 2v5a2 2 0 0 1-2 2h-5a2 2 0 0 1-2-2v-2.29q-.486.145-1 .22m8.354-1.575a.5.5 0 0 0-.708-.708L13 14.293l-1.146-1.147a.5.5 0 0 0-.708.708l1.5 1.5a.5.5 0 0 0 .708 0z"/></svg>