<svg xmlns="http://www.w3.org/2000/svg" xmlns:xlink="http://www.w3.org/1999/xlink" width="20" height="20" viewBox="0 0 20 20"><path fill="currentColor" d="M10 2a8 8 0 0 1 7.745 10.012l-.453-.906a2 2 0 0 0-.32-.468q.027-.315.028-.638a7 7 0 1 0-6.209 6.956l-.52 1.04Q10.137 18 10 18a8 8 0 1 1 0-16m3.358 5.646a.5.5 0 0 1 .058.638l-.058.07l-4.004 4.004a.5.5 0 0 1-.638.058l-.07-.058l-2-2a.5.5 0 0 1 .638-.765l.07.058L9 11.298l3.651-3.652a.5.5 0 0 1 .707 0m1.245 3.908a1 1 0 0 1 1.79 0l3.5 6.998A1 1 0 0 1 18.998 20h-6.996a1 1 0 0 1-.895-1.448zm1.395 1.941a.5.5 0 1 0-1 0v3.002a.5.5 0 1 0 1 0zm-.5 5.504a.5.5 0 1 0 0-1a.5.5 0 0 0 0 1"/></svg>