<svg xmlns="http://www.w3.org/2000/svg" xmlns:xlink="http://www.w3.org/1999/xlink" width="24" height="24" viewBox="0 0 24 24"><path fill="currentColor" d="M7.587 3.963c-.171-.414-.665-.591-1.04-.347a10.05 10.05 0 0 0-2.93 2.931c-.246.376-.069.869.346 1.04c.354.147.759.004.972-.315a8.6 8.6 0 0 1 2.337-2.337c.319-.213.462-.618.315-.972m2.759-.302c-.377.074-.765-.11-.911-.465c-.172-.414.052-.888.49-.98a10 10 0 0 1 4.147-.001c.438.092.662.566.49.98a.806.806 0 0 1-.91.465a8.5 8.5 0 0 0-3.306 0m9.69 3.925c-.354.147-.758.003-.972-.315a8.6 8.6 0 0 0-2.339-2.338c-.318-.213-.462-.618-.315-.972c.171-.414.665-.591 1.04-.347c1.17.762 2.17 1.762 2.933 2.931c.245.376.068.87-.346 1.041M12.782 21.97a6.5 6.5 0 0 1-1.051-1.474a8.5 8.5 0 0 1-1.386-.157c-.376-.074-.764.11-.91.465c-.172.414.051.888.49.98a10 10 0 0 0 2.857.186m7.715-10.24c.54.281 1.036.636 1.474 1.05a10.1 10.1 0 0 0-.186-2.857c-.092-.438-.566-.661-.98-.49c-.355.147-.54.535-.465.911q.134.676.157 1.386M3.96 16.41c.354-.147.759-.003.972.315a8.6 8.6 0 0 0 2.338 2.34c.319.213.462.618.315.972c-.171.414-.665.59-1.04.346a10.05 10.05 0 0 1-2.932-2.933c-.244-.375-.067-.869.347-1.04m-.765-6.975c.354.147.54.535.465.91a8.5 8.5 0 0 0 0 3.306c.073.376-.112.764-.466.91c-.414.172-.888-.051-.98-.49a10 10 0 0 1 0-4.146c.093-.438.567-.662.981-.49M23 17.5a5.5 5.5 0 1 1-11 0a5.5 5.5 0 0 1 11 0m-7.146-2.354a.5.5 0 0 0-.708.707l1.647 1.647l-1.647 1.646a.5.5 0 0 0 .708.707l1.646-1.646l1.646 1.646a.5.5 0 0 0 .708-.707L18.207 17.5l1.647-1.646a.5.5 0 0 0-.708-.708L17.5 16.793z"/></svg>