<svg xmlns="http://www.w3.org/2000/svg" xmlns:xlink="http://www.w3.org/1999/xlink" width="48" height="48" viewBox="0 0 48 48"><path fill="currentColor" d="M8.282 6.514c-.522-.521-.488-1.381.116-1.804a14.9 14.9 0 0 1 5.997-2.485c.726-.127 1.357.458 1.357 1.195c0 .648-.493 1.183-1.13 1.306a12.4 12.4 0 0 0-4.619 1.914c-.536.363-1.263.332-1.721-.126m-.58 20.55c.475-.475 1.236-.486 1.773-.081a12.45 12.45 0 0 0 4.623 2.179a17 17 0 0 0-.084 2.541a14.9 14.9 0 0 1-6.242-2.876c-.56-.437-.572-1.26-.07-1.763M31 14q.353 0 .702.015a14.9 14.9 0 0 0-2.876-6.242c-.438-.56-1.261-.572-1.764-.07c-.475.476-.485 1.237-.08 1.773A12.45 12.45 0 0 1 29.16 14.1A17 17 0 0 1 31 14m-6.054-9.724c.648.406.705 1.303.164 1.844c-.44.44-1.133.49-1.667.167a12.4 12.4 0 0 0-4.062-1.56c-.636-.123-1.13-.658-1.13-1.306c0-.737.632-1.322 1.358-1.194a14.9 14.9 0 0 1 5.337 2.05M6.12 25.112c.44-.44.489-1.133.167-1.667a12.4 12.4 0 0 1-1.561-4.065c-.123-.636-.658-1.13-1.306-1.13c-.737 0-1.322.632-1.194 1.358a14.9 14.9 0 0 0 2.05 5.34c.406.648 1.303.705 1.844.164m.395-16.83c.458.458.488 1.185.125 1.721a12.4 12.4 0 0 0-1.914 4.618c-.123.636-.658 1.13-1.306 1.13c-.737 0-1.322-.632-1.194-1.358A14.9 14.9 0 0 1 4.71 8.397c.424-.603 1.284-.636 1.805-.115M46 31c0 8.284-6.716 15-15 15s-15-6.716-15-15s6.716-15 15-15s15 6.716 15 15m-7.616-4.634a1.25 1.25 0 0 0-1.768 0L29 33.982l-3.616-3.616a1.25 1.25 0 0 0-1.768 1.768l4.5 4.5a1.25 1.25 0 0 0 1.768 0l8.5-8.5a1.25 1.25 0 0 0 0-1.768"/></svg>