<svg xmlns="http://www.w3.org/2000/svg" xmlns:xlink="http://www.w3.org/1999/xlink" width="24" height="24" viewBox="0 0 24 24"><path fill="currentColor" d="M7.695 4.222c-.23-.554-.891-.791-1.384-.45a10 10 0 0 0-2.54 2.539c-.342.493-.104 1.154.45 1.384c.471.195 1.009.005 1.31-.407a8 8 0 0 1 1.756-1.756c.412-.3.603-.838.408-1.31m3.062-.127c-.505.079-1.02-.167-1.215-.638c-.229-.554.07-1.19.66-1.297a10 10 0 0 1 3.591.001c.59.107.89.743.66 1.297c-.195.471-.71.717-1.214.638a8 8 0 0 0-2.482 0m9.015 3.6c-.472.196-1.009.006-1.31-.406a8 8 0 0 0-1.755-1.755c-.412-.3-.602-.838-.407-1.31c.23-.554.891-.791 1.384-.45c.99.687 1.851 1.547 2.538 2.538c.341.493.104 1.154-.45 1.384M12.78 21.97a6.5 6.5 0 0 1-1.29-1.986a8 8 0 0 1-.736-.08c-.504-.078-1.019.167-1.214.639c-.23.554.07 1.19.66 1.296a10 10 0 0 0 2.58.13m7.2-10.48c.74.306 1.412.745 1.985 1.287a10.2 10.2 0 0 0-.131-2.574c-.107-.59-.743-.89-1.297-.66c-.471.195-.716.71-.638 1.214q.057.362.08.733M4.218 16.302c.472-.195 1.01-.004 1.31.408a8 8 0 0 0 1.757 1.757c.412.301.603.838.408 1.31c-.23.554-.891.791-1.384.45a10 10 0 0 1-2.54-2.54c-.342-.494-.105-1.155.45-1.385m-.765-6.76c.471.195.717.71.638 1.214a8 8 0 0 0 0 2.485c.078.504-.167 1.019-.639 1.214c-.554.23-1.19-.07-1.296-.66a10 10 0 0 1 0-3.593c.107-.59.743-.89 1.297-.66M23 17.5a5.5 5.5 0 1 1-11 0a5.5 5.5 0 0 1 11 0m-7.146-2.354a.5.5 0 0 0-.708.708l1.647 1.646l-1.647 1.646a.5.5 0 0 0 .708.708l1.646-1.647l1.646 1.647a.5.5 0 0 0 .708-.708L18.207 17.5l1.647-1.646a.5.5 0 0 0-.708-.708L17.5 16.793z"/></svg>