<svg xmlns="http://www.w3.org/2000/svg" xmlns:xlink="http://www.w3.org/1999/xlink" width="24" height="24" viewBox="0 0 24 24"><path fill="currentColor" d="M12.25 8h3.68A7.001 7.001 0 0 0 2 9a7 7 0 0 0 6 6.93v-3.68A4.25 4.25 0 0 1 12.25 8m0 1A3.25 3.25 0 0 0 9 12.25v6.5c0 .626.177 1.21.483 1.706l4.25-4.249a2.5 2.5 0 0 1 3.535 0l4.249 4.25A3.24 3.24 0 0 0 22 18.75v-6.5A3.25 3.25 0 0 0 18.75 9zm8.206 12.517l-4.249-4.25a1 1 0 0 0-1.414 0l-4.25 4.25A3.24 3.24 0 0 0 12.25 22h6.5c.626 0 1.21-.177 1.706-.483M19.25 13a1.25 1.25 0 1 1-2.5 0a1.25 1.25 0 0 1 2.5 0"/></svg>