<svg xmlns="http://www.w3.org/2000/svg" xmlns:xlink="http://www.w3.org/1999/xlink" width="16" height="16" viewBox="0 0 16 16"><path fill="currentColor" d="M8 2a6 6 0 1 0 .88 11.936a.75.75 0 1 0-.218-1.484c-.41.06-.845.063-1.257.009a4.5 4.5 0 0 1-2.085-.846a4.5 4.5 0 0 1-.944-.947a4.48 4.48 0 0 1-.828-3.33l.002-.014a4.5 4.5 0 0 1 .835-2.004a4.5 4.5 0 0 1 .944-.942a4.5 4.5 0 0 1 2.123-.845a4.6 4.6 0 0 1 1.21.015a.75.75 0 0 0 .218-1.484A6 6 0 0 0 8 2.001m3.575 1.18a.75.75 0 0 0-.894 1.205c.355.264.67.58.934.935a.75.75 0 1 0 1.204-.895a6 6 0 0 0-1.244-1.244m2.361 3.94a.75.75 0 1 0-1.484.218c.063.431.063.892 0 1.323a.75.75 0 0 0 1.484.219a6.1 6.1 0 0 0 0-1.76m-1.117 4.455a.75.75 0 0 0-1.204-.895a4.5 4.5 0 0 1-.934.935a.75.75 0 0 0 .894 1.204a6 6 0 0 0 1.245-1.244"/></svg>