<svg xmlns="http://www.w3.org/2000/svg" xmlns:xlink="http://www.w3.org/1999/xlink" width="16" height="16" viewBox="0 0 16 16"><path fill="currentColor" d="M4.158 2.147a.475.475 0 0 1 .698.23a.54.54 0 0 1-.207.645a6 6 0 0 0-1.63 1.631a.54.54 0 0 1-.645.208a.475.475 0 0 1-.23-.697a7 7 0 0 1 2.014-2.017m2.083-.346a.54.54 0 0 0 .604.31A6 6 0 0 1 9.15 2.11a.54.54 0 0 0 .603-.31a.475.475 0 0 0-.33-.655a7 7 0 0 0-2.852.001a.475.475 0 0 0-.33.655m6.738 2.85c.142.21.41.304.645.207a.475.475 0 0 0 .23-.697a7 7 0 0 0-2.018-2.017a.475.475 0 0 0-.697.23a.54.54 0 0 0 .208.645a6 6 0 0 1 1.632 1.631M3.02 11.347a.54.54 0 0 0-.645-.207a.475.475 0 0 0-.23.697a7 7 0 0 0 2.013 2.015a.476.476 0 0 0 .698-.23a.54.54 0 0 0-.207-.646a6 6 0 0 1-1.629-1.629M2.11 6.85a.54.54 0 0 0-.31-.603a.475.475 0 0 0-.655.33a7 7 0 0 0 0 2.848c.06.294.378.445.656.33a.54.54 0 0 0 .31-.603a6 6 0 0 1 0-2.302M16 11.5a4.5 4.5 0 1 1-9 0a4.5 4.5 0 0 1 9 0m-2.646-1.146a.5.5 0 0 0-.708-.708L11.5 10.793l-1.146-1.147a.5.5 0 0 0-.708.708l1.147 1.146l-1.147 1.146a.5.5 0 1 0 .708.708l1.146-1.147l1.146 1.147a.5.5 0 0 0 .708-.707L12.207 11.5z"/></svg>