<svg xmlns="http://www.w3.org/2000/svg" xmlns:xlink="http://www.w3.org/1999/xlink" width="16" height="16" viewBox="0 0 16 16"><path fill="currentColor" d="M8 2.002V2a6 6 0 1 0 0 12v-.002a6 6 0 0 0 1.17-.112a.5.5 0 1 0-.193-.981a5.2 5.2 0 0 1-1.852.019a5 5 0 0 1-1.903-.766a5 5 0 0 1-1.38-1.38l-.006-.008a5 5 0 0 1-.74-1.794a5.1 5.1 0 0 1 .001-1.962a5 5 0 0 1 .745-1.792A5 5 0 0 1 5.23 3.837a5 5 0 0 1 1.85-.753a5.2 5.2 0 0 1 1.897.011a.5.5 0 0 0 .194-.98A6 6 0 0 0 8 2.001m3.334 1.009a.5.5 0 0 0-.556.83a5 5 0 0 1 1.38 1.381a.5.5 0 0 0 .831-.556a6 6 0 0 0-1.655-1.655m2.552 3.819a.5.5 0 1 0-.981.194c.125.63.125 1.322 0 1.952a.5.5 0 0 0 .981.194a6.1 6.1 0 0 0 0-2.34m-.897 4.504a.5.5 0 0 0-.83-.556a5 5 0 0 1-1.381 1.38a.5.5 0 0 0 .556.831a6 6 0 0 0 1.655-1.655"/></svg>