<svg xmlns="http://www.w3.org/2000/svg" xmlns:xlink="http://www.w3.org/1999/xlink" width="16" height="16" viewBox="0 0 16 16"><path fill="currentColor" d="M7.87 1.36a5 5 0 0 0-.804-.247a.5.5 0 1 0-.214.977a4 4 0 0 1 1.245.5a.5.5 0 0 0 .523-.852a5 5 0 0 0-.75-.377m2.34 1.937a.5.5 0 1 0-.842.54q.058.09.112.185a6 6 0 0 1 1.118.007a5 5 0 0 0-.389-.732m-6.185 6.18a6 6 0 0 0 .007 1.118a5 5 0 0 1-.647-.335a.5.5 0 0 1 .522-.852zm1.048-7.369a.5.5 0 1 0-.233-.972a5 5 0 0 0-1.54.656a.5.5 0 1 0 .54.842c.378-.243.796-.42 1.233-.526M2.594 3.904a.5.5 0 1 0-.853-.522a5 5 0 0 0-.625 1.553a.5.5 0 0 0 .977.214a4 4 0 0 1 .501-1.245m-.483 3.024a.5.5 0 0 0-.972.233c.13.547.353 1.068.656 1.54a.5.5 0 1 0 .842-.54a4 4 0 0 1-.526-1.233m10.243 2.426a.5.5 0 0 0-.708-.708L9.5 10.793L8.354 9.646a.5.5 0 1 0-.708.708l1.5 1.5a.5.5 0 0 0 .708 0zM10 15a5 5 0 1 0 0-10a5 5 0 0 0 0 10m0-1a4 4 0 1 1 0-8a4 4 0 0 1 0 8"/></svg>