<svg xmlns="http://www.w3.org/2000/svg" xmlns:xlink="http://www.w3.org/1999/xlink" width="28" height="28" viewBox="0 0 28 28"><path fill="currentColor" d="M8.598 4.226c-.172-.414-.666-.59-1.045-.35a12.1 12.1 0 0 0-3.675 3.675c-.241.378-.065.873.35 1.045a.8.8 0 0 0 .966-.317a10.6 10.6 0 0 1 3.088-3.087a.8.8 0 0 0 .316-.966m3.217-.498a.8.8 0 0 1-.908-.46c-.171-.414.053-.888.492-.985A12 12 0 0 1 14 2c.894 0 1.765.098 2.603.283c.438.097.663.571.491.986a.8.8 0 0 1-.907.46a10.5 10.5 0 0 0-4.372-.001m11.958 4.869a.8.8 0 0 1-.966-.316a10.6 10.6 0 0 0-3.087-3.088a.8.8 0 0 1-.317-.966c.172-.415.667-.59 1.045-.35a12.1 12.1 0 0 1 3.674 3.675c.242.379.066.873-.349 1.045m.96 8.492a.8.8 0 0 1-.46-.907a10.55 10.55 0 0 0-.001-4.369a.8.8 0 0 1 .46-.907c.414-.172.888.053.985.491a12.1 12.1 0 0 1 .001 5.201c-.097.438-.57.663-.985.491M19.4 23.774a.8.8 0 0 1 .317-.966a10.6 10.6 0 0 0 3.092-3.093a.8.8 0 0 1 .966-.316c.414.172.59.666.35 1.044a12.1 12.1 0 0 1-3.68 3.68c-.379.242-.873.066-1.045-.349m-8.491.958a.8.8 0 0 1 .907-.46a10.5 10.5 0 0 0 4.367 0a.8.8 0 0 1 .908.46c.172.415-.053.889-.492.986a12.1 12.1 0 0 1-5.199 0c-.438-.097-.663-.571-.491-.986M4.225 19.4a.8.8 0 0 1 .966.317a10.6 10.6 0 0 0 3.093 3.092c.32.208.463.613.316.966c-.171.415-.666.591-1.044.35a12.1 12.1 0 0 1-3.68-3.68c-.242-.379-.066-.873.349-1.045m-.956-8.495a.8.8 0 0 1 .46.907a10.5 10.5 0 0 0-.002 4.371a.8.8 0 0 1-.46.907c-.414.172-.888-.053-.985-.491A12 12 0 0 1 2 14c0-.894.098-1.766.283-2.604c.097-.438.571-.663.986-.492"/></svg>