<svg xmlns="http://www.w3.org/2000/svg" xmlns:xlink="http://www.w3.org/1999/xlink" width="24" height="24" viewBox="0 0 24 24"><path fill="currentColor" d="M14.694 21.633q.713-.2 1.38-.498L12.22 17.28a.75.75 0 1 1 1.06-1.06l4.168 4.167a10 10 0 0 0 1.073-.805L14.72 15.78a.75.75 0 1 1 1.06-1.06l3.802 3.8q.437-.508.805-1.072L16.22 13.28a.75.75 0 1 1 1.06-1.06l3.855 3.854q.298-.667.498-1.38L17.22 10.28a.75.75 0 1 1 1.06-1.06l3.68 3.68a10 10 0 0 0-.008-1.888L17.47 6.53a.75.75 0 0 1 1.06-1.06l2.717 2.716A10 10 0 0 0 12 2C6.477 2 2 6.477 2 12c0 4.172 2.555 7.748 6.186 9.247L5.47 18.53a.75.75 0 1 1 1.06-1.06l4.482 4.482a10 10 0 0 0 1.887.008l-3.68-3.68a.75.75 0 1 1 1.061-1.06z"/></svg>