<svg xmlns="http://www.w3.org/2000/svg" xmlns:xlink="http://www.w3.org/1999/xlink" width="20" height="20" viewBox="0 0 20 20"><path fill="currentColor" d="M8.439 2.152a8.2 8.2 0 0 1 3.121 0a.5.5 0 0 1-.194.981a7.2 7.2 0 0 0-2.733 0a.5.5 0 0 1-.194-.98m5.312 1.333a.5.5 0 0 1 .694-.137a8 8 0 0 1 2.207 2.207a.5.5 0 1 1-.831.556a7 7 0 0 0-1.932-1.932a.5.5 0 0 1-.138-.694m-7.503 0a.5.5 0 0 1-.137.694a7 7 0 0 0-1.933 1.93a.5.5 0 0 1-.83-.556a8 8 0 0 1 2.206-2.207a.5.5 0 0 1 .694.137m-3.509 4.56a.5.5 0 0 1 .394.588a7.2 7.2 0 0 0 0 2.734a.5.5 0 0 1-.981.194a8.2 8.2 0 0 1 0-3.122a.5.5 0 0 1 .587-.393m14.52 0a.5.5 0 0 1 .588.394c.2 1.01.2 2.111 0 3.122a.5.5 0 1 1-.98-.194a7.2 7.2 0 0 0 0-2.734a.5.5 0 0 1 .393-.587M3.486 13.753a.5.5 0 0 1 .693.137a7 7 0 0 0 1.933 1.932a.5.5 0 0 1-.557.831a8 8 0 0 1-2.207-2.207a.5.5 0 0 1 .138-.693m13.03 0a.5.5 0 0 1 .137.693a8 8 0 0 1-2.207 2.207a.5.5 0 0 1-.556-.83a7 7 0 0 0 1.932-1.933a.5.5 0 0 1 .694-.137m-8.47 3.508a.5.5 0 0 1 .588-.393a7.2 7.2 0 0 0 2.733 0a.5.5 0 0 1 .194.98a8.2 8.2 0 0 1-3.121 0a.5.5 0 0 1-.394-.587"/></svg>