<svg xmlns="http://www.w3.org/2000/svg" xmlns:xlink="http://www.w3.org/1999/xlink" width="28" height="28" viewBox="0 0 28 28"><path fill="currentColor" d="M11.358 1.204a8.6 8.6 0 0 1 2.724 1.135a.75.75 0 1 1-.807 1.265a7 7 0 0 0-2.247-.936a.75.75 0 0 1 .33-1.464m-2.787.564A.75.75 0 0 1 8 2.662c-.798.176-1.56.49-2.25.926a.75.75 0 1 1-.802-1.267a8.5 8.5 0 0 1 2.729-1.124a.75.75 0 0 1 .894.571m7.074 2.947a.75.75 0 0 1 1.034.233c.53.837.91 1.761 1.124 2.729l.003.014l.01.042q.133.626.17 1.28a9.5 9.5 0 0 0-1.492.2a7 7 0 0 0-.145-1.17l-.002-.008L16.338 8a7 7 0 0 0-.926-2.25a.75.75 0 0 1 .232-1.035m-6.433 11.78a7 7 0 0 1-1.24-.163a7 7 0 0 1-2.247-.936a.75.75 0 1 0-.807 1.265a8.55 8.55 0 0 0 4.096 1.325a9.5 9.5 0 0 1 .198-1.492M3.375 4.688a.75.75 0 0 1 .229 1.036a7 7 0 0 0-.936 2.247a.75.75 0 0 1-1.464-.33A8.6 8.6 0 0 1 2.34 4.919a.75.75 0 0 1 1.035-.229m-1.607 5.74a.75.75 0 0 1 .894.571c.176.798.49 1.56.927 2.25a.75.75 0 1 1-1.268.802a8.5 8.5 0 0 1-1.124-2.729a.75.75 0 0 1 .571-.893M22.78 16.78a.75.75 0 1 0-1.06-1.06l-4.22 4.22l-2.22-2.22a.75.75 0 1 0-1.06 1.06l2.75 2.75a.75.75 0 0 0 1.06 0zM10 18.5a8.5 8.5 0 1 1 17 0a8.5 8.5 0 0 1-17 0m8.5-7a7 7 0 1 0 0 14a7 7 0 0 0 0-14"/></svg>