<svg xmlns="http://www.w3.org/2000/svg" xmlns:xlink="http://www.w3.org/1999/xlink" width="32" height="32" viewBox="0 0 32 32"><path fill="currentColor" d="M22.172 4.172c-.654.654-2.053 2.513-3.229 4.116a244 244 0 0 0-1.363 1.878l-2.898-2.898a4.5 4.5 0 0 0-6.364 0l-3.172 3.171a1.5 1.5 0 0 0 0 2.122l.88.879l-2.294 2.292a2.5 2.5 0 0 0 0 3.536l9.003 9.002a2.5 2.5 0 0 0 3.537-.002l2.289-2.293l.878.878a1.5 1.5 0 0 0 2.122 0l3.17-3.175a4.5 4.5 0 0 0-.001-6.362l-2.896-2.896a243 243 0 0 0 1.879-1.364c1.602-1.175 3.462-2.574 4.115-3.227a4 4 0 0 0-5.656-5.657M17.146 24.56l-2.29 2.294a.5.5 0 0 1-.707 0l-9.003-9.001a.5.5 0 0 1 0-.708l2.293-2.292zM20.4 12.986L19.014 11.6c.409-.57.958-1.333 1.542-2.13c1.221-1.665 2.512-3.366 3.03-3.884a2 2 0 1 1 2.828 2.828c-.518.518-2.219 1.809-3.884 3.03c-.797.584-1.559 1.134-2.13 1.542"/></svg>