<svg xmlns="http://www.w3.org/2000/svg" xmlns:xlink="http://www.w3.org/1999/xlink" width="24" height="24" viewBox="0 0 24 24"><path fill="currentColor" d="M10.25 2h3.5a2.25 2.25 0 0 1 2.236 2h1.764A2.25 2.25 0 0 1 20 6.25v4.982a4.47 4.47 0 0 0-2.986.728a4.468 4.468 0 0 0-5.645 6.87l3.17 3.17H6.25A2.25 2.25 0 0 1 4 19.75V6.25A2.25 2.25 0 0 1 6.25 4h1.764a2.25 2.25 0 0 1 2.236-2m3.5 1.5h-3.5a.75.75 0 0 0 0 1.5h3.5a.75.75 0 0 0 0-1.5m3.264 19.25a.75.75 0 0 1-.53-.22l-4.408-4.408a3.467 3.467 0 1 1 4.902-4.903l.036.036l.036-.036a3.467 3.467 0 1 1 4.903 4.903l-4.408 4.408a.75.75 0 0 1-.53.22"/></svg>