<svg xmlns="http://www.w3.org/2000/svg" xmlns:xlink="http://www.w3.org/1999/xlink" width="20" height="20" viewBox="0 0 20 20"><path fill="currentColor" d="M6.5 2a1.5 1.5 0 0 0-1.415 1H3.5A1.5 1.5 0 0 0 2 4.5v12A1.5 1.5 0 0 0 3.5 18h6.757a5.5 5.5 0 0 1-.657-1H3.5a.5.5 0 0 1-.5-.5v-12a.5.5 0 0 1 .5-.5h1.585A1.5 1.5 0 0 0 6.5 5h3a1.5 1.5 0 0 0 1.415-1H12.5a.5.5 0 0 1 .5.5v4.707a5.5 5.5 0 0 1 1-.185V4.5A1.5 1.5 0 0 0 12.5 3h-1.585A1.5 1.5 0 0 0 9.5 2zM6 3.5a.5.5 0 0 1 .5-.5h3a.5.5 0 0 1 0 1h-3a.5.5 0 0 1-.5-.5m4.854 6.354a.5.5 0 0 0-.708-.708L7 12.293l-1.146-1.147a.5.5 0 0 0-.708.708l1.5 1.5a.5.5 0 0 0 .708 0zM19 14.5a4.5 4.5 0 1 1-9 0a4.5 4.5 0 0 1 9 0m-4-2a.5.5 0 0 0-1 0V14h-1.5a.5.5 0 0 0 0 1H14v1.5a.5.5 0 0 0 1 0V15h1.5a.5.5 0 0 0 0-1H15z"/></svg>