<svg xmlns="http://www.w3.org/2000/svg" xmlns:xlink="http://www.w3.org/1999/xlink" width="24" height="24" viewBox="0 0 24 24"><path fill="currentColor" d="M13.75 2a2.25 2.25 0 0 1 2.236 2h1.764A2.25 2.25 0 0 1 20 6.25V13h-1.5V6.25a.75.75 0 0 0-.75-.75h-2.129c-.404.603-1.091 1-1.871 1h-3.5c-.78 0-1.467-.397-1.871-1H6.25a.75.75 0 0 0-.75.75V13H4V6.25A2.25 2.25 0 0 1 6.25 4h1.764a2.25 2.25 0 0 1 2.236-2zm2.245 2.096L16 4.25q0-.078-.005-.154M13.75 3.5h-3.5a.75.75 0 0 0 0 1.5h3.5a.75.75 0 0 0 0-1.5m4.75 13H20v3.25A2.25 2.25 0 0 1 17.75 22H6.25A2.25 2.25 0 0 1 4 19.75V16.5h1.5v3.25c0 .414.336.75.75.75h11.5a.75.75 0 0 0 .75-.75zm-7.53-7.962a.75.75 0 0 0-1.39-.123L6.785 14H2.75a.75.75 0 0 0 0 1.5h4.5a.75.75 0 0 0 .67-.415l2.148-4.295l1.963 6.672a.75.75 0 0 0 1.39.123l1.889-3.778l.797 1.329a.75.75 0 0 0 .643.364h4.5a.75.75 0 0 0 0-1.5h-4.075l-1.282-2.136a.75.75 0 0 0-1.314.05l-1.647 3.296z"/></svg>