<svg xmlns="http://www.w3.org/2000/svg" xmlns:xlink="http://www.w3.org/1999/xlink" width="24" height="24" viewBox="0 0 24 24"><path fill="currentColor" d="M10.25 2h3.5a2.25 2.25 0 0 1 2.236 2h1.764A2.25 2.25 0 0 1 20 6.25V14h-5a5 5 0 0 0-4 8H6.25A2.25 2.25 0 0 1 4 19.75V6.25A2.25 2.25 0 0 1 6.25 4h1.764a2.25 2.25 0 0 1 2.236-2m3.5 1.5h-3.5a.75.75 0 0 0 0 1.5h3.5a.75.75 0 0 0 0-1.5M23 19a4 4 0 0 0-4-4l-.102.007A.75.75 0 0 0 19 16.5l.164.005A2.5 2.5 0 0 1 19 21.5l-.102.007A.75.75 0 0 0 19 23l.2-.005A4 4 0 0 0 23 19m-7.25-3.25A.75.75 0 0 0 15 15l-.2.005A4 4 0 0 0 15 23l.102-.007A.75.75 0 0 0 15 21.5l-.164-.005A2.5 2.5 0 0 1 15 16.5l.102-.007a.75.75 0 0 0 .648-.743m3 2.5h-3.5l-.102.007a.75.75 0 0 0 .102 1.493h3.5l.102-.007a.75.75 0 0 0-.102-1.493"/></svg>