<svg xmlns="http://www.w3.org/2000/svg" xmlns:xlink="http://www.w3.org/1999/xlink" width="32" height="32" viewBox="0 0 32 32"><path fill="currentColor" d="M19 2c1.306 0 2.418.835 2.83 2h1.67A3.5 3.5 0 0 1 27 7.5v8.355a2.5 2.5 0 0 0-.843-.714l-.249-.13a4.6 4.6 0 0 0-.908-.356V7.5A1.5 1.5 0 0 0 23.5 6h-1.67A3 3 0 0 1 19 8h-6a3 3 0 0 1-2.83-2H8.5A1.5 1.5 0 0 0 7 7.5v19A1.5 1.5 0 0 0 8.5 28h7.61a2.5 2.5 0 0 0-.584 2H8.5A3.5 3.5 0 0 1 5 26.5v-19A3.5 3.5 0 0 1 8.5 4h1.67A3 3 0 0 1 13 2zm-6 2a1 1 0 1 0 0 2h6a1 1 0 1 0 0-2zm17.703 20.707a1 1 0 1 0-1.414-1.414l-1.612 1.611l-.649-1.043a1.82 1.82 0 0 0-2.613-.516a1 1 0 0 0 1.006 1.719l.804 1.293l-1.932 1.932a1 1 0 0 0 1.415 1.414L27.31 28.1l.65 1.045a1.816 1.816 0 0 0 2.645.484a1 1 0 0 0-1.043-1.695l-.8-1.286zm-9.865-5.92c.155-2.152 2.464-3.441 4.377-2.445l.249.13a1 1 0 1 1-.924 1.773l-.248-.129a1 1 0 0 0-1.46.815l-.076 1.07H24a1 1 0 0 1 0 2h-1.388l-.448 6.208c-.155 2.153-2.463 3.442-4.377 2.446l-.249-.13a1 1 0 1 1 .924-1.773l.248.129a1 1 0 0 0 1.46-.815L20.606 22H20a1 1 0 1 1 0-2h.75z"/></svg>