<svg xmlns="http://www.w3.org/2000/svg" xmlns:xlink="http://www.w3.org/1999/xlink" width="20" height="20" viewBox="0 0 20 20"><path fill="currentColor" d="M8.5 2a1.5 1.5 0 0 0-1.415 1H5.5A1.5 1.5 0 0 0 4 4.5v12A1.5 1.5 0 0 0 5.5 18h3.651a1.5 1.5 0 0 1 1.915-2.045l.145-1.96a1.5 1.5 0 0 1 .22-2.97l.023-.322c.154-2.076 2.37-3.327 4.227-2.386a1.5 1.5 0 0 1 .319.217V4.5A1.5 1.5 0 0 0 14.5 3h-1.585A1.5 1.5 0 0 0 11.5 2zM8 3.5a.5.5 0 0 1 .5-.5h3a.5.5 0 0 1 0 1h-3a.5.5 0 0 1-.5-.5m4.451 7.277a1.916 1.916 0 0 1 2.778-1.568a.5.5 0 0 1-.452.892a.916.916 0 0 0-1.328.75l-.087 1.172H14.5a.5.5 0 1 1 0 1h-1.212l-.237 3.2a1.916 1.916 0 0 1-2.777 1.567a.5.5 0 1 1 .452-.892a.916.916 0 0 0 1.328-.75l.231-3.125H11.5a.5.5 0 0 1 0-1h.86zm5.403 4.077a.5.5 0 0 0-.708-.708l-1.056 1.057l-.457-.734a.994.994 0 0 0-1.425-.281a.5.5 0 0 0 .579.815l.576.926l-1.217 1.217a.5.5 0 0 0 .708.708l1.052-1.053l.457.735a.99.99 0 0 0 1.442.264a.5.5 0 0 0-.599-.801l-.574-.924z"/></svg>