<svg xmlns="http://www.w3.org/2000/svg" xmlns:xlink="http://www.w3.org/1999/xlink" width="20" height="20" viewBox="0 0 20 20"><path fill="currentColor" d="M7.085 3A1.5 1.5 0 0 1 8.5 2h3a1.5 1.5 0 0 1 1.415 1H14.5A1.5 1.5 0 0 1 16 4.5V10h-1V4.5a.5.5 0 0 0-.5-.5h-1.585A1.5 1.5 0 0 1 11.5 5h-3a1.5 1.5 0 0 1-1.415-1H5.5a.5.5 0 0 0-.5.5V10H4V4.5A1.5 1.5 0 0 1 5.5 3zM8.5 3a.5.5 0 0 0 0 1h3a.5.5 0 0 0 0-1zM15 13h1v3.5a1.5 1.5 0 0 1-1.5 1.5h-9A1.5 1.5 0 0 1 4 16.5V13h1v3.5a.5.5 0 0 0 .5.5h9a.5.5 0 0 0 .5-.5zM8.978 6.853a.5.5 0 0 0-.935-.056L6.175 11H2.5a.5.5 0 0 0 0 1h4a.5.5 0 0 0 .457-.297l1.458-3.28l1.607 5.224a.5.5 0 0 0 .925.077l1.553-3.106l.553 1.106A.5.5 0 0 0 13.5 12h4a.5.5 0 0 0 0-1h-3.691l-.862-1.724a.5.5 0 0 0-.894 0L10.61 12.16z"/></svg>