<svg xmlns="http://www.w3.org/2000/svg" xmlns:xlink="http://www.w3.org/1999/xlink" width="24" height="24" viewBox="0 0 24 24"><path fill="currentColor" d="M11.96 20.549v-.05l.04.001A8.5 8.5 0 1 0 4.02 9.067A1.61 1.61 0 0 0 3 9.999l-.46 1.4a1.8 1.8 0 0 1-.538.81L2 12C2 6.477 6.477 2 12 2s10 4.477 10 10s-4.477 10-10 10q-.696 0-1.366-.093l.194-.051q.129-.032.242-.067a1.3 1.3 0 0 0 .65-.49a1.3 1.3 0 0 0 .24-.75m.033-13.9a.75.75 0 0 0-1.493.101v6l.007.102a.75.75 0 0 0 .743.648h4l.102-.007A.75.75 0 0 0 15.25 12H12V6.75zm-8.905 9.763a2.84 2.84 0 0 0-1.347-.955l-1.378-.448a.544.544 0 0 1 0-1.025l1.378-.448A2.84 2.84 0 0 0 3.5 11.774l.011-.034l.448-1.377a.544.544 0 0 1 1.027 0l.447 1.377a2.84 2.84 0 0 0 1.798 1.796l1.378.448l.028.007a.544.544 0 0 1 0 1.025l-1.378.448a2.84 2.84 0 0 0-1.798 1.796l-.448 1.377a.53.53 0 0 1-.199.263a.544.544 0 0 1-.827-.263l-.448-1.377a2.8 2.8 0 0 0-.45-.848m7.695 3.801l-.765-.248a1.58 1.58 0 0 1-1-.998l-.248-.765a.302.302 0 0 0-.57 0l-.25.764a1.58 1.58 0 0 1-.983.999l-.765.248a.302.302 0 0 0 0 .57l.765.249a1.58 1.58 0 0 1 1 1.002l.248.764a.302.302 0 0 0 .57 0l.249-.764a1.58 1.58 0 0 1 .999-.999l.765-.248a.302.302 0 0 0 0-.57z"/></svg>