<svg xmlns="http://www.w3.org/2000/svg" xmlns:xlink="http://www.w3.org/1999/xlink" width="20" height="20" viewBox="0 0 20 20"><path fill="currentColor" d="M10 6.5a.5.5 0 0 0-1 0v4a.5.5 0 0 0 .5.5h3a.5.5 0 1 0 0-1H10zM3.353 7.8A3.19 3.19 0 0 1 2 5.187C2 3.431 3.414 2 5.166 2c1.077 0 2.026.542 2.597 1.365A7 7 0 0 1 10 3a7 7 0 0 1 2.23.362A3.16 3.16 0 0 1 14.83 2A3.17 3.17 0 0 1 18 5.175c0 1.08-.538 2.033-1.359 2.607c.233.697.359 1.443.359 2.218a6.97 6.97 0 0 1-1.71 4.584l1.564 1.562a.5.5 0 0 1-.708.707l-1.562-1.562A6.97 6.97 0 0 1 10 17a6.97 6.97 0 0 1-4.584-1.71l-1.562 1.564a.5.5 0 1 1-.708-.707l1.563-1.563A6.97 6.97 0 0 1 3 10c0-.769.124-1.508.353-2.2M3 5.187c0 .662.291 1.255.75 1.656a7.03 7.03 0 0 1 3.062-3.077A2.15 2.15 0 0 0 5.166 3A2.176 2.176 0 0 0 3 5.187m13.242 1.64c.464-.399.758-.99.758-1.652A2.17 2.17 0 0 0 14.83 3c-.66 0-1.251.295-1.65.763a7.03 7.03 0 0 1 3.06 3.065M4 10a6 6 0 1 0 12 0a6 6 0 0 0-12 0"/></svg>