<svg xmlns="http://www.w3.org/2000/svg" xmlns:xlink="http://www.w3.org/1999/xlink" width="16" height="16" viewBox="0 0 16 16"><path fill="currentColor" d="M2 4.5a2.5 2.5 0 0 1 4.62-1.325a5.5 5.5 0 0 1 2.76 0a2.5 2.5 0 1 1 3.715 3.25c.261.64.405 1.34.405 2.075a5.48 5.48 0 0 1-1.273 3.52l1.127 1.126a.5.5 0 0 1-.707.707l-1.127-1.126A5.48 5.48 0 0 1 8 14a5.48 5.48 0 0 1-3.52-1.273l-1.126 1.127a.5.5 0 1 1-.707-.708l1.126-1.126A5.48 5.48 0 0 1 2.5 8.5c0-.734.144-1.435.405-2.075A2.5 2.5 0 0 1 2 4.5m3.643-.971a1.5 1.5 0 1 0-2.257 1.976a5.5 5.5 0 0 1 2.257-1.976m6.97 1.976a1.5 1.5 0 1 0-2.257-1.976a5.5 5.5 0 0 1 2.258 1.976M7.5 5.5A.5.5 0 0 0 7 6v3a.5.5 0 0 0 .5.5h2a.5.5 0 0 0 0-1H8V6a.5.5 0 0 0-.5-.5"/></svg>