<svg xmlns="http://www.w3.org/2000/svg" xmlns:xlink="http://www.w3.org/1999/xlink" width="32" height="32" viewBox="0 0 32 32"><path fill="currentColor" d="M8 3c1.523 0 2.886.68 3.803 1.754A12 12 0 0 1 16 4c1.476 0 2.89.267 4.197.754a5 5 0 1 1 7.05 7.05C27.733 13.11 28 14.524 28 16c0 2.954-1.067 5.658-2.837 7.749l2.544 2.544a1 1 0 0 1-1.414 1.414l-2.544-2.544A11.95 11.95 0 0 1 16 28a11.95 11.95 0 0 1-7.749-2.837l-2.544 2.544a1 1 0 0 1-1.414-1.414l2.544-2.544A11.95 11.95 0 0 1 4 16c0-1.476.267-2.89.754-4.197A5 5 0 0 1 8 3M5.67 9.89a12.06 12.06 0 0 1 4.22-4.22a3 3 0 0 0-4.22 4.22m16.44-4.22a12.06 12.06 0 0 1 4.22 4.22a3 3 0 0 0-4.22-4.22M16 10a1 1 0 1 0-2 0v7a1 1 0 0 0 1 1h5a1 1 0 1 0 0-2h-4z"/></svg>