<svg xmlns="http://www.w3.org/2000/svg" xmlns:xlink="http://www.w3.org/1999/xlink" width="24" height="24" viewBox="0 0 24 24"><path fill="currentColor" d="M3.28 2.22a.75.75 0 0 0-1.06 1.06l1.25 1.25A3.25 3.25 0 0 0 2 7.25v9.505a3.25 3.25 0 0 0 3.25 3.25h13.5q.095 0 .188-.006l1.781 1.781a.75.75 0 0 0 1.061-1.06zm5.293 7.414C7.69 9.78 7 10.63 7 12c0 2.005 1.484 2.896 2.88 2.103a.75.75 0 0 1 .74 1.303C8.216 16.776 5.5 15.144 5.5 12c0-1.7.793-2.958 1.902-3.537zm8.805.267c-1.241-.708-2.549-.085-2.825 1.47l7.01 7.011A3.24 3.24 0 0 0 22 16.754V7.25A3.25 3.25 0 0 0 18.75 4H7.182l6.174 6.174c.813-1.888 2.882-2.65 4.766-1.575a.75.75 0 0 1-.744 1.302"/></svg>