<svg xmlns="http://www.w3.org/2000/svg" xmlns:xlink="http://www.w3.org/1999/xlink" width="32" height="32" viewBox="0 0 32 32"><path fill="currentColor" d="M11.5 13C10.24 13 9 14.213 9 16s1.24 3 2.5 3a2.17 2.17 0 0 0 1.274-.421a1 1 0 1 1 1.164 1.626A4.17 4.17 0 0 1 11.5 21C8.893 21 7 18.632 7 16s1.893-5 4.5-5c.95 0 1.822.326 2.536.867a1 1 0 1 1-1.208 1.594A2.2 2.2 0 0 0 11.5 13m7.5 3c0-1.787 1.24-3 2.5-3c.479 0 .934.162 1.328.46a1 1 0 0 0 1.208-1.593A4.2 4.2 0 0 0 21.5 11c-2.607 0-4.5 2.368-4.5 5s1.893 5 4.5 5a4.17 4.17 0 0 0 2.438-.795a1 1 0 1 0-1.164-1.626A2.17 2.17 0 0 1 21.5 19c-1.26 0-2.5-1.213-2.5-3M2 8.5A4.5 4.5 0 0 1 6.5 4h19A4.5 4.5 0 0 1 30 8.5v15a4.5 4.5 0 0 1-4.5 4.5h-19A4.5 4.5 0 0 1 2 23.5zM6.5 6A2.5 2.5 0 0 0 4 8.5v15A2.5 2.5 0 0 0 6.5 26h19a2.5 2.5 0 0 0 2.5-2.5v-15A2.5 2.5 0 0 0 25.5 6z"/></svg>