<svg xmlns="http://www.w3.org/2000/svg" xmlns:xlink="http://www.w3.org/1999/xlink" width="28" height="28" viewBox="0 0 28 28"><path fill="currentColor" d="M11.051 9.742c.622.093 1.226.319 1.668.672a.75.75 0 1 1-.937 1.172c-.184-.147-.517-.296-.95-.36a2.8 2.8 0 0 0-1.308.108a2.04 2.04 0 0 0-1.048.79C8.206 12.523 8 13.118 8 14s.206 1.477.476 1.876c.27.397.636.648 1.048.79c.42.143.883.17 1.308.108c.433-.065.766-.213.95-.36a.75.75 0 0 1 .937 1.172c-.442.353-1.046.58-1.668.672a4.3 4.3 0 0 1-2.013-.174a3.53 3.53 0 0 1-1.803-1.366c-.472-.695-.735-1.6-.735-2.718s.263-2.023.735-2.718a3.53 3.53 0 0 1 1.803-1.366a4.3 4.3 0 0 1 2.013-.174m10.167.672c-.442-.353-1.045-.58-1.667-.672a4.3 4.3 0 0 0-2.013.174c-.682.233-1.33.67-1.803 1.366c-.472.695-.735 1.6-.735 2.718s.263 2.023.735 2.718a3.53 3.53 0 0 0 1.803 1.366a4.3 4.3 0 0 0 2.013.174c.622-.092 1.226-.319 1.668-.672a.75.75 0 1 0-.937-1.172c-.183.147-.517.295-.95.36a2.8 2.8 0 0 1-1.308-.108a2.03 2.03 0 0 1-1.048-.79c-.27-.399-.476-.994-.476-1.876s.206-1.477.476-1.876c.27-.397.637-.648 1.049-.79c.419-.143.882-.17 1.306-.108c.434.064.768.213.95.36a.75.75 0 0 0 .938-1.172M2 8.25A4.25 4.25 0 0 1 6.25 4h15.5A4.25 4.25 0 0 1 26 8.25v11.5A4.25 4.25 0 0 1 21.75 24H6.25A4.25 4.25 0 0 1 2 19.75zM6.25 5.5A2.75 2.75 0 0 0 3.5 8.25v11.5a2.75 2.75 0 0 0 2.75 2.75h15.5a2.75 2.75 0 0 0 2.75-2.75V8.25a2.75 2.75 0 0 0-2.75-2.75z"/></svg>