<svg xmlns="http://www.w3.org/2000/svg" xmlns:xlink="http://www.w3.org/1999/xlink" width="16" height="16" viewBox="0 0 16 16"><path fill="currentColor" d="M3.5 3A2.5 2.5 0 0 0 1 5.5v5A2.5 2.5 0 0 0 3.5 13h9a2.5 2.5 0 0 0 2.5-2.5v-5A2.5 2.5 0 0 0 12.5 3zm5.676 2.703a1.8 1.8 0 0 1 2.078.343a.5.5 0 0 1-.708.708a.795.795 0 0 0-.922-.157C9.337 6.741 9 7.135 9 8s.337 1.26.624 1.403a.795.795 0 0 0 .922-.157a.5.5 0 0 1 .708.708c-.55.55-1.382.691-2.078.343C8.463 9.941 8 9.135 8 8s.463-1.94 1.176-2.297m-1.922.343a.5.5 0 0 1-.708.708a.8.8 0 0 0-.922-.157C5.337 6.741 5 7.135 5 8s.337 1.26.624 1.403a.8.8 0 0 0 .922-.157a.5.5 0 1 1 .708.708c-.55.55-1.382.691-2.078.343C4.463 9.941 4 9.135 4 8s.463-1.94 1.176-2.297a1.795 1.795 0 0 1 2.078.343"/></svg>