<svg xmlns="http://www.w3.org/2000/svg" xmlns:xlink="http://www.w3.org/1999/xlink" width="24" height="24" viewBox="0 0 24 24"><g fill="none"><path d="M4.281 4.225l14.496 14.496a.75.75 0 1 1-1.06 1.06l-3.786-3.785H6.693a3.687 3.687 0 0 1-3.692-3.682a3.687 3.687 0 0 1 3.568-3.68L3.22 5.285a.75.75 0 1 1 1.06-1.06zm7.72-.224c3.168 0 4.965 2.097 5.227 4.63h.08A3.687 3.687 0 0 1 21 12.314a3.686 3.686 0 0 1-2.91 3.6l-1.416-1.416h.578c1.26 0 2.283-1 2.283-2.236c0-1.235-1.022-2.236-2.283-2.236h-.69c-.366 0-.685-.28-.685-.638c0-2.285-1.805-3.89-3.877-3.89c-1.16 0-2.238.514-2.96 1.362L7.931 5.752c.884-1.066 2.25-1.751 4.068-1.751zm.432 10.497L7.838 9.904a.714.714 0 0 1-.398.122h-.691c-1.261 0-2.283 1.001-2.283 2.236c0 1.235 1.022 2.237 2.283 2.237l5.684-.001z" fill="currentColor"/></g></svg>