<svg xmlns="http://www.w3.org/2000/svg" xmlns:xlink="http://www.w3.org/1999/xlink" width="32" height="32" viewBox="0 0 32 32"><path fill="currentColor" d="M11.399 7.008C10.439 8.182 10 9.7 10 11a1 1 0 0 1-1 1c-3.624 0-5 2.528-5 4c0 .855.216 1.835.878 2.592C5.515 19.32 6.708 20 9 20h4.852c-.185.64-.3 1.31-.338 2H9c-2.707 0-4.515-.82-5.628-2.091C2.284 18.665 2 17.145 2 16c0-2.356 1.93-5.53 6.057-5.953c.172-1.456.74-3.016 1.794-4.305C11.166 4.134 13.201 3 16 3c1.7 0 3.682.562 5.258 1.851c1.421 1.163 2.473 2.887 2.697 5.206c1.378.165 2.714.683 3.781 1.508C29.063 12.589 30 14.114 30 16q.001.696-.124 1.342a9 9 0 0 0-1.942-2.017c-.173-.868-.681-1.607-1.42-2.177C25.577 12.424 24.296 12 23 12a1 1 0 0 1-1-1c0-2.2-.866-3.666-2.008-4.601C18.818 5.439 17.3 5 16 5c-2.2 0-3.666.866-4.601 2.008M30 22.5a7.5 7.5 0 1 0-15 0a7.5 7.5 0 0 0 15 0m-3.75-4.75a.75.75 0 0 1 .75.75V21a.75.75 0 0 1-.75.75h-2.5a.75.75 0 0 1 0-1.5h.734a3 3 0 0 0-1.984-.75c-.973 0-1.837.463-2.385 1.18a.77.77 0 0 1-.6.32c-.614 0-1.036-.613-.679-1.114A4.5 4.5 0 0 1 22.5 18c1.152 0 2.204.433 3 1.146V18.5a.75.75 0 0 1 .75-.75m-6.75 8.104v.396a.75.75 0 0 1-1.5 0v-2.5a.75.75 0 0 1 .75-.75h2.5a.75.75 0 0 1 0 1.5h-.986a2.998 2.998 0 0 0 4.621-.18c.144-.19.36-.32.599-.32c.615 0 1.037.613.68 1.114A4.5 4.5 0 0 1 22.5 27a4.48 4.48 0 0 1-3-1.146"/></svg>