<svg xmlns="http://www.w3.org/2000/svg" xmlns:xlink="http://www.w3.org/1999/xlink" width="24" height="24" viewBox="0 0 24 24"><path fill="currentColor" d="M6.08 9.02A6.001 6.001 0 0 1 17.917 9c-.355.012-.709.1-1.035.263l-3.5 1.75A2.5 2.5 0 0 0 12 13.25v4.503q0 .124.012.247H6.5a4.5 4.5 0 0 1-.42-8.98m16.09 2.888l-3.5-1.75a1.5 1.5 0 0 0-1.34 0l-3.5 1.75A1.5 1.5 0 0 0 13 13.25v4.503a1.5 1.5 0 0 0 .83 1.342l3.5 1.75a1.5 1.5 0 0 0 1.34 0l3.5-1.75a1.5 1.5 0 0 0 .83-1.342V13.25a1.5 1.5 0 0 0-.83-1.342m-7.617 1.368a.5.5 0 0 1 .67-.223L18 14.44l2.776-1.388a.5.5 0 1 1 .448.894L18.5 15.31v3.19a.5.5 0 1 1-1 0v-3.19l-2.724-1.363a.5.5 0 0 1-.223-.67"/></svg>