<svg xmlns="http://www.w3.org/2000/svg" xmlns:xlink="http://www.w3.org/1999/xlink" width="16" height="16" viewBox="0 0 16 16"><path fill="currentColor" d="M8 3a3 3 0 0 0-3 3a.5.5 0 0 1-.5.5h-.25a2.25 2.25 0 0 0 0 4.5h.785c.051.353.154.69.302 1H4.25a3.25 3.25 0 0 1-.22-6.493a4 4 0 0 1 7.94 0a3.25 3.25 0 0 1 2.932 2.447a3.5 3.5 0 0 0-1.64-.871c-.4-.362-.93-.583-1.512-.583h-.25A.5.5 0 0 1 11 6a3 3 0 0 0-3-3m.5 5a2.5 2.5 0 0 0 0 5H9a.5.5 0 0 0 0-1h-.5a1.5 1.5 0 0 1 0-3H9a.5.5 0 0 0 0-1zM12 8a.5.5 0 0 0 0 1h.5a1.5 1.5 0 0 1 0 3H12a.5.5 0 0 0 0 1h.5a2.5 2.5 0 0 0 0-5zm-4 2.5a.5.5 0 0 1 .5-.5h4a.5.5 0 0 1 0 1h-4a.5.5 0 0 1-.5-.5"/></svg>