<svg xmlns="http://www.w3.org/2000/svg" xmlns:xlink="http://www.w3.org/1999/xlink" width="24" height="24" viewBox="0 0 24 24"><path fill="currentColor" d="M3 6.25A3.25 3.25 0 0 1 6.25 3h11.5A3.25 3.25 0 0 1 21 6.25v4.762a3.3 3.3 0 0 0-1.5.22V6.25a1.75 1.75 0 0 0-1.75-1.75H6.25A1.75 1.75 0 0 0 4.5 6.25v11.5c0 .966.784 1.75 1.75 1.75h5.292l-.02.077L11.166 21H6.25A3.25 3.25 0 0 1 3 17.75zm7.53 1.97a.75.75 0 0 1 0 1.06L7.81 12l2.72 2.72a.75.75 0 1 1-1.06 1.06l-3.25-3.25a.75.75 0 0 1 0-1.06l3.25-3.25a.75.75 0 0 1 1.06 0m2.94 0a.75.75 0 0 1 1.06 0l3.25 3.25a.75.75 0 0 1 0 1.06l-3.25 3.25a.75.75 0 1 1-1.06-1.06L16.19 12l-2.72-2.72a.75.75 0 0 1 0-1.06m5.63 4.45l-5.903 5.902a2.7 2.7 0 0 0-.706 1.247l-.458 1.831a1.087 1.087 0 0 0 1.319 1.318l1.83-.457a2.7 2.7 0 0 0 1.248-.707l5.902-5.902A2.286 2.286 0 0 0 19.1 12.67"/></svg>