<svg xmlns="http://www.w3.org/2000/svg" xmlns:xlink="http://www.w3.org/1999/xlink" width="16" height="16" viewBox="0 0 16 16"><path fill="currentColor" d="M9.25 6.51c0 .413.447.648 1.514 1.048c1.052.394 2.486.931 2.486 2.452v.002a2.5 2.5 0 0 1-.224 1.018a2.5 2.5 0 0 1-1.515 1.364c-.33.11-.687.15-1.035.115a2 2 0 0 1-.214.012a2.5 2.5 0 0 1-1.673-.65a2.52 2.52 0 0 1-.838-1.859c0-.202.078-.39.22-.532a.77.77 0 0 1 1.061 0c.142.141.22.33.22.53c0 .952 1.041 1 1.25 1s1.25-.048 1.25-1c0-.413-.447-.648-1.514-1.048c-1.052-.394-2.486-.93-2.486-2.452q.005-.537.224-1.02c.144-.32.351-.605.614-.84a2.5 2.5 0 0 1 .901-.523a2.6 2.6 0 0 1 1.035-.116a2.4 2.4 0 0 1 .987.116a2.54 2.54 0 0 1 1.738 2.381c0 .202-.078.39-.22.532a.77.77 0 0 1-1.061 0a.74.74 0 0 1-.22-.53c0-.952-1.041-1-1.25-1s-1.25.048-1.25 1m-7-2.5h4.5a.749.749 0 0 1 .53 1.28a.74.74 0 0 1-.53.22h-1.5v6.25a.749.749 0 0 1-1.28.53a.74.74 0 0 1-.22-.53V5.51h-1.5a.749.749 0 0 1-.53-1.28a.74.74 0 0 1 .53-.22"/></svg>