<svg xmlns="http://www.w3.org/2000/svg" xmlns:xlink="http://www.w3.org/1999/xlink" width="32" height="32" viewBox="0 0 32 32"><path fill="currentColor" d="M10.19 5.59C8.74 6.555 8 7.781 8 9s.74 2.444 2.19 3.41C11.635 13.374 13.686 14 16 14s4.366-.627 5.81-1.59C23.26 11.445 24 10.22 24 9c0-1.218-.74-2.444-2.19-3.41C20.365 4.626 18.314 4 16 4s-4.366.627-5.81 1.59M9.082 3.924C10.896 2.715 13.345 2 16 2s5.104.716 6.919 1.925C24.726 5.13 26 6.905 26 9s-1.274 3.87-3.081 5.075C21.104 15.285 18.655 16 16 16s-5.104-.716-6.919-1.925C7.274 12.87 6 11.095 6 9s1.274-3.87 3.081-5.075M8 23q0-.39.1-.778a9.7 9.7 0 0 1-1.616-1.399A5.2 5.2 0 0 0 6 23c0 2.095 1.274 3.87 3.081 5.075C10.896 29.285 13.345 30 16 30s5.104-.716 6.919-1.925C24.726 26.87 26 25.095 26 23a5.2 5.2 0 0 0-.483-2.177a9.7 9.7 0 0 1-1.618 1.399q.1.387.101.778c0 1.218-.74 2.444-2.19 3.41C20.365 27.373 18.314 28 16 28s-4.366-.628-5.81-1.59C8.74 25.444 8 24.219 8 23m.1-7.778Q8 15.61 8 16c0 1.218.74 2.444 2.19 3.41C11.635 20.373 13.686 21 16 21s4.366-.628 5.81-1.59C23.26 18.444 24 17.219 24 16q0-.39-.1-.778a9.7 9.7 0 0 0 1.617-1.399c.31.674.483 1.403.483 2.177c0 2.095-1.274 3.87-3.081 5.075C21.104 22.285 18.655 23 16 23s-5.104-.716-6.919-1.925C7.274 19.87 6 18.095 6 16c0-.774.174-1.503.484-2.177A9.7 9.7 0 0 0 8.1 15.222"/></svg>