<svg xmlns="http://www.w3.org/2000/svg" xmlns:xlink="http://www.w3.org/1999/xlink" width="24" height="24" viewBox="0 0 24 24"><path fill="currentColor" d="M3.839 5.858c2.94-3.916 9.03-5.055 13.364-2.36c4.28 2.66 5.854 7.777 4.1 12.577c-1.655 4.533-6.016 6.328-9.159 4.048c-1.177-.854-1.634-1.925-1.854-3.664l-.106-.987l-.045-.398c-.123-.934-.311-1.352-.705-1.572c-.535-.298-.892-.305-1.595-.033l-.351.146l-.179.078c-1.014.44-1.688.595-2.541.416l-.2-.047l-.164-.047c-2.789-.864-3.202-4.647-.565-8.157m12.928 4.722a1.25 1.25 0 1 0 2.415-.647a1.25 1.25 0 0 0-2.415.647m.495 3.488a1.25 1.25 0 1 0 2.414-.647a1.25 1.25 0 0 0-2.414.647m-2.474-6.491a1.25 1.25 0 1 0 2.415-.647a1.25 1.25 0 0 0-2.415.647m-.028 8.998a1.25 1.25 0 1 0 2.415-.647a1.25 1.25 0 0 0-2.415.647m-3.497-9.97a1.25 1.25 0 1 0 2.415-.646a1.25 1.25 0 0 0-2.415.646"/></svg>