<svg xmlns="http://www.w3.org/2000/svg" xmlns:xlink="http://www.w3.org/1999/xlink" width="24" height="24" viewBox="0 0 24 24"><path fill="currentColor" d="M11.342 12.994c-.188.409-.342.888-.342 1.381c0 .735.287 1.426.775 1.914A2.4 2.4 0 0 0 13.5 17c1.471 0 2.5-1.234 2.5-2.625c0-.493-.154-.972-.342-1.381a7 7 0 0 0-.674-1.134c-.237-.33-.473-.613-.649-.812l-.305-.328l-.002-.002a.75.75 0 0 0-1.059.002l-.005.005c-.058.062-.214.226-.3.323c-.175.199-.411.48-.649.812a7 7 0 0 0-.673 1.134m2.423-.26c.202.281.392.586.53.886c.14.305.205.56.205.755c0 .691-.481 1.125-1 1.125c-.25 0-.492-.1-.675-.283c-.196-.195-.325-.484-.325-.842c0-.194.065-.45.205-.755c.137-.3.328-.605.53-.885q.135-.189.265-.35q.13.16.265.35M6.75 1a.75.75 0 0 0-.75.75v1.756l-.093.087l-4.243 4.243a2 2 0 0 0 0 2.828L5.199 14.2a2 2 0 0 0 2.829 0l4.243-4.243a2 2 0 0 0 0-2.828L8.735 3.593A2 2 0 0 0 7.5 3.015V1.75A.75.75 0 0 0 6.75 1M6 5.621v.629a.75.75 0 1 0 1.5 0V4.54a.5.5 0 0 1 .174.114l3.536 3.535a.5.5 0 0 1 .144.311H3.121zm.26 7.518l-3.128-3.128h6.964l-3.129 3.128a.5.5 0 0 1-.707 0M2 17.5v-5.088l1.5 1.5V17.5a1 1 0 0 0 1 1h15a1 1 0 0 0 1-1v-11a1 1 0 0 0-1-1h-7.441l-1.5-1.5H19.5A2.5 2.5 0 0 1 22 6.5v11a2.5 2.5 0 0 1-2.5 2.5h-15A2.5 2.5 0 0 1 2 17.5"/></svg>