<svg xmlns="http://www.w3.org/2000/svg" xmlns:xlink="http://www.w3.org/1999/xlink" width="16" height="16" viewBox="0 0 16 16"><path fill="currentColor" d="M8 2.5a.5.5 0 0 0-1 0v1a1.5 1.5 0 0 0-.561.354L3.853 6.439a1.5 1.5 0 0 0 0 2.122l2.086 2.085a1.5 1.5 0 0 0 2.122 0l2.585-2.585a1.5 1.5 0 0 0 0-2.122L8.56 3.854A1.5 1.5 0 0 0 8 3.5zM7 4.707V5.5a.5.5 0 1 0 1 0v-.793l1.939 1.94c.1.099.148.23.146.36L10 7H4.707zM4.707 8h4.586l-1.94 1.94a.5.5 0 0 1-.707 0zm4.061 3.354a2.5 2.5 0 0 1-3.536 0L3.147 9.268l-.051-.052A2 2 0 0 0 2 11v1a2 2 0 0 0 2 2h8a2 2 0 0 0 1.977-1.697a2.5 2.5 0 0 1-3.97-2.19zM12.5 8a.5.5 0 0 0-.388.185l-.002.002l-.002.003l-.01.012l-.034.043a10 10 0 0 0-.48.665c-.132.198-.27.424-.378.646c-.098.203-.206.47-.206.73a1.5 1.5 0 0 0 3 0c0-.26-.108-.527-.206-.73a6 6 0 0 0-.377-.646a10 10 0 0 0-.48-.665l-.035-.043l-.01-.012l-.002-.003l-.002-.002A.5.5 0 0 0 12.5 8m0 1.339l.083.123c.119.18.23.365.31.53q.06.123.087.209c.018.056.02.082.02.085a.5.5 0 1 1-1 0c0-.003.002-.029.02-.085q.026-.085.086-.21a5 5 0 0 1 .394-.652"/></svg>