<svg xmlns="http://www.w3.org/2000/svg" xmlns:xlink="http://www.w3.org/1999/xlink" width="20" height="20" viewBox="0 0 20 20"><path fill="currentColor" d="M12 12c0 1.354.934 3 2.75 3c1.549 0 2.456-1.197 2.69-2.389A2 2 0 0 1 18 14v2a2 2 0 0 1-2 2H4a2 2 0 0 1-2-2v-2a2 2 0 0 1 2-2h.336l1.45 1.45a3 3 0 0 0 4.242 0l1.45-1.45zm2.377-2.833l-.003.004c-.04.048-.151.178-.212.255c-.124.158-.29.38-.458.642C13.386 10.564 13 11.295 13 12c0 1.009.672 2 1.75 2s1.75-.991 1.75-2c0-.705-.386-1.436-.704-1.932a8 8 0 0 0-.458-.642c-.055-.07-.158-.191-.208-.25l-.017-.02A.47.47 0 0 0 14.75 9a.5.5 0 0 0-.373.167m.373 1.14q.1.137.204.3c.306.478.546.998.546 1.393c0 .293-.1.566-.248.749a.62.62 0 0 1-.502.251a.62.62 0 0 1-.502-.251A1.2 1.2 0 0 1 14 12c0-.396.24-.915.546-1.393q.106-.162.204-.3M8.5 1a.5.5 0 0 0-.5.5v1.56a2 2 0 0 0-.8.49L3.664 7.086a2 2 0 0 0 0 2.828l2.829 2.829a2 2 0 0 0 2.828 0l3.536-3.536a2 2 0 0 0 0-2.828L10.028 3.55A2 2 0 0 0 9 3.002V1.5a.5.5 0 0 0-.5-.5M8 4.175V5.5a.5.5 0 0 0 1 0V4.042q.177.072.321.215l2.829 2.829c.12.12.202.262.249.414H4.664l3.243-3.243q.044-.045.093-.082M4.371 9.207a1 1 0 0 1-.293-.707h8.071l-3.535 3.536a1 1 0 0 1-1.414 0zm10.005-.04h.001Z"/></svg>