<svg xmlns="http://www.w3.org/2000/svg" xmlns:xlink="http://www.w3.org/1999/xlink" width="24" height="24" viewBox="0 0 24 24"><path fill="currentColor" d="M2 18.5A2.5 2.5 0 0 0 4.5 21h1A2.5 2.5 0 0 0 8 18.5v-13A2.5 2.5 0 0 0 5.5 3h-1A2.5 2.5 0 0 0 2 5.5v13Zm7 0a2.5 2.5 0 0 0 2.17 2.479l.35-1.402c.163-.648.498-1.24.97-1.712l2.51-2.51V5.5A2.5 2.5 0 0 0 12.5 3h-1A2.5 2.5 0 0 0 9 5.5v13ZM19.5 21h-.852L22 17.648v.852a2.5 2.5 0 0 1-2.5 2.5ZM22 5.5v5.76a3.287 3.287 0 0 0-3.607.702L16 14.355V5.5A2.5 2.5 0 0 1 18.5 3h1A2.5 2.5 0 0 1 22 5.5Zm-2.9 7.17l-5.903 5.902a2.686 2.686 0 0 0-.706 1.247l-.458 1.831a1.087 1.087 0 0 0 1.319 1.318l1.83-.457a2.685 2.685 0 0 0 1.248-.707l5.902-5.902A2.286 2.286 0 0 0 19.1 12.67Z"/></svg>