<svg xmlns="http://www.w3.org/2000/svg" xmlns:xlink="http://www.w3.org/1999/xlink" width="20" height="20" viewBox="0 0 20 20"><path fill="currentColor" d="M13 4a2 2 0 1 0-1.137 1.805a7.7 7.7 0 0 1-.51 1.779c-.408.955-.995 1.757-1.727 2.585a.5.5 0 0 0 .749.662c.767-.868 1.43-1.761 1.897-2.855C12.74 6.88 13 5.611 13 4m5 4.79v3.486c0 1.418-1.164 2.566-2.6 2.566h-4.59l-4.011 2.961a1.01 1.01 0 0 1-1.4-.199a.98.98 0 0 1-.199-.59v-2.172h-.6c-1.436 0-2.6-1.149-2.6-2.566v-6.71C2 4.149 3.164 3 4.6 3h3.57c-.11.313-.17.65-.17 1H4.6C3.704 4 3 4.713 3 5.566v6.71c0 .853.704 1.566 1.6 1.566h1.6V17h.003l.002-.001l4.276-3.157H15.4c.896 0 1.6-.713 1.6-1.566V10.42c.37-.5.71-1.037 1-1.63M16 2a2 2 0 0 1 2 2c0 1.61-.26 2.88-.728 3.976c-.467 1.094-1.13 1.987-1.897 2.855a.5.5 0 0 1-.75-.662c.733-.828 1.32-1.63 1.728-2.585c.225-.528.4-1.11.51-1.78A2 2 0 1 1 16 2"/></svg>