<svg xmlns="http://www.w3.org/2000/svg" xmlns:xlink="http://www.w3.org/1999/xlink" width="20" height="20" viewBox="0 0 20 20"><path fill="currentColor" d="M10 3a7 7 0 0 0-4.952 11.948a.5.5 0 0 1-.707.707A8 8 0 1 1 17.985 9.5a4.5 4.5 0 0 1-1.097-.753A7 7 0 0 0 10 3m1 8.194c0-.683.448-1.194.99-1.394a2 2 0 1 0-.99 1.932zm3.395-2.725q.131-.137.285-.233A5.002 5.002 0 0 0 5 10c0 1.378.558 2.627 1.46 3.531a.5.5 0 0 0 .708-.706a4 4 0 1 1 6.695-3.865c.204-.164.384-.335.532-.491M9 10a1 1 0 1 1 2 0a1 1 0 0 1-2 0m6.88-.84c.508.532 1.484 1.379 2.684 1.552a.5.5 0 0 1 .436.482v2.323c0 3.122-2.784 4.255-3.386 4.463a.34.34 0 0 1-.228 0C14.785 17.772 12 16.64 12 13.517v-2.323a.5.5 0 0 1 .436-.482c1.2-.173 2.175-1.02 2.683-1.553a.535.535 0 0 1 .762 0"/></svg>