<svg xmlns="http://www.w3.org/2000/svg" xmlns:xlink="http://www.w3.org/1999/xlink" width="24" height="24" viewBox="0 0 24 24"><path fill="currentColor" d="M2 14.75A3.25 3.25 0 0 0 5.25 18H6v2.75a1.25 1.25 0 0 0 1.999 1L13.013 18h5.737A3.25 3.25 0 0 0 22 14.75v-8.5A3.25 3.25 0 0 0 18.75 3H5.25A3.25 3.25 0 0 0 2 6.25zm16.75 1.75h-6.236L7.5 20.25l-.001-3.75H5.25a1.75 1.75 0 0 1-1.75-1.75v-8.5c0-.966.784-1.75 1.75-1.75h13.5c.966 0 1.75.784 1.75 1.75v8.5a1.75 1.75 0 0 1-1.75 1.75m-7.5-4.5h7a.75.75 0 0 0 0-1.5h-7a.75.75 0 0 0 0 1.5m-3-1.5h-2.5a.75.75 0 0 0 0 1.5h2.5a.75.75 0 0 0 0-1.5m-2.5 3a.75.75 0 0 0 0 1.5h7a.75.75 0 0 0 0-1.5zm10 1.5a.75.75 0 0 1 0-1.5h2.5a.75.75 0 0 1 0 1.5z"/></svg>