<svg xmlns="http://www.w3.org/2000/svg" xmlns:xlink="http://www.w3.org/1999/xlink" width="28" height="28" viewBox="0 0 28 28"><path fill="currentColor" d="M5.007 5.007Q5.127 5 5.25 5h14.5A4.25 4.25 0 0 1 24 9.25v4.615a7.5 7.5 0 0 1 1.5 1.045V9.25a5.75 5.75 0 0 0-5.75-5.75h-12a3.25 3.25 0 0 0-2.743 1.507M23 9.25v4.177A7.5 7.5 0 0 0 13.15 22h-.11L8 25.75c-.22.17-.48.25-.74.25h-.01c-.19 0-.38-.04-.56-.13c-.43-.21-.69-.64-.69-1.12V22h-.75C3.46 22 2 20.54 2 18.75v-9.5C2 7.46 3.46 6 5.25 6h14.5C21.54 6 23 7.46 23 9.25m4 11.25a6.5 6.5 0 1 1-13 0a6.5 6.5 0 0 1 13 0m-2.646-2.854a.5.5 0 0 0-.708 0L19 22.293l-1.646-1.647a.5.5 0 0 0-.708.708l2 2a.5.5 0 0 0 .708 0l5-5a.5.5 0 0 0 0-.708"/></svg>