<svg xmlns="http://www.w3.org/2000/svg" xmlns:xlink="http://www.w3.org/1999/xlink" width="24" height="24" viewBox="0 0 24 24"><path d="M12.022 3a6.47 6.47 0 0 0-.709 1.5H5.25A1.75 1.75 0 0 0 3.5 6.25v8.5c0 .966.784 1.75 1.75 1.75h2.249v3.75l5.015-3.75h6.236a1.75 1.75 0 0 0 1.75-1.75l.001-2.483a6.518 6.518 0 0 0 1.5-1.077L22 14.75A3.25 3.25 0 0 1 18.75 18h-5.738L8 21.75a1.25 1.25 0 0 1-1.999-1V18h-.75A3.25 3.25 0 0 1 2 14.75v-8.5A3.25 3.25 0 0 1 5.25 3h6.772zM17.5 1a5.5 5.5 0 1 1 0 11a5.5 5.5 0 0 1 0-11zm-2.784 2.589l-.07.057l-.057.07a.5.5 0 0 0 0 .568l.057.07L16.793 6.5l-2.147 2.146l-.057.07a.5.5 0 0 0 0 .568l.057.07l.07.057a.5.5 0 0 0 .568 0l.07-.057L17.5 7.207l2.146 2.147l.07.057a.5.5 0 0 0 .568 0l.07-.057l.057-.07a.5.5 0 0 0 0-.568l-.057-.07L18.207 6.5l2.147-2.146l.057-.07a.5.5 0 0 0 0-.568l-.057-.07l-.07-.057a.5.5 0 0 0-.568 0l-.07.057L17.5 5.793l-2.146-2.147l-.07-.057a.5.5 0 0 0-.492-.044l-.076.044z" fill="currentColor" fill-rule="nonzero"/></svg>