<svg xmlns="http://www.w3.org/2000/svg" xmlns:xlink="http://www.w3.org/1999/xlink" width="16" height="16" viewBox="0 0 16 16"><path fill="currentColor" d="M10 2.75A1.75 1.75 0 0 0 9.832 2a1.75 1.75 0 0 0-3.315.995V3a1.75 1.75 0 0 0 2.405 1.366a7.2 7.2 0 0 1-.332 1.565c-.284.822-.737 1.509-1.444 2.215a.5.5 0 1 0 .708.708c.793-.794 1.34-1.607 1.681-2.597c.318-.922.449-1.971.464-3.257v-.166zm4.535 3.507a8 8 0 0 0 .383-1.798q.022-.208.039-.424Q15 3.433 15 2.75a1.75 1.75 0 1 0-1.078 1.616a7.2 7.2 0 0 1-.332 1.565c-.284.822-.737 1.509-1.444 2.215a.5.5 0 0 0 .708.708A7.4 7.4 0 0 0 14 7.41a6 6 0 0 0 .535-1.154M15 7.676V9.5a2.5 2.5 0 0 1-2.5 2.5H8.688l-3.063 2.68A.98.98 0 0 1 4 13.942V12h-.5A2.5 2.5 0 0 1 1 9.5v-5A2.5 2.5 0 0 1 3.5 2h2.104a2.8 2.8 0 0 0-.093 1H3.5A1.5 1.5 0 0 0 2 4.5v5A1.5 1.5 0 0 0 3.5 11H5v2.898L8.312 11H12.5A1.5 1.5 0 0 0 14 9.5v-.407a7.7 7.7 0 0 0 1-1.417"/></svg>