<svg xmlns="http://www.w3.org/2000/svg" xmlns:xlink="http://www.w3.org/1999/xlink" width="32" height="32" viewBox="0 0 32 32"><path fill="currentColor" d="M23 16.5a7.5 7.5 0 1 0 0-15a7.5 7.5 0 0 0 0 15m1-12.25V8h3.75a.75.75 0 0 1 0 1.5H24v3.75a.75.75 0 0 1-1.5 0V9.5h-3.75a.75.75 0 0 1 0-1.5h3.75V4.25a.75.75 0 0 1 1.5 0m6 15.25v-4.843q-.459.567-1 1.051V19.5a3.5 3.5 0 0 1-3.5 3.5h-7.8a.5.5 0 0 0-.323.119l-6.763 5.733A.98.98 0 0 1 9 28.105V23.5a.5.5 0 0 0-.5-.5h-2A3.5 3.5 0 0 1 3 19.5v-12A3.5 3.5 0 0 1 6.5 4h9.016q.353-.528.776-1H6.5A4.5 4.5 0 0 0 2 7.5v12A4.5 4.5 0 0 0 6.5 24H8v4.105c0 1.686 1.974 2.6 3.26 1.51L17.883 24H25.5a4.5 4.5 0 0 0 4.5-4.5"/></svg>