<svg xmlns="http://www.w3.org/2000/svg" xmlns:xlink="http://www.w3.org/1999/xlink" width="16" height="16" viewBox="0 0 16 16"><path fill="currentColor" d="M10 2.75A1.75 1.75 0 0 0 9.832 2a1.75 1.75 0 1 0-1.935 2.464l.006.002a1.76 1.76 0 0 0 1.02-.1a8 8 0 0 1-.192 1.092a6 6 0 0 1-.141.473c-.284.822-.737 1.509-1.444 2.215a.5.5 0 1 0 .708.708c.793-.794 1.34-1.607 1.681-2.597c.17-.49.285-1.017.36-1.596v-.002l.023-.2c.053-.487.078-1.01.082-1.578zm4.535 3.507a8 8 0 0 0 .383-1.798q.022-.208.039-.424Q15 3.433 15 2.75a1.75 1.75 0 1 0-1.078 1.616a8 8 0 0 1-.191 1.092a6 6 0 0 1-.141.473c-.284.822-.737 1.509-1.444 2.215a.5.5 0 0 0 .708.708c.793-.794 1.34-1.607 1.681-2.597m-3.592-2.01a2.75 2.75 0 0 0 1.754 1.197l-.053.16c-.225.655-.585 1.216-1.205 1.835a1.5 1.5 0 0 0 2.122 2.122c.586-.587 1.066-1.2 1.439-1.885V9.5a2.5 2.5 0 0 1-2.5 2.5H8.688l-3.063 2.68A.98.98 0 0 1 4 13.942V12h-.5A2.5 2.5 0 0 1 1 9.5v-5A2.5 2.5 0 0 1 3.5 2h2.104a2.75 2.75 0 0 0 2.093 3.444l-.053.16C7.42 6.26 7.06 6.82 6.44 7.44a1.5 1.5 0 1 0 2.122 2.122c.88-.88 1.52-1.82 1.92-2.978c.248-.722.391-1.493.462-2.335"/></svg>