<svg xmlns="http://www.w3.org/2000/svg" xmlns:xlink="http://www.w3.org/1999/xlink" width="16" height="16" viewBox="0 0 16 16"><path fill="currentColor" d="M8 2a6 6 0 0 0-4.246 10.239a.5.5 0 1 1-.708.706a7 7 0 1 1 11.936-5.447a4.5 4.5 0 0 1-1.118-.773A6 6 0 0 0 8 2m0 4a2 2 0 0 1 1.945 1.531c-.21.091-.428.16-.652.192a1.5 1.5 0 0 0-.312.08A1 1 0 1 0 8 9h.012A2 2 0 0 0 8 9.194V10a2 2 0 0 1 0-4m3.395.47c.19-.2.42-.335.668-.407a4.5 4.5 0 1 0-7.245 5.119a.5.5 0 0 0 .707-.707a3.5 3.5 0 1 1 5.7-3.835a6 6 0 0 0 .17-.171m1.486.69c.508.532 1.483 1.379 2.683 1.552a.5.5 0 0 1 .436.482v2.323c0 3.122-2.784 4.255-3.386 4.463a.34.34 0 0 1-.228 0C11.785 15.772 9 14.64 9 11.517V9.194a.5.5 0 0 1 .436-.482c1.2-.173 2.175-1.02 2.683-1.553a.535.535 0 0 1 .762 0"/></svg>