<svg xmlns="http://www.w3.org/2000/svg" xmlns:xlink="http://www.w3.org/1999/xlink" width="20" height="20" viewBox="0 0 20 20"><path fill="currentColor" d="M12 8.5a.5.5 0 0 1 .5-.5h3a.5.5 0 0 1 0 1h-3a.5.5 0 0 1-.5-.5m0 3a.5.5 0 0 1 .5-.5h3a.5.5 0 0 1 0 1h-3a.5.5 0 0 1-.5-.5m-8-.75a.75.75 0 0 1 .75-.75h3a.75.75 0 0 1 .75.75v.75q.001.001-.004.065a1.44 1.44 0 0 1-.496.92c-.325.282-.863.515-1.75.515C4 13 4 11.5 4 11.5zM6.25 9a1.25 1.25 0 1 0 0-2.5a1.25 1.25 0 0 0 0 2.5m4.25-1a1 1 0 1 1-2 0a1 1 0 0 1 2 0m-1.065 3.977a2.5 2.5 0 0 1-.197.523H9.5A1.5 1.5 0 0 0 11 11a1 1 0 0 0-1-1h-.668c.108.227.168.482.168.75v.788l-.002.029l-.008.104c-.009.08-.025.185-.055.306M4.5 4A2.5 2.5 0 0 0 2 6.5v7A2.5 2.5 0 0 0 4.5 16h11a2.5 2.5 0 0 0 2.5-2.5v-7A2.5 2.5 0 0 0 15.5 4zM3 6.5A1.5 1.5 0 0 1 4.5 5h11A1.5 1.5 0 0 1 17 6.5v7a1.5 1.5 0 0 1-1.5 1.5h-11A1.5 1.5 0 0 1 3 13.5z"/></svg>