<svg xmlns="http://www.w3.org/2000/svg" xmlns:xlink="http://www.w3.org/1999/xlink" width="28" height="28" viewBox="0 0 28 28"><path fill="currentColor" d="M3 6.75A3.75 3.75 0 0 1 6.75 3h14.5A3.75 3.75 0 0 1 25 6.75v14.5A3.75 3.75 0 0 1 21.25 25H6.75A3.75 3.75 0 0 1 3 21.25zM6.75 4.5A2.25 2.25 0 0 0 4.5 6.75v14.5a2.25 2.25 0 0 0 2.25 2.25H16v-19zm14.5 19a2.25 2.25 0 0 0 2.25-2.25V18.5h-6v5zM23.5 17v-6h-6v6zm0-7.5V6.75a2.25 2.25 0 0 0-2.25-2.25H17.5v5zm-15.75-2c-.69 0-1.25.56-1.25 1.25v3.5c0 .69.56 1.25 1.25 1.25h5c.69 0 1.25-.56 1.25-1.25v-3.5c0-.69-.56-1.25-1.25-1.25zM8 12V9h4.5v3zm-1.5 4.25a.75.75 0 0 1 .75-.75h6a.75.75 0 0 1 0 1.5h-6a.75.75 0 0 1-.75-.75M7.25 19a.75.75 0 0 0 0 1.5h6a.75.75 0 0 0 0-1.5z"/></svg>