<svg xmlns="http://www.w3.org/2000/svg" xmlns:xlink="http://www.w3.org/1999/xlink" width="20" height="20" viewBox="0 0 20 20"><path fill="currentColor" d="M5.5 3A2.5 2.5 0 0 0 3 5.5v9A2.5 2.5 0 0 0 5.5 17h4.1a5.5 5.5 0 0 1-.393-1H5.5A1.5 1.5 0 0 1 4 14.5V7h12v2.207q.524.149 1 .393V5.5A2.5 2.5 0 0 0 14.5 3zM4 5.5A1.5 1.5 0 0 1 5.5 4h9A1.5 1.5 0 0 1 16 5.5V6H4zm5 3v6a.5.5 0 0 1-.5.5h-3a.5.5 0 0 1-.5-.5v-6a.5.5 0 0 1 .5-.5h3a.5.5 0 0 1 .5.5M6 9v5h2V9zm3.998-.5a.5.5 0 0 1 .5-.5H14.5a.5.5 0 1 1 0 1h-4.002a.5.5 0 0 1-.5-.5m2.068 2.942a2 2 0 0 1-1.43 2.478l-.462.118a4.7 4.7 0 0 0 .01 1.016l.35.083a2 2 0 0 1 1.456 2.519l-.127.422q.388.307.835.518l.325-.344a2 2 0 0 1 2.91.002l.337.358q.44-.203.822-.498l-.156-.556a2 2 0 0 1 1.43-2.479l.46-.117a4.7 4.7 0 0 0-.01-1.017l-.348-.082a2 2 0 0 1-1.456-2.52l.126-.421a4.3 4.3 0 0 0-.835-.519l-.325.344a2 2 0 0 1-2.91-.001l-.337-.358a4.3 4.3 0 0 0-.822.497zM14.5 15.5a1 1 0 1 1 0-2a1 1 0 0 1 0 2"/></svg>