<svg xmlns="http://www.w3.org/2000/svg" xmlns:xlink="http://www.w3.org/1999/xlink" width="28" height="28" viewBox="0 0 28 28"><path fill="currentColor" d="M4.754 4a2.75 2.75 0 0 0-2.75 2.75v14.5A2.75 2.75 0 0 0 4.754 24H18v-2.337c-.63-.895-1-1.986-1-3.163c0-.706.133-1.38.375-2H15.75a.75.75 0 0 1 0-1.5h2.507a5.49 5.49 0 0 1 4.243-2c1.33 0 2.55.472 3.5 1.258V6.75A2.75 2.75 0 0 0 23.25 4zM15 11.75a.75.75 0 0 1 .75-.75h5.5a.75.75 0 0 1 0 1.5h-5.5a.75.75 0 0 1-.75-.75m-3.75 0a1.75 1.75 0 1 1-3.5 0a1.75 1.75 0 0 1 3.5 0M7 14.5h5a1 1 0 0 1 1 1v.5s-.5 2.5-3.5 2.5S6 16 6 16v-.5a1 1 0 0 1 1-1m19 1.172a4.48 4.48 0 0 1 1 2.828a4.48 4.48 0 0 1-1 2.83a4.5 4.5 0 1 1 0-5.658m-1.099 7.778a5.5 5.5 0 0 1-2.353.55h-.096q-.143 0-.285-.01A5.47 5.47 0 0 1 19 22.743v3.56a.7.7 0 0 0 1.131.55L22.5 25l2.369 1.854A.7.7 0 0 0 26 26.303v-3.56a5.5 5.5 0 0 1-1.099.707"/></svg>