<svg xmlns="http://www.w3.org/2000/svg" xmlns:xlink="http://www.w3.org/1999/xlink" width="24" height="24" viewBox="0 0 24 24"><path fill="currentColor" d="M5.25 3.5A1.75 1.75 0 0 0 3.5 5.25v3a.75.75 0 0 1-1.5 0v-3A3.25 3.25 0 0 1 5.25 2h3a.75.75 0 0 1 0 1.5zm0 17a1.75 1.75 0 0 1-1.75-1.75v-3a.75.75 0 0 0-1.5 0v3A3.25 3.25 0 0 0 5.25 22h3a.75.75 0 0 0 0-1.5zM20.5 5.25a1.75 1.75 0 0 0-1.75-1.75h-3a.75.75 0 0 1 0-1.5h3A3.25 3.25 0 0 1 22 5.25v3a.75.75 0 0 1-1.5 0zM18.75 20.5a1.75 1.75 0 0 0 1.75-1.75v-3a.75.75 0 0 1 1.5 0v3A3.25 3.25 0 0 1 18.75 22h-3a.75.75 0 0 1 0-1.5zm-.756-11.918A2.75 2.75 0 0 0 15.249 6h-6.5l-.168.005A2.75 2.75 0 0 0 6 8.75v6.5l.005.168A2.75 2.75 0 0 0 8.749 18h6.5l.167-.005A2.75 2.75 0 0 0 18 15.25v-6.5zM7.499 10.995h9v4.255l-.006.128a1.25 1.25 0 0 1-1.244 1.122h-6.5l-.128-.006A1.25 1.25 0 0 1 7.5 15.25zM8.749 7.5h6.5l.128.006a1.25 1.25 0 0 1 1.122 1.244v.745h-9V8.75l.006-.128A1.25 1.25 0 0 1 8.75 7.5"/></svg>