<svg xmlns="http://www.w3.org/2000/svg" xmlns:xlink="http://www.w3.org/1999/xlink" width="28" height="28" viewBox="0 0 28 28"><path fill="currentColor" d="M2 14C2 7.373 7.373 2 14 2c.747 0 1.48.068 2.19.2a.75.75 0 0 1 .384 1.277a3.502 3.502 0 0 0 1.397 5.869a.75.75 0 0 1 .53.706a3.5 3.5 0 0 0 6.124 2.263a.75.75 0 0 1 1.309.417Q26 13.358 26 14c0 6.627-5.373 12-12 12S2 20.627 2 14M14 3.5C8.201 3.5 3.5 8.201 3.5 14S8.201 24.5 14 24.5c5.687 0 10.319-4.522 10.495-10.166a5 5 0 0 1-7.46-3.735a5 5 0 0 1-2.377-7.079Q14.33 3.5 14 3.5M15.25 14a1.25 1.25 0 1 1-2.5 0a1.25 1.25 0 0 1 2.5 0M9 20.25a1.25 1.25 0 1 0 0-2.5a1.25 1.25 0 0 0 0 2.5M9.25 11a1.25 1.25 0 1 1-2.5 0a1.25 1.25 0 0 1 2.5 0M17 21.25a1.25 1.25 0 1 0 0-2.5a1.25 1.25 0 0 0 0 2.5"/></svg>