<svg xmlns="http://www.w3.org/2000/svg" xmlns:xlink="http://www.w3.org/1999/xlink" width="24" height="24" viewBox="0 0 24 24"><path d="M17.5 12a5.5 5.5 0 1 1 0 11a5.5 5.5 0 0 1 0-11zM5.503 4.627L5.5 6.75v10.504a3.25 3.25 0 0 0 3.25 3.25l2.985.001a6.519 6.519 0 0 0 1.08 1.5H8.75A4.75 4.75 0 0 1 4 17.254V6.75c0-.98.627-1.815 1.503-2.123zm12.781 9.962a.5.5 0 0 0-.568 0l-.07.057l-.057.07a.5.5 0 0 0 0 .568l.057.07l1.646 1.645l-4.798.001l-.09.008a.5.5 0 0 0-.402.402l-.008.09l.008.09a.5.5 0 0 0 .402.402l.09.008l4.8-.001l-1.648 1.647l-.057.07a.5.5 0 0 0 .695.695l.07-.057l2.53-2.533l.036-.05l.042-.08l.026-.083l.01-.064v-.088l-.01-.064l-.011-.043l-.033-.078l-.024-.042l-.037-.05l-2.53-2.533l-.069-.057zM17.75 2A2.25 2.25 0 0 1 20 4.25v7.248a6.5 6.5 0 0 0-8.687 8.002H8.75a2.25 2.25 0 0 1-2.25-2.25v-13A2.25 2.25 0 0 1 8.75 2h9z" fill="currentColor" fill-rule="nonzero"/></svg>