<svg xmlns="http://www.w3.org/2000/svg" xmlns:xlink="http://www.w3.org/1999/xlink" width="24" height="24" viewBox="0 0 24 24"><path d="M13.753 2c1.158 0 2.11.875 2.234 2h1.763a2.25 2.25 0 0 1 2.245 2.096L20 6.25v6a.75.75 0 0 1-1.493.102l-.007-.102v-6a.75.75 0 0 0-.648-.743L17.75 5.5h-2.132c-.403.6-1.088.993-1.865.993h-3.506A2.244 2.244 0 0 1 8.382 5.5H6.25a.75.75 0 0 0-.743.648L5.5 6.25v13.505c0 .38.282.693.648.743l.204.013a.75.75 0 0 1-.102 1.494a2.25 2.25 0 0 1-2.245-2.096L4 19.755V6.25a2.25 2.25 0 0 1 2.096-2.245L6.25 4h1.763a2.247 2.247 0 0 1 2.234-2h3.506zm3.497 12.5h1a3.75 3.75 0 0 1 .202 7.495l-.199.005l-1 .005a.75.75 0 0 1-.108-1.493l.102-.007l1.003-.005a2.25 2.25 0 0 0 .154-4.495L18.25 16h-1a.75.75 0 0 1-.102-1.493l.102-.007h1h-1zm-5 0h1a.75.75 0 0 1 .102 1.493L13.25 16h-1a2.25 2.25 0 0 0-.154 4.495l.154.005h1a.75.75 0 0 1 .102 1.493L13.25 22h-1a3.75 3.75 0 0 1-.2-7.495l.2-.005h1h-1zm0 3h6a.75.75 0 0 1 .102 1.493L18.25 19h-6a.75.75 0 0 1-.102-1.493l.102-.007h6h-6zm1.503-14h-3.506a.747.747 0 0 0 0 1.493h3.506a.747.747 0 1 0 0-1.493z" fill="currentColor" fill-rule="nonzero"/></svg>