<svg xmlns="http://www.w3.org/2000/svg" xmlns:xlink="http://www.w3.org/1999/xlink" width="24" height="24" viewBox="0 0 24 24"><path d="M13.753 2c1.158 0 2.11.875 2.234 2h1.763a2.25 2.25 0 0 1 2.245 2.096L20 6.25v1.497a.75.75 0 0 1-1.493.102l-.007-.102V6.25a.75.75 0 0 0-.648-.743L17.75 5.5h-2.132c-.403.6-1.088.993-1.865.993h-3.506A2.244 2.244 0 0 1 8.382 5.5H6.25a.75.75 0 0 0-.743.648L5.5 6.25v13.505c0 .38.282.693.648.743l.102.007h1.505a.75.75 0 0 1 .102 1.493l-.102.007H6.25a2.25 2.25 0 0 1-2.245-2.096L4 19.755V6.25a2.25 2.25 0 0 1 2.096-2.245L6.25 4h1.763a2.247 2.247 0 0 1 2.234-2h3.506zm2.683 15.511l.094.08l3.926 3.926A3.235 3.235 0 0 1 18.75 22h-5.5c-.626 0-1.21-.177-1.706-.483l3.926-3.926l.084-.073a.751.751 0 0 1 .78-.069l.102.062zM18.75 10A3.25 3.25 0 0 1 22 13.25v5.5c0 .626-.177 1.21-.483 1.706L17.59 16.53l-.13-.12a2.25 2.25 0 0 0-2.916-.005l-.136.125l-3.926 3.926A3.235 3.235 0 0 1 10 18.75v-5.5A3.25 3.25 0 0 1 13.25 10h5.5zm-.25 2.5a1 1 0 1 0 0 2a1 1 0 0 0 0-2zm-4.747-9h-3.506a.747.747 0 0 0 0 1.493h3.506a.747.747 0 1 0 0-1.493z" fill="currentColor" fill-rule="nonzero"/></svg>