<svg xmlns="http://www.w3.org/2000/svg" xmlns:xlink="http://www.w3.org/1999/xlink" width="24" height="24" viewBox="0 0 24 24"><path fill="currentColor" d="M3.28 2.22a.75.75 0 1 0-1.06 1.06l1.064 1.065a2.5 2.5 0 0 0 1.254 3.467l-.816 5.312A2.501 2.501 0 1 0 6.499 17h7.006a2.496 2.496 0 0 0 3.153.718l1.81 1.81c-.83.61-1.855.971-2.963.971a5 5 0 0 1-2.998-.997l.744-.002l.101-.006A.75.75 0 0 0 13.251 18h-2.505l-.102.007a.75.75 0 0 0-.648.743v2.499l.007.102a.75.75 0 0 0 .743.648l.102-.007a.75.75 0 0 0 .648-.743v-.632A6.48 6.48 0 0 0 15.505 22a6.47 6.47 0 0 0 4.033-1.402l1.182 1.183a.75.75 0 0 0 1.061-1.061zm10.006 12.127c-.18.345-.281.737-.281 1.153H7l-.007-.185a2.5 2.5 0 0 0-1.752-2.203l.795-5.166q.331-.073.623-.226zM7.182 4l1.5 1.5h3.304l.006.174a2.5 2.5 0 0 0 1.972 2.275l.514 3.347l1.795 1.796l-.813-5.285A2.5 2.5 0 1 0 12.489 4zm13.07 13.071l1.155 1.155a6.502 6.502 0 0 0-4.736-9.121l.247 1.598a5 5 0 0 1 3.335 6.368"/></svg>