<svg xmlns="http://www.w3.org/2000/svg" xmlns:xlink="http://www.w3.org/1999/xlink" width="16" height="16" viewBox="0 0 16 16"><path fill="currentColor" d="M8.002 2a6 6 0 0 0-5.057 2.77a.5.5 0 1 1-.843-.54A7 7 0 0 1 8.002 1A6.98 6.98 0 0 1 13 3.1V2a.5.5 0 0 1 1 0v2.5a.5.5 0 0 1-.5.5H11a.5.5 0 0 1 0-1h1.474a5.98 5.98 0 0 0-4.472-2M3.529 12H5a.5.5 0 0 0 0-1H2.5a.5.5 0 0 0-.5.5V14a.5.5 0 0 0 1 0v-1.103A6.98 6.98 0 0 0 8.002 15a7 7 0 0 0 5.899-3.23a.5.5 0 1 0-.842-.54A6 6 0 0 1 8.002 14a5.98 5.98 0 0 1-4.473-2M5.5 3.5A.5.5 0 0 1 6 4v5a1 1 0 0 0 1 1h5a.5.5 0 0 1 0 1h-1v1a.5.5 0 0 1-1 0v-1H7a2 2 0 0 1-2-2V6H4a.5.5 0 0 1 0-1h1V4a.5.5 0 0 1 .5-.5M10 7v2h1V7a2 2 0 0 0-2-2H7v1h2a1 1 0 0 1 1 1"/></svg>