<svg xmlns="http://www.w3.org/2000/svg" xmlns:xlink="http://www.w3.org/1999/xlink" width="20" height="20" viewBox="0 0 20 20"><path fill="currentColor" d="M8.737 5.31L6.609 8.046a.5.5 0 0 1-.619.14L3.865 7.123a1.5 1.5 0 1 0-1.672.845l1.692 8.04A1.25 1.25 0 0 0 5.11 17H9.6a5.5 5.5 0 0 1-.392-1H5.109a.25.25 0 0 1-.245-.198L3.203 7.91l2.34 1.17a1.5 1.5 0 0 0 1.855-.42L10 5.314l2.602 3.346a1.5 1.5 0 0 0 .652.482a5.5 5.5 0 0 1 1.362-.14l2.181-1.092l-.307 1.461q.487.19.924.464l.393-1.866a1.5 1.5 0 1 0-1.672-.846L14.01 8.186a.5.5 0 0 1-.619-.14L11.263 5.31a1.5 1.5 0 1 0-2.526 0M14.5 19a4.5 4.5 0 1 0 0-9a4.5 4.5 0 0 0 0 9M12 14.5a.5.5 0 0 1 .5-.5h4a.5.5 0 0 1 0 1h-4a.5.5 0 0 1-.5-.5"/></svg>