<svg xmlns="http://www.w3.org/2000/svg" xmlns:xlink="http://www.w3.org/1999/xlink" width="48" height="48" viewBox="0 0 48 48"><path fill="currentColor" d="M21.679 5.332a6.25 6.25 0 0 1 4.642 0l15.007 6.003A4.25 4.25 0 0 1 44 15.281v9.338A12.96 12.96 0 0 0 35 21a12.97 12.97 0 0 0-9.75 4.401v-3.335l9.502-4.171a1.25 1.25 0 0 0-1.005-2.29L24 19.885l-9.747-4.28a1.25 1.25 0 0 0-1.005 2.29l9.502 4.171v7.572A13 13 0 0 0 22 34c0 3.454 1.347 6.593 3.544 8.921a6.25 6.25 0 0 1-3.865-.253L6.672 36.665A4.25 4.25 0 0 1 4 32.719V15.28a4.25 4.25 0 0 1 2.672-3.946zM46 34c0 6.075-4.925 11-11 11s-11-4.925-11-11s4.925-11 11-11s11 4.925 11 11m-12.293 4.707l8-8a1 1 0 0 0-1.414-1.414L33 36.586l-3.293-3.293a1 1 0 0 0-1.414 1.414l4 4a1 1 0 0 0 1.414 0"/></svg>