<svg xmlns="http://www.w3.org/2000/svg" xmlns:xlink="http://www.w3.org/1999/xlink" width="20" height="20" viewBox="0 0 20 20"><path fill="currentColor" d="M9.072 16.59q.191.075.39.12q.25.565.614 1.057a3.5 3.5 0 0 1-1.376-.25l-5.757-2.302A1.5 1.5 0 0 1 2 13.822V6.176a1.5 1.5 0 0 1 .943-1.392L8.7 2.48a3.5 3.5 0 0 1 2.6 0l5.757 2.303c.57.227.943.779.943 1.392v4.08a5.5 5.5 0 0 0-1-.657V6.176a.5.5 0 0 0-.314-.464L10.929 3.41a2.5 2.5 0 0 0-1.857 0L3.314 5.712A.5.5 0 0 0 3 6.176v7.646a.5.5 0 0 0 .314.465zM5.703 6.042a.5.5 0 1 0-.406.914L9.5 8.824v3.381a5.5 5.5 0 0 1 1-1.48v-1.9l4.203-1.869a.5.5 0 1 0-.406-.914L10 7.952zM17 18.241a4.5 4.5 0 1 1-5-7.484a4.5 4.5 0 0 1 5 7.484m-2.146-6.095a.5.5 0 0 0-.854.353v1.5h-1.5a.5.5 0 0 0 0 1H14v1.5a.5.5 0 0 0 1 0v-1.5h1.5a.5.5 0 0 0 0-1H15v-1.5a.5.5 0 0 0-.146-.354"/></svg>