<svg xmlns="http://www.w3.org/2000/svg" xmlns:xlink="http://www.w3.org/1999/xlink" width="28" height="28" viewBox="0 0 28 28"><path fill="currentColor" d="M14.65 4.127a1.75 1.75 0 0 0-1.3 0l-8.75 3.5a1.75 1.75 0 0 0-1.1 1.625v9.505c0 .716.436 1.36 1.1 1.625l8.75 3.5a1.75 1.75 0 0 0 1.3 0l8.75-3.5a1.75 1.75 0 0 0 1.1-1.625V9.252a1.75 1.75 0 0 0-1.1-1.625zm-1.857-1.392a3.25 3.25 0 0 1 2.414 0l8.75 3.5A3.25 3.25 0 0 1 26 9.252v9.505a3.25 3.25 0 0 1-2.043 3.018l-8.75 3.5a3.25 3.25 0 0 1-2.414 0l-8.75-3.5A3.25 3.25 0 0 1 2 18.757V9.252a3.25 3.25 0 0 1 2.043-3.017zm-5.73 6.72a.75.75 0 0 1 .989-.384L14 11.685l5.948-2.614a.75.75 0 0 1 .604 1.373l-5.802 2.55v6.758a.75.75 0 0 1-1.5 0v-6.758l-5.802-2.55a.75.75 0 0 1-.385-.988"/></svg>