<svg xmlns="http://www.w3.org/2000/svg" xmlns:xlink="http://www.w3.org/1999/xlink" width="20" height="20" viewBox="0 0 20 20"><path fill="currentColor" d="M5.703 6.042a.5.5 0 1 0-.406.914L9.5 8.824v3.382a5.5 5.5 0 0 1 1-1.481v-1.9l4.203-1.869a.5.5 0 1 0-.406-.914L10 7.952zM9.072 16.59q.191.075.39.12q.25.565.614 1.057a3.5 3.5 0 0 1-1.376-.25l-5.757-2.302A1.5 1.5 0 0 1 2 13.822V6.176a1.5 1.5 0 0 1 .943-1.392L8.7 2.48a3.5 3.5 0 0 1 2.6 0l5.757 2.303c.57.227.943.779.943 1.392v4.08a5.5 5.5 0 0 0-1-.657V6.176a.5.5 0 0 0-.314-.464L10.929 3.41a2.5 2.5 0 0 0-1.857 0L3.314 5.712A.5.5 0 0 0 3 6.176v7.646a.5.5 0 0 0 .314.465zM10 14.5a4.5 4.5 0 1 0 9 0a4.5 4.5 0 0 0-9 0m6.5-3a.5.5 0 0 1 .5.5v1.5a.5.5 0 0 1-.5.5H15a.5.5 0 1 1 0-1h.468a2 2 0 0 0-1.717-.105a2 2 0 0 0-.665.44a.5.5 0 1 1-.707-.707A3 3 0 0 1 16 12.152V12a.5.5 0 0 1 .5-.5m-.876 5.531A3 3 0 0 1 13 16.848V17a.5.5 0 1 1-1 0v-1.5a.5.5 0 0 1 .5-.5H14a.5.5 0 0 1 0 1h-.468q.075.04.155.077a2 2 0 0 0 2.227-.413a.5.5 0 0 1 .707.707a3 3 0 0 1-.997.66"/></svg>