<svg xmlns="http://www.w3.org/2000/svg" xmlns:xlink="http://www.w3.org/1999/xlink" width="16" height="16" viewBox="0 0 16 16"><path d="M4.752 1.999a.75.75 0 0 1 .75.75v.354a2.753 2.753 0 0 1 2.002 2.649v.613a.75.75 0 0 1-1.5 0v-.613c0-.41-.198-.774-.502-1.003v2.76l.337.148a2.801 2.801 0 0 1 1.665 2.561a2.78 2.78 0 0 1-2.002 2.666v.367a.75.75 0 0 1-1.5 0v-.365A2.753 2.753 0 0 1 2 10.237v-.603a.75.75 0 0 1 1.5 0v.603c0 .41.197.774.502 1.002V8.49l-.335-.147a2.789 2.789 0 0 1-1.66-2.36L2 5.753c0-1.26.847-2.322 2.002-2.649V2.75a.75.75 0 0 1 .75-.75zM12.432 3c.416 0 .88.127 1.258.401a.75.75 0 0 1-.789 1.272l-.094-.059a.678.678 0 0 0-.375-.114c-.392 0-.857.254-1.262.895a3.96 3.96 0 0 0-.398.856l-.076.249h.557a.75.75 0 0 1 .101 1.493L11.253 8H10.5c0 .262.017.516.048.76l.036.24h.67a.75.75 0 0 1 .1 1.493l-.102.007h-.146l.064.105c.405.641.87.895 1.262.895c.126 0 .236-.03.311-.069l.05-.031a.75.75 0 1 1 .914 1.19c-.399.306-.88.41-1.275.41c-1.09 0-1.965-.698-2.53-1.595a5.158 5.158 0 0 1-.354-.667l-.1-.24l-.7-.002a.75.75 0 0 1-.1-1.493l.102-.006h.317a7.366 7.366 0 0 1-.06-.66L9 7.999h-.251a.75.75 0 0 1-.101-1.493l.101-.007h.404c.15-.712.406-1.362.748-1.904C10.467 3.698 11.343 3 12.431 3zm-6.93 6.19v2.043c.303-.233.502-.601.502-1.015a1.31 1.31 0 0 0-.392-.932l-.11-.097zm-1.5-4.44a1.25 1.25 0 0 0-.495.867l-.007.135v.037c0 .354.145.686.39.924l.112.096V4.75z" fill="currentColor" fill-rule="nonzero"/></svg>