<svg xmlns="http://www.w3.org/2000/svg" xmlns:xlink="http://www.w3.org/1999/xlink" width="16" height="16" viewBox="0 0 16 16"><path d="M4.5 2.002a.5.5 0 0 1 .5.5v.248a2.702 2.702 0 0 1 2.403 2.685v.734a.5.5 0 1 1-1 0v-.734c0-.838-.606-1.534-1.403-1.675v3.829l.754.338a2.79 2.79 0 0 1 1.649 2.546v.088c0 1.39-1.05 2.536-2.403 2.685v.26a.5.5 0 0 1-1 0v-.336a2.702 2.702 0 0 1-2-2.61v-.722a.5.5 0 1 1 1 0v.723c0 .69.41 1.283 1 1.55V8.236l-.348-.155A2.796 2.796 0 0 1 2 5.529v-.094c0-1.25.848-2.3 2-2.61v-.323a.5.5 0 0 1 .5-.5zm8.064.993c.4 0 .85.114 1.212.358a.5.5 0 0 1-.48.873l-.08-.044a1.22 1.22 0 0 0-.652-.187c-.632 0-1.261.376-1.754 1.1c-.345.506-.605 1.16-.73 1.905h.418a.5.5 0 0 1 0 1h-.5c0 .347.03.682.083 1h.416a.5.5 0 1 1 0 1h-.148c.126.334.282.637.46.9c.494.723 1.123 1.1 1.755 1.1c.195 0 .388-.041.54-.116l.105-.063a.5.5 0 0 1 .58.815c-.377.268-.839.363-1.225.363c-1.061 0-1.964-.632-2.581-1.537A5.454 5.454 0 0 1 9.293 10h-.797a.5.5 0 0 1 0-1h.573A7.073 7.073 0 0 1 9 8h-.503a.5.5 0 0 1 0-1h.573c.134-.94.454-1.792.914-2.468c.617-.905 1.52-1.537 2.58-1.537zM5 8.685v3.55a1.702 1.702 0 0 0 1.396-1.519l.007-.155v-.088a1.79 1.79 0 0 0-.924-1.567l-.134-.067L5 8.685zm-1-4.8a1.702 1.702 0 0 0-.993 1.393L3 5.435v.094c0 .633.332 1.212.863 1.535L4 7.139V3.885z" fill="currentColor" fill-rule="nonzero"/></svg>