<svg xmlns="http://www.w3.org/2000/svg" xmlns:xlink="http://www.w3.org/1999/xlink" width="20" height="20" viewBox="0 0 20 20"><path fill="currentColor" d="M10 8c3.314 0 6-1.343 6-3s-2.686-3-6-3s-6 1.343-6 3s2.686 3 6 3m4.69.016c.47-.235.927-.534 1.31-.896v2.638a4.5 4.5 0 1 0-3.835 8.04c-.671.13-1.402.202-2.165.202c-3.314 0-6-1.343-6-3V7.12c.383.362.84.661 1.31.896C6.562 8.642 8.222 9 10 9s3.438-.358 4.69-.984M13.5 17c.786 0 1.512-.26 2.096-.697l2.55 2.55a.5.5 0 1 0 .708-.707l-2.55-2.55A3.5 3.5 0 1 0 13.5 17m0-1a2.5 2.5 0 1 1 0-5a2.5 2.5 0 0 1 0 5"/></svg>