<svg xmlns="http://www.w3.org/2000/svg" xmlns:xlink="http://www.w3.org/1999/xlink" width="24" height="24" viewBox="0 0 24 24"><path fill="currentColor" d="M20 4.746a2.75 2.75 0 0 0-2.75-2.75H4.75A2.75 2.75 0 0 0 2 4.746v12.5a2.75 2.75 0 0 0 2.75 2.75h6.666l.105-.42c.096-.384.253-.748.463-1.08H4.75c-.69 0-1.25-.56-1.25-1.25v-12.5c0-.69.56-1.25 1.25-1.25h12.5c.69 0 1.25.56 1.25 1.25v7.113c.437-.4.956-.66 1.5-.781zm-4 9.609V6.728l-.007-.1A.744.744 0 0 0 15.25 6a.74.74 0 0 0-.75.73v8.541l.007.099c.017.125.067.24.142.337zm-8.507-5.71a.75.75 0 0 0-.743-.646a.75.75 0 0 0-.75.747v6.507l.007.101c.05.365.363.645.743.645c.414 0 .75-.334.75-.746V8.746zm4.214 2.972a.73.73 0 0 0-.732-.62a.73.73 0 0 0-.725.733l.035 3.547l.008.099a.73.73 0 0 0 .732.62a.73.73 0 0 0 .725-.733l-.035-3.548zm7.393 1.052l-5.903 5.902a2.7 2.7 0 0 0-.706 1.248l-.458 1.83a1.087 1.087 0 0 0 1.319 1.319l1.83-.458a2.7 2.7 0 0 0 1.248-.706l5.902-5.903A2.286 2.286 0 0 0 19.1 12.67"/></svg>