<svg xmlns="http://www.w3.org/2000/svg" xmlns:xlink="http://www.w3.org/1999/xlink" width="20" height="20" viewBox="0 0 20 20"><path fill="currentColor" d="M4 5c0-1.007.875-1.755 1.904-2.223C6.978 2.289 8.427 2 10 2s3.022.289 4.096.777C15.125 3.245 16 3.993 16 5v4.041a3 3 0 0 0-1 0V6.698a5 5 0 0 1-.904.525C13.022 7.711 11.573 8 10 8s-3.022-.289-4.096-.777A5 5 0 0 1 5 6.698V15c0 .374.356.875 1.318 1.313c.916.416 2.218.687 3.682.687q.533 0 1.031-.046c.047.334.146.663.3.975Q10.686 18 10 18c-1.573 0-3.022-.289-4.096-.777C4.875 16.755 4 16.007 4 15zm1 0c0 .374.356.875 1.318 1.313C7.234 6.729 8.536 7 10 7s2.766-.27 3.682-.687C14.644 5.875 15 5.373 15 5c0-.374-.356-.875-1.318-1.313C12.766 3.271 11.464 3 10 3s-2.766.27-3.682.687C5.356 4.125 5 4.627 5 5m12.5 7a2 2 0 1 1-4 0a2 2 0 0 1 4 0m1.5 4.5c0 1.245-1 2.5-3.5 2.5S12 17.75 12 16.5a1.5 1.5 0 0 1 1.5-1.5h4a1.5 1.5 0 0 1 1.5 1.5"/></svg>