<svg xmlns="http://www.w3.org/2000/svg" xmlns:xlink="http://www.w3.org/1999/xlink" width="24" height="24" viewBox="0 0 24 24"><path fill="currentColor" d="M17.25 1.996A2.75 2.75 0 0 1 20 4.746v6.607a2.8 2.8 0 0 0-.75-.104H16V6.73a.74.74 0 0 0-.75-.73a.74.74 0 0 0-.75.73v4.82A2.75 2.75 0 0 0 13 14v.05a2.5 2.5 0 0 0-1.255.67l-.03-3.004a.73.73 0 0 0-.74-.719a.73.73 0 0 0-.725.734l.035 3.547a.73.73 0 0 0 .74.72l.026-.002Q11 16.24 11 16.5v3.497H4.75A2.75 2.75 0 0 1 2 17.246v-12.5a2.75 2.75 0 0 1 2.75-2.75zM6.75 8a.75.75 0 0 0-.75.747v6.507c0 .412.336.746.75.746s.75-.334.75-.746V8.746A.75.75 0 0 0 6.75 8M14 15h-.5a1.5 1.5 0 0 0-1.5 1.5V18h2.5v-.25a.75.75 0 0 1 1.5 0V18h3v-.25a.75.75 0 0 1 1.5 0V18H23v-1.5a1.5 1.5 0 0 0-1.5-1.5H21v-1a1.75 1.75 0 0 0-1.75-1.75h-3.5A1.75 1.75 0 0 0 14 14zm1.5-1a.25.25 0 0 1 .25-.25h3.5a.25.25 0 0 1 .25.25v1h-4zM12 21.5v-2h2.5v.75a.75.75 0 0 0 1.5 0v-.75h3v.75a.75.75 0 0 0 1.5 0v-.75H23v2a1.5 1.5 0 0 1-1.5 1.5h-8a1.5 1.5 0 0 1-1.5-1.5"/></svg>