<svg xmlns="http://www.w3.org/2000/svg" xmlns:xlink="http://www.w3.org/1999/xlink" width="24" height="24" viewBox="0 0 24 24"><path fill="currentColor" d="M17.25 1.996A2.75 2.75 0 0 1 20 4.746v6.752a6.52 6.52 0 0 0-4-.324V6.729a.74.74 0 0 0-.75-.73a.74.74 0 0 0-.75.73v5.003a6.53 6.53 0 0 0-2.758 2.749l-.027-2.766a.73.73 0 0 0-.74-.719a.73.73 0 0 0-.725.734l.035 3.547a.73.73 0 0 0 .894.702a6.5 6.5 0 0 0 .317 4.017H4.75A2.75 2.75 0 0 1 2 17.246v-12.5a2.75 2.75 0 0 1 2.75-2.75zM6.75 8a.75.75 0 0 0-.75.747v6.507c0 .412.336.746.75.746s.75-.334.75-.746V8.746A.75.75 0 0 0 6.75 8M23 17.5a5.5 5.5 0 1 1-11 0a5.5 5.5 0 0 1 11 0m-2.146-2.354a.5.5 0 0 0-.708 0L16.5 18.793l-1.646-1.647a.5.5 0 0 0-.708.708l2 2a.5.5 0 0 0 .708 0l4-4a.5.5 0 0 0 0-.708"/></svg>