<svg xmlns="http://www.w3.org/2000/svg" xmlns:xlink="http://www.w3.org/1999/xlink" width="24" height="24" viewBox="0 0 24 24"><path fill="currentColor" d="M5.575 2.074A.75.75 0 0 1 6 2.75c0 .83.312 1.308.703 1.89l.029.042c.332.494.768 1.141.768 2.068a2.75 2.75 0 1 1-5.5 0c0-.368 0-1.001.383-1.818c.375-.8 1.088-1.719 2.398-2.768a.75.75 0 0 1 .794-.09M4.75 11a4.23 4.23 0 0 0 2.365-.718c.261.734.385 1.71.385 2.973c0 1.712-.23 3.768-.605 5.41c-.186.816-.417 1.569-.692 2.134a3 3 0 0 1-.51.77c-.206.211-.523.436-.943.436s-.737-.225-.942-.436a3 3 0 0 1-.51-.77c-.276-.566-.507-1.318-.693-2.135A26 26 0 0 1 2 13.254c0-1.262.124-2.238.385-2.972A4.23 4.23 0 0 0 4.75 11m3.734 3.077a5 5 0 0 0 1.516.398V12.25A3.25 3.25 0 0 1 13.25 9h2.225a5 5 0 0 0-7.344-3.904a6.4 6.4 0 0 0-.548-.94l-.05-.074l-.179-.272A6.5 6.5 0 0 1 16.981 9h1.769A3.25 3.25 0 0 1 22 12.25v5.5A3.25 3.25 0 0 1 18.75 21h-5.5A3.25 3.25 0 0 1 10 17.75v-1.769a6.5 6.5 0 0 1-1.621-.335c.05-.53.086-1.058.105-1.569M18.75 10.5h-1.826a6.505 6.505 0 0 1-5.424 5.424v1.826c0 .966.784 1.75 1.75 1.75h5.5a1.75 1.75 0 0 0 1.75-1.75v-5.5a1.75 1.75 0 0 0-1.75-1.75m-7.25 3.9a5.01 5.01 0 0 0 3.9-3.9h-2.15a1.75 1.75 0 0 0-1.75 1.75z"/></svg>