<svg xmlns="http://www.w3.org/2000/svg" xmlns:xlink="http://www.w3.org/1999/xlink" width="48" height="48" viewBox="0 0 48 48"><path fill="currentColor" d="M46 13c0 6.075-4.925 11-11 11s-11-4.925-11-11S28.925 2 35 2s11 4.925 11 11M35 5a1 1 0 0 0-1 1v11.586l-3.293-3.293a1 1 0 0 0-1.414 1.414l5 5a1 1 0 0 0 1.414 0l5-5a1 1 0 0 0-1.414-1.414L36 17.586V6a1 1 0 0 0-1-1m6.5 27.75v-8.49a13 13 0 0 0 2.5-1.88v10.37A4.25 4.25 0 0 1 39.75 37H31v3.5h2.75a1.25 1.25 0 1 1 0 2.5h-19.5a1.25 1.25 0 1 1 0-2.5H17V37H8.25A4.25 4.25 0 0 1 4 32.75V9.25A4.25 4.25 0 0 1 8.25 5h16.502a13 13 0 0 0-1.535 2.5H8.25A1.75 1.75 0 0 0 6.5 9.25v23.5c0 .967.784 1.75 1.75 1.75h31.5a1.75 1.75 0 0 0 1.75-1.75m-13 7.75V37h-9v3.5z"/></svg>