<svg xmlns="http://www.w3.org/2000/svg" xmlns:xlink="http://www.w3.org/1999/xlink" width="20" height="20" viewBox="0 0 20 20"><path fill="currentColor" d="M17.65 1.2c.121.162.285.453.443.874c.255.68.407 1.49.407 2.426s-.152 1.745-.407 2.426c-.158.421-.322.712-.443.874a.5.5 0 0 1-.848-.523l.116-.182c.066-.112.15-.286.239-.52c.213-.57.343-1.261.343-2.075s-.13-1.505-.343-2.074a3.5 3.5 0 0 0-.239-.52L16.85 1.8a.5.5 0 1 1 .8-.6m-3.959-.162A.5.5 0 0 1 14 1.5v6a.5.5 0 0 1-.854.354L11.293 6H10.5a.5.5 0 0 1-.5-.5v-2a.5.5 0 0 1 .5-.5h.793l1.853-1.854a.5.5 0 0 1 .545-.108m2.533 1.929a5.5 5.5 0 0 0-.277-.69a.5.5 0 1 0-.894.447c.052.105.137.303.223.56c.14.421.224.84.224 1.216s-.084.795-.224 1.217a6 6 0 0 1-.147.39l-.076.17a.5.5 0 1 0 .894.447a5.5 5.5 0 0 0 .277-.69c.172-.516.276-1.035.276-1.534s-.104-1.018-.276-1.533M16.35 8.7a1.5 1.5 0 0 1-.526-.735c-.285.063-.59.044-.877-.07a1.5 1.5 0 0 1-2.508.666L10.88 7h-.38A1.5 1.5 0 0 1 9 5.5v-2A1.5 1.5 0 0 1 10.5 2h.379H3.5A1.5 1.5 0 0 0 2 3.5v10A1.5 1.5 0 0 0 3.5 15H7v2H5.5a.5.5 0 0 0 0 1h9a.5.5 0 0 0 0-1H13v-2h3.5a1.5 1.5 0 0 0 1.5-1.5V8.8a1.5 1.5 0 0 1-1.65-.1M12 15v2H8v-2z"/></svg>