<svg xmlns="http://www.w3.org/2000/svg" xmlns:xlink="http://www.w3.org/1999/xlink" width="28" height="28" viewBox="0 0 28 28"><path fill="currentColor" d="m2.629 3.69l-.41-.41A.75.75 0 1 1 3.28 2.22l22.5 22.5a.75.75 0 0 1-1.06 1.06l-4.78-4.778h-1.942V23.5h1.752a.75.75 0 0 1 .743.648l.007.102a.75.75 0 0 1-.648.743L19.75 25H8.25a.75.75 0 0 1-.102-1.493l.102-.007H10v-2.498H4.25A2.25 2.25 0 0 1 2 18.752V5.25c0-.606.24-1.156.629-1.56M18.44 19.501L3.69 4.75a.75.75 0 0 0-.19.499v13.502c0 .414.336.75.75.75l12.999-.002l.028.002zM6.183 3l1.5 1.5h5.941A7.5 7.5 0 0 1 14.5 3zm17.966 17.966l-1.464-1.464h1.064a.75.75 0 0 0 .75-.75v-4.906a7.5 7.5 0 0 0 1.5-1.246v6.152a2.25 2.25 0 0 1-1.85 2.214M27 7.5a6.5 6.5 0 1 1-13 0a6.5 6.5 0 0 1 13 0m-6-4a.5.5 0 0 0-1 0v6.793l-2.146-2.147a.5.5 0 0 0-.708.708l3 3a.5.5 0 0 0 .351.146h.006c.127 0 .254-.05.35-.146l3-3a.5.5 0 0 0-.707-.708L21 10.293zm-4.502 17.502H11.5V23.5h4.999z"/></svg>