<svg xmlns="http://www.w3.org/2000/svg" xmlns:xlink="http://www.w3.org/1999/xlink" width="48" height="48" viewBox="0 0 48 48"><path fill="currentColor" d="M13.5 11.5a3 3 0 1 0 0-6a3 3 0 0 0 0 6m0 10a3 3 0 1 0 0-6a3 3 0 0 0 0 6m0 10a3 3 0 1 0 0-6a3 3 0 0 0 0 6m10.5-20a3 3 0 1 0 0-6a3 3 0 0 0 0 6m0 10a3 3 0 1 0 0-6a3 3 0 0 0 0 6m0 10a3 3 0 1 0 0-6a3 3 0 0 0 0 6m0 10a3 3 0 1 0 0-6a3 3 0 0 0 0 6m10.5-30a3 3 0 1 0 0-6a3 3 0 0 0 0 6m0 10a3 3 0 1 0 0-6a3 3 0 0 0 0 6m0 10a3 3 0 1 0 0-6a3 3 0 0 0 0 6"/></svg>