<svg xmlns="http://www.w3.org/2000/svg" xmlns:xlink="http://www.w3.org/1999/xlink" width="24" height="24" viewBox="0 0 24 24"><path fill="currentColor" d="M2.952 9.702a3.25 3.25 0 0 0 0 4.597l6.75 6.75a3.25 3.25 0 0 0 4.597 0l6.75-6.75a3.25 3.25 0 0 0 0-4.597l-6.75-6.75a3.25 3.25 0 0 0-4.597 0zm1.06 3.536a1.75 1.75 0 0 1 0-2.475l6.751-6.75a1.75 1.75 0 0 1 2.475 0l6.75 6.75a1.75 1.75 0 0 1 0 2.475l-6.75 6.75a1.75 1.75 0 0 1-2.475 0zM9.78 8.72a.75.75 0 0 0-1.06 1.06L10.94 12l-2.22 2.22a.75.75 0 1 0 1.06 1.06L12 13.06l2.22 2.22a.75.75 0 1 0 1.06-1.06L13.06 12l2.22-2.22a.75.75 0 0 0-1.06-1.06L12 10.94z"/></svg>