<svg xmlns="http://www.w3.org/2000/svg" xmlns:xlink="http://www.w3.org/1999/xlink" width="20" height="20" viewBox="0 0 20 20"><path fill="currentColor" d="m4.089 4.216l.057-.07a.5.5 0 0 1 .638-.057l.07.057L10 9.293l5.146-5.147a.5.5 0 0 1 .638-.057l.07.057a.5.5 0 0 1 .057.638l-.057.07L10.707 10l5.147 5.146a.5.5 0 0 1 .057.638l-.057.07a.5.5 0 0 1-.638.057l-.07-.057L10 10.707l-5.146 5.147a.5.5 0 0 1-.638.057l-.07-.057a.5.5 0 0 1-.057-.638l.057-.07L9.293 10L4.146 4.854a.5.5 0 0 1-.057-.638l.057-.07z"/></svg>