<svg xmlns="http://www.w3.org/2000/svg" xmlns:xlink="http://www.w3.org/1999/xlink" width="28" height="28" viewBox="0 0 28 28"><path fill="currentColor" d="M6.188 4.123c.753-1.497 2.871-1.497 3.624 0l2.965 5.895c.687 1.365-.296 2.982-1.812 2.982h-5.93c-1.516 0-2.499-1.617-1.812-2.982zm2.284.674a.524.524 0 0 0-.944 0l-2.965 5.895a.552.552 0 0 0 .472.808h5.93a.552.552 0 0 0 .472-.808zM17.75 3A2.75 2.75 0 0 0 15 5.75v4.5A2.75 2.75 0 0 0 17.75 13h4.5A2.75 2.75 0 0 0 25 10.25v-4.5A2.75 2.75 0 0 0 22.25 3zM16.5 5.75c0-.69.56-1.25 1.25-1.25h4.5c.69 0 1.25.56 1.25 1.25v4.5c0 .69-.56 1.25-1.25 1.25h-4.5c-.69 0-1.25-.56-1.25-1.25zM8 16.5a3.5 3.5 0 1 0 0 7a3.5 3.5 0 0 0 0-7M3 20a5 5 0 1 1 10 0a5 5 0 0 1-10 0m17.625-5.405a1.25 1.25 0 0 0-1.25 0l-3.743 2.161a1.25 1.25 0 0 0-.625 1.083v4.322c0 .447.238.86.625 1.083l3.743 2.161a1.25 1.25 0 0 0 1.25 0l3.744-2.161a1.25 1.25 0 0 0 .625-1.083V17.84c0-.447-.239-.86-.625-1.083zm-4.119 3.388L20 15.966l3.494 2.017v4.034L20 24.034l-3.494-2.017z"/></svg>