<svg xmlns="http://www.w3.org/2000/svg" xmlns:xlink="http://www.w3.org/1999/xlink" width="16" height="16" viewBox="0 0 16 16"><path fill="currentColor" d="M2.466 1.45c.637-1.266 2.431-1.266 3.068 0l1.779 3.536C7.889 6.131 7.069 7.5 5.779 7.5H2.22C.931 7.5.111 6.13.687 4.986zM9 2.5A1.5 1.5 0 0 1 10.5 1h3A1.5 1.5 0 0 1 15 2.5v3A1.5 1.5 0 0 1 13.5 7h-3A1.5 1.5 0 0 1 9 5.5zm2.495 6.331a1 1 0 0 1 1 0l1.99 1.15a1 1 0 0 1 .5.865v2.298a1 1 0 0 1-.5.866l-1.99 1.149a1 1 0 0 1-1 0l-1.99-1.15a1 1 0 0 1-.5-.865v-2.298a1 1 0 0 1 .5-.866zM1 12a3 3 0 1 1 6 0a3 3 0 0 1-6 0"/></svg>