<svg xmlns="http://www.w3.org/2000/svg" xmlns:xlink="http://www.w3.org/1999/xlink" width="16" height="16" viewBox="0 0 16 16"><path fill="currentColor" d="M6 1a2 2 0 0 0-2 2v2.207a5.5 5.5 0 0 1 1-.185V3a1 1 0 0 1 1-1h3v2.5A1.5 1.5 0 0 0 10.5 6H13v7a1 1 0 0 1-1 1H9.743a5.5 5.5 0 0 1-1.08 1H12a2 2 0 0 0 2-2V5.414a1.5 1.5 0 0 0-.44-1.06l-2.914-2.915A1.5 1.5 0 0 0 9.586 1zm6.793 4H10.5a.5.5 0 0 1-.5-.5V2.207zM5.5 15a4.5 4.5 0 1 1 0-9a4.5 4.5 0 0 1 0 9M7 8v.152a3 3 0 0 0-3.621.477a.5.5 0 0 0 .707.707A2 2 0 0 1 6.468 9H6a.5.5 0 0 0 0 1h1.5a.5.5 0 0 0 .5-.5V8a.5.5 0 0 0-1 0m-1.552 5.25a3 3 0 0 0 2.173-.879a.5.5 0 1 0-.707-.707A2 2 0 0 1 4.532 12H5a.5.5 0 0 0 0-1H3.5a.5.5 0 0 0-.5.5V13a.5.5 0 0 0 1 0v-.152a3 3 0 0 0 1.448.401"/></svg>