<svg xmlns="http://www.w3.org/2000/svg" xmlns:xlink="http://www.w3.org/1999/xlink" width="28" height="28" viewBox="0 0 28 28"><path fill="currentColor" d="M4 4.4A2.4 2.4 0 0 1 6.4 2h8.166a2.4 2.4 0 0 1 1.698.703l6.452 6.452a3.3 3.3 0 0 0-1.318.803L15.5 4.061V10a.5.5 0 0 0 .5.5h4.856l-1.5 1.5H16a2 2 0 0 1-2-2V3.5H6.4a.9.9 0 0 0-.9.9v19.2a.9.9 0 0 0 .9.9h15.2a.9.9 0 0 0 .9-.9v-5.45l1.5-1.5v6.95a2.4 2.4 0 0 1-2.4 2.4H6.4A2.4 2.4 0 0 1 4 23.6zm10.197 14.172L22.1 10.67a2.286 2.286 0 1 1 3.232 3.232l-7.902 7.902a2.7 2.7 0 0 1-1.248.707l-1.83.457A1.1 1.1 0 0 1 14 23H7.75a.75.75 0 0 1 0-1.5h5.321l.42-1.68c.118-.473.362-.904.706-1.248"/></svg>