<svg xmlns="http://www.w3.org/2000/svg" xmlns:xlink="http://www.w3.org/1999/xlink" width="24" height="24" viewBox="0 0 24 24"><path fill="currentColor" d="M7 4.75A.75.75 0 0 1 7.75 4h.5a.75.75 0 0 1 0 1.5h-.5A.75.75 0 0 1 7 4.75M2.75 9.5a.75.75 0 0 1 .75.75v3.5a.75.75 0 0 1-1.5 0v-3.5a.75.75 0 0 1 .75-.75m5 9a.75.75 0 0 0 0 1.5h.5a.75.75 0 0 0 0-1.5zM2 6a2 2 0 0 1 2-2h.75a.75.75 0 0 1 0 1.5H4a.5.5 0 0 0-.5.5v1.25a.75.75 0 0 1-1.5 0zm2 14a2 2 0 0 1-2-2v-1.25a.75.75 0 0 1 1.5 0V18a.5.5 0 0 0 .5.5h.75a.75.75 0 0 1 0 1.5zm6.5-14.75c0-.69.56-1.25 1.25-1.25h2.586c.464 0 .909.184 1.237.513l5.914 5.914c.329.328.513.773.513 1.237V18a2 2 0 0 1-2 2h-8.25c-.69 0-1.25-.56-1.25-1.25zm1.5.25v13h8a.5.5 0 0 0 .5-.5v-6H16a2 2 0 0 1-2-2V5.5zm3.5 1.06V10a.5.5 0 0 0 .5.5h3.44z"/></svg>