<svg xmlns="http://www.w3.org/2000/svg" xmlns:xlink="http://www.w3.org/1999/xlink" width="16" height="16" viewBox="0 0 16 16"><path fill="currentColor" d="M5 1a2 2 0 0 0-2 2v3.207a5.5 5.5 0 0 1 1-.185V3a1 1 0 0 1 1-1h3v2.5A1.5 1.5 0 0 0 9.5 6H12v7a1 1 0 0 1-1 1H9.5c-.456.607-1.182 1-2 1H11a2 2 0 0 0 2-2V5.414a1.5 1.5 0 0 0-.44-1.06L9.647 1.439A1.5 1.5 0 0 0 8.586 1zm6.793 4H9.5a.5.5 0 0 1-.5-.5V2.207zM4.5 8a3.5 3.5 0 1 0 0 7h1a.5.5 0 0 1 0 1h-1A4.5 4.5 0 1 1 9 11.5v.75a1.75 1.75 0 0 1-3.167 1.027c-.407.447-.966.723-1.583.723C3.007 14 2 12.88 2 11.5S3.007 9 4.25 9c.465 0 .897.157 1.256.425A.5.5 0 0 1 6.5 9.5v2.75a.75.75 0 0 0 1.5 0v-.75A3.5 3.5 0 0 0 4.5 8m-.25 5c.594 0 1.25-.57 1.25-1.5S4.844 10 4.25 10S3 10.57 3 11.5S3.656 13 4.25 13"/></svg>