<svg xmlns="http://www.w3.org/2000/svg" xmlns:xlink="http://www.w3.org/1999/xlink" width="24" height="24" viewBox="0 0 24 24"><path fill="currentColor" d="M18 20.5a.5.5 0 0 0 .5-.5V10H14a2 2 0 0 1-2-2V3.5H6a.5.5 0 0 0-.5.5v7.076a6.5 6.5 0 0 0-1.5.422V4a2 2 0 0 1 2-2h6.172q.042.001.082.007q.03.005.059.007c.215.015.427.056.624.138c.057.024.112.056.166.087l.05.029l.047.024a1 1 0 0 1 .081.044c.078.053.148.116.219.18l.036.03l.049.04l5.829 5.828A2 2 0 0 1 20 9.828V20a2 2 0 0 1-2 2h-6.81a6.5 6.5 0 0 0 1.078-1.5zm-.622-12L13.5 4.621V8a.5.5 0 0 0 .5.5zM13 17.5a6.5 6.5 0 0 1-.174 1.5h2.424A1.75 1.75 0 0 0 17 17.25v-4a1.75 1.75 0 0 0-1.75-1.75H9.004a6.5 6.5 0 0 1 2.496 1.846V13h3.75a.25.25 0 0 1 .25.25v1.25h-3.232c.244.47.433.972.558 1.5H15.5v1.25a.25.25 0 0 1-.25.25zm-1 0a5.5 5.5 0 1 1-11 0a5.5 5.5 0 0 1 11 0M3.5 17a.5.5 0 0 0 0 1h4.793l-1.647 1.646a.5.5 0 0 0 .708.708l2.5-2.5a.5.5 0 0 0 0-.708l-2.5-2.5a.5.5 0 0 0-.708.708L8.293 17z"/></svg>