<svg xmlns="http://www.w3.org/2000/svg" xmlns:xlink="http://www.w3.org/1999/xlink" width="24" height="24" viewBox="0 0 24 24"><path fill="currentColor" d="M18 20.5a.5.5 0 0 0 .5-.5V10H14a2 2 0 0 1-2-2V3.5H6a.5.5 0 0 0-.5.5v7.31a4.5 4.5 0 0 0-1.5-.075V4a2 2 0 0 1 2-2h6.172q.042.001.082.007q.03.005.06.007c.214.015.426.056.623.138c.058.024.112.056.166.087l.05.029l.048.024q.041.019.08.044c.078.053.148.116.22.18q.016.015.036.03q.025.018.048.04l5.83 5.828A2 2 0 0 1 20 9.828V20a2 2 0 0 1-2 2H9.49l1.5-1.5zm-.622-12L13.5 4.621V8a.5.5 0 0 0 .5.5zM6.484 22.53a.747.747 0 0 0 1.061 0l4.408-4.408a3.467 3.467 0 1 0-4.902-4.903l-.036.036l-.036-.036a3.467 3.467 0 1 0-4.903 4.903z"/></svg>