<svg xmlns="http://www.w3.org/2000/svg" xmlns:xlink="http://www.w3.org/1999/xlink" width="24" height="24" viewBox="0 0 24 24"><path fill="currentColor" d="M7.503 13.002a.5.5 0 0 0-.5.5v3a.5.5 0 0 0 1 0v-.5H8.5a1.5 1.5 0 0 0 0-3zm.997 2h-.497v-1H8.5a.5.5 0 1 1 0 1m6.498-1.5a.5.5 0 0 1 .5-.5h1.505a.5.5 0 1 1 0 1h-1.006l-.001 1.002h1.007a.5.5 0 0 1 0 1h-1.007l.002.497a.5.5 0 0 1-1 .002l-.003-.998v-.002zm-3.498-.5a.5.5 0 0 0-.5.5v3a.5.5 0 0 0 .5.5h.498a2 2 0 0 0 0-4zm.5 3v-2a1 1 0 0 1 0 2M20 20v-1.164c.591-.281 1-.884 1-1.582V12.75c0-.698-.409-1.3-1-1.582v-1.34a2 2 0 0 0-.586-1.414l-5.829-5.828l-.049-.04l-.036-.03a2 2 0 0 0-.219-.18a1 1 0 0 0-.08-.044l-.048-.024l-.05-.029c-.054-.031-.109-.063-.166-.087a2 2 0 0 0-.624-.138q-.03-.002-.059-.007L12.172 2H6a2 2 0 0 0-2 2v7.168c-.591.281-1 .884-1 1.582v4.504c0 .698.409 1.3 1 1.582V20a2 2 0 0 0 2 2h12a2 2 0 0 0 2-2m-2 .5H6a.5.5 0 0 1-.5-.5v-.996h13V20a.5.5 0 0 1-.5.5m.5-10.5v1h-13V4a.5.5 0 0 1 .5-.5h6V8a2 2 0 0 0 2 2zm-1.122-1.5H14a.5.5 0 0 1-.5-.5V4.621zm-12.628 4h14.5a.25.25 0 0 1 .25.25v4.504a.25.25 0 0 1-.25.25H4.75a.25.25 0 0 1-.25-.25V12.75a.25.25 0 0 1 .25-.25"/></svg>