<svg xmlns="http://www.w3.org/2000/svg" xmlns:xlink="http://www.w3.org/1999/xlink" width="20" height="20" viewBox="0 0 20 20"><path fill="currentColor" d="M6.5 11a.5.5 0 0 0-.5.5v2a.5.5 0 0 0 1 0v-.166h.334a1.167 1.167 0 0 0 0-2.334zm.834 1.334H7V12h.333a.167.167 0 0 1 0 .334M12 11.499a.5.5 0 0 1 .5-.499h.999a.5.5 0 0 1 0 1H13v.335h.5a.5.5 0 1 1 0 1H13l.001.164a.5.5 0 0 1-1 .002L12 12.834zM9.5 11a.5.5 0 0 0-.5.5v2a.5.5 0 0 0 .5.5h.502a1.5 1.5 0 0 0 0-3zm.5 2v-1h.002a.5.5 0 0 1 0 1zM4.001 4a2 2 0 0 1 2-2h4.585a1.5 1.5 0 0 1 1.061.44l3.914 3.914a1.5 1.5 0 0 1 .44 1.06v1.668a1.5 1.5 0 0 1 .998 1.414v4.003a1.5 1.5 0 0 1-.998 1.414V16a2 2 0 0 1-2 2H6a2 2 0 0 1-2-2v-.087A1.5 1.5 0 0 1 3 14.5v-4.003a1.5 1.5 0 0 1 1-1.414zm11 4h-3.5A1.5 1.5 0 0 1 10 6.5V3H6a1 1 0 0 0-1 1v4.996h10zM5 15.999A1 1 0 0 0 6 17h8a1 1 0 0 0 1-1.001zm6-12.792V6.5a.5.5 0 0 0 .5.5h3.292zM4.502 9.996a.5.5 0 0 0-.5.5v4.003a.5.5 0 0 0 .5.5h10.997a.5.5 0 0 0 .5-.5v-4.003a.5.5 0 0 0-.5-.5z"/></svg>