<svg xmlns="http://www.w3.org/2000/svg" xmlns:xlink="http://www.w3.org/1999/xlink" width="48" height="48" viewBox="0 0 48 48"><path fill="currentColor" d="M8 8.25A4.25 4.25 0 0 1 12.25 4h13.336a2.25 2.25 0 0 1 1.59.659l10.04 10.04a6 6 0 0 0-1.457 1.088l-.491.499L26.5 7.518v7.732c0 .69.56 1.25 1.25 1.25h7.307L32.595 19H27.75A3.75 3.75 0 0 1 24 15.25V6.5H12.25a1.75 1.75 0 0 0-1.75 1.75v31.5c0 .967.784 1.75 1.75 1.75h23.5a1.75 1.75 0 0 0 1.75-1.75v-8.891l2.5-2.462V39.75A4.25 4.25 0 0 1 35.75 44h-23.5A4.25 4.25 0 0 1 8 39.75zm29.182 8.94a3.981 3.981 0 1 1 5.63 5.63L29.09 36.33a3 3 0 0 1-1.351.766l-3.235.839a2 2 0 0 1-.593.064h-9.672a1.25 1.25 0 1 1 0-2.5h7.828l.838-3.236a3 3 0 0 1 .767-1.352z"/></svg>