<svg xmlns="http://www.w3.org/2000/svg" xmlns:xlink="http://www.w3.org/1999/xlink" width="16" height="16" viewBox="0 0 16 16"><path fill="currentColor" d="M9 1v3.5A1.5 1.5 0 0 0 10.5 6H14v7.5a1.5 1.5 0 0 1-1.5 1.5h-7c-.207 0-.405-.042-.584-.118l4.127-3.853c1.09-1.017.482-2.793-.91-3.008l.348-1.047A1.5 1.5 0 0 0 7.058 5H4V2.5A1.5 1.5 0 0 1 5.5 1zm1 .25V4.5a.5.5 0 0 0 .5.5h3.25zM1.503 12h1.75l-.59 2.36c-.12.482.463.826.827.486l4.872-4.548A.75.75 0 0 0 7.85 9H6.752l.781-2.342A.5.5 0 0 0 7.06 6H3.586a.5.5 0 0 0-.462.308l-2.083 5a.5.5 0 0 0 .461.692"/></svg>