<svg xmlns="http://www.w3.org/2000/svg" xmlns:xlink="http://www.w3.org/1999/xlink" width="24" height="24" viewBox="0 0 24 24"><path fill="currentColor" d="M7 12.25a.75.75 0 1 1 1.5 0a.75.75 0 0 1-1.5 0m.75 2.25a.75.75 0 1 0 0 1.5a.75.75 0 0 0 0-1.5M7 18.25a.75.75 0 1 1 1.5 0a.75.75 0 0 1-1.5 0m3.75-6.75a.75.75 0 0 0 0 1.5h5.5a.75.75 0 0 0 0-1.5zM10 15.25a.75.75 0 0 1 .75-.75h5.5a.75.75 0 0 1 0 1.5h-5.5a.75.75 0 0 1-.75-.75m.75 2.25a.75.75 0 0 0 0 1.5h5.5a.75.75 0 0 0 0-1.5zm8.664-9.086l-5.829-5.828l-.049-.04l-.036-.03a2 2 0 0 0-.219-.18a1 1 0 0 0-.08-.044l-.048-.024l-.05-.029c-.054-.031-.109-.063-.166-.087a2 2 0 0 0-.624-.138q-.03-.002-.059-.007L12.172 2H6a2 2 0 0 0-2 2v16a2 2 0 0 0 2 2h12a2 2 0 0 0 2-2V9.828a2 2 0 0 0-.586-1.414M18.5 20a.5.5 0 0 1-.5.5H6a.5.5 0 0 1-.5-.5V4a.5.5 0 0 1 .5-.5h6V8a2 2 0 0 0 2 2h4.5zm-5-15.379L17.378 8.5H14a.5.5 0 0 1-.5-.5z"/></svg>