<svg xmlns="http://www.w3.org/2000/svg" xmlns:xlink="http://www.w3.org/1999/xlink" width="16" height="16" viewBox="0 0 16 16"><path fill="currentColor" d="M5.5 13a.5.5 0 0 0 .5-.5v-6a.5.5 0 0 0-1 0v6a.5.5 0 0 0 .5.5m5.5-.5a.5.5 0 0 1-1 0v-4a.5.5 0 0 1 1 0zm-3.06.5a.5.5 0 0 0 .5-.5v-2a.5.5 0 0 0-1 0v2a.5.5 0 0 0 .5.5M3 3a2 2 0 0 1 2-2h3.586a1.5 1.5 0 0 1 1.061.439l2.914 2.914c.281.282.439.663.439 1.061V13a2 2 0 0 1-2 2H5a2 2 0 0 1-2-2zm2-1a1 1 0 0 0-1 1v10a1 1 0 0 0 1 1h6a1 1 0 0 0 1-1V6H9.5A1.5 1.5 0 0 1 8 4.5V2zm4.5 3h2.293L9 2.207V4.5a.5.5 0 0 0 .5.5"/></svg>