<svg xmlns="http://www.w3.org/2000/svg" xmlns:xlink="http://www.w3.org/1999/xlink" width="20" height="20" viewBox="0 0 20 20"><path fill="currentColor" d="M10 6.5V2H5.5A1.5 1.5 0 0 0 4 3.5v5.707A5.5 5.5 0 0 1 9.743 18H14.5a1.5 1.5 0 0 0 1.5-1.5V8h-4.5A1.5 1.5 0 0 1 10 6.5m1 0V2.25L15.75 7H11.5a.5.5 0 0 1-.5-.5M4.01 14c.047-1.128.25-2.123.54-2.85c.167-.417.353-.722.535-.914c.18-.19.32-.236.415-.236s.235.046.415.236c.181.192.368.497.535.914c.29.727.493 1.722.54 2.85zm-.389-3.221q.096-.24.208-.459A4.5 4.5 0 0 0 1.027 14H3.01c.047-1.234.268-2.36.612-3.221m3.757 0a5 5 0 0 0-.208-.459A4.5 4.5 0 0 1 9.972 14H7.99c-.047-1.234-.267-2.36-.612-3.221M7.99 15h1.982a4.5 4.5 0 0 1-2.802 3.68q.112-.218.208-.459c.345-.862.565-1.987.612-3.221m-2.075 3.764c-.18.19-.32.236-.415.236s-.235-.046-.415-.236c-.182-.192-.368-.497-.535-.914c-.29-.727-.493-1.722-.54-2.85h2.98c-.047 1.128-.25 2.123-.54 2.85c-.167.417-.354.722-.535.913M1.027 15a4.5 4.5 0 0 0 2.802 3.68a5 5 0 0 1-.208-.459c-.344-.862-.565-1.987-.612-3.221z"/></svg>