<svg xmlns="http://www.w3.org/2000/svg" xmlns:xlink="http://www.w3.org/1999/xlink" width="24" height="24" viewBox="0 0 24 24"><path fill="currentColor" d="M12 2v6a2 2 0 0 0 2 2h6v10a2 2 0 0 1-2 2h-5.05q.05-.243.05-.5v-6.879a2.5 2.5 0 0 0-.732-1.767l-1.122-1.122A2.5 2.5 0 0 0 9.38 11H4V4a2 2 0 0 1 2-2zm1.5.5V8a.5.5 0 0 0 .5.5h5.5zM5 12h3v2H5zm-2.5 0H4v2.5a.5.5 0 0 0 .5.5h4a.5.5 0 0 0 .5-.5V12h.379a1.5 1.5 0 0 1 1.06.44l1.122 1.12A1.5 1.5 0 0 1 12 14.622V21.5a1.5 1.5 0 0 1-1.5 1.5H10v-5.5a.5.5 0 0 0-.5-.5h-6a.5.5 0 0 0-.5.5V23h-.5A1.5 1.5 0 0 1 1 21.5v-8A1.5 1.5 0 0 1 2.5 12M9 18v5H4v-5z"/></svg>