<svg xmlns="http://www.w3.org/2000/svg" xmlns:xlink="http://www.w3.org/1999/xlink" width="24" height="24" viewBox="0 0 24 24"><path fill="currentColor" d="M7 12.25a.75.75 0 1 1 1.5 0a.75.75 0 0 1-1.5 0Zm.75 2.25a.75.75 0 1 0 0 1.5a.75.75 0 0 0 0-1.5ZM7 18.25a.75.75 0 1 1 1.5 0a.75.75 0 0 1-1.5 0Zm3.75-6.75a.75.75 0 0 0 0 1.5h5.5a.75.75 0 0 0 0-1.5h-5.5ZM10 15.25a.75.75 0 0 1 .75-.75h5.5a.75.75 0 0 1 0 1.5h-5.5a.75.75 0 0 1-.75-.75Zm.75 2.25a.75.75 0 0 0 0 1.5h5.5a.75.75 0 0 0 0-1.5h-5.5Zm8.664-9.086l-5.829-5.828a.493.493 0 0 0-.049-.04a.626.626 0 0 1-.036-.03a2.072 2.072 0 0 0-.219-.18a.652.652 0 0 0-.08-.044l-.048-.024l-.05-.029c-.054-.031-.109-.063-.166-.087a1.977 1.977 0 0 0-.624-.138a.56.56 0 0 1-.059-.007a.605.605 0 0 0-.082-.007H6a2 2 0 0 0-2 2v16a2 2 0 0 0 2 2h12a2 2 0 0 0 2-2V9.828a2 2 0 0 0-.586-1.414ZM18.5 20a.5.5 0 0 1-.5.5H6a.5.5 0 0 1-.5-.5V4a.5.5 0 0 1 .5-.5h6V8a2 2 0 0 0 2 2h4.5v10Zm-5-15.379L17.378 8.5H14a.5.5 0 0 1-.5-.5V4.621Z"/></svg>