<svg xmlns="http://www.w3.org/2000/svg" xmlns:xlink="http://www.w3.org/1999/xlink" width="32" height="32" viewBox="0 0 32 32"><path fill="currentColor" d="M5 5a3 3 0 0 1 3-3h10.172a3 3 0 0 1 2.12.879l5.83 5.828c.233.233.424.501.567.792a4.4 4.4 0 0 0-2.104.5L19 4.414V9a1 1 0 0 0 1 1h4.584a4.4 4.4 0 0 0-1.072.794L22.316 12H20a3 3 0 0 1-3-3V4H8a1 1 0 0 0-1 1v22a1 1 0 0 0 1 1h16a1 1 0 0 0 1-1v-5.341l2-1.984V27a3 3 0 0 1-3 3H8a3 3 0 0 1-3-3zm15.037 19.467l8.613-8.543a2.881 2.881 0 1 0-4.074-4.074l-8.57 8.64a2.66 2.66 0 0 0-.687 1.205L14.723 24H9a1 1 0 1 0 0 2h6.5q.172-.001.326-.055l2.941-.756a2.8 2.8 0 0 0 1.27-.722"/></svg>