<svg xmlns="http://www.w3.org/2000/svg" xmlns:xlink="http://www.w3.org/1999/xlink" width="24" height="24" viewBox="0 0 24 24"><path fill="currentColor" d="M18.5 20a.5.5 0 0 1-.5.5h-5.732A6.5 6.5 0 0 1 11.19 22H18a2 2 0 0 0 2-2V9.828a2 2 0 0 0-.586-1.414l-5.829-5.828l-.049-.04l-.036-.03a2 2 0 0 0-.219-.18a1 1 0 0 0-.08-.044l-.048-.024l-.05-.029c-.054-.031-.109-.063-.166-.087a2 2 0 0 0-.624-.138q-.03-.002-.059-.007L12.172 2H6a2 2 0 0 0-2 2v7.498a6.5 6.5 0 0 1 1.5-.422V4a.5.5 0 0 1 .5-.5h6V8a2 2 0 0 0 2 2h4.5zm-5-15.379L17.378 8.5H14a.5.5 0 0 1-.5-.5zM12 17.5a5.5 5.5 0 1 0-11 0a5.5 5.5 0 0 0 11 0M7 18l.001 2.503a.5.5 0 1 1-1 0V18H3.496a.5.5 0 0 1 0-1H6v-2.5a.5.5 0 1 1 1 0V17h2.497a.5.5 0 0 1 0 1z"/></svg>