<svg xmlns="http://www.w3.org/2000/svg" xmlns:xlink="http://www.w3.org/1999/xlink" width="24" height="24" viewBox="0 0 24 24"><path fill="currentColor" d="M12 2v6a2 2 0 0 0 2 2h6v10a2 2 0 0 1-2 2h-6.533c.324-.42.533-.92.533-1.5v-6.207l-.009.007c-.057-.664-.4-1.223-.836-1.65c-.476-.466-1.11-.826-1.803-1.086a8.7 8.7 0 0 0-1.697-.437A11 11 0 0 0 6 11c-.695 0-1.37.065-2 .187V4a2 2 0 0 1 2-2zm-1 18.5c0 .563-.372 1.082-1 1.5c-.912.607-2.364 1-4 1c-2.05 0-3.812-.617-4.584-1.5c-.268-.306-.416-.644-.416-1v-4.008c.31.27.663.493 1.017.67c.576.288 1.25.509 1.983.65a10.5 10.5 0 0 0 2.214.186a10.7 10.7 0 0 0 1.826-.193q.087-.016.173-.036q.408-.09.787-.21q.527-.17.983-.397l.017-.008l.018-.01c.342-.174.683-.391.982-.652zM6 17a9.4 9.4 0 0 1-2-.208c-1.766-.386-3-1.267-3-2.292s1.234-1.906 3-2.292A9.4 9.4 0 0 1 6 12c.523 0 1.026.04 1.5.114A7.7 7.7 0 0 1 9 12.5c1.214.456 2 1.182 2 2c0 .428-.215.83-.594 1.182l-.01.01l-.052.047a3.8 3.8 0 0 1-.808.529A5 5 0 0 1 9 16.5a7 7 0 0 1-1.067.306a9 9 0 0 1-.553.098l-.02.002A10 10 0 0 1 6 17m7.5-14.5V8a.5.5 0 0 0 .5.5h5.5z"/></svg>