<svg xmlns="http://www.w3.org/2000/svg" xmlns:xlink="http://www.w3.org/1999/xlink" width="24" height="24" viewBox="0 0 24 24"><path fill="currentColor" d="M8.75 11.5a.75.75 0 0 0 0 1.5h6.5a.75.75 0 0 0 0-1.5zm0 2.75a.75.75 0 0 0 0 1.5h6.5a.75.75 0 0 0 0-1.5zm0 2.75a.75.75 0 0 0 0 1.5h6.5a.75.75 0 0 0 0-1.5zm4.835-14.414l5.829 5.828A2 2 0 0 1 20 9.828V20a2 2 0 0 1-2 2H6a2 2 0 0 1-2-2V4a2 2 0 0 1 2-2h6.172q.042.001.082.007q.03.005.059.007c.215.015.427.056.624.138c.057.024.112.056.166.087l.05.029l.047.024a1 1 0 0 1 .081.044c.078.053.148.116.219.18l.036.03zM18 20.5a.5.5 0 0 0 .5-.5V10H14a2 2 0 0 1-2-2V3.5H6a.5.5 0 0 0-.5.5v16a.5.5 0 0 0 .5.5zm-.622-12L13.5 4.621V8a.5.5 0 0 0 .5.5z"/></svg>