<svg xmlns="http://www.w3.org/2000/svg" xmlns:xlink="http://www.w3.org/1999/xlink" width="28" height="28" viewBox="0 0 28 28"><path fill="currentColor" d="M14 10V2H6.4A2.4 2.4 0 0 0 4 4.4v8.889a1.64 1.64 0 0 1 1.9 0a1.7 1.7 0 0 1 .59.8L7 15.62c.098.324.273.619.51.86a2 2 0 0 0 .83.52l1.59.47c.312.11.582.316.77.59a1.58 1.58 0 0 1 0 1.85a1.57 1.57 0 0 1-.79.59l-.132.043c-.004.413.18.454.216.458h.005a1.4 1.4 0 0 1 .84.28c.236.166.411.405.5.68l.3.91a.8.8 0 0 0 .22.35q.147.144.34.22l.89.28a1.3 1.3 0 0 1 .66.49a1.37 1.37 0 0 1-.186 1.79H21.6a2.4 2.4 0 0 0 2.4-2.4V12.078L23.999 12H16a2 2 0 0 1-2-2m1.5 0V2.475q.139.104.264.228l7.43 7.43q.171.172.308.367H16a.5.5 0 0 1-.5-.5M3.171 20.828a3.16 3.16 0 0 1 .761 1.24l.498 1.529a.604.604 0 0 0 1.14 0l.498-1.53a3.15 3.15 0 0 1 1.998-1.996l1.53-.497a.604.604 0 0 0 0-1.14l-.03-.008l-1.531-.497a3.15 3.15 0 0 1-1.998-1.996l-.497-1.53a.604.604 0 0 0-1.14 0l-.498 1.53l-.013.038a3.15 3.15 0 0 1-1.955 1.958l-1.53.497a.604.604 0 0 0 0 1.14l1.53.497c.467.155.89.418 1.237.765m8.65 3.53l.918.298l.019.004a.362.362 0 0 1 0 .684l-.919.298a1.9 1.9 0 0 0-1.198 1.198l-.299.918a.363.363 0 0 1-.684 0l-.299-.918a1.89 1.89 0 0 0-1.198-1.202l-.919-.298a.363.363 0 0 1 0-.684l.919-.298a1.9 1.9 0 0 0 1.18-1.198l.298-.918a.363.363 0 0 1 .685 0l.298.918a1.89 1.89 0 0 0 1.199 1.198"/></svg>