<svg xmlns="http://www.w3.org/2000/svg" xmlns:xlink="http://www.w3.org/1999/xlink" width="32" height="32" viewBox="0 0 32 32"><path fill="currentColor" d="M7 13.586V5.25C7 4.56 7.56 4 8.25 4H16v5.75A3.25 3.25 0 0 0 19.25 13H25v13.75c0 .69-.56 1.25-1.25 1.25H16.5c0 .361-.105.715-.3 1.02a2 2 0 0 1-.94.69l-.881.29h9.371A3.25 3.25 0 0 0 27 26.75V11.932a3.25 3.25 0 0 0-.952-2.298l-6.682-6.682A3.25 3.25 0 0 0 17.068 2H8.25A3.25 3.25 0 0 0 5 5.25v8.84q.105-.092.22-.17A2.14 2.14 0 0 1 7 13.586m11-9.172L24.586 11H19.25c-.69 0-1.25-.56-1.25-1.25zM4.488 22.511a3.5 3.5 0 0 1 .837 1.363l.548 1.683a.664.664 0 0 0 1.254 0l.548-1.683a3.47 3.47 0 0 1 2.197-2.196l1.684-.547a.665.665 0 0 0 0-1.254l-.034-.008l-1.684-.547a3.47 3.47 0 0 1-2.197-2.196l-.547-1.683a.664.664 0 0 0-1.255 0l-.547 1.683l-.014.042a3.47 3.47 0 0 1-2.15 2.154l-1.684.547a.665.665 0 0 0 0 1.254l1.684.546c.513.171.979.46 1.36.842m9.333 4.847l.918.298l.019.004a.362.362 0 0 1 0 .684l-.919.298a1.9 1.9 0 0 0-1.198 1.198l-.299.918a.363.363 0 0 1-.684 0l-.299-.918a1.89 1.89 0 0 0-1.198-1.202l-.919-.298a.363.363 0 0 1 0-.684l.919-.298a1.9 1.9 0 0 0 1.18-1.198l.299-.918a.363.363 0 0 1 .684 0l.298.918a1.89 1.89 0 0 0 1.199 1.198"/></svg>