<svg xmlns="http://www.w3.org/2000/svg" xmlns:xlink="http://www.w3.org/1999/xlink" width="16" height="16" viewBox="0 0 16 16"><path fill="currentColor" d="M9 1v3.5A1.5 1.5 0 0 0 10.5 6H14v7.5a1.5 1.5 0 0 1-1.5 1.5H8.663A5.5 5.5 0 0 0 4 5.207V2.5A1.5 1.5 0 0 1 5.5 1zm1 .25V4.5a.5.5 0 0 0 .5.5h3.25zM5.5 15a4.5 4.5 0 1 1 0-9a4.5 4.5 0 0 1 0 9M7 8v.152a3 3 0 0 0-3.621.477a.5.5 0 0 0 .707.707A2 2 0 0 1 6.468 9H6a.5.5 0 0 0 0 1h1.5a.5.5 0 0 0 .5-.5V8a.5.5 0 0 0-1 0m-1.552 5.25a3 3 0 0 0 2.173-.879a.5.5 0 1 0-.707-.707A2 2 0 0 1 4.532 12H5a.5.5 0 0 0 0-1H3.5a.5.5 0 0 0-.5.5V13a.5.5 0 0 0 1 0v-.152a3 3 0 0 0 1.448.401"/></svg>