<svg xmlns="http://www.w3.org/2000/svg" xmlns:xlink="http://www.w3.org/1999/xlink" width="20" height="20" viewBox="0 0 20 20"><path fill="currentColor" d="M6 2a2 2 0 0 0-2 2v12a2 2 0 0 0 2 2h3v-1H6a1 1 0 0 1-1-1V4a1 1 0 0 1 1-1h4v3.5A1.5 1.5 0 0 0 11.5 8H15v1.135A4.3 4.3 0 0 1 15.974 9H16V7.414a1.5 1.5 0 0 0-.44-1.06l-3.914-3.915A1.5 1.5 0 0 0 10.586 2zm8.793 5H11.5a.5.5 0 0 1-.5-.5V3.207zm-4.645 11.852A.48.48 0 0 0 10.5 19h2a.6.6 0 0 0 .273-.07a.37.37 0 0 0 .149-.172a1 1 0 0 0 .062-.235q.016-.125.016-.257V18q.36-.008.563-.023a.47.47 0 0 0 .304-.118a.46.46 0 0 0 .117-.297Q14 17.368 14 17c.5 0 .634.02.766-.07a.5.5 0 0 0 .156-.172a.7.7 0 0 0 .07-.235c.027-.229.008-.464.008-.695q.258.094.523.133q.266.039.54.039a2.87 2.87 0 0 0 2.078-.898q.405-.423.632-.961Q19 13.6 19 13q0-.625-.234-1.172a3 3 0 0 0-.641-.953a3 3 0 0 0-.953-.64A2.9 2.9 0 0 0 16 10q-.61.015-1.148.234a2.9 2.9 0 0 0-.954.625q-.414.407-.656.938a2.7 2.7 0 0 0-.242 1.14q0 .367.086.774l-2.938 2.937A.48.48 0 0 0 10 17v1.5q0 .203.148.352M17.5 12.25c0 .412-.338.75-.75.75a.75.75 0 0 1-.75-.75c0-.412.338-.75.75-.75s.75.338.75.75"/></svg>