<svg xmlns="http://www.w3.org/2000/svg" xmlns:xlink="http://www.w3.org/1999/xlink" width="16" height="16" viewBox="0 0 16 16"><path fill="currentColor" d="m10.878.282l.348 1.071a2.2 2.2 0 0 0 1.398 1.397l1.072.348l.021.006a.423.423 0 0 1 0 .798l-1.071.348a2.2 2.2 0 0 0-1.399 1.397l-.348 1.07a.423.423 0 0 1-.798 0l-.348-1.07a2.2 2.2 0 0 0-1.399-1.403l-1.072-.348a.423.423 0 0 1 0-.798l1.072-.348a2.2 2.2 0 0 0 1.377-1.397l.348-1.07a.423.423 0 0 1 .799 0m4.905 7.931l-.765-.248a1.58 1.58 0 0 1-1-.999l-.248-.764a.302.302 0 0 0-.57 0l-.25.764a1.58 1.58 0 0 1-.983.999l-.765.248a.303.303 0 0 0 0 .57l.765.249a1.58 1.58 0 0 1 1 1.002l.248.764a.302.302 0 0 0 .57 0l.249-.764a1.58 1.58 0 0 1 .999-.999l.765-.248a.303.303 0 0 0 0-.57zm-2.903 3.631c.19.101.402.155.622.156q.221.002.427-.056A3.79 3.79 0 0 1 10.21 15H6a1 1 0 0 1-1-1h5c1.364 0 2.515-.91 2.88-2.156M8.796 1H4.713C3.767 1 3 1.768 3 2.714v8.572C3 12.233 3.767 13 4.713 13h5.574c.946 0 1.713-.768 1.713-1.714v-.978a.5.5 0 0 0-.125-.181a.6.6 0 0 0-.22-.14L11 9.77v1.515c0 .395-.32.714-.713.714H4.713A.714.714 0 0 1 4 11.286V2.714C4 2.32 4.32 2 4.713 2H7.43l.612-.197c.16-.05.32-.16.45-.29s.23-.29.29-.47zm.175 5.5H6l-.09.008A.5.5 0 0 0 6 7.5h3l.09-.008a.5.5 0 0 0 .233-.11a1.4 1.4 0 0 1-.17-.33zm.119 3.999A.5.5 0 0 0 9 9.507H6l-.09.008a.5.5 0 0 0 .09.992h3z"/></svg>