<svg xmlns="http://www.w3.org/2000/svg" xmlns:xlink="http://www.w3.org/1999/xlink" width="20" height="20" viewBox="0 0 20 20"><path fill="currentColor" d="M10 17h4a1 1 0 0 0 1-1V8h-3.5A1.5 1.5 0 0 1 10 6.5V3H6a1 1 0 0 0-1 1v5.041a3 3 0 0 0-1 .36V4a2 2 0 0 1 2-2h4.586a1.5 1.5 0 0 1 1.06.44l3.915 3.914A1.5 1.5 0 0 1 16 7.414V16a2 2 0 0 1-2 2h-4zm4.793-10L11 3.207V6.5a.5.5 0 0 0 .5.5zM3.5 12v1H3a1 1 0 0 0-1 1v4a1 1 0 0 0 1 1h5a1 1 0 0 0 1-1v-4a1 1 0 0 0-1-1h-.5v-1a2 2 0 1 0-4 0m1 1v-1a1 1 0 1 1 2 0v1zm1 2.25a.75.75 0 1 1 0 1.5a.75.75 0 0 1 0-1.5m8-5.25a.5.5 0 0 1 .5.5v5a.5.5 0 0 1-1 0v-5a.5.5 0 0 1 .5-.5m-2 2.5a.5.5 0 0 0-1 0v3a.5.5 0 0 0 1 0z"/></svg>