<svg xmlns="http://www.w3.org/2000/svg" xmlns:xlink="http://www.w3.org/1999/xlink" width="24" height="24" viewBox="0 0 24 24"><path fill="currentColor" d="M10.813 13a2.76 2.76 0 0 0-1.416-1.5h5.853a.75.75 0 0 1 0 1.5zm.778 1.25c.614.298 1.087.84 1.295 1.5h2.364a.75.75 0 0 0 0-1.5zM15.25 17H13v1.5h2.25a.75.75 0 0 0 0-1.5M5.5 4v7.25h-.75q-.392.001-.75.104V4a2 2 0 0 1 2-2h6.172q.042.001.082.007q.03.005.059.007c.215.015.427.056.624.138c.057.024.112.056.166.087l.05.029l.047.024a1 1 0 0 1 .081.044c.078.053.148.116.219.18l.036.03l.049.04l5.829 5.828A2 2 0 0 1 20 9.828V20a2 2 0 0 1-2 2h-5.05q.05-.243.05-.5v-1h5a.5.5 0 0 0 .5-.5V10H14a2 2 0 0 1-2-2V3.5H6a.5.5 0 0 0-.5.5m11.878 4.5L13.5 4.621V8a.5.5 0 0 0 .5.5zM3 15h-.5A1.5 1.5 0 0 0 1 16.5V18h2.5v-.25a.75.75 0 0 1 1.5 0V18h3v-.25a.75.75 0 0 1 1.5 0V18H12v-1.5a1.5 1.5 0 0 0-1.5-1.5H10v-1a1.75 1.75 0 0 0-1.75-1.75h-3.5A1.75 1.75 0 0 0 3 14zm1.5-1a.25.25 0 0 1 .25-.25h3.5a.25.25 0 0 1 .25.25v1h-4zM1 21.5v-2h2.5v.75a.75.75 0 0 0 1.5 0v-.75h3v.75a.75.75 0 0 0 1.5 0v-.75H12v2a1.5 1.5 0 0 1-1.5 1.5h-8A1.5 1.5 0 0 1 1 21.5"/></svg>