<svg xmlns="http://www.w3.org/2000/svg" xmlns:xlink="http://www.w3.org/1999/xlink" width="20" height="20" viewBox="0 0 20 20"><path fill="currentColor" d="M4 4.707V9.5a.5.5 0 0 0 .5.5h4.793L15 15.707V16a1 1 0 0 1-1 1h-.5a.5.5 0 0 0 0 1h.5a2 2 0 0 0 1.905-1.388l1.241 1.242a.5.5 0 0 0 .708-.708l-15-15a.5.5 0 1 0-.708.708zm11 8.172l.61.61A.5.5 0 0 0 16 13v-1a.5.5 0 0 0-1 0zM4.502 2.38l7.62 7.62H15.5a.5.5 0 0 0 .5-.5V8h-4.5A1.5 1.5 0 0 1 10 6.5V2H5.5c-.383 0-.733.144-.998.38M11 2.25V6.5a.5.5 0 0 0 .5.5h4.25zM5 12a.5.5 0 0 0-1 0v1a.5.5 0 0 0 1 0zm0 3.5a.5.5 0 0 0-1 0v.5a2 2 0 0 0 2 2h.5a.5.5 0 0 0 0-1H6a1 1 0 0 1-1-1zm6 1.5H9a.5.5 0 0 0 0 1h2a.5.5 0 0 0 0-1"/></svg>