<svg xmlns="http://www.w3.org/2000/svg" xmlns:xlink="http://www.w3.org/1999/xlink" width="24" height="24" viewBox="0 0 24 24"><path fill="currentColor" d="M8.75 11a.75.75 0 0 1 .75.75v2.916a4.8 4.8 0 0 0-1.25-.166H8v-2.75a.75.75 0 0 1 .75-.75M5.5 14.5V4a.5.5 0 0 1 .5-.5h6V8a2 2 0 0 0 2 2h4.5v10a.5.5 0 0 1-.5.5h-5.166a4.7 4.7 0 0 1-.71 1.5H18a2 2 0 0 0 2-2V9.828a2 2 0 0 0-.586-1.414l-1.173-1.173l-.02-.021l-4.854-4.854A1.25 1.25 0 0 0 12.483 2H6a2 2 0 0 0-2 2v10.559a5 5 0 0 1 .75-.059zm7.25 3.225V14.75a.75.75 0 0 0-1.5 0v.817a4.76 4.76 0 0 1 1.5 2.158M15.25 12a.75.75 0 0 1 .75.75v5.5a.75.75 0 0 1-1.5 0v-5.5a.75.75 0 0 1 .75-.75M13.5 4.621L17.378 8.5H14a.5.5 0 0 1-.5-.5zM8.25 15.5a3.75 3.75 0 0 1 .202 7.495L8.253 23v.005a.75.75 0 0 1-.108-1.493l.102-.007l.003-.005a2.25 2.25 0 0 0 .154-4.495L8.25 17a.75.75 0 0 1-.102-1.493zm-3.5 0a.75.75 0 0 1 .102 1.493L4.75 17a2.25 2.25 0 0 0-.154 4.495l.154.005a.75.75 0 0 1 .102 1.493L4.75 23a3.75 3.75 0 0 1-.2-7.495zm3.5 3a.75.75 0 0 1 .102 1.493L8.25 20h-3.5a.75.75 0 0 1-.102-1.493l.102-.007z"/></svg>