<svg xmlns="http://www.w3.org/2000/svg" xmlns:xlink="http://www.w3.org/1999/xlink" width="20" height="20" viewBox="0 0 20 20"><path fill="currentColor" d="M6 2.5A1.5 1.5 0 0 0 4.5 4v12A1.5 1.5 0 0 0 6 17.5h3.89a5.5 5.5 0 0 1 5.61-8.41V4A1.5 1.5 0 0 0 14 2.5zM8 10a1 1 0 1 1-2 0a1 1 0 0 1 2 0m6.5 9a4.5 4.5 0 1 0 0-9a4.5 4.5 0 0 0 0 9m.354-2.146a.5.5 0 0 1-.708-.708L15.293 15H12.5a.5.5 0 0 1 0-1h2.793l-1.147-1.146a.5.5 0 0 1 .708-.708l2 2a.5.5 0 0 1 .146.351v.006a.5.5 0 0 1-.144.348l-.003.003z"/></svg>