<svg xmlns="http://www.w3.org/2000/svg" xmlns:xlink="http://www.w3.org/1999/xlink" width="24" height="24" viewBox="0 0 24 24"><path fill="currentColor" d="m13.94 5l5.061 5.06L9.063 20a2.25 2.25 0 0 1-1 .58l-5.115 1.395a.75.75 0 0 1-.92-.921l1.394-5.116a2.25 2.25 0 0 1 .58-.999zm-7.414 6l-1.5 1.5H2.75a.75.75 0 0 1 0-1.5zm14.352-8.174l.153.144l.145.153a3.58 3.58 0 0 1-.145 4.908l-.97.969L15 3.94l.97-.97a3.58 3.58 0 0 1 4.908-.144M10.526 7l-1.5 1.5H2.75a.75.75 0 1 1 0-1.5zm4-4l-1.5 1.5H2.75a.75.75 0 1 1 0-1.5z"/></svg>