<svg xmlns="http://www.w3.org/2000/svg" xmlns:xlink="http://www.w3.org/1999/xlink" width="20" height="20" viewBox="0 0 20 20"><path fill="currentColor" d="M10.716 11H6.28l2.219-6.214zm.357 1l.228.64l.783-.783l-3.021-8.463a.6.6 0 0 0-1.13 0L4.027 14.336a.5.5 0 0 0 .942.336L5.922 12zm4.734-2.452l-4.83 4.83a2.2 2.2 0 0 0-.578 1.02l-.374 1.498a1 1 0 0 0-.024.14a4.6 4.6 0 0 1-1.111-.088c-.073-.017-.1-.11-.066-.177c.18-.349.233-1.074-.404-1.33c-.86-.346-1.978.125-2.862.497c-.366.154-.692.291-.944.347c-.387.085-.848-.066-1.216-.25c-.212-.106-.482.082-.36.286c.219.367.614.737 1.326.825c.82.102 1.391-.151 1.975-.41c.4-.178.805-.358 1.3-.428c.086-.012.145.09.112.17c-.152.357-.133.894.316 1.245c.518.404 2.191.51 3.313.183l1.221-.306c.387-.096.74-.296 1.021-.578l4.83-4.83a1.87 1.87 0 1 0-2.645-2.644"/></svg>