<svg xmlns="http://www.w3.org/2000/svg" xmlns:xlink="http://www.w3.org/1999/xlink" width="12" height="12" viewBox="0 0 12 12"><path fill="currentColor" d="M6 1a.5.5 0 0 1 .354.146v.002A15 15 0 0 1 8.1 3.217C8.806 4.244 9.5 5.597 9.5 7c0 1.337-.36 2.352-1.019 3.035C7.821 10.718 6.928 11 6 11s-1.822-.282-2.481-.965S2.5 8.337 2.5 7c0-1.403.694-2.756 1.4-3.783a15 15 0 0 1 1.745-2.07h.001A.5.5 0 0 1 6 1m0 1.216c-.338.358-.821.907-1.275 1.567C4.055 4.756 3.5 5.903 3.5 7c0 1.163.311 1.898.738 2.34S5.271 10 6 10s1.335-.218 1.762-.66S8.5 8.163 8.5 7c0-1.097-.556-2.244-1.225-3.217A13.4 13.4 0 0 0 6 2.216"/></svg>