<svg xmlns="http://www.w3.org/2000/svg" xmlns:xlink="http://www.w3.org/1999/xlink" width="24" height="24" viewBox="0 0 24 24"><path fill="currentColor" d="M10.019 6.002a6.6 6.6 0 0 0 .058 1.5H3.75a.25.25 0 0 0-.25.25v12.494c0 .138.112.25.25.25h7.498l-.001-10.167a6.6 6.6 0 0 0 1.5 1.479v8.69h7.498a.25.25 0 0 0 .25-.25v-8.62a6.5 6.5 0 0 0 1.501-1.656V20.25a1.75 1.75 0 0 1-1.75 1.75h-8.998l-.001-.003H3.75A1.75 1.75 0 0 1 2 20.246V7.751c0-.966.784-1.75 1.75-1.75zm6.22 11.498a.75.75 0 0 1 .101 1.493l-.1.007h-1.5a.75.75 0 0 1-.102-1.493l.102-.007zm-6.996 0a.75.75 0 0 1 .102 1.493L9.243 19H7.74a.75.75 0 0 1-.102-1.493l.102-.007zM16.5 1a5.5 5.5 0 1 1 0 11a5.5 5.5 0 0 1 0-11m.292 2.545l-.076.044l-.07.057l-.057.07a.5.5 0 0 0 0 .568l.057.07l1.646 1.645L13.494 6l-.09.008a.5.5 0 0 0-.402.402l-.008.09l.008.09a.5.5 0 0 0 .402.402l.09.008l4.8-.001l-1.648 1.647l-.057.07a.5.5 0 0 0 .695.695l.07-.057l2.53-2.533l.036-.05l.042-.08l.026-.083l.01-.064v-.088l-.01-.064l-.026-.083l-.041-.08l-.038-.05l-2.53-2.533l-.069-.057a.5.5 0 0 0-.492-.044"/></svg>