<svg xmlns="http://www.w3.org/2000/svg" xmlns:xlink="http://www.w3.org/1999/xlink" width="20" height="20" viewBox="0 0 20 20"><path fill="currentColor" d="M19 5.5a4.5 4.5 0 1 1-9 0a4.5 4.5 0 0 1 9 0m-4.854-2.353l-2 2a.5.5 0 0 0 .708.707L14 4.707V7.5a.5.5 0 0 0 1 0V4.707l1.146 1.147a.5.5 0 0 0 .708-.708l-2-2A.5.5 0 0 0 14.503 3h-.006a.5.5 0 0 0-.348.144zM14.5 11c1.33 0 2.55-.472 3.5-1.257V16a2 2 0 0 1-2 2h-5.5V9.275a5.5 5.5 0 0 0 4 1.725m-5-3.206A5.5 5.5 0 0 1 9.022 6H4a2 2 0 0 0-2 2v8a2 2 0 0 0 2 2h5.5zM6 15.5a.5.5 0 0 1 .5-.5h1a.5.5 0 0 1 0 1h-1a.5.5 0 0 1-.5-.5m6.5-.5a.5.5 0 0 0 0 1h1a.5.5 0 0 0 0-1z"/></svg>