<svg xmlns="http://www.w3.org/2000/svg" xmlns:xlink="http://www.w3.org/1999/xlink" width="24" height="24" viewBox="0 0 24 24"><path fill="currentColor" d="M17.766 7.802a.75.75 0 1 1-1.061 1.061l-1.57-1.57a.75.75 0 1 1 1.06-1.06l1.57 1.57Zm-8.373 9.433a.75.75 0 0 0 0-1.06l-1.57-1.57a.75.75 0 1 0-1.06 1.06l1.57 1.57a.75.75 0 0 0 1.06 0Zm11.544-14.15a1.941 1.941 0 0 0-2.746 0l-.67.67l-.208-.207a2.413 2.413 0 0 0-3.661.291a2.936 2.936 0 0 0-2.613 4.963l.717.717l-2.239 2.24l-.717-.718a2.936 2.936 0 0 0-4.963 2.613a2.413 2.413 0 0 0-.291 3.661l.207.208l-.692.692a1.941 1.941 0 0 0 2.745 2.745l.692-.692l.208.207a2.413 2.413 0 0 0 3.66-.291a2.936 2.936 0 0 0 2.613-4.963l-.717-.717l2.24-2.24l.717.718a2.936 2.936 0 0 0 4.963-2.613a2.413 2.413 0 0 0 .291-3.661l-.207-.208l.67-.67a1.941 1.941 0 0 0 0-2.746ZM19.205 5.44l-.624-.624l.671-.671a.441.441 0 1 1 .624.624l-.67.67Zm-5.764 5.764l-2.24 2.24l-.623-.625l2.239-2.239l.624.624Zm-8.003 8.003l-.693.692a.441.441 0 0 1-.624-.623l.693-.693l.624.624ZM14.96 4.608a.913.913 0 0 1 1.292 0l3.16 3.16a.913.913 0 0 1-.362 1.514a.75.75 0 0 0-.45 1.025a1.437 1.437 0 0 1-2.322 1.614l-4.18-4.18a1.436 1.436 0 0 1 1.615-2.321a.75.75 0 0 0 1.025-.45a.906.906 0 0 1 .222-.362Zm-9.253 7.494a1.436 1.436 0 0 1 2.031 0l4.18 4.18a1.436 1.436 0 0 1-1.614 2.321a.75.75 0 0 0-1.025.45a.913.913 0 0 1-1.514.361l-3.16-3.16a.913.913 0 0 1 .362-1.513a.75.75 0 0 0 .45-1.025a1.437 1.437 0 0 1 .29-1.614Z"/></svg>