<svg xmlns="http://www.w3.org/2000/svg" xmlns:xlink="http://www.w3.org/1999/xlink" width="20" height="20" viewBox="0 0 20 20"><path fill="currentColor" d="M17.181 2.927a2.975 2.975 0 0 0-4.259-.054l-9.375 9.375a2.44 2.44 0 0 0-.656 1.194l-.877 3.95a.5.5 0 0 0 .597.597l3.926-.873a2.5 2.5 0 0 0 1.234-.678L10 14.21V13q0-.11.012-.217l-2.948 2.948a1.5 1.5 0 0 1-.744.409l-3.16.702l.708-3.183c.059-.267.193-.511.387-.704l7.996-7.996l2.793 2.792l-.262.262c.391.037.76.148 1.094.32l1.253-1.253a2.975 2.975 0 0 0 .052-4.153m-3.552.653a1.975 1.975 0 0 1 2.793 2.793l-.671.671l-2.793-2.792zM12.5 11v1H12a1 1 0 0 0-1 1v4a1 1 0 0 0 1 1h5a1 1 0 0 0 1-1v-4a1 1 0 0 0-1-1h-.5v-1a2 2 0 1 0-4 0m1 1v-1a1 1 0 1 1 2 0v1zm1 2.25a.75.75 0 1 1 0 1.5a.75.75 0 0 1 0-1.5"/></svg>