<svg xmlns="http://www.w3.org/2000/svg" xmlns:xlink="http://www.w3.org/1999/xlink" width="24" height="24" viewBox="0 0 24 24"><path fill="currentColor" d="M15.891 3.048a3.578 3.578 0 1 1 5.061 5.06L9.002 20.06a3.1 3.1 0 0 1-1.477.826L2.924 21.98a.75.75 0 0 1-.904-.903l1.096-4.602c.133-.559.419-1.07.825-1.476zm4 1.06a2.08 2.08 0 0 0-2.94 0l-.89.892L19 7.94l.891-.892a2.08 2.08 0 0 0 0-2.94M17.94 9L15 6.06l-9.998 10a1.6 1.6 0 0 0-.427.764l-.813 3.415l3.416-.813c.289-.069.553-.216.763-.426zM2.75 3h11.775l-1.5 1.5H2.75a.75.75 0 0 1 0-1.5m0 4h7.776l-1.5 1.5H2.75a.75.75 0 0 1 0-1.5m0 4h3.776l-1.5 1.5H2.75a.75.75 0 0 1 0-1.5"/></svg>