<svg xmlns="http://www.w3.org/2000/svg" xmlns:xlink="http://www.w3.org/1999/xlink" width="20" height="20" viewBox="0 0 20 20"><path fill="currentColor" d="M17.18 2.927a2.975 2.975 0 0 0-4.26-.054l-9.375 9.375a2.44 2.44 0 0 0-.655 1.194l-.878 3.95a.5.5 0 0 0 .597.597l3.926-.873a2.5 2.5 0 0 0 1.234-.678L8.207 16a5.5 5.5 0 0 1-.2-1.214l-.945.945a1.5 1.5 0 0 1-.744.409l-3.16.702l.708-3.183c.059-.267.193-.511.387-.704l7.996-7.996l2.793 2.792l-1.256 1.256q.629.034 1.214.2l2.127-2.127a2.975 2.975 0 0 0 .052-4.153m-3.553.653a1.975 1.975 0 0 1 2.793 2.793l-.671.671l-2.793-2.792zm-2.56 7.863a2 2 0 0 1-1.431 2.478l-.461.118a4.7 4.7 0 0 0 .01 1.016l.35.083a2 2 0 0 1 1.456 2.519l-.127.422q.387.307.835.518l.325-.344a2 2 0 0 1 2.91.002l.337.358q.44-.203.822-.498l-.156-.556a2 2 0 0 1 1.43-2.479l.46-.117a4.7 4.7 0 0 0-.01-1.017l-.348-.082a2 2 0 0 1-1.456-2.52l.126-.421a4.3 4.3 0 0 0-.835-.519l-.325.344a2 2 0 0 1-2.91-.001l-.337-.358a4.3 4.3 0 0 0-.821.497zM13.5 15.5a1 1 0 1 1 0-2a1 1 0 0 1 0 2"/></svg>