<svg xmlns="http://www.w3.org/2000/svg" xmlns:xlink="http://www.w3.org/1999/xlink" width="32" height="32" viewBox="0 0 32 32"><path fill="currentColor" d="M28.565 3.434a4.89 4.89 0 0 0-6.915 0L4.357 20.73a3.7 3.7 0 0 0-1.002 1.84l-1.333 6.22a1 1 0 0 0 1.188 1.188l6.22-1.333a3.7 3.7 0 0 0 1.84-1.002l2.096-2.095A9 9 0 0 1 13 23.085l-3.143 3.144a1.7 1.7 0 0 1-.846.46L4.3 27.7l1.01-4.71a1.7 1.7 0 0 1 .46-.846l14.978-14.98l4.086 4.086L22.085 14a9 9 0 0 1 2.462.365l4.018-4.017a4.89 4.89 0 0 0 0-6.914m-5.5 1.414a2.89 2.89 0 0 1 4.085 4.086l-.9.9l-4.086-4.085zM22 30.5a7.5 7.5 0 1 0 0-15a7.5 7.5 0 0 0 0 15m0-2a5.47 5.47 0 0 1-3.117-.968l7.649-7.65A5.5 5.5 0 0 1 22 28.5m3.118-10.032l-7.65 7.65a5.5 5.5 0 0 1 7.65-7.65"/></svg>