<svg xmlns="http://www.w3.org/2000/svg" xmlns:xlink="http://www.w3.org/1999/xlink" width="20" height="20" viewBox="0 0 20 20"><path fill="currentColor" d="M5.5 1a.5.5 0 0 1 .5.5v5a.5.5 0 0 0 1 0v-4a.5.5 0 0 1 1 0v4.251q.147-.038.313-.06c.316-.04.688-.021 1.067.137c.382.159.737.447 1.036.895a.5.5 0 0 1-.219.737c-1.503.644-2.29 1.572-2.708 2.366C6.945 11.858 5.887 13 4.5 13h-.264A2.5 2.5 0 0 1 2 11.618l-.63-1.261A3.5 3.5 0 0 1 1 8.792V2.5a.5.5 0 0 1 1 0v4a.5.5 0 0 0 1 0v-5a.5.5 0 0 1 1 0v5a.5.5 0 0 0 1 0v-5a.5.5 0 0 1 .5-.5m2.874 10.292a6 6 0 0 1-1.35 1.716a5.5 5.5 0 1 0 4.21-5.862l.014.022a1.5 1.5 0 0 1-.657 2.21c-1.279.549-1.899 1.31-2.217 1.914M10.75 12.5a.75.75 0 1 1 0-1.5a.75.75 0 0 1 0 1.5m4.25-.75a.75.75 0 1 1-1.5 0a.75.75 0 0 1 1.5 0m-4.053 2.526c.086.172.55.724 1.553.724s1.467-.552 1.553-.724a.5.5 0 1 1 .894.448C14.7 15.219 13.897 16 12.5 16s-2.2-.781-2.447-1.276a.5.5 0 1 1 .894-.448"/></svg>