<svg xmlns="http://www.w3.org/2000/svg" xmlns:xlink="http://www.w3.org/1999/xlink" width="32" height="32" viewBox="0 0 32 32"><path fill="currentColor" d="M21.488 7.511a3.5 3.5 0 0 1 .837 1.363l.548 1.682a.664.664 0 0 0 1.254 0l.548-1.682a3.47 3.47 0 0 1 2.197-2.196l1.684-.547a.665.665 0 0 0 0-1.254l-.034-.008l-1.683-.547a3.47 3.47 0 0 1-2.198-2.196L24.094.444a.665.665 0 0 0-1.255 0l-.547 1.682l-.014.042a3.47 3.47 0 0 1-2.15 2.154l-1.684.547a.665.665 0 0 0 0 1.254l1.684.546c.513.171.979.46 1.36.842m9.333 4.847l.918.298l.019.004a.362.362 0 0 1 0 .684l-.919.299a1.9 1.9 0 0 0-.937.688v.004q-.168.234-.26.509l-.3.918a.363.363 0 0 1-.684 0l-.3-.918a1.9 1.9 0 0 0-.517-.8v-.007a1.9 1.9 0 0 0-.68-.4l-.919-.297a.362.362 0 0 1 0-.684l.919-.299a1.89 1.89 0 0 0 1.177-1.197l.114-.348h.002l.186-.57a.363.363 0 0 1 .684 0l.298.918a1.89 1.89 0 0 0 1.199 1.197M17.053 4.046Q16.533 4 16 4C9.373 4 4 9.373 4 16s5.373 12 12 12c6.234 0 11.358-4.754 11.944-10.835a1.86 1.86 0 0 0 2.002.07C29.321 24.39 23.316 30 16 30C8.268 30 2 23.732 2 16S8.268 2 16 2c1.449 0 2.846.22 4.16.628a2 2 0 0 1-.52.272l-1.659.538c-.358.12-.677.33-.928.608M14 13a2 2 0 1 1-4 0a2 2 0 0 1 4 0m6 2a2 2 0 1 0 0-4a2 2 0 0 0 0 4M9.553 19.106a1 1 0 0 1 1.338.44l.003.006l.034.058c.035.057.093.146.177.259c.169.225.44.536.832.85C12.71 21.337 13.993 22 16 22s3.29-.663 4.063-1.28c.393-.315.664-.626.832-.851a3 3 0 0 0 .211-.317l.004-.007a1 1 0 0 1 1.785.902v.001l-.002.002v.002l-.004.006l-.008.015l-.011.022l-.012.02l-.076.133c-.066.107-.16.252-.287.42a6.8 6.8 0 0 1-1.183 1.213C20.21 23.163 18.493 24 16 24s-4.21-.837-5.312-1.72a6.8 6.8 0 0 1-1.183-1.211a5 5 0 0 1-.386-.596l-.008-.015l-.003-.006l-.001-.003l-.001-.002a1 1 0 0 1 .447-1.341"/></svg>