<svg xmlns="http://www.w3.org/2000/svg" xmlns:xlink="http://www.w3.org/1999/xlink" width="32" height="32" viewBox="0 0 32 32"><path fill="currentColor" d="M2 16C2 8.268 8.268 2 16 2s14 6.268 14 14s-6.268 14-14 14S2 23.732 2 16m10-1a2 2 0 1 0 0-4a2 2 0 0 0 0 4m10-2a2 2 0 1 0-4 0a2 2 0 0 0 4 0M9.553 19.106a1 1 0 0 0-.447 1.341v.003l.002.002l.003.006l.008.015a3 3 0 0 0 .1.175c.065.107.16.252.286.42a6.8 6.8 0 0 0 1.183 1.213C11.79 23.163 13.508 24 16 24s4.21-.837 5.312-1.72a6.8 6.8 0 0 0 1.183-1.211a5 5 0 0 0 .386-.596l.008-.015l.003-.006l.002-.003v-.002a1 1 0 0 0-1.784-.902l-.004.007l-.034.058a3 3 0 0 1-.177.259c-.168.225-.44.536-.832.85C19.29 21.337 18.007 22 16 22s-3.29-.663-4.063-1.28a4.8 4.8 0 0 1-.832-.851a3 3 0 0 1-.21-.317l-.004-.007a1 1 0 0 0-1.338-.44"/></svg>