<svg xmlns="http://www.w3.org/2000/svg" xmlns:xlink="http://www.w3.org/1999/xlink" width="24" height="24" viewBox="0 0 24 24"><path fill="currentColor" d="M8.5 2a6.503 6.503 0 0 1 6.312 4.943a8.02 8.02 0 0 0-1.506.171a5 5 0 1 0-6.191 6.191a8.053 8.053 0 0 0-.172 1.507A6.5 6.5 0 0 1 8.5 2Zm.16 8.006a8.081 8.081 0 0 1 1.202-1.23a3.5 3.5 0 0 0-4.022.95a.75.75 0 1 0 1.14.974a2 2 0 0 1 1.68-.694ZM7.5 6.5a1 1 0 1 1-2 0a1 1 0 0 1 2 0Zm4 0a1 1 0 1 1-2 0a1 1 0 0 1 2 0Zm1 8a1 1 0 1 0 0-2a1 1 0 0 0 0 2Zm5.458 2.042a.75.75 0 0 1 .082 1.058a4 4 0 0 1-6.075.005a.75.75 0 0 1 1.138-.977a2.499 2.499 0 0 0 3.797-.003a.75.75 0 0 1 1.058-.083ZM17.5 14.5a1 1 0 1 0 0-2a1 1 0 0 0 0 2ZM15 22a7 7 0 1 0 0-14a7 7 0 0 0 0 14Zm0-1.5a5.5 5.5 0 1 1 0-11a5.5 5.5 0 0 1 0 11Z"/></svg>