<svg xmlns="http://www.w3.org/2000/svg" xmlns:xlink="http://www.w3.org/1999/xlink" width="48" height="48" viewBox="0 0 48 48"><path fill="currentColor" d="M4 24C4 12.954 12.954 4 24 4c10.478 0 19.074 8.057 19.93 18.314a5.98 5.98 0 0 0-6.173 1.472l-5.137 5.218a1.24 1.24 0 0 0-.933.589A9.21 9.21 0 0 1 24 33.5a9.22 9.22 0 0 1-7.687-3.907a1.248 1.248 0 1 0-2.13 1.307A11.72 11.72 0 0 0 24 36a12 12 0 0 0 1.854-.124l-1.608 1.633a5 5 0 0 0-1.277 2.253l-.839 3.235q-.118.459-.13.904C11.893 42.898 4 34.371 4 24m13.5-2a2.5 2.5 0 1 0 0-5a2.5 2.5 0 0 0 0 5M33 19.5a2.5 2.5 0 1 0-5 0a2.5 2.5 0 0 0 5 0m11.834 5.668a3.98 3.98 0 0 0-5.652.022L25.671 38.913a3 3 0 0 0-.767 1.351l-.838 3.234c-.383 1.477.961 2.82 2.437 2.438l3.235-.839a3 3 0 0 0 1.351-.766L44.812 30.82a3.98 3.98 0 0 0 .022-5.651"/></svg>