<svg xmlns="http://www.w3.org/2000/svg" xmlns:xlink="http://www.w3.org/1999/xlink" width="48" height="48" viewBox="0 0 48 48"><path fill="currentColor" d="M20.099 4.38a1.25 1.25 0 1 0 .485 2.453a17.665 17.665 0 0 1 6.833 0a1.25 1.25 0 1 0 .485-2.452a20.17 20.17 0 0 0-7.803 0Zm-5.821 5.067a1.25 1.25 0 1 0-1.39-2.078a20.104 20.104 0 0 0-5.518 5.518a1.25 1.25 0 1 0 2.077 1.39a17.604 17.604 0 0 1 4.83-4.83Zm20.835-2.078a1.25 1.25 0 0 0-1.39 2.078a17.603 17.603 0 0 1 4.83 4.83a1.25 1.25 0 1 0 2.078-1.39a20.103 20.103 0 0 0-5.517-5.518ZM6.834 20.583a1.25 1.25 0 0 0-2.452-.485a20.171 20.171 0 0 0 0 7.804a1.25 1.25 0 0 0 2.452-.485a17.664 17.664 0 0 1 0-6.834Zm36.787-.485a1.25 1.25 0 0 0-2.453.485a17.664 17.664 0 0 1 0 6.834a1.25 1.25 0 0 0 2.453.485a20.17 20.17 0 0 0 0-7.804ZM9.447 33.722a1.25 1.25 0 1 0-2.077 1.391a20.104 20.104 0 0 0 5.517 5.518a1.25 1.25 0 0 0 1.39-2.078a17.604 17.604 0 0 1-4.83-4.83Zm31.184 1.391a1.25 1.25 0 1 0-2.078-1.39a17.603 17.603 0 0 1-4.83 4.83a1.25 1.25 0 0 0 1.39 2.078a20.103 20.103 0 0 0 5.518-5.518Zm-20.047 6.054a1.25 1.25 0 1 0-.485 2.452a20.17 20.17 0 0 0 7.803 0a1.25 1.25 0 1 0-.485-2.452a17.664 17.664 0 0 1-6.833 0ZM39 24c0 8.284-6.715 15-15 15c-8.284 0-15-6.716-15-15c0-8.284 6.716-15 15-15c8.285 0 15 6.716 15 15Zm-18.5-4.25a2.25 2.25 0 1 0-4.5 0a2.25 2.25 0 0 0 4.5 0ZM29.75 22a2.25 2.25 0 1 0 0-4.5a2.25 2.25 0 0 0 0 4.5Zm-14.049 7.27a1.25 1.25 0 0 0-.162 1.76A10.98 10.98 0 0 0 24 35a10.98 10.98 0 0 0 8.461-3.97a1.25 1.25 0 1 0-1.922-1.599A8.48 8.48 0 0 1 24 32.5a8.48 8.48 0 0 1-6.539-3.069a1.25 1.25 0 0 0-1.76-.162Z"/></svg>