<svg xmlns="http://www.w3.org/2000/svg" xmlns:xlink="http://www.w3.org/1999/xlink" width="16" height="16" viewBox="0 0 16 16"><path fill="currentColor" d="m13.798 2.217l-.015-.004l-.765-.248a1.58 1.58 0 0 1-1-.999L11.77.202a.302.302 0 0 0-.57 0l-.25.764a1.58 1.58 0 0 1-.983.999l-.594.193H9.37l-.172.055a.3.3 0 0 0-.146.111a.3.3 0 0 0 .146.459l.767.249l.083.03l.008.002a1.58 1.58 0 0 1 .908.97l.25.764a.3.3 0 0 0 .284.202h.005a.3.3 0 0 0 .281-.202l.249-.764a1.58 1.58 0 0 1 .999-.999l.765-.248a.303.303 0 0 0 0-.57m1.416 3.355l.612.199l.013.003a.242.242 0 0 1 0 .455l-.613.2a1.26 1.26 0 0 0-.799.798l-.199.612a.24.24 0 0 1-.235.16a.24.24 0 0 1-.224-.16l-.2-.612a1.26 1.26 0 0 0-.8-.8l-.613-.2a.24.24 0 0 1-.117-.088a.25.25 0 0 1 .122-.368l.613-.2a1.26 1.26 0 0 0 .787-.798l.199-.612a.242.242 0 0 1 .456 0l.199.612a1.26 1.26 0 0 0 .799.799M8 14a6 6 0 0 0 5.918-5.003a1.24 1.24 0 0 1-1.09-.849l-.2-.608a.26.26 0 0 0-.163-.162l-.637-.206A1.24 1.24 0 0 1 11 6v-.1a1.3 1.3 0 0 1-.736-.792l-.248-.761a.54.54 0 0 0-.139-.227a.6.6 0 0 0-.219-.137l-.789-.257a1.3 1.3 0 0 1-.77-1.725L8 2a6 6 0 1 0 0 12M6.25 7.75a.75.75 0 1 1 0-1.5a.75.75 0 0 1 0 1.5m-.114 1.917A2.5 2.5 0 0 0 8 10.5c.74 0 1.405-.321 1.864-.833a.5.5 0 1 1 .745.667A3.5 3.5 0 0 1 8 11.5a3.5 3.5 0 0 1-2.609-1.166a.5.5 0 0 1 .745-.667M9.75 7.75a.75.75 0 1 1 0-1.5a.75.75 0 0 1 0 1.5M11.5 5"/></svg>