<svg xmlns="http://www.w3.org/2000/svg" xmlns:xlink="http://www.w3.org/1999/xlink" width="16" height="16" viewBox="0 0 16 16"><path fill="currentColor" d="M6.25 7.75a.75.75 0 1 0 0-1.5a.75.75 0 0 0 0 1.5m-.114 1.917a.5.5 0 1 0-.745.667q.296.329.664.576q.103-.125.218-.24l.494-.495a2.5 2.5 0 0 1-.63-.508M3 8c0 1.81.962 3.396 2.402 4.273l-.252 1.008a6 6 0 1 1 8.048-8.28a2.9 2.9 0 0 0-1.069.179A5 5 0 0 0 3 8m6.75-1.75a.75.75 0 0 1 .618.325L9.325 7.618A.75.75 0 0 1 9.75 6.25m-2.77 5.127l4.83-4.83a1.87 1.87 0 1 1 2.644 2.646l-4.83 4.829a2.2 2.2 0 0 1-1.02.578l-1.498.374a.89.89 0 0 1-1.079-1.078l.375-1.498a2.2 2.2 0 0 1 .578-1.02"/></svg>