<svg xmlns="http://www.w3.org/2000/svg" xmlns:xlink="http://www.w3.org/1999/xlink" width="20" height="20" viewBox="0 0 20 20"><path fill="currentColor" d="m15.226 1.353l-.348-1.07a.423.423 0 0 0-.799 0l-.348 1.07a2.2 2.2 0 0 1-1.377 1.397l-1.071.348a.423.423 0 0 0 0 .798l1.071.348a2.2 2.2 0 0 1 1.399 1.403l.348 1.07a.423.423 0 0 0 .798 0l.349-1.07a2.2 2.2 0 0 1 1.398-1.397l1.072-.348a.423.423 0 0 0 0-.798l-.022-.006l-1.072-.348a2.2 2.2 0 0 1-1.398-1.397m3.791 6.612l.766.248l.015.004a.303.303 0 0 1 0 .57l-.765.248a1.58 1.58 0 0 0-1 .999l-.248.764a.302.302 0 0 1-.57 0v-.002l-.249-.762a1.58 1.58 0 0 0-.999-1.002l-.765-.249a.303.303 0 0 1 0-.57l.765-.248a1.58 1.58 0 0 0 .984-.999l.249-.764a.302.302 0 0 1 .57 0l.249.764a1.58 1.58 0 0 0 .999.999m-2.244 3.811a1.3 1.3 0 0 0 .98.201a8 8 0 1 1-6.587-9.893l-.192.063a1.44 1.44 0 0 0-.884.854L10 3a7 7 0 1 0 6.773 8.776M12.5 7.5a1 1 0 1 1 0 2a1 1 0 0 1 0-2m-5 0a1 1 0 1 1 0 2a1 1 0 0 1 0-2m-.611 5.015a.5.5 0 1 0-.778.629A5 5 0 0 0 10 15c1.57 0 2.973-.726 3.889-1.857a.5.5 0 1 0-.778-.63A4 4 0 0 1 10 14.002a4 4 0 0 1-3.111-1.486"/></svg>