<svg xmlns="http://www.w3.org/2000/svg" xmlns:xlink="http://www.w3.org/1999/xlink" width="48" height="48" viewBox="0 0 48 48"><path fill="currentColor" d="M20.099 4.38a1.25 1.25 0 1 0 .485 2.453a17.7 17.7 0 0 1 6.833 0a1.25 1.25 0 1 0 .485-2.452a20.2 20.2 0 0 0-7.803 0m-5.821 5.067a1.25 1.25 0 1 0-1.39-2.078a20.1 20.1 0 0 0-5.518 5.518a1.25 1.25 0 1 0 2.077 1.39a17.6 17.6 0 0 1 4.83-4.83M35.113 7.37a1.25 1.25 0 0 0-1.391 2.078a17.6 17.6 0 0 1 4.83 4.83a1.25 1.25 0 1 0 2.078-1.39a20.1 20.1 0 0 0-5.517-5.518M6.834 20.583a1.25 1.25 0 0 0-2.453-.485a20.2 20.2 0 0 0 0 7.804a1.25 1.25 0 0 0 2.452-.485a17.7 17.7 0 0 1 0-6.834m36.786-.485a1.25 1.25 0 0 0-2.453.485a17.7 17.7 0 0 1 0 6.834a1.25 1.25 0 0 0 2.453.485a20.2 20.2 0 0 0 0-7.804M9.447 33.722a1.25 1.25 0 1 0-2.077 1.391a20.1 20.1 0 0 0 5.517 5.518a1.25 1.25 0 0 0 1.39-2.078a17.6 17.6 0 0 1-4.83-4.83m31.184 1.391a1.25 1.25 0 1 0-2.078-1.39a17.6 17.6 0 0 1-4.83 4.83a1.25 1.25 0 0 0 1.39 2.078a20.1 20.1 0 0 0 5.518-5.518m-20.047 6.054a1.25 1.25 0 1 0-.485 2.452a20.2 20.2 0 0 0 7.803 0a1.25 1.25 0 1 0-.485-2.452a17.7 17.7 0 0 1-6.833 0M18.25 22a2.25 2.25 0 1 0 0-4.5a2.25 2.25 0 0 0 0 4.5M32 19.75a2.25 2.25 0 1 1-4.5 0a2.25 2.25 0 0 1 4.5 0m-14.539 9.681a1.25 1.25 0 1 0-1.922 1.599A10.98 10.98 0 0 0 24 35a10.98 10.98 0 0 0 8.461-3.97a1.25 1.25 0 1 0-1.922-1.599A8.48 8.48 0 0 1 24 32.5a8.48 8.48 0 0 1-6.539-3.069"/></svg>