<svg xmlns="http://www.w3.org/2000/svg" xmlns:xlink="http://www.w3.org/1999/xlink" width="24" height="24" viewBox="0 0 24 24"><path fill="currentColor" d="M14.74 5.457a2.84 2.84 0 0 1 1.8 1.803l.448 1.377A.544.544 0 0 0 18 8.671l.001-.003l.012-.021l.049-.151l-.001-.005l.4-1.23c.128-.385.336-.737.611-1.033l.013-.007a2.9 2.9 0 0 1 .676-.53l-.004-.005q.24-.135.502-.222l1.378-.448a.544.544 0 0 0 0-1.025l-.028-.007l-1.378-.448a2.84 2.84 0 0 1-1.798-1.796L17.987.363a.544.544 0 0 0-1.027 0l-.448 1.377l-.011.034a2.84 2.84 0 0 1-1.76 1.76l-1.377.448a.543.543 0 0 0 0 1.027zm9.043 4.756l-.766-.248a1.58 1.58 0 0 1-.998-.999l-.25-.764a.302.302 0 0 0-.57 0l-.248.764a1.58 1.58 0 0 1-.984.999l-.096.03h-.004l-.667.217a.3.3 0 0 0-.202.286a.3.3 0 0 0 .204.285l.763.248a1.58 1.58 0 0 1 .83.643q.106.166.17.357l.249.765a.3.3 0 0 0 .111.149a.302.302 0 0 0 .46-.147l.249-.764a1.58 1.58 0 0 1 .999-.999l.765-.248a.302.302 0 0 0 0-.57zM12 22.001c4.85 0 8.895-3.453 9.808-8.036a1.3 1.3 0 0 1-1.545-.856l-.248-.762a.57.57 0 0 0-.358-.363l-.79-.257a1.3 1.3 0 0 1-.692-1.881a1.546 1.546 0 0 1-2.14-.9l-.447-1.373a1.8 1.8 0 0 0-.443-.721a1.84 1.84 0 0 0-.714-.444l-1.4-.455a1.544 1.544 0 0 1 .023-2.92l1.36-.442q.21-.073.397-.192a10 10 0 0 0-2.811-.4c-5.524-.001-10.002 4.477-10.002 10c0 5.524 4.478 10.002 10.002 10.002m-4.592-7.343a.75.75 0 0 1 1.053.125A4.5 4.5 0 0 0 12 16.5a4.49 4.49 0 0 0 3.534-1.714a.75.75 0 1 1 1.178.93A5.99 5.99 0 0 1 12 18a5.99 5.99 0 0 1-4.717-2.29a.75.75 0 0 1 .125-1.053M7.751 10a1.25 1.25 0 1 1 2.498 0a1.25 1.25 0 0 1-2.498 0m6 0a1.25 1.25 0 1 1 2.498 0a1.25 1.25 0 0 1-2.498 0"/></svg>