<svg xmlns="http://www.w3.org/2000/svg" xmlns:xlink="http://www.w3.org/1999/xlink" width="16" height="16" viewBox="0 0 16 16"><path fill="currentColor" d="M6 1.5a.5.5 0 0 0-1 0v5a.5.5 0 0 1-1 0v-5a.5.5 0 0 0-1 0v5a.5.5 0 0 1-1 0v-4a.5.5 0 0 0-1 0v6.292a3.5 3.5 0 0 0 .37 1.565L2 11.618A2.5 2.5 0 0 0 4.236 13H4.5c1.387 0 2.445-1.142 2.989-2.174c.418-.794 1.205-1.722 2.708-2.366a.5.5 0 0 0 .219-.737c-.299-.448-.654-.736-1.036-.895a2.1 2.1 0 0 0-1.067-.137q-.165.022-.313.06V2.5a.5.5 0 0 0-1 0v4a.5.5 0 0 1-1 0zM11 16a5 5 0 0 1-4.418-2.656c.835-.56 1.437-1.38 1.791-2.052c.319-.605.939-1.365 2.218-1.913a1.5 1.5 0 0 0 .657-2.211a3.44 3.44 0 0 0-1.133-1.09A5 5 0 1 1 11 16m1.75-4.5a.75.75 0 1 0 0-1.5a.75.75 0 0 0 0 1.5m-.026.553a.5.5 0 0 0-.671.223c-.124.247-.372.432-.696.558c-.322.125-.66.166-.857.166a.5.5 0 0 0 0 1a3.6 3.6 0 0 0 1.218-.234c.45-.174.953-.49 1.23-1.042a.5.5 0 0 0-.224-.671"/></svg>