<svg xmlns="http://www.w3.org/2000/svg" xmlns:xlink="http://www.w3.org/1999/xlink" width="28" height="28" viewBox="0 0 28 28"><path fill="currentColor" d="M11.66 2.228a.75.75 0 1 0 .29 1.472a10.8 10.8 0 0 1 4.1 0a.75.75 0 0 0 .291-1.472a12.3 12.3 0 0 0-4.682 0m9.008 1.794a.75.75 0 0 0-.834 1.246a10.6 10.6 0 0 1 2.898 2.899a.75.75 0 1 0 1.247-.835a12.1 12.1 0 0 0-3.31-3.31M8.167 5.268a.75.75 0 0 0-.835-1.246a12.1 12.1 0 0 0-3.31 3.31a.75.75 0 0 0 1.247.835a10.6 10.6 0 0 1 2.898-2.899m17.605 6.39a.75.75 0 1 0-1.471.292a10.8 10.8 0 0 1 0 4.1a.75.75 0 0 0 1.471.291a12.3 12.3 0 0 0 0-4.682M3.7 11.95a.75.75 0 1 0-1.471-.291a12.3 12.3 0 0 0 0 4.682a.75.75 0 0 0 1.471-.291a10.8 10.8 0 0 1 0-4.1m20.279 8.718a.75.75 0 1 0-1.247-.835a10.6 10.6 0 0 1-2.898 2.899a.75.75 0 1 0 .834 1.246a12.1 12.1 0 0 0 3.31-3.31m-18.71-.835a.75.75 0 0 0-1.247.835a12.1 12.1 0 0 0 3.31 3.31a.75.75 0 1 0 .835-1.246a10.6 10.6 0 0 1-2.898-2.899m11.073 5.939a.75.75 0 0 0-.292-1.472a10.8 10.8 0 0 1-4.1 0a.75.75 0 0 0-.29 1.472c1.515.3 3.166.3 4.682 0M23 14a9 9 0 1 1-18 0a9 9 0 0 1 18 0m-11-2.75a1.25 1.25 0 1 0-2.5 0a1.25 1.25 0 0 0 2.5 0m5.25 1.25a1.25 1.25 0 1 0 0-2.5a1.25 1.25 0 0 0 0 2.5m-8.1 4.679a.75.75 0 0 0-.08 1.057A6.49 6.49 0 0 0 14 20.5c1.972 0 3.74-.879 4.93-2.264a.75.75 0 0 0-1.137-.978A4.99 4.99 0 0 1 14.001 19a4.99 4.99 0 0 1-3.793-1.742a.75.75 0 0 0-1.058-.08"/></svg>