<svg xmlns="http://www.w3.org/2000/svg" xmlns:xlink="http://www.w3.org/1999/xlink" width="24" height="24" viewBox="0 0 24 24"><path fill="currentColor" d="M15.84 2.661a2.25 2.25 0 0 0-3.19-.023l-9.598 9.508a2.25 2.25 0 0 0 .007 3.204l5.1 5.008a2.25 2.25 0 0 0 3.175-.023l1.785-1.803a4.5 4.5 0 0 1 .022-2.155l-.35.353l-6.088-6.088l7.003-6.938a.75.75 0 0 1 1.064.007l4.91 5.009a.75.75 0 0 1-.003 1.052l-3.345 3.38a4.5 4.5 0 0 1 2.154-.044l2.257-2.28a2.25 2.25 0 0 0 .008-3.159zM5.638 11.697l6.099 6.1l-1.468 1.483a.75.75 0 0 1-1.059.008l-5.1-5.008a.75.75 0 0 1-.002-1.068zm11.965 2.304A3.5 3.5 0 1 1 14 17.511V17.5a3.5 3.5 0 0 1 3.602-3.5"/></svg>