<svg xmlns="http://www.w3.org/2000/svg" xmlns:xlink="http://www.w3.org/1999/xlink" width="16" height="16" viewBox="0 0 16 16"><path fill="currentColor" d="M14 8a6 6 0 1 0-5.746 5.995A4.5 4.5 0 0 1 8.027 13H8a5 5 0 1 1 5-5v.027q.518.06.995.227Q14 8.128 14 8m-5.415 2.28a.749.749 0 0 0-1.335.47a.75.75 0 0 0 .863.742a4.5 4.5 0 0 1 .472-1.212m-.093-5.37A.5.5 0 0 0 7.5 5v3.5l.008.09A.5.5 0 0 0 8.5 8.5V5zm.559 7.223a2 2 0 0 0 1.407-2.437l-.009-.032q.37-.27.806-.436a2 2 0 0 0 2.557.026q.46.187.842.487a2 2 0 0 0 1.302 2.201a3.5 3.5 0 0 1 .026.916l-.033.009a2 2 0 0 0-1.407 2.437l.009.032a3.5 3.5 0 0 1-.806.436a2 2 0 0 0-2.557-.026a3.5 3.5 0 0 1-.843-.488a2 2 0 0 0-1.3-2.2a3.5 3.5 0 0 1-.027-.916zm4.199.367a.75.75 0 1 0-1.5 0a.75.75 0 0 0 1.5 0"/></svg>