<svg xmlns="http://www.w3.org/2000/svg" xmlns:xlink="http://www.w3.org/1999/xlink" width="48" height="48" viewBox="0 0 48 48"><path fill="currentColor" d="M4.977 20.5h13.545a6.5 6.5 0 0 0-.946 2.5H4.148q.05-.208.11-.422c.157-.57.394-1.28.719-2.078M4.148 25h13.428c.14.91.47 1.756.946 2.5H4.977a19 19 0 0 1-.72-2.078q-.059-.214-.109-.422m19.85-18c-3.917 0-7.142.996-9.768 2.5h9.772c6.728.001 11.078 3.317 13.789 6.85a22.3 22.3 0 0 1 2.9 5.058c.297.73.506 1.36.639 1.838a6 6 0 0 1 .169.754l-.001.005a6 6 0 0 1-.168.749a17 17 0 0 1-.64 1.838a22.3 22.3 0 0 1-2.9 5.059c-2.71 3.532-7.06 6.848-13.788 6.849H14.23c2.461 1.41 5.45 2.374 9.04 2.488q.36.012.727.012h.004c7.691-.001 12.714-3.843 15.772-7.827a24.8 24.8 0 0 0 3.23-5.635c.333-.814.575-1.537.735-2.116c.147-.532.26-1.057.26-1.422s-.113-.89-.26-1.422a19 19 0 0 0-.735-2.116a24.8 24.8 0 0 0-3.23-5.635C36.716 10.843 31.694 7.001 24.002 7zM11.38 11.5h12.622V14H8.888a21 21 0 0 1 2.492-2.5m-4 4.5H24v-1a9 9 0 1 1 0 18v-1H7.378a25 25 0 0 1-1.48-2.5h14.636a6.47 6.47 0 0 0 3.464 1H24a6.5 6.5 0 1 0 0-13h-.002a6.47 6.47 0 0 0-3.464 1H5.9c.413-.802.904-1.647 1.48-2.5m1.51 18h15.113v2.5H11.38A21 21 0 0 1 8.89 34m15.109 0v2.5Z"/></svg>