<svg xmlns="http://www.w3.org/2000/svg" xmlns:xlink="http://www.w3.org/1999/xlink" width="24" height="24" viewBox="0 0 24 24"><path fill="currentColor" d="M9.354 12.5a2.75 2.75 0 0 1 0-1.5h-7a3.4 3.4 0 0 0-.104.75c0 .203.036.459.104.75zm2.645 6H6.68C8.063 19.39 9.818 20 12 20h.002c3.641 0 6.091-1.698 7.612-3.556a11 11 0 0 0 1.624-2.707c.33-.794.514-1.528.514-1.987s-.184-1.193-.514-1.987c-.34-.82-.869-1.784-1.624-2.707C18.093 5.198 15.642 3.5 12 3.5c-2.183 0-3.938.61-5.322 1.5h5.323c3.11 0 5.16 1.427 6.451 3.006a9.5 9.5 0 0 1 1.4 2.332c.302.73.4 1.246.4 1.412s-.098.682-.4 1.412a9.5 9.5 0 0 1-1.4 2.332c-1.292 1.579-3.342 3.006-6.45 3.006zM5.385 6a10 10 0 0 0-1.34 1.5h7.954V6zm6.614 2.5H3.391A11 11 0 0 0 2.67 10h7.209a2.75 2.75 0 1 1 0 3.5h-7.21q.045.117.095.237c.164.395.372.822.627 1.263h8.608v1a4.25 4.25 0 1 0 0-8.5zm0 7.5H4.044q.165.223.344.444c.296.362.628.718.997 1.056h6.614z"/></svg>