<svg xmlns="http://www.w3.org/2000/svg" xmlns:xlink="http://www.w3.org/1999/xlink" width="24" height="24" viewBox="0 0 24 24"><path fill="currentColor" d="M21.03 2.97a3.58 3.58 0 0 0-5.06 0L14 4.94l-.013-.013a1.75 1.75 0 0 0-2.475 0l-.585.586a1.75 1.75 0 0 0 0 2.475l.012.012l-6.78 6.78a2.25 2.25 0 0 0-.659 1.592v.687l-1.28 2.347c-.836 1.533.841 3.21 2.374 2.375l2.347-1.28h.688a2.25 2.25 0 0 0 1.59-.66L16 13.061l.012.012a1.75 1.75 0 0 0 2.475 0l.586-.585a1.75 1.75 0 0 0 0-2.475L19.061 10l1.97-1.97a3.58 3.58 0 0 0 0-5.06M12 9.061l2.94 2.94l-6.78 6.78a.75.75 0 0 1-.531.22H6.75a.75.75 0 0 0-.359.09l-2.515 1.373a.23.23 0 0 1-.159.032a.26.26 0 0 1-.138-.075a.26.26 0 0 1-.075-.138a.23.23 0 0 1 .033-.158l1.372-2.515A.75.75 0 0 0 5 17.25v-.878a.75.75 0 0 1 .22-.53z"/></svg>