<svg xmlns="http://www.w3.org/2000/svg" xmlns:xlink="http://www.w3.org/1999/xlink" width="20" height="20" viewBox="0 0 20 20"><path fill="currentColor" d="M5.5 7a.5.5 0 1 0 0-1a.5.5 0 0 0 0 1M5 10a.5.5 0 0 1 .5-.5h3a.5.5 0 0 1 0 1h-3A.5.5 0 0 1 5 10m.5 3a.5.5 0 0 0 0 1h3a.5.5 0 0 0 0-1zM4 17h8.469c.65.02 1.313-.362 1.502-1.177L14.394 14H16.5a1.5 1.5 0 0 0 1.5-1.5V7.582c0-.983-.751-1.56-1.516-1.582H12V4.5A1.5 1.5 0 0 0 10.5 3h-7A1.5 1.5 0 0 0 2 4.5V15a2 2 0 0 0 2 2M3 4.5a.5.5 0 0 1 .5-.5h7a.5.5 0 0 1 .5.5v10.982q.002.285.08.518H4a1 1 0 0 1-1-1zM16.5 13h-1.873l1.287-5.542c.148-.638 1.086-.53 1.086.124V12.5a.5.5 0 0 1-.5.5M12 7h3.01q-.04.11-.07.231l-1.943 8.366c-.136.585-.997.486-.997-.115z"/></svg>