<svg xmlns="http://www.w3.org/2000/svg" xmlns:xlink="http://www.w3.org/1999/xlink" width="24" height="24" viewBox="0 0 24 24"><path fill="currentColor" d="M12 7.5a5.5 5.5 0 1 0 11 0a5.5 5.5 0 0 0-11 0M20.5 4a.5.5 0 0 1 .5.5v2a.5.5 0 0 1-.5.5h-2a.5.5 0 0 1 0-1h1a2.5 2.5 0 0 0-2-1c-.833 0-1.572.407-2.027 1.036a.5.5 0 0 1-.81-.586A3.5 3.5 0 0 1 17.5 4c.98 0 1.865.403 2.5 1.05V4.5a.5.5 0 0 1 .5-.5M15 9.95v.55a.5.5 0 0 1-1 0v-2a.5.5 0 0 1 .5-.5h2a.5.5 0 0 1 0 1h-1c.456.608 1.183 1 2 1c.766 0 1.452-.344 1.911-.888a.5.5 0 1 1 .764.645A3.5 3.5 0 0 1 17.5 11A3.5 3.5 0 0 1 15 9.95M7.5 12.5h5.846a6.5 6.5 0 0 1-1.324-1.5H7.5a.75.75 0 0 0 0 1.5m3.5-5q.002-.776.174-1.5H4.5a.75.75 0 0 0 0 1.5zm2.5 8.5a.75.75 0 0 1 0 1.5h-3a.75.75 0 0 1 0-1.5z"/></svg>