<svg xmlns="http://www.w3.org/2000/svg" xmlns:xlink="http://www.w3.org/1999/xlink" width="32" height="32" viewBox="0 0 32 32"><path fill="currentColor" d="M4 14v10a1 1 0 0 0 1 1h22a1 1 0 0 0 1-1V14c0-6.627-5.373-12-12-12S4 7.373 4 14m16.725 9a6.7 6.7 0 0 0 1.775-4.526c0-2.017-1.134-3.425-2.084-4.606l-.248-.309C19.14 12.265 18.269 11.013 18.269 9a1 1 0 0 0-1.21-.978c-1.608.347-2.614 1.112-3.18 2.115c-.531.944-.597 1.975-.623 2.673l-.01.28l-.004.117a9 9 0 0 1-.503-.307a1 1 0 0 0-1.254.13l-.002.002l-.001.001l-.004.004l-.008.008a4 4 0 0 0-.335.395c-.188.245-.432.6-.674 1.059a8.5 8.5 0 0 0-.961 3.975c0 1.654.634 3.3 1.777 4.526H6v-9C6 8.477 10.477 4 16 4s10 4.477 10 10v9zm-4.722 0c-2.762 0-4.503-2.198-4.503-4.526a6.5 6.5 0 0 1 .731-3.044q.112-.21.218-.378q.348.182.654.278c.419.13 1.053.205 1.566-.26c.418-.38.5-.92.532-1.187c.029-.244.038-.537.046-.796l.007-.2c.026-.683.093-1.28.368-1.768c.142-.252.366-.518.76-.745c.33 1.953 1.327 3.305 2.22 4.429l.173.218c1.033 1.297 1.725 2.166 1.725 3.453c0 2.329-1.737 4.526-4.497 4.526M2 28a1 1 0 0 1 1-1h26a1 1 0 1 1 0 2H3a1 1 0 0 1-1-1"/></svg>