<svg xmlns="http://www.w3.org/2000/svg" xmlns:xlink="http://www.w3.org/1999/xlink" width="24" height="24" viewBox="0 0 24 24"><path fill="currentColor" d="M4.5 4.688c0-.38-.336-.688-.75-.688S3 4.308 3 4.688v4.125c0 .38.336.687.75.687s.75-.308.75-.687V7.5h6.75v1.313c0 .38.336.687.75.687s.75-.308.75-.687V7.5h6.75v1.313c0 .38.336.687.75.687s.75-.308.75-.687V4.687c0-.38-.336-.687-.75-.687s-.75.308-.75.688V6h-6.75V4.688c0-.38-.336-.688-.75-.688s-.75.308-.75.688V6H4.5zM5.75 11A2.75 2.75 0 0 0 3 13.75v4a2.75 2.75 0 0 0 2.75 2.75h12.5A2.75 2.75 0 0 0 21 17.75v-4A2.75 2.75 0 0 0 18.25 11zm5.5 1.5V19h-5.5c-.69 0-1.25-.56-1.25-1.25v-4c0-.69.56-1.25 1.25-1.25zm1.5 6.5v-6.5h5.5c.69 0 1.25.56 1.25 1.25v4c0 .69-.56 1.25-1.25 1.25z"/></svg>