<svg xmlns="http://www.w3.org/2000/svg" xmlns:xlink="http://www.w3.org/1999/xlink" width="20" height="20" viewBox="0 0 20 20"><path fill="currentColor" d="M6.19 2.77c.131-.456.548-.77 1.022-.77h5.25c.725 0 1.237.71 1.007 1.398l-.002.008L12.205 7h2.564c.947 0 1.407 1.144.767 1.811l-.004.004l-8.676 8.858c-.755.782-2.06.06-1.796-.996l1.17-4.679H4.963a1.062 1.062 0 0 1-1.022-1.354zM7.213 3a.06.06 0 0 0-.06.045l-2.25 7.874c-.01.04.02.08.06.08H6.87a.5.5 0 0 1 .485.62l-1.325 5.3a.1.1 0 0 0-.003.03q0 .006.003.011q.005.013.03.03c.018.01.034.01.042.01l.01-.004a.1.1 0 0 0 .024-.018l.004-.004l8.675-8.856a.06.06 0 0 0 .017-.032a.1.1 0 0 0-.007-.044a.1.1 0 0 0-.025-.034q-.006-.007-.03-.008H11.5a.5.5 0 0 1-.472-.666l1.493-4.254a.062.062 0 0 0-.06-.08z"/></svg>