<svg xmlns="http://www.w3.org/2000/svg" xmlns:xlink="http://www.w3.org/1999/xlink" width="20" height="20" viewBox="0 0 20 20"><path fill="currentColor" d="M6.19 2.77c.13-.455.547-.77 1.02-.77h5.25c.724 0 1.236.71 1.007 1.398l-.002.008L12.204 7h2.564c.946 0 1.407 1.144.766 1.811l-.003.004l-.237.242a5.6 5.6 0 0 0-1.374-.027l.894-.912a.06.06 0 0 0 .017-.032a.1.1 0 0 0-.007-.044a.1.1 0 0 0-.025-.034q-.006-.007-.031-.008h-3.27a.5.5 0 0 1-.471-.666L12.52 3.08a.062.062 0 0 0-.06-.08H7.211a.06.06 0 0 0-.06.045l-2.25 7.874c-.01.04.019.08.06.08H6.87a.5.5 0 0 1 .485.62l-1.325 5.3a.1.1 0 0 0-.003.03q0 .006.003.011q.005.013.03.03a.1.1 0 0 0 .042.01l.01-.004a.1.1 0 0 0 .024-.018l.003-.004l2.882-2.94a5.6 5.6 0 0 0 .054 1.372l-2.22 2.267c-.754.782-2.059.06-1.795-.996l1.17-4.679H4.96a1.062 1.062 0 0 1-1.021-1.354zM19 14.5a4.5 4.5 0 1 1-9 0a4.5 4.5 0 0 1 9 0m-2.146-1.854a.5.5 0 0 0-.708 0L13.5 15.293l-.646-.647a.5.5 0 0 0-.708.708l1 1a.5.5 0 0 0 .708 0l3-3a.5.5 0 0 0 0-.708"/></svg>