<svg xmlns="http://www.w3.org/2000/svg" xmlns:xlink="http://www.w3.org/1999/xlink" width="20" height="20" viewBox="0 0 20 20"><path fill="currentColor" d="M6.192 2.77c.13-.456.547-.77 1.021-.77h5.25c.724 0 1.236.71 1.007 1.398l-.003.008L12.207 7h2.563c.946 0 1.407 1.144.766 1.811l-.003.004l-1.298 1.325l-.003-.008l-.034-.09l-.316-.971l.934-.953a.06.06 0 0 0 .017-.032a.1.1 0 0 0-.007-.044a.1.1 0 0 0-.025-.034q-.006-.007-.031-.008H11.5a.5.5 0 0 1-.471-.666l1.493-4.254a.062.062 0 0 0-.06-.08H7.213a.06.06 0 0 0-.06.045l-2.25 7.874c-.01.04.019.08.06.08h1.908a.5.5 0 0 1 .485.62l-1.325 5.3a.1.1 0 0 0-.003.03q0 .006.003.011q.005.013.03.03a.1.1 0 0 0 .042.01l.01-.004a.1.1 0 0 0 .024-.018l.003-.004l3.008-3.07l.893.29q.082.027.158.066l-3.343 3.413c-.754.782-2.059.06-1.795-.996l1.17-4.679H4.963a1.062 1.062 0 0 1-1.021-1.354zm6.686 6.512l.348 1.071a2.2 2.2 0 0 0 1.399 1.397l1.072.348l.021.006a.423.423 0 0 1 0 .798l-1.072.348a2.2 2.2 0 0 0-1.398 1.397l-.348 1.07a.423.423 0 0 1-.799 0l-.348-1.07a2.2 2.2 0 0 0-1.398-1.403l-1.072-.348a.423.423 0 0 1 0-.798l1.072-.348a2.2 2.2 0 0 0 1.377-1.397l.348-1.07a.423.423 0 0 1 .798 0m4.905 7.931l-.766-.248a1.58 1.58 0 0 1-.998-.998l-.25-.765a.302.302 0 0 0-.57 0l-.248.765a1.58 1.58 0 0 1-.984.998l-.765.248a.302.302 0 0 0 0 .57l.765.249a1.58 1.58 0 0 1 1 1.002l.248.764a.302.302 0 0 0 .57 0l.249-.764a1.58 1.58 0 0 1 .999-.999l.765-.248a.302.302 0 0 0 0-.57z"/></svg>