<svg xmlns="http://www.w3.org/2000/svg" xmlns:xlink="http://www.w3.org/1999/xlink" width="20" height="20" viewBox="0 0 20 20"><path fill="currentColor" d="M13.958 1.166a.5.5 0 0 1 .5.5v.833a.5.5 0 1 1-1 0v-.833a.5.5 0 0 1 .5-.5m3.895.98a.5.5 0 0 1 0 .707l-1.5 1.5a.5.5 0 1 1-.707-.707l1.5-1.5a.5.5 0 0 1 .707 0M6.999 5.206v2.585L12.207 13h2.586zm8.708 7.293l1.085-1.085a2 2 0 0 0 0-2.829l-5.378-5.379a2 2 0 0 0-2.829 0L7.5 4.292zM11 13.206L6.793 9l-4.086 4.086a2 2 0 0 0 0 2.829l1.379 1.378a2 2 0 0 0 2.828 0zm-3.146-.353l-1 1a.5.5 0 0 1-.708-.707l1-1a.5.5 0 1 1 .708.707M17 6.041a.5.5 0 0 1 .5-.5h.833a.5.5 0 1 1 0 1H17.5a.5.5 0 0 1-.5-.5"/></svg>