<svg xmlns="http://www.w3.org/2000/svg" xmlns:xlink="http://www.w3.org/1999/xlink" width="16" height="16" viewBox="0 0 16 16"><path fill="currentColor" d="M3.915 1.714A1 1 0 0 1 4.874 1H9.28a1 1 0 0 1 .936 1.351l-.8 2.131q-.18.208-.283.488L8.796 6h-.295a.5.5 0 0 1-.468-.676L9.28 2H4.874L3.086 8H5a.5.5 0 0 1 .48.64l-1.467 5.029a.24.24 0 0 0 .006.175a.27.27 0 0 0 .119.117c.057.03.116.037.164.029a.24.24 0 0 0 .147-.095l3.075-3.864l.507.168c.14.046.27.119.432.257l-3.232 4.061c-.854 1.073-2.562.188-2.178-1.128L4.334 9H2.75a.75.75 0 0 1-.718-.964zm6.963 3.568l.348 1.071a2.2 2.2 0 0 0 1.398 1.397l1.072.348l.021.006a.423.423 0 0 1 0 .798l-1.071.348a2.2 2.2 0 0 0-1.399 1.397l-.348 1.07a.423.423 0 0 1-.798 0l-.348-1.07A2.2 2.2 0 0 0 9.1 9.67a2.2 2.2 0 0 0-.747-.426l-1.072-.348a.423.423 0 0 1 0-.798l1.072-.348A2.2 2.2 0 0 0 9.73 6.353l.348-1.07a.423.423 0 0 1 .799 0m4.905 7.931l-.765-.248a1.58 1.58 0 0 1-1-.998l-.248-.765a.302.302 0 0 0-.57 0l-.25.765a1.58 1.58 0 0 1-.983.998l-.765.248a.303.303 0 0 0-.146.46c.036.05.087.09.146.11l.765.249a1.58 1.58 0 0 1 1 1.002l.248.764a.302.302 0 0 0 .57 0l.249-.764a1.58 1.58 0 0 1 .999-.999l.765-.248a.302.302 0 0 0 0-.57z"/></svg>