<svg xmlns="http://www.w3.org/2000/svg" xmlns:xlink="http://www.w3.org/1999/xlink" width="20" height="20" viewBox="0 0 20 20"><path fill="currentColor" d="M4.5 3A1.5 1.5 0 0 0 3 4.5v2A1.5 1.5 0 0 0 4.5 8H5v3.84a1 1 0 0 0-.207.16L3 13.793a1 1 0 0 0 0 1.414L4.793 17a1 1 0 0 0 1.414 0L8 15.207q.094-.095.16-.207H12v.5a1.5 1.5 0 0 0 1.5 1.5h2a1.5 1.5 0 0 0 1.5-1.5v-2a1.5 1.5 0 0 0-1.5-1.5h-2a1.5 1.5 0 0 0-1.5 1.5v.5H8.16a1 1 0 0 0-.16-.207L6.207 12A1 1 0 0 0 6 11.84V8h.5A1.5 1.5 0 0 0 8 6.5v-2A1.5 1.5 0 0 0 6.5 3zM4 4.5a.5.5 0 0 1 .5-.5h2a.5.5 0 0 1 .5.5v2a.5.5 0 0 1-.5.5h-2a.5.5 0 0 1-.5-.5zm-.293 10L5.5 12.707L7.293 14.5L5.5 16.293zM13.5 13h2a.5.5 0 0 1 .5.5v2a.5.5 0 0 1-.5.5h-2a.5.5 0 0 1-.5-.5v-2a.5.5 0 0 1 .5-.5"/></svg>