<svg xmlns="http://www.w3.org/2000/svg" xmlns:xlink="http://www.w3.org/1999/xlink" width="16" height="16" viewBox="0 0 16 16"><path fill="currentColor" d="M3.5 2A1.5 1.5 0 0 0 2 3.5v2A1.5 1.5 0 0 0 3.5 7H4v1.884a1 1 0 0 0-.206.159l-1.751 1.751a1 1 0 0 0 0 1.414l1.751 1.751a1 1 0 0 0 1.414 0l1.751-1.75q.096-.096.16-.209H9v.5a1.5 1.5 0 0 0 1.5 1.5h2a1.5 1.5 0 0 0 1.5-1.5v-2A1.5 1.5 0 0 0 12.5 9h-2A1.5 1.5 0 0 0 9 10.5v.5H7.119a1 1 0 0 0-.159-.206L5.21 9.043a1 1 0 0 0-.21-.16V7h.5A1.5 1.5 0 0 0 7 5.5v-2A1.5 1.5 0 0 0 5.5 2z"/></svg>