<svg xmlns="http://www.w3.org/2000/svg" xmlns:xlink="http://www.w3.org/1999/xlink" width="24" height="24" viewBox="0 0 24 24"><path fill="currentColor" d="M5.25 3A3.25 3.25 0 0 0 2 6.25v11.5A3.25 3.25 0 0 0 5.25 21H17v-.022a5.48 5.48 0 0 1-4.275-1.478H5.25a1.75 1.75 0 0 1-1.75-1.75V9.5h4.629a2.25 2.25 0 0 0 1.59-.659L11.562 7h7.189c.966 0 1.75.784 1.75 1.75v2.975A5.48 5.48 0 0 1 21.978 15H22V8.75a3.25 3.25 0 0 0-3.25-3.25h-7.19L9.72 3.659A2.25 2.25 0 0 0 8.129 3zM3.5 8V6.25c0-.966.784-1.75 1.75-1.75h2.879a.75.75 0 0 1 .53.22l1.53 1.53l-1.53 1.53a.75.75 0 0 1-.53.22zm13 12a4.5 4.5 0 0 0 2.607-.832l2.613 2.612a.75.75 0 1 0 1.06-1.06l-2.612-2.613A4.5 4.5 0 1 0 16.5 20m0-1.5a3 3 0 1 1 0-6a3 3 0 0 1 0 6"/></svg>