<svg xmlns="http://www.w3.org/2000/svg" xmlns:xlink="http://www.w3.org/1999/xlink" width="16" height="16" viewBox="0 0 16 16"><path fill="currentColor" d="M1 4.5A2.5 2.5 0 0 1 3.5 2h2.086a1.5 1.5 0 0 1 1.06.44L8 3.792l-2.06 2.06A.5.5 0 0 1 5.585 6H1V4.5ZM1 7v4.5A2.5 2.5 0 0 0 3.5 14h4.585a1.5 1.5 0 0 1 .297-.5a1.494 1.494 0 0 1-.382-1c0-.384.144-.735.382-1A1.5 1.5 0 0 1 9.5 9h5c.175 0 .344.03.5.085V6.5A2.5 2.5 0 0 0 12.5 4H9.207l-2.56 2.56A1.5 1.5 0 0 1 5.585 7H1Zm8.5 3a.5.5 0 0 0 0 1h5a.5.5 0 0 0 0-1h-5Zm0 2a.5.5 0 0 0 0 1h5a.5.5 0 0 0 0-1h-5ZM9 14.5a.5.5 0 0 1 .5-.5h5a.5.5 0 0 1 0 1h-5a.5.5 0 0 1-.5-.5Z"/></svg>