<svg xmlns="http://www.w3.org/2000/svg" xmlns:xlink="http://www.w3.org/1999/xlink" width="20" height="20" viewBox="0 0 20 20"><path fill="currentColor" d="M4.5 3A2.5 2.5 0 0 0 2 5.5v9A2.5 2.5 0 0 0 4.5 17h5.1a5.465 5.465 0 0 1-.393-1H4.5A1.5 1.5 0 0 1 3 14.5V8h4.086a1.5 1.5 0 0 0 1.06-.44L9.707 6H15.5A1.5 1.5 0 0 1 17 7.5v2.1c.358.183.693.404 1 .657V7.5A2.5 2.5 0 0 0 15.5 5H9.707L8.22 3.513A1.75 1.75 0 0 0 6.982 3H4.5ZM3 5.5A1.5 1.5 0 0 1 4.5 4h2.482a.75.75 0 0 1 .53.22l1.28 1.28L7.44 6.854A.5.5 0 0 1 7.086 7H3V5.5Zm10.55 5.65c-.29.727-.493 1.722-.54 2.85h2.98c-.047-1.128-.25-2.123-.54-2.85c-.167-.417-.353-.722-.535-.914c-.18-.19-.32-.236-.415-.236c-.095 0-.235.046-.415.236c-.182.192-.368.497-.535.914Zm-.72-.83a5.346 5.346 0 0 0-.209.459c-.344.862-.565 1.987-.612 3.221h-1.982a4.505 4.505 0 0 1 2.802-3.68Zm3.34 0c.075.145.144.299.208.459c.345.862.565 1.987.612 3.221h1.982a4.504 4.504 0 0 0-2.802-3.68ZM18.972 15H16.99c-.047 1.234-.267 2.36-.612 3.221c-.064.16-.133.314-.208.459A4.504 4.504 0 0 0 18.972 15ZM14.5 19c.094 0 .235-.046.415-.236c.182-.192.368-.497.535-.914c.29-.727.493-1.722.54-2.85h-2.98c.047 1.128.25 2.123.54 2.85c.167.417.353.722.535.913c.18.191.32.237.415.237Zm-1.67-.32A4.505 4.505 0 0 1 10.026 15h1.982c.047 1.234.268 2.36.612 3.221c.064.16.134.314.208.459Z"/></svg>