<svg xmlns="http://www.w3.org/2000/svg" xmlns:xlink="http://www.w3.org/1999/xlink" width="24" height="24" viewBox="0 0 24 24"><path fill="currentColor" d="M2 8V6.25A3.25 3.25 0 0 1 5.25 3h2.879a2.25 2.25 0 0 1 1.59.659l1.531 1.53L8.659 7.78a.75.75 0 0 1-.53.22H2Zm0 1.5v8.25A3.25 3.25 0 0 0 5.25 21h5.9a4.24 4.24 0 0 1-.15-1.125c0-1.378.944-2.755 2.412-2.868a3.25 3.25 0 1 1 5.436-3.243A2.74 2.74 0 0 1 20.75 13c.45 0 .875.108 1.25.3V8.75a3.25 3.25 0 0 0-3.25-3.25h-5.69L9.72 8.841a2.25 2.25 0 0 1-1.591.659H2Zm16 5.25a2.25 2.25 0 1 1-4.5 0a2.25 2.25 0 0 1 4.5 0Zm1.5 5.125c0 1.556-1.071 3.125-3.75 3.125c-2.679 0-3.75-1.563-3.75-3.125C12 18.84 12.72 18 13.607 18h4.286c.887 0 1.607.84 1.607 1.875Zm1.25-2.375a1.75 1.75 0 1 0 0-3.5a1.75 1.75 0 0 0 0 3.5Zm-.252 2.375a4.06 4.06 0 0 1-.582 2.124l.088.001c2.143 0 3-1.098 3-2.188a1.3 1.3 0 0 0-1.286-1.312h-1.54c.208.424.32.9.32 1.375Z"/></svg>