<svg xmlns="http://www.w3.org/2000/svg" xmlns:xlink="http://www.w3.org/1999/xlink" width="32" height="32" viewBox="0 0 32 32"><path fill="currentColor" d="M4 8.5V11h6.464a1.5 1.5 0 0 0 1.061-.44l2.06-2.06l-2.06-2.06a1.5 1.5 0 0 0-1.06-.44H6.5A2.5 2.5 0 0 0 4 8.5m-2 0A4.5 4.5 0 0 1 6.5 4h3.964a3.5 3.5 0 0 1 2.475 1.025L15.414 7.5H25.5A4.5 4.5 0 0 1 30 12v4.292a9 9 0 0 0-2-1.357V12a2.5 2.5 0 0 0-2.5-2.5H15.414l-2.475 2.475A3.5 3.5 0 0 1 10.464 13H4v10.5A2.5 2.5 0 0 0 6.5 26h9.012c.252.712.59 1.383 1.003 2H6.5A4.5 4.5 0 0 1 2 23.5zm22 22a7.5 7.5 0 1 0 0-15a7.5 7.5 0 0 0 0 15m0-2a5.5 5.5 0 0 1-3.117-.968l7.649-7.65A5.5 5.5 0 0 1 24 28.5m3.118-10.032l-7.65 7.65a5.5 5.5 0 0 1 7.65-7.65"/></svg>