<svg xmlns="http://www.w3.org/2000/svg" xmlns:xlink="http://www.w3.org/1999/xlink" width="20" height="20" viewBox="0 0 20 20"><path fill="currentColor" d="M2 5.5A2.5 2.5 0 0 1 4.5 3h2.482c.464 0 .91.184 1.238.513l1.28 1.28l-2.06 2.06A.5.5 0 0 1 7.085 7H2zM2 8v6.5A2.5 2.5 0 0 0 4.5 17h5.1a5.5 5.5 0 0 1 8.4-6.743V7.5A2.5 2.5 0 0 0 15.5 5h-4.793l-2.56 2.56A1.5 1.5 0 0 1 7.085 8zm12.5 11a4.5 4.5 0 1 1 0-9a4.5 4.5 0 0 1 0 9m-2.353-4.854l-.003.003a.5.5 0 0 0-.144.348v.006a.5.5 0 0 0 .146.35l2 2a.5.5 0 0 0 .708-.707L13.707 15H16.5a.5.5 0 0 0 0-1h-2.793l1.147-1.146a.5.5 0 0 0-.708-.708z"/></svg>