<svg xmlns="http://www.w3.org/2000/svg" xmlns:xlink="http://www.w3.org/1999/xlink" width="24" height="24" viewBox="0 0 24 24"><path fill="currentColor" d="M17.75 3.5c.966 0 1.75.784 1.75 1.75v2.88a.75.75 0 0 1-.22.53l-2.06 2.06a.75.75 0 0 0-.22.531v5.5a1.75 1.75 0 0 1-1.75 1.75a.8.8 0 0 0-.246.041V8.72a3.75 3.75 0 0 0-1.874-3.25L9.717 3.5zM6.212 2A3.25 3.25 0 0 0 3 5.25V11q0 .044.005.086v5.195A3.75 3.75 0 0 0 4.88 19.53l5.25 3.03c2.104 1.216 4.72-.225 4.868-2.602a.8.8 0 0 0 .252.043a3.25 3.25 0 0 0 3.25-3.25v-5.19l1.841-1.84A2.25 2.25 0 0 0 21 8.129V5.25A3.25 3.25 0 0 0 17.75 2zm7.292 6.719v11.026c0 1.347-1.458 2.19-2.625 1.515l-5.25-3.03a2.25 2.25 0 0 1-1.124-1.949V5.255c0-1.347 1.458-2.19 2.625-1.516l5.25 3.031a2.25 2.25 0 0 1 1.124 1.949"/></svg>