<svg xmlns="http://www.w3.org/2000/svg" xmlns:xlink="http://www.w3.org/1999/xlink" width="24" height="24" viewBox="0 0 24 24"><path fill="currentColor" d="M3.5 6.25c0-.966.784-1.75 1.75-1.75h2.88a.75.75 0 0 1 .53.22l2.06 2.06c.142.141.332.22.531.22h5.5c.967 0 1.75.784 1.75 1.75q.001.13.041.246H8.72a3.75 3.75 0 0 0-3.25 1.874L3.5 14.283zM2 17.788A3.25 3.25 0 0 0 5.25 21H11q.044 0 .086-.005h5.195a3.75 3.75 0 0 0 3.248-1.875l3.03-5.25c1.216-2.104-.225-4.72-2.602-4.868A.8.8 0 0 0 20 8.75a3.25 3.25 0 0 0-3.25-3.25h-5.19L9.72 3.659A2.25 2.25 0 0 0 8.129 3H5.25A3.25 3.25 0 0 0 2 6.25zm6.719-7.292h11.026c1.347 0 2.19 1.458 1.515 2.625l-3.03 5.25a2.25 2.25 0 0 1-1.949 1.124H5.255c-1.347 0-2.19-1.458-1.516-2.625l3.031-5.25a2.25 2.25 0 0 1 1.949-1.124"/></svg>