<svg xmlns="http://www.w3.org/2000/svg" xmlns:xlink="http://www.w3.org/1999/xlink" width="20" height="20" viewBox="0 0 20 20"><path fill="currentColor" d="M4.5 3A2.5 2.5 0 0 0 2 5.5v9A2.5 2.5 0 0 0 4.5 17h4.837a3.5 3.5 0 0 1-.302-1H4.5A1.5 1.5 0 0 1 3 14.5V8h4.086a1.5 1.5 0 0 0 1.06-.44L9.707 6H15.5A1.5 1.5 0 0 1 17 7.5v4.535c.353.05.69.154 1 .302V7.5A2.5 2.5 0 0 0 15.5 5H9.707L8.22 3.513A1.75 1.75 0 0 0 6.982 3zM3 5.5A1.5 1.5 0 0 1 4.5 4h2.482a.75.75 0 0 1 .53.22l1.28 1.28L7.44 6.854A.5.5 0 0 1 7.086 7H3zm9.5 7.5a2.5 2.5 0 0 0 0 5h.5a.5.5 0 0 0 0-1h-.5a1.5 1.5 0 0 1 0-3h.5a.5.5 0 0 0 0-1zm3.5 0a.5.5 0 0 0 0 1h.5a1.5 1.5 0 0 1 0 3H16a.5.5 0 0 0 0 1h.5a2.5 2.5 0 0 0 0-5zm-4 2.5a.5.5 0 0 1 .5-.5h4a.5.5 0 0 1 0 1h-4a.5.5 0 0 1-.5-.5"/></svg>