<svg xmlns="http://www.w3.org/2000/svg" xmlns:xlink="http://www.w3.org/1999/xlink" width="16" height="16" viewBox="0 0 16 16"><path fill="currentColor" d="M1 4.5A2.5 2.5 0 0 1 3.5 2h2.086a1.5 1.5 0 0 1 1.06.44L8 3.792l-2.06 2.06A.5.5 0 0 1 5.585 6H1zM1 7v4.5A2.5 2.5 0 0 0 3.5 14h3.1A5.5 5.5 0 0 1 15 7.257V6.5A2.5 2.5 0 0 0 12.5 4H9.207l-2.56 2.56A1.5 1.5 0 0 1 5.585 7zm15 4.5a4.5 4.5 0 1 1-9 0a4.5 4.5 0 0 1 9 0m-4.854-2.353l-2 2a.5.5 0 0 0 .708.707L11 10.707V13.5a.5.5 0 0 0 1 0v-2.793l1.146 1.147a.5.5 0 0 0 .708-.708l-2-2A.5.5 0 0 0 11.503 9h-.006a.5.5 0 0 0-.348.144z"/></svg>