<svg xmlns="http://www.w3.org/2000/svg" xmlns:xlink="http://www.w3.org/1999/xlink" width="24" height="24" viewBox="0 0 24 24"><path fill="currentColor" d="M3.5 6.25V8h4.629a.75.75 0 0 0 .53-.22l1.53-1.53l-1.53-1.53a.75.75 0 0 0-.53-.22H5.25A1.75 1.75 0 0 0 3.5 6.25m-1.5 0A3.25 3.25 0 0 1 5.25 3h2.879a2.25 2.25 0 0 1 1.59.659L11.562 5.5h7.189A3.25 3.25 0 0 1 22 8.75v3.42c-.313-.11-.65-.17-1-.17h-.5V8.75A1.75 1.75 0 0 0 18.75 7h-7.19L9.72 8.841a2.25 2.25 0 0 1-1.591.659H3.5v8.25c0 .966.784 1.75 1.75 1.75H11v.5c0 .35.06.687.17 1H5.25A3.25 3.25 0 0 1 2 17.75zm10.019 8.474l5.49 3.203L23 14.97A2 2 0 0 0 21 13h-7a2 2 0 0 0-1.981 1.724M23 16.106l-5.263 2.834a.5.5 0 0 1-.489-.008L12 15.87V20a2 2 0 0 0 2 2h7a2 2 0 0 0 2-2z"/></svg>