<svg xmlns="http://www.w3.org/2000/svg" xmlns:xlink="http://www.w3.org/1999/xlink" width="20" height="20" viewBox="0 0 20 20"><path fill="currentColor" d="M2 5.5A2.5 2.5 0 0 1 4.5 3h2.482c.464 0 .91.184 1.238.513l1.28 1.28l-2.06 2.06A.5.5 0 0 1 7.085 7H2V5.5ZM2 8v6.5A2.5 2.5 0 0 0 4.5 17h4.506a2.312 2.312 0 0 1 1.69-2.422a2.75 2.75 0 1 1 4.545-2.996A2.245 2.245 0 0 1 18 11.379V7.5A2.5 2.5 0 0 0 15.5 5h-4.793l-2.56 2.56A1.5 1.5 0 0 1 7.085 8H2Zm12.5 4.75a1.75 1.75 0 1 1-3.5 0a1.75 1.75 0 0 1 3.5 0Zm1.5 4.063c0 1.09-.857 2.187-3 2.187s-3-1.094-3-2.188c0-.724.576-1.312 1.286-1.312h3.428c.71 0 1.286.588 1.286 1.313Zm.477 1.687h.023c1.786 0 2.5-.941 2.5-1.875c0-.621-.48-1.125-1.071-1.125h-1.333c.256.375.404.829.404 1.313c0 .582-.166 1.173-.523 1.687ZM18 13.25a1.25 1.25 0 1 1-2.5 0a1.25 1.25 0 0 1 2.5 0Z"/></svg>