<svg xmlns="http://www.w3.org/2000/svg" xmlns:xlink="http://www.w3.org/1999/xlink" width="16" height="16" viewBox="0 0 16 16"><path fill="currentColor" d="M2 6V4.5A1.5 1.5 0 0 1 3.5 3h2.086a.5.5 0 0 1 .353.146L7.293 4.5L5.939 5.854A.5.5 0 0 1 5.586 6zm1.5-4A2.5 2.5 0 0 0 1 4.5v7A2.5 2.5 0 0 0 3.5 14h9a2.5 2.5 0 0 0 2.5-2.5v-5A2.5 2.5 0 0 0 12.5 4H8.207l-1.56-1.56A1.5 1.5 0 0 0 5.585 2zM9 5v2.5a.5.5 0 0 0 .5.5h.5v1h-.5a.5.5 0 0 0 0 1h.5v1h-.5a.5.5 0 0 0 0 1h.5v1H3.5A1.5 1.5 0 0 1 2 11.5V7h3.586a1.5 1.5 0 0 0 1.06-.44L8.207 5zm2 8v-2h.5a.5.5 0 0 0 0-1H11V8h.5a.5.5 0 0 0 .5-.5V5h.5A1.5 1.5 0 0 1 14 6.5v5a1.5 1.5 0 0 1-1.5 1.5zm0-8v2h-1V5z"/></svg>