<svg xmlns="http://www.w3.org/2000/svg" xmlns:xlink="http://www.w3.org/1999/xlink" width="20" height="20" viewBox="0 0 20 20"><path fill="currentColor" d="M4.5 3A2.5 2.5 0 0 0 2 5.5v9A2.5 2.5 0 0 0 4.5 17h5.1a5.5 5.5 0 0 1-.393-1H4.5A1.5 1.5 0 0 1 3 14.5V8h4.086a1.5 1.5 0 0 0 1.06-.44L9.707 6H15.5A1.5 1.5 0 0 1 17 7.5v2.1q.538.276 1 .657V7.5A2.5 2.5 0 0 0 15.5 5H9.707L8.22 3.513A1.75 1.75 0 0 0 6.982 3zM3 5.5A1.5 1.5 0 0 1 4.5 4h2.482a.75.75 0 0 1 .53.22l1.28 1.28L7.44 6.854A.5.5 0 0 1 7.086 7H3zM14.5 10a4.5 4.5 0 1 1 0 9a4.5 4.5 0 0 1 0-9m2.353 4.854l.003-.003a.5.5 0 0 0 .144-.348v-.006a.5.5 0 0 0-.146-.35l-2-2a.5.5 0 0 0-.708.707L15.293 14H12.5a.5.5 0 0 0 0 1h2.793l-1.147 1.146a.5.5 0 0 0 .708.708z"/></svg>