<svg xmlns="http://www.w3.org/2000/svg" xmlns:xlink="http://www.w3.org/1999/xlink" width="28" height="28" viewBox="0 0 28 28"><path fill="currentColor" d="M3.501 6.683a.76.76 0 0 1 .003.067V9h5.918c.331 0 .649-.132.883-.366L12.19 6.75l-1.883-1.884a1.25 1.25 0 0 0-.884-.366H5.75a2.25 2.25 0 0 0-2.249 2.183ZM2.004 9.826A.748.748 0 0 1 2 9.75v-3A3.75 3.75 0 0 1 5.75 3h3.672c.729 0 1.428.29 1.944.805L13.561 6h8.69A3.75 3.75 0 0 1 26 9.75v4.652a7.534 7.534 0 0 0-1.5-1.247V9.75a2.25 2.25 0 0 0-2.25-2.25h-8.69l-2.195 2.195a2.75 2.75 0 0 1-1.944.805H3.504v9.75a2.25 2.25 0 0 0 2.25 2.25h7.87c.234.536.529 1.038.875 1.5H5.755a3.75 3.75 0 0 1-3.75-3.75V9.826ZM20.5 13a6.5 6.5 0 1 1 0 13a6.5 6.5 0 0 1 0-13Zm-4 6a.5.5 0 0 0 0 1h6.793l-2.147 2.146a.5.5 0 0 0 .708.708l3-3a.5.5 0 0 0 .146-.351v-.006a.499.499 0 0 0-.146-.35l-3-3a.5.5 0 0 0-.708.707L23.293 19H16.5Z"/></svg>