<svg xmlns="http://www.w3.org/2000/svg" xmlns:xlink="http://www.w3.org/1999/xlink" width="24" height="24" viewBox="0 0 24 24"><path fill="currentColor" d="M2 8V6.25A3.25 3.25 0 0 1 5.25 3h2.879a2.25 2.25 0 0 1 1.59.659l1.531 1.53L8.659 7.78a.75.75 0 0 1-.53.22zm0 1.5v8.25A3.25 3.25 0 0 0 5.25 21h6.772A6.5 6.5 0 0 1 22 12.81V8.75a3.25 3.25 0 0 0-3.25-3.25h-5.69L9.72 8.841a2.25 2.25 0 0 1-1.591.659zm21 8a5.5 5.5 0 1 1-11 0a5.5 5.5 0 0 1 11 0m-9.5 0c0 .834.255 1.608.691 2.248l5.557-5.557A4 4 0 0 0 13.5 17.5m4 4a4 4 0 0 0 3.309-6.248l-5.557 5.557a4 4 0 0 0 2.248.691"/></svg>