<svg xmlns="http://www.w3.org/2000/svg" xmlns:xlink="http://www.w3.org/1999/xlink" width="16" height="16" viewBox="0 0 16 16"><path fill="currentColor" d="M2 4.5V6h3.586a.5.5 0 0 0 .353-.146L7.293 4.5L5.939 3.146A.5.5 0 0 0 5.586 3H3.5A1.5 1.5 0 0 0 2 4.5m-1 0A2.5 2.5 0 0 1 3.5 2h2.086a1.5 1.5 0 0 1 1.06.44L8.207 4H12.5A2.5 2.5 0 0 1 15 6.5v.757a5.5 5.5 0 0 0-1-.657v-.1A1.5 1.5 0 0 0 12.5 5H8.207l-1.56 1.56A1.5 1.5 0 0 1 5.585 7H2v4.5A1.5 1.5 0 0 0 3.5 13h2.707q.149.524.393 1H3.5A2.5 2.5 0 0 1 1 11.5zm9.55 3.65c-.29.727-.493 1.722-.54 2.85h2.98c-.047-1.128-.25-2.123-.54-2.85c-.167-.417-.353-.722-.535-.914c-.18-.19-.32-.236-.415-.236s-.235.046-.415.236c-.182.192-.368.497-.535.914m-.72-.83a5 5 0 0 0-.209.459C9.277 8.64 9.056 9.766 9.01 11H7.027A4.5 4.5 0 0 1 9.83 7.32m3.34 0q.112.218.208.459c.345.862.565 1.987.612 3.221h1.982a4.5 4.5 0 0 0-2.802-3.68M15.972 12H13.99c-.047 1.234-.267 2.36-.612 3.221q-.096.24-.208.459A4.5 4.5 0 0 0 15.972 12M11.5 16c.094 0 .235-.046.415-.236c.182-.192.368-.497.535-.914c.29-.727.493-1.722.54-2.85h-2.98c.047 1.128.25 2.123.54 2.85c.167.417.353.722.535.914c.18.19.32.236.415.236m-1.67-.32A4.5 4.5 0 0 1 7.026 12H9.01c.047 1.234.268 2.36.612 3.221q.097.24.208.459"/></svg>