<svg xmlns="http://www.w3.org/2000/svg" xmlns:xlink="http://www.w3.org/1999/xlink" width="32" height="32" viewBox="0 0 32 32"><path fill="currentColor" d="M2 8.5A4.5 4.5 0 0 1 6.5 4h3.964a3.5 3.5 0 0 1 2.475 1.025L15 7.085l-3.475 3.476a1.5 1.5 0 0 1-1.06.439H2zM2 13v10.5A4.5 4.5 0 0 0 6.5 28h10.016A9 9 0 0 1 30 16.292V12a4.5 4.5 0 0 0-4.501-4.5h-8.086l-4.475 4.475A3.5 3.5 0 0 1 10.464 13zm14.5 10a7.5 7.5 0 1 0 15 0a7.5 7.5 0 0 0-15 0m12.25 1h-7.69l2.72 2.72a.75.75 0 1 1-1.06 1.06l-4-4a.75.75 0 0 1 0-1.06l4-4a.75.75 0 1 1 1.06 1.06l-2.72 2.72h7.69a.75.75 0 0 1 0 1.5"/></svg>