<svg xmlns="http://www.w3.org/2000/svg" xmlns:xlink="http://www.w3.org/1999/xlink" width="16" height="16" viewBox="0 0 16 16"><path fill="currentColor" d="M2 6V4.5A1.5 1.5 0 0 1 3.5 3h2.086a.5.5 0 0 1 .353.146L7.293 4.5L5.939 5.854A.5.5 0 0 1 5.586 6zm1.5-4A2.5 2.5 0 0 0 1 4.5v7A2.5 2.5 0 0 0 3.5 14h4.538A3 3 0 0 1 8 13.5q0-.257.05-.5H3.5A1.5 1.5 0 0 1 2 11.5V7h3.586a1.5 1.5 0 0 0 1.06-.44L8.207 5H12.5a1.5 1.5 0 0 1 1.497 1.4A3 3 0 0 1 15 7.341V6.5A2.5 2.5 0 0 0 12.5 4H8.207l-1.56-1.56A1.5 1.5 0 0 0 5.585 2zm11 7a2 2 0 1 1-4 0a2 2 0 0 1 4 0m1.5 4.5c0 1.245-1 2.5-3.5 2.5S9 14.75 9 13.5a1.5 1.5 0 0 1 1.5-1.5h4a1.5 1.5 0 0 1 1.5 1.5"/></svg>