<svg xmlns="http://www.w3.org/2000/svg" xmlns:xlink="http://www.w3.org/1999/xlink" width="28" height="28" viewBox="0 0 28 28"><path fill="currentColor" d="m3.501 6.683l.003.067V9h5.918c.331 0 .649-.132.883-.366L12.19 6.75l-1.883-1.884a1.25 1.25 0 0 0-.884-.366H5.75a2.25 2.25 0 0 0-2.249 2.183M2.004 9.826L2 9.75v-3A3.75 3.75 0 0 1 5.75 3h3.672c.729 0 1.428.29 1.944.805L13.561 6h8.69A3.75 3.75 0 0 1 26 9.75v7.627a4.7 4.7 0 0 0-1.5-.71V9.75a2.25 2.25 0 0 0-2.25-2.25h-8.69l-2.195 2.195a2.75 2.75 0 0 1-1.944.805H3.504v9.75a2.25 2.25 0 0 0 2.25 2.25h7.412c.149.545.392 1.052.71 1.5H5.755a3.75 3.75 0 0 1-3.75-3.75zM17.75 19a2.25 2.25 0 0 0 0 4.5h.5a.75.75 0 0 1 0 1.5h-.5a3.75 3.75 0 1 1 0-7.5h.5a.75.75 0 0 1 0 1.5zM17 21.25a.75.75 0 0 1 .75-.75h5.5a.75.75 0 0 1 0 1.5h-5.5a.75.75 0 0 1-.75-.75m6.25 2.25a2.25 2.25 0 0 0 0-4.5h-.5a.75.75 0 0 1 0-1.5h.5a3.75 3.75 0 1 1 0 7.5h-.5a.75.75 0 0 1 0-1.5z"/></svg>