<svg xmlns="http://www.w3.org/2000/svg" xmlns:xlink="http://www.w3.org/1999/xlink" width="24" height="24" viewBox="0 0 24 24"><path fill="currentColor" d="M3.5 6.25V8h4.629a.75.75 0 0 0 .53-.22l1.53-1.53l-1.53-1.53a.75.75 0 0 0-.53-.22H5.25A1.75 1.75 0 0 0 3.5 6.25m-1.5 0A3.25 3.25 0 0 1 5.25 3h2.879a2.25 2.25 0 0 1 1.59.659L11.562 5.5h7.189A3.25 3.25 0 0 1 22 8.75V11h-1.5V8.75A1.75 1.75 0 0 0 18.75 7h-7.19L9.72 8.841a2.25 2.25 0 0 1-1.591.659H3.5v8.25c0 .966.784 1.75 1.75 1.75h8.129c.269.302.661.5 1.118.5h1.723l-.249 1H5.25A3.25 3.25 0 0 1 2 17.75zM17.318 12h4.827a.5.5 0 0 1 .436.745L20.751 16h1.495a.75.75 0 0 1 .565 1.244l-4.824 5.508c-.505.576-1.443.085-1.258-.657L17.5 19h-3.002a.5.5 0 0 1-.453-.713l2.82-6a.5.5 0 0 1 .453-.287"/></svg>