<svg xmlns="http://www.w3.org/2000/svg" xmlns:xlink="http://www.w3.org/1999/xlink" width="20" height="20" viewBox="0 0 20 20"><path fill="currentColor" d="M2 5.5A2.5 2.5 0 0 1 4.5 3h2.482c.464 0 .91.184 1.238.513l1.28 1.28l-2.06 2.06A.5.5 0 0 1 7.085 7H2zM2 8v6.5A2.5 2.5 0 0 0 4.5 17h6.585c.066-.186.168-.356.297-.5a1.5 1.5 0 0 1-.382-1c0-.384.144-.735.382-1A1.5 1.5 0 0 1 12.5 12H18V7.5A2.5 2.5 0 0 0 15.5 5h-4.793l-2.56 2.56A1.5 1.5 0 0 1 7.085 8zm10.5 5a.5.5 0 0 0 0 1h6a.5.5 0 0 0 0-1zm0 2a.5.5 0 0 0 0 1h6a.5.5 0 0 0 0-1zm-.5 2.5a.5.5 0 0 1 .5-.5h6a.5.5 0 0 1 0 1h-6a.5.5 0 0 1-.5-.5"/></svg>