<svg xmlns="http://www.w3.org/2000/svg" xmlns:xlink="http://www.w3.org/1999/xlink" width="20" height="20" viewBox="0 0 20 20"><path fill="currentColor" d="M10.469 9.609a.5.5 0 0 0 .143-.99c-1.076-.155-2.354.722-2.354 2.163a.5.5 0 0 0 1 0c0-.8.707-1.246 1.211-1.173M3.993 7.134c-2.417 1.908-2.48 5.142-1.347 7.32c.761 1.464 2.225 2.767 4.421 2.767c.545 0 .938-.015 1.248-.026c.937-.036 1.107-.042 2.412.48c1.736.694 3.582.488 5.124-.476c1.388-.868 2.185-2.882 2.05-4.517c-.081-.982-.008-1.366.086-1.862a10 10 0 0 0 .178-1.344c.107-1.595-.645-3.092-1.054-3.806s-1.1-1.83-2.724-2.855c-1.333-.842-3.858-1.245-5.856-.146c-1.464.805-2.196 1.537-3.074 3c-.333.555-.652.823-1.464 1.465M14.9 10.465a4.495 4.495 0 1 1-8.99 0a4.495 4.495 0 0 1 8.99 0"/></svg>