<svg xmlns="http://www.w3.org/2000/svg" xmlns:xlink="http://www.w3.org/1999/xlink" width="16" height="16" viewBox="0 0 16 16"><path fill="currentColor" d="M1.338 1.961C1.495 1.362 2.041 1 2.615 1c.354 0 .676.133.921.35a1.5 1.5 0 0 1 1.928 0A1.38 1.38 0 0 1 6.385 1c.574 0 1.12.362 1.277.961C7.812 2.533 8 3.455 8 4.5a3.5 3.5 0 0 1-1.595 2.936c-.271.177-.405.405-.405.6v.396q0 .034.004.066c.034.248.157 1.169.272 2.124c.113.937.224 1.959.224 2.378a2 2 0 1 1-4 0c0-.42.111-1.44.224-2.378c.115-.955.238-1.876.272-2.124L3 8.432v-.396c0-.195-.134-.423-.405-.6A3.5 3.5 0 0 1 1 4.5c0-1.045.188-1.967.338-2.539M6 5a.5.5 0 0 1-1 0V2.5a.5.5 0 0 0-1 0V5a.5.5 0 0 1-1 0V2.385A.385.385 0 0 0 2.615 2c-.166 0-.28.099-.31.215A9.2 9.2 0 0 0 2 4.5a2.5 2.5 0 0 0 1.14 2.098c.439.285.86.786.86 1.438v.396q0 .1-.013.2c-.034.246-.156 1.161-.27 2.11c-.116.965-.217 1.914-.217 2.258a1 1 0 1 0 2 0c0-.344-.1-1.293-.217-2.259c-.114-.948-.236-1.863-.27-2.11A2 2 0 0 1 5 8.433v-.396c0-.652.421-1.153.86-1.438A2.5 2.5 0 0 0 7 4.5c0-.932-.168-1.764-.305-2.285C6.665 2.1 6.55 2 6.385 2A.385.385 0 0 0 6 2.385zm3 .5A4.5 4.5 0 0 1 13.5 1a.5.5 0 0 1 .5.5v5.973l.019.177a261 261 0 0 1 .229 2.24c.123 1.256.252 2.664.252 3.11a2 2 0 1 1-4 0c0-.446.129-1.854.252-3.11c.063-.637.126-1.247.173-1.699l.02-.191H10a1 1 0 0 1-1-1zm2.997 2.053l-.021.202a386 386 0 0 0-.228 2.233c-.127 1.287-.248 2.63-.248 3.012a1 1 0 1 0 2 0c0-.383-.121-1.725-.248-3.012a315 315 0 0 0-.228-2.233l-.021-.201L13 7.5V2.035A3.5 3.5 0 0 0 10 5.5V7h1.5a.5.5 0 0 1 .497.553"/></svg>