<svg xmlns="http://www.w3.org/2000/svg" xmlns:xlink="http://www.w3.org/1999/xlink" width="32" height="32" viewBox="0 0 32 32"><path fill="currentColor" d="M30 10.5a8.5 8.5 0 0 0-16.862-1.534c-.777 2.366-1.467 3.695-1.86 4.342l-3.985 3.985A1 1 0 0 0 8 19h.108l-3.024 3.024a3.5 3.5 0 0 0-1.716 6.255q.204.157.361.36a3.5 3.5 0 0 0 6.248-1.736L13 23.878V24a1 1 0 0 0 1.707.707l3.986-3.986c.654-.395 1.992-1.087 4.372-1.865A8.5 8.5 0 0 0 30 10.5M10.937 19H13v2.05l-4.683 4.684A1.08 1.08 0 0 0 8 26.5a1.5 1.5 0 0 1-2.688.916a4 4 0 0 0-.727-.724A1.5 1.5 0 0 1 5.495 24c.283 0 .553-.112.753-.311z"/></svg>