<svg xmlns="http://www.w3.org/2000/svg" xmlns:xlink="http://www.w3.org/1999/xlink" width="28" height="28" viewBox="0 0 28 28"><path fill="currentColor" d="M7.5 12.5a1 1 0 1 1 2 0a1 1 0 0 1-2 0m1 6a1 1 0 1 0 0 2a1 1 0 0 0 0-2M3 6.75A3.75 3.75 0 0 1 6.75 3h14.5A3.75 3.75 0 0 1 25 6.75v7.75a7.47 7.47 0 0 0-4.5-1.5h.75a.75.75 0 0 0 0-1.5h-7.5a.75.75 0 0 0 0 1.5h6.75a7.5 7.5 0 0 0-6 12H6.75A3.75 3.75 0 0 1 3 21.25zm3 5.75a2.5 2.5 0 1 0 5 0a2.5 2.5 0 0 0-5 0M8.5 17a2.5 2.5 0 1 0 0 5a2.5 2.5 0 0 0 0-5M6 6.75c0 .414.336.75.75.75h14.5a.75.75 0 0 0 0-1.5H6.75a.75.75 0 0 0-.75.75M27 20.5a6.5 6.5 0 1 1-13 0a6.5 6.5 0 0 1 13 0m-6-4a.5.5 0 0 0-1 0V20h-3.5a.5.5 0 0 0 0 1H20v3.5a.5.5 0 0 0 1 0V21h3.5a.5.5 0 0 0 0-1H21z"/></svg>