<svg xmlns="http://www.w3.org/2000/svg" xmlns:xlink="http://www.w3.org/1999/xlink" width="24" height="24" viewBox="0 0 24 24"><path fill="currentColor" d="M6 10.75a2.25 2.25 0 1 1 4.5 0a2.25 2.25 0 0 1-4.5 0M8.25 10a.75.75 0 1 0 0 1.5a.75.75 0 0 0 0-1.5m0 4a2.25 2.25 0 1 0 0 4.5a2.25 2.25 0 0 0 0-4.5m-.75 2.25a.75.75 0 1 1 1.5 0a.75.75 0 0 1-1.5 0m4.5-5.5a.75.75 0 0 1 .75-.75h4.5a.75.75 0 0 1 0 1.5h-4.5a.75.75 0 0 1-.75-.75m.75 4.75a.75.75 0 0 0 0 1.5h4.5a.75.75 0 0 0 0-1.5zM6 6.75A.75.75 0 0 1 6.75 6h10.5a.75.75 0 0 1 0 1.5H6.75A.75.75 0 0 1 6 6.75M6.25 3A3.25 3.25 0 0 0 3 6.25v11.5A3.25 3.25 0 0 0 6.25 21h11.5A3.25 3.25 0 0 0 21 17.75V6.25A3.25 3.25 0 0 0 17.75 3zM4.5 6.25c0-.966.784-1.75 1.75-1.75h11.5c.966 0 1.75.784 1.75 1.75v11.5a1.75 1.75 0 0 1-1.75 1.75H6.25a1.75 1.75 0 0 1-1.75-1.75z"/></svg>