<svg xmlns="http://www.w3.org/2000/svg" xmlns:xlink="http://www.w3.org/1999/xlink" width="28" height="28" viewBox="0 0 28 28"><path fill="currentColor" d="M8.5 11.5a1 1 0 1 0 0 2a1 1 0 0 0 0-2m-1 8a1 1 0 1 1 2 0a1 1 0 0 1-2 0M3 6.75A3.75 3.75 0 0 1 6.75 3h14.5A3.75 3.75 0 0 1 25 6.75v14.5A3.75 3.75 0 0 1 21.25 25H6.75A3.75 3.75 0 0 1 3 21.25zm3 5.75a2.5 2.5 0 1 0 5 0a2.5 2.5 0 0 0-5 0M8.5 17a2.5 2.5 0 1 0 0 5a2.5 2.5 0 0 0 0-5m4.5-4.75c0 .414.336.75.75.75h7.5a.75.75 0 0 0 0-1.5h-7.5a.75.75 0 0 0-.75.75m.75 6.25a.75.75 0 0 0 0 1.5h7.5a.75.75 0 0 0 0-1.5zM6 6.75c0 .414.336.75.75.75h14.5a.75.75 0 0 0 0-1.5H6.75a.75.75 0 0 0-.75.75"/></svg>