<svg xmlns="http://www.w3.org/2000/svg" xmlns:xlink="http://www.w3.org/1999/xlink" width="20" height="20" viewBox="0 0 20 20"><path fill="currentColor" d="M5 2.75a.75.75 0 0 0-1.392-.388l-.003.005l-.018.028l-.083.12c-.076.106-.19.254-.338.416c-.303.33-.714.68-1.194.873a.75.75 0 0 0 .557 1.392c.365-.146.69-.34.971-.55V9.25a.75.75 0 0 0 1.5 0zm8 1.75a2.5 2.5 0 1 1 5 0v3a2.5 2.5 0 0 1-5 0zm3.5 0a1 1 0 1 0-2 0v3a1 1 0 1 0 2 0zM3 12.5a.5.5 0 0 1 .5-.5h3a.5.5 0 0 1 0 1H4v2h1.5a.5.5 0 0 1 0 1H4v1.5a.5.5 0 0 1-1 0zm5 0a.5.5 0 0 1 .5-.5H10a2 2 0 0 1 0 4H9v1.5a.5.5 0 0 1-1 0zM9 15h1a1 1 0 1 0 0-2H9zm5.75-3a1.75 1.75 0 0 0 0 3.5h.5a.75.75 0 0 1 0 1.5h-.764a.486.486 0 0 1-.486-.486V16.5a.5.5 0 0 0-1 0v.014c0 .82.665 1.486 1.486 1.486h.764a1.75 1.75 0 1 0 0-3.5h-.5a.75.75 0 0 1 0-1.5h.764c.269 0 .486.217.486.486v.014a.5.5 0 1 0 1 0v-.014c0-.82-.665-1.486-1.486-1.486zM7.99 4.374l-.002.01a.75.75 0 0 1-1.478-.257c-.069.414 0-.002 0-.002l.027-.121q.023-.096.074-.243c.07-.192.187-.45.383-.71C7.405 2.5 8.12 2 9.25 2c.959 0 1.731.379 2.222 1.002c.48.608.644 1.39.517 2.124c-.14.816-.603 1.312-1.147 1.628c-.364.212-.816.366-1.183.491q-.161.055-.294.103c-.452.165-.767.327-.982.57a1.4 1.4 0 0 0-.298.581h3.165a.75.75 0 0 1 0 1.5h-4a.75.75 0 0 1-.75-.75c0-1.012.266-1.769.76-2.326c.476-.536 1.09-.802 1.59-.984q.248-.089.448-.157c.322-.11.566-.194.789-.324c.242-.14.374-.293.424-.586a1.2 1.2 0 0 0-.217-.942c-.181-.23-.502-.43-1.044-.43c-.62 0-.905.247-1.056.45a1.3 1.3 0 0 0-.206.432l.001-.004v-.005"/></svg>