<svg xmlns="http://www.w3.org/2000/svg" xmlns:xlink="http://www.w3.org/1999/xlink" width="20" height="20" viewBox="0 0 20 20"><path fill="currentColor" d="M7 7.5a2.5 2.5 0 0 1-5 0a.5.5 0 0 1 1 0a1.5 1.5 0 1 0 3 0v-1a2.5 2.5 0 1 1 1-2zm-1-3a1.5 1.5 0 1 0-3 0a1.5 1.5 0 0 0 3 0M10.5 2A2.5 2.5 0 0 0 8 4.5v3a2.5 2.5 0 1 0 1-2v-1a1.5 1.5 0 1 1 3 0a.5.5 0 0 0 1 0A2.5 2.5 0 0 0 10.5 2m0 7a1.5 1.5 0 1 1 0-3a1.5 1.5 0 0 1 0 3m6-6A1.5 1.5 0 0 0 15 4.5v3a1.5 1.5 0 0 0 3 0v-3A1.5 1.5 0 0 0 16.5 3M14 4.5a2.5 2.5 0 0 1 5 0v3a2.5 2.5 0 0 1-5 0zM3.5 12a.5.5 0 0 0-.5.5v5a.5.5 0 0 0 1 0V16h1.5a.5.5 0 0 0 0-1H4v-2h2.5a.5.5 0 0 0 0-1zm5 0a.5.5 0 0 0-.5.5v5a.5.5 0 0 0 1 0V16h1a2 2 0 1 0 0-4zm1.5 3H9v-2h1a1 1 0 1 1 0 2m3-1.25c0-.966.784-1.75 1.75-1.75h.75a1.5 1.5 0 0 1 1.5 1.5a.5.5 0 0 1-1 0a.5.5 0 0 0-.5-.5h-.75a.75.75 0 0 0 0 1.5h.5a1.75 1.75 0 1 1 0 3.5h-.75a1.5 1.5 0 0 1-1.5-1.5a.5.5 0 0 1 1 0a.5.5 0 0 0 .5.5h.75a.75.75 0 0 0 0-1.5h-.5A1.75 1.75 0 0 1 13 13.75"/></svg>