<svg xmlns="http://www.w3.org/2000/svg" xmlns:xlink="http://www.w3.org/1999/xlink" width="28" height="28" viewBox="0 0 28 28"><path fill="currentColor" d="M9 2.5a1 1 0 0 1 1 1V7a3 3 0 0 1-3 3H3.5a1 1 0 0 1 0-2H7a1 1 0 0 0 1-1V3.5a1 1 0 0 1 1-1m10 0a1 1 0 0 1 1 1V7a1 1 0 0 0 1 1h3.5a1 1 0 1 1 0 2H21a3 3 0 0 1-3-3V3.5a1 1 0 0 1 1-1M2.5 19a1 1 0 0 1 1-1H7a3 3 0 0 1 3 3v3.5a1 1 0 1 1-2 0V21a1 1 0 0 0-1-1H3.5a1 1 0 0 1-1-1M18 21a3 3 0 0 1 3-3h3.5a1 1 0 1 1 0 2H21a1 1 0 0 0-1 1v3.5a1 1 0 1 1-2 0z"/></svg>