<svg xmlns="http://www.w3.org/2000/svg" xmlns:xlink="http://www.w3.org/1999/xlink" width="20" height="20" viewBox="0 0 20 20"><path fill="currentColor" d="M10 18a8 8 0 1 0-7.996-7.746a5.5 5.5 0 0 1 2.05-1.062a6 6 0 0 1 8.127-4.783a.5.5 0 0 1-.363.932a5.002 5.002 0 0 0-6.72 3.673a5.48 5.48 0 0 1 3.573.99c.06-.169.151-.331.275-.477c.072-.084.203-.204.343-.328c.15-.132.343-.296.56-.479a236 236 0 0 1 2.957-2.4l.275-.219l.369-.293a.5.5 0 0 1 .746.637l-.11.196l-.686 1.206l-.23.402l-.298.518l-.422.727c-.2.345-.395.675-.567.963a30 30 0 0 1-.492.793l-.074.108a1.5 1.5 0 0 1-.932.613c.393.757.615 1.617.615 2.529c0 1.328-.47 2.546-1.254 3.496Q9.873 18 10 18m5.59-10.182a6 6 0 0 1-1.347 6.425a.5.5 0 1 1-.707-.707a5 5 0 0 0 1.123-5.354a.5.5 0 0 1 .932-.364M8 18.242a4.5 4.5 0 1 1-5-7.483a4.5 4.5 0 0 1 5 7.483m-2.146-6.096A.5.5 0 0 0 5 12.5V14H3.5a.5.5 0 0 0 0 1H5v1.5a.5.5 0 0 0 1 0V15h1.5a.5.5 0 0 0 0-1H6v-1.5a.5.5 0 0 0-.146-.354"/></svg>