<svg xmlns="http://www.w3.org/2000/svg" xmlns:xlink="http://www.w3.org/1999/xlink" width="32" height="32" viewBox="0 0 32 32"><path fill="currentColor" d="M22.962 21.869a1 1 0 0 0 1.344-.3a10.01 10.01 0 0 0 .3-10.665a1 1 0 1 0-1.72 1.021a8.01 8.01 0 0 1-.24 8.528a1 1 0 0 0 .316 1.416m-14.424.163a1 1 0 0 1-.83-.44A10 10 0 0 1 17.948 6.19a1 1 0 1 1-.387 1.962A8.008 8.008 0 0 0 8 16a7.96 7.96 0 0 0 1.366 4.473a1 1 0 0 1-.828 1.559m12.98-14.156a.82.82 0 0 0-.526.177l-1.056.842c-.638.507-1.494 1.192-2.368 1.9s-1.77 1.437-2.485 2.037c-.357.3-.673.568-.92.786a7 7 0 0 0-.563.538a2.463 2.463 0 0 0 3.745 3.2a7 7 0 0 0 .443-.64c.176-.278.393-.632.632-1.032c.48-.8 1.061-1.798 1.623-2.773s1.108-1.927 1.508-2.636l.484-.853l.182-.322a.82.82 0 0 0-.7-1.224M16 2C8.268 2 2 8.268 2 16s6.268 14 14 14s14-6.268 14-14S23.732 2 16 2M4 16C4 9.373 9.373 4 16 4s12 5.373 12 12s-5.373 12-12 12S4 22.627 4 16"/></svg>