<svg xmlns="http://www.w3.org/2000/svg" xmlns:xlink="http://www.w3.org/1999/xlink" width="20" height="20" viewBox="0 0 20 20"><path fill="currentColor" d="M10.406 16.988a7 7 0 1 0-7.394-7.394q-.543.276-1.008.66L2 10a8 8 0 1 1 7.746 7.996q.384-.466.66-1.008m2.06-11.931a.5.5 0 0 1-.647.284a5 5 0 0 0-6.721 3.673a5.5 5.5 0 0 0-1.044.178a6 6 0 0 1 8.127-4.783a.5.5 0 0 1 .285.648M8.67 10.005a5.5 5.5 0 0 1 1.715 1.966a1.5 1.5 0 0 0 .842-.496c.072-.084.17-.232.27-.39c.107-.17.239-.385.385-.628c.292-.488.646-1.096.989-1.69a301 301 0 0 0 1.213-2.126l.111-.196a.5.5 0 0 0-.746-.637l-.177.14a335 335 0 0 0-1.91 1.531c-.532.431-1.078.877-1.513 1.242c-.218.182-.41.346-.56.478a4 4 0 0 0-.344.328a1.5 1.5 0 0 0-.275.479m6.273-2.47a.5.5 0 0 1 .647.284a6 6 0 0 1-1.348 6.424a.5.5 0 1 1-.707-.707a5 5 0 0 0 1.123-5.354a.5.5 0 0 1 .284-.648M8 18.241a4.5 4.5 0 1 1-5-7.483a4.5 4.5 0 0 1 5 7.483m-2.146-6.096A.5.5 0 0 0 5 12.5V14H3.5a.5.5 0 0 0 0 1H5v1.5a.5.5 0 0 0 1 0V15h1.5a.5.5 0 0 0 0-1H6v-1.5a.5.5 0 0 0-.146-.354"/></svg>