<svg xmlns="http://www.w3.org/2000/svg" xmlns:xlink="http://www.w3.org/1999/xlink" width="24" height="24" viewBox="0 0 24 24"><path fill="currentColor" d="M12 22c5.523 0 10-4.477 10-10S17.523 2 12 2S2 6.477 2 12s4.477 10 10 10Zm3.88-15.333a.625.625 0 0 1 .961.761l-.13.25a354.691 354.691 0 0 1-1.415 2.713a154.8 154.8 0 0 1-1.156 2.157c-.171.31-.326.586-.452.803a4.964 4.964 0 0 1-.32.5a1.875 1.875 0 0 1-2.94-2.327c.086-.109.244-.265.413-.425c.182-.173.414-.387.678-.625a154.39 154.39 0 0 1 1.832-1.62a375.175 375.175 0 0 1 2.314-2.003l.214-.184Zm-7.946 10.46a.75.75 0 0 1-1.06 0a7.25 7.25 0 0 1 6.798-12.182a.75.75 0 1 1-.344 1.46a5.75 5.75 0 0 0-5.393 9.661a.75.75 0 0 1 0 1.06Zm9.954-7.985a.75.75 0 0 1 .955.46a7.25 7.25 0 0 1-1.716 7.524a.75.75 0 1 1-1.061-1.06a5.75 5.75 0 0 0 1.362-5.969a.75.75 0 0 1 .46-.955Z"/></svg>