<svg xmlns="http://www.w3.org/2000/svg" xmlns:xlink="http://www.w3.org/1999/xlink" width="20" height="20" viewBox="0 0 20 20"><path fill="currentColor" d="M6.666 7.59a1.5 1.5 0 0 1-.226-2.307l2.841-2.841a1.5 1.5 0 0 1 2.278.184l.473.656l-4.733 4.732zm1.48.992l4.478-4.477l1.322 1.836a.5.5 0 0 0 .113.113l1.837 1.323l-1.628 1.628a5.48 5.48 0 0 0-3.673 1.621l-.434-.649a.5.5 0 0 0-.137-.137zm7.435.524a5.5 5.5 0 0 1 2.323 1.074a1.5 1.5 0 0 0-.53-1.738l-.656-.473zm-6.277 3.588q.236-.677.629-1.26l-.548-.818l-1.196-.801l-5.775 5.775a1.412 1.412 0 1 0 1.997 1.996zM10 14.5a4.5 4.5 0 1 0 9 0a4.5 4.5 0 0 0-9 0m1 0a3.5 3.5 0 0 1 5.596-2.803l-4.9 4.9A3.5 3.5 0 0 1 11 14.5m3.5 3.5c-.786 0-1.512-.26-2.096-.697l4.9-4.9A3.5 3.5 0 0 1 14.5 18"/></svg>