<svg xmlns="http://www.w3.org/2000/svg" xmlns:xlink="http://www.w3.org/1999/xlink" width="32" height="32" viewBox="0 0 32 32"><path fill="currentColor" d="M28.293 29.707L22.586 24H21.5a4.5 4.5 0 0 1-4.5-4.5v-1.085L15.586 17H15v2.5a4.5 4.5 0 0 1-4.5 4.5h-4A4.5 4.5 0 0 1 2 19.5v-4.575a3.5 3.5 0 0 1 .843-2.278L6.715 8.13L2.293 3.707a1 1 0 0 1 1.414-1.414l26 26a1 1 0 0 1-1.414 1.414M8.133 9.547L6.032 12h4.554zm9.27 4.321l1.598 1.598A1.5 1.5 0 0 1 20.5 14h6a1.5 1.5 0 0 1 1.5 1.5v4a2.5 2.5 0 0 1-2.466 2.5l1.667 1.667A4.5 4.5 0 0 0 30 19.5v-4.575a3.5 3.5 0 0 0-.842-2.278l-4.65-5.425A3.5 3.5 0 0 0 21.85 6H20a1 1 0 1 0 0 2h1.85a1.5 1.5 0 0 1 1.138.524L25.97 12H20.5a3.5 3.5 0 0 0-3.097 1.868M11.535 8L9.58 6.047A3.5 3.5 0 0 1 10.15 6H12a1 1 0 1 1 0 2zM13 19.5v-4a1.5 1.5 0 0 0-1.5-1.5h-6A1.5 1.5 0 0 0 4 15.5v4A2.5 2.5 0 0 0 6.5 22h4a2.5 2.5 0 0 0 2.5-2.5"/></svg>