<svg xmlns="http://www.w3.org/2000/svg" xmlns:xlink="http://www.w3.org/1999/xlink" width="24" height="24" viewBox="0 0 24 24"><path fill="currentColor" d="M3.28 2.22a.75.75 0 1 0-1.06 1.06l3.273 3.274l-2.865 3.119l-.044.052l-.038.055c-.34.394-.546.908-.546 1.47v3.496a3.25 3.25 0 0 0 3.25 3.25h2.499a3.25 3.25 0 0 0 3.25-3.25l-.001-2.242h.445L13 14.061v.685a3.25 3.25 0 0 0 3.25 3.25h.685l3.784 3.785a.75.75 0 0 0 1.061-1.061zM7.94 9l-2.656-.001l1.272-1.384zm5.364 1.121l7.297 7.297A3.25 3.25 0 0 0 22 14.746V11.25c0-.53-.183-1.017-.489-1.4a.8.8 0 0 0-.122-.179l-3.642-3.947l-.133-.132A2.25 2.25 0 0 0 16.093 5h-.843l-.102.007A.75.75 0 0 0 15.25 6.5h.843l.103.007a.75.75 0 0 1 .448.234L18.727 9H15.25c-.831 0-1.557.452-1.947 1.122"/></svg>