<svg xmlns="http://www.w3.org/2000/svg" xmlns:xlink="http://www.w3.org/1999/xlink" width="48" height="48" viewBox="0 0 48 48"><path fill="currentColor" d="M24 4c11.046 0 20 8.954 20 20c0 1.37-.138 2.706-.4 3.998a3.45 3.45 0 0 0-2.23.73l-.669.514A17.5 17.5 0 0 0 41.5 24c0-1.921-.31-3.77-.882-5.5h-7a40 40 0 0 1 .271 8.5H31.38q.118-1.46.119-3a36 36 0 0 0-.41-5.5H16.91a36 36 0 0 0-.41 5.5c0 2.12.175 4.137.49 6h4.426A5 5 0 0 0 21 32v.5h-3.48c.437 1.702.997 3.228 1.645 4.524c.6 1.2 1.223 2.115 1.835 2.794V42c0 .644.122 1.26.344 1.825C11.554 42.525 4 34.145 4 24C4 12.954 12.954 4 24 4m-9.542 26A39 39 0 0 1 14 24c0-1.907.133-3.753.383-5.5H7.382A17.5 17.5 0 0 0 6.5 24c0 2.108.373 4.129 1.056 6zm-5.759 2.5a17.55 17.55 0 0 0 9.713 8.089c-1.49-2.012-2.695-4.807-3.466-8.089zM30.604 16c-.453-1.905-1.058-3.602-1.769-5.024C27.158 7.622 25.305 6.5 24 6.5c-1.304 0-3.158 1.122-4.835 4.476c-.711 1.422-1.316 3.12-1.769 5.024zm2.564 0h6.4a17.55 17.55 0 0 0-9.98-8.589c1.565 2.114 2.816 5.09 3.58 8.589M18.412 7.411A17.55 17.55 0 0 0 8.432 16h6.4c.764-3.499 2.015-6.475 3.58-8.589M23 32a3 3 0 0 1 3-3h9a3 3 0 0 1 3 3v1.843l4.589-3.53c.986-.758 2.414-.055 2.414 1.19v10.991c0 1.245-1.428 1.948-2.414 1.19L38 40.153V42a3 3 0 0 1-3 3h-9a3 3 0 0 1-3-3z"/></svg>