<svg xmlns="http://www.w3.org/2000/svg" xmlns:xlink="http://www.w3.org/1999/xlink" width="32" height="32" viewBox="0 0 32 32"><path fill="currentColor" d="M18.427 22.354c.543-1.177.984-2.66 1.26-4.354h-7.374c.276 1.694.717 3.177 1.26 4.354C14.591 24.56 15.593 25 16 25s1.41-.441 2.427-2.646m1.176 2.042c.977-1.593 1.723-3.818 2.108-6.396h4.54a11.03 11.03 0 0 1-6.648 6.396M21.929 16h4.89a11 11 0 0 0 0-4h-4.89a28 28 0 0 1 0 4M12 14q0 1.028.076 2h7.848a26 26 0 0 0 0-4h-7.848q-.075.972-.076 2m-2 0q0 1.021.07 2H5.182a11.1 11.1 0 0 1 0-4h4.89q-.07.979-.071 2m2.397 10.396A11.03 11.03 0 0 1 5.75 18h4.54c.384 2.578 1.13 4.803 2.107 6.396M19.687 10c-.276-1.694-.717-3.177-1.26-4.354C17.409 3.44 16.407 3 16 3c-.406 0-1.41.441-2.427 2.646c-.543 1.177-.984 2.66-1.26 4.354zm6.563 0h-4.54c-.384-2.578-1.13-4.803-2.107-6.396A11.03 11.03 0 0 1 26.25 10m-15.96 0H5.75a11.03 11.03 0 0 1 6.647-6.396C11.42 5.197 10.674 7.422 10.29 10M5 21h.642c.49.724 1.056 1.395 1.683 2h-1.57l-1.43 5h23.35l-1.43-5h-1.57a12.6 12.6 0 0 0 1.683-2H27a1 1 0 0 1 .962.725l2 7A1 1 0 0 1 29 30H3a1 1 0 0 1-.962-1.275l2-7A1 1 0 0 1 5 21"/></svg>