<svg xmlns="http://www.w3.org/2000/svg" xmlns:xlink="http://www.w3.org/1999/xlink" width="24" height="24" viewBox="0 0 24 24"><path fill="currentColor" d="M15.095 16.5q-.06.317-.127.618A2.77 2.77 0 0 0 13 19.772v.103c0 .465.084.93.26 1.371c-.404.486-.833.753-1.26.753c-1.197 0-2.401-2.094-3.038-5.204l-.058-.294zm-.095-2c0-.654.18-1.266.492-1.79a26 26 0 0 0-.068-2.71H8.575l-.033.489A26 26 0 0 0 8.674 15h6.362a3.5 3.5 0 0 1-.036-.5m3.5-3.5a3.5 3.5 0 0 1 3.377 2.578A10.1 10.1 0 0 0 21.801 10h-4.87l.039.657q.015.338.024.683c.456-.218.967-.34 1.506-.34M3.065 16.501h4.306c.365 2.082.983 3.854 1.792 5.093a10.03 10.03 0 0 1-5.951-4.814zm-.867-6.5h4.87a28 28 0 0 0 .033 4.42l.058.58H2.456a10.05 10.05 0 0 1-.258-5m12.746-7.424l-.108-.17A10.03 10.03 0 0 1 21.372 8.5H16.78c-.316-2.416-.957-4.492-1.837-5.923M9.04 2.444l.122-.037c-.88 1.35-1.535 3.329-1.883 5.654l-.061.44h-4.59A10.03 10.03 0 0 1 9.04 2.443M12 2.002c1.318 0 2.645 2.542 3.214 6.183l.046.315H8.74c.54-3.809 1.904-6.498 3.26-6.498M21 14.5a2.5 2.5 0 1 1-5 0a2.5 2.5 0 0 1 5 0m2 5.375C23 21.431 21.714 23 18.5 23S14 21.437 14 19.875v-.103c0-.98.794-1.772 1.773-1.772h5.454c.98 0 1.773.793 1.773 1.772z"/></svg>