<svg xmlns="http://www.w3.org/2000/svg" xmlns:xlink="http://www.w3.org/1999/xlink" width="20" height="20" viewBox="0 0 20 20"><path fill="currentColor" d="M10 18a8 8 0 1 0 0-16a8 8 0 0 0 0 16m0-15c.657 0 1.407.59 2.022 1.908c.217.466.406 1.002.559 1.592H7.419c.153-.59.342-1.126.56-1.592C8.592 3.59 9.342 3 10 3M7.072 4.485A10.5 10.5 0 0 0 6.389 6.5H3.936a7.02 7.02 0 0 1 3.778-3.118c-.241.33-.456.704-.642 1.103M6.192 7.5A16 16 0 0 0 6 10c0 .87.067 1.712.193 2.5H3.46A7 7 0 0 1 3 10c0-.88.163-1.724.46-2.5zm.197 6c.176.743.407 1.422.683 2.015c.186.399.401.773.642 1.103A7.02 7.02 0 0 1 3.936 13.5zm1.03 0h5.162a9.3 9.3 0 0 1-.56 1.592C11.408 16.41 10.658 17 10 17s-1.407-.59-2.022-1.908A9.3 9.3 0 0 1 7.42 13.5m5.375-1H7.206A15 15 0 0 1 7 10c0-.883.073-1.725.206-2.5h5.588c.133.775.206 1.617.206 2.5s-.073 1.725-.206 2.5m.817 1h2.453a7.02 7.02 0 0 1-3.778 3.118c.241-.33.456-.704.642-1.103c.276-.593.507-1.272.683-2.015m2.93-1h-2.734c.126-.788.193-1.63.193-2.5s-.067-1.712-.193-2.5h2.733c.297.776.46 1.62.46 2.5s-.163 1.724-.46 2.5m-4.255-9.118A7.02 7.02 0 0 1 16.064 6.5H13.61a10.5 10.5 0 0 0-.683-2.015a6.6 6.6 0 0 0-.642-1.103"/></svg>