<svg xmlns="http://www.w3.org/2000/svg" xmlns:xlink="http://www.w3.org/1999/xlink" width="16" height="16" viewBox="0 0 16 16"><path fill="currentColor" d="M6.125 6C6.045 6.625 6 7.297 6 8s.044 1.375.125 2h2.142l1.445-2.893q.104-.206.24-.373q-.03-.377-.077-.734zm1.643 5l-.903 1.808a6 6 0 0 1-.166-.391A9 9 0 0 1 6.292 11zM5 8c0 .693.04 1.365.117 2H2.34A6 6 0 0 1 2 8c0-.701.12-1.374.341-2h2.776A17 17 0 0 0 5 8m.272 3h-2.47a6.02 6.02 0 0 0 3.421 2.733a6 6 0 0 1-.457-.957A10.5 10.5 0 0 1 5.272 11m4.436-6a9 9 0 0 0-.407-1.417c-.213-.554-.455-.969-.698-1.236S8.156 2 8 2s-.36.08-.603.347s-.485.682-.698 1.236c-.159.414-.297.89-.407 1.417zm1.02 0a10.5 10.5 0 0 0-.494-1.776a6 6 0 0 0-.457-.957A6.02 6.02 0 0 1 13.197 5zM5.272 5h-2.47a6.02 6.02 0 0 1 3.421-2.733c-.17.285-.323.608-.457.957c-.201.522-.368 1.12-.494 1.776m5.33 2.554l-3.495 6.998A1 1 0 0 0 8.002 16h6.996a1 1 0 0 0 .895-1.448l-3.5-6.999a1 1 0 0 0-1.79 0m1.396 1.941v3.002a.5.5 0 1 1-1 0V9.495a.5.5 0 1 1 1 0m-.5 5.504a.5.5 0 1 1 0-1a.5.5 0 0 1 0 1"/></svg>