<svg xmlns="http://www.w3.org/2000/svg" xmlns:xlink="http://www.w3.org/1999/xlink" width="24" height="24" viewBox="0 0 24 24"><path fill="currentColor" d="M8.906 16.5h4.303l-1.938 3.88a2.5 2.5 0 0 0-.267 1.147c-.83-.784-1.582-2.495-2.04-4.732zm-.23-1.5h5.283l1.308-2.617q.105-.209.236-.386q-.001-1.029-.077-1.997H8.577l-.033.489A26 26 0 0 0 8.676 15m11.065-2.617l1.308 2.618h.496a10.05 10.05 0 0 0 .258-5h-4.87l.039.656l.016.396c1.042-.215 2.203.228 2.753 1.33M3.067 16.501h4.306c.365 2.082.983 3.854 1.792 5.093a10.03 10.03 0 0 1-5.951-4.814zm-.867-6.5h4.87a28 28 0 0 0 .033 4.42l.057.58H2.458a10.05 10.05 0 0 1-.258-5m12.746-7.424l-.108-.17A10.03 10.03 0 0 1 21.374 8.5h-4.591c-.316-2.416-.957-4.492-1.837-5.923m-5.903-.133l.122-.037c-.88 1.35-1.535 3.329-1.883 5.654l-.061.44H2.63a10.03 10.03 0 0 1 6.413-6.057m2.959-.442c1.318 0 2.645 2.542 3.214 6.183l.046.315H8.741c.54-3.809 1.904-6.498 3.26-6.498M16.16 12.83l-3.997 7.998A1.5 1.5 0 0 0 13.507 23h7.994a1.5 1.5 0 0 0 1.343-2.172l-3.997-7.998c-.553-1.107-2.133-1.107-2.686 0m1.843 2.666v3.001a.5.5 0 0 1-1 0v-3.001a.5.5 0 0 1 1 0m-.5 5.503a.5.5 0 1 1 0-1.001a.5.5 0 0 1 0 1"/></svg>