<svg xmlns="http://www.w3.org/2000/svg" xmlns:xlink="http://www.w3.org/1999/xlink" width="32" height="32" viewBox="0 0 32 32"><path fill="currentColor" d="M17.715 20.95C16.87 22.808 16.115 23 16 23s-.871-.193-1.715-2.05c-.37-.814-.684-1.814-.91-2.95h5.25c-.226 1.136-.54 2.136-.91 2.95M18.91 16h-5.82a22 22 0 0 1 0-4h5.82a22 22 0 0 1 0 4m1.75 2h3.404a9.03 9.03 0 0 1-4.838 4.405c.63-1.173 1.128-2.684 1.433-4.405m4.117-2h-3.86a24 24 0 0 0 0-4h3.86a9 9 0 0 1 0 4m-13.695 0H7.223a9 9 0 0 1 0-4h3.86a24 24 0 0 0 0 4m-3.146 2h3.405c.305 1.721.802 3.232 1.433 4.405A9.03 9.03 0 0 1 7.936 18m6.35-10.95C15.128 5.192 15.885 5 16 5s.871.193 1.715 2.05c.37.814.684 1.814.91 2.95h-5.25c.226-1.136.54-2.136.91-2.95M20.658 10c-.305-1.721-.802-3.232-1.433-4.405A9.03 9.03 0 0 1 24.065 10zM7.936 10a9.03 9.03 0 0 1 4.838-4.405c-.63 1.173-1.128 2.684-1.433 4.405zM27 14c0-6.075-4.925-11-11-11S5 7.925 5 14s4.925 11 11 11s11-4.925 11-11M5 21h.642c.49.724 1.056 1.395 1.683 2h-1.57l-1.43 5h23.35l-1.43-5h-1.57a12.6 12.6 0 0 0 1.683-2H27a1 1 0 0 1 .962.725l2 7A1 1 0 0 1 29 30H3a1 1 0 0 1-.962-1.275l2-7A1 1 0 0 1 5 21"/></svg>