<svg xmlns="http://www.w3.org/2000/svg" xmlns:xlink="http://www.w3.org/1999/xlink" width="16" height="16" viewBox="0 0 16 16"><path fill="currentColor" d="M5.996 13.657a6 6 0 1 1 7.661-7.661A5.5 5.5 0 0 0 10.5 5c-1.177 0-2.268.37-3.163 1H6.179q-.116.617-.159 1.308a5.5 5.5 0 0 0-.93 2.194Q5 8.777 5 8c0-.699.057-1.372.163-2H3.416A5 5 0 0 0 3 8c0 .711.148 1.388.416 2h1.606a5.6 5.6 0 0 0 0 1H4c.348.464.776.866 1.263 1.185c.17.53.42 1.026.733 1.472m3.317-9.34C8.875 3.358 8.373 3 8 3c-.374 0-.875.356-1.313 1.318a6 6 0 0 0-.26.682h3.146a6 6 0 0 0-.26-.682M5.384 5c.11-.396.242-.764.393-1.096a6 6 0 0 1 .26-.504A5 5 0 0 0 4 5zM12 5a5 5 0 0 0-2.038-1.6q.143.242.26.504q.229.5.394 1.096zm-1.5 10a4.5 4.5 0 1 0 0-9a4.5 4.5 0 0 0 0 9m.954-5.608h1.544c.485 0 .687.647.295.944l-1.25.947l.477 1.532c.15.48-.378.88-.77.583l-1.25-.947l-1.25.947c-.392.297-.92-.103-.77-.583l.477-1.532l-1.25-.947c-.392-.297-.19-.944.294-.944h1.546l.477-1.531a.494.494 0 0 1 .952 0z"/></svg>