<svg xmlns="http://www.w3.org/2000/svg" xmlns:xlink="http://www.w3.org/1999/xlink" width="20" height="20" viewBox="0 0 20 20"><path fill="currentColor" d="M7.988 4.18a12.2 12.2 0 0 0-.67 2.32h5.364a12.2 12.2 0 0 0-.67-2.32c-.301-.733-.648-1.294-1.008-1.663C10.646 2.149 10.307 2 10 2s-.646.149-1.004.517c-.36.37-.706.93-1.008 1.663M7.89 2.281c-.314.426-.59.941-.828 1.518c-.32.78-.58 1.694-.762 2.701H2.804a8.02 8.02 0 0 1 5.087-4.219m5.046 1.518a7.2 7.2 0 0 0-.827-1.518A8.02 8.02 0 0 1 17.196 6.5h-3.497c-.182-1.007-.44-1.922-.762-2.7m4.665 3.7H13.85c.098.795.15 1.634.15 2.5s-.052 1.705-.15 2.5h3.752A8 8 0 0 0 18 10a8 8 0 0 0-.398-2.5m-3.903 6h3.497a8.02 8.02 0 0 1-5.086 4.219a7.2 7.2 0 0 0 .827-1.518c.321-.78.58-1.694.762-2.701m-4.137.44q.102-.215.182-.44h2.938a12.2 12.2 0 0 1-.67 2.32a8 8 0 0 1-.2.45a1.5 1.5 0 0 0-.251-.33zm.41-1.44h2.87c.102-.786.158-1.625.158-2.5s-.056-1.715-.158-2.5H7.158l-.037.3a4.5 4.5 0 0 1 2.852 4.7m-3.822-5l-.006.046A4.5 4.5 0 0 0 5.5 7.5zm-3.752 0H5.5a4.49 4.49 0 0 0-3.45 1.612c.061-.556.18-1.096.35-1.612m3.102 8c.786 0 1.512-.26 2.096-.697l2.55 2.55a.5.5 0 1 0 .708-.707l-2.55-2.55A3.5 3.5 0 1 0 5.5 15.5m0-1a2.5 2.5 0 1 1 0-5a2.5 2.5 0 0 1 0 5"/></svg>