<svg xmlns="http://www.w3.org/2000/svg" xmlns:xlink="http://www.w3.org/1999/xlink" width="24" height="24" viewBox="0 0 24 24"><path fill="currentColor" d="M12.002 1.999c5.523 0 10.001 4.478 10.001 10.002a10 10 0 0 1-.662 3.585l-.99-1.98a8.55 8.55 0 0 0-.085-3.607h-3.358q.05.52.074 1.055a2.45 2.45 0 0 0-1.479.943Q15.501 10.96 15.4 10H8.605a19 19 0 0 0 .135 5h5.219l-.75 1.5H9.064c.52 1.924 1.345 3.323 2.242 3.812l-.034.069c-.26.52-.32 1.068-.224 1.576C5.971 21.477 2 17.202 2 12.001C2 6.477 6.478 1.999 12.002 1.999M7.51 16.501H4.787a8.53 8.53 0 0 0 4.095 3.41c-.523-.82-.954-1.846-1.27-3.015zM7.095 10H3.737l-.004.017a8.5 8.5 0 0 0-.233 1.984c0 1.056.193 2.067.545 3h3.173a21 21 0 0 1-.123-5m1.788-5.91l-.023.008A8.53 8.53 0 0 0 4.252 8.5H7.3c.313-1.752.86-3.278 1.583-4.41m3.119-.591l-.116.005C10.62 3.62 9.398 5.622 8.83 8.5h6.343c-.566-2.87-1.783-4.869-3.045-4.995zm3.12.59l.106.175c.67 1.112 1.178 2.572 1.475 4.237h3.048a8.53 8.53 0 0 0-4.338-4.29zm1.039 8.741l-3.997 7.998A1.5 1.5 0 0 0 13.507 23h7.994a1.5 1.5 0 0 0 1.343-2.172l-3.997-7.998c-.553-1.107-2.133-1.107-2.686 0m1.843 2.666v3.001a.5.5 0 0 1-1 0v-3.001a.5.5 0 0 1 1 0m-.5 5.503a.5.5 0 1 1 0-1.001a.5.5 0 0 1 0 1"/></svg>