<svg xmlns="http://www.w3.org/2000/svg" xmlns:xlink="http://www.w3.org/1999/xlink" width="20" height="20" viewBox="0 0 20 20"><path fill="currentColor" d="M4 4.708L2.147 2.854a.5.5 0 1 1 .708-.708l15 15a.5.5 0 0 1-.708.708l-1.854-1.855A8 8 0 0 1 4 4.707M14.585 15.29l-1.145-1.145a10 10 0 0 1-.511 1.369a6.6 6.6 0 0 1-.642 1.103a7 7 0 0 0 2.298-1.327m-2.792-2.79L7.15 7.857A15 15 0 0 0 7 10c0 .883.073 1.725.206 2.5zm-6-6L4.709 5.416A7 7 0 0 0 3.936 6.5zM6 10c0-.87.067-1.712.193-2.5H3.46A7 7 0 0 0 3 10c0 .88.163 1.724.46 2.5h2.733A16 16 0 0 1 6 10m1.072 5.515a10.5 10.5 0 0 1-.683-2.015H3.936a7.02 7.02 0 0 0 3.778 3.118a6.6 6.6 0 0 1-.642-1.103m4.95-.423a9.3 9.3 0 0 0 .559-1.592H7.419c.153.59.342 1.126.56 1.592C8.592 16.41 9.342 17 10 17s1.407-.59 2.022-1.908M7.072 4.485a9 9 0 0 0-.143.323l.773.772q.129-.356.276-.672C8.593 3.59 9.343 3 10 3s1.407.59 2.022 1.908c.217.466.406 1.002.559 1.592H8.62l1 1h3.173c.133.775.206 1.617.206 2.5q0 .435-.023.855l.927.927a16.3 16.3 0 0 0-.097-4.282h2.733c.297.776.46 1.62.46 2.5s-.163 1.724-.46 2.5H14.62l1.997 1.996A8 8 0 0 0 5.504 3.382l.721.722c.462-.297.962-.54 1.49-.722a6.6 6.6 0 0 0-.643 1.103M16.064 6.5H13.61a10.5 10.5 0 0 0-.683-2.015a6.6 6.6 0 0 0-.642-1.103A7.02 7.02 0 0 1 16.064 6.5"/></svg>