<svg xmlns="http://www.w3.org/2000/svg" xmlns:xlink="http://www.w3.org/1999/xlink" width="28" height="28" viewBox="0 0 28 28"><path fill="currentColor" d="M9.5 14q.001-1.289.103-2.5h8.794a30 30 0 0 1 .087 3.5H16a3 3 0 0 0-3 3v.5H9.846A28.6 28.6 0 0 1 9.5 14m15.279 2.417a2 2 0 0 1 1.054-.413a12.1 12.1 0 0 0-.094-4.504h-5.837a32 32 0 0 1 .082 3.5H21a3 3 0 0 1 2.868 2.117zM13 25v-5h-2.865c.23 1.011.517 1.93.846 2.73c.453 1.1.973 1.94 1.513 2.495q.302.309.591.488A3 3 0 0 1 13 25m-4.672-6.5a31.5 31.5 0 0 1-.23-7H2.261A12 12 0 0 0 2 14c0 1.591.31 3.11.872 4.5zM3.605 20H8.6c.259 1.217.595 2.33.995 3.301c.357.866.771 1.638 1.242 2.277A12.03 12.03 0 0 1 3.606 20M17.02 5.27c.536 1.301.956 2.914 1.21 4.73H9.771c.254-1.816.674-3.429 1.21-4.73c.453-1.1.973-1.94 1.513-2.495C13.03 2.223 13.54 2 14 2s.969.223 1.506.775c.54.554 1.06 1.395 1.513 2.495M19.743 10h5.574a12.03 12.03 0 0 0-8.153-7.578c.47.639.885 1.411 1.242 2.277c.61 1.483 1.072 3.293 1.337 5.301m-17.06 0h5.574c.265-2.008.727-3.818 1.337-5.301c.357-.866.771-1.638 1.242-2.277A12.03 12.03 0 0 0 2.683 10M14 18a2 2 0 0 1 2-2h5a2 2 0 0 1 2 2v1.046l2.388-1.837a1 1 0 0 1 1.61.793V25a1 1 0 0 1-1.61.792L23 23.956V25a2 2 0 0 1-2 2h-5a2 2 0 0 1-2-2z"/></svg>