<svg xmlns="http://www.w3.org/2000/svg" xmlns:xlink="http://www.w3.org/1999/xlink" width="48" height="48" viewBox="0 0 48 48"><path fill="currentColor" d="M44 24c0 4.35-1.389 8.375-3.747 11.657L34.596 30h5.848a17.5 17.5 0 0 0 1.056-6c0-1.921-.31-3.77-.882-5.5h-7A39 39 0 0 1 34 24c0 1.755-.113 3.457-.325 5.078L31.396 26.8q.103-1.365.104-2.8a36 36 0 0 0-.41-5.5h-7.994l-2.5-2.5h10.008c-.453-1.905-1.058-3.602-1.769-5.024C27.158 7.622 25.305 6.5 24 6.5c-1.304 0-3.158 1.122-4.835 4.476c-.385.77-.738 1.62-1.054 2.539l-1.945-1.946c.637-1.604 1.395-3.009 2.246-4.158a17.4 17.4 0 0 0-4.274 2.13l-1.795-1.794A19.9 19.9 0 0 1 24 4c11.046 0 20 8.954 20 20m-4.431-8a17.55 17.55 0 0 0-9.981-8.589c1.565 2.114 2.816 5.09 3.58 8.589zM9 10.77A19.92 19.92 0 0 0 4 24c0 11.046 8.954 20 20 20c5.073 0 9.705-1.889 13.23-5.001l4.636 4.635a1.25 1.25 0 0 0 1.768-1.768l-37.5-37.5a1.25 1.25 0 1 0-1.768 1.768zM14.232 16h-5.8a17.5 17.5 0 0 1 2.341-3.46zM35.46 37.227a17.5 17.5 0 0 1-5.871 3.362c1.204-1.626 2.223-3.764 2.976-6.257L34 35.768V36l.213-.02zM16.5 24c0-1.873.137-3.667.387-5.346L28.232 30H16.991a36 36 0 0 1-.491-6m12.335 13.024C27.158 40.378 25.305 41.5 24 41.5c-1.304 0-3.158-1.122-4.835-4.476c-.648-1.296-1.208-2.822-1.645-4.524h12.96c-.437 1.702-.997 3.228-1.645 4.524M14 24c0 2.09.16 4.106.458 6H7.556A17.5 17.5 0 0 1 6.5 24c0-1.921.31-3.77.882-5.5h7A39 39 0 0 0 14 24m4.412 16.589A17.55 17.55 0 0 1 8.7 32.5h6.246c.772 3.282 1.977 6.077 3.467 8.089"/></svg>