<svg xmlns="http://www.w3.org/2000/svg" xmlns:xlink="http://www.w3.org/1999/xlink" width="16" height="16" viewBox="0 0 16 16"><path fill="currentColor" d="M3 3a1 1 0 0 0-1 1v1a1 1 0 0 0 1 1h3a1 1 0 0 0 1-1V4a1 1 0 0 0-1-1zm6 1a1 1 0 0 1 1-1h3a1 1 0 0 1 1 1v1a1 1 0 0 1-1 1h-3a1 1 0 0 1-1-1zM2 8a1 1 0 0 1 1-1h3a1 1 0 0 1 1 1v1a1 1 0 0 1-1 1H3a1 1 0 0 1-1-1zm7 0a1 1 0 0 1 1-1h3a1 1 0 0 1 1 1v1a1 1 0 0 1-1 1h-3a1 1 0 0 1-1-1zm-7 4a1 1 0 0 1 1-1h3a1 1 0 0 1 1 1v1a1 1 0 0 1-1 1H3a1 1 0 0 1-1-1z"/></svg>