<svg xmlns="http://www.w3.org/2000/svg" xmlns:xlink="http://www.w3.org/1999/xlink" width="48" height="48" viewBox="0 0 48 48"><path fill="currentColor" d="M35.75 4A4.25 4.25 0 0 1 40 8.25v31.5A4.25 4.25 0 0 1 35.75 44h-23.5A4.25 4.25 0 0 1 8 39.75V8.25A4.25 4.25 0 0 1 12.25 4zM20 10.25c0 .69.56 1.25 1.25 1.25h5.5a1.25 1.25 0 1 0 0-2.5h-5.5c-.69 0-1.25.56-1.25 1.25M18.5 20.5a5.5 5.5 0 1 0 11 0a5.5 5.5 0 0 0-11 0m-.7 7.5a3.8 3.8 0 0 0-3.8 3.8c0 2.407 1.198 4.27 3.074 5.475C18.902 38.451 21.35 39 24 39s5.098-.55 6.926-1.725C32.802 36.07 34 34.207 34 31.8a3.8 3.8 0 0 0-3.8-3.8z"/></svg>