<svg xmlns="http://www.w3.org/2000/svg" xmlns:xlink="http://www.w3.org/1999/xlink" width="28" height="28" viewBox="0 0 28 28"><path fill="currentColor" d="M20.25 2A2.75 2.75 0 0 1 23 4.75v18.5A2.75 2.75 0 0 1 20.25 26H7.75A2.75 2.75 0 0 1 5 23.25V4.75A2.75 2.75 0 0 1 7.75 2zM12 5.75c0 .414.336.75.75.75h2.5a.75.75 0 0 0 0-1.5h-2.5a.75.75 0 0 0-.75.75m-1.25 6a3.25 3.25 0 1 0 6.5 0a3.25 3.25 0 0 0-6.5 0m.09 4.25a2.34 2.34 0 0 0-2.34 2.34c0 1.4.644 2.48 1.69 3.18c1.013.68 2.363.98 3.81.98s2.797-.3 3.81-.98c1.046-.7 1.69-1.78 1.69-3.18A2.34 2.34 0 0 0 17.16 16z"/></svg>