<svg xmlns="http://www.w3.org/2000/svg" xmlns:xlink="http://www.w3.org/1999/xlink" width="24" height="24" viewBox="0 0 24 24"><path fill="currentColor" d="M6.25 2A2.25 2.25 0 0 0 4 4.25v15.5A2.25 2.25 0 0 0 6.25 22h6.56a6.48 6.48 0 0 1-1.797-4.079c-.712-.119-1.343-.373-1.848-.767C8.418 16.575 8 15.73 8 14.75c0-.966.784-1.75 1.75-1.75h3.06a6.48 6.48 0 0 1 4.69-2c.886 0 1.73.177 2.5.498V4.25A2.25 2.25 0 0 0 17.75 2zM12 6.5a2.5 2.5 0 1 1 0 5a2.5 2.5 0 0 1 0-5m-1.75-3h3.5a.75.75 0 0 1 0 1.5h-3.5a.75.75 0 0 1 0-1.5M23 17.5a5.5 5.5 0 1 0-11 0a5.5 5.5 0 0 0 11 0m-5 .5l.001 2.503a.5.5 0 1 1-1 0V18h-2.505a.5.5 0 0 1 0-1H17v-2.5a.5.5 0 1 1 1 0V17h2.497a.5.5 0 0 1 0 1z"/></svg>