<svg xmlns="http://www.w3.org/2000/svg" xmlns:xlink="http://www.w3.org/1999/xlink" width="16" height="16" viewBox="0 0 16 16"><path fill="currentColor" d="M2.068 2.023a.75.75 0 0 1 .91.545l.964 3.859a.584.584 0 1 0 1.133-.283L4.023 1.932a.75.75 0 1 1 1.455-.364L6.61 6.101a.585.585 0 0 0 1.136-.281l-.718-2.91a.75.75 0 1 1 1.456-.364l.795 3.223a.591.591 0 1 0 1.144-.298L10 3.925a.75.75 0 0 1 1.453-.375l.746 2.754l.002.007q.016.042.026.086c.145.704.255 1.435.273 2.09c.033 1.223-.156 2.809-.31 3.871a2.43 2.43 0 0 1-1.726 1.972l-1.784.528c-1.43.423-2.931-.116-3.902-1.171c-.84-.915-1.935-1.93-2.991-2.431a1.4 1.4 0 0 1-.714-.758a1.01 1.01 0 0 1 .251-1.11a2.4 2.4 0 0 1 1.171-.624q.228-.046.475-.042l-1.447-5.79a.75.75 0 0 1 .545-.91M13.43 1.005a.5.5 0 0 1 .371.095a5.19 5.19 0 0 1 1.68 5.54A.49.49 0 0 1 15 7l-.14-.02a.5.5 0 0 1-.34-.62A4.19 4.19 0 0 0 13.2 1.9a.5.5 0 0 1 .23-.895m-.64 1.585a.49.49 0 0 0-.69.12a.49.49 0 0 0 .1.69a2.37 2.37 0 0 1 .8 2.06a.5.5 0 0 0 .46.54a.5.5 0 0 0 .5-.46a3.37 3.37 0 0 0-1.17-2.95"/></svg>