<svg xmlns="http://www.w3.org/2000/svg" xmlns:xlink="http://www.w3.org/1999/xlink" width="20" height="20" viewBox="0 0 20 20"><path fill="currentColor" d="M16 6v3.207a5.5 5.5 0 0 0-1-.185V6a.5.5 0 0 0-1 0v3.022q-.516.047-1 .185V4.5a.5.5 0 0 0-1 0v4a.5.5 0 0 1-1 0v-5a.5.5 0 0 0-1 0v5a.5.5 0 0 1-1 0v-4a.5.5 0 0 0-1 0v6a.499.499 0 0 1-.854.373l-.008-.008c-.22-.22-.434-.434-.716-.575c-.697-.349-2.223-.575-2.407.498q.265.205.537.408c.514.385 1.034.775 1.476 1.235l1.328 1.384c.754.785 1.319 1.687 1.858 2.623q.107.185.268.317l.008.018l-.3.986a2.16 2.16 0 0 1-.842-.822c-.5-.866-1.015-1.703-1.713-2.43l-1.328-1.383c-.442-.46-.965-.848-1.483-1.232q-.302-.222-.592-.447A.6.6 0 0 1 3 10.97c0-.754.536-1.575 1.217-1.79c.91-.306 1.796-.213 2.652.215l.131.07V4.5a1.5 1.5 0 0 1 2.053-1.395a1.5 1.5 0 0 1 2.894 0q.26-.104.553-.105A1.5 1.5 0 0 1 14 4.5v.085q.236-.084.5-.085A1.5 1.5 0 0 1 16 6m3 8.5a4.5 4.5 0 0 1-6.681 3.937l-1.79.544a.41.41 0 0 1-.51-.51l.544-1.789A4.5 4.5 0 1 1 19 14.5M12.5 13a.5.5 0 0 0 0 1h4a.5.5 0 0 0 0-1zm-.5 2.5a.5.5 0 0 0 .5.5h2a.5.5 0 0 0 0-1h-2a.5.5 0 0 0-.5.5"/></svg>