<svg xmlns="http://www.w3.org/2000/svg" xmlns:xlink="http://www.w3.org/1999/xlink" width="16" height="16" viewBox="0 0 16 16"><path fill="currentColor" d="m11.445 12.153l2.701 2.7a.5.5 0 0 0 .708-.707l-13-13a.5.5 0 1 0-.708.708L4.5 5.207V7.5a.5.5 0 0 1-1 0V4.75A.75.75 0 0 0 2 4.748V9.5c0 .813.344 1.71.743 2.492c.407.797.906 1.54 1.283 2.059c.45.622 1.171.949 1.91.949h2.328c.952 0 1.797-.54 2.255-1.34a30 30 0 0 1 .926-1.508M8.5 6.379L7 4.879V1.75a.75.75 0 0 1 1.5 0zm4.103 4.103L9.109 6.988A.5.5 0 0 0 9.5 6.5V2.75a.75.75 0 0 1 1.5 0v5.629c.177-.136.37-.268.57-.38c.319-.176.696-.324 1.097-.335c.42-.011.836.132 1.187.482a.5.5 0 0 1 .03.674v.001l-.005.005l-.015.019l-.062.075l-.235.293a41 41 0 0 0-.964 1.269M4.565 2.444L6 3.879V2.75a.75.75 0 0 0-1.435-.306"/></svg>