<svg xmlns="http://www.w3.org/2000/svg" xmlns:xlink="http://www.w3.org/1999/xlink" width="24" height="24" viewBox="0 0 24 24"><path fill="currentColor" d="M12.002 4v6.251a.75.75 0 0 1-1.5 0V5.226a.493.493 0 0 0-.498-.478a.527.527 0 0 0-.504.504v7.499a.75.75 0 0 1-1.295.515v-.001l-.004-.003l-.022-.022l-.102-.096a4 4 0 0 0-.401-.32c-.352-.25-.81-.496-1.303-.582c-.537-.095-1.047-.037-1.385.138a.82.82 0 0 0-.446.528l1.659 1.247a1 1 0 0 1 .08.068l2.174 2.173a12.3 12.3 0 0 1 2.303 3.193c.178.355.473.627.825.778l-.438 1.44a3.15 3.15 0 0 1-1.729-1.548a10.8 10.8 0 0 0-2.02-2.802l-2.14-2.137L3.3 13.85a.75.75 0 0 1-.299-.6c0-1.06.531-1.806 1.3-2.203c.715-.37 1.582-.414 2.332-.283c.519.091.983.284 1.368.495V5.252c0-1.06.888-2.01 2.013-2.003c.212 0 .413.034.6.093A1.98 1.98 0 0 1 12.503 2c.915 0 1.622.586 1.885 1.341q.286-.091.612-.092c1.108 0 1.896.855 1.987 1.817q.243-.063.512-.064c1.17 0 2.001.96 2.001 2v4.312a6.5 6.5 0 0 0-1.5-.295V7.002a.5.5 0 0 0-.501-.5a.5.5 0 0 0-.503.5v3.5a.75.75 0 0 1-.23.539q-.42.046-.822.147a.75.75 0 0 1-.448-.687V5.252A.495.495 0 0 0 15 4.748c-.287 0-.5.226-.5.504v5a.75.75 0 0 1-1.5 0V3.998c0-.272-.212-.5-.499-.5a.49.49 0 0 0-.5.5m5.969 8.02A5.5 5.5 0 0 1 21 13.256a5.501 5.501 0 0 1-6.166 9.058l-2.187.666a.5.5 0 0 1-.624-.625l.666-2.186a5.501 5.501 0 0 1 5.282-8.149M15 16.5a.5.5 0 0 0 .5.5h4a.5.5 0 1 0 0-1h-4a.5.5 0 0 0-.5.5m.5 2.5h2a.5.5 0 1 0 0-1h-2a.5.5 0 1 0 0 1"/></svg>