<svg xmlns="http://www.w3.org/2000/svg" xmlns:xlink="http://www.w3.org/1999/xlink" width="32" height="32" viewBox="0 0 32 32"><path fill="currentColor" d="M15.505 4a1.5 1.5 0 0 0-1.5 1.5V16a1 1 0 0 1-1.39.921L9.85 15.753a4.92 4.92 0 0 0-5.546 1.212c7.669 3.389 10.72 6.62 12.109 9.406c.56 1.126 1.585 1.753 2.553 1.606l4.73-.717a2 2 0 0 0 1.64-1.487l1.51-5.96a5 5 0 0 0-4.09-6.17l-4.902-.752a1.005 1.005 0 0 1-.854-.988V5.5c0-.828-.667-1.5-1.495-1.5m-3.501 1.5a3.5 3.5 0 0 1 3.5-3.5A3.496 3.496 0 0 1 19 5.5v5.545l4.06.621c4.085.627 6.741 4.634 5.726 8.639l-1.51 5.96a4 4 0 0 1-3.279 2.972l-4.731.718c-2.086.316-3.828-1.054-4.644-2.692c-1.131-2.271-3.827-5.337-11.706-8.72c-.849-.366-1.202-1.44-.642-2.238a6.92 6.92 0 0 1 8.356-2.394l1.374.58z"/></svg>