<svg xmlns="http://www.w3.org/2000/svg" xmlns:xlink="http://www.w3.org/1999/xlink" width="20" height="20" viewBox="0 0 20 20"><path fill="currentColor" d="m14.5 3.003l-.629-.493a2.394 2.394 0 0 0-3.244 3.5l3.503 3.83a.5.5 0 0 0 .738 0l3.504-3.83a2.394 2.394 0 0 0-3.244-3.5zm1.38 10.087l-.825-2.193c.204-.081.393-.208.551-.382l.256-.28l.938 2.495A3 3 0 0 1 16 16l-1.22 1.1a3.26 3.26 0 0 1-2.22.82a4 4 0 0 1-1.5-.3a18.4 18.4 0 0 0-6.85-1.24a1.21 1.21 0 0 1-1.08-.6a1 1 0 0 1 0-1a4.2 4.2 0 0 1 2.75-1.7L2.42 9.63a1.56 1.56 0 0 1 .47-2.53a1.56 1.56 0 0 1 1.66-2.54c.07-.24.2-.457.38-.63a1.55 1.55 0 0 1 2.2 0a1.7 1.7 0 0 1 .32-.48a1.58 1.58 0 0 1 1.785-.297a3.4 3.4 0 0 0-.227 1.015L9 4.16a.594.594 0 0 0-.84.84l.7.65l1.323 1.356l1.252 1.368a.48.48 0 0 1-.135.476a.48.48 0 0 1-.7 0L8.1 6.36l-.7-.7l-1-1.06a.58.58 0 0 0-.8 0a.57.57 0 0 0 0 .8l2.75 2.75a.495.495 0 0 1-.7.7L5.79 7l-1.4-1.4a.56.56 0 0 0-.954.4c0 .15.059.293.164.4l1.07 1.06l2.18 2.19a.495.495 0 0 1-.7.7L5 9.21L3.96 8.17a.56.56 0 0 0-.79 0a.52.52 0 0 0-.17.39a.56.56 0 0 0 .17.44l4.19 4.15A.5.5 0 0 1 7 14s-2.15 0-2.99 1.35c0 .04.08.11.2.11a.6.6 0 0 1 .14 0a19.8 19.8 0 0 1 7.1 1.31a2.51 2.51 0 0 0 2.66-.33l1.25-1.15a2 2 0 0 0 .52-2.2m-6.157.857c.397-.198 1.04-.313 1.695-.204c.644.108 1.258.423 1.666 1.034a.5.5 0 0 0 .832-.554c-.592-.889-1.478-1.323-2.334-1.466c-.844-.14-1.702-.006-2.305.295a.5.5 0 0 0 .446.895"/></svg>