<svg xmlns="http://www.w3.org/2000/svg" xmlns:xlink="http://www.w3.org/1999/xlink" width="24" height="24" viewBox="0 0 24 24"><path fill="currentColor" d="M14 4.253a1 1 0 0 1 2 0v6.746a.5.5 0 0 0 .029.168a6.504 6.504 0 0 0-4.415 9.097l-.465 1.527a3.25 3.25 0 0 1-1.76-1.588l-.134-.266a11.3 11.3 0 0 0-1.562-2.338l-2.212-2.552l-2.191-1.704A.75.75 0 0 1 3 12.75c0-.485.26-.845.592-1.06c.296-.191.65-.273.962-.31c.636-.075 1.41.002 2.089.134A4.7 4.7 0 0 1 8 12.019V4.253a1 1 0 0 1 2 0V10.5a.5.5 0 0 0 1 0V3a1 1 0 0 1 2 0v7.5a.5.5 0 0 0 1 0zM17.5 11q-.252 0-.5.019v-5.02a1 1 0 0 1 2 0v5.175A6.5 6.5 0 0 0 17.5 11m.47 1.02A5.5 5.5 0 0 1 21 13.256a5.501 5.501 0 0 1-6.166 9.058l-2.187.666a.5.5 0 0 1-.624-.625l.666-2.186a5.501 5.501 0 0 1 5.282-8.149M15 16.5a.5.5 0 0 0 .5.5h4.002a.5.5 0 1 0 0-1H15.5a.5.5 0 0 0-.5.5m.5 2.5h2.001a.5.5 0 1 0 0-1h-2a.5.5 0 1 0 0 1"/></svg>