<svg xmlns="http://www.w3.org/2000/svg" xmlns:xlink="http://www.w3.org/1999/xlink" width="24" height="24" viewBox="0 0 24 24"><path fill="currentColor" d="M12.24 2.965a.748.748 0 0 0-.58.276l-.058.043a6.295 6.295 0 0 0-6.266 1.553a6.195 6.195 0 0 0-1.736 5.51l-.015.015l-.958.951a2.108 2.108 0 0 0 0 2.995a2.136 2.136 0 0 0 1.793.601a2.13 2.13 0 0 0 1.883 1.559A2.13 2.13 0 0 0 8.32 18.41c.026.506.233 1.004.622 1.39c.76.756 1.952.821 2.787.197l.387.384a2.151 2.151 0 0 0 3.028 0c.37-.369.577-.838.62-1.318a2.128 2.128 0 0 0 1.94-1.932a2.127 2.127 0 0 0 1.87-1.604a2.136 2.136 0 0 0 1.76-.606a2.108 2.108 0 0 0 0-2.994l-.833-.829l.172-.666a5.952 5.952 0 0 0-.525-4.303a6.02 6.02 0 0 0-5.303-3.16h-1.607a4.251 4.251 0 0 0-.206-.004h-.791Zm2.925 4.945l3.464 3.441l.003.005l.014.013l1.625 1.615a.62.62 0 0 1 0 .88a.63.63 0 0 1-.886 0l-1.625-1.615a.756.756 0 0 0-1.064 0l-.016.017a.744.744 0 0 0 0 1.057l1.266 1.258a.62.62 0 0 1 0 .882a.63.63 0 0 1-.819.058a.756.756 0 0 0-.987.071a.744.744 0 0 0-.062.982a.62.62 0 0 1-.055.819a.63.63 0 0 1-.83.05a.756.756 0 0 0-.995.057a.744.744 0 0 0-.064.989a.63.63 0 0 1-.054.834a.64.64 0 0 1-.9 0l-.372-.369l.105-.105a2.108 2.108 0 0 0 0-2.994a2.13 2.13 0 0 0-1.4-.618a2.129 2.129 0 0 0-1.954-2.004a2.104 2.104 0 0 0-.617-1.324a2.136 2.136 0 0 0-1.793-.601a2.133 2.133 0 0 0-2.118-1.565A4.705 4.705 0 0 1 6.4 5.893a4.767 4.767 0 0 1 3.581-1.38L8.484 5.646a2.314 2.314 0 0 0-.44 3.253a2.333 2.333 0 0 0 3.258.441l1.889-1.431h1.974ZM9.389 6.843l3.139-2.378h.504a2.752 2.752 0 0 1 .187.005h1.626a4.52 4.52 0 0 1 3.982 2.37c.495.92.65 1.978.444 2.995L16.06 6.639a.75.75 0 0 0-.539-.229H12.94a.75.75 0 0 0-.453.152l-2.09 1.583a.833.833 0 0 1-1.162-.157a.814.814 0 0 1 .155-1.145Zm-3.354 7.954a.62.62 0 0 1 0-.88l.957-.95a.63.63 0 0 1 .886 0a.62.62 0 0 1 .008.871l-.008.009l-.957.95l-.009.009a.629.629 0 0 1-.877-.008Zm-.491-3.368a.618.618 0 0 1-.01.87l-.957.952a.63.63 0 0 1-.886 0a.62.62 0 0 1 0-.88l.958-.951a.63.63 0 0 1 .886 0l.009.009Zm5.348 7.314a.629.629 0 0 1-.886 0a.62.62 0 0 1 0-.88l.957-.951a.63.63 0 0 1 .886 0a.62.62 0 0 1 0 .88l-.957.951Zm-2.021-2.008a.629.629 0 0 1-.886 0a.62.62 0 0 1-.009-.872l.009-.008l.957-.951l.008-.009a.63.63 0 0 1 .878.009a.62.62 0 0 1 0 .88l-.957.951Z"/></svg>