<svg xmlns="http://www.w3.org/2000/svg" xmlns:xlink="http://www.w3.org/1999/xlink" width="20" height="20" viewBox="0 0 20 20"><path fill="currentColor" d="M10 2.998a1 1 0 0 0-1 1V10.5a.5.5 0 0 1-.733.443L6.223 9.87a2.53 2.53 0 0 0-3.16.668c4.344 1.9 6.161 3.71 7.012 5.277c.428.787 1.16 1.27 1.89 1.169l2.865-.398a1.5 1.5 0 0 0 1.248-1.117l.824-3.253a3 3 0 0 0-2.466-3.704l-3.01-.448A.5.5 0 0 1 11 7.569V3.998a1 1 0 0 0-1-1m-2 1a2 2 0 1 1 4 0v3.14l2.583.385a4 4 0 0 1 3.288 4.938l-.823 3.253a2.5 2.5 0 0 1-2.08 1.863l-2.866.397c-1.289.179-2.36-.678-2.905-1.681c-.712-1.311-2.333-3.02-6.664-4.894a.885.885 0 0 1-.376-1.32a3.53 3.53 0 0 1 4.531-1.094L8 9.673z"/></svg>