<svg xmlns="http://www.w3.org/2000/svg" xmlns:xlink="http://www.w3.org/1999/xlink" width="20" height="20" viewBox="0 0 20 20"><path fill="currentColor" d="M8.932 3.228a.75.75 0 0 0-.364-1.456h-.002l-.004.002l-.01.003l-.04.01l-.14.039a11.5 11.5 0 0 0-1.957.753c-.536.268-1.115.623-1.57 1.078C4.388 4.114 4 4.731 4 5.5c0 .782.401 1.371.856 1.807c.431.414.987.76 1.462 1.058l.035.021c.517.323.945.595 1.253.89c.295.282.394.506.394.724c0 .208-.09.404-.372.655c-.286.253-.672.476-1.153.756l-.102.059c-.49.285-1.075.631-1.53 1.086c-.477.48-.843 1.11-.843 1.944c0 .77.388 1.386.845 1.843c.455.455 1.034.81 1.57 1.078a11.4 11.4 0 0 0 2.097.792l.04.01l.01.003l.004.001h.001a.75.75 0 0 0 .365-1.454l-.006-.002l-.028-.007l-.114-.032a10 10 0 0 1-1.699-.653c-.464-.232-.885-.502-1.18-.797c-.293-.293-.405-.551-.405-.782c0-.342.133-.611.406-.884c.295-.296.711-.553 1.22-.85l.13-.074c.445-.257.962-.556 1.366-.914c.467-.414.878-.986.878-1.778c0-.782-.401-1.371-.856-1.807c-.431-.414-.987-.76-1.462-1.058l-.035-.021c-.517-.323-.945-.595-1.253-.89c-.295-.283-.394-.506-.394-.724c0-.23.112-.489.405-.782c.295-.295.716-.565 1.18-.797a10 10 0 0 1 1.813-.685l.028-.007zm6.5 0a.75.75 0 0 0-.364-1.456h-.002l-.004.002l-.01.003l-.04.01l-.14.039a11.5 11.5 0 0 0-1.957.753c-.536.268-1.115.623-1.57 1.078c-.457.457-.845 1.074-.845 1.843c0 .782.401 1.371.856 1.807c.431.414.987.76 1.462 1.058l.034.021c.518.323.946.595 1.254.89c.295.282.394.506.394.724c0 .208-.09.404-.372.655c-.286.253-.671.476-1.153.756l-.102.059c-.49.285-1.075.631-1.53 1.086c-.477.48-.843 1.11-.843 1.944c0 .77.388 1.386.845 1.843c.455.455 1.034.81 1.57 1.078a11.4 11.4 0 0 0 2.097.792l.04.01l.01.003l.004.001h.001a.75.75 0 0 0 .365-1.454l-.006-.002l-.028-.007l-.114-.032a10 10 0 0 1-1.699-.653c-.464-.232-.885-.502-1.18-.797c-.293-.293-.405-.551-.405-.782c0-.342.133-.611.406-.884c.295-.296.711-.553 1.22-.85l.13-.074c.445-.257.961-.556 1.366-.914c.467-.414.878-.986.878-1.778c0-.782-.401-1.371-.856-1.807c-.431-.414-.987-.76-1.462-1.058l-.034-.021c-.518-.323-.946-.595-1.254-.89C12.099 5.941 12 5.718 12 5.5c0-.23.112-.489.405-.782c.295-.295.716-.565 1.18-.797a10 10 0 0 1 1.813-.685l.028-.007z"/></svg>