<svg xmlns="http://www.w3.org/2000/svg" xmlns:xlink="http://www.w3.org/1999/xlink" width="32" height="32" viewBox="0 0 32 32"><path fill="currentColor" d="M9.89 5a3.25 3.25 0 0 0-2.906 1.797l-3.817 7.632A5.2 5.2 0 0 1 5.25 14h19.708a3.47 3.47 0 0 1 3.203-.914l-3.145-6.29A3.25 3.25 0 0 0 22.11 5zM5.25 16h18.634l-.25.721a3.03 3.03 0 0 0 .683 3.094l.976 1.008a3.46 3.46 0 0 1-1.176 2.087l-1.324-.347a2.98 2.98 0 0 0-3.03.96l-.936 1.109c-.348.412-.584.88-.712 1.368H5.25A3.25 3.25 0 0 1 2 22.75v-3.5A3.25 3.25 0 0 1 5.25 16m19.8 1.213l.479-1.378a1.97 1.97 0 0 1 2.693-1.152l.515.238c.84.387 1.544 1.081 1.68 2.003c.672 4.515-2.881 10.76-7.07 12.427c-.855.34-1.8.07-2.55-.475l-.46-.334a2.03 2.03 0 0 1-.364-2.942l.937-1.11c.368-.436.95-.62 1.503-.476l2.021.53q2.292-1.498 2.424-4.26l-1.463-1.512a1.53 1.53 0 0 1-.345-1.56"/></svg>