<svg xmlns="http://www.w3.org/2000/svg" xmlns:xlink="http://www.w3.org/1999/xlink" width="16" height="16" viewBox="0 0 16 16"><path fill="currentColor" d="M9.368 2.447a2.5 2.5 0 0 0-2.736 0L1.226 5.98a.5.5 0 0 0-.224.47L1 6.5v4a.5.5 0 0 0 1 0V7.342l1 .677v3.68a.5.5 0 0 0 .12.325l.002.003l.006.007l.02.022l.068.074c.059.062.144.148.254.25c.22.203.543.471.959.74c.83.536 2.049 1.08 3.571 1.08s2.74-.544 3.571-1.08c.416-.269.739-.537.959-.74a6 6 0 0 0 .322-.324l.02-.022l.006-.007l.002-.002l.001-.002A.5.5 0 0 0 13 11.7V8.018l1.78-1.205a.45.45 0 0 0 .22-.418a.5.5 0 0 0-.227-.415zM12 8.696v2.806q-.06.06-.149.143a6 6 0 0 1-.822.634c-.72.464-1.751.92-3.029.92s-2.31-.456-3.029-.92A6 6 0 0 1 4 11.502V8.696l2.599 1.759a2.5 2.5 0 0 0 2.802 0zM3.5 11.7l-.38.324zm3.679-8.416a1.5 1.5 0 0 1 1.642 0L13.597 6.4L8.841 9.627a1.5 1.5 0 0 1-1.682 0l-4.757-3.22z"/></svg>