<svg xmlns="http://www.w3.org/2000/svg" xmlns:xlink="http://www.w3.org/1999/xlink" width="28" height="28" viewBox="0 0 28 28"><path fill="currentColor" d="M18.171 6.829a3.157 3.157 0 0 1 .761 1.238l.498 1.53a.605.605 0 0 0 1.14 0l.498-1.53a3.15 3.15 0 0 1 1.998-1.996l1.53-.497a.605.605 0 0 0 0-1.14l-.03-.008l-1.531-.497a3.154 3.154 0 0 1-1.998-1.996L20.54.403a.604.604 0 0 0-1.14 0l-.498 1.53l-.013.038a3.152 3.152 0 0 1-1.955 1.958l-1.53.497a.605.605 0 0 0 0 1.14l1.53.497c.467.156.89.418 1.237.766Zm8.65 3.529l.918.298l.019.004a.362.362 0 0 1 0 .684l-.919.299a1.892 1.892 0 0 0-1.198 1.197l-.299.918a.363.363 0 0 1-.684 0l-.299-.918a1.891 1.891 0 0 0-1.198-1.202l-.919-.298a.362.362 0 0 1 0-.684l.919-.299a1.892 1.892 0 0 0 1.18-1.197l.299-.918a.363.363 0 0 1 .684 0l.298.918a1.89 1.89 0 0 0 1.199 1.197ZM11.768 3.495a4.25 4.25 0 0 1 4.036-.232l-.715.236a1.57 1.57 0 0 0-.79.59c-.063.087-.116.18-.16.276a2.748 2.748 0 0 0-1.583.406l-8.908 5.496l8.847 5.785a2.75 2.75 0 0 0 3.01 0l6.048-3.955a1.3 1.3 0 0 0 .356.181l.94.31a.851.851 0 0 1 .34.21l.013.013l-1.202.786v6.652c0 .296-.162.48-.353.666c-.095.092-.231.22-.409.372a11.31 11.31 0 0 1-1.54 1.105C18.366 23.193 16.421 24 14 24c-2.42 0-4.366-.807-5.698-1.607a11.31 11.31 0 0 1-1.54-1.105a8.555 8.555 0 0 1-.41-.372c-.19-.187-.352-.367-.352-.666v-6.652l-3-1.961v6.113a.75.75 0 0 1-1.5 0V10.5c0-.043.004-.085.01-.125a.75.75 0 0 1 .346-.763l9.912-6.116ZM7.5 14.579v5.358a9.865 9.865 0 0 0 1.573 1.17c1.168.7 2.848 1.393 4.927 1.393c2.08 0 3.76-.693 4.927-1.393a9.867 9.867 0 0 0 1.573-1.17v-5.358l-4.174 2.73a4.25 4.25 0 0 1-4.652 0L7.5 14.579Z"/></svg>