<svg xmlns="http://www.w3.org/2000/svg" xmlns:xlink="http://www.w3.org/1999/xlink" width="20" height="20" viewBox="0 0 20 20"><path fill="currentColor" d="M8.506 3.4a3 3 0 0 1 2.988 0l7.255 4.166a.5.5 0 0 1 0 .867L16 10.01v4.49a.5.5 0 0 1-.146.354l-.002.001l-.002.003l-.007.006l-.023.022l-.08.074q-.105.095-.301.248a8 8 0 0 1-1.141.733A9.1 9.1 0 0 1 10 17a9.1 9.1 0 0 1-4.298-1.06a8 8 0 0 1-1.14-.733a6 6 0 0 1-.382-.322A.53.53 0 0 1 4 14.5v-4.488L2 8.863v4.636a.5.5 0 0 1-1 0V8a.5.5 0 0 1 .26-.439zm2.988 9.198a3 3 0 0 1-2.988 0L5 10.585v3.691q.07.06.173.14a7 7 0 0 0 1 .642c.88.47 2.175.941 3.827.941a8.1 8.1 0 0 0 3.827-.94A7 7 0 0 0 15 14.276v-3.692zm-.498-8.33a2 2 0 0 0-1.992 0l-6.5 3.731l6.5 3.732a2 2 0 0 0 1.992 0l6.5-3.732z"/></svg>