<svg xmlns="http://www.w3.org/2000/svg" xmlns:xlink="http://www.w3.org/1999/xlink" width="20" height="20" viewBox="0 0 20 20"><path fill="currentColor" d="M19 5.5a4.5 4.5 0 1 1-9 0a4.5 4.5 0 0 1 9 0m-4-2a.5.5 0 0 0-1 0V5h-1.5a.5.5 0 0 0 0 1H14v1.5a.5.5 0 0 0 1 0V6h1.5a.5.5 0 0 0 0-1H15zm0 10.777v-3.3a5.5 5.5 0 0 0 1-.184V14.5a.5.5 0 0 1-.146.354l-.002.001l-.002.002l-.007.007l-.023.022l-.08.074a6 6 0 0 1-.301.248a8 8 0 0 1-1.141.733A9.1 9.1 0 0 1 10 17a9.1 9.1 0 0 1-4.298-1.059a8 8 0 0 1-1.14-.733a6 6 0 0 1-.382-.322A.53.53 0 0 1 4 14.5v-4.488L2 8.864V13.5a.5.5 0 0 1-1 0V8a.5.5 0 0 1 .26-.439l7.246-4.16a3 3 0 0 1 1.078-.37a5.5 5.5 0 0 0-.427 1.158q-.078.035-.153.08L2.504 8l6.5 3.732a2 2 0 0 0 1.992 0l1.764-1.013c.482.16.994.257 1.526.277l-2.792 1.603a3 3 0 0 1-2.988 0L5 10.586v3.691q.07.06.173.14a7 7 0 0 0 1 .642c.88.47 2.175.941 3.827.941a8.1 8.1 0 0 0 3.827-.941A7 7 0 0 0 15 14.277"/></svg>