<svg xmlns="http://www.w3.org/2000/svg" xmlns:xlink="http://www.w3.org/1999/xlink" width="24" height="24" viewBox="0 0 24 24"><path fill="currentColor" d="M23 6.5a5.5 5.5 0 1 0-11 0a5.5 5.5 0 0 0 11 0M18 7l.001 2.504a.5.5 0 1 1-1 0V7h-2.505a.5.5 0 0 1 0-1H17V3.5a.5.5 0 0 1 1 0V6h2.497a.5.5 0 0 1 0 1zm-.5 6a6.5 6.5 0 0 0 1.5-.174v4.924a.75.75 0 0 1-.15.45l-.001.001l-.001.002l-.003.004l-.009.01l-.015.02l-.01.013l-.086.101a5 5 0 0 1-.317.33c-.277.267-.69.614-1.25.958C16.037 20.329 14.339 21 12 21s-4.036-.67-5.159-1.361a7.4 7.4 0 0 1-1.25-.957a5 5 0 0 1-.316-.33a3 3 0 0 1-.124-.15L5.15 18.2a.75.75 0 0 1-.15-.45v-5.557l-2-1.307v5.364a.75.75 0 0 1-1.5 0V9.5a.75.75 0 0 1 .358-.64l8.05-5.16a3.87 3.87 0 0 1 2.059-.613a6.5 6.5 0 0 0-.717 1.621a2.4 2.4 0 0 0-.532.254L3.63 9.506l7.071 4.62c.79.515 1.809.515 2.598 0l2.202-1.44c.63.204 1.301.314 1.999.314m-3.38 2.381a3.88 3.88 0 0 1-4.24 0L6.5 13.173v4.296q.055.058.13.13c.211.203.54.481.997.762c.909.56 2.337 1.139 4.373 1.139s3.464-.58 4.373-1.139a6 6 0 0 0 1.127-.892v-4.296z"/></svg>