<svg xmlns="http://www.w3.org/2000/svg" xmlns:xlink="http://www.w3.org/1999/xlink" width="16" height="16" viewBox="0 0 16 16"><path fill="currentColor" d="M6.632 2.447a2.5 2.5 0 0 1 2.736 0l5.406 3.534a.5.5 0 0 1 .006.833l-5.378 3.64a2.5 2.5 0 0 1-2.803 0L2 7.343V10.5a.5.5 0 1 1-1 0v-4l.002-.05a.5.5 0 0 1 .224-.468zM3 11.499V9.226l3.038 2.057a3.5 3.5 0 0 0 3.924 0L13 9.226V11.5a.5.5 0 0 1-.119.324L12.5 11.5l.381.324l-.001.002l-.002.002l-.006.007l-.02.022l-.068.074a6 6 0 0 1-.254.25c-.22.203-.543.471-.959.74c-.83.536-2.049 1.08-3.57 1.08c-1.523 0-2.741-.544-3.572-1.08a7 7 0 0 1-.959-.74a5 5 0 0 1-.322-.324l-.02-.022l-.006-.007l-.002-.002l.38-.325c-.381.323-.38.324-.38.324A.5.5 0 0 1 3 11.5"/></svg>