<svg xmlns="http://www.w3.org/2000/svg" xmlns:xlink="http://www.w3.org/1999/xlink" width="20" height="20" viewBox="0 0 20 20"><path fill="currentColor" d="m14.878.282l.348 1.071a2.2 2.2 0 0 0 1.399 1.397l1.071.348l.021.006a.423.423 0 0 1 0 .798l-1.071.348a2.2 2.2 0 0 0-1.399 1.397l-.348 1.07a.423.423 0 0 1-.798 0l-.349-1.07a2.2 2.2 0 0 0-.532-.867a2.2 2.2 0 0 0-.866-.536l-1.071-.348a.423.423 0 0 1 0-.798l1.071-.348a2.2 2.2 0 0 0 1.377-1.397l.348-1.07a.423.423 0 0 1 .799 0m4.905 7.931l-.766-.248a1.58 1.58 0 0 1-.998-.999l-.25-.764a.302.302 0 0 0-.57 0l-.248.764a1.58 1.58 0 0 1-.984.999l-.765.248a.303.303 0 0 0 0 .57l.765.249a1.58 1.58 0 0 1 1 1.002l.248.764a.302.302 0 0 0 .57 0l.249-.764a1.58 1.58 0 0 1 .999-.999l.765-.248a.303.303 0 0 0 0-.57zm-3.908 1.914c.06.05.097.115.125.181V14.5a.5.5 0 0 1-.146.354l-.002.001l-.002.002l-.007.007l-.023.022l-.08.074a6 6 0 0 1-.301.248a8 8 0 0 1-1.141.733A9.1 9.1 0 0 1 10 17a9.1 9.1 0 0 1-4.298-1.059a8 8 0 0 1-1.14-.733a6 6 0 0 1-.382-.322A.53.53 0 0 1 4 14.5v-4.488L2 8.864V13.5a.5.5 0 0 1-1 0V8a.5.5 0 0 1 .26-.439l7.246-4.16a3 3 0 0 1 1.58-.397a1.4 1.4 0 0 0-.086.492q0 .269.093.509a2 2 0 0 0-1.089.263L2.504 8l6.5 3.732a2 2 0 0 0 1.992 0l3.665-2.104q.109.062.233.108l.761.25c.08.03.16.08.22.14m-4.381 2.472a3 3 0 0 1-2.988 0L5 10.586v3.691q.07.06.173.14a7 7 0 0 0 1 .642c.88.47 2.175.941 3.827.941a8.1 8.1 0 0 0 3.827-.941A7 7 0 0 0 15 14.277v-3.691z"/></svg>