<svg xmlns="http://www.w3.org/2000/svg" xmlns:xlink="http://www.w3.org/1999/xlink" width="24" height="24" viewBox="0 0 24 24"><path fill="currentColor" d="M16.088 6.412a2.84 2.84 0 0 0-1.347-.955l-1.378-.448a.544.544 0 0 1 0-1.025l1.378-.448A2.84 2.84 0 0 0 16.5 1.774l.011-.034l.448-1.377a.544.544 0 0 1 1.027 0l.447 1.377a2.84 2.84 0 0 0 1.799 1.796l1.377.448l.028.007a.544.544 0 0 1 0 1.025l-1.378.448a2.84 2.84 0 0 0-1.798 1.796l-.448 1.377l-.013.034a.544.544 0 0 1-1.013-.034l-.448-1.377a2.8 2.8 0 0 0-.45-.848m7.695 3.801l-.766-.248a1.58 1.58 0 0 1-.998-.999l-.25-.764a.302.302 0 0 0-.57 0l-.248.764a1.58 1.58 0 0 1-.984.999l-.765.248a.302.302 0 0 0 0 .57l.765.249a1.58 1.58 0 0 1 1 1.002l.248.764a.302.302 0 0 0 .57 0l.249-.764a1.58 1.58 0 0 1 .999-.999l.765-.248a.302.302 0 0 0 0-.57zM9.909 3.7a3.87 3.87 0 0 1 2.818-.544a1.7 1.7 0 0 0-.447.413a1.57 1.57 0 0 0 0 1.79c.165.285.418.51.72.64l1.4.46c.27.091.516.242.72.44l.18.1q.19.251.29.55l.41 1.45c.106.31.305.579.57.77c.261.181.572.279.89.28c.236.003.47-.052.68-.16a1.3 1.3 0 0 0-.18.66c-.002.27.082.532.24.75c.155.221.376.389.63.48l.54.171l-5.25 3.431a3.88 3.88 0 0 1-4.24 0L3 10.886v5.364a.75.75 0 0 1-1.5 0V10q0-.133.043-.25a.75.75 0 0 1 .302-.881zM5 17.75v-3.766l4.06 2.653a5.38 5.38 0 0 0 5.88 0L19 13.984v3.766a.75.75 0 0 1-.15.45l-.001.001l-.001.002l-.003.004l-.009.01l-.012.016l-.013.017l-.086.101a5 5 0 0 1-.317.33c-.277.267-.69.614-1.25.958C16.037 20.329 14.339 21 12 21s-4.036-.67-5.159-1.361a7.4 7.4 0 0 1-1.25-.957a5 5 0 0 1-.427-.464l-.009-.01l-.003-.005v-.002A.76.76 0 0 1 5 17.75"/></svg>