<svg xmlns="http://www.w3.org/2000/svg" xmlns:xlink="http://www.w3.org/1999/xlink" width="20" height="20" viewBox="0 0 20 20"><path fill="currentColor" d="M10.497 16.803L15.253 12H14.25q-.184 0-.36-.044l-3.865 3.902l-3.863-3.902Q5.986 12 5.8 12H4.799l4.755 4.803c.26.263.682.263.942 0m6.227-12.49a4.42 4.42 0 0 1 .978 4.7A2 2 0 0 0 17.5 9h-.889a3.415 3.415 0 0 0-.598-3.984A3.306 3.306 0 0 0 11.3 5l-.951.963a.5.5 0 0 1-.711 0l-.96-.97a3.3 3.3 0 0 0-4.706-.016C2.899 6.061 2.713 7.711 3.42 9H2.5q-.09 0-.18.01a4.4 4.4 0 0 1 .941-4.736a4.3 4.3 0 0 1 6.127.016l.605.61l.596-.603l.109-.106a4.306 4.306 0 0 1 6.026.121M7.962 6.307a.5.5 0 0 0-.922-.004L5.47 10H2.5a.5.5 0 0 0 0 1h3.3a.5.5 0 0 0 .46-.304l1.235-2.907l2.043 4.903a.5.5 0 0 0 .886.073l2.143-3.429l1.307 1.493a.5.5 0 0 0 .376.171h3.25a.5.5 0 0 0 0-1h-3.023l-1.6-1.83a.5.5 0 0 0-.801.065l-1.987 3.179z"/></svg>