<svg xmlns="http://www.w3.org/2000/svg" xmlns:xlink="http://www.w3.org/1999/xlink" width="20" height="20" viewBox="0 0 20 20"><path fill="currentColor" d="m10.497 16.803l6.244-6.304a4.41 4.41 0 0 0-.017-6.187a4.306 4.306 0 0 0-6.135-.015l-.596.603l-.605-.61l-.1-.099a4.3 4.3 0 0 0-6.027.083c-1.688 1.705-1.68 4.476.016 6.189l6.277 6.34c.26.263.682.263.942 0M11.3 5a3.306 3.306 0 0 1 4.713.016a3.41 3.41 0 0 1 .016 4.78v.002l-6.004 6.06l-6.038-6.099c-1.313-1.326-1.314-3.47-.015-4.782a3.3 3.3 0 0 1 4.706.016l.96.97a.5.5 0 0 0 .711 0z"/></svg>