<svg xmlns="http://www.w3.org/2000/svg" xmlns:xlink="http://www.w3.org/1999/xlink" width="48" height="48" viewBox="0 0 48 48"><path fill="currentColor" d="M21.102 4.209a20.157 20.157 0 0 1 5.796 0a1.25 1.25 0 1 1-.36 2.474a17.655 17.655 0 0 0-5.077 0a1.25 1.25 0 0 1-.36-2.474ZM5.625 20.044a1.25 1.25 0 0 1 1.058 1.417a17.655 17.655 0 0 0 0 5.078a1.25 1.25 0 0 1-2.474.36a20.157 20.157 0 0 1 0-5.797a1.25 1.25 0 0 1 1.416-1.058Zm36.75 0a1.25 1.25 0 0 1 1.416 1.058a20.16 20.16 0 0 1 0 5.796a1.25 1.25 0 1 1-2.474-.36a17.655 17.655 0 0 0 0-5.077a1.25 1.25 0 0 1 1.058-1.417Zm-22.33 22.33a1.25 1.25 0 0 1 1.416-1.057a17.655 17.655 0 0 0 5.078 0a1.25 1.25 0 0 1 .36 2.474a20.16 20.16 0 0 1-5.797 0a1.25 1.25 0 0 1-1.058-1.416Zm15.9-34.418a20.154 20.154 0 0 1 4.099 4.099a1.25 1.25 0 1 1-2.003 1.495a17.669 17.669 0 0 0-3.591-3.59a1.25 1.25 0 0 1 1.495-2.004Zm-22.14.254a1.25 1.25 0 0 1-.255 1.75a17.669 17.669 0 0 0-3.59 3.59a1.25 1.25 0 1 1-2.004-1.495a20.157 20.157 0 0 1 4.099-4.1a1.25 1.25 0 0 1 1.75.255ZM39.79 34.196a1.25 1.25 0 0 1 .254 1.75a20.145 20.145 0 0 1-4.099 4.098a1.25 1.25 0 1 1-1.495-2.004a17.669 17.669 0 0 0 3.59-3.59a1.25 1.25 0 0 1 1.75-.254Zm-31.58 0a1.25 1.25 0 0 1 1.75.254a17.669 17.669 0 0 0 3.59 3.59a1.25 1.25 0 0 1-1.495 2.004a20.15 20.15 0 0 1-4.099-4.099a1.25 1.25 0 0 1 .254-1.75ZM26.976 19.36a2.591 2.591 0 0 1 3.899 3.414l-6.878 8.052l-6.877-8.052a2.591 2.591 0 0 1 3.898-3.414l2.05 2.282a1.25 1.25 0 0 0 1.86 0l2.048-2.282Zm5.8-1.575a5.091 5.091 0 0 0-7.66-.095l-1.119 1.246l-1.118-1.246a5.091 5.091 0 0 0-7.66 6.707l7.828 9.166a1.25 1.25 0 0 0 1.9 0l7.829-9.166a5.091 5.091 0 0 0 0-6.612Z"/></svg>