<svg xmlns="http://www.w3.org/2000/svg" xmlns:xlink="http://www.w3.org/1999/xlink" width="20" height="20" viewBox="0 0 20 20"><path fill="currentColor" d="m12.876 8.17l.952 1.089a5.5 5.5 0 0 0-.966.414l-.295-.337l-.585.936a5.5 5.5 0 0 0-1.76 2.676a.5.5 0 0 1-.684-.256L7.495 7.79L6.26 10.696A.5.5 0 0 1 5.8 11H2.5a.5.5 0 0 1 0-1h2.97l1.57-3.696a.5.5 0 0 1 .922.004l2.127 5.106l1.987-3.179a.5.5 0 0 1 .8-.064m3.848-3.858a4.42 4.42 0 0 1 .978 4.702A2 2 0 0 0 17.5 9h-.889a3.415 3.415 0 0 0-.598-3.984A3.306 3.306 0 0 0 11.3 5l-.951.963a.5.5 0 0 1-.711 0l-.96-.97a3.3 3.3 0 0 0-4.706-.016C2.899 6.061 2.713 7.711 3.42 9H2.5q-.09 0-.18.01a4.4 4.4 0 0 1 .941-4.736a4.3 4.3 0 0 1 6.127.016l.605.61l.596-.603l.109-.106a4.306 4.306 0 0 1 6.026.121M4.856 12l4.784 4.847a.5.5 0 0 0 .712-.703l-4.146-4.2Q6.011 12 5.8 12zM20 14.5a4.5 4.5 0 1 1-9 0a4.5 4.5 0 0 1 9 0m-2.146-1.854a.5.5 0 0 0-.708 0L14.5 15.293l-.646-.647a.5.5 0 0 0-.708.708l1 1a.5.5 0 0 0 .708 0l3-3a.5.5 0 0 0 0-.708"/></svg>