<svg xmlns="http://www.w3.org/2000/svg" xmlns:xlink="http://www.w3.org/1999/xlink" width="24" height="24" viewBox="0 0 24 24"><path fill="currentColor" d="M15.088 6.412a2.84 2.84 0 0 0-1.347-.955l-1.378-.448a.544.544 0 0 1 0-1.025l1.378-.448A2.84 2.84 0 0 0 15.5 1.774l.011-.034l.448-1.377a.544.544 0 0 1 1.027 0l.447 1.377a2.84 2.84 0 0 0 1.799 1.796l1.377.448l.028.007a.544.544 0 0 1 0 1.025l-1.378.448a2.84 2.84 0 0 0-1.798 1.796l-.448 1.377l-.013.034a.544.544 0 0 1-1.013-.034l-.448-1.377a2.8 2.8 0 0 0-.45-.848m7.695 3.801l-.766-.248a1.58 1.58 0 0 1-.998-.999l-.25-.764a.302.302 0 0 0-.57 0l-.248.764a1.58 1.58 0 0 1-.984.999l-.765.248a.302.302 0 0 0 0 .57l.765.249a1.58 1.58 0 0 1 1 1.002l.248.764a.302.302 0 0 0 .57 0l.249-.764a1.58 1.58 0 0 1 .999-.999l.765-.248a.302.302 0 0 0 0-.57zM12.047 3H8.105a2.25 2.25 0 0 0-1.948 1.125l-3.896 6.75a2.25 2.25 0 0 0 0 2.25l3.896 6.75A2.25 2.25 0 0 0 8.105 21h7.79a2.25 2.25 0 0 0 1.95-1.125l3.676-6.371c-.217.32-.527.545-1.02.545h-.041c-.96 0-1.23-.856-1.466-1.605l-.014-.045c-.116-.353-.547-.462-.906-.554q-.132-.032-.244-.066a1.33 1.33 0 0 1-.87-1.23a1.3 1.3 0 0 1 .18-.66a1.45 1.45 0 0 1-.68.16A1.55 1.55 0 0 1 15 8.999l-.41-1.45c-.176-.524-.674-.915-1.19-1.09l-1.4-.46c-.584-.253-.998-.895-1-1.53A1.565 1.565 0 0 1 12.047 3"/></svg>