<svg xmlns="http://www.w3.org/2000/svg" xmlns:xlink="http://www.w3.org/1999/xlink" width="24" height="24" viewBox="0 0 24 24"><path fill="currentColor" d="M4.827 2.875A1.75 1.75 0 0 1 6.343 2h3.175a1.75 1.75 0 0 1 1.516.875l1.587 2.75a1.75 1.75 0 0 1 0 1.75l-1.587 2.75A1.75 1.75 0 0 1 9.518 11H6.343a1.75 1.75 0 0 1-1.516-.875l-1.588-2.75a1.75 1.75 0 0 1 0-1.75zm1.516.625a.25.25 0 0 0-.217.125l-1.588 2.75a.25.25 0 0 0 0 .25l1.588 2.75a.25.25 0 0 0 .217.125h3.175a.25.25 0 0 0 .217-.125l1.587-2.75a.25.25 0 0 0 0-.25l-1.587-2.75a.25.25 0 0 0-.217-.125zM4.827 13.875A1.75 1.75 0 0 1 6.343 13h3.175a1.75 1.75 0 0 1 1.516.875l1.587 2.75a1.75 1.75 0 0 1 0 1.75l-1.587 2.75A1.75 1.75 0 0 1 9.518 22H6.343a1.75 1.75 0 0 1-1.516-.875l-1.588-2.75a1.75 1.75 0 0 1 0-1.75zm1.516.625a.25.25 0 0 0-.217.125l-1.588 2.75a.25.25 0 0 0 0 .25l1.588 2.75a.25.25 0 0 0 .217.125h3.175a.25.25 0 0 0 .217-.125l1.587-2.75a.25.25 0 0 0 0-.25l-1.587-2.75a.25.25 0 0 0-.217-.125zm9.5-7a1.75 1.75 0 0 0-1.516.875l-1.588 2.75a1.75 1.75 0 0 0 0 1.75l1.588 2.75c.313.541.89.875 1.516.875h3.175a1.75 1.75 0 0 0 1.516-.875l1.587-2.75a1.75 1.75 0 0 0 0-1.75l-1.587-2.75a1.75 1.75 0 0 0-1.516-.875zm-.217 1.625A.25.25 0 0 1 15.843 9h3.175a.25.25 0 0 1 .216.125l1.588 2.75a.25.25 0 0 1 0 .25l-1.587 2.75a.25.25 0 0 1-.217.125h-3.175a.25.25 0 0 1-.217-.125l-1.588-2.75a.25.25 0 0 1 0-.25z"/></svg>