<svg xmlns="http://www.w3.org/2000/svg" xmlns:xlink="http://www.w3.org/1999/xlink" width="20" height="20" viewBox="0 0 20 20"><path fill="currentColor" d="M10 4a6 6 0 0 1 5.946 5.192q.547.15 1.042.402A7 7 0 0 0 5 5.1V3.5a.5.5 0 0 0-1 0v3a.5.5 0 0 0 .5.5h3a.5.5 0 0 0 0-1H5.528A5.98 5.98 0 0 1 10 4m.257 7c.313-.38.677-.716 1.08-1H10V6.5a.5.5 0 0 0-1 0v4a.5.5 0 0 0 .5.5zm-.663 5.988a5.5 5.5 0 0 1-.402-1.042a6 6 0 0 1-5.174-6.408a.5.5 0 1 0-.998-.076Q3 9.73 3 10a7 7 0 0 0 6.594 6.988M19 14.5a4.5 4.5 0 1 1-9 0a4.5 4.5 0 0 1 9 0m-2.646-1.146a.5.5 0 0 0-.708-.708L14.5 13.793l-1.146-1.147a.5.5 0 0 0-.708.708l1.147 1.146l-1.147 1.146a.5.5 0 0 0 .708.708l1.146-1.147l1.146 1.147a.5.5 0 0 0 .708-.708L15.207 14.5z"/></svg>