<svg xmlns="http://www.w3.org/2000/svg" xmlns:xlink="http://www.w3.org/1999/xlink" width="24" height="24" viewBox="0 0 24 24"><path fill="currentColor" d="M12 5a7 7 0 0 1 6.95 6.162c.74.169 1.43.463 2.05.86V12A9 9 0 0 0 7 4.516V4a1 1 0 0 0-2 0v3a1 1 0 0 0 1 1h3a1 1 0 0 0 0-2h-.608A6.97 6.97 0 0 1 12 5m.81 8a6.5 6.5 0 0 1 2.48-1.614A1 1 0 0 0 14.5 11H13V8a1 1 0 1 0-2 0v4a1 1 0 0 0 1 1zm-.788 8a6.5 6.5 0 0 1-.86-2.05a7 7 0 0 1-6.108-7.826a1 1 0 1 0-1.984-.248Q3 11.43 3 12a9 9 0 0 0 9 9zM23 17.5a5.5 5.5 0 1 1-11 0a5.5 5.5 0 0 1 11 0m-7.146-2.354a.5.5 0 0 0-.708.708l1.647 1.646l-1.647 1.646a.5.5 0 0 0 .708.708l1.646-1.647l1.646 1.647a.5.5 0 0 0 .708-.708L18.207 17.5l1.647-1.646a.5.5 0 0 0-.708-.708L17.5 16.793z"/></svg>