<svg xmlns="http://www.w3.org/2000/svg" xmlns:xlink="http://www.w3.org/1999/xlink" width="48" height="48" viewBox="0 0 48 48"><path fill="currentColor" d="M24 13c0 6.075-4.925 11-11 11S2 19.075 2 13S6.925 2 13 2s11 4.925 11 11M14 6a1 1 0 1 0-2 0v6H6a1 1 0 1 0 0 2h6v6a1 1 0 1 0 2 0v-6h6a1 1 0 1 0 0-2h-6zm-1 20c7.18 0 13-5.82 13-13c0-2.577-.75-4.98-2.044-7H35.75A6.25 6.25 0 0 1 42 12.25v23.5c0 1.356-.432 2.61-1.165 3.635l-14.36-14.36a3.5 3.5 0 0 0-4.95 0l-14.36 14.36A6.22 6.22 0 0 1 6 35.75V23.956A12.94 12.94 0 0 0 13 26m21.5-8.5a4 4 0 1 0-8 0a4 4 0 0 0 8 0m4.502 23.588L24.707 26.793a1 1 0 0 0-1.414 0L8.998 41.088A6.2 6.2 0 0 0 12.25 42h23.5a6.2 6.2 0 0 0 3.252-.912"/></svg>