<svg xmlns="http://www.w3.org/2000/svg" xmlns:xlink="http://www.w3.org/1999/xlink" width="24" height="24" viewBox="0 0 24 24"><path fill="currentColor" d="M3.28 2.22a.75.75 0 1 0-1.06 1.06l1.263 1.264A3.24 3.24 0 0 0 3 6.25v11.5A3.25 3.25 0 0 0 6.25 21h11.5c.626 0 1.21-.177 1.706-.483l1.263 1.264a.75.75 0 0 0 1.061-1.061zm7.839 9.96a2.2 2.2 0 0 0-.693.463l-5.823 5.7a1.8 1.8 0 0 1-.103-.593V6.25q.002-.31.101-.588zM19.5 6.25v10.068l1.5 1.5V6.25A3.25 3.25 0 0 0 17.75 3H6.183l1.499 1.5H17.75c.966 0 1.75.784 1.75 1.75m-1.17 13.151a1.8 1.8 0 0 1-.58.099H6.25q-.308-.002-.582-.099l5.807-5.686l.084-.071a.75.75 0 0 1 .966.07zM15.253 6.5a2.252 2.252 0 1 1 0 4.504a2.252 2.252 0 0 1 0-4.504m0 1.5a.752.752 0 1 0 0 1.504a.752.752 0 0 0 0-1.504"/></svg>