<svg xmlns="http://www.w3.org/2000/svg" xmlns:xlink="http://www.w3.org/1999/xlink" width="24" height="24" viewBox="0 0 24 24"><path fill="currentColor" d="M14 9a1 1 0 1 0 0 2a1 1 0 0 0 0-2M3 6.25A3.25 3.25 0 0 1 6.25 3h11.5A3.25 3.25 0 0 1 21 6.25v11.5A3.25 3.25 0 0 1 17.75 21H6.25A3.25 3.25 0 0 1 3 17.75zM6.25 4.5A1.75 1.75 0 0 0 4.5 6.25v.25h2v-2zM4.5 16h2V8h-2zM16 6.5v-2H8v2zm1.5 0h2v-.25a1.75 1.75 0 0 0-1.75-1.75h-.25zm0 1.5v8h2V8zm0 9.5v2h.25a1.75 1.75 0 0 0 1.75-1.75v-.25zm-1.5 0H8v2h8zm-9.5 0h-2v.25c0 .966.784 1.75 1.75 1.75h.25zM8 15.068l2.409-2.409a2.25 2.25 0 0 1 3.182 0L16 15.068V8H8zm6.81.932l-2.28-2.28a.75.75 0 0 0-1.06 0L9.19 16z"/></svg>