<svg xmlns="http://www.w3.org/2000/svg" xmlns:xlink="http://www.w3.org/1999/xlink" width="28" height="28" viewBox="0 0 28 28"><path fill="currentColor" d="M14 7.5a6.5 6.5 0 1 1-13 0a6.5 6.5 0 0 1 13 0m-6-4a.5.5 0 0 0-1 0V7H3.5a.5.5 0 0 0 0 1H7v3.5a.5.5 0 0 0 1 0V8h3.5a.5.5 0 0 0 0-1H8zM7.5 15a7.5 7.5 0 0 0 6-12h7.75A3.75 3.75 0 0 1 25 6.75v14.5c0 .771-.233 1.488-.632 2.084l-8.97-8.767a2 2 0 0 0-2.796 0l-8.97 8.767A3.73 3.73 0 0 1 3 21.25V13.5A7.47 7.47 0 0 0 7.5 15m13.25-5a2.25 2.25 0 1 0-4.5 0a2.25 2.25 0 0 0 4.5 0M4.698 24.39c.59.385 1.295.61 2.052.61h14.5c.757 0 1.462-.225 2.052-.61l-8.952-8.75a.5.5 0 0 0-.7 0z"/></svg>