<svg xmlns="http://www.w3.org/2000/svg" xmlns:xlink="http://www.w3.org/1999/xlink" width="16" height="16" viewBox="0 0 16 16"><path fill="currentColor" d="m12.309 13.016l1.837 1.838a.5.5 0 0 0 .708-.708l-13-13a.5.5 0 1 0-.708.708L2.414 3.12A2.5 2.5 0 0 0 2 4.5v5c0 .51.152.983.414 1.378l3.377-3.376c.179-.18.388-.31.61-.393l1.1 1.098a.71.71 0 0 0-1.003.002L3.12 11.586c.395.261.87.414 1.379.414h5c.51 0 .983-.152 1.379-.414l.717.717A3.5 3.5 0 0 1 9.5 13H5c.456.607 1.182 1 2 1h2.5a4.48 4.48 0 0 0 2.809-.984m-.334-3.162l-7.829-7.83A2.5 2.5 0 0 1 4.5 2h5A2.5 2.5 0 0 1 12 4.5v5q0 .18-.025.354M9 6a1 1 0 1 0 0-2a1 1 0 0 0 0 2m3.797 4.676l.764.764A4.5 4.5 0 0 0 14 9.5V6c0-.818-.393-1.544-1-2v5.5c0 .413-.072.809-.203 1.176"/></svg>