<svg xmlns="http://www.w3.org/2000/svg" xmlns:xlink="http://www.w3.org/1999/xlink" width="24" height="24" viewBox="0 0 24 24"><path fill="currentColor" d="M16.504 8.252a.752.752 0 1 0-1.504 0a.752.752 0 0 0 1.504 0M3 10.757V6.25A3.25 3.25 0 0 1 6.25 3h11.5A3.25 3.25 0 0 1 21 6.25v11.5c0 .627-.178 1.213-.485 1.71l-6.939-6.812l-.128-.117a2.25 2.25 0 0 0-2.244-.383A5.5 5.5 0 0 0 6.5 9.5c-1.33 0-2.55.472-3.5 1.257m10.5-2.505a2.252 2.252 0 1 0 4.504 0a2.252 2.252 0 0 0-4.504 0M13.982 21a1.74 1.74 0 0 0-.495-.987l-2.237-2.238a5.52 5.52 0 0 0 .551-4.245a.75.75 0 0 1 .631.11l.093.078l6.928 6.8A3.24 3.24 0 0 1 17.75 21zM9.95 17.89a4.5 4.5 0 1 0-1.145.976l2.915 2.914a.75.75 0 1 0 1.06-1.06zM6.5 18a3 3 0 1 1 0-6a3 3 0 0 1 0 6"/></svg>