<svg xmlns="http://www.w3.org/2000/svg" xmlns:xlink="http://www.w3.org/1999/xlink" width="20" height="20" viewBox="0 0 20 20"><path fill="currentColor" d="M2.854 2.146a.5.5 0 1 0-.708.708l1.409 1.408A2.98 2.98 0 0 0 3 6v6c0 .648.205 1.248.555 1.738l4.03-4.03a2 2 0 0 1 .897-.519l6.114 6.114A3.5 3.5 0 0 1 12.5 16H5.764c.55.614 1.348 1 2.236 1h4.5a4.48 4.48 0 0 0 2.809-.984l1.837 1.838a.5.5 0 0 0 .708-.708zm12.943 11.53l.764.764A4.5 4.5 0 0 0 17 12.5V8c0-.888-.386-1.687-1-2.236V12.5a3.6 3.6 0 0 1-.203 1.176M5.224 3.102l9.675 9.675Q15 12.404 15 12V6a3 3 0 0 0-3-3H6q-.405 0-.777.102M12.5 6.5a1 1 0 1 1-2 0a1 1 0 0 1 2 0m1.238 7.945l-4.03-4.03a1 1 0 0 0-1.415 0l-4.031 4.03c.49.35 1.09.555 1.738.555h6a2.98 2.98 0 0 0 1.738-.555"/></svg>