<svg xmlns="http://www.w3.org/2000/svg" xmlns:xlink="http://www.w3.org/1999/xlink" width="20" height="20" viewBox="0 0 20 20"><path fill="currentColor" d="m5.122.282l-.348 1.071A2.206 2.206 0 0 1 3.376 2.75l-1.072.348l-.022.006a.423.423 0 0 0 0 .798l1.072.348a2.208 2.208 0 0 1 1.399 1.397l.348 1.07a.423.423 0 0 0 .798 0l.348-1.07a2.204 2.204 0 0 1 1.399-1.403l1.072-.348a.423.423 0 0 0 0-.798L7.646 2.75a2.208 2.208 0 0 1-1.377-1.397L5.92.283a.423.423 0 0 0-.799 0ZM.217 8.213l.766-.248a1.577 1.577 0 0 0 .998-.999l.25-.764a.302.302 0 0 1 .57 0l.248.764a1.575 1.575 0 0 0 .984.999l.765.248a.302.302 0 0 1 0 .57l-.765.249a1.577 1.577 0 0 0-1 1.002l-.248.764a.302.302 0 0 1-.57 0l-.249-.764a1.575 1.575 0 0 0-.999-.999l-.765-.248a.302.302 0 0 1 0-.57l.015-.004ZM3 14v-2.1a1.32 1.32 0 0 0 .244-.13c.22-.16.38-.371.48-.621l.26-.802A.968.968 0 0 1 4 10.308V14c0 .373.102.722.28 1.02l4.669-4.588a1.5 1.5 0 0 1 2.102 0l4.67 4.588A1.99 1.99 0 0 0 16 14V6a2 2 0 0 0-2-2H9.91a1.438 1.438 0 0 0 .002-1H14a3 3 0 0 1 3 3v8a3 3 0 0 1-3 3H6a3 3 0 0 1-3-3Zm11-6.5a1.5 1.5 0 1 1-3 0a1.5 1.5 0 0 1 3 0Zm-1 0a.5.5 0 1 0-1 0a.5.5 0 0 0 1 0Zm1 8.5c.37 0 .715-.1 1.012-.274l-4.662-4.58a.5.5 0 0 0-.7 0l-4.662 4.58A1.99 1.99 0 0 0 6 16h8Z"/></svg>