<svg xmlns="http://www.w3.org/2000/svg" xmlns:xlink="http://www.w3.org/1999/xlink" width="20" height="20" viewBox="0 0 20 20"><path fill="currentColor" d="M5.5 10a4.5 4.5 0 1 0 0-9a4.5 4.5 0 0 0 0 9m0-1c-.786 0-1.512-.26-2.096-.697l4.9-4.899A3.5 3.5 0 0 1 5.5 9m2.096-6.303l-4.9 4.9a3.5 3.5 0 0 1 4.9-4.9M3 10.4q.476.244 1 .393V14c0 .373.102.722.28 1.02l4.669-4.588a1.5 1.5 0 0 1 2.102 0l4.67 4.588A2 2 0 0 0 16 14V6a2 2 0 0 0-2-2h-3.207a5.5 5.5 0 0 0-.393-1H14a3 3 0 0 1 3 3v8a3 3 0 0 1-3 3H6a3 3 0 0 1-3-3zm1.988 5.326A2 2 0 0 0 6 16h8c.37 0 .715-.1 1.012-.274l-4.662-4.58a.5.5 0 0 0-.7 0zM14 7.5a1.5 1.5 0 1 1-3 0a1.5 1.5 0 0 1 3 0m-1 0a.5.5 0 1 0-1 0a.5.5 0 0 0 1 0"/></svg>