<svg xmlns="http://www.w3.org/2000/svg" xmlns:xlink="http://www.w3.org/1999/xlink" width="16" height="16" viewBox="0 0 16 16"><path fill="currentColor" d="M1 3.5A1.5 1.5 0 0 1 2.5 2H6c.818 0 1.544.393 2 1c.456-.607 1.182-1 2-1h3.5A1.5 1.5 0 0 1 15 3.5v3.7a1.5 1.5 0 0 0-1-.18V3.5a.5.5 0 0 0-.5-.5H10a1.5 1.5 0 0 0-1.5 1.5v3.879L7.879 9H7.5V4.5A1.5 1.5 0 0 0 6 3H2.5a.5.5 0 0 0-.5.5v9a.5.5 0 0 0 .5.5H6l.085-.002c.132.375.409.683.764.854A2.5 2.5 0 0 1 6 14H2.5A1.5 1.5 0 0 1 1 12.5zm9.691 4.538A.5.5 0 0 1 11 8.5v6a.5.5 0 0 1-.854.354L8.293 13H7.5a.5.5 0 0 1-.5-.5v-2a.5.5 0 0 1 .5-.5h.793l1.853-1.854a.5.5 0 0 1 .545-.108m3.959.162c.121.162.285.453.443.874c.255.68.407 1.49.407 2.426s-.152 1.745-.407 2.426c-.158.421-.322.712-.443.874a.5.5 0 0 1-.848-.523l.116-.182a3.5 3.5 0 0 0 .239-.52c.213-.57.343-1.261.343-2.075s-.13-1.505-.343-2.074a3.5 3.5 0 0 0-.239-.52L13.85 8.8a.5.5 0 1 1 .8-.6m-1.703 1.076c.073.145.175.385.277.69c.172.517.276 1.036.276 1.534c0 .499-.104 1.018-.276 1.533a5.5 5.5 0 0 1-.277.69a.5.5 0 1 1-.894-.447l.076-.168a6 6 0 0 0 .147-.391c.14-.422.224-.84.224-1.217c0-.376-.084-.795-.224-1.217a5 5 0 0 0-.223-.56a.5.5 0 1 1 .894-.447"/></svg>