<svg xmlns="http://www.w3.org/2000/svg" xmlns:xlink="http://www.w3.org/1999/xlink" width="24" height="24" viewBox="0 0 24 24"><path fill="currentColor" d="M12 2.002a3.875 3.875 0 0 0-3.875 3.875c0 2.92 1.207 6.552 1.813 8.199a2.19 2.19 0 0 0 2.064 1.423c.904 0 1.739-.542 2.063-1.418c.606-1.64 1.81-5.254 1.81-8.204A3.875 3.875 0 0 0 12 2.002M9.625 5.877a2.375 2.375 0 0 1 4.75 0c0 2.655-1.111 6.043-1.717 7.684a.69.69 0 0 1-.655.438a.69.69 0 0 1-.657-.44c-.607-1.652-1.721-5.058-1.721-7.682m2.376 11.124a2.501 2.501 0 1 0 0 5.002a2.501 2.501 0 0 0 0-5.002M11 19.502a1.001 1.001 0 1 1 2.002 0a1.001 1.001 0 0 1-2.002 0"/></svg>