<svg xmlns="http://www.w3.org/2000/svg" xmlns:xlink="http://www.w3.org/1999/xlink" width="28" height="28" viewBox="0 0 28 28"><path fill="currentColor" d="M18.171 6.829a3.16 3.16 0 0 1 .761 1.238l.498 1.53a.605.605 0 0 0 1.14 0l.498-1.53a3.15 3.15 0 0 1 1.998-1.996l1.53-.497a.605.605 0 0 0 0-1.14l-.03-.008l-1.531-.497a3.15 3.15 0 0 1-1.998-1.996L20.54.403a.604.604 0 0 0-1.14 0l-.498 1.53l-.013.038a3.15 3.15 0 0 1-1.955 1.958l-1.53.497a.605.605 0 0 0 0 1.14l1.53.497c.467.156.89.418 1.237.766m8.65 3.529l.918.298l.019.004a.362.362 0 0 1 0 .684l-.919.299a1.9 1.9 0 0 0-1.198 1.197l-.299.918a.363.363 0 0 1-.684 0l-.299-.918a1.89 1.89 0 0 0-1.198-1.202l-.919-.298a.362.362 0 0 1 0-.684l.919-.299a1.9 1.9 0 0 0 1.18-1.197l.299-.918a.363.363 0 0 1 .684 0l.298.918a1.89 1.89 0 0 0 1.199 1.197M14 2c1.198 0 2.356.176 3.448.503a2.1 2.1 0 0 1-.839.496l-1.52.5a1.57 1.57 0 0 0-.79.59a1.58 1.58 0 0 0 0 1.85c.187.274.457.481.77.59l1.56.5c.312.11.595.288.83.52q.099.098.18.21a2 2 0 0 1 .34.64l.5 1.53a1.7 1.7 0 0 0 .59.8a1.64 1.64 0 0 0 1.86 0l.13-.11A1.3 1.3 0 0 0 21 11c.003.283.09.558.25.79a1.3 1.3 0 0 0 .66.49l.94.31a.85.85 0 0 1 .34.21a.9.9 0 0 1 .22.35l.3.92c.09.275.265.514.5.68a1.37 1.37 0 0 0 1.777-.17C25.684 20.939 20.433 26 14 26C7.373 26 2 20.627 2 14S7.373 2 14 2m0 9.5a.75.75 0 0 0-.75.75v7a.75.75 0 0 0 1.5 0v-7a.75.75 0 0 0-.75-.75m0-1.5a1 1 0 1 0 0-2a1 1 0 0 0 0 2"/></svg>