<svg xmlns="http://www.w3.org/2000/svg" xmlns:xlink="http://www.w3.org/1999/xlink" width="20" height="20" viewBox="0 0 20 20"><path fill="currentColor" d="M2.753 2.933a.75.75 0 0 1 .814-.68l3.043.272c2.157.205 4.224.452 5.922.732c1.66.273 3.073.594 3.844.983c.197.1.412.233.578.415c.176.192.352.506.28.9c-.067.356-.304.59-.487.729a3 3 0 0 1-.695.369c-1.02.404-2.952.79-5.984 1.169c-1.442.18-2.489.357-3.214.522q.308.067.674.132c.992.174 2.241.323 3.568.437a31 31 0 0 1 3.016.398c.46.087.893.186 1.261.296c.352.105.707.236.971.412c.13.086.304.225.42.437a.94.94 0 0 1 .028.853c-.113.244-.307.4-.454.495a2.8 2.8 0 0 1-.541.259c-.768.283-2.144.544-4.283.789c-2.124.243-3.409.55-4.117.859c-.296.128-.442.236-.508.3c.026.037.073.094.156.17q.227.209.65.45c.56.316 1.282.61 1.979.838l2.637.814a.75.75 0 1 1-.443 1.433l-2.655-.819c-.754-.247-1.58-.578-2.257-.96a5 5 0 0 1-.924-.65c-.255-.233-.513-.544-.62-.935c-.12-.441-.016-.88.274-1.244c.261-.328.656-.574 1.113-.773c.92-.4 2.387-.727 4.545-.974c1.366-.156 2.354-.313 3.041-.462q-.259-.058-.552-.114a30 30 0 0 0-2.865-.378c-1.352-.116-2.649-.27-3.7-.454c-.524-.092-1-.194-1.395-.307c-.376-.106-.75-.241-1.021-.426a1.2 1.2 0 0 1-.43-.49a.93.93 0 0 1 .059-.873c.13-.213.32-.352.472-.442a3 3 0 0 1 .559-.251c.807-.287 2.222-.562 4.37-.83c2.695-.338 4.377-.666 5.295-.962c-.638-.21-1.623-.427-2.89-.635c-1.65-.273-3.679-.515-5.816-.718l-3.038-.272a.75.75 0 0 1-.68-.814"/></svg>