<svg xmlns="http://www.w3.org/2000/svg" xmlns:xlink="http://www.w3.org/1999/xlink" width="24" height="24" viewBox="0 0 24 24"><path fill="currentColor" d="M12 2q.465 0 .908.082a6.5 6.5 0 0 0-1.582 1.483A3.5 3.5 0 0 0 8.62 7.91a.75.75 0 0 1-.194.725L3.5 13.561V16.5h2v-1.75a.75.75 0 0 1 .75-.75H8.5v-1.25a.75.75 0 0 1 .22-.53l1.915-1.915q.336.7.823 1.298L10 13.06v1.689a.75.75 0 0 1-.75.75H7v1.75a.75.75 0 0 1-.75.75h-3.5a.75.75 0 0 1-.75-.75v-4a.75.75 0 0 1 .22-.53l4.855-4.855A5 5 0 0 1 12 2m4.5 1.5a4 4 0 0 0-1.894 7.524a.75.75 0 0 1 .394.66v7.734l2.017 1.834l2.123-1.799l-.921-.924a.75.75 0 0 1 0-1.058l.967-.971l-.967-.97A.75.75 0 0 1 18 15v-3.316a.75.75 0 0 1 .394-.66A4 4 0 0 0 16.5 3.5m-5.5 4a5.5 5.5 0 1 1 8.5 4.61v2.58l1.276 1.28a.75.75 0 0 1 0 1.06l-.967.97l.967.97a.75.75 0 0 1-.046 1.102l-3.245 2.75a.75.75 0 0 1-.99-.017l-2.75-2.5a.75.75 0 0 1-.245-.555v-7.64A5.5 5.5 0 0 1 11 7.5m6.5-1a1 1 0 1 1-2 0a1 1 0 0 1 2 0"/></svg>