<svg xmlns="http://www.w3.org/2000/svg" xmlns:xlink="http://www.w3.org/1999/xlink" width="24" height="24" viewBox="0 0 24 24"><path fill="currentColor" d="M17 8.25a1.25 1.25 0 1 0 0-2.5a1.25 1.25 0 0 0 0 2.5m-8.05.35a6.554 6.554 0 0 1 6.55-6.55c3.596 0 6.55 2.819 6.55 6.45a6.5 6.5 0 0 1-1.255 3.852a6 6 0 0 0-1.276-.798a5.03 5.03 0 0 0 1.03-3.054c0-2.769-2.247-4.95-5.05-4.95a5.054 5.054 0 0 0-5.05 5.05c0 .262.034.539.088.845a1.77 1.77 0 0 1-.486 1.564l-6.236 6.235a1.25 1.25 0 0 0-.366.884V20.3c0 .138.112.25.25.25h2.5a.25.25 0 0 0 .25-.25v-1.5c0-.69.56-1.25 1.25-1.25h1.75V15.8c0-.65.497-1.185 1.132-1.245l1.077 1.078a1.8 1.8 0 0 0-.378.417h-.33v1.75c0 .69-.56 1.25-1.25 1.25H7.95v1.25a1.75 1.75 0 0 1-1.75 1.75H3.7a1.75 1.75 0 0 1-1.75-1.75v-2.172c0-.73.289-1.429.805-1.944L8.99 9.948a.28.28 0 0 0 .07-.244A6.4 6.4 0 0 1 8.95 8.6m4.83 2.68a.75.75 0 1 0-1.06-1.06l-2 2a.75.75 0 0 0 0 1.06l2 2a.75.75 0 1 0 1.06-1.06l-.72-.72H17a3.5 3.5 0 1 1-3.5 3.5a.75.75 0 0 0-1.5 0a5 5 0 1 0 5-5h-3.94z"/></svg>