<svg xmlns="http://www.w3.org/2000/svg" xmlns:xlink="http://www.w3.org/1999/xlink" width="20" height="20" viewBox="0 0 20 20"><path fill="currentColor" d="M5 12.5a.5.5 0 0 1 .5-.5h9a.5.5 0 0 1 0 1h-9a.5.5 0 0 1-.5-.5m6.502-4.495a.752.752 0 1 0 0-1.505a.752.752 0 0 0 0 1.505m3.753-.753a.752.752 0 1 1-1.505 0a.752.752 0 0 1 1.505 0m-9.753.753a.752.752 0 1 0 0-1.505a.752.752 0 0 0 0 1.505M7.75 9.752a.752.752 0 1 1-1.505 0a.752.752 0 0 1 1.505 0m2.252.753a.752.752 0 1 0 0-1.505a.752.752 0 0 0 0 1.505m3.757-.753a.752.752 0 1 1-1.504 0a.752.752 0 0 1 1.504 0M8.503 8.005a.752.752 0 1 0 0-1.505a.752.752 0 0 0 0 1.505M2 5.5A1.5 1.5 0 0 1 3.5 4h13A1.5 1.5 0 0 1 18 5.5v8a1.5 1.5 0 0 1-1.5 1.5h-13A1.5 1.5 0 0 1 2 13.5zM3.5 5a.5.5 0 0 0-.5.5v8a.5.5 0 0 0 .5.5h13a.5.5 0 0 0 .5-.5v-8a.5.5 0 0 0-.5-.5z"/></svg>