<svg xmlns="http://www.w3.org/2000/svg" xmlns:xlink="http://www.w3.org/1999/xlink" width="32" height="32" viewBox="0 0 32 32"><path fill="currentColor" d="M7.25 6A3.25 3.25 0 0 0 4 9.25v9.5A3.25 3.25 0 0 0 7.25 22h7.25c0-.687.077-1.357.223-2H7.25C6.56 20 6 19.44 6 18.75v-9.5C6 8.56 6.56 8 7.25 8h17.5c.69 0 1.25.56 1.25 1.25v4.102a9 9 0 0 1 2 .852V9.25A3.25 3.25 0 0 0 24.75 6zM3 24h11.723c.16.701.4 1.372.712 2H3a1 1 0 1 1 0-2m15.843-5.963a1.52 1.52 0 0 1-1.117 1.927l-1.536.35a7.5 7.5 0 0 0-.04 3.19l1.698.423a1.52 1.52 0 0 1 1.096 1.893l-.496 1.723a7.5 7.5 0 0 0 2.75 1.597l1.26-1.3a1.53 1.53 0 0 1 2.193 0l1.236 1.272a7.5 7.5 0 0 0 2.737-1.635l-.467-1.513a1.52 1.52 0 0 1 1.117-1.928l1.536-.35a7.5 7.5 0 0 0 .04-3.19l-1.698-.423a1.52 1.52 0 0 1-1.096-1.892l.496-1.724a7.5 7.5 0 0 0-2.75-1.597l-1.26 1.3a1.53 1.53 0 0 1-2.193 0l-1.236-1.272a7.5 7.5 0 0 0-2.737 1.635zM25.5 22a2 2 0 1 1-4 0a2 2 0 0 1 4 0"/></svg>