<svg xmlns="http://www.w3.org/2000/svg" xmlns:xlink="http://www.w3.org/1999/xlink" width="24" height="24" viewBox="0 0 24 24"><path fill="currentColor" d="M4 6.25A2.25 2.25 0 0 1 6.25 4h11.5A2.25 2.25 0 0 1 20 6.25v4.248A6.5 6.5 0 0 0 11.019 16H6.25A2.25 2.25 0 0 1 4 13.75zM11.498 19a6.5 6.5 0 0 1-.422-1.5H2.75a.75.75 0 0 0 0 1.5zm2.78-6.024a2 2 0 0 1-1.442 2.496l-.584.144a5.7 5.7 0 0 0 .006 1.808l.54.13a2 2 0 0 1 1.45 2.51l-.187.631c.44.386.94.699 1.485.922l.493-.519a2 2 0 0 1 2.899 0l.499.525a5.3 5.3 0 0 0 1.482-.913l-.198-.686a2 2 0 0 1 1.442-2.496l.583-.144a5.7 5.7 0 0 0-.006-1.808l-.54-.13a2 2 0 0 1-1.449-2.51l.186-.63a5.3 5.3 0 0 0-1.484-.922l-.493.518a2 2 0 0 1-2.9 0l-.498-.525c-.544.22-1.044.53-1.483.912zM17.498 18c-.8 0-1.45-.672-1.45-1.5S16.7 15 17.5 15s1.45.672 1.45 1.5S18.3 18 17.5 18"/></svg>