<svg xmlns="http://www.w3.org/2000/svg" xmlns:xlink="http://www.w3.org/1999/xlink" width="24" height="24" viewBox="0 0 24 24"><path fill="currentColor" d="M6.517 6A1.75 1.75 0 0 1 8.25 4.5h10A3.75 3.75 0 0 1 22 8.25v5a1.75 1.75 0 0 1-1.5 1.732V8.25A2.25 2.25 0 0 0 18.25 6H6.517ZM5.75 7A1.75 1.75 0 0 0 4 8.75v7c0 .966.783 1.75 1.75 1.75h12a1.75 1.75 0 0 0 1.75-1.75v-7A1.75 1.75 0 0 0 17.75 7h-12ZM5.5 8.75a.25.25 0 0 1 .25-.25h12a.25.25 0 0 1 .25.25v7a.25.25 0 0 1-.25.25h-12a.25.25 0 0 1-.25-.25v-7ZM2.713 18a.75.75 0 0 0 0 1.5H20.31a.75.75 0 1 0 0-1.5H2.713Z"/></svg>