<svg xmlns="http://www.w3.org/2000/svg" xmlns:xlink="http://www.w3.org/1999/xlink" width="24" height="24" viewBox="0 0 24 24"><path fill="currentColor" d="M4 6.25A2.25 2.25 0 0 1 6.25 4h11.5A2.25 2.25 0 0 1 20 6.25v2.854A2.8 2.8 0 0 0 19.25 9h-3.5A2.75 2.75 0 0 0 13 11.75v.3a2.5 2.5 0 0 0-2 2.45V16H6.25A2.25 2.25 0 0 1 4 13.75zM2.75 19H11v-1.5H2.75a.75.75 0 0 0 0 1.5M14 13h-.5a1.5 1.5 0 0 0-1.5 1.5v5a1.5 1.5 0 0 0 1.5 1.5h8a1.5 1.5 0 0 0 1.5-1.5v-5a1.5 1.5 0 0 0-1.5-1.5H21v-1.25A1.75 1.75 0 0 0 19.25 10h-3.5A1.75 1.75 0 0 0 14 11.75zm1.5-1.25a.25.25 0 0 1 .25-.25h3.5a.25.25 0 0 1 .25.25V13h-4z"/></svg>