<svg xmlns="http://www.w3.org/2000/svg" xmlns:xlink="http://www.w3.org/1999/xlink" width="16" height="16" viewBox="0 0 16 16"><path fill="currentColor" d="m10.878.282l.348 1.071a2.2 2.2 0 0 0 1.398 1.397l1.072.348l.021.006a.423.423 0 0 1 0 .798l-1.071.348a2.2 2.2 0 0 0-1.399 1.397l-.348 1.07a.423.423 0 0 1-.798 0l-.348-1.07a2.2 2.2 0 0 0-1.399-1.403l-1.072-.348a.423.423 0 0 1 0-.798l1.072-.348a2.2 2.2 0 0 0 1.377-1.397l.348-1.07a.423.423 0 0 1 .799 0m4.905 7.931l-.765-.248a1.58 1.58 0 0 1-1-.999l-.248-.764a.302.302 0 0 0-.57 0l-.25.764a1.58 1.58 0 0 1-.983.999l-.765.248a.303.303 0 0 0 0 .57l.765.249a1.58 1.58 0 0 1 1 1.002l.248.764a.302.302 0 0 0 .57 0l.249-.764a1.58 1.58 0 0 1 .999-.999l.765-.248a.303.303 0 0 0 0-.57zM13.502 12q-.263-.001-.502-.1v.428a.5.5 0 0 1-.301.459l-5 2.168A.5.5 0 0 1 7 14.496V9.645c0-.2.12-.381.303-.46l2.808-1.203l.013-.029a1.3 1.3 0 0 1-.45-.21c-.193-.15-.33-.31-.425-.48l-2.34 1.003A1.5 1.5 0 0 0 6 9.645v4.852a1.5 1.5 0 0 0 2.097 1.376l5-2.169A1.5 1.5 0 0 0 14 12.328v-.407a1.5 1.5 0 0 1-.498.079m-5.47-6.801l-.922-.305l-3.2 1.372A1.5 1.5 0 0 0 3 7.644v4.853a1.5 1.5 0 0 0 2 1.414v-1.084l-.303.13a.5.5 0 0 1-.697-.46V7.644c0-.2.12-.38.303-.46L8.421 5.42a1.2 1.2 0 0 0-.39-.221M6.95 2.154l.122-.04a1.48 1.48 0 0 0-1.164.009L1.515 4.006A2.5 2.5 0 0 0 0 6.304V10.5a1.5 1.5 0 0 0 2 1.414V10.83l-.303.13A.5.5 0 0 1 1 10.5V6.305c0-.6.358-1.142.91-1.379l4.13-1.77q.064-.26.22-.48c.17-.24.41-.421.69-.521"/></svg>