<svg xmlns="http://www.w3.org/2000/svg" xmlns:xlink="http://www.w3.org/1999/xlink" width="20" height="20" viewBox="0 0 20 20"><path fill="currentColor" d="M10.505 3.117a1 1 0 0 0-1.011 0l-6.01 3.52a1 1 0 0 0 .003 1.726l6.009 3.502a1 1 0 0 0 1.007 0l6.009-3.502a1 1 0 0 0 .001-1.727zM9.494 4.276a1 1 0 0 1 1.01 0l5.504 3.223l-5.505 3.209a1 1 0 0 1-1.007 0L3.99 7.499zM3.07 9.65l6.438 3.623a1 1 0 0 0 .98 0l6.438-3.623a1 1 0 0 1-.415 1.26l-6.01 3.502a1 1 0 0 1-1.006 0l-6.01-3.502a1 1 0 0 1-.415-1.26m0 2.453l6.438 3.622a1 1 0 0 0 .98 0l6.438-3.622a1 1 0 0 1-.415 1.26l-6.01 3.502a1 1 0 0 1-1.006 0l-6.01-3.502a1 1 0 0 1-.415-1.26"/></svg>