<svg xmlns="http://www.w3.org/2000/svg" xmlns:xlink="http://www.w3.org/1999/xlink" width="20" height="20" viewBox="0 0 20 20"><path fill="currentColor" d="M9.447 2.106a1.5 1.5 0 0 1 2.05 1.302L5.42 5.814A2.25 2.25 0 0 0 4 7.906v6.006a1.5 1.5 0 0 1-2-1.415V6.755A2.5 2.5 0 0 1 3.58 4.43zm3 2a1.5 1.5 0 0 1 2.052 1.395v.103L9.264 7.678A2 2 0 0 0 8 9.538v5.979l-.947.375A1.5 1.5 0 0 1 5 14.498V8.415a2 2 0 0 1 1.264-1.86zM18 7.5v3.1a5.5 5.5 0 0 0-7.401 7.398A1.5 1.5 0 0 1 9 16.5V9.877a1.5 1.5 0 0 1 .948-1.395l6-2.376A1.5 1.5 0 0 1 18 7.5m2 8a4.5 4.5 0 1 1-9 0a4.5 4.5 0 0 1 9 0m-4-2a.5.5 0 0 0-1 0V15h-1.5a.5.5 0 0 0 0 1H15v1.5a.5.5 0 0 0 1 0V16h1.5a.5.5 0 0 0 0-1H16z"/></svg>