<svg xmlns="http://www.w3.org/2000/svg" xmlns:xlink="http://www.w3.org/1999/xlink" width="24" height="24" viewBox="0 0 24 24"><path fill="currentColor" d="M11.495 3.547a.75.75 0 0 1 1.005.705v.72l1.5-.543v-.177a2.25 2.25 0 0 0-3.016-2.116l-6.84 2.475A3.25 3.25 0 0 0 2 7.667v6.082a2.25 2.25 0 0 0 3 2.121v-1.595l-.495.18a.75.75 0 0 1-1.005-.706V7.667a1.75 1.75 0 0 1 1.155-1.645zm4 3a.75.75 0 0 1 1.005.705v.72l1.5-.543v-.177a2.25 2.25 0 0 0-3.016-2.116l-7.17 2.595A2.75 2.75 0 0 0 6 10.317v6.432a2.25 2.25 0 0 0 3 2.122v-1.596l-.495.18a.75.75 0 0 1-1.005-.706v-6.432c0-.527.33-.997.825-1.176zm5.005 3.705a.75.75 0 0 0-1.005-.705l-7.5 2.714a.75.75 0 0 0-.495.705v6.783a.75.75 0 0 0 1.005.705l.515-.186c.052.494.2.98.455 1.43l-.46.167A2.25 2.25 0 0 1 10 19.749v-6.783a2.25 2.25 0 0 1 1.484-2.116l7.5-2.714A2.25 2.25 0 0 1 22 10.252V14.5c0-1.19-.593-2.24-1.5-2.873zM21 14.5a2.5 2.5 0 1 1-5 0a2.5 2.5 0 0 1 5 0m2 5.375C23 21.431 21.714 23 18.5 23S14 21.437 14 19.875v-.103c0-.98.794-1.772 1.773-1.772h5.454c.98 0 1.773.793 1.773 1.772z"/></svg>