<svg xmlns="http://www.w3.org/2000/svg" xmlns:xlink="http://www.w3.org/1999/xlink" width="20" height="20" viewBox="0 0 20 20"><path fill="currentColor" d="m14.878 1.282l.348 1.071a2.2 2.2 0 0 0 1.399 1.397l1.071.348l.021.006a.423.423 0 0 1 0 .798l-1.071.348a2.2 2.2 0 0 0-1.399 1.397l-.348 1.07a.423.423 0 0 1-.798 0l-.349-1.07a2.2 2.2 0 0 0-.532-.867a2.2 2.2 0 0 0-.866-.536l-1.071-.348a.423.423 0 0 1 0-.798l1.071-.348a2.2 2.2 0 0 0 1.377-1.397l.348-1.07a.423.423 0 0 1 .799 0m4.905 7.931l-.766-.248a1.58 1.58 0 0 1-.998-.999l-.25-.764a.302.302 0 0 0-.57 0l-.248.764a1.58 1.58 0 0 1-.984.999l-.765.248a.303.303 0 0 0 0 .57l.765.249a1.58 1.58 0 0 1 1 1.002l.248.764a.302.302 0 0 0 .57 0l.249-.764a1.58 1.58 0 0 1 .999-.999l.765-.248a.303.303 0 0 0 0-.57zM17.502 13a1.33 1.33 0 0 1-.746-.23c-.22-.16-.38-.371-.48-.621l-.26-.802a.5.5 0 0 0-.14-.22a.6.6 0 0 0-.22-.14l-.762-.25c-.27-.1-.49-.261-.65-.482s-.24-.48-.24-.75c0-.191.04-.381.12-.552q-.24-.06-.45-.21a1.5 1.5 0 0 1-.521-.691l-.245-.742l-2.96 1.172A1.5 1.5 0 0 0 9 9.877V16.5a1.5 1.5 0 0 0 2.052 1.395l6-2.377A1.5 1.5 0 0 0 18 14.124V12.92a1.5 1.5 0 0 1-.498.079M10.26 5.317a1.4 1.4 0 0 1-.155-.282l-3.841 1.52A2 2 0 0 0 5 8.416v6.083a1.5 1.5 0 0 0 2.053 1.394L8 15.517v-5.98a2 2 0 0 1 1.264-1.86l3.163-1.252a1.2 1.2 0 0 0-.395-.226l-1.061-.35c-.3-.1-.54-.291-.71-.532m.69-2.163l.466-.15a1.5 1.5 0 0 0-1.969-.898L3.579 4.43A2.5 2.5 0 0 0 2 6.755v5.742a1.5 1.5 0 0 0 2 1.415V7.906a2.25 2.25 0 0 1 1.421-2.092l4.683-1.855a1.42 1.42 0 0 1 .847-.805"/></svg>