<svg xmlns="http://www.w3.org/2000/svg" xmlns:xlink="http://www.w3.org/1999/xlink" width="20" height="20" viewBox="0 0 20 20"><path fill="currentColor" d="M5.5 3A2.5 2.5 0 0 0 3 5.5a.5.5 0 0 0 1 0A1.5 1.5 0 0 1 5.5 4a.5.5 0 0 0 0-1m3 0a.5.5 0 0 0 0 1h2a.5.5 0 0 0 0-1zM4 8.5a.5.5 0 0 0-1 0v3a.5.5 0 0 0 1 0zm0 6a.5.5 0 0 0-1 0A2.5 2.5 0 0 0 5.5 17a.5.5 0 0 0 0-1A1.5 1.5 0 0 1 4 14.5M8.5 16a.5.5 0 0 0 0 1h2a.5.5 0 0 0 0-1zm4-13a.5.5 0 0 0-.5.5v13a.5.5 0 0 0 .5.5H14a3 3 0 0 0 3-3V6a3 3 0 0 0-3-3zm.5 13V4h1a2 2 0 0 1 2 2v8a2 2 0 0 1-2 2z"/></svg>