<svg xmlns="http://www.w3.org/2000/svg" xmlns:xlink="http://www.w3.org/1999/xlink" width="28" height="28" viewBox="0 0 28 28"><path fill="currentColor" d="M6.75 3A3.75 3.75 0 0 0 3 6.75v14.5A3.75 3.75 0 0 0 6.75 25h7.75a7.5 7.5 0 0 1-.876-1.5H6.75a2.25 2.25 0 0 1-2.25-2.25V14h12.256c1.102-.636 2.38-1 3.744-1c1.688 0 3.247.558 4.5 1.5V6.75A3.75 3.75 0 0 0 21.25 3zm10.046 13.699a2 2 0 0 1-1.441 2.496l-1.024.253a6.8 6.8 0 0 0 .008 2.152l.976.235a2 2 0 0 1 1.45 2.51l-.324 1.098c.518.46 1.11.835 1.753 1.1l.843-.886a2 2 0 0 1 2.899 0l.85.895a6.2 6.2 0 0 0 1.751-1.09l-.335-1.16a2 2 0 0 1 1.441-2.495l1.026-.254a6.8 6.8 0 0 0-.008-2.152l-.977-.235a2 2 0 0 1-1.45-2.51l.324-1.1a6.2 6.2 0 0 0-1.753-1.1l-.843.888a2 2 0 0 1-2.9 0l-.849-.895a6.2 6.2 0 0 0-1.751 1.09zM20.5 22a1.5 1.5 0 1 1 0-3a1.5 1.5 0 0 1 0 3"/></svg>