<svg xmlns="http://www.w3.org/2000/svg" xmlns:xlink="http://www.w3.org/1999/xlink" width="20" height="20" viewBox="0 0 20 20"><path fill="currentColor" d="M16 7q0 .514-.1 1h.765C17.402 8 18 8.598 18 9.335V13a5 5 0 0 1-8.164 3.872l-.982.982a.5.5 0 0 1-.707-.708l.982-.982a5 5 0 0 1-.788-1.346A5 5 0 0 1 2 10V6.335A1.334 1.334 0 0 1 3.334 5h3.081A5 5 0 0 1 11 2h3.665C15.402 2 16 2.598 16 3.335zM7.52 5.027a5 5 0 0 1 4.14 3.155A5 5 0 0 1 13 8h1.874q.125-.481.126-1V3.335A.335.335 0 0 0 14.665 3H11a4 4 0 0 0-3.48 2.027m3.027 11.133A4 4 0 0 0 17 13V9.335A.335.335 0 0 0 16.665 9H13a4 4 0 0 0-3.16 6.453l3.307-3.307a.5.5 0 0 1 .707.708zM8 13q.002-.6.135-1.158L5.646 9.354a.5.5 0 1 1 .708-.708l2.154 2.155a5.02 5.02 0 0 1 2.22-2.256A4 4 0 0 0 7 6H3.335A.335.335 0 0 0 3 6.335V10a4 4 0 0 0 5.073 3.855A5 5 0 0 1 8 13"/></svg>