<svg xmlns="http://www.w3.org/2000/svg" xmlns:xlink="http://www.w3.org/1999/xlink" width="32" height="32" viewBox="0 0 32 32"><path fill="currentColor" d="M10.453 20.984a10 10 0 0 0 1.804 3.345l-2.964 2.964a1 1 0 1 0 1.414 1.414l2.964-2.964A9.96 9.96 0 0 0 20 28c5.523 0 10-4.477 10-10v-7a3 3 0 0 0-3-3h-7q-.463 0-.915.041A9 9 0 0 0 11 3H5a3 3 0 0 0-3 3v6a9 9 0 0 0 8.453 8.984M4 6a1 1 0 0 1 1-1h6a7 7 0 0 1 6.033 3.448a10 10 0 0 0-4.853 3.318L8.707 8.293a1 1 0 0 0-1.414 1.414l3.78 3.78a9.96 9.96 0 0 0-1.03 5.448A7 7 0 0 1 4 12zm16 20a7.97 7.97 0 0 1-4.906-1.68l6.613-6.613a1 1 0 0 0-1.414-1.414l-6.613 6.613A8 8 0 0 1 20 10h7a1 1 0 0 1 1 1v7a8 8 0 0 1-8 8"/></svg>