<svg xmlns="http://www.w3.org/2000/svg" xmlns:xlink="http://www.w3.org/1999/xlink" width="24" height="24" viewBox="0 0 24 24"><path fill="currentColor" d="M13.5 2a5.5 5.5 0 0 0-4.905 3.008a7 7 0 0 1 5.49 3.125q.69-.132 1.415-.133h3.478q.021-.247.022-.5V3.44A1.44 1.44 0 0 0 17.56 2zM8.426 17.997L8.25 18a6 6 0 0 1-6-6V7.514C2.25 6.678 2.928 6 3.764 6H8.25c1.966 0 3.712.946 4.806 2.407a7.52 7.52 0 0 0-3.938 3.15L7.53 9.97a.75.75 0 0 0-1.06 1.06l1.96 1.96A7.5 7.5 0 0 0 8 15.5c0 .876.15 1.716.426 2.497M9 15.5A6.5 6.5 0 0 1 15.5 9h4.914C21.29 9 22 9.71 22 10.586V15.5a6.5 6.5 0 0 1-10.535 5.096L10.28 21.78a.75.75 0 1 1-1.06-1.06l1.184-1.185A6.47 6.47 0 0 1 9 15.5m3.177 4.383l4.603-4.603a.75.75 0 1 0-1.06-1.06l-4.603 4.603c.303.4.66.757 1.06 1.06"/></svg>