<svg xmlns="http://www.w3.org/2000/svg" xmlns:xlink="http://www.w3.org/1999/xlink" width="32" height="32" viewBox="0 0 32 32"><path fill="currentColor" d="M3 5.5A2.5 2.5 0 0 1 5.5 3h2A2.5 2.5 0 0 1 10 5.5v21A2.5 2.5 0 0 1 7.5 29h-2A2.5 2.5 0 0 1 3 26.5zM5.5 5a.5.5 0 0 0-.5.5v21a.5.5 0 0 0 .5.5h2a.5.5 0 0 0 .5-.5v-21a.5.5 0 0 0-.5-.5zm6.5.5A2.5 2.5 0 0 1 14.5 3h2A2.5 2.5 0 0 1 19 5.5v21a2.5 2.5 0 0 1-2.5 2.5h-2a2.5 2.5 0 0 1-2.5-2.5zm2.5-.5a.5.5 0 0 0-.5.5v21a.5.5 0 0 0 .5.5h2a.5.5 0 0 0 .5-.5v-21a.5.5 0 0 0-.5-.5zm7.3 2.605c-1.295.358-2.064 1.733-1.717 3.07l4.27 16.466c.348 1.338 1.678 2.131 2.973 1.773l1.875-.52c1.294-.357 2.063-1.732 1.716-3.07L26.647 8.86c-.348-1.338-1.678-2.131-2.973-1.773zm.158 2.551a.503.503 0 0 1 .344-.614l1.875-.519a.484.484 0 0 1 .594.355l4.27 16.466a.503.503 0 0 1-.343.614l-1.875.519a.484.484 0 0 1-.594-.355z"/></svg>