<svg xmlns="http://www.w3.org/2000/svg" xmlns:xlink="http://www.w3.org/1999/xlink" width="28" height="28" viewBox="0 0 28 28"><path fill="currentColor" d="M6.5 11a7.5 7.5 0 1 1 12.325 5.742a5 5 0 0 0-.424.406A8.96 8.96 0 0 0 14 16c-1.599 0-3.1.417-4.401 1.148a5 5 0 0 0-.424-.406A7.48 7.48 0 0 1 6.5 11m3.873 7.434A7.5 7.5 0 0 1 14 17.5c1.316 0 2.552.339 3.627.934a3 3 0 0 0-.076.264L17.24 20h-6.48l-.312-1.302a3 3 0 0 0-.076-.264M16.88 21.5l-.398 1.658A1.75 1.75 0 0 1 14.78 24.5h-1.558a1.75 1.75 0 0 1-1.702-1.342l-.398-1.658zM14 2a9 9 0 0 0-5.79 15.89c.402.339.679.736.78 1.158l1.07 4.46A3.25 3.25 0 0 0 13.222 26h1.558a3.25 3.25 0 0 0 3.16-2.492l1.07-4.46c.102-.422.379-.819.782-1.158A9 9 0 0 0 14 2m0 6.5a2.5 2.5 0 1 0 0 5a2.5 2.5 0 0 0 0-5M10 11a4 4 0 1 1 8 0a4 4 0 0 1-8 0"/></svg>