<svg xmlns="http://www.w3.org/2000/svg" xmlns:xlink="http://www.w3.org/1999/xlink" width="48" height="48" viewBox="0 0 48 48"><path fill="currentColor" d="M12 18.5c0-6.627 5.373-12 12-12s12 5.373 12 12c0 3.504-1.5 6.657-3.898 8.852a5.8 5.8 0 0 0-1.142 1.424A14.44 14.44 0 0 0 24 27c-2.522 0-4.894.644-6.96 1.776a5.8 5.8 0 0 0-1.142-1.424A11.97 11.97 0 0 1 12 18.5m5.83 12.705A11.94 11.94 0 0 1 24 29.5c2.256 0 4.367.623 6.17 1.705l-.845 3.295h-10.65zm2.206 8.604L19.316 37h9.368l-.72 2.809a2.25 2.25 0 0 1-2.18 1.691h-3.568a2.25 2.25 0 0 1-2.18-1.691M24 4C15.992 4 9.5 10.492 9.5 18.5c0 4.235 1.817 8.047 4.71 10.696c.448.41.748.873.87 1.349l2.535 9.885a4.75 4.75 0 0 0 4.6 3.57h3.57a4.75 4.75 0 0 0 4.6-3.57l2.535-9.885c.122-.476.422-.938.87-1.35A14.47 14.47 0 0 0 38.5 18.5C38.5 10.492 32.008 4 24 4m-4.5 14.5a4.5 4.5 0 1 1 9 0a4.5 4.5 0 0 1-9 0m4.5-7a7 7 0 1 0 0 14a7 7 0 0 0 0-14"/></svg>