<svg xmlns="http://www.w3.org/2000/svg" xmlns:xlink="http://www.w3.org/1999/xlink" width="32" height="32" viewBox="0 0 32 32"><path fill="currentColor" d="M16 2C10.477 2 6 6.477 6 12a9.98 9.98 0 0 0 3.365 7.482q.33.294.501.62A9.96 9.96 0 0 1 16 18c2.312 0 4.44.784 6.134 2.102q.171-.326.501-.62A9.98 9.98 0 0 0 26 12c0-5.523-4.477-10-10-10m5.58 20.267A7.97 7.97 0 0 0 16 20c-2.17 0-4.139.864-5.58 2.267l.4 1.733h10.36zM11.281 26l.297 1.287A3.5 3.5 0 0 0 14.988 30h2.023a3.5 3.5 0 0 0 3.41-2.713L20.72 26zM16 9.5a2.5 2.5 0 1 0 0 5a2.5 2.5 0 0 0 0-5M11.5 12a4.5 4.5 0 1 1 9 0a4.5 4.5 0 0 1-9 0"/></svg>