<svg xmlns="http://www.w3.org/2000/svg" xmlns:xlink="http://www.w3.org/1999/xlink" width="32" height="32" viewBox="0 0 32 32"><path fill="currentColor" d="m21.124 25.799l-.42 1.762c-.324 1.349-1.516 2.325-2.925 2.43l-.25.009H14.47c-1.433 0-2.687-.903-3.11-2.207l-.065-.234l-.42-1.76zM16 2c5.799 0 10.5 4.545 10.5 10.15c0 2.992-1.355 5.732-4.005 8.178a.35.35 0 0 0-.103.175l-.764 3.196h-4.542v-9.45c0-.58-.486-1.05-1.086-1.05s-1.086.47-1.086 1.05v9.45h-4.542l-.762-3.196a.35.35 0 0 0-.103-.175C6.856 17.882 5.5 15.142 5.5 12.151C5.5 6.545 10.201 2 16 2m-1.086 6.65v2.1c0 .58.486 1.05 1.086 1.05s1.086-.47 1.086-1.05v-2.1c0-.58-.486-1.05-1.086-1.05s-1.086.47-1.086 1.05m7.285 2.052a1.113 1.113 0 0 0-1.536 0l-1.536 1.485a1.026 1.026 0 0 0 0 1.485c.424.41 1.112.41 1.536 0l1.536-1.485a1.026 1.026 0 0 0 0-1.485m-10.862 0a1.113 1.113 0 0 0-1.536 0a1.026 1.026 0 0 0 0 1.485l1.536 1.485c.424.41 1.112.41 1.536 0a1.026 1.026 0 0 0 0-1.485z"/></svg>