<svg xmlns="http://www.w3.org/2000/svg" xmlns:xlink="http://www.w3.org/1999/xlink" width="28" height="28" viewBox="0 0 28 28"><path fill="currentColor" d="M6.5 11a7.5 7.5 0 1 1 12.325 5.742c-.572.482-1.078 1.138-1.274 1.956L17.24 20h-6.48l-.312-1.302c-.197-.818-.702-1.474-1.274-1.956A7.48 7.48 0 0 1 6.5 11m4.621 10.5h5.758l-.398 1.658a1.75 1.75 0 0 1-1.702 1.342h-1.558a1.75 1.75 0 0 1-1.702-1.342zM14 2a9 9 0 0 0-5.79 15.89c.402.339.679.736.78 1.158l1.07 4.46A3.25 3.25 0 0 0 13.222 26h1.558a3.25 3.25 0 0 0 3.16-2.492l1.07-4.46c.102-.422.379-.819.782-1.158A9 9 0 0 0 14 2"/></svg>