<svg xmlns="http://www.w3.org/2000/svg" xmlns:xlink="http://www.w3.org/1999/xlink" width="24" height="24" viewBox="0 0 24 24"><path fill="currentColor" d="M10 6a1 1 0 0 0-1-1H7l-.217.005A5 5 0 0 0 7 15h2l.117-.007A1 1 0 0 0 9 13H7l-.176-.005A3 3 0 0 1 7 7h2l.117-.007A1 1 0 0 0 10 6Zm12 4a5 5 0 0 0-5-5h-2l-.117.007A1 1 0 0 0 15 7h2l.176.005a3 3 0 0 1 2.493 4.366a6.483 6.483 0 0 1 1.76.95A4.966 4.966 0 0 0 22 10Zm-5-1H7l-.117.007A1 1 0 0 0 7 11h10l.117-.007A1 1 0 0 0 17 9Zm-4.163 7.472a2 2 0 0 0 1.441-2.496l-.198-.687a5.28 5.28 0 0 1 1.483-.912l.499.525a2 2 0 0 0 2.899 0l.493-.518a5.282 5.282 0 0 1 1.484.921l-.186.631a2 2 0 0 0 1.45 2.51l.539.13a5.733 5.733 0 0 1 .006 1.808l-.584.144a2 2 0 0 0-1.44 2.496l.197.686a5.251 5.251 0 0 1-1.483.913l-.498-.524a2 2 0 0 0-2.9-.001l-.493.519a5.28 5.28 0 0 1-1.484-.922l.187-.631a2 2 0 0 0-1.45-2.51l-.54-.13a5.72 5.72 0 0 1-.006-1.808l.584-.144ZM18.95 17.5c0-.828-.65-1.5-1.45-1.5c-.8 0-1.45.672-1.45 1.5S16.7 19 17.5 19c.8 0 1.45-.672 1.45-1.5Z"/></svg>