<svg xmlns="http://www.w3.org/2000/svg" xmlns:xlink="http://www.w3.org/1999/xlink" width="16" height="16" viewBox="0 0 16 16"><path fill="currentColor" d="M9.5 4h1a3.5 3.5 0 0 1 .194 6.995l-.192.005l-1 .005a.5.5 0 0 1-.094-.992l.09-.008L10.5 10a2.5 2.5 0 0 0 .164-4.995L10.5 5h-1a.5.5 0 0 1-.09-.992L9.5 4h1h-1Zm-4 0h1a.5.5 0 0 1 .09.992L6.5 5h-1a2.5 2.5 0 0 0-.164 4.995L5.5 10h1a.5.5 0 0 1 .09.992L6.5 11h-1a3.5 3.5 0 0 1-.192-6.995L5.5 4h1h-1Zm0 3l5 .002a.5.5 0 0 1 .09.992l-.09.008L5.5 8a.5.5 0 0 1-.09-.992L5.5 7Z"/></svg>