<svg xmlns="http://www.w3.org/2000/svg" xmlns:xlink="http://www.w3.org/1999/xlink" width="16" height="16" viewBox="0 0 16 16"><path fill="currentColor" d="M1 6.5A3.5 3.5 0 0 1 4.5 3h4a3.5 3.5 0 0 1 3.469 3.031a3.5 3.5 0 0 1-.122 1.499A3.5 3.5 0 0 1 8.5 10h-.75a.75.75 0 0 1 0-1.5h.75a2 2 0 1 0 0-4h-4a2 2 0 0 0-1.262 3.552a4.5 4.5 0 0 0-.235 1.613A3.5 3.5 0 0 1 1 6.5m8 .25a.75.75 0 0 1-.75.75H7.5a2 2 0 1 0 0 4h4a2 2 0 0 0 1.263-3.551a4.5 4.5 0 0 0 .235-1.613A3.5 3.5 0 0 1 11.5 13h-4a3.5 3.5 0 1 1 0-7h.75a.75.75 0 0 1 .75.75"/></svg>