<svg xmlns="http://www.w3.org/2000/svg" xmlns:xlink="http://www.w3.org/1999/xlink" width="24" height="24" viewBox="0 0 24 24"><path fill="currentColor" d="M9 5a1 1 0 0 1 .117 1.993L9 7H7a3 3 0 0 0-.176 5.995L7 13h2a1 1 0 0 1 .117 1.993L9 15H7a5 5 0 0 1-.217-9.995L7 5zm8 0a5 5 0 0 1 4.43 7.322a6.5 6.5 0 0 0-1.76-.951a3 3 0 0 0-2.493-4.366L17 7h-2a1 1 0 0 1-.117-1.993L15 5zM7 9h10a1 1 0 0 1 .117 1.993L17 11H7a1 1 0 0 1-.117-1.993zm16 8.5a5.5 5.5 0 1 1-11 0a5.5 5.5 0 0 1 11 0m-7.146-2.354a.5.5 0 0 0-.708.708l1.647 1.646l-1.647 1.646a.5.5 0 0 0 .708.708l1.646-1.647l1.646 1.647a.5.5 0 0 0 .708-.708L18.207 17.5l1.647-1.646a.5.5 0 0 0-.708-.708L17.5 16.793z"/></svg>