<svg xmlns="http://www.w3.org/2000/svg" xmlns:xlink="http://www.w3.org/1999/xlink" width="48" height="48" viewBox="0 0 48 48"><path fill="currentColor" d="M44 20c0-5.523-4.477-10-10-10h-5.75l-.128.007a1.25 1.25 0 0 0 .128 2.493H34l.243.004a7.5 7.5 0 0 1 5.92 11.77a7 7 0 0 1 1.395 2.274A9.96 9.96 0 0 0 44 20m-23-8.75c0-.69-.56-1.25-1.25-1.25H14l-.28.004C8.327 10.152 4 14.57 4 20c0 5.523 4.477 10 10 10h5.75l.128-.006a1.25 1.25 0 0 0-.128-2.494H14l-.243-.004A7.5 7.5 0 0 1 14 12.5h5.75l.128-.007A1.25 1.25 0 0 0 21 11.25m14 7.5H13l-.128.006A1.25 1.25 0 0 0 13 21.25h22l.128-.006A1.25 1.25 0 0 0 35 18.75M40 29a5 5 0 1 1-10 0a5 5 0 0 1 10 0m4 10.5c0 3.5-3.15 6.5-9 6.5s-9-3-9-6.5v-.502A3 3 0 0 1 29 36h12c1.657 0 3 1.34 3 2.998z"/></svg>