<svg xmlns="http://www.w3.org/2000/svg" xmlns:xlink="http://www.w3.org/1999/xlink" width="24" height="24" viewBox="0 0 24 24"><path fill="currentColor" d="M3.28 2.22a.75.75 0 1 0-1.06 1.06l2.203 2.203c-3.393 3.93-3.224 9.872.506 13.602a1 1 0 0 0 1.414-1.415a8.004 8.004 0 0 1-.501-10.768l1.52 1.52a5.92 5.92 0 0 0 .533 7.763A1 1 0 0 0 9.31 14.77a3.92 3.92 0 0 1-.513-4.913l1.835 1.836a1.503 1.503 0 0 0 1.45 1.889q.201 0 .388-.051l8.25 8.25a.75.75 0 1 0 1.06-1.061zm15.748 13.626l1.462 1.462c2.414-3.861 1.942-9.012-1.415-12.37a1 1 0 1 0-1.415 1.415a8.01 8.01 0 0 1 1.368 9.493m-3.098-3.098l1.591 1.591a5.92 5.92 0 0 0-1.253-6.527a1 1 0 1 0-1.414 1.414a3.92 3.92 0 0 1 1.076 3.522"/></svg>