<svg xmlns="http://www.w3.org/2000/svg" xmlns:xlink="http://www.w3.org/1999/xlink" width="28" height="28" viewBox="0 0 28 28"><path fill="currentColor" d="M3.28 2.22a.75.75 0 1 0-1.06 1.06l3.526 3.527A9.7 9.7 0 0 0 4.25 12c0 4.028 2.767 8.409 8.23 13.188l.377.328a1.75 1.75 0 0 0 2.283.002q2.782-2.389 4.67-4.647l4.91 4.91a.75.75 0 0 0 1.06-1.061zm11.356 13.476a3.75 3.75 0 0 1-4.332-4.332zM7.722 4.54l4.283 4.284a3.75 3.75 0 0 1 5.17 5.17l4.435 4.435q2.138-3.357 2.14-6.429A9.75 9.75 0 0 0 14 2.25a9.7 9.7 0 0 0-6.278 2.29"/></svg>