<svg xmlns="http://www.w3.org/2000/svg" xmlns:xlink="http://www.w3.org/1999/xlink" width="20" height="20" viewBox="0 0 20 20"><path fill="currentColor" d="M6 3a3 3 0 0 0-3 3v8a3 3 0 0 0 3 3h8a3 3 0 0 0 3-3V6a3 3 0 0 0-3-3zM4 6a2 2 0 0 1 2-2h8a2 2 0 0 1 2 2v8a2 2 0 0 1-2 2H6a2 2 0 0 1-2-2zm3.5 4a2.5 2.5 0 1 0 5 0a2.5 2.5 0 0 0-5 0m-.965.5H6a.5.5 0 0 1 0-1h.535A3.5 3.5 0 0 1 9.5 6.535V6a.5.5 0 0 1 1 0v.535A3.5 3.5 0 0 1 13.465 9.5H14a.5.5 0 0 1 0 1h-.535a3.5 3.5 0 0 1-2.965 2.965V14a.5.5 0 0 1-1 0v-.535A3.5 3.5 0 0 1 6.535 10.5m4.715-.5a1.25 1.25 0 1 1-2.5 0a1.25 1.25 0 0 1 2.5 0"/></svg>