<svg xmlns="http://www.w3.org/2000/svg" xmlns:xlink="http://www.w3.org/1999/xlink" width="24" height="24" viewBox="0 0 24 24"><path fill="currentColor" d="M12 2a7.5 7.5 0 0 0-7.5 7.5c0 1.932 1.064 3.8 2.268 5.316c1.22 1.537 2.678 2.829 3.655 3.622c.926.75 2.228.75 3.154 0c.977-.793 2.435-2.085 3.655-3.622C18.436 13.301 19.5 11.432 19.5 9.5A7.5 7.5 0 0 0 12 2m2.5 7.5a2.5 2.5 0 1 1-5 0a2.5 2.5 0 0 1 5 0m3.182 6.347c-.364.432-.74.842-1.114 1.223q.535.15.99.33c.696.274 1.207.58 1.532.884c.325.302.41.544.41.716s-.085.414-.41.716c-.325.303-.836.61-1.531.884c-1.386.546-3.35.9-5.559.9s-4.173-.354-5.559-.9c-.695-.273-1.206-.58-1.532-.884c-.324-.302-.409-.544-.409-.716s.085-.414.41-.716c.325-.303.836-.61 1.531-.884q.457-.18.99-.33a22 22 0 0 1-1.113-1.223q-.219.075-.427.157c-.798.315-1.494.707-2.004 1.182C3.377 17.662 3 18.274 3 19s.376 1.338.887 1.814c.51.475 1.206.868 2.004 1.182C7.492 22.626 9.652 23 12 23s4.508-.373 6.108-1.004c.799-.314 1.495-.707 2.005-1.182c.51-.476.887-1.088.887-1.814s-.376-1.338-.887-1.814c-.51-.474-1.206-.867-2.005-1.182q-.207-.081-.426-.157"/></svg>