<svg xmlns="http://www.w3.org/2000/svg" xmlns:xlink="http://www.w3.org/1999/xlink" width="12" height="12" viewBox="0 0 12 12"><path fill="currentColor" d="M6 2a2.5 2.5 0 0 0-2.5 2.5c0 .453.259 1.04.691 1.674c.42.617.953 1.204 1.387 1.641c.238.24.606.24.844 0c.434-.437.966-1.024 1.387-1.64C8.24 5.54 8.5 4.952 8.5 4.5A2.5 2.5 0 0 0 6 2M2.5 4.5a3.5 3.5 0 1 1 7 0c0 .77-.408 1.568-.865 2.238c-.469.687-1.048 1.323-1.503 1.781a1.585 1.585 0 0 1-2.264 0c-.455-.458-1.034-1.094-1.503-1.781C2.908 6.068 2.5 5.269 2.5 4.5m4.5 0a1 1 0 1 1-2 0a1 1 0 0 1 2 0M2.42 8.065c.122-.125.267-.236.427-.336c.21.277.43.54.643.782a1.5 1.5 0 0 0-.36.256C3.017 8.884 3 8.962 3 9s.016.116.13.233c.118.118.312.248.592.368C4.28 9.84 5.085 10 6 10s1.72-.16 2.278-.399c.28-.12.474-.25.591-.368C8.984 9.116 9 9.038 9 9s-.016-.116-.13-.233q-.122-.125-.36-.256c.214-.241.433-.505.643-.782q.242.15.428.336c.239.242.419.559.419.935s-.18.693-.42.935c-.236.24-.554.434-.908.585c-.71.304-1.654.48-2.672.48s-1.963-.176-2.672-.48c-.354-.151-.672-.345-.909-.585C2.18 9.693 2 9.376 2 9s.18-.693.42-.935"/></svg>