<svg xmlns="http://www.w3.org/2000/svg" xmlns:xlink="http://www.w3.org/1999/xlink" width="24" height="24" viewBox="0 0 24 24"><path d="M5.843 4.559a8.707 8.707 0 0 1 12.514 12.107l-.2.207a434.13 434.13 0 0 1-4.593 4.486a2.25 2.25 0 0 1-3.128 0l-3.85-3.749c-.284-.28-.532-.526-.743-.737a8.707 8.707 0 0 1 0-12.314zm9.187 3.127l-.084-.073a.75.75 0 0 0-.882-.007l-.094.08L12 9.655l-1.97-1.97l-.084-.072a.75.75 0 0 0-.882-.007l-.094.08l-.073.084a.75.75 0 0 0-.007.882l.08.094l1.969 1.97l-1.97 1.97l-.072.084a.75.75 0 0 0-.007.882l.08.094l.084.073a.75.75 0 0 0 .882.007l.094-.08l1.97-1.97l1.97 1.97l.084.073a.75.75 0 0 0 .882.007l.094-.08l.073-.084a.75.75 0 0 0 .007-.882l-.08-.094l-1.969-1.97l1.97-1.97l.072-.084a.75.75 0 0 0 .007-.882l-.08-.094l-.084-.073l.084.073z" fill="currentColor" fill-rule="nonzero"/></svg>