<svg xmlns="http://www.w3.org/2000/svg" xmlns:xlink="http://www.w3.org/1999/xlink" width="20" height="20" viewBox="0 0 20 20"><path fill="currentColor" d="M9.743 1.99a.75.75 0 1 0-.004 1.5l2.76.008v1.25c0 .556-.19.985-.478 1.273s-.716.48-1.271.48a.75.75 0 0 0 0 1.5c.915 0 1.737-.324 2.332-.92c.595-.595.918-1.418.918-2.334V2.75a.75.75 0 0 0-.748-.75zm-1.55 3.474a.75.75 0 0 0-1.386 0L3.51 13.44l-.013.032l-1.441 3.49a.75.75 0 0 0 1.386.573L4.7 14.493h5.6l1.256 3.039a.75.75 0 0 0 1.386-.573zm1.488 7.53H5.32l2.18-5.28zM15.753 2a.75.75 0 0 1 .75.75v3.254h.755a.75.75 0 0 1 0 1.5h-.755v5.747a.75.75 0 0 1-1.5 0V2.75a.75.75 0 0 1 .75-.75"/></svg>