<svg xmlns="http://www.w3.org/2000/svg" xmlns:xlink="http://www.w3.org/1999/xlink" width="24" height="24" viewBox="0 0 24 24"><path fill="currentColor" d="M9.799 2.026A.75.75 0 0 0 9.7 3.523c5.242.345 9.434 4.538 9.777 9.78a.75.75 0 1 0 1.497-.098C20.581 7.21 15.791 2.42 9.799 2.026M8.497 15.622a1.125 1.125 0 1 0 0-2.25a1.125 1.125 0 0 0 0 2.25m-.52 6.15l-.39-.386l-2.969-2.954a5.496 5.496 0 1 1 7.773 0c-.444.444-1.284 1.28-2.012 2.003l-1.346 1.337a.75.75 0 0 1-1.057 0M5.678 11.72a3.996 3.996 0 0 0 0 5.651c.482.482 1.32 1.316 2.039 2.03l.787.782l.816-.812c.729-.724 1.567-1.557 2.01-2a3.996 3.996 0 1 0-5.652-5.651m4.14-6.217a.75.75 0 0 0-.135 1.494a6.99 6.99 0 0 1 6.319 6.317a.75.75 0 1 0 1.494-.136a8.49 8.49 0 0 0-7.679-7.675"/></svg>