<svg xmlns="http://www.w3.org/2000/svg" xmlns:xlink="http://www.w3.org/1999/xlink" width="48" height="48" viewBox="0 0 48 48"><path fill="currentColor" d="M32.634 15.384a1.25 1.25 0 0 0-1.768-1.768L20.75 23.732l-3.616-3.616a1.25 1.25 0 0 0-1.768 1.768l4.5 4.5a1.25 1.25 0 0 0 1.768 0zm-5.722 27.325L37 32h-.038l.017-.02l.021-.025A16.92 16.92 0 0 0 41 21c0-9.389-7.611-17-17-17S7 11.611 7 21a16.92 16.92 0 0 0 4 10.955l.021.025l.017.02H11l10.088 10.71a4 4 0 0 0 5.823 0M38.5 21a14.43 14.43 0 0 1-3.443 9.381l-.308.363l-9.657 10.251a1.5 1.5 0 0 1-2.184 0l-9.657-10.251l-.308-.363A14.43 14.43 0 0 1 9.5 21c0-8.008 6.492-14.5 14.5-14.5S38.5 12.992 38.5 21"/></svg>