<svg xmlns="http://www.w3.org/2000/svg" xmlns:xlink="http://www.w3.org/1999/xlink" width="20" height="20" viewBox="0 0 20 20"><path fill="currentColor" d="M13 9a3 3 0 1 1-6 0a3 3 0 0 1 6 0m-1 0a2 2 0 1 0-4 0a2 2 0 0 0 4 0m-3.253 8.557c.52.42 1.2.542 1.813.363a5.5 5.5 0 0 1-.358-.938a1 1 0 0 1-.802-.18l-.093-.08l-2.98-2.905l-.572-.567l-.176-.183a6.01 6.01 0 0 1 .176-8.31a6 6 0 0 1 8.49 0a6 6 0 0 1 1.673 5.259q.506.038.983.164a7 7 0 0 0-1.951-6.129a7 7 0 0 0-9.9 0a7.005 7.005 0 0 0 0 9.904l1.521 1.499l2.043 1.985zm4.319-5.115a2 2 0 0 1-1.43 2.478l-.462.118a4.7 4.7 0 0 0 .01 1.016l.35.083a2 2 0 0 1 1.456 2.519l-.127.423q.388.306.835.517l.325-.344a2 2 0 0 1 2.91.002l.337.358q.44-.203.822-.498l-.156-.556a2 2 0 0 1 1.43-2.478l.46-.118a4.7 4.7 0 0 0-.01-1.017l-.348-.082a2 2 0 0 1-1.456-2.52l.126-.421a4.3 4.3 0 0 0-.835-.519l-.325.344a2 2 0 0 1-2.91-.001l-.337-.358a4.3 4.3 0 0 0-.822.497zM15.5 16.5a1 1 0 1 1 0-2a1 1 0 0 1 0 2"/></svg>