<svg xmlns="http://www.w3.org/2000/svg" xmlns:xlink="http://www.w3.org/1999/xlink" width="28" height="28" viewBox="0 0 28 28"><path fill="currentColor" d="M2.22 2.22a.75.75 0 0 1 1.06 0l22.5 22.5a.75.75 0 0 1-1.06 1.06l-4.91-4.91q-1.887 2.26-4.67 4.648a1.75 1.75 0 0 1-2.283-.002l-.378-.328C7.017 20.408 4.25 16.028 4.25 12c0-1.909.548-3.69 1.496-5.193L2.22 3.28a.75.75 0 0 1 0-1.06m12.416 13.476a3.75 3.75 0 0 1-4.332-4.332L6.839 7.9A8.2 8.2 0 0 0 5.75 12c0 3.502 2.548 7.537 7.714 12.057l.373.323a.25.25 0 0 0 .326 0q2.766-2.377 4.582-4.574zM8.787 5.606L7.722 4.54A9.7 9.7 0 0 1 14 2.25A9.75 9.75 0 0 1 23.75 12c0 2.05-.716 4.19-2.14 6.429l-1.089-1.09q1.73-2.845 1.729-5.339A8.25 8.25 0 0 0 8.787 5.605m4.326 4.325l-1.107-1.107a3.75 3.75 0 0 1 5.17 5.17l-1.108-1.107a2.25 2.25 0 0 0-2.955-2.955"/></svg>