<svg xmlns="http://www.w3.org/2000/svg" xmlns:xlink="http://www.w3.org/1999/xlink" width="24" height="24" viewBox="0 0 24 24"><path fill="currentColor" d="M9 2.725a.75.75 0 0 1 .799-.699c5.992.394 10.782 5.185 11.175 11.179a.75.75 0 0 1-1.497.098c-.343-5.242-4.535-9.435-9.777-9.78a.75.75 0 0 1-.7-.798M7.589 21.386l.388.386a.75.75 0 0 0 1.057 0l1.346-1.337c.728-.723 1.568-1.559 2.012-2.003a5.496 5.496 0 1 0-7.773 0a1162 1162 0 0 0 2.97 2.954M8.5 15.75a1.25 1.25 0 1 1 0-2.5a1.25 1.25 0 0 1 0 2.5M9.818 5.503a.75.75 0 1 0-.134 1.494a6.99 6.99 0 0 1 6.319 6.317a.75.75 0 1 0 1.494-.136a8.49 8.49 0 0 0-7.679-7.675"/></svg>