<svg xmlns="http://www.w3.org/2000/svg" xmlns:xlink="http://www.w3.org/1999/xlink" width="24" height="24" viewBox="0 0 24 24"><path fill="currentColor" d="M10.5 14a1.5 1.5 0 0 0 1.5 1.5v-.815c0-.818.604-1.371 1.233-1.54A1.5 1.5 0 0 0 10.5 14m-3.25 5.5h5.055q.258.796.728 1.5H7.25A3.25 3.25 0 0 1 4 17.75v-7.5A3.25 3.25 0 0 1 7.25 7H8V6a4 4 0 1 1 8 0v1h.75A3.25 3.25 0 0 1 20 10.25v2.27a7 7 0 0 1-1.31-1.033a2 2 0 0 0-.19-.163V10.25a1.75 1.75 0 0 0-1.75-1.75h-9.5a1.75 1.75 0 0 0-1.75 1.75v7.5c0 .966.784 1.75 1.75 1.75M12 3.5A2.5 2.5 0 0 0 9.5 6v1h5V6A2.5 2.5 0 0 0 12 3.5m5.99 8.695c.652.65 1.907 1.685 3.449 1.898c.308.042.561.285.561.589v2.838c0 3.816-3.58 5.201-4.353 5.456a.46.46 0 0 1-.293 0C16.58 22.721 13 21.336 13 17.52v-2.838c0-.304.253-.547.561-.59c1.542-.212 2.797-1.247 3.45-1.898a.714.714 0 0 1 .979 0"/></svg>