<svg xmlns="http://www.w3.org/2000/svg" xmlns:xlink="http://www.w3.org/1999/xlink" width="48" height="48" viewBox="0 0 48 48"><path fill="currentColor" d="M16 12a8 8 0 1 1 16 0v2h1.75A6.25 6.25 0 0 1 40 20.25v3.756a16.3 16.3 0 0 1-2.308-1.447a2.84 2.84 0 0 0-3.384 0c-2.544 1.89-5.018 2.741-7.475 2.741c-.398 0-.78.083-1.126.233A3 3 0 1 0 24 31v2.9c0 2.942.905 5.775 2.655 8.1H14.25A6.25 6.25 0 0 1 8 35.75v-15.5A6.25 6.25 0 0 1 14.25 14H16zm8-5.5a5.5 5.5 0 0 0-5.5 5.5v2h11v-2A5.5 5.5 0 0 0 24 6.5m17.556 20.273a14.7 14.7 0 0 1-2.778-1.153a18.5 18.5 0 0 1-2.278-1.455a.84.84 0 0 0-1 0c-2.825 2.097-5.707 3.135-8.667 3.135a.83.83 0 0 0-.833.825V33.9q.001 2.714 1.06 4.95a11.1 11.1 0 0 0 1.86 2.75c1.606 1.76 3.87 3.21 6.775 4.343a.84.84 0 0 0 .61 0C42.714 43.443 46 39.4 46 33.9v-5.775a.83.83 0 0 0-.833-.825q-1.825 0-3.611-.527"/></svg>