<svg xmlns="http://www.w3.org/2000/svg" xmlns:xlink="http://www.w3.org/1999/xlink" width="32" height="32" viewBox="0 0 32 32"><path fill="currentColor" d="M10 8a6 6 0 0 1 12 0v1h1.5a4.5 4.5 0 0 1 4.5 4.5v.46a7 7 0 0 0-8.5 10.147V30h-11A4.5 4.5 0 0 1 4 25.5v-12A4.5 4.5 0 0 1 8.5 9H10zm6-4a4 4 0 0 0-4 4v1h8V8a4 4 0 0 0-4-4m0 18a2 2 0 1 0 0-4a2 2 0 0 0 0 4m15-1.5a5.5 5.5 0 1 1-11 0a5.5 5.5 0 0 1 11 0m-1 5.362a6.97 6.97 0 0 1-4.5 1.638a6.97 6.97 0 0 1-4.5-1.638V30a1 1 0 0 0 1.528.849l2.972-1.85l2.972 1.85a1 1 0 0 0 1.528-.85z"/></svg>