<svg xmlns="http://www.w3.org/2000/svg" xmlns:xlink="http://www.w3.org/1999/xlink" width="24" height="24" viewBox="0 0 24 24"><path fill="currentColor" d="M13.5 14a1.5 1.5 0 1 1-3 0a1.5 1.5 0 0 1 3 0M12 2a4 4 0 0 0-4 4v1h-.75A3.25 3.25 0 0 0 4 10.25v7.5A3.25 3.25 0 0 0 7.25 21H16v-1.5H7.25a1.75 1.75 0 0 1-1.75-1.75v-7.5c0-.966.784-1.75 1.75-1.75h9.5c.966 0 1.75.784 1.75 1.75v.864a4.5 4.5 0 0 1 1.5-.084v-.78A3.25 3.25 0 0 0 16.75 7H16V6a4 4 0 0 0-4-4M9.5 6a2.5 2.5 0 0 1 5 0v1h-5zm10 13a3.5 3.5 0 0 0 2.5-1.05A3.5 3.5 0 1 0 19.5 19M17 22.3v-3.058a4.5 4.5 0 0 0 2.5.758c.925 0 1.785-.28 2.5-.758V22.3a.7.7 0 0 1-1.195.495L19.5 21.49l-1.305 1.305A.7.7 0 0 1 17 22.3"/></svg>