<svg xmlns="http://www.w3.org/2000/svg" xmlns:xlink="http://www.w3.org/1999/xlink" width="32" height="32" viewBox="0 0 32 32"><path fill="currentColor" d="M16.5 19.657c0-.566.195-1.033.491-1.395a2 2 0 1 0-.49 3.674zM26 13.5v1.478q.123.09.235.195A10 10 0 0 0 28 16.504V13.5A4.5 4.5 0 0 0 23.5 9H22V8a6 6 0 0 0-12 0v1H8.5A4.5 4.5 0 0 0 4 13.5v12A4.5 4.5 0 0 0 8.5 30h11.004a9.2 9.2 0 0 1-1.732-2H8.5A2.5 2.5 0 0 1 6 25.5v-12A2.5 2.5 0 0 1 8.5 11h15a2.5 2.5 0 0 1 2.5 2.5M12 8a4 4 0 0 1 8 0v1h-8zm13.207 8.265c.943.888 2.755 2.3 4.983 2.589c.444.058.81.389.81.803v3.87c0 5.204-5.17 7.093-6.288 7.44a.7.7 0 0 1-.423 0C23.171 30.62 18 28.731 18 23.527v-3.87c0-.414.366-.745.81-.803c2.228-.29 4.04-1.701 4.983-2.589c.375-.353 1.038-.353 1.414 0"/></svg>