<svg xmlns="http://www.w3.org/2000/svg" xmlns:xlink="http://www.w3.org/1999/xlink" width="48" height="48" viewBox="0 0 48 48"><path fill="currentColor" d="M37.5 20.25v2.178q.098.062.192.131A16.3 16.3 0 0 0 40 24.006V20.25A6.25 6.25 0 0 0 33.75 14H32v-2a8 8 0 1 0-16 0v2h-1.75A6.25 6.25 0 0 0 8 20.25v15.5A6.25 6.25 0 0 0 14.25 42h12.405a13 13 0 0 1-1.475-2.5H14.25a3.75 3.75 0 0 1-3.75-3.75v-15.5a3.75 3.75 0 0 1 3.75-3.75h19.5a3.75 3.75 0 0 1 3.75 3.75M24 28.125V31a3 3 0 1 1 1.707-5.467A2.82 2.82 0 0 0 24 28.125M18.5 12a5.5 5.5 0 1 1 11 0v2h-11zm23.056 14.773a14.7 14.7 0 0 1-2.778-1.153a18.5 18.5 0 0 1-2.278-1.455a.84.84 0 0 0-1 0c-2.825 2.097-5.707 3.135-8.667 3.135a.83.83 0 0 0-.833.825V33.9q.001 2.714 1.06 4.95a11.1 11.1 0 0 0 1.86 2.75c1.606 1.76 3.87 3.21 6.775 4.343a.84.84 0 0 0 .61 0C42.714 43.443 46 39.4 46 33.9v-5.775a.83.83 0 0 0-.833-.825q-1.825 0-3.611-.527"/></svg>