<svg xmlns="http://www.w3.org/2000/svg" xmlns:xlink="http://www.w3.org/1999/xlink" width="24" height="24" viewBox="0 0 24 24"><path fill="currentColor" d="M15.56 4.174A6 6 0 0 0 12 6.682a6 6 0 0 0-3.56-2.508a4 4 0 0 1 7.12 0M4.057 14.042a8.004 8.004 0 0 1 6.985-6.985a5 5 0 1 0-6.986 6.986m15.886 0a5 5 0 1 0-6.986-6.986a8.004 8.004 0 0 1 6.986 6.986M12 22a7 7 0 1 0 0-14a7 7 0 0 0 0 14m-2.5-8.75a.75.75 0 0 1 .75-.75h4.25a.75.75 0 0 1 .495 1.313v.001l-.013.011l-.053.05a9.6 9.6 0 0 0-.925 1.048c-.557.731-1.188 1.77-1.53 3.024a.75.75 0 1 1-1.448-.394c.408-1.496 1.152-2.707 1.783-3.538L12.82 14h-2.57a.75.75 0 0 1-.75-.75"/></svg>