<svg xmlns="http://www.w3.org/2000/svg" xmlns:xlink="http://www.w3.org/1999/xlink" width="20" height="20" viewBox="0 0 20 20"><path fill="currentColor" d="M8.506 3.672a1.996 1.996 0 0 1 2.989 0a5 5 0 0 1 .941-.423A3 3 0 0 0 10.001 2a3 3 0 0 0-2.437 1.25q.496.163.942.422M3 8a3 3 0 0 1 5.4-1.801a6.5 6.5 0 0 1 1.077-.178a4 4 0 1 0-5.85 5.199q.107-.543.303-1.049A3 3 0 0 1 3 8m11-4a4 4 0 0 0-3.477 2.02q.554.045 1.078.179a3 3 0 1 1 4.47 3.972q.194.507.303 1.049A4 4 0 0 0 14 4m-8.5 8.5a4.5 4.5 0 1 1 9 0a4.5 4.5 0 0 1-9 0M10 7a5.5 5.5 0 1 0 0 11a5.5 5.5 0 0 0 0-11m-1.5 3a.5.5 0 0 0 0 1h2.24q-.154.22-.32.485c-.483.772-1.028 1.846-1.166 2.953a.5.5 0 1 0 .992.124c.112-.893.567-1.819 1.022-2.547a11 11 0 0 1 .843-1.168l.012-.014l.003-.004A.5.5 0 0 0 11.75 10z"/></svg>