<svg xmlns="http://www.w3.org/2000/svg" xmlns:xlink="http://www.w3.org/1999/xlink" width="32" height="32" viewBox="0 0 32 32"><path fill="currentColor" d="M23 16.5a7.5 7.5 0 1 1 0-15a7.5 7.5 0 0 1 0 15M22.75 4a.75.75 0 0 0-.75.75v4.5c0 .414.336.75.75.75h3.5a.75.75 0 0 0 0-1.5H23.5V4.75a.75.75 0 0 0-.75-.75M6.5 5h8.436a9 9 0 0 0-.713 2H6.5A2.5 2.5 0 0 0 4 9.5v.903l12 6.461l1.448-.78c.61.48 1.285.881 2.007 1.191l-2.981 1.606a1 1 0 0 1-.948 0L4 12.674V22.5A2.5 2.5 0 0 0 6.5 25h19a2.5 2.5 0 0 0 2.5-2.5v-6.015a9 9 0 0 0 2-1.828V22.5a4.5 4.5 0 0 1-4.5 4.5h-19A4.5 4.5 0 0 1 2 22.5v-13A4.5 4.5 0 0 1 6.5 5"/></svg>