<svg xmlns="http://www.w3.org/2000/svg" xmlns:xlink="http://www.w3.org/1999/xlink" width="20" height="20" viewBox="0 0 20 20"><path fill="currentColor" d="M13.5 3a1 1 0 1 0 0 2a1 1 0 0 0 0-2m2 1A2 2 0 0 1 14 5.937V8a2 2 0 1 0 4 0h-1.5a.5.5 0 0 1-.354-.854l2-2A.5.5 0 0 1 19 5.5V8a3 3 0 1 1-6 0V5.937A2 2 0 1 1 15.5 4m-5 0h-6a2.5 2.5 0 0 0-2.485 2.223L10 10.92l2.315-1.362A4 4 0 0 1 12 8V6.599A3 3 0 0 1 10.5 4m2.317 6.423A4 4 0 0 0 16 12c.729 0 1.412-.195 2-.535V14.5a2.5 2.5 0 0 1-2.5 2.5h-11A2.5 2.5 0 0 1 2 14.5V7.373l7.747 4.558a.5.5 0 0 0 .507 0z"/></svg>