<svg xmlns="http://www.w3.org/2000/svg" xmlns:xlink="http://www.w3.org/1999/xlink" width="20" height="20" viewBox="0 0 20 20"><path fill="currentColor" d="M10 5.5a4.5 4.5 0 1 0 9 0a4.5 4.5 0 0 0-9 0m1 0a3.5 3.5 0 0 1 5.596-2.803l-4.9 4.9A3.5 3.5 0 0 1 11 5.5M14.5 9c-.786 0-1.512-.26-2.096-.697l4.9-4.9A3.5 3.5 0 0 1 14.5 9m0 2c1.33 0 2.55-.472 3.5-1.257V14.5a2.5 2.5 0 0 1-2.5 2.5h-11A2.5 2.5 0 0 1 2 14.5V7.373l7.747 4.558a.5.5 0 0 0 .507 0l2.23-1.312A5.5 5.5 0 0 0 14.5 11m-10-7h4.707a5.5 5.5 0 0 0 2.235 6.072L10 10.92L2.015 6.223A2.5 2.5 0 0 1 4.5 4"/></svg>