<svg xmlns="http://www.w3.org/2000/svg" xmlns:xlink="http://www.w3.org/1999/xlink" width="24" height="24" viewBox="0 0 24 24"><path fill="currentColor" d="M22 7.83a3.001 3.001 0 1 0-2.002-5.66A3.001 3.001 0 0 0 22 7.83M5.25 4h11.362a4.5 4.5 0 0 0-.084 1.5H5.25a1.75 1.75 0 0 0-1.744 1.606L3.5 7.25v.429l8.5 4.474l6.49-3.417a4.5 4.5 0 0 0 1.858.717l-7.999 4.21a.75.75 0 0 1-.602.043l-.096-.042L3.5 9.374v7.376a1.75 1.75 0 0 0 1.606 1.744l.144.006h13.5a1.75 1.75 0 0 0 1.744-1.607l.006-.143V9.473a4.6 4.6 0 0 0 1.5-.085v7.362a3.25 3.25 0 0 1-3.066 3.245L18.75 20H5.25a3.25 3.25 0 0 1-3.245-3.066L2 16.75v-9.5a3.25 3.25 0 0 1 3.066-3.245z"/></svg>