<svg xmlns="http://www.w3.org/2000/svg" xmlns:xlink="http://www.w3.org/1999/xlink" width="24" height="24" viewBox="0 0 24 24"><path fill="currentColor" d="M17.503 1a4 4 0 0 0-4 4v3l-.95.8c-.307.26-.46.39-.507.491a.5.5 0 0 0 .242.662c.1.047.302.047.704.047h9.02c.403 0 .604 0 .705-.047a.5.5 0 0 0 .242-.662c-.047-.101-.2-.231-.508-.49L21.503 8V5a4 4 0 0 0-4-4m1.5 10c-.219.583-.808 1-1.5 1c-.693 0-1.282-.417-1.5-1zM22 16.75V11h-1.933l-.132.35c-.37.989-1.343 1.65-2.436 1.65a2.63 2.63 0 0 1-2.044-.963l-3.107 1.627a.75.75 0 0 1-.696 0L2 8.608v8.142l.005.184A3.25 3.25 0 0 0 5.25 20h13.5l.184-.005A3.25 3.25 0 0 0 22 16.75m-10-4.597L14.202 11h-1.236c-.181 0-.355 0-.495-.007a1.6 1.6 0 0 1-.613-.135a1.5 1.5 0 0 1-.725-1.984a1.6 1.6 0 0 1 .381-.498c.102-.096.235-.208.374-.325l.61-.516V5q.001-.514.1-1H5.25l-.186.005a3.25 3.25 0 0 0-3.048 2.919z"/></svg>