<svg xmlns="http://www.w3.org/2000/svg" xmlns:xlink="http://www.w3.org/1999/xlink" width="48" height="48" viewBox="0 0 48 48"><path fill="currentColor" d="M44 28.25v9.5A6.25 6.25 0 0 1 37.75 44h-15.5A6.25 6.25 0 0 1 16 37.75v-9.5q0-.143.007-.284l13.345 8.102a1.25 1.25 0 0 0 1.296 0l13.344-8.102q.007.141.008.284M32.75 4A6.25 6.25 0 0 1 39 10.25v9.844A8 8 0 0 0 37.75 20h-15.5A8.25 8.25 0 0 0 14 28.25v9.5q0 .638.094 1.25H10.25A6.25 6.25 0 0 1 4 32.75v-22.5A6.25 6.25 0 0 1 10.25 4zm5 18c2.441 0 4.554 1.4 5.583 3.441L30 33.537l-13.334-8.096A6.25 6.25 0 0 1 22.25 22zm-20.5-7.5a1.25 1.25 0 1 0 0 2.5h13.5a1.25 1.25 0 1 0 0-2.5zm-5-5.5a1.25 1.25 0 1 0 0 2.5h18.5a1.25 1.25 0 1 0 0-2.5z"/></svg>