<svg xmlns="http://www.w3.org/2000/svg" xmlns:xlink="http://www.w3.org/1999/xlink" width="20" height="20" viewBox="0 0 20 20"><path fill="currentColor" d="M10.306 8.697c.197.197.436.328.689.392a2.57 2.57 0 0 0-.229 1.38L10 10.92L2.015 6.223A2.5 2.5 0 0 1 4.5 4h8.375l-2.571 2.575a1.5 1.5 0 0 0 .002 2.122m.776 2.747q.166.296.418.548c1 1 2.62.999 3.62 0L18 9.123V14.5a2.5 2.5 0 0 1-2.5 2.5h-11A2.5 2.5 0 0 1 2 14.5V7.373l7.747 4.558a.5.5 0 0 0 .507 0zm4.144-6.968a1.625 1.625 0 0 1 2.298 2.298l-.01.01l-3.858 3.844l-.01.01a.56.56 0 1 1-.78-.804l3.487-3.48a.5.5 0 1 0-.707-.708l-3.5 3.493l-.016.017a1.56 1.56 0 0 0 2.21 2.202l.012-.011l3.879-3.865l.012-.013a2.625 2.625 0 0 0-3.724-3.7L10.95 7.342a.5.5 0 0 0 .707.707z"/></svg>