<svg xmlns="http://www.w3.org/2000/svg" xmlns:xlink="http://www.w3.org/1999/xlink" width="28" height="28" viewBox="0 0 28 28"><path fill="currentColor" d="M25 8.663A3.5 3.5 0 1 0 20.035 5l-.001.01a3.5 3.5 0 0 0 .11 1.49A3.502 3.502 0 0 0 25 8.663M6.25 5h12.275a5 5 0 0 0 .075 1.5H6.25a1.75 1.75 0 0 0-1.744 1.606L4.5 8.25v.964l9.5 4.94l7.682-3.995c.564.22 1.177.341 1.818.341a5 5 0 0 0 1.5-.229v9.479a3.25 3.25 0 0 1-3.066 3.245L21.75 23H6.25a3.25 3.25 0 0 1-3.245-3.066L3 19.75V8.25a3.25 3.25 0 0 1 3.066-3.245zm17.25 5.905l-9.154 4.76a.75.75 0 0 1-.58.047l-.112-.047l-9.154-4.76v8.845a1.75 1.75 0 0 0 1.606 1.744l.144.006h15.5a1.75 1.75 0 0 0 1.744-1.607l.006-.143z"/></svg>