<svg xmlns="http://www.w3.org/2000/svg" xmlns:xlink="http://www.w3.org/1999/xlink" width="24" height="24" viewBox="0 0 24 24"><path fill="currentColor" d="M17.5 12a5.5 5.5 0 1 0 0-11a5.5 5.5 0 0 0 0 11m-1.646-7.146L14.207 6.5l1.647 1.646a.5.5 0 0 1-.708.708l-2-2a.5.5 0 0 1 0-.708l2-2a.5.5 0 0 1 .708.708m3-.708a.5.5 0 0 1 0 .708L17.707 6H20a1.5 1.5 0 0 1 1.5 1.5V8a.5.5 0 0 1-1 0v-.5A.5.5 0 0 0 20 7h-2.293l1.147 1.146a.5.5 0 0 1-.708.708l-2-2a.5.5 0 0 1 0-.708l2-2a.5.5 0 0 1 .708 0M17.5 13a6.48 6.48 0 0 0 4.5-1.81v5.56a3.25 3.25 0 0 1-3.066 3.245L18.75 20H5.25a3.25 3.25 0 0 1-3.245-3.066L2 16.75V8.608l9.652 5.056a.75.75 0 0 0 .696 0l2.417-1.266A6.5 6.5 0 0 0 17.5 13M5.25 4h6.248A6.5 6.5 0 0 0 11 6.5c0 1.993.897 3.776 2.308 4.968L12 12.153l-9.984-5.23a3.25 3.25 0 0 1 3.048-2.918z"/></svg>