<svg xmlns="http://www.w3.org/2000/svg" xmlns:xlink="http://www.w3.org/1999/xlink" width="16" height="16" viewBox="0 0 16 16"><path fill="currentColor" d="M14 1a.5.5 0 0 0-1 0v.758A4.5 4.5 0 1 0 15 5.5a.5.5 0 0 0-1 0a3.5 3.5 0 1 1-1.696-3H11.5a.5.5 0 0 0 0 1h2A.5.5 0 0 0 14 3zm-2 9.793V13a1 1 0 0 1-1 1H3a1 1 0 0 1-1-1V8.876l4.763 2.564a.5.5 0 0 0 .474 0l1.411-.76q-.587-.21-1.104-.54L7 10.431L2 7.74V7a1 1 0 0 1 1-1h2.022a5.6 5.6 0 0 1 0-1H3a2 2 0 0 0-2 2v6a2 2 0 0 0 2 2h8a2 2 0 0 0 2-2v-2.6a5.5 5.5 0 0 1-1 .393"/></svg>