<svg xmlns="http://www.w3.org/2000/svg" xmlns:xlink="http://www.w3.org/1999/xlink" width="20" height="20" viewBox="0 0 20 20"><path fill="currentColor" d="M13.5 3a1 1 0 1 1 0 2a1 1 0 0 1 0-2m.5 2.937a2 2 0 1 0-1 0V8a3 3 0 1 0 6 0V5.5a.5.5 0 0 0-.854-.354l-2 2A.5.5 0 0 0 16.5 8H18a2 2 0 1 1-4 0zM10.5 4c0 .35.06.687.17 1H4.5A1.5 1.5 0 0 0 3 6.5v.302l7 4.118l2.315-1.362q.198.466.502.865l-2.563 1.508a.5.5 0 0 1-.426.038l-.082-.038L3 7.963V14.5A1.5 1.5 0 0 0 4.5 16h11a1.5 1.5 0 0 0 1.5-1.5v-2.626q.534-.138 1-.41V14.5a2.5 2.5 0 0 1-2.5 2.5h-11A2.5 2.5 0 0 1 2 14.5v-8A2.5 2.5 0 0 1 4.5 4z"/></svg>