<svg xmlns="http://www.w3.org/2000/svg" xmlns:xlink="http://www.w3.org/1999/xlink" width="28" height="28" viewBox="0 0 28 28"><path fill="currentColor" d="M19.25 3.5a1.5 1.5 0 1 0 0 3a1.5 1.5 0 0 0 0-3m3 1.5A3 3 0 0 1 20 7.905v2.845a2.75 2.75 0 1 0 5.5 0v-.25h-1.75a.75.75 0 0 1-.53-1.28l2.5-2.5a.75.75 0 0 1 1.28.53v3.5a4.25 4.25 0 0 1-8.5 0V7.905A3.001 3.001 0 0 1 19.25 2a3 3 0 0 1 3 3m-6.874-1A4.01 4.01 0 0 0 17.5 8.598v2.152q.002.666.158 1.284L14 13.907L2.004 7.764V7.75A3.75 3.75 0 0 1 5.754 4zm2.856 9.425l-3.89 1.992a.75.75 0 0 1-.684 0L2.004 9.45v9.801A3.75 3.75 0 0 0 5.754 23H22.25A3.75 3.75 0 0 0 26 19.25v-4.377a5.247 5.247 0 0 1-7.769-1.448"/></svg>