<svg xmlns="http://www.w3.org/2000/svg" xmlns:xlink="http://www.w3.org/1999/xlink" width="24" height="24" viewBox="0 0 24 24"><path fill="currentColor" d="M22 11.26V7.608l-9.652 5.056a.75.75 0 0 1-.696 0L2 7.608v8.142l.005.184A3.25 3.25 0 0 0 5.25 19h6.467c.184-.422.445-.807.773-1.135l5.903-5.903A3.29 3.29 0 0 1 22 11.26M18.75 3H5.25l-.186.005a3.25 3.25 0 0 0-3.048 2.919L12 11.154l9.984-5.23A3.25 3.25 0 0 0 18.75 3m.35 9.67l-5.903 5.902a2.7 2.7 0 0 0-.706 1.247l-.458 1.831a1.087 1.087 0 0 0 1.319 1.318l1.83-.457a2.7 2.7 0 0 0 1.248-.707l5.902-5.902A2.286 2.286 0 0 0 19.1 12.67"/></svg>