<svg xmlns="http://www.w3.org/2000/svg" xmlns:xlink="http://www.w3.org/1999/xlink" width="16" height="16" viewBox="0 0 16 16"><path fill="currentColor" d="M9.489 3.521a.3.3 0 0 0-.044.03a3 3 0 0 0-.165.16a.75.75 0 0 1-1.06-1.061l.02-.02c.161-.162.323-.324.605-.465l.057-.026c.693-.277 1.39-.132 1.919.257c.238.164.386.36.49.521l.114.193l.012.02l.066.113l1.028-1.027a.75.75 0 0 1 1.06 1.06l-1.354 1.355q.047.081.092.147c.065.099.139.221.2.322l.065.108a3 3 0 0 0 .13.194l.012.014a.3.3 0 0 0 .096.07a.16.16 0 0 0 .13.002a1 1 0 0 1 .078-.045a.3.3 0 0 0 .064-.042c.032-.026.068-.061.16-.152a.75.75 0 0 1 1.06 1.06l-.02.02c-.15.15-.301.302-.555.436a1.68 1.68 0 0 1-2.073-.288a2.7 2.7 0 0 1-.36-.482l-.1-.167l-.067-.11l-1.062 1.063a.75.75 0 0 1-1.06-1.061L10.4 4.347a8 8 0 0 1-.147-.275a5 5 0 0 1-.117-.194l-.013-.023c-.033-.057-.055-.096-.078-.132c-.046-.072-.065-.085-.074-.091l-.034-.024c-.15-.112-.297-.138-.448-.087M6.284 4.943c.489.004.918.244 1.212.554s.506.746.515 1.238a2.25 2.25 0 0 1-.66 1.79c-.427.433-.997.703-1.547.876c-.893.282-1.903.362-2.654.358c-.102.403-.112.7-.078.915c.04.246.142.415.296.551l.042.04c.139.143.31.198.721.284c.938.108 1.902-.44 2.52-1.289a.75.75 0 0 1 1.213.884c-.837 1.148-2.298 2.102-3.95 1.89l-.056-.01l-.046-.01c-.377-.077-.973-.198-1.457-.682a2.38 2.38 0 0 1-.764-1.421c-.091-.571-.009-1.206.214-1.898a1 1 0 0 1 .03-.1l.094-.251a7.4 7.4 0 0 1 1.026-1.933c.654-.872 1.743-1.835 3.329-1.786M3.76 8.242a7 7 0 0 0 1.592-.27c.431-.137.744-.31.933-.502a.76.76 0 0 0 .228-.644l-.002-.06a.36.36 0 0 0-.104-.238a.3.3 0 0 0-.097-.072a.1.1 0 0 0-.04-.013h-.025c-.886-.03-1.569.49-2.09 1.186a5 5 0 0 0-.396.613"/></svg>