<svg xmlns="http://www.w3.org/2000/svg" xmlns:xlink="http://www.w3.org/1999/xlink" width="16" height="16" viewBox="0 0 16 16"><path fill="currentColor" d="m4.768 2.922l.01-.006l.046-.027q.061-.037.185-.103c.165-.087.405-.204.702-.32C6.31 2.228 7.121 2 8 2s1.69.23 2.289.465a7 7 0 0 1 .887.424q.031.017.045.027l.01.006h.001a.5.5 0 0 0 .536-.844h-.001l-.002-.002l-.005-.003l-.018-.011l-.061-.037a8 8 0 0 0-1.025-.49C9.984 1.27 9.045 1 8 1s-1.985.27-2.655.535a8 8 0 0 0-1.026.49l-.061.037l-.018.01l-.005.004l-.002.001a.5.5 0 0 0 .535.845M4 4a2 2 0 0 0-2 2v4a2 2 0 0 0 2 2h4.5a2 2 0 0 0 2-2v-.138l2.752 1.572A.5.5 0 0 0 14 11V5a.5.5 0 0 0-.748-.434L10.5 6.138V6a2 2 0 0 0-2-2zm6.5 3.29L13 5.862v4.276L10.5 8.71zM3 6a1 1 0 0 1 1-1h4.5a1 1 0 0 1 1 1v4a1 1 0 0 1-1 1H4a1 1 0 0 1-1-1zm1.769 7.079l-.001-.001a.5.5 0 0 0-.536.844h.001l.002.002l.005.003l.018.011q.021.014.061.037q.08.046.224.124c.191.1.465.233.802.366c.67.264 1.61.535 2.655.535c1.046 0 1.985-.27 2.655-.535a8 8 0 0 0 1.026-.49l.061-.037l.018-.01l.005-.004l.002-.001h.001a.5.5 0 0 0-.536-.845l-.01.007l-.046.026q-.061.037-.185.103a7 7 0 0 1-.702.32C9.69 13.772 8.879 14 8 14s-1.69-.23-2.289-.465a7 7 0 0 1-.887-.424l-.045-.027z"/></svg>