<svg xmlns="http://www.w3.org/2000/svg" xmlns:xlink="http://www.w3.org/1999/xlink" width="24" height="24" viewBox="0 0 24 24"><path fill="currentColor" d="M7 8.06V12a4 4 0 0 0 4.175 3.996a6.5 6.5 0 0 1 .628-1.628A2.5 2.5 0 0 1 8.5 12V9.56l4.617 4.618a5.5 5.5 0 0 0 7.717 7.697a.75.75 0 0 0 .946-1.155L3.28 2.22a.75.75 0 1 0-1.06 1.06zm11.145 11.145l-.177.47a.5.5 0 0 1-.942-.017l-.786-2.357zm-2.35-2.348l-.33.829A.5.5 0 0 1 15 18h-1a.5.5 0 0 1 0-1h.662l.364-.913zM13.5 6v4.319l1.277 1.277q.11-.051.223-.098V6a4 4 0 0 0-7.588-1.77l1.162 1.163A2.501 2.501 0 0 1 13.5 6m2.04 6.36l7.1 7.1a5.5 5.5 0 0 0-7.1-7.1M11 17.5c0 1.096.271 2.129.75 3.035v.715a.75.75 0 0 1-1.493.102l-.007-.102v-2.268a6.75 6.75 0 0 1-6.246-6.496L4 12.25v-.5a.75.75 0 0 1 1.493-.102l.007.102v.5a5.25 5.25 0 0 0 5.034 5.246l.216.004z"/></svg>