<svg xmlns="http://www.w3.org/2000/svg" xmlns:xlink="http://www.w3.org/1999/xlink" width="16" height="16" viewBox="0 0 16 16"><path fill="currentColor" d="M5.5 4.5a2.5 2.5 0 0 1 5 0V5h-.015a1.3 1.3 0 0 0-.985.45V4.5a1.5 1.5 0 1 0-3 0V8a1.5 1.5 0 0 0 .796 1.325c.15.183.349.322.573.401l.012.004l.773.251a.58.58 0 0 1 .342.313A2.5 2.5 0 0 1 5.5 8zm7.283 3.713l.015.004a.303.303 0 0 1 0 .57l-.765.248a1.58 1.58 0 0 0-1 .999l-.248.764a.3.3 0 0 1-.11.146a.3.3 0 0 1-.171.056H10.5a.3.3 0 0 1-.285-.202l-.249-.764a1.58 1.58 0 0 0-.999-1.002l-.765-.249a.302.302 0 0 1 0-.57l.765-.248a1.58 1.58 0 0 0 .984-.999l.249-.764a.302.302 0 0 1 .57 0l.249.764a1.58 1.58 0 0 0 .999.999zm-3.035 3.548a1.3 1.3 0 0 1-.43-.518A3.5 3.5 0 0 1 4.5 8a.5.5 0 0 0-1 0a4.5 4.5 0 0 0 4 4.473V13.5a.5.5 0 0 0 1 0v-1.027a4.5 4.5 0 0 0 1.5-.441a1 1 0 0 1 .004-.13a1.3 1.3 0 0 1-.256-.141m5.078.01l-.612-.2a1.26 1.26 0 0 1-.8-.798l-.198-.612a.242.242 0 0 0-.456 0l-.2.612a1.26 1.26 0 0 1-.786.799l-.613.199a.242.242 0 0 0 0 .455l.613.2a1.26 1.26 0 0 1 .799.8l.199.613a.24.24 0 0 0 .368.117a.24.24 0 0 0 .088-.117l.2-.612a1.26 1.26 0 0 1 .798-.799l.613-.199a.242.242 0 0 0 0-.455z"/></svg>