<svg xmlns="http://www.w3.org/2000/svg" xmlns:xlink="http://www.w3.org/1999/xlink" width="24" height="24" viewBox="0 0 24 24"><path fill="currentColor" d="M13.854 15.146a2.85 2.85 0 0 1 .685 1.114l.448 1.377a.544.544 0 0 0 1.026 0l.448-1.377a2.84 2.84 0 0 1 1.798-1.796l1.378-.448a.545.545 0 0 0 0-1.025l-.028-.007l-1.378-.448a2.84 2.84 0 0 1-1.798-1.796l-.447-1.377a.544.544 0 0 0-1.027 0l-.448 1.377a2.84 2.84 0 0 1-1.77 1.796l-1.378.448a.545.545 0 0 0 0 1.025l1.378.448c.42.14.8.376 1.113.689M16 6v2.093a1.544 1.544 0 0 0-1.984.937l-.004.012l-.451 1.387a1.84 1.84 0 0 1-1.139 1.16l-1.38.447l-.011.005a1.544 1.544 0 0 0 0 2.912l.011.004l1.386.45c.264.088.505.236.704.43A4 4 0 0 1 8 12V6.001a4 4 0 1 1 8 0m-3.75 11.5a5.3 5.3 0 0 0 1.564-.237l.226.695l.004.012c.089.252.242.476.442.65a6.7 6.7 0 0 1-1.735.362l-.001 2.268a.75.75 0 0 1-1.493.102l-.007-.102v-2.268a6.75 6.75 0 0 1-6.246-6.496L5 12.25v-.5a.75.75 0 0 1 1.493-.102l.007.102v.5a5.25 5.25 0 0 0 5.034 5.246l.216.004zm9.767 1.465l.766.248l.015.004a.303.303 0 0 1 .147.46a.3.3 0 0 1-.147.11l-.765.248a1.58 1.58 0 0 0-1 .999l-.248.764a.302.302 0 0 1-.57 0l-.249-.764a1.58 1.58 0 0 0-.999-1.002l-.765-.249a.303.303 0 0 1-.147-.46a.3.3 0 0 1 .147-.11l.765-.248a1.58 1.58 0 0 0 .984-.998l.249-.765a.302.302 0 0 1 .57 0l.249.764a1.58 1.58 0 0 0 .999.999"/></svg>