<svg xmlns="http://www.w3.org/2000/svg" xmlns:xlink="http://www.w3.org/1999/xlink" width="28" height="28" viewBox="0 0 28 28"><path fill="currentColor" d="M13 2a4.5 4.5 0 0 0-4.5 4.5v8a4.5 4.5 0 0 0 6.076 4.217c.426-.384.921-.69 1.465-.9A4.5 4.5 0 0 0 17.5 14.5v-8A4.5 4.5 0 0 0 13 2m0 19l.167-.002a4.76 4.76 0 0 0 .583 3.815v.437a.75.75 0 0 1-1.5 0v-2.785A8 8 0 0 1 5 14.5v-.75a.75.75 0 0 1 1.5 0v.75A6.5 6.5 0 0 0 13 21m8-6.5c0 1.06-.206 2.073-.582 3h-1.65a6.5 6.5 0 0 0 .732-3v-.75a.75.75 0 0 1 1.5 0zm-11-8a3 3 0 1 1 6 0v8a3 3 0 1 1-6 0zM17.75 20a2.25 2.25 0 0 0 0 4.5h.5a.75.75 0 0 1 0 1.5h-.5a3.75 3.75 0 1 1 0-7.5h.5a.75.75 0 0 1 0 1.5zM17 22.25a.75.75 0 0 1 .75-.75h5.5a.75.75 0 0 1 0 1.5h-5.5a.75.75 0 0 1-.75-.75m6.25 2.25a2.25 2.25 0 0 0 0-4.5h-.5a.75.75 0 0 1 0-1.5h.5a3.75 3.75 0 1 1 0 7.5h-.5a.75.75 0 0 1 0-1.5z"/></svg>