<svg xmlns="http://www.w3.org/2000/svg" xmlns:xlink="http://www.w3.org/1999/xlink" width="32" height="32" viewBox="0 0 32 32"><path fill="currentColor" d="M15 2a6 6 0 0 0-6 6v8a6 6 0 0 0 7.785 5.73a6 6 0 0 1 2.43-1.46A5.98 5.98 0 0 0 21 16V8a6 6 0 0 0-6-6m0 22q.173 0 .344-.007A6 6 0 0 0 15 26c0 1.204.354 2.325.965 3.264A1 1 0 0 1 14 29v-3l.001-.05C8.947 25.45 5 21.187 5 16a1 1 0 1 1 2 0a8 8 0 0 0 8 8m10-8a10 10 0 0 1-.832 4H21.93A7.96 7.96 0 0 0 23 16a1 1 0 1 1 2 0m-6 0a4 4 0 0 1-8 0V8a4 4 0 0 1 8 0zm3.5 6.5a1 1 0 0 0-1-1H21a4.5 4.5 0 1 0 0 9h.5a1 1 0 1 0 0-2H21a2.5 2.5 0 0 1 0-5h.5a1 1 0 0 0 1-1m4-1a1 1 0 1 0 0 2h.5a2.5 2.5 0 0 1 0 5h-.5a1 1 0 1 0 0 2h.5a4.5 4.5 0 1 0 0-9zm-5 3.5a1 1 0 1 0 0 2h5a1 1 0 1 0 0-2z"/></svg>