<svg xmlns="http://www.w3.org/2000/svg" xmlns:xlink="http://www.w3.org/1999/xlink" width="24" height="24" viewBox="0 0 24 24"><path fill="currentColor" d="M17.25 11a.75.75 0 0 1 .743.648l.007.102v.5c0 .789-.135 1.546-.384 2.25h-1.621c.295-.62.471-1.308.5-2.034l.005-.216v-.5a.75.75 0 0 1 .75-.75M11 19.25c0 .87.234 1.686.643 2.387a.75.75 0 0 1-1.386-.285l-.007-.102v-2.268a6.75 6.75 0 0 1-6.246-6.496L4 12.25v-.5a.75.75 0 0 1 1.493-.102l.007.102v.5a5.25 5.25 0 0 0 5.034 5.246l.216.004h.583A4.7 4.7 0 0 0 11 19.25m1.665-3.612c.304-.26.642-.482 1.005-.66A4 4 0 0 0 15 12V6a4 4 0 0 0-8 0v6a4 4 0 0 0 5.665 3.638M11 3.5A2.5 2.5 0 0 1 13.5 6v6a2.5 2.5 0 0 1-5 0V6A2.5 2.5 0 0 1 11 3.5m12 15.75a3.75 3.75 0 0 0-3.75-3.75l-.102.007A.75.75 0 0 0 19.25 17l.154.005a2.25 2.25 0 0 1-.154 4.495l-.003.005l-.102.007a.75.75 0 0 0 .108 1.493V23l.2-.005A3.75 3.75 0 0 0 23 19.25m-6.5-3a.75.75 0 0 0-.75-.75l-.2.005a3.75 3.75 0 0 0 .2 7.495l.102-.007a.75.75 0 0 0-.102-1.493l-.154-.005A2.25 2.25 0 0 1 15.75 17l.102-.007a.75.75 0 0 0 .648-.743m3.5 3a.75.75 0 0 0-.75-.75h-3.5l-.102.007A.75.75 0 0 0 15.75 20h3.5l.102-.007A.75.75 0 0 0 20 19.25"/></svg>