<svg xmlns="http://www.w3.org/2000/svg" xmlns:xlink="http://www.w3.org/1999/xlink" width="20" height="20" viewBox="0 0 20 20"><path fill="currentColor" d="M12.5 6a.5.5 0 0 0 0 1h2a.5.5 0 0 0 0-1zM5.75 7.5a.75.75 0 1 0 0-1.5a.75.75 0 0 0 0 1.5M9 6.751a.75.75 0 1 1-1.5 0a.75.75 0 0 1 1.5 0M2 4.5a.5.5 0 0 1 .5-.5h15a.5.5 0 0 1 .5.5v11a.5.5 0 0 1-.5.5h-15a.5.5 0 0 1-.5-.5zM3 5v4h14V5zm5 5H6v3.5a.5.5 0 0 1-1 0V10H3v5h14v-5h-2v3.5a.5.5 0 0 1-1 0V10h-2v3.5a.5.5 0 0 1-1 0V10H9v3.5a.5.5 0 0 1-1 0z"/></svg>