<svg xmlns="http://www.w3.org/2000/svg" xmlns:xlink="http://www.w3.org/1999/xlink" width="24" height="24" viewBox="0 0 24 24"><path fill="currentColor" d="M5.25 2a.75.75 0 0 1 .75.75v2.5a.75.75 0 0 1-.75.75h-2.5a.75.75 0 0 1 0-1.5H4.5V2.75A.75.75 0 0 1 5.25 2m13.5 0a.75.75 0 0 1 .75.75V4.5h1.75a.75.75 0 0 1 0 1.5h-2.5a.75.75 0 0 1-.75-.75v-2.5a.75.75 0 0 1 .75-.75M5.25 22a.75.75 0 0 0 .75-.75v-2.5a.75.75 0 0 0-.75-.75h-2.5a.75.75 0 0 0 0 1.5H4.5v1.75c0 .414.336.75.75.75m13.5 0a.75.75 0 0 0 .75-.75V19.5h1.75a.75.75 0 0 0 0-1.5h-2.5a.75.75 0 0 0-.75.75v2.5c0 .414.336.75.75.75M8.5 6A1.5 1.5 0 0 0 7 7.5v9A1.5 1.5 0 0 0 8.5 18h7a1.5 1.5 0 0 0 1.5-1.5v-9A1.5 1.5 0 0 0 15.5 6zm1 4.25a.75.75 0 0 1 .75-.75h3.5a.75.75 0 0 1 0 1.5h-3.5a.75.75 0 0 1-.75-.75m0 3a.75.75 0 0 1 .75-.75h2a.75.75 0 0 1 0 1.5h-2a.75.75 0 0 1-.75-.75"/></svg>