<svg xmlns="http://www.w3.org/2000/svg" xmlns:xlink="http://www.w3.org/1999/xlink" width="24" height="24" viewBox="0 0 24 24"><path fill="currentColor" d="M6.25 2A2.25 2.25 0 0 0 4 4.25v15.5A2.25 2.25 0 0 0 6.25 22h7.5A2.25 2.25 0 0 0 16 19.771v-1.52a.75.75 0 0 0-.75-.75c-.453 0-.739-.123-.936-.282c-.208-.167-.38-.425-.511-.789c-.273-.755-.302-1.75-.302-2.68a.75.75 0 0 0-.202-.512l-.165-.177a3 3 0 0 0-.17-.173c-.074-.07-.3-.285-1.183-1.168c-.469-.469-.728-.865-.813-1.168a.6.6 0 0 1-.016-.325a.7.7 0 0 1 .205-.323a.7.7 0 0 1 .322-.204a.6.6 0 0 1 .324.016c.302.085.698.346 1.167.815c.54.54 1.053 1.047 1.512 1.5c.76.752 1.373 1.36 1.72 1.73a.75.75 0 0 0 1.097-1.023A55 55 0 0 0 16 11.424V8.06l2.842 2.842c.421.422.659.994.659 1.59v8.758a.75.75 0 0 0 1.5 0v-8.757a3.75 3.75 0 0 0-1.099-2.652L16 5.939v-1.69A2.25 2.25 0 0 0 13.75 2zm7.124 16.388a2.7 2.7 0 0 0 1.126.534V19h-.75a.75.75 0 0 0-.75.75v.75h-1.5v-.75a2.25 2.25 0 0 1 1.276-2.028c.16.244.356.472.598.666m-1.372-4.342c.002.253.007.526.022.81a3.5 3.5 0 1 1-1.55-6.324q-.2.133-.378.312c-.292.292-.5.63-.597 1.01s-.074.754.025 1.104c.189.673.665 1.291 1.197 1.823A67 67 0 0 0 11.957 14l.004.003l.037.039zM7 3.5h1.5v.75A2.25 2.25 0 0 1 6.25 6.5H5.5V5h.75A.75.75 0 0 0 7 4.25zm4.5 0H13v.75c0 .414.336.75.75.75h.75v1.5h-.75a2.25 2.25 0 0 1-2.25-2.25zm-3 17H7v-.75a.75.75 0 0 0-.75-.75H5.5v-1.5h.75a2.25 2.25 0 0 1 2.25 2.25z"/></svg>