<svg xmlns="http://www.w3.org/2000/svg" xmlns:xlink="http://www.w3.org/1999/xlink" width="16" height="16" viewBox="0 0 16 16"><path fill="currentColor" d="M2 2.75C2 1.784 2.784 1 3.75 1h4.5C9.216 1 10 1.784 10 2.75v.543l2.975 2.975A3.5 3.5 0 0 1 14 8.743V14.5a.5.5 0 1 1-1 0V8.743a2.5 2.5 0 0 0-.732-1.768L10 4.707v2.585l.854.854a.5.5 0 0 1-.707.708l-2.029-2.03l-.396-.346a.738.738 0 0 0-.859 1.178l1.491 1.49a.5.5 0 0 1 .147.354v1a1 1 0 0 0 1 1A.5.5 0 0 1 10 12v1.25A1.75 1.75 0 0 1 8.25 15h-4.5A1.75 1.75 0 0 1 2 13.25zm7 10v-.313a2 2 0 0 1-.79-.409A1.5 1.5 0 0 0 7 13.5v.5h.75q.13 0 .25-.025V13.5a.5.5 0 0 1 .5-.5h.475q.024-.12.025-.25M7.307 9.514l-1.15-1.151A1.74 1.74 0 0 1 6.066 6H6a2 2 0 1 0 1.307 3.514M5 2.5V2h-.75q-.13 0-.25.025V2.5a.5.5 0 0 1-.5.5h-.475Q3 3.12 3 3.25V4h.5A1.5 1.5 0 0 0 5 2.5M3.5 12H3v.75q0 .13.025.25H3.5a.5.5 0 0 1 .5.5v.475q.12.024.25.025H5v-.5A1.5 1.5 0 0 0 3.5 12M8 2.5v-.475A1.3 1.3 0 0 0 7.75 2H7v.5A1.5 1.5 0 0 0 8.5 4H9v-.75q0-.13-.025-.25H8.5a.5.5 0 0 1-.5-.5"/></svg>