<svg xmlns="http://www.w3.org/2000/svg" xmlns:xlink="http://www.w3.org/1999/xlink" width="16" height="16" viewBox="0 0 16 16"><path fill="currentColor" d="M9 6c0 .23-.039.452-.11.658a5.524 5.524 0 0 0-1.618 1.324A2 2 0 1 1 9 6Zm3-1v1.022a5.5 5.5 0 0 1 1 .185V3.25C13 2.56 12.44 2 11.75 2h-9.5C1.56 2 1 2.56 1 3.25v5.5C1 9.44 1.56 10 2.25 10h3.957c.099-.349.23-.683.393-1H4v-.5A1.5 1.5 0 0 0 2.5 7H2V5h.5A1.5 1.5 0 0 0 4 3.5V3h6v.5A1.5 1.5 0 0 0 11.5 5h.5Zm-8.5 6h2.522a5.571 5.571 0 0 0 0 1H4.5a1.5 1.5 0 0 1-1.427-1.036c.139.024.281.036.427.036ZM14 6.6c.358.183.693.404 1 .657V5.5a1.5 1.5 0 0 0-1-1.415V6.6ZM8 6a1 1 0 1 0-2 0a1 1 0 0 0 2 0ZM2.25 3H3v.5a.5.5 0 0 1-.5.5H2v-.75A.25.25 0 0 1 2.25 3ZM2 8.75V8h.5a.5.5 0 0 1 .5.5V9h-.75A.25.25 0 0 1 2 8.75ZM12 4h-.5a.5.5 0 0 1-.5-.5V3h.75a.25.25 0 0 1 .25.25V4ZM9.065 8.442a2 2 0 0 1-1.43 2.478l-.462.118a4.712 4.712 0 0 0 .01 1.016l.35.083a2 2 0 0 1 1.456 2.519l-.127.423c.258.203.537.377.835.518l.325-.345a2 2 0 0 1 2.91.002l.337.358c.292-.135.568-.302.822-.498l-.156-.556a2 2 0 0 1 1.43-2.478l.46-.118a4.7 4.7 0 0 0-.01-1.017l-.348-.082a2 2 0 0 1-1.456-2.52l.126-.421a4.319 4.319 0 0 0-.835-.518l-.325.343a2 2 0 0 1-2.91-.001l-.337-.358a4.314 4.314 0 0 0-.821.497l.156.557Zm2.434 4.058a1 1 0 1 1 0-2a1 1 0 0 1 0 2Z"/></svg>