<svg xmlns="http://www.w3.org/2000/svg" xmlns:xlink="http://www.w3.org/1999/xlink" width="24" height="24" viewBox="0 0 24 24"><path fill="currentColor" d="M10.5 8a3 3 0 1 0 0 6a3 3 0 0 0 0-6M9 11a1.5 1.5 0 1 1 3 0a1.5 1.5 0 0 1-3 0M2 7.25A2.25 2.25 0 0 1 4.25 5h12.5A2.25 2.25 0 0 1 19 7.25v3.924A6.5 6.5 0 0 0 17.5 11V9.5h-.75a2.25 2.25 0 0 1-2.25-2.25V6.5h-8v.75A2.25 2.25 0 0 1 4.25 9.5H3.5v3h.75a2.25 2.25 0 0 1 2.25 2.25v.75h4.813c-.154.478-.255.98-.294 1.5H4.25A2.25 2.25 0 0 1 2 14.75zM4.401 18.5h6.676c.08.523.223 1.026.421 1.5H7a3 3 0 0 1-2.599-1.5M20.5 11.732A6.5 6.5 0 0 1 22 12.81V10a3 3 0 0 0-1.5-2.599zM4.25 6.5a.75.75 0 0 0-.75.75V8h.75A.75.75 0 0 0 5 7.25V6.5zM17.5 8v-.75a.75.75 0 0 0-.75-.75H16v.75c0 .414.336.75.75.75zm-14 6.75c0 .414.336.75.75.75H5v-.75a.75.75 0 0 0-.75-.75H3.5zm10.778-.774a2 2 0 0 1-1.441 2.496l-.584.144a5.7 5.7 0 0 0 .006 1.808l.54.13a2 2 0 0 1 1.45 2.51l-.187.631c.44.386.94.699 1.484.922l.494-.519a2 2 0 0 1 2.899 0l.498.525a5.3 5.3 0 0 0 1.483-.913l-.198-.686a2 2 0 0 1 1.441-2.496l.584-.144a5.7 5.7 0 0 0-.006-1.808l-.54-.13a2 2 0 0 1-1.45-2.51l.187-.63a5.3 5.3 0 0 0-1.484-.922l-.493.518a2 2 0 0 1-2.9 0l-.498-.525a5.3 5.3 0 0 0-1.483.912zM17.5 19c-.8 0-1.45-.672-1.45-1.5S16.7 16 17.5 16s1.45.672 1.45 1.5S18.3 19 17.5 19"/></svg>