<svg xmlns="http://www.w3.org/2000/svg" xmlns:xlink="http://www.w3.org/1999/xlink" width="24" height="24" viewBox="0 0 24 24"><path fill="currentColor" d="M2 5.75C2 4.784 2.784 4 3.75 4h13.5c.966 0 1.75.784 1.75 1.75V11h-3a2 2 0 0 0-2 2v3H3.75A1.75 1.75 0 0 1 2 14.25zm3 .5a.75.75 0 0 1-.75.75h-1v1.5h1A2.25 2.25 0 0 0 6.5 6.25v-1H5zm5.5 6.25a2.25 2.25 0 1 0 0-4.5a2.25 2.25 0 0 0 0 4.5m-6.25.5a.75.75 0 0 1 .75.75v1h1.5v-1a2.25 2.25 0 0 0-2.25-2.25h-1V13zm12.5-6a.75.75 0 0 1-.75-.75v-1h-1.5v1a2.25 2.25 0 0 0 2.25 2.25h1V7zM4.401 17.5H14V19H7a3 3 0 0 1-2.599-1.5M22 9v2h-1.5V6.401A3 3 0 0 1 22 9m-5.5 3a1.5 1.5 0 0 0-1.5 1.5v8a1.5 1.5 0 0 0 1.5 1.5h5a1.5 1.5 0 0 0 1.5-1.5v-8a1.5 1.5 0 0 0-1.5-1.5zm.5 4.5h1a.5.5 0 0 1 0 1h-1a.5.5 0 0 1 0-1m3 0h1a.5.5 0 0 1 0 1h-1a.5.5 0 0 1 0-1m-3 2h1a.5.5 0 0 1 0 1h-1a.5.5 0 0 1 0-1m3 0h1a.5.5 0 0 1 0 1h-1a.5.5 0 0 1 0-1m-3 2h1a.5.5 0 0 1 0 1h-1a.5.5 0 0 1 0-1m3 0h1a.5.5 0 0 1 0 1h-1a.5.5 0 0 1 0-1M16.5 14a.5.5 0 0 1 .5-.5h4a.5.5 0 0 1 .5.5v1a.5.5 0 0 1-.5.5h-4a.5.5 0 0 1-.5-.5z"/></svg>