<svg xmlns="http://www.w3.org/2000/svg" xmlns:xlink="http://www.w3.org/1999/xlink" width="24" height="24" viewBox="0 0 24 24"><path fill="currentColor" d="M10.087 2.854a2.75 2.75 0 0 1 3.826 0l7.097 6.87A3.25 3.25 0 0 1 22 12.06v6.69A2.25 2.25 0 0 1 19.75 21h-1.064l-.056-.014a69.472 69.472 0 0 1-1.84-.476a62.919 62.919 0 0 1-4.365-1.356c-1.59-.565-3.14-1.215-4.28-1.901c-.572-.344-1.006-.677-1.29-.987c-.287-.314-.355-.533-.355-.666c0-.312.2-.647 1.02-.986c.8-.33 1.913-.539 3.138-.73l.695-.105c.975-.146 1.974-.296 2.79-.508c.508-.133 1.002-.302 1.403-.541c.4-.24.795-.602.932-1.148c.154-.617-.091-1.151-.411-1.547c-.313-.386-.761-.728-1.233-1.031c-.676-.435-1.539-.877-2.383-1.309a83.963 83.963 0 0 1-.956-.494c-1.17-.618-2.132-1.202-2.643-1.784c-.244-.279-.326-.492-.335-.65c-.009-.143.033-.362.305-.681a.775.775 0 0 0 .023-.03l1.242-1.202Zm-2.872 2.78L2.99 9.724A3.25 3.25 0 0 0 2 12.06v6.69A2.25 2.25 0 0 0 4.25 21h8.942a53.139 53.139 0 0 1-1.27-.432c-1.62-.577-3.282-1.267-4.551-2.03c-.633-.381-1.203-.8-1.622-1.26C5.333 16.824 5 16.258 5 15.6c0-1.269.981-1.973 1.949-2.373c.988-.408 2.272-.637 3.478-.824c.252-.04.5-.077.745-.114c.967-.145 1.862-.28 2.594-.47c.455-.119.79-.245 1.011-.377c.222-.133.244-.217.245-.224c.002-.008.005-.018-.004-.045a.636.636 0 0 0-.118-.194c-.16-.2-.449-.438-.878-.714c-.61-.392-1.365-.779-2.18-1.196a90.432 90.432 0 0 1-1.048-.542c-1.141-.603-2.35-1.3-3.069-2.12a3.131 3.131 0 0 1-.51-.773Z"/></svg>