<svg xmlns="http://www.w3.org/2000/svg" xmlns:xlink="http://www.w3.org/1999/xlink" width="20" height="20" viewBox="0 0 20 20"><path fill="currentColor" d="M5.703 8.748a.75.75 0 0 0 .799-.701a1 1 0 0 1 .148-.388c.109-.168.338-.409.952-.409c.58 0 .861.186 1.003.38c.158.216.266.61.157 1.243a.78.78 0 0 1-.402.597c-.204.126-.423.206-.719.314q-.19.069-.43.162c-.474.185-1.057.456-1.504.997c-.461.558-.704 1.308-.704 2.307a.75.75 0 0 0 .75.75H9.5a.75.75 0 0 0 0-1.5H6.58c.069-.285.175-.47.283-.6c.195-.238.478-.395.894-.557l.27-.101c.343-.125.776-.282 1.123-.497c.523-.324.954-.82 1.09-1.618c.15-.867.057-1.723-.424-2.382c-.497-.68-1.294-.995-2.214-.995c-1.135 0-1.831.51-2.21 1.091a2.5 2.5 0 0 0-.386 1.09l-.001.011v.006c0 .003-.01.143 0 .002a.75.75 0 0 0 .698.798m6.578 1.472a.75.75 0 1 0-1.06 1.06l.72.72l-.72.72a.75.75 0 0 0 1.06 1.06l.72-.72l.719.72a.75.75 0 1 0 1.06-1.06l-.72-.72l.72-.72a.75.75 0 0 0-1.06-1.06l-.72.72z"/></svg>