<svg xmlns="http://www.w3.org/2000/svg" xmlns:xlink="http://www.w3.org/1999/xlink" width="24" height="24" viewBox="0 0 24 24"><path fill="currentColor" d="M6.161 10.245a.75.75 0 0 0 .836-.668q.007-.039.032-.119c.035-.107.096-.25.199-.389c.181-.246.55-.569 1.388-.569c.776 0 1.286.239 1.573.558c.279.31.451.811.322 1.565c-.073.425-.283.675-.638.897c-.299.187-.632.317-1.043.477q-.251.097-.544.217c-.619.257-1.339.608-1.89 1.252c-.572.667-.896 1.564-.896 2.784a.75.75 0 0 0 .75.75h5a.75.75 0 0 0 0-1.5H7.062c.09-.492.269-.82.472-1.058c.312-.364.755-.605 1.327-.842q.183-.075.397-.158c.454-.177.982-.382 1.41-.65c.626-.391 1.159-.973 1.32-1.915c.19-1.096-.03-2.095-.684-2.822C10.657 7.336 9.69 7 8.616 7c-1.32 0-2.134.552-2.596 1.18a2.9 2.9 0 0 0-.508 1.182l-.004.03l-.002.01v.008c-.001.002-.047.388-.001.001a.75.75 0 0 0 .656.834m8.119 1.975a.75.75 0 0 0-1.06 1.06l1.219 1.22l-1.22 1.22a.75.75 0 1 0 1.061 1.06l1.22-1.22l1.22 1.22a.75.75 0 1 0 1.06-1.06l-1.22-1.22l1.22-1.22a.75.75 0 1 0-1.06-1.06l-1.22 1.22z"/></svg>