<svg xmlns="http://www.w3.org/2000/svg" xmlns:xlink="http://www.w3.org/1999/xlink" width="20" height="20" viewBox="0 0 20 20"><path fill="currentColor" d="M17.854 4.354a.5.5 0 0 0-.708-.708L15.5 5.293l-.646-.647a.5.5 0 0 0-.708.708l1 1a.5.5 0 0 0 .708 0zm0 9.792a.5.5 0 0 1 0 .708l-2 2a.5.5 0 0 1-.708 0l-1-1a.5.5 0 0 1 .708-.708l.646.647l1.646-1.647a.5.5 0 0 1 .708 0M2.5 5a.5.5 0 0 0 0 1h9a.5.5 0 0 0 0-1zm0 5a.5.5 0 0 0 0 1h9a.5.5 0 0 0 0-1zM2 15.5a.5.5 0 0 1 .5-.5h9a.5.5 0 0 1 0 1h-9a.5.5 0 0 1-.5-.5"/></svg>