<svg xmlns="http://www.w3.org/2000/svg" xmlns:xlink="http://www.w3.org/1999/xlink" width="24" height="24" viewBox="0 0 24 24"><path fill="currentColor" d="M3 17.75A3.25 3.25 0 0 0 6.25 21h4.915l.356-1.423c.162-.648.497-1.24.97-1.712l5.902-5.903a3.28 3.28 0 0 1 2.607-.95V6.25A3.25 3.25 0 0 0 17.75 3H11v4.75A3.25 3.25 0 0 1 7.75 11H3zM9.5 3.44L3.44 9.5h4.31A1.75 1.75 0 0 0 9.5 7.75zm9.6 9.23l-5.903 5.902a2.7 2.7 0 0 0-.706 1.247l-.458 1.831a1.087 1.087 0 0 0 1.319 1.318l1.83-.457a2.7 2.7 0 0 0 1.248-.707l5.902-5.902A2.286 2.286 0 0 0 19.1 12.67"/></svg>