<svg xmlns="http://www.w3.org/2000/svg" xmlns:xlink="http://www.w3.org/1999/xlink" width="20" height="20" viewBox="0 0 20 20"><path fill="currentColor" d="m15.81 10.548l-4.83 4.83a2.2 2.2 0 0 0-.578 1.02l-.375 1.498a.89.89 0 0 0 1.079 1.078l1.498-.374a2.2 2.2 0 0 0 1.02-.578l4.83-4.83a1.87 1.87 0 0 0-2.645-2.644M7 2.5a.5.5 0 0 0-1 0V3h-.5A1.5 1.5 0 0 0 4 4.5v12A1.5 1.5 0 0 0 5.5 18h3.503q.01-.171.054-.347l.375-1.498a3.2 3.2 0 0 1 .84-1.485l4.83-4.83A2.9 2.9 0 0 1 16 9.232V4.5A1.5 1.5 0 0 0 14.5 3H14v-.5a.5.5 0 0 0-1 0V3h-2.5v-.5a.5.5 0 0 0-1 0V3H7zM7.5 7h5a.5.5 0 0 1 0 1h-5a.5.5 0 0 1 0-1m5.5 3.5a.5.5 0 0 1-.5.5h-5a.5.5 0 0 1 0-1h5a.5.5 0 0 1 .5.5M7.5 13h2a.5.5 0 0 1 0 1h-2a.5.5 0 0 1 0-1"/></svg>