<svg xmlns="http://www.w3.org/2000/svg" xmlns:xlink="http://www.w3.org/1999/xlink" width="48" height="48" viewBox="0 0 48 48"><path fill="currentColor" d="M43 36c1.657 0 3 1.341 3 2.998v.502c0 3.5-3.15 6.5-9 6.5s-9-3-9-6.5v-.502A3 3 0 0 1 31 36zM31.75 4c.69 0 1.25.56 1.25 1.25V7h1.75A4.25 4.25 0 0 1 39 11.25v11.041a7 7 0 0 0-2.5-.271V11.25a1.75 1.75 0 0 0-1.75-1.75h-21.5a1.75 1.75 0 0 0-1.75 1.75v27.5c0 .967.784 1.75 1.75 1.75h12.817c.115.879.381 1.72.788 2.5H13.25A4.25 4.25 0 0 1 9 38.75v-27.5A4.25 4.25 0 0 1 13.25 7H15V5.25a1.25 1.25 0 1 1 2.5 0V7h5.25V5.25a1.25 1.25 0 1 1 2.5 0V7h5.25V5.25c0-.69.56-1.25 1.25-1.25M37 24a5 5 0 1 1 0 10a5 5 0 0 1 0-10m-14.122 7.007a1.25 1.25 0 0 1 0 2.486l-.128.007h-5.5a1.25 1.25 0 1 1 0-2.5h5.5zM27.75 23a1.25 1.25 0 1 1 0 2.5h-10.5a1.25 1.25 0 1 1 0-2.5zm3-8a1.25 1.25 0 1 1 0 2.5h-13.5a1.25 1.25 0 1 1 0-2.5z"/></svg>