<svg xmlns="http://www.w3.org/2000/svg" xmlns:xlink="http://www.w3.org/1999/xlink" width="48" height="48" viewBox="0 0 48 48"><path fill="currentColor" d="M31.75 4c.69 0 1.25.56 1.25 1.25V7h1.75A4.25 4.25 0 0 1 39 11.25v21.336a2.25 2.25 0 0 1-.66 1.59l-8.163 8.165a2.25 2.25 0 0 1-1.591.659H13.25A4.25 4.25 0 0 1 9 38.75v-27.5A4.25 4.25 0 0 1 13.25 7H15V5.25a1.25 1.25 0 1 1 2.5 0V7h5.25V5.25a1.25 1.25 0 1 1 2.5 0V7h5.25V5.25c0-.69.56-1.25 1.25-1.25m-18.5 5.5a1.75 1.75 0 0 0-1.75 1.75v27.5c0 .967.784 1.75 1.75 1.75H27v-5.25A4.25 4.25 0 0 1 31.25 31h5.25V11.25a1.75 1.75 0 0 0-1.75-1.75zm18 24a1.75 1.75 0 0 0-1.75 1.75v4.232l5.982-5.982zm-8.372-2.493a1.25 1.25 0 0 1 0 2.486l-.128.007h-5.5a1.25 1.25 0 1 1 0-2.5h5.5zM30.75 23a1.25 1.25 0 1 1 0 2.5h-13.5a1.25 1.25 0 1 1 0-2.5zm0-8a1.25 1.25 0 1 1 0 2.5h-13.5a1.25 1.25 0 1 1 0-2.5z"/></svg>