<svg xmlns="http://www.w3.org/2000/svg" xmlns:xlink="http://www.w3.org/1999/xlink" width="24" height="24" viewBox="0 0 24 24"><path fill="currentColor" d="M6.5 12a5.5 5.5 0 1 1 0 11a5.5 5.5 0 0 1 0-11M16.749 2a2.25 2.25 0 0 1 2.25 2.25v15.5a2.25 2.25 0 0 1-2.25 2.25h-5.56a6.5 6.5 0 0 0 1.078-1.499l4.482-.001a.75.75 0 0 0 .75-.75V4.25a.75.75 0 0 0-.75-.75H6.25a.75.75 0 0 0-.75.75v6.826a6.5 6.5 0 0 0-1.5.422V4.25A2.25 2.25 0 0 1 6.25 2zM6.5 19.88a.625.625 0 1 0 0 1.249a.625.625 0 0 0 0-1.249m0-5.877c-1.048 0-1.864.817-1.853 1.954a.5.5 0 0 0 1-.01c-.006-.578.36-.944.853-.944c.472 0 .853.392.853.95c0 .224-.075.39-.317.677l-.1.113l-.265.29c-.484.542-.671.892-.671 1.468a.5.5 0 0 0 1 0c0-.233.076-.403.324-.695l.1-.115l.266-.29c.478-.535.663-.882.663-1.448c0-1.104-.822-1.95-1.853-1.95m14.25.999a.75.75 0 0 1 .743.648l.007.102v1.498a.75.75 0 0 1-.648.743L20.75 18H20v-2.998zm0-4a.75.75 0 0 1 .743.648l.007.102v1.498a.75.75 0 0 1-.648.743L20.75 14H20v-2.998zm0-4a.75.75 0 0 1 .743.648l.007.102V9.25a.75.75 0 0 1-.648.743L20.75 10H20V7.002zM15.249 5a.75.75 0 0 1 .75.75v2.499a.75.75 0 0 1-.75.75H7.75a.75.75 0 0 1-.75-.75V5.75A.75.75 0 0 1 7.75 5zm-.75 1.5H8.5v.999h5.999z"/></svg>