<svg xmlns="http://www.w3.org/2000/svg" xmlns:xlink="http://www.w3.org/1999/xlink" width="16" height="16" viewBox="0 0 16 16"><path fill="currentColor" d="M1.146 1.146a.5.5 0 0 1 .707 0l13 13l.065.079a.5.5 0 0 1-.693.693l-.079-.064l-.362-.363c-.55.313-1.3.509-2.284.509C9 15 8 13.75 8 12.5A1.5 1.5 0 0 1 9.5 11h.793l-1.16-1.16l.046.056q.044.058.093.114a2.5 2.5 0 0 0-1.23.46A2.26 2.26 0 0 0 7 12.376l.003.048Q7 12.46 7 12.5a3.2 3.2 0 0 0 1.172 2.487l.016.013H4.5A1.5 1.5 0 0 1 3 13.5V3.707L1.146 1.854a.5.5 0 0 1 0-.708M13.5 11a1.5 1.5 0 0 1 1.5 1.5q-.002.175-.03.349L13.12 11zM6 11a.5.5 0 0 0 0 1h.5a.5.5 0 0 0 0-1zm5.5-5a2 2 0 0 1 .544 3.923L9.576 7.455A2 2 0 0 1 11.5 6M6 8a.5.5 0 0 0 0 1h2.293l-1-1zm5-7a.5.5 0 0 1 .5.5V2A1.5 1.5 0 0 1 13 3.5v1.901l-.004.001a3 3 0 0 0-4.19 1.282L8.12 6h.38a.5.5 0 0 0 0-1H7.121l-2.96-2.96Q4.323 2 4.5 2v-.5a.5.5 0 1 1 1 0V2h2v-.5a.5.5 0 0 1 1 0V2h2v-.5A.5.5 0 0 1 11 1"/></svg>