<svg xmlns="http://www.w3.org/2000/svg" xmlns:xlink="http://www.w3.org/1999/xlink" width="48" height="48" viewBox="0 0 48 48"><path fill="currentColor" d="M24 44c11.046 0 20-8.954 20-20S35.046 4 24 4S4 12.954 4 24s8.954 20 20 20m-5-20c0-2.61.385-4.797 1.21-6.289c.773-1.395 1.933-2.211 3.79-2.211s3.017.816 3.79 2.211C28.614 19.203 29 21.391 29 24c0 2.61-.385 4.797-1.21 6.289c-.773 1.395-1.933 2.211-3.79 2.211s-3.017-.816-3.79-2.211C19.386 28.797 19 26.609 19 24m5-11c2.83 0 4.796 1.367 5.977 3.5c1.127 2.037 1.523 4.725 1.523 7.5s-.396 5.463-1.523 7.5C28.796 33.633 26.83 35 24 35s-4.796-1.367-5.977-3.5C16.896 29.463 16.5 26.775 16.5 24s.396-5.463 1.523-7.5C19.205 14.367 21.17 13 24 13"/></svg>