<svg xmlns="http://www.w3.org/2000/svg" xmlns:xlink="http://www.w3.org/1999/xlink" width="24" height="24" viewBox="0 0 24 24"><path fill="currentColor" d="M10.985 3.165a1 1 0 0 0-1.973-.33l-.86 5.163L3.998 8A1 1 0 0 0 4 10l3.817-.002l-.667 4L3 14a1 1 0 1 0 0 2l3.817-.002l-.807 4.838a1 1 0 1 0 1.973.329l.862-5.167l2.33-.002c.17-.72.461-1.394.85-2l-2.847.001l.667-4l4.976-.003l-.287 1.721a6.5 6.5 0 0 1 2.138-.662l.176-1.06l4.153-.003a1 1 0 0 0-.002-2l-3.817.002l.804-4.827a1 1 0 1 0-1.972-.33l-.86 5.159l-4.975.003zM23 17.5a5.5 5.5 0 1 1-11 0a5.5 5.5 0 0 1 11 0m-7.146-2.353a.5.5 0 0 0-.708.707l1.647 1.646l-1.647 1.647a.5.5 0 0 0 .708.707l1.646-1.647l1.646 1.647a.5.5 0 0 0 .708-.707L18.207 17.5l1.647-1.646a.5.5 0 0 0-.708-.707L17.5 16.793z"/></svg>