<svg xmlns="http://www.w3.org/2000/svg" xmlns:xlink="http://www.w3.org/1999/xlink" width="24" height="24" viewBox="0 0 24 24"><path fill="currentColor" d="M10.987 2.89a.75.75 0 1 0-1.474-.28L8.494 7.999L3.75 8a.75.75 0 1 0 0 1.5l4.46-.002l-.946 5l-4.514.002a.75.75 0 0 0 0 1.5l4.23-.002l-.967 5.116a.75.75 0 1 0 1.474.278l1.02-5.395l5.474-.002l-.968 5.119a.75.75 0 1 0 1.474.278l1.021-5.398l4.742-.002a.75.75 0 1 0 0-1.5l-4.458.002l.946-5l4.512-.002a.75.75 0 1 0 0-1.5l-4.229.002l.966-5.104a.75.75 0 0 0-1.474-.28l-1.018 5.385l-5.474.002zm-1.25 6.608l5.474-.003l-.946 5l-5.474.002z"/></svg>