<svg xmlns="http://www.w3.org/2000/svg" xmlns:xlink="http://www.w3.org/1999/xlink" width="20" height="20" viewBox="0 0 20 20"><path fill="currentColor" d="M10 3a7 7 0 1 0 0 14a7 7 0 0 0 0-14m-8 7a8 8 0 1 1 16 0a8 8 0 0 1-16 0m8-3.5c.86 0 1.5.646 1.5 1.375c0 .73-.64 1.375-1.5 1.375s-1.5-.646-1.5-1.375c0-.73.64-1.375 1.5-1.375m1.572 3.222c.562-.431.928-1.09.928-1.847C12.5 6.533 11.35 5.5 10 5.5S7.5 6.533 7.5 7.875c0 .757.366 1.416.928 1.847c-.707.47-1.178 1.25-1.178 2.153c0 1.476 1.259 2.625 2.75 2.625s2.75-1.149 2.75-2.625c0-.903-.47-1.684-1.178-2.153M10 10.25c.994 0 1.75.754 1.75 1.625c0 .87-.756 1.625-1.75 1.625s-1.75-.754-1.75-1.625c0-.87.756-1.625 1.75-1.625"/></svg>