<svg xmlns="http://www.w3.org/2000/svg" xmlns:xlink="http://www.w3.org/1999/xlink" width="16" height="16" viewBox="0 0 16 16"><path fill="currentColor" d="M1 4a2 2 0 0 1 2-2h2a2 2 0 0 1 2 2v8a2 2 0 0 1-2 2H3a2 2 0 0 1-2-2zm3 1a.5.5 0 0 0-.5.5v5a.5.5 0 0 0 1 0v-5A.5.5 0 0 0 4 5m5-1a2 2 0 0 1 2-2h2a2 2 0 0 1 2 2v8a2 2 0 0 1-2 2h-2a2 2 0 0 1-2-2zm2 1.5a.5.5 0 0 0 .5.5h.5v1.5h-.5a.5.5 0 0 0-.5.5v2.5a.5.5 0 0 0 .5.5h1a.5.5 0 0 0 0-1H12V8.5h.5A.5.5 0 0 0 13 8V5.5a.5.5 0 0 0-.5-.5h-1a.5.5 0 0 0-.5.5"/></svg>