<svg xmlns="http://www.w3.org/2000/svg" xmlns:xlink="http://www.w3.org/1999/xlink" width="16" height="16" viewBox="0 0 16 16"><path fill="currentColor" d="M8 2a6 6 0 1 0 0 12A6 6 0 0 0 8 2M1 8a7 7 0 1 1 14 0A7 7 0 0 1 1 8m5.962-.138c-.21-.228-.337-.567-.337-.987A1.375 1.375 0 1 1 8 8.25c-.507 0-.834-.166-1.038-.388m-.736.678c.42.456 1.03.71 1.774.71c.678 0 1.29-.284 1.723-.74c-.06.538-.216.993-.446 1.327c-.287.415-.7.663-1.276.663c-.608 0-1.037-.275-1.327-.74a.5.5 0 1 0-.848.53C6.283 11.023 7.02 11.5 8 11.5c.923 0 1.635-.424 2.099-1.094c.45-.652.65-1.511.65-2.406c0-.937-.199-1.8-.653-2.445C9.627 4.89 8.91 4.5 8 4.5a2.376 2.376 0 0 0-2.376 2.375c0 .616.186 1.214.601 1.665"/></svg>