<svg xmlns="http://www.w3.org/2000/svg" xmlns:xlink="http://www.w3.org/1999/xlink" width="48" height="48" viewBox="0 0 48 48"><path fill="currentColor" d="M24 6.5C14.335 6.5 6.5 14.335 6.5 24S14.335 41.5 24 41.5S41.5 33.665 41.5 24S33.665 6.5 24 6.5M4 24C4 12.954 12.954 4 24 4s20 8.954 20 20s-8.954 20-20 20S4 35.046 4 24m20-8.5c1.997 0 3.5 1.518 3.5 3.25S25.997 22 24 22s-3.5-1.518-3.5-3.25s1.503-3.25 3.5-3.25m3.91 7.61c1.272-1.044 2.09-2.594 2.09-4.36c0-3.238-2.75-5.75-6-5.75s-6 2.512-6 5.75c0 1.766.818 3.316 2.09 4.36c-1.843 1.15-3.09 3.1-3.09 5.39c0 3.694 3.244 6.5 7 6.5s7-2.806 7-6.5c0-2.29-1.247-4.24-3.09-5.39M24 24.5c2.595 0 4.5 1.895 4.5 4s-1.905 4-4.5 4s-4.5-1.895-4.5-4s1.905-4 4.5-4"/></svg>