<svg xmlns="http://www.w3.org/2000/svg" xmlns:xlink="http://www.w3.org/1999/xlink" width="28" height="28" viewBox="0 0 28 28"><path fill="currentColor" d="M14 3.5C8.201 3.5 3.5 8.201 3.5 14S8.201 24.5 14 24.5S24.5 19.799 24.5 14S19.799 3.5 14 3.5M2 14C2 7.373 7.373 2 14 2s12 5.373 12 12s-5.373 12-12 12S2 20.627 2 14m12-5.5c1.438 0 2.5 1.063 2.5 2.25S15.438 13 14 13s-2.5-1.063-2.5-2.25S12.562 8.5 14 8.5m2.501 5.176C17.407 12.998 18 11.955 18 10.75C18 8.624 16.151 7 14 7c-2.152 0-4 1.624-4 3.75c0 1.205.593 2.248 1.499 2.926C10.313 14.377 9.5 15.57 9.5 17c0 2.306 2.12 4 4.5 4s4.5-1.694 4.5-4c0-1.429-.813-2.623-1.999-3.324M14 14.5c1.761 0 3 1.217 3 2.5c0 1.284-1.239 2.5-3 2.5s-3-1.216-3-2.5c0-1.283 1.239-2.5 3-2.5"/></svg>