<svg xmlns="http://www.w3.org/2000/svg" xmlns:xlink="http://www.w3.org/1999/xlink" width="20" height="20" viewBox="0 0 20 20"><path fill="currentColor" d="M3 10a7 7 0 1 1 14 0a7 7 0 0 1-14 0m7-8a8 8 0 1 0 0 16a8 8 0 0 0 0-16M7.427 7.382a.5.5 0 0 0 .703-.057l.003-.004l.02-.02q.029-.031.09-.09a3 3 0 0 1 .376-.291c.33-.214.8-.42 1.38-.42c1.024 0 1.751.726 1.751 1.5s-.727 1.5-1.751 1.5H9.5a.5.5 0 0 0 0 1h.499c1.024 0 1.751.726 1.751 1.5s-.727 1.5-1.751 1.5c-.58 0-1.05-.206-1.38-.42a2.8 2.8 0 0 1-.486-.401l-.003-.004a.5.5 0 0 0-.762.647l.001.002l.002.002l.004.004l.012.014l.039.042q.049.054.138.137c.118.11.29.253.512.397c.443.286 1.098.58 1.923.58c1.462 0 2.751-1.065 2.751-2.5c0-.84-.441-1.553-1.101-2c.66-.447 1.101-1.16 1.101-2c0-1.435-1.289-2.5-2.751-2.5c-.825 0-1.48.294-1.923.58a3.8 3.8 0 0 0-.65.534l-.04.042l-.011.014l-.004.004l-.002.002v.001a.5.5 0 0 0 .058.705"/></svg>