<svg xmlns="http://www.w3.org/2000/svg" xmlns:xlink="http://www.w3.org/1999/xlink" width="24" height="24" viewBox="0 0 24 24"><path fill="currentColor" d="m6.747 3l10.506.002a3.75 3.75 0 0 1 3.745 3.551l.005.2v4.492a.75.75 0 0 1-1.493.102l-.007-.102V6.752c0-1.19-.925-2.165-2.096-2.245l-.154-.005L6.747 4.5a2.25 2.25 0 0 0-2.242 2.057l-.008.159l.002 10.536a2.253 2.253 0 0 0 2.097 2.245l.154.005h4.496a.75.75 0 0 1 .102 1.493l-.102.007H6.75a3.75 3.75 0 0 1-3.745-3.55l-.006-.2l-.001-10.5l.004-.203a3.75 3.75 0 0 1 3.546-3.544zM9.75 9h6.504a.75.75 0 0 1 .102 1.493l-.102.007l-4.694-.001l7.224 7.22a.75.75 0 0 1 .073.977l-.073.084a.75.75 0 0 1-.977.073l-.084-.073l-7.223-7.22v4.691a.75.75 0 0 1-.648.743l-.102.007a.75.75 0 0 1-.743-.648L9 16.25V9.734q0-.037.005-.076l.021-.108l.035-.096l.005-.012a.7.7 0 0 1 .153-.223l.044-.04l.081-.06l.06-.035l.095-.042l.067-.02l.062-.013L9.72 9h6.533z"/></svg>