<svg xmlns="http://www.w3.org/2000/svg" xmlns:xlink="http://www.w3.org/1999/xlink" width="16" height="16" viewBox="0 0 16 16"><path fill="currentColor" d="M4.5 3A2.5 2.5 0 0 0 2 5.5v5A2.5 2.5 0 0 0 4.5 13h1.707a5.5 5.5 0 0 1-.185-1H4.5A1.5 1.5 0 0 1 3 10.5v-5A1.5 1.5 0 0 1 4.5 4H7v4.337a5.5 5.5 0 0 1 1-1.08V4h3.5A1.5 1.5 0 0 1 13 5.5v.707q.524.149 1 .393V5.5A2.5 2.5 0 0 0 11.5 3zM4 5.5a.5.5 0 0 1 .5-.5h1a.5.5 0 0 1 0 1h-1a.5.5 0 0 1-.5-.5M4 8a.5.5 0 0 1 .5-.5h1a.5.5 0 0 1 0 1h-1A.5.5 0 0 1 4 8m0 2.5a.5.5 0 0 1 .5-.5h1a.5.5 0 0 1 0 1h-1a.5.5 0 0 1-.5-.5m12 1a4.5 4.5 0 1 1-9 0a4.5 4.5 0 0 1 9 0m-3.793 0l1.147-1.146a.5.5 0 0 0-.708-.708L11.5 10.793l-1.146-1.147a.5.5 0 0 0-.708.708l1.147 1.146l-1.147 1.146a.5.5 0 0 0 .708.708l1.146-1.147l1.146 1.147a.5.5 0 0 0 .708-.708z"/></svg>