<svg xmlns="http://www.w3.org/2000/svg" xmlns:xlink="http://www.w3.org/1999/xlink" width="16" height="16" viewBox="0 0 16 16"><path fill="currentColor" d="M3.5 2A2.5 2.5 0 0 0 1 4.5v5A2.5 2.5 0 0 0 3.5 12h3.883l1-1H6V3h4.5A1.5 1.5 0 0 1 12 4.5v1.635A4.3 4.3 0 0 1 12.974 6H13V4.5A2.5 2.5 0 0 0 10.5 2zm3.648 13.852A.48.48 0 0 0 7.5 16h2a.6.6 0 0 0 .273-.07a.37.37 0 0 0 .149-.172a1 1 0 0 0 .062-.235q.015-.125.016-.257V15q.36-.008.563-.023a.47.47 0 0 0 .304-.118a.46.46 0 0 0 .117-.296Q11 14.368 11 14h.5q.165 0 .266-.07a.5.5 0 0 0 .156-.172a.7.7 0 0 0 .07-.235q.015-.133.016-.273a3 3 0 0 1-.008-.227v-.195q.258.094.523.133q.266.039.54.039a2.87 2.87 0 0 0 2.078-.898q.405-.423.632-.961q.228-.54.227-1.141q0-.625-.234-1.172a3 3 0 0 0-.641-.953a3 3 0 0 0-.953-.64A2.9 2.9 0 0 0 13 7a3.3 3.3 0 0 0-1.148.234q-.54.22-.954.625q-.414.407-.656.938A2.7 2.7 0 0 0 10 9.937q0 .367.086.774l-2.938 2.937A.48.48 0 0 0 7 14v1.5q0 .203.148.352m7.133-7.133a.72.72 0 0 1 .219.531a.72.72 0 0 1-.219.531a.72.72 0 0 1-.531.219a.72.72 0 0 1-.531-.219A.72.72 0 0 1 13 9.25q0-.312.219-.531a.72.72 0 0 1 .531-.219q.312 0 .531.219"/></svg>