<svg xmlns="http://www.w3.org/2000/svg" xmlns:xlink="http://www.w3.org/1999/xlink" width="32" height="32" viewBox="0 0 32 32"><path fill="currentColor" d="M2 8.5A4.5 4.5 0 0 1 6.5 4h19A4.5 4.5 0 0 1 30 8.5v8.843a9 9 0 0 0-2-1.828V8.5A2.5 2.5 0 0 0 25.5 6H13v20h1.512c.252.712.59 1.383 1.003 2H6.5A4.5 4.5 0 0 1 2 23.5zm4.5.5a1 1 0 0 0 0 2h2a1 1 0 1 0 0-2zm-1 7a1 1 0 0 0 1 1h2a1 1 0 1 0 0-2h-2a1 1 0 0 0-1 1m0 6a1 1 0 0 0 1 1h2a1 1 0 1 0 0-2h-2a1 1 0 0 0-1 1M23 30.5a7.5 7.5 0 1 0 0-15a7.5 7.5 0 0 0 0 15m1-12.25V22h3.75a.75.75 0 0 1 0 1.5H24v3.75a.75.75 0 0 1-1.5 0V23.5h-3.75a.75.75 0 0 1 0-1.5h3.75v-3.75a.75.75 0 0 1 1.5 0"/></svg>