<svg xmlns="http://www.w3.org/2000/svg" xmlns:xlink="http://www.w3.org/1999/xlink" width="24" height="24" viewBox="0 0 24 24"><path fill="currentColor" d="M2 7.25A3.25 3.25 0 0 1 5.25 4h13.5A3.25 3.25 0 0 1 22 7.25v5.56a6.5 6.5 0 0 0-1.5-1.078V10.5h-11v8h1.576c.081.523.224 1.026.422 1.5H5.25A3.25 3.25 0 0 1 2 16.75zm18.5 0a1.75 1.75 0 0 0-1.75-1.75H9.5V9h11zM23 17.5a5.5 5.5 0 1 0-11 0a5.5 5.5 0 0 0 11 0m-5 .5l.001 2.503a.5.5 0 1 1-1 0V18h-2.505a.5.5 0 0 1 0-1H17v-2.5a.5.5 0 1 1 1 0V17h2.497a.5.5 0 0 1 0 1z"/></svg>