<svg xmlns="http://www.w3.org/2000/svg" xmlns:xlink="http://www.w3.org/1999/xlink" width="20" height="20" viewBox="0 0 20 20"><path fill="currentColor" d="M2 6a3 3 0 0 1 3-3h10a3 3 0 0 1 3 3v3.532a4 4 0 0 0-.434-.217A4 4 0 0 0 17 9.123V6a2 2 0 0 0-2-2H8.5v11h1.883l-.942.941l-.055.059H5a3 3 0 0 1-3-3zm5.5-2H5a2 2 0 0 0-2 2v7a2 2 0 0 0 2 2h2.5zm2.648 14.852A.48.48 0 0 0 10.5 19h2a.6.6 0 0 0 .273-.07a.37.37 0 0 0 .149-.172a1 1 0 0 0 .062-.235q.016-.125.016-.257V18q.36-.008.563-.023a.47.47 0 0 0 .304-.118a.46.46 0 0 0 .117-.297Q14 17.368 14 17h.5q.165 0 .266-.07a.5.5 0 0 0 .156-.172a.7.7 0 0 0 .07-.235q.015-.133.016-.273a3 3 0 0 1-.008-.227v-.195q.258.094.523.133q.266.039.54.039a2.87 2.87 0 0 0 2.078-.898q.405-.423.632-.961Q19 13.6 19 13q0-.625-.234-1.172a3 3 0 0 0-.641-.953a3 3 0 0 0-.953-.64A2.9 2.9 0 0 0 16 10q-.61.015-1.148.234a2.9 2.9 0 0 0-.954.625q-.414.407-.656.938a2.7 2.7 0 0 0-.242 1.14q0 .367.086.774l-2.938 2.937A.48.48 0 0 0 10 17v1.5q0 .203.148.352m7.133-7.133a.72.72 0 0 1 .219.531a.72.72 0 0 1-.219.531a.72.72 0 0 1-.531.219a.72.72 0 0 1-.531-.219a.72.72 0 0 1-.219-.531q0-.312.219-.531a.72.72 0 0 1 .531-.219q.312 0 .531.219"/></svg>