<svg xmlns="http://www.w3.org/2000/svg" xmlns:xlink="http://www.w3.org/1999/xlink" width="28" height="28" viewBox="0 0 28 28"><path fill="currentColor" d="M5 8.5a.75.75 0 0 1 .75-.75h1.5a.75.75 0 0 1 0 1.5h-1.5A.75.75 0 0 1 5 8.5m0 5a.75.75 0 0 1 .75-.75h1.5a.75.75 0 0 1 0 1.5h-1.5A.75.75 0 0 1 5 13.5m.75 4.25a.75.75 0 0 0 0 1.5h1.5a.75.75 0 0 0 0-1.5zm-3.746-10A3.75 3.75 0 0 1 5.754 4H22.25A3.75 3.75 0 0 1 26 7.75v7.652a7.5 7.5 0 0 0-1.5-1.247V7.75a2.25 2.25 0 0 0-2.25-2.25H11v16h2.066q.106.78.36 1.5H5.755a3.75 3.75 0 0 1-3.75-3.75zm3.75-2.25a2.25 2.25 0 0 0-2.25 2.25v11.5a2.25 2.25 0 0 0 2.25 2.25H9.5v-16zM27 20.5a6.5 6.5 0 1 1-13 0a6.5 6.5 0 0 1 13 0m-6-4a.5.5 0 0 0-1 0V20h-3.5a.5.5 0 0 0 0 1H20v3.5a.5.5 0 0 0 1 0V21h3.5a.5.5 0 0 0 0-1H21z"/></svg>