<svg xmlns="http://www.w3.org/2000/svg" xmlns:xlink="http://www.w3.org/1999/xlink" width="48" height="48" viewBox="0 0 48 48"><path fill="currentColor" d="M10.25 7A6.25 6.25 0 0 0 4 13.25v15.5A6.25 6.25 0 0 0 10.25 35h11.788a13 13 0 0 1 .048-2.5H10.25a3.75 3.75 0 0 1-3.75-3.75v-15.5a3.75 3.75 0 0 1 3.75-3.75h27.5a3.75 3.75 0 0 1 3.75 3.75v9.49a13 13 0 0 1 2.5 1.88V13.25A6.25 6.25 0 0 0 37.75 7zm16.194 17.212a13 13 0 0 1 2.06-1.475L26.768 21l1.866-1.866a1.25 1.25 0 0 0-1.768-1.768L25 19.232l-1.866-1.866a1.25 1.25 0 0 0-1.768 1.768L23.232 21l-1.866 1.866a1.25 1.25 0 0 0 1.768 1.768L25 22.768zm-14.31-6.846a1.25 1.25 0 0 0-1.768 1.768L12.232 21l-1.866 1.866a1.25 1.25 0 0 0 1.768 1.768L14 22.768l1.866 1.866a1.25 1.25 0 0 0 1.768-1.768L15.768 21l1.866-1.866a1.25 1.25 0 0 0-1.768-1.768L14 19.232zM46 34c0 6.075-4.925 11-11 11s-11-4.925-11-11s4.925-11 11-11s11 4.925 11 11m-5 0a1 1 0 0 0-1-1h-4v-6a1 1 0 1 0-2 0v7a1 1 0 0 0 1 1h5a1 1 0 0 0 1-1"/></svg>