<svg xmlns="http://www.w3.org/2000/svg" xmlns:xlink="http://www.w3.org/1999/xlink" width="48" height="48" viewBox="0 0 48 48"><path fill="currentColor" d="M10.25 10A6.25 6.25 0 0 0 4 16.25v15.5A6.25 6.25 0 0 0 10.25 38h27.5A6.25 6.25 0 0 0 44 31.75v-15.5A6.25 6.25 0 0 0 37.75 10zM6.5 16.25a3.75 3.75 0 0 1 3.75-3.75h27.5a3.75 3.75 0 0 1 3.75 3.75v15.5a3.75 3.75 0 0 1-3.75 3.75h-27.5a3.75 3.75 0 0 1-3.75-3.75zm5.634 4.116a1.25 1.25 0 0 0-1.768 1.768L12.232 24l-1.866 1.866a1.25 1.25 0 0 0 1.768 1.768L14 25.768l1.866 1.866a1.25 1.25 0 0 0 1.768-1.768L15.768 24l1.866-1.866a1.25 1.25 0 0 0-1.768-1.768L14 22.232zm9.232 0a1.25 1.25 0 0 1 1.768 0L25 22.232l1.866-1.866a1.25 1.25 0 0 1 1.768 1.768L26.768 24l1.866 1.866a1.25 1.25 0 0 1-1.768 1.768L25 25.768l-1.866 1.866a1.25 1.25 0 0 1-1.768-1.768L23.232 24l-1.866-1.866a1.25 1.25 0 0 1 0-1.768M33.25 25.5a1.25 1.25 0 1 0 0 2.5h4.5a1.25 1.25 0 1 0 0-2.5z"/></svg>