<svg xmlns="http://www.w3.org/2000/svg" xmlns:xlink="http://www.w3.org/1999/xlink" width="16" height="16" viewBox="0 0 16 16"><path fill="currentColor" d="M5.854 6.146a.5.5 0 0 0-.708 0l-.646.647l-.646-.647a.5.5 0 1 0-.708.708l.647.646l-.647.646a.5.5 0 1 0 .708.708l.646-.647l.646.647a.5.5 0 1 0 .708-.708L5.207 7.5l.647-.646a.5.5 0 0 0 0-.708m3.292 0a.5.5 0 1 1 .708.708l-.647.646l.647.646a.5.5 0 0 1-.708.708L8.5 8.207l-.646.647a.5.5 0 1 1-.708-.708l.647-.646l-.647-.646a.5.5 0 1 1 .708-.708l.646.647zM11.5 8a.5.5 0 0 0 0 1h1a.5.5 0 0 0 0-1zm-8-5A2.5 2.5 0 0 0 1 5.5v4A2.5 2.5 0 0 0 3.5 12h9A2.5 2.5 0 0 0 15 9.5v-4A2.5 2.5 0 0 0 12.5 3zM2 5.5A1.5 1.5 0 0 1 3.5 4h9A1.5 1.5 0 0 1 14 5.5v4a1.5 1.5 0 0 1-1.5 1.5h-9A1.5 1.5 0 0 1 2 9.5z"/></svg>