<svg xmlns="http://www.w3.org/2000/svg" xmlns:xlink="http://www.w3.org/1999/xlink" width="16" height="16" viewBox="0 0 16 16"><path fill="currentColor" d="M3.5 2A1.5 1.5 0 0 0 2 3.5v9A1.5 1.5 0 0 0 3.5 14h2c.23 0 .448-.052.642-.144a5.5 5.5 0 0 1-.547-.865A.5.5 0 0 1 5.5 13h-2a.5.5 0 0 1-.5-.5v-9a.5.5 0 0 1 .5-.5h2a.5.5 0 0 1 .5.5v3.837a5.5 5.5 0 0 1 1-1.08V3.5A1.5 1.5 0 0 0 5.5 2zM14 3.5v2.757a5.5 5.5 0 0 0-1-.657V3.5a.5.5 0 0 0-.5-.5h-2a.5.5 0 0 0-.5.5v1.522a5.5 5.5 0 0 0-1 .185V3.5A1.5 1.5 0 0 1 10.5 2h2A1.5 1.5 0 0 1 14 3.5M8.065 7.442a2 2 0 0 1-1.43 2.478l-.461.118a4.7 4.7 0 0 0 .01 1.016l.35.083a2 2 0 0 1 1.455 2.519l-.126.423q.387.305.835.518l.324-.345a2 2 0 0 1 2.91.002l.337.358q.44-.203.822-.498l-.156-.556a2 2 0 0 1 1.43-2.478l.461-.118a4.7 4.7 0 0 0-.01-1.017l-.349-.082a2 2 0 0 1-1.456-2.52l.126-.421a4.3 4.3 0 0 0-.835-.518l-.324.343a2 2 0 0 1-2.91-.001l-.337-.358a4.3 4.3 0 0 0-.822.497zM10.5 11.5a1 1 0 1 1 0-2a1 1 0 0 1 0 2"/></svg>