<svg xmlns="http://www.w3.org/2000/svg" xmlns:xlink="http://www.w3.org/1999/xlink" width="48" height="48" viewBox="0 0 48 48"><path fill="currentColor" d="M6.5 24c0-9.665 7.835-17.5 17.5-17.5S41.5 14.335 41.5 24S33.665 41.5 24 41.5S6.5 33.665 6.5 24M24 4C12.954 4 4 12.954 4 24s8.954 20 20 20s20-8.954 20-20S35.046 4 24 4m5.142 8.365a1.26 1.26 0 0 0-1.774 0a1.24 1.24 0 0 0 0 1.76a13.887 13.887 0 0 1 0 19.747a1.24 1.24 0 0 0 0 1.761c.49.486 1.284.486 1.774 0a16.364 16.364 0 0 0 0-23.268m-7.765 2.99a1.344 1.344 0 0 1 1.82 0c5.068 4.774 5.068 12.515 0 17.29a1.343 1.343 0 0 1-1.82 0a1.163 1.163 0 0 1 0-1.715c4.063-3.827 4.063-10.033 0-13.86a1.163 1.163 0 0 1 0-1.715m-5.51 3.01a1.263 1.263 0 0 1 1.776 0a7.92 7.92 0 0 1 0 11.27a1.263 1.263 0 0 1-1.775 0a1.24 1.24 0 0 1 0-1.761a5.447 5.447 0 0 0 0-7.749a1.24 1.24 0 0 1 0-1.76"/></svg>