<svg xmlns="http://www.w3.org/2000/svg" xmlns:xlink="http://www.w3.org/1999/xlink" width="32" height="32" viewBox="0 0 32 32"><path fill="currentColor" d="M5.488 8.511a3.5 3.5 0 0 1 .837 1.363l.548 1.682a.664.664 0 0 0 1.254 0l.548-1.682a3.47 3.47 0 0 1 2.197-2.196l1.684-.547a.665.665 0 0 0 0-1.254l-.034-.008l-1.684-.547a3.47 3.47 0 0 1-2.197-2.196l-.547-1.682a.665.665 0 0 0-1.255 0l-.547 1.682l-.014.042a3.47 3.47 0 0 1-2.15 2.154l-1.684.547a.665.665 0 0 0 0 1.254l1.684.546c.513.171.979.46 1.36.842m9.333 4.847l.918.298l.019.004a.362.362 0 0 1 0 .684l-.919.299a1.9 1.9 0 0 0-1.198 1.197l-.299.918a.363.363 0 0 1-.684 0l-.299-.918a1.89 1.89 0 0 0-1.198-1.202l-.919-.298a.362.362 0 0 1 0-.684l.919-.299a1.9 1.9 0 0 0 1.18-1.197l.299-.918a.363.363 0 0 1 .684 0l.298.918a1.89 1.89 0 0 0 1.199 1.197m1.439-1.109c.362.13.676.367.9.68c.222.313.34.687.34 1.07c0 .362-.105.716-.3 1.02a2 2 0 0 1-.94.69l-.91.3a.38.38 0 0 0-.24.23l-.31 1a2 2 0 0 1-.68.9a1.89 1.89 0 0 1-2.16 0a2 2 0 0 1-.69-.94l-.3-.91a.3.3 0 0 0-.09-.15a.4.4 0 0 0-.14-.1l-1-.31a2 2 0 0 1-.265-.118l-5.118 5.118a3.7 3.7 0 0 0-1.002 1.841l-1.333 6.22a1 1 0 0 0 1.188 1.188l6.22-1.333a3.7 3.7 0 0 0 1.84-1.002l14.98-14.98l.275.276a1.5 1.5 0 0 1 0 2.122l-2.232 2.232a1 1 0 0 0 1.414 1.414l2.232-2.232a3.5 3.5 0 0 0 0-4.95l-.275-.276l.9-.9a4.89 4.89 0 0 0-6.914-6.915l-7.027 7.028q.1.17.167.357l.3.91a.34.34 0 0 0 .09.15a.6.6 0 0 0 .14.09l.87.28z"/></svg>