<svg xmlns="http://www.w3.org/2000/svg" xmlns:xlink="http://www.w3.org/1999/xlink" width="24" height="24" viewBox="0 0 24 24"><path fill="currentColor" d="M20.952 3.047a3.58 3.58 0 0 0-5.06 0L3.94 15a3.1 3.1 0 0 0-.825 1.477l-1.095 4.6a.75.75 0 0 0 .904.903l4.601-1.095a3.1 3.1 0 0 0 1.477-.826l1.151-1.15a6.5 6.5 0 0 1-.127-1.995l-2.085 2.085c-.21.21-.474.358-.763.427l-3.416.813l.813-3.416c.069-.289.217-.553.427-.763l11.95-11.952a2.078 2.078 0 1 1 2.94 2.94l-3.979 3.978a6.6 6.6 0 0 1 1.994.127l3.045-3.045a3.58 3.58 0 0 0 0-5.06M22 17.5a5.5 5.5 0 1 1-11 0a5.5 5.5 0 0 1 11 0m-7.146-2.354a.5.5 0 0 0-.708.708l1.647 1.646l-1.647 1.646a.5.5 0 0 0 .708.708l1.646-1.647l1.646 1.647a.5.5 0 0 0 .708-.708L17.207 17.5l1.647-1.646a.5.5 0 0 0-.708-.708L16.5 16.793z"/></svg>