<svg xmlns="http://www.w3.org/2000/svg" xmlns:xlink="http://www.w3.org/1999/xlink" width="28" height="28" viewBox="0 0 28 28"><path fill="currentColor" d="m16.25 17.31l8.47 8.47a.75.75 0 0 0 1.06-1.06L3.28 2.22a.75.75 0 1 0-1.06 1.06l8.47 8.47l-6.187 6.187c-.44.44-.76.986-.928 1.586l-1.547 5.525a.75.75 0 0 0 .924.924l5.524-1.547a3.6 3.6 0 0 0 1.587-.928zm-3.44-7.682l5.562 5.56l3.877-3.877a1.75 1.75 0 0 1-.047 2.426L20.22 15.72a.75.75 0 1 0 1.06 1.06l1.983-1.982a3.25 3.25 0 0 0 .047-4.548l1.54-1.54a3.932 3.932 0 1 0-5.561-5.56z"/></svg>