<svg xmlns="http://www.w3.org/2000/svg" xmlns:xlink="http://www.w3.org/1999/xlink" width="16" height="16" viewBox="0 0 16 16"><path fill="currentColor" d="M13.44 2.56a1.914 1.914 0 0 0-2.707 0L3.338 9.956a1.65 1.65 0 0 0-.398.644l-.914 2.743a.5.5 0 0 0 .632.633l2.743-.915c.243-.08.463-.217.644-.398L12 6.708l.263.262a.75.75 0 0 1 0 1.06l-1.117 1.117a.5.5 0 1 0 .708.707l1.116-1.116a1.75 1.75 0 0 0 0-2.475L12.707 6l.733-.733a1.914 1.914 0 0 0 0-2.707m-1.778 3.072l-.03.03l-6.294 6.293a.65.65 0 0 1-.253.157l-1.794.598l.598-1.794a.65.65 0 0 1 .156-.254l7.395-7.394a.914.914 0 1 1 1.293 1.293z"/></svg>