<svg xmlns="http://www.w3.org/2000/svg" xmlns:xlink="http://www.w3.org/1999/xlink" width="48" height="48" viewBox="0 0 48 48"><path fill="currentColor" d="M7.833 13.112a5.355 5.355 0 0 0-2.545-1.805l-2.602-.845a1.028 1.028 0 0 1 0-1.937l2.602-.845a5.362 5.362 0 0 0 3.323-3.33l.022-.064l.846-2.6a1.027 1.027 0 0 1 1.938 0l.846 2.6A5.356 5.356 0 0 0 15.66 7.68l2.603.845l.052.013a1.028 1.028 0 0 1 0 1.937l-2.603.845a5.361 5.361 0 0 0-3.396 3.394l-.846 2.6a1.027 1.027 0 0 1-1.563.497a1.027 1.027 0 0 1-.375-.497l-.846-2.6a5.355 5.355 0 0 0-.852-1.602Zm14.776 6.872l-1.378-.448a2.839 2.839 0 0 1-1.798-1.796l-.447-1.377a.544.544 0 0 0-1.027 0l-.448 1.377a2.835 2.835 0 0 1-1.77 1.796l-1.378.448a.545.545 0 0 0 0 1.025l1.378.448c.151.05.298.113.438.188l.003.015a2.837 2.837 0 0 1 1.357 1.61l.448 1.377a.545.545 0 0 0 1.01.039v-.01a.504.504 0 0 0 .016-.039l.448-1.377a2.837 2.837 0 0 1 1.798-1.796l1.378-.448a.545.545 0 0 0 0-1.025l-.028-.007ZM9.805 31.964l6.425-6.424a2.536 2.536 0 0 1-.12-.35l-.44-1.37a.86.86 0 0 0-.2-.33a.996.996 0 0 0-.2-.15l-.12-.06l-.149-.048l-6.963 6.965a6.007 6.007 0 0 0-1.572 2.758L4.039 42.44a1.25 1.25 0 0 0 1.52 1.521l9.487-2.424a6.007 6.007 0 0 0 2.76-1.573l20.165-20.167l.88.939a1.75 1.75 0 0 1-.039 2.434l-3.446 3.446a1.25 1.25 0 0 0 1.768 1.768l3.446-3.446a4.25 4.25 0 0 0 .095-5.912l-.935-.998l2.234-2.235a6.907 6.907 0 0 0-9.768-9.767l-10.93 10.93l.054.165a.943.943 0 0 0 .2.33c.09.087.2.151.32.19l1.31.43h.14c.096.033.19.073.28.118L33.974 7.793a4.407 4.407 0 0 1 6.233 6.232L16.038 38.196a3.507 3.507 0 0 1-1.611.919l-7.443 1.902l1.904-7.442c.156-.61.473-1.166.917-1.61Z"/></svg>