<svg xmlns="http://www.w3.org/2000/svg" xmlns:xlink="http://www.w3.org/1999/xlink" width="16" height="16" viewBox="0 0 16 16"><path fill="currentColor" d="M9.733 1.56a1.914 1.914 0 0 1 2.707 2.708l-.842.842a5.5 5.5 0 0 0-6.489 6.488l-.064.064a1.65 1.65 0 0 1-.644.398l-2.743.915a.5.5 0 0 1-.632-.633L1.94 9.6c.08-.242.217-.463.398-.644zM6 10.5a4.5 4.5 0 1 0 9 0a4.5 4.5 0 0 0-9 0m6.5-3a.5.5 0 0 1 .5.5v1.5a.5.5 0 0 1-.5.5H11a.5.5 0 0 1 0-1h.468a2 2 0 0 0-.933-.25a2 2 0 0 0-1.45.586a.5.5 0 0 1-.706-.707A3 3 0 0 1 12 8.152V8a.5.5 0 0 1 .5-.5m-.876 5.532A3 3 0 0 1 9 12.848V13a.5.5 0 0 1-1 0v-1.5a.5.5 0 0 1 .5-.5H10a.5.5 0 0 1 0 1h-.468a2 2 0 0 0 .933.25a2 2 0 0 0 1.45-.586a.5.5 0 0 1 .706.707c-.285.285-.624.51-.997.66"/></svg>