<svg xmlns="http://www.w3.org/2000/svg" xmlns:xlink="http://www.w3.org/1999/xlink" width="32" height="32" viewBox="0 0 32 32"><path fill="currentColor" d="m18.75 20.164l9.543 9.543a1 1 0 0 0 1.414-1.414l-26-26a1 1 0 0 0-1.415 1.414l9.543 9.543l-7.479 7.479a3.7 3.7 0 0 0-1.001 1.84L2.022 28.79a1 1 0 0 0 1.187 1.188l6.22-1.333a3.7 3.7 0 0 0 1.842-1.002zm-1.415-1.415l-7.479 7.48a1.7 1.7 0 0 1-.845.46l-4.71 1.01l1.01-4.71a1.7 1.7 0 0 1 .46-.846l7.478-7.48zm9.815-9.815l-7.339 7.34l1.414 1.414l5.024-5.025l.276.276a1.5 1.5 0 0 1 0 2.121l-2.232 2.233a1 1 0 0 0 1.414 1.414l2.232-2.232a3.5 3.5 0 0 0 0-4.95l-.276-.276l.901-.901a4.889 4.889 0 1 0-6.914-6.914l-7.339 7.34l1.414 1.414l7.34-7.34a2.889 2.889 0 1 1 4.085 4.086"/></svg>