<svg xmlns="http://www.w3.org/2000/svg" xmlns:xlink="http://www.w3.org/1999/xlink" width="24" height="24" viewBox="0 0 24 24"><path fill="currentColor" d="M17.5 12a5.5 5.5 0 1 1 0 11a5.5 5.5 0 0 1 0-11m0 2l-.09.007a.5.5 0 0 0-.402.402L17 14.5V17h-2.502l-.09.008a.5.5 0 0 0-.402.402l-.008.09l.008.09a.5.5 0 0 0 .402.402l.09.008H17v2.503l.008.09a.5.5 0 0 0 .402.402l.09.008l.09-.008a.5.5 0 0 0 .402-.402l.008-.09V18l2.504.001l.09-.008a.5.5 0 0 0 .402-.402l.008-.09l-.008-.09a.5.5 0 0 0-.403-.402l-.09-.008H18v-2.5l-.008-.09a.5.5 0 0 0-.402-.403zm-3.246-4a2.25 2.25 0 0 1 1.951 1.13A6.502 6.502 0 0 0 12.023 21l-.02-.001a4.5 4.5 0 0 1-4.501-4.501V12.25A2.25 2.25 0 0 1 9.752 10zm-6.848 0a3.24 3.24 0 0 0-.897 2.034l-.007.216v4.249c0 .847.191 1.649.533 2.365Q6.539 18.999 6 19a4 4 0 0 1-4-4.001V12.25a2.25 2.25 0 0 1 2.096-2.245L4.25 10zm12.344 0A2.25 2.25 0 0 1 22 12.25v.56A6.48 6.48 0 0 0 17.5 11l-.243.005A3.3 3.3 0 0 0 16.599 10zM18.5 4a2.5 2.5 0 1 1 0 5a2.5 2.5 0 0 1 0-5M12 3a3 3 0 1 1 0 6a3 3 0 0 1 0-6M5.5 4a2.5 2.5 0 1 1 0 5a2.5 2.5 0 0 1 0-5"/></svg>