<svg xmlns="http://www.w3.org/2000/svg" xmlns:xlink="http://www.w3.org/1999/xlink" width="28" height="28" viewBox="0 0 28 28"><path fill="currentColor" d="M17.254 11c1.18 0 2.15.91 2.243 2.066a7.5 7.5 0 0 0-1.493.36v-.176a.75.75 0 0 0-.75-.75h-6.502a.75.75 0 0 0-.75.75v6.249a4 4 0 0 0 3.614 3.983a7.5 7.5 0 0 0 .868 1.497q-.238.021-.481.021a5.5 5.5 0 0 1-5.501-5.501V13.25a2.25 2.25 0 0 1 2.25-2.25zm7.246 3.155a7.5 7.5 0 0 1 1.5 1.246V13.25A2.25 2.25 0 0 0 23.75 11H19.6c.394.412.682.927.817 1.5h3.333a.75.75 0 0 1 .75.75zM4.25 11h4.156a3.24 3.24 0 0 0-.817 1.5H4.25a.75.75 0 0 0-.75.75v5.249a3 3 0 0 0 4.238 2.735c.133.49.324.956.564 1.392A4.5 4.5 0 0 1 2 18.499V13.25A2.25 2.25 0 0 1 4.25 11M14 3a3.5 3.5 0 1 1 0 7a3.5 3.5 0 0 1 0-7m8.003 1a3 3 0 1 1 0 6a3 3 0 0 1 0-6M5.997 4a3 3 0 1 1 0 6a3 3 0 0 1 0-6M14 4.5a2 2 0 1 0 0 4a2 2 0 0 0 0-4m8.003 1a1.5 1.5 0 1 0 0 3a1.5 1.5 0 0 0 0-3m-16.006 0a1.5 1.5 0 1 0 0 3a1.5 1.5 0 0 0 0-3M27 20.5a6.5 6.5 0 1 1-13 0a6.5 6.5 0 0 1 13 0m-6.5-.707l-2.646-2.647a.5.5 0 0 0-.708.708l2.647 2.646l-2.647 2.646a.5.5 0 0 0 .708.708l2.646-2.647l2.646 2.647a.5.5 0 0 0 .708-.708L21.207 20.5l2.647-2.646a.5.5 0 0 0-.708-.708z"/></svg>