<svg xmlns="http://www.w3.org/2000/svg" xmlns:xlink="http://www.w3.org/1999/xlink" width="32" height="32" viewBox="0 0 32 32"><path fill="currentColor" d="M10.5 14a5.5 5.5 0 1 0 0-11a5.5 5.5 0 0 0 0 11M23 14a4 4 0 1 0 0-8a4 4 0 0 0 0 8m-9 9c0-2.712 1.2-5.143 3.096-6.793A3 3 0 0 0 16 16H5a3 3 0 0 0-3 3v.15S2 25 10.5 25c1.442 0 2.64-.168 3.633-.448A9 9 0 0 1 14 23m16.5 0a7.5 7.5 0 1 1-15 0a7.5 7.5 0 0 1 15 0m-8.212-4.862l-.94 2.828h-2.994c-.731 0-1.03.938-.434 1.361l2.406 1.707l-.929 2.792c-.228.687.555 1.267 1.146.848L23 25.931l2.457 1.743c.591.42 1.374-.16 1.146-.848l-.93-2.792l2.407-1.707c.597-.423.297-1.361-.434-1.361h-2.994l-.94-2.828c-.228-.684-1.196-.684-1.424 0"/></svg>