<svg xmlns="http://www.w3.org/2000/svg" xmlns:xlink="http://www.w3.org/1999/xlink" width="28" height="28" viewBox="0 0 28 28"><path fill="currentColor" d="M9.5 14a4.5 4.5 0 1 0 0-9a4.5 4.5 0 0 0 0 9Zm14-3.5a3.5 3.5 0 1 1-7 0a3.5 3.5 0 0 1 7 0ZM2 18.25A2.25 2.25 0 0 1 4.25 16h10.5c.236 0 .464.036.678.104a1.749 1.749 0 0 0 .42 2.646a1.749 1.749 0 0 0-.052 2.967a5.196 5.196 0 0 1-.178.199a1.763 1.763 0 0 0-.206.205C14.336 23.143 12.53 24 9.5 24C2 24 2 18.75 2 18.75v-.5Zm14.75-1.75a.75.75 0 0 0 0 1.5h8.5a.75.75 0 0 0 0-1.5h-8.5Zm0 3a.75.75 0 0 0 0 1.5h8.5a.75.75 0 0 0 0-1.5h-8.5Zm0 3a.75.75 0 0 0 0 1.5h8.5a.75.75 0 0 0 0-1.5h-8.5Z"/></svg>