<svg xmlns="http://www.w3.org/2000/svg" xmlns:xlink="http://www.w3.org/1999/xlink" width="17" height="17" viewBox="0 0 17 17"><path fill="currentColor" d="M5.5 3a1.5 1.5 0 1 0 0 3a1.5 1.5 0 0 0 0-3M3 4.5a2.5 2.5 0 1 1 5 0a2.5 2.5 0 0 1-5 0m8.5-.5a1 1 0 1 0 0 2a1 1 0 0 0 0-2m-2 1a2 2 0 1 1 3.61 1.188a2.9 2.9 0 0 0-1.007.653l-.094.094A2.003 2.003 0 0 1 9.5 5m-2.226 6.67l2.225-2.225A1.5 1.5 0 0 0 8 8H3a1.5 1.5 0 0 0-1.5 1.5v.112a1 1 0 0 0 .01.137a2.85 2.85 0 0 0 .524 1.342c.548.755 1.588 1.409 3.466 1.409c.46 0 .868-.04 1.233-.11c.144-.263.326-.506.54-.72M2.5 9.597V9.5A.5.5 0 0 1 3 9h5a.5.5 0 0 1 .5.5v.097l-.004.048a1.85 1.85 0 0 1-.338.857c-.326.449-1.036.998-2.658.998s-2.332-.549-2.658-.997a1.85 1.85 0 0 1-.338-.858zm5.48 2.78l4.83-4.83a1.87 1.87 0 1 1 2.644 2.646l-4.83 4.829a2.2 2.2 0 0 1-1.02.578l-1.498.374a.89.89 0 0 1-1.079-1.078l.375-1.498a2.2 2.2 0 0 1 .578-1.02"/></svg>