<svg xmlns="http://www.w3.org/2000/svg" xmlns:xlink="http://www.w3.org/1999/xlink" width="16" height="16" viewBox="0 0 16 16"><path fill="currentColor" d="M5.5 3a1.5 1.5 0 1 0 0 3a1.5 1.5 0 0 0 0-3M3 4.5a2.5 2.5 0 1 1 5 0a2.5 2.5 0 0 1-5 0m8.5-.5a1 1 0 1 0 0 2a1 1 0 0 0 0-2m-2 1a2 2 0 1 1 4 0a2 2 0 0 1-4 0M3 8a1.5 1.5 0 0 0-1.5 1.5v.112a1 1 0 0 0 .01.137a2.85 2.85 0 0 0 .524 1.342c.548.755 1.588 1.409 3.466 1.409s2.918-.654 3.467-1.409a2.85 2.85 0 0 0 .523-1.342a2 2 0 0 0 .01-.137V9.5A1.5 1.5 0 0 0 8 8zm-.5 1.597V9.5A.5.5 0 0 1 3 9h5a.5.5 0 0 1 .5.5v.097l-.004.048a1.85 1.85 0 0 1-.338.857c-.326.449-1.036.998-2.658.998s-2.332-.549-2.658-.997a1.85 1.85 0 0 1-.338-.858zM12.584 8.58l.283-.75c.258-.68 1.062-1.016 1.74-.727l.388.166c.473.202.865.568.947 1.06c.457 2.725-1.908 6.601-4.63 7.59c-.492.178-1.023.04-1.445-.246l-.346-.235a1.184 1.184 0 0 1-.204-1.79l.545-.607a1.07 1.07 0 0 1 1.034-.323l1.225.29q1.457-.91 1.562-2.56l-.878-.86a.94.94 0 0 1-.221-1.008"/></svg>