<svg xmlns="http://www.w3.org/2000/svg" xmlns:xlink="http://www.w3.org/1999/xlink" width="16" height="16" viewBox="0 0 16 16"><path fill="currentColor" d="M4 4.5a1.5 1.5 0 1 1 3 0a1.5 1.5 0 0 1-3 0M5.5 2a2.5 2.5 0 1 0 0 5a2.5 2.5 0 0 0 0-5m5 3a1 1 0 1 1 2 0a1 1 0 0 1-2 0m-.578 1.23A5.5 5.5 0 0 1 11.5 6a5.5 5.5 0 0 1 1.578.23a2 2 0 1 0-3.155 0M3 8h4.257A5.5 5.5 0 0 0 6.6 9H3a.5.5 0 0 0-.5.5v.097l.004.048a1.85 1.85 0 0 0 .338.857c.326.449 1.036.998 2.658.998q.266 0 .5-.019v.019q0 .501.087.977a7 7 0 0 1-.587.023c-1.878 0-2.918-.654-3.467-1.409a2.85 2.85 0 0 1-.523-1.342a2 2 0 0 1-.01-.137V9.5A1.5 1.5 0 0 1 3 8m4 3.5a4.5 4.5 0 1 0 9 0a4.5 4.5 0 0 0-9 0m6.5-3a.5.5 0 0 1 .5.5v1.5a.5.5 0 0 1-.5.5H12a.5.5 0 0 1 0-1h.468a2 2 0 0 0-.933-.25a2 2 0 0 0-1.45.586a.5.5 0 0 1-.706-.707A3 3 0 0 1 13 9.152V9a.5.5 0 0 1 .5-.5m-.876 5.532A3 3 0 0 1 10 13.848V14a.5.5 0 0 1-1 0v-1.5a.5.5 0 0 1 .5-.5H11a.5.5 0 0 1 0 1h-.468q.075.042.155.077a2 2 0 0 0 2.227-.413a.5.5 0 0 1 .707.707c-.285.285-.624.51-.997.66"/></svg>