<svg xmlns="http://www.w3.org/2000/svg" xmlns:xlink="http://www.w3.org/1999/xlink" width="48" height="48" viewBox="0 0 48 48"><path fill="currentColor" d="M21.055 17.228a6 6 0 1 0 0-10.456A7.97 7.97 0 0 1 22.999 12a7.97 7.97 0 0 1-1.944 5.228M24 42a9 9 0 0 1-2.28-.292A10.98 10.98 0 0 0 25.998 33v-9.25a5.73 5.73 0 0 0-1.39-3.75h4.643a3.75 3.75 0 0 1 3.75 3.75V33a9 9 0 0 1-9 9m6.054-24.77a6 6 0 1 0 0-10.462A7.97 7.97 0 0 1 32.002 12c0 2-.734 3.828-1.947 5.23M33 42c-.787 0-1.55-.101-2.278-.29a10.98 10.98 0 0 0 4.28-8.71v-9.25A5.73 5.73 0 0 0 33.61 20h4.639A3.75 3.75 0 0 1 42 23.75V33a9 9 0 0 1-9 9M9.75 20A3.75 3.75 0 0 0 6 23.75V33a9 9 0 1 0 18 0v-9.25A3.75 3.75 0 0 0 20.25 20zM15 18a6 6 0 1 0 0-12a6 6 0 0 0 0 12"/></svg>