<svg xmlns="http://www.w3.org/2000/svg" xmlns:xlink="http://www.w3.org/1999/xlink" width="24" height="24" viewBox="0 0 24 24"><path fill="currentColor" d="M8 4.5a2.5 2.5 0 1 0 0 5a2.5 2.5 0 0 0 0-5M4 7a4 4 0 1 1 8 0a4 4 0 0 1-8 0m13-.5a1.5 1.5 0 1 0 0 3a1.5 1.5 0 0 0 0-3M14 8a3 3 0 1 1 6 0a3 3 0 0 1-6 0M2 15.25A2.25 2.25 0 0 1 4.25 13h7.5c.316 0 .617.065.89.183c-.354.398-.66.84-.908 1.317H4.25a.75.75 0 0 0-.75.75c0 .112-.005.225.006.336a3 3 0 0 0 .514 1.358C4.515 17.65 5.579 18.5 8 18.5c1.413 0 2.363-.29 3.008-.67c.027.536.119 1.055.268 1.55c-.835.38-1.907.62-3.276.62c-2.828 0-4.39-1.025-5.208-2.195a4.5 4.5 0 0 1-.778-2.07a3 3 0 0 1-.012-.158C1.997 15.468 2 15.36 2 15.25M17.5 12a5.5 5.5 0 1 1 0 11a5.5 5.5 0 0 1 0-11m2.997 6a.5.5 0 0 0 0-1h-6.001a.5.5 0 0 0 0 1z"/></svg>