<svg xmlns="http://www.w3.org/2000/svg" xmlns:xlink="http://www.w3.org/1999/xlink" width="24" height="24" viewBox="0 0 24 24"><path fill="currentColor" d="M8 11a4 4 0 1 0 0-8a4 4 0 0 0 0 8m9 0a3 3 0 1 0 0-6a3 3 0 0 0 0 6M4.25 13A2.25 2.25 0 0 0 2 15.25v.25S2 20 8 20c1.39 0 2.458-.241 3.278-.613A6.5 6.5 0 0 1 11 17.5c0-1.657.62-3.169 1.64-4.317a2.2 2.2 0 0 0-.89-.183zM23 17.5a5.5 5.5 0 1 1-11 0a5.5 5.5 0 0 1 11 0M17.5 14a.5.5 0 0 0-.5.5v4a.5.5 0 0 0 1 0v-4a.5.5 0 0 0-.5-.5m0 7.125a.625.625 0 1 0 0-1.25a.625.625 0 0 0 0 1.25"/></svg>