<svg xmlns="http://www.w3.org/2000/svg" xmlns:xlink="http://www.w3.org/1999/xlink" width="24" height="24" viewBox="0 0 24 24"><path fill="currentColor" d="M4 7a4 4 0 1 1 8 0a4 4 0 0 1-8 0m4-2.5a2.5 2.5 0 1 0 0 5a2.5 2.5 0 0 0 0-5M14 8a3 3 0 1 1 6 0a3 3 0 0 1-6 0m3-1.5a1.5 1.5 0 1 0 0 3a1.5 1.5 0 0 0 0-3M2 15.25A2.25 2.25 0 0 1 4.25 13h7.5c.316 0 .617.065.89.183c-.354.398-.66.84-.908 1.317H4.25a.75.75 0 0 0-.75.75v.257l.007.08c.007.074.023.188.055.329c.066.281.198.656.459 1.029C4.514 17.65 5.578 18.5 8 18.5c1.413 0 2.363-.29 3.008-.67c.027.536.119 1.055.268 1.55c-.835.38-1.907.62-3.276.62c-2.828 0-4.39-1.025-5.208-2.195a4.5 4.5 0 0 1-.778-2.07A3 3 0 0 1 2 15.529zm10 2.25a5.5 5.5 0 1 0 11 0a5.5 5.5 0 0 0-11 0m8.5-3.5a.5.5 0 0 1 .5.5v2a.5.5 0 0 1-.5.5h-2a.5.5 0 0 1 0-1h1a2.5 2.5 0 0 0-2-1c-.833 0-1.572.407-2.027 1.036a.5.5 0 0 1-.81-.586A3.5 3.5 0 0 1 17.5 14c.98 0 1.865.403 2.5 1.05v-.55a.5.5 0 0 1 .5-.5M15 19.95v.55a.5.5 0 0 1-1 0v-2a.5.5 0 0 1 .5-.5h2a.5.5 0 0 1 0 1h-1c.456.608 1.183 1 2 1c.766 0 1.452-.344 1.911-.888a.5.5 0 0 1 .764.645A3.5 3.5 0 0 1 17.5 21a3.5 3.5 0 0 1-2.5-1.05"/></svg>