<svg xmlns="http://www.w3.org/2000/svg" xmlns:xlink="http://www.w3.org/1999/xlink" width="20" height="20" viewBox="0 0 20 20"><path fill="currentColor" d="M4.5 5.75a2.25 2.25 0 1 1 4.5 0a2.25 2.25 0 0 1-4.5 0M6.75 2.5a3.25 3.25 0 1 0 0 6.5a3.25 3.25 0 0 0 0-6.5M1.5 12a2 2 0 0 1 2-2H10a2 2 0 0 1 .993.263q-.416.346-.758.765A1 1 0 0 0 10 11H3.5a1 1 0 0 0-1 1v.078l.007.083a2.95 2.95 0 0 0 .498 1.336C3.492 14.201 4.513 15 6.75 15c.954 0 1.687-.145 2.252-.367q.013.525.12 1.02C8.476 15.87 7.695 16 6.75 16c-2.513 0-3.867-.92-4.568-1.934a3.95 3.95 0 0 1-.67-1.807a3 3 0 0 1-.012-.175zM13 6.5a1.5 1.5 0 1 1 3 0a1.5 1.5 0 0 1-3 0M14.5 4a2.5 2.5 0 1 0 0 5a2.5 2.5 0 0 0 0-5M10 14.5a4.5 4.5 0 1 0 9 0a4.5 4.5 0 0 0-9 0m6.5-3a.5.5 0 0 1 .5.5v1.5a.5.5 0 0 1-.5.5H15a.5.5 0 0 1 0-1h.468a2 2 0 0 0-2.383.336a.5.5 0 0 1-.706-.707A3 3 0 0 1 16 12.152V12a.5.5 0 0 1 .5-.5m-.876 5.532A3 3 0 0 1 13 16.848V17a.5.5 0 0 1-1 0v-1.5a.5.5 0 0 1 .5-.5H14a.5.5 0 0 1 0 1h-.468q.075.042.155.077a2 2 0 0 0 2.227-.413a.5.5 0 0 1 .707.707c-.284.285-.624.51-.997.66"/></svg>