<svg xmlns="http://www.w3.org/2000/svg" xmlns:xlink="http://www.w3.org/1999/xlink" width="20" height="20" viewBox="0 0 20 20"><path fill="currentColor" d="M4.5 6.75a2.25 2.25 0 1 1 4.5 0a2.25 2.25 0 0 1-4.5 0M6.75 3.5a3.25 3.25 0 1 0 0 6.5a3.25 3.25 0 0 0 0-6.5m5.687 11.645c.538.22 1.215.355 2.063.355c1.881 0 2.921-.668 3.469-1.434a2.9 2.9 0 0 0 .521-1.36a2 2 0 0 0 .01-.137V12.5A1.5 1.5 0 0 0 17 11h-4.63c.24.29.42.629.525 1H17a.5.5 0 0 1 .5.5v.054l-.005.05a1.9 1.9 0 0 1-.34.88c-.327.459-1.037 1.016-2.655 1.016c-.732 0-1.278-.114-1.687-.281c-.082.28-.201.596-.376.926M1.5 13a2 2 0 0 1 2-2H10a2 2 0 0 1 2 2v.084l-.002.04l-.01.135a3.95 3.95 0 0 1-.67 1.806C10.617 16.08 9.263 17 6.75 17s-3.867-.92-4.568-1.934a3.95 3.95 0 0 1-.67-1.807a3 3 0 0 1-.012-.175zm1 .06v.018l.007.083a2.95 2.95 0 0 0 .498 1.336C3.492 15.201 4.513 16 6.75 16s3.258-.799 3.745-1.503a2.95 2.95 0 0 0 .498-1.336q.006-.057.006-.083l.001-.017V13a1 1 0 0 0-1-1H3.5a1 1 0 0 0-1 1zM13 7.5a1.5 1.5 0 1 1 3 0a1.5 1.5 0 0 1-3 0M14.5 5a2.5 2.5 0 1 0 0 5a2.5 2.5 0 0 0 0-5"/></svg>