<svg xmlns="http://www.w3.org/2000/svg" xmlns:xlink="http://www.w3.org/1999/xlink" width="16" height="16" viewBox="0 0 16 16"><path fill="currentColor" d="M4 5.5a1.5 1.5 0 1 1 3 0a1.5 1.5 0 0 1-3 0M5.5 3a2.5 2.5 0 1 0 0 5a2.5 2.5 0 0 0 0-5m5 3a1 1 0 1 1 2 0a1 1 0 0 1-2 0m1-2a2 2 0 1 0 0 4a2 2 0 0 0 0-4m-10 6.5A1.5 1.5 0 0 1 3 9h5a1.5 1.5 0 0 1 1.5 1.5v.112a1 1 0 0 1-.01.137a2.85 2.85 0 0 1-.524 1.342C8.419 12.846 7.379 13.5 5.5 13.5s-2.918-.654-3.467-1.409a2.85 2.85 0 0 1-.523-1.342a2 2 0 0 1-.01-.137zm1 .09v.007l.004.049a1.85 1.85 0 0 0 .338.857c.326.448 1.036.997 2.658.997s2.332-.549 2.658-.997a1.85 1.85 0 0 0 .338-.857l.004-.05V10.5A.5.5 0 0 0 8 10H3a.5.5 0 0 0-.5.5zm9 1.91c-.588 0-1.07-.09-1.46-.238a4 4 0 0 0 .361-.932c.268.101.624.17 1.099.17c1.119 0 1.578-.382 1.78-.666a1.2 1.2 0 0 0 .218-.56l.002-.028a.25.25 0 0 0-.25-.246h-2.8A2.5 2.5 0 0 0 10 9h3.25c.69 0 1.25.56 1.25 1.25v.017a1 1 0 0 1-.008.109a2.2 2.2 0 0 1-.398 1.04c-.422.591-1.213 1.084-2.594 1.084"/></svg>