<svg xmlns="http://www.w3.org/2000/svg" xmlns:xlink="http://www.w3.org/1999/xlink" width="28" height="28" viewBox="0 0 28 28"><path fill="currentColor" d="M9.5 13a4.5 4.5 0 1 0 0-9a4.5 4.5 0 0 0 0 9m14-3.5a3.5 3.5 0 1 1-7 0a3.5 3.5 0 0 1 7 0M2 17.25A2.25 2.25 0 0 1 4.25 15h10.5q.298.001.573.074A7.48 7.48 0 0 0 13 20.5c0 .665.086 1.309.249 1.922c-.975.355-2.203.578-3.749.578C2 23 2 17.75 2 17.75zm25 3.25a6.5 6.5 0 1 1-13 0a6.5 6.5 0 0 1 13 0m-5.786-3.96a.742.742 0 0 0-1.428 0l-.716 2.298h-2.318c-.727 0-1.03.97-.441 1.416l1.875 1.42l-.716 2.298c-.225.721.567 1.32 1.155.875l1.875-1.42l1.875 1.42c.588.446 1.38-.154 1.155-.875l-.716-2.298l1.875-1.42c.588-.445.286-1.416-.441-1.416H21.93z"/></svg>