<svg xmlns="http://www.w3.org/2000/svg" xmlns:xlink="http://www.w3.org/1999/xlink" width="48" height="48" viewBox="0 0 48 48"><path fill="currentColor" d="M16 24a8 8 0 1 0 0-16a8 8 0 0 0 0 16m18 0a6 6 0 1 0 0-12a6 6 0 0 0 0 12M6.75 27A3.75 3.75 0 0 0 3 30.75V32s0 9 13 9c3.394 0 5.902-.614 7.755-1.52A8.34 8.34 0 0 1 21 33.25A8.34 8.34 0 0 1 23.778 27zM23 33.25A6.25 6.25 0 0 1 29.25 27h1.5a1.25 1.25 0 1 1 0 2.5h-1.5a3.75 3.75 0 1 0 0 7.5h1.5a1.25 1.25 0 1 1 0 2.5h-1.5A6.25 6.25 0 0 1 23 33.25m22 0A6.25 6.25 0 0 0 38.75 27h-1.5a1.25 1.25 0 1 0 0 2.5h1.5a3.75 3.75 0 1 1 0 7.5h-1.5a1.25 1.25 0 1 0 0 2.5h1.5A6.25 6.25 0 0 0 45 33.25m-17 0c0-.69.56-1.25 1.25-1.25h9.5a1.25 1.25 0 1 1 0 2.5h-9.5c-.69 0-1.25-.56-1.25-1.25"/></svg>