<svg xmlns="http://www.w3.org/2000/svg" xmlns:xlink="http://www.w3.org/1999/xlink" width="28" height="28" viewBox="0 0 28 28"><path fill="currentColor" d="M3 19v.715C3 23.434 7.211 26 13 26q.51-.001 1.003-.029L14 25.94v-1.472q-.489.031-1 .032c-5.111 0-8.5-2.111-8.5-4.785V19l.007-.145A1.5 1.5 0 0 1 6 17.5h10.19l1.761-1.5H6a3 3 0 0 0-3 3m10-5a6 6 0 1 0 0-12a6 6 0 0 0 0 12m0-10.5a4.5 4.5 0 1 1 0 9a4.5 4.5 0 0 1 0-9m6.61 12.406a1.376 1.376 0 0 1 1.781 0l4.125 3.506c.307.261.484.644.484 1.048v5.483c0 .584-.474 1.058-1.058 1.058h-1.385a1.06 1.06 0 0 1-1.058-1.058v-3.096a.846.846 0 0 0-.842-.846h-2.315a.845.845 0 0 0-.842.846v3.096c0 .584-.474 1.058-1.058 1.058h-1.385a1.06 1.06 0 0 1-1.058-1.058V20.46c0-.403.177-.786.484-1.048l4.125-3.506z"/></svg>