<svg xmlns="http://www.w3.org/2000/svg" xmlns:xlink="http://www.w3.org/1999/xlink" width="24" height="24" viewBox="0 0 24 24"><path fill="currentColor" d="M11.313 15.5a6.473 6.473 0 0 1 .709-1.5h-6.77a2.249 2.249 0 0 0-2.248 2.249v.578c0 .892.318 1.756.898 2.435c1.566 1.834 3.952 2.74 7.098 2.74c.6 0 1.173-.034 1.717-.1a6.518 6.518 0 0 1-.994-1.42c-.234.013-.475.02-.723.02c-2.738 0-4.704-.747-5.957-2.214a2.25 2.25 0 0 1-.54-1.462v-.577a.75.75 0 0 1 .75-.75h6.06ZM11 2.005a5 5 0 1 1 0 10a5 5 0 0 1 0-10Zm0 1.5a3.5 3.5 0 1 0 0 7a3.5 3.5 0 0 0 0-7ZM23 17.5a5.5 5.5 0 1 1-11 0a5.5 5.5 0 0 1 11 0Zm-9.5 0a4 4 0 1 0 8 0a4 4 0 0 0-8 0Zm5-2a1 1 0 1 1-2 0a1 1 0 0 1 2 0Zm-.25 2.5a.75.75 0 0 0-1.5 0v1.75a.75.75 0 0 0 1.5 0V18Z"/></svg>