<svg xmlns="http://www.w3.org/2000/svg" xmlns:xlink="http://www.w3.org/1999/xlink" width="48" height="48" viewBox="0 0 48 48"><path fill="currentColor" d="M13.1 7.278a5.247 5.247 0 0 1 6.95-2.844l2.946 1.277c.69.299 1.472.302 2.164.01l2.958-1.253a5.247 5.247 0 0 1 6.924 2.903l1.18 2.987a2.75 2.75 0 0 0 1.524 1.536l2.976 1.207a5.247 5.247 0 0 1 2.844 6.948l-1.277 2.947a2.75 2.75 0 0 0-.01 2.164l1.253 2.958a5.247 5.247 0 0 1-2.903 6.924l-2.987 1.18a2.75 2.75 0 0 0-1.536 1.524l-1.207 2.976a5.247 5.247 0 0 1-6.948 2.844l-2.947-1.277a2.75 2.75 0 0 0-2.164-.01l-2.958 1.252a5.247 5.247 0 0 1-6.924-2.902l-1.18-2.987a2.75 2.75 0 0 0-1.524-1.536l-2.976-1.207a5.247 5.247 0 0 1-2.844-6.948l1.277-2.947c.299-.69.302-1.472.01-2.164l-1.253-2.958a5.247 5.247 0 0 1 2.903-6.924l2.987-1.18a2.75 2.75 0 0 0 1.536-1.524zM30.036 24H17a3 3 0 0 0-3 3v1c0 2.487 1.48 5.02 4.15 6.551c1.66 1.02 3.704 1.519 5.85 1.519c2.142 0 4.183-.498 5.843-1.514C32.517 33.026 34 30.49 34 28v-1a3 3 0 0 0-3-3h-.966M24 11a5.5 5.5 0 1 0 0 11a5.5 5.5 0 0 0 0-11"/></svg>