<svg xmlns="http://www.w3.org/2000/svg" xmlns:xlink="http://www.w3.org/1999/xlink" width="20" height="20" viewBox="0 0 20 20"><path fill="currentColor" d="M9 2a4 4 0 1 0 0 8a4 4 0 0 0 0-8m-4.991 9A2 2 0 0 0 2 13c0 1.691.833 2.966 2.135 3.797C5.417 17.614 7.145 18 9 18c.639 0 1.263-.046 1.859-.14c-.921-.43-1.21-1.755-.326-2.504l.966-.82V13q0-.184.016-.363l-.576-.576A1.5 1.5 0 0 1 10.5 11zm14.637 7.354L17.293 17h-5.79a.5.5 0 0 1-.323-.881L12.5 15v-2q0-.367.084-.71l-.938-.936a.5.5 0 0 1 .708-.708l7 7a.5.5 0 0 1-.708.708m-.146-2.976l-4.788-4.788A3 3 0 0 1 18.499 13zM15.5 19a1.5 1.5 0 0 1-1.415-1h2.829a1.5 1.5 0 0 1-1.415 1"/></svg>