<svg xmlns="http://www.w3.org/2000/svg" xmlns:xlink="http://www.w3.org/1999/xlink" width="48" height="48" viewBox="0 0 48 48"><path fill="currentColor" d="M8.25 30.5h19.082l2.941-2.5H8.25A4.25 4.25 0 0 0 4 32.249V33c0 3.755 1.942 6.567 4.92 8.38C11.849 43.163 15.786 44 20 44c1.373 0 2.711-.099 4-.28v-2.521a26 26 0 0 1-4 .302c-3.932 0-7.37-.788-9.78-2.255c-2.36-1.437-3.72-3.5-3.72-6.245v-.751c0-.966.783-1.75 1.75-1.75M20 24c5.523 0 10-4.477 10-10S25.523 4 20 4S10 8.477 10 14s4.477 10 10 10m0-17.5a7.5 7.5 0 1 1 0 15a7.5 7.5 0 0 1 0-15m13.543 21.345a2.25 2.25 0 0 1 2.914 0l6.75 5.737c.503.427.793 1.054.793 1.714v8.972c0 .956-.775 1.731-1.731 1.731h-2.538A1.73 1.73 0 0 1 38 44.268v-4.885c0-.763-.617-1.381-1.379-1.385h-3.243a1.385 1.385 0 0 0-1.379 1.385v4.885c0 .956-.775 1.731-1.731 1.731H27.73a1.73 1.73 0 0 1-1.731-1.731v-8.972c0-.66.29-1.287.793-1.714z"/></svg>