<svg xmlns="http://www.w3.org/2000/svg" xmlns:xlink="http://www.w3.org/1999/xlink" width="16" height="16" viewBox="0 0 16 16"><path fill="currentColor" d="M6 14h.089a1.5 1.5 0 0 1-.006-1H6c-2.568 0-4-1.562-4-3v-.5a.5.5 0 0 1 .5-.5h4.382A1.5 1.5 0 0 1 6.5 8h-4A1.5 1.5 0 0 0 1 9.5v.5c0 1.971 1.86 4 5 4m1.256-7.303q.037-.021.075-.04A2.75 2.75 0 0 0 6 1.5a2.75 2.75 0 1 0 1.256 5.197M6 2.5A1.75 1.75 0 1 1 6 6a1.75 1.75 0 0 1 0-3.5m8.646 12.854L13.293 14h-5.79a.5.5 0 0 1-.323-.881L8.5 12v-2q0-.367.084-.71l-.938-.936a.5.5 0 1 1 .708-.708l7 7a.5.5 0 0 1-.708.708m-.147-2.976L9.712 7.59A3 3 0 0 1 14.499 10zM11.5 16a1.5 1.5 0 0 1-1.414-1h2.829a1.5 1.5 0 0 1-1.415 1"/></svg>