<svg xmlns="http://www.w3.org/2000/svg" xmlns:xlink="http://www.w3.org/1999/xlink" width="24" height="24" viewBox="0 0 24 24"><path fill="currentColor" d="m13.709 15.5l.75-1.5H6.252a2.25 2.25 0 0 0-2.25 2.249v.578c0 .892.32 1.756.9 2.435c1.404 1.644 3.467 2.542 6.147 2.71a2.47 2.47 0 0 1 .173-1.492c-2.337-.13-4.049-.867-5.18-2.192a2.25 2.25 0 0 1-.54-1.462v-.577a.75.75 0 0 1 .75-.75zM12 2.005a5 5 0 1 1 0 10a5 5 0 0 1 0-10m0 1.5a3.5 3.5 0 1 0 0 7a3.5 3.5 0 0 0 0-7m4.161 9.325l-3.997 7.998A1.5 1.5 0 0 0 13.507 23h7.994a1.5 1.5 0 0 0 1.343-2.172l-3.997-7.998c-.553-1.107-2.133-1.107-2.686 0m1.843 2.666v3.001a.5.5 0 0 1-1 0v-3.001a.5.5 0 0 1 1 0m-.5 5.503a.5.5 0 1 1 0-1.001a.5.5 0 0 1 0 1"/></svg>