<svg xmlns="http://www.w3.org/2000/svg" xmlns:xlink="http://www.w3.org/1999/xlink" width="28" height="28" viewBox="0 0 28 28"><path fill="currentColor" d="M24.666 13.833c-.293.293-.77.295-1.038-.021A8.96 8.96 0 0 1 21.5 8c0-2.216.8-4.245 2.128-5.813c.268-.316.745-.314 1.038-.021s.29.766.028 1.086A7.47 7.47 0 0 0 23 8c0 1.801.635 3.454 1.694 4.747c.262.32.265.793-.028 1.086m2.122-9.546c-.293-.293-.772-.295-1.027.032a5.97 5.97 0 0 0-1.261 3.68a5.97 5.97 0 0 0 1.261 3.681c.255.327.734.325 1.027.032s.287-.765.046-1.102A4.48 4.48 0 0 1 26 8c0-.973.309-1.874.834-2.61c.24-.338.247-.81-.046-1.103M21 16a3 3 0 0 1 3 3v.715C24 23.292 19.79 26 14 26S4 23.433 4 19.715V19a3 3 0 0 1 3-3zM14 2a6 6 0 1 1 0 12a6 6 0 0 1 0-12M3.837 13.833c-.293-.293-.29-.765-.027-1.086A7.47 7.47 0 0 0 5.503 8A7.47 7.47 0 0 0 3.81 3.252c-.263-.32-.266-.793.027-1.086s.77-.295 1.038.021a8.96 8.96 0 0 1 2.128 5.81v.006a8.96 8.96 0 0 1-2.128 5.809c-.268.316-.745.314-1.038.021M2.742 11.68c-.254.327-.733.325-1.026.032s-.287-.765-.047-1.102A4.48 4.48 0 0 0 2.503 8a4.48 4.48 0 0 0-.834-2.61c-.24-.338-.246-.81.047-1.103s.772-.295 1.026.032a5.97 5.97 0 0 1 1.261 3.68a5.97 5.97 0 0 1-1.261 3.681"/></svg>