<svg xmlns="http://www.w3.org/2000/svg" xmlns:xlink="http://www.w3.org/1999/xlink" width="32" height="32" viewBox="0 0 32 32"><path fill="currentColor" d="M16 16a7 7 0 1 0 0-14a7 7 0 0 0 0 14m-8.5 2A3.5 3.5 0 0 0 4 21.5v.5c0 2.394 1.523 4.418 3.685 5.794C9.859 29.177 12.802 30 16 30c1.142 0 2.251-.105 3.305-.303A2.5 2.5 0 0 1 21 26.05v-.415a2.5 2.5 0 0 1-1.739-2.622L19.74 18zm13.755-.095A1 1 0 0 1 22.25 17h6.25a1 1 0 1 1 0 2h-5.34l-.295 3.09l1.91-.26a4.606 4.606 0 1 1 .62 9.17h-.617a5.22 5.22 0 0 1-3.532-1.375l-.422-.388a1 1 0 0 1 1.352-1.474l.423.388a3.22 3.22 0 0 0 2.179.849h.616a2.606 2.606 0 1 0-.35-5.188l-3.16.429a1 1 0 0 1-1.13-1.086z"/></svg>