<svg xmlns="http://www.w3.org/2000/svg" xmlns:xlink="http://www.w3.org/1999/xlink" width="20" height="20" viewBox="0 0 20 20"><path fill="currentColor" d="M10.748 1.633c0-.308.273-.547.572-.473a5.5 5.5 0 0 1 1.52.63c.264.16.288.521.07.739a.55.55 0 0 1-.665.071a4.5 4.5 0 0 0-1.077-.446a.55.55 0 0 1-.42-.521M5.131 7.25c.248 0 .457.18.52.42a4.5 4.5 0 0 0 .447 1.077a.55.55 0 0 1-.071.665c-.218.218-.58.194-.738-.07a5.5 5.5 0 0 1-.631-1.52c-.074-.3.165-.572.473-.572m9.578-3.59c-.16-.264-.52-.288-.739-.07a.55.55 0 0 0-.071.665c.192.334.344.694.446 1.075a.55.55 0 0 0 .52.42c.309 0 .547-.272.473-.571a5.5 5.5 0 0 0-.63-1.52m.157 3.59c.308 0 .546.273.473.571a5.5 5.5 0 0 1-.63 1.52c-.16.263-.52.287-.739.07a.55.55 0 0 1-.071-.665a4.5 4.5 0 0 0 .446-1.076a.55.55 0 0 1 .52-.42M5.13 5.75c.248 0 .457-.18.52-.42c.103-.38.254-.742.447-1.077a.55.55 0 0 0-.071-.665c-.218-.217-.58-.193-.738.07a5.5 5.5 0 0 0-.631 1.521c-.074.299.165.571.473.571m4.117-4.117a.55.55 0 0 1-.42.52a4.5 4.5 0 0 0-1.075.447a.55.55 0 0 1-.665-.072c-.218-.218-.194-.58.07-.738a5.5 5.5 0 0 1 1.519-.63c.299-.074.571.165.571.473M5.008 11A2 2 0 0 0 3 13c0 1.691.833 2.966 2.135 3.797C6.417 17.614 8.145 18 10 18s3.583-.386 4.865-1.203C16.167 15.967 17 14.69 17 13a2 2 0 0 0-2-2zM10 9.5a3 3 0 1 0 0-6a3 3 0 0 0 0 6"/></svg>