<svg xmlns="http://www.w3.org/2000/svg" xmlns:xlink="http://www.w3.org/1999/xlink" width="20" height="20" viewBox="0 0 20 20"><path fill="currentColor" d="M15.5 10a1.5 1.5 0 0 1 1.5 1.5v.5h.5a1.5 1.5 0 0 1 1.5 1.5v4a1.5 1.5 0 0 1-1.5 1.5h-6a1.5 1.5 0 0 1-1.5-1.5v-4a1.5 1.5 0 0 1 1.5-1.5h.5v-.5a1.5 1.5 0 0 1 1.5-1.5zm-2 1a.5.5 0 0 0-.5.5v.5h3v-.5a.5.5 0 0 0-.5-.5zm-2.458.042A2.5 2.5 0 0 0 9 13.5v4q0 .256.05.499L9 18c-1.855 0-3.583-.386-4.865-1.203C2.833 15.967 2 14.69 2 13c0-1.113.903-2 2.009-2h7.043zM9 2a4 4 0 1 1 0 8a4 4 0 0 1 0-8"/></svg>