<svg xmlns="http://www.w3.org/2000/svg" xmlns:xlink="http://www.w3.org/1999/xlink" width="32" height="32" viewBox="0 0 32 32"><path fill="currentColor" d="M16 16a7 7 0 1 0 0-14a7 7 0 0 0 0 14m-8.5 2A3.5 3.5 0 0 0 4 21.5v.5c0 2.393 1.523 4.417 3.685 5.793C9.859 29.177 12.802 30 16 30a18 18 0 0 0 3.563-.354l-4.324-4.618c-1.832-1.956-1.965-4.925-.446-7.028zm8.651 6.174l6.079 6.491a1.047 1.047 0 0 0 1.534 0l6.082-6.486c1.598-1.704 1.528-4.41-.157-6.026a4.11 4.11 0 0 0-6.084.419l-.608.765l-.608-.765a4.105 4.105 0 0 0-6.082-.415c-1.319 1.267-1.645 3.203-.954 4.8l.02.044c.188.422.447.819.778 1.173m4.8 5.125l-4.8-5.125a4.3 4.3 0 0 1-.518-.68"/></svg>