<svg xmlns="http://www.w3.org/2000/svg" xmlns:xlink="http://www.w3.org/1999/xlink" width="24" height="24" viewBox="0 0 24 24"><path fill="currentColor" d="M9.84 2.034q.168.058.329.136l1.283.632a1.25 1.25 0 0 0 1.104 0l1.283-.632a2.75 2.75 0 0 1 3.681 1.253l.074.162l.063.167l.46 1.353c.125.368.414.656.781.781l1.354.46a2.75 2.75 0 0 1 1.581 3.819l-.631 1.283a1.25 1.25 0 0 0 0 1.104l.631 1.283a2.75 2.75 0 0 1-1.581 3.818l-1.354.46a1.25 1.25 0 0 0-.78.781l-.461 1.354a2.75 2.75 0 0 1-3.818 1.581l-1.283-.631a1.25 1.25 0 0 0-1.104 0l-1.283.631a2.75 2.75 0 0 1-3.818-1.581l-.46-1.354a1.25 1.25 0 0 0-.782-.78l-1.353-.461a2.75 2.75 0 0 1-1.582-3.818l.632-1.283a1.25 1.25 0 0 0 0-1.104l-.632-1.283a2.75 2.75 0 0 1 1.582-3.818l1.353-.46a1.25 1.25 0 0 0 .781-.782l.46-1.353a2.75 2.75 0 0 1 3.49-1.718M15.017 12H8.5A1.5 1.5 0 0 0 7 13.5v.5c0 1.244.74 2.51 2.075 3.276c.83.51 1.852.759 2.925.759c1.071 0 2.091-.249 2.921-.757C16.26 16.513 17 15.245 17 14v-.5a1.5 1.5 0 0 0-1.5-1.5zM12 5.5a2.75 2.75 0 1 0 0 5.5a2.75 2.75 0 0 0 0-5.5"/></svg>