<svg xmlns="http://www.w3.org/2000/svg" xmlns:xlink="http://www.w3.org/1999/xlink" width="24" height="24" viewBox="0 0 24 24"><path fill="currentColor" d="M12.526 15.5a5 5 0 0 1 .39-1.5H4.254a2.25 2.25 0 0 0-2.25 2.249v.578c0 .892.32 1.756.9 2.435c1.565 1.834 3.952 2.74 7.097 2.74q1.005 0 1.906-.124l-.046-.02a1.5 1.5 0 0 1-.862-1.392q-.48.035-.998.035c-2.738 0-4.704-.746-5.957-2.213a2.25 2.25 0 0 1-.54-1.462v-.577a.75.75 0 0 1 .75-.75zM10 2.005a5 5 0 1 1 0 10a5 5 0 0 1 0-10m0 1.5a3.5 3.5 0 1 0 0 7a3.5 3.5 0 0 0 0-7M17.503 12a4 4 0 0 0-4 4v3l-.95.8c-.307.26-.46.39-.507.491a.5.5 0 0 0 .242.662c.1.047.302.047.704.047h9.02c.403 0 .604 0 .705-.047a.5.5 0 0 0 .242-.662c-.047-.101-.2-.231-.508-.49L21.503 19v-3a4 4 0 0 0-4-4m1.5 10c-.219.583-.808 1-1.5 1c-.693 0-1.282-.417-1.5-1z"/></svg>