<svg xmlns="http://www.w3.org/2000/svg" xmlns:xlink="http://www.w3.org/1999/xlink" width="32" height="32" viewBox="0 0 32 32"><path fill="currentColor" d="M16 16a7 7 0 1 0 0-14a7 7 0 0 0 0 14m-8.5 2A3.5 3.5 0 0 0 4 21.5v.5c0 2.393 1.523 4.417 3.685 5.793C9.859 29.177 12.802 30 16 30c2.718 0 5.25-.594 7.285-1.622v-5.067A5.78 5.78 0 0 1 20.735 18zm17.07 9.626v-5.06a4.5 4.5 0 1 1 3.215.248V23l1.474 1.474a.643.643 0 0 1 0 .91l-1.474 1.473l1.493 1.493a.643.643 0 0 1 .019.89l-2.344 2.55a.643.643 0 0 1-.928.02l-1.266-1.266a.64.64 0 0 1-.188-.454zm3.055-10.25a1.125 1.125 0 1 0-2.25 0a1.125 1.125 0 0 0 2.25 0"/></svg>