<svg xmlns="http://www.w3.org/2000/svg" xmlns:xlink="http://www.w3.org/1999/xlink" width="16" height="16" viewBox="0 0 16 16"><path fill="currentColor" d="M3.5 1A2.5 2.5 0 0 0 1 3.5v7A2.5 2.5 0 0 0 3.5 13h2.707a5.5 5.5 0 0 1-.1-2.583c-1.4-.285-1.87-1.258-2.027-2.171C3.962 7.566 4.56 7 5.25 7h3.087c.895-.63 1.986-1 3.163-1a5.5 5.5 0 0 1 1.5.207V3.5A2.5 2.5 0 0 0 10.5 1zM7 6a1.5 1.5 0 1 1 0-3a1.5 1.5 0 0 1 0 3m9 5.5a4.5 4.5 0 1 1-9 0a4.5 4.5 0 0 1 9 0m-2.146-1.854a.5.5 0 0 0-.708 0L10.5 12.293l-.646-.647a.5.5 0 0 0-.708.708l1 1a.5.5 0 0 0 .708 0l3-3a.5.5 0 0 0 0-.708"/></svg>