<svg xmlns="http://www.w3.org/2000/svg" xmlns:xlink="http://www.w3.org/1999/xlink" width="24" height="24" viewBox="0 0 24 24"><path fill="currentColor" d="M17.5 12a5.5 5.5 0 1 1 0 11a5.5 5.5 0 0 1 0-11m-5.477 2A6.47 6.47 0 0 0 11 17.5c0 1.644.61 3.146 1.617 4.29q-1.203.212-2.617.211c-2.89 0-5.128-.656-6.69-2a3.75 3.75 0 0 1-1.306-2.844v-.907A2.25 2.25 0 0 1 4.254 14zm4.697.589l-.07.058l-2.515 2.516l-.04.05l-.036.058l-.032.078l-.011.043l-.012.087l.004.087l.02.085l.031.078l.025.042l.05.066l2.516 2.517a.5.5 0 0 0 .765-.638l-.058-.07L15.711 18h4.79a.5.5 0 0 0 .491-.41L21 17.5a.5.5 0 0 0-.41-.492L20.5 17h-4.789l1.646-1.646a.5.5 0 0 0 .058-.638l-.058-.07a.5.5 0 0 0-.637-.057M10 2.005a5 5 0 1 1 0 10a5 5 0 0 1 0-10"/></svg>