<svg xmlns="http://www.w3.org/2000/svg" xmlns:xlink="http://www.w3.org/1999/xlink" width="24" height="24" viewBox="0 0 24 24"><path fill="currentColor" d="M9.996 12.003a5 5 0 1 0-.001-10.001a5 5 0 0 0 .001 10.001m0-8.499a3.5 3.5 0 1 1 0 7a3.5 3.5 0 0 1 0-7M4.249 15.499h9.124l1.765-1.5H4.249A2.25 2.25 0 0 0 2 16.248v.578c0 .893.319 1.756.898 2.435C4.464 21.095 6.85 22 9.996 22c.708 0 1.373-.053 2.004-.145v-1.514c-.616.103-1.281.159-2.004.159c-2.738 0-4.704-.746-5.958-2.214a2.25 2.25 0 0 1-.539-1.461v-.578c0-.414.335-.749.749-.749zm12.522-1.576a1.125 1.125 0 0 1 1.457 0l3.375 2.869c.251.214.396.527.396.857v4.486a.865.865 0 0 1-.865.865h-1.269a.865.865 0 0 1-.865-.865v-2.442a.69.69 0 0 0-.689-.692H16.69a.69.69 0 0 0-.689.692v2.442a.865.865 0 0 1-.865.865h-1.269a.865.865 0 0 1-.865-.865v-4.486c0-.33.145-.643.396-.857l3.375-2.869z"/></svg>