<svg xmlns="http://www.w3.org/2000/svg" xmlns:xlink="http://www.w3.org/1999/xlink" width="20" height="20" viewBox="0 0 20 20"><path fill="currentColor" d="M9 2a4 4 0 1 0 0 8a4 4 0 0 0 0-8m-4.991 9A2 2 0 0 0 2 13c0 1.691.833 2.966 2.135 3.797C5.417 17.614 7.145 18 9 18q.617 0 1.21-.057A5.48 5.48 0 0 1 9 14.5c0-1.33.472-2.55 1.257-3.5zM14.5 19a4.5 4.5 0 1 0 0-9a4.5 4.5 0 0 0 0 9m-.896-6.396l-.897.896h1.543A2.75 2.75 0 0 1 17 16.25v.25a.5.5 0 0 1-1 0v-.25a1.75 1.75 0 0 0-1.75-1.75h-1.543l.897.896a.5.5 0 0 1-.708.708l-1.752-1.753a.5.5 0 0 1 .002-.705l1.75-1.75a.5.5 0 0 1 .708.708"/></svg>