<svg xmlns="http://www.w3.org/2000/svg" xmlns:xlink="http://www.w3.org/1999/xlink" width="24" height="24" viewBox="0 0 24 24"><path fill="currentColor" d="M19.25 12c.966 0 1.75.784 1.75 1.75V15h.5a1.5 1.5 0 0 1 1.5 1.5v5a1.5 1.5 0 0 1-1.5 1.5h-8a1.5 1.5 0 0 1-1.5-1.5v-5a1.5 1.5 0 0 1 1.5-1.5h.5v-1.25c0-.966.784-1.75 1.75-1.75zm-3.5 1.5a.25.25 0 0 0-.25.25V15h4v-1.25a.25.25 0 0 0-.25-.25zm-2.75.55a2.5 2.5 0 0 0-1.79 1.45H4.252a.75.75 0 0 0-.748.749v.577c0 .536.191 1.054.539 1.461c1.253 1.468 3.219 2.214 5.957 2.214q.519 0 1-.036V21.5q.001.239.044.464A15 15 0 0 1 10 22c-3.146 0-5.532-.905-7.099-2.74a3.75 3.75 0 0 1-.897-2.435v-.577A2.25 2.25 0 0 1 4.252 14H13zM10 2.005a5 5 0 1 1 0 10a5 5 0 0 1 0-10m0 1.5a3.5 3.5 0 1 0 0 7a3.5 3.5 0 0 0 0-7"/></svg>