<svg xmlns="http://www.w3.org/2000/svg" xmlns:xlink="http://www.w3.org/1999/xlink" width="32" height="32" viewBox="0 0 32 32"><path fill="currentColor" d="M7.5 3A4.5 4.5 0 0 0 3 7.5v13A4.5 4.5 0 0 0 7.5 25h13a4.5 4.5 0 0 0 4.5-4.5v-13A4.5 4.5 0 0 0 20.5 3zM5 7.5A2.5 2.5 0 0 1 7.5 5h13A2.5 2.5 0 0 1 23 7.5v13a2.5 2.5 0 0 1-2.5 2.5h-13A2.5 2.5 0 0 1 5 20.5zm6 21a4.5 4.5 0 0 1-3.746-2.005q.122.005.245.005h14a5 5 0 0 0 5-5v-14q0-.123-.005-.246A4.5 4.5 0 0 1 28.5 11v10.5a7 7 0 0 1-7 7zM7.5 16.375A2.375 2.375 0 0 1 9.875 14h8.25a2.375 2.375 0 0 1 2.375 2.375c0 1.714-.793 3.045-2.041 3.91c-1.212.839-2.805 1.215-4.459 1.215s-3.247-.376-4.459-1.215C8.293 19.42 7.5 18.089 7.5 16.375M9.875 16a.375.375 0 0 0-.375.375c0 1.02.438 1.752 1.18 2.266c.78.54 1.936.859 3.32.859s2.54-.32 3.32-.86c.742-.513 1.18-1.246 1.18-2.265a.375.375 0 0 0-.375-.375zM12.5 9.5a1.5 1.5 0 1 1 3 0a1.5 1.5 0 0 1-3 0M14 6a3.5 3.5 0 1 0 0 7a3.5 3.5 0 0 0 0-7"/></svg>