<svg xmlns="http://www.w3.org/2000/svg" xmlns:xlink="http://www.w3.org/1999/xlink" width="20" height="20" viewBox="0 0 20 20"><path fill="currentColor" d="M9 8.5a2 2 0 1 0 0-4a2 2 0 0 0 0 4m0-1a1 1 0 1 1 0-2a1 1 0 0 1 0 2M6.5 9A1.5 1.5 0 0 0 5 10.5c0 .328.04 1.048.624 1.679c.586.633 1.621 1.071 3.374 1.071c1.751 0 2.788-.434 3.375-1.064c.587-.629.627-1.35.627-1.686A1.5 1.5 0 0 0 11.5 9zM6 10.5a.5.5 0 0 1 .5-.5h5a.5.5 0 0 1 .5.5c0 .252-.033.656-.358 1.004s-1.039.746-2.644.746c-1.604 0-2.317-.401-2.64-.75c-.326-.352-.358-.756-.358-1M3 6a3 3 0 0 1 3-3h6a3 3 0 0 1 3 3v6a3 3 0 0 1-3 3H6a3 3 0 0 1-3-3zm3-2a2 2 0 0 0-2 2v6a2 2 0 0 0 2 2h6a2 2 0 0 0 2-2V6a2 2 0 0 0-2-2zm2 13a3 3 0 0 1-2.236-1H12.5a3.5 3.5 0 0 0 3.5-3.5V5.764c.614.55 1 1.348 1 2.236v4.5a4.5 4.5 0 0 1-4.5 4.5z"/></svg>