<svg xmlns="http://www.w3.org/2000/svg" xmlns:xlink="http://www.w3.org/1999/xlink" width="32" height="32" viewBox="0 0 32 32"><path fill="currentColor" d="M23 9A7 7 0 1 1 9 9a7 7 0 0 1 14 0m-2 0a5 5 0 1 0-10 0a5 5 0 0 0 10 0M7.5 18A3.5 3.5 0 0 0 4 21.5v.5c0 2.393 1.523 4.417 3.685 5.793C9.859 29.177 12.802 30 16 30a18 18 0 0 0 3.563-.354l-1.647-1.758q-.929.11-1.916.112c-2.877 0-5.434-.744-7.241-1.894C6.939 24.95 6 23.472 6 22v-.5A1.5 1.5 0 0 1 7.5 20h6.39c.162-.709.463-1.39.903-2zm14.89.572l.607.765l.608-.765a4.11 4.11 0 0 1 6.084-.42c1.685 1.616 1.755 4.323.157 6.027l-6.082 6.487a1.047 1.047 0 0 1-1.534 0l-6.079-6.492c-1.594-1.703-1.524-4.403.156-6.017a4.105 4.105 0 0 1 6.082.415M20.95 29.3l-1.555-1.661Z"/></svg>