<svg xmlns="http://www.w3.org/2000/svg" xmlns:xlink="http://www.w3.org/1999/xlink" width="24" height="24" viewBox="0 0 24 24"><path fill="currentColor" d="M11.158 20.475c.065.53.24 1.05.525 1.522c-2.99-.06-5.268-.964-6.78-2.736a3.75 3.75 0 0 1-.9-2.435v-.578A2.25 2.25 0 0 1 6.254 14h9.273l-1.5 1.5H6.253a.75.75 0 0 0-.75.75v.577c0 .535.192 1.053.54 1.46c1.12 1.313 2.812 2.049 5.115 2.19M12 2.004a5 5 0 1 1 0 10a5 5 0 0 1 0-10m0 1.5a3.5 3.5 0 1 0 0 7a3.5 3.5 0 0 0 0-7m10.03 9.465a2.87 2.87 0 0 0-4.06 0l-5 5a2.871 2.871 0 0 0 4.06 4.061l5-5a2.87 2.87 0 0 0 0-4.06m-3 1.061a1.371 1.371 0 1 1 1.94 1.94L19 17.94L17.06 16zm-2 4.94a.75.75 0 0 1 0 1.06l-1 1a.75.75 0 0 1-1.06-1.06l1-1a.75.75 0 0 1 1.06 0"/></svg>