<svg xmlns="http://www.w3.org/2000/svg" xmlns:xlink="http://www.w3.org/1999/xlink" width="16" height="16" viewBox="0 0 16 16"><path fill="currentColor" d="M13.401 1.058a.5.5 0 0 1 .676.208A8 8 0 0 1 15 5a8 8 0 0 1-.923 3.734a.5.5 0 1 1-.884-.468A7 7 0 0 0 14 5c0-1.18-.292-2.292-.807-3.266a.5.5 0 0 1 .208-.676M5 5a2 2 0 1 1 4 0a2 2 0 0 1-4 0m2-3a3 3 0 1 0 0 6a3 3 0 0 0 0-6m5 8.5A1.5 1.5 0 0 0 10.5 9h-7A1.5 1.5 0 0 0 2 10.5v.5c0 1.971 1.86 4 5 4s5-2.029 5-4zm-9 0a.5.5 0 0 1 .5-.5h7a.5.5 0 0 1 .5.5v.5c0 1.438-1.432 3-4 3s-4-1.562-4-3zm8.95-7.903a.5.5 0 1 0-.9.438c.289.593.45 1.26.45 1.965a4.5 4.5 0 0 1-.45 1.965a.5.5 0 1 0 .9.438A5.5 5.5 0 0 0 12.5 5c0-.86-.197-1.676-.55-2.403"/></svg>