<svg xmlns="http://www.w3.org/2000/svg" xmlns:xlink="http://www.w3.org/1999/xlink" width="16" height="16" viewBox="0 0 16 16"><path fill="currentColor" d="M10.5 6a4.5 4.5 0 1 1 0 9a4.5 4.5 0 0 1 0-9M5.6 8a5.5 5.5 0 0 0-.393 1H3.5a.5.5 0 0 0-.5.5v.5c0 1.128.882 2.333 2.502 2.8c.192.416.435.805.72 1.157C3.555 13.653 2 11.803 2 10v-.5A1.5 1.5 0 0 1 3.5 8zm4.9 3.875a.625.625 0 1 0 0 1.25a.625.625 0 0 0 0-1.25M10.5 8a.5.5 0 0 0-.5.5v2a.5.5 0 0 0 1 0v-2a.5.5 0 0 0-.5-.5M7 1.5a2.75 2.75 0 0 1 2.626 3.57a5.5 5.5 0 0 0-1.385.413a1.75 1.75 0 1 0-.836.47c-.4.273-.763.598-1.078.964A2.751 2.751 0 0 1 7 1.5"/></svg>