<svg xmlns="http://www.w3.org/2000/svg" xmlns:xlink="http://www.w3.org/1999/xlink" width="24" height="24" viewBox="0 0 24 24"><path fill="currentColor" d="M3 6.25v11.5A3.25 3.25 0 0 0 6.25 21h5.772a6.46 6.46 0 0 1-1.008-3.07C8.474 17.556 7 15.755 7 14v-.5A1.5 1.5 0 0 1 8.5 12h5.534a6.47 6.47 0 0 1 3.466-1a6.47 6.47 0 0 1 3.5 1.022V6.25A3.25 3.25 0 0 0 17.75 3H6.25A3.25 3.25 0 0 0 3 6.25m9-.75a2.75 2.75 0 1 1 0 5.5a2.75 2.75 0 0 1 0-5.5m11 12a5.5 5.5 0 1 0-11 0a5.5 5.5 0 0 0 11 0m-5 .5l.001 2.503a.5.5 0 1 1-1 0V18h-2.505a.5.5 0 0 1 0-1H17v-2.5a.5.5 0 1 1 1 0V17h2.497a.5.5 0 0 1 0 1z"/></svg>