<svg xmlns="http://www.w3.org/2000/svg" xmlns:xlink="http://www.w3.org/1999/xlink" width="28" height="28" viewBox="0 0 28 28"><path fill="currentColor" d="M14.073 24.368c.295.49.645.943 1.04 1.35c-.968.184-2.012.282-3.113.282c-5.79 0-10-2.567-10-6.285V19a3 3 0 0 1 3-3h9.5a7.5 7.5 0 0 0-.876 1.5H5a1.5 1.5 0 0 0-1.493 1.355L3.5 19v.715c0 2.674 3.389 4.785 8.5 4.785q1.09-.002 2.073-.132M12 2a6 6 0 1 1 0 12a6 6 0 0 1 0-12m0 1.5a4.5 4.5 0 1 0 0 9a4.5 4.5 0 0 0 0-9m2 17a6.5 6.5 0 1 0 13 0a6.5 6.5 0 0 0-13 0m5.349-4.08A4 4 0 0 1 24 18.313V17.5a.5.5 0 0 1 1 0v2a.5.5 0 0 1-.5.5h-2a.5.5 0 0 1 0-1h.727a2.998 2.998 0 0 0-4.848-.871a.5.5 0 0 1-.707-.707a4 4 0 0 1 1.677-1.003m2.302 8.16A4 4 0 0 1 17 22.687v.814a.5.5 0 0 1-1 0v-2a.5.5 0 0 1 .5-.5h2a.5.5 0 0 1 0 1h-.727a2.998 2.998 0 0 0 4.848.871a.5.5 0 0 1 .707.707a4 4 0 0 1-1.677 1.003"/></svg>