<svg xmlns="http://www.w3.org/2000/svg" xmlns:xlink="http://www.w3.org/1999/xlink" width="16" height="16" viewBox="0 0 16 16"><path fill="currentColor" d="M2 10c0 1.803 1.555 3.653 4.222 3.957a5.5 5.5 0 0 1-.72-1.157C3.882 12.333 3 11.128 3 10v-.5a.5.5 0 0 1 .5-.5h1.707q.149-.524.393-1H3.5A1.5 1.5 0 0 0 2 9.5zm7.75-5.75q-.001.429-.124.82a5.5 5.5 0 0 0-1.385.414a1.75 1.75 0 1 0-.836.47a5.5 5.5 0 0 0-1.078.963A2.751 2.751 0 1 1 9.75 4.25M10.5 6q.143 0 .284.009L6.01 10.784A4.5 4.5 0 0 1 10.5 6m-3.516 7.309a4.5 4.5 0 0 1-.74-1.345l5.61-5.61a.5.5 0 0 0 .087-.118c.501.17.963.424 1.368.748zm7.773-4.273a4.5 4.5 0 0 0-.741-1.345l-6.325 6.325c.405.324.867.579 1.368.748a.5.5 0 0 1 .087-.118zm-4.541 5.955q.141.009.284.009a4.5 4.5 0 0 0 4.491-4.784z"/></svg>