<svg xmlns="http://www.w3.org/2000/svg" xmlns:xlink="http://www.w3.org/1999/xlink" width="20" height="20" viewBox="0 0 20 20"><path fill="currentColor" d="M7 2a2 2 0 0 0-2 2v12a2 2 0 0 0 2 2h3.257a5.5 5.5 0 0 1-.657-1H7a1 1 0 0 1-1-1V4a1 1 0 0 1 1-1h6a1 1 0 0 1 1 1v5.022a5.6 5.6 0 0 1 1 0V4a2 2 0 0 0-2-2zm5.065 9.442a2 2 0 0 1-1.43 2.478l-.461.118a4.7 4.7 0 0 0 .01 1.016l.35.083a2 2 0 0 1 1.455 2.519l-.126.422q.387.307.835.518l.325-.344a2 2 0 0 1 2.909.002l.337.358q.44-.203.822-.498l-.156-.556a2 2 0 0 1 1.43-2.479l.461-.117a4.7 4.7 0 0 0-.01-1.017l-.349-.082a2 2 0 0 1-1.456-2.52l.126-.421a4.3 4.3 0 0 0-.835-.519l-.324.344a2 2 0 0 1-2.91-.001l-.337-.358a4.3 4.3 0 0 0-.822.497zM14.5 15.5a1 1 0 1 1 0-2a1 1 0 0 1 0 2"/></svg>