<svg xmlns="http://www.w3.org/2000/svg" xmlns:xlink="http://www.w3.org/1999/xlink" width="24" height="24" viewBox="0 0 24 24"><path d="M13.75 2A2.25 2.25 0 0 1 16 4.25v5.769A6.5 6.5 0 0 0 10.175 18L8.75 18a.75.75 0 0 0-.102 1.493l.102.007l1.983.001a6.53 6.53 0 0 0 2.303 2.5L6.25 22A2.25 2.25 0 0 1 4 19.75V4.25A2.25 2.25 0 0 1 6.25 2h7.5zm2.75 9a5.5 5.5 0 1 1 0 11a5.5 5.5 0 0 1 0-11zm.216 2.589l-.07.057l-.057.07a.5.5 0 0 0 0 .568l.057.07l1.646 1.645l-4.798.001l-.09.008a.5.5 0 0 0-.402.402l-.008.09l.008.09a.5.5 0 0 0 .402.402l.09.008l4.8-.001l-1.648 1.647l-.057.07a.5.5 0 0 0 .695.695l.07-.057l2.53-2.533l.036-.05l.042-.08l.026-.083l.01-.064v-.088l-.01-.064l-.026-.083l-.042-.08l-.037-.05l-2.53-2.533l-.069-.057a.5.5 0 0 0-.492-.044l-.076.044z" fill="currentColor" fill-rule="nonzero"/></svg>