<svg xmlns="http://www.w3.org/2000/svg" xmlns:xlink="http://www.w3.org/1999/xlink" width="20" height="20" viewBox="0 0 20 20"><path fill="currentColor" d="M5.5 2A1.5 1.5 0 0 0 4 3.5v13A1.5 1.5 0 0 0 5.5 18h4.757a5.5 5.5 0 0 1-.657-1H5.5a.5.5 0 0 1-.5-.5v-13a.5.5 0 0 1 .5-.5h7a.5.5 0 0 1 .5.5v5.707a5.5 5.5 0 0 1 1-.185V3.5A1.5 1.5 0 0 0 12.5 2zM9 14.5q0-.252.022-.5H7.5a.5.5 0 0 0 0 1h1.522A6 6 0 0 1 9 14.5m10 0a4.5 4.5 0 1 1-9 0a4.5 4.5 0 0 1 9 0m-2.646-1.146a.5.5 0 0 0-.708-.708L14.5 13.793l-1.146-1.147a.5.5 0 0 0-.708.708l1.147 1.146l-1.147 1.146a.5.5 0 0 0 .708.708l1.146-1.147l1.146 1.147a.5.5 0 0 0 .708-.708L15.207 14.5z"/></svg>