<svg xmlns="http://www.w3.org/2000/svg" xmlns:xlink="http://www.w3.org/1999/xlink" width="24" height="24" viewBox="0 0 24 24"><path d="M17.5 12a5.5 5.5 0 1 1 0 11a5.5 5.5 0 0 1 0-11zM13.75 2A2.25 2.25 0 0 1 16 4.25v6.924a6.455 6.455 0 0 0-1.5.558V4.25a.75.75 0 0 0-.75-.75h-7.5a.75.75 0 0 0-.75.75v15.5c0 .414.336.75.75.75l5.483.001c.287.551.651 1.056 1.077 1.5L6.25 22A2.25 2.25 0 0 1 4 19.75V4.25A2.25 2.25 0 0 1 6.25 2h7.5zm1.343 12.966l-.07.058l-.057.07a.5.5 0 0 0 0 .568l.058.07l1.77 1.769l-1.768 1.766l-.057.07a.5.5 0 0 0 0 .568l.057.07l.07.057a.5.5 0 0 0 .568 0l.07-.057l1.766-1.767l1.77 1.769l.069.058a.5.5 0 0 0 .568 0l.07-.058l.057-.07a.5.5 0 0 0 0-.568l-.057-.07l-1.77-1.768l1.772-1.77l.058-.069a.5.5 0 0 0 0-.569l-.058-.069l-.069-.058a.5.5 0 0 0-.569 0l-.069.058l-1.772 1.77l-1.77-1.77l-.068-.058a.5.5 0 0 0-.493-.043l-.076.043zm-6.344 2.538L11 17.499c0 .517.06 1.02.174 1.5l-2.423.005a.75.75 0 0 1-.002-1.5z" fill="currentColor" fill-rule="nonzero"/></svg>