<svg xmlns="http://www.w3.org/2000/svg" xmlns:xlink="http://www.w3.org/1999/xlink" width="16" height="16" viewBox="0 0 16 16"><path fill="currentColor" d="M3 4a1.5 1.5 0 0 1 1.5-1.5h8A1.5 1.5 0 0 1 14 4v5a1.5 1.5 0 0 1-1.5 1.5h-4v-1h4A.5.5 0 0 0 13 9V4a.5.5 0 0 0-.5-.5h-8A.5.5 0 0 0 4 4h-.5q-.26 0-.5.063zm11.5 8.5h-6v-1h6a.5.5 0 0 1 0 1m-10 0a.5.5 0 1 0 0-1a.5.5 0 0 0 0 1m-3-6A1.5 1.5 0 0 1 3 5h3a1.5 1.5 0 0 1 1.5 1.5v6A1.5 1.5 0 0 1 6 14H3a1.5 1.5 0 0 1-1.5-1.5zM3 6a.5.5 0 0 0-.5.5v6a.5.5 0 0 0 .5.5h3a.5.5 0 0 0 .5-.5v-6A.5.5 0 0 0 6 6z"/></svg>