<svg xmlns="http://www.w3.org/2000/svg" xmlns:xlink="http://www.w3.org/1999/xlink" width="16" height="16" viewBox="0 0 16 16"><path fill="currentColor" d="m9.56 10.267l4.586 4.587a.5.5 0 0 0 .708-.708l-13-13a.5.5 0 1 0-.708.708l4.586 4.585l-.08.15l-2.81.937a.5.5 0 0 0-.196.828L4.793 10.5l-2.647 2.646L2 14l.854-.146L5.5 11.207l2.146 2.147a.5.5 0 0 0 .828-.196l.937-2.811zm-.739-.739l-.057.031a.5.5 0 0 0-.238.283l-.744 2.232L3.926 8.22l2.232-.745a.5.5 0 0 0 .283-.239l.03-.056zm3.897-2.085l-2.054 1.1l.738.738l1.788-.957a1.5 1.5 0 0 0 .354-2.381L10.06 2.445a1.5 1.5 0 0 0-2.386.353l-.957 1.796l.739.74l1.1-2.065a.5.5 0 0 1 .796-.118l3.485 3.498a.5.5 0 0 1-.118.794"/></svg>