<svg xmlns="http://www.w3.org/2000/svg" xmlns:xlink="http://www.w3.org/1999/xlink" width="20" height="20" viewBox="0 0 20 20"><path fill="currentColor" d="M10 3.5a6.5 6.5 0 0 0-6.468 7.153c-.5.053-.818.011-1.009-.059a7.6 7.6 0 0 1 .018-1.38c-.827.123-1.327.571-1.484.98a.78.78 0 0 0 .04.68c.122.22.385.47.889.657c.61.226 1.568.198 2.922-.147c1.334-.34 2.973-.966 4.892-1.839c1.941-.882 3.64-1.537 5.055-1.898c1.397-.357 2.605-.452 3.512-.116c.661.245 1.144.626 1.409 1.109c.267.488.284 1.03.1 1.518c-.342.903-1.324 1.57-2.596 1.654a7.503 7.503 0 0 1-13.823 1.856a9 9 0 0 0 1.088-.132a6.5 6.5 0 0 0 11.923-4.19c.5-.052.819-.01 1.009.06a7.6 7.6 0 0 1-.018 1.383c.828-.123 1.326-.573 1.48-.984a.8.8 0 0 0-.04-.684c-.121-.22-.382-.468-.879-.652c-.61-.226-1.565-.198-2.917.147c-1.333.34-2.97.967-4.89 1.84c-1.94.882-3.64 1.536-5.058 1.897c-1.4.357-2.609.452-3.516.116c-.666-.247-1.152-.63-1.418-1.113a1.78 1.78 0 0 1-.098-1.52c.345-.899 1.33-1.56 2.597-1.646a7.503 7.503 0 0 1 13.824-1.858a9 9 0 0 0-1.089.132A6.5 6.5 0 0 0 10 3.5"/></svg>