<svg xmlns="http://www.w3.org/2000/svg" xmlns:xlink="http://www.w3.org/1999/xlink" width="24" height="24" viewBox="0 0 24 24"><path fill="currentColor" d="M3.282 9.754a9.004 9.004 0 0 1 16.63-2.048q-.401.005-.817.044c-2.055.192-4.669 1.011-7.91 2.697c-3.007 1.564-5.171 2.183-6.62 2.318c-.735.07-1.224.012-1.539-.071a9 9 0 0 1 .002-1.41c-.691.105-1.119.437-1.318.759c-.233.377-.205.792.115 1.122c.208.214.585.435 1.194.55c.426.08.967.109 1.642.046q.153-.015.315-.035c1.6-.207 3.793-.895 6.67-2.391c2.97-1.545 5.337-2.312 7.171-2.548q.19-.025.375-.042c.758-.071 1.438-.048 2.031.06l.066.013c.835.162 1.495.495 1.958.972c.835.857.886 2.036.317 2.956c-.532.861-1.554 1.441-2.846 1.5a9.004 9.004 0 0 1-16.63 2.048q.394-.006.802-.044c2.055-.192 4.669-1.011 7.91-2.698c3.006-1.563 5.171-2.182 6.621-2.317c.745-.07 1.239-.01 1.553.075a9 9 0 0 1-.002 1.405c.69-.105 1.116-.437 1.314-.758c.233-.377.205-.792-.116-1.122c-.208-.214-.586-.435-1.194-.55l-.144-.025a5 5 0 0 0-.824-.056a8 8 0 0 0-.675.035c-1.623.152-3.916.827-6.99 2.426c-3.173 1.652-5.659 2.413-7.54 2.59a9 9 0 0 1-1.184.033a6 6 0 0 1-.885-.1c-.848-.161-1.518-.496-1.986-.978c-.834-.858-.885-2.037-.316-2.957c.533-.86 1.557-1.442 2.85-1.499"/></svg>