<svg xmlns="http://www.w3.org/2000/svg" xmlns:xlink="http://www.w3.org/1999/xlink" width="20" height="20" viewBox="0 0 20 20"><path fill="currentColor" d="M10 2q.803.001 1.56.152a.5.5 0 0 1-.193.981a7 7 0 0 0-1.556-.13a7 7 0 1 0 1.556 13.864a.5.5 0 1 1 .194.98a8 8 0 0 1-1.877.147a7.97 7.97 0 0 1-5.726-2.75A7.97 7.97 0 0 1 2 10a7.97 7.97 0 0 1 2.545-5.852A7.97 7.97 0 0 1 10 2m3.752 1.485a.5.5 0 0 1 .693-.137a8 8 0 0 1 2.207 2.207a.5.5 0 1 1-.83.556a7 7 0 0 0-1.933-1.932a.5.5 0 0 1-.137-.694m3.508 4.56a.5.5 0 0 1 .588.394a8 8 0 0 1 0 3.122a.5.5 0 0 1-.981-.194a7 7 0 0 0 0-2.734a.5.5 0 0 1 .393-.587m-.745 5.707a.5.5 0 0 1 .137.693a8 8 0 0 1-2.207 2.207a.5.5 0 0 1-.556-.83a7 7 0 0 0 1.932-1.933a.5.5 0 0 1 .694-.137M10 16a6 6 0 1 0 0-12a6 6 0 0 0 0 12M8 7.833a.75.75 0 0 1 1.125-.65l4.125 2.384a.5.5 0 0 1 0 .866l-4.125 2.383A.75.75 0 0 1 8 12.166z"/></svg>