<svg xmlns="http://www.w3.org/2000/svg" xmlns:xlink="http://www.w3.org/1999/xlink" width="20" height="20" viewBox="0 0 20 20"><path fill="currentColor" d="M17.854 2.854a.5.5 0 0 0-.708-.708l-2.668 2.669a4.036 4.036 0 0 0-5.332.331l-.3.3a1.49 1.49 0 0 0 0 2.108l2.465 2.464q.421-.3.895-.518L9.553 6.846a.49.49 0 0 1 0-.692l.3-.3a3.036 3.036 0 0 1 5.01 3.158q.514.034 1 .158a4.04 4.04 0 0 0-.678-3.648zm-10.3 5.992l2.464 2.465q-.3.421-.518.895L6.847 9.554a.49.49 0 0 0-.693 0l-.3.3a3.035 3.035 0 0 0 3.158 5.009q.034.515.158 1a4.04 4.04 0 0 1-3.648-.678l-2.668 2.669a.5.5 0 0 1-.708-.708l2.669-2.668a4.036 4.036 0 0 1 .332-5.332l.3-.3a1.49 1.49 0 0 1 2.107 0m3.081 5.074a2 2 0 0 0 1.43-2.478l-.155-.557q.382-.293.821-.497l.338.358a2 2 0 0 0 2.91.001l.324-.344q.448.212.835.518l-.126.423a2 2 0 0 0 1.456 2.519l.349.082a4.7 4.7 0 0 1 .01 1.017l-.46.117a2 2 0 0 0-1.431 2.479l.156.556q-.383.294-.822.498l-.338-.358a2 2 0 0 0-2.909-.002l-.325.344a4.3 4.3 0 0 1-.835-.518l.127-.422a2 2 0 0 0-1.456-2.52l-.35-.082a4.7 4.7 0 0 1-.01-1.016zm2.865.58a1 1 0 1 0 2 0a1 1 0 0 0-2 0"/></svg>