<svg xmlns="http://www.w3.org/2000/svg" xmlns:xlink="http://www.w3.org/1999/xlink" width="28" height="28" viewBox="0 0 28 28"><path fill="currentColor" d="M12.31 5.794a2.75 2.75 0 0 0 0 3.89l6.01 6.01a2.75 2.75 0 0 0 3.89 0l.743-.744a7 7 0 0 0 .502-9.342l2.326-2.328a.75.75 0 1 0-1.062-1.06l-2.324 2.328a7 7 0 0 0-9.341.502zm3.384 12.522a2.75 2.75 0 0 1 0 3.889l-.744.744a7 7 0 0 1-9.34.503l-2.325 2.327a.75.75 0 1 1-1.062-1.06l2.326-2.328a7 7 0 0 1 .502-9.341l.744-.745a2.75 2.75 0 0 1 3.889 0z"/></svg>