<svg xmlns="http://www.w3.org/2000/svg" xmlns:xlink="http://www.w3.org/1999/xlink" width="16" height="16" viewBox="0 0 16 16"><path fill="currentColor" d="M6.013 6.775a1.25 1.25 0 0 0-1.768 0l-.22.22A3.47 3.47 0 0 0 3 9.524c.012.756.26 1.47.71 2.059l-2.063 2.063a.5.5 0 0 0 .708.707l2.07-2.07a3.45 3.45 0 0 0 2.036.652c.938 0 1.888-.363 2.604-1.08l.131-.131a1.25 1.25 0 0 0 0-1.768L6.014 6.774zm8.341-5.129a.5.5 0 0 0-.707 0l-2.07 2.07c-1.37-.999-3.37-.843-4.64.428l-.13.131a1.25 1.25 0 0 0 0 1.768l3.181 3.182c.243.244.563.366.884.366s.641-.122.884-.366l.22-.22a3.47 3.47 0 0 0 1.025-2.529a3.46 3.46 0 0 0-.71-2.059l2.063-2.063a.5.5 0 0 0 0-.708"/></svg>