<svg xmlns="http://www.w3.org/2000/svg" xmlns:xlink="http://www.w3.org/1999/xlink" width="24" height="24" viewBox="0 0 24 24"><path fill="currentColor" d="M10.25 2a.75.75 0 0 1 .743.648L11 2.75v4.794A6.25 6.25 0 0 1 16.457 13h4.794a.75.75 0 0 1 .102 1.493l-.102.007h-4.794A6.25 6.25 0 0 1 11 19.956v1.295a.75.75 0 0 1-1.494.102L9.5 21.25v-1.295a6.25 6.25 0 0 1-5.455-5.454H2.75a.75.75 0 0 1-.102-1.494L2.75 13h1.294A6.25 6.25 0 0 1 9.5 7.544V2.75a.75.75 0 0 1 .75-.75M9.5 14.5H5.559A4.75 4.75 0 0 0 9.5 18.442zm5.442 0H11v3.941a4.75 4.75 0 0 0 3.941-3.94M9.5 9.059A4.75 4.75 0 0 0 5.56 13H9.5zm1.5 0V13h3.942a4.755 4.755 0 0 0-3.726-3.902z"/></svg>