<svg xmlns="http://www.w3.org/2000/svg" xmlns:xlink="http://www.w3.org/1999/xlink" width="28" height="28" viewBox="0 0 28 28"><path fill="currentColor" d="M21.251 3a.75.75 0 0 1 .608.31l.054.087l4.007 7.513l.043.102l.011.038l.017.077l.01.088l-.002.1l.002-.065a.8.8 0 0 1-.06.296l-.03.06l-.04.066l-.052.069L14.6 24.705a.73.73 0 0 1-.386.265l-.058.014l-.097.014L14 25l-.1-.007l-.086-.016l-.103-.034l-.026-.012a.7.7 0 0 1-.242-.178L2.172 11.727l-.062-.087l-.048-.093l-.035-.1l-.023-.13v-.128l.015-.099l.01-.04l.033-.095l.028-.057l4-7.5a.75.75 0 0 1 .559-.39L6.75 3zm-3.344 9h-7.815l3.91 10.16zm-9.42 0H4.39l7.373 8.518zm15.122 0h-4.093l-3.273 8.511zM10.025 4.499H7.2L4 10.5h4.424zm6.4 0h-4.848l-1.6 6.001h8.047zm4.376 0h-2.825l1.601 6.001H24z"/></svg>