<svg xmlns="http://www.w3.org/2000/svg" xmlns:xlink="http://www.w3.org/1999/xlink" width="24" height="24" viewBox="0 0 24 24"><path fill="currentColor" d="M15.753 3a2.25 2.25 0 0 1 2.25 2.25l-.001.753h.75a3.254 3.254 0 0 1 3.252 3.25l.003 5.997a2.25 2.25 0 0 1-2.248 2.25H18v1.25A2.25 2.25 0 0 1 15.75 21h-7.5A2.25 2.25 0 0 1 6 18.75V17.5H4.25A2.25 2.25 0 0 1 2 15.25V9.254a3.25 3.25 0 0 1 3.25-3.25l.749-.001L6 5.25A2.25 2.25 0 0 1 8.25 3zm-.003 10.5h-7.5a.75.75 0 0 0-.75.75v4.5c0 .414.336.75.75.75h7.5a.75.75 0 0 0 .75-.75v-4.5a.75.75 0 0 0-.75-.75m3.002-5.996H5.25a1.75 1.75 0 0 0-1.75 1.75v5.996c0 .414.336.75.75.75H6v-1.75A2.25 2.25 0 0 1 8.25 12h7.5A2.25 2.25 0 0 1 18 14.25V16h1.783a.75.75 0 0 0 .724-.749l-.003-5.997a1.754 1.754 0 0 0-1.752-1.75m-3-3.004H8.25a.75.75 0 0 0-.75.75l-.001.753h9.003V5.25a.75.75 0 0 0-.75-.75"/></svg>