<svg xmlns="http://www.w3.org/2000/svg" xmlns:xlink="http://www.w3.org/1999/xlink" width="28" height="28" viewBox="0 0 28 28"><path fill="currentColor" d="M6.21 6.209a9.25 9.25 0 0 1 12.53-.51L5.7 18.74a9.25 9.25 0 0 1 .51-12.53Zm.55 13.59L19.8 6.76c3.094 3.635 2.925 9.097-.51 12.53c-3.433 3.434-8.895 3.604-12.53.51ZM20.352 5.15C16.153.95 9.347.95 5.15 5.148C.95 9.345.95 16.152 5.149 20.35c4.198 4.198 11.004 4.198 15.202 0s4.198-11.005 0-15.203Zm-6.276 19.277a9.25 9.25 0 0 0 10.35-10.35c.05-.436.074-.878.074-1.326c0-1.415-.25-2.772-.708-4.028A10.703 10.703 0 0 1 26 15.251C26 21.187 21.186 26 15.25 26a10.7 10.7 0 0 1-6.528-2.209a11.714 11.714 0 0 0 5.353.635Z"/></svg>