<svg xmlns="http://www.w3.org/2000/svg" xmlns:xlink="http://www.w3.org/1999/xlink" width="20" height="20" viewBox="0 0 20 20"><path fill="currentColor" d="M10.951 2.154A1.41 1.41 0 0 0 10 3.496c0 .3.09.581.26.821s.41.431.71.532l.46.151H3v7a2 2 0 0 0 2 2h10a2 2 0 0 0 2-2v-.104q.238.1.502.103c.173 0 .341-.022.498-.08V12a3 3 0 0 1-3 3h-4.5v2h3a.5.5 0 0 1 0 1h-7a.5.5 0 0 1 0-1h3v-2H5a3 3 0 0 1-3-3V4.915A1.501 1.501 0 0 1 2.5 2h8.932zM17.497 12h.01l-.005-.001zM12.5 11a.5.5 0 0 1 0 1h-5a.5.5 0 0 1 0-1zm4.984-5a.3.3 0 0 1 .285.201l.25.766a1.58 1.58 0 0 0 .999.998l.765.248l.015.004a.303.303 0 0 1 .146.46a.3.3 0 0 1-.146.11l-.765.248a1.58 1.58 0 0 0-.999.998l-.249.766a.302.302 0 0 1-.57 0l-.25-.766a1.58 1.58 0 0 0-.998-1.002l-.765-.248a.303.303 0 0 1-.146-.46a.3.3 0 0 1 .146-.11l.765-.248a1.58 1.58 0 0 0 .984-.998L17.2 6.2a.3.3 0 0 1 .284-.2M13.5 9a.5.5 0 0 1 0 1h-7a.5.5 0 0 1 0-1zm-1-2a.5.5 0 0 1 0 1h-5a.5.5 0 0 1 0-1zm1.979-7a.42.42 0 0 1 .399.282l.348 1.072a2.2 2.2 0 0 0 1.398 1.396l1.072.349l.022.005a.424.424 0 0 1 0 .797l-1.073.349a2.21 2.21 0 0 0-1.398 1.396L14.9 6.718a.423.423 0 0 1-.643.204l-.02-.015a.43.43 0 0 1-.135-.19l-.348-1.07a2.22 2.22 0 0 0-1.399-1.403l-1.072-.348a.424.424 0 0 1 0-.797l1.072-.349a2.21 2.21 0 0 0 1.377-1.396L14.08.282a.42.42 0 0 1 .4-.282"/></svg>