<svg xmlns="http://www.w3.org/2000/svg" xmlns:xlink="http://www.w3.org/1999/xlink" width="28" height="28" viewBox="0 0 28 28"><path fill="currentColor" d="M15 3.5a2 2 0 0 0-2 2v2H9.25a.75.75 0 0 0-.75.75V12h-2a2 2 0 1 0 0 4h2v3.75c0 .414.336.75.75.75H13v2a2 2 0 1 0 4 0v-2h3.75a.75.75 0 0 0 .75-.75V17H21a3 3 0 1 1 0-6h.5V8.25a.75.75 0 0 0-.75-.75H17v-2a2 2 0 0 0-2-2m-3.5 2a3.5 3.5 0 1 1 7 0V6h2.25A2.25 2.25 0 0 1 23 8.25v4.25h-2a1.5 1.5 0 0 0 0 3h2v4.25A2.25 2.25 0 0 1 20.75 22H18.5v.5a3.5 3.5 0 1 1-7 0V22H9.25A2.25 2.25 0 0 1 7 19.75V17.5h-.5a3.5 3.5 0 1 1 0-7H7V8.25A2.25 2.25 0 0 1 9.25 6h2.25z"/></svg>