<svg xmlns="http://www.w3.org/2000/svg" xmlns:xlink="http://www.w3.org/1999/xlink" width="24" height="24" viewBox="0 0 24 24"><path fill="currentColor" d="M8 6H6v2h2zm-5-.75A2.25 2.25 0 0 1 5.25 3h3.5A2.25 2.25 0 0 1 11 5.25v3.5A2.25 2.25 0 0 1 8.75 11h-3.5A2.25 2.25 0 0 1 3 8.75zm2.25-.75a.75.75 0 0 0-.75.75v3.5c0 .414.336.75.75.75h3.5a.75.75 0 0 0 .75-.75v-3.5a.75.75 0 0 0-.75-.75zM6 16h2v2H6zm-3-.75A2.25 2.25 0 0 1 5.25 13h3.5A2.25 2.25 0 0 1 11 15.25v3.5A2.25 2.25 0 0 1 8.75 21h-3.5A2.25 2.25 0 0 1 3 18.75zm2.25-.75a.75.75 0 0 0-.75.75v3.5c0 .414.336.75.75.75h3.5a.75.75 0 0 0 .75-.75v-3.5a.75.75 0 0 0-.75-.75zM18 6h-2v2h2zm-2.75-3A2.25 2.25 0 0 0 13 5.25v3.5A2.25 2.25 0 0 0 15.25 11h3.5A2.25 2.25 0 0 0 21 8.75v-3.5A2.25 2.25 0 0 0 18.75 3zm-.75 2.25a.75.75 0 0 1 .75-.75h3.5a.75.75 0 0 1 .75.75v3.5a.75.75 0 0 1-.75.75h-3.5a.75.75 0 0 1-.75-.75zM13 13h2.75v2.75H13zm5.25 2.75h-2.5v2.5H13V21h2.75v-2.75h2.5V21H21v-2.75h-2.75zm0 0V13H21v2.75z"/></svg>