<svg xmlns="http://www.w3.org/2000/svg" xmlns:xlink="http://www.w3.org/1999/xlink" width="28" height="28" viewBox="0 0 28 28"><path fill="currentColor" d="M12.484 11.002h-1.967l.984-2.327zM3 5.75A2.75 2.75 0 0 1 5.75 3h16.5A2.75 2.75 0 0 1 25 5.75v8.787A7.47 7.47 0 0 0 20.45 13a7.49 7.49 0 0 0-5.999 2.998H7.225a.75.75 0 0 0 0 1.5h6.35a7.5 7.5 0 0 0-.625 3.002c0 1.688.558 3.247 1.5 4.5h-8.7A2.75 2.75 0 0 1 3 22.25zm9.192.708a.75.75 0 0 0-1.381 0L8.059 12.96a.75.75 0 1 0 1.382.585l.441-1.043h3.236l.441 1.042a.75.75 0 0 0 1.382-.583zM6.475 20.75c0 .414.336.75.75.75h4.526a.75.75 0 0 0 0-1.5H7.225a.75.75 0 0 0-.75.75m12.025-14a.75.75 0 0 0-1.5 0V8h-1.248a.75.75 0 0 0 0 1.5H17v1.248a.75.75 0 0 0 1.5 0V9.5h1.25a.75.75 0 0 0 0-1.5H18.5zm8.45 13.75a6.5 6.5 0 1 1-13 0a6.5 6.5 0 0 1 13 0m-6-4a.5.5 0 0 0-1 0V20h-3.5a.5.5 0 0 0 0 1h3.5v3.5a.5.5 0 0 0 1 0V21h3.5a.5.5 0 0 0 0-1h-3.5z"/></svg>