<svg xmlns="http://www.w3.org/2000/svg" xmlns:xlink="http://www.w3.org/1999/xlink" width="20" height="20" viewBox="0 0 20 20"><path fill="currentColor" d="M14.284 3.241L13.19 4.335A6.503 6.503 0 0 0 3.577 11H2.062a8.003 8.003 0 0 1 12.221-7.759M10 17v-.5a6.48 6.48 0 0 0 4.596-1.904a.75.75 0 0 1 1.06 1.06a7.98 7.98 0 0 1-5.826 2.342c.11-.312.17-.648.17-.998m0-2.5v.6c1.305 0 2.61-.498 3.606-1.494a.75.75 0 1 0-1.06-1.06a3.6 3.6 0 0 1-2.856 1.04c.194.254.31.57.31.914M6.5 11h.041a3.6 3.6 0 0 1 4.447-4.463l1.163-1.163A5.102 5.102 0 0 0 4.998 11zm9.28-6.78a.75.75 0 0 1 0 1.06l-4.33 4.331q.049.187.05.389a1.5 1.5 0 1 1-1.111-1.45l4.33-4.33a.75.75 0 0 1 1.061 0m1.47 9.03a.75.75 0 1 1-1.5 0a.75.75 0 0 1 1.5 0M16.5 7.5a.75.75 0 1 0 0-1.5a.75.75 0 0 0 0 1.5m1.5 3.75a.75.75 0 1 1-1.5 0a.75.75 0 0 1 1.5 0m-.75-1.75a.75.75 0 1 0 0-1.5a.75.75 0 0 0 0 1.5M15 11.25a.75.75 0 1 1-1.5 0a.75.75 0 0 1 1.5 0m-.75-1.75a.75.75 0 1 0 0-1.5a.75.75 0 0 0 0 1.5M1.5 12a.5.5 0 0 0-.5.5v4a.5.5 0 0 0 .5.5h5a.5.5 0 0 0 .5-.5v-4a.5.5 0 0 0-.5-.5zm7 2a.5.5 0 0 1 .5.5V17a2 2 0 0 1-2 2H3.5a.5.5 0 0 1 0-1H7a1 1 0 0 0 1-1v-2.5a.5.5 0 0 1 .5-.5"/></svg>