<svg xmlns="http://www.w3.org/2000/svg" xmlns:xlink="http://www.w3.org/1999/xlink" width="20" height="20" viewBox="0 0 20 20"><path fill="currentColor" d="M3 5.25a1.25 1.25 0 0 1 2.29-.692a.5.5 0 1 0 .833-.555A2.25 2.25 0 1 0 4.25 7.5l.066-.004l.065.004H15.5a.5.5 0 0 0 0-1H4.381l-.065.004L4.25 6.5C3.56 6.5 3 5.94 3 5.25M8.5 4a.5.5 0 0 0 0 1h9a.5.5 0 0 0 0-1zm-3 5a.5.5 0 0 0 0 1h5.837c.895-.63 1.986-1 3.163-1zm-3 2.5h7.39a5.5 5.5 0 0 0-.515 1H2.5a.5.5 0 0 1 0-1m3 2.5h3.522a5.6 5.6 0 0 0 0 1H5.501a.5.5 0 0 1 0-1m13.5.5a4.5 4.5 0 1 1-9 0a4.5 4.5 0 0 1 9 0m-4-2a.5.5 0 0 0-1 0V14h-1.5a.5.5 0 0 0 0 1H14v1.5a.5.5 0 0 0 1 0V15h1.5a.5.5 0 0 0 0-1H15z"/></svg>