<svg xmlns="http://www.w3.org/2000/svg" xmlns:xlink="http://www.w3.org/1999/xlink" width="20" height="20" viewBox="0 0 20 20"><path fill="currentColor" d="M4 5a2 2 0 0 1 2-2h7a2 2 0 0 1 2 2v7h3v2a3 3 0 0 1-3 3h-4.05q.05-.243.05-.5v-3A2.5 2.5 0 0 0 8.5 11H4zm11 11a2 2 0 0 0 2-2v-1h-2zM7.5 6a.5.5 0 0 0 0 1h4a.5.5 0 0 0 0-1zm0 3a.5.5 0 0 0 0 1h4a.5.5 0 0 0 0-1zm2.5 4.5A1.5 1.5 0 0 0 8.5 12h-6A1.5 1.5 0 0 0 1 13.5v3A1.5 1.5 0 0 0 2.5 18h6a1.5 1.5 0 0 0 1.5-1.5zm-1 2v1a.5.5 0 0 0-.5.5h-1A1.5 1.5 0 0 1 9 15.5M8.5 13a.5.5 0 0 0 .5.5v1A1.5 1.5 0 0 1 7.5 13zm-6.5.5a.5.5 0 0 0 .5-.5h1A1.5 1.5 0 0 1 2 14.5zm.5 3.5a.5.5 0 0 0-.5-.5v-1A1.5 1.5 0 0 1 3.5 17zM4 15a1.5 1.5 0 1 1 3 0a1.5 1.5 0 0 1-3 0"/></svg>