<svg xmlns="http://www.w3.org/2000/svg" xmlns:xlink="http://www.w3.org/1999/xlink" width="16" height="16" viewBox="0 0 16 16"><path fill="currentColor" d="m10.878.282l.348 1.071a2.2 2.2 0 0 0 1.398 1.397l1.072.348l.021.006a.423.423 0 0 1 0 .798l-1.071.348a2.2 2.2 0 0 0-1.399 1.397l-.348 1.07a.423.423 0 0 1-.798 0l-.348-1.07a2.2 2.2 0 0 0-1.399-1.403l-1.072-.348a.423.423 0 0 1 0-.798l1.072-.348a2.2 2.2 0 0 0 1.377-1.397l.348-1.07a.423.423 0 0 1 .799 0m4.905 7.931l-.765-.248a1.58 1.58 0 0 1-1-.999l-.248-.764a.302.302 0 0 0-.57 0l-.25.764a1.58 1.58 0 0 1-.983.999l-.765.248a.303.303 0 0 0 0 .57l.765.249a1.58 1.58 0 0 1 1 1.002l.248.764a.302.302 0 0 0 .57 0l.249-.764a1.58 1.58 0 0 1 .999-.999l.765-.248a.303.303 0 0 0 0-.57zM13.502 12a1.3 1.3 0 0 1-.55-.12A1.5 1.5 0 0 1 11.5 13H11v-2h1.227l-.212-.653a.5.5 0 0 0-.14-.22a.6.6 0 0 0-.187-.127H11v-.229l-.106-.035c-.27-.1-.49-.26-.65-.48s-.24-.481-.24-.752C10.004 7.056 10 12.252 10 13H4.5A1.5 1.5 0 0 1 3 11.5V3.75A.75.75 0 0 1 3.75 3h2.338q.064-.172.172-.325c.17-.24.41-.42.69-.521L7.43 2H3.75A1.75 1.75 0 0 0 2 3.75v7.75A2.5 2.5 0 0 0 4.5 14h7a2.5 2.5 0 0 0 2.462-2.066a1.5 1.5 0 0 1-.46.066m-5.47-6.801L7.43 5H5a.5.5 0 0 0 0 1h3a.5.5 0 0 0 .5-.5v-.013a1.3 1.3 0 0 0-.468-.288M4.5 8a.5.5 0 0 1 .5-.5h3a.5.5 0 0 1 0 1H5a.5.5 0 0 1-.5-.5m.5 2a.5.5 0 0 0 0 1h1.5a.5.5 0 0 0 0-1z"/></svg>