<svg xmlns="http://www.w3.org/2000/svg" xmlns:xlink="http://www.w3.org/1999/xlink" width="48" height="48" viewBox="0 0 48 48"><path fill="currentColor" d="M32.833 13.112a5.36 5.36 0 0 0-2.544-1.805l-2.603-.845a1.028 1.028 0 0 1 0-1.937l2.602-.845a5.36 5.36 0 0 0 3.323-3.33l.022-.064l.845-2.6a1.027 1.027 0 0 1 1.94 0l.845 2.6A5.36 5.36 0 0 0 40.66 7.68l2.602.845l.052.013a1.028 1.028 0 0 1 0 1.937l-2.602.845a5.36 5.36 0 0 0-3.397 3.394l-.846 2.6l-.025.064a1.027 1.027 0 0 1-1.538.433a1.03 1.03 0 0 1-.375-.497l-.846-2.6a5.4 5.4 0 0 0-.852-1.602m14.776 6.872l-1.378-.448a2.84 2.84 0 0 1-1.797-1.796l-.448-1.377a.544.544 0 0 0-1.027 0l-.448 1.377a2.84 2.84 0 0 1-1.77 1.796l-1.378.448a.545.545 0 0 0 0 1.025l1.378.448q.227.075.438.188l.003.015a2.84 2.84 0 0 1 1.357 1.61l.448 1.377a.545.545 0 0 0 1.01.039v-.01l.016-.039l.448-1.377a2.84 2.84 0 0 1 1.798-1.796l1.378-.448a.545.545 0 0 0 0-1.025zM25.41 8H10.25A6.25 6.25 0 0 0 4 14.25v19.5A6.25 6.25 0 0 0 10.25 40h27.5A6.25 6.25 0 0 0 44 33.75v-6.8a2.55 2.55 0 0 1-2-.41a2.5 2.5 0 0 1-.5-.52v7.73a3.75 3.75 0 0 1-3.75 3.75h-27.5a3.75 3.75 0 0 1-3.75-3.75v-19.5a3.75 3.75 0 0 1 3.75-3.75h14.91l-.026-.08A3 3 0 0 1 25.41 8"/></svg>