<svg xmlns="http://www.w3.org/2000/svg" xmlns:xlink="http://www.w3.org/1999/xlink" width="24" height="24" viewBox="0 0 24 24"><path fill="currentColor" d="M7.514 6.253c0-.967.784-1.75 1.75-1.75h1a.75.75 0 0 0 0-1.5h-1a3.25 3.25 0 0 0-3.25 3.25v.506a.75.75 0 1 0 1.5 0zm5.25-3.25a.75.75 0 0 0 0 1.5h2.5a.75.75 0 0 0 0-1.5zm-.75 13.25a.75.75 0 0 1 .75-.75h2.5a.75.75 0 0 1 0 1.5h-2.5a.75.75 0 0 1-.75-.75m8.5-2.5a1.75 1.75 0 0 1-1.75 1.75h-1a.75.75 0 0 0 0 1.5h1a3.25 3.25 0 0 0 3.25-3.25v-.487a.75.75 0 0 0-1.5 0zm-1.75-9.25c.967 0 1.75.783 1.75 1.75v.506a.75.75 0 0 0 1.5 0v-.506a3.25 3.25 0 0 0-3.25-3.25h-1a.75.75 0 0 0 0 1.5zm-11.25 9.25c0 .966.784 1.75 1.75 1.75h1a.75.75 0 0 1 0 1.5h-1a3.25 3.25 0 0 1-3.25-3.25v-.487a.75.75 0 0 1 1.5 0zM2 9.6a5.1 5.1 0 0 1 3-4.649v8.799A4.25 4.25 0 0 0 9.25 18h11.8a5.1 5.1 0 0 1-4.65 3H9.25A7.25 7.25 0 0 1 2 13.75zm5.5-.338a.75.75 0 0 0-1.5 0l.014 1.494a.75.75 0 0 0 1.5 0zm13.75-.75a.75.75 0 0 1 .75.75l.014 1.494a.75.75 0 0 1-1.5 0L20.5 9.262a.75.75 0 0 1 .75-.75"/></svg>