<svg xmlns="http://www.w3.org/2000/svg" xmlns:xlink="http://www.w3.org/1999/xlink" width="28" height="28" viewBox="0 0 28 28"><path fill="currentColor" d="M3.28 2.22a.75.75 0 1 0-1.06 1.06l1.39 1.39A3.75 3.75 0 0 0 2 7.75v12.5A3.75 3.75 0 0 0 5.75 24h8.75a7.47 7.47 0 0 1-1.5-4.5c0-1.544.467-2.98 1.267-4.172l.723.723a6.5 6.5 0 0 0 8.96 8.96l.77.77a.75.75 0 0 0 1.06-1.061zm18.994 21.115a4 4 0 0 1-2.575.334A4 4 0 0 1 17 21.686v.814a.5.5 0 0 1-1 0v-2a.5.5 0 0 1 .5-.5h2a.5.5 0 0 1 0 1h-.727a3 3 0 0 0 3.74 1.574zM7.182 4l9.219 9.219A7.47 7.47 0 0 1 20.5 12a7.48 7.48 0 0 1 5.5 2.4V7.75A3.75 3.75 0 0 0 22.25 4zM27 19.5a6.47 6.47 0 0 1-.944 3.375l-6.479-6.48l.06-.018A3 3 0 0 1 23.227 18H22.5a.5.5 0 0 0 0 1h2a.5.5 0 0 0 .5-.5v-2a.5.5 0 0 0-1 0v.814a4 4 0 0 0-5.192-1.688l-1.683-1.682A6.5 6.5 0 0 1 27 19.5"/></svg>