<svg xmlns="http://www.w3.org/2000/svg" xmlns:xlink="http://www.w3.org/1999/xlink" width="32" height="32" viewBox="0 0 32 32"><path fill="currentColor" d="M16 4a11.97 11.97 0 0 0-8.944 4H10a1 1 0 1 1 0 2H5a1 1 0 0 1-1-1V4a1 1 0 0 1 2 0v2.202A13.96 13.96 0 0 1 16 2c7.732 0 14 6.268 14 14s-6.268 14-14 14S2 23.732 2 16q0-.58.046-1.149c.04-.49.46-.851.952-.851c.611 0 1.073.55 1.031 1.159q-.03.417-.029.841c0 6.627 5.373 12 12 12s12-5.373 12-12S22.627 4 16 4m-1.008 6.266C13.66 9.504 12 10.467 12 12.003v7.995c0 1.535 1.659 2.498 2.992 1.736l6.998-3.997c1.344-.768 1.344-2.706 0-3.473zM14 12.003L20.998 16L14 19.998z"/></svg>