<svg xmlns="http://www.w3.org/2000/svg" xmlns:xlink="http://www.w3.org/1999/xlink" width="20" height="20" viewBox="0 0 20 20"><path fill="currentColor" d="M5.25 2A3.25 3.25 0 0 0 2 5.25v3a.75.75 0 0 0 1.5 0v-3c0-.966.784-1.75 1.75-1.75h3a.75.75 0 0 0 0-1.5zm6.5 0a.75.75 0 0 0 0 1.5h3c.966 0 1.75.784 1.75 1.75v3a.75.75 0 0 0 1.5 0v-3A3.25 3.25 0 0 0 14.75 2zM18 11.75a.75.75 0 0 0-1.5 0v3a1.75 1.75 0 0 1-1.75 1.75h-3a.75.75 0 0 0 0 1.5h3A3.25 3.25 0 0 0 18 14.75zM1 12.5A2.5 2.5 0 0 1 3.5 10h4a2.5 2.5 0 0 1 2.5 2.5v4c0 .51-.152.983-.414 1.379L6.56 14.854a1.5 1.5 0 0 0-2.122 0l-3.025 3.025A2.5 2.5 0 0 1 1 16.5zm7 .25a.75.75 0 1 0-1.5 0a.75.75 0 0 0 1.5 0m-5.879 5.836c.396.262.87.414 1.379.414h4c.51 0 .983-.152 1.379-.414L5.854 15.56a.5.5 0 0 0-.708 0z"/></svg>