<svg xmlns="http://www.w3.org/2000/svg" xmlns:xlink="http://www.w3.org/1999/xlink" width="20" height="20" viewBox="0 0 20 20"><path fill="currentColor" d="M8.5 3H6a3 3 0 0 0-3 3v.5a.5.5 0 0 0 1 0V6a2 2 0 0 1 2-2h2.5a.5.5 0 0 0 0-1M5.796 15.99A2 2 0 0 1 4 14v-3a2 2 0 0 1 2-2h3a2 2 0 0 1 2 2v3a2 2 0 0 1-2 2H6q-.104 0-.204-.01M3 14a3 3 0 0 0 3 3h3a3 3 0 0 0 3-3v-3a3 3 0 0 0-3-3H6a3 3 0 0 0-3 3zm10.5 3a.5.5 0 0 1 0-1h.5a2 2 0 0 0 2-2v-2.5a.5.5 0 0 1 1 0V14a3 3 0 0 1-3 3zM17 8.5a.5.5 0 0 1-1 0V6a2 2 0 0 0-2-2h-2.5a.5.5 0 0 1 0-1H14a3 3 0 0 1 3 3z"/></svg>