<svg xmlns="http://www.w3.org/2000/svg" xmlns:xlink="http://www.w3.org/1999/xlink" width="12" height="12" viewBox="0 0 12 12"><path fill="currentColor" d="M2.68 3.388L1.146 1.854a.5.5 0 1 1 .708-.708l9 9a.5.5 0 0 1-.708.708L8 8.707V10.5a.5.5 0 0 1-.777.416L6 10.101l-1.223.815A.5.5 0 0 1 4 10.5V7.373a3.496 3.496 0 0 1-1.32-3.985m3.598 3.597L3.515 4.222Q3.5 4.36 3.5 4.5a2.5 2.5 0 0 0 2.778 2.485M8.5 4.5c0 .532-.166 1.025-.449 1.43l.715.715a3.5 3.5 0 0 0-4.91-4.91l.714.714A2.5 2.5 0 0 1 8.5 4.5M7 7.855a3.5 3.5 0 0 1-2 0v1.71l.723-.481a.5.5 0 0 1 .554 0L7 9.566z"/></svg>