<svg xmlns="http://www.w3.org/2000/svg" xmlns:xlink="http://www.w3.org/1999/xlink" width="32" height="32" viewBox="0 0 32 32"><path fill="currentColor" d="m17.676 9.93l-1.34-2.72a.375.375 0 0 0-.672 0l-1.34 2.72l-3.003.434a.375.375 0 0 0-.207.64l2.174 2.115l-.516 2.99a.375.375 0 0 0 .544.394L16 15.09l2.684 1.413a.375.375 0 0 0 .544-.394l-.513-2.99l2.171-2.116a.375.375 0 0 0-.207-.639zM6 12C6 6.477 10.477 2 16 2s10 4.477 10 10a9.99 9.99 0 0 1-4 8v9a1 1 0 0 1-1.515.858L16 27.166l-4.485 2.692A1 1 0 0 1 10 29v-9a9.99 9.99 0 0 1-4-8m10-8a8 8 0 1 0 0 16a8 8 0 0 0 0-16m4 23.234v-6.066A10 10 0 0 1 16 22a10 10 0 0 1-4-.832v6.066l3.486-2.092a1 1 0 0 1 1.029 0z"/></svg>