<svg xmlns="http://www.w3.org/2000/svg" xmlns:xlink="http://www.w3.org/1999/xlink" width="24" height="24" viewBox="0 0 24 24"><path fill="currentColor" d="M3 5.25A2.25 2.25 0 0 1 5.25 3h13.5A2.25 2.25 0 0 1 21 5.25v3a2.25 2.25 0 0 1-2.25 2.25H7.5v4.25c0 .966.784 1.75 1.75 1.75H12v-.75a2.25 2.25 0 0 1 2.25-2.25h4.5A2.25 2.25 0 0 1 21 15.75v3A2.25 2.25 0 0 1 18.75 21h-4.5A2.25 2.25 0 0 1 12 18.75V18H9.25A3.25 3.25 0 0 1 6 14.75V10.5h-.75A2.25 2.25 0 0 1 3 8.25zM18.75 9a.75.75 0 0 0 .75-.75v-3a.75.75 0 0 0-.75-.75H5.25a.75.75 0 0 0-.75.75v3c0 .414.336.75.75.75zm-5.25 6.75v3c0 .414.336.75.75.75h4.5a.75.75 0 0 0 .75-.75v-3a.75.75 0 0 0-.75-.75h-4.5a.75.75 0 0 0-.75.75"/></svg>