<svg xmlns="http://www.w3.org/2000/svg" xmlns:xlink="http://www.w3.org/1999/xlink" width="16" height="16" viewBox="0 0 16 16"><path fill="currentColor" d="M2 4.5A2.5 2.5 0 0 1 4.5 2h7A2.5 2.5 0 0 1 14 4.5v7a2.5 2.5 0 0 1-2.5 2.5h-7A2.5 2.5 0 0 1 2 11.5zM4.5 3A1.5 1.5 0 0 0 3 4.5v7A1.5 1.5 0 0 0 4.5 13h7a1.5 1.5 0 0 0 1.5-1.5v-7A1.5 1.5 0 0 0 11.5 3zm1 8.25a.75.75 0 1 0 0-1.5a.75.75 0 0 0 0 1.5M9 10.5C9 8.57 7.43 7 5.5 7a.5.5 0 0 0 0 1C6.879 8 8 9.121 8 10.5a.5.5 0 0 0 1 0m3 0C12 6.916 9.084 4 5.5 4a.5.5 0 0 0 0 1C8.532 5 11 7.468 11 10.5a.5.5 0 0 0 1 0"/></svg>