<svg xmlns="http://www.w3.org/2000/svg" xmlns:xlink="http://www.w3.org/1999/xlink" width="24" height="24" viewBox="0 0 24 24"><path fill="currentColor" d="M9.25 2A2.25 2.25 0 0 0 7 4.25v15.5A2.25 2.25 0 0 0 9.25 22h5.5A2.25 2.25 0 0 0 17 19.75V4.25A2.25 2.25 0 0 0 14.75 2zM8.5 19h1.75a.75.75 0 0 0 0-1.5H8.5V16h3.75a.75.75 0 0 0 0-1.5H8.5v-1.75h1.75a.75.75 0 0 0 0-1.5H8.5V9.5h3.75a.75.75 0 0 0 0-1.5H8.5V6.5h1.75a.75.75 0 0 0 0-1.5H8.5v-.75a.75.75 0 0 1 .75-.75h5.5a.75.75 0 0 1 .75.75v15.5a.75.75 0 0 1-.75.75h-5.5a.75.75 0 0 1-.75-.75z"/></svg>