<svg xmlns="http://www.w3.org/2000/svg" xmlns:xlink="http://www.w3.org/1999/xlink" width="32" height="32" viewBox="0 0 32 32"><path fill="currentColor" d="M11.988 3.833a1.016 1.016 0 0 0-1.167-.816a.984.984 0 0 0-.805 1.151q.048.264.112.52c-2.831.872-4.433 2.254-5.28 3.876c-.77 1.474-.84 3.023-.848 4.192l-1.477 1.898a2.5 2.5 0 0 0 .573 3.607l13.843 9.36a8 8 0 0 0 4.482 1.374h4.084a4.496 4.496 0 0 0 4.496-4.496c0-2.531-2.096-4.294-4.017-5.107c-.686-.291-1.255-.688-1.612-1.213l-4.279-7.302l.088-.014a.984.984 0 0 0 .806-1.151a1.016 1.016 0 0 0-1.166-.817c-3.753.637-7.2-1.608-7.834-5.062m5.84 7.133l4.834 8.25l.03.048c.647.975 1.604 1.585 2.512 1.97c.994.42 1.813 1.044 2.302 1.768h-6.124a2 2 0 0 1-1.118-.342l-4.709-3.177l1.317-.76a2.25 2.25 0 0 0 .823-3.073l-.88-1.525a2.25 2.25 0 0 0-3.074-.823l-3.96 2.286l-1.378-.93l1.473-.85a2.25 2.25 0 0 0 .823-3.073L8.776 7.403c.56-.311 1.242-.597 2.076-.844c1.37 2.54 4.025 4.167 6.975 4.407M13.71 18.24l-2.085-1.406l3.115-1.8a.25.25 0 0 1 .342.092l.88 1.525a.25.25 0 0 1-.091.341zM6.62 9.49c.145-.276.33-.557.568-.835l1.778 3.08a.25.25 0 0 1-.091.342l-2.318 1.338L6 13.037c0-1.209.038-2.431.62-3.547M4.1 15.884l.875-1.124l14.17 9.559a4 4 0 0 0 2.236.684h6.569a2.5 2.5 0 0 1-2.446 1.993H21.42a6 6 0 0 1-3.362-1.03L4.216 16.604a.5.5 0 0 1-.114-.721"/></svg>