<svg xmlns="http://www.w3.org/2000/svg" xmlns:xlink="http://www.w3.org/1999/xlink" width="20" height="20" viewBox="0 0 20 20"><path fill="currentColor" d="M6.994 2.406a.5.5 0 1 0-.984.18l.009.046c-1.729.573-2.748 1.49-3.327 2.513c-.565 1-.677 2.05-.69 2.855H2v.004l-.67.838a1.5 1.5 0 0 0 .331 2.179l8.655 5.86A6.5 6.5 0 0 0 13.96 18h2.79a2.25 2.25 0 0 0 2.227-2.572c-.16-1.097-1.087-1.884-2.047-2.188c-.609-.194-1.18-.509-1.514-1.005l-3.017-5.19l.18-.028a.5.5 0 1 0-.166-.986q-.428.071-.848.069c-2.07-.011-3.898-1.337-4.463-3.242a4 4 0 0 1-.108-.452M4.67 4.408l2.195 3.801A1 1 0 0 1 6.5 9.575l-.873.505L3 8.307V8.18c0-.766.082-1.692.563-2.543c.24-.426.591-.85 1.108-1.23m2.161 6.485l3.046-1.76a1 1 0 0 1 1.366.367l.603 1.044a1 1 0 0 1-.366 1.366l-1.692.977zM13.991 16h3.984c-.116.57-.62 1-1.225 1h-2.79a5.5 5.5 0 0 1-3.084-.946l-8.654-5.861a.5.5 0 0 1-.11-.726l.286-.36l9.076 6.123a4.5 4.5 0 0 0 2.517.77M2.11 9.467l-.39-.313Z"/></svg>