<svg xmlns="http://www.w3.org/2000/svg" xmlns:xlink="http://www.w3.org/1999/xlink" width="28" height="28" viewBox="0 0 28 28"><path fill="currentColor" d="M2.621 3.682A3.73 3.73 0 0 0 2 5.75v3a.75.75 0 0 0 1.5 0v-3c0-.347.079-.676.22-.97l7.212 7.213l-.075.087a3.3 3.3 0 0 1-.382.368l-1.858 1.085a2.74 2.74 0 0 0-1.189 3.342l.526 1.386a2.76 2.76 0 0 0 1.765 1.656l5.414 1.683a3.29 3.29 0 0 0 3.859-1.547l4.228 4.228a2.24 2.24 0 0 1-.97.219h-3a.75.75 0 0 0 0 1.5h3c.764 0 1.475-.229 2.068-.621l.401.401a.75.75 0 0 0 1.061-1.06L3.28 2.22a.75.75 0 1 0-1.06 1.06zm15.223 15.223l-.025.084a1.78 1.78 0 0 1-2.24 1.18l-5.414-1.685a1.26 1.26 0 0 1-.809-.756l-.525-1.385a1.24 1.24 0 0 1 .542-1.514l1.86-1.087l.067-.04l.002-.002l.009-.005l.012-.009l.016-.012l.006-.004a3 3 0 0 0 .143-.113a5 5 0 0 0 .507-.5zM5.219 2.037L6.682 3.5H8.75a.75.75 0 0 0 0-1.5h-3q-.27 0-.53.037m7.27 7.27l1.118 1.118c.116-.236.222-.444.323-.643l.003-.006c.255-.502.48-.947.736-1.577a.84.84 0 0 1 .297-.367a.43.43 0 0 1 .372-.064c.381.105.595.312.725.59c.137.296.187.687.197 1.162c.008.44-.087 1.008-.216 1.552c-.058.247-.123.486-.186.702a.75.75 0 0 0 .72.962h1.4c.857 0 1.455.81 1.22 1.602l-.384 1.294l1.207 1.207l.615-2.074c.526-1.773-.818-3.53-2.659-3.53h-.431c.12-.542.224-1.177.213-1.744c-.01-.52-.061-1.174-.337-1.765c-.313-.673-.875-1.18-1.686-1.404c-1.279-.352-2.171.61-2.457 1.313c-.23.569-.431.965-.687 1.468zM24.5 21.318l1.463 1.463q.037-.26.037-.531v-3a.75.75 0 0 0-1.5 0zM5.75 24.5a2.25 2.25 0 0 1-2.25-2.25v-3a.75.75 0 0 0-1.5 0v3A3.75 3.75 0 0 0 5.75 26h3a.75.75 0 0 0 0-1.5zM24.5 5.75a2.25 2.25 0 0 0-2.25-2.25h-3a.75.75 0 0 1 0-1.5h3A3.75 3.75 0 0 1 26 5.75v3a.75.75 0 0 1-1.5 0z"/></svg>