<svg xmlns="http://www.w3.org/2000/svg" xmlns:xlink="http://www.w3.org/1999/xlink" width="16" height="16" viewBox="0 0 16 16"><path fill="currentColor" d="M2 3.5A1.5 1.5 0 0 1 3.5 2h1a.5.5 0 0 0 0-1h-1A2.5 2.5 0 0 0 1 3.5v1a.5.5 0 0 0 1 0zm1.161 10.462Q3.326 14 3.5 14h1a.5.5 0 0 1 0 1h-1A2.5 2.5 0 0 1 1 12.5v-1a.5.5 0 0 1 1 0v1a1.5 1.5 0 0 0 1.161 1.462M12.5 2A1.5 1.5 0 0 1 14 3.5v1a.5.5 0 0 0 1 0v-1A2.5 2.5 0 0 0 12.5 1h-1a.5.5 0 0 0 0 1zm.339 11.962A1.5 1.5 0 0 1 12.5 14h-1a.5.5 0 0 0 0 1h1a2.5 2.5 0 0 0 2.5-2.5v-1a.5.5 0 0 0-1 0v1a1.5 1.5 0 0 1-1.161 1.462M3.5 13a.5.5 0 0 1-.5-.5A1.5 1.5 0 0 1 4.5 11h7a1.5 1.5 0 0 1 1.5 1.5a.5.5 0 0 1-.5.5H12v-.5a.5.5 0 0 0-.5-.5h-7a.5.5 0 0 0-.5.5v.5zm7.25-6.25a2.75 2.75 0 1 0-5.5 0a2.75 2.75 0 0 0 5.5 0m-4.5 0a1.75 1.75 0 1 1 3.5 0a1.75 1.75 0 0 1-3.5 0"/></svg>