<svg xmlns="http://www.w3.org/2000/svg" xmlns:xlink="http://www.w3.org/1999/xlink" width="28" height="28" viewBox="0 0 28 28"><path fill="currentColor" d="M5.75 4A1.75 1.75 0 0 0 4 5.75V9a1 1 0 0 1-2 0V5.75A3.75 3.75 0 0 1 5.75 2H9a1 1 0 0 1 0 2zm0 20A1.75 1.75 0 0 1 4 22.25V19a1 1 0 1 0-2 0v3.25A3.75 3.75 0 0 0 5.75 26H9a1 1 0 1 0 0-2zM24 5.75A1.75 1.75 0 0 0 22.25 4H19a1 1 0 1 1 0-2h3.25A3.75 3.75 0 0 1 26 5.75V9a1 1 0 1 1-2 0zM22.25 24A1.75 1.75 0 0 0 24 22.25V19a1 1 0 1 1 2 0v3.25A3.75 3.75 0 0 1 22.25 26H19a1 1 0 1 1 0-2zM7.75 14a1 1 0 0 1 1-1h10.5a1 1 0 1 1 0 2H8.75a1 1 0 0 1-1-1"/></svg>