<svg xmlns="http://www.w3.org/2000/svg" xmlns:xlink="http://www.w3.org/1999/xlink" width="16" height="16" viewBox="0 0 16 16"><path fill="currentColor" d="M3.5 2.5a1 1 0 0 0-1 1v.75a.75.75 0 0 1-1.5 0V3.5A2.5 2.5 0 0 1 3.5 1h.75a.75.75 0 0 1 0 1.5zm0 11a1 1 0 0 1-1-1v-.75a.75.75 0 0 0-1.5 0v.75A2.5 2.5 0 0 0 3.5 15h.75a.75.75 0 0 0 0-1.5zm10-10a1 1 0 0 0-1-1h-.75a.75.75 0 0 1 0-1.5h.75A2.5 2.5 0 0 1 15 3.5v.75a.75.75 0 0 1-1.5 0zm-1 10a1 1 0 0 0 1-1v-.75a.75.75 0 0 1 1.5 0v.75a2.5 2.5 0 0 1-2.5 2.5h-.75a.75.75 0 0 1 0-1.5zM4.5 8a.75.75 0 0 1 .75-.75h5.5a.75.75 0 0 1 0 1.5h-5.5A.75.75 0 0 1 4.5 8"/></svg>