<svg xmlns="http://www.w3.org/2000/svg" xmlns:xlink="http://www.w3.org/1999/xlink" width="16" height="16" viewBox="0 0 16 16"><path fill="currentColor" d="M2 4.5A2.5 2.5 0 0 1 4.5 2h7A2.5 2.5 0 0 1 14 4.5v7a2.5 2.5 0 0 1-2.5 2.5h-7A2.5 2.5 0 0 1 2 11.5zM4.5 3A1.5 1.5 0 0 0 3 4.5v7A1.5 1.5 0 0 0 4.5 13h7a1.5 1.5 0 0 0 1.5-1.5v-7A1.5 1.5 0 0 0 11.5 3zm.75 2a.25.25 0 0 0-.25.25V6.5a.5.5 0 0 1-1 0V5.25C4 4.56 4.56 4 5.25 4H6.5a.5.5 0 0 1 0 1zM5 10.75c0 .138.112.25.25.25H6.5a.5.5 0 0 1 0 1H5.25C4.56 12 4 11.44 4 10.75V9.5a.5.5 0 0 1 1 0zM10.75 5a.25.25 0 0 1 .25.25V6.5a.5.5 0 0 0 1 0V5.25C12 4.56 11.44 4 10.75 4H9.5a.5.5 0 0 0 0 1zm.25 5.75a.25.25 0 0 1-.25.25H9.5a.5.5 0 0 0 0 1h1.25c.69 0 1.25-.56 1.25-1.25V9.5a.5.5 0 0 0-1 0z"/></svg>