<svg xmlns="http://www.w3.org/2000/svg" xmlns:xlink="http://www.w3.org/1999/xlink" width="20" height="20" viewBox="0 0 20 20"><path fill="currentColor" d="M12.535 13.596c-.464.368-.98.674-1.535.906V14.5a5.5 5.5 0 0 0-.221-1.548a5 5 0 1 0-7.207-3.604c-.496.185-.958.44-1.373.753a6.5 6.5 0 1 1 11.397 2.435l3.434 3.434a.75.75 0 0 1-.976 1.133l-.084-.073zm-9.468-2.154a2 2 0 0 1-1.431 2.478l-.461.118a4.7 4.7 0 0 0 .01 1.016l.35.083a2 2 0 0 1 1.456 2.519l-.127.422q.387.307.835.518l.325-.344a2 2 0 0 1 2.91.002l.337.358q.44-.203.822-.498l-.156-.556a2 2 0 0 1 1.43-2.479l.46-.117a4.7 4.7 0 0 0-.01-1.017l-.348-.082a2 2 0 0 1-1.456-2.52l.126-.421a4.3 4.3 0 0 0-.835-.519l-.325.344a2 2 0 0 1-2.91-.001l-.337-.358a4.3 4.3 0 0 0-.821.497zM5.5 15.5a1 1 0 1 1 0-2a1 1 0 0 1 0 2"/></svg>