<svg xmlns="http://www.w3.org/2000/svg" xmlns:xlink="http://www.w3.org/1999/xlink" width="16" height="16" viewBox="0 0 16 16"><path fill="currentColor" d="M16 4.5a4.5 4.5 0 1 1-9 0a4.5 4.5 0 0 1 9 0m-4-2a.5.5 0 0 0-1 0V4H9.5a.5.5 0 0 0 0 1H11v1.5a.5.5 0 0 0 1 0V5h1.5a.5.5 0 0 0 0-1H12zm1 7.293q.524-.149 1-.393v2.85A1.75 1.75 0 0 1 12.25 14h-8.5A1.75 1.75 0 0 1 2 12.25V4.5A2.5 2.5 0 0 1 4.5 2h2.1a5.5 5.5 0 0 0-.393 1H4.5A1.5 1.5 0 0 0 3 4.5v3a2.496 2.496 0 0 1 3.37.34c.124-.173.275-.327.448-.453q.265.428.6.8A1 1 0 0 0 7 9v4h2V9.4q.476.244 1 .393V13h2.25a.75.75 0 0 0 .75-.75zM3.75 13H6V9.5a1.5 1.5 0 1 0-3 0v2.75c0 .414.336.75.75.75"/></svg>