<svg xmlns="http://www.w3.org/2000/svg" xmlns:xlink="http://www.w3.org/1999/xlink" width="20" height="20" viewBox="0 0 20 20"><path fill="currentColor" d="M19 5.5a4.5 4.5 0 1 1-9 0a4.5 4.5 0 0 1 9 0m-4-2a.5.5 0 0 0-1 0V5h-1.5a.5.5 0 0 0 0 1H14v1.5a.5.5 0 0 0 1 0V6h1.5a.5.5 0 0 0 0-1H15zm-.5 7.5c.692 0 1.355-.128 1.965-.361c.332.357.535.835.535 1.361v3a2 2 0 0 1-2 2h-2v-5c0-.416.127-.802.344-1.122q.56.121 1.156.122M6 3h3.6c-.384.75-.6 1.6-.6 2.5c0 1.335.476 2.56 1.267 3.512a3 3 0 0 0-2.767 1.33A2.997 2.997 0 0 0 3 9.763V6a3 3 0 0 1 3-3m6 9a2 2 0 1 0-4 0v5h4zm-5 5H5a2 2 0 0 1-2-2v-3a2 2 0 1 1 4 0z"/></svg>