<svg xmlns="http://www.w3.org/2000/svg" xmlns:xlink="http://www.w3.org/1999/xlink" width="16" height="16" viewBox="0 0 16 16"><path fill="currentColor" d="M9.854 5.854a.5.5 0 0 0-.708-.708L6.5 7.793L5.354 6.646a.5.5 0 1 0-.708.708l1.5 1.5a.5.5 0 0 0 .708 0zM2 4.5A2.5 2.5 0 0 1 4.5 2h5A2.5 2.5 0 0 1 12 4.5v5A2.5 2.5 0 0 1 9.5 12h-5A2.5 2.5 0 0 1 2 9.5zM4.5 3A1.5 1.5 0 0 0 3 4.5v5A1.5 1.5 0 0 0 4.5 11h5A1.5 1.5 0 0 0 11 9.5v-5A1.5 1.5 0 0 0 9.5 3zM7 14a2.5 2.5 0 0 1-2-1h4.5A3.5 3.5 0 0 0 13 9.5V4c.607.456 1 1.182 1 2v3.5A4.5 4.5 0 0 1 9.5 14z"/></svg>