<svg xmlns="http://www.w3.org/2000/svg" xmlns:xlink="http://www.w3.org/1999/xlink" width="24" height="24" viewBox="0 0 24 24"><path fill="currentColor" d="m12.815 11.95l-7.532 1.255a.5.5 0 0 0-.386.318L2.3 20.481c-.248.64.421 1.25 1.035.942l10.712-5.356a3.5 3.5 0 0 1 5.98-2.99l1.308-.654a.75.75 0 0 0 0-1.341l-18-9c-.614-.307-1.283.303-1.035.942l2.598 6.958a.5.5 0 0 0 .386.318l7.532 1.255a.2.2 0 0 1 0 .395M20 15.5a2.5 2.5 0 1 1-5 0a2.5 2.5 0 0 1 5 0m2 5.375C22 22.431 20.714 24 17.5 24S13 22.437 13 20.875v-.103c0-.98.794-1.772 1.773-1.772h5.454c.98 0 1.773.793 1.773 1.772z"/></svg>