<svg xmlns="http://www.w3.org/2000/svg" xmlns:xlink="http://www.w3.org/1999/xlink" width="32" height="32" viewBox="0 0 32 32"><path fill="currentColor" d="M2.078 3.965c-.407-1.265.91-2.395 2.099-1.8L29.171 14.66c.905.452 1.07 1.59.494 2.292a8.98 8.98 0 0 0-6.268-2.943L4.346 4.485l3.382 10.516H18.87a9 9 0 0 0-2.58 2H7.729L4.346 27.517l9.66-4.828a9.2 9.2 0 0 0 .181 2.145l-10.01 5.004c-1.188.594-2.506-.536-2.099-1.8L5.95 16zM23 30.5a7.5 7.5 0 1 1 0-15a7.5 7.5 0 0 1 0 15M22.75 18a.75.75 0 0 0-.75.75v4.5c0 .414.336.75.75.75h3.5a.75.75 0 1 0 0-1.5H23.5v-3.75a.75.75 0 0 0-.75-.75"/></svg>