<svg xmlns="http://www.w3.org/2000/svg" xmlns:xlink="http://www.w3.org/1999/xlink" width="24" height="24" viewBox="0 0 24 24"><path fill="currentColor" d="M7 11.5A.75.75 0 1 0 7 10a.75.75 0 0 0 0 1.5m3.25-.75a.75.75 0 1 1-1.5 0a.75.75 0 0 1 1.5 0m-2 3.25a.75.75 0 1 0 0-1.5a.75.75 0 0 0 0 1.5m3.25-.75a.75.75 0 1 1-1.5 0a.75.75 0 0 1 1.5 0m1.75.75a.75.75 0 1 0 0-1.5a.75.75 0 0 0 0 1.5m3.25-.75a.75.75 0 1 1-1.5 0a.75.75 0 0 1 1.5 0M12 11.5a.75.75 0 1 0 0-1.5a.75.75 0 0 0 0 1.5m3.25-.75a.75.75 0 1 1-1.5 0a.75.75 0 0 1 1.5 0m1.75.75a.75.75 0 1 0 0-1.5a.75.75 0 0 0 0 1.5M4.907 6.999a2.75 2.75 0 0 0-2.675 3.387l1.072 4.501A2.75 2.75 0 0 0 5.979 17h12.039a2.75 2.75 0 0 0 2.675-2.111l1.074-4.502A2.75 2.75 0 0 0 19.092 7zm-1.216 3.04a1.25 1.25 0 0 1 1.217-1.54h14.184a1.25 1.25 0 0 1 1.216 1.54l-1.074 4.502a1.25 1.25 0 0 1-1.216.96H5.979a1.25 1.25 0 0 1-1.216-.961z"/></svg>