<svg xmlns="http://www.w3.org/2000/svg" xmlns:xlink="http://www.w3.org/1999/xlink" width="16" height="16" viewBox="0 0 16 16"><path fill="currentColor" d="M8 2.5a1 1 0 0 1 1 1v.083a6 6 0 0 0-2 0V3.5a1 1 0 0 1 1-1m-2 1v.341C3.67 4.665 2 6.888 2 9.5a.5.5 0 0 0 .5.5h11a.5.5 0 0 0 .5-.5a6 6 0 0 0-4-5.659V3.5a2 2 0 1 0-4 0m2 1A5 5 0 0 1 12.975 9h-9.95A5 5 0 0 1 8 4.5m0 1a.5.5 0 0 0 0 1c1.019 0 1.92.508 2.463 1.286a.5.5 0 1 0 .82-.572A4 4 0 0 0 8 5.5M2.5 11a1.5 1.5 0 0 0 0 3h11a1.5 1.5 0 0 0 0-3zM2 12.5a.5.5 0 0 1 .5-.5h11a.5.5 0 0 1 0 1h-11a.5.5 0 0 1-.5-.5"/></svg>