<svg xmlns="http://www.w3.org/2000/svg" xmlns:xlink="http://www.w3.org/1999/xlink" width="24" height="24" viewBox="0 0 24 24"><path fill="currentColor" d="M6 5a3 3 0 0 1 3-3h6a3 3 0 0 1 3 3v9H9.25a.75.75 0 0 0 0 1.5h3.036c-.406.432-.731.94-.953 1.5H9.25a.75.75 0 0 0 0 1.5h1.757a4.73 4.73 0 0 0 1.28 3.5H8.999a3 3 0 0 1-3-3zm3.25 1a.75.75 0 0 0 0 1.5h5.5a.75.75 0 0 0 0-1.5zM23 18.75A3.75 3.75 0 0 0 19.25 15l-.102.007a.75.75 0 0 0 .102 1.493l.154.005A2.25 2.25 0 0 1 19.25 21l-.003.005l-.102.007a.75.75 0 0 0 .108 1.493V22.5l.2-.005A3.75 3.75 0 0 0 23 18.75m-6.5-3a.75.75 0 0 0-.75-.75l-.2.005a3.75 3.75 0 0 0 .2 7.495l.102-.007A.75.75 0 0 0 15.75 21l-.154-.005a2.25 2.25 0 0 1 .154-4.495l.102-.007a.75.75 0 0 0 .648-.743m3.5 3a.75.75 0 0 0-.75-.75h-3.5l-.102.007a.75.75 0 0 0 .102 1.493h3.5l.102-.007A.75.75 0 0 0 20 18.75"/></svg>