<svg xmlns="http://www.w3.org/2000/svg" xmlns:xlink="http://www.w3.org/1999/xlink" width="16" height="16" viewBox="0 0 16 16"><path fill="currentColor" d="M10 7h.5a.5.5 0 1 1 0 1H10zm.854-3.854a.5.5 0 0 1-.353.854H9.485A2.5 2.5 0 0 0 9 3.515V3.5a.5.5 0 0 1 .5-.5h1a.5.5 0 0 1 .354.146m3.122 5.196l1 3A.502.502 0 0 1 14.5 12h-3.255l-.325-.976l-.006-.01q-.005-.005-.006-.014h2.9l-.668-2h-.232a1.5 1.5 0 0 1-1.407 1H10V9h1.5a.5.5 0 0 0 .5-.5v-6a.5.5 0 0 0-.5-.5h-3a.5.5 0 0 0-.5.5v.551A2.5 2.5 0 0 0 7.5 3H7v-.5A1.5 1.5 0 0 1 8.5 1h3A1.5 1.5 0 0 1 13 2.5V8h.5a.5.5 0 0 1 .475.342M5.147 6.146A.5.5 0 0 0 5.501 7h1a.5.5 0 1 0 0-1h-1a.5.5 0 0 0-.354.146M6.501 11h-1a.5.5 0 0 1 0-1h1a.5.5 0 0 1 0 1m4.224 3.944a.5.5 0 0 0 .176-.152h.005a.5.5 0 0 0 .07-.45l-1-3A.5.5 0 0 0 9.5 11H9V5.5A1.5 1.5 0 0 0 7.5 4h-3A1.5 1.5 0 0 0 3 5.5V11h-.5a.5.5 0 0 0-.475.342l-1 3A.5.5 0 0 0 1.5 15h9q.119-.001.224-.056m-6.578-3.09A.5.5 0 0 1 4 11.5v-6a.5.5 0 0 1 .5-.5h3a.5.5 0 0 1 .5.5v6a.5.5 0 0 1-.5.5h-3a.5.5 0 0 1-.354-.146M8.91 12h.232l.667 2H2.194l.667-2h.232A1.5 1.5 0 0 0 4.5 13h3a1.5 1.5 0 0 0 1.408-1"/></svg>