<svg xmlns="http://www.w3.org/2000/svg" xmlns:xlink="http://www.w3.org/1999/xlink" width="20" height="20" viewBox="0 0 20 20"><path fill="currentColor" d="M1.911 7.383a8.5 8.5 0 0 1 1.78-3.08a.5.5 0 0 1 .54-.135l1.918.686a1 1 0 0 0 1.32-.762l.366-2.006a.5.5 0 0 1 .388-.4a8.5 8.5 0 0 1 3.554 0a.5.5 0 0 1 .388.4l.366 2.006a1 1 0 0 0 1.32.762l1.919-.686a.5.5 0 0 1 .54.136a8.5 8.5 0 0 1 1.78 3.079a.5.5 0 0 1-.153.535l-1.555 1.32q-.038.032-.071.067A5.5 5.5 0 0 0 14.5 9a5.5 5.5 0 0 0-2.537.618a2 2 0 1 0-2.345 2.346A5.5 5.5 0 0 0 9 14.5c0 .81.176 1.58.49 2.273l-.427 1.406a1.5 1.5 0 0 0-.055.264a9 9 0 0 1-.785-.13a.5.5 0 0 1-.388-.399l-.366-2.006a1 1 0 0 0-1.32-.762l-1.918.686a.5.5 0 0 1-.54-.136a8.5 8.5 0 0 1-1.78-3.079a.5.5 0 0 1 .152-.535l1.555-1.32a1 1 0 0 0 0-1.524l-1.555-1.32a.5.5 0 0 1-.152-.535m8.1 11.117a.41.41 0 0 0 .519.481l1.789-.544A4.5 4.5 0 1 0 14.501 10a4.5 4.5 0 0 0-2.722.916a4.5 4.5 0 0 0-.862.862A4.48 4.48 0 0 0 10 14.5c0 .792.205 1.536.564 2.182l-.545 1.789zm4.49-3.5a.5.5 0 0 1 0 1h-2a.5.5 0 1 1 0-1zm-2-2h4a.5.5 0 1 1 0 1h-4a.5.5 0 1 1 0-1"/></svg>