<svg xmlns="http://www.w3.org/2000/svg" xmlns:xlink="http://www.w3.org/1999/xlink" width="16" height="16" viewBox="0 0 16 16"><path fill="currentColor" d="M7 5a2 2 0 0 0-.38 3.964q.282-.545.675-1.008a1 1 0 1 1 .66-.661a5.5 5.5 0 0 1 1.009-.676A2 2 0 0 0 7 5M4.203 9.618a1.71 1.71 0 0 1 1.87.99a5.5 5.5 0 0 0 .12 2.336a6 6 0 0 1-.453-.078a.35.35 0 0 1-.275-.281l-.259-1.416a.708.708 0 0 0-.935-.538l-1.36.484a.36.36 0 0 1-.382-.095a6 6 0 0 1-1.262-2.173a.35.35 0 0 1 .108-.378l1.102-.931a.704.704 0 0 0 0-1.076l-1.102-.931a.35.35 0 0 1-.108-.378A6 6 0 0 1 2.53 2.98a.36.36 0 0 1 .382-.095l1.36.484a.71.71 0 0 0 .935-.538l.26-1.416a.35.35 0 0 1 .274-.282a6.1 6.1 0 0 1 2.52 0c.14.03.248.141.274.282l.26 1.416a.708.708 0 0 0 .935.538l1.36-.484a.36.36 0 0 1 .382.095a6 6 0 0 1 1.262 2.173a.35.35 0 0 1-.108.378l-.586.495a5.6 5.6 0 0 0-1.499.058q.136-.214.337-.386l.755-.637a5 5 0 0 0-.63-1.084l-.937.334a1.708 1.708 0 0 1-2.255-1.3l-.178-.97a5 5 0 0 0-1.265 0l-.177.97q-.026.137-.072.268a1.71 1.71 0 0 1-2.183 1.032L3 3.977a5 5 0 0 0-.63 1.084l.754.637q.106.09.196.196c.614.72.524 1.798-.196 2.407l-.755.638c.164.386.376.75.63 1.084l.937-.334q.131-.046.268-.071M11.5 16a4.5 4.5 0 1 0-3.936-2.318l-.545 1.789a.41.41 0 0 0 .51.51l1.79-.544A4.5 4.5 0 0 0 11.5 16M9 10.5a.5.5 0 0 1 .5-.5h4a.5.5 0 0 1 0 1h-4a.5.5 0 0 1-.5-.5m.5 2.5a.5.5 0 0 1 0-1h2a.5.5 0 0 1 0 1z"/></svg>