<svg xmlns="http://www.w3.org/2000/svg" xmlns:xlink="http://www.w3.org/1999/xlink" width="32" height="32" viewBox="0 0 32 32"><path fill="currentColor" d="M16 11a5 5 0 1 0 0 10a5 5 0 0 0 0-10m-3 5a3 3 0 1 1 6 0a3 3 0 0 1-6 0m-.16 13.628c1.035.247 2.096.372 3.16.372a13.6 13.6 0 0 0 3.156-.375a1.48 1.48 0 0 0 1.13-1.276l.234-2.13a1.47 1.47 0 0 1 2.066-1.2l1.955.856a1.47 1.47 0 0 0 1.671-.345a14.25 14.25 0 0 0 3.156-5.443a1.48 1.48 0 0 0-.535-1.627l-1.729-1.275a1.48 1.48 0 0 1 .003-2.396l1.72-1.27a1.47 1.47 0 0 0 .537-1.63a14.2 14.2 0 0 0-3.157-5.443a1.48 1.48 0 0 0-1.674-.345l-1.946.856a1.483 1.483 0 0 1-2.067-1.2l-.236-2.12a1.48 1.48 0 0 0-1.147-1.283a15 15 0 0 0-3.127-.363a15.4 15.4 0 0 0-3.146.363a1.47 1.47 0 0 0-1.147 1.28l-.237 2.122a1.493 1.493 0 0 1-2.073 1.206l-1.946-.857a1.49 1.49 0 0 0-1.67.35a14.25 14.25 0 0 0-3.16 5.446a1.48 1.48 0 0 0 .536 1.625l1.725 1.272a1.488 1.488 0 0 1 0 2.397L3.167 18.47a1.48 1.48 0 0 0-.535 1.63a14.25 14.25 0 0 0 3.16 5.45a1.46 1.46 0 0 0 1.077.465c.203 0 .404-.042.591-.123l1.955-.859a1.485 1.485 0 0 1 2.065 1.2l.235 2.126a1.48 1.48 0 0 0 1.125 1.27m5.501-1.866a11.6 11.6 0 0 1-4.677 0l-.195-1.74a3.48 3.48 0 0 0-1.14-2.208a3.53 3.53 0 0 0-3.718-.6l-1.606.7a12.2 12.2 0 0 1-2.348-4.05l1.424-1.052a3.488 3.488 0 0 0 0-5.616l-1.421-1.05a12.2 12.2 0 0 1 2.348-4.046l1.6.7a3.45 3.45 0 0 0 1.4.294a3.5 3.5 0 0 0 3.467-3.108l.194-1.747c.774-.15 1.56-.23 2.347-.24c.782.01 1.562.09 2.33.24l.186 1.74a3.48 3.48 0 0 0 1.137 2.216a3.53 3.53 0 0 0 3.727.6l1.6-.7a12.2 12.2 0 0 1 2.35 4.047l-1.423 1.046a3.48 3.48 0 0 0 0 5.62l1.422 1.05A12.3 12.3 0 0 1 25 23.901l-1.6-.7a3.473 3.473 0 0 0-4.866 2.81z"/></svg>