<svg xmlns="http://www.w3.org/2000/svg" xmlns:xlink="http://www.w3.org/1999/xlink" width="20" height="20" viewBox="0 0 20 20"><path fill="currentColor" d="M14.507 7.83c.41.316.883.327 1.339.528c.25.11.576.296.9.605c.661.631 1.255 1.718 1.255 3.537c0 2.062-1.012 3.47-2.537 4.332C13.97 17.677 11.997 18 10 18c-2.191 0-4.212-.378-5.685-1.617c-1.907-1.605-2.344-4.348-2.319-6.71c.007-.65.089-2.112.676-3.606c.392-.995 1.016-2.017 2.01-2.79c1.177-.914 2.705-1.3 4.178-1.276a7.8 7.8 0 0 1 2.255.402C12.269 2.805 13.6 3.68 13.6 5.5c0 1.36.49 2.007.906 2.33M4.96 15.616C6.162 16.628 7.891 17 10 17c1.916 0 3.692-.314 4.972-1.038c2.04-1.154 2.932-4.511 1.084-6.275a2.1 2.1 0 0 0-.612-.414c-.51-.224-1.098-.304-1.549-.652c-.683-.528-1.294-1.48-1.294-3.121c0-1.181-.817-1.805-1.815-2.153a7 7 0 0 0-1.825-.342c-1.28-.064-2.643.268-3.664 1.062c-.815.633-1.347 1.486-1.693 2.366c-.519 1.319-.6 2.669-.607 3.25c-.022 2.088.262 4.503 1.963 5.934"/></svg>