<svg xmlns="http://www.w3.org/2000/svg" xmlns:xlink="http://www.w3.org/1999/xlink" width="24" height="24" viewBox="0 0 24 24"><path fill="currentColor" d="M5.25 2A3.25 3.25 0 0 0 2 5.25v8q0 .15.013.297a3.2 3.2 0 0 0 .542 1.52c.258.382.596.707.989.95a3.2 3.2 0 0 0 1.409.47h.006a3 3 0 0 0 .291.013H7.5v2.25A3.25 3.25 0 0 0 10.75 22h8A3.25 3.25 0 0 0 22 18.75v-8a3.25 3.25 0 0 0-3.25-3.25H16.5V5.25q0-.15-.013-.297a3.2 3.2 0 0 0-.542-1.52a3.3 3.3 0 0 0-.989-.95a3.2 3.2 0 0 0-1.409-.47h-.006A3 3 0 0 0 13.25 2zm.69 1.5L3.5 5.94v-.69c0-.966.784-1.75 1.75-1.75zM3.5 8.06L8.06 3.5h1.88L3.5 9.94zm8.56-4.56h1.19q.31.002.588.101l-4.04 4.04a3.26 3.26 0 0 0-2.156 2.157l-4.04 4.04a1.8 1.8 0 0 1-.102-.588v-1.19zm2.84 1.162q.1.277.101.588v1.19L13.94 7.5h-1.88zm-7.4 7.399v1.879L6.44 15H5.25q-.31-.002-.588-.101zM9 10.75C9 9.784 9.784 9 10.75 9h8c.966 0 1.75.784 1.75 1.75v8a1.75 1.75 0 0 1-1.75 1.75h-8A1.75 1.75 0 0 1 9 18.75z"/></svg>