<svg xmlns="http://www.w3.org/2000/svg" xmlns:xlink="http://www.w3.org/1999/xlink" width="16" height="16" viewBox="0 0 16 16"><path fill="currentColor" d="M2 4a2 2 0 0 1 2-2h5a2 2 0 0 1 2 2v1h1a2 2 0 0 1 2 2v5a2 2 0 0 1-2 2H7a2 2 0 0 1-2-2v-1H4a2 2 0 0 1-2-2zm1 2.557v1.586L8.143 3H6.557zM5.143 3H4a1 1 0 0 0-1 1v1.143zm4.307.107L7.557 5h1.736L10 4.293V4a1 1 0 0 0-.55-.893M5 7.557L3.107 9.45A1 1 0 0 0 4 10h.293L5 9.293zM11.707 13H12a1 1 0 0 0 1-1v-.293zM13 10.293V8.707L8.707 13h1.586zm0-3V7a1 1 0 0 0-.454-.838L11 7.707V9q0 .163-.025.318zm-3.682 3.682A2 2 0 0 1 9 11H7.707l-1.545 1.546A1 1 0 0 0 7 13h.293zM6 7v3h3a1 1 0 0 0 1-1V6H7a1 1 0 0 0-1 1"/></svg>