<svg xmlns="http://www.w3.org/2000/svg" xmlns:xlink="http://www.w3.org/1999/xlink" width="16" height="16" viewBox="0 0 16 16"><path fill="currentColor" d="M2.75 3A1.75 1.75 0 0 0 1 4.75v6.5c0 .966.784 1.75 1.75 1.75h10.5A1.75 1.75 0 0 0 15 11.25v-6.5A1.75 1.75 0 0 0 13.25 3zM2 4.75A.75.75 0 0 1 2.75 4h10.5a.75.75 0 0 1 .75.75v6.5a.75.75 0 0 1-.75.75H2.75a.75.75 0 0 1-.75-.75zm6.354.396a.5.5 0 0 0-.708 0l-2 2a.5.5 0 1 0 .708.708L7.5 6.707V10.5a.5.5 0 0 0 1 0V6.707l1.146 1.147a.5.5 0 0 0 .708-.708z"/></svg>