<svg xmlns="http://www.w3.org/2000/svg" xmlns:xlink="http://www.w3.org/1999/xlink" width="28" height="28" viewBox="0 0 28 28"><path fill="currentColor" d="M12.25 3a.75.75 0 1 1 0 1.5h-5A2.75 2.75 0 0 0 4.5 7.25v13.5a2.75 2.75 0 0 0 2.75 2.75h13.5a2.75 2.75 0 0 0 2.75-2.75v-5a.75.75 0 0 1 1.5 0v5A4.25 4.25 0 0 1 20.75 25H7.25A4.25 4.25 0 0 1 3 20.75V7.25A4.25 4.25 0 0 1 7.25 3zm5.179-.928a.75.75 0 0 1 .796.098l8.25 6.75a.75.75 0 0 1 .039 1.127l-8.25 7.75A.75.75 0 0 1 17 17.25v-3.74c-1.166.036-2.463.189-3.854.802c-1.584.698-3.35 2.021-5.16 4.577l-.362.527A.75.75 0 0 1 6.25 19c0-4.406 1.34-7.56 3.51-9.608C11.738 7.527 14.325 6.656 17 6.52V2.75a.75.75 0 0 1 .429-.679m1.07 5.178a.75.75 0 0 1-.75.75c-2.66 0-5.145.772-6.959 2.483c-1.413 1.334-2.474 3.292-2.87 6.046c1.56-1.823 3.12-2.93 4.621-3.59C14.532 12.06 16.349 12 17.75 12a.75.75 0 0 1 .75.75v2.766l6.363-5.978L18.5 4.332z"/></svg>