<svg xmlns="http://www.w3.org/2000/svg" xmlns:xlink="http://www.w3.org/1999/xlink" width="20" height="20" viewBox="0 0 20 20"><path fill="currentColor" d="M9.5 3a.5.5 0 0 1 0 1H6a2 2 0 0 0-2 2v8a2 2 0 0 0 2 2h8a2 2 0 0 0 2-2v-1.5a.5.5 0 0 1 1 0V14a3 3 0 0 1-3 3H6a3 3 0 0 1-3-3V6a3 3 0 0 1 3-3zm3.797-.957a.5.5 0 0 1 .538.085l5 4.5a.5.5 0 0 1 0 .744l-5 4.5A.5.5 0 0 1 13 11.5V9.34c-1.4.128-2.665.78-3.7 1.608c-1.015.813-1.775 1.768-2.195 2.484l-.158.291A.5.5 0 0 1 6 13.5c0-2.049.382-4.284 1.518-6.024C8.61 5.808 10.368 4.643 13 4.513V2.5l.005-.073a.5.5 0 0 1 .292-.384M14 5a.5.5 0 0 1-.5.5c-2.588 0-4.177 1.045-5.144 2.523c-.685 1.049-1.073 2.34-1.246 3.684c.433-.52.96-1.054 1.565-1.54C9.943 9.153 11.6 8.316 13.5 8.316a.5.5 0 0 1 .5.5v1.56L17.75 7L14 3.623z"/></svg>