<svg xmlns="http://www.w3.org/2000/svg" xmlns:xlink="http://www.w3.org/1999/xlink" width="20" height="20" viewBox="0 0 20 20"><path fill="currentColor" d="M9.723 2.084a.5.5 0 0 1 .554 0a15.05 15.05 0 0 0 6.294 2.421A.5.5 0 0 1 17 5v4.6a5.5 5.5 0 0 0-6.782 8.352l-.038.015a.5.5 0 0 1-.36 0C5.308 16.23 3 13.39 3 9.5V5a.5.5 0 0 1 .43-.495a15.05 15.05 0 0 0 6.293-2.421M19 14.5a4.5 4.5 0 1 1-9 0a4.5 4.5 0 0 1 9 0m-4-2a.5.5 0 0 0-1 0V14h-1.5a.5.5 0 0 0 0 1H14v1.5a.5.5 0 0 0 1 0V15h1.5a.5.5 0 0 0 0-1H15z"/></svg>