<svg xmlns="http://www.w3.org/2000/svg" xmlns:xlink="http://www.w3.org/1999/xlink" width="48" height="48" viewBox="0 0 48 48"><path fill="currentColor" d="M24.865 4.348a1.25 1.25 0 0 0-1.73 0c-2.759 2.643-6.685 4.077-10.037 4.84c-1.66.376-3.139.58-4.202.69a29 29 0 0 1-1.574.119L7.22 10A1.25 1.25 0 0 0 6 11.25v9.5c0 4.837 1.243 9.658 4.098 13.775c2.861 4.126 7.29 7.469 13.529 9.418c.243.076.503.076.746 0q.465-.146.916-.3A12.95 12.95 0 0 1 22 35c0-7.18 5.82-13 13-13c2.508 0 4.85.71 6.835 1.94Q42 22.474 42 21v-9.75A1.25 1.25 0 0 0 40.78 10q-.052 0-.102-.003l-.328-.017a29 29 0 0 1-1.246-.102a36 36 0 0 1-4.202-.69c-3.353-.763-7.279-2.197-10.037-4.84M46 35c0 6.075-4.925 11-11 11s-11-4.925-11-11s4.925-11 11-11s11 4.925 11 11m-10-7a1 1 0 1 0-2 0v6h-6a1 1 0 1 0 0 2h6v6a1 1 0 1 0 2 0v-6h6a1 1 0 1 0 0-2h-6z"/></svg>