<svg xmlns="http://www.w3.org/2000/svg" xmlns:xlink="http://www.w3.org/1999/xlink" width="20" height="20" viewBox="0 0 20 20"><path fill="currentColor" d="M9.723 2.084a.5.5 0 0 1 .554 0a15.05 15.05 0 0 0 6.294 2.421A.5.5 0 0 1 17 5v4.5c0 3.891-2.307 6.73-6.82 8.467a.5.5 0 0 1-.36 0C5.308 16.23 3 13.39 3 9.5V5a.5.5 0 0 1 .43-.495a15.05 15.05 0 0 0 6.293-2.421m-.124 1.262A16 16 0 0 1 4 5.428V9.5c0 3.392 1.968 5.863 6 7.463c4.032-1.6 6-4.071 6-7.463V5.428a16 16 0 0 1-5.6-2.082l-.4-.249zM10.75 13.75a.75.75 0 1 1-1.5 0a.75.75 0 0 1 1.5 0m-2-5.5a1.25 1.25 0 1 1 2.5 0c0 .465-.27.762-.728 1.22l-.035.035c-.415.413-.987.983-.987 1.895v.1a.5.5 0 0 0 1 0v-.1c0-.467.27-.765.728-1.222l.037-.037c.414-.412.985-.981.985-1.891a2.25 2.25 0 0 0-4.5 0a.5.5 0 0 0 1 0"/></svg>