<svg xmlns="http://www.w3.org/2000/svg" xmlns:xlink="http://www.w3.org/1999/xlink" width="48" height="48" viewBox="0 0 48 48"><path fill="currentColor" d="M24.865 4.348a1.25 1.25 0 0 0-1.73 0c-2.759 2.643-6.685 4.077-10.037 4.84c-1.66.376-3.139.58-4.202.69a30 30 0 0 1-1.246.102q-.213.014-.426.02H7.22A1.25 1.25 0 0 0 6 11.25v9.5c0 4.837 1.243 9.658 4.098 13.775c2.861 4.126 7.29 7.469 13.529 9.418c.243.076.503.076.746 0q.465-.146.916-.3a13 13 0 0 1-1.654-2.327c-5.363-1.823-9.078-4.749-11.483-8.216C9.632 29.467 8.5 25.163 8.5 20.75v-8.325q.296-.024.651-.06a38 38 0 0 0 4.5-.74c3.22-.731 7.211-2.102 10.349-4.702c3.137 2.6 7.13 3.97 10.348 4.702a38 38 0 0 0 5.152.8V21q0 .89-.066 1.776c.845.306 1.649.698 2.401 1.164Q42 22.474 42 21v-9.75A1.25 1.25 0 0 0 40.78 10h-.004a15 15 0 0 1-.426-.02a29 29 0 0 1-1.246-.102a36 36 0 0 1-4.202-.69c-3.353-.763-7.279-2.197-10.037-4.84M35 24c6.075 0 11 4.925 11 11s-4.925 11-11 11s-11-4.925-11-11s4.925-11 11-11m-8 11a1 1 0 0 0 1 1h11.586l-3.293 3.293a1 1 0 0 0 1.414 1.414l5-5a1 1 0 0 0 0-1.414l-5-5a1 1 0 0 0-1.414 1.414L39.586 34H28a1 1 0 0 0-1 1"/></svg>