<svg xmlns="http://www.w3.org/2000/svg" xmlns:xlink="http://www.w3.org/1999/xlink" width="16" height="16" viewBox="0 0 16 16"><path fill="currentColor" d="M7.647 2.146a.5.5 0 0 1 .708 0C9.595 3.39 10.969 4 12.5 4a.5.5 0 0 1 .5.5v1.1a5.5 5.5 0 0 0-1-.393v-.226c-1.48-.112-2.815-.726-4-1.792c-1.186 1.066-2.52 1.68-4 1.792v2.52c0 1.431.361 2.56 1.017 3.44c.053.66.222 1.288.487 1.862C3.844 11.59 3 9.81 3 7.502V4.5a.5.5 0 0 1 .5-.5c1.53 0 2.904-.611 4.147-1.854M15 10.5a4.5 4.5 0 1 1-9 0a4.5 4.5 0 0 1 9 0m-2.146-1.854a.5.5 0 0 0-.708 0L9.5 11.293l-.646-.647a.5.5 0 0 0-.708.708l1 1a.5.5 0 0 0 .708 0l3-3a.5.5 0 0 0 0-.708"/></svg>