<svg xmlns="http://www.w3.org/2000/svg" xmlns:xlink="http://www.w3.org/1999/xlink" width="16" height="16" viewBox="0 0 16 16"><path fill="currentColor" d="M8.355 2.147a.5.5 0 0 0-.708 0C6.404 3.388 5.03 4 3.5 4a.5.5 0 0 0-.5.5v3.001c0 3.219 1.641 5.407 4.842 6.473a.5.5 0 0 0 .316 0C11.358 12.908 13 10.72 13 7.501V4.5a.5.5 0 0 0-.5-.5c-1.531 0-2.905-.61-4.145-1.853M4 4.98c1.48-.112 2.814-.726 4-1.792c1.185 1.066 2.52 1.68 4 1.792V7.5c0 1.434-.363 2.565-1.021 3.444c-.638.852-1.609 1.543-2.979 2.027c-1.37-.483-2.341-1.175-2.979-2.027C4.363 10.065 4 8.935 4 7.501zM9.937 8.5h-.45c-.02.344-.06.67-.119.959c.272-.256.473-.586.569-.959m0-1a2 2 0 0 0-.569-.959c.059.29.099.615.118.959zm-1.453 0a6 6 0 0 0-.068-.607C8.326 6.355 8.174 6 8 6s-.327.355-.416.893a6 6 0 0 0-.068.607zm-.968 1q.021.331.068.607c.09.538.242.893.416.893s.327-.355.416-.893a6 6 0 0 0 .068-.607zm-1.002 0h-.451c.096.373.297.703.569.959a7 7 0 0 1-.118-.959m0-1c.02-.344.059-.67.118-.959a2 2 0 0 0-.569.959zM11 8a3 3 0 1 1-6 0a3 3 0 0 1 6 0"/></svg>