<svg xmlns="http://www.w3.org/2000/svg" xmlns:xlink="http://www.w3.org/1999/xlink" width="16" height="16" viewBox="0 0 16 16"><path fill="currentColor" d="M7.998 2.478a.5.5 0 0 1-.453.542a5 5 0 1 0 5.435 5.435a.5.5 0 0 1 .996.09a6 6 0 1 1-6.52-6.52a.5.5 0 0 1 .542.453M7.5 5a.5.5 0 0 1 .5.5V8h1.5a.5.5 0 0 1 0 1h-2a.5.5 0 0 1-.5-.5v-3a.5.5 0 0 1 .5-.5m2.136-2.774a.5.5 0 1 0-.272.962c.547.155 1.057.4 1.511.72a.5.5 0 0 0 .576-.817a6 6 0 0 0-1.815-.865m3.273 2.323a.5.5 0 1 0-.818.576c.32.454.566.964.72 1.511a.5.5 0 0 0 .963-.272a6 6 0 0 0-.865-1.815"/></svg>