<svg xmlns="http://www.w3.org/2000/svg" xmlns:xlink="http://www.w3.org/1999/xlink" width="16" height="16" viewBox="0 0 16 16"><path fill="currentColor" d="M7.357 3.545a.75.75 0 0 0-.212-1.485a6.001 6.001 0 1 0 6.794 6.798a.75.75 0 1 0-1.485-.212a4.501 4.501 0 1 1-5.097-5.1M10 2.341a.75.75 0 0 0-.5 1.415q.453.16.856.408a.75.75 0 1 0 .786-1.277A6 6 0 0 0 10 2.341m3.115 2.52a.75.75 0 1 0-1.277.786q.247.4.406.85a.75.75 0 0 0 1.414-.5a6 6 0 0 0-.543-1.136M8 5.75a.75.75 0 0 0-1.5 0v3c0 .414.336.75.75.75h2a.75.75 0 1 0 0-1.5H8z"/></svg>