<svg xmlns="http://www.w3.org/2000/svg" xmlns:xlink="http://www.w3.org/1999/xlink" width="28" height="28" viewBox="0 0 28 28"><path fill="currentColor" d="M11.5 2A3.5 3.5 0 0 0 8 5.5V8H5.5A1.5 1.5 0 0 0 4 9.5V22a4 4 0 0 0 4 4h10.085l-1.5-1.5H8A2.5 2.5 0 0 1 5.5 22V9.5H16V13h1.5V9.5h5v5.08l1.5 1.5V9.5A1.5 1.5 0 0 0 22.5 8H20V5.5a3.5 3.5 0 0 0-6-2.45A3.5 3.5 0 0 0 11.5 2m7 3.5V8H15V5.5a3.5 3.5 0 0 0-.174-1.094A2 2 0 0 1 18.5 5.5m-7-2a2 2 0 0 1 2 2V8h-4V5.5a2 2 0 0 1 2-2m2.501 16.18L14 16.003a2 2 0 0 1 2-2l3.678.002a2 2 0 0 1 1.414.585l5.323 5.322c.781.78.781 2.047 0 2.827l-3.676 3.675a2 2 0 0 1-2.829 0l-5.323-5.321a2 2 0 0 1-.586-1.413M16 17a1 1 0 1 0 2 0a1 1 0 0 0-2 0"/></svg>