<svg xmlns="http://www.w3.org/2000/svg" xmlns:xlink="http://www.w3.org/1999/xlink" width="32" height="32" viewBox="0 0 32 32"><path fill="currentColor" d="M13.5 2A4.5 4.5 0 0 0 9 6.5V10H7a2 2 0 0 0-2 2v13.5A4.5 4.5 0 0 0 9.5 30h7.843a9 9 0 0 1-1.828-2H9.5A2.5 2.5 0 0 1 7 25.5V12h11v3.515a9 9 0 0 1 2-1.003V12h5v2.223c.701.16 1.372.4 2 .712V12a2 2 0 0 0-2-2h-2.002V6.5A4.5 4.5 0 0 0 16 2.757A4.5 4.5 0 0 0 13.5 2m7.498 8H18V6.5c0-.818-.218-1.585-.6-2.246A2.5 2.5 0 0 1 20.998 6.5zM11 6.5a2.5 2.5 0 0 1 5 0V10h-5zm12 9a7.5 7.5 0 1 1 0 15a7.5 7.5 0 0 1 0-15m4.53 4.72a.75.75 0 0 0-1.06 0l-4.72 4.72l-1.97-1.97a.75.75 0 1 0-1.06 1.06l2.5 2.5a.75.75 0 0 0 1.06 0l5.25-5.25a.75.75 0 0 0 0-1.06"/></svg>