<svg xmlns="http://www.w3.org/2000/svg" xmlns:xlink="http://www.w3.org/1999/xlink" width="16" height="16" viewBox="0 0 16 16"><path fill="currentColor" d="M5 5V3a2 2 0 0 1 3-1.732A2 2 0 0 1 11 3v2h.5a1.5 1.5 0 0 1 1.47 1.199A5.5 5.5 0 0 0 11.5 6H10v.207q-.524.149-1 .393V6H4.5a.5.5 0 0 0-.5.5V13a1 1 0 0 0 1 1h1.6q.276.538.657 1H5a2 2 0 0 1-2-2V6.5A1.5 1.5 0 0 1 4.5 5zm1-2v2h2V3a1 1 0 0 0-2 0m3 0v2h1V3a1 1 0 0 0-1.25-.969c.16.287.25.618.25.969m7 8.5a4.5 4.5 0 1 1-9 0a4.5 4.5 0 0 1 9 0m-2.146-1.854a.5.5 0 0 0-.708 0L10.5 12.293l-.646-.647a.5.5 0 0 0-.708.708l1 1a.5.5 0 0 0 .708 0l3-3a.5.5 0 0 0 0-.708"/></svg>