<svg xmlns="http://www.w3.org/2000/svg" xmlns:xlink="http://www.w3.org/1999/xlink" width="20" height="20" viewBox="0 0 20 20"><path fill="currentColor" d="M15 6a1 1 0 0 1 1 1v2.207a5.5 5.5 0 0 0-1-.185V7h-3v2.6a5.5 5.5 0 0 0-1 .657V7H5v8a1.98 1.98 0 0 0 .586 1.414A2.02 2.02 0 0 0 7 17h2.6q.276.538.657 1H7q-.625 0-1.164-.234a3 3 0 0 1-.953-.641a3.1 3.1 0 0 1-.648-.953A2.9 2.9 0 0 1 4 15V7a1 1 0 0 1 1-1h1V4.5q0-.516.195-.969q.195-.46.539-.797q.336-.344.797-.539Q7.984 2 8.5 2q.421 0 .805.133q.384.134.703.375A2.44 2.44 0 0 1 11.5 2a2.48 2.48 0 0 1 2.305 1.531Q14 3.984 14 4.5V6zm-2-1.5q0-.312-.117-.586A1.48 1.48 0 0 0 11.5 3q-.46 0-.828.258A2.5 2.5 0 0 1 11 4.5V6h2zM7 6h3V4.5q0-.312-.117-.586A1.48 1.48 0 0 0 8.5 3q-.312 0-.586.117A1.48 1.48 0 0 0 7 4.5zm12 8.5a4.5 4.5 0 1 1-9 0a4.5 4.5 0 0 1 9 0m-4.98-1.966a.45.45 0 0 0-.447-.037a.5.5 0 0 0-.156.108a.5.5 0 0 0-.145.357v3.075a.5.5 0 0 0 .145.358a.6.6 0 0 0 .158.11a.45.45 0 0 0 .36.006a1 1 0 0 0 .093-.05l2.296-1.567a.46.46 0 0 0 .163-.185a.54.54 0 0 0-.003-.487a.5.5 0 0 0-.168-.182z"/></svg>