<svg xmlns="http://www.w3.org/2000/svg" xmlns:xlink="http://www.w3.org/1999/xlink" width="48" height="48" viewBox="0 0 48 48"><path fill="currentColor" d="M20 4a6 6 0 0 0-6 6v4h-3.5A2.5 2.5 0 0 0 8 16.5v21a6.5 6.5 0 0 0 6.5 6.5h19a6.5 6.5 0 0 0 6.5-6.5v-21a2.5 2.5 0 0 0-2.5-2.5H34v-4a6 6 0 0 0-10-4.472A5.98 5.98 0 0 0 20 4m17.5 12.5v21a4 4 0 0 1-8 0v-21zm-9.124 25H14.5a4 4 0 0 1-4-4v-21H27v21c0 1.508.514 2.897 1.376 4M31.5 14H26v-4a6 6 0 0 0-.514-2.434A3.5 3.5 0 0 1 31.5 10zm-8-4v4h-7v-4a3.5 3.5 0 1 1 7 0"/></svg>