<svg xmlns="http://www.w3.org/2000/svg" xmlns:xlink="http://www.w3.org/1999/xlink" width="24" height="24" viewBox="0 0 24 24"><path fill="currentColor" d="M17.5 12a5.5 5.5 0 1 1 0 11a5.5 5.5 0 0 1 0-11M14 2a3 3 0 0 1 3 3v2h1.5A1.5 1.5 0 0 1 20 8.5v2.998A6.5 6.5 0 0 0 17.5 11a6.5 6.5 0 0 0-3 .732V7h1V5a1.5 1.5 0 0 0-2.655-.956c.1.3.155.622.155.956v7.81a6.48 6.48 0 0 0-2 4.69c0 1.747.689 3.332 1.81 4.5H8a4 4 0 0 1-4-4V8.5A1.5 1.5 0 0 1 5.5 7H7V5a3 3 0 0 1 5-2.236A3 3 0 0 1 14 2m6 15.5a1.5 1.5 0 1 0 0 3a1.5 1.5 0 0 0 0-3m.33-2.828a.5.5 0 0 0-.707 0l-4.95 4.95a.5.5 0 0 0 .707.707l4.95-4.95a.5.5 0 0 0 0-.707M20 18.5a.5.5 0 1 1 0 1a.5.5 0 0 1 0-1m-5-4a1.5 1.5 0 1 0 0 3a1.5 1.5 0 0 0 0-3m0 1a.5.5 0 1 1 0 1a.5.5 0 0 1 0-1m-5-12A1.5 1.5 0 0 0 8.5 5v2h3V5A1.5 1.5 0 0 0 10 3.5"/></svg>