<svg xmlns="http://www.w3.org/2000/svg" xmlns:xlink="http://www.w3.org/1999/xlink" width="32" height="32" viewBox="0 0 32 32"><path fill="currentColor" d="M20.508 7.07c-3.512-1.773-7.852-1.343-10.962 1.29a3.124 3.124 0 0 0-3.594 5.008l12.704 12.704a3.123 3.123 0 0 0 4.99-3.627c2.63-3.112 3.056-7.45 1.28-10.96l3.153-3.155a3.122 3.122 0 1 0-4.416-4.415zm-9.413 2.61a8.001 8.001 0 0 1 11.226 11.226zm-3.729.687a1.123 1.123 0 0 1 1.548-.037l12.781 12.78a1.122 1.122 0 0 1-1.625 1.548L7.366 11.954a1.123 1.123 0 0 1 0-1.588m14.864-2.19l2.848-2.847a1.122 1.122 0 1 1 1.587 1.587l-2.847 2.847a10 10 0 0 0-1.588-1.587M7.707 19.707a1 1 0 1 0-1.414-1.414l-3 3a1 1 0 1 0 1.414 1.414zm3 1.586a1 1 0 0 1 0 1.414l-3 3a1 1 0 0 1-1.414-1.414l3-3a1 1 0 0 1 1.414 0m3 4.414a1 1 0 0 0-1.414-1.414l-3 3a1 1 0 1 0 1.414 1.414z"/></svg>