<svg xmlns="http://www.w3.org/2000/svg" xmlns:xlink="http://www.w3.org/1999/xlink" width="16" height="16" viewBox="0 0 16 16"><path fill="currentColor" d="M9.021 1.772a2.445 2.445 0 0 1 3.458 3.457l-.272.271l.086.086a2 2 0 0 1 0 2.828l-1.44 1.44a.5.5 0 0 1-.707-.707l1.44-1.44a1 1 0 0 0 0-1.414l-.086-.086l-5.646 5.647a.5.5 0 0 1-.233.131l-4 1a.5.5 0 0 1-.595-.643l1.25-3.75a.5.5 0 0 1 .12-.195l6.625-6.625Zm2.75.707a1.445 1.445 0 0 0-2.042 0L3.187 9.02l-.925 2.774l2.982-.745l6.527-6.527a1.445 1.445 0 0 0 0-2.043ZM4.967 15c-1.235 0-2.208-.566-2.855-1.107l1.284-.32a3.2 3.2 0 0 0 1.57.427c.406 0 .824-.164 1.27-.457c.447-.293.878-.687 1.314-1.095l.113-.107c.385-.361.784-.737 1.166-.996c.408-.278.95-.53 1.517-.311c.376.144.62.41.791.736c.161.306.272.688.38 1.105c.05.19.133.374.23.498a.46.46 0 0 0 .114.112c.025.015.036.015.039.015c.122 0 .331-.082.63-.286c.185-.126.344-.252.502-.379c.098-.078.197-.157.302-.235c.279-.209.52-.349.697-.438a3.05 3.05 0 0 1 .278-.124l.02-.008l.007-.002l.003-.001h.001l.16.473l-.159-.474a.5.5 0 0 1 .321.947l-.004.002a2.141 2.141 0 0 0-.175.08c-.13.064-.321.174-.55.346c-.059.043-.135.104-.223.174c-.181.143-.409.324-.618.466c-.31.212-.741.46-1.192.46c-.436 0-.751-.265-.946-.517a2.435 2.435 0 0 1-.405-.858c-.11-.423-.196-.7-.296-.89c-.09-.168-.17-.232-.266-.27c-.082-.03-.245-.033-.595.206c-.313.212-.655.533-1.058.912l-.1.093c-.431.405-.92.855-1.449 1.202c-.53.348-1.14.621-1.818.621Z"/></svg>