<svg xmlns="http://www.w3.org/2000/svg" xmlns:xlink="http://www.w3.org/1999/xlink" width="24" height="24" viewBox="0 0 24 24"><path fill="currentColor" d="M12 4.354v6.65h7.442L17.72 9.28a.75.75 0 0 1-.073-.977l.073-.084a.75.75 0 0 1 .976-.072l.084.072l2.997 2.998a.75.75 0 0 1 .073.976l-.073.084l-2.996 3.003a.75.75 0 0 1-1.134-.975l.072-.084l1.713-1.717h-7.431L12 19.25a.75.75 0 0 1-.88.738l-8.5-1.501a.75.75 0 0 1-.62-.739V5.75a.75.75 0 0 1 .628-.74l8.5-1.396a.75.75 0 0 1 .872.74m-3.498 7.145a1.002 1.002 0 1 0 0 2.005a1.002 1.002 0 0 0 0-2.005M13 18.502h.765l.102-.007a.75.75 0 0 0 .648-.744l-.007-4.25H13zM13.002 10L13 8.725V5h.745a.75.75 0 0 1 .743.647l.007.101l.007 4.252z"/></svg>