<svg xmlns="http://www.w3.org/2000/svg" xmlns:xlink="http://www.w3.org/1999/xlink" width="20" height="20" viewBox="0 0 20 20"><path fill="currentColor" d="M10 4a6.99 6.99 0 0 0-5.745 3H7.5a.5.5 0 1 1 0 1h-4a.5.5 0 0 1-.5-.5v-4a.5.5 0 0 1 1 0v2.209A7.98 7.98 0 0 1 10 3a8 8 0 0 1 7.077 4.266a.5.5 0 0 1-.884.468A7 7 0 0 0 10 4m4.5 6.5a.5.5 0 0 1-.5.5h-2.307l-.126 1h.934q.15 0 .304.019a2.5 2.5 0 1 1-2.47 3.731a.5.5 0 0 1 .865-.5A1.5 1.5 0 1 0 12.5 13H11a.5.5 0 0 1-.495-.562l.25-2a.5.5 0 0 1 .496-.438H14a.5.5 0 0 1 .5.5m-6.764-.44A.5.5 0 0 1 8 10.5v6a.5.5 0 0 1-1 0v-5.066l-.723.482a.5.5 0 1 1-.554-.832l1.5-1a.5.5 0 0 1 .513-.025"/></svg>