<svg xmlns="http://www.w3.org/2000/svg" xmlns:xlink="http://www.w3.org/1999/xlink" width="28" height="28" viewBox="0 0 28 28"><path fill="currentColor" d="M2.75 2.5a.75.75 0 0 0-.75.75v6.5c0 .414.336.75.75.75h6.5a.75.75 0 0 0 0-1.5H4.59c1.68-2.531 5.066-4.5 9.16-4.5c4.217 0 7.541 1.998 9.867 5.653a.75.75 0 1 0 1.266-.806C22.31 5.307 18.533 3 13.75 3C9.316 3 5.524 5.073 3.5 7.937V3.25a.75.75 0 0 0-.75-.75m8.198 10.975a.75.75 0 0 0-.337-.383a.75.75 0 0 0-.985.242l-.064.096c-.296.445-1.168 1.76-2.697 2.677a.75.75 0 0 0 .771 1.286A9.3 9.3 0 0 0 9.5 15.905v8.345a.75.75 0 0 0 1.5 0V13.767a.8.8 0 0 0-.052-.292m3.906 1.439C15.53 13.739 16.65 13 18.238 13c1.59 0 2.709.739 3.385 1.914c.643 1.116.865 2.584.865 4.086s-.222 2.97-.865 4.087C20.947 24.26 19.828 25 18.238 25s-2.708-.739-3.384-1.913c-.643-1.117-.865-2.585-.865-4.087s.222-2.97.865-4.086m1.3.748c-.45.783-.665 1.94-.665 3.338c0 1.397.214 2.555.665 3.338c.418.726 1.05 1.162 2.084 1.162s1.667-.436 2.085-1.162c.45-.783.665-1.94.665-3.338c0-1.397-.214-2.555-.665-3.338c-.418-.726-1.05-1.162-2.085-1.162s-1.666.436-2.084 1.162"/></svg>