<svg xmlns="http://www.w3.org/2000/svg" xmlns:xlink="http://www.w3.org/1999/xlink" width="20" height="20" viewBox="0 0 20 20"><path fill="currentColor" d="M16.344 3a.75.75 0 0 0-.75.75v1.839A8.23 8.23 0 0 0 9.593 3a8.24 8.24 0 0 0-6.977 3.845a.75.75 0 1 0 1.268.802A6.75 6.75 0 0 1 9.593 4.5c1.875 0 3.572.764 4.796 2h-2.045a.75.75 0 0 0 0 1.5h4a.75.75 0 0 0 .75-.75v-3.5a.75.75 0 0 0-.75-.75m-1.845 7.75a.75.75 0 0 1-.75.75h-1.838l-.062.503h.52a2.5 2.5 0 1 1-2.132 3.562a.75.75 0 1 1 1.357-.64q.078.165.208.292a1 1 0 1 0 .634-1.715l-.046.001H11a.75.75 0 0 1-.745-.842l.25-2.003a.75.75 0 0 1 .743-.658h2.501a.75.75 0 0 1 .75.75m-6.932-.681a.75.75 0 0 1 .437.681v5.5a.75.75 0 0 1-1.5 0v-3.868l-.516.442a.75.75 0 0 1-.976-1.138l1.754-1.505a.75.75 0 0 1 .801-.112"/></svg>