<svg xmlns="http://www.w3.org/2000/svg" xmlns:xlink="http://www.w3.org/1999/xlink" width="20" height="20" viewBox="0 0 20 20"><path fill="currentColor" d="M16.5 3a.5.5 0 0 1 .5.5v4a.5.5 0 0 1-.5.5h-4a.5.5 0 1 1 0-1h3.249a6.997 6.997 0 0 0-12.012.89a.5.5 0 1 1-.896-.445A7.996 7.996 0 0 1 16 5.702V3.5a.5.5 0 0 1 .5-.5m-2.998 7c-.935 0-1.597.437-1.996 1.13c-.376.653-.504 1.507-.504 2.37s.128 1.717.504 2.37c.399.693 1.061 1.13 1.996 1.13s1.597-.437 1.996-1.13c.376-.653.504-1.507.504-2.37s-.128-1.717-.504-2.37c-.399-.693-1.061-1.13-1.996-1.13m-1.5 3.5c0-.793.122-1.44.37-1.872c.227-.393.565-.628 1.13-.628s.903.235 1.13.628c.248.432.37 1.079.37 1.872s-.122 1.44-.37 1.872c-.227.393-.565.628-1.13.628s-.903-.235-1.13-.628c-.248-.432-.37-1.078-.37-1.872m-6.857-1.896a.5.5 0 0 0 .705.002l.002-.001l.015-.014q.023-.021.077-.064A2.56 2.56 0 0 1 7.499 11c.598 0 .98.162 1.202.35a.8.8 0 0 1 .303.637C8.994 12.397 8.6 13 7.5 13a.5.5 0 0 0 0 1c1.101 0 1.495.602 1.505 1.013a.8.8 0 0 1-.303.637c-.221.188-.604.35-1.202.35a2.56 2.56 0 0 1-1.555-.527l-.092-.078a.5.5 0 0 0-.707.001c-.337.338 0 .708 0 .708l.056.051q.045.042.127.106a3.56 3.56 0 0 0 2.171.74c.777-.001 1.407-.213 1.849-.588a1.8 1.8 0 0 0 .656-1.426c-.015-.589-.309-1.122-.812-1.487c.503-.365.797-.898.812-1.487a1.8 1.8 0 0 0-.656-1.426C8.906 10.213 8.276 10 7.499 10a3.56 3.56 0 0 0-2.171.74a3 3 0 0 0-.164.139l-.012.01l-.004.005l-.001.001l-.001.001a.5.5 0 0 0 0 .708m.707 3.791H5.85Z"/></svg>