<svg xmlns="http://www.w3.org/2000/svg" xmlns:xlink="http://www.w3.org/1999/xlink" width="20" height="20" viewBox="0 0 20 20"><path fill="currentColor" d="M4.5 4A2.5 2.5 0 0 0 2 6.5v7A2.5 2.5 0 0 0 4.5 16h4.976c.152-.501.426-.958.798-1.33l4.829-4.83A2.87 2.87 0 0 1 18 9.135V6.5A2.5 2.5 0 0 0 15.5 4zM6 7h8a1 1 0 1 1 0 2H6a1 1 0 0 1 0-2m4.98 8.377l4.83-4.83a1.87 1.87 0 1 1 2.644 2.646l-4.83 4.829a2.2 2.2 0 0 1-1.02.578l-1.498.374a.89.89 0 0 1-1.079-1.078l.375-1.498a2.2 2.2 0 0 1 .578-1.02"/></svg>