<svg xmlns="http://www.w3.org/2000/svg" xmlns:xlink="http://www.w3.org/1999/xlink" width="20" height="20" viewBox="0 0 20 20"><path fill="currentColor" d="M4.75 4A2.75 2.75 0 0 0 2 6.75v6.5A2.75 2.75 0 0 0 4.75 16h4.457a5.5 5.5 0 0 1-.185-1H4.75A1.75 1.75 0 0 1 3 13.25v-6.5C3 5.784 3.784 5 4.75 5h10.5c.966 0 1.75.784 1.75 1.75V9.6q.538.276 1 .657V6.75A2.75 2.75 0 0 0 15.25 4zM19 14.5a4.5 4.5 0 1 1-9 0a4.5 4.5 0 0 1 9 0m-6 1.495a.5.5 0 0 0 .757.429l2.5-1.497a.5.5 0 0 0 0-.858l-2.5-1.497A.5.5 0 0 0 13 13z"/></svg>