<svg xmlns="http://www.w3.org/2000/svg" xmlns:xlink="http://www.w3.org/1999/xlink" width="16" height="16" viewBox="0 0 16 16"><path fill="currentColor" d="M1 4.5A2.5 2.5 0 0 1 3.5 2h9A2.5 2.5 0 0 1 15 4.5v6a2.5 2.5 0 0 1-2.5 2.5H9.121l-.56-.56A4.5 4.5 0 0 0 8.973 10H10.5a.5.5 0 0 0 0-1H8.744a4.5 4.5 0 0 0-.502-1H11.5a.5.5 0 0 0 0-1H7.329A4.48 4.48 0 0 0 4.5 6h3a.5.5 0 0 0 0-1h-3a.5.5 0 0 0 0 1A4.5 4.5 0 0 0 1 7.671zM4.5 14c.786 0 1.512-.26 2.096-.697l2.55 2.55a.5.5 0 1 0 .708-.707l-2.55-2.55A3.5 3.5 0 1 0 4.5 14m0-1a2.5 2.5 0 1 1 0-5a2.5 2.5 0 0 1 0 5"/></svg>