<svg xmlns="http://www.w3.org/2000/svg" xmlns:xlink="http://www.w3.org/1999/xlink" width="28" height="28" viewBox="0 0 28 28"><path fill="currentColor" d="M2.004 7.75A3.75 3.75 0 0 1 5.754 4H22.25A3.75 3.75 0 0 1 26 7.75v3.756l-.102-.049l-.445-.206a2.7 2.7 0 0 0-3.691 1.579l-.413 1.194a2.33 2.33 0 0 0 .523 2.372l.947.981c-.13.931-.543 1.663-1.26 2.24l-1.29-.34a2.27 2.27 0 0 0-2.316.736l-.81.962A2.76 2.76 0 0 0 16.802 24H5.754a3.75 3.75 0 0 1-3.75-3.75zM7.728 9A.73.73 0 0 0 7 9.728v.044c0 .402.326.728.728.728h5.544A.73.73 0 0 0 14 9.772v-.044A.73.73 0 0 0 13.272 9zM7 13.728v.044c0 .402.326.728.728.728h10.544a.73.73 0 0 0 .728-.728v-.044a.73.73 0 0 0-.728-.728H7.728a.73.73 0 0 0-.728.728M7.728 17a.73.73 0 0 0-.728.728v.044c0 .402.326.728.728.728h7.544a.73.73 0 0 0 .728-.728v-.044a.73.73 0 0 0-.728-.728zm14.566-2.65l.413-1.193a1.7 1.7 0 0 1 2.326-.998l.445.206c.725.335 1.333.937 1.451 1.735c.58 3.913-2.488 9.324-6.107 10.77c-.738.295-1.553.06-2.202-.412l-.398-.29a1.76 1.76 0 0 1-.314-2.55l.81-.96a1.27 1.27 0 0 1 1.297-.414l1.747.46q1.979-1.299 2.093-3.692l-1.264-1.31a1.33 1.33 0 0 1-.297-1.351"/></svg>