<svg xmlns="http://www.w3.org/2000/svg" xmlns:xlink="http://www.w3.org/1999/xlink" width="32" height="32" viewBox="0 0 32 32"><path fill="currentColor" d="M6.5 4A4.5 4.5 0 0 0 2 8.5v15A4.5 4.5 0 0 0 6.5 28h12.255A7.97 7.97 0 0 1 17 23a2.75 2.75 0 0 1 3-2.739V19a5 5 0 0 1 10 0V8.5A4.5 4.5 0 0 0 25.5 4zM8 10a1 1 0 0 1 1-1h6a1 1 0 1 1 0 2H9a1 1 0 0 1-1-1m1 9h6a1 1 0 1 1 0 2H9a1 1 0 1 1 0-2m-1-4a1 1 0 0 1 1-1h9a1 1 0 1 1 0 2H9a1 1 0 0 1-1-1m12.528 12A5.97 5.97 0 0 1 19 23a.75.75 0 0 1 1.5 0c0 1.152.433 2.204 1.146 3a4.47 4.47 0 0 0 2.96 1.483l.017.002a4.6 4.6 0 0 0 1.129-.047l.018-.004a4.5 4.5 0 0 0 1.755-.709c.472-.32.88-.728 1.2-1.2A4.47 4.47 0 0 0 29.5 23a.75.75 0 1 1 1.5 0a5.97 5.97 0 0 1-1.034 3.368a6 6 0 0 1-1.598 1.598a6 6 0 0 1-2.368.951v1.333a.75.75 0 0 1-1.5 0v-1.27a6 6 0 0 1-2.818-.98a6 6 0 0 1-1.154-1M22 19a3 3 0 1 1 6 0v4a3 3 0 1 1-6 0z"/></svg>