<svg xmlns="http://www.w3.org/2000/svg" xmlns:xlink="http://www.w3.org/1999/xlink" width="20" height="20" viewBox="0 0 20 20"><path fill="currentColor" d="M4.5 4A2.5 2.5 0 0 0 2 6.5v7A2.5 2.5 0 0 0 4.5 16h4.976c.11-.361.283-.7.51-1H4.5A1.5 1.5 0 0 1 3 13.5v-7A1.5 1.5 0 0 1 4.5 5h11A1.5 1.5 0 0 1 17 6.5v2.503a2.9 2.9 0 0 1 1 .13V6.5A2.5 2.5 0 0 0 15.5 4zM6 7a1 1 0 0 0 0 2h8a1 1 0 1 0 0-2zm4.98 8.377l4.83-4.83a1.87 1.87 0 1 1 2.644 2.646l-4.83 4.829a2.2 2.2 0 0 1-1.02.578l-1.498.374a.89.89 0 0 1-1.079-1.078l.375-1.498a2.2 2.2 0 0 1 .578-1.02"/></svg>