<svg xmlns="http://www.w3.org/2000/svg" xmlns:xlink="http://www.w3.org/1999/xlink" width="20" height="20" viewBox="0 0 20 20"><path fill="currentColor" d="M4.5 4A2.5 2.5 0 0 0 2 6.5v7A2.5 2.5 0 0 0 4.5 16h4.707a5.5 5.5 0 0 1-.185-1H4.5A1.5 1.5 0 0 1 3 13.5v-7A1.5 1.5 0 0 1 4.5 5h11A1.5 1.5 0 0 1 17 6.5v3.1q.538.276 1 .657V6.5A2.5 2.5 0 0 0 15.5 4zM6 7a1 1 0 0 0 0 2h8a1 1 0 1 0 0-2zm13 7.5a4.5 4.5 0 1 1-9 0a4.5 4.5 0 0 1 9 0m-5.146 1.854l3-3a.5.5 0 0 0-.708-.708L13.5 15.293l-.646-.647a.5.5 0 0 0-.708.708l1 1a.5.5 0 0 0 .708 0"/></svg>