<svg xmlns="http://www.w3.org/2000/svg" xmlns:xlink="http://www.w3.org/1999/xlink" width="24" height="24" viewBox="0 0 24 24"><path fill="currentColor" d="M4.75 4A2.75 2.75 0 0 0 2 6.75v10.5A2.75 2.75 0 0 0 4.75 20h9.003a4.6 4.6 0 0 1-.64-1.5H4.75c-.69 0-1.25-.56-1.25-1.25V6.75c0-.69.56-1.25 1.25-1.25h14.5c.69 0 1.25.56 1.25 1.25v4.874A3.58 3.58 0 0 1 22 14.5V6.75A2.75 2.75 0 0 0 19.25 4zm11.771 16c-.617-.35-1.091-.869-1.336-1.5a2.8 2.8 0 0 1-.185-1a.5.5 0 0 0-1 0q.002.516.149 1c.166.552.467 1.063.87 1.5c.725.789 1.782 1.34 2.981 1.473V22.5a.5.5 0 0 0 1 0v-1.027c2.25-.25 4-1.973 4-3.973a.5.5 0 0 0-1 0c0 1.75-1.567 3-3.5 3c-.734 0-1.416-.18-1.979-.5m1.979-.5a2.45 2.45 0 0 1-1.995-1A2.54 2.54 0 0 1 16 17v-2.5c0-1.254 1-2.5 2.5-2.5c.865 0 1.563.417 2 1.009c.32.434.5.963.5 1.491V17c0 1.246-1 2.5-2.5 2.5M6.75 8a.75.75 0 0 0 0 1.5h4.5a.75.75 0 0 0 0-1.5zM6 11.75a.75.75 0 0 1 .75-.75h6.5a.75.75 0 0 1 0 1.5h-6.5a.75.75 0 0 1-.75-.75m0 3a.75.75 0 0 1 .75-.75h5.5a.75.75 0 0 1 0 1.5h-5.5a.75.75 0 0 1-.75-.75"/></svg>