<svg xmlns="http://www.w3.org/2000/svg" xmlns:xlink="http://www.w3.org/1999/xlink" width="28" height="28" viewBox="0 0 28 28"><path fill="currentColor" d="M5.754 4a3.75 3.75 0 0 0-3.75 3.75v12.5A3.75 3.75 0 0 0 5.754 24h9.312a4.3 4.3 0 0 1-.066-.75v-.205A3.045 3.045 0 0 1 18.046 20h.808a4 4 0 0 1-1.354-3c0-.95.331-1.822.884-2.509a1 1 0 0 1-.112.009H7.728A.73.73 0 0 1 7 13.772v-.044c0-.402.326-.728.728-.728h10.544c.402 0 .728.326.728.728v.044a1 1 0 0 1-.009.112A4 4 0 0 1 25.5 17h.5V7.75A3.75 3.75 0 0 0 22.25 4zM7 9.728C7 9.326 7.326 9 7.728 9h5.544c.402 0 .728.326.728.728v.044a.73.73 0 0 1-.728.728H7.728A.73.73 0 0 1 7 9.772zm0 8c0-.402.326-.728.728-.728h7.544c.402 0 .728.326.728.728v.044a.73.73 0 0 1-.728.728H7.728A.73.73 0 0 1 7 17.772zM24.5 17a3 3 0 1 1-6 0a3 3 0 0 1 6 0m2.5 6.25c0 1.868-1.571 3.75-5.5 3.75S16 25.125 16 23.25v-.205c0-1.13.916-2.045 2.046-2.045h6.909c1.13 0 2.045.915 2.045 2.045z"/></svg>