<svg xmlns="http://www.w3.org/2000/svg" xmlns:xlink="http://www.w3.org/1999/xlink" width="28" height="28" viewBox="0 0 28 28"><path fill="currentColor" d="M7 9.728C7 9.326 7.326 9 7.728 9h5.544c.402 0 .728.326.728.728v.044a.73.73 0 0 1-.728.728H7.728A.73.73 0 0 1 7 9.772zm0 4c0-.402.326-.728.728-.728h10.544c.402 0 .728.326.728.728v.044a1 1 0 0 1-.009.112q-.336.271-.607.607a1 1 0 0 1-.112.009H7.728A.73.73 0 0 1 7 13.772zm8.049 8.772H5.754a2.25 2.25 0 0 1-2.25-2.25V7.75a2.25 2.25 0 0 1 2.25-2.25H22.25a2.25 2.25 0 0 1 2.25 2.25v6.605c.623.705 1 1.63 1 2.645h.5V7.75A3.75 3.75 0 0 0 22.25 4H5.755a3.75 3.75 0 0 0-3.75 3.75v12.5A3.75 3.75 0 0 0 5.754 24h9.312a4.3 4.3 0 0 1-.066-.75v-.205q0-.28.049-.545M7.728 17a.73.73 0 0 0-.728.728v.044c0 .402.326.728.728.728h7.544a.73.73 0 0 0 .728-.728v-.044a.73.73 0 0 0-.728-.728zM24.5 17a3 3 0 1 1-6 0a3 3 0 0 1 6 0m2.5 6.25c0 1.868-1.571 3.75-5.5 3.75S16 25.125 16 23.25v-.205c0-1.13.916-2.045 2.046-2.045h6.909c1.13 0 2.045.915 2.045 2.045z"/></svg>