<svg xmlns="http://www.w3.org/2000/svg" xmlns:xlink="http://www.w3.org/1999/xlink" width="16" height="16" viewBox="0 0 16 16"><path fill="currentColor" d="m10.878.282l.348 1.071a2.2 2.2 0 0 0 1.398 1.397l1.072.348l.021.006a.423.423 0 0 1 0 .798l-1.071.348a2.2 2.2 0 0 0-1.399 1.397l-.348 1.07a.423.423 0 0 1-.798 0l-.348-1.07a2.2 2.2 0 0 0-1.399-1.403l-1.072-.348a.423.423 0 0 1 0-.798l1.072-.348a2.2 2.2 0 0 0 1.377-1.397l.348-1.07a.423.423 0 0 1 .799 0m4.905 7.931l-.765-.248a1.58 1.58 0 0 1-1-.999l-.248-.764a.302.302 0 0 0-.57 0l-.25.764a1.58 1.58 0 0 1-.983.999l-.765.248a.303.303 0 0 0 0 .57l.765.249a1.58 1.58 0 0 1 1 1.002l.248.764a.302.302 0 0 0 .57 0l.249-.764a1.58 1.58 0 0 1 .999-.999l.765-.248a.303.303 0 0 0 0-.57zm-3.027 3.557c.219.149.477.229.746.23c.268 0 .527-.051.745-.21c.22-.16.38-.37.48-.651l.251-.762l.022-.055V11a2 2 0 0 1-2 2H3a2 2 0 0 1-2-2V5a2 2 0 0 1 2-2h3.088A1.4 1.4 0 0 0 6 3.496c0 .3.09.581.26.821s.41.431.71.531L7.43 5H4.5a.5.5 0 0 0 0 1h3a.5.5 0 0 0 .343-.863l.189.062c.15.05.29.13.47.29c.11.11.2.24.29.471L9.137 7H4.5a.5.5 0 0 0 0 1h5.603a1.31 1.31 0 0 0 .14 1.256c.161.22.381.38.651.48l.761.25c.08.03.16.08.22.14c.07.061.11.141.14.221l.26.802c.1.25.26.46.481.62M4 9.5a.5.5 0 0 0 .5.5h4a.5.5 0 0 0 0-1h-4a.5.5 0 0 0-.5.5"/></svg>