<svg xmlns="http://www.w3.org/2000/svg" xmlns:xlink="http://www.w3.org/1999/xlink" width="20" height="20" viewBox="0 0 20 20"><path fill="currentColor" d="M13.507 2.685A2 2 0 0 0 12 2H8a2 2 0 0 0-2 2v.17c.313-.11.65-.17 1-.17h6.035c.069-.476.232-.921.472-1.315M13.036 5H7a2 2 0 0 0-2 2v6a2 2 0 0 0 2 2h6a2 2 0 0 0 2-2v-2a1 1 0 0 0 1-1V9a1 1 0 0 0-1-1v-.337A3.5 3.5 0 0 1 13.036 5M7 16c-.35 0-.687-.06-1-.17V16a2 2 0 0 0 2 2h4a2 2 0 0 0 2-2v-.17c-.313.11-.65.17-1 .17zM19 4.5a2.5 2.5 0 1 0-5 0a2.5 2.5 0 0 0 5 0"/></svg>