<svg xmlns="http://www.w3.org/2000/svg" xmlns:xlink="http://www.w3.org/1999/xlink" width="20" height="20" viewBox="0 0 20 20"><path fill="currentColor" d="M9.981 11.31a5.5 5.5 0 0 0-2.737-2.028l-.05-.068a2.33 2.33 0 0 0-1.11-.788l-1.375-.445a1.06 1.06 0 0 1-.696-.828a1.045 1.045 0 0 1 .68-1.146l1.39-.448a2.34 2.34 0 0 0 1.44-1.449l.457-1.4a1.044 1.044 0 0 1 1.973-.017l.452 1.388a2.34 2.34 0 0 0 1.48 1.477l1.375.447a1.044 1.044 0 0 1 .044 1.98l-1.39.451a2.34 2.34 0 0 0-1.478 1.48l-.447 1.372zm4.554 4.541a.806.806 0 0 0 1.226-.398l.248-.762a1.1 1.1 0 0 1 .26-.42c.118-.12.262-.208.42-.26l.772-.252a.8.8 0 0 0-.023-1.52l-.764-.25a1.08 1.08 0 0 1-.68-.678l-.252-.773a.8.8 0 0 0-1.518.01l-.247.762a1.07 1.07 0 0 1-.665.679l-.773.252a.8.8 0 0 0 .008 1.518l.763.247c.16.054.304.143.422.261c.119.119.207.263.258.422l.253.774a.8.8 0 0 0 .292.388M5.5 11.875a.625.625 0 1 1 0 1.25a.625.625 0 0 1 0-1.25M5.5 17a.5.5 0 0 1-.5-.5v-2a.5.5 0 0 1 1 0v2a.5.5 0 0 1-.5.5m0-7a4.5 4.5 0 1 1 0 9a4.5 4.5 0 0 1 0-9m0 8a3.5 3.5 0 1 0 0-7a3.5 3.5 0 0 0 0 7"/></svg>