<svg xmlns="http://www.w3.org/2000/svg" xmlns:xlink="http://www.w3.org/1999/xlink" width="28" height="28" viewBox="0 0 28 28"><path fill="currentColor" d="m13.114 19.6l-2.273-2.66a1.25 1.25 0 0 0-.95-.438H8.72l-4.815 4.35l-.027.027a3 3 0 1 0 4.268 4.215zm5.187-5.739l-2.362-2.018a1.25 1.25 0 0 1-.438-.95v-.739q.117-.294.158-.667c.122-1.112.526-2.311 1.03-3.366c.504-1.051 1.14-2.023 1.774-2.657a5 5 0 1 1 7.071 7.072c-.633.633-1.604 1.269-2.655 1.772c-1.054.505-2.253.909-3.364 1.031c-.531.06-.956.237-1.214.522M18.75 7.5a.75.75 0 0 0-.75.75A2.75 2.75 0 0 0 20.75 11a.75.75 0 0 0 0-1.5c-.69 0-1.25-.56-1.25-1.25a.75.75 0 0 0-.75-.75M6.086 2.805a2.75 2.75 0 0 1 3.889 0l3.72 3.721a2.75 2.75 0 0 1 .806 1.945v2.421c0 .658.288 1.284.788 1.711l8.663 7.401l.02.02a3.5 3.5 0 1 1-4.95 4.95l-.02-.02l-7.4-8.664a2.25 2.25 0 0 0-1.712-.788H7.475a2.75 2.75 0 0 1-1.944-.805l-3.725-3.721a2.75 2.75 0 0 1 0-3.89zM8.53 5.47a.75.75 0 0 0-1.06 1.06l3 3a.75.75 0 1 0 1.06-1.06zm-4.06 3a.75.75 0 0 0 0 1.06l3 3a.75.75 0 0 0 1.06-1.06l-3-3a.75.75 0 0 0-1.06 0"/></svg>