<svg xmlns="http://www.w3.org/2000/svg" xmlns:xlink="http://www.w3.org/1999/xlink" width="24" height="24" viewBox="0 0 24 24"><path fill="currentColor" d="M16.377 4.379c-.759.759-1.412 2.197-1.49 3.48c-.048.787-.27 1.75-.995 2.428l-.657.614l.923.8l.556-.594c.678-.725 1.64-.947 2.427-.995c1.283-.079 2.72-.732 3.479-1.49a3 3 0 1 0-4.243-4.243m-.567 7.752l-.519.555l4.81 4.174l.019.02a3 3 0 1 1-4.243 4.242l-.018-.019l-4.062-4.68l-4.52 4.836l-.01.009a2.5 2.5 0 0 1-3.535-3.536l.01-.009l4.516-4.222H6.582a2.75 2.75 0 0 1-1.944-.805L1.806 9.867a2.75 2.75 0 0 1 0-3.89l3.17-3.17a2.75 2.75 0 0 1 3.89 0l2.828 2.828a2.75 2.75 0 0 1 .805 1.944v1.957l.368-.344c.314-.294.484-.792.523-1.424c.098-1.623.89-3.414 1.927-4.45a4.5 4.5 0 0 1 6.364 6.364c-1.036 1.036-2.827 1.828-4.449 1.927c-.631.039-1.13.209-1.422.522m-6.015 1.986L4.785 18.8A1 1 0 0 0 6.2 20.215l4.61-4.93zm-1.99-10.25a1.25 1.25 0 0 0-1.768 0l-3.17 3.171a1.25 1.25 0 0 0 0 1.768l2.831 2.829c.235.234.552.366.884.366H8.69a2.75 2.75 0 0 1 2.077.947l6.188 7.13a1.5 1.5 0 0 0 2.121-2.121l-7.13-6.188A2.75 2.75 0 0 1 11 9.692V7.579c0-.331-.132-.65-.366-.884zM7.53 5.47a.75.75 0 0 0-1.06 1.06l2 2a.75.75 0 0 0 1.06-1.06zm-3.06 2a.75.75 0 0 1 1.06 0l2 2a.75.75 0 1 1-1.06 1.06l-2-2a.75.75 0 0 1 0-1.06m13.03-.72a.75.75 0 0 0-1.5 0A2.25 2.25 0 0 0 18.25 9a.75.75 0 0 0 0-1.5a.75.75 0 0 1-.75-.75"/></svg>