<svg xmlns="http://www.w3.org/2000/svg" xmlns:xlink="http://www.w3.org/1999/xlink" width="20" height="20" viewBox="0 0 20 20"><path fill="currentColor" d="M11.999 3.002c0-.873-1.04-1.327-1.68-.733L6.447 5.863a.5.5 0 0 1-.34.133H3.5a1.5 1.5 0 0 0-1.5 1.5v5.001a1.5 1.5 0 0 0 1.5 1.5h2.607a.5.5 0 0 1 .34.134L9.28 16.76l.152-.607c.14-.562.431-1.075.84-1.485L12 12.94zm3.96 1.66a7.97 7.97 0 0 1 1.988 4.453a2.9 2.9 0 0 0-1.022-.11a6.97 6.97 0 0 0-1.711-3.675a.5.5 0 0 1 .744-.667m-1.2 2.585c.416.72.65 1.496.717 2.274a3 3 0 0 0-.375.317l-.63.629a4.48 4.48 0 0 0-.578-2.72a.5.5 0 0 1 .866-.5m-3.78 8.128l4.829-4.83a1.87 1.87 0 1 1 2.644 2.645l-4.829 4.83a2.2 2.2 0 0 1-1.02.578l-1.498.375a.89.89 0 0 1-1.078-1.08l.374-1.497c.097-.387.296-.74.578-1.021"/></svg>