<svg xmlns="http://www.w3.org/2000/svg" xmlns:xlink="http://www.w3.org/1999/xlink" width="48" height="48" viewBox="0 0 48 48"><g fill="none"><path d="M25.081 6.418C26.208 5.408 28 6.207 28 7.721v32.558c0 1.514-1.792 2.314-2.919 1.302l-8.206-7.366A4.75 4.75 0 0 0 13.702 33H9a5.25 5.25 0 0 1-5.25-5.25v-7.5C3.75 17.35 6.1 15 9 15h4.702a4.75 4.75 0 0 0 3.173-1.215l8.206-7.367z" fill="currentColor"/><path d="M32.366 18.366a1.25 1.25 0 0 1 1.768 0L38 22.232l3.866-3.866a1.25 1.25 0 0 1 1.768 1.768L39.768 24l3.866 3.866a1.25 1.25 0 0 1-1.768 1.768L38 25.768l-3.866 3.866a1.25 1.25 0 1 1-1.768-1.768L36.232 24l-3.866-3.866a1.25 1.25 0 0 1 0-1.768z" fill="currentColor"/></g></svg>