<svg xmlns="http://www.w3.org/2000/svg" xmlns:xlink="http://www.w3.org/1999/xlink" width="16" height="16" viewBox="0 0 16 16"><path fill="currentColor" d="M8.999 2.5a.5.5 0 0 0-.85-.358l-2.925 2.85H3.5a1.5 1.5 0 0 0-1.5 1.5V9.48a1.5 1.5 0 0 0 1.5 1.5h1.722l1.302 1.278a3.8 3.8 0 0 1 .52-.89l-1.267-1.245a.5.5 0 0 0-.35-.143H3.5a.5.5 0 0 1-.5-.5V6.492a.5.5 0 0 1 .5-.5h1.927a.5.5 0 0 0 .349-.142l2.223-2.165v6.693l1-1zm-.95 9.242a2.8 2.8 0 0 0-.73 1.29l-.303 1.21a.61.61 0 0 0 .739.74l1.21-.303a2.8 2.8 0 0 0 1.29-.73l4.288-4.288a1.56 1.56 0 0 0-1.617-2.578a1.56 1.56 0 0 0-.59.371l-.338.339l-1.115 1.114zm5.645-5.732a6.6 6.6 0 0 0-1.522-2.563a5 5 0 0 0-.327-.31l-.023-.02l-.007-.005l-.002-.002l-.002-.001a.5.5 0 1 0-.623.782l.012.01l.051.044q.072.063.201.196a5.6 5.6 0 0 1 1.221 1.973a2.6 2.6 0 0 1 1.02-.104m-1.914.597a3.8 3.8 0 0 0-.351-.756a3.4 3.4 0 0 0-.405-.54a3 3 0 0 0-.188-.183l-.015-.012l-.005-.005l-.002-.001l-.001-.001h-.001a.5.5 0 0 0-.623.78h-.001l.018.016q.028.025.085.085c.074.08.178.207.283.38c.151.248.307.596.382 1.05l.673-.673q.075-.074.152-.14"/></svg>