<svg xmlns="http://www.w3.org/2000/svg" xmlns:xlink="http://www.w3.org/1999/xlink" width="24" height="24" viewBox="0 0 24 24"><path d="M15 4.25c0-1.079-1.274-1.65-2.08-.934L8.427 7.309a.75.75 0 0 1-.498.19H4.25A2.25 2.25 0 0 0 2 9.749v4.497a2.25 2.25 0 0 0 2.25 2.25h3.68a.75.75 0 0 1 .498.19l4.491 3.994c.806.716 2.081.144 2.081-.934V4.25zm3.992 1.647a.75.75 0 0 1 1.049.157A9.959 9.959 0 0 1 22 12a9.96 9.96 0 0 1-1.96 5.946a.75.75 0 0 1-1.205-.892A8.459 8.459 0 0 0 20.5 12a8.459 8.459 0 0 0-1.665-5.054a.75.75 0 0 1 .157-1.049zM17.143 8.37a.75.75 0 0 1 1.017.303c.536.99.84 2.125.84 3.328a6.973 6.973 0 0 1-.84 3.328a.75.75 0 0 1-1.32-.714c.42-.777.66-1.666.66-2.614s-.24-1.837-.66-2.614a.75.75 0 0 1 .303-1.017z" fill="currentColor" fill-rule="nonzero"/></svg>