<svg xmlns="http://www.w3.org/2000/svg" xmlns:xlink="http://www.w3.org/1999/xlink" width="24" height="24" viewBox="0 0 24 24"><path fill="currentColor" d="M14.704 3.443c.191.225.296.511.296.807v15.502a1.25 1.25 0 0 1-2.058.954L7.975 16.5H4.25A2.25 2.25 0 0 1 2 14.25v-4.5A2.25 2.25 0 0 1 4.25 7.5h3.725l4.968-4.204a1.25 1.25 0 0 1 1.761.147M17.5 9.896V6.75c0-.647.752-.975 1.225-.581l.076.072l3 3.25a.75.75 0 0 1 .005 1.012l-.076.073L20.022 12l1.708 1.425a.75.75 0 0 1 .137 1.002l-.066.082l-3 3.252c-.438.475-1.214.206-1.294-.404l-.007-.105v-3.15l-.267.222a.75.75 0 0 1-1.04-1.076l.08-.077l1.227-1.022v-.3l-1.227-1.023a.75.75 0 0 1 .87-1.216l.09.064zV6.75zM19 13.1v2.233l1.164-1.262zm0-4.432v2.23l1.164-.97z"/></svg>