<svg xmlns="http://www.w3.org/2000/svg" xmlns:xlink="http://www.w3.org/1999/xlink" width="20" height="20" viewBox="0 0 20 20"><path fill="currentColor" d="M11.996 3.006c0-.873-1.04-1.327-1.68-.733L6.444 5.866a.5.5 0 0 1-.34.134H3.496a1.5 1.5 0 0 0-1.5 1.5v5a1.5 1.5 0 0 0 1.5 1.5h2.608a.5.5 0 0 1 .34.133l3.218 2.987a5.5 5.5 0 0 1-.621-1.941L7.124 13.4a1.5 1.5 0 0 0-1.02-.4H3.496a.5.5 0 0 1-.5-.5v-5a.5.5 0 0 1 .5-.5h2.608a1.5 1.5 0 0 0 1.02-.4l3.872-3.594v7.253a5.5 5.5 0 0 1 1-.658zm.068 8.436a2 2 0 0 1-1.43 2.478l-.461.118a4.7 4.7 0 0 0 .01 1.016l.35.083a2 2 0 0 1 1.455 2.519l-.126.422q.387.307.835.518l.325-.344a2 2 0 0 1 2.909.002l.337.358q.44-.204.822-.498l-.156-.557a2 2 0 0 1 1.43-2.478l.461-.117a4.7 4.7 0 0 0-.01-1.017l-.349-.082a2 2 0 0 1-1.456-2.52l.126-.422a4.3 4.3 0 0 0-.834-.518l-.325.344a2 2 0 0 1-2.91-.002l-.337-.357a4.3 4.3 0 0 0-.822.497zM14.5 15.5a1 1 0 1 1 0-2a1 1 0 0 1 0 2"/></svg>