<svg xmlns="http://www.w3.org/2000/svg" xmlns:xlink="http://www.w3.org/1999/xlink" width="20" height="20" viewBox="0 0 20 20"><path fill="currentColor" d="M11.972 2.064c1.34-.273 2.604.363 3.444 1.304l1.715 1.922c.748.839 1.081 2.018.73 3.133c-2.11 6.706-7.03 9.074-10.189 9.55c-.906.136-1.759-.227-2.388-.785L3.47 15.582c-1.214-1.075-1.823-2.775-1.259-4.371c2.115-5.987 6.454-8.475 9.76-9.147m2.522 3.512a.5.5 0 1 0-.988-.152c-.374 2.424-1.613 4.42-3.048 5.895c-1.443 1.482-3.048 2.402-4.095 2.7a.5.5 0 1 0 .274.962c1.25-.356 3.001-1.386 4.537-2.965c1.544-1.586 2.907-3.764 3.32-6.44"/></svg>