<svg xmlns="http://www.w3.org/2000/svg" xmlns:xlink="http://www.w3.org/1999/xlink" width="20" height="20" viewBox="0 0 20 20"><path fill="currentColor" d="M13.704 12.702a5 5 0 0 0 1.46-.83L8.128 4.836a5 5 0 0 0-.83 1.46a9 9 0 0 0-.99-.202a6 6 0 1 1 7.597 7.597a9 9 0 0 0-.201-.989M12.707 8l3.164 3.164a4.98 4.98 0 0 0 1.055-4.024c-.424.23-.91.36-1.426.36a3 3 0 0 1-1.739-.555zm3.164-3.164l-1.387 1.387c.297.176.645.277 1.016.277c.425 0 .819-.133 1.143-.359a5 5 0 0 0-.772-1.305M12.5 4.5c0-.516.13-1.002.36-1.426a4.98 4.98 0 0 0-4.024 1.055L12 7.293l1.054-1.055A3 3 0 0 1 12.5 4.5m1 0c0 .371.1.718.277 1.016l1.387-1.387c-.39-.32-.83-.582-1.306-.772A2 2 0 0 0 13.5 4.5M3.5 8a.5.5 0 0 0-.5.5V10a7 7 0 0 0 7 7h1.5a.5.5 0 0 0 .5-.5V15a7 7 0 0 0-7-7zM2 8.5A1.5 1.5 0 0 1 3.5 7H5a8 8 0 0 1 8 8v1.5a1.5 1.5 0 0 1-1.5 1.5H10a8 8 0 0 1-8-8zm4.146 2.646a.5.5 0 0 1 .708 0l2 2a.5.5 0 0 1-.708.708l-2-2a.5.5 0 0 1 0-.708"/></svg>