<svg xmlns="http://www.w3.org/2000/svg" xmlns:xlink="http://www.w3.org/1999/xlink" width="20" height="20" viewBox="0 0 20 20"><path fill="currentColor" d="m10 9.293l1.083-1.083c-.439-.556-.785-1.246-1.062-1.964c-.345-.897-.594-1.877-.774-2.777l-.08-.42a6.97 6.97 0 0 0-3.75 1.66zm1.79-.376L10.707 10l4.584 4.584a6.97 6.97 0 0 0 1.66-3.75l-.418-.079c-.9-.18-1.88-.43-2.777-.775c-.719-.276-1.41-.623-1.966-1.063m5.208.91a6.98 6.98 0 0 0-1.707-4.41l-2.788 2.787c.43.32.983.601 1.612.843c.826.318 1.747.554 2.614.728zm-5.202-2.33l2.788-2.788a6.98 6.98 0 0 0-4.41-1.707l.053.27c.174.868.41 1.789.728 2.615c.241.628.521 1.18.841 1.61M10 10.706l-1.081 1.081c.44.556.786 1.247 1.063 1.966c.345.897.595 1.877.775 2.777q.042.213.08.42a6.97 6.97 0 0 0 3.747-1.66zM8.206 12.5l-2.79 2.79a6.98 6.98 0 0 0 4.412 1.707l-.052-.271c-.174-.868-.41-1.788-.728-2.614c-.241-.629-.522-1.181-.842-1.611m-.708-.706c-.43-.32-.982-.6-1.61-.842c-.826-.318-1.747-.555-2.614-.728l-.272-.053a6.98 6.98 0 0 0 1.707 4.412zm.713-.714L9.293 10L4.709 5.416a6.97 6.97 0 0 0-1.66 3.748q.208.038.421.08c.9.18 1.88.43 2.777.775c.718.276 1.409.623 1.964 1.062m7.446 4.576A8 8 0 1 1 4.343 4.343a8 8 0 0 1 11.314 11.314"/></svg>