<svg xmlns="http://www.w3.org/2000/svg" xmlns:xlink="http://www.w3.org/1999/xlink" width="28" height="28" viewBox="0 0 28 28"><path fill="currentColor" d="M11.5 3.75a.75.75 0 0 1 .75-.75h3.5a.75.75 0 0 1 0 1.5h-3.5a.75.75 0 0 1-.75-.75m0 20.5a.75.75 0 0 1 .75-.75h3.5a.75.75 0 0 1 0 1.5h-3.5a.75.75 0 0 1-.75-.75M3 15.75a.75.75 0 0 0 1.5 0v-3.5a.75.75 0 0 0-1.5 0zm21.25.75a.75.75 0 0 1-.75-.75v-3.5a.75.75 0 0 1 1.5 0v3.5a.75.75 0 0 1-.75.75M20.75 3a.75.75 0 0 0 0 1.5h.5a2.25 2.25 0 0 1 2.25 2.25v.5a.75.75 0 0 0 1.5 0v-.5A3.75 3.75 0 0 0 21.25 3zM20 24.25c0 .414.336.75.75.75h.5A3.75 3.75 0 0 0 25 21.25v-.5a.75.75 0 0 0-1.5 0v.5a2.25 2.25 0 0 1-2.25 2.25h-.5a.75.75 0 0 0-.75.75M7.25 3a.75.75 0 0 1 0 1.5h-.5A2.25 2.25 0 0 0 4.5 6.75v.5a.75.75 0 0 1-1.5 0v-.5A3.75 3.75 0 0 1 6.75 3zM8 24.25a.75.75 0 0 1-.75.75h-.5A3.75 3.75 0 0 1 3 21.25v-.5a.75.75 0 0 1 1.5 0v.5a2.25 2.25 0 0 0 2.25 2.25h.5a.75.75 0 0 1 .75.75m2.032-15.375A1.75 1.75 0 0 1 11.547 8h4.907a1.75 1.75 0 0 1 1.516.875l2.453 4.252a1.75 1.75 0 0 1 0 1.75l-2.453 4.251a1.75 1.75 0 0 1-1.516.875h-4.907a1.75 1.75 0 0 1-1.515-.875l-2.454-4.252a1.75 1.75 0 0 1 0-1.75z"/></svg>