<svg xmlns="http://www.w3.org/2000/svg" xmlns:xlink="http://www.w3.org/1999/xlink" width="20" height="20" viewBox="0 0 20 20"><path fill="currentColor" d="M9.25 3a.75.75 0 0 0 0 1.5h1.5a.75.75 0 0 0 0-1.5zM3 10.75a.75.75 0 0 0 1.5 0v-1.5a.75.75 0 0 0-1.5 0zm4.5 5.5a.75.75 0 0 1 .75-.75h.84A5.5 5.5 0 0 0 9.6 17H8.25a.75.75 0 0 1-.75-.75m8-7.16a5.5 5.5 0 0 1 1.5.51V8.25a.75.75 0 0 0-1.5 0zM6 3.75A.75.75 0 0 0 5.25 3A2.25 2.25 0 0 0 3 5.25a.75.75 0 0 0 1.5 0a.75.75 0 0 1 .75-.75a.75.75 0 0 0 .75-.75M5.25 17a.75.75 0 0 0 0-1.5a.75.75 0 0 1-.75-.75a.75.75 0 0 0-1.5 0A2.25 2.25 0 0 0 5.25 17M14 3.75a.75.75 0 0 1 .75-.75A2.25 2.25 0 0 1 17 5.25a.75.75 0 0 1-1.5 0a.75.75 0 0 0-.75-.75a.75.75 0 0 1-.75-.75M14.5 19a4.5 4.5 0 1 0 0-9a4.5 4.5 0 0 0 0 9m-.896-6.396l-.897.896h1.543A2.75 2.75 0 0 1 17 16.25v.25a.5.5 0 0 1-1 0v-.25a1.75 1.75 0 0 0-1.75-1.75h-1.543l.897.896a.5.5 0 0 1-.708.708l-1.752-1.753a.5.5 0 0 1 .002-.705l1.75-1.75a.5.5 0 0 1 .708.708"/></svg>