<svg xmlns="http://www.w3.org/2000/svg" xmlns:xlink="http://www.w3.org/1999/xlink" width="12" height="12" viewBox="0 0 12 12"><path fill="currentColor" d="M3.5 2A1.5 1.5 0 0 0 2 3.5a.5.5 0 0 0 1 0a.5.5 0 0 1 .5-.5a.5.5 0 0 0 0-1m2 0a.5.5 0 0 0 0 1h1a.5.5 0 0 0 0-1zm3 0a.5.5 0 0 0 0 1a.5.5 0 0 1 .5.5a.5.5 0 0 0 1 0A1.5 1.5 0 0 0 8.5 2M3 5.5a.5.5 0 0 0-1 0v1a.5.5 0 0 0 1 0zm7 0a.5.5 0 0 0-1 0v1a.5.5 0 0 0 1 0zm-7 3a.5.5 0 0 0-1 0A1.5 1.5 0 0 0 3.5 10a.5.5 0 0 0 0-1a.5.5 0 0 1-.5-.5m7 0a.5.5 0 0 0-1 0a.5.5 0 0 1-.5.5a.5.5 0 0 0 0 1A1.5 1.5 0 0 0 10 8.5M5.5 9a.5.5 0 0 0 0 1h1a.5.5 0 0 0 0-1zm-.66-3l.58-1h1.162l.58 1l-.58.998H5.42zm.435-2a.75.75 0 0 0-.649.374l-.724 1.249a.75.75 0 0 0 0 .752l.724 1.25a.75.75 0 0 0 .65.373h1.45a.75.75 0 0 0 .649-.374l.724-1.249a.75.75 0 0 0 0-.752l-.724-1.25A.75.75 0 0 0 6.726 4z"/></svg>