<svg xmlns="http://www.w3.org/2000/svg" xmlns:xlink="http://www.w3.org/1999/xlink" width="24" height="24" viewBox="0 0 24 24"><path fill="currentColor" d="m20.956 14.858l.044-.022V6.25A3.25 3.25 0 0 0 17.75 3H6.25A3.25 3.25 0 0 0 3 6.25v11.5A3.25 3.25 0 0 0 6.25 21h5.974a1.8 1.8 0 0 1-.405-.41a4.5 4.5 0 0 1-.708-3.59H7.75l-.102-.007a.75.75 0 0 1 0-1.486l.102-.007h4.008a4.5 4.5 0 0 1 3.742-2h.518c.038-.266.138-.525.299-.755l-.067.005h-8.5l-.102-.007a.75.75 0 0 1 0-1.486l.102-.007h8.5l.102.007a.75.75 0 0 1 .627.922a1.75 1.75 0 0 1 2.008.334l1.5 1.5c.242.24.398.535.469.845M17 7.75a.75.75 0 0 1-.648.743l-.102.007h-8.5l-.102-.007a.75.75 0 0 1 0-1.486L7.75 7h8.5l.102.007A.75.75 0 0 1 17 7.75m2.78 6.97l-1.5-1.5a.75.75 0 1 0-1.06 1.06l.22.22H15.5a3.5 3.5 0 0 0-2.863 5.513a.75.75 0 0 0 1.226-.863A2 2 0 0 1 15.5 16h1.94l-.22.22a.75.75 0 1 0 1.06 1.06l1.5-1.5a.75.75 0 0 0 0-1.06m2.582 1.266a.75.75 0 1 0-1.226.864A2 2 0 0 1 19.5 20h-1.94l.22-.22a.75.75 0 1 0-1.06-1.06l-1.5 1.5a.75.75 0 0 0 0 1.06l1.5 1.5a.75.75 0 1 0 1.06-1.06l-.22-.22h1.94a3.5 3.5 0 0 0 2.862-5.514"/></svg>