<svg xmlns="http://www.w3.org/2000/svg" xmlns:xlink="http://www.w3.org/1999/xlink" width="24" height="24" viewBox="0 0 24 24"><path fill="currentColor" d="M16.088 6.412a2.84 2.84 0 0 0-1.347-.955l-1.378-.448a.544.544 0 0 1 0-1.025l1.378-.448A2.84 2.84 0 0 0 16.5 1.774l.011-.034l.448-1.377a.544.544 0 0 1 1.027 0l.447 1.377a2.84 2.84 0 0 0 1.799 1.796l1.377.448l.028.007a.544.544 0 0 1 0 1.025l-1.378.448a2.84 2.84 0 0 0-1.798 1.796l-.448 1.377l-.013.034a.544.544 0 0 1-1.013-.034l-.448-1.377a2.8 2.8 0 0 0-.45-.848m7.695 3.801l-.766-.248a1.58 1.58 0 0 1-.998-.999l-.25-.764a.302.302 0 0 0-.57 0l-.248.764a1.58 1.58 0 0 1-.984.999l-.765.248a.302.302 0 0 0 0 .57l.765.249a1.58 1.58 0 0 1 1 1.002l.248.764a.302.302 0 0 0 .57 0l.249-.764a1.58 1.58 0 0 1 .999-.999l.765-.248a.302.302 0 0 0 0-.57zM12.28 3.57c.194-.26.46-.458.765-.568L13 3h-2a1 1 0 1 0 0 2h1.094a1.57 1.57 0 0 1 .186-1.431M4 10a1 1 0 0 1 1 1v2a1 1 0 1 1-2 0v-2a1 1 0 0 1 1-1m10 10a1 1 0 0 1-1 1h-2a1 1 0 1 1 0-2h2a1 1 0 0 1 1 1M6 3a1 1 0 0 1 0 2a1 1 0 0 0-1 1a1 1 0 0 1-2 0a3 3 0 0 1 3-3m0 18a1 1 0 1 0 0-2a1 1 0 0 1-1-1a1 1 0 1 0-2 0a3 3 0 0 0 3 3m11-1a1 1 0 0 0 1 1a3 3 0 0 0 3-3a1 1 0 1 0-2 0a1 1 0 0 1-1 1a1 1 0 0 0-1 1"/></svg>