<svg xmlns="http://www.w3.org/2000/svg" xmlns:xlink="http://www.w3.org/1999/xlink" width="28" height="28" viewBox="0 0 28 28"><path fill="currentColor" d="M3.28 2.22a.75.75 0 1 0-1.06 1.06l1.114 1.115a2.75 2.75 0 0 0-1.33 2.355v8.5A2.75 2.75 0 0 0 4.754 18h12.185l1.369 1.369q-.507.13-1.053.131H5.305a2.75 2.75 0 0 0 2.45 1.5h9.5c.792 0 1.547-.16 2.234-.45l1.126 1.126a7.2 7.2 0 0 1-3.36.824h-8.95a2.75 2.75 0 0 0 2.45 1.5h6.5a8.7 8.7 0 0 0 4.462-1.222l3.002 3.003a.75.75 0 0 0 1.061-1.061zM7.183 4l12.514 12.514c.196-.378.307-.808.307-1.264v-8.5A2.75 2.75 0 0 0 17.254 4zm13.608 13.608l1.076 1.076a5.73 5.73 0 0 0 1.138-3.434v-5.5a2.75 2.75 0 0 0-1.5-2.45v7.95a4.23 4.23 0 0 1-.714 2.358m2.146 2.146l1.066 1.066a8.7 8.7 0 0 0 2.002-5.57v-2.5a2.75 2.75 0 0 0-1.5-2.45v4.95a7.22 7.22 0 0 1-1.568 4.504"/></svg>