<svg xmlns="http://www.w3.org/2000/svg" xmlns:xlink="http://www.w3.org/1999/xlink" width="24" height="24" viewBox="0 0 24 24"><path fill="currentColor" d="M17.5 12a5.5 5.5 0 1 1 0-11a5.5 5.5 0 0 1 0 11m1.854-8.354a.5.5 0 0 0-.708.708l.647.646H17.25A3.25 3.25 0 0 0 14 8.25v.25a.5.5 0 0 0 1 0v-.25A2.25 2.25 0 0 1 17.25 6h2.043l-.647.646a.5.5 0 0 0 .708.708l1.5-1.5a.5.5 0 0 0 0-.708zM17 13v-.019a6.5 6.5 0 0 1-1.5-.294V13a.5.5 0 0 1-.5.5H4a.5.5 0 0 1-.5-.5V6a.5.5 0 0 1 .5-.5h7.076a6.5 6.5 0 0 1 .422-1.5H4a2 2 0 0 0-2 2v7a2 2 0 0 0 2 2h11a2 2 0 0 0 2-2m1-.019q.782-.061 1.5-.294v.813a4 4 0 0 1-4 4h-9A2 2 0 0 1 4.563 16H15.5a2.5 2.5 0 0 0 2.5-2.5zm4-1.79c-.444.426-.949.79-1.5 1.077v1.982a4.25 4.25 0 0 1-4.25 4.25H7.063A2 2 0 0 0 9 20h7.25A5.75 5.75 0 0 0 22 14.25z"/></svg>