<svg xmlns="http://www.w3.org/2000/svg" xmlns:xlink="http://www.w3.org/1999/xlink" width="24" height="24" viewBox="0 0 24 24"><path fill="currentColor" d="M3.28 2.22a.75.75 0 1 0-1.06 1.06l.915.916A2 2 0 0 0 2 6v7a2 2 0 0 0 2 2h9.94l1 1H4.562A2 2 0 0 0 6.5 17.5h9q.437 0 .849-.09l.958.958a4.3 4.3 0 0 1-1.057.132H7.063A2 2 0 0 0 9 20h7.25c.794 0 1.55-.16 2.237-.452l2.232 2.233a.75.75 0 0 0 1.061-1.061zm14.477 12.356l1.1 1.1A4 4 0 0 0 19.5 13.5v-5A2 2 0 0 0 18 6.563V13.5c0 .385-.087.75-.243 1.076m2.03 2.03l1.077 1.076A5.72 5.72 0 0 0 22 14.25V11a2 2 0 0 0-1.5-1.937v5.187a4.23 4.23 0 0 1-.712 2.356M7.183 4l9.694 9.694q.122-.326.124-.694V6a2 2 0 0 0-2-2z"/></svg>