<svg xmlns="http://www.w3.org/2000/svg" xmlns:xlink="http://www.w3.org/1999/xlink" width="48" height="48" viewBox="0 0 48 48"><path fill="currentColor" d="M8.25 8A4.25 4.25 0 0 0 4 12.25v13.5A4.25 4.25 0 0 0 8.25 30h21.5A4.25 4.25 0 0 0 34 25.75v-13.5A4.25 4.25 0 0 0 29.75 8zM6.5 12.25c0-.966.784-1.75 1.75-1.75h21.5c.966 0 1.75.784 1.75 1.75v13.5a1.75 1.75 0 0 1-1.75 1.75H8.25a1.75 1.75 0 0 1-1.75-1.75zM13.25 35a4.25 4.25 0 0 1-3.874-2.5H29.75a6.75 6.75 0 0 0 6.75-6.75V13.376A4.25 4.25 0 0 1 39 17.25v8.5A9.25 9.25 0 0 1 29.75 35zm5 5a4.25 4.25 0 0 1-3.874-2.5H29.75c6.49 0 11.75-5.26 11.75-11.75v-7.374A4.25 4.25 0 0 1 44 22.25v3.5C44 33.62 37.62 40 29.75 40z"/></svg>