<svg xmlns="http://www.w3.org/2000/svg" xmlns:xlink="http://www.w3.org/1999/xlink" width="16" height="16" viewBox="0 0 16 16"><path fill="currentColor" d="M7.194 2.101a.9.9 0 0 1 1.614 0l1.521 3.082l3.401.495a.9.9 0 0 1 .5 1.535l-2.462 2.399l.581 3.387a.9.9 0 0 1-1.306.949l-3.042-1.6l-3.042 1.6a.9.9 0 0 1-1.306-.949l.58-3.387l-2.46-2.4a.9.9 0 0 1 .499-1.534l3.4-.495zM8 2.726L6.546 5.673a.9.9 0 0 1-.677.492l-3.253.473L4.97 8.932a.9.9 0 0 1 .258.797l-.555 3.24l2.91-1.53a.9.9 0 0 1 .837 0l2.91 1.53l-.556-3.24a.9.9 0 0 1 .258-.797l2.354-2.294l-3.253-.473a.9.9 0 0 1-.677-.492z"/></svg>