<svg xmlns="http://www.w3.org/2000/svg" xmlns:xlink="http://www.w3.org/1999/xlink" width="20" height="20" viewBox="0 0 20 20"><path fill="currentColor" d="M9.104 2.9a1 1 0 0 1 1.794 0l1.93 3.91l4.317.628a1 1 0 0 1 .554 1.706l-3.124 3.044l.738 4.3a1 1 0 0 1-1.451 1.054l-3.86-2.03l-3.862 2.03a1 1 0 0 1-1.45-1.055l.737-4.299l-3.124-3.044a1 1 0 0 1 .554-1.706l4.317-.627zm.897.442l-1.93 3.911a1 1 0 0 1-.753.547L3 8.428l3.124 3.044a1 1 0 0 1 .287.885l-.737 4.3l3.86-2.03a1 1 0 0 1 .931 0l3.861 2.03l-.737-4.3a1 1 0 0 1 .287-.885L17 8.428L12.683 7.8a1 1 0 0 1-.752-.547zm-5.61 9.346a.5.5 0 0 1-.079.703l-2.5 2a.5.5 0 1 1-.624-.781l2.5-2a.5.5 0 0 1 .702.078M4.311 5.11a.5.5 0 1 1-.624.78l-2.5-2a.5.5 0 1 1 .624-.78zm11.298 7.578a.5.5 0 0 0 .078.703l2.5 2a.5.5 0 1 0 .624-.781l-2.5-2a.5.5 0 0 0-.703.078m.078-7.578a.5.5 0 0 0 .624.78l2.5-2a.5.5 0 1 0-.624-.78z"/></svg>