<svg xmlns="http://www.w3.org/2000/svg" xmlns:xlink="http://www.w3.org/1999/xlink" width="48" height="48" viewBox="0 0 48 48"><path fill="currentColor" d="M21.803 6.085c.899-1.82 3.495-1.82 4.394 0l4.852 9.832l10.85 1.577c2.01.292 2.813 2.762 1.358 4.179l-7.85 7.653l1.853 10.807c.343 2-1.758 3.527-3.555 2.582L24 37.613l-9.705 5.102c-1.797.945-3.898-.581-3.555-2.583l1.854-10.806l-7.851-7.653c-1.455-1.417-.652-3.887 1.357-4.179l10.85-1.577zM24 7.283l-4.82 9.764a2.45 2.45 0 0 1-1.844 1.34L6.56 19.954l7.798 7.601a2.45 2.45 0 0 1 .704 2.169l-1.84 10.732l9.638-5.067a2.45 2.45 0 0 1 2.28 0l9.638 5.067l-1.84-10.732a2.45 2.45 0 0 1 .704-2.169l7.798-7.6l-10.776-1.566a2.45 2.45 0 0 1-1.845-1.34z"/></svg>