<svg xmlns="http://www.w3.org/2000/svg" xmlns:xlink="http://www.w3.org/1999/xlink" width="16" height="16" viewBox="0 0 16 16"><path fill="currentColor" d="M7.194 2.102a.9.9 0 0 1 1.614 0l1.521 3.082l3.401.494a.9.9 0 0 1 .5 1.535l-2.462 2.4l.581 3.387a.9.9 0 0 1-1.306.948L8.001 12.35l-3.042 1.6A.9.9 0 0 1 3.653 13l.581-3.387l-2.461-2.399a.9.9 0 0 1 .499-1.535l3.4-.494zM8 2.726L6.546 5.673a.9.9 0 0 1-.677.493l-3.253.472L4.97 8.933a.9.9 0 0 1 .258.796l-.555 3.24l2.91-1.53a.9.9 0 0 1 .837 0l2.91 1.53l-.556-3.24a.9.9 0 0 1 .258-.796l2.354-2.295l-3.253-.472a.9.9 0 0 1-.677-.493zM.1 2.2a.5.5 0 0 1 .7-.1l2 1.5a.5.5 0 0 1-.6.8l-2-1.5a.5.5 0 0 1-.1-.7m15.1-.1a.5.5 0 0 1 .6.8l-2 1.5a.5.5 0 0 1-.6-.8zM.1 12.3a.5.5 0 0 0 .7.1l2-1.5a.5.5 0 0 0-.6-.8l-2 1.5a.5.5 0 0 0-.1.7m15.1.1a.5.5 0 0 0 .6-.8l-2-1.5a.5.5 0 0 0-.6.8z"/></svg>