<svg xmlns="http://www.w3.org/2000/svg" xmlns:xlink="http://www.w3.org/1999/xlink" width="24" height="24" viewBox="0 0 24 24"><path fill="currentColor" d="M17.5 12a5.5 5.5 0 1 1 0 11a5.5 5.5 0 0 1 0-11Zm0 2l-.09.007a.5.5 0 0 0-.402.402L17 14.5V17h-2.502l-.09.008a.5.5 0 0 0-.402.402l-.008.09l.008.09a.5.5 0 0 0 .402.402l.09.008H17v2.503l.008.09a.5.5 0 0 0 .402.402l.09.008l.09-.008a.5.5 0 0 0 .402-.402l.008-.09V18l2.504.001l.09-.008a.5.5 0 0 0 .402-.402l.008-.09l-.008-.09a.5.5 0 0 0-.403-.402l-.09-.008H18v-2.5l-.008-.09a.5.5 0 0 0-.402-.403L17.5 14Zm.25-11A3.25 3.25 0 0 1 21 6.25l.001 5.773a6.502 6.502 0 0 0-9.497 2.963a4.78 4.78 0 0 1-2.327-.85a.75.75 0 1 0-.854 1.233a6.293 6.293 0 0 0 2.762 1.08A6.507 6.507 0 0 0 12.023 21H6.25A3.25 3.25 0 0 1 3 17.75V6.25A3.25 3.25 0 0 1 6.25 3h11.5ZM9 7.751a1.25 1.25 0 1 0 0 2.499a1.25 1.25 0 0 0 0-2.5Zm6 0a1.25 1.25 0 1 0 0 2.499a1.25 1.25 0 0 0 0-2.499Z"/></svg>