<svg xmlns="http://www.w3.org/2000/svg" xmlns:xlink="http://www.w3.org/1999/xlink" width="24" height="24" viewBox="0 0 24 24"><path fill="currentColor" d="M6.719 5.34a.75.75 0 1 0-.933-1.175A9.98 9.98 0 0 0 2 12a9.98 9.98 0 0 0 3.786 7.835a.75.75 0 1 0 .933-1.174A8.48 8.48 0 0 1 3.5 12a8.48 8.48 0 0 1 3.219-6.66m11.495-1.175a.75.75 0 1 0-.933 1.174A8.48 8.48 0 0 1 20.5 12a8.48 8.48 0 0 1-3.219 6.66a.75.75 0 0 0 .933 1.175A9.98 9.98 0 0 0 22 12a9.98 9.98 0 0 0-3.786-7.835M7.75 11.25a.75.75 0 0 0 0 1.5h8.5a.75.75 0 0 0 0-1.5z"/></svg>