<svg xmlns="http://www.w3.org/2000/svg" xmlns:xlink="http://www.w3.org/1999/xlink" width="32" height="32" viewBox="0 0 32 32"><path fill="currentColor" d="M8.616 6.54a1 1 0 1 0-1.232-1.575A13.98 13.98 0 0 0 2 16c0 4.483 2.109 8.475 5.384 11.036a1 1 0 1 0 1.232-1.576A11.98 11.98 0 0 1 4 16c0-3.842 1.804-7.262 4.616-9.46m16-1.575a1 1 0 1 0-1.232 1.575A11.98 11.98 0 0 1 28 16c0 3.842-1.804 7.262-4.616 9.46a1 1 0 1 0 1.232 1.576A13.98 13.98 0 0 0 30 16c0-4.483-2.109-8.475-5.384-11.035M10 15a1 1 0 1 0 0 2h12a1 1 0 1 0 0-2z"/></svg>