<svg xmlns="http://www.w3.org/2000/svg" xmlns:xlink="http://www.w3.org/1999/xlink" width="48" height="48" viewBox="0 0 48 48"><path fill="currentColor" d="M12 8a3 3 0 0 0-3 3v1.5a1.5 1.5 0 0 1-3 0V11a6 6 0 1 1 12 0v7h15v-7a3 3 0 1 0-6 0v1.5a1.5 1.5 0 1 1-3 0V11a6 6 0 0 1 12 0v17.715A17 17 0 0 1 33 29v-8H18v3.523a21 21 0 0 0-3-.462V11a3 3 0 0 0-3-3M5.345 30.484a1.5 1.5 0 0 1 .198-2.112l.002-.002l.002-.001l.004-.003l.01-.008l.025-.021a5 5 0 0 1 .343-.249a10 10 0 0 1 .948-.563a13.2 13.2 0 0 1 3.534-1.227c3.09-.62 7.472-.46 12.923 2.314c4.96 2.523 9.344 2.648 12.475 2.164a18 18 0 0 0 3.69-.975c.428-.166.755-.315.967-.418q.16-.079.232-.118l.049-.026l.002-.002h.002v-.001h.002a1.5 1.5 0 0 1 1.498 2.598l-.002.001l-.005.003l-.01.006l-.029.016a7 7 0 0 1-.424.22c-.282.137-.685.32-1.198.519a20.8 20.8 0 0 1-4.315 1.141c-3.65.566-8.689.398-14.294-2.454c-4.872-2.479-8.567-2.53-10.973-2.047c-1.216.244-2.134.63-2.733.944a7 7 0 0 0-.797.489l-.023.017a1.5 1.5 0 0 1-2.103-.205m0 9a1.5 1.5 0 0 1 .198-2.112l.002-.002l.002-.001l.004-.004l.01-.007l.025-.021a5 5 0 0 1 .343-.249a10 10 0 0 1 .948-.563a13.2 13.2 0 0 1 3.534-1.227c3.09-.62 7.472-.46 12.923 2.314c4.96 2.523 9.344 2.648 12.475 2.164a18 18 0 0 0 3.69-.975c.428-.166.755-.315.967-.418q.16-.08.232-.118l.049-.026l.002-.002h.002v-.001h.002a1.5 1.5 0 0 1 1.498 2.598l-.002.001l-.001.001l-.004.002l-.01.006l-.029.016a7 7 0 0 1-.424.22c-.282.137-.685.32-1.198.519a20.8 20.8 0 0 1-4.315 1.141c-3.65.566-8.689.398-14.294-2.454c-4.872-2.479-8.567-2.53-10.973-2.047c-1.216.244-2.134.63-2.733.944a7 7 0 0 0-.797.489l-.023.017a1.5 1.5 0 0 1-2.103-.205"/></svg>