<svg xmlns="http://www.w3.org/2000/svg" xmlns:xlink="http://www.w3.org/1999/xlink" width="24" height="24" viewBox="0 0 24 24"><path fill="currentColor" d="M5.75 3h12.5A2.75 2.75 0 0 1 21 5.75v12.5A2.75 2.75 0 0 1 18.25 21H5.75A2.75 2.75 0 0 1 3 18.25V5.75A2.75 2.75 0 0 1 5.75 3M4.5 5.75v1.043L6.793 4.5H5.75c-.69 0-1.25.56-1.25 1.25m0 2.457v2.586L10.793 4.5H8.207zM12.207 4.5L4.5 12.207v2.586L14.793 4.5zm4 0L4.5 16.207v2.043q.001.243.086.457l14.12-14.12a1.3 1.3 0 0 0-.456-.087zm3.207.793l-14.12 14.12c.14.056.295.087.456.087h2.043L19.5 7.793V5.75q-.001-.243-.086-.457m.086 3.914L9.207 19.5h2.586l7.707-7.707zm0 4L13.207 19.5h2.586l3.707-3.707zm0 4L17.207 19.5h1.043c.69 0 1.25-.56 1.25-1.25z"/></svg>