<svg xmlns="http://www.w3.org/2000/svg" xmlns:xlink="http://www.w3.org/1999/xlink" width="20" height="20" viewBox="0 0 20 20"><path fill="currentColor" d="m14.878.282l.348 1.071a2.2 2.2 0 0 0 1.399 1.397l1.071.348l.021.006a.423.423 0 0 1 0 .798l-1.071.348a2.2 2.2 0 0 0-1.399 1.397l-.348 1.07a.423.423 0 0 1-.798 0l-.349-1.07a2.2 2.2 0 0 0-.532-.867a2.2 2.2 0 0 0-.866-.536l-1.071-.348a.423.423 0 0 1 0-.798l1.071-.348a2.2 2.2 0 0 0 1.377-1.397l.348-1.07a.423.423 0 0 1 .799 0m4.905 7.931l-.766-.248a1.58 1.58 0 0 1-.998-.999l-.25-.764a.302.302 0 0 0-.57 0l-.248.764a1.58 1.58 0 0 1-.984.999l-.765.248a.303.303 0 0 0 0 .57l.765.249a1.58 1.58 0 0 1 1 1.002l.248.764a.302.302 0 0 0 .57 0l.249-.764a1.58 1.58 0 0 1 .999-.999l.765-.248a.303.303 0 0 0 0-.57zM17.502 12a1.33 1.33 0 0 1-.746-.23c-.22-.16-.38-.371-.48-.621l-.26-.802l-.016-.039V12.5a3.5 3.5 0 0 1-3.5 3.5H5.05a2.5 2.5 0 0 0 2.45 2H14a4 4 0 0 0 4-4v-2.079a1.5 1.5 0 0 1-.498.079m-4.35-4.948L12.807 6H7.5A1.5 1.5 0 0 1 6 4.5V2H4.5A2.5 2.5 0 0 0 2 4.5v8A2.5 2.5 0 0 0 4.5 15h8a2.5 2.5 0 0 0 2.5-2.5V9.771l-.106-.035c-.27-.1-.49-.26-.65-.48s-.24-.481-.24-.752c0-.19.04-.38.12-.55q-.24-.06-.45-.21a1.5 1.5 0 0 1-.521-.692m-2.201-4.898L11.43 2H7v2.5a.5.5 0 0 0 .5.5h3.93l-.46-.152c-.3-.1-.54-.29-.71-.53S10 3.796 10 3.495s.09-.58.26-.821c.17-.24.41-.42.69-.521"/></svg>