<svg xmlns="http://www.w3.org/2000/svg" xmlns:xlink="http://www.w3.org/1999/xlink" width="24" height="24" viewBox="0 0 24 24"><path fill="currentColor" d="M5.75 3H11v2.75A2.25 2.25 0 0 0 13.25 8H21v10.25A2.75 2.75 0 0 1 18.25 21h-4.268a1.74 1.74 0 0 0-.495-.987l-2.062-2.063A5.5 5.5 0 0 0 3 11.257V5.75A2.75 2.75 0 0 1 5.75 3M21 5.75v.75h-7.75a.75.75 0 0 1-.75-.75V3h5.75A2.75 2.75 0 0 1 21 5.75M6.5 20a4.5 4.5 0 0 0 2.607-.832l2.613 2.612a.75.75 0 1 0 1.06-1.06l-2.612-2.613A4.5 4.5 0 1 0 6.5 20m0-1.5a3 3 0 1 1 0-6a3 3 0 0 1 0 6"/></svg>