<svg xmlns="http://www.w3.org/2000/svg" xmlns:xlink="http://www.w3.org/1999/xlink" width="24" height="24" viewBox="0 0 24 24"><path fill="currentColor" d="M3 6.25A3.25 3.25 0 0 1 6.25 3h11.5A3.25 3.25 0 0 1 21 6.25v5.772a6.5 6.5 0 0 0-1.5-.709V10h-4v1.313a6.5 6.5 0 0 0-1.5.709V10h-4v4h2.022a6.5 6.5 0 0 0-.709 1.5H10v4h1.313c.173.534.412 1.037.709 1.5H6.25A3.25 3.25 0 0 1 3 17.75zM6.25 4.5A1.75 1.75 0 0 0 4.5 6.25V8.5h4v-4zM4.5 10v4h4v-4zm11-1.5h4V6.25a1.75 1.75 0 0 0-1.75-1.75H15.5zm-1.5-4h-4v4h4zm-9.5 11v2.25c0 .966.784 1.75 1.75 1.75H8.5v-4zm18.5 2a5.5 5.5 0 1 1-11 0a5.5 5.5 0 0 1 11 0m-5.5-.707l-1.646-1.647a.5.5 0 0 0-.708.708l1.647 1.646l-1.647 1.646a.5.5 0 0 0 .708.708l1.646-1.647l1.646 1.647a.5.5 0 0 0 .708-.708L18.207 17.5l1.647-1.646a.5.5 0 0 0-.708-.708z"/></svg>