<svg xmlns="http://www.w3.org/2000/svg" xmlns:xlink="http://www.w3.org/1999/xlink" width="16" height="16" viewBox="0 0 16 16"><path fill="currentColor" d="M4.5 2A2.5 2.5 0 0 0 2 4.5V5h3V2zM6 2v3h4V2zM5 6H2v4h3zm0 5H2v.5A2.5 2.5 0 0 0 4.5 14H5zm1 3h.221l.212-.845a3.2 3.2 0 0 1 .84-1.485l.67-.67H6zm8-8v.003a2.86 2.86 0 0 0-1.897.838L11 7.944V6zm0-1v-.5A2.5 2.5 0 0 0 11.5 2H11v3zm-6.02 7.377l4.83-4.83a1.87 1.87 0 1 1 2.644 2.646l-4.83 4.829a2.2 2.2 0 0 1-1.02.578l-1.498.374a.89.89 0 0 1-1.079-1.078l.375-1.498a2.2 2.2 0 0 1 .578-1.02"/></svg>