<svg xmlns="http://www.w3.org/2000/svg" xmlns:xlink="http://www.w3.org/1999/xlink" width="24" height="24" viewBox="0 0 24 24"><path fill="currentColor" d="M15.088 6.412a2.84 2.84 0 0 0-1.347-.955l-1.378-.448a.544.544 0 0 1 0-1.025l1.378-.448A2.84 2.84 0 0 0 15.5 1.774l.011-.034l.448-1.377a.544.544 0 0 1 1.027 0l.447 1.377a2.84 2.84 0 0 0 1.799 1.796l1.377.448l.028.007a.544.544 0 0 1 0 1.025l-1.378.448a2.84 2.84 0 0 0-1.798 1.796l-.448 1.377l-.013.034a.544.544 0 0 1-1.013-.034l-.448-1.377a2.8 2.8 0 0 0-.45-.848m7.695 3.801l-.766-.248a1.58 1.58 0 0 1-.998-.999l-.25-.764a.302.302 0 0 0-.57 0l-.248.764a1.58 1.58 0 0 1-.984.999l-.765.248a.302.302 0 0 0 0 .57l.765.249a1.58 1.58 0 0 1 1 1.002l.248.764a.302.302 0 0 0 .57 0l.249-.764a1.58 1.58 0 0 1 .999-.999l.765-.248a.302.302 0 0 0 0-.57zM12.155 3H9.5v5h5v-.648a1.84 1.84 0 0 0-1.072-.945l-1.386-.45l-.011-.004a1.544 1.544 0 0 1 0-2.912l.011-.005zM16 9.917a1.55 1.55 0 0 0 1.176-.073a1.3 1.3 0 0 0 .693 1.882l.012.004l.773.251a.58.58 0 0 1 .362.364v.002l.252.773l.004.011a1.3 1.3 0 0 0 1.728.77v.599h-5zM14.5 21h-5v-5h5zm3.25 0H16v-5h5v1.75A3.25 3.25 0 0 1 17.75 21M6.25 3H8v5H3V6.25A3.25 3.25 0 0 1 6.25 3M3 14.5v-5h5v5zm0 3.25V16h5v5H6.25A3.25 3.25 0 0 1 3 17.75m11.5-3.25v-5h-5v5z"/></svg>