<svg xmlns="http://www.w3.org/2000/svg" xmlns:xlink="http://www.w3.org/1999/xlink" width="28" height="28" viewBox="0 0 28 28"><path fill="currentColor" d="M6.75 3A3.75 3.75 0 0 0 3 6.75v14.5A3.75 3.75 0 0 0 6.75 25h6.816a4.75 4.75 0 0 1 4.184-7h5.5c.618 0 1.208.118 1.75.333V6.75A3.75 3.75 0 0 0 21.25 3zM4.5 21.25V18.5h5v5H6.75a2.25 2.25 0 0 1-2.25-2.25M9.5 11v6h-5v-6zm7.5 0v6h-6v-6zm6.5 0v6h-5v-6zm-2.25-6.5a2.25 2.25 0 0 1 2.25 2.25V9.5h-5v-5zm-14.5 0H9.5v5h-5V6.75A2.25 2.25 0 0 1 6.75 4.5m11 16a2.25 2.25 0 0 0 0 4.5h.5a.75.75 0 0 1 0 1.5h-.5a3.75 3.75 0 1 1 0-7.5h.5a.75.75 0 0 1 0 1.5zM17 22.75a.75.75 0 0 1 .75-.75h5.5a.75.75 0 0 1 0 1.5h-5.5a.75.75 0 0 1-.75-.75M23.25 25a2.25 2.25 0 0 0 0-4.5h-.5a.75.75 0 0 1 0-1.5h.5a3.75 3.75 0 1 1 0 7.5h-.5a.75.75 0 0 1 0-1.5z"/></svg>