<svg xmlns="http://www.w3.org/2000/svg" xmlns:xlink="http://www.w3.org/1999/xlink" width="16" height="16" viewBox="0 0 16 16"><path fill="currentColor" d="M6.5 2A1.5 1.5 0 0 0 5 3.5V4h6v-.5A1.5 1.5 0 0 0 9.5 2zM11 5H5v6h1.022A5.5 5.5 0 0 1 11 6.022zm-6 7h1.022c.065.715.266 1.39.578 2h-.1A1.5 1.5 0 0 1 5 12.5zm9-5.5v.1a5.5 5.5 0 0 0-2-.578V5h.5A1.5 1.5 0 0 1 14 6.5M4 11V5h-.5A1.5 1.5 0 0 0 2 6.5v3A1.5 1.5 0 0 0 3.5 11zm12 .5a4.5 4.5 0 1 1-9 0a4.5 4.5 0 0 1 9 0m-4-2a.5.5 0 0 0-1 0V11H9.5a.5.5 0 0 0 0 1H11v1.5a.5.5 0 0 0 1 0V12h1.5a.5.5 0 0 0 0-1H12z"/></svg>