<svg xmlns="http://www.w3.org/2000/svg" xmlns:xlink="http://www.w3.org/1999/xlink" width="28" height="28" viewBox="0 0 28 28"><path fill="currentColor" d="M3 6.75A3.75 3.75 0 0 1 6.75 3h14.5A3.75 3.75 0 0 1 25 6.75v14.5A3.75 3.75 0 0 1 21.25 25h-6.775l-1.5-1.5H17v-5h-4.076a6.5 6.5 0 0 0-.422-1.5H17v-6h-6v3.81a6.5 6.5 0 0 0-1.5-1.078V11h-5v2.313a6.5 6.5 0 0 0-1.5.709zM18.5 18.5v5h2.75a2.25 2.25 0 0 0 2.25-2.25V18.5zm5-1.5v-6h-5v6zm0-10.25a2.25 2.25 0 0 0-2.25-2.25H18.5v5h5zM17 4.5h-6v5h6zm-7.5 0H6.75A2.25 2.25 0 0 0 4.5 6.75V9.5h5zM6.5 25c1.248 0 2.4-.416 3.323-1.117l2.897 2.897a.75.75 0 1 0 1.06-1.06l-2.897-2.897A5.5 5.5 0 1 0 6.5 25m0-1.5a4 4 0 1 1 0-8a4 4 0 0 1 0 8"/></svg>