<svg xmlns="http://www.w3.org/2000/svg" xmlns:xlink="http://www.w3.org/1999/xlink" width="28" height="28" viewBox="0 0 28 28"><path fill="currentColor" d="M6.75 3A3.75 3.75 0 0 0 3 6.75v14.5A3.75 3.75 0 0 0 6.75 25h8.418a1.76 1.76 0 0 1-.096-1.247l-.075.042a1.75 1.75 0 0 1-2.364-.732A5.5 5.5 0 0 1 12 20.5c0-1.33.472-2.55 1.257-3.5H11v-6h6v4.022q.247-.021.5-.022h1v-4h5v4.525a1.75 1.75 0 0 1 .428 1.723l.075-.042a1.74 1.74 0 0 1 .997-.193V6.75A3.75 3.75 0 0 0 21.25 3zM4.5 21.25V18.5h5v5H6.75a2.25 2.25 0 0 1-2.25-2.25M9.5 11v6h-5v-6zm11.75-6.5a2.25 2.25 0 0 1 2.25 2.25V9.5h-5v-5zm-14.5 0H9.5v5h-5V6.75A2.25 2.25 0 0 1 6.75 4.5m14.03 9.72a.75.75 0 1 0-1.06 1.06l.72.72H17.5a4.5 4.5 0 0 0-3.982 6.597a.75.75 0 1 0 1.326-.7A3 3 0 0 1 17.5 17.5h2.94l-.72.72a.75.75 0 1 0 1.06 1.06l2-2a.75.75 0 0 0 0-1.06zm4.703 4.184a.75.75 0 0 0-1.327.7A3 3 0 0 1 21.5 23.5h-2.94l.723-.723a.75.75 0 0 0-1.06-1.06L16.22 23.72a.75.75 0 0 0 0 1.06l2.003 2.003a.75.75 0 0 0 1.06-1.06L18.561 25H21.5a4.5 4.5 0 0 0 3.983-6.596"/></svg>