<svg xmlns="http://www.w3.org/2000/svg" xmlns:xlink="http://www.w3.org/1999/xlink" width="48" height="48" viewBox="0 0 48 48"><path fill="currentColor" d="M11.25 6h25.5C39.65 6 42 8.35 42 11.25v11.417a6.24 6.24 0 0 0-2.5-1.419V11.25a2.75 2.75 0 0 0-2.75-2.75H25.5v12.748a6.24 6.24 0 0 0-2.5 1.42V8.5H11.25a2.75 2.75 0 0 0-2.75 2.75v11.5h14.413a6.25 6.25 0 0 0-1.586 2.5H8.5v11.5a2.75 2.75 0 0 0 2.75 2.75h9.998a6.24 6.24 0 0 0 1.42 2.5H11.25A5.25 5.25 0 0 1 6 36.75v-25.5C6 8.35 8.35 6 11.25 6M23 27.25A4.25 4.25 0 0 1 27.25 23h10.5A4.25 4.25 0 0 1 42 27.25v10.5A4.25 4.25 0 0 1 37.75 42h-10.5A4.25 4.25 0 0 1 23 37.75z"/></svg>