<svg xmlns="http://www.w3.org/2000/svg" xmlns:xlink="http://www.w3.org/1999/xlink" width="24" height="24" viewBox="0 0 24 24"><path fill="currentColor" d="M12.022 21H9.5v-5h1.674a6.52 6.52 0 0 0 .848 5M21 12.022V9.5h-5v1.674a6.52 6.52 0 0 1 5 .848m-6.5-.29V9.5h-5v5h2.232a6.53 6.53 0 0 1 2.768-2.768M21 6.25V8h-5V3h1.75A3.25 3.25 0 0 1 21 6.25M9.5 3h5v5h-5zM6.25 3H8v5H3V6.25A3.25 3.25 0 0 1 6.25 3M3 14.5v-5h5v5zm0 3.25V16h5v5H6.25A3.25 3.25 0 0 1 3 17.75m20-.25a5.5 5.5 0 1 0-11 0a5.5 5.5 0 0 0 11 0m-5.573-3.495l.084-.005l.063.005l.054.012l.063.02l.068.035l.047.032l2.548 2.542l.057.07a.5.5 0 0 1-.695.695l-.07-.057L18 15.706V21l-.008.09a.5.5 0 0 1-.402.402l-.09.008l-.09-.008a.5.5 0 0 1-.402-.402L17 21l-.001-5.292l-1.645 1.646l-.07.057a.5.5 0 0 1-.568 0l-.07-.057l-.057-.07a.5.5 0 0 1 0-.568l.057-.07l2.513-2.512l.056-.045l.074-.042l.083-.03z"/></svg>