<svg xmlns="http://www.w3.org/2000/svg" xmlns:xlink="http://www.w3.org/1999/xlink" width="20" height="20" viewBox="0 0 20 20"><path fill="currentColor" d="M17 5.5A2.5 2.5 0 0 0 14.5 3h-9A2.5 2.5 0 0 0 3 5.5v3.756q.478-.17 1-.229V8h3v1.758c.378.253.715.561 1 .913V8h4v4H8.744c.166.47.256.974.256 1.5c0 .695-.157 1.353-.439 1.94l1.56 1.56H14.5a2.5 2.5 0 0 0 2.5-2.5zM14.5 16H13v-3h3v1.5l-.007.145A1.5 1.5 0 0 1 14.5 16M13 8h3v4h-3zm0-4h1.5l.145.007A1.5 1.5 0 0 1 16 5.5V7h-3zM4 7V5.5l.007-.144A1.5 1.5 0 0 1 5.5 4H7v3zm.5 10c.786 0 1.512-.26 2.096-.697l2.55 2.55a.5.5 0 1 0 .708-.707l-2.55-2.55A3.5 3.5 0 1 0 4.5 17m0-1a2.5 2.5 0 1 1 0-5a2.5 2.5 0 0 1 0 5"/></svg>