<svg xmlns="http://www.w3.org/2000/svg" xmlns:xlink="http://www.w3.org/1999/xlink" width="28" height="28" viewBox="0 0 28 28"><path fill="currentColor" d="M3 6.75A3.75 3.75 0 0 1 6.75 3h14.5A3.75 3.75 0 0 1 25 6.75v14.5A3.75 3.75 0 0 1 21.25 25H6.75A3.75 3.75 0 0 1 3 21.25zM4.5 18.5v2.75a2.25 2.25 0 0 0 2.25 2.25H9.5v-5zm5-1.5v-6h-5v6zm1.5 1.5v5h6v-5zm7.5 0v5h2.75a2.25 2.25 0 0 0 2.25-2.25V18.5zm5-1.5v-6h-5v6zm0-10.25a2.25 2.25 0 0 0-2.25-2.25H18.5v5h5zM17 4.5h-6v5h6zm-7.5 0H6.75A2.25 2.25 0 0 0 4.5 6.75V9.5h5z"/></svg>