<svg xmlns="http://www.w3.org/2000/svg" xmlns:xlink="http://www.w3.org/1999/xlink" width="28" height="28" viewBox="0 0 28 28"><path fill="currentColor" d="M4.5 3.75a.75.75 0 0 0-1.5 0v20.5a.75.75 0 0 0 1.5 0zM17 25h-5a1 1 0 0 1-1-1v-5.5h6zm4.25 0H18.5v-6.5H25v2.75A3.75 3.75 0 0 1 21.25 25M25 11v6h-6.5v-6zm0-4.25V9.5h-6.5V3h2.75A3.75 3.75 0 0 1 25 6.75M11 4a1 1 0 0 1 1-1h5v6.5h-6zm6 13v-6h-6v1.25h1a1.75 1.75 0 1 1 0 3.5h-1V17zm-7.69-4.752l-.89 1.002H12a.75.75 0 0 1 0 1.5H8.42l.89 1.002a.75.75 0 0 1-1.12.996l-2-2.25a.75.75 0 0 1 0-.996l2-2.25a.75.75 0 0 1 1.12.996"/></svg>