<svg xmlns="http://www.w3.org/2000/svg" xmlns:xlink="http://www.w3.org/1999/xlink" width="32" height="32" viewBox="0 0 32 32"><path fill="currentColor" d="M3 7.5A4.5 4.5 0 0 1 7.5 3h17A4.5 4.5 0 0 1 29 7.5v8.875a9 9 0 0 0-1-.671V12h-7v2.852a9 9 0 0 0-1 .354V12h-8v8h3.206a9 9 0 0 0-.354 1H12v7h3.704q.303.524.671 1H7.5A4.5 4.5 0 0 1 3 24.5zM4 21v3.5A3.5 3.5 0 0 0 7.5 28H11v-7zm0-1h7v-8H4zM7.5 4A3.5 3.5 0 0 0 4 7.5V11h7V4zM20 4h-8v7h8zm1 0v7h7V7.5A3.5 3.5 0 0 0 24.5 4zm2.5 12a7.5 7.5 0 1 1 0 15a7.5 7.5 0 0 1 0-15m2.72 3.72l-2.72 2.72l-2.72-2.72a.75.75 0 1 0-1.06 1.06l2.72 2.72l-2.72 2.72a.75.75 0 1 0 1.06 1.06l2.72-2.72l2.72 2.72a.75.75 0 1 0 1.06-1.06l-2.72-2.72l2.72-2.72a.75.75 0 1 0-1.06-1.06"/></svg>