<svg xmlns="http://www.w3.org/2000/svg" xmlns:xlink="http://www.w3.org/1999/xlink" width="32" height="32" viewBox="0 0 32 32"><path fill="currentColor" d="M3 7.5A4.5 4.5 0 0 1 7.5 3h17A4.5 4.5 0 0 1 29 7.5v7.03q-.245-.03-.5-.03H28V12h-7v2.5h-1V12h-8v8h2.5v1H12v7h2.53q.069.526.26 1H7.5A4.5 4.5 0 0 1 3 24.5zM4 21v3.5A3.5 3.5 0 0 0 7.5 28H11v-7zm7-1v-8H4v8zM7.5 4A3.5 3.5 0 0 0 4 7.5V11h7V4zM20 4h-8v7h8zm4.5 0H21v7h7V7.5A3.5 3.5 0 0 0 24.5 4m-6 12a2.5 2.5 0 0 0-2.5 2.5v9a2.5 2.5 0 0 0 2.5 2.5h10a2.5 2.5 0 0 0 2.5-2.5v-9a2.5 2.5 0 0 0-2.5-2.5zm.75 5.5a.75.75 0 0 1 0-1.5h8.5a.75.75 0 0 1 0 1.5zm-.75 3.75a.75.75 0 0 1 .75-.75h8.5a.75.75 0 0 1 0 1.5h-8.5a.75.75 0 0 1-.75-.75"/></svg>