<svg xmlns="http://www.w3.org/2000/svg" xmlns:xlink="http://www.w3.org/1999/xlink" width="24" height="24" viewBox="0 0 24 24"><path fill="currentColor" d="M17.75 3A3.25 3.25 0 0 1 21 6.25v11.5A3.25 3.25 0 0 1 17.75 21h-.25v-6.647l1.058-1.19a1.75 1.75 0 0 0 0-2.326L17.5 9.647V3zm-3.663 12.558a1.75 1.75 0 0 1-.514-1.808h-3.145A1.75 1.75 0 0 1 8 15.832V21h8v-5.168a1.75 1.75 0 0 1-1.913-.274m0-7.116A1.75 1.75 0 0 1 16 8.168V3H8v5.168a1.75 1.75 0 0 1 2.428 2.082h3.144a1.75 1.75 0 0 1 .515-1.808M6.5 9.647V3h-.25A3.25 3.25 0 0 0 3 6.25v11.5A3.25 3.25 0 0 0 6.25 21h.25v-6.647l-1.058-1.19a1.75 1.75 0 0 1 0-2.326zm9.08 1.603H8.42l.89-1.002a.75.75 0 0 0-1.12-.996l-2 2.25a.75.75 0 0 0 0 .996l2 2.25a.75.75 0 1 0 1.12-.996l-.89-1.002h7.16l-.89 1.002a.75.75 0 1 0 1.12.996l2-2.25l.011-.012a.75.75 0 0 0-.013-.987l-1.997-2.247a.75.75 0 0 0-1.121.996z"/></svg>