<svg xmlns="http://www.w3.org/2000/svg" xmlns:xlink="http://www.w3.org/1999/xlink" width="24" height="24" viewBox="0 0 24 24"><path fill="currentColor" d="M11.25 3A2.25 2.25 0 0 0 9 5.25V7.5h6V5.25A2.25 2.25 0 0 0 12.75 3zM15 9H9v6h2.498A6.52 6.52 0 0 1 15 11.498zm-6 7.5h2.076q-.075.49-.076 1a6.47 6.47 0 0 0 1.022 3.5h-.772A2.25 2.25 0 0 1 9 18.75zm12-5.25v.772A6.47 6.47 0 0 0 17.5 11q-.51 0-1 .076V9h2.25A2.25 2.25 0 0 1 21 11.25M7.5 15V9H5.25A2.25 2.25 0 0 0 3 11.25v1.5A2.25 2.25 0 0 0 5.25 15zM23 17.5a5.5 5.5 0 1 0-11 0a5.5 5.5 0 0 0 11 0m-5 .5l.001 2.503a.5.5 0 1 1-1 0V18h-2.505a.5.5 0 0 1 0-1H17v-2.5a.5.5 0 1 1 1 0V17h2.497a.5.5 0 0 1 0 1z"/></svg>