<svg xmlns="http://www.w3.org/2000/svg" xmlns:xlink="http://www.w3.org/1999/xlink" width="20" height="20" viewBox="0 0 20 20"><path fill="currentColor" d="M9 3a2 2 0 0 0-2 2v2H5a2 2 0 0 0-2 2v2a2 2 0 0 0 2 2h2v2a2 2 0 0 0 2 2h.6a5.5 5.5 0 0 1-.393-1H9a1 1 0 0 1-1-1v-2h1.207q.149-.524.393-1H8V8h4v1.6a5.5 5.5 0 0 1 1-.393V8h2a1 1 0 0 1 1 1v.207q.524.149 1 .393V9a2 2 0 0 0-2-2h-2V5a2 2 0 0 0-2-2zm3 4H8V5a1 1 0 0 1 1-1h2a1 1 0 0 1 1 1zM7 8v4H5a1 1 0 0 1-1-1V9a1 1 0 0 1 1-1zm12 6.5a4.5 4.5 0 1 1-9 0a4.5 4.5 0 0 1 9 0m-4-2a.5.5 0 0 0-1 0V14h-1.5a.5.5 0 0 0 0 1H14v1.5a.5.5 0 0 0 1 0V15h1.5a.5.5 0 0 0 0-1H15z"/></svg>