<svg xmlns="http://www.w3.org/2000/svg" xmlns:xlink="http://www.w3.org/1999/xlink" width="20" height="20" viewBox="0 0 20 20"><path fill="currentColor" d="M5.5 3A2.5 2.5 0 0 0 3 5.5v9A2.5 2.5 0 0 0 5.5 17h4.1a5.5 5.5 0 0 1-.393-1H5.5A1.5 1.5 0 0 1 4 14.5V13h5.207q.149-.524.393-1H8V8h8v1.207q.524.149 1 .393V5.5A2.5 2.5 0 0 0 14.5 3zM7 12H4V8h3zM4 7V5.5A1.5 1.5 0 0 1 5.5 4H12v3zm12-1.5V7h-3V4h1.5A1.5 1.5 0 0 1 16 5.5M14.5 19a4.5 4.5 0 1 0 0-9a4.5 4.5 0 0 0 0 9M13 16h3a.5.5 0 0 1 0 1h-3a.5.5 0 0 1 0-1m2.4-4.8a.5.5 0 0 1-.1.7L13.833 13l1.467 1.1a.5.5 0 0 1-.6.8l-2-1.5a.5.5 0 0 1 0-.8l2-1.5a.5.5 0 0 1 .7.1"/></svg>