<svg xmlns="http://www.w3.org/2000/svg" xmlns:xlink="http://www.w3.org/1999/xlink" width="28" height="28" viewBox="0 0 28 28"><path fill="currentColor" d="M10.78 1.22a.75.75 0 1 0-1.06 1.06l.72.72H6.25A3.25 3.25 0 0 0 3 6.25v4.19l-.72-.72a.75.75 0 0 0-1.06 1.06l2 2a.75.75 0 0 0 1.06 0l2-2a.75.75 0 1 0-1.06-1.06l-.72.72V6.25c0-.966.784-1.75 1.75-1.75h4.19l-.72.72a.75.75 0 0 0 1.06 1.06l2-2a.75.75 0 0 0 0-1.06zM3 21.25v-7.418a1.76 1.76 0 0 0 1.5 0V17h5v-6H7.332a1.76 1.76 0 0 0 0-1.5H9.5V7.332a1.76 1.76 0 0 0 1.5 0V9.5h6v-5h-3.168a1.76 1.76 0 0 0 0-1.5h7.418A3.75 3.75 0 0 1 25 6.75v14.5A3.75 3.75 0 0 1 21.25 25H6.75A3.75 3.75 0 0 1 3 21.25m1.5-2.75v2.75a2.25 2.25 0 0 0 2.25 2.25H9.5v-5zm6.5 0v5h6v-5zm6-1.5v-6h-6v6zm1.5 1.5v5h2.75a2.25 2.25 0 0 0 2.25-2.25V18.5zm5-1.5v-6h-5v6zm0-10.25a2.25 2.25 0 0 0-2.25-2.25H18.5v5h5z"/></svg>