<svg xmlns="http://www.w3.org/2000/svg" xmlns:xlink="http://www.w3.org/1999/xlink" width="28" height="28" viewBox="0 0 28 28"><path fill="currentColor" d="M3 6.75A3.75 3.75 0 0 1 6.75 3h14.5A3.75 3.75 0 0 1 25 6.75v6.262a3.3 3.3 0 0 0-1.5.22V11h-5v6h.856L17 19.356V18.5h-6v5h2.542l-.02.077L13.166 25H6.75A3.75 3.75 0 0 1 3 21.25zM4.5 18.5v2.75a2.25 2.25 0 0 0 2.25 2.25H9.5v-5zm5-1.5v-6h-5v6zm7.5 0v-6h-6v6zm6.5-10.25a2.25 2.25 0 0 0-2.25-2.25H18.5v5h5zM17 4.5h-6v5h6zm-7.5 0H6.75A2.25 2.25 0 0 0 4.5 6.75V9.5h5zm13.6 10.17l-7.903 7.902a2.7 2.7 0 0 0-.706 1.247l-.458 1.831a1.087 1.087 0 0 0 1.319 1.318l1.83-.457a2.7 2.7 0 0 0 1.248-.707l7.902-7.902a2.286 2.286 0 0 0-3.232-3.233"/></svg>