<svg xmlns="http://www.w3.org/2000/svg" xmlns:xlink="http://www.w3.org/1999/xlink" width="28" height="28" viewBox="0 0 28 28"><path fill="currentColor" d="M6.75 3A3.75 3.75 0 0 0 3 6.75v7.272a6.5 6.5 0 0 1 1.5-.709V11h5v2.732A6.5 6.5 0 0 1 11 14.81V11h6v6h-4.498A6.5 6.5 0 0 1 13 19.5a6.47 6.47 0 0 1-.835 3.19l2.31 2.31h6.775A3.75 3.75 0 0 0 25 21.25V6.75A3.75 3.75 0 0 0 21.25 3zM18.5 23.5v-5h5v2.75a2.25 2.25 0 0 1-2.25 2.25zm5-12.5v6h-5v-6zm-2.25-6.5a2.25 2.25 0 0 1 2.25 2.25V9.5h-5v-5zm-14.5 0H9.5v5h-5V6.75A2.25 2.25 0 0 1 6.75 4.5M6.5 25c1.248 0 2.4-.416 3.323-1.117l2.897 2.897a.75.75 0 1 0 1.06-1.06l-2.897-2.897A5.5 5.5 0 1 0 6.5 25m0-1.5a4 4 0 1 1 0-8a4 4 0 0 1 0 8"/></svg>