<svg xmlns="http://www.w3.org/2000/svg" xmlns:xlink="http://www.w3.org/1999/xlink" width="16" height="16" viewBox="0 0 16 16"><path fill="currentColor" d="M10 5a1 1 0 1 1 0-2a1 1 0 0 1 0 2M1.587 9.136a1.99 1.99 0 0 1 0-2.822l4.74-4.716a2 2 0 0 1 1.41-.584L10.986 1A2 2 0 0 1 13 3.01l-.019 2.58a5.5 5.5 0 0 0-1-.388l.017-2.2a1 1 0 0 0-1.007-1.004l-3.25.013a1 1 0 0 0-.705.292L2.296 7.02a.994.994 0 0 0 0 1.41l2.743 2.73c.071.596.238 1.163.484 1.684a2 2 0 0 1-.64-.428zM15 10.5a4.5 4.5 0 1 1-9 0a4.5 4.5 0 0 1 9 0M7.5 9a1 1 0 1 0 2 0a1 1 0 0 0-2 0m5.348-.853a.5.5 0 0 0-.707 0l-3.996 3.996a.5.5 0 0 0 .707.707l3.996-3.996a.5.5 0 0 0 0-.707M12.5 11a1 1 0 1 0 0 2a1 1 0 0 0 0-2"/></svg>