<svg xmlns="http://www.w3.org/2000/svg" xmlns:xlink="http://www.w3.org/1999/xlink" width="16" height="16" viewBox="0 0 16 16"><path fill="currentColor" d="m10.719 11.426l3.427 3.428a.5.5 0 0 0 .708-.708l-13-13a.5.5 0 1 0-.708.708l3.456 3.455l-2.015 2.005a1.99 1.99 0 0 0 0 2.822l3.296 3.28a2.013 2.013 0 0 0 2.836 0zm-.708-.707L8.01 12.71c-.392.39-1.026.39-1.418 0L3.296 9.43a.994.994 0 0 1 0-1.41L5.31 6.016zm2.669-2.656l-1.25 1.245l.706.707l1.252-1.246a2 2 0 0 0 .588-1.397L14 4.01A2 2 0 0 0 11.987 2l-3.25.014a2 2 0 0 0-1.41.584l-1.307 1.3l.707.708l1.309-1.303c.187-.186.44-.29.704-.292l3.25-.013a1 1 0 0 1 1.008 1.004l-.025 3.363a1 1 0 0 1-.293.698M11 6a1 1 0 1 1 0-2a1 1 0 0 1 0 2"/></svg>