<svg xmlns="http://www.w3.org/2000/svg" xmlns:xlink="http://www.w3.org/1999/xlink" width="20" height="20" viewBox="0 0 20 20"><path fill="currentColor" d="M18.006 4.033a2 2 0 0 0-1.987-1.997l-4.89-.032a2 2 0 0 0-1.426.584L3.02 9.252a2 2 0 0 0-.002 2.83l4.949 4.95a2 2 0 0 0 1.95.512a5.5 5.5 0 0 1 7.796-7.507a2 2 0 0 0 .299-1.054zM13.999 7a1 1 0 1 1 0-2a1 1 0 0 1 0 2M19 14.5a4.5 4.5 0 1 1-9 0a4.5 4.5 0 0 1 9 0M11.5 13a1 1 0 1 0 2 0a1 1 0 0 0-2 0m5.348-.853a.5.5 0 0 0-.707 0l-3.996 3.996a.5.5 0 0 0 .707.707l3.996-3.996a.5.5 0 0 0 0-.707M16.5 15a1 1 0 1 0 0 2a1 1 0 0 0 0-2"/></svg>