<svg xmlns="http://www.w3.org/2000/svg" xmlns:xlink="http://www.w3.org/1999/xlink" width="32" height="32" viewBox="0 0 32 32"><path fill="currentColor" d="M17.934 3a3.25 3.25 0 0 0-2.298.952l-11.68 11.68a3.25 3.25 0 0 0 0 4.596l7.818 7.818c.363.363.79.623 1.246.778a2.5 2.5 0 0 1 .062-.953l.283-1.092a1.3 1.3 0 0 1-.177-.147L5.37 18.814a1.25 1.25 0 0 1 0-1.768l11.68-11.68A1.25 1.25 0 0 1 17.934 5h7.818c.69 0 1.25.56 1.25 1.25v6.765c.7.06 1.39.29 2 .686V6.25A3.25 3.25 0 0 0 25.752 3zm5.068 8a2 2 0 1 0 0-4a2 2 0 0 0 0 4m5.642 8.424l-8.61 8.544a2.8 2.8 0 0 1-1.269.72l-3.02.779a1 1 0 0 1-1.216-1.22l.79-3.051a2.66 2.66 0 0 1 .686-1.206l8.567-8.64a2.88 2.88 0 0 1 4.144.057a2.88 2.88 0 0 1-.072 4.017"/></svg>