<svg xmlns="http://www.w3.org/2000/svg" xmlns:xlink="http://www.w3.org/1999/xlink" width="32" height="32" viewBox="0 0 32 32"><path fill="currentColor" d="M17.934 3a3.25 3.25 0 0 0-2.298.952l-11.68 11.68a3.25 3.25 0 0 0 0 4.596l7.818 7.818a3.25 3.25 0 0 0 3.314.79A4 4 0 0 1 15 28v-1.412l-.044.044a1.25 1.25 0 0 1-1.768 0L5.37 18.814a1.25 1.25 0 0 1 0-1.768l11.68-11.68A1.25 1.25 0 0 1 17.934 5h7.818c.69 0 1.25.56 1.25 1.25v7.818c0 .332-.132.65-.366.884l-.313.312c.505.45.919 1 1.209 1.62l.518-.518a3.25 3.25 0 0 0 .952-2.298V6.25A3.25 3.25 0 0 0 25.752 3zm5.068 8a2 2 0 1 0 0-4a2 2 0 0 0 0 4M19.5 19.5H19a2.5 2.5 0 0 0-2.5 2.5v6a2.5 2.5 0 0 0 2.5 2.5h8a2.5 2.5 0 0 0 2.5-2.5v-6a2.5 2.5 0 0 0-2.5-2.5h-.5V19a3.5 3.5 0 1 0-7 0zm2-.5a1.5 1.5 0 0 1 3 0v.5h-3zm3.5 6a2 2 0 1 1-4 0a2 2 0 0 1 4 0"/></svg>