<svg xmlns="http://www.w3.org/2000/svg" xmlns:xlink="http://www.w3.org/1999/xlink" width="16" height="16" viewBox="0 0 16 16"><path fill="currentColor" d="M2.587 7.314a1.99 1.99 0 0 0 0 2.822l2.683 2.67l.163-.65c.14-.563.43-1.076.84-1.486L10.946 6a1 1 0 1 1 1.025-.754a2.88 2.88 0 0 1 2.022-.114L14 4.009A2 2 0 0 0 11.987 2l-3.25.014a2 2 0 0 0-1.41.584zm4.393 4.063l4.83-4.83a1.87 1.87 0 1 1 2.644 2.646l-4.83 4.829a2.2 2.2 0 0 1-1.02.578l-1.498.374a.89.89 0 0 1-1.079-1.078l.375-1.498a2.2 2.2 0 0 1 .578-1.02"/></svg>