<svg xmlns="http://www.w3.org/2000/svg" xmlns:xlink="http://www.w3.org/1999/xlink" width="24" height="24" viewBox="0 0 24 24"><path fill="currentColor" d="M19.75 2A2.25 2.25 0 0 1 22 4.25v5.462a3.25 3.25 0 0 1-.952 2.298l-.026.026a6.5 6.5 0 0 0-9.028 8.92a3.256 3.256 0 0 1-4.043-.442L3.489 16.06a3.25 3.25 0 0 1-.004-4.596l8.5-8.51a3.25 3.25 0 0 1 2.3-.953zM17 5.502a1.5 1.5 0 1 0 0 3a1.5 1.5 0 0 0 0-3M23 17.5a5.5 5.5 0 1 1-11 0a5.5 5.5 0 0 1 11 0M17.5 14a.5.5 0 0 0-.5.5v4a.5.5 0 0 0 1 0v-4a.5.5 0 0 0-.5-.5m0 7.125a.625.625 0 1 0 0-1.25a.625.625 0 0 0 0 1.25"/></svg>