<svg xmlns="http://www.w3.org/2000/svg" xmlns:xlink="http://www.w3.org/1999/xlink" width="20" height="20" viewBox="0 0 20 20"><path fill="currentColor" d="M18.006 4.033a2 2 0 0 0-1.987-1.997l-4.89-.032a2 2 0 0 0-1.426.584L3.02 9.252a2 2 0 0 0-.002 2.83l4.949 4.95l.033.031q.006-.201.057-.41l.375-1.498a3.2 3.2 0 0 1 .84-1.485l4.83-4.83a2.87 2.87 0 0 1 3.91-.139zM13.999 7a1 1 0 1 1 0-2a1 1 0 0 1 0 2m-4.02 7.377l4.83-4.83a1.87 1.87 0 1 1 2.645 2.646l-4.83 4.829a2.2 2.2 0 0 1-1.02.578l-1.498.374a.89.89 0 0 1-1.079-1.078l.375-1.498a2.2 2.2 0 0 1 .578-1.02"/></svg>