<svg xmlns="http://www.w3.org/2000/svg" xmlns:xlink="http://www.w3.org/1999/xlink" width="20" height="20" viewBox="0 0 20 20"><path fill="currentColor" d="M18.007 4.033a2 2 0 0 0-1.987-1.997l-4.89-.032a2 2 0 0 0-1.426.584L3.022 9.252a2 2 0 0 0-.002 2.83l4.949 4.95a2 2 0 0 0 1.95.512a5.5 5.5 0 0 1 7.797-7.507a2 2 0 0 0 .298-1.054zM14 7a1 1 0 1 1 0-2a1 1 0 0 1 0 2m5 7.5a4.5 4.5 0 1 1-9 0a4.5 4.5 0 0 1 9 0M14.5 12a.5.5 0 0 0-.5.5v2a.5.5 0 1 0 1 0v-2a.5.5 0 0 0-.5-.5m0 5.125a.625.625 0 1 0 0-1.25a.625.625 0 0 0 0 1.25"/></svg>