<svg xmlns="http://www.w3.org/2000/svg" xmlns:xlink="http://www.w3.org/1999/xlink" width="32" height="32" viewBox="0 0 32 32"><path fill="currentColor" d="M16 18a2 2 0 1 0 0-4a2 2 0 0 0 0 4m-7-2a7 7 0 1 1 14 0a7 7 0 0 1-14 0m7-5a5 5 0 1 0 0 10a5 5 0 0 0 0-10M4 16.001C4 9.373 9.373 4 16.001 4s12.002 5.373 12.002 12.001S22.63 28.003 16 28.003C9.373 28.003 4 22.63 4 16M16.001 6C10.478 6 6 10.478 6 16.001c0 5.524 4.478 10.002 10.001 10.002c5.524 0 10.002-4.478 10.002-10.002C26.003 10.478 21.525 6 16 6"/></svg>