<svg xmlns="http://www.w3.org/2000/svg" xmlns:xlink="http://www.w3.org/1999/xlink" width="16" height="16" viewBox="0 0 16 16"><path fill="currentColor" d="M8.999 7.999a1 1 0 1 1-2 0a1 1 0 0 1 2 0m-1-3.5a3.5 3.5 0 0 0-.953 6.868q.138-.174.296-.333l.538-.538a2.5 2.5 0 1 1 2.616-2.616l.863-.863A3.5 3.5 0 0 0 7.999 4.5m4.638 1.627A5.001 5.001 0 0 0 3 7.999a5 5 0 0 0 3.365 4.727l-.017.063l-.227.91a6 6 0 1 1 7.54-7.692a2.6 2.6 0 0 0-1.025.119m-4.332 5.359l3.18-3.18l.851-.851a1.56 1.56 0 0 1 2.207 0c.61.61.61 1.597 0 2.207l-4.288 4.287a2.8 2.8 0 0 1-1.29.73l-1.21.303a.61.61 0 0 1-.74-.739l.078-.311l.225-.9l.02-.075a2.8 2.8 0 0 1 .71-1.214z"/></svg>