<svg xmlns="http://www.w3.org/2000/svg" xmlns:xlink="http://www.w3.org/1999/xlink" width="24" height="24" viewBox="0 0 24 24"><path fill="currentColor" d="M6.25 3A3.25 3.25 0 0 0 3 6.25v11.5A3.25 3.25 0 0 0 6.25 21h5.772a6.5 6.5 0 0 1-.709-1.5H6.25a1.75 1.75 0 0 1-1.75-1.75V6.25c0-.966.784-1.75 1.75-1.75h11.5c.966 0 1.75.784 1.75 1.75v5.063a6.5 6.5 0 0 1 1.5.709V6.25A3.25 3.25 0 0 0 17.75 3zm6.25 6.25a.75.75 0 0 1 .75-.75h3.5a.75.75 0 0 1 0 1.5h-3.5a.75.75 0 0 1-.75-.75m-1.72-.47a.75.75 0 1 0-1.06-1.06L8.25 9.19l-.47-.47a.75.75 0 0 0-1.06 1.06l1 1a.75.75 0 0 0 1.06 0zm0 4.44a.75.75 0 0 1 0 1.06l-2 2a.75.75 0 0 1-1.06 0l-1-1a.75.75 0 1 1 1.06-1.06l.47.47l1.47-1.47a.75.75 0 0 1 1.06 0M23 17.5a5.5 5.5 0 1 0-11 0a5.5 5.5 0 0 0 11 0m-5 .5l.001 2.503a.5.5 0 1 1-1 0V18h-2.505a.5.5 0 0 1 0-1H17v-2.5a.5.5 0 1 1 1 0V17h2.497a.5.5 0 0 1 0 1z"/></svg>