<svg xmlns="http://www.w3.org/2000/svg" xmlns:xlink="http://www.w3.org/1999/xlink" width="20" height="20" viewBox="0 0 20 20"><path fill="currentColor" d="M9.354 6.396a.5.5 0 0 1 0 .708l-1.75 1.75a.5.5 0 0 1-.691.015l-.75-.685a.5.5 0 1 1 .674-.738l.397.362l1.412-1.412a.5.5 0 0 1 .708 0m0 5.708a.5.5 0 0 0-.708-.708l-1.412 1.412l-.397-.362a.5.5 0 0 0-.674.738l.75.685a.5.5 0 0 0 .69-.015zM11 7a.5.5 0 0 0 0 1h2.5a.5.5 0 0 0 0-1zM3 6a3 3 0 0 1 3-3h8a3 3 0 0 1 3 3v3.601a5.5 5.5 0 0 0-1-.393V6a2 2 0 0 0-2-2H6a2 2 0 0 0-2 2v8a2 2 0 0 0 2 2h3.208q.148.52.393 1H6a3 3 0 0 1-3-3zm7.634 7.92a2 2 0 0 0 1.43-2.478l-.156-.557q.383-.296.822-.5l.337.358a2 2 0 0 0 2.91 0l.322-.343q.448.21.835.518l-.126.422a2 2 0 0 0 1.456 2.519l.35.082a4.6 4.6 0 0 1 .01 1.017l-.46.118a2 2 0 0 0-1.432 2.478l.156.556q-.383.296-.822.5l-.337-.358a2 2 0 0 0-2.909 0l-.32.348a4.4 4.4 0 0 1-.836-.518l.126-.423a2 2 0 0 0-1.456-2.52l-.349-.082a4.6 4.6 0 0 1-.01-1.016zm4.865.58a1 1 0 1 0-2 0a1 1 0 0 0 2 0"/></svg>