<svg xmlns="http://www.w3.org/2000/svg" xmlns:xlink="http://www.w3.org/1999/xlink" width="24" height="24" viewBox="0 0 24 24"><path fill="currentColor" d="M12.048 3A1.565 1.565 0 0 0 11 4.469c.002.635.416 1.277 1 1.53l1.4.46c.517.175 1.014.566 1.19 1.09l.268.951H13.25a.75.75 0 0 0 0 1.5h2.832q.183.047.378.049c.147.002.293-.022.433-.064a.7.7 0 0 0 .24-.094l.007-.002c-.12.2-.181.428-.18.66c-.004.54.362 1.048.87 1.23c.376.12 1.007.181 1.15.62c.24.76.501 1.65 1.48 1.65c.212 0 .389-.044.54-.116v3.817A3.25 3.25 0 0 1 17.75 21H6.25A3.25 3.25 0 0 1 3 17.75V6.25A3.25 3.25 0 0 1 6.25 3zM10.78 13.22a.75.75 0 0 0-1.06 0l-1.47 1.47l-.47-.47a.75.75 0 1 0-1.06 1.06l1 1a.75.75 0 0 0 1.06 0l2-2a.75.75 0 0 0 0-1.06m2.47.78a.75.75 0 0 0 0 1.5h3.5a.75.75 0 0 0 0-1.5zm7.234-6a.3.3 0 0 1 .285.201l.25.766a1.58 1.58 0 0 0 .999.998l.765.248l.015.004a.304.304 0 0 1 .146.46a.3.3 0 0 1-.146.11l-.765.248a1.58 1.58 0 0 0-.999.998l-.249.766a.303.303 0 0 1-.57 0l-.25-.766a1.58 1.58 0 0 0-.998-1.002l-.765-.248a.304.304 0 0 1-.146-.46a.3.3 0 0 1 .146-.11l.765-.248a1.58 1.58 0 0 0 .984-.998L20.2 8.2a.3.3 0 0 1 .284-.2m-9.704-.28a.75.75 0 0 0-1.06 0L8.25 9.19l-.47-.47a.75.75 0 1 0-1.06 1.06l1 1a.75.75 0 0 0 1.06 0l2-2a.75.75 0 0 0 0-1.06M16.473 0a.545.545 0 0 1 .512.363l.449 1.376a2.84 2.84 0 0 0 1.797 1.797l1.378.447l.028.007a.55.55 0 0 1 .363.514a.54.54 0 0 1-.363.513l-1.378.447A2.84 2.84 0 0 0 17.46 7.26l-.447 1.376L17 8.67a.545.545 0 0 1-1.014-.034L15.54 7.26a2.84 2.84 0 0 0-1.798-1.804l-1.378-.447A.55.55 0 0 1 12 4.496a.54.54 0 0 1 .363-.513l1.378-.447A2.84 2.84 0 0 0 15.5 1.773l.012-.034l.447-1.376A.55.55 0 0 1 16.473 0"/></svg>