<svg xmlns="http://www.w3.org/2000/svg" xmlns:xlink="http://www.w3.org/1999/xlink" width="24" height="24" viewBox="0 0 24 24"><path fill="currentColor" d="M12.5 9.25a.75.75 0 0 1 .75-.75h3.5a.75.75 0 0 1 0 1.5h-3.5a.75.75 0 0 1-.75-.75m-1.72-.47a.75.75 0 1 0-1.06-1.06L8.25 9.19l-.47-.47a.75.75 0 0 0-1.06 1.06l1 1a.75.75 0 0 0 1.06 0zm0 4.44a.75.75 0 0 1 0 1.06l-2 2a.75.75 0 0 1-1.06 0l-1-1a.75.75 0 1 1 1.06-1.06l.47.47l1.47-1.47a.75.75 0 0 1 1.06 0M6.25 3A3.25 3.25 0 0 0 3 6.25v11.5A3.25 3.25 0 0 0 6.25 21h5.805a2.3 2.3 0 0 1-.055-.5v-1H6.25a1.75 1.75 0 0 1-1.75-1.75V6.25c0-.966.784-1.75 1.75-1.75h11.5c.966 0 1.75.784 1.75 1.75v4.853q.078.011.155.024c.472.074.924.18 1.345.314V6.25A3.25 3.25 0 0 0 17.75 3zM21 12.5a7.7 7.7 0 0 0-1.5-.386A10 10 0 0 0 18 12c-2.761 0-5 1.12-5 2.5s2.239 2.5 5 2.5c.523 0 1.026-.04 1.5-.114A7.7 7.7 0 0 0 21 16.5c1.214-.456 2-1.182 2-2s-.786-1.544-2-2m0 5.058c-.466.15-.97.264-1.5.338A11 11 0 0 1 18 18c-1.502 0-2.912-.302-3.983-.838a5 5 0 0 1-1.017-.67V20.5c0 .356.148.694.416 1c.772.883 2.534 1.5 4.584 1.5c2.761 0 5-1.12 5-2.5v-4.008a5 5 0 0 1-1.017.67a7 7 0 0 1-.983.396"/></svg>