<svg xmlns="http://www.w3.org/2000/svg" xmlns:xlink="http://www.w3.org/1999/xlink" width="20" height="20" viewBox="0 0 20 20"><path fill="currentColor" d="M9.089 3A1.4 1.4 0 0 0 9 3.496c0 .3.09.581.26.821s.41.431.71.532l1.062.35c.15.05.29.13.47.29c.11.11.2.24.291.471L12.137 7H11a.5.5 0 0 0 0 1h2.105a1.3 1.3 0 0 0 .14 1.256c.16.22.38.38.65.48l.76.25c.08.03.16.08.22.141c.07.06.11.14.14.22l.26.801c.1.25.26.461.48.622c.22.149.478.228.747.229c.173 0 .341-.022.498-.08V14a3 3 0 0 1-3 3H6a3 3 0 0 1-3-3V6a3 3 0 0 1 3-3zm.265 8.397a.5.5 0 0 0-.708 0l-1.412 1.412l-.397-.364a.5.5 0 0 0-.674.74l.75.684a.5.5 0 0 0 .69-.015l1.75-1.75a.5.5 0 0 0 0-.707M11 12a.5.5 0 0 0 0 1h2.5a.5.5 0 0 0 0-1zm5.497 0h.01l-.005-.001zm-.013-6a.3.3 0 0 1 .285.201l.25.766a1.58 1.58 0 0 0 .999.998l.765.248l.015.004a.303.303 0 0 1 .146.46a.3.3 0 0 1-.146.11l-.765.248a1.58 1.58 0 0 0-.999.998l-.249.766a.302.302 0 0 1-.57 0l-.25-.766a1.58 1.58 0 0 0-.998-1.002l-.765-.248a.303.303 0 0 1-.146-.46a.3.3 0 0 1 .146-.11l.765-.248a1.58 1.58 0 0 0 .984-.998L16.2 6.2a.3.3 0 0 1 .284-.2m-7.13.396a.5.5 0 0 0-.708 0L7.234 7.81l-.397-.364a.5.5 0 0 0-.674.74l.75.684a.5.5 0 0 0 .69-.015l1.75-1.75a.5.5 0 0 0 0-.708M13.479 0a.42.42 0 0 1 .399.282l.348 1.072a2.2 2.2 0 0 0 1.398 1.396l1.072.349l.022.005a.424.424 0 0 1 0 .797l-1.072.349a2.21 2.21 0 0 0-1.399 1.396L13.9 6.718a.423.423 0 0 1-.643.204l-.02-.015a.43.43 0 0 1-.135-.19l-.348-1.07a2.22 2.22 0 0 0-1.399-1.403l-1.072-.348a.424.424 0 0 1 0-.797l1.072-.349a2.21 2.21 0 0 0 1.377-1.396L13.08.282a.42.42 0 0 1 .4-.282"/></svg>