<svg xmlns="http://www.w3.org/2000/svg" xmlns:xlink="http://www.w3.org/1999/xlink" width="32" height="32" viewBox="0 0 32 32"><path fill="currentColor" d="M7.25 2A3.25 3.25 0 0 0 4 5.25V7H3a1 1 0 0 0 0 2h1v4H3a1 1 0 1 0 0 2h1v4H3a1 1 0 1 0 0 2h1v1.75A3.25 3.25 0 0 0 7.25 26h4.72a16 16 0 0 1-.813-2H7.25C6.56 24 6 23.44 6 22.75V21h1a1 1 0 1 0 0-2H6v-4h1a1 1 0 1 0 0-2H6V9h1a1 1 0 0 0 0-2H6V5.25C6 4.56 6.56 4 7.25 4h11.5c.69 0 1.25.56 1.25 1.25v2.405q.524.33.985.741q.47-.461 1.015-.847V5.25A3.25 3.25 0 0 0 18.75 2zm8.526 12.26C13.817 14.918 12 16.817 12 20c0 4.162 2.502 7.547 3.702 8.943c.621.722 1.513 1.057 2.384 1.057h.044a3.33 3.33 0 0 0 2.723-1.412c.009-.012.05-.053.147-.053s.138.04.147.053A3.33 3.33 0 0 0 23.87 30h.044c.871 0 1.763-.335 2.384-1.057C27.498 27.547 30 24.162 30 20c0-4.03-2.91-6-5.333-6c-1.137 0-2.05.212-2.667.416v-.108a4.78 4.78 0 0 1 2.894-4.389a1 1 0 0 0-.788-1.838a6.77 6.77 0 0 0-3.08 2.642A6 6 0 0 0 16 8h-.75C14.56 8 14 8.56 14 9.25V10a5.98 5.98 0 0 0 1.776 4.26M14 20c0-2.865 1.954-4 3.333-4a6.4 6.4 0 0 1 2.243.387c.378.144.846.28 1.363.28h.122c.517 0 .985-.136 1.363-.28A6.4 6.4 0 0 1 24.667 16C26.047 16 28 17.135 28 20c0 3.415-2.094 6.331-3.219 7.639c-.19.22-.495.361-.867.361h-.044a1.33 1.33 0 0 1-1.088-.564c-.847-1.202-2.717-1.202-3.564 0c-.25.354-.655.564-1.088.564h-.044c-.372 0-.678-.14-.867-.361C16.094 26.33 14 23.415 14 20m2-10a4 4 0 0 1 4 4a4 4 0 0 1-4-4m.736 7.644a1 1 0 0 1 1.028 1.715a.78.78 0 0 0-.37.767l.097.743a1 1 0 1 1-1.982.262l-.098-.744a2.78 2.78 0 0 1 1.325-2.743"/></svg>