<svg xmlns="http://www.w3.org/2000/svg" xmlns:xlink="http://www.w3.org/1999/xlink" width="48" height="48" viewBox="0 0 48 48"><path fill="currentColor" d="M6 8.25A4.25 4.25 0 0 1 10.25 4h18.5A4.25 4.25 0 0 1 33 8.25v5.563q-.654.444-1.224.974a10 10 0 0 0-1.276-1.024V8.25a1.75 1.75 0 0 0-1.75-1.75h-18.5A1.75 1.75 0 0 0 8.5 8.25V11h1.25a1.25 1.25 0 1 1 0 2.5H8.5v7.25h1.25a1.25 1.25 0 1 1 0 2.5H8.5v7.25h1.25a1.25 1.25 0 1 1 0 2.5H8.5v2.75c0 .967.784 1.75 1.75 1.75h7.123c.35.892.746 1.728 1.16 2.5H10.25A4.25 4.25 0 0 1 6 35.75V33H4.75a1.25 1.25 0 1 1 0-2.5H6v-7.25H4.75a1.25 1.25 0 1 1 0-2.5H6V13.5H4.75a1.25 1.25 0 1 1 0-2.5H6zm16 8.5c0 2.081.77 3.982 2.042 5.433C21.022 22.89 18 25.65 18 30.571c0 5.887 3.469 10.713 5.252 12.818C24.185 44.49 25.54 45 26.87 45c1.397 0 2.736-.56 3.717-1.554l.714-.723a.75.75 0 0 1 .448-.218a.75.75 0 0 1 .448.218l.714.723A5.22 5.22 0 0 0 36.629 45c1.331 0 2.687-.51 3.62-1.611c1.782-2.105 5.251-6.93 5.251-12.818c0-5.775-4.158-8.571-7.595-8.571c-1.873 0-3.729.588-4.905 1.051V22.3a5.75 5.75 0 0 1 2.616-4.821l1.815-1.18a1.25 1.25 0 1 0-1.362-2.096l-1.815 1.18a8.2 8.2 0 0 0-2.488 2.525A8.24 8.24 0 0 0 24.75 14H23.5a1.5 1.5 0 0 0-1.5 1.5zm8.5 5.5v.25h-.25a5.75 5.75 0 0 1-5.75-5.75v-.25h.25a5.75 5.75 0 0 1 5.75 5.75m-3.65 5.406a1.25 1.25 0 0 1-.506 1.694a2 2 0 0 0-1.028 2.048l.17 1.171a1.25 1.25 0 0 1-2.473.362l-.171-1.171a4.5 4.5 0 0 1 2.314-4.61a1.25 1.25 0 0 1 1.694.506"/></svg>