<svg xmlns="http://www.w3.org/2000/svg" xmlns:xlink="http://www.w3.org/1999/xlink" width="20" height="20" viewBox="0 0 20 20"><path fill="currentColor" d="M5 2a2 2 0 0 0-2 2v1h-.5a.5.5 0 0 0 0 1H3v3h-.5a.5.5 0 0 0 0 1H3v3h-.5a.5.5 0 0 0 0 1H3v1a2 2 0 0 0 2 2h3.044a10 10 0 0 1-.464-1H5a1 1 0 0 1-1-1v-1h.5a.5.5 0 0 0 0-1H4v-3h.5a.5.5 0 0 0 0-1H4V6h.5a.5.5 0 0 0 0-1H4V4a1 1 0 0 1 1-1h7a1 1 0 0 1 1 1v1.733q.264.174.5.383q.234-.234.5-.439V4a2 2 0 0 0-2-2zm10.947 4.276a.5.5 0 0 0-.67-.223a4.1 4.1 0 0 0-1.745 1.659A3.45 3.45 0 0 0 10.552 6h-.346a.706.706 0 0 0-.706.706v.347c0 .992.42 1.887 1.09 2.516C9.323 9.854 8 11.022 8 13.079c0 2.45 1.453 4.433 2.19 5.286c.375.435.914.635 1.444.635h.041c.57 0 1.114-.242 1.496-.665l.09-.1a1 1 0 0 1 .1-.092c.079-.06.2-.06.278 0a1 1 0 0 1 .1.092l.09.1c.382.423.925.665 1.496.665h.04c.53 0 1.07-.2 1.446-.635c.736-.853 2.189-2.836 2.189-5.286C19 10.69 17.217 9.5 15.806 9.5a4 4 0 0 0-1.553.299q-.134.056-.253.098v-.16c0-1.182.667-2.262 1.724-2.79a.5.5 0 0 0 .223-.67m-5.447.777V7h.053A2.447 2.447 0 0 1 13 9.447c0 .03-.024.053-.053.053A2.447 2.447 0 0 1 10.5 7.053m1.197 4.723a.5.5 0 0 1-.223.671c-.399.2-.62.635-.547 1.074l.066.397a.5.5 0 1 1-.986.164l-.066-.397a2.01 2.01 0 0 1 1.085-2.132a.5.5 0 0 1 .671.223"/></svg>