<svg xmlns="http://www.w3.org/2000/svg" xmlns:xlink="http://www.w3.org/1999/xlink" width="28" height="28" viewBox="0 0 28 28"><path fill="currentColor" d="M4 9a2 2 0 1 1 4 0a2 2 0 0 1-4 0m2-4a4 4 0 1 0 0 8a4 4 0 0 0 0-8m8.653 3.65C13.678 9.753 13 11.495 13 14s.678 4.248 1.653 5.35C15.619 20.441 16.96 21 18.5 21s2.88-.558 3.847-1.65q.3-.34.56-.76c.212-.349.577-.59.986-.59c.727 0 1.235.721.882 1.356q-.405.726-.93 1.319C22.46 22.24 20.55 23 18.5 23s-3.96-.759-5.345-2.325C11.777 19.117 11 16.859 11 14s.777-5.117 2.155-6.675C14.54 5.76 16.45 5 18.5 5s3.96.759 5.345 2.325a7.9 7.9 0 0 1 1.446 2.43c.237.621-.257 1.245-.922 1.245c-.455 0-.848-.302-1.023-.722a5.8 5.8 0 0 0-.999-1.627C21.381 7.558 20.04 7 18.5 7s-2.88.558-3.847 1.65"/></svg>