<svg xmlns="http://www.w3.org/2000/svg" xmlns:xlink="http://www.w3.org/1999/xlink" width="20" height="20" viewBox="0 0 20 20"><path fill="currentColor" d="M7.25 2C6.56 2 6 2.56 6 3.25v2.5a.25.25 0 0 1-.25.25h-2.5C2.56 6 2 6.56 2 7.25v2.5c0 .69.56 1.25 1.25 1.25h6.5c.69 0 1.25-.56 1.25-1.25v-2.5a.25.25 0 0 1 .25-.25h2.5C14.44 7 15 6.44 15 5.75v-2.5C15 2.56 14.44 2 13.75 2zm6.5 4H11V3h2.75a.25.25 0 0 1 .25.25v2.5a.25.25 0 0 1-.25.25m-3.725 1q-.024.12-.025.25v2.5a.25.25 0 0 1-.25.25H7V7zM6 7v3H3.25A.25.25 0 0 1 3 9.75v-2.5A.25.25 0 0 1 3.25 7zm.975-1q.024-.12.025-.25v-2.5A.25.25 0 0 1 7.25 3H10v3zm7.275 3c-.69 0-1.25.56-1.25 1.25v2.5a.25.25 0 0 1-.25.25h-6.5C5.56 13 5 13.56 5 14.25v2.5c0 .69.56 1.25 1.25 1.25h10.5c.69 0 1.25-.56 1.25-1.25v-6.5C18 9.56 17.44 9 16.75 9zm-.275 4q.024-.12.025-.25v-2.5a.25.25 0 0 1 .25-.25h2.5a.25.25 0 0 1 .25.25V13zM14 14h3v2.75a.25.25 0 0 1-.25.25H14zm-1 0v3h-3v-3zm-4 0v3H6.25a.25.25 0 0 1-.25-.25v-2.5a.25.25 0 0 1 .25-.25z"/></svg>