<svg xmlns="http://www.w3.org/2000/svg" xmlns:xlink="http://www.w3.org/1999/xlink" width="32" height="32" viewBox="0 0 32 32"><path fill="currentColor" d="M11.5 2A2.5 2.5 0 0 0 9 4.5v4.015A.5.5 0 0 1 8.5 9h-4A2.5 2.5 0 0 0 2 11.5v4A2.5 2.5 0 0 0 4.5 18h11a2.5 2.5 0 0 0 2.5-2.5v-4a.5.5 0 0 1 .5-.5h4A2.5 2.5 0 0 0 25 8.5v-4A2.5 2.5 0 0 0 22.5 2zm11 7H18V4h4.5a.5.5 0 0 1 .5.5v4a.5.5 0 0 1-.5.5M16 9h-5V4.5a.5.5 0 0 1 .5-.5H16zm-7 2v5H4.5a.5.5 0 0 1-.5-.5v-4a.5.5 0 0 1 .5-.5zm2 0h5.05q-.05.243-.05.5v4a.5.5 0 0 1-.5.5H11zm12.5 3a2.5 2.5 0 0 0-2.5 2.5v4a.5.5 0 0 1-.496.5H9.5A2.5 2.5 0 0 0 7 23.5v4A2.5 2.5 0 0 0 9.5 30h18a2.5 2.5 0 0 0 2.5-2.5v-11a2.5 2.5 0 0 0-2.5-2.5zM21 23v5h-5v-5zm7 0v4.5a.5.5 0 0 1-.5.5H23v-5zm-5-2v-4.5a.5.5 0 0 1 .5-.5h4a.5.5 0 0 1 .5.5V21zm-9 2v5H9.5a.5.5 0 0 1-.5-.5v-4a.5.5 0 0 1 .5-.5z"/></svg>