<svg xmlns="http://www.w3.org/2000/svg" xmlns:xlink="http://www.w3.org/1999/xlink" width="16" height="16" viewBox="0 0 16 16"><path fill="currentColor" d="M2.5 3a.5.5 0 0 0 0 1h11a.5.5 0 0 0 0-1zm1.94 9.435L4.876 12H2.5a.5.5 0 0 0 0 1h1.584c.072-.206.191-.4.356-.565m2.533-2.53A1.5 1.5 0 0 1 6.086 9H2.5a.5.5 0 0 0 0 1h4.378zM7.408 7l.272-.034A.5.5 0 0 0 7.5 6h-5a.5.5 0 0 0 0 1zM10.5 5a.5.5 0 0 1 .496.439l.09.734a2 2 0 0 0 1.741 1.74l.734.09a.5.5 0 0 1 0 .993l-.734.09a2 2 0 0 0-1.74 1.741l-.09.734a.5.5 0 0 1-.993 0l-.09-.734a2 2 0 0 0-1.741-1.74l-.734-.09a.5.5 0 0 1 0-.993l.734-.09a2 2 0 0 0 1.74-1.741l.09-.734A.5.5 0 0 1 10.5 5m0 2.474c-.253.42-.606.773-1.026 1.026c.42.253.773.606 1.026 1.026c.253-.42.606-.773 1.026-1.026A3 3 0 0 1 10.5 7.474m-1.646 2.673a.5.5 0 0 1 0 .707l-3 2.996a.5.5 0 1 1-.707-.707l3-2.997a.5.5 0 0 1 .707 0"/></svg>