<svg xmlns="http://www.w3.org/2000/svg" xmlns:xlink="http://www.w3.org/1999/xlink" width="24" height="24" viewBox="0 0 24 24"><path fill="currentColor" d="M8.443 3.416a1 1 0 0 0-1.875-.027l-6 15.5a1 1 0 0 0 1.865.722L3.83 16h6.955l1.272 3.584a1 1 0 0 0 1.885-.668zM4.605 14L7.46 6.625L10.076 14zM16 3a1 1 0 0 1 1 1v7.619A3.6 3.6 0 0 1 19 11c2.21 0 4 2.07 4 4.625c0 2.554-1.79 4.625-4 4.625a3.6 3.6 0 0 1-2.06-.66a1 1 0 0 1-1.94-.34V4a1 1 0 0 1 1-1m3 15.25c.842 0 2-.893 2-2.625S19.842 13 19 13s-2 .893-2 2.625s1.158 2.625 2 2.625"/></svg>