<svg xmlns="http://www.w3.org/2000/svg" xmlns:xlink="http://www.w3.org/1999/xlink" width="24" height="24" viewBox="0 0 24 24"><path fill="currentColor" d="M6.75 4.5h14.5a.75.75 0 0 0 .102-1.493L21.25 3H6.75a.75.75 0 0 0-.102 1.493zm0 15h14.5a.75.75 0 0 0 .102-1.493L21.25 18H6.75a.75.75 0 0 0-.102 1.493zm7-11.5a.75.75 0 0 0 0 1.5h7.5a.75.75 0 0 0 0-1.5zM13 13.75a.75.75 0 0 1 .75-.75h7.5a.75.75 0 0 1 0 1.5h-7.5a.75.75 0 0 1-.75-.75m-2-2.25a4.5 4.5 0 1 1-9 0a4.5 4.5 0 0 1 9 0m-2 0a.5.5 0 0 0-.5-.5h-4a.5.5 0 0 0 0 1h4a.5.5 0 0 0 .5-.5"/></svg>