<svg xmlns="http://www.w3.org/2000/svg" xmlns:xlink="http://www.w3.org/1999/xlink" width="24" height="24" viewBox="0 0 24 24"><path fill="currentColor" d="M2.761 14.001a.84.84 0 0 1-.55-.18a.6.6 0 0 1-.211-.464q0-.164.093-.408L6.02 2.71Q6.29 2 7.018 2q.685 0 .956.702l3.934 10.246q.093.245.093.408q0 .277-.22.465a.8.8 0 0 1-.541.179q-.542 0-.745-.563l-1.083-2.92h-4.83l-1.075 2.92Q3.304 14 2.762 14m2.26-4.731H8.98L7.025 3.902h-.05zm7.77 5.46l5.48 5.48l4.157-4.156a1.95 1.95 0 0 0 .002-2.758l-2.724-2.724a1.947 1.947 0 0 0-2.759.001zm1.957-3.372L13 13.106V2.756a.77.77 0 0 1 .195-.544a.68.68 0 0 1 .51-.211q.309 0 .504.21q.203.212.203.545v4.073h.032q.405-.731 1.112-1.144a3.13 3.13 0 0 1 1.598-.414q1.599 0 2.58 1.192q.982 1.194.982 3.173q0 .264-.017.514l-.286-.286a2.9 2.9 0 0 0-1.161-.715q-.095-1.098-.63-1.793q-.648-.844-1.768-.844q-1.08 0-1.769.868q-.681.861-.681 2.256q0 .999.345 1.722m2.463 9.914L11.73 15.79l-1.157 1.157a1.95 1.95 0 0 0-.002 2.759l2.724 2.723a1.94 1.94 0 0 0 1.208.564L14.5 23H20a.75.75 0 1 0 0-1.5h-3.02z"/></svg>