<svg xmlns="http://www.w3.org/2000/svg" xmlns:xlink="http://www.w3.org/1999/xlink" width="20" height="20" viewBox="0 0 20 20"><path fill="currentColor" d="M2.5 5a.5.5 0 0 0 0 1h15a.5.5 0 0 0 0-1zm0 3a.5.5 0 0 0 0 1h15a.5.5 0 0 0 0-1zM9 14.5q0-.252.022-.5H2.5a.5.5 0 0 0 0 1h6.522A6 6 0 0 1 9 14.5m.6-2.5q.276-.538.657-1H2.5a.5.5 0 0 0 0 1zm9.4 2.5a4.5 4.5 0 1 1-9 0a4.5 4.5 0 0 1 9 0M14.5 12a.5.5 0 0 0-.5.5v2a.5.5 0 0 0 1 0v-2a.5.5 0 0 0-.5-.5m0 5.125a.625.625 0 1 0 0-1.25a.625.625 0 0 0 0 1.25"/></svg>