<svg xmlns="http://www.w3.org/2000/svg" xmlns:xlink="http://www.w3.org/1999/xlink" width="32" height="32" viewBox="0 0 32 32"><path fill="currentColor" d="M2 7.25C2 6.56 2.56 6 3.25 6h25.5a1.25 1.25 0 1 1 0 2.5H3.25C2.56 8.5 2 7.94 2 7.25m0 6c0-.69.56-1.25 1.25-1.25h25.5a1.25 1.25 0 0 1 1.213 1.554a2 2 0 0 0-.469-.054h-8.377c-.796 0-1.533.377-2 1H3.25c-.69 0-1.25-.56-1.25-1.25M17.335 18H3.25a1.25 1.25 0 1 0 0 2.5h12.845zm-2.825 6c-.142 1.273.845 2.493 2.238 2.493L3.25 26.5a1.25 1.25 0 1 1 0-2.5zm6.61-9h8.382a.5.5 0 0 1 .427.76L26.75 21h2.491a.75.75 0 0 1 .52 1.29l-8.747 8.427c-.757.73-1.984-.055-1.638-1.05L21 25h-4.251a.75.75 0 0 1-.672-1.083l4.147-8.361A1 1 0 0 1 21.12 15"/></svg>