<svg xmlns="http://www.w3.org/2000/svg" xmlns:xlink="http://www.w3.org/1999/xlink" width="16" height="16" viewBox="0 0 16 16"><path fill="currentColor" d="M5.5 5a.5.5 0 0 0 0 1h5a.5.5 0 0 0 0-1zm0 2.5a.5.5 0 0 0 0 1h1.39q.359-.55.835-1zm0 2.5h.707a5.5 5.5 0 0 0-.185 1H5.5a.5.5 0 0 1 0-1m-1 3h1.707q.149.524.393 1H4.5A2.5 2.5 0 0 1 2 11.5v-7A2.5 2.5 0 0 1 4.5 2h7A2.5 2.5 0 0 1 14 4.5v2.1a5.5 5.5 0 0 0-1-.393V4.5A1.5 1.5 0 0 0 11.5 3h-7A1.5 1.5 0 0 0 3 4.5v7A1.5 1.5 0 0 0 4.5 13M16 11.5a4.5 4.5 0 1 1-9 0a4.5 4.5 0 0 1 9 0m-2.854-1.854L10.5 12.293l-.646-.647a.5.5 0 0 0-.708.708l1 1a.5.5 0 0 0 .708 0l3-3a.5.5 0 0 0-.708-.708"/></svg>