<svg xmlns="http://www.w3.org/2000/svg" xmlns:xlink="http://www.w3.org/1999/xlink" width="24" height="24" viewBox="0 0 24 24"><path fill="currentColor" d="M12.41 4.406c.24-.529.855-.77 1.288-.598c.571.228.805.964.499 1.452c-.164.262-.422.535-.774.846c-.219.193-.421.357-.638.533c-.16.13-.33.267-.518.427C11.535 7.684 10.5 8.628 10.5 10a1 1 0 0 0 1 1h4.25a1 1 0 1 0 0-2h-2.644q.189-.184.451-.406c.122-.103.27-.224.426-.351c.255-.207.532-.434.764-.638c.402-.355.828-.778 1.145-1.283c.994-1.587.232-3.7-1.452-4.372c-1.576-.628-3.24.282-3.85 1.63a1 1 0 1 0 1.82.826M3 2a1 1 0 0 1 1 1v2.5h3V3.002a1 1 0 0 1 2 0v6.993a1 1 0 1 1-2 0V7.5H4V10a1 1 0 1 1-2 0V3a1 1 0 0 1 1-1m14.557 3.462a.75.75 0 0 1 .693-.463h3.002a.75.75 0 0 1 .53 1.28l-1.5 1.501a.75.75 0 0 1-1.062 0l-1.5-1.5a.75.75 0 0 1-.163-.818M2 20a1 1 0 0 1 1-1h18a1 1 0 1 1 0 2H3a1 1 0 0 1-1-1m1-6a1 1 0 1 0 0 2h18a1 1 0 1 0 0-2z"/></svg>