<svg xmlns="http://www.w3.org/2000/svg" xmlns:xlink="http://www.w3.org/1999/xlink" width="20" height="20" viewBox="0 0 20 20"><path fill="currentColor" d="M16.965 2.977c.523.258.917.738 1.179 1.468a.75.75 0 0 1-1.412.506c-.168-.468-.345-.587-.43-.628c-.124-.062-.272-.073-.583-.073c-.244 0-.389.075-.494.17c-.12.107-.226.275-.307.494a2.8 2.8 0 0 0-.167.882v.01c0 .406.007.89.163 1.289q.107.277.29.427c.117.097.297.19.598.223c.092.01.29.01.483-.062a.8.8 0 0 0 .469-.454a.75.75 0 0 1 1.367.616c-.635 1.411-2.034 1.441-2.485 1.391c-.559-.062-1.022-.256-1.389-.559a2.5 2.5 0 0 1-.73-1.037c-.267-.683-.267-1.425-.267-1.807v-.074l.005-.094a4.3 4.3 0 0 1 .258-1.275c.133-.357.35-.765.713-1.09a2.2 2.2 0 0 1 1.493-.55h.035c.273 0 .748-.001 1.211.227M4.696 2.75a.75.75 0 0 1 .697.5l1.774 5a.75.75 0 0 1-1.414.5l-.089-.25h-2.11l-.104.27a.75.75 0 1 1-1.4-.54l1.936-5a.75.75 0 0 1 .71-.48m-.04 2.907L4.135 7h.996zm.644 5.095a.75.75 0 0 1 .694.748v5a.75.75 0 0 1-1.5 0v-2.7q-.097.075-.198.141a.75.75 0 1 1-.832-1.248c.56-.373.961-.963 1.047-1.354a.75.75 0 0 1 .79-.588m4.535 1.498c-.309 0-.585.29-.585.614a.75.75 0 1 1-1.5 0c0-1.04.84-2.114 2.085-2.114c.71 0 1.406.332 1.8.938c.417.64.417 1.46-.04 2.237c-.235.4-.552.694-.846.926c-.148.117-.298.224-.436.322l-.06.042q-.175.123-.328.236a3 3 0 0 0-.351.299h1.62a.75.75 0 0 1 0 1.5H8.5a.75.75 0 0 1-.75-.75c0-1.158.688-1.807 1.273-2.247c.123-.093.251-.183.368-.265l.056-.04c.137-.097.259-.184.372-.274c.228-.18.383-.34.482-.508c.211-.36.14-.562.077-.66c-.087-.133-.281-.256-.543-.256m4.887.365a.5.5 0 0 1 .14-.223c.066-.057.2-.142.485-.142c.492 0 .596.31.596.386c0 .17-.038.314-.109.403c-.045.056-.194.211-.712.211a.75.75 0 0 0 0 1.5c.202 0 .463.028.646.114a.34.34 0 0 1 .135.098c.012.017.04.06.04.174c0 .335-.102.448-.155.493c-.075.063-.218.121-.441.121c-.261 0-.382-.046-.44-.082c-.045-.028-.123-.094-.194-.311a.75.75 0 0 0-1.425.468c.153.464.411.854.816 1.11c.39.247.83.315 1.243.315c.45 0 .98-.113 1.409-.475c.452-.382.687-.95.687-1.639a1.77 1.77 0 0 0-.424-1.177c.362-.464.424-.996.424-1.323c0-.923-.794-1.886-2.096-1.886c-.629 0-1.121.203-1.477.517a2 2 0 0 0-.59.936a.75.75 0 1 0 1.442.412M8 3.5v5a.75.75 0 0 0 .872.74v.01H10.5c.238 0 .733-.037 1.195-.305c.52-.303.923-.86.923-1.704c0-.42-.092-.794-.283-1.107a1.7 1.7 0 0 0-.283-.35c.152-.279.242-.62.242-1.025c0-.409-.081-.772-.25-1.08a1.7 1.7 0 0 0-.66-.669c-.463-.26-.958-.26-1.126-.26H8.75A.75.75 0 0 0 8 3.5m2.5 4.25h-1v-1h.936c.191 0 .38.01.517.077c.052.026.08.053.101.087c.022.035.064.127.064.327a.6.6 0 0 1-.06.297a.3.3 0 0 1-.117.11a.96.96 0 0 1-.44.102m-.878-2.5H9.5v-1h.75c.157 0 .301.013.398.068a.2.2 0 0 1 .08.08c.024.044.066.149.066.36a.63.63 0 0 1-.06.31a.25.25 0 0 1-.095.096a.76.76 0 0 1-.357.086z"/></svg>