<svg xmlns="http://www.w3.org/2000/svg" xmlns:xlink="http://www.w3.org/1999/xlink" width="24" height="24" viewBox="0 0 24 24"><path fill="currentColor" d="M14.5 2.75a.75.75 0 0 0-1.42-.335c-.27.537-.683.957-1.049 1.25a4.6 4.6 0 0 1-.614.413l-.005.002a.75.75 0 0 0 .673 1.34h.002l.003-.001l.006-.003l.018-.01l.057-.03q.072-.04.19-.112a6 6 0 0 0 .607-.428L13 4.81v5.44a.75.75 0 0 0 1.5 0zM2.75 2a.75.75 0 0 1 .75.75V5.5h4V2.752a.75.75 0 0 1 1.5 0v7.492a.75.75 0 0 1-1.5 0V7h-4v3.25a.75.75 0 0 1-1.5 0v-7.5A.75.75 0 0 1 2.75 2m0 17a.75.75 0 0 0 0 1.5h18.5a.75.75 0 0 0 0-1.5zM2 14.75a.75.75 0 0 1 .75-.75h18.5a.75.75 0 0 1 0 1.5H2.75a.75.75 0 0 1-.75-.75"/></svg>