<svg xmlns="http://www.w3.org/2000/svg" xmlns:xlink="http://www.w3.org/1999/xlink" width="24" height="24" viewBox="0 0 24 24"><g fill="none"><path d="M7.75 3.75a.75.75 0 0 0-1.5 0v7.5a.75.75 0 0 0 1.5 0V6.5H8A.75.75 0 0 0 8 5h-.25V3.75zm14.25 0a.75.75 0 0 0-1.5 0v7.5a.75.75 0 0 0 1.5 0V6.5h.25a.75.75 0 0 0 0-1.5H22V3.75zM14.25 3a.75.75 0 0 1 .75.75V5h.25a.75.75 0 0 1 0 1.5H15v4.75a.75.75 0 0 1-1.5 0v-7.5a.75.75 0 0 1 .75-.75zM1 4.75A.75.75 0 0 1 1.75 4h3a.75.75 0 0 1 .75.75c0 1.69-.838 4.277-3.445 5.435a.75.75 0 0 1-.61-1.37c1.556-.692 2.28-2.106 2.489-3.315H1.75A.75.75 0 0 1 1 4.75zm16.25-.73a.75.75 0 0 0-.75.75v4.48a.75.75 0 0 0 .932.728l2-.5a.75.75 0 0 0-.364-1.456L18 8.29V5.52h.75a.75.75 0 0 0 0-1.5h-1.5zm-5.774-.235a.75.75 0 0 1 .49.94l-1.119 3.54l1.256-.25a.75.75 0 1 1 .294 1.47l-2.5.5a.75.75 0 0 1-.862-.96l1.5-4.75a.75.75 0 0 1 .94-.49zm5.746 10.956a.86.86 0 0 0-.25.397a.75.75 0 0 1-1.443-.412c.091-.321.296-.753.7-1.11c.42-.37 1.006-.616 1.771-.616c1.572 0 2.5 1.154 2.5 2.227c0 .405-.078 1.046-.516 1.597a2.19 2.19 0 0 1-.113.132c.092.086.18.184.258.294c.241.34.371.753.371 1.227c0 .842-.285 1.513-.813 1.958c-.505.427-1.136.565-1.687.565c-.513 0-1.037-.085-1.495-.375c-.472-.299-.781-.756-.967-1.322a.75.75 0 0 1 1.424-.47c.106.32.234.454.345.525c.126.08.331.142.693.142c.324 0 .568-.083.72-.21c.128-.11.28-.325.28-.813c0-.19-.048-.293-.093-.356a.654.654 0 0 0-.264-.202c-.283-.133-.661-.169-.935-.169a.75.75 0 0 1 0-1.5c.724 0 .99-.22 1.102-.36c.138-.172.19-.418.19-.663c0-.227-.239-.727-1-.727c-.422 0-.65.128-.778.24zm-5.736-.241c-.543 0-.986.495-.986 1.023a.75.75 0 0 1-1.5 0C9 14.278 10.008 13 11.486 13c.855 0 1.684.4 2.15 1.117c.49.751.5 1.724-.057 2.672c-.285.484-.673.847-1.045 1.141c-.187.148-.379.285-.557.41l-.078.055c-.153.109-.295.209-.432.312c-.356.268-.619.511-.78.793h2.514a.75.75 0 0 1 0 1.5H9.75a.75.75 0 0 1-.75-.75c0-1.396.821-2.182 1.565-2.741c.157-.119.32-.234.472-.341l.074-.052c.178-.126.34-.242.493-.363c.306-.242.532-.47.682-.724c.31-.53.229-.886.093-1.095c-.158-.243-.486-.434-.893-.434zm-5.963 1.763a5.26 5.26 0 0 1-.607.475a.75.75 0 1 1-.832-1.248c.764-.51 1.33-1.322 1.456-1.9a.75.75 0 0 1 1.483.16v6.5a.75.75 0 0 1-1.5 0v-3.987z" fill="currentColor"/></g></svg>