<svg xmlns="http://www.w3.org/2000/svg" xmlns:xlink="http://www.w3.org/1999/xlink" width="20" height="20" viewBox="0 0 20 20"><path fill="currentColor" d="M17.5 5a.5.5 0 0 1 0 1h-15a.5.5 0 0 1 0-1zm0 3a.5.5 0 0 1 0 1h-15a.5.5 0 0 1 0-1zm-7.243 3a5.5 5.5 0 0 0-.657 1H2.5a.5.5 0 0 1 0-1zM9 14.5q0 .252.022.5H2.5a.5.5 0 0 1 0-1h6.522a6 6 0 0 0-.022.5m5.5 4.5a4.5 4.5 0 1 0 0-9a4.5 4.5 0 0 0 0 9m1.146-2.646L14.5 15.207l-1.146 1.147a.5.5 0 0 1-.708-.708l1.147-1.146l-1.147-1.146a.5.5 0 0 1 .708-.708l1.146 1.147l1.146-1.147a.5.5 0 0 1 .708.708L15.207 14.5l1.147 1.146a.5.5 0 0 1-.708.708"/></svg>