<svg xmlns="http://www.w3.org/2000/svg" xmlns:xlink="http://www.w3.org/1999/xlink" width="16" height="16" viewBox="0 0 16 16"><path fill="currentColor" d="M4.5 1c.2 0 .38.12.46.303l2.884 6.731l-.753.754a.5.5 0 0 1-.05-.091L6.313 7H2.687L1.96 8.697a.5.5 0 0 1-.92-.394l3-7A.5.5 0 0 1 4.5 1m1.385 5L4.5 2.77L3.116 6zm8.427.19q.004-.095.004-.193c0-1.82-.957-2.997-2.428-2.997c-.795 0-1.499.392-1.816 1.015H10V1.5a.5.5 0 1 0-1 0v5.378l1-1v-.394c.149-1.032.762-1.651 1.673-1.651c.853 0 1.426.526 1.617 1.44q.256.154.478.373zm-1.251.164a1.5 1.5 0 0 0-2.122 0l-4.586 4.585a1.5 1.5 0 0 0 0 2.122l1.586 1.585A1.5 1.5 0 0 0 9.501 15H12.5a.5.5 0 0 0 0-1h-1.793l3.94-3.94a1.5 1.5 0 0 0 0-2.12zM8 10.707L10.293 13l-.94.94a.5.5 0 0 1-.707 0l-1.585-1.586a.5.5 0 0 1 0-.708z"/></svg>