<svg xmlns="http://www.w3.org/2000/svg" xmlns:xlink="http://www.w3.org/1999/xlink" width="20" height="20" viewBox="0 0 20 20"><path fill="currentColor" d="M5.75 3h8.5A2.75 2.75 0 0 1 17 5.75v3.651a3 3 0 0 0-1-.36V5.75A1.75 1.75 0 0 0 14.25 4h-8.5A1.75 1.75 0 0 0 4 5.75v8.5c0 .966.784 1.75 1.75 1.75h5.3q-.05.243-.05.5q0 .25.038.5H5.75A2.75 2.75 0 0 1 3 14.25v-8.5A2.75 2.75 0 0 1 5.75 3m3.75 7h3.764a3 3 0 0 0-.593 1H9.5a.5.5 0 0 1 0-1m0 3h3.17c.132.373.336.711.594 1H9.5a.5.5 0 0 1 0-1m-2-5.75a.75.75 0 1 1-1.5 0a.75.75 0 0 1 1.5 0M6.75 11a.75.75 0 1 0 0-1.5a.75.75 0 0 0 0 1.5m0 3a.75.75 0 1 0 0-1.5a.75.75 0 0 0 0 1.5M9.5 7a.5.5 0 0 0 0 1h4a.5.5 0 0 0 0-1zm8 5a2 2 0 1 1-4 0a2 2 0 0 1 4 0m1.5 4.5c0 1.245-1 2.5-3.5 2.5S12 17.75 12 16.5a1.5 1.5 0 0 1 1.5-1.5h4a1.5 1.5 0 0 1 1.5 1.5"/></svg>