<svg xmlns="http://www.w3.org/2000/svg" xmlns:xlink="http://www.w3.org/1999/xlink" width="20" height="20" viewBox="0 0 20 20"><path fill="currentColor" d="M2.75 3.5a.75.75 0 0 1 .75-.75h13a.75.75 0 0 1 0 1.5h-13a.75.75 0 0 1-.75-.75m0 12a.75.75 0 0 1 .75-.75h13a.75.75 0 0 1 0 1.5h-13a.75.75 0 0 1-.75-.75m.75-9.75a.75.75 0 0 0 0 1.5h1a.75.75 0 0 0 0-1.5zm11.25.75a.75.75 0 0 1 .75-.75h1a.75.75 0 0 1 0 1.5h-1a.75.75 0 0 1-.75-.75M3.5 8.75a.75.75 0 0 0 0 1.5h1a.75.75 0 0 0 0-1.5zm11.25.75a.75.75 0 0 1 .75-.75h1a.75.75 0 0 1 0 1.5h-1a.75.75 0 0 1-.75-.75M3.5 11.75a.75.75 0 0 0 0 1.5h1a.75.75 0 0 0 0-1.5zm11.25.75a.75.75 0 0 1 .75-.75h1a.75.75 0 0 1 0 1.5h-1a.75.75 0 0 1-.75-.75m-7-4a2.25 2.25 0 0 1 4.5 0v5a.75.75 0 0 0 1.5 0v-5a3.75 3.75 0 1 0-7.5 0v5a.75.75 0 0 0 1.5 0z"/></svg>