<svg xmlns="http://www.w3.org/2000/svg" xmlns:xlink="http://www.w3.org/1999/xlink" width="16" height="16" viewBox="0 0 16 16"><path fill="currentColor" d="M9.93 10.262a.75.75 0 0 1 1.14.976l-3 3.5a.75.75 0 0 1-1.1.042l-1.497-1.499l-.051-.056a.75.75 0 0 1 1.056-1.055l.057.052l.923.924zM6.858 4.008a.75.75 0 0 1 .461 1.23L6.237 6.5H8.25l.077.004a.75.75 0 0 1 0 1.492L8.25 8H6v1.323C6 10.258 5.231 11 4.314 11c-.583 0-1.13-.308-1.428-.812l-.057-.103l-.03-.07a.75.75 0 0 1 1.334-.667l.038.067l.023.033c.03.031.073.052.12.052a.185.185 0 0 0 .186-.177V8H1.75a.75.75 0 0 1 0-1.5H4.5l.012-.133a.75.75 0 0 1 .169-.355l.438-.512H3.5a.75.75 0 0 1 0-1.5h3.25zM12.5 1.5a.75.75 0 0 1 .692.462l2.5 6l.026.072a.75.75 0 0 1-1.377.573l-.033-.069L13.667 7h-2.334l-.64 1.538a.75.75 0 0 1-1.385-.576l2.5-6l.05-.1A.75.75 0 0 1 12.5 1.5m-.542 4h1.084L12.5 4.2zM5 .5a.75.75 0 0 1 .75.75v.25h2.5l.077.004A.75.75 0 0 1 9 2.25v1a.75.75 0 0 1-1.5 0V3h-5v.25a.75.75 0 0 1-1.5 0v-1l.004-.077A.75.75 0 0 1 1.75 1.5h2.5v-.25A.75.75 0 0 1 5 .5"/></svg>