<svg xmlns="http://www.w3.org/2000/svg" xmlns:xlink="http://www.w3.org/1999/xlink" width="16" height="16" viewBox="0 0 16 16"><path fill="currentColor" d="M10.624 9.17a.5.5 0 0 1 .752.66l-3.5 4a.5.5 0 0 1-.73.024l-2-2l-.064-.079a.501.501 0 0 1 .693-.693l.078.064l1.622 1.623zM4.5 1.5A.5.5 0 0 1 5 2v1h.5a.5.5 0 0 1 0 1H5v3.5a.5.5 0 0 1-1 0V2a.5.5 0 0 1 .5-.5m5 0a.5.5 0 0 1 .5.5v1h.5a.5.5 0 0 1 0 1H10v3.5a.5.5 0 0 1-1 0V2a.5.5 0 0 1 .5-.5m5 0a.5.5 0 0 1 .5.5v1h.5a.5.5 0 0 1 0 1H15v3.5a.5.5 0 0 1-1 0V2a.5.5 0 0 1 .5-.5m-6.863.52a.5.5 0 0 1 .343.618l-.783 2.738l.72-.12a.5.5 0 0 1 .165.987l-1.5.25a.5.5 0 0 1-.563-.63l1-3.5a.5.5 0 0 1 .618-.343M3.1 2.01a.5.5 0 0 1 .4.49c0 1.029-.126 1.882-.5 2.556c-.34.61-.855 1.025-1.538 1.306l-.304.113a.5.5 0 0 1-.317-.95l.237-.087c.52-.212.84-.495 1.047-.869c.204-.368.324-.868.361-1.569H1a.5.5 0 0 1 0-1h2zM12.5 2a.5.5 0 0 1 0 1v2.41l.42-.07a.5.5 0 0 1 .165.986l-1.003.167A.5.5 0 0 1 11.5 6V2.5l.01-.1A.5.5 0 0 1 12 2z"/></svg>