<svg xmlns="http://www.w3.org/2000/svg" xmlns:xlink="http://www.w3.org/1999/xlink" width="32" height="32" viewBox="0 0 32 32"><path fill="currentColor" d="M21.488 8.511a3.5 3.5 0 0 1 .837 1.363l.548 1.682a.664.664 0 0 0 1.254 0l.548-1.682a3.47 3.47 0 0 1 2.197-2.196l1.684-.547a.665.665 0 0 0 0-1.254l-.034-.008l-1.683-.547a3.47 3.47 0 0 1-2.198-2.196l-.547-1.682a.665.665 0 0 0-1.255 0l-.547 1.682l-.014.042a3.47 3.47 0 0 1-2.15 2.154l-1.684.547a.665.665 0 0 0 0 1.254l1.684.546c.513.171.979.46 1.36.842m9.333 4.847l.918.298l.019.004a.362.362 0 0 1 0 .684l-.919.299a1.9 1.9 0 0 0-1.198 1.197l-.299.918a.363.363 0 0 1-.684 0l-.299-.918a1.89 1.89 0 0 0-1.198-1.202l-.919-.298a.362.362 0 0 1 0-.684l.919-.299a1.9 1.9 0 0 0 1.18-1.197l.299-.918a.363.363 0 0 1 .684 0l.298.918a1.89 1.89 0 0 0 1.199 1.197M20.703 3H7.5A4.5 4.5 0 0 0 3 7.5v17A4.5 4.5 0 0 0 7.5 29h17a4.5 4.5 0 0 0 4.5-4.5v-6.022a1.9 1.9 0 0 1-1.04-.338a2 2 0 0 1-.69-.94l-.3-.91a.3.3 0 0 0-.09-.15a.4.4 0 0 0-.14-.1l-1-.31a1.9 1.9 0 0 1-.9-.68a1.84 1.84 0 0 1-.34-1.07a1.9 1.9 0 0 1 .25-.9a2.16 2.16 0 0 1-3.3-1.08l-.162-.5H15a1 1 0 1 1 0-2h5.4a1.9 1.9 0 0 0-.74-.44l-1.71-.56a2.17 2.17 0 0 1-1.45-2A2.17 2.17 0 0 1 18 4.44l1.64-.56c.289-.096.55-.26.76-.48q.176-.182.303-.4M10.5 9a1.5 1.5 0 1 1 0 3a1.5 1.5 0 0 1 0-3m0 5.5a1.5 1.5 0 1 1 0 3a1.5 1.5 0 0 1 0-3m1.5 7a1.5 1.5 0 1 1-3 0a1.5 1.5 0 0 1 3 0m2-5.5a1 1 0 0 1 1-1h7a1 1 0 1 1 0 2h-7a1 1 0 0 1-1-1m1 6.5a1 1 0 1 1 0-2h7a1 1 0 1 1 0 2z"/></svg>