<svg xmlns="http://www.w3.org/2000/svg" xmlns:xlink="http://www.w3.org/1999/xlink" width="16" height="16" viewBox="0 0 16 16"><path fill="currentColor" d="M1 5.5a.5.5 0 0 0 .5.5h4a.5.5 0 0 0 0-1h-4a.5.5 0 0 0-.5.5m0-3a.5.5 0 0 0 .5.5h6a.5.5 0 0 0 0-1h-6a.5.5 0 0 0-.5.5M10.75 4A1.75 1.75 0 0 0 9 5.75v7.5c0 .966.784 1.75 1.75 1.75h1.5A1.75 1.75 0 0 0 14 13.25v-7.5A1.75 1.75 0 0 0 12.25 4zM13 7h-3V5.75a.75.75 0 0 1 .75-.75h1.5a.75.75 0 0 1 .75.75zm-3 1h3v3h-3zm0 4h3v1.25a.75.75 0 0 1-.75.75h-1.5a.75.75 0 0 1-.75-.75zM3 8.5a.5.5 0 0 0-1 0V10a2 2 0 0 0 2 2h1.293l-.647.646a.5.5 0 0 0 .708.708l1.5-1.5a.5.5 0 0 0 0-.708l-1.5-1.5a.5.5 0 1 0-.708.708l.647.646H4a1 1 0 0 1-1-1z"/></svg>