<svg xmlns="http://www.w3.org/2000/svg" xmlns:xlink="http://www.w3.org/1999/xlink" width="24" height="24" viewBox="0 0 24 24"><path fill="currentColor" d="M21 5.75A2.75 2.75 0 0 0 18.25 3H5.75A2.75 2.75 0 0 0 3 5.75v12.5A2.75 2.75 0 0 0 5.75 21h2.3a2.5 2.5 0 0 1 .158-1.5H5.75c-.69 0-1.25-.56-1.25-1.25V5.75c0-.69.56-1.25 1.25-1.25h12.5c.69 0 1.25.56 1.25 1.25v12.458a2.5 2.5 0 0 1 1.5-.158zM6.75 11.5h7.5a.75.75 0 0 1 .102 1.493L14.25 13h-7.5a.75.75 0 0 1-.102-1.493zm10.5 4H6.75l-.102.007A.75.75 0 0 0 6.75 17h10.5l.102-.007a.75.75 0 0 0-.102-1.493m-10.5-8h10.5a.75.75 0 0 1 .102 1.493L17.25 9H6.75a.75.75 0 0 1-.102-1.493zm5.25 13a1.5 1.5 0 1 1-3 0a1.5 1.5 0 0 1 3 0m3.5 1.5a1.5 1.5 0 1 0 0-3a1.5 1.5 0 0 0 0 3m5 0a1.5 1.5 0 1 0 0-3a1.5 1.5 0 0 0 0 3"/></svg>