<svg xmlns="http://www.w3.org/2000/svg" xmlns:xlink="http://www.w3.org/1999/xlink" width="20" height="20" viewBox="0 0 20 20"><path fill="currentColor" d="M2 6.5a.5.5 0 0 0 .5.5h5a.5.5 0 0 0 0-1h-5a.5.5 0 0 0-.5.5m0-3a.5.5 0 0 0 .5.5h7a.5.5 0 0 0 0-1h-7a.5.5 0 0 0-.5.5M13 5a2 2 0 0 0-2 2v9a2 2 0 0 0 2 2h2a2 2 0 0 0 2-2V7a2 2 0 0 0-2-2zm3 4h-4V7a1 1 0 0 1 1-1h2a1 1 0 0 1 1 1zm-4 1h4v3h-4zm0 4h4v2a1 1 0 0 1-1 1h-2a1 1 0 0 1-1-1zM4 9.5a.5.5 0 0 0-1 0v2A2.5 2.5 0 0 0 5.5 14h1.793l-1.147 1.146a.5.5 0 0 0 .708.708l2-2a.5.5 0 0 0 0-.708l-2-2a.5.5 0 0 0-.708.708L7.293 13H5.5A1.5 1.5 0 0 1 4 11.5z"/></svg>