<svg xmlns="http://www.w3.org/2000/svg" xmlns:xlink="http://www.w3.org/1999/xlink" width="24" height="24" viewBox="0 0 24 24"><path fill="currentColor" d="M20 6.414V10a1 1 0 1 1-2 0V6.414l-.293.293a1 1 0 1 1-1.414-1.414l2-2a1 1 0 0 1 1.414 0l2 2a1 1 0 0 1-1.414 1.414zM2 6a1 1 0 0 1 1-1h8a1 1 0 1 1 0 2H3a1 1 0 0 1-1-1m0 6a1 1 0 0 1 1-1h11a1 1 0 1 1 0 2H3a1 1 0 0 1-1-1m1 5a1 1 0 1 0 0 2h8a1 1 0 1 0 0-2zm17-3v3.586l.293-.293a1 1 0 0 1 1.414 1.414l-2 2a1 1 0 0 1-1.414 0l-2-2a1 1 0 0 1 1.414-1.414l.293.293V14a1 1 0 1 1 2 0"/></svg>