<svg xmlns="http://www.w3.org/2000/svg" xmlns:xlink="http://www.w3.org/1999/xlink" width="48" height="48" viewBox="0 0 48 48"><path fill="currentColor" d="M6 12.25A6.25 6.25 0 0 1 12.25 6h23.5A6.25 6.25 0 0 1 42 12.25v12.568a12.7 12.7 0 0 1-2.277-.96q-1.006-.54-2.03-1.299a2.84 2.84 0 0 0-3.385 0l-.06.044a1.25 1.25 0 0 0-.498-.103h-13.5a1.25 1.25 0 1 0 0 2.5h9.086q-1.256.302-2.503.3A2.83 2.83 0 0 0 24 28.125V30.5h-3.75a1.25 1.25 0 1 0 0 2.5H24v.9c0 2.077.41 4.024 1.252 5.805Q25.827 40.92 26.65 42h-14.4A6.25 6.25 0 0 1 6 35.75zm11 3.5a2 2 0 1 0-4 0a2 2 0 0 0 4 0m0 8a2 2 0 1 0-4 0a2 2 0 0 0 4 0m-2 10a2 2 0 1 0 0-4a2 2 0 0 0 0 4m4-18c0 .69.56 1.25 1.25 1.25h13.5a1.25 1.25 0 1 0 0-2.5h-13.5c-.69 0-1.25.56-1.25 1.25m22.556 11.023q.222.064.444.123q1.57.405 3.167.404c.46 0 .833.37.833.825V33.9c0 5.501-3.286 9.543-9.695 12.043a.84.84 0 0 1-.61 0C33.013 44.897 30.877 43.58 29.3 42a12 12 0 0 1-.382-.4a11.1 11.1 0 0 1-1.86-2.75Q26.002 36.614 26 33.9v-5.775a.83.83 0 0 1 .833-.825c2.96 0 5.843-1.038 8.667-3.135a.84.84 0 0 1 1 0q1.132.84 2.278 1.455q1.379.74 2.778 1.153m-7.248-4.214l.09.122Z"/></svg>