<svg xmlns="http://www.w3.org/2000/svg" xmlns:xlink="http://www.w3.org/1999/xlink" width="32" height="32" viewBox="0 0 32 32"><path fill="currentColor" d="M7.5 3A4.5 4.5 0 0 0 3 7.5v17A4.5 4.5 0 0 0 7.5 29h10.71a4.93 4.93 0 0 1-.71-2.562c0-2.148 1.738-3.938 3.917-3.938H15a1 1 0 1 1 0-2h5.229A5 5 0 0 1 20 19c0-.711.148-1.387.416-2H15a1 1 0 1 1 0-2h7c.835-.628 1.874-1 3-1a4.99 4.99 0 0 1 4 2V7.5A4.5 4.5 0 0 0 24.5 3zm3 6a1.5 1.5 0 1 1 0 3a1.5 1.5 0 0 1 0-3m0 5.5a1.5 1.5 0 1 1 0 3a1.5 1.5 0 0 1 0-3m1.5 7a1.5 1.5 0 1 1-3 0a1.5 1.5 0 0 1 3 0m3-10a1 1 0 1 1 0-2h7a1 1 0 1 1 0 2zM28.5 19a3.5 3.5 0 1 1-7 0a3.5 3.5 0 0 1 7 0m2.5 7.438c0 2.023-1.714 4.062-6 4.062s-6-2.031-6-4.062C19 25.102 20.082 24 21.417 24h7.166C29.918 24 31 25.102 31 26.438"/></svg>