<svg xmlns="http://www.w3.org/2000/svg" xmlns:xlink="http://www.w3.org/1999/xlink" width="24" height="24" viewBox="0 0 24 24"><path fill="currentColor" d="M17.5 4.5c1.543 0 2.793.632 3.698 1.668l.177.213l.06.083a1 1 0 0 1-1.563 1.232l-.067-.077l-.108-.13C19.15 6.86 18.434 6.5 17.5 6.5c-1.12 0-1.943.517-2.532 1.441c-.472.74-.79 1.749-.911 2.935a5 5 0 1 1 2.939 8.599l-.01-.001c-1.461-.134-2.607-.835-3.421-1.892a5 5 0 0 1-.378-.555C12.357 15.65 12 13.86 12 12c0-1.914.396-3.746 1.28-5.134c.91-1.428 2.337-2.366 4.22-2.366M10 5a1 1 0 0 1 1 1v12a1 1 0 1 1-2 0v-5H3v5a1 1 0 1 1-2 0V6a1 1 0 0 1 2 0v5h6V6a1 1 0 0 1 1-1m7.5 6.5a3 3 0 0 0-2.506 4.648l.032.048a3 3 0 0 0 2.313 1.3q.08.003.161.004a3 3 0 1 0 0-6"/></svg>