<svg xmlns="http://www.w3.org/2000/svg" xmlns:xlink="http://www.w3.org/1999/xlink" width="20" height="20" viewBox="0 0 20 20"><path fill="currentColor" d="M19 15.75v.5A1.75 1.75 0 0 1 17.25 18H2.75A1.75 1.75 0 0 1 1 16.25v-.5a.75.75 0 1 1 1.5 0v.5a.25.25 0 0 0 .25.25h14.5a.25.25 0 0 0 .25-.25v-.5a.75.75 0 1 1 1.5 0M3.833 10.376a4.17 4.17 0 0 1 2.527-.61c.37.02.74.074 1.1.162a.97.97 0 0 0-.55-.757a2.64 2.64 0 0 0-1.261-.234a2.8 2.8 0 0 0-1.068.234a.75.75 0 1 1-.671-1.342a4.3 4.3 0 0 1 1.69-.391a4.14 4.14 0 0 1 1.99.391A2.69 2.69 0 0 1 9 10.457V14.5a.75.75 0 1 1-1.5.056a3.73 3.73 0 0 1-2.945.569a2.61 2.61 0 0 1-.722-4.749m1.111 3.3a2.92 2.92 0 0 0 2.556-1V11.5a4.5 4.5 0 0 0-1.216-.235a2.68 2.68 0 0 0-1.619.361a1.112 1.112 0 0 0 .279 2.05M11 14.5V4a.75.75 0 1 1 1.5 0v4.657A2.7 2.7 0 0 1 14.25 8a3.28 3.28 0 0 1 3 3.5a3.28 3.28 0 0 1-3 3.5a2.7 2.7 0 0 1-1.75-.657v.157a.75.75 0 1 1-1.5 0m1.75-3a1.8 1.8 0 0 0 1.5 2a1.8 1.8 0 0 0 1.5-2a1.8 1.8 0 0 0-1.5-2a1.8 1.8 0 0 0-1.5 2"/></svg>