<svg xmlns="http://www.w3.org/2000/svg" xmlns:xlink="http://www.w3.org/1999/xlink" width="16" height="16" viewBox="0 0 16 16"><path fill="currentColor" d="M10 2a.5.5 0 0 0-1 0v9.5a.5.5 0 0 0 1 0v-.1c.418.377.937.6 1.5.6c1.381 0 2.5-1.343 2.5-3s-1.119-3-2.5-3c-.563 0-1.082.223-1.5.6zm3 7c0 1.283-.835 2-1.5 2S10 10.283 10 9s.835-2 1.5-2s1.5.717 1.5 2M7 7.834l-.003-.137c-.054-1.212-.832-1.963-2.139-2.028l-.191-.007c-.753-.014-1.35.122-1.789.43a.499.499 0 1 0 .574.818c.264-.185.715-.275 1.356-.243c.82.041 1.184.406 1.191 1.144a5 5 0 0 0-1.893-.14C2.792 7.83 2 8.684 2 9.834c0 1.304.941 2.167 2.167 2.167c.565 0 1.174-.193 1.833-.57v.07l.005.068a.5.5 0 0 0 .495.432l.068-.005A.5.5 0 0 0 7 11.509zm-2.774.854a4 4 0 0 1 1.571.128v.001l.202.06v1.393l-.165.113c-.656.432-1.214.642-1.668.642c-.692 0-1.167-.436-1.167-1.167c0-.633.405-1.07 1.227-1.17M16 13.5V13a.5.5 0 1 0-1 0v.5a.5.5 0 0 1-.5.5h-13a.5.5 0 0 1-.5-.5V13a.5.5 0 1 0-1 0v.5A1.5 1.5 0 0 0 1.5 15h13a1.497 1.497 0 0 0 1.5-1.5"/></svg>