<svg xmlns="http://www.w3.org/2000/svg" xmlns:xlink="http://www.w3.org/1999/xlink" width="28" height="28" viewBox="0 0 28 28"><path fill="currentColor" d="M6.75 3A3.75 3.75 0 0 0 3 6.75v14.5A3.75 3.75 0 0 0 6.75 25h14.5A3.75 3.75 0 0 0 25 21.25V6.75A3.75 3.75 0 0 0 21.25 3zM4.5 6.75A2.25 2.25 0 0 1 6.75 4.5h14.5a2.25 2.25 0 0 1 2.25 2.25v14.5a2.25 2.25 0 0 1-2.25 2.25H6.75a2.25 2.25 0 0 1-2.25-2.25zM8.75 13a.75.75 0 0 0 0 1.5h6.5a.75.75 0 0 0 0-1.5zM8 8.75A.75.75 0 0 1 8.75 8h10.5a.75.75 0 0 1 0 1.5H8.75A.75.75 0 0 1 8 8.75M8.75 18a.75.75 0 0 0 0 1.5h10.5a.75.75 0 0 0 0-1.5z"/></svg>