<svg xmlns="http://www.w3.org/2000/svg" xmlns:xlink="http://www.w3.org/1999/xlink" width="16" height="16" viewBox="0 0 16 16"><path fill="currentColor" d="M8.435 3.62c.139-.31.482-.427.696-.34c.31.125.445.543.274.818c-.099.16-.257.331-.482.533c-.141.126-.269.23-.407.344c-.104.085-.214.176-.34.283C7.704 5.662 7 6.306 7 7.25c0 .414.336.75.75.75h2.75a.75.75 0 0 0 0-1.5H9.034l.117-.102c.076-.065.17-.142.27-.225c.167-.137.35-.29.501-.424c.264-.235.547-.52.76-.862c.67-1.085.162-2.533-.989-2.998c-1.086-.438-2.216.2-2.628 1.12a.75.75 0 0 0 1.37.612M1.75 2a.75.75 0 0 1 .75.75v1.5h2V2.751a.75.75 0 0 1 1.5 0v4.496a.75.75 0 0 1-1.5 0V5.75h-2v1.5a.75.75 0 0 1-1.5 0v-4.5A.75.75 0 0 1 1.75 2m10.284 2.31a.5.5 0 0 1 .463-.31h2.002a.5.5 0 0 1 .353.855l-1 1a.5.5 0 0 1-.708 0l-1.001-1a.5.5 0 0 1-.109-.546M1 13.247a.75.75 0 0 1 .75-.75h12.5a.75.75 0 0 1 0 1.5H1.75a.75.75 0 0 1-.75-.75M1.75 9.5a.75.75 0 0 0 0 1.5h12.5a.75.75 0 0 0 0-1.5z"/></svg>