<svg xmlns="http://www.w3.org/2000/svg" xmlns:xlink="http://www.w3.org/1999/xlink" width="24" height="24" viewBox="0 0 24 24"><path fill="currentColor" d="M14.198 3.583c-.65-.254-1.462.11-1.767.768a.75.75 0 1 1-1.361-.63c.595-1.285 2.194-2.112 3.673-1.536c1.605.626 2.352 2.617 1.391 4.116c-.312.487-.739.903-1.157 1.264c-.243.21-.524.433-.788.643c-.167.133-.327.26-.467.376c-.396.326-.71.62-.926.91l-.005.006h3.46a.75.75 0 0 1 0 1.5h-4.5a.75.75 0 0 1-.75-.75c0-.65.254-1.197.59-1.65c.33-.443.762-.831 1.177-1.173c.19-.157.365-.297.536-.432c.235-.187.46-.365.694-.566c.38-.328.678-.632.874-.938c.415-.648.108-1.604-.674-1.908M3.5 2.75a.75.75 0 0 0-1.5 0v7.5a.75.75 0 0 0 1.5 0V7h4v3.244a.75.75 0 0 0 1.5 0V2.752a.75.75 0 1 0-1.5 0V5.5h-4zm-1.5 17a.75.75 0 0 1 .75-.75h18.5a.75.75 0 0 1 0 1.5H2.75a.75.75 0 0 1-.75-.75M2.75 14a.75.75 0 0 0 0 1.5h18.5a.75.75 0 0 0 0-1.5z"/></svg>