<svg xmlns="http://www.w3.org/2000/svg" xmlns:xlink="http://www.w3.org/1999/xlink" width="20" height="20" viewBox="0 0 20 20"><path fill="currentColor" d="M17 6.5a.75.75 0 0 0-.471-.696l-7.5-3a.75.75 0 0 0-.557 1.392l2.028.812v2.984l-2.028.812a.75.75 0 1 0 .557 1.392l7.5-3A.75.75 0 0 0 17 6.5m-2.77 0L12 7.392V5.608zM5 3.75a.75.75 0 0 1 1.5 0v10.69l.72-.72a.75.75 0 1 1 1.06 1.06l-2 2a.75.75 0 0 1-1.06 0l-2-2a.75.75 0 0 1 1.06-1.06l.72.72zm8 7a.75.75 0 0 1 1.5 0v3.69l.72-.72a.75.75 0 1 1 1.06 1.06l-2 2a.75.75 0 0 1-1.06 0l-2-2a.75.75 0 0 1 1.06-1.06l.72.72z"/></svg>