<svg xmlns="http://www.w3.org/2000/svg" xmlns:xlink="http://www.w3.org/1999/xlink" width="24" height="24" viewBox="0 0 24 24"><path fill="currentColor" d="M2.75 2a.75.75 0 0 1 .75.75V5.5h4V2.752a.75.75 0 1 1 1.5 0v7.492a.75.75 0 0 1-1.5 0V7h-4v3.25a.75.75 0 0 1-1.5 0v-7.5A.75.75 0 0 1 2.75 2m14.807 3.462a.75.75 0 0 1 .693-.463h3.002a.75.75 0 0 1 .53 1.28l-1.5 1.501a.75.75 0 0 1-1.062 0l-1.5-1.5a.75.75 0 0 1-.163-.818M2.75 19a.75.75 0 0 0 0 1.5h18.5a.75.75 0 0 0 0-1.5zM2 14.75a.75.75 0 0 1 .75-.75h18.5a.75.75 0 0 1 0 1.5H2.75a.75.75 0 0 1-.75-.75m9.794-10.557c.572-.601 1.608-.822 2.291-.616c.429.13.715.405.84.688c.117.267.11.57-.105.871c-.394.553-1.06.611-1.836.616h-.129a.75.75 0 0 0 0 1.5h.129c.776.005 1.442.064 1.836.616c.214.301.222.605.104.87c-.124.284-.41.56-.838.689c-.684.207-1.72-.015-2.292-.616a.75.75 0 0 0-1.088 1.033c.983 1.034 2.616 1.38 3.813 1.019c.812-.245 1.462-.802 1.778-1.52c.324-.734.276-1.6-.255-2.345a2.8 2.8 0 0 0-.453-.496q.244-.206.453-.496c.53-.745.579-1.61.255-2.345c-.316-.718-.966-1.275-1.778-1.52c-1.197-.361-2.83-.015-3.813 1.019a.75.75 0 1 0 1.088 1.033"/></svg>