<svg xmlns="http://www.w3.org/2000/svg" xmlns:xlink="http://www.w3.org/1999/xlink" width="24" height="24" viewBox="0 0 24 24"><path fill="currentColor" d="M3 6.25A3.25 3.25 0 0 1 6.25 3h11.5A3.25 3.25 0 0 1 21 6.25v8.655l-1.26-2.522c-.656-1.314-2.181-1.692-3.337-1.133H11.25a.75.75 0 1 0 0 1.5h3.832L13.958 15H11.25a.75.75 0 1 0 0 1.5h1.959l-1.94 3.88a2.5 2.5 0 0 0-.215.62H6.25A3.25 3.25 0 0 1 3 17.75zm4.75 3a1 1 0 1 0 0-2a1 1 0 0 0 0 2m3.5-1.75a.75.75 0 0 0 0 1.5h5.5a.75.75 0 0 0 0-1.5zM8.75 12a1 1 0 1 0-2 0a1 1 0 0 0 2 0m-1 4.75a1 1 0 1 0 0-2a1 1 0 0 0 0 2m8.411-3.92c.553-1.107 2.133-1.107 2.686 0l3.997 7.998A1.5 1.5 0 0 1 21.5 23h-7.994a1.5 1.5 0 0 1-1.343-2.172zm1.843 2.666a.5.5 0 0 0-1 0v3.001a.5.5 0 0 0 1 0zm-.5 5.503a.5.5 0 1 0 0-1a.5.5 0 0 0 0 1"/></svg>