<svg xmlns="http://www.w3.org/2000/svg" xmlns:xlink="http://www.w3.org/1999/xlink" width="28" height="28" viewBox="0 0 28 28"><path fill="currentColor" d="M17.327 24.504a.75.75 0 0 1 0 1.492L17.25 26H2.75a.75.75 0 0 1 0-1.5h14.5zM8.42 21H2.75a.75.75 0 0 1 0-1.5h4.919zm6.83-19A2.75 2.75 0 0 1 18 4.75v8.5A2.75 2.75 0 0 1 15.25 16h-2.286l-2.293 4.585a.75.75 0 0 1-1.342 0L7.036 16H4.75A2.75 2.75 0 0 1 2 13.25v-8.5A2.75 2.75 0 0 1 4.75 2zm10 17.5a.75.75 0 0 1 0 1.5H11.581l.75-1.5zM6.75 6a.75.75 0 0 0-.746.673L6 6.75v1.5a.75.75 0 0 0 .897.735l.736-.147a4.5 4.5 0 0 1-.498.952c-.212.305-.422.52-.572.655a2 2 0 0 1-.211.17a.75.75 0 0 0 .795 1.27l.003-.001l.005-.002a4 4 0 0 0 .407-.32c.225-.2.516-.501.803-.914C8.945 9.813 9.5 8.54 9.5 6.75a.75.75 0 0 0-.603-.735L8.75 6zm5 0a.75.75 0 0 0-.746.673L11 6.75v1.5a.75.75 0 0 0 .898.735l.735-.147c-.15.386-.324.702-.498.952c-.212.305-.422.52-.572.655a2 2 0 0 1-.211.17a.75.75 0 0 0 .796 1.27l.002-.001l.005-.002q.032-.02.127-.089q.11-.08.28-.23c.225-.202.516-.502.803-.915c.58-.835 1.135-2.108 1.135-3.898a.75.75 0 0 0-.602-.735L13.75 6z"/></svg>