<svg xmlns="http://www.w3.org/2000/svg" xmlns:xlink="http://www.w3.org/1999/xlink" width="48" height="48" viewBox="0 0 48 48"><path fill="currentColor" d="M29.878 41.507a1.25 1.25 0 0 1 0 2.486L29.75 44H5.25a1.25 1.25 0 1 1 0-2.5h24.5zM14.49 36H5.25a1.25 1.25 0 1 1 0-2.5h7.991zM26.75 4A4.25 4.25 0 0 1 31 8.25v15.5A4.25 4.25 0 0 1 26.75 28h-4.477l-3.655 7.309a1.25 1.25 0 0 1-2.236 0L12.727 28H8.25A4.25 4.25 0 0 1 4 23.75V8.25A4.25 4.25 0 0 1 8.25 4zm16 29.5a1.25 1.25 0 1 1 0 2.5H20.509l1.25-2.5zm-34.5-27A1.75 1.75 0 0 0 6.5 8.25v15.5c0 .966.784 1.75 1.75 1.75h5.25c.473 0 .906.268 1.118.691l2.882 5.764l2.882-5.764l.09-.151a1.25 1.25 0 0 1 1.028-.54h5.25a1.75 1.75 0 0 0 1.75-1.75V8.25a1.75 1.75 0 0 0-1.75-1.75zm7.628 4.507A1.25 1.25 0 0 1 17 12.25a14 14 0 0 1-.142 1.988c-.303 2.091-1.059 3.612-1.86 4.672a7.8 7.8 0 0 1-1.436 1.465a6 6 0 0 1-.666.447l-.08.043l-.004.001l-.003.002a1.25 1.25 0 0 1-1.23-2.173l.103-.058l-.004.002l.005-.003l.061-.036c.062-.038.162-.104.288-.202c.253-.195.609-.517.97-.996a6.8 6.8 0 0 0 .942-1.748l-1.424.317A1.25 1.25 0 0 1 11 14.75v-2.5l.006-.124A1.25 1.25 0 0 1 12.25 11h3.5zm8 0A1.25 1.25 0 0 1 25 12.25a14 14 0 0 1-.142 1.988c-.303 2.091-1.059 3.612-1.86 4.672a7.8 7.8 0 0 1-1.437 1.465a6 6 0 0 1-.666.447l-.08.043l-.003.001l-.003.002a1.25 1.25 0 0 1-1.23-2.173l.103-.058l-.004.002l.005-.003l.061-.036c.062-.038.162-.104.288-.202c.253-.195.609-.517.97-.996a6.8 6.8 0 0 0 .942-1.748l-1.424.317A1.25 1.25 0 0 1 19 14.75v-2.5l.006-.124A1.25 1.25 0 0 1 20.25 11h3.5z"/></svg>