<svg xmlns="http://www.w3.org/2000/svg" xmlns:xlink="http://www.w3.org/1999/xlink" width="24" height="24" viewBox="0 0 24 24"><path fill="currentColor" d="M14.75 20.5a.75.75 0 0 1 0 1.5h-12a.75.75 0 0 1 0-1.5zM2.22 2.22a.75.75 0 0 1 1.06 0l18.5 18.5l.051.056a.75.75 0 0 1-1.055 1.055l-.056-.05L16.94 18h-6.607l.79-1.5h4.317l-2.5-2.5h-1.632l-1.894 3.6a.75.75 0 0 1-1.328 0L6.19 14H4.25A2.25 2.25 0 0 1 2 11.75v-7.5c0-.347.08-.675.22-.969a.75.75 0 0 1 0-1.061M7.167 18H2.75a.75.75 0 0 1 0-1.5h3.628zm14.083-1.5a.75.75 0 0 1 0 1.5h-.068l-1.5-1.5zM3.5 11.75c0 .414.336.75.75.75h2.395a.75.75 0 0 1 .664.4l1.441 2.74l1.441-2.74a.75.75 0 0 1 .664-.4h.585L7.816 8.877A6.2 6.2 0 0 1 6.78 10.28a.75.75 0 1 1-1.06-1.06c.2-.201.612-.662.915-1.326A.75.75 0 0 1 5.5 7.25v-.69l-2-2zM13.25 2a2.25 2.25 0 0 1 2.25 2.25v7.5a2.3 2.3 0 0 1-.06.508L14 10.818V4.25a.75.75 0 0 0-.75-.75H6.682L5.182 2zm-1.5 3.5a.75.75 0 0 1 .75.75c0 .979-.268 1.81-.6 2.469l-2.4-2.4V6.25a.75.75 0 0 1 .75-.75z"/></svg>