<svg xmlns="http://www.w3.org/2000/svg" xmlns:xlink="http://www.w3.org/1999/xlink" width="24" height="24" viewBox="0 0 24 24"><path fill="currentColor" d="M14.75 20.5a.75.75 0 0 1 0 1.5h-12a.75.75 0 0 1 0-1.5zM2.22 2.22a.75.75 0 0 1 1.06 0l18.5 18.5l.051.056a.75.75 0 0 1-1.055 1.055l-.056-.05L16.94 18h-6.607l.79-1.5h4.317l-2.5-2.5h-1.632l-1.894 3.6a.75.75 0 0 1-1.328 0L6.19 14H4.25A2.25 2.25 0 0 1 2 11.75v-7.5c0-.347.08-.675.22-.969a.75.75 0 0 1 0-1.061M7.167 18H2.75a.75.75 0 0 1 0-1.5h3.628zm14.083-1.5a.75.75 0 0 1 0 1.5h-.068l-1.5-1.5zm-8-14.5a2.25 2.25 0 0 1 2.25 2.25v7.5a2.3 2.3 0 0 1-.06.508l-3.54-3.54c.332-.657.6-1.49.6-2.468a.75.75 0 0 0-.75-.75h-1.5a.75.75 0 0 0-.75.75v.068L5.182 2zM5.5 7.25a.75.75 0 0 0 1.135.644A4.7 4.7 0 0 1 5.72 9.22a.75.75 0 1 0 1.06 1.06c.22-.219.657-.7 1.036-1.403L5.5 6.561z"/></svg>