<svg xmlns="http://www.w3.org/2000/svg" xmlns:xlink="http://www.w3.org/1999/xlink" width="32" height="32" viewBox="0 0 32 32"><path fill="currentColor" d="M2.293 2.293a1 1 0 0 1 1.414 0l26 26l.07.076a1 1 0 0 1-1.408 1.407l-.076-.069L22.586 24h-8.27l1.199-2h5.07l-3-3h-2.019l-2.709 4.515a1 1 0 0 1-1.64.107l-.074-.107L8.433 19H5.25A3.25 3.25 0 0 1 2 15.75V5.25c0-.533.129-1.036.356-1.48l-.063-.063a1 1 0 0 1 0-1.414M21 27a1 1 0 1 1 0 2H3a1 1 0 1 1 0-2zM9.685 24H3a1 1 0 1 1 0-2h5.485zM29 22a1 1 0 1 1 0 2h-1.463l-2-2zM18.75 2A3.25 3.25 0 0 1 22 5.25v10.5c0 .76-.264 1.458-.701 2.012l-5.44-5.44C16.444 11.367 17 9.942 17 8a1 1 0 0 0-.898-.995L16 7h-2a1 1 0 0 0-1 1v1.463L5.536 2zM7 10a.997.997 0 0 0 1.343.937a4.4 4.4 0 0 1-.752 1.082a3 3 0 0 1-.192.181a1 1 0 0 0 1.2 1.6l.005-.003l.004-.003l.012-.009l.031-.025l.093-.078c.075-.066.175-.159.29-.279c.23-.24.526-.592.818-1.066q.192-.315.373-.698L7 8.414z"/></svg>