<svg xmlns="http://www.w3.org/2000/svg" xmlns:xlink="http://www.w3.org/1999/xlink" width="20" height="20" viewBox="0 0 20 20"><path fill="currentColor" d="M12.5 17a.5.5 0 0 1 0 1h-10a.5.5 0 0 1 0-1zM2.146 2.146a.5.5 0 0 1 .708 0l15 15l.064.079a.5.5 0 0 1-.693.693l-.079-.064L14.294 15H8.935l.54-1h3.818l-2.021-2.021q-.134.02-.272.021H9.42l-1.48 2.738a.5.5 0 0 1-.878.002L5.562 12H4a2 2 0 0 1-2-2V4c0-.37.102-.717.278-1.015l-.132-.131a.5.5 0 0 1 0-.708M6.063 15H2.5a.5.5 0 0 1 0-1h3.017zM17.5 14a.5.5 0 0 1 0 1h-.379l-1-1zM3.034 3.741A1 1 0 0 0 3 4v6a1 1 0 0 0 1 1h1.858a.5.5 0 0 1 .439.26l1.2 2.194l1.186-2.192a.5.5 0 0 1 .44-.262h1.17L6.685 7.392c-.246.711-.584 1.214-.831 1.462a.5.5 0 1 1-.708-.708c.15-.15.451-.579.653-1.245A.5.5 0 0 1 5 6.5v-.793zM11 2a2 2 0 0 1 2 2v6c0 .26-.052.508-.143.736L12 9.88V4a1 1 0 0 0-1-1H5.121l-1-1zM9.5 5a.5.5 0 0 1 .5.5a5.7 5.7 0 0 1-.358 2.02L8 5.88V5.5a.5.5 0 0 1 .5-.5z"/></svg>