<svg xmlns="http://www.w3.org/2000/svg" xmlns:xlink="http://www.w3.org/1999/xlink" width="24" height="24" viewBox="0 0 24 24"><path fill="currentColor" d="M3.28 2.22a.75.75 0 1 0-1.06 1.06l2.26 2.262a5.7 5.7 0 0 0-1.096.455a.75.75 0 1 0 .725 1.313a4.5 4.5 0 0 1 1.638-.501l1.996 1.996c-1.093-.154-2.49-.146-3.796.48c-1.586.76-2.13 2.316-1.902 3.696c.224 1.357 1.216 2.667 2.8 2.952c1.43.257 2.805-.256 3.757-.761q.21-.111.396-.223v.3a.75.75 0 0 0 1.5 0v-3.69l2.297 2.298a5.1 5.1 0 0 0-.842 1.155c-.614 1.165-.661 2.556.205 3.442c.572.585 1.408.64 2.13.486a4.7 4.7 0 0 0 1.24-.474l.017.046a.75.75 0 0 0 1.418-.487l.874.874a.748.748 0 0 0 .932 1.05q.043-.015.085-.033l1.864 1.864a.75.75 0 0 0 1.061-1.06zm11.262 13.383l.022.124c.094.519.236.974.386 1.372c-.305.172-.631.3-.977.374c-.485.104-.687-.011-.742-.068c-.239-.244-.393-.852.05-1.695c.137-.26.327-.529.576-.792zm5.705 1.266q-.03.064-.067.13l1.088 1.087q.188-.273.33-.563a3.98 3.98 0 0 0 .153-3.128a4.04 4.04 0 0 0-2.504-2.423q.003-.111.002-.222a.75.75 0 0 0-1.5-.027a6 6 0 0 0-1.671.238q.093-.682.257-1.5c1.184-.09 2.363-.253 3.336-.481a.75.75 0 1 0-.343-1.46c-.768.18-1.69.318-2.638.406c.086-.33.181-.67.27-.94a.75.75 0 0 0-1.423-.472a21 21 0 0 0-.42 1.512c-.736.025-1.445.018-2.067-.024a.75.75 0 0 0-.614.252l1.28 1.28c.345.008.707.009 1.076.001q-.09.48-.156.919l1.928 1.928a4.5 4.5 0 0 1 1.031-.16a6.4 6.4 0 0 1-.274.917l1.144 1.144a8 8 0 0 0 .601-1.766c.638.312 1.07.835 1.278 1.4a2.48 2.48 0 0 1-.097 1.952M7.808 10.334c.483.086.898.206 1.19.304v2.506l-.105.079a8 8 0 0 1-.993.624c-.84.446-1.85.779-2.788.61c-.845-.152-1.445-.866-1.586-1.72c-.138-.831.179-1.673 1.07-2.1c1.037-.497 2.226-.478 3.212-.303"/></svg>