<svg xmlns="http://www.w3.org/2000/svg" xmlns:xlink="http://www.w3.org/1999/xlink" width="16" height="16" viewBox="0 0 16 16"><path fill="currentColor" d="M12.5 4a.5.5 0 0 0 .5-.5v-2a.5.5 0 0 0-1 0v.755A6.964 6.964 0 0 0 8.538 1.02a.5.5 0 0 0-.076.998c1.05.08 2.026.43 2.856.982H10.5a.5.5 0 0 0 0 1h2ZM5.493 2.797a3.707 3.707 0 0 0-1.923-.038a3.773 3.773 0 0 0-.748.269l-.048.025l-.015.008l-.006.003l-.001.001l-.002.001a.5.5 0 0 0 .495.87l.003-.003a2.774 2.774 0 0 1 .559-.202a2.707 2.707 0 0 1 1.404.025c.405.119.578.34.673.61c.078.222.103.476.11.754a8.323 8.323 0 0 0-.659-.099c-.689-.074-1.655-.084-2.363.35c-1.46.894-1.247 3.178.454 3.7c.761.235 1.5.055 2.07-.186a5.56 5.56 0 0 0 .502-.244v.355a.5.5 0 1 0 1 0v-3.56c0-.38 0-.916-.171-1.404c-.192-.544-.593-1.019-1.334-1.236Zm.505 4.678a5.9 5.9 0 0 1-.89.488c-.469.198-.947.288-1.389.153c-.84-.259-.984-1.428-.225-1.893c.401-.246 1.067-.28 1.734-.207c.297.032.567.082.77.126v1.333Zm5.488-1.37a.5.5 0 0 0-.978-.21c-.07.33-.132.648-.185.956c-.442.016-.878.012-1.292-.017a.5.5 0 1 0-.068.998c.39.027.797.034 1.21.024c-.05.402-.085.783-.107 1.142c-.907.424-1.51 1.027-1.83 1.673c-.395.802-.36 1.725.2 2.299c.38.386.924.428 1.398.322c.215-.047.434-.128.651-.238l.044.12a.5.5 0 0 0 .937-.349a5.044 5.044 0 0 1-.122-.37c.716-.65 1.338-1.643 1.564-2.916c.103.026.198.059.285.096c.44.19.705.527.808.915c.206.774-.225 1.922-1.683 2.483a.5.5 0 0 0 .359.934c1.834-.706 2.653-2.308 2.29-3.673a2.363 2.363 0 0 0-1.377-1.577a2.917 2.917 0 0 0-.593-.182V8.5a.5.5 0 0 0-1-.018a5.184 5.184 0 0 0-.901.151c.023-.266.054-.546.093-.838a14.317 14.317 0 0 0 1.923-.308a.5.5 0 0 0-.229-.974c-.484.114-1.003.202-1.53.26c.04-.217.084-.44.133-.668Zm-2.353 5.009c.158-.32.446-.664.906-.962c.012.751.084 1.382.184 1.903c-.22.136-.428.222-.607.261c-.298.067-.425-.005-.464-.046c-.176-.18-.289-.609-.019-1.156Zm2.765-1.618a4.241 4.241 0 0 1-.789 1.743a11.77 11.77 0 0 1-.07-1.55l.121-.036a4.48 4.48 0 0 1 .738-.157ZM4.682 13H5.5a.5.5 0 0 0 0-1h-2a.5.5 0 0 0-.5.5v2a.5.5 0 0 0 1 0v-.755a6.963 6.963 0 0 0 3.462 1.235a.5.5 0 1 0 .076-.997A5.963 5.963 0 0 1 4.682 13Z"/></svg>