<svg xmlns="http://www.w3.org/2000/svg" xmlns:xlink="http://www.w3.org/1999/xlink" width="20" height="20" viewBox="0 0 20 20"><path fill="currentColor" d="M10.528 1.015a.5.5 0 0 0-.058.999A7.97 7.97 0 0 1 15.292 4H14.5a.5.5 0 0 0 0 1h2a.5.5 0 0 0 .5-.5v-2a.5.5 0 0 0-1 0v.792a8.97 8.97 0 0 0-5.472-2.277M5.5 16h-.792a7.97 7.97 0 0 0 4.82 1.986a.5.5 0 0 1-.058.999A8.97 8.97 0 0 1 4 16.708v.792a.5.5 0 1 1-1 0v-2a.5.5 0 0 1 .5-.5h2a.5.5 0 0 1 0 1M6.92 4.216a5.04 5.04 0 0 0-3.679.329a4 4 0 0 0-.297.168l-.02.013l-.006.004l-.002.001l-.002.002a.5.5 0 0 0 .566.824h-.001l.007-.004l.038-.024q.056-.033.17-.093a4.04 4.04 0 0 1 2.947-.26c.712.21 1.026.593 1.186.985c.155.38.176.797.178 1.172c-.543-.149-1.212-.296-1.921-.325c-1.036-.043-2.197.163-3.207 1.003c-.888.74-1.094 1.871-.807 2.842a2.97 2.97 0 0 0 2.248 2.082c.906.188 1.862-.07 2.642-.414a8 8 0 0 0 1.046-.554v.533a.5.5 0 1 0 1 0V7.445c0-.392 0-1.04-.253-1.661c-.272-.668-.82-1.272-1.832-1.569m1.086 4.156v2.385a7.6 7.6 0 0 1-1.448.849c-.705.31-1.43.476-2.037.35A1.97 1.97 0 0 1 3.03 10.57c-.194-.658-.041-1.35.488-1.79c.763-.634 1.652-.81 2.525-.773c.722.03 1.406.202 1.964.365m6.16-2.343a.5.5 0 0 1 .304.638c-.12.341-.252.81-.353 1.194a23 23 0 0 0 1.77-.348a.5.5 0 0 1 .225.974c-.774.18-1.502.326-2.24.416q-.144.68-.227 1.247A5.4 5.4 0 0 1 15 10.02V10a.5.5 0 0 1 1 0q0 .085-.002.169c1.142.31 1.98 1.071 2.346 2.057c.614 1.66-.215 3.653-2.64 4.731a.5.5 0 1 1-.407-.914c2.074-.921 2.495-2.428 2.11-3.47c-.22-.589-.729-1.124-1.494-1.386c-.23 1.537-.892 2.76-1.684 3.606c.084.173.167.35.236.522a.5.5 0 1 1-.93.37a5 5 0 0 0-.087-.205c-.42.3-.857.507-1.277.604c-.576.132-1.208.068-1.637-.39c-.644-.689-.69-1.833-.248-2.853c.38-.876 1.133-1.723 2.3-2.3c.053-.468.134-.982.248-1.552c-.441.019-.893.014-1.368-.018a.5.5 0 1 1 .068-.997c.53.035 1.03.034 1.523.002a20 20 0 0 1 .472-1.643a.5.5 0 0 1 .638-.304M12.5 11.74c-.657.441-1.074.981-1.297 1.498c-.35.805-.215 1.477.06 1.772c.094.1.299.186.683.098c.311-.072.684-.252 1.066-.551a6 6 0 0 1-.381-1.205a7.5 7.5 0 0 1-.13-1.612m1.28 2.039c.535-.684.978-1.613 1.147-2.763c-.389-.01-.816.04-1.282.162l-.12.043c-.06.833-.011 1.45.086 1.935c.046.23.104.434.17.623"/></svg>