<svg xmlns="http://www.w3.org/2000/svg" xmlns:xlink="http://www.w3.org/1999/xlink" width="24" height="24" viewBox="0 0 24 24"><path fill="currentColor" d="M14 3.5v2h3.5v-2zm-1.5-.25c0-.69.56-1.25 1.25-1.25h4c.69 0 1.25.56 1.25 1.25v2.5C19 6.44 18.44 7 17.75 7h-4c-.69 0-1.25-.56-1.25-1.25zm2.72 5.47a.75.75 0 0 1 1.06 0l2.5 2.5a.75.75 0 1 1-1.06 1.06l-1.22-1.22v6.69a.75.75 0 0 1-1.5 0v-6.69l-1.22 1.22a.75.75 0 1 1-1.06-1.06zM6.5 15v2H10v-2zM5 14.75c0-.69.56-1.25 1.25-1.25h4c.69 0 1.25.56 1.25 1.25v2.5c0 .69-.56 1.25-1.25 1.25h-4c-.69 0-1.25-.56-1.25-1.25zM2.75 16a.75.75 0 0 1 .75.75v2c0 .69.56 1.25 1.25 1.25h14.5c.69 0 1.25-.56 1.25-1.25v-2a.75.75 0 0 1 1.5 0v2a2.75 2.75 0 0 1-2.75 2.75H4.75A2.75 2.75 0 0 1 2 18.75v-2a.75.75 0 0 1 .75-.75"/></svg>