<svg xmlns="http://www.w3.org/2000/svg" xmlns:xlink="http://www.w3.org/1999/xlink" width="24" height="24" viewBox="0 0 24 24"><path d="M12 2.001a4 4 0 0 1 3.771 2.666a1 1 0 0 1-1.84.774l-.045-.107a2 2 0 0 0-3.88.517L10.002 6v1.999L17.75 8a2.25 2.25 0 0 1 2.245 2.096l.005.154v9.496a2.25 2.25 0 0 1-2.096 2.245l-.154.005H6.25A2.25 2.25 0 0 1 4.005 19.9L4 19.746V10.25a2.25 2.25 0 0 1 2.096-2.245L6.25 8l1.751-.001V6A3.999 3.999 0 0 1 12 2.001zM12 13.5a1.499 1.499 0 1 0 0 2.997a1.499 1.499 0 0 0 0-2.997z" fill="currentColor" fill-rule="nonzero"/></svg>