<svg xmlns="http://www.w3.org/2000/svg" xmlns:xlink="http://www.w3.org/1999/xlink" width="24" height="24" viewBox="0 0 24 24"><path fill="currentColor" d="M16.585 13.524c.264-.447.415-.968.415-1.524s-.151-1.077-.415-1.524L17.78 9.28a.75.75 0 0 0-1.06-1.06l-1.196 1.195A3 3 0 0 0 14 9c-.556 0-1.077.151-1.524.415L11.28 8.22a.75.75 0 1 0-1.06 1.06l1.195 1.196A3 3 0 0 0 11 12c0 .556.151 1.077.415 1.524L10.22 14.72a.75.75 0 1 0 1.06 1.06l1.196-1.195c.447.264.968.415 1.524.415s1.077-.151 1.524-.415l1.196 1.195a.75.75 0 1 0 1.06-1.06zM14 13.5a1.5 1.5 0 1 1 0-3a1.5 1.5 0 0 1 0 3M6.5 7.75a.75.75 0 0 0-1.5 0v8.5a.75.75 0 0 0 1.5 0zm-4.5 0A3.75 3.75 0 0 1 5.75 4h12.5A3.75 3.75 0 0 1 22 7.75v8.5A3.75 3.75 0 0 1 18.25 20H5.75A3.75 3.75 0 0 1 2 16.25zM5.75 5.5A2.25 2.25 0 0 0 3.5 7.75v8.5a2.25 2.25 0 0 0 2.25 2.25h12.5a2.25 2.25 0 0 0 2.25-2.25v-8.5a2.25 2.25 0 0 0-2.25-2.25z"/></svg>