<svg xmlns="http://www.w3.org/2000/svg" xmlns:xlink="http://www.w3.org/1999/xlink" width="32" height="32" viewBox="0 0 32 32"><path fill="currentColor" d="M15 5a1 1 0 1 0 0 2h1.746a1 1 0 0 1 .9.564l1.714 3.542A3.5 3.5 0 0 0 18.5 11h-.843a5.3 5.3 0 0 0-4.74 2.929L11.883 16H6.5a5.5 5.5 0 1 0 5.293 7h1.544a4.5 4.5 0 0 0 4.025-2.488l.506-1.012h-6.243a5.5 5.5 0 0 0-.882-1.5h7.875l.001-.002a3.5 3.5 0 0 0 3.076-2.066l.549 1.135a5.5 5.5 0 1 0 1.8-.872l-.667-1.38c.352.12.73.185 1.123.185H27a1 1 0 0 0 1-1V9a1 1 0 0 0-1-1h-2.5c-1.52 0-2.814.97-3.297 2.323l-1.757-3.63A3 3 0 0 0 16.746 5zm8.139 13.916l1.46 3.02a1 1 0 0 0 1.801-.872l-1.461-3.02Q25.214 18 25.5 18a3.5 3.5 0 1 1-2.361.916M3 21.5a3.5 3.5 0 1 1 7 0a3.5 3.5 0 0 1-7 0m20-10a1.5 1.5 0 0 1 1.5-1.5H26v3h-1.5a1.5 1.5 0 0 1-1.5-1.5"/></svg>