<svg xmlns="http://www.w3.org/2000/svg" xmlns:xlink="http://www.w3.org/1999/xlink" width="24" height="24" viewBox="0 0 24 24"><path fill="currentColor" d="M12 6.5a5.5 5.5 0 1 1-11 0a5.5 5.5 0 0 1 11 0M5.854 8.854l4-4a.5.5 0 0 0-.708-.708L5.5 7.793L3.854 6.146a.5.5 0 1 0-.708.708l2 2a.5.5 0 0 0 .708 0M14.25 4.5h-1.563a6.5 6.5 0 0 0-.709-1.5h2.272a2.25 2.25 0 0 1 2.25 2.25V6h1.55c.87 0 1.662.501 2.034 1.287l1.7 3.587c.142.301.216.63.216.963v5.413a2.25 2.25 0 0 1-2.25 2.25h-1.791a3 3 0 0 1-5.917 0H9.958a3 3 0 0 1-5.92-.01A2.25 2.25 0 0 1 2 17.25v-6.06c.444.427.949.79 1.5 1.078v4.982a.75.75 0 0 0 .672.746A3.001 3.001 0 0 1 9.83 18h2.342A3 3 0 0 1 15 16V5.25a.75.75 0 0 0-.75-.75M17.83 18h1.92a.75.75 0 0 0 .75-.75V17h-1.25a.75.75 0 0 1 0-1.5h1.25v-3h-4v3.901A3 3 0 0 1 17.83 18M16.5 7.5V11h3.683L18.73 7.929a.75.75 0 0 0-.678-.429zM7 20.5a1.5 1.5 0 1 0 0-3a1.5 1.5 0 0 0 0 3m9.5-1.5a1.5 1.5 0 1 0-3 0a1.5 1.5 0 0 0 3 0"/></svg>