<svg xmlns="http://www.w3.org/2000/svg" xmlns:xlink="http://www.w3.org/1999/xlink" width="32" height="32" viewBox="0 0 32 32"><path fill="currentColor" d="M2 6.25A3.25 3.25 0 0 1 5.25 3h13.5A3.25 3.25 0 0 1 22 6.25V7h2.516c1.3 0 2.475.775 2.988 1.97l2.233 5.212c.174.404.263.84.263 1.28v7.288A3.25 3.25 0 0 1 26.75 26h-2.876a4.002 4.002 0 0 1-7.748 0h-2.252a4.002 4.002 0 0 1-7.748 0H5.25A3.25 3.25 0 0 1 2 22.75zM18.268 26A2 2 0 0 0 22 25a2 2 0 1 0-3.732 1M10 27a2 2 0 1 0 0-4a2 2 0 1 0 0 4m12-13h5.483l-1.818-4.242A1.25 1.25 0 0 0 24.516 9H22zm4 6a1 1 0 1 0 0 2h2v-2z"/></svg>