<svg xmlns="http://www.w3.org/2000/svg" xmlns:xlink="http://www.w3.org/1999/xlink" width="32" height="32" viewBox="0 0 32 32"><path fill="currentColor" d="M5.25 3A3.25 3.25 0 0 0 2 6.25v16.5A3.25 3.25 0 0 0 5.25 26h.876a4.002 4.002 0 0 0 7.748 0h2.252a4.002 4.002 0 0 0 7.748 0h2.876A3.25 3.25 0 0 0 30 22.75v-7.288c0-.44-.09-.876-.263-1.28L27.504 8.97A3.25 3.25 0 0 0 24.516 7H22v-.75A3.25 3.25 0 0 0 18.75 3zm18.624 21A4 4 0 0 0 22 21.535V16h6v4h-2a1 1 0 1 0 0 2h2v.75c0 .69-.56 1.25-1.25 1.25zM20 21a4 4 0 0 0-3.874 3h-2.252a4.002 4.002 0 0 0-7.748 0H5.25C4.56 24 4 23.44 4 22.75V6.25C4 5.56 4.56 5 5.25 5h13.5c.69 0 1.25.56 1.25 1.25zm-1.732 3A2 2 0 0 1 22 25a2 2 0 1 1-4 0c0-.364.097-.706.268-1M10 27a2 2 0 1 1-.002-3.998A2 2 0 0 1 10 27m12-13V9h2.516c.5 0 .952.298 1.15.758L27.482 14z"/></svg>