<svg xmlns="http://www.w3.org/2000/svg" xmlns:xlink="http://www.w3.org/1999/xlink" width="48" height="48" viewBox="0 0 48 48"><path fill="currentColor" d="M4 10.25A4.25 4.25 0 0 1 8.25 6h20.5A4.25 4.25 0 0 1 33 10.25V12h3.31c1.673 0 3.19.98 3.876 2.506l3.44 7.644A4.25 4.25 0 0 1 44 23.894V34.75A4.25 4.25 0 0 1 39.75 39h-3.833a6.002 6.002 0 0 1-11.834 0h-4.166a6.002 6.002 0 0 1-11.835-.003A4.25 4.25 0 0 1 4 34.75zM26.645 39a3.502 3.502 0 0 0 6.855-1a3.5 3.5 0 1 0-6.855 1M14 41.5a3.5 3.5 0 0 0 3.5-3.5a3.5 3.5 0 1 0-3.5 3.5M41.5 31h-3.25a1.25 1.25 0 1 0 0 2.5h3.25zM33 22h7.817l-2.91-6.468A1.75 1.75 0 0 0 36.31 14.5H33z"/></svg>