<svg xmlns="http://www.w3.org/2000/svg" xmlns:xlink="http://www.w3.org/1999/xlink" width="20" height="20" viewBox="0 0 20 20"><path fill="currentColor" d="M4.297 4.671A2 2 0 0 1 6.269 3h2.459a2 2 0 0 1 1.973 1.671L11.256 8H13V6a.5.5 0 0 1 1 0v2h1a3 3 0 0 1 3 3v1q-.002.359-.081.694A3 3 0 1 1 13 15h-2.416a5.001 5.001 0 1 1-6.94-6.411zM10.84 9H9a4.99 4.99 0 0 1 1.9 5h2.27a3 3 0 0 1 3.822-1.832A2 2 0 0 0 17 12v-1a2 2 0 0 0-2-2zM9.714 4.836A1 1 0 0 0 8.728 4H6.269a1 1 0 0 0-.986.836l-.555 3.327A5 5 0 0 1 6 8h4.242zM6 9a4 4 0 1 0 0 8a4 4 0 0 0 0-8m8 6a2 2 0 1 0 4 0a2 2 0 0 0-4 0"/></svg>