<svg xmlns="http://www.w3.org/2000/svg" xmlns:xlink="http://www.w3.org/1999/xlink" width="20" height="20" viewBox="0 0 20 20"><path fill="currentColor" d="M10.5 4A2.5 2.5 0 0 1 13 6.5v7a2.5 2.5 0 0 1-2 2.45V12.5A3.5 3.5 0 0 0 7.5 9h-4c-.537 0-1.045.12-1.5.337V6.5A2.5 2.5 0 0 1 4.5 4zm3.5 8.082V7.93l2.77-2.313a.75.75 0 0 1 1.23.575v7.668a.75.75 0 0 1-1.236.57zM1 12.5A2.5 2.5 0 0 1 3.5 10h4a2.5 2.5 0 0 1 2.5 2.5v4A2.5 2.5 0 0 1 7.5 19h-4A2.5 2.5 0 0 1 1 16.5zm4.02.034a.45.45 0 0 0-.447-.037a.5.5 0 0 0-.156.108a.5.5 0 0 0-.145.357v3.075a.5.5 0 0 0 .145.358a.6.6 0 0 0 .158.11a.45.45 0 0 0 .323.02a.5.5 0 0 0 .13-.064l2.296-1.567a.47.47 0 0 0 .163-.185a.54.54 0 0 0-.003-.487a.5.5 0 0 0-.168-.182z"/></svg>