<svg xmlns="http://www.w3.org/2000/svg" xmlns:xlink="http://www.w3.org/1999/xlink" width="20" height="20" viewBox="0 0 20 20"><path fill="currentColor" d="m3.305 4.013l-1.159-1.16a.5.5 0 1 1 .708-.707l15 15a.5.5 0 0 1-.708.708L15.293 16H3.5A1.5 1.5 0 0 1 2 14.5v-9a1.5 1.5 0 0 1 1.305-1.487M12.293 13H7.5a.5.5 0 0 0-.5.5V15h6v-1.293zm-1-1l-1.015-1.015Q10.14 11 10 11a2.5 2.5 0 0 1-2.485-2.778L4.293 5H3.5a.5.5 0 0 0-.5.5v9a.5.5 0 0 0 .5.5H6v-1.5A1.5 1.5 0 0 1 7.5 12zM8.57 6.449l.726.726a1.5 1.5 0 0 1 2.029 2.029l.726.726a2.5 2.5 0 0 0-3.48-3.48m9.05 9.05l-.711-.711A.5.5 0 0 0 17 14.5v-1.6q.239.099.502.1c.173 0 .341-.021.498-.079V14.5c0 .383-.144.733-.38.998M6.12 4l1 1h2.97a1.4 1.4 0 0 1-.09-.504q0-.26.088-.496zm9.105-1.647l-.348-1.07a.423.423 0 0 0-.799 0l-.348 1.07a2.2 2.2 0 0 1-1.377 1.397l-1.071.348a.423.423 0 0 0 0 .798l1.071.348a2.2 2.2 0 0 1 1.399 1.403l.348 1.07a.423.423 0 0 0 .798 0l.349-1.07a2.2 2.2 0 0 1 1.398-1.397l1.072-.348a.423.423 0 0 0 0-.798l-.022-.006l-1.072-.348a2.2 2.2 0 0 1-1.398-1.397m3.791 6.612l.766.248l.015.004a.303.303 0 0 1 0 .57l-.765.248a1.58 1.58 0 0 0-1 .999l-.248.764a.302.302 0 0 1-.57 0l-.249-.764a1.58 1.58 0 0 0-.999-1.002l-.765-.249a.303.303 0 0 1 0-.57l.765-.248a1.58 1.58 0 0 0 .984-.999l.249-.764a.302.302 0 0 1 .57 0l.249.764a1.58 1.58 0 0 0 .999.999"/></svg>