<svg xmlns="http://www.w3.org/2000/svg" xmlns:xlink="http://www.w3.org/1999/xlink" width="48" height="48" viewBox="0 0 48 48"><path fill="currentColor" d="M12.25 7a6.25 6.25 0 0 0-6.164 5.216a3.25 3.25 0 0 1 2.535.087a3.75 3.75 0 0 1 3.63-2.803h15.5a3.75 3.75 0 0 1 3.75 3.75v15.5a3.75 3.75 0 0 1-3.75 3.75h-9.434a3.25 3.25 0 0 1-.144 2.5h9.578A6.25 6.25 0 0 0 34 28.75v-1.101l6.907 4.769c2.155 1.488 5.096-.055 5.096-2.675V12.256c0-2.62-2.94-4.163-5.096-2.675L34 14.351V13.25A6.25 6.25 0 0 0 27.75 7zM34 17.388l8.328-5.75a.75.75 0 0 1 1.176.618v17.487a.75.75 0 0 1-1.176.617l-8.327-5.75zM8.085 14.32A1.25 1.25 0 0 0 6 15.25v9.654l-3.489-2.677A1.25 1.25 0 1 0 .989 24.21L5.928 28L.989 31.79a1.25 1.25 0 1 0 1.522 1.983l3.49-2.677v9.654a1.25 1.25 0 0 0 2.083.93l8-7.171a1.25 1.25 0 0 0-.073-1.922L10.034 28l5.977-4.586a1.25 1.25 0 0 0 .073-1.923zm5.21 19.334L8.5 37.95v-7.977zM8.5 18.049l4.794 4.298L8.5 26.026z"/></svg>