<svg xmlns="http://www.w3.org/2000/svg" xmlns:xlink="http://www.w3.org/1999/xlink" width="48" height="48" viewBox="0 0 48 48"><path fill="currentColor" d="M8.5 15.25A6.25 6.25 0 0 1 14.75 9h12.5a6.25 6.25 0 0 1 6.25 6.25v.012l5.416-3.692c2.157-1.471 5.08.074 5.08 2.685v14.49c0 2.612-2.923 4.157-5.08 2.686L33.5 27.739v.011A6.25 6.25 0 0 1 27.25 34h-12.5a6.25 6.25 0 0 1-6.25-6.25zm25 9.463l6.824 4.652a.75.75 0 0 0 1.172-.62v-14.49a.75.75 0 0 0-1.172-.62L33.5 18.287zM14.75 11.5A3.75 3.75 0 0 0 11 15.25v12.5a3.75 3.75 0 0 0 3.75 3.75h12.5A3.75 3.75 0 0 0 31 27.75v-12.5a3.75 3.75 0 0 0-3.75-3.75zM6.5 15.25q0-.258.016-.512A6.24 6.24 0 0 0 4 19.75v8C4 33.687 8.813 38.5 14.75 38.5h8a6.24 6.24 0 0 0 5.012-2.516q-.255.015-.512.016h-12.5a8.25 8.25 0 0 1-8.25-8.25z"/></svg>