<svg xmlns="http://www.w3.org/2000/svg" xmlns:xlink="http://www.w3.org/1999/xlink" width="20" height="20" viewBox="0 0 20 20"><path fill="currentColor" d="M1 4.5A2.5 2.5 0 0 1 3.5 2h11A2.5 2.5 0 0 1 17 4.5v3.882a1.5 1.5 0 0 0-2.489.935l-.097.791a1.5 1.5 0 0 1-1.306 1.306l-.791.097a1.5 1.5 0 0 0 0 2.978l.064.008L10.877 16H3.5A2.5 2.5 0 0 1 1 13.5zm10.765 4.078l-4-2.502A.5.5 0 0 0 7 6.5v5.15a.5.5 0 0 0 .776.417l4-2.649a.5.5 0 0 0-.01-.84m4.731.86a.5.5 0 0 0-.992 0l-.098.792a2.5 2.5 0 0 1-2.176 2.176l-.791.098a.5.5 0 0 0 0 .992l.791.098a2.5 2.5 0 0 1 2.176 2.176l.098.791a.5.5 0 0 0 .992 0l.098-.791a2.5 2.5 0 0 1 2.175-2.176l.792-.098a.5.5 0 0 0 0-.992l-.791-.098a2.5 2.5 0 0 1-2.176-2.176zM14.597 13A3.5 3.5 0 0 0 16 11.597c.322.593.81 1.08 1.403 1.403c-.593.322-1.08.81-1.403 1.403A3.5 3.5 0 0 0 14.597 13m-.744 2.854a.5.5 0 0 0-.707-.708l-4 3.997a.5.5 0 1 0 .707.707z"/></svg>