<svg xmlns="http://www.w3.org/2000/svg" xmlns:xlink="http://www.w3.org/1999/xlink" width="28" height="28" viewBox="0 0 28 28"><path fill="currentColor" d="M4 7.75A3.75 3.75 0 0 1 7.75 4h7.5A3.75 3.75 0 0 1 19 7.75v8.5A3.75 3.75 0 0 1 15.25 20H9.585l.158-.281a2 2 0 0 0 .257-.98V14.57a2 2 0 0 0-1-1.732V11q0-.082-.007-.165A2 2 0 0 0 7 9H4zm20.252 10.933L20 15.747V8.25l4.252-2.936c1.16-.802 2.744.03 2.744 1.44v10.49c0 1.41-1.583 2.241-2.744 1.44M2.5 21.667V24a1 1 0 0 0 1 1h3a1 1 0 0 0 1-1v-2.333l1.372-2.439a1 1 0 0 0 .128-.49v-4.167a1 1 0 0 0-1-1V11l-.003-.083A1 1 0 0 0 7 10H3a1 1 0 0 0-1 1v2.571a1 1 0 0 0-1 1v4.167a1 1 0 0 0 .128.49zm1-10.167h3v2.071h-3z"/></svg>