<svg xmlns="http://www.w3.org/2000/svg" xmlns:xlink="http://www.w3.org/1999/xlink" width="28" height="28" viewBox="0 0 28 28"><path fill="currentColor" d="M6.44 4L2 8.44v2.12L8.56 4zM2 13.94v2.12L14.06 4h-2.12zm0 7.31q0 .15.016.295l7.983-7.983a4.5 4.5 0 0 1-.48-1.642L2 19.44zM14.42 7.02a4.5 4.5 0 0 1 1.642.479L19.56 4h-2.122zM7 19.94l-3.668 3.667c.414.25.9.393 1.418.393h.31L7 22.06zm11.918-4.297A3 3 0 0 0 18 15.5h-1.06l9.044-9.045Q26 6.6 26 6.75v1.81zM21 19.061V18.5c0-.456-.102-.89-.284-1.276L26 11.939v2.122zM21 24h.56L26 19.56v-2.12l-5 5zm-2.582-13.358a4.5 4.5 0 0 0-.598-1.522L22.94 4h.31c.519 0 1.004.144 1.418.393zM8 18.5V24h12v-5.5a2 2 0 0 0-2-2h-8a2 2 0 0 0-2 2m6-3.5a3.5 3.5 0 1 0 0-7a3.5 3.5 0 0 0 0 7"/></svg>