<svg xmlns="http://www.w3.org/2000/svg" xmlns:xlink="http://www.w3.org/1999/xlink" width="16" height="16" viewBox="0 0 16 16"><path fill="currentColor" d="M5.5 4.82v4.36c0 .25.274.403.487.272l3.259-1.991a.54.54 0 0 0 0-.922l-3.26-1.991a.32.32 0 0 0-.486.273M3.5 2A2.5 2.5 0 0 0 1 4.5v5A2.5 2.5 0 0 0 3.5 12h5.378l.095-.095A1.5 1.5 0 0 1 8.086 11H3.5A1.5 1.5 0 0 1 2 9.5v-5A1.5 1.5 0 0 1 3.5 3h7A1.5 1.5 0 0 1 12 4.5v1.586a1.5 1.5 0 0 1 1 0V4.5A2.5 2.5 0 0 0 10.5 2zm9.496 5.439a.5.5 0 0 0-.992 0l-.09.734a2 2 0 0 1-1.741 1.74l-.734.09a.5.5 0 0 0 0 .993l.734.09a2 2 0 0 1 1.74 1.741l.09.734a.5.5 0 0 0 .993 0l.09-.734a2 2 0 0 1 1.741-1.74l.734-.09a.5.5 0 0 0 0-.993l-.734-.09a2 2 0 0 1-1.74-1.741zM11.474 10.5c.42-.253.773-.606 1.026-1.026c.253.42.606.773 1.026 1.026c-.42.253-.773.606-1.026 1.026a3 3 0 0 0-1.026-1.026m-.62 2.354a.5.5 0 0 0-.707-.708l-3 2.997a.5.5 0 1 0 .706.707z"/></svg>