<svg xmlns="http://www.w3.org/2000/svg" xmlns:xlink="http://www.w3.org/1999/xlink" width="28" height="28" viewBox="0 0 28 28"><path fill="currentColor" d="M8.754 6a3.75 3.75 0 0 0-3.75 3.75v6.5A3.75 3.75 0 0 0 8.754 20h6.5a3.75 3.75 0 0 0 3.75-3.75v-6.5A3.75 3.75 0 0 0 15.254 6zm-4.75 3.247A3.74 3.74 0 0 0 2.5 12.25v4a6.25 6.25 0 0 0 6.25 6.25h4c1.24 0 2.338-.601 3.021-1.528q-.255.027-.517.028H8.75A4.75 4.75 0 0 1 4 16.25v-4q0-.068.004-.134zm22-.244c0-1.592-1.769-2.545-3.099-1.67L20 9.243v7.513l2.905 1.911c1.33.875 3.1-.079 3.1-1.67z"/></svg>