<svg xmlns="http://www.w3.org/2000/svg" xmlns:xlink="http://www.w3.org/1999/xlink" width="28" height="28" viewBox="0 0 28 28"><path fill="currentColor" d="M7.75 3.5A4.25 4.25 0 0 0 3.5 7.75v1a.75.75 0 0 1-1.5 0v-1A5.75 5.75 0 0 1 7.75 2h1a.75.75 0 0 1 0 1.5zm0 21a4.25 4.25 0 0 1-4.25-4.25v-1a.75.75 0 0 0-1.5 0v1A5.75 5.75 0 0 0 7.75 26h1a.75.75 0 0 0 0-1.5zM24.5 7.75a4.25 4.25 0 0 0-4.25-4.25h-1a.75.75 0 0 1 0-1.5h1A5.75 5.75 0 0 1 26 7.75v1a.75.75 0 0 1-1.5 0zM20.25 24.5a4.25 4.25 0 0 0 4.25-4.25v-1a.75.75 0 0 1 1.5 0v1A5.75 5.75 0 0 1 20.25 26h-1a.75.75 0 0 1 0-1.5zM5.004 8.75A3.75 3.75 0 0 1 8.754 5H19.25A3.75 3.75 0 0 1 23 8.75v10.5A3.75 3.75 0 0 1 19.25 23H8.753a3.75 3.75 0 0 1-3.75-3.75zm5.246 9a1 1 0 0 0 1.472.882l7-3.75a1 1 0 0 0 0-1.762l-7-3.75a1 1 0 0 0-1.472.881z"/></svg>