<svg xmlns="http://www.w3.org/2000/svg" xmlns:xlink="http://www.w3.org/1999/xlink" width="24" height="24" viewBox="0 0 24 24"><path fill="currentColor" d="M5.25 5A3.25 3.25 0 0 0 2 8.25v3.56c.444-.426.949-.79 1.5-1.077V8.25c0-.966.784-1.75 1.75-1.75h7.5c.966 0 1.75.784 1.75 1.75v7.5a1.75 1.75 0 0 1-1.572 1.741A6.5 6.5 0 0 1 12.505 19h.245A3.25 3.25 0 0 0 16 15.75v-.312l3.258 2.25c1.16.8 2.744-.03 2.744-1.44V7.751c0-1.41-1.584-2.242-2.744-1.44L16 8.562V8.25A3.25 3.25 0 0 0 12.75 5zM16 10.384l4.11-2.838a.25.25 0 0 1 .392.206v8.495a.25.25 0 0 1-.392.206L16 13.615zM6.501 22.002A5.501 5.501 0 1 0 1.69 19.17l-.666 2.186a.5.5 0 0 0 .624.625l2.187-.666c.79.439 1.7.688 2.667.688m-2-6A.5.5 0 1 1 4.5 15h4a.5.5 0 1 1 0 1zm2 2h-2a.5.5 0 1 1 0-1h2a.5.5 0 1 1 0 1"/></svg>