<svg xmlns="http://www.w3.org/2000/svg" xmlns:xlink="http://www.w3.org/1999/xlink" width="16" height="16" viewBox="0 0 16 16"><path fill="currentColor" d="M7 7a2 2 0 1 0 0-4a2 2 0 0 0 0 4m0-1a1 1 0 1 1 0-2a1 1 0 0 1 0 2M0 2.75C0 1.784.784 1 1.75 1h10.5c.966 0 1.75.784 1.75 1.75V6.6a5.5 5.5 0 0 0-1-.393V2.75a.75.75 0 0 0-.75-.75H1.75a.75.75 0 0 0-.75.75v6.5c0 .414.336.75.75.75H4V9a1 1 0 0 1 1-1h2.257A5.5 5.5 0 0 0 6.6 9H5v1h1.207a5.5 5.5 0 0 0-.185 1H1.75A1.75 1.75 0 0 1 0 9.25zm16 8.75a4.5 4.5 0 1 1-9 0a4.5 4.5 0 0 1 9 0M11.5 9a.5.5 0 0 0-.5.5v2a.5.5 0 0 0 .5.5H13a.5.5 0 0 0 0-1h-1V9.5a.5.5 0 0 0-.5-.5"/></svg>