<svg xmlns="http://www.w3.org/2000/svg" xmlns:xlink="http://www.w3.org/1999/xlink" width="28" height="28" viewBox="0 0 28 28"><path fill="currentColor" d="M6.75 5A3.75 3.75 0 0 0 3 8.75v9.083a4.7 4.7 0 0 1 1.75-.333h5.5a4.75 4.75 0 0 1 4.584 3.5h.416q.36-.001.701-.065A3.75 3.75 0 0 0 19 17.25v-8.5A3.75 3.75 0 0 0 15.25 5zM20 16.747l4.252 2.936c1.16.801 2.744-.03 2.744-1.44V7.753c0-1.41-1.583-2.242-2.744-1.44L20 9.249zM4.75 20a2.25 2.25 0 0 0 0 4.5h.5a.75.75 0 0 1 0 1.5h-.5a3.75 3.75 0 1 1 0-7.5h.5a.75.75 0 0 1 0 1.5zM4 22.25a.75.75 0 0 1 .75-.75h5.5a.75.75 0 0 1 0 1.5h-5.5a.75.75 0 0 1-.75-.75m6.25 2.25a2.25 2.25 0 0 0 0-4.5h-.5a.75.75 0 0 1 0-1.5h.5a3.75 3.75 0 1 1 0 7.5h-.5a.75.75 0 0 1 0-1.5z"/></svg>