<svg xmlns="http://www.w3.org/2000/svg" xmlns:xlink="http://www.w3.org/1999/xlink" width="24" height="24" viewBox="0 0 24 24"><path fill="currentColor" d="M3 7.25A3.25 3.25 0 0 1 6.25 4h6.5A3.25 3.25 0 0 1 16 7.25v7.5a3.25 3.25 0 0 1-3.06 3.244A4.75 4.75 0 0 0 8.25 14h-3.5c-.618 0-1.208.118-1.75.333zm17.257 9.438L17 14.44V7.562l3.257-2.25c1.161-.8 2.745.03 2.745 1.441v8.495c0 1.41-1.584 2.242-2.745 1.44M12 18.75A3.75 3.75 0 0 0 8.25 15l-.102.007A.75.75 0 0 0 8.25 16.5l.154.005A2.25 2.25 0 0 1 8.25 21l-.003.005l-.102.007a.75.75 0 0 0 .108 1.493V22.5l.2-.005A3.75 3.75 0 0 0 12 18.75m-6.5-3a.75.75 0 0 0-.75-.75l-.2.005a3.75 3.75 0 0 0 .2 7.495l.102-.007A.75.75 0 0 0 4.75 21l-.154-.005A2.25 2.25 0 0 1 4.75 16.5l.102-.007a.75.75 0 0 0 .648-.743m3.5 3a.75.75 0 0 0-.75-.75h-3.5l-.102.007A.75.75 0 0 0 4.75 19.5h3.5l.102-.007A.75.75 0 0 0 9 18.75"/></svg>