<svg xmlns="http://www.w3.org/2000/svg" xmlns:xlink="http://www.w3.org/1999/xlink" width="28" height="28" viewBox="0 0 28 28"><path fill="currentColor" d="M6.75 5A3.75 3.75 0 0 0 3 8.75v9.083a4.7 4.7 0 0 1 1.5-.326V8.75A2.25 2.25 0 0 1 6.75 6.5h9.5a2.25 2.25 0 0 1 2.25 2.25v8.5a2.25 2.25 0 0 1-2.25 2.25h-2.127c.32.448.563.955.71 1.5h1.417A3.75 3.75 0 0 0 20 17.25v-.503l4.252 2.936c1.16.801 2.744-.03 2.744-1.44V7.753c0-1.41-1.584-2.242-2.744-1.44L20 9.249V8.75A3.75 3.75 0 0 0 16.25 5zM20 11.071l5.104-3.524a.25.25 0 0 1 .392.206v10.49a.25.25 0 0 1-.392.206L20 14.923zM4.75 20a2.25 2.25 0 0 0 0 4.5h.5a.75.75 0 0 1 0 1.5h-.5a3.75 3.75 0 1 1 0-7.5h.5a.75.75 0 0 1 0 1.5zM4 22.25a.75.75 0 0 1 .75-.75h5.5a.75.75 0 0 1 0 1.5h-5.5a.75.75 0 0 1-.75-.75m6.25 2.25a2.25 2.25 0 0 0 0-4.5h-.5a.75.75 0 0 1 0-1.5h.5a3.75 3.75 0 1 1 0 7.5h-.5a.75.75 0 0 1 0-1.5z"/></svg>