<svg xmlns="http://www.w3.org/2000/svg" xmlns:xlink="http://www.w3.org/1999/xlink" width="16" height="16" viewBox="0 0 16 16"><path fill="currentColor" d="M11.5 2A2.5 2.5 0 0 1 14 4.5v1a.5.5 0 0 1-1 0v-1A1.5 1.5 0 0 0 11.5 3h-1a.5.5 0 0 1 0-1zm-7 0A2.5 2.5 0 0 0 2 4.5v1a.5.5 0 0 0 1 0v-1A1.5 1.5 0 0 1 4.5 3h1a.5.5 0 0 0 0-1zm7 12a2.5 2.5 0 0 0 2.5-2.5v-1a.5.5 0 0 0-1 0v1a1.5 1.5 0 0 1-1.5 1.5h-1a.5.5 0 0 0 0 1zM2 11.5A2.5 2.5 0 0 0 4.5 14h1a.5.5 0 0 0 0-1h-1A1.5 1.5 0 0 1 3 11.5v-1a.5.5 0 0 0-1 0zM8 10a2 2 0 1 0 0-4a2 2 0 0 0 0 4m0-1a1 1 0 1 1 0-2a1 1 0 0 1 0 2M5 5.75a.75.75 0 1 0 0-1.5a.75.75 0 0 0 0 1.5"/></svg>