<svg xmlns="http://www.w3.org/2000/svg" xmlns:xlink="http://www.w3.org/1999/xlink" width="24" height="24" viewBox="0 0 24 24"><path fill="currentColor" d="M19.749 4a2.25 2.25 0 0 1 2.25 2.25v5.353a7.7 7.7 0 0 1-1.963-1.223a1.6 1.6 0 0 0-1.685-.244a3 3 0 0 0-2.175-1.13L16 9l-.17.004L15.748 9H8l-.176.005a3 3 0 1 0 2.877 1.689L10.6 10.5h2.8a3 3 0 0 0-.264 2.399c-.087.188-.137.4-.137.631v3.496c0 1.16.267 2.148.683 2.979H4.25A2.25 2.25 0 0 1 2 17.755V6.25A2.25 2.25 0 0 1 4.25 4zM16 10.5a1.5 1.5 0 0 1 1.124.506c-.68.44-1.594.884-2.624.997V12a1.5 1.5 0 0 1 1.5-1.5m-8 0a1.5 1.5 0 1 1 0 3a1.5 1.5 0 0 1 0-3m11.385.64c.681.583 2.209 1.696 4.115 1.868c.276.025.5.246.5.522v3.496c0 4.217-4.093 5.709-4.872 5.954a.42.42 0 0 1-.255 0c-.78-.245-4.873-1.737-4.873-5.954V13.53c0-.276.225-.497.5-.522c1.906-.172 3.434-1.285 4.115-1.869a.6.6 0 0 1 .77 0"/></svg>