<svg xmlns="http://www.w3.org/2000/svg" xmlns:xlink="http://www.w3.org/1999/xlink" width="24" height="24" viewBox="0 0 24 24"><path fill="currentColor" d="M19.749 4a2.25 2.25 0 0 1 2.25 2.25v5.353a7.4 7.4 0 0 1-1.5-.857V6.25a.75.75 0 0 0-.75-.75H4.25a.75.75 0 0 0-.75.75v11.505c0 .414.336.75.75.75h8.905a6.4 6.4 0 0 0 .528 1.5H4.25A2.25 2.25 0 0 1 2 17.755V6.25A2.25 2.25 0 0 1 4.25 4zM16 9c.953 0 1.802.444 2.351 1.136a1.6 1.6 0 0 0-.386.244a8 8 0 0 1-.841.626A1.5 1.5 0 0 0 14.5 12v.003l-.09.01a1.57 1.57 0 0 0-1.273.886a3 3 0 0 1 .264-2.399H10.6a3 3 0 1 1-2.775-1.495L8 9h7.748l.082.004zm-8 1.5a1.5 1.5 0 1 0 0 3a1.5 1.5 0 0 0 0-3m11.385.64c.681.583 2.209 1.696 4.115 1.868c.276.025.5.246.5.522v3.496c0 4.217-4.093 5.709-4.872 5.954a.42.42 0 0 1-.255 0c-.78-.245-4.873-1.737-4.873-5.954V13.53c0-.276.225-.497.5-.522c1.906-.172 3.434-1.285 4.115-1.869a.6.6 0 0 1 .77 0"/></svg>