<svg xmlns="http://www.w3.org/2000/svg" xmlns:xlink="http://www.w3.org/1999/xlink" width="20" height="20" viewBox="0 0 20 20"><path fill="currentColor" d="M8.732 9A2 2 0 1 1 7 8h6a2 2 0 0 1 1.826 1.184q-.166.097-.304.243q-.262.282-.526.483a1 1 0 1 0-1.853.605c-.362.055-.658.25-.857.515A2 2 0 0 1 11 10c0-.364.097-.706.268-1zM6 10a1 1 0 1 0 2 0a1 1 0 0 0-2 0m11-4v3.909c.332.255.664.42 1 .508V6a2 2 0 0 0-2-2H4a2 2 0 0 0-2 2v8a2 2 0 0 0 2 2h7.235a7 7 0 0 1-.188-1H4a1 1 0 0 1-1-1V6a1 1 0 0 1 1-1h12a1 1 0 0 1 1 1m-1.501 13a.3.3 0 0 1-.11-.02q-1.038-.37-1.761-.979L13.627 18a4.3 4.3 0 0 1-.877-.999L12.749 17q-.694-1.093-.745-2.635l-.004-.24v-2.25c0-.207.157-.375.35-.375c1.07 0 2.033-.458 2.903-1.39A.34.34 0 0 1 15.5 10c.09 0 .178.037.246.11c.87.932 1.833 1.39 2.903 1.39c.193 0 .35.168.35.375v2.25l-.004.24q-.05 1.542-.745 2.635v.001q-.356.56-.877.999l-.002.001q-.724.61-1.761.98a.3.3 0 0 1-.11.019"/></svg>