<svg xmlns="http://www.w3.org/2000/svg" xmlns:xlink="http://www.w3.org/1999/xlink" width="16" height="16" viewBox="0 0 16 16"><path fill="currentColor" d="M7.384 2.497a1 1 0 0 1 1.365-.366L11 3.431a1 1 0 0 1 .366 1.366L10.095 7H11a.5.5 0 0 1 0 1H5a.5.5 0 0 1 0-1h.675a1 1 0 0 1-.181-1.229zM7.621 7H8.94l1.56-2.703l-2.25-1.3l-1.89 3.274zM4.515 5h.269l-.157.271c-.137.238-.22.492-.252.749a.5.5 0 0 0-.267.19L2.114 9h11.772l-1.994-2.79a.5.5 0 0 0-.118-.118l.458-.795q.021-.036.04-.074a1.5 1.5 0 0 1 .434.405l2.015 2.82c.181.255.279.56.279.872v3.18a1.5 1.5 0 0 1-1.5 1.5h-11A1.5 1.5 0 0 1 1 12.5V9.32a1.5 1.5 0 0 1 .28-.871l2.014-2.82A1.5 1.5 0 0 1 4.514 5M14 10H2v2.5a.5.5 0 0 0 .5.5h11a.5.5 0 0 0 .5-.5z"/></svg>