<svg xmlns="http://www.w3.org/2000/svg" xmlns:xlink="http://www.w3.org/1999/xlink" width="24" height="24" viewBox="0 0 24 24"><path fill="currentColor" d="M11.997 16A.999.999 0 1 0 10 16a.999.999 0 0 0 1.997 0m-.259-7.853a.75.75 0 0 0-1.493.103l.004 4.501l.007.102a.75.75 0 0 0 1.493-.103l-.004-4.502zm1.23-5.488c-.857-1.548-3.082-1.548-3.938 0L1.284 16.66c-.83 1.5.255 3.34 1.97 3.34H13v-1.5H3.253a.75.75 0 0 1-.656-1.113l7.745-14.002a.75.75 0 0 1 1.313 0L17.527 14H18c0-.565.134-1.1.372-1.572zM19 14a2.5 2.5 0 0 1 5 0a.75.75 0 0 1-1.5 0a1 1 0 1 0-2 0v1h1a1.5 1.5 0 0 1 1.5 1.5v5a1.5 1.5 0 0 1-1.5 1.5h-6a1.5 1.5 0 0 1-1.5-1.5v-5a1.5 1.5 0 0 1 1.5-1.5H19zm-.5 6a1 1 0 1 0 0-2a1 1 0 0 0 0 2"/></svg>