<svg xmlns="http://www.w3.org/2000/svg" xmlns:xlink="http://www.w3.org/1999/xlink" width="32" height="32" viewBox="0 0 32 32"><path fill="currentColor" d="M17.25 22a1.25 1.25 0 1 1-2.5 0a1.25 1.25 0 0 1 2.5 0M16 9a1 1 0 0 0-1 1v8a1 1 0 1 0 2 0v-8a1 1 0 0 0-1-1m-3.064-5.191c1.332-2.41 4.796-2.41 6.128 0l10.493 18.999C30.846 25.14 29.158 28 26.494 28H5.507c-2.665 0-4.352-2.86-3.064-5.192zm4.377.967a1.5 1.5 0 0 0-2.626 0L4.194 23.775A1.5 1.5 0 0 0 5.507 26h20.987a1.5 1.5 0 0 0 1.313-2.225z"/></svg>