<svg xmlns="http://www.w3.org/2000/svg" xmlns:xlink="http://www.w3.org/1999/xlink" width="20" height="20" viewBox="0 0 20 20"><path fill="currentColor" d="M14.517 10.016a4.481 4.481 0 0 0-8.908-.707q.69-.055 1.377.032c1.351.17 2.604.725 3.769 1.404c.71.415 1.608.533 2.552.403c.399-.056.78-.152 1.128-.273q.082-.418.082-.86m-9.44-5.634l-.07-.058a.5.5 0 0 0-.638.765l.858.858l.07.058a.5.5 0 0 0 .638-.765zm10.662.637a.5.5 0 0 0-.765-.637l-.859.858l-.058.07a.5.5 0 0 0 .765.637l.859-.858zM10.52 2.435a.5.5 0 0 0-.992.09v1.213l.008.09a.5.5 0 0 0 .992-.09V2.524zm-6.78 9.504c1.056-.576 2.036-.734 2.997-.614c.974.123 1.96.535 3.01 1.148c1.203.701 2.584.829 3.834.656c1.248-.173 2.41-.651 3.21-1.222a.5.5 0 0 0-.582-.814c-.658.47-1.666.893-2.765 1.045c-1.097.152-2.236.03-3.193-.529c-1.108-.646-2.227-1.13-3.39-1.276c-1.175-.147-2.365.054-3.6.728a.5.5 0 0 0 .479.878m2.997 1.386c-.961-.12-1.941.038-2.997.614a.5.5 0 0 1-.48-.878c1.236-.674 2.426-.875 3.602-.728c1.162.146 2.281.63 3.39 1.276c.956.558 2.095.681 3.192.53c1.098-.153 2.107-.575 2.765-1.046a.5.5 0 0 1 .582.814c-.8.57-1.963 1.049-3.21 1.222c-1.25.173-2.631.045-3.834-.656c-1.05-.613-2.036-1.025-3.01-1.148M3.74 15.94c1.056-.576 2.036-.734 2.997-.614c.974.123 1.96.535 3.01 1.148c1.203.701 2.584.829 3.834.656c1.248-.173 2.41-.651 3.21-1.222a.5.5 0 0 0-.582-.814c-.658.47-1.666.893-2.765 1.045c-1.097.152-2.236.03-3.193-.529c-1.108-.646-2.227-1.13-3.39-1.276c-1.175-.147-2.365.054-3.6.728a.5.5 0 0 0 .479.878"/></svg>