<svg xmlns="http://www.w3.org/2000/svg" xmlns:xlink="http://www.w3.org/1999/xlink" width="28" height="28" viewBox="0 0 28 28"><path fill="currentColor" d="M14 2a.75.75 0 0 1 .75.75v1.496a.75.75 0 0 1-1.5 0V2.75A.75.75 0 0 1 14 2m0 18a6 6 0 1 0 0-12a6 6 0 0 0 0 12m0-1.5a4.5 4.5 0 1 1 0-9a4.5 4.5 0 0 1 0 9m11.25-3.75a.75.75 0 0 0 0-1.5h-1.496a.75.75 0 0 0 0 1.5zM14 23.004a.75.75 0 0 1 .75.75v1.496a.75.75 0 0 1-1.5 0v-1.496a.75.75 0 0 1 .75-.75M4.25 14.75a.75.75 0 0 0 0-1.5H2.751a.75.75 0 0 0 0 1.5zm.97-9.531a.75.75 0 0 1 1.06 0l1.5 1.5a.75.75 0 0 1-1.06 1.06l-1.5-1.5a.75.75 0 0 1 0-1.06m1.06 17.56a.75.75 0 0 1-1.06-1.06l1.5-1.5a.75.75 0 0 1 1.06 1.06zm16.5-17.56a.75.75 0 0 0-1.06 0l-1.5 1.5a.75.75 0 1 0 1.06 1.06l1.5-1.5a.75.75 0 0 0 0-1.06M21.72 22.78a.75.75 0 0 0 1.06-1.06l-1.5-1.5a.75.75 0 0 0-1.06 1.06z"/></svg>