<svg xmlns="http://www.w3.org/2000/svg" xmlns:xlink="http://www.w3.org/1999/xlink" width="24" height="24" viewBox="0 0 24 24"><path fill="currentColor" d="M11.973 4a4.07 4.07 0 0 0-3.896 2.884l-.045.15a.75.75 0 1 0 1.436.432l.045-.15a2.57 2.57 0 0 1 2.46-1.816C13.362 5.5 14.5 6.627 14.5 8a2.5 2.5 0 0 1-2.5 2.5H2.75a.75.75 0 0 0 0 1.5H12a4 4 0 0 0 4-4c0-2.217-1.826-4-4.027-4m7.098 6c-1.265 0-2.385.82-2.783 2.013a.75.75 0 0 0 1.424.474a1.44 1.44 0 0 1 1.359-.987c.789 0 1.429.64 1.429 1.43V13a1.5 1.5 0 0 1-1.5 1.5H2.75a.75.75 0 0 0 0 1.5h12.5a1.25 1.25 0 1 1 0 2.5h-.135c-.4 0-.765-.226-.945-.583a.75.75 0 0 0-1.34.672A2.56 2.56 0 0 0 15.115 20h.135a2.75 2.75 0 0 0 2.45-4H19a3 3 0 0 0 3-3v-.07A2.93 2.93 0 0 0 19.07 10M5 5a1 1 0 1 1-2 0a1 1 0 0 1 2 0m4 16a1 1 0 1 0 0-2a1 1 0 0 0 0 2M20 6a1 1 0 1 1-2 0a1 1 0 0 1 2 0"/></svg>