<svg xmlns="http://www.w3.org/2000/svg" xmlns:xlink="http://www.w3.org/1999/xlink" width="48" height="48" viewBox="0 0 48 48"><path fill="currentColor" d="M25.25 5.25a1.25 1.25 0 1 0-2.5 0v1.5a1.25 1.25 0 0 0 2.5 0zM24 10a8 8 0 1 0 0 16a8 8 0 0 0 0-16M4.29 43.55a1.25 1.25 0 0 0 1.76.16l.01-.007l.05-.04q.07-.057.22-.17c.201-.15.507-.37.912-.636a28 28 0 0 1 3.574-1.972A31.4 31.4 0 0 1 24 38c5.56 0 10.069 1.443 13.185 2.885a28 28 0 0 1 3.574 1.972a19 19 0 0 1 1.132.806l.05.04l.008.007a1.25 1.25 0 0 0 1.761-.16c.68-.881-.16-1.76-.16-1.76l-.003-.003l-.03-.024l-.038-.031l-.036-.03q-.096-.076-.275-.21a21 21 0 0 0-1.035-.724a30 30 0 0 0-3.899-2.153A33.9 33.9 0 0 0 24 35.5a33.9 33.9 0 0 0-14.234 3.115c-1.685.78-3 1.561-3.899 2.153a21 21 0 0 0-1.31.935l-.075.06l-.021.018l-.007.006c-.43.356-.507 1.352-.164 1.764M24 28c.69 0 1.25.56 1.25 1.25v1.5a1.25 1.25 0 1 1-2.5 0v-1.5c0-.69.56-1.25 1.25-1.25M10 17.25c0-.69.56-1.25 1.25-1.25h1.5a1.25 1.25 0 1 1 0 2.5h-1.5c-.69 0-1.25-.56-1.25-1.25M35.25 16a1.25 1.25 0 0 0 0 2.5h1.5a1.25 1.25 0 1 0 0-2.5zm-19.616-4.366a1.25 1.25 0 0 1-1.768 0l-1.5-1.5a1.25 1.25 0 1 1 1.768-1.768l1.5 1.5a1.25 1.25 0 0 1 0 1.768m-1.768 12.732a1.25 1.25 0 0 1 1.768 1.768l-1.5 1.5a1.25 1.25 0 0 1-1.768-1.768zm18.5-12.732a1.25 1.25 0 0 0 1.768 0l1.5-1.5a1.25 1.25 0 1 0-1.768-1.768l-1.5 1.5a1.25 1.25 0 0 0 0 1.768m1.768 12.732a1.25 1.25 0 0 0-1.768 1.768l1.5 1.5a1.25 1.25 0 0 0 1.768-1.768z"/></svg>