<svg xmlns="http://www.w3.org/2000/svg" xmlns:xlink="http://www.w3.org/1999/xlink" width="20" height="20" viewBox="0 0 20 20"><path fill="currentColor" d="m9.128 14.169l1.767-2a.5.5 0 0 1 .798.597l-.054.072l-1.017 1.165H12.5a.5.5 0 0 1 .437.744l-.046.067l-2.445 3.003a.5.5 0 0 1-.831-.547l.05-.076l1.797-2.191H9.5a.5.5 0 0 1-.423-.768zl1.767-2zM11 6c2.465 0 3.863 1.574 4.066 3.474h.062c1.586 0 2.872 1.237 2.872 2.763S16.714 15 15.128 15h-1.256a1.07 1.07 0 0 0 .01-1h1.3C16.186 14 17 13.221 17 12.26c0-.96-.814-1.739-1.818-1.739h-.55c-.29 0-.545-.218-.545-.496C14.087 8.248 12.65 7 11 7s-3.087 1.27-3.087 3.025c0 .278-.254.496-.545.496h-.55C5.814 10.521 5 11.3 5 12.261C5 13.22 5.814 14 6.818 14h1.3a1.07 1.07 0 0 0 .01 1H6.872C5.286 15 4 13.763 4 12.237s1.286-2.763 2.872-2.763h.062C7.139 7.561 8.535 6 11 6M8.392 3c1.456 0 2.726.828 3.353 2.045a6 6 0 0 0-1.284-.022A2.65 2.65 0 0 0 8.375 4a2.67 2.67 0 0 0-2.62 2.225l-.037.21a1 1 0 0 1-.986.83h-.258C3.66 7.265 3 7.933 3 8.757c0 .57.315 1.065.778 1.316c-.214.272-.39.576-.52.902a2.622 2.622 0 0 1 1.2-4.856l.221-.005A3.77 3.77 0 0 1 8.392 3"/></svg>