<svg xmlns="http://www.w3.org/2000/svg" xmlns:xlink="http://www.w3.org/1999/xlink" width="48" height="48" viewBox="0 0 48 48"><path fill="currentColor" d="M25.996 15.998c6.337 0 9.932 4.194 10.454 9.26h.16c4.078 0 7.384 3.297 7.384 7.365s-3.306 7.365-7.384 7.365H15.38c-4.077 0-7.383-3.298-7.383-7.365s3.306-7.365 7.384-7.365h.16c.526-5.1 4.118-9.26 10.455-9.26M7.569 24.19a1.75 1.75 0 0 1-.499 2.3l-.142.09l-1.299.75a1.75 1.75 0 0 1-1.892-2.94l.142-.09l1.3-.75a1.75 1.75 0 0 1 2.39.64m14.136-9.54c-3.801 1.22-6.509 4.091-7.62 7.922l-.094.34l-.116.476l-.412.077a9.3 9.3 0 0 0-3.342 1.43A7.883 7.883 0 0 1 21.705 14.65m-16.2-.671l.132.055l1.36.634a1.75 1.75 0 0 1-1.347 3.227l-.132-.055l-1.36-.634a1.75 1.75 0 0 1 1.347-3.227m19.11-5.763a1.75 1.75 0 0 1 .508 2.317l-.078.12l-.86 1.23a1.75 1.75 0 0 1-2.945-1.887l.078-.121l.86-1.229a1.75 1.75 0 0 1 2.438-.43m-10.291-.419l.065.156l.513 1.41a1.75 1.75 0 0 1-3.224 1.352l-.065-.156l-.513-1.41a1.75 1.75 0 0 1 3.224-1.352"/></svg>