<svg xmlns="http://www.w3.org/2000/svg" xmlns:xlink="http://www.w3.org/1999/xlink" width="48" height="48" viewBox="0 0 48 48"><path fill="currentColor" d="M21.503 40a1.5 1.5 0 1 1 0 3a1.5 1.5 0 0 1 0-3m9 0a1.5 1.5 0 1 1 0 3a1.5 1.5 0 0 1 0-3m-13.5-2a1.5 1.5 0 1 1 0 3a1.5 1.5 0 0 1 0-3m9 0a1.5 1.5 0 1 1 0 3a1.5 1.5 0 0 1 0-3m9 0a1.5 1.5 0 1 1 0 3a1.5 1.5 0 0 1 0-3M26 12.01c6.337 0 9.932 4.194 10.455 9.26h.16c4.078 0 7.384 3.297 7.384 7.365s-3.306 7.364-7.385 7.364H15.386c-4.078 0-7.384-3.297-7.384-7.365s3.306-7.365 7.384-7.365h.16c.526-5.099 4.118-9.26 10.455-9.26M7.569 20.19a1.75 1.75 0 0 1-.499 2.3l-.142.09l-1.299.75a1.75 1.75 0 0 1-1.892-2.94l.142-.09l1.3-.75a1.75 1.75 0 0 1 2.39.64m14.14-9.528c-3.801 1.22-6.509 4.09-7.62 7.922l-.094.34l-.116.476l-.412.077a9.3 9.3 0 0 0-3.341 1.43A7.883 7.883 0 0 1 21.71 10.662M5.505 9.978l.132.056l1.36.634a1.75 1.75 0 0 1-1.347 3.227l-.132-.055l-1.36-.634a1.75 1.75 0 0 1 1.347-3.228m19.11-5.762a1.75 1.75 0 0 1 .508 2.317l-.078.12l-.86 1.23a1.75 1.75 0 0 1-2.945-1.887l.078-.121l.86-1.229a1.75 1.75 0 0 1 2.438-.43m-10.291-.419l.065.156l.513 1.41a1.75 1.75 0 0 1-3.224 1.352l-.065-.156l-.513-1.41a1.75 1.75 0 0 1 3.224-1.352"/></svg>