<svg xmlns="http://www.w3.org/2000/svg" xmlns:xlink="http://www.w3.org/1999/xlink" width="48" height="48" viewBox="0 0 48 48"><path fill="currentColor" d="M8 11a1 1 0 1 1 0-2a1 1 0 0 1 0 2m0 2.5a3.5 3.5 0 1 0 0-7a3.5 3.5 0 0 0 0 7M22.999 7c-4.301 0-7.833 3.407-7.998 7.702a1.25 1.25 0 0 0 2.498.096A5.51 5.51 0 0 1 23 9.5a5.501 5.501 0 0 1 .001 11H5.25a1.25 1.25 0 1 0 0 2.5H23a8 8 0 1 0-.001-16m14.988 11.5a6.035 6.035 0 0 0-5.854 4.562l-.096.385a1.25 1.25 0 0 0 2.426.606l.096-.384A3.535 3.535 0 0 1 37.987 21a3.51 3.51 0 0 1 3.513 3.5A3.5 3.5 0 0 1 38 28H5.25a1.25 1.25 0 1 0 0 2.5H30c1.642 0 3 1.368 3 3.04c0 1.628-1.323 2.96-2.922 2.96a2.92 2.92 0 0 1-2.613-1.615l-.097-.194a1.25 1.25 0 1 0-2.236 1.118l.097.194A5.42 5.42 0 0 0 30.079 39c3.009 0 5.421-2.481 5.421-5.46a5.54 5.54 0 0 0-.908-3.04H38a6 6 0 0 0 6-6c0-3.318-2.704-6-6.013-6M19 39a1 1 0 1 0-2 0a1 1 0 0 0 2 0m2.5 0a3.5 3.5 0 1 1-7 0a3.5 3.5 0 0 1 7 0M40 12a1 1 0 1 0-2 0a1 1 0 0 0 2 0m2.5 0a3.5 3.5 0 1 1-7 0a3.5 3.5 0 0 1 7 0"/></svg>