<svg xmlns="http://www.w3.org/2000/svg" xmlns:xlink="http://www.w3.org/1999/xlink" width="32" height="32" viewBox="0 0 32 32"><path fill="currentColor" d="M17.17 4.195C22.762 5.215 27 10.114 27 16c0 6.628-5.372 12-12 12a11.98 11.98 0 0 1-9.784-5.052C12.38 22.334 18.003 16.324 18.003 9c0-1.665-.29-3.264-.825-4.748a.13.13 0 0 1-.008-.057M4.004 21c-.94 0-1.689 1.027-1.15 1.965A14 14 0 0 0 15 30c7.732 0 14-6.268 14-14c0-6.903-4.995-12.637-11.568-13.79a1.88 1.88 0 0 0-1.883.786a2.12 2.12 0 0 0-.254 1.934c.458 1.27.707 2.64.707 4.07c0 6.627-5.372 12-12 12"/></svg>