<svg xmlns="http://www.w3.org/2000/svg" xmlns:xlink="http://www.w3.org/1999/xlink" width="24" height="24" viewBox="0 0 24 24"><path fill="currentColor" d="M13 20a1 1 0 1 1 0 2a1 1 0 0 1 0-2m-3.5-1a1 1 0 1 1 0 2a1 1 0 0 1 0-2m7 0a1 1 0 1 1 0 2a1 1 0 0 1 0-2M13.002 6.009c3.168 0 4.966 2.097 5.227 4.63h.08a3.687 3.687 0 0 1 3.692 3.683a3.687 3.687 0 0 1-3.692 3.682H7.694a3.687 3.687 0 0 1-3.692-3.682a3.687 3.687 0 0 1 3.692-3.683h.08c.263-2.55 2.06-4.63 5.228-4.63M6.589 2a5.06 5.06 0 0 1 2.263.674A5.06 5.06 0 0 1 11.06 5.27c-1.984.563-3.404 2.002-3.994 3.947l-.069.245l-.058.238l-.206.039a4.67 4.67 0 0 0-2.804 1.814a5.06 5.06 0 0 1-1.797-1.599a.75.75 0 0 1 .366-1.132c1.643-.588 2.527-1.25 3.034-2.216c.552-1.055.654-2.174.287-3.677A.75.75 0 0 1 6.59 2"/></svg>