<svg xmlns="http://www.w3.org/2000/svg" xmlns:xlink="http://www.w3.org/1999/xlink" width="24" height="24" viewBox="0 0 24 24"><path fill="currentColor" d="m12.858 14.273l7.434 7.434a1 1 0 0 0 1.414-1.414l-17.999-18a1 1 0 1 0-1.414 1.414L5.39 6.804c-.643.429-1.254.927-1.821 1.495a12.4 12.4 0 0 0-1.39 1.683a1 1 0 0 0 1.644 1.14c.363-.524.761-1.01 1.16-1.41a10 10 0 0 1 1.855-1.46L7.99 9.405a8.14 8.14 0 0 0-3.203 3.377a1 1 0 0 0 1.784.903a6.1 6.1 0 0 1 1.133-1.563a6.1 6.1 0 0 1 1.77-1.234l1.407 1.407A5.2 5.2 0 0 0 8.336 13.7a5.3 5.3 0 0 0-1.09 1.612a1 1 0 0 0 1.832.802c.167-.381.394-.722.672-1a3.23 3.23 0 0 1 3.108-.841m-1.332-5.93l2.228 2.229a6.1 6.1 0 0 1 2.616 1.55a6.4 6.4 0 0 1 1.137 1.582a1 1 0 1 0 1.78-.911a8.4 8.4 0 0 0-1.503-2.085a8.1 8.1 0 0 0-6.258-2.365M8.51 5.327l1.651 1.651a9.9 9.9 0 0 1 10.016 4.148a1 1 0 1 0 1.646-1.136A11.91 11.91 0 0 0 8.51 5.327m4.552 11.114a1.501 1.501 0 1 1-2.123 2.123a1.501 1.501 0 0 1 2.123-2.123"/></svg>