<svg xmlns="http://www.w3.org/2000/svg" xmlns:xlink="http://www.w3.org/1999/xlink" width="20" height="20" viewBox="0 0 20 20"><path fill="currentColor" d="M16.73 7.563c.403.404.783.864 1.115 1.344a.75.75 0 0 1-1.235.852A7.97 7.97 0 0 0 5.061 8.031a3 3 0 0 0-2.408 2.021a.75.75 0 0 1-.418-1.15c.34-.491.716-.95 1.105-1.339a9.47 9.47 0 0 1 13.39 0m-5.81 8.077a1.24 1.24 0 0 1-.921.363V13.52a1.242 1.242 0 0 1 .921 2.12m.973-2.738a2.63 2.63 0 0 0-2.088-.76A2 2 0 0 0 8.5 11.063v-.138a4.13 4.13 0 0 1 4.455.915c.363.364.662.81.87 1.283a.75.75 0 0 1-1.375.602a2.7 2.7 0 0 0-.556-.824m1.635-2.39a4.94 4.94 0 0 0-5.45-1.045a3 3 0 0 0-1.151-1.105a6.446 6.446 0 0 1 7.662 1.09c.473.473.88 1.045 1.192 1.653a.75.75 0 1 1-1.335.683a5.1 5.1 0 0 0-.918-1.275M3.5 11v1H3a1 1 0 0 0-1 1v4a1 1 0 0 0 1 1h5a1 1 0 0 0 1-1v-4a1 1 0 0 0-1-1h-.5v-1a2 2 0 1 0-4 0m1 1v-1a1 1 0 1 1 2 0v1zm1 2.25a.75.75 0 1 1 0 1.5a.75.75 0 0 1 0-1.5"/></svg>