<svg xmlns="http://www.w3.org/2000/svg" xmlns:xlink="http://www.w3.org/1999/xlink" width="20" height="20" viewBox="0 0 20 20"><path fill="currentColor" d="M6 3a3 3 0 0 0-3 3v8a3 3 0 0 0 3 3h5.237a5.4 5.4 0 0 1-.661-1H6a2 2 0 0 1-2-2V7h12v1.846c.285.247.627.49 1 .66V6a3 3 0 0 0-3-3zM4 6a2 2 0 0 1 2-2h8a2 2 0 0 1 2 2zm10.88 3.16c.508.532 1.484 1.379 2.684 1.552a.5.5 0 0 1 .436.482v2.323c0 3.122-2.784 4.255-3.386 4.463a.34.34 0 0 1-.228 0C13.785 17.772 11 16.64 11 13.517v-2.323a.5.5 0 0 1 .436-.482c1.2-.173 2.175-1.02 2.683-1.553a.535.535 0 0 1 .762 0"/></svg>