<svg xmlns="http://www.w3.org/2000/svg" xmlns:xlink="http://www.w3.org/1999/xlink" width="24" height="24" viewBox="0 0 24 24"><path fill="currentColor" d="M3 6.25A3.25 3.25 0 0 1 6.25 3h11.5A3.25 3.25 0 0 1 21 6.25v4.576a12 12 0 0 0-1.5-.25V8.5h-15v9.25c0 .966.784 1.75 1.75 1.75h5.25V21H6.25A3.25 3.25 0 0 1 3 17.75zm11.664 6.231C15.551 12.177 16.732 12 18 12s2.449.177 3.336.481c.443.152.84.345 1.138.585c.299.241.526.557.526.934s-.227.693-.526.934c-.297.24-.695.433-1.138.585c-.887.304-2.068.481-3.336.481s-2.449-.177-3.336-.481c-.442-.152-.84-.345-1.138-.585c-.299-.241-.526-.557-.526-.934s.227-.693.526-.934c.297-.24.696-.433 1.138-.585M13 21.001v-4.606c.381.236.791.41 1.178.543c1.08.37 2.433.562 3.822.562s2.742-.191 3.823-.562A6 6 0 0 0 23 16.395V21c0 .427-.262.753-.546.976c-.291.228-.681.412-1.118.558c-.878.293-2.06.466-3.336.466c-1.277 0-2.457-.173-3.336-.466c-.437-.146-.827-.33-1.118-.558c-.284-.223-.546-.55-.546-.976"/></svg>