<svg xmlns="http://www.w3.org/2000/svg" xmlns:xlink="http://www.w3.org/1999/xlink" width="24" height="24" viewBox="0 0 24 24"><path fill="currentColor" d="M11 7.5a5.5 5.5 0 0 1 7.664-5.058a.75.75 0 0 1 .235 1.22L16.311 6.25l1.44 1.44l2.587-2.59a.75.75 0 0 1 1.22.236a5.5 5.5 0 0 1-6.344 7.512L6.902 21.16A2.871 2.871 0 1 1 2.84 17.1l8.311-8.312A5.5 5.5 0 0 1 11 7.5m5.5-4a4 4 0 0 0-3.794 5.27a.75.75 0 0 1-.181.768L3.902 18.16A1.371 1.371 0 0 0 5.84 20.1l8.624-8.625a.75.75 0 0 1 .768-.18a4 4 0 0 0 5.246-4.213l-1.845 1.844a1.25 1.25 0 0 1-1.767 0l-1.793-1.793a1.25 1.25 0 0 1 0-1.768l1.844-1.844A4 4 0 0 0 16.5 3.5"/></svg>