<svg xmlns="http://www.w3.org/2000/svg" xmlns:xlink="http://www.w3.org/1999/xlink" width="512" height="196" viewBox="0 0 512 196"><path fill="#017CEE" d="m3.147 194.415l93.457-95.798a1.727 1.727 0 0 0 .209-2.208c-5.683-7.935-16.17-9.31-20.056-14.642c-11.512-15.793-14.433-24.732-19.38-24.178c-.345.05-.663.217-.899.474l-33.76 34.609C3.297 112.566.505 156.415 0 193.135a1.83 1.83 0 0 0 3.147 1.28Z"/><path fill="#00AD46" d="M194.415 192.051L98.617 98.587a1.727 1.727 0 0 0-2.212-.209c-7.934 5.686-9.31 16.17-14.642 20.056c-15.792 11.512-24.73 14.433-24.177 19.38c.05.344.218.66.474.895l34.608 33.76c19.894 19.423 63.743 22.215 100.464 22.719a1.831 1.831 0 0 0 1.283-3.137Z"/><path fill="#04D659" d="M92.668 172.479c-10.875-10.61-15.915-31.598 4.928-74.877c-33.883 15.143-45.756 35.046-39.917 40.746l34.99 34.131Z"/><path fill="#00C7D4" d="M192.048.786L98.594 96.584a1.724 1.724 0 0 0-.21 2.208c5.687 7.935 16.168 9.31 20.057 14.642c11.512 15.793 14.436 24.732 19.38 24.178a1.51 1.51 0 0 0 .898-.474l33.76-34.609c19.423-19.894 22.215-63.743 22.719-100.463a1.834 1.834 0 0 0-3.15-1.28Z"/><path fill="#11E1EE" d="M172.496 102.53c-10.61 10.874-31.598 15.914-74.88-4.928c15.142 33.883 35.046 45.756 40.745 39.917l34.135-34.99Z"/><path fill="#E43921" d="m.776 3.15l95.798 93.454a1.727 1.727 0 0 0 2.209.21c7.934-5.687 9.31-16.171 14.641-20.057c15.793-11.512 24.732-14.433 24.178-19.38a1.522 1.522 0 0 0-.474-.899l-34.609-33.76C82.625 3.297 38.776.505 2.056 0a1.83 1.83 0 0 0-1.28 3.15Z"/><path fill="#FF7557" d="M102.536 22.722c10.875 10.61 15.915 31.598-4.927 74.88c33.882-15.142 45.755-35.05 39.917-40.746l-34.99-34.134Z"/><path fill="#0CB6FF" d="M22.719 92.675c10.61-10.875 31.598-15.915 74.88 4.927C82.456 63.72 62.553 51.847 56.853 57.685L22.72 92.675Z"/><circle cx="97.612" cy="97.586" r="4.178" fill="#4A4848"/><path fill="#51504F" d="M221.232 63.673a.76.76 0 0 1-.74-.739a1.519 1.519 0 0 1 .037-.408l9.171-23.919a1.147 1.147 0 0 1 1.184-.812h2.513c.535-.038 1.026.3 1.184.812l9.13 23.92l.074.407a.756.756 0 0 1-.74.74h-1.883a.955.955 0 0 1-.63-.186a1.167 1.167 0 0 1-.295-.445l-2.032-5.248h-12.126l-2.032 5.248a1.051 1.051 0 0 1-.332.445a.892.892 0 0 1-.59.185h-1.893Zm15.898-9.058l-4.99-13.123l-4.99 13.123h9.98Zm11.015 16.08a.855.855 0 0 1-.627-.258a.8.8 0 0 1-.222-.59V45.311a.8.8 0 0 1 .222-.59a.855.855 0 0 1 .627-.258h1.7c.461.02.83.388.85.848v1.625a7.022 7.022 0 0 1 6.06-2.845a6.936 6.936 0 0 1 5.806 2.44a10.394 10.394 0 0 1 2.109 6.3c.024.27.036.689.036 1.257s-.012.987-.036 1.256a10.504 10.504 0 0 1-2.109 6.3a7 7 0 0 1-5.805 2.44a7.142 7.142 0 0 1-5.988-2.771v8.577a.8.8 0 0 1-.223.59a.74.74 0 0 1-.593.259l-1.807-.043Zm7.838-9.648a4.39 4.39 0 0 0 3.81-1.628a7.513 7.513 0 0 0 1.326-4.287c.024-.245.036-.602.036-1.07c0-4.658-1.726-6.987-5.179-6.987a4.526 4.526 0 0 0-3.842 1.701a7 7 0 0 0-1.366 3.979l-.04 1.406l.04 1.442a6.174 6.174 0 0 0 1.405 3.81a4.642 4.642 0 0 0 3.807 1.634h.003Zm18.66 2.984a7.722 7.722 0 0 1-3.365-.739a6.432 6.432 0 0 1-2.477-1.99a4.93 4.93 0 0 1-.888-2.847a4.838 4.838 0 0 1 1.99-3.98a11.273 11.273 0 0 1 5.47-2.068l5.507-.776V50.56c0-2.513-1.437-3.77-4.31-3.77a4.642 4.642 0 0 0-2.653.703a4.562 4.562 0 0 0-1.551 1.592a1.012 1.012 0 0 1-.296.48a.597.597 0 0 1-.444.15h-1.591a.763.763 0 0 1-.813-.813a3.88 3.88 0 0 1 .813-1.99a6.402 6.402 0 0 1 2.476-1.959a8.952 8.952 0 0 1 4.105-.848a7.795 7.795 0 0 1 5.968 1.96a6.737 6.737 0 0 1 1.814 4.807v11.98a.852.852 0 0 1-.259.629a.796.796 0 0 1-.59.222h-1.7a.773.773 0 0 1-.853-.849v-1.588a6.376 6.376 0 0 1-2.367 1.99a8.478 8.478 0 0 1-3.989.785l.003-.01Zm.776-2.771a5.235 5.235 0 0 0 3.92-1.555a6.237 6.237 0 0 0 1.551-4.546v-1.035l-4.287.63a9.675 9.675 0 0 0-3.956 1.257a2.523 2.523 0 0 0-1.326 2.182a2.6 2.6 0 0 0 1.22 2.29a5.257 5.257 0 0 0 2.875.787l.003-.01Zm22.026 2.771a8.475 8.475 0 0 1-6.21-2.218a9.078 9.078 0 0 1-2.368-6.3l-.036-1.478l.036-1.479a8.952 8.952 0 0 1 2.368-6.25a8.392 8.392 0 0 1 6.21-2.255a9.672 9.672 0 0 1 4.51.962a6.887 6.887 0 0 1 2.735 2.367c.578.831.921 1.802.994 2.812a.663.663 0 0 1-.222.59a.932.932 0 0 1-.63.222h-1.774a.879.879 0 0 1-.557-.149a1.519 1.519 0 0 1-.368-.59a4.735 4.735 0 0 0-1.774-2.513a5.026 5.026 0 0 0-2.884-.776a4.808 4.808 0 0 0-3.647 1.442a6.472 6.472 0 0 0-1.443 4.31l-.036 1.327l.036 1.256a6.528 6.528 0 0 0 1.443 4.364a4.794 4.794 0 0 0 3.647 1.406a5.229 5.229 0 0 0 2.884-.74a4.95 4.95 0 0 0 1.774-2.55a1.54 1.54 0 0 1 .368-.59a.756.756 0 0 1 .557-.185h1.774a.855.855 0 0 1 .63.258a.663.663 0 0 1 .222.59a5.802 5.802 0 0 1-.994 2.809a6.89 6.89 0 0 1-2.736 2.367a9.536 9.536 0 0 1-4.512 1.001l.003-.01Zm13.521-.37a.773.773 0 0 1-.852-.85V38.276a.8.8 0 0 1 .222-.59a.86.86 0 0 1 .63-.26h1.847a.886.886 0 0 1 .852.85v8.62a7.185 7.185 0 0 1 2.513-2.069a7.802 7.802 0 0 1 3.588-.74a6.853 6.853 0 0 1 5.507 2.292a8.76 8.76 0 0 1 1.99 6.028V62.83a.852.852 0 0 1-.26.63a.796.796 0 0 1-.59.222h-1.846a.773.773 0 0 1-.849-.849V52.576a5.885 5.885 0 0 0-1.293-4.068a4.599 4.599 0 0 0-3.647-1.443a4.91 4.91 0 0 0-3.734 1.48a5.637 5.637 0 0 0-1.366 4.028V62.81a.852.852 0 0 1-.258.63a.796.796 0 0 1-.59.222l-1.864-.003Zm29.33.37a8.176 8.176 0 0 1-6.1-2.32a9.741 9.741 0 0 1-2.477-6.433l-.037-1.256l.037-1.22a9.791 9.791 0 0 1 2.513-6.36a8.952 8.952 0 0 1 12.384.259a10.325 10.325 0 0 1 2.254 7.025v.63a.852.852 0 0 1-.258.627a.8.8 0 0 1-.59.222H335.23v.332a6.996 6.996 0 0 0 1.442 4.105a4.416 4.416 0 0 0 3.584 1.657a5.182 5.182 0 0 0 2.772-.663a5.637 5.637 0 0 0 1.628-1.442c.128-.2.291-.375.481-.517a1.3 1.3 0 0 1 .63-.11h1.814c.2-.006.397.06.553.186c.15.128.233.32.222.517a3.233 3.233 0 0 1-1.034 1.96a8.322 8.322 0 0 1-2.848 1.99a10.11 10.11 0 0 1-4.178.821v-.01Zm5.063-11.385v-.11a6.024 6.024 0 0 0-1.406-4.141a5.013 5.013 0 0 0-7.394 0a6.243 6.243 0 0 0-1.326 4.141v.11h10.126Z"/><path fill="#51504F" d="M237.12 54.615v.285a.285.285 0 0 0 .266-.384l-.266.1Zm-4.99-13.123l.266-.1a.285.285 0 0 0-.53 0l.264.1Zm-4.99 13.123l-.265-.1a.285.285 0 0 0 .265.385v-.285Zm-5.915 8.773a.424.424 0 0 1-.331-.139l-.405.401a.995.995 0 0 0 .72.305l.016-.567Zm-.331-.139a.428.428 0 0 1-.14-.332h-.566a.992.992 0 0 0 .305.72l.4-.388Zm-.14-.332a1.26 1.26 0 0 1 .024-.331l-.54-.18c-.043.163-.06.33-.054.498l.57.013Zm.017-.305l9.168-23.919l-.53-.202l-9.168 23.92l.53.201Zm9.171-23.925a.938.938 0 0 1 .332-.474a.995.995 0 0 1 .577-.153v-.57a1.558 1.558 0 0 0-.899.252a1.5 1.5 0 0 0-.55.75l.54.195Zm.915-.627h2.513v-.57h-2.513v.57Zm2.513 0a.995.995 0 0 1 .58.153a.937.937 0 0 1 .332.474l.534-.196a1.495 1.495 0 0 0-.55-.75a1.558 1.558 0 0 0-.902-.251l.006.57Zm.919.63l9.131 23.919l.53-.202l-9.13-23.92l-.531.203Zm9.118 23.873l.073.407l.56-.102l-.073-.408l-.56.103Zm.07.354a.431.431 0 0 1-.14.332l.401.401a.995.995 0 0 0 .305-.72l-.566-.013Zm-.14.332a.431.431 0 0 1-.331.14v.566c.271 0 .531-.11.72-.305l-.389-.401Zm-.331.14h-1.884v.566h1.884v-.567Zm-1.884 0a.683.683 0 0 1-.447-.12l-.365.438c.233.177.52.266.812.251v-.57Zm-.427-.104a.869.869 0 0 1-.23-.331l-.536.179c.076.21.201.4.365.554l.4-.402Zm-.232-.331l-2.033-5.252l-.53.205l2.032 5.25l.53-.203Zm-2.298-5.431H226.04v.567h12.125v-.567Zm-12.39.182l-2.036 5.252l.53.206l2.033-5.249l-.528-.209Zm-2.04 5.262a.78.78 0 0 1-.248.332l.368.43c.188-.148.332-.345.417-.57l-.537-.192Zm-.245.332a.613.613 0 0 1-.411.119v.567c.28.01.553-.079.772-.252l-.361-.434Zm-.411.119h-1.887v.567h1.887v-.567Zm14.277-8.876l-4.99-13.123l-.53.202l4.99 13.123l.53-.202Zm-5.524-13.123l-4.99 13.123l.53.202l4.99-13.123l-.53-.202Zm-4.725 13.511h9.98v-.567h-9.98v.567Zm23.548-7.974h-.285a.285.285 0 0 0 .514.17l-.23-.17Zm.073 14.373l.225-.172a.285.285 0 0 0-.51.172h.285Zm-2.633 9.128a.574.574 0 0 1-.428-.176l-.4.402c.219.219.518.339.828.331v-.557Zm-.428-.176a.52.52 0 0 1-.139-.39h-.57c-.011.294.1.58.305.792l.404-.402Zm-.139-.39V45.354h-.57V69.89h.57Zm0-24.536a.52.52 0 0 1 .14-.392l-.402-.4a1.074 1.074 0 0 0-.305.792h.567Zm.14-.392a.574.574 0 0 1 .427-.175v-.57c-.31-.008-.61.112-.829.33l.401.415Zm.427-.175h1.701v-.57h-1.7v.57Zm1.701 0a.454.454 0 0 1 .375.159l.43-.368a1.025 1.025 0 0 0-.808-.358l.003.567Zm.408.192c.11.093.168.232.16.375h.566a1.025 1.025 0 0 0-.358-.806l-.368.43Zm.16.375v1.624h.566v-1.624h-.567Zm.513 1.793a6.74 6.74 0 0 1 5.832-2.728v-.567a7.294 7.294 0 0 0-6.3 2.964l.468.331Zm5.832-2.728a6.654 6.654 0 0 1 5.58 2.32l.448-.351a7.218 7.218 0 0 0-6.028-2.546v.577Zm5.58 2.32a10.096 10.096 0 0 1 2.046 6.118l.567-.023a10.67 10.67 0 0 0-2.168-6.453l-.445.358Zm2.046 6.134c.023.259.037.663.037 1.234h.567c0-.567 0-.995-.04-1.283l-.564.05Zm.037 1.234c0 .567 0 .975-.037 1.233l.564.05c.026-.285.04-.716.04-1.283h-.567Zm-.037 1.246a10.212 10.212 0 0 1-2.046 6.121l.445.352a10.776 10.776 0 0 0 2.168-6.45l-.567-.023Zm-2.046 6.118a6.714 6.714 0 0 1-5.58 2.32v.568a7.294 7.294 0 0 0 6.025-2.547l-.445-.341Zm-5.58 2.32a6.857 6.857 0 0 1-5.766-2.652l-.45.332a7.424 7.424 0 0 0 6.213 2.884l.003-.563Zm-6.273-2.486v8.578h.57v-8.578h-.57Zm0 8.578a.517.517 0 0 1-.14.39l.402.402c.206-.211.316-.498.305-.792h-.567Zm-.153.407a.458.458 0 0 1-.377.16v.57c.31.01.607-.122.809-.358l-.432-.372Zm-.377.16h-1.81v.57h1.81v-.57Zm6.024-9.082a4.668 4.668 0 0 0 4.038-1.744l-.457-.332a4.111 4.111 0 0 1-3.578 1.509l-.003.567Zm4.035-1.74a7.808 7.808 0 0 0 1.39-4.447l-.568-.023a7.235 7.235 0 0 1-1.276 4.131l.454.338Zm1.386-4.43c.027-.262.04-.63.04-1.101h-.57c0 .464 0 .812-.037 1.044l.567.057Zm.04-1.101a9.038 9.038 0 0 0-1.35-5.411a4.801 4.801 0 0 0-4.111-1.864v.567c1.412-.1 2.78.513 3.647 1.632a8.505 8.505 0 0 1 1.24 5.073l.574.003Zm-5.461-7.271a4.814 4.814 0 0 0-4.072 1.813l.451.332a4.25 4.25 0 0 1 3.618-1.588l.003-.557Zm-4.072 1.813a7.294 7.294 0 0 0-1.425 4.151l.57.027a6.724 6.724 0 0 1 1.326-3.836l-.47-.342Zm-1.425 4.158l-.037 1.406h.567l.037-1.406h-.567Zm-.037 1.42l.037 1.441h.57l-.036-1.442h-.57Zm.037 1.445a6.465 6.465 0 0 0 1.469 3.979l.44-.362a5.889 5.889 0 0 1-1.326-3.647l-.583.03Zm1.469 3.979a4.92 4.92 0 0 0 4.025 1.73v-.567a4.357 4.357 0 0 1-3.588-1.522l-.437.359Zm29.008 1.65h.285a.285.285 0 0 0-.517-.158l.232.159Zm-.076-7.105h.285a.285.285 0 0 0-.332-.281l.047.281Zm-6.247 9.622a7.43 7.43 0 0 1-3.243-.713l-.245.514c1.09.515 2.28.777 3.485.766l.003-.567Zm-3.243-.713a6.164 6.164 0 0 1-2.37-1.91l-.458.332a6.71 6.71 0 0 0 2.583 2.086l.245-.508Zm-2.364-1.9a4.642 4.642 0 0 1-.839-2.685h-.57a5.209 5.209 0 0 0 .938 3.007l.471-.321Zm-.839-2.685a4.556 4.556 0 0 1 1.887-3.767l-.348-.447a5.12 5.12 0 0 0-2.106 4.217l.567-.003Zm1.887-3.77a10.995 10.995 0 0 1 5.335-2.013l-.08-.563a11.542 11.542 0 0 0-5.606 2.128l.351.448Zm5.335-2.013l5.507-.775l-.08-.564l-5.51.776l.083.563Zm5.753-1.057V50.6h-.567v1.07h.567Zm0-1.071a3.833 3.833 0 0 0-1.178-3.04a5.093 5.093 0 0 0-3.431-1.015v.57a4.542 4.542 0 0 1 3.057.872a3.27 3.27 0 0 1 .994 2.613h.558Zm-4.61-4.055a4.927 4.927 0 0 0-2.82.752l.33.471a4.373 4.373 0 0 1 2.504-.663l-.013-.56Zm-2.814.75a4.814 4.814 0 0 0-1.658 1.69l.497.279a4.268 4.268 0 0 1 1.46-1.49l-.3-.48Zm-1.658 1.737a.75.75 0 0 1-.206.348l.355.444c.185-.163.32-.376.388-.613l-.537-.18Zm-.225.37a.332.332 0 0 1-.242.064v.567a.882.882 0 0 0 .643-.232l-.401-.398Zm-.242.064h-1.592v.567h1.592v-.567Zm-1.592 0a.597.597 0 0 1-.405-.153l-.37.431c.214.188.49.29.775.289v-.567Zm-.375-.123a.597.597 0 0 1-.155-.408h-.567c-.002.286.1.562.288.776l.434-.368Zm-.155-.394a3.647 3.647 0 0 1 .762-1.847l-.464-.332a4.154 4.154 0 0 0-.865 2.149l.567.03Zm.762-1.844a6.11 6.11 0 0 1 2.37-1.87l-.248-.51a6.69 6.69 0 0 0-2.586 2.049l.464.331Zm2.374-1.87a8.657 8.657 0 0 1 3.979-.819v-.567a9.22 9.22 0 0 0-4.234.882l.255.504Zm3.979-.819a7.52 7.52 0 0 1 5.743 1.867l.417-.385a8.074 8.074 0 0 0-6.16-2.049v.567Zm5.746 1.87a6.449 6.449 0 0 1 1.734 4.612h.567a7.02 7.02 0 0 0-1.89-5l-.411.388Zm1.734 4.612v11.98h.567v-11.98h-.567Zm0 11.98a.57.57 0 0 1-.176.427l.401.402a1.14 1.14 0 0 0 .332-.83h-.557Zm-.176.427a.52.52 0 0 1-.391.14v.567c.295.01.58-.1.792-.305l-.4-.402Zm-.391.14h-1.701v.567h1.7v-.567Zm-1.701 0a.663.663 0 0 1-.444-.153l-.368.431c.226.193.515.297.812.292v-.57Zm-.411-.123a.643.643 0 0 1-.156-.444h-.567c-.006.297.096.586.289.812l.434-.368Zm-.156-.444v-1.589h-.567v1.589h.567Zm-.517-1.751a6.12 6.12 0 0 1-2.265 1.906l.262.504a6.671 6.671 0 0 0 2.47-2.085l-.467-.325Zm-2.265 1.906a8.21 8.21 0 0 1-3.823.783v.567a8.767 8.767 0 0 0 4.088-.846l-.265-.504Zm-3.047-1.422a5.524 5.524 0 0 0 4.125-1.638l-.408-.398a4.95 4.95 0 0 1-3.717 1.466v.57Zm4.125-1.638a6.528 6.528 0 0 0 1.631-4.745h-.567a5.968 5.968 0 0 1-1.472 4.35l.408.395Zm1.631-4.745v-1.034h-.567v1.034h.567Zm-.331-1.326l-4.288.627l.083.564l4.287-.627l-.082-.564Zm-4.288.627a9.947 9.947 0 0 0-4.071 1.303l.315.474a9.406 9.406 0 0 1 3.84-1.21l-.084-.567Zm-4.068 1.3a2.802 2.802 0 0 0-1.462 2.42h.57a2.241 2.241 0 0 1 1.2-1.943l-.308-.477Zm-1.462 2.42a2.881 2.881 0 0 0 1.346 2.526l.315-.47a2.32 2.32 0 0 1-1.094-2.056h-.567Zm1.353 2.533c.912.56 1.967.845 3.037.82v-.568a4.973 4.973 0 0 1-2.729-.733l-.308.481Zm25.066 2.97a8.193 8.193 0 0 1-6.015-2.134l-.398.404a8.753 8.753 0 0 0 6.41 2.301l.003-.57Zm-6.011-2.131a8.796 8.796 0 0 1-2.285-6.097l-.567.02a9.357 9.357 0 0 0 2.447 6.472l.405-.395Zm-2.285-6.094l-.036-1.479h-.567l.036 1.479h.567Zm-.036-1.466l.036-1.478h-.567l-.036 1.478h.567Zm.036-1.475a8.657 8.657 0 0 1 2.285-6.058l-.405-.401a9.217 9.217 0 0 0-2.447 6.439l.567.02Zm2.285-6.058a8.113 8.113 0 0 1 6.01-2.171v-.567a8.677 8.677 0 0 0-6.412 2.337l.402.401Zm6.01-2.171a9.403 9.403 0 0 1 4.378.928l.261-.504a9.947 9.947 0 0 0-4.641-.995l.003.57Zm4.378.928a6.598 6.598 0 0 1 2.625 2.264l.481-.301a7.155 7.155 0 0 0-2.845-2.467l-.261.504Zm2.629 2.271c.548.784.876 1.7.951 2.653l.567-.03a5.932 5.932 0 0 0-1.044-2.951l-.474.328Zm.951 2.682a.365.365 0 0 1-.122.332l.371.431a.932.932 0 0 0 .332-.836l-.58.073Zm-.122.332a.663.663 0 0 1-.445.153v.566c.299.006.589-.098.816-.291l-.371-.428Zm-.445.153h-1.773v.566h1.773v-.566Zm-1.773 0a.61.61 0 0 1-.378-.087l-.355.445c.213.152.471.227.733.212v-.57Zm-.378-.087a1.29 1.29 0 0 1-.286-.477l-.523.219c.093.267.248.508.454.703l.355-.445Zm-.279-.464a5.02 5.02 0 0 0-1.89-2.652l-.308.477a4.453 4.453 0 0 1 1.658 2.37l.54-.195Zm-1.883-2.652a5.305 5.305 0 0 0-3.044-.826v.567a4.758 4.758 0 0 1 2.725.726l.319-.467Zm-3.044-.826a5.09 5.09 0 0 0-3.866 1.532l.411.391a4.523 4.523 0 0 1 3.455-1.353v-.57Zm-3.866 1.532a6.75 6.75 0 0 0-1.519 4.51l.567.019a6.207 6.207 0 0 1 1.363-4.141l-.411-.388Zm-1.519 4.512l-.036 1.327h.567l.036-1.327h-.567Zm-.036 1.347l.036 1.256l.567-.016l-.036-1.257l-.567.017Zm.036 1.26a6.804 6.804 0 0 0 1.519 4.545l.411-.391a6.263 6.263 0 0 1-1.363-4.178l-.567.023Zm1.519 4.545a5.083 5.083 0 0 0 3.866 1.496v-.57a4.52 4.52 0 0 1-3.455-1.327l-.411.401Zm3.866 1.496a5.507 5.507 0 0 0 3.037-.786l-.308-.478a4.944 4.944 0 0 1-2.729.693v.57Zm3.044-.79a5.225 5.225 0 0 0 1.883-2.692l-.537-.189a4.672 4.672 0 0 1-1.658 2.41l.312.471Zm1.876-2.675c.06-.178.157-.341.286-.478l-.355-.444a1.767 1.767 0 0 0-.454.706l.523.216Zm.309-.5a.48.48 0 0 1 .355-.104v-.567a1.027 1.027 0 0 0-.756.269l.4.401Zm.355-.104h1.773v-.567h-1.773v.567Zm1.773 0a.574.574 0 0 1 .428.176l.401-.401a1.14 1.14 0 0 0-.829-.332v.557Zm.445.19a.365.365 0 0 1 .122.33l.564.057a.932.932 0 0 0-.332-.835l-.354.447Zm.122.36a5.517 5.517 0 0 1-.955 2.673l.478.305a6.097 6.097 0 0 0 1.044-2.947l-.567-.03Zm-.955 2.673a6.595 6.595 0 0 1-2.625 2.265l.261.504a7.168 7.168 0 0 0 2.845-2.467l-.48-.302Zm-2.629 2.268a9.284 9.284 0 0 1-4.376.928v.567a9.814 9.814 0 0 0 4.641-.994l-.265-.501Zm11.844-15.945h-.282a.285.285 0 0 0 .507.176l-.225-.176Zm-2.696 16.512a.663.663 0 0 1-.444-.153l-.372.431c.226.194.515.298.813.292l.003-.57Zm-.411-.123a.663.663 0 0 1-.153-.444h-.57c-.006.297.096.586.289.812l.434-.368Zm-.153-.444V38.272h-.57v24.536h.57Zm0-24.536a.517.517 0 0 1 .14-.39l-.402-.402a1.08 1.08 0 0 0-.305.792h.567Zm.14-.39a.57.57 0 0 1 .427-.177v-.567a1.138 1.138 0 0 0-.829.332l.402.411Zm.427-.177h1.847v-.567h-1.847v.567Zm1.847 0a.454.454 0 0 1 .375.16l.43-.372a1.021 1.021 0 0 0-.808-.358l.003.57Zm.405.19a.452.452 0 0 1 .159.374h.57a1.025 1.025 0 0 0-.358-.806l-.371.431Zm.159.374v8.62h.57v-8.62h-.57Zm.507 8.79a6.883 6.883 0 0 1 2.414-1.99l-.249-.51a7.454 7.454 0 0 0-2.613 2.152l.448.348Zm2.42-1.99a7.533 7.533 0 0 1 3.459-.71v-.566a8.084 8.084 0 0 0-3.717.77l.258.506Zm3.459-.71a6.572 6.572 0 0 1 5.305 2.192l.43-.37a7.135 7.135 0 0 0-5.725-2.391l-.01.57Zm5.305 2.2a8.478 8.478 0 0 1 1.926 5.838h.567a9.042 9.042 0 0 0-2.069-6.214l-.424.375Zm1.926 5.838V62.82h.567V52.397h-.567Zm0 10.424a.574.574 0 0 1-.176.428l.402.401c.218-.22.337-.519.331-.829h-.557Zm-.176.428a.517.517 0 0 1-.39.14v.566c.294.01.58-.1.792-.305l-.402-.401Zm-.39.14h-1.848v.566h1.847v-.567Zm-1.848 0a.663.663 0 0 1-.444-.153l-.371.43c.226.194.515.298.812.292l.003-.57Zm-.41-.123a.663.663 0 0 1-.153-.445h-.57a1.22 1.22 0 0 0 .288.813l.434-.368Zm-.153-.445V52.573h-.57V62.81l.57.01Zm0-10.238a6.164 6.164 0 0 0-1.366-4.258l-.425.378a5.603 5.603 0 0 1 1.22 3.876l.57.004Zm-1.363-4.254a4.877 4.877 0 0 0-3.876-1.539v.567a4.31 4.31 0 0 1 3.445 1.346l.43-.374Zm-3.876-1.539a5.192 5.192 0 0 0-3.939 1.568l.411.392a4.642 4.642 0 0 1 3.528-1.39v-.57Zm-3.939 1.568a5.899 5.899 0 0 0-1.446 4.228h.57a5.335 5.335 0 0 1 1.29-3.833l-.414-.395Zm-1.446 4.228v10.239h.57V52.573l-.57.013Zm0 10.239a.57.57 0 0 1-.175.427l.4.401a1.14 1.14 0 0 0 .332-.828h-.557Zm-.175.427a.517.517 0 0 1-.392.14v.566c.295.01.581-.1.793-.305l-.401-.4Zm-.392.14h-1.846v.566h1.846v-.566Zm27.474.368a7.891 7.891 0 0 1-5.899-2.245l-.404.398a8.455 8.455 0 0 0 6.3 2.414l.003-.567Zm-5.896-2.242a9.483 9.483 0 0 1-2.4-6.253l-.567.03a10.036 10.036 0 0 0 2.556 6.614l.411-.39Zm-2.397-6.246l-.036-1.257h-.567l.036 1.257h.567Zm-.036-1.24l.036-1.22l-.57-.017l-.036 1.22l.57.017Zm.036-1.21a9.52 9.52 0 0 1 2.437-6.181l-.41-.391a10.086 10.086 0 0 0-2.594 6.535l.567.036Zm2.434-6.181a7.729 7.729 0 0 1 5.822-2.278v-.567a8.29 8.29 0 0 0-6.23 2.454l.408.391Zm5.822-2.278a7.65 7.65 0 0 1 6.144 2.527l.431-.372a8.213 8.213 0 0 0-6.575-2.722v.567Zm6.147 2.527a10.046 10.046 0 0 1 2.185 6.836h.57a10.61 10.61 0 0 0-2.32-7.211l-.435.375Zm2.185 6.836v.63h.57v-.63h-.57Zm0 .63a.57.57 0 0 1-.175.428l.4.401c.22-.22.339-.519.332-.829h-.557Zm-.175.428a.517.517 0 0 1-.392.14v.566c.295.01.581-.1.793-.305l-.401-.4Zm-.392.14h-12.791v.566h12.791v-.567Zm-13.076.285v.331h.57v-.331h-.57Zm0 .331a7.294 7.294 0 0 0 1.502 4.267l.447-.351a6.72 6.72 0 0 1-1.382-3.942l-.567.026Zm1.505 4.27a4.702 4.702 0 0 0 3.806 1.768v-.567a4.135 4.135 0 0 1-3.365-1.558l-.441.358Zm3.806 1.768a5.46 5.46 0 0 0 2.925-.71l-.299-.484a4.91 4.91 0 0 1-2.622.624l-.004.57Zm2.925-.71a5.892 5.892 0 0 0 1.707-1.518l-.464-.332a5.348 5.348 0 0 1-1.545 1.366l.302.484Zm1.7-1.512a4.06 4.06 0 0 1 .27-.331a.928.928 0 0 1 .085-.083l.027-.02l-.256-.507a1.08 1.08 0 0 0-.275.225a5.14 5.14 0 0 0-.305.375l.455.341Zm.398-.444c.154-.06.32-.083.484-.07v-.566a1.552 1.552 0 0 0-.775.152l.291.484Zm.484-.07h1.814v-.566h-1.814v.566Zm1.814 0a.55.55 0 0 1 .371.12l.365-.438a1.117 1.117 0 0 0-.736-.252v.57Zm.371.12c.086.075.13.185.12.298h.567a.918.918 0 0 0-.332-.736l-.355.438Zm.12.298a2.984 2.984 0 0 1-.965 1.77l.424.382a3.498 3.498 0 0 0 1.108-2.152h-.567Zm-.965 1.774a8.024 8.024 0 0 1-2.752 1.926l.239.518a8.62 8.62 0 0 0 2.944-2.07l-.431-.374Zm-2.749 1.923a9.828 9.828 0 0 1-4.058.79v.566a10.388 10.388 0 0 0 4.294-.839l-.236-.517Zm1.29-10.315v-.11h-.567v.11h.567Zm0-.11a6.3 6.3 0 0 0-1.475-4.33l-.428.379a5.74 5.74 0 0 1 1.326 3.952h.577Zm-1.472-4.31a4.86 4.86 0 0 0-3.916-1.727v.57a4.31 4.31 0 0 1 3.478 1.526l.438-.368Zm-3.916-1.727a4.86 4.86 0 0 0-3.912 1.728l.434.364a4.31 4.31 0 0 1 3.478-1.525v-.567Zm-3.916 1.728a6.515 6.515 0 0 0-1.399 4.31h.57a5.948 5.948 0 0 1 1.267-3.959l-.438-.351Zm-1.399 4.31v.11h.57v-.11h-.57Zm.285.394h10.13v-.567h-10.13v.567Zm-121.647 97.576a1.926 1.926 0 0 1-1.88-1.88a3.816 3.816 0 0 1 .093-1.034l23.296-60.77a2.921 2.921 0 0 1 3.004-2.065h6.386a2.924 2.924 0 0 1 3.007 2.066l23.21 60.769l.188 1.034a1.933 1.933 0 0 1-1.88 1.88h-4.79a2.437 2.437 0 0 1-1.599-.47c-.333-.314-.59-.7-.75-1.128l-5.165-13.339h-30.809l-5.165 13.339a2.652 2.652 0 0 1-.846 1.127c-.429.33-.961.497-1.502.471h-4.798Zm40.388-23.01L241.255 94.15l-12.676 33.338l25.355.004Zm27.135-34.94a1.963 1.963 0 0 1-2.162-2.159v-5.073a2.367 2.367 0 0 1 .564-1.598a2.175 2.175 0 0 1 1.598-.663h5.918a2.245 2.245 0 0 1 2.255 2.254v5.073c.01.6-.231 1.178-.663 1.595a2.364 2.364 0 0 1-1.595.564l-5.915.006Zm.753 57.953a1.966 1.966 0 0 1-2.162-2.161v-44.523c-.027-.557.177-1.1.564-1.502a2.176 2.176 0 0 1 1.598-.663h4.506a2.252 2.252 0 0 1 2.161 2.159v44.519c.01.601-.23 1.18-.663 1.598c-.402.386-.945.59-1.502.563l-4.502.01Zm22.748 0a1.963 1.963 0 0 1-2.158-2.161v-44.43a2.37 2.37 0 0 1 .563-1.595a2.175 2.175 0 0 1 1.599-.663h4.31a2.245 2.245 0 0 1 2.255 2.255v4.131a14.108 14.108 0 0 1 13.15-6.386h3.646a2.251 2.251 0 0 1 2.159 2.159v3.85a1.877 1.877 0 0 1-.663 1.501a2.03 2.03 0 0 1-1.502.564h-5.637a10.61 10.61 0 0 0-7.984 3.007a10.786 10.786 0 0 0-2.914 7.984v27.613c.01.601-.23 1.18-.663 1.598a2.374 2.374 0 0 1-1.598.563l-4.563.01Zm40.564 0a1.966 1.966 0 0 1-2.159-2.161v-39.171h-7.984a1.963 1.963 0 0 1-2.158-2.159v-3.193c-.027-.557.177-1.1.563-1.502a2.168 2.168 0 0 1 1.595-.663h7.984V96.96c0-10.645 5.385-15.967 16.154-15.965h5.258a2.252 2.252 0 0 1 2.162 2.159v3.193a2.17 2.17 0 0 1-.663 1.594c-.402.386-.945.59-1.502.564h-5.07a6.963 6.963 0 0 0-5.918 2.255a10.77 10.77 0 0 0-1.69 6.667v4.228h20.099V83.159c-.026-.556.177-1.1.563-1.502a2.176 2.176 0 0 1 1.598-.663h4.31a2.252 2.252 0 0 1 2.163 2.159v65.182c.01.601-.23 1.18-.664 1.598c-.403.386-.947.59-1.505.563h-4.31a1.963 1.963 0 0 1-2.162-2.161v-39.161h-20.1v39.167a2.17 2.17 0 0 1-.663 1.598c-.403.387-.947.59-1.505.564l-4.396.003Zm69.296.939a21.508 21.508 0 0 1-16.06-5.826a22.669 22.669 0 0 1-6.012-15.497l-.096-4.039l.096-4.038a22.32 22.32 0 0 1 6.104-15.404c9.182-7.89 22.75-7.89 31.933 0a22.334 22.334 0 0 1 6.104 15.404c.062.687.093 2.034.093 4.038c0 2.005-.031 3.351-.093 4.039a22.453 22.453 0 0 1-6.104 15.497a21.19 21.19 0 0 1-15.981 5.822l.016.004Zm0-7.232a11.877 11.877 0 0 0 9.284-3.756a16.35 16.35 0 0 0 3.757-10.803c.062-.625.092-1.814.092-3.567c0-1.753-.03-2.942-.092-3.568a16.35 16.35 0 0 0-3.757-10.802a11.877 11.877 0 0 0-9.284-3.757a12.172 12.172 0 0 0-9.393 3.757a16.014 16.014 0 0 0-3.647 10.802l-.093 3.568l.093 3.567a16.014 16.014 0 0 0 3.647 10.803a12.172 12.172 0 0 0 9.377 3.753l.016.003Zm45.607 6.3a2.805 2.805 0 0 1-1.877-.564a4.38 4.38 0 0 1-1.127-1.784l-13.339-43.58l-.186-.938a1.906 1.906 0 0 1 .564-1.41a2.125 2.125 0 0 1 1.41-.563h4.13a2.03 2.03 0 0 1 1.502.563c.385.246.682.609.846 1.035l10.428 35.407l11.176-35.032a2.53 2.53 0 0 1 .846-1.327a2.407 2.407 0 0 1 1.784-.663h3.193a2.414 2.414 0 0 1 1.787.663c.416.34.712.806.845 1.327l11.177 35.032l10.425-35.407c.117-.402.347-.76.663-1.035a2.367 2.367 0 0 1 1.598-.563h4.227c.502-.006.982.199 1.327.563c.374.372.578.882.563 1.41l-.189.938l-13.242 43.58a4.387 4.387 0 0 1-1.128 1.784a2.984 2.984 0 0 1-1.99.564h-3.646a2.851 2.851 0 0 1-3.1-2.348l-10.896-33.623l-10.895 33.623a3.077 3.077 0 0 1-3.193 2.348h-3.683Z"/></svg>