<svg xmlns="http://www.w3.org/2000/svg" xmlns:xlink="http://www.w3.org/1999/xlink" width="512" height="207" viewBox="0 0 512 207"><defs><linearGradient id="logosAix0" x1="5.807%" x2="274.587%" y1="101.291%" y2="-4.88%"><stop offset="0%" stop-color="#6FDC8C"/><stop offset="30.49%" stop-color="#6FDC8C"/><stop offset="92.79%" stop-color="#009D9A"/><stop offset="100%" stop-color="#009D9A"/></linearGradient><linearGradient id="logosAix1" x1="-9.904%" x2="128.371%" y1="101.291%" y2="-4.857%"><stop offset="0%" stop-color="#6FDC8C"/><stop offset="30.49%" stop-color="#6FDC8C"/><stop offset="92.79%" stop-color="#009D9A"/><stop offset="100%" stop-color="#009D9A"/></linearGradient><linearGradient id="logosAix2" x1="-136.658%" x2="130.35%" y1="101.291%" y2="-4.857%"><stop offset="0%" stop-color="#6FDC8C"/><stop offset="30.49%" stop-color="#6FDC8C"/><stop offset="92.79%" stop-color="#009D9A"/><stop offset="100%" stop-color="#009D9A"/></linearGradient></defs><path fill="url(#logosAix0)" d="m142.163 206.178l-14.595-49.03H59.544l-14.596 49.03H0L67.147.045h54.874l66.27 206.133h-46.128ZM93.991 40.79h-1.46l-22.48 78.274h46.7L93.991 40.79Z"/><path fill="url(#logosAix1)" d="M208.731 206.178v-35.739h26.27v-134.7h-26.27V0h96.909v35.739h-26.27v134.7h26.27v35.739z"/><path fill="url(#logosAix2)" d="M512 206.178h-51.382l-44.086-75.913h-.876l-42.912 75.913h-47.875l65.393-106.63L328.078 0h51.664l39.703 69.703h.876L460.603 0h47.875l-62.763 100.435z"/></svg>