<svg xmlns="http://www.w3.org/2000/svg" xmlns:xlink="http://www.w3.org/1999/xlink" width="512" height="83" viewBox="0 0 512 83"><path fill="#2D3441" d="m170.703 61.103l3.03-9.796h19.22l3.03 9.796h13.989L192.247 5.396h-16.895l-18.763 55.707h14.114Zm19.22-19.634h-12.828l6.518-20.382l6.31 20.382Zm41.841 19.634V3.82h-13.283v57.284h13.283Zm27.397 19.842V59.382l.04.037c.418.386.864.731 1.34 1.037l.24.149c2.02 1.218 4.538 1.826 7.554 1.826c3.46 0 6.704-.857 9.734-2.573c3.03-1.716 5.48-4.193 7.347-7.43c1.868-3.238 2.802-7.154 2.802-11.748c0-4.621-.92-8.551-2.76-11.789c-1.84-3.238-4.227-5.714-7.16-7.43c-2.934-1.716-6.033-2.574-9.299-2.574c-2.463 0-4.787.63-6.974 1.889c-1.574.906-2.929 2.211-4.065 3.914l-.164.25l-1.084-4.725h-10.834v60.73h13.283Zm7.057-30.635c-1.273 0-2.45-.235-3.528-.705c-1.08-.47-1.938-1.121-2.574-1.951c-.637-.83-.955-1.799-.955-2.906v-6.725l.004-.285c.036-1.226.306-2.31.81-3.256l.12-.215a6.375 6.375 0 0 1 2.595-2.47c1.106-.581 2.366-.872 3.777-.872c1.743 0 3.245.401 4.504 1.204c1.259.802 2.234 1.937 2.926 3.404c.692 1.466 1.038 3.182 1.038 5.147c0 2.325-.463 4.193-1.39 5.604c-.928 1.411-2.062 2.435-3.404 3.072c-1.343.636-2.65.954-3.923.954Zm40.472-35.366c2.436 0 4.359-.644 5.77-1.93c1.412-1.287 2.117-3.107 2.117-5.46c0-2.296-.705-4.13-2.117-5.5C311.05.685 309.126 0 306.69 0c-2.518 0-4.462.685-5.832 2.055s-2.055 3.203-2.055 5.5c0 2.352.685 4.172 2.055 5.458c1.37 1.287 3.314 1.93 5.832 1.93Zm6.642 46.16V19.965h-13.283v41.137h13.283Zm28.56 0V43.875l.001-.422c.032-2.792.378-5.075 1.038-6.85l.102-.262c.76-1.895 1.778-3.272 3.05-4.13a7.345 7.345 0 0 1 4.193-1.287c1.495 0 2.767.519 3.82 1.557c1.05 1.038 1.576 2.636 1.576 4.794v23.827h13.367V37.276c0-3.57-.526-6.738-1.578-9.506c-1.051-2.767-2.69-4.94-4.919-6.517c-2.227-1.577-5.098-2.366-8.613-2.366c-3.072 0-5.818.858-8.24 2.574c-1.503 1.065-2.808 2.508-3.917 4.33l-.114.191l-1.344-5.767h-11.706v40.888h13.283Zm56.494 1.327c3.377 0 6.358-.608 8.946-1.826c2.587-1.218 4.69-2.864 6.31-4.94c1.618-2.075 2.635-4.386 3.05-6.932h-13.2c-.36 1.08-.996 1.868-1.91 2.366c-.912.498-1.978.747-3.196.747c-1.494 0-2.732-.353-3.715-1.058c-.982-.706-1.722-1.695-2.22-2.968c-.499-1.273-.748-2.781-.748-4.525l.001.083h24.573c.656-2.936.783-5.792.383-8.567l-.071-.461c-.485-2.92-1.508-5.542-3.072-7.866c-1.564-2.325-3.618-4.172-6.164-5.542s-5.535-2.055-8.967-2.055c-3.459 0-6.696.858-9.713 2.574c-3.016 1.716-5.452 4.185-7.306 7.41c-1.854 3.223-2.78 7.09-2.78 11.601c0 4.511.933 8.413 2.801 11.706c1.868 3.294 4.31 5.826 7.327 7.597c3.016 1.77 6.24 2.656 9.671 2.656Zm6.31-25.777h-12.933v-.012c.102-1.135.329-2.144.682-3.027l.11-.262c.567-1.286 1.37-2.269 2.407-2.947c1.038-.678 2.262-1.017 3.674-1.017c1.273 0 2.317.256 3.134.768a5.233 5.233 0 0 1 1.888 2.034a8.75 8.75 0 0 1 .893 2.76c.076.499.123.993.14 1.485l.004.218Zm26.11 25.196c2.629 0 4.801-.795 6.517-2.387c1.716-1.59 2.574-3.618 2.574-6.08c0-2.464-.858-4.512-2.574-6.144c-1.716-1.633-3.888-2.45-6.517-2.45c-2.629 0-4.767.817-6.413 2.45c-1.647 1.632-2.47 3.68-2.47 6.143c0 2.435.823 4.456 2.47 6.06c1.646 1.606 3.784 2.408 6.413 2.408Zm25.363-46.906c2.435 0 4.358-.644 5.77-1.93c1.411-1.287 2.117-3.107 2.117-5.46c0-2.296-.706-4.13-2.117-5.5C460.527.685 458.604 0 456.169 0c-2.436 0-4.373.685-5.812 2.055s-2.158 3.203-2.158 5.5c0 2.352.72 4.172 2.158 5.458c1.44 1.287 3.376 1.93 5.812 1.93Zm-7.929 67.454c4.843 0 8.51-1.322 11-3.964c2.491-2.643 3.736-7.106 3.736-13.387V20.049H449.61v44.748c0 2.38-.422 3.972-1.266 4.774c-.844.803-2.124 1.204-3.84 1.204c-1.328 0-2.767-.194-4.317-.581c-1.55-.388-2.92-.817-4.11-1.287v11.415a131.48 131.48 0 0 0 5.688 1.432c1.881.43 4.04.644 6.475.644Zm45.786-19.967c3.432 0 6.503-.636 9.215-1.91c2.712-1.272 4.85-2.926 6.414-4.96c1.563-2.034 2.345-4.185 2.345-6.454c0-2.491-.803-4.567-2.408-6.227c-1.605-1.66-3.805-3.044-6.6-4.151l-11.29-4.525c-1.744-.608-2.616-1.439-2.616-2.49c0-.775.415-1.398 1.246-1.868c.83-.47 1.964-.706 3.403-.706c1.744 0 2.99.325 3.736.976c.748.65 1.121 1.418 1.121 2.303h12.163c-.028-3.93-1.509-7.167-4.442-9.713c-2.933-2.546-7.126-3.819-12.578-3.819c-5.81 0-10.39 1.12-13.74 3.362c-3.348 2.242-5.022 5.175-5.022 8.8c0 2.574.795 4.795 2.387 6.663c1.59 1.868 3.853 3.41 6.787 4.628l9.92 3.86c1.052.416 1.827.831 2.325 1.246c.498.415.747.969.747 1.66c0 .526-.18 1.018-.54 1.474c-.36.457-.899.824-1.618 1.1c-.72.277-1.633.415-2.74.415c-1.826 0-3.272-.276-4.338-.83c-1.065-.553-1.626-1.55-1.68-2.989h-11.997c-.028 3.183.795 5.819 2.47 7.908c1.674 2.09 4.005 3.653 6.994 4.69c2.989 1.039 6.434 1.557 10.336 1.557Z"/><path fill="#77C1D2" d="m105.325 1.708l30.092 29.961l-30.092 29.96l-30.093-29.96z"/><path fill="#2D3441" d="M30.093 1.708L92.479 63.82H32.293L0 31.669z"/></svg>