<svg xmlns="http://www.w3.org/2000/svg" xmlns:xlink="http://www.w3.org/1999/xlink" width="256" height="145" viewBox="0 0 256 145"><path fill="#3DDC84" d="m190.736 43.58l21.305-36.927a4.443 4.443 0 0 0-1.623-6.06a4.436 4.436 0 0 0-6.055 1.625l-21.57 37.395C166.294 32.079 147.768 27.882 128 27.882s-38.297 4.197-54.792 11.731L51.637 2.217A4.437 4.437 0 0 0 45.581.593a4.44 4.44 0 0 0-1.622 6.06L65.264 43.58C28.681 63.494 3.66 100.56 0 144.35h256c-3.663-43.79-28.685-80.856-65.264-100.77m-3.921 42.95c5.828 0 10.568 4.829 10.568 10.764c0 5.937-4.74 10.769-10.568 10.769c-5.826 0-10.566-4.832-10.566-10.769c0-5.935 4.74-10.764 10.566-10.764Zm-117.631 0c5.826 0 10.567 4.829 10.567 10.764c0 5.937-4.741 10.769-10.567 10.769c-5.828 0-10.567-4.832-10.567-10.769c0-5.935 4.74-10.764 10.567-10.764Z"/></svg>