<svg xmlns="http://www.w3.org/2000/svg" xmlns:xlink="http://www.w3.org/1999/xlink" width="256" height="512" viewBox="0 0 256 512"><defs><linearGradient id="logosApache0" x1="16.363%" x2="159.99%" y1="63.905%" y2="20.213%"><stop offset="0%" stop-color="#F69923"/><stop offset="31.23%" stop-color="#F79A23"/><stop offset="83.83%" stop-color="#E97826"/></linearGradient><linearGradient id="logosApache1" x1="-217.651%" x2="74.743%" y1="394.672%" y2="13.846%"><stop offset="32.33%" stop-color="#9E2064"/><stop offset="63.02%" stop-color="#C92037"/><stop offset="75.14%" stop-color="#CD2335"/><stop offset="100%" stop-color="#E97826"/></linearGradient><linearGradient id="logosApache2" x1="-80.044%" x2="146.24%" y1="170.418%" y2="-44.299%"><stop offset="32.33%" stop-color="#9E2064"/><stop offset="63.02%" stop-color="#C92037"/><stop offset="75.14%" stop-color="#CD2335"/><stop offset="100%" stop-color="#E97826"/></linearGradient><linearGradient id="logosApache3" x1="-18.316%" x2="165.002%" y1="77.36%" y2="-41.416%"><stop offset="0%" stop-color="#282662"/><stop offset="9.548%" stop-color="#662E8D"/><stop offset="78.82%" stop-color="#9F2064"/><stop offset="94.87%" stop-color="#CD2032"/></linearGradient><linearGradient id="logosApache4" x1="-129.783%" x2="66.456%" y1="463.715%" y2="17.19%"><stop offset="32.33%" stop-color="#9E2064"/><stop offset="63.02%" stop-color="#C92037"/><stop offset="75.14%" stop-color="#CD2335"/><stop offset="100%" stop-color="#E97826"/></linearGradient><linearGradient id="logosApache5" x1="-34.88%" x2="110.599%" y1="187.706%" y2="-51.1%"><stop offset="32.33%" stop-color="#9E2064"/><stop offset="63.02%" stop-color="#C92037"/><stop offset="75.14%" stop-color="#CD2335"/><stop offset="100%" stop-color="#E97826"/></linearGradient><linearGradient id="logosApache6" x1="-20.619%" x2="125.26%" y1="192.564%" y2="-136.906%"><stop offset="0%" stop-color="#282662"/><stop offset="9.548%" stop-color="#662E8D"/><stop offset="78.82%" stop-color="#9F2064"/><stop offset="94.87%" stop-color="#CD2032"/></linearGradient></defs><path fill="url(#logosApache0)" d="M218.048 2.889c-7.969 4.681-21.316 18.129-37.254 37.553v1.195l13.945 25.8l.698.498c10.26-14.643 20.619-27.891 31.178-39.147c.797-.897 1.195-1.295 1.195-1.295c-.398.398-.797.896-1.195 1.295c-3.387 3.785-13.747 15.738-29.286 39.645l1.793.398s36.358-3.586 53.89-6.574l.996-.897c5.578-31.278-5.479-45.621-5.479-45.621s-13.945-22.513-30.48-12.85Z"/><path fill="url(#logosApache1)" d="M152.405 139.156c4.482-8.267 8.965-16.435 13.447-24.305c4.682-8.168 9.463-16.137 14.344-23.807c.299-.398.598-.896.797-1.394a547.709 547.709 0 0 1 14.444-21.715l-14.643-27.593c-1.096 1.295-2.192 2.69-3.287 4.084c-4.184 5.28-8.567 10.858-13.05 16.835a769.377 769.377 0 0 0-15.539 21.516a828.534 828.534 0 0 0-14.742 21.814c-4.184 6.475-8.467 13.05-12.65 19.923c-.2.298-.3.498-.499.797v1.095l18.229 36.159l.797.299c4.084-7.97 8.168-15.938 12.352-23.708Z"/><path fill="url(#logosApache2)" d="M73.015 316.165c3.287-8.567 6.773-17.233 10.26-25.998c3.386-8.368 6.773-16.835 10.36-25.302c3.486-8.467 7.171-16.933 10.857-25.5c3.785-8.666 7.57-17.332 11.455-25.899c3.885-8.467 7.77-16.934 11.754-25.301a376.829 376.829 0 0 1 4.383-9.065c2.49-5.18 5.08-10.36 7.57-15.44c.1-.298.3-.497.399-.796l-19.026-37.553l-.896 1.494c-4.383 7.271-8.866 14.642-13.149 22.213a872.556 872.556 0 0 0-12.85 23.309c-3.586 6.674-6.972 13.348-10.36 20.121c-.697 1.395-1.294 2.69-1.991 4.084a514.412 514.412 0 0 0-11.256 24.704c-3.786 8.965-7.172 17.531-10.16 25.7c-1.993 5.378-3.686 10.459-5.38 15.44a609.063 609.063 0 0 0-3.785 12.65a359.905 359.905 0 0 0-7.272 29.783l.3 1.196l18.228 36.258l.598.299c2.49-6.774 5.08-13.547 7.77-20.52c.697-1.992 1.494-3.885 2.19-5.877Z"/><path fill="url(#logosApache3)" d="M43.73 306.104c-2.391 12.053-4.085 24.106-4.981 36.06c0 .398-.1.796-.1 1.294c-5.977-9.562-21.914-18.826-21.914-18.826c11.455 16.535 20.121 32.971 21.416 49.108c-6.076 1.295-14.444-.598-24.205-4.084c10.06 9.264 17.63 11.854 20.619 12.551c-9.264.598-18.926 6.973-28.688 14.244c14.244-5.777 25.7-8.068 33.967-6.275C26.795 427.132 13.746 467.972.598 511.203c3.984-1.195 6.375-3.885 7.77-7.57c2.29-7.87 17.83-59.269 42.035-126.905c.697-1.892 1.395-3.884 2.092-5.777c.2-.498.398-1.096.598-1.594c2.59-7.072 5.18-14.344 7.968-21.715c.598-1.693 1.295-3.387 1.893-5.08v-.1L43.928 304.81c0 .498-.1.897-.199 1.295Z"/><path fill="url(#logosApache4)" d="M197.33 68.532c-4.284 6.575-8.966 14.045-14.046 22.512c-.299.399-.498.897-.797 1.295a835.931 835.931 0 0 0-13.846 24.206a1000.618 1000.618 0 0 0-13.148 24.604a923.83 923.83 0 0 0-12.253 24.404l.897.399l46.319-4.98l1.096-.798c14.045-6.474 20.32-12.351 26.397-20.818a230.24 230.24 0 0 0 4.88-7.272c4.981-7.77 9.862-16.237 14.145-24.703c4.184-8.169 7.87-16.337 10.758-23.608c1.793-4.682 3.287-8.965 4.284-12.75c.896-3.387 1.593-6.575 2.091-9.563c-18.726 3.287-41.737 6.375-56.778 7.072Z"/><path fill="url(#logosApache5)" d="M141.447 169.438c-1.593 3.387-3.287 6.873-4.98 10.36c-1.793 3.785-3.686 7.77-5.479 11.754c-.896 1.992-1.892 4.084-2.789 6.076c-2.888 6.176-5.678 12.551-8.666 19.125a1712.552 1712.552 0 0 0-10.957 25.202c-3.586 8.367-7.172 16.934-10.758 25.899a1436.099 1436.099 0 0 0-10.46 26.197c-3.187 8.069-6.374 16.237-9.562 24.803c-.2.399-.299.797-.498 1.196c-3.187 8.467-6.296 17.08-9.584 25.945c-.1.2-.277.718-.377.917l.688.153l13.855-1.49l.782-.324c-.299-.1-.483-.498-.782-.597c18.329-2.291 42.733-16.038 58.571-32.972c7.272-7.77 13.846-17.033 20.022-27.79c4.582-8.07 8.766-16.935 12.85-26.796c3.586-8.567 6.973-17.93 10.26-27.99c-4.184 2.19-9.065 3.884-14.344 4.98c-.897.199-1.893.398-2.889.597c-.996.2-1.992.3-2.889.498c17.134-6.574 27.892-19.324 35.76-34.863c-4.482 3.087-11.853 7.072-20.619 9.064c-1.195.299-2.39.498-3.685.697c-.3 0-.598.1-.897.1c5.977-2.49 10.957-5.28 15.34-8.567c.897-.697 1.793-1.394 2.69-2.191c1.295-1.195 2.59-2.39 3.785-3.586c.797-.797 1.494-1.594 2.291-2.49a55.754 55.754 0 0 0 4.781-6.575c.498-.697.897-1.494 1.395-2.191c.598-1.096 1.096-2.191 1.594-3.287c2.39-4.781 4.283-9.065 5.777-12.85c.797-1.893 1.395-3.586 1.992-5.28c.2-.597.399-1.294.698-1.892c.597-1.793 1.095-3.387 1.494-4.88a43.27 43.27 0 0 0 1.096-4.981c-.598.498-1.196.896-1.993 1.394c-5.18 3.088-14.045 5.877-21.217 7.172l14.145-1.594l-14.145 1.594c-.996.2-1.693.299-2.49.498c.066-.066-15.91 1.623-47.926 5.067c-.2.2-1.381 2.703-1.88 3.898Z"/><path fill="url(#logosApache6)" d="M65.843 350.63c-2.49 6.874-5.08 13.946-7.57 21.118c0 .1-.1.2-.1.299c-.399.996-.698 1.992-1.096 3.088c-1.693 4.88-3.188 9.164-6.574 19.125c5.578 2.59 10.06 9.264 14.344 16.934c-.399-7.87-3.686-15.34-9.961-21.018c27.592 1.195 51.399-5.778 63.651-25.899a51.043 51.043 0 0 0 2.988-5.678c-5.578 7.073-12.55 10.06-25.5 9.364h-.1h.1c19.225-8.567 28.787-16.835 37.354-30.481a170.153 170.153 0 0 0 5.977-10.659c-16.835 17.233-36.259 22.114-56.679 18.428l-15.34 1.694c-.498 1.095-.996 2.39-1.494 3.685Z"/></svg>