<svg xmlns="http://www.w3.org/2000/svg" xmlns:xlink="http://www.w3.org/1999/xlink" width="512" height="266" viewBox="0 0 512 266"><defs><linearGradient id="logosApacheFlink0" x1="86.68%" x2="34.378%" y1="345.178%" y2="-88.846%"><stop offset="38.36%" stop-color="#FAA100"/><stop offset="65.84%" stop-color="#BF73F2"/><stop offset="66.49%" stop-color="#C370E6"/><stop offset="68.52%" stop-color="#CC68C7"/><stop offset="70.81%" stop-color="#D461AB"/><stop offset="73.41%" stop-color="#DB5B95"/><stop offset="76.43%" stop-color="#E05784"/><stop offset="80.17%" stop-color="#E35479"/><stop offset="85.43%" stop-color="#E55272"/><stop offset="100%" stop-color="#E65270"/></linearGradient><linearGradient id="logosApacheFlink1" x1="123.854%" x2="8.88%" y1="422.194%" y2="-119.166%"><stop offset="38.36%" stop-color="#FAA100"/><stop offset="65.84%" stop-color="#BF73F2"/><stop offset="66.49%" stop-color="#C370E6"/><stop offset="68.52%" stop-color="#CC68C7"/><stop offset="70.81%" stop-color="#D461AB"/><stop offset="73.41%" stop-color="#DB5B95"/><stop offset="76.43%" stop-color="#E05784"/><stop offset="80.17%" stop-color="#E35479"/><stop offset="85.43%" stop-color="#E55272"/><stop offset="100%" stop-color="#E65270"/></linearGradient><linearGradient id="logosApacheFlink2" x1="51.806%" x2="48.763%" y1="110.214%" y2="-15.847%"><stop offset="0%" stop-color="#FAA7B5"/><stop offset="38.36%" stop-color="#FAA100"/><stop offset="73.17%" stop-color="#BF73F2"/></linearGradient><linearGradient id="logosApacheFlink3" x1="9.624%" x2="53.938%" y1="174.162%" y2="52.867%"><stop offset="0%" stop-color="#F6E8A0"/><stop offset="100%" stop-color="#E65271"/></linearGradient><linearGradient id="logosApacheFlink4" x1="18.163%" x2="57.435%" y1="115.602%" y2="6.468%"><stop offset="0%" stop-color="#F6E8A0"/><stop offset="100%" stop-color="#E65271"/></linearGradient><linearGradient id="logosApacheFlink5" x1="51.576%" x2="48.369%" y1="144.243%" y2="-2.868%"><stop offset="0%" stop-color="#F6E8A0"/><stop offset="100%" stop-color="#E65271"/></linearGradient><linearGradient id="logosApacheFlink6" x1="65.496%" x2="28.276%" y1="-23.996%" y2="199.501%"><stop offset="0%" stop-color="#E65271"/><stop offset="38.36%" stop-color="#FAA100"/></linearGradient><linearGradient id="logosApacheFlink7" x1="-21.695%" x2="118.648%" y1="117.773%" y2="13.116%"><stop offset="0%" stop-color="#F6E8A0"/><stop offset="100%" stop-color="#E65271"/></linearGradient><linearGradient id="logosApacheFlink8" x1="136.302%" x2="44.464%" y1="88.561%" y2="47.699%"><stop offset="0%" stop-color="#FAA7B5"/><stop offset="38.36%" stop-color="#FAA100"/><stop offset="73.17%" stop-color="#BF73F2"/></linearGradient><linearGradient id="logosApacheFlink9" x1="247.226%" x2="-42.877%" y1="117.351%" y2="21.898%"><stop offset="0%" stop-color="#FAA7B5"/><stop offset="38.36%" stop-color="#FAA100"/><stop offset="73.17%" stop-color="#BF73F2"/></linearGradient><linearGradient id="logosApacheFlinka" x1="91.391%" x2="15.342%" y1="124.223%" y2="-22.546%"><stop offset=".41%" stop-color="#FAA7B5"/><stop offset="38.36%" stop-color="#FAA100"/></linearGradient><linearGradient id="logosApacheFlinkb" x1="61.371%" x2="41.434%" y1="231.482%" y2="-48.06%"><stop offset="0%" stop-color="#FAA7B5"/><stop offset="38.36%" stop-color="#FAA100"/><stop offset="73.17%" stop-color="#BF73F2"/></linearGradient><linearGradient id="logosApacheFlinkc" x1="62.96%" x2="47.079%" y1="264.45%" y2="-3.73%"><stop offset="0%" stop-color="#FAA7B5"/><stop offset="38.36%" stop-color="#FAA100"/><stop offset="73.17%" stop-color="#BF73F2"/></linearGradient><linearGradient id="logosApacheFlinkd" x1="45.112%" x2="51.839%" y1="198.471%" y2="-11.691%"><stop offset="0%" stop-color="#FAA7B5"/><stop offset="38.36%" stop-color="#FAA100"/><stop offset="73.17%" stop-color="#BF73F2"/></linearGradient><linearGradient id="logosApacheFlinke" x1="51.069%" x2="47.62%" y1="251.524%" y2="-371.603%"><stop offset="0%" stop-color="#FAA7B5"/><stop offset="38.36%" stop-color="#FAA100"/><stop offset="73.17%" stop-color="#BF73F2"/></linearGradient><linearGradient id="logosApacheFlinkf" x1="117.859%" x2="-13.227%" y1="161.981%" y2="-54.387%"><stop offset="0%" stop-color="#FAA7B5"/><stop offset="38.36%" stop-color="#FAA100"/><stop offset="73.17%" stop-color="#BF73F2"/></linearGradient><radialGradient id="logosApacheFlinkg" cx="66.292%" cy="20.697%" r="99.479%" fx="66.292%" fy="20.697%" gradientTransform="matrix(-.25797 .2899 -.07814 -.95706 .85 .213)"><stop offset=".91%" stop-color="#FFF"/><stop offset="100%" stop-color="#FFF" stop-opacity="0"/></radialGradient><radialGradient id="logosApacheFlinkh" cx="151.819%" cy="109.034%" r="231.346%" fx="151.819%" fy="109.034%" gradientTransform="matrix(-1 0 0 -.35273 3.036 1.475)"><stop offset=".91%" stop-color="#FFF"/><stop offset="100%" stop-color="#FFF" stop-opacity="0"/></radialGradient><radialGradient id="logosApacheFlinki" cx="39.194%" cy="70.415%" r="113.781%" fx="39.194%" fy="70.415%" gradientTransform="matrix(-1 0 0 -.51832 .784 1.07)"><stop offset=".91%" stop-color="#FFF"/><stop offset="100%" stop-color="#FFF" stop-opacity="0"/></radialGradient></defs><path d="M275.508 187.829h50.06v12.047h-36.257v21.25h34.177v11.612h-34.177v32.644h-13.803zm62.328-5.258h13.146v82.811h-13.146zm27.494 12.378q-.001-3.175 2.354-5.532q2.355-2.355 5.971-2.355q3.614.001 6.08 2.244q2.466 2.248 2.465 5.641q0 3.398-2.465 5.641q-2.465 2.245-6.08 2.244t-5.97-2.355q-2.356-2.35-2.355-5.528m1.862 17.854h13.144v52.58h-13.144zm29.137 0h12.488v8.435h.22q1.75-3.942 6.08-6.955q4.326-3.014 10.241-3.014c3.433 0 6.37.604 8.819 1.808q3.668 1.807 6.025 4.764c1.57 1.971 2.72 4.238 3.45 6.79a28.6 28.6 0 0 1 1.097 7.888v32.863h-13.145v-29.137q0-2.3-.329-4.82q-.329-2.518-1.424-4.546a9.46 9.46 0 0 0-3.011-3.34q-1.919-1.315-5.095-1.315q-3.177.001-5.476 1.26q-2.302 1.26-3.78 3.23q-1.48 1.972-2.244 4.547a18 18 0 0 0-.766 5.202v28.92h-13.145v-52.58zm63.97-30.232h13.145v52.358h.328l19.935-22.127h16.868l-22.782 23.77L512 265.383h-17.417l-20.811-26.948h-.328v26.948H460.3z"/><path fill="#E65270" d="M167.236 261.513a835 835 0 0 0-10.503-.054l-9.04.008s-25.846-.01-38.204-.01c-1.937 0-3.885.007-5.828.012c-1.942.005-3.885.013-5.832.013q-1.823.001-3.642-.01c-7.35-.044-14.378-.927-20.882-2.632c-25.909-6.778-45.524-22.148-58.31-45.674c-6.13-11.277-9.613-23.894-10.348-37.486c-.327-6.046-.019-12.241.919-18.411c.111-.736.246-1.471.378-2.212l.298-1.684l.505.498c.267.264.35.538.41.746c.253.82.486 1.655.725 2.481c.492 1.722 1.005 3.504 1.605 5.214c4.406 12.567 11.097 24.34 20.452 36.008c.37.46.648.971.808 1.466c3.173 9.767 8.687 18.203 16.385 25.098c7.488 6.703 16.466 11.723 26.72 14.947c-6.576-2.812-12.666-6.41-18.141-10.728c-8.928-7.042-15.367-15.66-19.123-25.616c-.376-1-.692-2.207-.181-3.543c.165-.456.284-.928.409-1.402c.08-.326.16-.652.264-.976c2.023-6.613 5.095-11.798 9.39-15.844c4.003-3.771 9.1-6.53 15.586-8.436c6.056-1.782 12.376-2.585 18.486-3.362l2.621-.336c3.42-.449 6.89-.977 10.239-1.495l2.018-.31c.75-.115 1.497-.278 2.271-.446l1.883-.394l-.494.842c-.04.072-.07.132-.125.194a51.8 51.8 0 0 0-7.915 11.754c-.174.36-.552.692-.917.808c-.45.148-.899.293-1.347.443c-1.427.48-2.898.961-4.395 1.259c-1.611.321-3.261.554-4.86.777c-1.279.181-2.556.36-3.83.593c-4.28.762-7.594 2.137-10.096 4.237a18 18 0 0 1 1.673-.295c.774-.111 1.572-.23 2.302-.482c3.945-1.372 8.276-2.01 13.632-2.01l.723.003c.958.01 1.92.054 2.89.101l1.883.078l-.142.463c-3.839 12.55-3.73 24.863.308 36.669c-1.689-8.006-1.997-15.443-.95-22.63c1.598-10.985 6.439-20.452 14.39-28.137c5.36-5.182 12.088-9.534 20.56-13.295c7.36-3.27 15.026-5.234 22.244-6.97l1.365-.334c5.15-1.238 10.478-2.517 15.634-4.033c7.737-2.266 14.461-5.993 19.986-11.096c.826-.764 1.769-1.631 2.51-2.59c5.276-6.838 11.427-11.689 18.799-14.833c.212-.091.453-.316.606-.573c2.414-3.937 5.307-6.835 8.848-8.868c.79-.454 1.574-.681 2.338-.681c.97 0 1.938.37 2.883 1.09c.358.274.684.562.972.855c1.24 1.246 2.232 2.779 3.136 4.815c.112.243.213.32.485.355c.9.119 1.826.24 2.748.422c15.061 2.986 25.543 14.57 27.364 30.24c.05.416.08.839.117 1.258c.077.995.16 2.02.456 2.945c.375 1.168.935 2.32 1.486 3.422c.239.49.487.99.713 1.489c.194.43.398.855.6 1.28c.48 1.007.967 2.035 1.376 3.09a7.6 7.6 0 0 1 .217 4.941c-.207.72-.642.827-.885.827a1.1 1.1 0 0 1-.58-.187a15 15 0 0 1-1.187-.868c-.181-.15-.37-.287-.557-.427a22 22 0 0 1-.611-.487c-.487-.378-.935-.746-1.443-1.023a1.16 1.16 0 0 0-.557-.158a1 1 0 0 0-.546.168l.71.635a279 279 0 0 1 3.773 3.393c.262.238.436.679.412 1.036c-.147 2.352-.968 4.302-2.447 5.805c-1.762 1.782-3.608 2.647-5.642 2.647q-.653-.001-1.331-.122c-.08.79-.251 1.085-.91 1.437c-4.159 2.256-8.215 3.355-12.393 3.355l-.653-.006c-2.846 0-5.617.809-8.723 2.541c-1.072.594-2.018 1-2.898 1.233c-2.67.71-5.367.977-7.807 1.09c1.046.146 2.14.216 3.313.216c.748 0 1.52-.031 2.352-.086l.479-.049c.352-.034.71-.065 1.051-.065c.459 0 .837.057 1.156.19c2.175.89 4.304 1.968 6.301 2.988c.391.202.674.285.933.285c.147 0 .285-.028.435-.083l.583-.217c1.09-.412 2.214-.837 3.292-1.313c2.554-1.137 4.76-1.674 6.936-1.674c.583 0 1.163.044 1.743.122c1.49.202 3.233.544 4.802 1.51c.775.477 1.806 1.272 1.901 2.756c.006.026.055.114.177.228q.287.259.59.505c.202.166.41.34.604.523c1.217 1.117 1.753 2.53 1.603 4.207c-.05.468-.153 1.567-1.093 1.567c-.283 0-.617-.104-1.083-.34a3 3 0 0 0-.536-.228c.461.28.907.562 1.344.86c1.039.707 1.547 1.79 1.497 3.217c-.098 3.108-3.372 6.05-6.737 6.05c-.398 0-.795-.048-1.168-.126c-.992-.22-2.225-.635-2.968-1.925a.4.4 0 0 0-.127-.098l-.572.026c-.674.026-1.368.054-2.013.202l-.189.044c-1.096.254-2.222.505-3.38.505c-.464 0-.894-.041-1.313-.122c-.516-.096-1.026-.223-1.55-.352l-.377-.09c-.596 1.94-1.565 3.76-2.873 5.423c-2.93 3.727-6.835 6.351-11.932 8.022c-3.694 1.217-7.67 1.826-11.816 1.826c-2.179 0-4.466-.164-6.794-.495c-9.185-1.313-15.595-6.307-19.058-14.839c-.586-1.43-.977-2.947-1.358-4.419a71 71 0 0 0-.58-2.142c-1.088-3.7-2.458-6.964-4.193-9.995c-3.152-5.499-7.048-9.418-11.915-11.98c-3.89-2.048-8.148-3.087-12.65-3.087c-1.885 0-3.857.18-5.864.54c-.407.072-.81.16-1.222.248c1.416.065 2.76.142 4.123.274c6.297.638 12.031 2.572 17.043 5.748c6.82 4.328 11.003 9.705 12.787 16.434a59 59 0 0 0 4.233 11.135c1.046 2.103 2.377 4.538 4.294 6.594c2.712 2.899 6.203 4.88 10.985 6.225c1.308.37 2.608.771 3.9 1.186c.715.23 1.213.725 1.52 1.523c.75 1.942.936 3.921.553 5.877c-.562 2.872-1.927 5.532-4.178 8.13c-1.777 2.049-3.981 3.538-6.116 4.98a32 32 0 0 0-2.996 2.267c-.785.674-1.192 1.554-1.145 2.482c.065 1.528.179 1.585.466 1.585c.238 0 .611-.09 1.22-.288a10 10 0 0 0 .886-.347l1.78-.767c1.015-.437 2.025-.878 3.05-1.302c2.218-.922 4.411-1.399 6.515-1.399c1.126 0 2.248.135 3.343.396c3.94.943 6.525 3.282 7.685 6.957c.308.995.267 1.844-.142 2.536c-.27.459-.889.842-1.401.857c-.477 0-.92-.422-1.264-.797c-.19-.21-.239-.485-.272-.723c-.016-.078-.029-.16-.047-.233c-.35-1.308-.834-2.163-1.564-2.735c1.305 1.774 1.888 3.67 1.782 5.776c-.107 2.09-1.674 3.548-3.81 3.548c-.086 0-.171-.005-.267-.01c-.811-.05-1.329-.487-1.412-1.207c-.057-.498-.057-1.01-.06-1.502q.001-.308-.005-.614c-.005-.27-.002-.531 0-.8c0-.576.003-1.117-.067-1.65c-.16-1.15-.844-1.928-2.033-2.308a1 1 0 0 0-.254-.06c.36.205.668.487.89.896c.441.816.814 1.56 1.021 2.36c.529 2.126.008 3.784-1.504 4.8c-.785.52-1.79.714-2.676.838c-.36.052-.712.068-1.067.068c-1.324 0-2.619-.311-3.865-.606l-.637-.153c-1.183-.27-2.23-.41-3.237-.412c-.86 0-1.756.166-2.622.326l-.398.073c-6.561 1.181-12.462 1.753-18.025 1.753z"/><path fill="#430A1D" d="M220.636 184.95s-9.671 11.541-26.103 4.929c-15.048-6.064-9.56-22.752-9.56-22.752s2.665 10.35 10.454 14.271c11.274 5.68 25.21 3.552 25.21 3.552m-47.664 4.941c2.095 2.13 2.134 4.308 2.792 6.963c1.24 4.993 2.766 9.33 5.947 13.437c3.059 3.948 6.719 6.74 11.446 8.555c4.095 1.57 9.358 1.106 8.576 7.203l-1.37 5.134c-10.467 0-20.268-4.776-24.262-15.162c-3.502-9.112.621-20.123-9.99-35.53c.847 1.04 5.776 8.29 6.861 9.4" opacity=".2"/><path fill="#2B2B2B" d="M168.832 185.364c.16.647.303 1.305.45 1.96c-.39-.481-.593-1.09-.45-1.96" opacity=".2"/><path fill="url(#logosApacheFlink0)" d="M46.897 38.782C7.42 42.682 2.774 81.98 2.774 81.98s-2.145 18.213 2.86 36.08c3.213-32.506 29.29-55.01 29.29-55.01s5.73-18.522 11.972-24.267" transform="matrix(1 0 0 -1 0 263.961)"/><path fill="#2B2B2B" d="M37.054 210.214s-8.28.787-19.325-12.622c10.648 19.325 24.45 19.718 24.45 19.718z" opacity=".2"/><path fill="url(#logosApacheFlink1)" d="M58.389 31.185c-2.07 36.34 19.265 19.478 30.278 38.748c3.095 16.862 12.384 27.528 12.384 27.528s-66.064 12.386-67.1-35.788c2.3-10.43 12.41-20.516 18.742-25.973c-1.24 2.792-17.012 46.19 35.513 42.651c-18.13 1.544-44.304-17.395-31.83-45.767a44 44 0 0 1 2.013-1.399" transform="matrix(1 0 0 -1 0 263.961)"/><path fill="#FFF" d="M76.248 180.37C62.593 185.504 39.4 185.48 46 220.325c-1.056.793-6.333-7.392-5.017-6.597c-6.071-31.151 21.2-29.35 35.265-33.358" opacity=".2"/><path fill="#8B4FBA" d="M93.54 167.891c13.279-5.253 2.496 9.64.61 12.023c-4.361 5.512-15.387 3.72-21.267 5.559c-3.38 1.056-16.926 3.043-21.418 15.872c-1.997 5.683-2.745 14.973 1.505 26.28c-1.054.797-8.04-6.854-6.718-6.067c-11.208-50.07 41.667-32.096 47.287-53.667" opacity=".6"/><path fill="#F9E0E7" d="M225.563 147.445c.362-.995.979-2.267 1.758-3.018c.182.086.379.096.526.19c1.295-.84 3.339-.729 4.968-.729c.971 0 2.393-.269 3.33.096c1.368.531 1.213 1.971 1.783 3.062c1.072 2.036 4.38 2.062 4.39 4.94c.01 1.354.35 3.19.005 4.516c-.261.985-1.36.684-2.31.684c-2.87 0-5.737.08-8.615.08l-3.978-2.965c-1.062.339-1.891-1.888-2.039-2.645c-.235-1.246-.266-2.973.182-4.211"/><path fill="#FFF" d="M238.837 151.39c.487-.2 1.207-.98 1.505-1.438c.217-.33.158-.539.621-.526c1.215.034 1.226 1.673 1.163 2.52c-.072 1.083-.51 2.078-.668 3.142c-.393-.098-.611-.593-1.057-.717c-.35-.104-.854-.055-1.225-.04c-.536.024-1.284.387-1.771.18z"/><path fill="url(#logosApacheFlink2)" d="M81.498 165.832c.181.21.23.272.285.332c5.27 4.92 8.063 11.132 9.565 18.076c.987 4.546-.27 8.555-2.318 12.474c-.036.065-.101.13-.171.218c-.41-1.28-.782-2.536-1.217-3.772c-1.07-3.046-2.365-5.993-4.422-8.516c-.82-1.005-35.256-20.081-31.71-62.328c.02-.262.064-.51.1-.803c.638.593 1.195 1.207 1.837 1.712c2.292 1.792 4.937 2.934 7.7 3.706c5.054 1.41 10.138 2.704 15.233 3.95c5.791 1.42 11.619 2.735 17.211 4.875c3.163 1.207 6.097 2.797 8.905 4.714c4.178 2.86 7.788 6.28 10.897 10.244c1.81 2.307 2.654 4.069 3.47 6.78c.516-1.39.246-5.28-.53-7.762c-.809-2.562-2.171-4.8-3.948-6.853c.425.134.891.204 1.272.422c4.926 2.807 9.29 6.265 12.513 11.005c2.16 3.176 3.476 6.652 3.66 10.521c.002.055.028.109.043.194c1.026-4.747.878-12.828-4.473-18.57c1.891.665 3.603 1.336 5.351 1.856c1.448.43 2.404 1.277 3.202 2.55c3.512 5.557 6.423 11.385 7.998 17.811c1.22 4.963 1.523 9.946.158 14.932c-1.549 5.636-4.952 9.975-9.583 13.422c-3.217 2.396-6.766 4.173-10.49 5.629c-.226.088-.45.168-.674.266c-.036.013-.054.055-.194.21c1.29-.355 2.445-.655 3.59-.994c5.338-1.586 10.448-3.652 14.976-6.963c4.04-2.952 7.133-6.635 8.68-11.479c1.38-4.336 1.26-8.718.269-13.1c-1.45-6.393-4.43-12.084-8.053-17.474c-.111-.17-.22-.334-.326-.502c-.016-.024-.013-.068-.034-.163c.15.057.27.095.378.152c7.595 3.883 14.342 8.848 19.719 15.52c5.222 6.476 9.019 13.687 10.827 21.856c2.271 10.308-.218 19.462-6.895 27.535c-4.22 5.11-9.439 8.975-15.212 12.125c-7.452 4.056-15.38 6.708-23.772 7.928c-4.771.697-9.547.829-14.316-.088c-2.62-.497-4.32-1.186-7.224-2.865c.368.314.718.645 1.104.928c2.608 1.98 5.615 3.004 8.773 3.644c5.221 1.057 10.487 1.044 15.753.43c8.153-.953 15.924-3.212 23.287-6.854c.72-.362 1.433-.733 2.228-1.142c0 .668-.042 1.251.01 1.829c.065.89.516 1.4 1.218 1.484c.668.083 1.059-.169 1.191-.826c.106-.557.135-1.13.215-1.69c.179-1.274.772-2.354 1.647-3.291a1.6 1.6 0 0 1 .298-.251c.052-.04.12-.037.306-.073c0 .458.002.88 0 1.3c-.013.852-.05 1.707-.029 2.56c.006.21.156.546.298.587c.2.055.562-.046.69-.204c.333-.44.693-.917.844-1.44c.334-1.109.486-2.27.831-3.37a6.8 6.8 0 0 1 1.044-2.008c.494-.647 1-.505 1.189.288c.176.74.24 1.51.352 2.266c.039.262.05.531.13.775c.062.21.217.383.328.577c.171-.158.425-.274.498-.471c.173-.44.344-.914.367-1.378c.055-1.026-.044-2.06.032-3.08a4 4 0 0 1 .486-1.595c.296-.526.772-.464.933.124c.236.84.352 1.707.52 2.564c.12.58.241 1.158.381 1.868c.687-.586.852-1.236.92-1.865c.173-1.676.261-3.36.406-5.038c.117-1.259.547-2.365 1.29-3.44c1.35-1.955 2.544-4.025 3.753-6.076c.62-1.051 1.194-1.147 1.777-.065c.658 1.23 1.148 2.544 1.704 3.831c.244.562.446 1.135.702 1.689c.12.27.322.497.505.777c.661-.48.819-1.106.692-1.728c-.189-.935-.534-1.844-.777-2.769c-.264-1.01-.541-2.017-.7-3.048c-.059-.414.128-.912.314-1.313c.27-.583.694-.653 1.147-.197c.467.46.824 1.023 1.275 1.492c.256.27.606.432.917.645c.173-.378.526-.772.494-1.135a8.2 8.2 0 0 0-.53-2.274c-.578-1.463-1.35-2.857-1.845-4.34c-.357-1.078-.424-2.257-.541-3.4c-.034-.279.202-.774.422-.854c.23-.08.687.148.891.373c.94 1.031 1.824 2.121 2.748 3.18c.223.265.526.451.79.68c.09-.047.176-.083.27-.133c-.091-.598-.065-1.246-.283-1.802a17 17 0 0 0-1.357-2.676c-.837-1.34-1.792-2.595-2.647-3.916c-1.585-2.443-2.637-5.11-3.292-7.95c-.477-2.04-1.147-4.037-1.738-6.045c-.067-.248-.16-.49-.168-.766c.515.82 1.02 1.66 1.554 2.478c1.116 1.72 2.403 3.3 4.134 4.44c.87.57 1.805 1.083 2.779 1.44c5.006 1.842 10.067 3.554 14.838 5.955c1.358.691 2.655 1.523 3.89 2.424c1.565 1.134 2.14 2.717 1.674 4.634l-.992 4.045c-.808-1.29-1.523-2.533-2.336-3.698c-.814-1.166-1.824-2.155-3.323-2.82c.137.256.173.367.243.458c2.103 2.898 3.313 6.193 4.253 9.604c.096.352-.013.777-.075 1.158c-.43 2.486-.223 4.978-.111 7.472a7.5 7.5 0 0 1-.044 1.502c-.032.228-.215.513-.41.599c-.132.06-.476-.122-.593-.28c-.484-.679-1.023-1.344-1.347-2.093c-1.303-3.028-2.548-6.082-3.794-9.128c-1.55-3.804-3.292-7.498-5.955-10.673c-1.204-1.438-2.572-2.689-4.255-3.562a6.6 6.6 0 0 0-1.024-.409c2.604 2.691 3.186 6.097 3.303 9.58c.155 4.461.065 8.932.111 13.397c.047 4.828.446 9.614 1.886 14.266c.054.184-.039.454-.14.637c-.404.793-.92 1.534-1.256 2.352c-.705 1.717-1.298 3.479-1.992 5.206c-.401 1.016-.541 1.09-1.63 1.013c-1.167-.083-1.87.588-2.488 1.42c-.477.629-.671.613-.997-.125c-.355-.803-.635-1.629-1.018-2.419c-.133-.27-.472-.446-.713-.663c-.186.274-.494.544-.528.837c-.099.955-.073 1.919-.143 2.877c-.033.477-.095.958-.256 1.404c-.078.21-.399.438-.632.456c-.163.013-.45-.27-.52-.482c-.239-.681-.376-1.39-.594-2.077c-.17-.552-.42-.611-.748-.16c-2.396 3.263-5.59 5.576-9.009 7.632c-1.01.606-2 1.241-3.002 1.852c-.07-.023-.14-.049-.204-.067q.197-1.666.386-3.328c-.09-.05-.182-.091-.27-.138c-.318.27-.68.492-.945.808c-.663.785-1.264 1.62-1.937 2.401c-1.334 1.565-3.01 2.684-4.624 3.054c.51-1.748.997-3.403 1.477-5.063c-.073-.04-.158-.07-.234-.104c-.165.207-.362.399-.5.624a49 49 0 0 0-1.134 1.92c-1.538 2.784-3.911 4.39-7.024 4.838a85 85 0 0 1-6.395.652c-1.565.11-3.07.34-4.502 1.026c-.995.453-2.072.767-3.129 1.116c-.176.063-.412-.012-.616-.025c.015-.226-.034-.487.057-.674c.497-.974 1.038-1.924 1.538-2.898c.184-.35.303-.736.448-1.106c-.049-.055-.095-.104-.142-.158c-.319.106-.65.179-.948.324c-1.378.668-2.774 1.297-4.108 2.048c-1.357.767-2.852.83-4.32.954c-4.595.385-9.138.077-13.58-1.267c-2.702-.813-5.199-2.041-7.395-3.94c.277.029.565.029.834.078c2.68.552 5.364 1.07 8.125.98c1.88-.06 3.712-.36 5.362-1.314c.264-.15.43-.466.642-.702c-.37-.13-.759-.378-1.114-.331c-.857.1-1.694.42-2.559.49c-2.75.245-5.398-.39-8.016-1.112c-6.34-1.74-12.083-4.701-17.416-8.511c-1.3-.925-2.65-1.782-4.002-2.642c-2.631-1.673-4.76-3.836-6.444-6.455a5.3 5.3 0 0 1-.505-.99c-.345-.957-.09-1.758.813-2.234c.648-.342 1.365-.586 2.083-.76c9.477-2.31 16.535-10.121 17.628-19.785c.412-3.624.917-7.258.736-10.933c-.417-8.436-3.438-15.787-9.071-22.065c-3.349-3.735-7.307-6.706-11.643-9.206c-.085-.057-.178-.093-.432-.225" transform="matrix(1 0 0 -1 0 263.961)"/><path fill="#8B4FBA" d="M202.94 42.128c-4.027 31.439-17.977 24.324-27.105 41.874c-.5-.663-1.652 4.704.648-5.26c2.302-9.975 8.902-5.47 15.147-16.877c7.907-14.417 6.33-15.71 11.31-19.737" opacity=".2"/><path fill="#FFF" d="M161.258 42.721c-1.497 8.998-14.22 8.592-25.106 4.774c-11.83-4.15-36.41-5.481-38.386-.531c-.986 1.134-2.968-3.53-2.968-3.53s18.667-20.367 49.917 1.129c-1.272-1.98 11.23-7.77 11.23-7.77s3.759-1.145 5.313 5.928" opacity=".3"/><path fill="#8B4FBA" d="M96.51 129.117c.679 1.684 6.206.55 6.724-2.08c-8.154-9.236 13.313-26.21-6.486-48.362c12.954 34.179-14.629 35.57-.238 50.442" opacity=".2"/><path fill="#8B4FBA" d="M96.51 129.117c.679 1.684.557 1.202 1.072-1.427c-8.153-9.24 13.565-22.71-.834-49.015c12.954 34.179-14.629 35.57-.238 50.442" opacity=".6"/><path fill="url(#logosApacheFlink3)" d="M126.219 141.589c39.186 41.232-10.35 34.324-26.495 62.31c.029.482.063.948.063 1.443c0 3.89-.943 7.553-2.585 10.8c15.11-22.412 53.416-2.65 45.977-48.466c-.671-2.354-6.001-25.572-16.96-26.087" transform="matrix(1 0 0 -1 0 263.961)"/><path fill="url(#logosApacheFlink4)" d="M126.219 141.589c-16.131-7.918-30.235-8.151-29.569-5.802c32.053 21.749 6.18 44.161.148 65.273c.411 1.705 2.989 2.34 2.989 4.274c0 .207-.026.404-.031.609c.466-2.096 1.57-2.824 2.629-3.886c14.898-15.027 62.256-20.05 23.834-60.468" transform="matrix(1 0 0 -1 0 263.961)"/><path fill="#E65271" d="M121.168 121.758C145.978 84.7 99.66 77.66 99.994 65.91c-3.688 24.166 40.711 34.511-1.008 63.435c-.665 2.347 6.048.334 22.182-7.587"/><path fill="url(#logosApacheFlink5)" d="M190.5 206.577c1.971-3.292-.217-7.177-2.512-10.816c-2.119-3.362-7.234-2.261-10.705-10.366l.298 6.315c3.844 6.7-2.66 15.924-4.473 22.158c-3.08 10.62-6.434 20.418-2.347 31.193c.275.723.51 1.515.79 2.259c2.038-1.505 3.577-3.005 5.33-5.292c1.158-1.518.754 3.916 2.277 2.774c1.122-.826-.054-4.67 1.015-5.558c1.195-1.01 1.917 4.838 2.782 3.543c2.023-3.04 3.184-1.111 4.046-2.023c.78-.826 2.603-7.195 3.339-8.058a74 74 0 0 0 2.085-2.566c-.41-4.637-1.31-9.848-2.803-14.031c-1.406-3.95-1.471-5.597.878-9.532" transform="matrix(1 0 0 -1 0 263.961)"/><path fill="#E65271" d="M135.346 8.972a.8.8 0 0 0 .285.06c1.086-.019-2.927-5.062-1.774-5.062c1.948 0 4.693 2.01 6.597 2.158c4.023.308 8.19.218 11.751 1.847c3.412 1.564 4.93 6.42 5.693 6.625c.772.213-1.857-5.613-1.103-5.354a9.7 9.7 0 0 1 3.14 1.762c3.366 4.82 4.462 28.709-.482 28.092c-5.191-.647 8.19 1.834 8.244 1.634c4.476-16.89-5.494-27.276-5.043-26.69c.59.776 1.064 1.38 1.57 1.574c1.061.41-.664-4.072.308-3.478c3.09 1.888 5.281 3.22 7.081 4.56c.055.079.07.265.158.229c1.329-.552 9.514-2.476 3.284 26.927c9.46-19.144 2.054-26.655 2.78-25.87c3.359 3.626 4.045 12.479 4.478 17.729c.407 4.924-2.691 16.15-6.703 19.86c-2.829 2.612-2.772-.62-3.831-3.118c-1.743-4.1-4.94-7.405-7.84-10.782c-2.16-2.513-4.782-4.35-7.157-6.597c-2.587-2.45-3.95-5.875-6.263-8.563c-2.07-2.404-4.61-4.318-6.576-6.825c-2.207-2.808-3.68-6.02-6.115-8.605c-.772-.828-1.637-1.45-2.482-2.113"/><path fill="url(#logosApacheFlink6)" d="M153.485 257.672c5.781.019 9.412-2.75 14.194-5.397c3.963-2.205 8.835-2.225 12.184-5.26c4.45-4.039 6.374-8.04 7.208-13.951c.956-6.73 1.072-15.308-.202-22.014c-.653-3.44-3.095-10.49-5.672-13.005l-3.093 1.969c-6.097 15.75-24.484 22.213-31.441 37.691c-2.052 4.556-2.824 10.477-2.873 15.455c-.054 5.212 5.483 4.497 9.695 4.512" transform="matrix(1 0 0 -1 0 263.961)"/><path fill="#F6E8A0" d="M95.961 45.648c-3.362-5.224-8.685-9.065-14.937-10.462c-1.59-.354-4.442-1.344-1.619-4.74c3.018-4.708 7.353-6.516 9.687-8.246c9.384-6.968 5.504-7.68 10.977-8.312c2.14-.249 1.575-.435 2.66 0s-.834-.306-1.52-.759c-6.108-4.043-5.668 4.022-3.044 2.28c7.82-6.046 25.826-10.289 30.874-9.423c.733.124 5.807 3.056 6.587 3.043c1.085-.018-2.924-5.061-1.772-5.061c1.943 0 4.694 2.01 6.597 2.157c3.94.303 15.92 5.797 15.831 20.26c-.026 4.419.246 7.517-.35 10.4c-4.364 21.156-48.582-8.532-59.97 8.863"/><path fill="#FFF" d="M148.893 32.607c-2.05-2.56-15.37-7.172-15.37-7.172s-22.117-7.623-42.514 14.085c10.422-8.276 28.745-4.805 41.993-3.277c1.751.205-3.784-1.562-2.333-2.098c4.918-1.82 9.477 3.282 14.383 2.298c2.29-.456 3.662-1.7 3.84-3.836"/><path fill="#F6E8A0" d="M131.925 29.025c-8.123-2.14-16.243.992-17.807 1.087c.738-1.106 1.937-3.657 7.951-4.537c1.384-.205 4.155.018 5.608.015c2.6-.005 4.214.622 6.509 1.728c1.463.704 5.004 1.455 6.126 1.28c0 0 12.45.937 8.327 5.159c-4.121 4.219-10.133-5.442-23.33-2.352c.006-.43 3.02-2.582 6.616-2.38"/><path fill="#F8D285" d="M119.614 11.52c-5.131-3.398-14.108-.484-15.271-.5c-.026-.118.046-.25.254-.383c7.822-6.045 19.405-5.506 24.453-4.641c.039.005.09.023.15.044c.023.008.06.02.09.034c1.094.42 4.668 2.432 5.968 2.875c7.61 4.312 19.63 13.419 20.69 27.846c-4.323-1.922-7.43-3.795-9.819-5.618c-.806-.614-18.99-19.623-67.128 3.217c0 0-1.34-.736-.575-2.456c10.87-17.467 30.716-22.484 62.323-5.941c-4.483-5.344-6.654-10.182-21.135-14.476"/><path fill="url(#logosApacheFlink7)" d="M150.385 154.267c17.827 18.232 25.093 31.854 16.462 46.521c-13.976 23.775-57.018-1.023-75.737 22.962c1.984-2.267 6.203-6.755 10.28-8.962c13.875-9.065 39.991-6.149 48.313-13.158c10.71-9.01 13.443-27.188.682-47.363" transform="matrix(1 0 0 -1 0 263.961)"/><path fill="url(#logosApacheFlink8)" d="M92.301 192.376c-.02-1.223 2.777-8.276 2.34-9.9c-3.757-13.865-20.03-20.666-20.03-20.666s-18.227-7.336-21.125-40.862c-3.323-2.39-2.862 2.702-2.759 4.965c2.067 43.967 38.647 39.054 41.574 66.463" transform="matrix(1 0 0 -1 0 263.961)"/><path fill="url(#logosApacheFlink9)" d="M154.314 119.718c-.3.14-.588.318-.904.409c-1.596.445-3.204.855-4.805 1.31c-.505.146-.987.376-1.481.565q.009.163.01.319c.578.103 1.142.285 1.72.292c2.297.026 4.595-.005 6.895-.01c3.248-.008 6.506.008 9.638.956c1.528.466 3.02 1.165 4.42 1.945c14.798 8.237 25.254 20.291 31.546 35.99c1.287 3.209 2.274 6.527 3.035 9.894c.05.186.068.38.125.704c-.246-.15-.404-.222-.552-.318c-9.055-6.203-18.944-10.41-29.734-12.453c-3.86-.728-7.755-1.093-11.682-1.207c-.293-.008-.668-.12-.862-.322c-5.87-5.983-12.8-10.407-20.278-14.087c-5.97-2.935-12.272-4.709-18.753-5.97c-8.306-1.614-16.634-3.147-24.94-4.746c-10.202-1.96-20.353-4.139-30.216-7.475c-6.258-2.113-12.319-4.654-17.862-8.293c-4.172-2.746-7.887-5.988-10.513-10.306c-.922-1.523-1.577-3.21-2.373-4.813c-.145-.287-.297-.588-.52-.808c-5.502-5.38-7.67-11.925-6.825-19.519c.627-5.618 2.64-10.757 5.509-15.592c.34-.568.627-1.158.894-1.658c.137 1.225.246 2.598.437 3.958c1.215 8.653 5.67 15.097 13.254 19.402c4.41 2.513 9.161 4.173 14.085 5.26c5.398 1.192 10.842 2.195 16.284 3.181c6.607 1.194 13.251 2.192 19.675 4.217a67 67 0 0 1 3.711 1.31c1.58.594 3.057 1.358 4.432 2.378c4.553 3.355 9.544 5.924 14.802 7.98c.145.055.28.117.423.172c.005.02.007.049.028.103c-.085.008-.16.018-.238.018c-5.882.003-11.777-.03-17.66.003c-5.265.034-10.513-.13-15.732-.816c-7.229-.958-14.225-2.831-21.04-5.424c-8.037-3.066-15.641-6.99-23.018-11.394c-.197-.119-.399-.233-.665-.28c.14.112.266.236.401.34c8.073 6.12 16.67 11.347 26.152 15.012c6.605 2.546 13.42 4.22 20.465 4.965c6.206.656 12.414.594 18.625.143c5.37-.391 10.739-.782 16.116-1.15a4 4 0 0 1 1.417.163c5.312 1.616 10.749 2.567 16.237 3.347c3.243.458 6.44 1.235 9.654 1.875c.217.046.422.16.63.246z" transform="matrix(1 0 0 -1 0 263.961)"/><path fill="#FFF" d="M55.41 162.353c21.045-25.137 75.64-11.96 98.904-18.11c-14.728 8.462-26.712 7.001-26.712 7.001s-50.272-5.553-72.192 11.11" opacity=".2"/><path fill="#E65271" d="M216.303 66.965c-.712.121-1.238.155-1.72.31c-1.893.594-3.87 1.034-5.649 1.889c-1.691.815-3.258 1.973-4.722 3.165c-2.844 2.31-5.555 4.768-8.358 7.107c-2.297 1.914-4.732 3.626-7.633 4.515c-.935.284-1.906.448-2.883.608c3.78-1.903 5.895-5.297 8.09-8.778c-.187.034-.255.026-.304.05c-5.766 2.82-11.412 5.832-16.546 9.736c-1.367 1.044-2.45 2.23-3.22 3.849c-1.235 2.574-2.796 4.996-4.213 7.477c-.062.112-.132.22-.303.518c1.24-.261 2.328-.435 3.398-.707c4.517-1.155 8.718-3.11 12.842-5.234c6.439-3.334 12.572-7.188 18.52-11.324a2.2 2.2 0 0 1 .6-.316c-.054.075-.096.158-.16.22c-7.059 7.037-14.974 12.834-24.229 16.675c-4.001 1.668-8.148 2.78-12.463 3.227c-.16.024-.37.073-.461.184c-.961 1.163-1.899 2.34-2.963 3.652c2.634-.564 5.113-1.06 7.573-1.632c6.89-1.6 13.648-3.633 20.097-6.565c4.766-2.166 9.309-4.712 13.132-8.333c5.045-4.781 8.76-10.438 10.927-17.064c.316-.973.415-2.028.648-3.23"/><path fill="#8B4FBA" d="M97.108 130.943a176 176 0 0 0 6.857-2.49c29.28-9.13 38.96-16.744 38.96-16.744l29.416-21.778s4.805 3.68 11.029-1.132c-4.24 5.09-17.25 9.05-17.25 9.05s-.599 4.004-4.841 7.115c11.572-3.934 31.024-2.805 44.518-14.958c-10.205 28.865-35.551 6.861-60.046 24.814c-2.826 1.699-40.186 11.246-21.62 10.59c18.566-.652 30.797 12.019 46.304 7.864c-14.554 5.281-27.42-3.178-47.695-4.602c3.155.631 7.475 2.37 9.317 4.745c-7.35-5.248-21.734-5.489-25.153-4.29a90 90 0 0 0-9.796 1.816" opacity=".6"/><path fill="#2B2B2B" d="M167.347 139.848c-21.335 8.475-96.74-16.074-130.599 22.01c0 0-2.535-1.134 10.949-16.247c53.014-25.344 92.47-1.378 119.65-5.763" opacity=".2"/><path fill="url(#logosApacheFlinkg)" d="M200.338 157.875c6.312 3.551 1.183-5.128-5.126-10.254c-24.852-17.354-36.088 2.393-60.733-7.11c37.704 20.786 41.4-5.118 65.859 17.364" opacity=".7" transform="matrix(1 0 0 -1 0 263.961)"/><path fill="#8B4FBA" d="M198.405 111.015c6.315-3.551 3.116.202-3.193 5.33c-24.852 17.354-36.088-2.393-60.733 7.11c24.259-13.5 39.473 10.037 63.926-12.44" opacity=".2"/><g opacity=".7"><path fill="url(#logosApacheFlinkh)" d="M12.456 35.314C.961 24.793 9.972 1.754 9.972 1.754L1.792 0s-8.254 22.275 10.664 35.314" transform="matrix(1 0 0 -1 63.266 137.022)"/><path fill="url(#logosApacheFlinki)" d="M32.296 52.965c8.664-15.419-14.313-36.63-1.976-44.138c-.194-1.013-7.055-4.452-6.734-3.458c-15.227 23.366 9.886 28.937 6.59 43.545c-17.609-24.023-17.798-28.778-9.242-43.988c-.104-.082-1.044-1.31-1.982-.61c-13.378 10.028-17.144 21.3 13.344 48.65" transform="matrix(1 0 0 -1 63.266 137.022)"/></g><path fill="#8B4FBA" d="M123.875 115.392c.549 7.221 5.592-4.51 6.356-12.606c.658-30.3-30.064-22.972-31.467-47.485c-2.99 27.888 30.252 27.274 25.11 60.091" opacity=".2"/><path fill="#FFF" d="M153.661 103.374c.544 7.221 15.043-11.366 15.81-19.46c-4.867-51.986-58.373-20.368-72.363-39.525c11.558 20.985 86.347-8.205 56.553 58.985" opacity=".3"/><path fill="url(#logosApacheFlinka)" d="M251.562 59.36c-.785-.689-1.43-1.316-2.14-1.86a11.5 11.5 0 0 0-1.836-1.134c-1.564-.756-3.139-.855-4.719-.015c-2.463 1.305-5.107 1.403-7.804 1.108c-.785-.083-1.297-.456-1.657-1.189c-2.702-5.558-7.204-9.127-12.842-11.386c-.645-.259-.948-.56-1.062-1.261c-.285-1.77-.407-3.51.013-5.274c.684-2.82 2.437-4.843 4.802-6.4c2.473-1.632 5.234-2.593 8.084-3.308c3.426-.846 6.894-1.419 10.435-1.409c1.8.003 3.582.213 5.312.736c3.865 1.168 6.253 3.75 7.128 7.654c.568 2.536 1.104 5.097 1.363 7.674c.593 5.908-.99 11.21-4.895 15.759c-.068.088-.117.196-.182.305" transform="matrix(1 0 0 -1 0 263.961)"/><path fill="#F6E8A0" d="M240.386 205.036c.293 1.774 3.623 2.256 5.17 2.204c2.722-.09 4.483-1.678 6.252-3.74c.285-.337.508-.668.702-1.008c3.08 2.458 4.805 5.787 4.33 9.182c-.838 5.984-8.207 9.887-16.452 8.729c-5.7-.803-10.329-3.82-12.36-7.584c1.508-1.927 2.098-4.375 4.085-6.043c1.937-1.616 5.76-1.849 8.273-1.74" opacity=".3"/><path fill="url(#logosApacheFlinkb)" d="M39.914 115.182c1.782-.88 3.027-1.072 4.133-.673c-1.271 6.475-1.937 13.005-1.712 19.576c.254 7.273 1.513 14.355 4.704 20.985c.404.842.873 1.658 1.422 2.435c-.034-.13-.054-.262-.104-.38c-1.717-4.313-2.51-8.815-2.769-13.436c-.409-7.2.44-14.287 1.997-21.303c.04-.171.089-.337.161-.586c1.018.684 2.007 1.337 2.974 2.023c.116.086.119.399.093.598c-.492 4.261-.459 8.52 0 12.78c.658 6.087 2.16 11.953 4.302 17.667c2.984 7.978 7.03 15.385 11.969 22.309c.116.16.233.321.342.484c.023.036.02.08.054.213c-.717-.254-1.39-.485-2.067-.728c-4.548-1.648-9.003-3.507-13.292-5.755a9.5 9.5 0 0 1-1.888-1.285c-6.035-5.346-9.597-12.106-11.205-19.947c-.239-1.165-.41-2.351-.733-3.522c.07 1.3.106 2.605.22 3.906c.539 6.187 1.696 12.261 3.781 18.123c.531 1.489.161 2.833-.064 4.232c-.07.435-.378.834-.58 1.251c-.335-.324-.746-.596-.987-.98c-1.715-2.726-2.82-5.72-3.725-8.793c-1.386-4.698-2.212-9.531-2.893-14.385c-.632-4.533-1.034-9.091-1.015-13.673c.023-4.634.378-9.226 1.919-13.65c.733-2.103 1.72-4.074 3.142-5.797c.505-.616 1.134-1.142 1.699-1.712c.041.01.078.016.122.023" transform="matrix(1 0 0 -1 0 263.961)"/><path fill="#2B2B2B" d="M60.92 86.25s-11.516 1.62-16.373 9.54c-4.859 7.915-6.255 21.529-6.255 21.529s-2.486 20.304 5.755 32.128C38.826 106.088 60.92 86.25 60.92 86.25" opacity=".2"/><path fill="url(#logosApacheFlinkc)" d="m39.914 115.182l-.122-.018c-2.375.928-4.232 2.526-5.75 4.533c-2.21 2.927-3.37 6.312-4.087 9.853c-1.062 5.278-1.153 10.617-.702 15.952c.261 3.049.704 6.087 1.075 9.12c.012.109.015.215.025.435c-.186-.16-.318-.251-.424-.362c-8.807-9.13-15.43-19.649-19.766-31.576c-.113-.311-.075-.73.021-1.057c2.59-8.273 6.333-16.015 10.923-23.345c1.937-3.093 4.071-6.06 6.12-9.083c.16-.239.35-.454.643-.837c.072 1.52.885 2.75.259 4.24c-.8 1.898-1.316 3.895-1.21 5.999c.044.777.228 1.502.77 2.222c.535-1.523.95-3.023 2.144-4.17c.35.624.42 1.168.197 1.836c-.83 2.482-1.407 5.017-1.249 7.657c.05.808.233 1.603.454 2.416c.72-1.981 1.914-3.603 3.294-5.16c.08.12.156.198.197.29c1.842 3.808 4.201 7.266 7.011 10.42c.13.154.125.423.177.635" transform="matrix(1 0 0 -1 0 263.961)"/><path fill="#2B2B2B" d="M31.004 158.932s-12.951-25.344-6.89-47.11c.754-.595-1.215.941-3.556 3.637c-.36.41-4.701 29.15 4.113 41.82c-11.847-14.054-6.237-39.165-6.74-38.432c-1.057 1.565-2.007 3.292-2.636 5.098C9.234 152.322 30.172 169.4 30.172 169.4z" opacity=".2"/><path fill="#E65270" d="M229.186 250.176c-.533.814-1.152 1.632-1.644 2.534a3.3 3.3 0 0 0-.247 2.673c.373 1.14 1.135 1.577 2.321 1.411c.95-.145 1.901-.29 2.86-.321c1.018-.034 1.088.104 1.204 1.09c.026.262.06.531.158.77c.383.976.95 1.818 2.085 1.968c1.104.145 1.878-.471 2.471-1.318c1.774-2.513.303-5.908-2.78-6.317c-.955-.127-1.952.028-2.931.054c-.19.008-.378.041-.565.057c-.046-.055-.093-.117-.142-.171c.264-.308.469-.718.8-.912a3.7 3.7 0 0 1 2.32-.46c5.277.603 10.307-.022 14.783-3.184c2.484-1.759 4.32-4.067 5.721-6.745c.01-.018.026-.036.036-.054c.177-.487.537-1.08.055-1.45c-.277-.218-.917-.122-1.34.015c-1.97.647-3.884 1.469-5.881 2.012c-2.914.798-5.934.824-8.934.66c-4.053-.217-8.04-.862-11.868-2.3c-4.289-1.61-8.161-3.884-11.52-7.016c-.386-.362-.777-.717-1.213-1.01c-.73-.487-1.232-.246-1.258.64a7.5 7.5 0 0 0 .18 1.888c1.438 6.26 5.236 10.664 10.848 13.572c1.472.772 3.051 1.313 4.481 1.914"/><path fill="url(#logosApacheFlinkd)" d="M6.296 130.309c-.227-22.589 7.038-42.19 22.167-58.835c-.213 1.534-.495 3.067-.625 4.598c-.215 2.613-.354 5.234-.481 7.86c-.026.534-.16.956-.461 1.384c-5.665 8.172-10.86 16.626-15.005 25.689c-2.103 4.597-3.9 9.319-4.864 14.302c-.311 1.611-.484 3.246-.73 5.002" transform="matrix(1 0 0 -1 0 263.961)"/><path fill="url(#logosApacheFlinke)" d="M191.029 204.588c2.709 4.686 5.504 9.195 6.496 14.507c.165.889.116 1.834.06 2.751c-.296 5.123.235 10.125 1.895 15.005c.148.432.324.888.314 1.328c-.006.365-.197.788-.44 1.075c-.309.365-.734.236-1.133.008c-1.277-.723-2.204-1.785-2.947-3.02c-1.513-2.484-2.32-5.232-2.88-8.045c-1.541-7.706-1.775-15.497-1.472-23.33c.006-.04.032-.077.107-.279" transform="matrix(1 0 0 -1 0 263.961)"/><path fill="#8B4FBA" d="M192.624 29.527c.492-1.046 2.518-3.336 3.331-3.996l1.831-1.169c-1.841 4.694-2.5 9.47-2.5 14.469c0 4.211 1.296 8.122 1.503 12.313c.163 3.453-1.342 5.188-3.131 7.998c-.808 1.264-1.912 4.002-3.668 4.013c-.813-1.997-.684-4.5-.702-6.636c-.023-2.557-.432-5.051-.331-7.633c.189-4.875 2.823-17.564 3.667-19.359" opacity=".4"/><path fill="#E65270" d="M255.673 231.411c-.078.062-.104.073-.112.088c-1.991 4.095-5.532 5.882-9.811 6.242c-7.068.601-13.85-.722-20.283-3.68c-2.712-1.249-5.03-3.062-6.336-5.849c-.567-1.204-.839-2.546-1.261-3.87c-1.404-.007-3.074 1.381-3.183 2.878c-.04.487.166 1.031.386 1.487c.888 1.836 2.315 3.227 3.872 4.486c4.002 3.23 8.584 5.268 13.551 6.47c6.525 1.58 13.047 1.627 19.501-.329c1.529-.463 2.974-1.24 4.396-1.997c1.098-.588 1.657-1.593 1.492-2.9c-.174-1.41-.904-2.42-2.212-3.026"/><path fill="#2B2B2B" d="M255.673 231.411c-.078.062-.104.073-.112.088c-1.991 4.095-5.532 5.882-9.811 6.242c-7.068.601-13.85-.722-20.283-3.68c-2.712-1.249-5.03-3.062-6.336-5.849c-.567-1.204-.839-2.546-1.261-3.87c-1.404-.007-3.074 1.381-3.183 2.878c-.04.487.166 1.031.386 1.487c.888 1.836 2.315 3.227 3.872 4.486c4.002 3.23 8.584 5.268 13.551 6.47c6.525 1.58 13.047 1.627 19.501-.329c1.529-.463 2.974-1.24 4.396-1.997c1.098-.588 1.657-1.593 1.492-2.9c-.174-1.41-.904-2.42-2.212-3.026" opacity=".4"/><path fill="#0D0D0D" d="M184.698 166.423a15.6 15.6 0 0 0 1.57 7.17c2.21 4.535 5.846 7.5 10.404 9.445c3.976 1.7 8.149 2.277 12.45 2.054c.055-.002.11-.026.294-.083c-3.01-.463-5.807-1.212-8.514-2.292c-4.688-1.872-8.82-4.535-12.031-8.506a22.9 22.9 0 0 1-3.906-7.084c-.075-.238-.174-.471-.267-.704m35.114-36.21c4.629-2.826 5.629-9.464 2.66-13.259c.7 4.74-.259 9.14-2.66 13.259m7.633 26.049c2.262 1.854 4.986 2.367 7.825 2.318c1.135-.029 2.264-.215 3.398-.27a7.3 7.3 0 0 1 1.86.143c1.145.262 1.655.085 2.046-1.013c.886-2.504 1.303-5.1 1.005-7.744c-.145-1.267-.406-2.567-.914-3.727c-1.974-4.619-7.957-6.517-12.389-3.994c-.572.323-1.108.702-1.618 1.121c-.54.438-1.026.946-1.586 1.469c.252.287.459.564.692.805c.536.55.738 1.2.575 1.93c-.508 2.29.484 3.919 2.398 4.965c1.368.746 2.865 1.282 4.354 1.777c.77.264 1.56.45 2.363.611c.243-.007.35-.049.54-.202c1.195-.772 2.05-1.784 2.576-3.11c.284.782.227 2.082-.024 3.048c-.155.596-.054 2.057.251 2.481a.5.5 0 0 0-.064.078a5 5 0 0 1-.415-.22c-1.533-.94-3.248-1.238-4.999-1.456c-2.16-.274-4.263-.769-6.105-2.015c-2.214-1.5-3.403-3.584-3.532-6.265c-.006-.083-.019-.16-.047-.381c-2.007 3.919-1.394 7.024 1.81 9.65"/><path fill="url(#logosApacheFlinkf)" d="M230.378 116.138a4.413 4.413 0 1 1 4.408 4.414a4.413 4.413 0 0 1-4.408-4.414" transform="matrix(1 0 0 -1 0 263.961)"/><path fill="#FFF" d="M233.39 148.912a.5.5 0 0 0 .277-.08l1.042-.65a.52.52 0 0 0 .245-.443v-1.302a.52.52 0 0 0-.245-.442l-1.042-.652a.52.52 0 0 0-.553 0l-1.042.652a.52.52 0 0 0-.245.442v1.302c0 .18.093.347.245.442l1.042.652q.13.078.277.079m16.719 73.281c.781.487 1.999.28 2.452-.58c1.883-3.58 1.71-7.75-.132-11.309c-1.057-2.04-4.222-.394-3.168 1.64c1.254 2.432 1.513 5.42.262 7.806c-.446.852-.285 1.904.585 2.443"/><path fill="#430A1D" d="M58.48 232.496c-1.117-31.907 18.558-21.529 27.31-35c.712-.84 1.134-1.782 1.455-2.512c-9.821 5.41-37.357 1.797-28.765 37.512" opacity=".2"/><path fill="#2B2B2B" d="M43.498 170.292c27.02-23.26 80.359-20.72 84.262-20.392c-22.374 15.958-89.494.956-91.954 49.528c-4.357-13.795 1.253-23.59 7.692-29.136" opacity=".2"/><path fill="#430A1D" d="M86.686 196.253s-.005 7.05 0 12.03c0 4.98-6.258 2.265-8.674-4.57c6.032-2.365 8.674-7.46 8.674-7.46" opacity=".2"/><path fill="#430A1D" d="M83.337 198.615c4.525-7.985-.124-14.893-.845-15.188c2.57-.135 7.51-4.958 8.688-6.564c1.839-2.515 1.95-6.167 2.103-9.153c3.65-.163 6.216-2.399 9.54-3.191c-2.827 2.644-6.655 5.773-8.37 9.337c-1.525 3.165-2.815 6.81-3.838 10.177c-.837 2.758-1.619 5.498-2.134 8.345c-.384 2.119-1.635 4.97-1.407 7.035c0 0-.466 18.573 3.259 27.745c-7.053-2.401-10.75-8.156-12.034-10.384c-1.456-2.52-4.193-8.785-.803-12.777c2.189-.798 4.585-3.167 5.84-5.382" opacity=".2"/><path fill="#0D0D0D" d="M17.276 222.742c14.196 19.563 33.187 32.135 56.793 37.598c7.864 1.82 15.86 2.32 23.925 2.29c19.732-.086 39.46-.037 59.192-.04c13.27-.004 26.544 0 39.813-.033c3.157-.005 6.307-.215 9.327-1.266c2.963-1.026 5.247-2.842 6.524-5.782c1.824-4.245.267-9.586-3.672-12.463c-2.888-2.109-6.206-2.722-9.698-2.567c-.94.047-1.878.192-2.813.288c-.212.023-.445.072-.647.025c-.303-.064-.588-.215-.878-.323c.166-.244.285-.54.502-.718c3.608-3.07 6.092-6.85 7.281-11.44c.435-1.671.562-3.367.404-5.08q-.016-.202-.026-.393c-.036-.886.27-1.16 1.142-1.202c2.58-.12 5.157-.22 7.73-.422c1.23-.099 2.442-.4 3.83-.487c-.16.212-.28.526-.495.624c-2.056.95-3.398 2.536-4.074 4.65c-.79 2.488-1.344 5.032-1.23 7.671c.173 4.264 1.834 7.931 4.533 11.166c2.427 2.901 5.416 5.085 8.796 6.742c.435.213.551.4.398.889c-.432 1.396-.378 2.805.112 4.198c.298.85.844 1.466 1.624 1.904c1.777.99 3.825 1.13 5.763.319c.054.277.1.59.168.86c.56 2.123 1.93 2.968 4 4.211h1.447c.057 0 .112-.153.171-.163c3.644-.614 5.175-3.945 4.753-7.1c-.109-.813-.344-1.613-.502-2.346c1.652-.435 3.354-.772 4.978-1.342c7.498-2.608 12.448-7.67 14.543-15.38c.837-3.085.319-5.849-2.074-8.138c-.15-.15-.161-.513-.127-.76c.466-2.913 1.183-5.806 1.37-8.738c.45-6.957-1.736-13.057-6.571-18.144c-.285-.295-.303-.55-.228-.917c.318-1.56.684-3.116.875-4.693c.394-3.18-.818-5.818-2.94-8.115c-.186-.205-.396-.425-.486-.679c-.594-1.769-1.819-2.973-3.438-3.786c-3.263-1.645-6.724-1.98-10.29-1.386c-2.336.391-4.47 1.375-6.579 2.375c-.93.44-1.785.66-2.644-.093c-.148-.127-.379-.158-.516-.277c-.238-.226-.637-.54-.593-.728c.06-.29.404-.62.702-.738c1.645-.648 3.339-.998 5.12-.998c1.337 0 2.676-.038 3.997-.194c4.214-.51 8.079-2.03 11.707-4.196c.244-.145.51-.27.785-.313c4.69-.718 8.46-4.403 9.278-9.07c.08-.472.07-1.013.313-1.389c1.99-3.072 2.15-6.335 1.003-9.69c-.728-2.121-1.738-4.154-2.539-6.25c-.43-1.124-.865-2.287-.973-3.452c-.288-3.323-.728-6.615-1.62-9.825c-1.903-6.853-5.296-12.792-10.743-17.452c-5.499-4.7-11.946-7.177-19.087-7.936c-.629-.065-.96-.267-1.24-.888c-1.56-3.536-4.124-6.02-7.815-7.31c-.958-.334-1.914-.409-2.815-.002c-1.285.593-2.593 1.184-3.743 1.997c-3.015 2.103-5.403 4.836-7.384 7.926c-.156.233-.327.538-.557.616c-.31.101-.772.137-1.01-.028c-.182-.125-.223-.627-.153-.92c.083-.344.35-.65.554-.953c5.248-7.59 8.586-15.937 10.122-25.036c.055-.285.257-.593.47-.808c1.29-1.313 2.62-2.58 3.9-3.904c2.043-2.11 3.297-4.667 3.965-7.503c.174-.744.26-1.508.309-2.267c.015-.23-.21-.474-.324-.712c-.246.143-.567.228-.718.433c-.35.476-.593 1.023-.917 1.515c-.212.326-.49.603-.74.917c-.078-.184-.057-.288-.021-.383c1.373-3.497 2.328-7.1 2.79-10.835a32 32 0 0 0 .243-3.14c.02-.76-.487-1.242-.995-1.038c-.272.109-.507.34-.717.547c-2.041 2.023-4.447 3.522-6.913 4.942c-.054-.075-.096-.11-.099-.148c-.067-.368-.134-.73-.189-1.098c-.657-4.313-1.795-8.506-3.11-12.666c-1.003-3.175-1.57-6.42-1.018-9.767c.331-1.995 1.038-3.8 2.732-5.069c.127-.096.213-.249.363-.42c-.197-.1-.319-.2-.459-.228c-2.442-.538-4.967-.222-6.338 2.583c-.158.313-.365.596-.647 1.067c-.308-.617-.614-1.02-.712-1.46a21.9 21.9 0 0 1-.4-6.725c.265-2.792 1.25-5.348 2.464-7.84c.313-.648.611-1.313.813-1.997c.36-1.24-.331-2.158-1.629-2.137c-.645.013-1.326.114-1.92.34c-3.193 1.201-5.625 3.312-7.241 6.335c-.132.246-.254.49-.396.785c-1.283-1.246-2.45-2.461-3.06-4.124c-.388-1.064-.906-2.093-1.437-3.087c-.38-.715-.668-.7-1.134-.05c-.127.174-.239.368-.376.537c-.36.432-.637.435-.917-.055c-.251-.43-.44-.904-.608-1.367c-.834-2.254-2.2-4.124-4.072-5.618c-.127-.096-.272-.171-.573-.355c.112.712.202 1.264.272 1.818c.076.567.143 1.135.215 1.733c-.168-.02-.22-.016-.256-.036a12 12 0 0 1-.547-.368c-7.573-5.232-15.854-8.869-24.802-10.993c-2.728-.647-5.587-.878-8.05-2.424c-.055-.036-.125-.054-.184-.083c-.487-.191-.845-.085-1.223.293c-.24.238-.67.344-1.015.34c-1.093-.027-2.186-.268-3.274-.358c-1.003-.083-2.033-.311-2.994-.552c-1.65-.417-3.254-2.02-4.872-2.02h-1.184c-.378 0-.826 1.088-1.135 1.468c-.536.671-1.194 1.456-2.035 1.51c-5.577.347-11.091 1.156-16.523 2.51c-8.267 2.052-16.033 5.235-22.992 10.239c-5.085 3.66-9.446 8.006-12.539 13.515c-.632 1.12-1.134 2.32-1.634 3.502c-.378.914-.472 1.878-.156 2.834c.267.784.858 1.22 1.658 1.095c4.543-.715 8.392.946 11.938 3.523c3.528 2.567 6.216 5.856 7.75 9.97c2.258 6.076 1.035 11.515-3.223 16.33c-.43.487-.917.927-1.44 1.455c-.197-.738-.362-1.409-.554-2.08c-.966-3.289-2.339-6.36-4.68-8.922c-1.36-1.495-3.557-2.347-1.536-2.27c1.865.065-.671.032-.904 0c2.326 1.599.536 2.547.88 5.253c.733 5.756-1.03 10.708-5.037 14.865c-.244.254-.612.415-.956.536c-4.222 1.497-8.472 2.917-12.671 4.479c-7.496 2.787-14.733 6.138-21.591 10.27q-.14.08-.293.16c-.65-.42-.917-1.046-.888-1.746c.036-.932.186-1.865.298-2.795c.01-.11.046-.214.054-.323c.223-1.645-.42-2.181-1.932-1.446c-.76.37-1.456.985-2.002 1.635c-1.746 2.09-2.829 4.566-3.867 7.048c-.55 1.31-.985 2.667-1.542 3.975c-.199.477-.518.961-.914 1.295c-5.94 5.051-11.472 10.485-16.16 16.743c-4.02 5.361-7.446 11.062-10.233 17.16c-.068.16-.15.315-.228.473c-.02.034-.06.055-.15.132a59.5 59.5 0 0 1-.557-16.037c-.428 1.595-.904 3.183-1.275 4.791c-1.523 6.486-1.997 13.05-1.543 19.695c.023.337-.062.7-.163 1.026c-1.98 6.211-3.344 12.56-3.927 19.048c-2.015 22.663 3.494 43.39 16.872 61.826m-5.385-69.788c4.144 9.063 9.34 17.517 15.005 25.689c.297.43.435.852.46 1.383c.128 2.626.267 5.245.482 7.86c.13 1.54.412 3.073.625 4.598c-15.13-16.646-22.394-36.246-22.167-58.834c.254 1.753.42 3.39.73 4.996c.964 4.989 2.762 9.708 4.865 14.308m55.587-66.872c-.034.132-.032.176-.055.213q-.165.239-.342.484c-4.94 6.923-8.985 14.334-11.969 22.309c-2.142 5.713-3.644 11.585-4.302 17.667c-.458 4.26-.492 8.519 0 12.78c.026.199.023.512-.093.598c-.966.691-1.96 1.344-2.974 2.023c-.067-.246-.121-.41-.16-.586c-1.562-7.016-2.406-14.098-1.997-21.303c.264-4.616 1.051-9.12 2.769-13.435c.049-.125.07-.257.103-.381a17 17 0 0 0-1.422 2.435c-3.19 6.633-4.452 13.712-4.703 20.985c-.226 6.568.44 13.1 1.712 19.576c-1.106.396-2.344.207-4.134-.674c-.054.215-.05.487-.174.632c-2.81 3.16-5.17 6.618-7.011 10.42c-.047.096-.117.171-.197.29c-1.38-1.564-2.574-3.183-3.294-5.159c-.22.808-.405 1.606-.454 2.417c-.158 2.644.42 5.175 1.249 7.656c.222.668.152 1.212-.197 1.836c-1.194-1.144-1.609-2.647-2.145-4.17c-.541.72-.725 1.45-.77 2.223c-.105 2.103.41 4.1 1.21 5.998c.627 1.484-.18 2.72-.258 4.24c-.293-.383-.485-.595-.643-.836c-2.049-3.023-4.183-5.989-6.12-9.084c-4.587-7.332-8.333-15.067-10.923-23.345c-.096-.326-.134-.746-.02-1.056c4.335-11.928 10.953-22.446 19.765-31.576c.106-.112.238-.202.424-.363c-.01.218-.013.326-.025.435c-.37 3.038-.814 6.077-1.075 9.12c-.454 5.34-.363 10.674.702 15.952c.717 3.541 1.883 6.924 4.087 9.853c1.518 2.005 3.375 3.606 5.752 4.533c-.572-.57-1.194-1.093-1.701-1.712c-1.422-1.723-2.412-3.696-3.142-5.797c-1.546-4.421-1.893-9.01-1.92-13.65c-.023-4.587.379-9.138 1.019-13.673c.68-4.854 1.507-9.68 2.893-14.385c.906-3.072 2.004-6.066 3.724-8.794c.241-.378.653-.655.987-.979c.2.417.505.816.583 1.251c.228 1.401.593 2.746.062 4.232c-2.088 5.864-3.243 11.933-3.782 18.123c-.113 1.3-.147 2.606-.22 3.906c.324-1.17.492-2.357.736-3.522c1.608-7.84 5.165-14.6 11.205-19.947a9.4 9.4 0 0 1 1.885-1.284c4.29-2.244 8.745-4.108 13.293-5.756c.67-.238 1.336-.471 2.062-.72M199.8 25.784c.01.44-.168.897-.318 1.33c-1.663 4.879-2.194 9.883-1.894 15.004c.055.917.107 1.864-.057 2.75c-.994 5.31-3.789 9.822-6.498 14.508c-.073-.202-.101-.239-.101-.27c-.3-7.825-.068-15.623 1.471-23.329c.565-2.815 1.368-5.561 2.88-8.045c.744-1.233 1.67-2.295 2.948-3.02c.396-.225.816-.357 1.132.008c.233.28.427.702.437 1.064m3.233 41.491c-1.236.894-2.533 1.733-3.89 2.42c-4.777 2.4-9.838 4.11-14.84 5.954c-.973.358-1.908.87-2.778 1.44c-1.73 1.135-3.018 2.725-4.134 4.445c-.534.813-1.034 1.652-1.554 2.479c.015-.277.1-.52.168-.772c.59-2.01 1.261-4.004 1.738-6.045c.66-2.847 1.707-5.507 3.292-7.947c.855-1.318 1.81-2.58 2.647-3.919c.528-.839.99-1.75 1.357-2.673c.218-.554.192-1.202.283-1.805c-.091-.044-.176-.088-.27-.13c-.264.223-.567.417-.79.676c-.92 1.055-1.802 2.145-2.748 3.181c-.204.23-.66.456-.89.373c-.221-.08-.457-.57-.423-.855c.117-1.142.184-2.32.541-3.398c.492-1.484 1.267-2.875 1.844-4.344a8.2 8.2 0 0 0 .531-2.274c.032-.362-.32-.756-.494-1.132c-.308.21-.663.379-.917.645c-.45.474-.808 1.029-1.275 1.495c-.458.453-.883.378-1.147-.2c-.186-.404-.378-.9-.313-1.31c.158-1.028.435-2.039.699-3.054c.243-.922.588-1.834.777-2.764c.13-.629-.031-1.253-.692-1.727c-.183.27-.385.5-.505.772c-.259.554-.466 1.134-.702 1.688c-.556 1.28-1.046 2.604-1.704 3.831c-.583 1.08-1.152.985-1.777-.064c-1.21-2.052-2.403-4.119-3.753-6.077c-.743-1.075-1.173-2.18-1.29-3.44c-.15-1.673-.233-3.362-.406-5.037c-.068-.625-.236-1.275-.92-1.865c-.145.707-.267 1.287-.38 1.87c-.169.855-.285 1.725-.521 2.561c-.16.591-.637.65-.933.125a3.9 3.9 0 0 1-.486-1.59c-.07-1.026.023-2.057-.032-3.085c-.023-.467-.191-.935-.367-1.378c-.073-.19-.327-.316-.498-.472c-.111.192-.266.368-.329.578c-.08.246-.09.513-.13.774c-.11.757-.173 1.531-.351 2.267c-.19.8-.695.935-1.19.287a6.8 6.8 0 0 1-1.043-2.005c-.35-1.103-.497-2.258-.831-3.372c-.156-.52-.51-.997-.845-1.44c-.127-.16-.487-.264-.689-.205c-.147.04-.292.379-.298.59c-.02.85.016 1.705.029 2.557c.002.423 0 .845 0 1.3c-.187-.04-.262-.038-.306-.067a1.7 1.7 0 0 1-.298-.256c-.875-.93-1.46-2.01-1.647-3.292c-.08-.567-.109-1.135-.215-1.692c-.132-.657-.523-.909-1.191-.826c-.702.083-1.145.593-1.218 1.484c-.052.58-.01 1.16-.01 1.829c-.8-.41-1.508-.785-2.228-1.14c-7.363-3.644-15.134-5.903-23.287-6.856c-5.266-.614-10.532-.63-15.753.43c-3.158.64-6.165 1.668-8.773 3.645c-.384.284-.736.616-1.104.927c2.904-1.681 4.603-2.368 7.224-2.865c4.774-.917 9.55-.78 14.316-.088a70.4 70.4 0 0 1 23.772 7.931c5.773 3.15 10.992 7.011 15.212 12.122c.318.378.616.774.917 1.163c-8.638-4.126-18.395 3.636-28.155.191c13.375 6.895 21.296-1.986 28.838 3.761c1.92 1.461 2.262 5.23-2.124 4.598c-4.185-.599 6.305 1.473 8.185 12.375a35 35 0 0 1-.764 5.442c-1.8 8.167-5.605 15.38-10.827 21.855c-5.377 6.673-12.132 11.638-19.718 15.52c-.109.013-.23.055-.38.114c.02-.093.017-.137.033-.16c.106-.169.215-.332.324-.497c3.626-5.39 6.607-11.081 8.052-17.473c.995-4.378 1.114-8.765-.27-13.101c-1.545-4.841-4.638-8.527-8.679-11.48c-4.527-3.31-9.643-5.377-14.976-6.962c-1.14-.34-2.3-.64-3.59-.994c.146.155.161.196.197.21c.218.093.446.178.671.266c3.725 1.456 7.273 3.233 10.49 5.634c4.631 3.442 8.04 7.778 9.584 13.416c1.362 4.984 1.059 9.97-.156 14.93c-1.572 6.429-4.483 12.249-7.996 17.81c-.805 1.271-1.76 2.118-3.206 2.548c-1.746.518-3.458 1.189-5.349 1.855c5.351-5.743 5.5-13.824 4.473-18.566c-.015.083-.041.137-.044.194c-.183 3.864-1.5 7.346-3.66 10.521c-3.222 4.74-7.586 8.195-12.512 11.005c-.381.218-.847.288-1.272.425c1.782-2.054 3.147-4.292 3.945-6.856c.777-2.481 1.046-6.371.53-7.768c-.813 2.712-1.66 4.479-3.47 6.787c-3.108 3.957-6.719 7.384-10.902 10.233c-2.802 1.92-5.742 3.507-8.902 4.714c-5.587 2.142-11.415 3.455-17.211 4.875c-5.093 1.246-10.182 2.538-15.235 3.95c-2.756.771-5.409 1.909-7.7 3.706c-.41-.912-1.18-4.134-1.208-6.693c-.334-30.164 23.669-46.288 30.983-54.726c2.13-2.458 3.352-5.47 4.421-8.517c.436-1.235.809-2.489 1.22-3.77c.068.09.138.152.169.217c2.043 3.924 3.3 7.93 2.32 12.474c-1.502 6.949-4.3 13.155-9.567 18.076c-.057.055-.104.124-.285.332c.259-.132.35-.166.432-.223c4.333-2.497 8.294-5.465 11.643-9.205c5.63-6.279 8.656-13.627 9.07-22.066c.182-3.675-.323-7.304-.733-10.932c-1.095-9.659-8.148-17.479-17.63-19.786c-.713-.174-1.438-.42-2.08-.76c-.912-.484-1.16-1.276-.816-2.234c.124-.345.308-.68.505-.99c1.68-2.616 3.818-4.779 6.447-6.454c1.349-.858 2.696-1.713 3.996-2.642c5.336-3.813 11.073-6.77 17.419-8.512c2.618-.717 5.265-1.352 8.019-1.11c.86.077 1.699.396 2.556.497c.358.046.743-.205 1.122-.319c-.213-.238-.381-.554-.643-.702c-1.657-.953-3.489-1.248-5.361-1.31c-2.759-.094-5.445.43-8.13.976c-.27.054-.552.054-.83.078c2.2-1.901 4.694-3.13 7.393-3.94c4.444-1.35 8.982-1.652 13.58-1.266c1.47.124 2.965.183 4.32.953c1.331.75 2.733 1.38 4.108 2.049c.298.145.63.217.948.323c.05-.054.093-.1.142-.155c-.145-.373-.264-.756-.448-1.109c-.494-.974-1.036-1.924-1.538-2.898c-.09-.184-.047-.448-.06-.673c.207-.01.44-.089.62-.026c1.056.352 2.133.663 3.138 1.134c1.438.684 2.935.917 4.502 1.023a88 88 0 0 1 6.395.653c3.113.448 5.486 2.054 7.024 4.838q.546.973 1.135 1.922c.14.225.331.417.5.622c.072-.034.158-.062.233-.104c-.487-1.658-.971-3.313-1.48-5.06c1.612.367 3.293 1.483 4.622 3.05c.676.782 1.274 1.619 1.942 2.401c.267.311.627.539.94.808c.089-.049.18-.088.27-.14c-.13-1.108-.262-2.214-.386-3.328a3 3 0 0 1 .205-.067c1.005.611 1.997 1.24 3.002 1.852c3.413 2.056 6.612 4.372 9.01 7.635c.33.451.576.386.75-.16c.211-.687.354-1.396.59-2.077c.067-.208.357-.49.523-.48c.23.019.552.246.627.456c.16.44.228.925.259 1.404c.064.958.041 1.922.142 2.875c.031.293.345.565.528.837c.247-.218.586-.389.71-.663c.38-.785.666-1.617 1.02-2.417c.327-.74.521-.754.995-.124c.622.831 1.321 1.502 2.495 1.42c1.087-.084 1.225-.003 1.629 1.01c.691 1.727 1.28 3.488 1.989 5.205c.337.819.852 1.565 1.259 2.352c.1.187.186.454.137.637c-1.443 4.65-1.839 9.439-1.888 14.267c-.044 4.468.046 8.936-.106 13.396c-.117 3.489-.702 6.892-3.305 9.58c.36-.113.702-.243 1.025-.409c1.676-.87 3.051-2.12 4.25-3.56c2.66-3.182 4.407-6.865 5.958-10.675c1.24-3.051 2.492-6.1 3.795-9.125c.323-.75.862-1.414 1.344-2.095c.116-.16.46-.345.593-.277c.194.085.38.375.41.595c.066.493.066 1.01.043 1.503c-.111 2.494-.318 4.986.112 7.472c.062.38.17.808.075 1.158c-.935 3.411-2.15 6.706-4.256 9.604c-.062.09-.106.202-.238.459c1.497-.669 2.504-1.658 3.32-2.821c.816-1.168 1.531-2.409 2.334-3.699c.342 1.383.668 2.715.995 4.046c.463 1.932-.117 3.517-1.676 4.654m1.694 19.988c-3.831 3.616-8.366 6.167-13.132 8.333c-6.45 2.932-13.207 4.965-20.097 6.566c-2.46.572-4.94 1.067-7.573 1.631c1.059-1.313 1.997-2.489 2.963-3.652c.09-.111.295-.16.46-.184c4.316-.448 8.468-1.564 12.464-3.227c9.25-3.838 17.17-9.64 24.228-16.675c.065-.065.112-.148.161-.22c-.24.072-.42.192-.6.316c-5.956 4.134-12.081 7.988-18.52 11.324c-4.124 2.124-8.325 4.08-12.842 5.234c-1.065.272-2.152.454-3.398.708c.17-.296.24-.404.303-.518c1.417-2.482 2.978-4.904 4.214-7.478c.77-1.619 1.852-2.805 3.22-3.849c5.128-3.903 10.78-6.916 16.545-9.736c.054-.024.117-.016.303-.05c-2.194 3.482-4.31 6.87-8.089 8.778c.977-.16 1.948-.323 2.883-.608c2.9-.889 5.34-2.598 7.633-4.515c2.803-2.339 5.514-4.802 8.358-7.107c1.464-1.192 3.03-2.342 4.722-3.165c1.78-.858 3.75-1.3 5.65-1.888c.486-.161 1.007-.187 1.719-.311c-.233 1.202-.332 2.256-.648 3.235c-2.167 6.618-5.882 12.28-10.927 17.058m-34.923 51.191c-1.401.78-2.893 1.48-4.421 1.946c-3.132.948-6.39.963-9.638.955c-2.297-.002-4.597-.033-6.892-.007c-.578.007-1.15.189-1.72.292q-.001.156-.01.319c.494.189.976.42 1.481.564c1.6.456 3.21.866 4.805 1.311c.313.09.598.27.904.41c-.01.061-.024.126-.034.186c-.207.083-.412.2-.632.248c-3.212.64-6.408 1.417-9.65 1.876c-5.487.78-10.926 1.73-16.238 3.346a4.1 4.1 0 0 1-1.417.171q-8.057-.563-16.113-1.153c-6.211-.453-12.425-.512-18.626.143c-7.047.743-13.867 2.416-20.464 4.965c-9.482 3.665-18.076 8.892-26.152 15.012c-.138.104-.27.228-.402.34c.267-.052.469-.16.666-.28c7.376-4.403 14.981-8.332 23.018-11.394c6.815-2.593 13.81-4.465 21.04-5.424c5.224-.691 10.466-.85 15.732-.815c5.882.03 11.777 0 17.66-.003c.075 0 .152.01.238.018c-.024.052-.026.078-.037.088c-.14.052-.28.114-.422.168c-5.26 2.057-10.249 4.626-14.802 7.98c-1.376 1.021-2.855 1.785-4.432 2.378a69 69 0 0 1-3.709 1.311c-6.42 2.028-13.067 3.023-19.677 4.217c-5.447.981-10.886 1.989-16.284 3.18c-4.919 1.086-9.67 2.751-14.085 5.26c-7.579 4.306-12.036 10.75-13.251 19.403c-.192 1.36-.3 2.738-.438 3.958c-.264-.492-.552-1.088-.891-1.658c-2.872-4.83-4.882-9.974-5.51-15.592c-.844-7.592 1.322-14.14 6.82-19.52c.226-.22.379-.515.526-.807c.793-1.606 1.448-3.292 2.368-4.813c2.629-4.312 6.338-7.56 10.516-10.306c5.548-3.639 11.606-6.182 17.861-8.293c9.866-3.336 20.017-5.515 30.216-7.475c8.312-1.596 16.64-3.13 24.946-4.743c6.48-1.254 12.782-3.03 18.747-5.97c7.483-3.683 14.409-8.107 20.275-14.088c.195-.202.568-.31.863-.321c3.924-.111 7.825-.48 11.679-1.207c10.795-2.046 20.682-6.25 29.737-12.453c.15-.096.306-.169.552-.319c-.055.324-.078.518-.125.705c-.761 3.375-1.75 6.685-3.035 9.894c-6.29 15.706-16.75 27.763-31.543 35.997m86.834 82.205c-.262 2.58-.798 5.137-1.363 7.675c-.875 3.903-3.263 6.486-7.128 7.654c-1.73.523-3.507.73-5.312.735c-3.54.008-7.009-.562-10.435-1.409c-2.855-.715-5.61-1.675-8.084-3.307c-2.362-1.557-4.118-3.58-4.802-6.4c-.42-1.764-.298-3.507-.013-5.274c.114-.702.417-1.01 1.062-1.261c5.638-2.251 10.14-5.823 12.842-11.386c.36-.736.872-1.109 1.657-1.19c2.697-.297 5.341-.199 7.804 1.11c1.58.838 3.158.743 4.72-.016a11 11 0 0 0 1.836-1.135c.71-.541 1.354-1.17 2.14-1.86c.064.115.113.218.18.301c3.906 4.553 5.484 9.853 4.896 15.763m-41.704 11.521c.436.283.824.648 1.213 1.005c3.359 3.132 7.231 5.406 11.52 7.017c3.831 1.437 7.815 2.082 11.868 2.3c3 .16 6.02.135 8.934-.66c1.997-.545 3.91-1.366 5.882-2.013c.42-.137 1.054-.233 1.339-.016c.482.37.122.959-.055 1.45c-.01.022-.025.04-.036.055c-1.401 2.676-3.237 4.989-5.721 6.745c-4.476 3.162-9.506 3.787-14.782 3.183c-.865-.098-1.614.06-2.32.461c-.332.19-.537.598-.801.912c.049.054.096.116.142.17c.187-.02.376-.054.565-.056c.979-.031 1.976-.181 2.932-.055c3.082.41 4.553 3.81 2.78 6.318c-.594.847-1.368 1.455-2.472 1.318c-1.134-.15-1.699-.992-2.085-1.968a3 3 0 0 1-.158-.77c-.116-.986-.186-1.124-1.204-1.09c-.956.028-1.907.176-2.86.321c-1.183.166-1.948-.27-2.32-1.412a3.3 3.3 0 0 1 .246-2.673c.486-.896 1.11-1.712 1.644-2.533c-1.432-.598-3.01-1.14-4.478-1.9c-5.613-2.91-9.415-7.313-10.847-13.573a7 7 0 0 1-.184-1.888c.03-.899.528-1.137 1.258-.648m2.93-7.835c.42 1.324.7 2.665 1.259 3.87c1.305 2.787 3.626 4.595 6.338 5.848c6.433 2.958 13.22 4.282 20.283 3.68c4.279-.362 7.825-2.149 9.811-6.241c.008-.016.036-.026.112-.088c1.308.606 2.038 1.616 2.214 3.035c.16 1.306-.396 2.316-1.494 2.899c-1.42.756-2.868 1.536-4.396 1.997c-6.454 1.955-12.981 1.908-19.503.328c-4.968-1.201-9.553-3.24-13.55-6.47c-1.561-1.258-2.983-2.647-3.871-4.486c-.22-.456-.425-1.005-.389-1.486c.117-1.505 1.782-2.894 3.186-2.886M12.868 191.48c-5.24-9.114-7.968-18.788-7.973-20.273a91 91 0 0 1 1.039-13.867c.16-1.067.373-2.127.557-3.191c.197.194.261.391.32.593c.775 2.572 1.449 5.18 2.335 7.713c4.657 13.275 11.738 25.181 20.513 36.12c.319.398.593.87.751 1.354a57 57 0 0 0 8.149 16.028c-3.934-1.676-8.413-2.28-13.751-8.42c6.556 12.642 22.086 17.651 22.086 17.651c8.64 7.731 18.698 12.842 29.838 15.9c.901.247 1.808.444 2.717.661c-.197-.191-.42-.27-.642-.357c-8.291-2.966-15.93-7.1-22.845-12.552c-8.607-6.786-15.116-15.147-19.006-25.456c-.415-1.108-.612-2.142-.184-3.286c.29-.778.44-1.604.68-2.399c1.83-5.975 4.692-11.347 9.294-15.683c4.403-4.155 9.695-6.664 15.435-8.358c6.874-2.015 13.976-2.759 21.044-3.686c4.1-.534 8.18-1.181 12.267-1.805c1.098-.164 2.184-.436 3.352-.676c-.088.145-.114.21-.16.261a52.3 52.3 0 0 0-7.963 11.832c-.127.267-.42.53-.702.619c-1.888.596-3.76 1.303-5.698 1.691c-2.872.573-5.812.793-8.685 1.357c-15.403 3.057-20.15 11.311-20.08 11.236c4.677-4.968 12.16-6.369 14.139-7.058c4.608-1.603 9.386-2.038 14.225-1.992c1.416.021 2.828.104 4.284.161c-4.344 14.178-3.774 28 2.11 41.538c.006-.257-.054-.5-.113-.744c-2.303-8.744-3.235-17.59-1.92-26.592c1.588-10.933 6.341-20.247 14.28-27.922c5.95-5.75 12.945-9.889 20.451-13.225c7.13-3.17 14.624-5.13 22.182-6.954c5.688-1.37 11.4-2.715 17.014-4.37c7.522-2.204 14.332-5.825 20.13-11.176c.902-.83 1.806-1.676 2.55-2.645c4.887-6.325 10.847-11.277 18.18-14.504c.463-1.552 1.271-3.189 2.535-4.898c1.79-2.399 4.007-4.375 6.395-6.15c.679-.5 1.575-.787 2.42-.952c.916-.19 1.465.253 1.781 1.142c.083.251.143.502.19.759c.486.168.976.432 1.455.805c.33.254.648.529.935.816c1.35 1.357 2.298 2.974 3.062 4.706c.165.376.388.524.777.573c.909.119 1.82.246 2.72.42c14.59 2.885 25.206 13.97 27.06 29.91c.164 1.438.156 2.927.586 4.274c.552 1.712 1.461 3.307 2.217 4.955c.666 1.448 1.394 2.867 1.971 4.354c.594 1.52.666 3.105.205 4.703c-.16.55-.48.694-.91.428c-.597-.379-1.139-.853-1.714-1.28c-.696-.52-1.347-1.116-2.1-1.528c-.612-.34-1.31-.27-1.86.36c.127.096.233.17.326.259c1.503 1.34 3.01 2.665 4.486 4.03c.177.16.303.487.288.738c-.132 2.117-.834 4.036-2.336 5.559c-1.938 1.96-4.214 3.007-7.043 2.344c-.07 1.054-.145 1.235-.748 1.562c-3.937 2.131-8.105 3.388-12.617 3.302c-3.315-.057-6.31.995-9.161 2.59c-.886.495-1.837.94-2.813 1.2c-3.082.818-6.247 1.054-9.43 1.136c-.262.006-.516.021-.778.034a.84.84 0 0 0 .487.277c2.539.601 5.113.679 7.706.49c.84-.06 1.784-.241 2.515.054c2.14.87 4.214 1.912 6.273 2.971c.578.298 1.088.44 1.673.223c1.308-.49 2.622-.974 3.896-1.541c2.71-1.205 5.48-1.93 8.475-1.518c1.634.223 3.232.583 4.66 1.456c.921.57 1.654 1.295 1.724 2.476c.016.165.164.35.298.474c.384.355.808.673 1.194 1.025c1.14 1.052 1.624 2.357 1.482 3.898c-.122 1.296-.505 1.51-1.632.938c-.544-.274-1.111-.5-1.68-.065c.722.461 1.431.876 2.105 1.342c1.015.694 1.373 1.694 1.339 2.898c-.106 3.352-4.059 6.318-7.452 5.57c-1.121-.247-2.119-.69-2.732-1.75c-.08-.14-.311-.287-.467-.276c-.885.049-1.79.044-2.644.235c-1.567.355-3.116.73-4.73.425c-.743-.142-1.476-.347-2.245-.523c-.601 2.093-1.59 3.952-2.914 5.639c-3.07 3.9-7.102 6.371-11.757 7.897c-6.035 1.981-12.238 2.199-18.444 1.308c-8.975-1.282-15.339-6.154-18.768-14.606c-.85-2.09-1.287-4.346-1.927-6.53c-1.026-3.512-2.404-6.89-4.224-10.08c-2.935-5.123-6.787-9.34-12.063-12.122c-5.926-3.124-12.225-3.748-18.75-2.587c-1.238.22-2.452.538-3.825.847c2.385.142 4.58.191 6.752.411c6.05.609 11.723 2.427 16.88 5.69c6.128 3.889 10.715 8.986 12.632 16.218a58.7 58.7 0 0 0 4.258 11.2c1.194 2.403 2.515 4.705 4.357 6.682c3.067 3.281 6.916 5.136 11.158 6.33c1.306.365 2.6.77 3.888 1.184c.637.207 1.036.658 1.287 1.302c.71 1.845.914 3.728.531 5.668c-.593 3.05-2.087 5.64-4.092 7.956c-1.725 1.995-3.885 3.456-6.046 4.914a31 31 0 0 0-3.03 2.292c-.829.705-1.334 1.673-1.282 2.78c.09 1.976.207 2.289 2.176 1.634q.462-.158.916-.358c1.609-.691 3.207-1.396 4.826-2.072c3.1-1.297 6.32-1.777 9.627-.981c3.663.875 6.248 3.027 7.41 6.705c.239.754.296 1.554-.106 2.23c-.196.335-.696.664-1.067.674c-.334.01-.727-.37-1.002-.668c-.166-.187-.16-.534-.238-.808c-.378-1.42-.998-2.673-2.391-3.362c-.267-.133-.565-.166-.85-.252c1.858 1.927 2.86 4.108 2.728 6.737c-.101 1.997-1.668 3.297-3.678 3.183c-.586-.033-.997-.308-1.062-.878c-.078-.691-.05-1.39-.062-2.087c-.021-.83.041-1.673-.075-2.487c-.184-1.334-1.008-2.201-2.287-2.613c-.62-.197-1.215-.09-1.79.202c.808.166 1.58.41 1.989 1.165c.389.726.79 1.482.987 2.272c.42 1.704.217 3.349-1.35 4.395c-.702.47-1.657.663-2.522.783c-1.86.259-3.64-.267-5.437-.682c-1.078-.25-2.194-.417-3.292-.42c-1.039-.002-2.088.218-3.116.402c-6.263 1.13-12.557.65-18.934.575c-6.897-.085-13.795-.044-20.692-.049c-12.347 0-24.697-.005-37.054-.005c-5.1 0-10.2.052-15.3.018c-7.035-.044-13.99-.837-20.791-2.621c-25.909-6.776-45.299-20.801-58.078-44.312c-5.634-10.37-8.85-21.464-9.982-33.112c-.135-1.347 7.604 13.062 7.532 11.645"/><path fill="#E65270" d="M215.438 130.402c-2.176-4.631-2.202-6.592.202-10.975c1.813-3.31 6.633-.365 5.98-4.06c-.274-3.213-3.639-6.74-4.263-7.507c-.766-.91-1.194-1.803-2.326-1.572c-1.033.212-2.015.712-2.851 1.331c-2.945 2.189-5.673 4.629-7.887 7.584c-3.997 5.333-2.35 8.568 2.328 12.821c1.982 1.79 9.05 2.872 8.817 2.378"/><path fill="#2B2B2B" d="M211.102 112.812c1.153-1.259 2.95-2.476 4.82-3.724c.995-.658-1.968 7.426-2.828 9.583c-2.829 7.068.875 11.448-.143 10.907c-2.245-1.191-5.45-5.354-5.67-7.926c-.245-2.781 1.915-6.752 3.821-8.84" opacity=".2"/><path fill="#0D0D0D" d="M214.54 129.97c-2.177-4.632-2.2-6.59.206-10.975c1.808-3.308 2.647-6.641 1.997-10.343a8 8 0 0 0-.287-1.23c-.384-1.111-1.065-1.655-2.197-1.422c-1.036.213-2.15.562-2.978 1.179c-2.945 2.188-5.675 4.628-7.887 7.584c-3.067 4.09-2.733 6.882-.407 9.982c.666.886 1.075.86 1.932 1.02c1.109.21 1.334-1.334.982-1.958c-.81-1.435-1.344-2.877-1.445-4.012c-.249-2.787 1.31-5.812 3.217-7.897c1.766-1.932 5.34-4.932 7.775-5.66c.59 2.257-.665 6.758-1.458 8.944c-.969 2.67-3.903 7.543-3.165 10.718c0 0 1.03 2.937 2.129 3.683c1.093.744 1.585.386 1.585.386"/><path fill="#8B4FBA" d="M82.492 183.426c-.298.016-.575-.015-.8-.137c.282-.018.549.036.8.137" opacity=".2"/><path fill="#430A1D" d="M216.386 222.255c2.54-3.86 5.398-5.165 8.625-8.203c3.07-2.883 5.426-6.361 8.48-9.192c2.396.5 5.084.096 7.542.22c1.757 4.336 10.283.21 11.063-2.588l1.132 1.697c2.458 4.84-6.359 5.165-11.379 4.662c-3.52-.35-18.726 3.647-18.226 23.257c-1.71 2.629-5.745.062-5.75 3.489c-.003 3.507.054 9.692 3.082 11.925c-.865 3.058-3.88-.177-4.709-1.402c-1.862-2.743-4.517-7.6-5.12-10.85c-1.021-5.553 2.48-8.796 5.26-13.015" opacity=".2"/></svg>