<svg xmlns="http://www.w3.org/2000/svg" xmlns:xlink="http://www.w3.org/1999/xlink" width="512" height="95" viewBox="0 0 512 95"><path fill="#00A298" d="m465.766 67.62l5.967-9.985c3.908 3.69 11.616 7.272 18.128 7.272c5.967 0 8.788-2.28 8.788-5.537c0-8.574-31.04-1.52-31.04-22.14c0-8.79 7.6-16.498 21.492-16.498c8.791 0 15.845 3.039 21.055 7.165l-5.537 9.767c-3.145-3.255-9.115-6.08-15.518-6.08c-4.995 0-8.25 2.171-8.25 5.102c0 7.708 31.149 1.196 31.149 22.36c0 9.657-8.247 16.711-22.79 16.711c-9.119 0-17.91-3.036-23.444-8.137Zm-17.256 6.838h13.783V2.065H448.51v72.393Zm-18.991-26.265c0-8.14-4.777-15.198-13.46-15.198c-8.573 0-13.348 7.057-13.348 15.198c0 8.247 4.775 15.303 13.348 15.303c8.683 0 13.46-7.053 13.46-15.303Zm-41.136 0c0-14.87 10.42-27.458 27.676-27.458c17.365 0 27.786 12.587 27.786 27.458c0 14.867-10.42 27.567-27.786 27.567c-17.256 0-27.676-12.7-27.676-27.567Zm-17.038 0c0-8.14-4.774-15.198-13.457-15.198c-8.573 0-13.35 7.057-13.35 15.198c0 8.247 4.777 15.303 13.35 15.303c8.683 0 13.457-7.053 13.457-15.303Zm-41.133 0c0-14.87 10.417-27.458 27.676-27.458c17.365 0 27.785 12.587 27.785 27.458c0 14.867-10.42 27.567-27.785 27.567c-17.259 0-27.676-12.7-27.676-27.567Zm-25.506 13.133V34.082h-8.682V22.033h8.682V7.711h13.784v14.328h10.638v12.046H318.49v23.553c0 3.364 1.737 5.861 4.777 5.861c2.062 0 4.014-.76 4.774-1.628l2.93 10.529c-2.061 1.844-5.751 3.36-11.503 3.36c-9.66 0-14.762-4.989-14.762-14.431v-.003Zm-27.131 13.132h13.783V22.036h-13.783v52.422Zm-1.302-66.314A8.129 8.129 0 0 1 284.41 0c4.56 0 8.25 3.584 8.25 8.144a8.247 8.247 0 0 1-8.25 8.246c-4.45 0-8.137-3.69-8.137-8.246Zm-20.514 66.311h13.784V2.065h-13.784v72.393v-.003ZM237.096 48.19c0-9.01-5.429-15.198-13.351-15.198c-4.45 0-9.443 2.498-11.831 5.973v18.45c2.28 3.363 7.38 6.078 11.83 6.078c7.923 0 13.352-6.188 13.352-15.303Zm-25.182 19.536v26.701H198.13V22.033h13.787v6.621c4.017-5.101 9.77-7.926 16.172-7.926c13.46 0 23.226 9.988 23.226 27.459c0 17.477-9.766 27.57-23.226 27.57c-6.185 0-11.828-2.603-16.172-8.031h-.003ZM179.466 48.19c0-9.01-5.428-15.198-13.35-15.198c-4.45 0-9.443 2.498-11.832 5.973v18.45c2.28 3.363 7.381 6.078 11.832 6.078c7.922 0 13.35-6.188 13.35-15.303Zm-25.182 19.536v26.701h-13.783V22.033h13.783v6.621c4.018-5.101 9.77-7.926 16.173-7.926c13.46 0 23.226 9.988 23.226 27.459c0 17.477-9.766 27.57-23.226 27.57c-6.185 0-11.831-2.603-16.173-8.031Zm-35.595-5.861v-6.512c-2.28-3.04-6.621-4.669-11.072-4.669c-5.428 0-9.878 2.931-9.878 7.923c0 4.995 4.45 7.817 9.878 7.817c4.45 0 8.792-1.52 11.072-4.56Zm0 12.59v-5.537c-3.582 4.342-9.77 6.84-16.606 6.84c-8.358 0-18.128-5.644-18.128-17.366c0-12.373 9.77-16.932 18.128-16.932c7.054 0 13.13 2.28 16.606 6.403v-6.618c0-5.316-4.56-8.791-11.505-8.791c-5.537 0-10.747 2.17-15.088 6.188l-5.422-9.658c6.403-5.755 14.652-8.252 22.9-8.252c12.048 0 23.007 4.777 23.007 19.862v33.864h-13.89l-.002-.003ZM45.21 48.29c0 3.896-.41 7.692-1.183 11.359c-5.043-3.146-11.716-6.927-20.516-11.36c8.8-4.434 15.47-8.216 20.516-11.361a55.086 55.086 0 0 1 1.18 11.362m13.927-23.208V12.897a236.33 236.33 0 0 1-13.127 10.798C41.312 16.53 35.311 11.471 27.42 7.932c6.185 5.485 10.435 11.667 13.644 19.423C16.196 45.195 0 48.29 0 48.29s16.196 3.09 41.063 20.934c-3.209 7.76-7.456 13.935-13.644 19.42c7.892-3.538 13.893-8.597 18.588-15.763a236.07 236.07 0 0 1 13.127 10.802V71.498s-1.49-2.483-8.616-7.545a44.789 44.789 0 0 0 2.815-15.663a44.805 44.805 0 0 0-2.815-15.664c7.126-5.065 8.616-7.544 8.616-7.544"/></svg>