<svg xmlns="http://www.w3.org/2000/svg" xmlns:xlink="http://www.w3.org/1999/xlink" width="512" height="90" viewBox="0 0 512 90"><path fill="#3D3D3D" d="m117.714 68.152l-4.312-14.822H90.763l-4.581 14.822H71.898l22.1-62.525h16.17l22.1 62.525h-14.554Zm-7.546-25.872c-4.312-13.475-6.468-21.022-7.007-22.908c-.54-1.887-.809-3.234-1.078-4.312c-.809 3.773-3.504 12.667-8.086 26.95h16.17v.27Zm50.667 26.95c-5.66 0-9.972-2.156-13.206-6.198h-.809c.54 4.042.809 6.198.809 7.007v19.404h-12.936V20.45h10.51l1.887 6.198h.539c2.965-4.85 7.546-7.007 13.475-7.007c5.66 0 9.972 2.156 13.206 6.468c3.234 4.313 4.851 10.511 4.851 18.057c0 5.12-.808 9.433-2.156 13.206c-1.617 3.773-3.503 6.738-6.468 8.624c-2.965 2.156-6.199 3.234-9.702 3.234Zm-4.043-39.078c-3.234 0-5.66 1.078-7.007 2.965c-1.347 1.886-2.156 5.12-2.425 9.702v1.347c0 5.12.808 8.894 2.156 11.05c1.617 2.156 4.042 3.234 7.276 3.234c5.93 0 8.624-4.851 8.624-14.284c0-4.581-.808-8.085-2.156-10.51c-1.078-2.426-3.234-3.504-6.468-3.504Zm54.71 39.078c-5.66 0-9.972-2.156-13.206-6.198h-.809c.54 4.042.809 6.198.809 7.007v19.404H185.36V20.45h10.51l1.887 6.198h.539c2.965-4.85 7.546-7.007 13.475-7.007c5.66 0 9.972 2.156 13.206 6.468c3.234 4.313 4.851 10.511 4.851 18.057c0 5.12-.808 9.433-2.156 13.206c-1.617 3.773-3.503 6.738-6.468 8.624c-2.695 2.156-5.93 3.234-9.702 3.234Zm-3.773-39.078c-3.234 0-5.66 1.078-7.007 2.965c-1.348 1.886-2.156 5.12-2.426 9.702v1.347c0 5.12.809 8.894 2.156 11.05c1.617 2.156 4.043 3.234 7.277 3.234c5.929 0 8.624-4.851 8.624-14.284c0-4.581-.809-8.085-2.156-10.51c-1.078-2.426-3.234-3.504-6.468-3.504ZM256.51 58.72c2.155 0 5.12-.54 8.084-1.617v9.702c-3.234 1.347-7.276 2.156-11.858 2.156c-5.12 0-8.894-1.348-11.32-4.043c-2.425-2.695-3.503-6.468-3.503-11.858V30.152h-6.198v-5.39l7.276-4.312l3.773-9.972h8.086V20.72h13.475v9.703H250.85V53.33c0 1.886.539 3.234 1.617 4.042c.808.809 2.156 1.348 4.042 1.348Zm35.035 10.51c-7.546 0-13.745-2.156-18.057-6.468c-4.312-4.312-6.468-10.241-6.468-18.057c0-8.085 1.886-14.283 5.929-18.596c4.043-4.312 9.433-6.468 16.44-6.468c6.737 0 11.858 1.887 15.631 5.66c3.773 3.773 5.66 9.163 5.66 15.9v6.2h-30.724c.27 3.772 1.348 6.468 3.234 8.624c2.156 2.156 4.851 3.234 8.624 3.234c2.965 0 5.66-.27 8.086-.809c2.425-.539 5.12-1.617 8.085-2.964v9.971c-2.156 1.078-4.582 1.887-7.277 2.426c-2.425.808-5.66 1.347-9.163 1.347Zm-1.887-40.425c-2.695 0-4.85.808-6.468 2.695c-1.617 1.617-2.425 4.312-2.695 7.546h18.327c0-3.234-.809-5.66-2.426-7.546c-1.887-1.617-4.043-2.695-6.738-2.695Zm71.419 39.347h-12.936V40.393c0-3.503-.539-5.929-1.887-7.815c-1.347-1.617-3.234-2.695-5.929-2.695c-3.773 0-6.198 1.347-7.815 3.773c-1.617 2.425-2.426 6.468-2.426 12.127v22.37h-12.936V20.45h9.972l1.617 6.198h.808c1.348-2.425 3.504-4.042 5.93-5.12c2.425-1.078 5.39-1.887 8.623-1.887c5.66 0 9.703 1.617 12.667 4.582c2.965 2.965 4.312 7.277 4.312 12.936v30.993Zm29.107-9.432c2.156 0 5.12-.54 8.085-1.617v9.702c-3.234 1.347-7.277 2.156-11.858 2.156c-5.12 0-8.894-1.348-11.32-4.043c-2.425-2.695-3.503-6.468-3.503-11.858V30.152h-6.199v-5.39l7.277-4.312l3.773-9.972h8.355V20.72h13.475v9.703h-13.475V53.33c0 1.886.539 3.234 1.617 4.042c.808.809 2.156 1.348 3.773 1.348ZM403.12 8.322c0-4.312 2.426-6.468 7.007-6.468c4.851 0 7.007 2.156 7.007 6.468c0 1.887-.539 3.504-1.886 4.582c-1.078 1.078-2.965 1.617-5.39 1.617c-4.312 0-6.738-1.887-6.738-6.199Zm13.475 59.83H403.66V20.45h12.936v47.702Zm20.752 0L419.29 20.45h13.476l9.163 27.22c1.078 3.503 1.617 6.738 1.886 9.702h.27c.27-2.695.808-5.929 1.886-9.702l9.164-27.22h13.475l-18.057 47.702h-13.206Zm55.518 1.078c-7.546 0-13.744-2.156-18.056-6.468c-4.313-4.312-6.469-10.241-6.469-18.057c0-8.085 1.887-14.283 5.93-18.596c4.042-4.312 9.432-6.468 16.44-6.468c6.737 0 11.858 1.887 15.63 5.66c3.774 3.773 5.66 9.163 5.66 15.9v6.2h-30.723c.27 3.772 1.347 6.468 3.234 8.624c2.156 2.156 4.85 3.234 8.624 3.234c2.964 0 5.66-.27 8.085-.809c2.426-.539 5.12-1.617 8.085-2.964v9.971c-2.156 1.078-4.581 1.887-7.276 2.426c-2.426.808-5.39 1.347-9.164 1.347Zm-1.886-40.425c-2.695 0-4.851.808-6.468 2.695c-1.617 1.617-2.426 4.312-2.695 7.546h18.326c0-3.234-.809-5.66-2.426-7.546c-1.886-1.617-4.042-2.695-6.737-2.695Z"/><path fill="#EF4650" d="M61.926 14.521c1.887 4.312 2.156 8.624 1.078 12.667L48.451 67.614L9.91 53.33c-3.773-1.617-6.468-4.582-8.354-8.624C-.33 40.394-.6 35.812 1.287 30.69c1.887-4.85 4.851-8.354 9.164-10.51c4.042-2.156 8.354-2.695 12.666-1.617c13.745 3.773 19.405 10.78 16.44 20.482c-4.581-6.468-9.972-10.241-16.17-11.589c-5.66-1.617-9.702.27-11.858 6.199c-1.887 5.66-.809 9.702 3.503 11.589l27.49 10.24l11.05-30.723c.808-2.695.269-5.12-1.079-7.815c-1.617-2.965-4.042-4.851-7.007-5.93c-3.503-1.347-6.737-1.347-9.702 0c-2.695 1.079-4.312 2.696-4.851 4.582L21.5 12.365c1.887-4.851 5.66-8.355 11.05-10.51c5.12-2.426 10.51-2.426 16.17-.27c5.12 1.886 9.163 5.66 12.398 11.32c0 .269.539.808.808 1.616Z"/></svg>