<svg xmlns="http://www.w3.org/2000/svg" xmlns:xlink="http://www.w3.org/1999/xlink" width="512" height="83" viewBox="0 0 512 83"><path fill="#577138" d="M479.734 39.438h11.762q4.526 0 6.628 2.305q2.102 2.264 2.102 6.587q0 4.002-2.466 6.062q-2.465 2.021-7.154 2.022H479.73V39.438zm0-23.726h8.084q5.094 0 7.64 1.94q2.587 1.938 2.587 6.021q0 3.72-2.548 5.658q-2.546 1.94-7.276 1.94h-8.489v-15.56zm-54.558 0h7.803q6.347 0 9.945 4.283q3.596 4.284 3.595 11.114v9.825q0 6.91-3.595 11.196q-3.598 4.285-9.945 4.284h-7.803zm36.505-9.094v7.114l6.263 1.211v42.226l-6.263 1.214v7.075h28.94q10.226 0 15.804-4.324Q512 56.77 512 48.32q0-4.892-2.667-8.61q-2.625-3.72-7.922-4.85q4.124-1.616 6.264-4.81q2.183-3.235 2.183-7.316c0-5.364-1.94-9.39-5.82-12.087q-5.82-4.042-16.208-4.042h-26.149zm-54.558 0v7.114l6.264 1.211v42.226l-6.264 1.214v7.075h26.474q10.793 0 17.784-6.833q6.993-6.87 6.992-17.701V31.18q-.001-10.792-6.992-17.665q-6.994-6.912-17.784-6.912h-26.474z"/><path fill="#A3B34F" d="M233.415 46.17h6.021v7.22q-1.212 1.74-3.396 2.911q-2.183 1.132-4.85 1.132q-2.546-.001-4.002-1.255q-1.416-1.252-1.417-3.476c0-1.643.647-3.595 1.94-4.755q1.942-1.778 5.7-1.778m98.681-16.22q2.628 0 4.486 1.09q1.899 1.092 3.03 3.072v18.996q-1.131 1.9-3.03 2.91q-1.86.97-4.568.97q-4.365 0-6.307-3.27q-1.94-3.316-1.94-9.055v-.85c0-4.12.661-7.465 1.981-10.023q2.022-3.84 6.347-3.84m48.376-.082q4.607 0 6.75 3.677q2.143 3.68 2.143 9.501v.847q0 5.943-2.143 9.58q-2.102 3.639-6.67 3.639q-4.69 0-6.79-3.598q-2.102-3.64-2.103-9.62v-.848c0-3.88.702-7.05 2.103-9.5q2.101-3.679 6.71-3.678m0-9.094q-9.66.001-15.158 6.266q-5.457 6.225-5.456 16.006v.847q0 9.865 5.456 16.09q5.498 6.185 15.238 6.183q9.62 0 15.076-6.184q5.496-6.225 5.495-16.089v-.847q0-9.821-5.495-16.046q-5.457-6.225-15.159-6.226m-92.408 0q-3.962 0-7.154 1.86q-3.193 1.86-5.373 5.214l-.526-6.267h-17.258v7.115l6.264 1.213v27.12l-5.658 1.214v7.074h22.23v-7.074l-4.767-1.214V33.583a8.46 8.46 0 0 1 3.112-2.666q1.858-.97 4.204-.97q3.597-.001 5.373 1.858q1.779 1.82 1.779 6.227v18.995l-5.052 1.214v7.075h22.554V58.24l-5.658-1.214V37.992q0-8.892-3.717-13.056c-2.48-2.776-5.927-4.165-10.349-4.165m-55.047 0c-2.858 0-5.523.4-8.014 1.153c-1.181.312-2.42.713-3.629 1.248c-4.638 2.055-6.27 3.782-6.27 3.782l5.591 7.393s1.782-1.924 6.839-4.082c1.48-.626 3.31-.877 4.709-.884q3.557 0 5.376 1.738t1.82 4.89v3.733h-6.022c-6.359 0-11.181 1.67-14.47 3.907q-4.932 3.356-4.933 9.498q0 6.022 3.76 9.537q3.801 3.476 10.227 3.476q3.88 0 6.87-1.495q3.03-1.496 5.13-3.923q.204 1.172.568 2.345q.364 1.133.849 2.223h13.62v-7.074l-3.596-.485a17 17 0 0 1-.161-1.7V36.085q0-7.358-5.095-11.319q-5.054-4.002-13.176-4.002m-25.91 0q-3.195.001-5.619 1.9q-2.426 1.9-3.962 5.294l-.527-6.385h-17.257v7.114l6.263 1.214v27.12l-5.657 1.213v7.074h23.12v-7.074l-5.658-1.214V35.76q.89-1.86 2.587-2.871t4.287-1.01l4.85.122l1.252-10.752q-.687-.203-1.737-.324a12 12 0 0 0-1.94-.161m134.205-.147l-.983 6.453q-1.98-3.03-4.77-4.648q-2.79-1.657-6.466-1.657q-8.123 0-12.65 6.346q-4.487 6.346-4.488 16.695v.85q0 9.659 4.489 15.601q4.528 5.903 12.57 5.903q3.395 0 6.022-1.293q2.627-1.294 4.565-3.761v2.869q.001 4.69-2.14 7.316q-2.142 2.628-6.469 2.628q-3.154 0-5.982-.729a36 36 0 0 1-5.658-1.899l-2.183 8.286q3.154 1.576 6.872 2.465q3.72.93 7.032.931c6.33 0 11.306-1.725 14.917-5.174q5.456-5.132 5.455-13.785v-7.555l.01.028V28.945l6.266-1.214v-7.115h-16.409m-194.27-.621h.243l5.395 16.872h-11.037zm-5.86-13.54l-17.907 51.16l-4.204.609v7.074h20.048v-7.074l-4.081-.729l3.821-11.946h16.53l3.901 11.946l-4.082.729v7.074h20.048v-7.074l-4.204-.608L153.26 6.455z"/><path fill="#577138" d="M101.954 35.9c-.96-3.185-1.439-4.779-2.134-6.473c-1.34-3.277-3.044-5.942-5.597-9.243c-5.976-7.715-8.963-11.58-13.837-14.658C69.81-1.16 58.68.023 57.41.176C53.612.634 45.257 2.301 38.096 9.21c-4.056 3.92-6.606 9.538-7.799 12.407c-1.319 22.863 21.11 32.022 26.391 35.851c1.697.808 5.6 2.526 8.767 4.162c7.314 3.775 12.385 4.556 15.001 5.014c5.7.999 14.566-1.258 18.774-5.975c4.032-4.52 5.206-10.618 4.245-16.053c-.292-1.671-.297-4.643-1.525-8.725z"/><path fill="#A3B34F" d="M98.728 33.446c-1.527-4.075-3.318-6.78-5.443-9.987c-2.602-3.928-4.928-6.605-6.795-8.738c-3.983-4.547-5.976-6.821-8.683-8.472c-4.671-2.85-9.187-3.366-11.754-3.633c-6.058-.628-10.688.656-12.94 1.302c-2.315.667-6.904 2.034-11.697 5.797c-4.342 3.41-7.012 8.542-8.465 11.305c-1.334 2.491 6.872 22.485 25.83 34.302c.97.501 3.67 1.734 5.338 2.578c.543.275 1.041.52 1.508.747c.753.345 1.455.675 2.116.99c2.13.962 3.448 1.451 5.193 2.364c6.045 3.161 12.427 2.26 13.374 2.113c1.255-.193 9.98-1.543 13.592-8.486c1.905-3.662 1.573-7.308 1.12-12.301c-.128-1.416-.56-5.247-2.3-9.89"/><path fill="#DDE072" d="M69.456 57.922c6.354 2.433 8.444 3.703 11.165 4.035c.895.107 9.426.644 14.427-4.08c3.723-3.516 3.902-7.07 4.116-8.746c.742-5.77-.899-13.171-2.815-16.804c-2.517-4.772-3.167-5.775-9.917-14.72c-5-6.617-7.504-7.841-10.113-9.56c-4.484-2.932-9.671-2.999-13.192-3.144c-2.59-.105-7.441.844-12.09 2.474c-7.266 2.555-11.51 6.836-14.49 12.897c-3.309 6.99 13.423 29.771 25.058 34.428"/><path fill="#A3B34F" d="M71.63 44.247c4.052-.709 6.75-4.866 7.575-8.234c1.158-4.763-1.238-8.738-2.835-11.39c-1.507-2.494-4.157-5.984-8.956-7.931c-4.417-1.796-7.848.382-9.447 1.273c-7.048 10.421-1.588 20.997 8.78 26.278c1.31.13 3.854.183 4.881.004"/><path fill="#577138" d="M59.897 54.065c1.779-2.123 5.198-6.526 6.58-9.264q.136-.27.271-.564c1.492-3.241 2.972-8.85 3.113-13.269c.126-3.957-1.227-6.63-1.227-6.63c-1.38-3.6-5.35-4.832-7.09-5.498a17.2 17.2 0 0 0-4.01-.93c-2.559-.23-6.108.044-12.245.944a188 188 0 0 0-17.736 3.358c-6.777 1.652-10.513 2.561-14.819 4.645c-4.973 2.405-9.671 4.678-11.705 9.671c-1.244 3.059-1.136 6.138-.826 8.185c0 0 1.342 13.388 10.555 20.212c7.714 5.721 19.09 7.833 27.569 5.516c6.687-1.271 13.065-7.539 18.367-13.023c1.083-1.097 2.388-2.385 3.205-3.358z"/><path fill="#A3B34F" d="M51.503 51.82c-6.234 3.661-15.38 8.627-26.826 8.5q-.553-.005-1.114-.027c-3.838-.155-14.033-.566-19.279-7.385c-1.447-1.884-2.302-3.966-2.765-5.382l-.013-.03c-.28-.863-.383-1.37-.386-1.389a18 18 0 0 1-.201-1.1l-.007-.025l-.002-.011l-.002-.006c-.294-1.956-.395-4.89.784-7.785c1.93-4.735 6.296-6.847 11.354-9.293c4.238-2.05 7.946-2.953 14.672-4.593q1.291-.313 2.49-.59q1.356-.31 2.605-.575c1.633-.346 3.194-.652 4.773-.935l.008-.005a247 247 0 0 1 7.798-1.24c6.079-.891 9.58-1.165 12.077-.94c1.37.121 2.51.386 3.816.886c1.783.683 5.1 1.954 6.704 5.148c.482.963.768 2.03.85 3.176q.014.166.02.34c.098 2.878-1.089 5.708-1.726 7.23c-3.582 8.528-10.24 12.862-15.633 16.032"/><path fill="#DDE072" d="M47.575 52.242c5.936-3.055 10.751-6.562 13.234-9.293c4.124-4.538 5.805-9.152 6.169-12.904c.408-4.205-2.236-5.776-3.133-6.54c-3.338-2.85-7.876-2.804-12-2.82c-1.873-.006-4.562.138-12.806 1.934c-6.556 1.494-7.896 1.819-15.821 3.985c-5.283 1.47-8.262 2.46-10.696 3.989c-3.402 2.136-7.637 4.795-8.71 9.923C2.48 46.88 7.185 52.18 8.142 53.182c4.605 4.805 10.954 5.381 15.33 5.397c1.72.005 3.347-.085 4.782-.165c8.893-.491 15.015-3.96 19.321-6.169"/><path fill="#5E3108" d="M24.53 26.643c-.681.515-1.79 1.607-2.36 2.19l-1.584 1.77c-2.807 3.527-4.81 10.324-3.29 12.155c.78.94 1.19 1.043 1.469 1.23c3.898 1.885 7.455 4.473 13.269 4.813l4.836-.006c.391-.016.966-.04 1.38-.07c1.077-.097.607-.106 1.35-.185c6.69-1.099 15.598-5.831 15.254-12.456c-.131-2.475-2.959-6.53-4.878-8.36c-2.041-1.946-5.855-3.837-6.855-4.194c-.468-.145-1.027-.335-1.96-.5a24 24 0 0 0-2.147-.294c-.232-.021-.461-.034-.69-.048c-4.857-.302-9.216.963-12.575 3.104q-.42.266-.818.55c-.137.1-.27.196-.403.3"/></svg>