<svg xmlns="http://www.w3.org/2000/svg" xmlns:xlink="http://www.w3.org/1999/xlink" width="512" height="139" viewBox="0 0 512 139"><path fill="#0C4062" d="M290.927 57.073c4.92-6.065 11.3-7.595 18.184-7.501l.796.018l.4.014l.802.037l.403.024l.808.055c2.328.174 4.67.594 6.93 1.184c8.382 2.187 13.022 7.824 14.436 16.195c.41 2.42.577 4.905.592 7.362c.039 6.002.042 12.005.037 18.007l-.012 12.287l-.009.542l-.019.513c-.194 3.99-1.404 5.28-5.31 5.496l-.502.022l-.532.011c-.182.002-.368.002-.56.002a59.11 59.11 0 0 1-5.404-.275c-2.142-.211-3.103-1.67-3.4-3.631c-.135-.889-.143-1.802-.144-2.704l-.005-20.008c-.002-3.335-.006-6.67-.014-10.005a29.528 29.528 0 0 0-.304-4.137c-.478-3.305-1.91-5.071-5.22-5.559c-2.708-.399-5.548-.476-8.262-.142c-4.108.506-5.868 2.728-6.045 7.026c-.12 2.888-.046 5.784-.048 8.676V95.77a3019.7 3019.7 0 0 1-.013 7.593a29.322 29.322 0 0 1-.262 3.778c-.358 2.683-1.172 3.76-3.82 3.992c-2.677.235-5.407.052-8.1-.144c-1.684-.123-2.697-1.296-2.965-2.952c-.21-1.3-.359-2.626-.363-3.94l-.017-10.065V73.903c0-.323-.004-.636-.015-.94l-.028-.594c-.303-5.038-2.239-7.198-7.046-7.676l-.568-.048a25.124 25.124 0 0 0-1.533-.057a29.754 29.754 0 0 0-5.208.433c-3.054.52-4.695 2.524-5.172 5.494a25.489 25.489 0 0 0-.34 3.95c-.019 6.669-.02 13.338-.018 20.008v10.004c0 .723.023 1.451-.052 2.168c-.338 3.209-1.625 4.54-4.876 4.639c-2.519.077-5.055-.069-7.57-.282c-1.769-.151-2.784-1.328-3.073-3.063c-.158-.946-.311-1.908-.313-2.863l-.012-4.046l-.035-8.091c-.026-6.743-.034-13.485.075-20.226c.138-8.554 2.98-15.84 11.075-20.098c4.255-2.238 8.906-2.945 13.642-3.03c2.28-.04 4.599.082 6.846.455c5.481.912 8.458 2.71 12.163 7.033Zm191.175 55.548a89.183 89.183 0 0 0-1.806-.006l-1.807.01c-1.506.004-3.009-.019-4.498-.174c-4.103-.428-7.218-2.682-8.673-6.487a113.747 113.747 0 0 1-4.285-13.726c-1.575-6.475-3.07-12.97-4.548-19.469l-2.213-9.75c-.37-1.624-.74-3.248-1.112-4.872c-.094-.41-.176-.823-.242-1.238l-.073-.488l-.058-.462l-.044-.437c-.251-2.972.635-4.127 3.485-4.429l.42-.037l.448-.026l.476-.016l.248-.005c1.808-.022 3.62.037 5.426.128c3.074.155 4.874 1.93 5.594 4.774c.93 3.67 1.738 7.371 2.551 11.07c1.964 8.923 3.895 17.854 5.85 26.78c.895 4.088 2.024 5.22 5.218 5.304c2.255.058 3.464-.551 4.103-2.745c.768-2.635 1.4-5.31 2.003-7.99l.599-2.682c2.076-9.33 4.098-18.673 6.163-28.006c.207-.934.508-1.856.857-2.749c.837-2.135 2.333-3.552 4.708-3.633l1.803-.06c2.106-.06 4.216-.08 6.303.104c2.405.214 3.272 1.25 2.93 3.648c-.394 2.77-.976 5.517-1.594 8.253l-3.713 16.258c-2.65 11.596-5.31 23.188-8.075 34.757c-1.752 7.333-4.98 13.956-11.2 18.674c-5.054 3.832-10.833 5.714-17.146 5.927c-2.699.091-3.782-.64-4.506-3.223c-.447-1.595-.735-3.239-.988-4.885l-.247-1.647c-.245-1.659.623-2.808 2.135-3.365a31.39 31.39 0 0 1 2.231-.706l1.504-.428c.25-.073.499-.148.747-.227c5.797-1.833 9.898-5.328 11.24-11.502a3.284 3.284 0 0 1-.214-.217ZM360.874 81.197l-.006 1.057l-.03 2.115c-.018 1.41-.022 2.82.062 4.224c.28 4.682 2.506 7.552 6.634 8.59c3.79.952 7.656 1.01 11.476.249c4.721-.941 6.907-2.866 7.256-7.667c.422-5.792.34-11.657-.046-17.456c-.29-4.337-2.71-6.708-7.02-7.21c-3.486-.407-7.104-.453-10.58-.007c-4.992.64-7.406 3.6-7.72 8.706c-.087 1.404-.083 2.814-.064 4.225l.031 2.116c.004.353.007.705.007 1.058Zm41.907.833c-.028.36-.053.733-.076 1.116l-.064 1.181l-.127 2.522c-.12 2.174-.299 4.502-.714 6.788c-1.655 9.123-7.202 15.099-16.104 17.626c-8.544 2.426-17.206 2.273-25.675-.41c-8.307-2.631-13.13-8.62-14.498-17.074c-1.331-8.23-1.472-16.594.038-24.805c1.832-9.97 8.245-15.949 17.981-18.275c7.322-1.748 14.72-1.625 22.028.25c9.631 2.472 15.528 9.234 16.576 19.11c.113 1.071.195 2.146.26 3.248l.07 1.336l.059 1.372l.14 3.64l.067 1.565l.039.81Zm-223.048 4.795l-1.71-.003l-5.042-.026c-2.218-.005-4.41.008-6.6.08c-1.515.051-3.105.489-4.492 1.12c-2.254 1.024-3.187 3.302-2.846 6.073c.336 2.746 1.65 4.685 4.203 4.91c3.736.33 7.552.422 11.275.037c3.32-.343 4.97-2.565 5.188-5.941c.131-2.027.024-4.069.024-6.25Zm-.018-11.957c0-.461.007-.915.017-1.362l.03-1.326c.022-1.092.022-2.154-.084-3.206c-.273-2.692-1.945-4.547-4.552-4.945a70.484 70.484 0 0 0-10.59-.811c-1.521 0-3.042.113-4.563.253l-2.282.218a69.596 69.596 0 0 1-3.426.258c-2.693.122-3.765-.79-4.102-3.484c-.214-1.717-.155-3.49-.027-5.223c.193-2.626 1.746-4.197 4.306-4.619l.665-.107l1.328-.201c9.078-1.31 18.121-1.287 26.953 1.725c7.993 2.726 12.156 8.676 12.218 17.091c.063 8.437.05 16.874.003 25.311c-.045 8.148-4.277 14.13-12.119 16.469c-9.337 2.784-18.812 2.727-28.184.058c-7.01-1.997-11.19-6.691-11.992-13.996c-.766-6.97.312-13.41 6.564-17.834c3.535-2.503 7.622-3.653 11.87-3.9c4.633-.267 9.282-.268 13.927-.334l2.38-.039l1.66.004Zm26.442 23.486l.013-7.684V71.145c0-12.256 7.213-20.132 19.513-21.241a80.46 80.46 0 0 1 7.223-.33c3.64 0 5.28 1.333 5.714 4.896c.267 2.195.219 4.459.035 6.67c-.194 2.332-1.137 3.162-3.496 3.354c-1.74.142-3.5.006-5.248.092c-5.896.287-7.825 2.302-7.836 8.2l-.009 10.365l.004 20.73c0 .423.005.845 0 1.267c-.06 4.553-1.385 6.056-5.664 6.192l-.517.01l-1.812.016c-.906.006-1.812.002-2.716-.038c-3.644-.16-5.132-1.641-5.174-5.29a602.99 602.99 0 0 1-.03-7.684ZM413.11 87.635V71.363c.001-12.337 7.058-20.188 19.35-21.434a71.69 71.69 0 0 1 7.586-.351c3.627.02 5.34 1.616 5.598 5.212c.15 2.096.138 4.22-.008 6.316c-.157 2.268-1.008 3.136-3.27 3.341a37.23 37.23 0 0 1-2.785.126l-1.862.026c-.62.012-1.24.031-1.859.071c-4.425.285-6.251 2.056-6.754 6.453c-.07.62-.086 1.249-.09 1.876l-.012 31.749c-.001.9-.054 1.806-.167 2.698c-.28 2.201-1.555 3.59-3.76 3.709a71.135 71.135 0 0 1-8.117-.041c-2.136-.129-3.36-1.465-3.614-3.61l-.121-1.004a13.735 13.735 0 0 1-.104-1.508c-.02-5.786-.01-11.571-.01-17.357Z"/><path fill="#00BCDD" d="M104.295 38.341V17.148h21.274v21.193h-21.274Zm28.437-8.139h13.9V17.098h-13.9v13.104Zm-13.41-19.625h12.497V0H119.32v10.577Zm19.508-1.362h7.859V2.217h-7.859v6.998Z"/><path fill="#0C4062" d="M14.04 41.97c-.17 11.608-.071 22.975 1.914 34.244c1.538 8.729 4.104 17.054 9.286 24.388c7.413 10.49 17.44 17.637 29.105 22.724c1.699.74 3.134.887 4.762-.081c1.39-.826 2.914-1.426 4.381-2.121c18.633-8.823 30.374-22.87 33.762-43.562c1.918-11.713 2.246-23.466 2.12-35.272c0-.095-.12-.19-.224-.341c-15.467-1.486-29.32-7.108-41.45-16.896C44.601 34.669 30.187 40.429 14.04 41.97m98.77-3.629c.035 5.778.2 11.558.08 17.332c-.27 12.968-1.347 25.834-5.75 38.188c-5.794 16.25-16.896 28.005-31.651 36.41c-5.512 3.138-11.52 5.417-17.346 7.99c-.797.351-1.954.423-2.766.13c-14.404-5.19-27.213-12.816-37.247-24.609C9.463 103.597 4.434 91.762 2.59 78.62C1.566 71.3 1.09 63.907.35 56.549c-.031-.306-.23-.595-.35-.893v-13.38c.22-2.22.46-4.437.654-6.658c.202-2.322.36-4.648.55-7.154C23.513 29.599 42.297 22.072 57.76 6.01c12.093 14.674 27.803 21.712 46.536 22.46h7.842l.673 9.87"/><path fill="#00BCDD" d="M57.696 44.812c3.604 4.457 7.02 8.66 10.413 12.882c5.777 7.184 11.521 14.395 17.328 21.555c.928 1.144 1.21 2.212.767 3.634c-1.258 4.042-3.782 8.919-5.844 10.884L57.695 65.654L35.023 93.826c-.625-.91-1.236-1.625-1.654-2.44c-1.208-2.355-2.263-4.79-3.518-7.117c-1.273-2.359-.771-4.249.874-6.254c7.797-9.502 15.503-19.078 23.242-28.627c1.168-1.44 2.343-2.876 3.729-4.576"/></svg>