<svg xmlns="http://www.w3.org/2000/svg" xmlns:xlink="http://www.w3.org/1999/xlink" width="512" height="127" viewBox="0 0 512 127"><path d="M112.32 117.812a25 25 0 0 1-2.548 2.219l-22.85.005a59 59 0 0 0 4.268-3.093h21.94c-.267.3-.519.577-.81.869m3.038-3.684h-20.87a58 58 0 0 0 1.655-1.592c.49-.49.988-.988 1.449-1.502l19.532-.008a25 25 0 0 1-1.774 3.094zm-10.33 8.74A24.6 24.6 0 0 1 94.8 125.06a24.6 24.6 0 0 1-10.217-2.198h20.43zm13.267-14.66h-18.222a58 58 0 0 0 2.365-3.096l16.662-.002a25 25 0 0 1-.819 3.096zm1.213-5.916l-15.197-.006a59 59 0 0 0 1.811-3.093h13.423c.018.357.024.728.032 1.091c.002.665-.03 1.338-.08 1.997zm-.244-5.922l.016.005h-11.706c.48-1.01.937-2.05 1.358-3.096h9.63q.45 1.523.702 3.09m-1.721-5.917h-7.57a58 58 0 0 0 .972-3.09h4.985a25 25 0 0 1 1.613 3.09m-3.637-5.909l.01-.005l-2.235.01l.271-1.33q.067-.33.13-.658q.965.943 1.824 1.983m-19.9 25.49a55.4 55.4 0 0 1-8.645 7.056a54.8 54.8 0 0 1-19.781 8.064a55.24 55.24 0 0 1-31.239-3.022a55 55 0 0 1-9.566-5.053A55.6 55.6 0 0 1 9.067 101.37a54.8 54.8 0 0 1-8.056-19.768A55.24 55.24 0 0 1 4.035 50.36a55 55 0 0 1 5.043-9.572a55.6 55.6 0 0 1 17.514-16.847A54.9 54.9 0 0 1 50.754 16.2a55.5 55.5 0 0 1 12.633.45a34.784 34.784 0 0 0 46.152 46.152c1.273 8.39.6 16.96-1.968 25.047a54.8 54.8 0 0 1-13.035 21.648z"/><path d="m105.672 60.038l18.09-18.089a31.1 31.1 0 0 1-18.09 18.09m-6.692 1.693c-1.9.26-3.818.345-5.732.254l32.462-32.462a31 31 0 0 1-.254 5.731zm-10.2-.29a31 31 0 0 1-4.311-1.164l39.53-39.531a31 31 0 0 1 1.166 4.311zm-7.826-2.64a31 31 0 0 1-3.464-2.012l43.019-43.02a31 31 0 0 1 2.01 3.468zm-6.311-4.166a32 32 0 0 1-2.786-2.69l43.81-43.811a32 32 0 0 1 2.691 2.786zM69.6 49.201a31 31 0 0 1-2.11-3.366l42.067-42.068a31 31 0 0 1 3.359 2.118zm-3.705-6.772a31 31 0 0 1-1.316-4.161L101.986.86c1.416.34 2.806.78 4.16 1.316zm-2.029-8.449a31 31 0 0 1-.042-5.435L92.271.098c1.81-.144 3.628-.13 5.435.043zm1.06-11.537a31.06 31.06 0 0 1 21.24-21.24zm130.258 74.201h8.416l-22.01-60.763h-9.199l-22.098 60.763h8.416l4.907-13.596h26.656zm-7.192-20.094h-22.098l11.045-30.863zm27.005 6.925c0 9.645 4.828 13.15 13.327 13.15h7.19v-6.742h-5.872c-4.907 0-6.663-1.666-6.663-6.4v-28.32h12.54v-6.577h-12.54V36.488H215v12.098h-6.229v6.577h6.225zM290.75 72.53a23.454 23.454 0 0 0-24.285-24.72a23.5 23.5 0 0 0-24.286 24.72c0 15.255 10.345 24.9 23.937 24.9a23.825 23.825 0 0 0 24.634-24.9m-40.42 0c0-12.098 7.629-17.799 16.045-17.799c8.24 0 16.222 5.7 16.222 17.799c0 12.187-8.154 17.884-16.48 17.884s-15.784-5.7-15.784-17.884zm120.297 24.113h7.891V68.309c0-13.764-8.506-20.6-19.476-20.6a17.79 17.79 0 0 0-16.978 10.709a18.08 18.08 0 0 0-17.642-10.709a17.37 17.37 0 0 0-15.169 7.802v-6.925h-7.978v48.047h7.978v-26.45c0-10.346 5.525-15.518 13.596-15.518c7.892 0 13.15 4.996 13.15 14.817v27.18h7.892v-26.48c0-10.345 5.525-15.517 13.596-15.517c7.892 0 13.15 4.996 13.15 14.817zm20.955 0h7.978V48.597h-7.978zm4.12-55.853a5.32 5.32 0 0 0 3.768-1.618a5.32 5.32 0 0 0 1.499-3.816a5.32 5.32 0 0 0-1.499-3.817a5.32 5.32 0 0 0-3.767-1.618a5.35 5.35 0 0 0-3.87 1.566a5.35 5.35 0 0 0-1.565 3.869a5.35 5.35 0 0 0 1.565 3.869a5.35 5.35 0 0 0 3.873 1.565zm14.47 31.74c0 15.255 9.738 24.9 23.409 24.9c10.352.694 19.707-6.147 22.184-16.222h-8.592a12.89 12.89 0 0 1-13.589 9.468c-8.768 0-15.255-6.225-15.255-18.15c0-11.75 6.487-17.978 15.255-17.978a13.11 13.11 0 0 1 13.589 9.468h8.592c-2.457-10.083-10.259-16.221-22.184-16.221c-13.679 0-23.41 9.644-23.41 24.72zm101.794 0a23.454 23.454 0 0 0-24.286-24.72a23.5 23.5 0 0 0-24.285 24.72c0 15.255 10.348 24.9 23.937 24.9a23.82 23.82 0 0 0 24.638-24.9zm-40.421 0c0-12.098 7.63-17.799 16.045-17.799c8.24 0 16.222 5.7 16.222 17.799c0 12.187-8.154 17.884-16.48 17.884s-15.784-5.697-15.784-17.884z"/></svg>