<svg xmlns="http://www.w3.org/2000/svg" xmlns:xlink="http://www.w3.org/1999/xlink" width="512" height="127" viewBox="0 0 512 127"><path d="M112.32 117.812a24.982 24.982 0 0 1-2.548 2.219l-22.85.005a59.283 59.283 0 0 0 4.268-3.093h21.94c-.267.3-.519.577-.81.869Zm3.038-3.684h-20.87a57.971 57.971 0 0 0 1.655-1.592c.49-.49.988-.988 1.449-1.502l19.532-.008a24.829 24.829 0 0 1-1.774 3.094l.008.008Zm-10.33 8.74A24.57 24.57 0 0 1 94.8 125.06a24.585 24.585 0 0 1-10.217-2.198h20.43l.016.005Zm13.267-14.66h-18.222a58.257 58.257 0 0 0 2.365-3.096l16.662-.002a24.66 24.66 0 0 1-.819 3.096l.014.002Zm1.213-5.916l-15.197-.006a58.984 58.984 0 0 0 1.811-3.093h13.423c.018.357.024.728.032 1.091c.002.665-.03 1.338-.08 1.997l.01.01Zm-.244-5.922l.016.005h-11.706c.48-1.01.937-2.05 1.358-3.096h9.63c.3 1.014.534 2.046.702 3.09Zm-1.721-5.917h-7.57a58.13 58.13 0 0 0 .972-3.09h4.985a24.7 24.7 0 0 1 1.613 3.09Zm-3.637-5.909l.01-.005l-2.235.01l.271-1.33c.045-.22.088-.44.13-.658c.643.628 1.252 1.29 1.824 1.983Zm-19.9 25.489a55.44 55.44 0 0 1-8.645 7.056a54.77 54.77 0 0 1-19.781 8.064a55.235 55.235 0 0 1-31.239-3.022a54.781 54.781 0 0 1-9.566-5.053A55.62 55.62 0 0 1 9.067 101.37a54.759 54.759 0 0 1-8.056-19.768A55.235 55.235 0 0 1 4.035 50.36a54.793 54.793 0 0 1 5.043-9.572a55.557 55.557 0 0 1 17.514-16.847A54.901 54.901 0 0 1 50.754 16.2a55.456 55.456 0 0 1 12.633.45a34.784 34.784 0 0 0 46.152 46.152c1.273 8.39.6 16.96-1.968 25.047a54.826 54.826 0 0 1-13.035 21.648l-.53.535Z"/><path d="m105.672 60.038l18.09-18.089a31.087 31.087 0 0 1-18.09 18.09Zm-6.692 1.693c-1.9.26-3.818.345-5.732.254l32.462-32.462a31.219 31.219 0 0 1-.254 5.731L98.98 61.731Zm-10.2-.29a31.001 31.001 0 0 1-4.311-1.164l39.53-39.531a30.964 30.964 0 0 1 1.166 4.311L88.78 61.442Zm-7.826-2.64a30.75 30.75 0 0 1-3.464-2.012l43.019-43.02a30.784 30.784 0 0 1 2.01 3.468L80.954 58.8Zm-6.311-4.166a31.796 31.796 0 0 1-2.786-2.69l43.81-43.811a31.47 31.47 0 0 1 2.691 2.786L74.643 54.635ZM69.6 49.201a30.822 30.822 0 0 1-2.11-3.366l42.067-42.068a30.86 30.86 0 0 1 3.359 2.118L69.6 49.201Zm-3.705-6.772a30.934 30.934 0 0 1-1.316-4.161L101.986.86c1.416.34 2.806.78 4.16 1.316L65.895 42.43Zm-2.029-8.449a31.192 31.192 0 0 1-.042-5.435L92.271.098c1.81-.144 3.628-.13 5.435.043l-33.84 33.84Zm1.06-11.537a31.058 31.058 0 0 1 21.24-21.24l-21.24 21.24Zm130.258 74.201h8.416l-22.01-60.763h-9.199l-22.098 60.763h8.416l4.907-13.596h26.656l4.91 13.596Zm-7.192-20.094h-22.098l11.045-30.863l11.053 30.863Zm27.005 6.925c0 9.645 4.828 13.15 13.327 13.15h7.19v-6.742h-5.872c-4.907 0-6.663-1.666-6.663-6.4v-28.32h12.54v-6.577h-12.54V36.488H215v12.098h-6.229v6.577h6.225v28.312ZM290.75 72.53a23.454 23.454 0 0 0-24.285-24.72a23.5 23.5 0 0 0-24.286 24.72c0 15.255 10.345 24.9 23.937 24.9a23.825 23.825 0 0 0 24.634-24.9Zm-40.42 0c0-12.098 7.629-17.799 16.045-17.799c8.24 0 16.222 5.7 16.222 17.799c0 12.187-8.154 17.884-16.48 17.884c-8.327 0-15.784-5.7-15.784-17.884h-.004Zm120.297 24.113h7.891V68.309c0-13.764-8.506-20.6-19.476-20.6a17.787 17.787 0 0 0-16.978 10.709a18.08 18.08 0 0 0-17.642-10.709a17.372 17.372 0 0 0-15.169 7.802v-6.925h-7.978v48.047h7.978v-26.45c0-10.346 5.525-15.518 13.596-15.518c7.892 0 13.15 4.996 13.15 14.817v27.18h7.892v-26.48c0-10.345 5.525-15.517 13.596-15.517c7.892 0 13.15 4.996 13.15 14.817l-.01 27.162Zm20.955 0h7.978V48.597h-7.978v48.047Zm4.12-55.853a5.315 5.315 0 0 0 3.768-1.618a5.315 5.315 0 0 0 1.499-3.816a5.315 5.315 0 0 0-1.499-3.817a5.315 5.315 0 0 0-3.767-1.618a5.352 5.352 0 0 0-3.87 1.566a5.352 5.352 0 0 0-1.565 3.869a5.352 5.352 0 0 0 1.565 3.869a5.352 5.352 0 0 0 3.873 1.565h-.003Zm14.47 31.74c0 15.255 9.738 24.9 23.409 24.9c10.352.694 19.707-6.147 22.184-16.222h-8.592a12.888 12.888 0 0 1-13.589 9.468c-8.768 0-15.255-6.225-15.255-18.15c0-11.75 6.487-17.978 15.255-17.978a13.11 13.11 0 0 1 13.589 9.468h8.592c-2.457-10.083-10.259-16.221-22.184-16.221c-13.679 0-23.41 9.644-23.41 24.72v.015Zm101.794 0a23.454 23.454 0 0 0-24.286-24.72a23.5 23.5 0 0 0-24.285 24.72c0 15.255 10.348 24.9 23.937 24.9a23.821 23.821 0 0 0 24.638-24.9h-.004Zm-40.421 0c0-12.098 7.63-17.799 16.045-17.799c8.24 0 16.222 5.7 16.222 17.799c0 12.187-8.154 17.884-16.48 17.884s-15.784-5.697-15.784-17.884h-.003Z"/></svg>