<svg xmlns="http://www.w3.org/2000/svg" xmlns:xlink="http://www.w3.org/1999/xlink" width="256" height="249" viewBox="0 0 256 249"><defs><linearGradient id="logosAurelia0" x1="-388.148%" x2="237.684%" y1="-113.678%" y2="370.655%"><stop offset="0%" stop-color="#C06FBB"/><stop offset="100%" stop-color="#6E4D9B"/></linearGradient><linearGradient id="logosAurelia1" x1="72.945%" x2="-97.052%" y1="79.515%" y2="-119.502%"><stop offset="0%" stop-color="#6E4D9B"/><stop offset="14%" stop-color="#77327A"/><stop offset="29%" stop-color="#B31777"/><stop offset="84%" stop-color="#CD0F7E"/><stop offset="100%" stop-color="#ED2C89"/></linearGradient><linearGradient id="logosAurelia2" x1="-232.212%" x2="250.776%" y1="-693.6%" y2="101.71%"><stop offset="0%" stop-color="#C06FBB"/><stop offset="100%" stop-color="#6E4D9B"/></linearGradient><linearGradient id="logosAurelia3" x1="-821.186%" x2="101.985%" y1="-466.93%" y2="287.264%"><stop offset="0%" stop-color="#C06FBB"/><stop offset="100%" stop-color="#6E4D9B"/></linearGradient><linearGradient id="logosAurelia4" x1="-140.095%" x2="418.499%" y1="-230.926%" y2="261.977%"><stop offset="0%" stop-color="#C06FBB"/><stop offset="100%" stop-color="#6E4D9B"/></linearGradient><linearGradient id="logosAurelia5" x1="191.084%" x2="20.358%" y1="225.067%" y2="24.595%"><stop offset="0%" stop-color="#6E4D9B"/><stop offset="14%" stop-color="#77327A"/><stop offset="29%" stop-color="#B31777"/><stop offset="84%" stop-color="#CD0F7E"/><stop offset="100%" stop-color="#ED2C89"/></linearGradient><linearGradient id="logosAurelia6" x1="-388.094%" x2="237.675%" y1="-138.728%" y2="445.405%"><stop offset="0%" stop-color="#C06FBB"/><stop offset="100%" stop-color="#6E4D9B"/></linearGradient><linearGradient id="logosAurelia7" x1="11.503%" x2="89.819%" y1="89.653%" y2="11.577%"><stop offset="0%" stop-color="#6E4D9B"/><stop offset="14%" stop-color="#77327A"/><stop offset="53%" stop-color="#B31777"/><stop offset="79%" stop-color="#CD0F7E"/><stop offset="100%" stop-color="#ED2C89"/></linearGradient></defs><path fill="url(#logosAurelia0)" d="m167.876 46.369l-23.68 15.804L119.8 25.615L143.48 9.81l24.395 36.559Z"/><path fill="url(#logosAurelia1)" d="m187.129 156.2l40.46 60.63l-48.198 32.165l-40.46-60.632l-7.06-10.576l48.2-32.165l7.058 10.577Z"/><path fill="url(#logosAurelia2)" d="m126.422 196.71l8.908 13.349l-36.686 24.482l-15.967-23.926l8.015-5.348l28.672-19.134l7.058 10.577Z"/><path fill="url(#logosAurelia3)" d="m207.172 127.537l10.29-6.867l15.966 23.926l-23.683 15.805l-8.908-13.35l13.393-8.937l-7.058-10.577Zm-6.335 19.515l-7.058-10.577l13.393-8.938l7.058 10.577l-13.393 8.938Z"/><path fill="url(#logosAurelia4)" d="m41.11 130.967l-8.015 5.348L8.698 99.756l36.687-24.482l17.1 25.627l-28.671 19.134L62.486 100.9l7.296 10.933l-28.673 19.133Z"/><path fill="url(#logosAurelia5)" d="m130.489 71.322l-48.2 32.165l-7.295-10.933L34.912 32.49L83.112.326l40.081 60.063l7.296 10.933Z"/><path fill="url(#logosAurelia6)" d="m157.59 53.238l-13.393 8.937l-7.297-10.933l-17.1-25.626L143.483 9.81l24.397 36.56l-10.29 6.868Z"/><path fill="#714896" d="m97.75 215.844l-7.058-10.577l28.672-19.134l7.058 10.577l-28.672 19.134Z"/><path fill="#6F4795" d="m200.837 147.052l-7.058-10.577l13.393-8.938l7.058 10.577l-13.393 8.938Z"/><path fill="#88519F" d="m41.11 130.967l-7.296-10.932L62.485 100.9l7.297 10.933l-28.673 19.133Z"/><path fill="#85509E" d="M144.197 62.175L136.9 51.242l13.395-8.938l7.295 10.934l-13.393 8.937Z"/><path fill="#8D166A" d="m187.129 156.2l-48.199 32.163l-7.058-10.576l48.199-32.165l7.058 10.577Z"/><path fill="#A70D6F" d="m123.193 60.39l7.296 10.932l-48.2 32.165l-7.295-10.933l48.2-32.165Z"/><path fill="#9E61AD" d="m27.439 51.653l9.097 13.633l-13.633 9.097l-9.097-13.633l13.633-9.097Z"/><path fill="#8053A3" d="m76.568 215.084l9.097 13.633l-13.632 9.097l-9.098-13.632l13.633-9.098Z"/><path fill="url(#logosAurelia7)" d="M40.704 228.814L.792 168.518L214.089 25.856l41.852 59.333L40.704 228.814Z"/></svg>