<svg xmlns="http://www.w3.org/2000/svg" xmlns:xlink="http://www.w3.org/1999/xlink" width="512" height="280" viewBox="0 0 512 280"><path fill="#4B4B77" d="M116.548 6.281c6.218 3.87 10.595 8.629 13.197 14.148c3.87 8.883 8.184 18.526 12.879 28.995c4.695 10.468 9.453 21.063 14.148 31.785c4.695 10.723 9.263 21.191 13.577 31.342c4.315 10.151 8.248 19.478 11.674 27.916c3.426 8.438 6.154 15.607 8.185 21.508c2.03 5.9 3.045 9.834 3.045 11.674c0 3.172-.444 6.217-1.269 9.263c-.825 3.045-2.347 5.836-4.568 8.31c-2.22 2.475-5.33 4.505-9.263 5.965c-3.997 1.459-9.136 2.22-15.417 2.22c-6.662 0-12.054-.888-16.242-2.664c-4.187-1.777-7.613-3.998-10.405-6.79c-2.791-2.79-5.075-5.71-6.915-8.754a148.736 148.736 0 0 0-5.71-8.756c-1.967-2.791-4.188-5.012-6.662-6.788c-2.474-1.777-5.9-2.665-10.151-2.665H88.886c-5.202 0-9.263.888-12.372 2.665c-3.045 1.776-5.52 3.997-7.486 6.788c-1.967 2.792-3.743 5.71-5.393 8.756c-1.65 3.045-3.806 5.963-6.408 8.755c-2.601 2.791-5.964 5.012-10.15 6.789c-4.188 1.776-9.771 2.664-16.814 2.664c-10.341 0-17.955-2.284-22.777-6.915c-4.821-4.632-7.232-10.088-7.232-16.37c0-2.41.951-6.597 2.918-12.625c1.967-6.027 4.568-13.196 7.93-21.507c3.49-8.375 7.297-17.575 11.548-27.79c4.25-10.15 8.755-20.682 13.577-31.468c4.822-10.849 9.644-21.635 14.402-32.484c4.822-10.849 9.453-21.254 13.894-31.215c2.602-5.71 6.916-10.278 12.88-13.577C83.43 2.157 90.092.444 97.515.444c6.471 0 12.816 1.967 19.033 5.837Zm224.405.952c4.821 4.377 7.232 9.96 7.232 16.813c0 3.87-.951 8.945-2.918 15.29c-1.967 6.28-4.441 13.387-7.487 21.38c-3.045 7.931-6.598 16.56-10.531 25.823a3471.594 3471.594 0 0 0-12.055 28.296c-5.52 13.133-10.341 24.934-14.275 35.402c-3.997 10.469-8.058 19.351-12.181 26.647c-4.188 7.296-8.692 12.943-13.578 16.94c-4.885 3.997-10.976 5.964-18.145 5.964c-7.423 0-13.577-1.586-18.462-4.885c-4.886-3.236-9.327-8.121-13.324-14.72c-3.997-6.534-7.867-14.846-11.674-24.807c-3.806-9.96-8.247-21.825-13.45-35.529a1046.668 1046.668 0 0 0-11.928-30.39c-4.06-9.897-7.74-19.033-11.102-27.344c-3.3-8.312-6.028-15.798-8.185-22.333c-2.093-6.535-3.172-11.674-3.172-15.417c0-8.502 2.855-14.592 8.628-18.336c5.71-3.68 12.88-5.52 21.381-5.52c7.74 0 13.831.952 18.146 2.919c4.314 1.967 8.12 4.505 11.23 7.613c2.22 2.221 4.44 5.457 6.661 9.707c2.22 4.251 4.314 8.946 6.218 14.022c1.966 5.075 3.87 10.214 5.837 15.417c1.966 5.202 3.743 9.96 5.392 14.275c1.65 4.378 3.3 7.867 4.886 10.532c1.586 2.665 2.982 3.997 4.314 3.997c1.46 0 2.982-1.332 4.568-3.997c1.586-2.665 3.172-6.154 4.885-10.405c1.65-4.25 3.363-8.946 5.14-14.021a529.441 529.441 0 0 1 5.519-15.1a147.236 147.236 0 0 1 6.09-13.704c2.094-4.188 4.315-7.36 6.535-9.58c2.03-2.03 3.997-3.744 5.964-5.14a31.122 31.122 0 0 1 6.408-3.49c2.284-.95 4.949-1.585 7.93-2.093c2.983-.444 6.536-.698 10.85-.698c7.55 0 13.83 2.157 18.653 6.472Zm94.215-.952c6.218 3.87 10.596 8.629 13.197 14.148c3.87 8.883 8.184 18.526 12.88 28.995c4.694 10.468 9.452 21.063 14.147 31.785c4.695 10.723 9.263 21.191 13.578 31.342c4.314 10.151 8.247 19.478 11.673 27.916c3.426 8.438 6.155 15.607 8.185 21.508c2.03 5.9 3.045 9.834 3.045 11.674c0 3.172-.444 6.217-1.269 9.263c-.825 3.045-2.347 5.836-4.568 8.31c-2.22 2.475-5.33 4.505-9.263 5.965c-3.997 1.459-9.136 2.22-15.417 2.22c-6.662 0-12.054-.888-16.242-2.664c-4.187-1.777-7.613-3.998-10.405-6.79c-2.791-2.79-5.075-5.71-6.915-8.754a148.736 148.736 0 0 0-5.71-8.756c-1.967-2.791-4.188-5.012-6.662-6.788c-2.474-1.777-5.9-2.665-10.151-2.665h-17.765c-5.202 0-9.263.888-12.371 2.665c-3.046 1.776-5.52 3.997-7.487 6.788c-1.967 2.792-3.743 5.71-5.393 8.756c-1.65 3.045-3.806 5.963-6.408 8.755c-2.6 2.791-5.963 5.012-10.15 6.789c-4.188 1.776-9.771 2.664-16.814 2.664c-10.341 0-17.955-2.284-22.776-6.915c-4.822-4.632-7.233-10.088-7.233-16.37c0-2.41.952-6.597 2.918-12.625c1.967-6.027 4.568-13.196 7.93-21.507c3.3-8.312 7.107-17.575 11.358-27.726c4.25-10.151 8.755-20.683 13.577-31.468c4.822-10.85 9.643-21.635 14.402-32.484c4.822-10.85 9.453-21.254 13.894-31.215c2.601-5.71 6.916-10.278 12.88-13.577c6.027-3.3 12.687-5.012 20.11-5.012c6.662-.064 13.007 1.903 19.224 5.773Z"/><path fill="#E0C7C1" d="M96.88 279.538c1.523 0 2.982-.825 3.68-2.22c0-.064 6.027-11.167 11.991-24.3c2.982-6.598 6.027-13.64 8.311-20.175c1.142-3.3 2.094-6.408 2.792-9.263c.698-2.919 1.142-5.583 1.142-7.994c0-9.454-3.49-17.892-9.326-23.729c-4.886-4.885-11.484-7.867-18.653-7.867c-7.17 0-13.768 2.982-18.653 7.867c-5.773 5.774-9.326 14.212-9.326 23.729c0 2.474.444 5.139 1.142 7.994c1.205 5.075 3.299 10.849 5.646 16.813c7.17 17.828 17.448 36.861 17.448 36.988c.824 1.269 2.22 2.157 3.806 2.157Zm318.62 0c1.523 0 2.982-.825 3.68-2.22c0-.064 6.027-11.167 11.991-24.3c2.982-6.598 6.028-13.64 8.312-20.175c1.142-3.3 2.093-6.408 2.791-9.263c.698-2.919 1.142-5.583 1.142-7.994c0-9.454-3.49-17.892-9.326-23.729c-4.886-4.885-11.484-7.867-18.653-7.867c-7.17 0-13.768 2.982-18.653 7.867c-5.773 5.774-9.326 14.212-9.326 23.729c0 2.474.444 5.139 1.142 7.994c1.205 5.075 3.299 10.849 5.646 16.813c7.17 17.828 17.448 36.861 17.448 36.988c.824 1.269 2.22 2.157 3.806 2.157Z"/></svg>