<svg xmlns="http://www.w3.org/2000/svg" xmlns:xlink="http://www.w3.org/1999/xlink" width="256" height="256" viewBox="0 0 256 256"><defs><linearGradient id="logosAwsCertificateManager0" x1="0%" x2="100%" y1="100%" y2="0%"><stop offset="0%" stop-color="#BD0816"/><stop offset="100%" stop-color="#FF5252"/></linearGradient></defs><path fill="url(#logosAwsCertificateManager0)" d="M0 0h256v256H0z"/><path fill="#FFF" d="M114.22 125.7a3.2 3.2 0 0 1 .906 2.982l-3.28 15.068l14.48-8.876a3.184 3.184 0 0 1 3.35.003l14.375 8.854l-3.184-15.094a3.205 3.205 0 0 1 .893-2.947l12.925-12.653l-16.851-2.432a3.212 3.212 0 0 1-2.42-1.763l-7.443-15.239l-7.619 15.277a3.188 3.188 0 0 1-2.4 1.738l-16.803 2.454l13.072 12.627Zm-10.223 24.018l4.496-20.656l-16.474-15.913a3.202 3.202 0 0 1-.825-3.283a3.191 3.191 0 0 1 2.582-2.183l21.594-3.158l9.766-19.581c.54-1.088 1.565-1.837 2.877-1.773a3.208 3.208 0 0 1 2.86 1.795l9.55 19.546l21.58 3.12a3.19 3.19 0 0 1 2.583 2.173a3.192 3.192 0 0 1-.804 3.28l-16.29 15.949l4.36 20.672a3.202 3.202 0 0 1-4.809 3.388l-19.046-11.737l-19.2 11.77a3.196 3.196 0 0 1-3.526-.118a3.206 3.206 0 0 1-1.274-3.29ZM44.8 67.268h166.4V51.2H44.8v16.067ZM217.6 48v160c0 1.766-1.434 3.2-3.2 3.2h-19.2v-6.4h16V73.67H44.8V204.8h121.6v6.4H41.6a3.2 3.2 0 0 1-3.2-3.2V48a3.2 3.2 0 0 1 3.2-3.2h172.8c1.766 0 3.2 1.434 3.2 3.2ZM76.8 188.8H96v-6.4H76.8v6.4Zm32 0h44.8v-6.4h-44.8v6.4Zm-32-16H96v-6.4H76.8v6.4Zm32 0h70.4v-6.4h-70.4v6.4Z"/></svg>