<svg xmlns="http://www.w3.org/2000/svg" xmlns:xlink="http://www.w3.org/1999/xlink" width="256" height="256" viewBox="0 0 256 256"><defs><linearGradient id="logosAwsRoute530" x1="0%" x2="100%" y1="100%" y2="0%"><stop offset="0%" stop-color="#4D27A8"/><stop offset="100%" stop-color="#A166FF"/></linearGradient></defs><path fill="url(#logosAwsRoute530)" d="M0 0h256v256H0z"/><path fill="#FFF" d="M155.814 130.174c2.365 2.187 3.55 5.116 3.55 8.794c0 4.002-1.44 7.197-4.318 9.585c-2.88 2.391-6.748 3.585-11.603 3.585c-3.837 0-7.635-.82-11.392-2.452v-4.901c4.451 1.472 8.247 2.205 11.392 2.205c3.104 0 5.491-.694 7.165-2.08c1.674-1.39 2.509-3.371 2.509-5.942c0-4.942-3.12-7.414-9.37-7.414c-1.958 0-3.897.103-5.817.304v-4.04l12.864-14.03h-18.128v-5.023h24.924v4.84l-12.617 13.355c.208-.041.406-.06.614-.06h.611c4.045 0 7.248 1.091 9.616 3.274m-35.577-1.069c2.486 2.328 3.731 5.532 3.731 9.614c0 4.004-1.446 7.24-4.349 9.712c-2.899 2.471-6.713 3.707-11.45 3.707c-4.16 0-8.06-.82-11.695-2.452v-4.901c4.53 1.472 8.41 2.205 11.635 2.205c3.104 0 5.481-.7 7.133-2.112c1.654-1.409 2.483-3.438 2.483-6.095c0-2.9-.778-5.004-2.33-6.31s-4.083-1.962-7.593-1.962c-2.532 0-5.693.208-9.492.614v-4.043l1.165-18.317h22.352v5.022h-17.21l-.796 12.437c2.246-.406 4.265-.611 6.06-.611c4.41 0 7.863 1.162 10.356 3.492m46.025 44.904c-15.532 2.791-29.136 9.117-38.262 14.27c-9.13-5.153-22.733-11.479-38.262-14.27c-4.372-.784-26.157-5.333-26.157-17.927c0-5.836 2.09-9.706 6.102-16.618c4.794-8.265 10.759-18.554 10.759-33.366c0-10.586-2.775-20.738-8.253-30.21c.643-.794 1.299-1.597 1.958-2.407c8.115 4.056 16.563 6.11 25.152 6.11c10.496 0 20.141-2.755 28.701-8.194c8.557 5.439 18.202 8.195 28.698 8.195c8.588 0 17.04-2.055 25.155-6.111c.656.81 1.312 1.613 1.955 2.407c-5.478 9.472-8.253 19.624-8.253 30.21c0 14.812 5.965 25.1 10.768 33.38c4.003 6.898 6.093 10.768 6.093 16.604c0 12.594-21.786 17.143-26.154 17.927m15.693-67.911c0-10.106 2.851-19.793 8.467-28.792a3.19 3.19 0 0 0-.233-3.72a1523.588 1523.588 0 0 1-5.015-6.172a3.2 3.2 0 0 0-4.035-.79c-7.881 4.357-16.102 6.565-24.441 6.565c-10.061 0-18.852-2.705-26.877-8.265a3.203 3.203 0 0 0-3.645 0c-8.026 5.56-16.816 8.265-26.877 8.265c-8.339 0-16.56-2.208-24.441-6.565a3.201 3.201 0 0 0-4.036.79a1463.727 1463.727 0 0 1-5.014 6.172a3.194 3.194 0 0 0-.234 3.72c5.62 8.999 8.468 18.686 8.468 28.792c0 13.09-5.488 22.55-9.898 30.162c-4.32 7.433-6.963 12.37-6.963 19.822c0 17.245 24.051 22.908 31.424 24.23c15.552 2.795 29.133 9.386 37.785 14.422a3.192 3.192 0 0 0 3.22 0c8.652-5.036 22.23-11.627 37.782-14.422c7.373-1.322 31.424-6.985 31.424-24.23c0-7.452-2.643-12.389-6.963-19.832c-4.41-7.603-9.898-17.062-9.898-30.152m-12.374 86.404c-19.62 3.528-36.067 14.08-41.581 17.943c-5.517-3.864-21.965-14.415-41.584-17.943c-38.618-6.937-41.616-29.63-41.616-36.42c0-11.17 4.387-18.727 8.63-26.042c4.045-6.97 8.228-14.178 8.228-23.942c0-15.424-8.906-26.317-13.3-30.751c4.621-5.621 16.295-19.854 22.052-27.271C79.133 56.309 89.274 60.8 99.3 60.8c11.129 0 20.332-4.53 28.7-14.195c8.365 9.665 17.568 14.195 28.698 14.195c10.025 0 20.166-4.492 28.892-12.725c5.757 7.417 17.428 21.65 22.048 27.271c-4.393 4.434-13.299 15.327-13.299 30.751c0 9.764 4.186 16.973 8.227 23.942c4.247 7.315 8.634 14.873 8.634 26.042c0 6.79-3.002 29.483-41.62 36.42m38.522-65.673c-3.952-6.812-7.363-12.693-7.363-20.731c0-16.922 13.171-27.867 13.3-27.97a3.23 3.23 0 0 0 1.174-2.17a3.213 3.213 0 0 0-.717-2.359c-.214-.256-21.19-25.687-25.997-32.275a3.196 3.196 0 0 0-2.39-1.309a3.15 3.15 0 0 0-2.531 1.008c-8.064 8.625-17.607 13.375-26.88 13.375c-10.253 0-18.317-4.568-26.157-14.812c-1.213-1.581-3.869-1.581-5.082 0c-7.843 10.244-15.907 14.812-26.16 14.812c-9.273 0-18.816-4.75-26.88-13.375c-.653-.697-1.58-1.094-2.531-1.008a3.201 3.201 0 0 0-2.39 1.31C62.69 47.911 41.715 73.342 41.5 73.598a3.205 3.205 0 0 0-.71 2.356c.083.849.502 1.63 1.161 2.167c.134.11 13.306 11.054 13.306 27.976c0 8.038-3.412 13.919-7.364 20.731c-4.45 7.67-9.494 16.362-9.494 29.253c0 21.477 17.526 37.448 46.886 42.724c22.103 3.972 40.583 17.99 40.765 18.135a3.203 3.203 0 0 0 3.898-.004c.185-.14 18.601-14.15 40.761-18.131c29.36-5.276 46.89-21.247 46.89-42.724c0-12.891-5.046-21.583-9.498-29.253"/></svg>