<svg xmlns="http://www.w3.org/2000/svg" xmlns:xlink="http://www.w3.org/1999/xlink" width="256" height="256" viewBox="0 0 256 256"><defs><linearGradient id="logosAwsWaf0" x1="0%" x2="100%" y1="100%" y2="0%"><stop offset="0%" stop-color="#BD0816"/><stop offset="100%" stop-color="#FF5252"/></linearGradient></defs><path fill="url(#logosAwsWaf0)" d="M0 0h256v256H0z"/><path fill="#FFF" d="M46.066 131.2h-7.668v-6.4h7.677c.64-16.189 5.888-31.59 15.389-44.72l5.187 3.754C57.944 95.862 53.112 109.97 52.475 124.8h8.323v6.4h-8.332c.595 14.918 5.43 29.11 14.185 41.203l-5.187 3.754c-9.549-13.194-14.8-28.685-15.398-44.957Zm129.964 63.45c-13.158 9.526-28.601 14.774-44.832 15.395v7.555h-6.4v-7.555c-16.23-.621-31.68-5.869-44.838-15.395l3.75-5.184c12.064 8.732 26.215 13.564 41.088 14.179V195.2h6.4v8.445c14.874-.618 29.021-5.45 41.082-14.18l3.75 5.185ZM79.96 61.587c13.158-9.526 28.608-14.774 44.838-15.392V38.4h6.4v7.795c16.23.618 31.674 5.869 44.832 15.392l-3.75 5.184c-12.06-8.73-26.208-13.561-41.082-14.176V60.8h-6.4v-8.205c-14.873.611-29.024 5.447-41.088 14.176l-3.75-5.184ZM217.598 124.8v6.4h-7.673c-.595 16.272-5.85 31.763-15.395 44.957l-5.19-3.754c8.754-12.093 13.593-26.285 14.185-41.203h-8.327v-6.4h8.317c-.637-14.829-5.469-28.938-14.176-40.966l5.19-3.754c9.498 13.13 14.746 28.531 15.386 44.72h7.683Zm-41.69-49.12l25.089-25.088l4.525 4.525l-25.088 25.088l-4.525-4.525ZM80.083 180.557l-25.088 25.088l-4.525-4.525l25.088-25.088l4.525 4.525Zm7.123-88.823L39.717 44.246l4.525-4.524l47.49 47.488l-4.527 4.524Zm81.456 72.404l47.613 47.616l-4.525 4.524l-47.616-47.612l4.528-4.528Zm-67.338-33.786c.24-.426.5-.854.771-1.283c5.38-8.451 3.837-19.984 2.128-26.95c4.612 3.03 8.768 9.292 10.186 11.923c.605 1.113 1.78 1.788 3.069 1.673a3.203 3.203 0 0 0 2.771-2.125c4.765-13.536 2.342-23.712-1.018-30.307c4.074 2.371 7.23 5.783 9.319 10.131c4.531 9.415 3.523 22.301-2.637 33.626c-8.413 15.475-6.726 31.7-4.813 40.429c-4.803-2.07-9.078-4.41-12.768-6.983c-9.686-6.752-12.768-19.984-7.008-30.134Zm42.976-1.078a3.205 3.205 0 0 0 1.552 3.276a3.207 3.207 0 0 0 3.616-.275c.26-.208 5.507-4.54 8.048-15.02c3.063 4.454 6.266 13.443 2.003 29.955c-4.217 16.336-24.224 20.93-31.363 22.06c-1.725-6.185-5.222-23.353 3.383-39.174c6.105-11.232 7.724-23.933 4.665-34.413c5.792 6.803 10.679 17.51 8.096 33.59ZM95.75 127.2c-7.367 12.992-3.45 29.917 8.921 38.538c5.6 3.904 12.384 7.292 20.16 10.073a3.17 3.17 0 0 0 1.079.189c.067 0 .125-.035.189-.038l.003.028c1.36-.105 33.34-2.883 39.613-27.18c8.07-31.252-8.093-40.522-8.784-40.903a3.198 3.198 0 0 0-4.72 2.477a41.257 41.257 0 0 1-1.012 5.782c-2.214-24.537-21.667-34.521-25.6-36.297c-4.032-3.088-8.934-5.21-14.617-6.218a3.18 3.18 0 0 0-3.45 1.799a3.207 3.207 0 0 0 .842 3.808c.48.406 10.451 9.052 7.606 25.507c-3.715-4.874-9.629-10.749-16.585-10.749a3.205 3.205 0 0 0-2.986 4.355c.07.173 6.592 17.36.285 27.264a39.87 39.87 0 0 0-.944 1.565Z"/></svg>