<svg xmlns="http://www.w3.org/2000/svg" xmlns:xlink="http://www.w3.org/1999/xlink" width="256" height="256" viewBox="0 0 256 256"><defs><linearGradient id="logosAwsCodestar0" x1="0%" x2="100%" y1="100%" y2="0%"><stop offset="0%" stop-color="#2E27AD"/><stop offset="100%" stop-color="#527FFF"/></linearGradient></defs><path fill="url(#logosAwsCodestar0)" d="M0 0h256v256H0z"/><path fill="#FFF" d="M201.44 111.38c6.302-3.632 8.472-11.705 4.832-17.994a13.121 13.121 0 0 0-8.017-6.14a13.256 13.256 0 0 0-3.437-.453c-2.287 0-4.546.597-6.58 1.771a13.096 13.096 0 0 0-6.156 8a13.058 13.058 0 0 0 1.32 9.994c3.64 6.288 11.738 8.457 18.037 4.822Zm8.192 13.472l3.182 5.499l-15.457 8.901l-3.853-19.85c-6.274-.438-12.236-3.838-15.612-9.67c-2.615-4.514-3.306-9.778-1.957-14.816a19.41 19.41 0 0 1 9.122-11.85a19.456 19.456 0 0 1 14.846-1.952a19.423 19.423 0 0 1 11.88 9.098c5.393 9.32 2.183 21.285-7.162 26.666a19.504 19.504 0 0 1-4.747 1.959l2.03 10.463l7.728-4.448Zm-22.24 38.457a13.126 13.126 0 0 0-10.015-1.318a13.113 13.113 0 0 0-8.018 6.14c-2.488 4.298-2.208 9.403.197 13.384l2.736 3.146l-.063.057c.604.514 1.25 1 1.963 1.41v-.004a13.128 13.128 0 0 0 10.016 1.318a13.121 13.121 0 0 0 8.017-6.14c3.64-6.289 1.47-14.361-4.833-17.993Zm10.344 21.168a19.431 19.431 0 0 1-11.88 9.098a19.477 19.477 0 0 1-14.846-1.95v-.002a19.259 19.259 0 0 1-3.63-2.718l-4.569 3.953l7.725 4.444l-3.182 5.501l-15.466-8.904l11.636-10.06c-3.036-5.74-3.163-12.86.324-18.883c2.612-4.517 6.831-7.745 11.88-9.095a19.446 19.446 0 0 1 14.846 1.95a19.386 19.386 0 0 1 9.116 11.853a19.357 19.357 0 0 1-1.954 14.813Zm-69.287 13.6c0-7.267-5.927-13.178-13.207-13.178c-7.28 0-13.203 5.911-13.203 13.178c0 7.263 5.924 13.174 13.203 13.174c7.28 0 13.207-5.911 13.207-13.174Zm6.364 0c0 10.764-8.779 19.523-19.57 19.523c-10.79 0-19.568-8.759-19.568-19.523c0-1.515.188-2.981.519-4.397l-8.202-2.835v9.565h-6.364v-18.482l17.003 5.879c3.455-5.546 9.599-9.257 16.611-9.257c10.792 0 19.57 8.758 19.57 19.527ZM72.83 147.109a13.115 13.115 0 0 0-8.015-6.14a13.15 13.15 0 0 0-10.019 1.318a13.086 13.086 0 0 0-6.15 8a13.03 13.03 0 0 0 1.32 9.993a13.106 13.106 0 0 0 8.015 6.14c3.398.911 6.959.448 10.02-1.317c6.302-3.632 8.472-11.705 4.829-17.994Zm-1.648 23.492a19.459 19.459 0 0 1-9.752 2.625a19.68 19.68 0 0 1-5.094-.673a19.43 19.43 0 0 1-11.883-9.098a19.343 19.343 0 0 1-1.954-14.813a19.386 19.386 0 0 1 9.116-11.853v-.003a19.983 19.983 0 0 1 2.838-1.324l-1.973-10.15l-7.693 4.442l-3.188-5.495l15.428-8.908l3.655 18.831a19.69 19.69 0 0 1 5.778.654a19.438 19.438 0 0 1 11.884 9.099c5.393 9.32 2.18 21.285-7.162 26.666Zm6.182-98.389a13.142 13.142 0 0 0-6.577-1.762c-4.568 0-9.016 2.362-11.46 6.584a13.064 13.064 0 0 0-1.32 9.997a13.098 13.098 0 0 0 6.156 7.997a13.106 13.106 0 0 0 10.016 1.317a13.102 13.102 0 0 0 8.015-6.136c3.643-6.292 1.473-14.365-4.83-17.997Zm10.2 1.432c3.49 5.876 3.802 13.412.143 19.74a19.438 19.438 0 0 1-11.88 9.094a19.51 19.51 0 0 1-14.846-1.95a19.418 19.418 0 0 1-9.121-11.853a19.354 19.354 0 0 1 1.957-14.815c5.396-9.324 17.387-12.53 26.729-7.146c1.056.61 2.02 1.31 2.917 2.073l8.12-7.035l-7.703-4.448l3.188-5.498l15.412 8.905l-14.916 12.933Zm64.295-15.717c0-7.264-5.924-13.178-13.207-13.178c-7.28 0-13.207 5.914-13.207 13.178c0 7.266 5.927 13.174 13.207 13.174c7.283 0 13.207-5.908 13.207-13.174Zm20.407 14.71l-16.312-5.612c-3.287 6.193-9.806 10.425-17.302 10.425c-10.792 0-19.57-8.758-19.57-19.523S127.86 38.4 138.653 38.4c10.789 0 19.57 8.762 19.57 19.527a19.2 19.2 0 0 1-.267 3.07l7.948 2.736V55.59h6.363v17.047Zm-31.454 31.765l-5.829-2.55l-22.417 50.946l5.828 2.552l22.418-50.948Zm24.19 24.304l-18.37-17.9l-4.442 4.542l13.054 12.723l-14.597 10.93l3.82 5.076l20.535-15.37Zm-57.947 12.946l-18.368-17.898l20.535-15.374l3.82 5.079l-14.6 10.927l13.055 12.723l-4.442 4.543Z"/></svg>