<svg xmlns="http://www.w3.org/2000/svg" xmlns:xlink="http://www.w3.org/1999/xlink" width="256" height="256" viewBox="0 0 256 256"><defs><linearGradient id="logosAwsCloudsearch0" x1="0%" x2="100%" y1="100%" y2="0%"><stop offset="0%" stop-color="#4D27A8"/><stop offset="100%" stop-color="#A166FF"/></linearGradient></defs><path fill="url(#logosAwsCloudsearch0)" d="M0 0h256v256H0z"/><path fill="#FFF" d="M149.47 85.906v6.426c-2.797 0-5.451 1.018-7.476 2.869a3.237 3.237 0 0 1-2.903.755a3.203 3.203 0 0 1-2.262-1.963c-3.921-10.08-14.087-16.853-25.298-16.853c-7.733 0-15.103 3.191-20.22 8.756c-4.393 4.765-6.81 10.863-6.81 17.174c0 1.404-.91 2.68-2.25 3.1c-6.685 2.099-11.664 7.487-13.03 14.077c-.006.051-.013.1-.022.144a19.163 19.163 0 0 0-.335 3.506c0 10.298 8.74 18.677 19.478 18.677h50.881V149H88.342c-14.284 0-25.906-11.261-25.906-25.103c0-1.488.135-2.969.415-4.52c.01-.081.022-.155.038-.23c1.627-8.228 7.39-15.072 15.267-18.32c.52-7.136 3.465-13.9 8.427-19.281c6.326-6.883 15.422-10.832 24.948-10.832c12.442 0 23.864 6.806 29.582 17.287a17.586 17.586 0 0 1 8.357-2.095m70.5 134.061c-5.348 5.347-14.055 5.344-19.403.003l-43.798-43.765a82.645 82.645 0 0 0 18.96-20.052l44.257 44.44c5.329 5.346 5.32 14.037-.016 19.374M32.028 110.733c0-41.635 33.883-75.507 75.53-75.507c41.648 0 75.53 33.872 75.53 75.507c0 41.635-33.882 75.507-75.53 75.507c-41.647 0-75.53-33.872-75.53-75.507m192.516 85.326l-45.367-45.552a81.4 81.4 0 0 0 10.34-39.774c0-45.176-36.766-81.933-81.959-81.933c-45.192 0-81.958 36.757-81.958 81.933c0 45.179 36.766 81.933 81.958 81.933c16.116 0 31.141-4.691 43.83-12.756l44.634 44.607c3.928 3.923 9.086 5.883 14.245 5.883c5.158 0 10.32-1.963 14.248-5.89c7.836-7.836 7.848-20.598.029-28.451M107.558 166.96c-31.012 0-56.246-25.225-56.246-56.228s25.234-56.229 56.246-56.229c31.013 0 56.246 25.226 56.246 56.229s-25.233 56.228-56.246 56.228m0-118.883c-34.557 0-62.674 28.108-62.674 62.655s28.117 62.655 62.674 62.655c34.558 0 62.674-28.108 62.674-62.655s-28.116-62.655-62.674-62.655"/></svg>