<svg xmlns="http://www.w3.org/2000/svg" xmlns:xlink="http://www.w3.org/1999/xlink" width="512" height="92" viewBox="0 0 512 92"><path fill="#002A41" d="M103.96 22.425h13.364c6.02 0 10.44 1.022 13.262 3.066c2.822 2.044 4.232 5.132 4.232 9.264c0 2.821-.86 5.17-2.582 7.048c-1.722 1.877-4.238 3.082-7.548 3.615v.2c3.888.578 6.748 1.805 8.58 3.683c1.834 1.877 2.75 4.493 2.75 7.847c0 4.488-1.488 7.942-4.465 10.364c-2.977 2.421-7.198 3.632-12.663 3.632h-14.93V22.425Zm3.4 21.694h10.73c4.576 0 7.903-.761 9.98-2.283c2.077-1.522 3.116-3.904 3.116-7.148c0-3.243-1.172-5.598-3.516-7.064c-2.343-1.467-5.837-2.2-10.48-2.2h-9.83V44.12Zm0 2.999v21.027h11.463c9.02 0 13.53-3.666 13.53-10.997c0-6.687-4.755-10.03-14.263-10.03h-10.73Zm62.848 6.832h-19.794l-6.798 17.194h-3.766l19.594-48.919h2.166l19.195 48.92h-3.833l-6.764-17.196Zm-18.561-3.067h17.428l-6.632-17.561c-.555-1.377-1.221-3.288-1.999-5.732c-.6 2.133-1.255 4.066-1.966 5.799l-6.831 17.494Zm56.816-26.092c-6.11 0-10.919 1.955-14.429 5.865s-5.265 9.264-5.265 16.062c0 6.953 1.655 12.352 4.965 16.195c3.31 3.843 8.042 5.765 14.196 5.765c4.088 0 7.842-.522 11.263-1.566v2.999c-3.221 1.133-7.242 1.7-12.063 1.7c-6.842 0-12.23-2.21-16.162-6.632c-3.932-4.42-5.898-10.597-5.898-18.528c0-4.954.939-9.32 2.816-13.096c1.877-3.776 4.576-6.692 8.097-8.747c3.522-2.055 7.615-3.083 12.28-3.083c4.754 0 9.009.89 12.763 2.666l-1.366 3.066c-3.555-1.777-7.287-2.666-11.197-2.666Zm54.351 46.353h-4.166l-18.694-25.726l-6.498 5.732v19.994h-3.4V22.425h3.4v25.326l5.398-5.398l19.094-19.928h4.332L242.32 43.02l20.494 28.125Zm6.964-48.719h13.363c6.02 0 10.441 1.022 13.263 3.066c2.821 2.044 4.232 5.132 4.232 9.264c0 2.821-.861 5.17-2.583 7.048c-1.722 1.877-4.237 3.082-7.548 3.615v.2c3.888.578 6.748 1.805 8.581 3.683c1.833 1.877 2.75 4.493 2.75 7.847c0 4.488-1.49 7.942-4.466 10.364c-2.977 2.421-7.198 3.632-12.663 3.632h-14.929V22.425Zm3.4 21.694h10.73c4.576 0 7.903-.761 9.98-2.283c2.077-1.522 3.115-3.904 3.115-7.148c0-3.243-1.171-5.598-3.515-7.064c-2.344-1.467-5.837-2.2-10.48-2.2h-9.83V44.12Zm0 2.999v21.027h11.462c9.02 0 13.53-3.666 13.53-10.997c0-6.687-4.754-10.03-14.263-10.03h-10.73Zm80.342-.4c0 7.731-1.933 13.846-5.798 18.345c-3.866 4.498-9.198 6.748-15.996 6.748c-6.775 0-12.096-2.25-15.961-6.748c-3.866-4.5-5.799-10.636-5.799-18.412c0-7.753 1.95-13.857 5.849-18.31c3.898-4.455 9.225-6.682 15.978-6.682c6.798 0 12.119 2.238 15.962 6.714c3.843 4.477 5.765 10.592 5.765 18.345Zm-39.855 0c0 6.976 1.555 12.369 4.665 16.179c3.11 3.81 7.576 5.714 13.396 5.714c5.865 0 10.347-1.888 13.446-5.665c3.1-3.776 4.65-9.186 4.65-16.228c0-7.02-1.55-12.402-4.65-16.145c-3.099-3.744-7.558-5.615-13.379-5.615c-5.798 0-10.27 1.888-13.413 5.665c-3.143 3.776-4.715 9.142-4.715 16.095Zm86.441 24.426h-3.432L367.816 27.89h-.267c.267 5.154.4 9.042.4 11.663v31.591h-3.266V22.425h3.4l28.824 43.187h.2c-.2-3.998-.3-7.797-.3-11.396v-31.79h3.3v48.718Zm40.388 0H413.87V22.425h26.625v3.133h-23.226v18.427h21.927v3.133h-21.927v20.894h23.226v3.132Zm9.597-2.599c0-2.177.889-3.266 2.666-3.266c1.822 0 2.733 1.089 2.733 3.266s-.911 3.266-2.733 3.266c-1.777 0-2.666-1.09-2.666-3.266Zm9.764 14.895c-2.044 0-3.721-.3-5.032-.9v-2.932c1.733.444 3.388.667 4.965.667c5.377 0 8.065-2.933 8.065-8.798V22.425h3.399v48.72c0 8.197-3.8 12.295-11.397 12.295Zm51.818-24.859c0 4.066-1.494 7.287-4.482 9.664c-2.988 2.377-6.96 3.566-11.913 3.566c-5.954 0-10.52-.656-13.696-1.967v-3.399c3.51 1.489 7.986 2.233 13.43 2.233c3.998 0 7.17-.916 9.513-2.749c2.344-1.833 3.516-4.238 3.516-7.215c0-1.843-.39-3.37-1.167-4.582c-.777-1.21-2.043-2.316-3.798-3.315c-1.756-1-4.333-2.077-7.731-3.233c-4.977-1.71-8.415-3.56-10.314-5.548c-1.9-1.988-2.85-4.637-2.85-7.948c0-3.643 1.428-6.614 4.283-8.914c2.855-2.299 6.526-3.449 11.013-3.449c4.577 0 8.875.867 12.896 2.6l-1.233 2.932c-4.043-1.688-7.908-2.532-11.596-2.533c-3.6 0-6.465.834-8.598 2.5c-2.132 1.666-3.199 3.932-3.199 6.798c0 1.8.328 3.277.983 4.432c.656 1.155 1.728 2.194 3.216 3.115c1.489.923 4.043 2.028 7.665 3.316c3.798 1.31 6.653 2.583 8.564 3.816c1.91 1.233 3.304 2.632 4.182 4.198c.877 1.567 1.316 3.46 1.316 5.682ZM.292.535V49.85L37 70.775V56.55L12.443 42.553V20.566l24.556 13.998V21.46L.292.535Z"/><path fill="#0071B5" d="M73.706.535V49.85L36.999 70.775V56.55l24.556-13.998V20.566L37 34.564V21.46L73.706.535Z"/><path fill="#0071B5" d="M.292 91.72V42.407L37 21.48v14.224L12.443 49.703V70.57l24.556-13.998v14.223L.292 91.721Z"/><path fill="#002A41" d="M73.706 91.72V42.407L36.999 21.48v14.224l24.556 13.998V70.57L37 56.573v14.223l36.707 20.925Z"/></svg>