<svg xmlns="http://www.w3.org/2000/svg" xmlns:xlink="http://www.w3.org/1999/xlink" width="256" height="174" viewBox="0 0 256 174"><path d="M233.19 173.953h-91.977c-9.996 0-18.4-6.46-21.5-15.402c-.207-.57-.38-1.15-.539-1.736c.02.07.035.131.035.131c-.002 0-.013-.048-.048-.175l-.039-.15c.002 0 .018.063.037.13c-.882-3.445-1.011-6.884-.287-10.376c.855-4.513 2.864-9.163 6.093-13.696l48.955-68.857l-26.245-36.75c-2.47-3.468-5.422-5.379-8.314-5.379c-2.89 0-5.844 1.911-8.313 5.38L26.642 173.953H0l.098-.172L113.338 14.47C119.631 5.636 128.598.426 138.1 0h2.521c9.504.426 18.469 5.634 24.758 14.462l21.823 30.625L219.304 0h26.644c-.333 1.03-45.415 63.822-45.415 63.822l48.905 68.857c3.229 4.533 5.238 9.183 6.093 13.696c.724 3.492.595 6.93-.287 10.377c.02-.068.035-.131.037-.131l-.039.15c-.035.127-.046.175-.046.175c-.002 0 .015-.062.033-.13a21.022 21.022 0 0 1-.54 1.735c-3.1 8.941-11.503 15.402-21.499 15.402m-4.942-22.017l.042.01a4.341 4.341 0 0 0 3.6-6.77c-.06-.088-44.217-61.972-44.688-62.635c-.472.663-44.63 62.547-44.69 62.636a4.341 4.341 0 0 0 3.6 6.769l.043-.01l.04.01h82.012l.04-.01" fill="#32DAC4"/></svg>