<svg xmlns="http://www.w3.org/2000/svg" xmlns:xlink="http://www.w3.org/1999/xlink" width="256" height="222" viewBox="0 0 256 222"><path fill="#FFF" d="M181.243 159.987c-20.79-2.459-31.18-15.497-33.056-18.087c-4.126-5.696-8.794-15.872-12.795-25.069c-1.208-2.778-5.508-3.292-7.085-3.382l-.59-.014c-.736.007-6.28.146-7.696 3.396c-4.008 9.19-8.662 19.359-12.795 25.069c-1.875 2.59-12.273 15.635-33.056 18.087c-3.619.438-7.446.646-11.412.646c-8.676 0-17.254-1.014-24.173-2.75l7.085 28.603l58.93 24.284l21.915 2.646l21.762-2.646l58.93-24.284l6.933-27.985c-6.397 1.34-13.913 2.132-21.505 2.132c-3.945 0-7.787-.208-11.392-.646Zm-27.971 36.953H99.335v-5.696h24.117v-12.058a140.211 140.211 0 0 1-5.063-.875c-2.334-.445-4.654-.931-6.94-1.57c-2.063-.563-4.23-1.195-6.084-2.3c-3.355-2.02-5.89-5.917-3.835-9.758c.98-1.82 2.723-3.508 4.668-4.251c2.202-.848 4.737-.959 7.078-1.042c-1.326.048.896 0 .236-.007h-.118h.118c2.438 0 4.856.062 7.3.222c2.175.146 4.404.632 6.565.382c4.71-.535 9.544-.854 14.28-.444c2.133.187 4.488.444 6.273 1.736c1.66 1.209 3.147 2.841 3.675 4.87c1.034 3.965-2.327 7.418-5.655 8.946c-4.167 1.917-8.974 2.743-13.461 3.528c-1.111.195-2.23.382-3.348.563v12.058h24.13v5.696Zm71.856-102.294c-2.945-.903-6.814-1.598-12.03-2.008c-6.224-.472-14.371-.52-25.2.014c0 0-17.053 1.493-27.048 4.953c-5.425 1.882-12.184 4.779-13.774 9.794c-1.59 5.015-.348 16.066 2.16 21.977c2.507 5.925 9.009 13.836 14.475 17.532c5.057 3.431 14.775 7.661 28.125 7.578c8.238-.049 16.92-.84 24.124-3.272c3.077-1.035 5.897-2.368 8.28-4.077c2.312-1.653 4.174-3.619 5.681-5.73c3.696-5.182 5.251-11.343 5.98-16.595c1.022-7.397 2.175-20.046-2.166-24.943c-1.765-1.993-4.126-3.841-8.607-5.223ZM91.716 146.915c5.46-3.696 11.96-11.614 14.454-17.532c2.515-5.918 3.765-16.962 2.168-21.978c-1.591-5.015-8.343-7.918-13.774-9.793c-9.989-3.46-27.048-4.953-27.048-4.953c-12.364-.618-21.255-.458-27.757.215c-5.522.584-9.342 1.55-12.1 2.751c-2.848 1.222-4.591 2.695-5.973 4.258c-4.335 4.897-3.196 17.539-2.175 24.943c.57 4.084 1.64 8.717 3.82 13.01c1.772 3.487 4.287 6.766 7.864 9.315c1.632 1.174 3.494 2.167 5.473 3.021c7.683 3.258 17.58 4.272 26.923 4.328c13.337.07 23.061-4.154 28.125-7.585ZM47.504 84.15c10.502.083 21.074.82 31.618 2.23c5.87.785 11.718 1.764 17.532 2.952c4.738 1.02 8.53 1.966 11.878 2.8c7.405 1.854 12.295 3.062 19.199 3.076c6.883-.014 11.76-1.236 19.157-3.077c3.348-.833 7.14-1.778 11.85-2.792c5.168-1.063 10.35-1.931 15.552-2.674c10.343-1.466 20.72-2.307 31.042-2.48c1.431-.028 2.876-.056 4.314-.056c.785 0 1.57.007 2.34.014l-.569-4.286l-.278-.868l-13.177-39.446l-32.952-6.453l-38.48-7.516v-.014h-.029s-.013 0-.048.007c-.035-.007-.056-.007-.056-.007h-.027v.021c-1.445.16-20.491 3.89-38.558 7.453c-16.865 3.32-32.876 6.516-32.876 6.516L41.76 78.996l-.292.868l-.563 4.328a222 222 0 0 1 4.87-.056c.576-.007 1.153.014 1.729.014Z"/><path fill="#454545" d="M252.92 88.512c-.132-.041-10.774-2.848-28.806-3.938l-1.007-9.697l-2.146-6.432l12.801-13.718c11.628-12.462 10.947-31.98-1.514-43.6l-2.438-2.279c-12.454-11.62-31.98-10.94-43.6 1.514l-11.03 11.822l-48.65-10.176v-.013h-.035s-.021 0-.056.006c-.042-.006-.063-.006-.063-.006h-.027v.02c-1.785.202-26.895 5.48-48.734 10.1l-10.96-11.746C55.046-2.092 35.521-2.766 23.067 8.855l-2.438 2.278c-12.454 11.628-13.135 31.14-1.514 43.6l12.808 13.719l-2.153 6.432l-1.014 9.857c-16.483 1.201-26.152 3.737-26.263 3.778C.792 89 .09 90.721.153 92.221l2.035 14.573l.875.466c2.8 1.486 3.515 3.73 7.314 17.01l.674 2.341c4.14 14.413 7.6 20.734 14.441 25.645l11.649 40.17l64.466 26.352l24.93 2.529l24.748-2.529l67.03-26.353l9.175-38.564c.104-.063.215-.125.32-.188c8.3-5.168 12.016-11.239 16.552-27.062l.68-2.375c3.793-13.253 4.502-15.49 7.308-16.976l.875-.466l2.015-14.378l.014-.188c.055-1.507-.64-3.23-2.334-3.716ZM41.46 79.857l.292-.868l13.176-39.446s16.018-3.196 32.876-6.516c18.067-3.57 37.113-7.293 38.558-7.453v-.014h.027s.021 0 .056.007c.035-.007.049-.007.049-.007h.027v.021l38.481 7.516l32.953 6.453l13.176 39.446l.278.868l.57 4.286c-.771-.007-1.556-.014-2.341-.014c-1.438 0-2.883.028-4.314.056c-10.315.173-20.692 1.014-31.042 2.48c-5.202.736-10.384 1.604-15.552 2.674c-4.71 1.014-8.502 1.959-11.85 2.792c-7.39 1.848-12.273 3.063-19.157 3.077c-6.904-.014-11.787-1.23-19.199-3.077c-3.348-.833-7.14-1.778-11.878-2.8a260.74 260.74 0 0 0-17.531-2.951a252.542 252.542 0 0 0-31.619-2.23c-.576 0-1.153-.02-1.736-.02c-1.66 0-3.293.02-4.87.055l.57-4.335Zm-4.8 70.301c-1.98-.854-3.84-1.847-5.473-3.021c-3.577-2.55-6.092-5.828-7.863-9.315c-2.174-4.292-3.25-8.925-3.82-13.01c-1.022-7.397-2.168-20.046 2.174-24.943c1.382-1.57 3.125-3.042 5.973-4.258c2.758-1.202 6.578-2.167 12.1-2.75c6.509-.681 15.393-.834 27.757-.216c0 0 17.052 1.494 27.048 4.953c5.431 1.882 12.19 4.779 13.774 9.794c1.597 5.015.354 16.066-2.168 21.977c-2.493 5.925-8.995 13.836-14.454 17.532c-5.064 3.431-14.788 7.661-28.132 7.578c-9.328-.042-19.226-1.063-26.916-4.32Zm170.554 36.335l-58.93 24.284l-21.763 2.646l-21.914-2.646l-58.93-24.284l-7.086-28.604c6.919 1.73 15.497 2.751 24.173 2.751c3.959 0 7.793-.208 11.412-.646c20.782-2.459 31.18-15.497 33.056-18.087c4.133-5.71 8.787-15.88 12.795-25.069c1.417-3.25 6.96-3.39 7.696-3.396l.59.014c1.577.097 5.877.604 7.085 3.382c4.001 9.197 8.67 19.373 12.795 25.069c1.875 2.59 12.267 15.635 33.056 18.087c3.612.438 7.446.646 11.406.646c7.592 0 15.107-.785 21.505-2.132l-6.946 27.985Zm28.687-61.674c-.73 5.251-2.285 11.413-5.98 16.594c-1.515 2.119-3.37 4.078-5.683 5.73c-2.389 1.71-5.202 3.043-8.28 4.078c-7.202 2.431-15.885 3.223-24.123 3.272c-13.35.083-23.068-4.147-28.125-7.578c-5.466-3.696-11.968-11.614-14.475-17.532c-2.5-5.918-3.75-16.962-2.16-21.978c1.59-5.015 8.349-7.918 13.774-9.793c9.988-3.46 27.048-4.953 27.048-4.953c10.829-.535 18.97-.486 25.2-.014c5.216.41 9.092 1.105 12.03 2.008c4.48 1.382 6.835 3.23 8.607 5.23c4.334 4.89 3.188 17.532 2.167 24.936Zm-106.754 54.36c1.118-.18 2.237-.368 3.348-.563c4.487-.784 9.294-1.604 13.461-3.528c3.328-1.528 6.696-4.98 5.654-8.947c-.527-2.028-2.014-3.66-3.674-4.869c-1.785-1.292-4.147-1.549-6.272-1.736c-4.737-.41-9.572-.09-14.281.444c-2.168.25-4.39-.23-6.564-.382a111.53 111.53 0 0 0-7.3-.222c.66.007-1.57.055-.237.007c-2.34.09-4.869.194-7.078 1.042c-1.945.743-3.688 2.438-4.668 4.25c-2.056 3.849.473 7.739 3.835 9.76c1.854 1.104 4.021 1.736 6.084 2.299c2.286.64 4.606 1.118 6.94 1.57c1.68.326 3.361.611 5.063.875v12.065H99.342v5.69h53.937v-5.69h-24.131V179.18Z"/></svg>