<svg xmlns="http://www.w3.org/2000/svg" xmlns:xlink="http://www.w3.org/1999/xlink" width="256" height="256" viewBox="0 0 256 256"><path fill="#50E4EA" d="M6.731 6.73h242.538v242.54H6.731z"/><path fill="#173647" d="M242.538 13.46v229.082H13.462V13.46h229.076M256 0H0v256h256V0Z"/><path fill="#173647" d="M167.249 77.187a44.953 44.953 0 1 1 17.006 86.563l-7.585.024c-4.39 19.085-18.903 34.716-38.387 40.124c-23.5 6.523-48.466-3.428-61.037-24.328a54.219 54.219 0 0 1-6.26-15.262l-6.317.032c-19.944-.03-36.101-16.194-36.122-36.138c0-20.055 13.478-33.531 33.531-33.531h1.367c4.592-22.906 22.845-40.601 45.882-44.482c23.037-3.88 46.08 6.86 57.922 26.998Zm-48.581-15.494c-23.813.402-43.232 19.203-44.406 42.99v4.313a48.85 48.85 0 0 0-13.801-2c-12.16.641-19.644 8.642-19.644 21.203c.015 13.167 10.685 23.838 23.852 23.854l4.812-.025c-.106-13.7 4.965-27.314 14.882-37.778c16.526-17.438 42.51-21.91 63.876-11.115l.968.502l-7.548 10.941c-16.515-7.997-36.329-4.093-48.576 9.57c-12.247 13.664-13.968 33.785-4.218 49.33c9.75 15.544 28.613 22.755 46.245 17.678c17.291-4.978 29.3-20.593 29.75-38.5l-.005-1.131l19.408-.06a32.682 32.682 0 1 0-16.594-60.81l-5.93 3.504l-2.796-6.281a44.174 44.174 0 0 0-40.275-26.185Zm37.062 58.352l9.165 9.435l-47.74 46.376l-22.128-22.126l9.3-9.3l12.963 12.96l38.44-37.345Z"/></svg>