<svg xmlns="http://www.w3.org/2000/svg" xmlns:xlink="http://www.w3.org/1999/xlink" width="512" height="203" viewBox="0 0 512 203"><path fill="#6700EB" d="M199.668 174.987c-.744 0-1.327-.213-1.752-.638c-.424-.424-.637-.955-.637-1.592V59.54c0-1.805.85-2.707 2.548-2.707h38.694c14.651 0 25.904 2.654 33.76 7.962c7.855 5.202 11.782 12.792 11.782 22.77c0 6.264-1.645 11.572-4.935 15.925c-3.291 4.246-8.599 7.696-15.924 10.35c-.425.106-.638.372-.638.796c0 .319.213.531.638.637c7.855 2.124 13.747 5.467 17.675 10.033c4.035 4.564 6.051 10.562 6.051 17.993c0 10.616-3.98 18.578-11.942 23.885c-7.963 5.202-19.64 7.804-35.033 7.804h-40.287Zm41.083-66.721c6.688 0 12.368-1.486 17.038-4.459c4.672-2.972 7.007-7.643 7.007-14.013s-2.335-11.2-7.007-14.49c-4.564-3.291-10.88-4.937-18.949-4.937h-19.905c-1.592 0-2.389.69-2.389 2.07v33.6c0 1.486.585 2.229 1.753 2.229h22.452Zm-1.592 53.185c18.472 0 27.707-6.423 27.707-19.267c0-6.688-2.389-11.677-7.165-14.969c-4.777-3.29-11.095-4.936-18.95-4.936h-21.657c-.954 0-1.645.16-2.07.478c-.318.318-.478.849-.478 1.592v34.714c0 1.592.585 2.388 1.753 2.388h20.86Zm84.888 10.511c0 1.168-.266 1.963-.796 2.389c-.426.424-1.275.636-2.548.636h-10.828c-1.062 0-1.805-.16-2.23-.477c-.424-.426-.637-1.115-.637-2.071l.319-113.218c0-1.592.69-2.388 2.07-2.388h12.58c.66 0 2.07.005 2.07.005v115.124Zm119.64 2.585c.318.319.902.478 1.75.478h64.174c1.592 0 2.389-.743 2.389-2.23v-9.235h-46.02c-.849 0-1.275-.265-1.275-.797c0-.319.16-.69.478-1.114l44.428-58.76c1.168-1.804 1.752-3.396 1.752-4.776v-7.491s-1.207.006-1.752.006h-61.147c-1.168 0-1.752.637-1.752 1.911v7.166c0 .85.106 1.433.32 1.752c.317.318.902.477 1.75.477h39.651c.955 0 1.433.266 1.433.797l-.478.955l-44.11 58.758c-.848 1.168-1.432 2.07-1.75 2.708c-.213.637-.32 1.433-.32 2.388v5.256c0 .849.16 1.433.478 1.751Zm-80.28-117.714h-16.88V83.93c9.321 0 16.88-7.557 16.88-16.88V56.834Zm-.003 115.116c0 1.168-.265 1.964-.797 2.389c-.424.424-1.22.637-2.388.637H349.39c-1.061 0-1.804-.16-2.229-.478c-.424-.424-.636-1.115-.636-2.07v-79.46c0-.85.16-1.433.477-1.751c.318-.425.902-.637 1.752-.637h14.969l-.32 81.37Zm47.507-67.62c0-1.061.478-1.592 1.433-1.592h19.11c1.486 0 2.229-.637 2.229-1.91V90.634h-21.02c-.955 0-1.433-.478-1.433-1.433V61.972h-13.058c-1.061 0-1.699.743-1.91 2.23l-1.911 25c0 .955-.424 1.433-1.275 1.433h-12.738c-1.274 0-1.911.584-1.911 1.752v8.44c0 1.273.69 1.91 2.07 1.91h11.943c1.06 0 1.592.637 1.592 1.91v50.48c0 6.793 1.698 11.835 5.095 15.127c3.398 3.185 8.6 4.777 15.606 4.777c7.43 0 12.846-.265 16.243-.797c1.592-.318 2.388-1.22 2.388-2.706v-8.757h-12.103c-3.608 0-6.262-.851-7.961-2.549c-1.592-1.699-2.389-4.777-2.389-9.236v-46.657ZM33.426 101.05c12.72 0 24.7 5.978 32.348 16.14l32.972 43.818a2.7 2.7 0 0 1 .242 2.861l-19.006 36.823c-.912 1.768-3.356 1.975-4.553.388L0 101.05h33.426ZM56.092 1.073l75.43 100.031H98.094c-12.72 0-24.7-5.978-32.348-16.142L32.775 41.146a2.7 2.7 0 0 1-.242-2.86L51.54 1.46c.912-1.766 3.356-1.974 4.553-.387Z"/></svg>