<svg xmlns="http://www.w3.org/2000/svg" xmlns:xlink="http://www.w3.org/1999/xlink" width="256" height="135" viewBox="0 0 256 135"><path fill="#1D1D1B" d="M241.249 119.034c-4.8 5.404-13.901 3.932-29.136-4.482c-8.805-4.804-18.433-11.323-28.616-18.214l-3.912-2.623c-6.227-4.184-12.667-8.507-18.849-12.3a254.532 254.532 0 0 0-4.73-2.791l-3.148-1.74c-3.435-1.904-6.405-3.371-8.889-4.412a49.617 49.617 0 0 0-1.621-.71v-.004a129.37 129.37 0 0 0-2.866-1.215l-.54-.322h-.248c-16.504-6.653-33.945-10.025-51.897-10.025c-14.65 0-28.864 2.27-42.492 6.663c24.5-22.706 55.585-43.81 66.606-50.221c4.76-2.776 10.64-4.244 17.005-4.244c6.396 0 12.578 1.517 17.407 4.274c26.503 15.11 93.68 66.532 98.058 93.318l.005.04c.63 3.733-.07 6.678-2.137 9.008M21.906 121.82c-3.06 0-5.28-.887-6.96-2.776c-2.202-2.489-2.97-5.622-2.34-9.598c.242-1.562.733-3.272 1.472-5.116c.05-.14.129-.288.188-.422c.327-.793.674-1.601 1.09-2.439c.16-.322.363-.664.531-.991c.357-.685.704-1.359 1.11-2.068l.387-.634c.03-.05.07-.105.1-.154c3.029-5.062 7.783-9.28 13.757-12.21C48.593 76.903 67.284 72.59 86.797 72.59c7.065 0 14.04.57 20.897 1.716c-.278.129-.56.287-.838.421c-.888.437-1.785.888-2.692 1.359c-.486.253-.972.505-1.468.768a230.29 230.29 0 0 0-2.78 1.527c-.462.258-.913.506-1.374.769c-1.22.699-2.45 1.417-3.684 2.156a266.595 266.595 0 0 0-4.675 2.85c-.585.368-1.175.744-1.765 1.116c-.848.536-1.695 1.071-2.548 1.621c-.66.422-1.324.853-1.988 1.28c-.793.52-1.592 1.036-2.39 1.561c-.674.441-1.343.878-2.017 1.324c-.818.54-1.641 1.086-2.46 1.631c-.664.441-1.333.882-1.997 1.324c-1.344.897-2.688 1.794-4.026 2.692c-18.557 12.35-37.743 25.115-49.086 25.115m233.7-13.846C249.816 72.67 171.881 17.545 151.46 5.9C144.787 2.097 136.428 0 127.916 0c-8.552 0-16.593 2.048-23.237 5.924C88.9 15.101 38 50.058 13.572 81.524c-2.499 3.218-4.66 6.321-6.44 9.246l-.446.714C3.19 97.39 1.118 102.634.36 107.532c-1.205 7.62.63 14.442 5.314 19.742c4.05 4.541 9.663 6.946 16.232 6.946c15.091 0 34.937-13.213 56.275-27.412c17.332-11.59 38.898-26.017 49.909-26.017c1.735 0 3.956.45 6.603 1.343l.69.238c.59.203 1.184.431 1.79.67l1.799.773c2.26.947 4.843 2.23 8.14 4.055c.382.213.779.431.893.481c.238.134.476.253.758.392l1.007.59a230.82 230.82 0 0 1 4.53 2.682c5.925 3.624 12.251 7.877 18.374 11.987l3.872 2.598c10.441 7.07 20.302 13.748 29.607 18.82c11.27 6.222 19.985 9.117 27.426 9.117c6.951 0 12.652-2.444 16.936-7.273c4.59-5.171 6.346-11.84 5.091-19.29"/></svg>