<svg xmlns="http://www.w3.org/2000/svg" xmlns:xlink="http://www.w3.org/1999/xlink" width="256" height="256" viewBox="0 0 256 256"><path fill="#EA3" d="M94.88 251.608C26.612 233.316-13.9 163.146 4.391 94.879C22.684 26.613 92.854-13.9 161.121 4.392S269.9 92.854 251.608 161.121c-18.292 68.266-88.462 108.779-156.729 90.487"/><path fill="#FFF" d="M101.607 226.5c-13.6-3.644-12.809-50.698 1.768-105.098s37.418-95.547 51.018-91.902s12.809 50.698-1.768 105.098s-37.418 95.547-51.018 91.902m74.759-32.754c-6.8-1.822-6.404-25.35.884-52.55s18.71-47.773 25.51-45.95c6.8 1.822 6.404 25.349-.885 52.549s-18.709 47.773-25.509 45.95M53.24 160.755c-6.8-1.823-6.404-25.35.885-52.55s18.709-47.773 25.509-45.95c6.8 1.821 6.404 25.348-.884 52.548s-18.71 47.774-25.51 45.952"/></svg>