<svg xmlns="http://www.w3.org/2000/svg" xmlns:xlink="http://www.w3.org/1999/xlink" width="256" height="256" viewBox="0 0 256 256"><circle cx="128" cy="128" r="128" fill="#222"/><path fill="#FFF" d="M50.418 123.012c1.579-.192 2.743-1.188 2.824-2.722c.163-3.096.169-6.218-.074-9.304c-.064-.81-1.15-1.95-1.987-2.198c-.848-.253-1.747-.335-2.663-.381l-1.105-.048a28.44 28.44 0 0 1-1.11-.064v14.952c1.427-.075 2.781-.072 4.115-.235Zm-4.106 23.112l.93-.05l1.828-.081c.904-.046 1.791-.113 2.666-.258c1.687-.28 2.868-1.461 2.951-3.18c.146-3 .167-6.019-.007-9.015c-.105-1.809-1.313-3.063-3.169-3.315a27.664 27.664 0 0 0-2.543-.203l-1.754-.066a61.894 61.894 0 0 1-.902-.042v16.21Zm10.993-19.78c4.106 2.05 5.427 5.492 5.352 9.674l-.012.407a41.06 41.06 0 0 0-.025 1.69l.01 1.696c.007 1.412-.018 2.818-.245 4.191c-.873 5.267-5.108 8.708-10.479 8.816c-3.219.065-6.441.035-9.662.006c-2.205-.02-3.687-1.466-3.69-3.666c-.018-14.624-.016-29.249-.002-43.873c.002-1.983 1.252-3.613 3.083-3.638l2.6-.038c3.038-.04 6.083-.036 9.077.325c4.82.58 7.733 4.183 7.884 9.052a129.12 129.12 0 0 1 0 8.042c-.088 2.854-1.407 5.13-3.546 7.021l-.345.296Zm81.042 4.036h-8.6l.004 11.524c0 2.543-.003 5.077-.01 7.611c-.01 3.22-3.23 5.007-6.02 3.368c-1.443-.846-1.793-2.195-1.79-3.746l.008-10.9l-.002-10.9c0-7.413-.01-14.826.006-22.239c.006-2.666 1.492-4.139 4.047-4.097c2.238.036 3.742 1.523 3.75 3.79l.01 8.192l-.004 9.896h8.524l.06-1.101c.008-.186.014-.373.014-.56l-.002-10.826c.002-1.805.005-3.61.014-5.414c.013-2.554 1.518-4.001 4.018-3.977c2.27.022 3.767 1.47 3.776 3.741l.01 5.365l-.003 10.73l-.001 28.383c-.001 2.744-1.372 4.208-3.91 4.197c-2.502-.01-3.89-1.51-3.895-4.254l-.006-8.486l.002-10.297Zm-32.349 20.802l-1.845-.11l-.003.052h-1.023c-1.896.001-2.705.698-3.353 2.886c-.575 1.943-.1 3.66 1.264 4.575c2.016 1.352 6.234 1.061 7.965-.61c1.209-1.167 1.642-2.595 1.172-4.262c-.467-1.655-1.698-2.28-3.258-2.451l-.919-.08Zm2.047-22.948h-.005l.024-2.043a27.71 27.71 0 0 0-.04-2.039c-.135-2.077-1.416-3.25-3.382-3.236c-1.94.014-3.238 1.226-3.302 3.313a129.5 129.5 0 0 0 0 8.02c.065 2.078 1.377 3.301 3.307 3.315c2.001.013 3.279-1.228 3.386-3.393c.033-.655.036-1.31.03-1.967l-.018-1.97Zm5.629-7.821c1.5 1.654 1.767 3.566 1.725 5.557l-.011.374c-.021.551-.03 1.104-.033 1.658l-.01 1.661c-.013 1.384-.06 2.761-.291 4.107c-.825 4.816-4.742 7.893-9.626 7.937l-1.436.005l-2.71-.003l-.018.196l-.108.712c-.056.424-.073.87.114 1.2c.318.565 1.304.974 2.035 1.042c1.646.151 3.315.045 4.975.052c6.391.025 10.332 4.674 9.332 11.003c-.756 4.786-3.968 8.022-9.229 9.114c-3.336.693-6.706.634-10.007-.25c-5.976-1.6-8.22-8.08-4.362-12.561c.327-.38.705-.714 1.112-1.049l.843-.683c.144-.118.29-.24.436-.367c-1.955-1.37-2.78-3.285-2.583-5.643c.192-2.301 1.425-3.974 3.353-5.365c-3.021-2.984-3.405-6.709-3.2-10.605l.034-.875l.036-1.757c.025-1.17.073-2.337.269-3.478c.741-4.314 4.19-7.185 8.522-7.624l.396-.034c3.444-.228 6.873-.702 10.308-1.068c.29-.03.58-.075.872-.097c2.552-.188 3.615.54 3.86 2.64c.276 2.357-.716 3.636-3.154 4.05a7.47 7.47 0 0 1-.521.067l-.923.084Zm95.762 13.875c0-3.462-.077-6.926.038-10.384c.045-1.354-.568-1.954-1.655-2.37c-2.521-.964-4.496.376-4.509 3.138c-.028 6.338-.017 12.676.005 19.014a5.72 5.72 0 0 0 .313 1.856c.458 1.292 1.814 1.908 3.375 1.63c1.763-.316 2.43-1.038 2.432-2.646v-10.238Zm.103 16.049c-1.523 2.047-3.362 3.303-5.832 3.368c-4.633.123-7.855-2.844-7.9-7.488c-.076-8.098-.058-16.197 0-24.295c.019-2.734.968-5.134 3.616-6.377c2.789-1.309 5.587-1.158 8.23.502c.244.153.472.332.71.533l.773.673c.096.082.195.167.3.253v-12.47c.004-2.689 1.226-4.02 3.692-4.036c2.532-.014 3.819 1.338 3.82 4.083c.008 14.246.004 28.49.004 42.737l.006 1.268c-.001.211-.004.423-.01.634c-.064 1.986-1.093 3.36-2.721 3.658c-2.061.377-3.579-.402-4.408-2.268l-.051-.123l-.23-.652Zm-128.32.026c-1.915 3.206-4.852 3.81-8.147 3.169c-3.253-.635-5.392-3.317-5.43-7.048c-.093-9.365-.053-18.732-.023-28.098c.006-1.89 1.366-3.2 3.215-3.332c2.341-.166 3.844.862 4.193 2.911c.067.393.083.796.087 1.2l.008 22.938c0 .633.023 1.268.076 1.898c.196 2.307 1.57 3.272 3.803 2.682c1.255-.332 1.954-.952 1.942-2.45c-.067-8.39-.04-16.782-.028-25.172c.004-2.57 1.293-3.973 3.613-4.01c2.527-.039 3.894 1.288 3.896 3.84c.008 10.146.003 20.292.003 30.439c0 2.44-.783 3.699-2.507 4.042c-2.325.463-3.756-.423-4.7-3.009Zm84.342-19.907l.006-1.035l.027-2.022c.016-1.33.016-2.627-.071-3.918c-.112-1.649-1.197-2.466-2.714-2.46c-1.426.007-2.632.844-2.732 2.318a46.591 46.591 0 0 0-.081 3.536l.03 2.381c.005.4.008.8.008 1.2h5.527Zm-5.604 5.983l-.005 1.422l-.018 2.766c-.006 1.362 0 2.7.047 4.035c.064 1.849 1.193 2.87 2.85 2.863c1.687-.008 2.715-1.005 2.908-2.829c.026-.242.025-.486.032-.73c.073-2.469 1.227-3.637 3.574-3.617c2.317.02 3.499 1.259 3.526 3.695c.066 5.834-3.674 9.655-9.529 9.647c-1.401-.002-2.845-.078-4.195-.416c-3.976-.995-6.466-3.85-6.618-8.414c-.233-6.958-.262-13.941.06-20.894c.328-7.115 5.783-10.082 12.427-9.047c4.95.77 7.874 4.323 8.045 9.464c.06 1.81.066 3.624.052 5.438l-.044 3.627c-.026 1.98-1.12 2.981-3.158 2.988l-3.925.005l-6.03-.003Zm25.668-17.673c.63-2.815 2.275-3.958 4.928-3.72c2.097.187 3.13 1.473 3.077 3.97c-.05 2.292-1.245 3.689-3.242 3.697a8.292 8.292 0 0 1-1.302-.122l-.866-.138c-1.642-.238-2.208.235-2.209 1.88c0 8.436.01 16.873-.005 25.309c-.005 2.909-2.507 4.59-5.242 3.563c-1.597-.6-2.267-1.762-2.268-4.003c-.004-9.948-.004-19.896 0-29.844c0-2.5.856-3.74 2.73-3.994c2.518-.342 3.608.448 4.4 3.402Z"/><path fill="#86BAD3" d="M231.694 148.847c-.019 2.731-1.905 4.578-4.636 4.538c-2.613-.038-4.413-1.928-4.403-4.624c.01-2.733 1.878-4.551 4.635-4.51c2.639.038 4.422 1.9 4.404 4.596"/></svg>