<svg xmlns="http://www.w3.org/2000/svg" xmlns:xlink="http://www.w3.org/1999/xlink" width="512" height="110" viewBox="0 0 512 110"><path fill="#18B4F4" d="M96.156 30.92a30.873 30.873 0 0 1-11.474 24.051L2.179 8.121a4.536 4.536 0 0 1-.871-.648A4.367 4.367 0 0 1 0 4.362A4.36 4.36 0 0 1 4.36 0h60.89a30.895 30.895 0 0 1 21.854 9.057a30.925 30.925 0 0 1 9.052 21.863Z"/><path fill="#FD6B3C" d="M96.156 79.02a30.922 30.922 0 0 1-19.077 28.574a30.87 30.87 0 0 1-11.829 2.355H4.36a4.363 4.363 0 0 1-3.999-2.738a4.362 4.362 0 0 1 .998-4.744c.246-.246.522-.46.82-.64L34.65 83.39l50.026-28.412a30.886 30.886 0 0 1 11.48 24.043Z"/><path fill="#A97FF2" d="m84.682 54.971l-50.033 28.42L2.18 101.826c-.312.174-.6.386-.858.634A67.964 67.964 0 0 0 20.61 54.97A67.924 67.924 0 0 0 1.33 7.473c.263.251.556.468.872.648l82.48 46.85Z"/><path d="M163.776 40.322c14.264 0 22.323 11.398 22.323 25.206c0 13.806-8.06 25.117-22.323 25.117c-7.413 0-13.08-2.965-16.213-7.996l-1.293 6.862h-8.924V23.265h11.045v24.464c2.688-4.107 7.972-7.407 15.385-7.407Zm-2.225 40.589c8.336 0 13.523-6.761 13.523-15.383c0-8.804-5.187-15.48-13.523-15.48c-8.335 0-13.53 6.66-13.53 15.48c0 8.628 5.101 15.383 13.53 15.383Zm63.361-11.21V41.44h11.023v27.7c0 12.359-5.645 21.504-21.212 21.504c-15.565 0-21.212-9.175-21.212-21.504v-27.7h11.025V69.7c0 7.503 3.517 11.21 10.173 11.21c6.657 0 10.203-3.707 10.203-11.21Zm19.845-43.092a7.026 7.026 0 0 1 2.06-5.236a7.002 7.002 0 0 1 5.245-2.033c4.186 0 7.2 3.016 7.2 7.305c0 4.29-3.014 7.104-7.2 7.104c-4.187 0-7.305-2.958-7.305-7.14Zm196.674 0a7.002 7.002 0 0 1 2.046-5.222a7.022 7.022 0 0 1 2.396-1.57a7.03 7.03 0 0 1 2.824-.478c4.187 0 7.203 3.017 7.203 7.306c0 4.29-3.016 7.104-7.203 7.104c-4.186 0-7.266-2.958-7.266-7.14Zm-13.945 48.937c4.186 0 7.2 3.016 7.2 7.27s-3.014 7.11-7.2 7.11c-4.187 0-7.267-2.922-7.267-7.11a7.01 7.01 0 0 1 2.043-5.225a7 7 0 0 1 5.224-2.045Zm-3.765-34.571l1.57.095v10.28a19.925 19.925 0 0 0-2.5-.19c-7.782 0-12.412 4.08-12.412 13.348v25.025h-11.024V41.441h8.903l1.285 6.667c1.759-3.054 5.814-7.133 14.178-7.133Zm-177.22.46h11.025v48.1h-11.024v-48.1Zm22.05 48.1v-66.27h11.022v66.284l-11.022-.015Zm56.507-66.27h11.024v66.284h-8.903l-1.293-6.864c-3.052 5.01-8.72 7.998-16.205 7.998c-14.178 0-22.237-11.4-22.237-25.12c0-13.718 8.059-25.205 22.237-25.205c7.5 0 12.689 3.33 15.377 7.407v-24.5Zm-13.081 26.798c-8.335 0-13.524 6.674-13.524 15.48c0 8.622 5.19 15.383 13.524 15.383c8.335 0 13.524-6.761 13.524-15.383c.014-8.834-5.08-15.495-13.51-15.495l-.014.015Zm77.924 26.312c-3.423 8.615-11.395 14.27-21.86 14.27c-14.533 0-23.98-10.847-23.98-25.212c0-13.995 9.636-25.111 23.901-25.111c14.266 0 23.624 10.839 23.624 24.928a13.632 13.632 0 0 1-.297 3.425h-36.4c.828 7.605 5.741 12.513 13.43 12.513c5.282 0 9.635-2.596 11.67-7.41l9.912 2.597Zm-34.83-15.85h25.571c-.93-6.673-5.558-11.217-12.695-11.217c-7.136 0-11.764 4.637-12.877 11.218Zm88.104-19.09h11.023v48.1h-11.023v-48.1Zm18.894 24.093c0-13.53 9.636-25.206 24.918-25.206C502.27 40.322 512 51.998 512 65.528s-9.628 25.117-25.013 25.117c-15.384 0-24.918-11.587-24.918-25.117Zm24.918 15.383c8.066 0 13.989-6.115 13.989-15.383c0-9.27-5.923-15.478-13.989-15.478c-8.067 0-13.909 6.112-13.909 15.478c0 9.363 5.944 15.383 13.91 15.383Z"/></svg>