<svg xmlns="http://www.w3.org/2000/svg" xmlns:xlink="http://www.w3.org/1999/xlink" width="512" height="148" viewBox="0 0 512 148"><defs><linearGradient id="logosBunnyNet0" x1="29.435%" x2="80.631%" y1="45.318%" y2="58.76%"><stop offset="0%" stop-color="#FEBE2D"/><stop offset="100%" stop-color="#F85E23"/></linearGradient><linearGradient id="logosBunnyNet1" x1="-33.94%" x2="153.691%" y1="50.041%" y2="50.041%"><stop offset="0%" stop-color="#FBAA19"/><stop offset="100%" stop-color="#EF3E23"/></linearGradient><linearGradient id="logosBunnyNet2" x1="32.891%" x2="67.113%" y1="96.667%" y2="3.111%"><stop offset="0%" stop-color="#F78D1E"/><stop offset="100%" stop-color="#F37121"/></linearGradient><linearGradient id="logosBunnyNet3" x1="14.403%" x2="63.227%" y1="75.177%" y2="12.448%"><stop offset="0%" stop-color="#FEBE2D"/><stop offset="100%" stop-color="#F04E23"/></linearGradient><linearGradient id="logosBunnyNet4" x1="69.88%" x2="33.101%" y1="3.214%" y2="81.581%"><stop offset="0%" stop-color="#EA4425"/><stop offset="100%" stop-color="#FDBB27"/></linearGradient><linearGradient id="logosBunnyNet5" x1="-40.127%" x2="144.708%" y1="49.989%" y2="49.989%"><stop offset="0%" stop-color="#F47920"/><stop offset="100%" stop-color="#E93825"/></linearGradient><linearGradient id="logosBunnyNet6" x1="-143.227%" x2="243.364%" y1="49.917%" y2="49.917%"><stop offset="0%" stop-color="#FDCA0B"/><stop offset="100%" stop-color="#F5841F"/></linearGradient><linearGradient id="logosBunnyNet7" x1="39.677%" x2="63.887%" y1="-25.013%" y2="131.608%"><stop offset="0%" stop-color="#E73C25"/><stop offset="100%" stop-color="#FAA21B"/></linearGradient><linearGradient id="logosBunnyNet8" x1="-562.994%" x2="562.905%" y1="49.998%" y2="49.998%"><stop offset="0%" stop-color="#FDBA12"/><stop offset="100%" stop-color="#F7921E"/></linearGradient><linearGradient id="logosBunnyNet9" x1="1.983%" x2="106.167%" y1="41.501%" y2="60.044%"><stop offset="0%" stop-color="#FEBE2D"/><stop offset="100%" stop-color="#F04E23"/></linearGradient></defs><path fill="url(#logosBunnyNet0)" d="M432.022 106.788a3.8 3.8 0 0 0-3.455 3.454c-.277 2.039.829 3.455 2.59 3.455a3.87 3.87 0 0 0 3.456-3.455a2.695 2.695 0 0 0-2.626-3.454zm25.427-19.727a10.81 10.81 0 0 0-9.432 5.113l.691-4.837h-5.907l-3.766 26.015h5.908l1.865-12.783a7.877 7.877 0 0 1 7.428-7.497c3.455 0 5.078 2.246 4.56 5.873l-2.073 14.407h5.943l2.349-16.238c.898-6.184-1.97-10.053-7.566-10.053m24.909 0a14.58 14.58 0 0 0-14.268 13.3c-1.106 7.809 3.04 13.163 10.606 13.163a15.03 15.03 0 0 0 10.848-4.456l-2.66-3.455a10.12 10.12 0 0 1-6.91 2.902a5.77 5.77 0 0 1-6.08-5.908h17.93c1.97-9.466-.864-15.443-9.397-15.443zm-8.05 11.193a7.84 7.84 0 0 1 7.393-6.287a5.08 5.08 0 0 1 5.425 6.356zm33.96 8.845a8.6 8.6 0 0 1-3.454 1.07c-1.59 0-2.418-.829-2.073-3.454l1.693-11.747h6.91l.656-4.594h-6.91l1.037-7.186h-5.839l-1.036 7.186h-3.455l-.622 4.594h3.455l-1.831 12.852c-.795 5.355 2.038 7.808 6.011 7.808a12.65 12.65 0 0 0 6.357-1.9z"/><path d="M154.153 78.873a4.595 4.595 0 1 1 .069 9.19a4.595 4.595 0 0 1-.07-9.19m45.638-12.748a22.94 22.94 0 0 1 13.508-4.699a19.86 19.86 0 0 1 15.166 6.702a24.53 24.53 0 0 1 4.733 20.038a30.64 30.64 0 0 1-20.728 26.084a26.7 26.7 0 0 1-7.152 1.002a15.58 15.58 0 0 1-13.508-6.668l-.622 4.422a.9.9 0 0 1-.864.726H179.65a.73.73 0 0 1-.587-.242a.8.8 0 0 1 0-.622l3.696-25.496H168.94a3.94 3.94 0 0 1-3.904-3.904a3.94 3.94 0 0 1 3.628-4.008h29.78a17.97 17.97 0 0 0-3.87 8.844c-1.07 7.428 2.626 14.372 10.676 14.372a16.27 16.27 0 0 0 15.408-14.51c1.037-7.29-3.143-14.199-10.882-14.199h-33.96a3.94 3.94 0 0 1-3.905-3.938a3.94 3.94 0 0 1 3.904-3.904h9.846l2.799-19.554a.9.9 0 0 1 .864-.726h11.055a.83.83 0 0 1 .553.242a.8.8 0 0 1 0 .622l-2.799 19.416zm67.575 43.115a18.28 18.28 0 0 1-14.303 6.012c-13.611 0-17.274-9.985-15.58-21.8l4.352-29.746a.93.93 0 0 1 .864-.76h10.883a.73.73 0 0 1 .552.277c.083.187.083.4 0 .587l-3.869 26.775c-.898 6.356 0 12.091 7.428 12.057c7.428-.035 10.364-5.113 11.504-11.816l3.904-27.12a.93.93 0 0 1 .864-.76h10.952a.73.73 0 0 1 .552.277c.083.187.083.4 0 .587l-6.91 49.196a.9.9 0 0 1-.863.726h-10.364a.73.73 0 0 1-.588-.242a.8.8 0 0 1-.172-.622l.518-3.628zm37.52-41.837a18.52 18.52 0 0 1 14.233-5.977c13.508 0 17.274 9.95 15.477 21.904l-4.283 29.676a.83.83 0 0 1-.83.726h-10.951a.66.66 0 0 1-.553-.242a.69.69 0 0 1-.173-.622l3.835-26.498c.898-6.253.242-12.196-7.324-12.161c-7.566.034-10.365 5.217-11.4 11.815l-3.94 27.155a.864.864 0 0 1-.829.725h-10.951a.76.76 0 0 1-.588-.241a.76.76 0 0 1 0-.622l6.91-49.162a.9.9 0 0 1 .864-.76h10.364a.66.66 0 0 1 .553.276a.62.62 0 0 1 .173.588l-.519 3.455zm51.441 0a18.52 18.52 0 0 1 14.234-5.977c13.508 0 17.274 9.95 15.477 21.904l-4.284 29.676a.864.864 0 0 1-.829.726h-10.951a.66.66 0 0 1-.553-.242a.69.69 0 0 1-.173-.622l3.87-26.498c.898-6.253.241-12.196-7.325-12.161c-7.566.034-10.364 5.217-11.435 11.815l-3.904 27.155a.864.864 0 0 1-.83.725H338.57a.76.76 0 0 1-.588-.241a.76.76 0 0 1 0-.622l6.91-49.162a.9.9 0 0 1 .829-.76h10.364a.66.66 0 0 1 .553.276a.73.73 0 0 1 .173.588l-.518 3.455zm42.84 43.6l-10.365-47.02a.73.73 0 0 1 0-.691a.83.83 0 0 1 .657-.346h11.677a.726.726 0 0 1 .725.588l6.046 30.436l14.718-30.505a.83.83 0 0 1 .76-.519h11.919a.69.69 0 0 1 .622.38a.76.76 0 0 1 0 .76l-33.788 66.367a.83.83 0 0 1-.76.484h-11.712a.66.66 0 0 1-.622-.38a.76.76 0 0 1 0-.76z"/><path fill="url(#logosBunnyNet1)" d="m72.55 23.665l34.1 18.518L75.141 0a23.49 23.49 0 0 0-2.591 23.665"/><path fill="url(#logosBunnyNet2)" d="M57.142 92.347a7.773 7.773 0 1 1 0 15.546a7.773 7.773 0 0 1 0-15.546"/><path fill="url(#logosBunnyNet3)" d="m33.408 6.184l95.49 51.822a4.63 4.63 0 0 1 0 8.326a74.2 74.2 0 0 1-23.389 9.12L85.644 116.22s-6.287 14.303-23.596 8.81c7.255-7.255 16.03-13.82 16.03-24.978c0-11.582-9.389-20.97-20.97-20.97c-11.582 0-20.97 9.388-20.97 20.97c0 14.579 14.371 20.728 22.352 30.851a13.13 13.13 0 0 1-1.14 16.548c-9.916-9.811-29.09-26.36-36.967-37.208a31.44 31.44 0 0 1-6.737-19.174a36.1 36.1 0 0 1 25.497-32.682a41.6 41.6 0 0 1 13.404-1.624a43.5 43.5 0 0 1 17.965 5.424c8.465 4.975 12.576 3.662 18.414-1.243c3.455-2.833 7.22-12.058 1.382-14.2a42 42 0 0 0-5.838-1.45c-10.848-2.108-29.815-4.112-36.794-8.085c-11.09-6.115-18.552-18.725-14.268-31.024"/><path fill="url(#logosBunnyNet4)" d="M77.906 100.154c4.422-23.25-19.175-45.43-37.278-42.114l1.21-.276q-1.451.311-2.799.726a36.1 36.1 0 0 0-25.496 32.682a31.44 31.44 0 0 0 6.91 19.174c7.876 10.848 27.05 27.397 36.966 37.208a13.13 13.13 0 0 0 1.14-16.548c-8.154-10.088-22.526-16.272-22.526-30.817c0-11.582 9.39-20.97 20.971-20.97c11.582 0 20.97 9.388 20.97 20.97z"/><path fill="url(#logosBunnyNet5)" d="m33.408 6.184l72.55 39.523l2.073 1.14c1.728 1.347 3.455 4.042 1.21 9.017c-3.455 7.428-17.274 14.614-33.201 8.982c4.975 1.451 8.36-.207 12.714-3.869c3.454-2.833 7.22-12.057 1.381-14.2a42 42 0 0 0-5.838-1.45c-10.848-2.108-29.815-4.111-36.794-8.084c-10.917-6.15-18.38-18.76-14.095-31.059"/><path fill="url(#logosBunnyNet6)" d="M33.408 6.184c7.497 27.638 53.135 29.919 76.005 41.458z"/><path fill="url(#logosBunnyNet7)" d="M58.386 131.006c-7.98-10.088-22.353-16.272-22.353-30.817c.041-10.549 7.912-19.425 18.38-20.729c-16.672.057-30.173 13.558-30.23 30.23c-.003 2.042.205 4.08.622 6.08c6.599 7.462 16.134 16.272 24.184 23.734c3.144 2.937 6.046 5.7 8.43 8.05a14.44 14.44 0 0 0 3.454-8.188a12.65 12.65 0 0 0-2.487-8.36"/><path fill="url(#logosBunnyNet8)" d="M77.802 102.642q.164-1.239.173-2.488c4.353-23.25-19.244-45.43-37.347-42.114a43.2 43.2 0 0 1 11.816-1.174c23.734.967 30.367 26.325 25.358 45.776"/><path fill="url(#logosBunnyNet9)" d="M7.808 51.27a7.84 7.84 0 0 1 7.808 7.841v7.808H7.808A7.81 7.81 0 0 1 0 59.111a7.84 7.84 0 0 1 7.808-7.842"/></svg>