<svg xmlns="http://www.w3.org/2000/svg" xmlns:xlink="http://www.w3.org/1999/xlink" width="256" height="256" viewBox="0 0 256 256"><path fill="#FA2A00" d="M255.349 255.35H0V0h255.349v255.35Z"/><path fill="#FFF" d="M160.993 135.984c-3.837 21.052-21.917 38.274-49.807 38.274c-33.316 0-53.375-24.471-53.375-52.361c0-27.33 19.066-52.389 53.084-52.389c29.18 0 47.261 18.357 49.956 41.267H136.8c-2.128-11.667-10.959-20.484-25.613-20.484c-19.08 0-29.89 15.086-29.89 31.606c0 17.499 12.094 31.593 30.174 31.593c13.377 0 22.2-7.689 25.045-17.506h24.478Zm27.937-64.149l-14.698 6.298l18.42 43.076l-18.427 43.09l14.704 6.285l12.363-29.117l.064.134l8.554-20.392l-20.98-49.374Z"/></svg>