<svg xmlns="http://www.w3.org/2000/svg" xmlns:xlink="http://www.w3.org/1999/xlink" width="256" height="256" viewBox="0 0 256 256"><path d="m127.574.007l.222-.005h.41l.28.008l.333.018c2.146.142 4.138.844 5.834 1.96l115.73 76.804a12.052 12.052 0 0 1 3.174 2.934l.224.306l.155.225A12.06 12.06 0 0 1 256 88.941v77.87a12.064 12.064 0 0 1-1.794 6.51l-.132.209l-.138.21a12.082 12.082 0 0 1-3.216 3.244l-115.88 76.9a12.048 12.048 0 0 1-6.004 2.085l-.513.024l-.323.005h-.21l-.315-.012l-.327-.018a12.043 12.043 0 0 1-5.959-2.065L5.649 177.226a12.036 12.036 0 0 1-2.789-2.43l-.027-.034a12.114 12.114 0 0 1-.723-.955l-.046-.067A12.066 12.066 0 0 1 0 166.854V89.186a12.062 12.062 0 0 1 1.453-5.919l.248-.435l.1-.168a12.172 12.172 0 0 1 3.848-3.892L121.168 2.109a12.046 12.046 0 0 1 5.59-2.046l.458-.038l.358-.018ZM70.058 142.6l-36.133 24.307l81.959 54.386v-47.865L70.058 142.6Zm115.883-.001l-45.826 30.829v47.865l81.957-54.388l-36.131-24.306Zm-57.94-38.978l-36.233 24.374L128 152.365l36.232-24.37L128 103.621Zm-103.78 8.143v32.468l24.132-16.234l-24.132-16.234Zm207.537.013l-24.112 16.221l24.112 16.221v-32.442ZM115.884 34.686L33.918 89.083l36.143 24.311l45.823-30.826V34.686Zm24.231.013v47.869l45.823 30.826l36.14-24.308l-81.963-54.387Z"/></svg>