<svg xmlns="http://www.w3.org/2000/svg" xmlns:xlink="http://www.w3.org/1999/xlink" width="512" height="78" viewBox="0 0 512 78"><path fill="#19223C" d="M141.61 54.946a16.028 16.028 0 0 1-4.68-11.288c0-4.21 1.68-8.26 4.68-11.286a15.92 15.92 0 0 1 5.287-3.35a16.224 16.224 0 0 1 6.203-1.077c3.321-.08 6.588.846 9.373 2.657a14.197 14.197 0 0 1 5.745 7.524h-9.22a5.953 5.953 0 0 0-2.345-2.547a6.163 6.163 0 0 0-3.4-.847a8.192 8.192 0 0 0-3.362.524a8.031 8.031 0 0 0-2.837 1.838a10.314 10.314 0 0 0-2.249 6.417c0 2.322.792 4.583 2.25 6.418a8.04 8.04 0 0 0 2.838 1.838a8.193 8.193 0 0 0 3.36.524a6.18 6.18 0 0 0 3.342-.722a5.972 5.972 0 0 0 2.403-2.378h9.071a14.2 14.2 0 0 1-5.745 7.525a16.468 16.468 0 0 1-9.373 2.656a16.221 16.221 0 0 1-6.122-1.106a15.918 15.918 0 0 1-5.217-3.32h-.002Zm34.32 0a16.028 16.028 0 0 1-4.681-11.288c0-4.21 1.678-8.26 4.68-11.286a17.007 17.007 0 0 1 11.491-4.44c4.267 0 8.377 1.587 11.49 4.44a16.025 16.025 0 0 1 4.68 11.286a16.022 16.022 0 0 1-4.682 11.288a16.848 16.848 0 0 1-11.49 4.497a16.85 16.85 0 0 1-11.49-4.497h.002Zm17.537-4.87a10.313 10.313 0 0 0 2.25-6.416c0-2.322-.793-4.58-2.25-6.418a8.727 8.727 0 0 0-6.049-2.419a8.73 8.73 0 0 0-6.047 2.421a10.314 10.314 0 0 0-2.25 6.416c0 2.324.792 4.583 2.25 6.418a8.729 8.729 0 0 0 6.047 2.42c2.263 0 4.436-.87 6.049-2.42v-.002Zm26.002-21.688a18.11 18.11 0 0 1 12.398 4.278a15.337 15.337 0 0 1 3.572 5.053a15.037 15.037 0 0 1 1.256 6.013c0 2.07-.429 4.116-1.256 6.013a15.337 15.337 0 0 1-3.572 5.052a17.957 17.957 0 0 1-12.398 4.279h-11.035V28.388h11.035Zm-3.476 25.084h3.476a9.121 9.121 0 0 0 3.777-.586a8.93 8.93 0 0 0 3.18-2.072a9.765 9.765 0 0 0 1.997-3.283a9.75 9.75 0 0 0 .572-3.8a9.745 9.745 0 0 0-.572-3.798a9.763 9.763 0 0 0-1.998-3.282a8.926 8.926 0 0 0-3.18-2.072a9.117 9.117 0 0 0-3.776-.583h-3.476v19.476ZM260.59 28.24v5.755h-11.34v6.638h10.13v5.755h-10.127v7.08h11.34v5.756h-19.05V28.24h19.047Zm14.362 18.884v11.95h-7.71V28.389h12.397a12.283 12.283 0 0 1 8.466 2.804a8.734 8.734 0 0 1 2.257 2.996a8.531 8.531 0 0 1 .768 3.644a9.426 9.426 0 0 1-1.663 5.163a9.083 9.083 0 0 1-5.444 3.54l7.71 12.543h-8.768l-7.104-11.953h-.91Zm0-13.13v7.377h4.687a3.687 3.687 0 0 0 2.723-1.032a3.625 3.625 0 0 0 1.056-2.657a3.601 3.601 0 0 0-.254-1.43a3.67 3.67 0 0 0-.804-1.225a3.705 3.705 0 0 0-2.72-1.032h-4.688Zm32.958-.148a3.69 3.69 0 0 0-2.42.738a2.657 2.657 0 0 0-.721 1.002c-.159.383-.22.798-.185 1.21a3.039 3.039 0 0 0 .907 2.213a5.593 5.593 0 0 0 2.269 1.33l3.022.883l3.326 1.032l3.024 1.477a6.579 6.579 0 0 1 2.269 2.508a8.108 8.108 0 0 1 .907 3.836a8.391 8.391 0 0 1-.893 3.69a8.606 8.606 0 0 1-2.433 2.95a12.749 12.749 0 0 1-8.62 2.802a13.695 13.695 0 0 1-8.616-2.506a8.608 8.608 0 0 1-2.536-3.151a8.395 8.395 0 0 1-.79-3.932h8.164a3.466 3.466 0 0 0 .254 1.473a3.566 3.566 0 0 0 2.164 2.024c.486.168 1 .234 1.512.193a3.703 3.703 0 0 0 2.572-.888a2.73 2.73 0 0 0 .907-2.212a2.88 2.88 0 0 0-.907-2.213a5.911 5.911 0 0 0-2.269-1.328l-3.024-.885l-3.326-1.032l-3.022-1.476a6.253 6.253 0 0 1-2.269-2.509a7.938 7.938 0 0 1-.605-3.689a8.253 8.253 0 0 1 .808-3.858a8.461 8.461 0 0 1 2.52-3.076a13.06 13.06 0 0 1 8.315-2.655c2.886-.13 5.74.643 8.162 2.213a8.568 8.568 0 0 1 2.536 3.151c.58 1.23.85 2.578.79 3.93h-8.315a4.08 4.08 0 0 0-1.057-2.507a3.2 3.2 0 0 0-2.422-.738h.002Zm26.003 13.278v11.95h-7.71V28.389h12.398a12.283 12.283 0 0 1 8.466 2.804a8.734 8.734 0 0 1 2.256 2.996a8.531 8.531 0 0 1 .768 3.644a9.426 9.426 0 0 1-1.663 5.163a9.083 9.083 0 0 1-5.444 3.54l7.71 12.543h-8.765l-7.105-11.953h-.911Zm0-13.13v7.377h4.688a3.687 3.687 0 0 0 2.723-1.032a3.625 3.625 0 0 0 1.055-2.657a3.601 3.601 0 0 0-.254-1.43a3.67 3.67 0 0 0-.804-1.225a3.705 3.705 0 0 0-2.72-1.032h-4.688Zm42.332 25.08l-1.814-5.163h-11.34l-1.813 5.164h-8.165l10.885-30.835h9.373l10.885 30.835h-8.011ZM365.056 48.16h7.408l-3.628-10.772l-3.78 10.772Zm43.695-19.918h7.71v30.835h-7.71l-12.852-19.474v19.474h-7.71V28.24h7.71l12.852 19.476V28.24Zm22.07 30.835h-7.71V28.388h7.71v13.427l10.432-13.427h10.129l-13.003 15.344l13.003 15.344h-9.828l-10.583-13.574l-.15 13.574Zm31.295-3.983a3.93 3.93 0 0 1-.993 2.487a4.105 4.105 0 0 1-2.375 1.317a4.168 4.168 0 0 1-2.697-.44a4.025 4.025 0 0 1-1.806-2.005a3.902 3.902 0 0 1-.107-2.663c.28-.873.86-1.627 1.641-2.135a4.16 4.16 0 0 1 5.126.488c.4.385.713.845.921 1.353c.208.508.306 1.052.29 1.598Z"/><path fill="#67A4AC" d="M466.954 59.076V28.387h7.71v30.689h-7.71Zm17.386-4.13a16.03 16.03 0 0 1-4.68-11.288c0-4.211 1.68-8.26 4.68-11.286a17.01 17.01 0 0 1 11.49-4.441c4.269 0 8.379 1.588 11.49 4.441A16.025 16.025 0 0 1 512 43.658a16.02 16.02 0 0 1-4.68 11.288a16.85 16.85 0 0 1-11.49 4.497a16.85 16.85 0 0 1-11.49-4.497Zm17.537-4.87a10.3 10.3 0 0 0 2.25-6.416c0-2.322-.791-4.58-2.25-6.418a8.726 8.726 0 0 0-6.047-2.419a8.72 8.72 0 0 0-6.046 2.421a10.324 10.324 0 0 0-2.25 6.416c0 2.324.791 4.582 2.25 6.418a8.73 8.73 0 0 0 6.046 2.42c2.263 0 4.436-.87 6.047-2.42v-.002Z"/><path fill="#19223C" d="M65.985.108L4.26 38.965C1.354 40.723-.067 42.692.002 44.873v5.913c.07 2.183 1.525 4.118 4.366 5.807l30.548 17.632a1.44 1.44 0 0 0 2.077-.74l6.859-16.574l-14.547-8.236a2.612 2.612 0 0 1-1.02-.947a2.67 2.67 0 0 1 .915-3.699l26.706-16.366L66.918.85a.644.644 0 0 0-.205-.715a.618.618 0 0 0-.732-.026h.004Z"/><path fill="#67A4AC" d="M116.689 21.753L86.56 3.488a1.44 1.44 0 0 0-2.078.635l-7.064 16.575l14.338 8.553a2.6 2.6 0 0 1 .996.968a2.672 2.672 0 0 1 0 2.705a2.612 2.612 0 0 1-.996.972L64.844 49.733l-11.43 26.606a.641.641 0 0 0 .26 1.022a.618.618 0 0 0 .674-.177l19.744-11.93l7.793 11.192a1.879 1.879 0 0 0 1.558.843h18.703a1.849 1.849 0 0 0 1.651-1.004a1.925 1.925 0 0 0-.093-1.953L91.027 54.904l25.666-15.518c2.909-1.76 4.364-3.731 4.364-5.914v-5.807c0-2.183-1.455-4.151-4.366-5.912h-.002Z"/></svg>