<svg xmlns="http://www.w3.org/2000/svg" xmlns:xlink="http://www.w3.org/1999/xlink" width="241" height="256" viewBox="0 0 241 256"><path fill="#AFD4E5" d="M118.874 0L0 56.984l118.874 72.557l121.404-66.093z"/><path fill="#69C" d="M0 170.587L118.874 256V129.541L0 56.985z"/><path fill="#7DA7D3" d="M118.874 129.541V256l121.404-79.019V63.449z"/><path fill="#369" d="m184.556 213.249l2.831-1.843l-2.4-117.857l-2.143 1.166z"/><path fill="#69C" d="m161.91 77.054l30.502-16.468s-45.97-50.157-100.11-21.033C66.83 53.255 59.24 67.026 70.516 81.73c18.662 24.338 41.17 21.606 41.17 21.606L141.04 89.05s-31.876 4.205-45.356-6.959c-11.057-9.159-6.414-20.817 8.845-31.44c13.388-9.321 40.036-5.565 49.479 1.564c9.442 7.127 13.11 17.095 7.903 24.839"/></svg>