<svg xmlns="http://www.w3.org/2000/svg" xmlns:xlink="http://www.w3.org/1999/xlink" width="256" height="289" viewBox="0 0 256 289"><path fill="#FAE501" d="M87.333 200.777c-15.306-14.406-24.309-34.213-24.309-56.722s9.003-42.316 23.409-56.722c12.605-12.604 12.605-32.412 0-45.017c-12.605-12.605-32.412-12.605-45.017 0C16.206 68.426 0 104.44 0 144.055s16.206 75.629 42.316 101.739c12.605 12.605 32.413 12.605 45.017 0c11.705-12.605 11.705-32.413 0-45.017Z"/><path fill="#4FB5E1" d="M87.333 87.333c14.406-15.306 34.213-24.309 56.722-24.309s42.316 9.003 56.722 23.409c12.604 12.605 32.412 12.605 45.017 0c12.605-12.605 12.605-32.412 0-45.017C219.684 16.206 183.67 0 144.055 0S68.426 16.206 42.316 42.316c-12.605 12.605-12.605 32.413 0 45.017c12.605 11.705 32.413 11.705 45.017 0Z"/><path fill="#F05751" d="M200.777 200.777c-14.406 15.305-34.213 24.309-56.722 24.309s-42.316-9.004-56.722-23.41c-12.604-12.604-32.412-12.604-45.017 0c-12.605 12.606-12.605 32.413 0 45.018c26.11 25.21 62.124 41.416 101.739 41.416s75.629-16.206 101.739-42.316c12.605-12.605 12.605-32.413 0-45.017c-12.605-11.705-32.413-11.705-45.017 0Z"/><circle cx="64.825" cy="64.825" r="31.512" fill="#0681B6"/><circle cx="64.825" cy="223.285" r="31.512" fill="#CD4739"/></svg>