<svg xmlns="http://www.w3.org/2000/svg" xmlns:xlink="http://www.w3.org/1999/xlink" width="512" height="73" viewBox="0 0 512 73"><path fill="#0056D2" d="M168.022 1.777v40.018c0 8.842 4.929 14.063 13.483 14.063c9.569 0 15.069-5.801 15.069-16.966V1.777h17.835v68.867h-17.822v-7.978c-4.201 6.524-11.018 9.715-20.44 9.715c-15.948.005-25.95-11.594-25.95-28.414V1.777h17.825ZM359.552.474c20.3.04 34.62 16.302 34.571 35.457a35.45 35.45 0 0 1-.443 5.656l-52.481-.098c2.012 8.266 8.815 14.223 19.111 14.245c6.232 0 12.907-2.296 16.975-7.508l12.162 9.75c-6.254 8.834-17.285 14.033-29.022 14.01c-20.72-.07-36.64-15.614-36.605-35.767c.04-19.284 13.842-35.785 35.732-35.745Zm113.162 0c10.872 0 17.108 3.333 21.31 9.716l1.67-8.422H512v68.876h-16.306l-2.105-7.092c-4.782 5.221-10.73 8.421-20.875 8.421c-15.66-.022-33.494-13.797-33.494-35.253c0-21.602 17.542-36.246 33.494-36.246Zm-365.377 0c20.441 0 36.68 15.956 36.68 35.666c0 19.572-16.239 35.811-36.68 35.811c-20.299 0-36.534-16.257-36.534-35.811c0-19.72 16.235-35.666 36.534-35.666Zm183.38-.439c11.497 0 21.682 5.093 27.213 14.551l-15.707 8.31c-2.327-4.658-6.693-7.277-12.224-7.277c-5.38 0-8.005 1.892-8.005 5.092c0 10.77 37.545 3.932 37.545 29.696c0 13.39-10.912 21.535-28.52 21.535c-14.99-.013-25.468-4.96-30.702-16.31l15.85-8.297c2.619 5.678 7.857 9.024 15.281 9.024c6.839 0 9.458-2.18 9.458-5.239c0-11.08-37.544-4.365-37.544-29.695c0-13.97 12.224-21.39 27.355-21.39ZM36.534.328a36.788 36.788 0 0 1 30.879 16.399l-15.22 8.829a19.03 19.03 0 0 0-15.659-8.12c-10.438 0-18.992 8.7-18.992 18.704c0 10.003 8.554 18.703 18.992 18.703a18.818 18.818 0 0 0 16.093-8.864l15.07 8.988a36.76 36.76 0 0 1-31.172 16.967C16.235 71.951 0 55.694 0 36.14C0 16.28 16.235.328 36.534.328ZM260.211 0l-3.29 16.643c-.605-.066-1.215-.1-1.825-.102c-9.565.022-15.065 5.832-15.038 16.993l.097 37.105l-17.83.04l-.151-68.862l17.83-.04v7.978c4.153-6.48 10.899-9.68 20.207-9.755Zm179.173.049l-3.306 16.625a18.589 18.589 0 0 0-1.826-.102c-9.556 0-15.07 5.797-15.07 16.962v37.11h-17.83V1.773h17.83V9.75c4.17-6.467 10.908-9.653 20.202-9.702ZM107.337 17.582c-10.437 0-18.991 8.7-18.991 18.558c0 10.003 8.554 18.703 18.991 18.703c10.602 0 19.138-8.7 19.138-18.703c0-9.857-8.554-18.558-19.138-18.558Zm368.426.007a19.055 19.055 0 0 0-13.456 5.634a19.054 19.054 0 0 0-5.531 13.497c0 9.57 8.554 18.123 18.996 18.123c10.57 0 19.12-8.554 19.12-18.269a19.06 19.06 0 0 0-19.13-18.985Zm-116.383-.875c-8.266 0-14.941 4.902-17.565 12.29l34.358.062c-1.002-6.959-8.24-12.34-16.793-12.352Z"/></svg>