<svg xmlns="http://www.w3.org/2000/svg" xmlns:xlink="http://www.w3.org/1999/xlink" width="256" height="235" viewBox="0 0 256 235"><path fill="#09D3AC" d="M233.805 104.896c0-13.048-15.358-24.619-38.974-31.683c5.682-23.994 3.2-43.083-8.105-49.54a18.086 18.086 0 0 0-9.071-2.273c-10.549 0-23.88 7.366-37.345 20.111c-13.465-12.65-26.76-19.979-37.289-19.979a17.92 17.92 0 0 0-9.204 2.31c-11.249 6.477-13.578 25.453-7.972 49.333c-23.502 7.026-38.785 18.502-38.823 31.494c-.038 12.991 15.378 24.619 38.993 31.664c-5.681 24.013-3.22 43.083 8.105 49.54a17.82 17.82 0 0 0 9.053 2.273c10.567 0 23.9-7.367 37.364-20.112c13.446 12.65 26.74 19.98 37.288 19.98a18.174 18.174 0 0 0 9.204-2.31c11.249-6.477 13.56-25.453 7.973-49.239c23.501-7.12 38.784-18.597 38.803-31.569Zm-84.822-59.105c15.51-13.881 25.206-15.377 28.653-15.377a8.92 8.92 0 0 1 4.583 1.098c5.416 3.087 7.575 13.976 5.851 28.407a107.434 107.434 0 0 1-1.893 10.965a185.021 185.021 0 0 0-23.824-3.92a186.48 186.48 0 0 0-15.605-19.09a47.5 47.5 0 0 1 2.235-2.083Zm-46.947 69.843a255.374 255.374 0 0 0 4.678 8.54c1.629 2.86 3.333 5.758 5.227 8.617a178.274 178.274 0 0 1-14.847-2.765c1.325-4.81 3.01-9.544 4.942-14.392Zm-5.245-36.058a166.633 166.633 0 0 1 15.017-2.765c-1.894 2.803-3.522 5.682-5.227 8.693c-1.704 3.01-3.2 5.681-4.658 8.56a222.893 222.893 0 0 1-5.132-14.488Zm9.866 25.263a226.543 226.543 0 0 1 7.746-14.885a220.35 220.35 0 0 1 9.033-14.411c5.51-.417 11.192-.644 17.044-.625c5.852.019 11.363.227 16.836.662c3.143 4.583 6.154 9.47 8.995 14.298c2.84 4.83 5.454 9.886 7.802 14.829a213.907 213.907 0 0 1-7.726 14.866c-2.803 4.924-5.89 9.81-9.034 14.43c-5.51.436-11.192.644-17.043.644a209.88 209.88 0 0 1-16.836-.682a212.542 212.542 0 0 1-9.014-14.298c-2.841-4.942-5.36-9.885-7.727-14.828h-.076Zm62.23-27.97c5.15.719 10.131 1.647 14.847 2.745a169.788 169.788 0 0 1-5 14.298a256.165 256.165 0 0 0-4.696-8.54c-1.648-2.86-3.39-5.739-5.076-8.504h-.075Zm5.226 47.192a249.92 249.92 0 0 0 4.659-8.579c1.894 4.924 3.788 9.772 5.113 14.506c-4.772 1.118-9.79 2.027-14.998 2.746a172.352 172.352 0 0 0 5.302-8.673h-.076Zm-33.766-69.748a166.189 166.189 0 0 1 10.037 11.799a242.11 242.11 0 0 0-9.904-.228c-3.352 0-6.78 0-10.094.228c3.239-4.205 6.553-8.163 9.961-11.799ZM98.344 31.588a9.128 9.128 0 0 1 4.677-1.06c3.412.142 6.758.986 9.829 2.48a73.99 73.99 0 0 1 18.938 12.84l2.215 2.027a186.518 186.518 0 0 0-15.453 18.937a187.256 187.256 0 0 0-23.956 3.901c-.833-3.673-1.515-7.272-1.894-10.737c-1.97-14.298.303-25.206 5.625-28.312l.019-.076Zm-10.019 96.014a111.259 111.259 0 0 1-10.491-3.787c-13.446-5.682-21.778-12.973-21.778-19.203c0-6.23 8.37-13.484 21.797-19.07a109.138 109.138 0 0 1 10.302-3.674a185.457 185.457 0 0 0 8.636 22.99a186.953 186.953 0 0 0-8.466 22.744Zm43.557 36.171c-15.51 13.882-25.206 15.359-28.671 15.359a8.882 8.882 0 0 1-4.583-1.099c-5.417-3.086-7.575-13.976-5.852-28.406c.44-3.68 1.072-7.333 1.894-10.946a188.45 188.45 0 0 0 23.823 3.901a184.018 184.018 0 0 0 15.605 19.09l-2.216 2.101Zm8.655-8.54c-3.409-3.637-6.761-7.576-10.056-11.799c3.257.152 6.571.227 9.923.227c3.352 0 6.78 0 10.094-.208c-3.276 4.204-6.61 8.143-9.98 11.78h.019Zm42.004 22.725a9.128 9.128 0 0 1-4.697 1.117c-3.447 0-13.256-1.515-28.71-15.34l-2.215-2.026a186.423 186.423 0 0 0 15.434-18.938a183.696 183.696 0 0 0 23.975-3.9c.833 3.673 1.496 7.271 1.894 10.737c1.875 14.279-.303 25.187-5.7 28.274l.019.076Zm20.452-53.86a114.755 114.755 0 0 1-10.302 3.656a186.612 186.612 0 0 0-8.654-22.99a185.78 185.78 0 0 0 8.503-22.726a111.26 111.26 0 0 1 10.491 3.788c13.427 5.681 21.779 12.972 21.76 19.203c-.02 6.23-8.37 13.407-21.817 18.994l.02.076Zm-62.646-1.93c9.602.01 17.394-7.765 17.404-17.367c.01-9.601-7.764-17.393-17.366-17.403c-9.601-.01-17.393 7.764-17.404 17.365a17.366 17.366 0 0 0 17.366 17.404ZM24.827 0v209.546H256V0H24.827Zm222.14 200.531H33.88V9.033h213.087v191.498Zm-160.97-64.198c-5.682 24.013-3.22 43.083 8.104 49.54a17.82 17.82 0 0 0 9.053 2.273c10.567 0 23.9-7.367 37.364-20.112c13.446 12.65 26.74 19.98 37.288 19.98a18.174 18.174 0 0 0 9.204-2.31c11.249-6.477 13.56-25.453 7.973-49.239c23.501-7.045 38.784-18.52 38.803-31.493c.019-12.973-15.358-24.62-38.974-31.683c5.682-23.994 3.2-43.083-8.105-49.541a18.086 18.086 0 0 0-9.071-2.273c-10.549 0-23.88 7.367-37.345 20.112c-13.465-12.65-26.76-19.98-37.289-19.98c-3.22-.07-6.399.728-9.204 2.311c-11.249 6.477-13.578 25.453-7.972 49.333c-23.502 7.026-38.785 18.502-38.823 31.493c-.037 12.992 15.397 24.506 39.012 31.589h-.019Zm45.847 27.44c-15.51 13.882-25.206 15.359-28.671 15.359a8.882 8.882 0 0 1-4.583-1.099c-5.416-3.086-7.575-13.976-5.852-28.406c.44-3.68 1.072-7.333 1.894-10.946a188.45 188.45 0 0 0 23.823 3.901a184.018 184.018 0 0 0 15.605 19.09l-2.216 2.101Zm46.947-69.86a256.165 256.165 0 0 0-4.697-8.542c-1.647-2.86-3.408-5.681-5.15-8.503c5.15.72 10.131 1.648 14.847 2.746a163.046 163.046 0 0 1-4.981 14.298h-.02Zm5.151 35.98c-4.772 1.118-9.79 2.027-14.999 2.747a218.981 218.981 0 0 0 5.227-8.674a209.245 209.245 0 0 0 4.659-8.579c1.988 5.019 3.712 9.83 5.075 14.601l.038-.094Zm-9.867-25.281a213.907 213.907 0 0 1-7.726 14.866c-2.803 4.924-5.89 9.81-9.033 14.43c-5.511.436-11.193.644-17.044.644a210.08 210.08 0 0 1-16.836-.681a212.543 212.543 0 0 1-9.014-14.298a223.418 223.418 0 0 1-7.803-14.829a226.543 226.543 0 0 1 7.746-14.885a220.35 220.35 0 0 1 9.033-14.411a216.377 216.377 0 0 1 17.044-.625c5.852.019 11.363.227 16.836.663c3.143 4.583 6.154 9.469 8.995 14.298c2.84 4.829 5.473 9.98 7.821 14.923l-.019-.095Zm-62.134 28.18a178.274 178.274 0 0 1-14.847-2.766a172.466 172.466 0 0 1 5.018-14.298a255.372 255.372 0 0 0 4.678 8.541c1.628 2.86 3.257 5.663 5.15 8.522Zm-5.284-47.345a171.47 171.47 0 0 0-4.658 8.56a190.589 190.589 0 0 1-5.208-14.43a166.633 166.633 0 0 1 15.017-2.766c-1.761 2.803-3.446 5.7-5.15 8.636Zm33.86 69.785c-3.408-3.636-6.76-7.575-10.055-11.798c3.257.152 6.571.227 9.923.227c3.352 0 6.78 0 10.094-.208a174.905 174.905 0 0 1-9.961 11.78Zm42.005 22.726a9.128 9.128 0 0 1-4.697 1.117c-3.447 0-13.256-1.515-28.71-15.34l-2.215-2.026a186.423 186.423 0 0 0 15.434-18.938a183.696 183.696 0 0 0 23.975-3.9c.833 3.673 1.496 7.271 1.894 10.737c1.894 14.279-.284 25.187-5.681 28.274v.076Zm9.999-95.939a111.17 111.17 0 0 1 10.491 3.788c13.427 5.681 21.779 12.972 21.76 19.203c-.02 6.23-8.352 13.559-21.798 19.146a114.755 114.755 0 0 1-10.302 3.655a186.612 186.612 0 0 0-8.654-22.99a185.779 185.779 0 0 0 8.503-22.878v.076Zm-43.557-36.152c15.51-13.881 25.206-15.377 28.653-15.377a8.92 8.92 0 0 1 4.583 1.098c5.416 3.087 7.575 13.976 5.851 28.407a107.434 107.434 0 0 1-1.893 10.965a185.021 185.021 0 0 0-23.824-3.92a186.48 186.48 0 0 0-15.605-19.09a30.17 30.17 0 0 1 2.254-2.159l-.019.076Zm-8.617 8.446a166.189 166.189 0 0 1 10.037 11.799a242.11 242.11 0 0 0-9.904-.228c-3.352 0-6.78 0-10.094.228c3.239-4.205 6.553-8.163 9.961-11.799ZM98.344 31.588a9.128 9.128 0 0 1 4.677-1.06c3.412.142 6.758.986 9.829 2.48a73.99 73.99 0 0 1 18.938 12.84l2.215 2.027a186.518 186.518 0 0 0-15.453 18.937a187.256 187.256 0 0 0-23.956 3.901c-.833-3.673-1.515-7.272-1.894-10.737c-1.97-14.298.303-25.206 5.625-28.312l.019-.076ZM77.853 85.542a109.138 109.138 0 0 1 10.302-3.674a185.457 185.457 0 0 0 8.636 22.99a186.953 186.953 0 0 0-8.503 22.725a111.259 111.259 0 0 1-10.492-3.787c-13.446-5.681-21.778-12.973-21.778-19.203c0-6.23 8.408-13.465 21.835-19.051Zm62.494 1.893c-9.601-.01-17.393 7.765-17.403 17.366c-.01 9.602 7.764 17.394 17.366 17.404c9.6.01 17.393-7.764 17.403-17.366a17.366 17.366 0 0 0-17.366-17.498v.094Zm0 0c-9.601-.01-17.393 7.765-17.403 17.366c-.01 9.602 7.764 17.394 17.366 17.404c9.6.01 17.393-7.764 17.403-17.366a17.366 17.366 0 0 0-17.366-17.498v.094Zm0 0c-9.601-.01-17.393 7.765-17.403 17.366c-.01 9.602 7.764 17.394 17.366 17.404c9.6.01 17.393-7.764 17.403-17.366a17.366 17.366 0 0 0-17.366-17.498v.094Zm93.458 17.499c0-13.048-15.358-24.62-38.974-31.683c5.682-23.994 3.2-43.083-8.105-49.541a18.086 18.086 0 0 0-9.071-2.273c-10.549 0-23.88 7.367-37.345 20.112C126.845 28.9 113.55 21.57 103.02 21.57a17.92 17.92 0 0 0-9.204 2.31c-11.249 6.477-13.578 25.453-7.972 49.333c-23.502 7.026-38.785 18.502-38.823 31.494c-.038 12.99 15.378 24.619 38.993 31.663c-5.681 24.013-3.22 43.084 8.105 49.542a17.82 17.82 0 0 0 9.053 2.272c10.567 0 23.9-7.367 37.364-20.112c13.446 12.65 26.74 19.98 37.288 19.98a18.174 18.174 0 0 0 9.204-2.31c11.249-6.478 13.56-25.453 7.973-49.239c23.501-7.158 38.784-18.635 38.803-31.607v.038ZM148.983 45.79c15.51-13.881 25.206-15.377 28.653-15.377a8.92 8.92 0 0 1 4.583 1.098c5.416 3.087 7.575 13.976 5.851 28.407a107.434 107.434 0 0 1-1.893 10.965a185.021 185.021 0 0 0-23.824-3.92a186.48 186.48 0 0 0-15.605-19.09a47.5 47.5 0 0 1 2.235-2.083Zm-46.947 69.843a255.374 255.374 0 0 0 4.678 8.54c1.629 2.86 3.333 5.758 5.227 8.617a178.274 178.274 0 0 1-14.847-2.765c1.325-4.81 3.01-9.544 4.942-14.392Zm-5.245-36.058a166.633 166.633 0 0 1 15.017-2.765c-1.894 2.803-3.522 5.682-5.227 8.693c-1.704 3.01-3.2 5.681-4.658 8.56a222.893 222.893 0 0 1-5.132-14.488Zm9.866 25.263a226.543 226.543 0 0 1 7.746-14.885a220.35 220.35 0 0 1 9.033-14.411c5.51-.417 11.192-.644 17.044-.625c5.852.019 11.363.227 16.836.662c3.143 4.583 6.154 9.47 8.995 14.298c2.84 4.83 5.454 9.886 7.802 14.829a213.907 213.907 0 0 1-7.726 14.866c-2.803 4.924-5.89 9.81-9.034 14.43c-5.51.436-11.192.644-17.043.644a209.88 209.88 0 0 1-16.836-.682a212.542 212.542 0 0 1-9.014-14.298c-2.841-4.942-5.36-9.885-7.727-14.828h-.076Zm62.23-27.97c5.15.719 10.131 1.647 14.847 2.745a169.788 169.788 0 0 1-5 14.298a256.165 256.165 0 0 0-4.696-8.54c-1.648-2.86-3.39-5.739-5.076-8.504h-.075Zm5.226 47.192a249.92 249.92 0 0 0 4.659-8.579c1.894 4.924 3.788 9.772 5.113 14.506c-4.772 1.118-9.79 2.027-14.998 2.746a172.352 172.352 0 0 0 5.302-8.673h-.076Zm-33.766-69.748a166.189 166.189 0 0 1 10.037 11.799a242.11 242.11 0 0 0-9.904-.228c-3.352 0-6.78 0-10.094.228c3.239-4.205 6.553-8.163 9.961-11.799ZM98.344 31.588a9.128 9.128 0 0 1 4.677-1.06c3.412.142 6.758.986 9.829 2.48a73.99 73.99 0 0 1 18.938 12.84l2.215 2.027a186.518 186.518 0 0 0-15.453 18.937a187.256 187.256 0 0 0-23.956 3.901c-.833-3.673-1.515-7.272-1.894-10.737c-1.97-14.298.303-25.206 5.625-28.312l.019-.076Zm-10.019 96.014a111.259 111.259 0 0 1-10.491-3.787c-13.446-5.682-21.778-12.973-21.778-19.203c0-6.23 8.37-13.484 21.797-19.07a109.138 109.138 0 0 1 10.302-3.674a185.457 185.457 0 0 0 8.636 22.99a186.953 186.953 0 0 0-8.466 22.744Zm43.557 36.171c-15.51 13.882-25.206 15.359-28.671 15.359a8.882 8.882 0 0 1-4.583-1.099c-5.417-3.086-7.575-13.976-5.852-28.406c.44-3.68 1.072-7.333 1.894-10.946a188.45 188.45 0 0 0 23.823 3.901a184.018 184.018 0 0 0 15.605 19.09l-2.216 2.101Zm8.655-8.54c-3.409-3.637-6.761-7.576-10.056-11.799c3.257.152 6.571.227 9.923.227c3.352 0 6.78 0 10.094-.208c-3.276 4.204-6.61 8.143-9.98 11.78h.019Zm42.004 22.725a9.128 9.128 0 0 1-4.697 1.117c-3.447 0-13.256-1.515-28.71-15.34l-2.215-2.026a186.423 186.423 0 0 0 15.434-18.938a183.696 183.696 0 0 0 23.975-3.9c.833 3.673 1.496 7.271 1.894 10.737c1.875 14.279-.303 25.187-5.7 28.274l.019.076Zm20.452-53.86a114.755 114.755 0 0 1-10.302 3.656a186.612 186.612 0 0 0-8.654-22.99a185.78 185.78 0 0 0 8.503-22.726a111.26 111.26 0 0 1 10.491 3.788c13.427 5.681 21.779 12.972 21.76 19.203c-.02 6.23-8.37 13.407-21.817 18.994l.02.076Zm-62.646-1.93c9.602.01 17.394-7.765 17.404-17.367c.01-9.601-7.764-17.393-17.366-17.403c-9.601-.01-17.393 7.764-17.404 17.365a17.366 17.366 0 0 0 17.366 17.404ZM9.071 225.377V15.756L0 24.846v209.565h231.135l9.052-9.033H9.071Z"/></svg>