<svg xmlns="http://www.w3.org/2000/svg" xmlns:xlink="http://www.w3.org/1999/xlink" width="256" height="256" viewBox="0 0 256 256"><path d="M80.84 194.494c-18.702-30.993-28.998-61.285-33.79-87.958c-1.097-6.092-1.904-12-2.46-17.68c-1.154-11.846-1.217-22.721-.492-32.306v-.01c-.651.71-1.292 1.427-1.93 2.14c-.103.12-.214.236-.318.355c-.655.735-1.303 1.476-1.947 2.218c-.115.132-.23.265-.348.397a237.258 237.258 0 0 0-6.326 7.62C19.362 86.71 8.214 105.872 0 126.225a264.623 264.623 0 0 0 2.129 5.076a229.295 229.295 0 0 0 31.099 51.882a235.222 235.222 0 0 0 8.314 9.895l17.743 1.334c4.823.361 12.194.622 21.555.081" fill="#276691"/><path d="M106.788 208.603a222.225 222.225 0 0 1-17.667 2.48c-11.81 1.167-22.654 1.247-32.231.546c-.115-.008-.23-.012-.35-.023c4.135 3.79 8.379 7.41 12.73 10.871c17.44 13.864 36.603 25.009 56.957 33.224a224.826 224.826 0 0 0 5.326-2.236a229.614 229.614 0 0 0 51.632-30.987a238.76 238.76 0 0 0 10.043-8.447l1.338-17.764c.361-4.811.621-12.162.08-21.504c-30.946 18.709-61.204 29.024-87.858 33.84" fill="#F78921"/><path d="M174.763 56.839c18.695 30.94 28.998 61.183 33.812 87.826a222.889 222.889 0 0 1 2.471 17.678c1.166 11.785 1.244 22.61.55 32.169c-.013.123-.02.244-.028.367c3.79-4.13 7.416-8.38 10.867-12.73c13.87-17.44 25.015-36.6 33.228-56.956c-.67-1.667-1.37-3.32-2.08-4.97a229.465 229.465 0 0 0-31.147-51.988a240.756 240.756 0 0 0-8.363-9.955l-17.918-1.35c-4.797-.36-12.104-.615-21.392-.091" fill="#CC2128"/><path d="M181.998 33.224C164.558 19.36 145.392 8.215 125.037 0a244.108 244.108 0 0 0-4.93 2.065a229.648 229.648 0 0 0-52.031 31.159a237.437 237.437 0 0 0-9.784 8.227l-1.363 18.062c-.355 4.775-.615 12.053-.092 21.297C87.765 62.147 118 51.864 144.629 47.07c6.097-1.096 12-1.911 17.681-2.468c11.808-1.158 22.65-1.228 32.22-.517c.067.004.13.006.192.013a239.158 239.158 0 0 0-12.724-10.873" fill="#146E39"/></svg>