<svg xmlns="http://www.w3.org/2000/svg" xmlns:xlink="http://www.w3.org/1999/xlink" width="512" height="94" viewBox="0 0 512 94"><path fill="#FFCD00" d="M66.586 53.346a26.673 26.673 0 1 0-26.673-26.66a26.66 26.66 0 0 0 26.673 26.66"/><path fill="#00ECBB" d="M66.752 66.676h-.09c-18.295-.004-34.259-12.413-38.777-30.142c-1.34-5.332-5.677-9.848-11.175-9.848H0C0 63.503 29.846 93.35 66.663 93.35h.089z"/><path fill="#AF64FF" d="M66.586 66.676h.077c18.297 0 34.263-12.41 38.778-30.142c1.352-5.332 5.689-9.848 11.187-9.848h16.71c-.007 36.82-29.856 66.663-66.675 66.663h-.077z"/><path fill="#7131FF" d="M113.809 73.82a66.663 66.663 0 0 1-94.28 0l18.854-18.854c15.625 15.615 40.947 15.615 56.572 0z"/><path fill="#2F326A" d="M465.414 25.347h7.335v31.227h-7.335zm3.7-5.102a4.73 4.73 0 0 1-3.343-1.276a4.15 4.15 0 0 1-1.352-3.15a4 4 0 0 1 1.352-3.05a4.66 4.66 0 0 1 3.343-1.275a4.8 4.8 0 0 1 3.342 1.276a3.83 3.83 0 0 1 1.352 2.984a4.48 4.48 0 0 1-1.352 3.279a4.54 4.54 0 0 1-3.342 1.173zM454.61 56.982a4.707 4.707 0 0 1-4.809-4.86a4.78 4.78 0 0 1 1.352-3.508a4.84 4.84 0 0 1 3.457-1.34a4.694 4.694 0 0 1 4.809 4.848a4.694 4.694 0 0 1-4.809 4.86m32.107-2.041a19.13 19.13 0 0 0 17.182 0a14.95 14.95 0 0 0 5.932-5.677a16.14 16.14 0 0 0 2.168-8.304a15.77 15.77 0 0 0-2.168-8.24a14.87 14.87 0 0 0-5.97-5.677a19.13 19.13 0 0 0-17.182 0a15.17 15.17 0 0 0-5.983 5.677a16 16 0 0 0-2.118 8.24a16.35 16.35 0 0 0 2.118 8.304a15.3 15.3 0 0 0 6.02 5.677m15.243-6.901a9.68 9.68 0 0 1-13.368 0a9.8 9.8 0 0 1-2.551-7.08a9.8 9.8 0 0 1 2.55-7.08a9.644 9.644 0 0 1 13.37 0a9.68 9.68 0 0 1 2.64 7.08a9.68 9.68 0 0 1-2.64 7.08m-207.297 6.824a8.5 8.5 0 0 1-3.15 1.57a14 14 0 0 1-3.828.522a10.98 10.98 0 0 1-7.921-2.679a10.2 10.2 0 0 1-2.794-7.78V18.7h7.271v7.08h8.33v5.816h-8.33v14.759a5 5 0 0 0 1.11 3.482A4.2 4.2 0 0 0 288.553 51c1.466.05 2.905-.4 4.082-1.275zm-105.097 2.092a18.3 18.3 0 0 1-8.674-2.028a15.04 15.04 0 0 1-5.995-5.638a15.9 15.9 0 0 1-2.156-8.253a15.6 15.6 0 0 1 2.156-8.19a15.1 15.1 0 0 1 5.932-5.638a18.4 18.4 0 0 1 8.737-2.028a16.7 16.7 0 0 1 8.037 1.862a11.94 11.94 0 0 1 5.217 5.37l-5.549 3.317a8.6 8.6 0 0 0-3.38-3.265a8.93 8.93 0 0 0-4.376-1.097a9.15 9.15 0 0 0-6.747 2.666a9.38 9.38 0 0 0-2.68 7.028a9.7 9.7 0 0 0 2.552 7.093a9.99 9.99 0 0 0 11.25 1.607a9.15 9.15 0 0 0 3.381-3.253l5.549 3.253a12.76 12.76 0 0 1-5.294 5.396a16.6 16.6 0 0 1-7.947 1.824zm59.954-.982c2.412.652 4.9.982 7.398.982c4.35 0 7.794-.867 10.307-2.551a8.09 8.09 0 0 0 3.827-6.965a7.07 7.07 0 0 0-1.748-5.102a9.5 9.5 0 0 0-4.07-2.551c-2.006-.573-4.053-1-6.122-1.276a32 32 0 0 1-5.498-1.505a2.55 2.55 0 0 1-1.747-2.551a2.81 2.81 0 0 1 1.62-2.552a9.95 9.95 0 0 1 4.898-.982a17.3 17.3 0 0 1 8.93 2.322l2.805-5.523a18 18 0 0 0-5.242-1.914a28.2 28.2 0 0 0-6.378-.752a16.94 16.94 0 0 0-10.014 2.666a8.2 8.2 0 0 0-3.66 7.028a7.56 7.56 0 0 0 1.734 5.294a10.2 10.2 0 0 0 4.197 2.551a46.5 46.5 0 0 0 6.289 1.34c1.803.232 3.58.638 5.306 1.211a2.31 2.31 0 0 1 1.684 2.27q0 3.432-6.518 3.42c-1.97-.01-3.93-.28-5.83-.804a18.7 18.7 0 0 1-5-2.27l-2.794 5.522a18.7 18.7 0 0 0 5.69 2.717zm55.526-1.046a18.97 18.97 0 0 0 17.068 0a14.9 14.9 0 0 0 5.88-5.638a16.03 16.03 0 0 0 2.156-8.253c.045-2.876-.7-5.709-2.156-8.19a14.9 14.9 0 0 0-5.88-5.638a18.97 18.97 0 0 0-17.068 0a15.3 15.3 0 0 0-5.944 5.638a16.03 16.03 0 0 0-2.092 8.19a16.37 16.37 0 0 0 2.092 8.253a15.3 15.3 0 0 0 6.008 5.663zm15.142-6.863a9.567 9.567 0 0 1-13.28 0a9.7 9.7 0 0 1-2.55-7.028a9.73 9.73 0 0 1 2.55-7.029a9.605 9.605 0 0 1 13.28 0a9.6 9.6 0 0 1 2.615 7.029a9.58 9.58 0 0 1-2.552 7.054zm56.126-22.884a12.63 12.63 0 0 1 9.324 3.431c2.284 2.245 3.432 5.626 3.432 10.205v17.757h-7.284V39.723a9 9 0 0 0-1.658-6.097a6.48 6.48 0 0 0-5.179-2.092a7.53 7.53 0 0 0-5.88 2.449a9.67 9.67 0 0 0-2.258 6.85v15.74h-7.284v-16.85a9 9 0 0 0-1.799-6.097a6.5 6.5 0 0 0-5.178-2.092a7.76 7.76 0 0 0-5.945 2.385a9.96 9.96 0 0 0-2.194 6.914v15.74h-7.283v-17.36c0-8.7 6.594-14.032 15.205-14.032a23.2 23.2 0 0 1 8.087 1.34a9.73 9.73 0 0 1 4.311 3.826a12.86 12.86 0 0 1 4.95-3.827a15.8 15.8 0 0 1 6.735-1.313zm51.56 18.203q.114-1.39.114-2.143a16.76 16.76 0 0 0-2.028-8.368a13.85 13.85 0 0 0-5.6-5.638a16 16 0 0 0-8.087-2.028a16.8 16.8 0 0 0-8.279 2.028a14.8 14.8 0 0 0-5.753 5.702a16.1 16.1 0 0 0-2.04 8.125a16.24 16.24 0 0 0 2.091 8.253a15.05 15.05 0 0 0 6.072 5.638a21.1 21.1 0 0 0 16.251.753a13.2 13.2 0 0 0 5.294-3.827l-3.903-4.477a11.34 11.34 0 0 1-8.445 3.368a11.15 11.15 0 0 1-6.748-1.978a8.62 8.62 0 0 1-3.342-5.408zm-21.545-10.281a8.85 8.85 0 0 1 5.944-2.092a8.7 8.7 0 0 1 5.931 2.092a8.55 8.55 0 0 1 2.858 5.46H403.42a8.6 8.6 0 0 1 2.909-5.46m46.648-7.896v6.913a9.5 9.5 0 0 0-1.684-.178a8.75 8.75 0 0 0-6.645 2.55a9.78 9.78 0 0 0-2.386 7.093v14.989h-7.283v-15.64c0-11.34 7.283-17.143 17.998-15.727M223.37 56.982c-4.159 0-8.585-1.148-10.983-3.432s-3.559-5.753-3.559-10.281V25.525h7.284v16.762a9.18 9.18 0 0 0 1.862 6.276a8.215 8.215 0 0 0 10.804 0a9.25 9.25 0 0 0 1.863-6.276V25.525h7.283V43.27q0 6.8-3.559 10.281c-2.423 2.284-6.875 3.432-11.02 3.432z"/></svg>