<svg xmlns="http://www.w3.org/2000/svg" xmlns:xlink="http://www.w3.org/1999/xlink" width="512" height="90" viewBox="0 0 512 90"><path fill="#7C7C7D" d="m137.944 44.991l-17.733-17.77l8.862-17.764l28.813 28.873c3.67 3.679 3.67 9.643 0 13.322L122.423 87.19a9.387 9.387 0 0 1-13.294 0c-3.671-3.679-3.671-9.643 0-13.322z"/><path fill="#151618" d="M109.135 2.758a9.39 9.39 0 0 1 13.296.002l6.649 6.662l-77.57 77.732a9.39 9.39 0 0 1-13.295-.001l-6.65-6.663zM75.89 27.19L62.593 40.515L44.86 22.745L22.695 44.956l17.733 17.77l-8.862 17.764L2.753 51.617c-3.67-3.678-3.67-9.643 0-13.322L38.215 2.76a9.39 9.39 0 0 1 13.295-.002zm124.226 3.311v30.183h16.58l3.513 10.061h-20.093c-5.537 0-10.026-4.504-10.026-10.06V30.5c0-5.556 4.489-10.06 10.026-10.06h16.58V30.5h3.513V10.38a5.025 5.025 0 0 1 5.02-5.03h5.02v60.365a5.025 5.025 0 0 1-5.02 5.03h-5.02V30.501zm50.2 40.244c-5.538 0-10.027-4.504-10.027-10.06V50.622c0-5.556 4.49-10.06 10.027-10.06h16.58v10.06h3.513V30.501h-27.613v-5.03c0-2.778 2.244-5.03 5.013-5.03h22.6c5.545 0 10.04 4.504 10.04 10.06v35.214a5.025 5.025 0 0 1-5.02 5.03h-5.02V50.623h-20.093v10.061h16.58l3.513 10.061zm40.173 0V25.471c0-2.778 2.245-5.03 5.013-5.03h5.014v45.274c0 2.778-2.245 5.03-5.014 5.03zm10.027-60.333q0 2.105-1.442 3.551t-3.539 1.447t-3.572-1.447t-1.474-3.55q0-2.17 1.474-3.617q1.475-1.447 3.572-1.447t3.539 1.447t1.442 3.616m10.053 60.333V10.38c0-2.779 2.244-5.03 5.013-5.03h5.014v60.365c0 2.778-2.245 5.03-5.014 5.03zm33.834.02l-13.537-42.572c-.81-2.657.716-5.47 3.363-6.282l4.77-1.47l11.043 36.156l9.94-32.595c.81-2.657 3.577-4.153 6.225-3.34l4.601 1.47l-17.05 56.584a10.03 10.03 0 0 1-9.59 7.119l-8.288.002c-2.769 0-5.014-2.252-5.014-5.03v-5.031h8.333c2.761 0 5.193-2.24 5.204-5.01"/><path fill="#7C7C7D" d="M387.166 71.4v-7.108h-7.293V71.4zm21.81.465q5.304 0 8.984-2.657t5.138-7.109V71.4h6.033V22.24h-6.033v21.99q-1.459-4.451-5.138-7.109q-3.68-2.657-8.983-2.657q-4.84 0-8.619 2.258t-5.933 6.51t-2.155 9.966t2.155 9.932q2.154 4.219 5.933 6.477q3.78 2.26 8.619 2.26m1.725-5.315q-5.57 0-8.917-3.554q-3.348-3.555-3.348-9.799q0-6.245 3.348-9.799q3.348-3.555 8.917-3.554q3.58 0 6.397 1.627q2.817 1.629 4.409 4.684q1.59 3.056 1.59 7.042t-1.59 7.009q-1.591 3.022-4.409 4.684q-2.817 1.66-6.397 1.66m44.152 5.315q4.575 0 8.22-1.66q3.648-1.662 5.934-4.651q2.288-2.99 2.95-6.776h-6.43q-.663 3.72-3.613 5.945t-7.326 2.226q-4.839 0-8.187-3.122q-3.349-3.122-3.547-9.368h29.104q.264-1.395.265-3.321q0-4.584-2.089-8.371t-6.032-6.046t-9.249-2.258q-5.237 0-9.281 2.258t-6.331 6.51t-2.287 9.966t2.287 9.932t6.33 6.477q4.045 2.26 9.282 2.26m11.27-20.329h-23.27q.267-5.98 3.647-9.068q3.382-3.09 8.353-3.09q3.116 0 5.768 1.33q2.652 1.328 4.177 4.052t1.326 6.776M497.747 71.4L512 34.928h-6.497l-11.27 30.028l-11.403-30.028h-6.497L490.587 71.4z"/></svg>