<svg xmlns="http://www.w3.org/2000/svg" xmlns:xlink="http://www.w3.org/1999/xlink" width="256" height="275" viewBox="0 0 256 275"><path fill="#632CA6" d="m214.434 194.558l-22.796-15.039l-19.016 31.766l-22.118-6.465l-19.474 29.723l.997 9.355l105.89-19.513l-6.15-66.163zm-98.745-28.523l16.99-2.336c2.748 1.235 4.66 1.706 7.956 2.544c5.136 1.334 11.074 2.617 19.872-1.814c2.047-1.015 6.314-4.915 8.038-7.14l69.605-12.624l7.1 85.94l-119.252 21.49zm129.293-30.967l-6.871 1.309L224.91 0L0 26.078l27.71 224.856l26.33-3.822c-2.104-3.002-5.378-6.634-10.967-11.282c-7.752-6.44-5.014-17.384-.436-24.294c6.051-11.674 37.23-26.51 35.463-45.168c-.634-6.785-1.71-15.613-8.011-21.669c-.238 2.514.19 4.928.19 4.928s-2.587-3.3-3.874-7.795c-1.279-1.728-2.285-2.277-3.646-4.583c-.971 2.665-.842 5.757-.842 5.757s-2.116-4.997-2.457-9.216c-1.253 1.887-1.568 5.472-1.568 5.472s-2.747-7.878-2.12-12.124c-1.253-3.692-4.972-11.022-3.922-27.676c6.862 4.807 21.975 3.667 27.861-5.01c1.953-2.876 3.296-10.72-.976-26.182c-2.742-9.912-9.532-24.674-12.18-30.276l-.315.23c1.396 4.512 4.272 13.967 5.378 18.558c3.343 13.907 4.237 18.753 2.669 25.167c-1.335 5.576-4.535 9.22-12.646 13.298c-8.111 4.09-18.879-5.865-19.557-6.414c-7.882-6.28-13.98-16.52-14.658-21.5c-.709-5.446 3.14-8.716 5.079-13.168c-2.777.79-5.87 2.202-5.87 2.202s3.693-3.822 8.245-7.126c1.888-1.248 2.993-2.043 4.98-3.693c-2.876-.047-5.213.035-5.213.035s4.798-2.592 9.77-4.48c-3.637-.159-7.122-.025-7.122-.025S48 36.288 56.454 32.777c5.813-2.384 11.492-1.68 14.684 2.937c4.19 6.046 8.59 9.329 17.915 11.363c5.727-2.54 7.464-3.84 14.66-5.805c6.33-6.966 11.302-7.865 11.302-7.865s-2.466 2.264-3.127 5.818c3.59-2.829 7.524-5.191 7.524-5.191s-1.525 1.878-2.946 4.867l.328.493c4.19-2.514 9.113-4.492 9.113-4.492s-1.408 1.78-3.057 4.081c3.161-.026 9.566.134 12.054.415c14.68.324 17.725-15.674 23.357-17.682c7.053-2.518 10.206-4.043 22.226 7.765c10.31 10.141 18.368 28.281 14.365 32.345c-3.356 3.374-9.973-1.317-17.307-10.456c-3.874-4.841-6.806-10.564-8.18-17.837c-1.157-6.138-5.666-9.696-5.666-9.696s2.613 5.83 2.613 10.965c0 2.808.35 13.299 4.85 19.19c-.445.86-.652 4.258-1.145 4.91c-5.234-6.327-16.477-10.853-18.312-12.188c6.206 5.084 20.468 16.762 25.944 27.961c5.183 10.586 2.13 20.291 4.75 22.8c.748.717 11.144 13.674 13.144 20.183c3.49 11.342.207 23.267-4.358 30.66l-12.754 1.987c-1.866-.518-3.123-.777-4.794-1.744c.924-1.633 2.755-5.701 2.772-6.544l-.72-1.26c-3.97 5.622-10.617 11.082-16.14 14.217c-7.23 4.099-15.562 3.464-20.987 1.788c-15.393-4.746-29.952-15.15-33.463-17.885c0 0-.108 2.181.552 2.674c3.879 4.38 12.772 12.296 21.37 17.82l-18.325 2.017l8.664 67.45c-3.84.548-4.44.82-8.642 1.416c-3.706-13.09-10.793-21.638-18.542-26.618c-6.832-4.392-16.256-5.381-25.274-3.593l-.58.674c6.272-.652 13.675.255 21.28 5.07c7.464 4.721 13.48 16.914 15.696 24.251c2.837 9.381 4.798 19.419-2.838 30.056c-5.429 7.563-21.28 11.74-34.09 2.7c3.421 5.502 8.042 9.998 14.27 10.845c9.243 1.257 18.015-.35 24.053-6.548c5.152-5.3 7.89-16.382 7.17-28.052l8.158-1.183l2.946 20.947L256 242.542zm-82.156-56.885c-.376.859-.972 1.425-.082 4.223l.052.16l.143.363l.371.838c1.602 3.278 3.36 6.366 6.306 7.947q1.14-.196 2.367-.255c2.764-.12 4.509.315 5.61.911c.1-.552.12-1.356.06-2.543c-.216-4.151.821-11.208-7.156-14.923c-3.01-1.395-7.235-.967-8.643.778c.255.034.484.086.666.147c2.133.738.69 1.472.306 2.354m22.364 38.724c-1.045-.58-5.934-.35-9.372.06c-6.548.773-13.618 3.04-15.164 4.25c-2.816 2.177-1.538 5.969.544 7.528c5.835 4.358 10.949 7.282 16.343 6.57c3.313-.437 6.237-5.685 8.306-10.444c1.416-3.278 1.416-6.815-.657-7.964m-57.965-33.59c1.844-1.753-9.195-4.055-17.764 1.789c-6.319 4.31-6.522 13.553-.471 18.792a15 15 0 0 0 1.568 1.188a51 51 0 0 1 6.098-2.423c3.913-1.27 7.17-1.927 9.843-2.277c1.279-1.43 2.769-3.947 2.397-8.508c-.51-6.19-5.191-5.209-1.671-8.56"/></svg>