<svg xmlns="http://www.w3.org/2000/svg" xmlns:xlink="http://www.w3.org/1999/xlink" width="256" height="317" viewBox="0 0 256 317"><g fill="#A80030"><path d="M152.797 167.425c-5.251.073.993 2.706 7.848 3.761a70.171 70.171 0 0 0 5.143-4.43c-4.269 1.046-8.614 1.07-12.991.67m28.183-7.026c3.127-4.315 5.406-9.04 6.21-13.926c-.702 3.483-2.593 6.49-4.372 9.663c-9.815 6.18-.923-3.67-.006-7.413c-10.554 13.284-1.45 7.966-1.832 11.677m10.402-27.071c.635-9.455-1.86-6.466-2.7-2.857c.98.508 1.754 6.665 2.7 2.858M132.886 4.088c2.802.503 6.054.888 5.598 1.557c3.066-.672 3.761-1.291-5.598-1.557m5.598 1.557l-1.98.41l1.843-.164l.137-.246"/><path d="M225.866 136.916c.312 8.492-2.484 12.612-5.006 19.905l-4.538 2.268c-3.714 7.211.36 4.579-2.3 10.315c-5.797 5.154-17.593 16.13-21.368 17.132c-2.756-.062 1.867-3.253 2.472-4.503c-7.761 5.33-6.227 8-18.097 11.238l-.347-.771c-29.274 13.771-69.937-13.52-69.402-50.76c-.313 2.364-.889 1.774-1.537 2.73c-1.511-19.16 8.848-38.405 26.319-46.262c17.088-8.46 37.122-4.988 49.362 6.42c-6.724-8.808-20.107-18.144-35.968-17.27c-15.536.245-30.07 10.12-34.921 20.837c-7.96 5.012-8.883 19.318-12.352 21.936c-4.666 34.296 8.778 49.114 31.52 66.544c3.58 2.414 1.009 2.78 1.494 4.617c-7.557-3.539-14.476-8.88-20.165-15.42c3.018 4.419 6.276 8.714 10.487 12.089c-7.124-2.414-16.641-17.264-19.42-17.868c12.281 21.988 49.827 38.562 69.486 30.34c-9.096.335-20.653.186-30.874-3.592c-4.293-2.209-10.13-6.785-9.088-7.641c26.83 10.023 54.546 7.591 77.762-11.02c5.906-4.599 12.358-12.424 14.222-12.532c-2.808 4.222.48 2.03-1.677 5.76c5.885-9.491-2.557-3.864 6.083-16.39l3.191 4.394c-1.186-7.878 9.783-17.444 8.67-29.904c2.516-3.81 2.808 4.1.137 12.866c3.706-9.725.976-11.288 1.929-19.312c1.029 2.697 2.379 5.564 3.071 8.41c-2.414-9.398 2.478-15.826 3.688-21.288c-1.193-.528-3.726 4.156-4.305-6.945c.085-4.822 1.342-2.528 1.827-3.714c-.947-.544-3.43-4.24-4.941-11.33c1.095-1.665 2.927 4.32 4.418 4.565c-.959-5.637-2.61-9.935-2.677-14.26c-4.354-9.099-1.54 1.213-5.073-3.906c-4.634-14.456 3.846-3.355 4.419-9.924c7.024 10.178 11.03 25.951 12.868 32.485c-1.402-7.966-3.67-15.683-6.437-23.149c2.133.897-3.436-16.39 2.773-4.94c-6.633-24.406-28.388-47.21-48.401-57.91c2.449 2.24 5.54 5.055 4.43 5.496c-9.953-5.926-8.202-6.388-9.628-8.892c-8.109-3.299-8.64.266-14.012.006c-15.282-8.106-18.227-7.244-32.291-12.322l.64 2.99c-10.125-3.373-11.797 1.279-22.74.01c-.666-.52 3.507-1.881 6.94-2.38c-9.789 1.29-9.33-1.93-18.909.356c2.361-1.657 4.857-2.753 7.376-4.161c-7.983.485-19.058 4.646-15.64.862c-13.02 5.809-36.145 13.964-49.122 26.132l-.41-2.727c-5.945 7.14-25.93 21.32-27.522 30.565l-1.59.371c-3.094 5.24-5.096 11.177-7.55 16.568c-4.047 6.896-5.932 2.654-5.356 3.735c-7.96 16.138-11.914 29.7-15.33 40.821c2.435 3.638.059 21.9.98 36.517c-3.998 72.187 50.662 142.275 110.41 158.458c8.757 3.132 21.78 3.012 32.858 3.334c-13.07-3.738-14.76-1.981-27.49-6.42c-9.185-4.325-11.198-9.263-17.702-14.908l2.574 4.55c-12.758-4.515-7.42-5.588-17.798-8.875l2.75-3.591c-4.135-.313-10.953-6.97-12.817-10.654l-4.523.178c-5.435-6.706-8.331-11.54-8.12-15.282l-1.462 2.603c-1.657-2.843-19.995-25.15-10.481-19.957c-1.768-1.616-4.117-2.63-6.665-7.259l1.937-2.215c-4.579-5.89-8.427-13.441-8.135-15.957c2.443 3.299 4.138 3.915 5.815 4.48c-11.563-28.69-12.211-1.581-20.969-29.204l1.853-.149c-1.42-2.139-2.282-4.462-3.425-6.74l.807-8.037c-8.325-9.625-2.33-40.926-1.128-58.093c.832-6.98 6.948-14.412 11.6-26.065l-2.834-.488c5.417-9.45 30.933-37.952 42.75-36.485c5.724-7.19-1.137-.026-2.256-1.838c12.573-13.012 16.527-9.193 25.013-11.533c9.151-5.432-7.855 2.118-3.516-2.072c15.82-4.041 11.212-9.187 31.85-11.238c2.178 1.239-5.051 1.914-6.866 3.521c13.181-6.449 41.712-4.982 60.244 3.58c21.504 10.049 45.663 39.754 46.616 67.704l1.084.292c-.55 11.11 1.7 23.958-2.198 35.76l2.654-5.587"/><path d="m95.483 174.634l-.736 3.682c3.45 4.687 6.189 9.765 10.595 13.43c-3.17-6.19-5.525-8.746-9.859-17.112m8.159-.321c-1.827-2.02-2.908-4.45-4.117-6.873c1.157 4.257 3.526 7.916 5.733 11.636l-1.616-4.763m144.361-31.377l-.771 1.934c-1.414 10.046-4.468 19.987-9.15 29.203c5.173-9.725 8.519-20.36 9.921-31.137M133.923 1.57c3.55-1.301 8.728-.714 12.495-1.57c-4.91.412-9.795.657-14.62 1.28l2.125.29M9.282 67.847c.819 7.574-5.698 10.514 1.444 5.52c3.828-8.623-1.496-2.381-1.444-5.52M.89 102.9c1.645-5.049 1.943-8.082 2.572-11.004C-1.085 97.708 1.37 98.946.89 102.9"/></g></svg>