<svg xmlns="http://www.w3.org/2000/svg" xmlns:xlink="http://www.w3.org/1999/xlink" width="512" height="239" viewBox="0 0 512 239"><path fill="#353535" d="M130.873 0h24.007v193.077h-24.007v-17.82c-14.07 13.909-33.179 22.175-53.392 22.175c-26.409 0-61.267-16.137-73.27-55.743c-1.154-3.665-2.197-8.625-2.4-11.09c-1.377-16.629-.746-17.762 0-23.565C7.903 59.618 46.27 40.2 77.48 40.2c14.933 0 28.519 4.11 39.995 11.089l-3.363 22.079c-9.601-8.115-22.084-13.364-36.632-13.364c-31.21 0-56.465 26.04-56.465 58.22c0 29.701 22.853 59.406 56.465 59.406c22.182 0 44.365-13.957 53.392-36.835V0m106.474 40.649c-31.371 0-71.796 18.793-76.061 65.409c-.525 5.743-1.032 11.91 0 23.062c.224 2.413 1.254 7.268 2.413 10.855c12.067 38.76 47.103 54.554 73.648 54.554c41.023 0 77.222-32.752 77.222-77.52c0-41.185-32.626-76.36-77.222-76.36Zm0 134.5c-33.785 0-56.756-29.072-56.756-58.14c0-31.495 25.385-56.98 56.756-56.98c34.943 0 57.916 29.072 57.916 56.98c0 35.079-28.957 58.14-57.916 58.14Z"/><path fill="#8C8C8C" d="M273.92 17.025c0 2.442-1.317 2.442-2.534 3.3h-65.833c0-.858-1.316-.858-1.316-3.3c0-1.65 1.316-1.65 2.533-2.507h65.833c0 .857 1.317.857 1.317 2.507"/><path fill="#353535" d="M328.296 6.376h19.267v28.946h-19.267V6.376Zm19.267 176.905c1.346 23.061-28.322 54.8-28.322 54.8l-12.572-17.554c16.33-11.58 21.435-29.917 21.82-38.453l-.193-137.104h19.267v138.311m87.215-142.632c-31.37 0-71.795 18.792-76.06 65.409c-.526 5.742-1.033 11.909 0 23.062c.224 2.413 1.254 7.268 2.414 10.854c12.064 38.76 47.103 54.556 73.646 54.556c41.025 0 77.222-32.753 77.222-77.523c0-41.184-32.625-76.358-77.222-76.358Zm0 134.498c-33.783 0-56.753-29.07-56.753-58.14c0-31.494 25.383-56.98 56.753-56.98c34.945 0 57.917 29.073 57.917 56.98c0 35.081-28.959 58.14-57.917 58.14Z"/><path fill="#8C8C8C" d="M468.45 17.025c0 2.442-1.316 2.442-2.533 3.3h-65.834c0-.858-1.316-.858-1.316-3.3c0-1.65 1.316-1.65 2.532-2.507h65.835c0 .857 1.315.857 1.315 2.507"/></svg>