<svg xmlns="http://www.w3.org/2000/svg" xmlns:xlink="http://www.w3.org/1999/xlink" width="256" height="256" viewBox="0 0 256 256"><path fill="#512BD4" d="M0 0h256v256H0z"/><path fill="#FFF" d="M45.627 163.555c-1.81 0-3.348-.603-4.615-1.809c-1.267-1.237-1.901-2.707-1.901-4.408c0-1.732.634-3.216 1.9-4.454c1.268-1.237 2.806-1.856 4.616-1.856c1.84 0 3.394.619 4.661 1.856c1.298 1.238 1.946 2.722 1.946 4.454c0 1.701-.648 3.17-1.946 4.408c-1.267 1.206-2.82 1.81-4.66 1.81Zm72.361-1.02h-11.765L75.225 113.63a21.882 21.882 0 0 1-1.946-3.85h-.272l.047.305l.043.35l.04.393l.038.436l.049.736l.042.832l.035.93l.028 1.028l.02 1.125l.01.805l.01 2.2v43.614H62.961V96h12.535l29.957 47.743l.74 1.169l.477.768l.408.675l.34.583l.19.338l.16.296l.13.255h.18l-.034-.21l-.064-.45l-.06-.493l-.053-.537a35.943 35.943 0 0 1-.024-.285l-.046-.602l-.04-.645l-.035-.69l-.042-1.114l-.03-1.212l-.018-1.31l-.006-1.407V96h10.362v66.535Zm50.685 0h-36.428V96h34.98v9.373h-24.21v18.837h22.31v9.326h-22.31v19.673h25.658v9.326Zm51.772-57.162H201.8v57.162h-10.77v-57.162h-18.6V96h48.014v9.373Z"/></svg>