<svg xmlns="http://www.w3.org/2000/svg" xmlns:xlink="http://www.w3.org/1999/xlink" width="512" height="683" viewBox="0 0 512 683"><defs><radialGradient id="logosDrizzle0" cx="49.99%" cy="50%" r="55.431%" fx="49.99%" fy="50%" gradientTransform="matrix(.82793 0 0 1 .086 0)"><stop offset="0%" stop-color="#5E464D"/><stop offset="100%" stop-color="#5E464D"/></radialGradient></defs><path fill="url(#logosDrizzle0)" d="M504.395 242.484c0-128.505-120.434-233.315-248.938-233.315c-128.505 0-248.99 105.147-248.99 233.651C6.467 243.156 0 361.056 0 361.056c1.345 37.971 128.246 72.012 255.922 72.012c128.53 0 256.078-34.04 256.078-72.012c-.103 0-7.605-117.253-7.605-118.572Z"/><path fill="#FFF" d="M117.356 264.522a287.919 287.919 0 0 0-5.561-42.059a293.894 293.894 0 0 0-10.916-39.213c-2.328-6.26-4.656-12.416-7.346-18.34c-2.69-5.923-9.57-23.564-10.605-26.513c-1.035-2.948-2.354-5.82-3.7-8.639a182.1 182.1 0 0 0-8.639-16.529l-.44-.75a22.607 22.607 0 0 1 26.384-32.773l2.587.828l2.302.776l4.63 1.475a375.075 375.075 0 0 1 8.64 3.31a362.438 362.438 0 0 1 16.71 7.32a345.394 345.394 0 0 1 31.996 17.176a318.157 318.157 0 0 1 57.708 44.62a273.098 273.098 0 0 1 42.562 53.582c.933 1.538-1.2 3.338-1.115 1.068a254.63 254.63 0 0 0-4.458-57.858a228.97 228.97 0 0 0-21.055-60.786a243.144 243.144 0 0 0-37.067-52.974l-.31-.31A22.659 22.659 0 0 1 219.347.192l1.94.259l1.578.233l3.026.517c1.966.336 3.906.698 5.82 1.112c3.803.776 7.553 1.656 11.252 2.587a291.674 291.674 0 0 1 21.857 6.492a325.244 325.244 0 0 1 115.804 68.805a330.495 330.495 0 0 1 57.113 69.606a382.823 382.823 0 0 1 6.13 10.384c.07.122-.005.436-.024.037a115.395 115.395 0 0 0-3.08-21.62a122.969 122.969 0 0 0-8.25-22.918a142.395 142.395 0 0 0-12.934-21.728a183.988 183.988 0 0 0-17.02-20.02a248.317 248.317 0 0 0-20.02-18.107a195.731 195.731 0 0 1 24.987 11.433a168.83 168.83 0 0 1 23.641 15.287a146.016 146.016 0 0 1 21.133 19.917a136.575 136.575 0 0 1 17.15 24.547a147.439 147.439 0 0 1 17.227 59.053c.51 5.16.51 10.36 0 15.52a125.685 125.685 0 0 1-2.975 15.287c-1.164 5.173-2.38 10.062-3.906 15.054a77.827 77.827 0 0 1-2.586 7.502l-1.268 3.724l-.828 1.992l-1.06 2.406a22.556 22.556 0 0 1-42.085-1.81l-.207-.673a338.152 338.152 0 0 0-32.928-71.366a283.962 283.962 0 0 0-49.12-59.88a279.022 279.022 0 0 0-75.649-49.896c-.383-.172 2.28 4.138 3.456 6.414a275.09 275.09 0 0 1 25.22 72.814a299.895 299.895 0 0 1 5.07 76.41a316.89 316.89 0 0 1-4.657 37.92c-1.19 6.285-2.586 12.519-4.138 18.778a189.48 189.48 0 0 1-2.587 9.416l-1.5 4.76l-.802 2.586l-1.009 2.845a22.633 22.633 0 0 1-43.3-2.12l-.155-.648a213.217 213.217 0 0 0-22.608-56.75a226.46 226.46 0 0 0-37.868-48.578a273.563 273.563 0 0 0-49.508-38.153a300.414 300.414 0 0 0-7.812-4.588c.304.008.875-.65.944-.1c.42 3.315.715 6.656 1.048 9.94c.62 7.76.957 15.364.853 22.969a249.533 249.533 0 0 1-4.656 44.62c-1.448 7.242-3.181 14.381-5.328 21.39a161.251 161.251 0 0 1-7.372 20.668Z"/><path fill="#E911BD" d="M117.356 264.522a263.837 263.837 0 0 0 0-41.93a287.272 287.272 0 0 0-6.13-40.946a256.92 256.92 0 0 0-5.38-19.762c-2.07-6.466-4.579-12.752-6.7-19.141a244.53 244.53 0 0 0-3.31-9.545c-1.165-3.155-2.588-6.234-3.984-9.26c-2.742-6.13-6.001-12.002-9.312-17.822l-.155-.259a8.796 8.796 0 0 1 3.285-12.002a8.691 8.691 0 0 1 6.958-.776c6.027 1.837 11.277 3.829 16.787 6.027c5.51 2.199 10.735 4.527 15.985 6.984a332.927 332.927 0 0 1 30.678 16.503a303.154 303.154 0 0 1 55.277 42.602a257.449 257.449 0 0 1 43.041 55.225a244.618 244.618 0 0 1 17.128 36.44c.042-.072-.552-.683-.521-.569c.31-1.514.611-3.03.905-4.547a285.747 285.747 0 0 0 4.19-34.118a267.666 267.666 0 0 0-4.345-68.339a243.144 243.144 0 0 0-22.323-64.459a256.905 256.905 0 0 0-39.214-56a8.82 8.82 0 0 1 7.76-14.693c4.087.517 7.476 1.164 11.123 1.914c3.647.75 7.14 1.552 10.657 2.587a215.067 215.067 0 0 1 20.693 6.182a310.604 310.604 0 0 1 110.734 65.727a316.346 316.346 0 0 1 54.682 66.683A368.105 368.105 0 0 1 453 210.966c3.248 7.997-1.134 3.657-.339-.53c1.527-8.33 2.406-16.71 3.182-25.143a123.667 123.667 0 0 0-6.363-50.232a134.505 134.505 0 0 0-26.41-44.516a199.56 199.56 0 0 0-40.61-34.61a194.903 194.903 0 0 1 45.137 30.16a140.144 140.144 0 0 1 33.057 44.517a138.722 138.722 0 0 1 12.468 55.173c.142 4.766-.04 9.536-.543 14.278c-.544 4.734-1.449 9.415-2.432 14.071a162.13 162.13 0 0 1-3.57 13.839c-.69 2.276-1.44 4.552-2.25 6.829c-.853 2.328-1.63 4.397-2.82 7.01a8.82 8.82 0 0 1-16.373-.803v-.18a350.36 350.36 0 0 0-34.299-74.315a298.628 298.628 0 0 0-51.732-62.985a292.808 292.808 0 0 0-104.5-62.079a267.846 267.846 0 0 0-14.92-4.59c-1.517-.418-4.927-6.806.347.14a275.063 275.063 0 0 1 25.152 39.784a261.25 261.25 0 0 1 23.952 69.14a287.117 287.117 0 0 1 4.63 72.866a300.05 300.05 0 0 1-4.475 36.213a286.092 286.092 0 0 1-3.906 17.874a284.826 284.826 0 0 1-2.457 8.898c-.88 2.975-1.759 5.794-2.949 9.053a8.846 8.846 0 0 1-16.865-.905v-.207a227.96 227.96 0 0 0-24.107-60.424a239.368 239.368 0 0 0-40.093-51.422a287.117 287.117 0 0 0-51.94-40.145a313.139 313.139 0 0 0-38.42-19.723c-.012.033.024-.135.012-.105a245.73 245.73 0 0 1 7.834 18.923a128.065 128.065 0 0 1 5.173 21.262c1.268 7.165 2.173 14.356 2.82 21.546a256.57 256.57 0 0 1 0 42.99a240.787 240.787 0 0 1-2.587 21.185a181.401 181.401 0 0 1-4.449 20.72Z"/><path fill="#5E464D" d="M291.308 527.661a7.76 7.76 0 0 1 7.035-.258a6.13 6.13 0 0 1 2.587 5.768a14.382 14.382 0 0 1-1.959 7.121l-.395.639l-46.947 74.443l43.093-17.848l52.095-21.624a7.76 7.76 0 0 1 7.036-.233a6.104 6.104 0 0 1 2.586 5.743a14.382 14.382 0 0 1-1.958 7.121l-.396.639l-46.947 74.469l43.093-17.874a5.561 5.561 0 0 1 5.174 0a4.48 4.48 0 0 1 2.355 4.035a9.973 9.973 0 0 1-2.097 5.898a11.873 11.873 0 0 1-4.558 3.84l-.615.273l-52.328 21.676a10.347 10.347 0 0 1-7.527.776a4.915 4.915 0 0 1-3.026-5.173c.06-2.621.82-5.174 2.196-7.396l.39-.597l48.293-75.504l-42.42 17.563l-53.544 22.193a10.347 10.347 0 0 1-7.553.776a4.915 4.915 0 0 1-3.027-5.173c.06-2.62.821-5.173 2.197-7.395l.39-.598l48.396-75.504l-42.421 17.564c-1.62.85-3.554.85-5.173 0a4.423 4.423 0 0 1-2.018-4.19c.04-2.145.745-4.224 2.018-5.95a11.226 11.226 0 0 1 4.55-3.92l.623-.27l50.802-21.03Zm159.26 14.46a39.007 39.007 0 0 1 21.468 5.768a37.584 37.584 0 0 1 13.761 15.52a47.465 47.465 0 0 1 4.677 19.746l.005 1.283a7.32 7.32 0 0 1-7.76 7.553h-56.906a27.418 27.418 0 0 0 8.743 18.21c4.718 4.172 11.248 6.365 19.635 6.534l1.058.01a47 47 0 0 0 22.633-5.173a6.829 6.829 0 0 1 3.027-.673a6.725 6.725 0 0 1 4.681 1.837a6.104 6.104 0 0 1 2.018 4.708a7.19 7.19 0 0 1-4.346 6.182a58.82 58.82 0 0 1-12.933 5.535a59.933 59.933 0 0 1-14.916 1.882l-1.509-.02c-13.623-.017-24.263-3.914-31.92-11.691c-7.656-7.76-11.484-18.684-11.484-32.773a54.32 54.32 0 0 1 4.372-21.96a37.222 37.222 0 0 1 13.398-16.27a38.541 38.541 0 0 1 22.297-6.208ZM98.37 506.063a7.087 7.087 0 0 1 5.354 2.276a7.45 7.45 0 0 1 2.199 5.432v108.846a7.19 7.19 0 0 1-2.199 5.354a7.268 7.268 0 0 1-5.354 2.173a7.76 7.76 0 0 1-5.458-2.173a7.14 7.14 0 0 1-2.25-5.354v-4.397a38.517 38.517 0 0 1-28.583 12.778a39.064 39.064 0 0 1-19.787-5.303a39.912 39.912 0 0 1-15.106-15.52a51.733 51.733 0 0 1 0-47.439a39.99 39.99 0 0 1 15.106-15.52a39.291 39.291 0 0 1 19.684-5.173a38.515 38.515 0 0 1 28.686 12.752v-41.024a7.424 7.424 0 0 1 2.25-5.535a7.76 7.76 0 0 1 5.458-2.173Zm76.384 36.056a7.016 7.016 0 0 1 5.173 2.174a7.475 7.475 0 0 1 2.095 5.38a6.777 6.777 0 0 1-2.173 5.174a7.89 7.89 0 0 1-4.982 1.992h-1.38a28.453 28.453 0 0 0-14.77 3.957a33.885 33.885 0 0 0-11.046 10.864v50.957a7.087 7.087 0 0 1-2.276 5.354a7.527 7.527 0 0 1-4.926 2.165l-.506.008a7.346 7.346 0 0 1-5.458-2.173a7.268 7.268 0 0 1-2.172-5.354v-71.935a7.553 7.553 0 0 1 2.172-5.457a7.217 7.217 0 0 1 5.38-2.277a7.424 7.424 0 0 1 5.433 2.277a7.346 7.346 0 0 1 2.276 5.457v7.191c7.811-10.502 16.589-15.754 26.332-15.754h.828Zm34.96 3.013a7.476 7.476 0 0 1 2.186 5.057l-.002 72.428a7.087 7.087 0 0 1-2.276 5.354a7.527 7.527 0 0 1-5.432 2.173a7.294 7.294 0 0 1-5.38-2.173a7.268 7.268 0 0 1-2.225-5.354v-71.935a7.553 7.553 0 0 1 2.173-5.457a7.19 7.19 0 0 1 5.38-2.277a7.475 7.475 0 0 1 5.576 2.184Zm177.383-36.903a7.424 7.424 0 0 1 2.167 5.594v108.794a7.087 7.087 0 0 1-2.276 5.354a7.527 7.527 0 0 1-5.432 2.173c-2.034.06-4-.728-5.432-2.173a7.268 7.268 0 0 1-2.173-5.354V513.77a7.527 7.527 0 0 1 2.173-5.432a7.14 7.14 0 0 1 4.873-2.269l.507-.007a7.424 7.424 0 0 1 5.593 2.166ZM44.206 564.262c-5.018 5.173-7.553 12.675-7.553 22.297s2.586 17.046 7.553 22.297a26.41 26.41 0 0 0 19.969 7.89a31.842 31.842 0 0 0 14.485-3.441a41.723 41.723 0 0 0 12.002-9.157v-35.075a41.18 41.18 0 0 0-12.002-9.13a31.531 31.531 0 0 0-14.485-3.44a26.41 26.41 0 0 0-19.97 7.76Zm395.135-6.7a22.478 22.478 0 0 0-9.208 8.123a27.186 27.186 0 0 0-4.19 13.735h49.456a26.979 26.979 0 0 0-4.268-13.735a23.28 23.28 0 0 0-9.312-8.122a25.478 25.478 0 0 0-22.478 0ZM204.836 508.52a8.278 8.278 0 0 1 5.68 2.216l.373.37a8.148 8.148 0 0 1 2.587 6.028v.672a8.148 8.148 0 0 1-2.215 5.657l-.372.37a8.278 8.278 0 0 1-6.053 2.587h-.983a8.278 8.278 0 0 1-5.679-2.216l-.373-.371a8.148 8.148 0 0 1-2.587-6.027v-.672a8.148 8.148 0 0 1 2.215-5.657l.372-.37a8.278 8.278 0 0 1 6.052-2.587h.983Z"/></svg>