<svg xmlns="http://www.w3.org/2000/svg" xmlns:xlink="http://www.w3.org/1999/xlink" width="512" height="94" viewBox="0 0 512 94"><path fill="#0051FF" d="M355.586 0c6.666 0 13.768 2.289 20.562 6.362l1.13.695l48.372 30.792L480.892.93h28.001L439.99 46.98L512 92.819h-30.769l-57.607-36.655l-54.79 36.654h-28.05l68.469-45.801l-42.99-27.355c-3.217-2.058-6.306-3.776-10.096-3.996l-.824-.024c-6.553 0-12.19 4.255-12.506 12.86l-.014.77v39.225c0 16.67-7.669 25.202-21.598 25.202c-8.188 0-15.16-3.645-21.783-10.81l-.734-.811l-56.882-63.839c-1.891-2.009-3.346-2.647-4.948-2.647c-2.68 0-4.786 1.69-4.98 5.283l-.015.553v51.14c0 14.119-7.283 21.131-19.414 21.131c-6.7 0-12.46-2.79-16.645-7.99l-.537-.691l-9.94-13.335h-46.21v21.138h-16.353v-71.15C122.784 7.598 130.404 0 142.388 0c5.214 0 11.064 1.79 17.107 9.504l.605.791l49.12 65.853c1.015 1.324 2.13 1.915 3.25 1.915c1.584 0 2.874-1.112 3.038-3.293l.018-.484v-50.9C215.526 7.749 225.086 0 236.491 0c7.56 0 14.178 3.763 19.29 9.196l.607.66l57.508 64.623c2.427 2.647 4.662 3.678 6.7 3.678c3.2 0 5.65-2.288 5.856-6.264l.014-.553V30.892C326.466 9.906 338.211 0 355.586 0Zm-213.73 15.636c-1.321 0-2.554.906-2.703 3.162l-.015.469v37.708h35.242l-29.468-39.523c-.862-1.133-1.647-1.686-2.664-1.796l-.393-.02ZM80.317.934c18.055 0 27.612 9.803 27.612 23.387c0 8.267-4.54 15.273-11.937 19.6l-.23.13l.29.118c9.926 4.223 14.887 11.509 14.887 21.043c0 15.15-10.772 27.606-30.086 27.606H47.268V.934h33.05ZM76.63 53.297H63.67v23.88h12.96c12.521 0 17.47-5.64 17.47-12.554c0-6.913-5.048-11.326-17.47-11.326Zm.387-36.774H63.672v22.064h11.841c10.386 0 16.356-4.61 16.356-11.473c0-6.324-4.465-10.59-14.851-10.59ZM34.552.931v15.592H16.356v22.064h16.4v14.71h-16.4v23.88h18.196v15.638H0V.931h34.552Z"/></svg>