<svg xmlns="http://www.w3.org/2000/svg" xmlns:xlink="http://www.w3.org/1999/xlink" width="512" height="232.727" viewBox="0 0 512 232.727"><path fill="#4D4D4D" d="M433.667 115.238c0 35.333-14.167 41.666-30.002 41.666H370V73.571h33.666c15.835 0 30.002 6.334 30.002 41.667Zm-17.167.004c0-24.667-7.5-25.833-18.333-25.833h-10.499v51.666h10.5c10.833 0 18.332-1.167 18.332-25.833Zm-178.336 41.662V73.571h53.001v15.834h-35.334v17h26.666v15.666h-26.666v19h35.334v15.833h-53ZM320 232.727h17.455V0H320v232.727ZM468.995 119.91v21.166h14.668c9.166 0 11.5-6 11.5-10.5c0-3.5-1.668-10.666-14.168-10.666h-12Zm0-30.502v15.833h12c6.833 0 10.833-3 10.833-8s-4-7.833-10.833-7.833h-12ZM451.334 73.57h33.998c17.836 0 23.168 12.5 23.168 21.5c0 8.334-5.332 14.334-9 16c10.667 5.167 12.5 15.667 12.5 21c0 7-3.5 24.833-26.668 24.833h-33.998V73.571Zm-314.665 41.667c0 35.333-14.167 41.666-30 41.666H73.002V73.571h33.667c15.833 0 30 6.334 30 41.667Zm51.997 26.507c9 0 13.666-3 15.333-5v-9.166h-14.334v-14.334h28.5v33.167c-2.5 3.833-16.166 11.333-28.666 11.333c-20.5 0-37.833-8-37.833-43.333s17.5-41.666 33.333-41.666c24.833 0 31 13 33 24.5l-14.667 3.333c-.833-5.334-5.5-12-16.166-12c-10.834 0-18.334 1.166-18.334 25.833c0 24.667 7.834 27.333 19.834 27.333ZM119.5 115.242c0-24.667-7.5-25.833-18.333-25.833h-10.5v51.666h10.5c10.833 0 18.333-1.167 18.333-25.833ZM0 156.904V73.571h53v15.834H17.667v17h26.666v15.666H17.667v19H53v15.833H0Z"/></svg>