<svg xmlns="http://www.w3.org/2000/svg" xmlns:xlink="http://www.w3.org/1999/xlink" width="256" height="256" viewBox="0 0 256 256"><circle cx="128" cy="128" r="128" fill="#F05537"/><path fill="#FFF" d="M117.475 82.729c19.297-4.288 38.595 3.574 49.315 18.582L81.502 120.61c2.859-18.345 16.676-33.592 35.973-37.88Zm49.792 70.756c-6.671 9.768-16.915 16.677-28.589 19.297c-19.297 4.288-38.832-3.573-49.553-18.82l85.527-19.298l13.818-3.097l26.682-5.956c-.238-5.717-.953-11.435-2.144-16.914c-10.72-45.98-57.653-74.806-104.586-64.086c-46.932 10.72-76.235 56.462-65.276 102.68c10.959 46.218 57.653 74.806 104.585 64.085c27.636-6.194 49.077-24.776 60.036-48.361l-40.5-9.53Z"/></svg>