<svg xmlns="http://www.w3.org/2000/svg" xmlns:xlink="http://www.w3.org/1999/xlink" width="512" height="92" viewBox="0 0 512 92"><path fill="#F05537" d="M24.21 31.24c16.814-3.842 33.629 6.486 37.47 22.959c.379 1.745.623 3.557.733 5.377l.035.683l-9.56 2.134l-4.95 1.11l-30.642 6.913c3.841 5.462 10.84 8.28 17.754 6.743c4.055-.91 7.63-3.266 10.021-6.599l.22-.315l14.51 3.414c-3.925 8.45-11.607 15.108-21.508 17.327c-16.814 3.84-33.544-6.402-37.47-22.96C-3.103 51.468 7.395 35.08 24.21 31.239Zm449.552.084c16.814-3.84 33.629 6.487 37.47 22.96c.38 1.745.624 3.558.733 5.378l.035.682l-9.56 2.134l-4.95 1.11l-30.642 6.913c3.841 5.463 10.84 8.28 17.754 6.743c4.055-.91 7.63-3.265 10.021-6.598l.221-.315l14.51 3.328c-3.926 8.45-11.608 15.108-21.509 17.327c-16.814 3.84-33.629-6.487-37.47-22.96c-3.926-16.473 6.573-32.86 23.387-36.702Zm-332.107 0c16.814-3.84 33.544 6.487 37.47 22.96c.38 1.745.624 3.558.733 5.378l.035.682l-9.56 2.134l-4.95 1.11l-30.642 6.913a17.106 17.106 0 0 0 17.754 6.743c4.182-.939 7.852-3.414 10.242-6.913l10.258 2.315c2.39.547 4.252.983 4.252 1.013c-3.926 8.45-11.608 15.108-21.509 17.327c-16.814 3.84-33.629-6.487-37.47-22.96c-3.926-16.473 6.573-32.86 23.387-36.702ZM300.923 0v35.848c4.78-3.84 10.413-5.462 16.644-5.462c17.582 0 31.666 13.57 31.666 30.556c0 16.9-14.084 30.727-31.666 30.727c-6.146 0-11.864-1.622-16.644-5.463v3.841h-15.449V3.499L300.923 0Zm68.538 31.41v5.206c4.68-3.343 9.197-4.558 16.835-5.008l.492-.028v15.023c-14.957.507-17.281 5.53-17.326 14.41v29.034h-15.45V31.41h15.45ZM268.574 7.34v24.07h12.035v14.595h-12.035v44.042h-16.046V46.005h-9.474V31.41h9.474V10.925l16.046-3.585Zm-53.26 22.96c13.06 0 24.411 7.511 24.411 25.862v33.8h-15.534v-31.24c0-11.112-5.89-13.718-11.903-13.823l-.388-.004l-.388.004c-6.013.097-11.903 2.538-11.903 13.568v31.58h-15.448V31.41h15.448v4.353l1.147-.824c3.21-2.268 7.258-4.639 14.558-4.639ZM74.568 31.41L89.76 71.184l15.363-39.774h16.815l-24.07 58.637H81.823L57.753 31.41h16.815Zm333.046 0v58.637h-15.45V31.41h15.45Zm31.153-20.485V31.41h12.035v14.85h-12.035v43.7h-16.046V46.347h-9.474V31.41h9.474V10.925h16.046ZM317.481 44.47c-9.132 0-16.558 7.255-16.9 15.705v1.45c.427 8.536 7.853 15.705 16.9 15.705c9.218 0 16.815-7.51 16.815-16.473c0-8.79-7.597-16.387-16.815-16.387Zm146.636 13.998l30.556-6.914c-4.011-5.548-11.01-8.194-17.668-6.658c-6.802 1.512-11.62 6.907-12.831 13.258l-.057.314l30.556-6.914l-30.556 6.914Zm-332.107 0l30.556-6.914c-3.84-5.377-10.754-8.194-17.668-6.658c-6.803 1.512-11.706 6.91-12.836 13.263l-.052.309l30.556-6.914l-30.556 6.914Zm-117.445 0l30.556-6.914c-3.84-5.377-10.754-8.194-17.668-6.658c-6.804 1.512-11.706 6.827-12.836 13.26l-.052.312l30.556-6.914l-30.556 6.914ZM399.932 1.366c5.548 0 9.645 4.097 9.645 9.474c0 5.462-4.182 9.645-9.645 9.645c-5.548 0-9.816-4.183-9.816-9.645c0-5.463 4.268-9.474 9.816-9.474Z"/></svg>