<svg xmlns="http://www.w3.org/2000/svg" xmlns:xlink="http://www.w3.org/1999/xlink" width="256" height="256" viewBox="0 0 256 256"><path d="M34.133 0h187.734C240.717 0 256 15.283 256 34.133v187.734c0 18.85-15.283 34.133-34.133 34.133H34.133C15.283 256 0 240.717 0 221.867V34.133C0 15.283 15.283 0 34.133 0z" fill="#222"/><path d="M49.75 155.127c0 11.068 5.64 21.287 15.261 26.787l16.96 9.864v-37.862l-32.222-18.76v19.971zM82.06 64.21l-17.015 9.877c-9.621 5.5-15.3 15.719-15.3 26.787v19.195l32.222 18.757V101.75L114.816 83L82.061 64.21zm13.718 97.212v37.862l17.14 9.967c9.527 5.444 20.79 5.444 30.318 0l16.99-9.967v-37.325l-31.752 18.488l-32.696-19.025zm78.26 30.357l16.96-9.864c9.62-5.504 15.261-15.723 15.261-26.787v-19.434l-32.222 18.76v37.325zm-13.21-135.053L143.38 46.75a31.004 31.004 0 0 0-30.758 0l-17.348 9.916l32.78 18.79l32.773-18.73zm30.114 17.361l-17.016-9.813l-32.64 18.744l32.743 18.743v37.602l32.222-18.756v-19.733c.004-11.068-5.688-21.287-15.31-26.787zm-95.164 35.256v36.983l32.691 19.03l31.753-18.492v-37.525l-32.175-18.782l-32.269 18.786z" fill="#FFF"/></svg>