<svg xmlns="http://www.w3.org/2000/svg" xmlns:xlink="http://www.w3.org/1999/xlink" width="256" height="256" viewBox="0 0 256 256"><defs><linearGradient x1="0%" y1=".266%" x2="100%" y2="99.734%" id="ssvg-id-foresta"><stop stop-color="#9BCD98" offset="0%"/><stop stop-color="#45B271" offset="100%"/></linearGradient></defs><rect fill="url(#ssvg-id-foresta)" width="256" height="256" rx="32"/><path d="M135.82 90.243c30.924-2.408 49.617-17.626 55.441-37.908c-40.81 19.432-91.732-4.34-101.37 38.597l-4.94 22.89c8.594-13.781 19.947-21.17 50.87-23.579zm-16.079 3.898c-15.198 2.263-27.39 9.55-34.231 22.347c-2.203 4.118-2.977 8.543-2.977 8.543l-3.497 16.202c4.381-8.073 12.216-18.392 32.75-23.302c.461-2.569 3.265-17.296 7.955-23.79zm-43.896 61.876l-5.341 24.748c14.152-27.848 44.608-33.253 48.37-34.065c26.52-5.732 39.29-19.34 44.367-37.026c-23.141 13.524-77.157-3.457-87.396 46.343zm-7.914 36.672L64 210.903c31.364-1.825 34.824-32.975 39.941-57.72c-9.758 3.52-31.263 17.314-36.01 39.506z" fill="#FFF"/></svg>