<svg xmlns="http://www.w3.org/2000/svg" xmlns:xlink="http://www.w3.org/1999/xlink" width="512" height="56.481" viewBox="0 0 512 56.481"><path fill="#0081FF" d="M157.867 55.932h-5.858V18.194h23.564v5.335h-17.706v11.586h16.215v5.178h-16.215v15.639Zm36.666-4.446c4.865 0 7.637-3.609 7.637-9.807c0-6.172-2.772-9.781-7.637-9.781c-4.89 0-7.636 3.609-7.636 9.78c0 6.225 2.746 9.808 7.636 9.808Zm0 4.995c-8.343 0-13.442-5.57-13.442-14.802c0-9.18 5.126-14.776 13.442-14.776c8.29 0 13.416 5.596 13.416 14.776c0 9.232-5.099 14.802-13.416 14.802Zm44.172-29.03v28.481h-5.414v-4.525h-.444c-1.386 3.244-4.289 5.074-8.604 5.074c-6.303 0-9.808-3.844-9.808-10.54v-18.49h5.623v17.026c0 4.603 1.857 6.8 5.99 6.8c4.55 0 7.034-2.694 7.034-7.166V27.45h5.623Zm8.16 28.481v-28.48h5.413v4.524h.419c1.386-3.164 4.21-5.073 8.5-5.073c6.354 0 9.859 3.818 9.859 10.591v18.438h-5.623V38.907c0-4.577-1.988-6.852-6.146-6.852c-4.158 0-6.8 2.772-6.8 7.218v16.659h-5.622Zm42.498.47c-7.244 0-11.821-5.7-11.821-14.723c0-8.997 4.629-14.698 11.82-14.698c3.897 0 7.193 1.857 8.736 4.995h.418v-15.64h5.623v39.596h-5.387v-4.498h-.445c-1.7 3.112-5.021 4.969-8.944 4.969Zm1.595-24.374c-4.734 0-7.61 3.662-7.61 9.65c0 6.042 2.85 9.677 7.61 9.677c4.734 0 7.663-3.687 7.663-9.65c0-5.937-2.955-9.677-7.663-9.677ZM321.87 51.67c4.237 0 7.375-2.694 7.375-6.224v-2.38l-6.956.444c-3.923.262-5.701 1.596-5.701 4.106c0 2.563 2.222 4.054 5.282 4.054Zm-1.438 4.734c-5.492 0-9.493-3.322-9.493-8.526c0-5.126 3.818-8.081 10.592-8.5l7.714-.444v-2.459c0-3.007-1.987-4.707-5.832-4.707c-3.138 0-5.308 1.15-5.936 3.164h-5.44c.575-4.89 5.178-8.028 11.638-8.028c7.14 0 11.167 3.556 11.167 9.571v19.458h-5.413v-4.001h-.445c-1.7 2.85-4.812 4.472-8.552 4.472Zm24.4-36.039h5.623v7.219h6.172v4.733h-6.172v14.646c0 2.981 1.23 4.289 4.028 4.289c.863 0 1.36-.053 2.144-.131V55.8c-.915.157-1.961.288-3.06.288c-6.25 0-8.735-2.197-8.735-7.689V32.316h-4.524v-4.733h4.524v-7.219Zm18.517 35.568v-28.48h5.596v28.48h-5.596Zm2.798-33.475c-2.092 0-3.635-1.491-3.635-3.426c0-1.962 1.543-3.453 3.635-3.453c2.092 0 3.635 1.491 3.635 3.453c0 1.935-1.543 3.426-3.635 3.426Zm23.093 29.029c4.864 0 7.636-3.609 7.636-9.807c0-6.172-2.772-9.781-7.636-9.781c-4.89 0-7.637 3.609-7.637 9.78c0 6.225 2.746 9.808 7.637 9.808Zm0 4.995c-8.343 0-13.443-5.57-13.443-14.802c0-9.18 5.126-14.776 13.443-14.776c8.29 0 13.416 5.596 13.416 14.776c0 9.232-5.1 14.802-13.416 14.802Zm20.163-.549v-28.48h5.414v4.524h.418c1.386-3.164 4.211-5.073 8.5-5.073c6.355 0 9.86 3.818 9.86 10.591v18.438h-5.623V38.907c0-4.577-1.988-6.852-6.146-6.852c-4.158 0-6.8 2.772-6.8 7.218v16.659h-5.623Zm32.586-37.765h14.855c11.22 0 17.705 6.8 17.705 18.621c0 12.266-6.407 19.144-17.705 19.144H441.99V18.167Zm7.898 6.748v24.27h5.702c6.983 0 10.905-4.29 10.905-12.266c0-7.637-4.053-12.004-10.905-12.004h-5.702Zm49.063 31.017h-16.947V18.194h16.502c7.323 0 11.69 3.583 11.69 9.415c0 4.001-2.955 7.48-6.825 8.055v.47c4.995.366 8.63 4.133 8.63 8.997c0 6.617-4.995 10.801-13.05 10.801Zm-9.049-31.697v9.598h5.937c4.262 0 6.59-1.752 6.59-4.786c0-3.007-2.17-4.812-5.936-4.812h-6.59Zm0 25.656h7.035c4.55 0 7.009-1.91 7.009-5.44c0-3.452-2.537-5.283-7.192-5.283H489.9v10.723Z"/><path fill="#0073E0" d="M0 55.845v-3.057h24.258v-12.42l24.103 2.415v10.005h24.446v-12.42l42.868 4.485v10.992z"/><path fill="#289DFC" d="m0 36.225l24.258-3.556v-12.42l24.103 5.973v10.005l24.446-3.558v-12.42l42.868 10.803v11.041l-42.868-5.974l-24.446 3.213l-24.103-3.213L0 39.33z"/><path fill="#9ACEFE" d="m48.361 19.839l24.446-7.418V0l42.868 17.596v10.696L72.807 16.216l-24.446 6.728z"/></svg>