<svg xmlns="http://www.w3.org/2000/svg" xmlns:xlink="http://www.w3.org/1999/xlink" width="256" height="266" viewBox="0 0 256 266"><g fill="#D35052" fill-rule="evenodd"><path d="M28.758 265.43c-15.337 0-27.815-12.478-27.815-27.817s12.478-27.816 27.815-27.816c15.34 0 27.817 12.477 27.817 27.816c0 15.339-12.478 27.817-27.817 27.817zm0-44.318c-9.098 0-16.5 7.401-16.5 16.501c0 9.1 7.402 16.502 16.5 16.502c9.1 0 16.502-7.402 16.502-16.502c0-9.1-7.402-16.501-16.502-16.501z"/><path d="M128.707 0c-15.337 0-27.816 12.478-27.816 27.816c0 8.594 3.92 16.287 10.063 21.393l-66.5 131.636a5.658 5.658 0 0 0 10.098 5.103L120.954 54.51a27.689 27.689 0 0 0 7.753 1.122c15.338 0 27.816-12.48 27.816-27.817C156.523 12.478 144.045 0 128.707 0zm0 44.318c-9.098 0-16.501-7.403-16.501-16.502c0-9.1 7.403-16.501 16.501-16.501c9.099 0 16.502 7.401 16.502 16.501c0 9.099-7.403 16.502-16.502 16.502z"/><path d="M228.184 209.326c-2.706 0-5.315.406-7.79 1.13L152.118 78.492a5.657 5.657 0 1 0-10.05 5.197l68.335 132.084a28.086 28.086 0 0 0-4.721 5.081l-77.966-37.148l-51.023 25.264a5.658 5.658 0 0 0 5.02 10.14l46.098-22.824l73.217 34.886a27.777 27.777 0 0 0-.66 5.97c0 15.338 12.477 27.817 27.815 27.817c15.338 0 27.816-12.48 27.816-27.817c0-15.339-12.478-27.816-27.816-27.816zm0 44.318c-9.099 0-16.5-7.403-16.5-16.502c0-9.1 7.401-16.501 16.5-16.501c9.1 0 16.501 7.401 16.501 16.501c0 9.099-7.401 16.502-16.501 16.502z"/></g></svg>