<svg xmlns="http://www.w3.org/2000/svg" xmlns:xlink="http://www.w3.org/1999/xlink" width="256" height="288" viewBox="0 0 256 288"><path fill="#E4A663" d="M222.484 215.61c2.999 0 4.034-.7 5.46-3.135c1.426-2.434.74-6.388.686-7.464c-.134-2.367-.928-5.003-1.036-6.321c0-.807 0-5.959.121-8.07c1.803-33.41 16.14-41.358 20.282-42.259a11.553 11.553 0 0 1 7.99.538V83.507c0-7.384-5.246-16.462-11.648-20.174L139.62 2.809c-6.455-3.739-16.986-3.739-23.335-.04L11.675 63.212C5.284 66.91.04 75.989.053 83.386v13.207a1.63 1.63 0 0 0 0 .23v19.286a42.7 42.7 0 0 1 1.815 1.062c2.031 1.345 4.035 2.085 6.08 3.497a92.103 92.103 0 0 1 16.14 12.482c.954.914 4.142 4.922 4.895 5.864a64.558 64.558 0 0 0 7.774 8.876a28.096 28.096 0 0 0 5.178 3.74c3.08 1.6 8.164 1.237 10.76.093c19.932-8.634 32.44-4.303 38.21-.833c14.27 8.567 19.031 20.55 20.551 35.103a39.3 39.3 0 0 1 .188 5.676c0 3.456-.12 9.011 3.524 9.94c5.232 1.344 6.496-4.251 7.276-7.963c1.762-8.406 12.952-13.92 21.143-9.684c5.649 2.919 7.962 4.573 13.544 2.112c6.98-3.08 10.585-10.921 13.02-15.09a25.554 25.554 0 0 1 10.06-9.577c10.894-6.792 38.277-5.03 39.272 25.151v8.393c0 2.878.094 5.689-.094 8.661c-.12 1.977-.47 4.035-.659 6.066c-.054 0-1.076 5.904 3.753 5.931Z"/><path fill="#5E464D" d="M255.96 148.953c-.74-.229-2.892-1.641-7.963-.538c-4.155.901-18.48 8.85-20.282 42.259c-.107 2.057-.174 7.209-.12 8.07c.107 1.344.9 3.953 1.035 6.32c0 1.077.82 4.977-.686 7.465c-1.506 2.488-2.461 3.147-5.46 3.134c-4.829 0-3.807-5.931-3.807-5.931c.189-2.004.538-4.035.66-6.066c.188-2.973.093-5.783.093-8.662v-8.392c-.995-30.181-28.378-31.943-39.272-25.151a25.554 25.554 0 0 0-10.06 9.576c-2.435 4.17-6.04 12.01-13.02 15.09c-5.582 2.462-7.895.808-13.544-2.111c-8.19-4.237-19.38 1.278-21.143 9.684c-.78 3.712-2.044 9.293-7.276 7.962c-3.645-.928-3.524-6.483-3.524-9.94a39.3 39.3 0 0 0-.188-5.675c-1.52-14.553-6.28-26.536-20.55-35.104c-5.77-3.47-18.279-7.8-38.211.834c-2.69 1.143-7.72 1.507-10.76-.094a28.096 28.096 0 0 1-5.178-3.739a64.558 64.558 0 0 1-7.774-8.877c-.753-.941-3.94-4.95-4.896-5.864a92.103 92.103 0 0 0-16.14-12.48c-2.043-1.346-4.034-2.207-6.078-3.498A42.365 42.365 0 0 0 0 116.163v88.189c0 7.397 5.245 16.476 11.647 20.174l104.72 60.523c6.401 3.713 16.878 3.713 23.28 0l104.733-60.442c6.402-3.699 11.633-12.777 11.62-20.175l-.04-55.48Z"/><path fill="#FFF" d="M141.302 134.131c-7.236 4.183-19.085 4.183-26.321 0L7.895 77.643c1.21 1.197 108.592 63.576 108.592 63.576c6.402 3.712 16.88 3.712 23.281 0c0 0 107.234-62.19 108.445-63.388l-106.911 56.3ZM114.806 10.866c7.25-4.143 19.085-4.143 26.334.013l12.98 5.38c-1.211-1.197-14.5-9.805-14.5-9.805c-6.402-3.698-16.865-3.712-23.267 0c0 0-21.224 12.468-22.42 13.652l20.873-9.24Z"/></svg>