<svg xmlns="http://www.w3.org/2000/svg" xmlns:xlink="http://www.w3.org/1999/xlink" width="256" height="216" viewBox="0 0 256 216"><path d="M69.512 187.143c1.086 0 2.054.188 2.904.564c.85.362 1.692.912 2.527 1.65v-1.754h4.324v19.259c0 1.336-.23 2.527-.69 3.571a7.408 7.408 0 0 1-1.942 2.653c-.822.724-1.796 1.274-2.924 1.65c-1.114.39-2.36.585-3.74.585c-3.383 0-6.273-1.023-8.668-3.07l2.047-3.342c1.991 1.712 4.199 2.569 6.622 2.569c1.49 0 2.687-.37 3.593-1.107c.919-.724 1.378-1.866 1.378-3.426v-2.089c-.891.766-1.748 1.337-2.57 1.713c-.82.362-1.775.543-2.86.543a7.774 7.774 0 0 1-3.49-.794a8.73 8.73 0 0 1-2.777-2.151a10.74 10.74 0 0 1-1.818-3.196a11.427 11.427 0 0 1-.647-3.864c0-1.365.216-2.653.647-3.865c.446-1.225 1.052-2.283 1.818-3.175a8.475 8.475 0 0 1 2.778-2.13a7.774 7.774 0 0 1 3.488-.794Zm38.804.46v12.031c0 1.504.286 2.549.857 3.133c.57.585 1.399.878 2.485.878c1.588 0 2.89-.648 3.906-1.943c1.017-1.295 1.525-3.084 1.525-5.368v-8.731h4.324v19.467h-4.324v-4.867c-.432 1.672-1.232 2.98-2.402 3.927c-1.17.947-2.611 1.42-4.324 1.42c-1.991 0-3.55-.647-4.679-1.942c-1.128-1.309-1.692-3.3-1.692-5.974v-12.031h4.324Zm-14.136-.46c1.992 0 3.551.648 4.68 1.943c1.127 1.295 1.691 3.286 1.691 5.974v12.01h-4.324v-12.01c0-1.518-.285-2.57-.856-3.154c-.571-.585-1.4-.878-2.486-.878c-1.601 0-2.91.648-3.927 1.943c-1.003 1.295-1.504 3.084-1.504 5.368v8.731H83.13v-19.467h4.324v4.887c.432-1.685 1.233-2.994 2.402-3.927c1.17-.947 2.611-1.42 4.324-1.42Zm-23.603 3.885c-1.629 0-2.952.571-3.968 1.713c-1.003 1.142-1.504 2.597-1.504 4.366c0 .877.132 1.692.397 2.444a6.25 6.25 0 0 0 1.128 1.921a5.496 5.496 0 0 0 1.733 1.295c.683.307 1.42.46 2.214.46c.766 0 1.553-.153 2.36-.46c.822-.32 1.49-.765 2.006-1.336v-8.648c-.515-.571-1.184-1.003-2.005-1.295c-.808-.307-1.595-.46-2.36-.46Z"/><path fill="#666" stroke="#666" stroke-linecap="round" stroke-linejoin="round" stroke-opacity=".976" stroke-width=".397" d="M127.896 200.974a3.511 3.511 0 1 1-.001 7.022a3.511 3.511 0 0 1 0-7.022Zm0-13.794a3.511 3.511 0 1 1-.001 7.022a3.511 3.511 0 0 1 0-7.022Z"/><path d="M164.586 187.143c1.573 0 3 .272 4.282.815a8.858 8.858 0 0 1 3.28 2.318c.919 1.017 1.636 2.263 2.151 3.74c.515 1.461.773 3.119.773 4.97h-16.314c.209 1.337.843 2.452 1.9 3.343c1.073.877 2.508 1.316 4.304 1.316c1.406 0 2.625-.216 3.655-.648c1.045-.445 1.943-1.03 2.695-1.754l2.214 3.05c-1.253 1.253-2.583 2.109-3.99 2.569c-1.392.46-2.917.689-4.574.689c-1.504 0-2.904-.25-4.199-.752c-1.295-.501-2.416-1.198-3.363-2.089a9.888 9.888 0 0 1-2.235-3.217c-.529-1.24-.793-2.618-.793-4.136c0-1.476.243-2.833.73-4.073c.502-1.253 1.198-2.332 2.09-3.238a9.367 9.367 0 0 1 3.237-2.13c1.253-.515 2.639-.773 4.157-.773Zm19.797-7.332v7.792h8.167v3.906h-8.167v8.418c0 1.253.306 2.186.919 2.799c.612.612 1.42.919 2.423.919c1.225 0 2.137-.355 2.736-1.066c.599-.71.954-1.566 1.065-2.569l3.802.857c-.223 2.047-1.03 3.676-2.423 4.887c-1.379 1.198-3.105 1.797-5.18 1.797c-1.142 0-2.187-.188-3.134-.564a7.066 7.066 0 0 1-2.423-1.567a7.11 7.11 0 0 1-1.566-2.402c-.362-.947-.543-1.977-.543-3.091v-8.418h-4.408v-3.906h4.408v-7.792h4.324Zm-38.804 7.332c1.991 0 3.55.648 4.679 1.943c1.128 1.295 1.692 3.286 1.692 5.974v12.01h-4.324v-12.01c0-1.518-.286-2.57-.857-3.154c-.57-.585-1.4-.878-2.485-.878c-1.602 0-2.91.648-3.927 1.943c-1.003 1.295-1.504 3.084-1.504 5.368v8.731h-4.324v-19.467h4.324v4.887c.431-1.685 1.232-2.994 2.402-3.927c1.17-.947 2.61-1.42 4.324-1.42Zm19.007 3.885c-1.365 0-2.59.383-3.676 1.15c-1.087.751-1.741 1.754-1.964 3.007h11.238c-.223-1.253-.87-2.256-1.943-3.008c-1.072-.766-2.29-1.149-3.655-1.149Z"/><path fill="#3498DB" fill-opacity=".976" d="M214.352 0a3.679 3.679 0 0 1 3.657 4.083l31.453 13.312a3.679 3.679 0 1 1 2.327 5.956l-10.332 26.293a3.679 3.679 0 1 1-5.375 4.837l-41.054 9.221v.041a3.679 3.679 0 0 1-4.423 3.604l-14.262 28.541a3.68 3.68 0 0 1-2.306 6.325l-8.442 25.758a3.679 3.679 0 0 1-2.543 6.337l-.085-.002l-14.378 36.158a3.679 3.679 0 1 1-5.671 4.37h-29.75a3.679 3.679 0 1 1-5.656-4.382l-18.959-58.974l-.154-.002a3.679 3.679 0 0 1-2.656-6.021l-17.726-37.08l-.186.005a3.68 3.68 0 0 1-3.512-2.584l-14.49-.284a3.68 3.68 0 0 1-7.013-2.04L14.6 47.136a3.679 3.679 0 1 1-4.598-5.745L3.801 23.418l-.123.002a3.679 3.679 0 1 1 3.28-5.346L42.306 4.425a3.679 3.679 0 1 1 2.57 2.786l-9.758 19.515l.042.022l-3.015 6.03a3.666 3.666 0 0 1 .925 2.908l20.395 11.19a3.676 3.676 0 0 1 6.05.424l13.28-6.316a3.679 3.679 0 1 1 6.404 1.997l26.381 34.183a3.679 3.679 0 0 1 2.523 6.766l7.786 20.277a3.68 3.68 0 0 1 3.856 2.776l22.103-1.319l8.952-26.976a3.679 3.679 0 0 1 3.067-6.633l15.399-24.884a3.679 3.679 0 1 1 5.82-4.43l39.846-2.657a3.68 3.68 0 0 1 6.329-1.432l7.221-4.612l-13.484-26.738A3.679 3.679 0 1 1 214.353 0Zm-78.86 156.37l-22.273 15.561a3.8 3.8 0 0 1 .117.33l29.498-.248c.221-.58.585-1.09 1.048-1.487l-8.39-14.156Zm-7.595-10.56c-.304 0-.6-.037-.883-.107l-14.973 24.692c.068.052.133.106.197.162l22.391-15.644l-5.516-9.309c-.38.134-.79.206-1.216.206Zm33.26-11.514l-13.761 13.207a3.68 3.68 0 0 1-2.622 4.819l2.182 17.385l.137.028l14.063-35.44Zm-51.17 3.622l.262 31.75c.079.01.157.022.235.036l15.023-24.776a3.671 3.671 0 0 1-1.217-3.521l-12.099-4.804a3.676 3.676 0 0 1-2.205 1.315Zm31.976 13.931l-5.082 3.55l8.344 14.082l-2.153-17.163a3.657 3.657 0 0 1-1.109-.469Zm-50.99-38.369l18.007 55.948l-.26-31.5a3.68 3.68 0 0 1-2.475-5.644L90.972 113.48Zm47.556 19.987l-7.331 7.038c.242.49.378 1.042.378 1.626c0 .996-.396 1.9-1.04 2.562l5.481 9.25l4.753-3.32a3.663 3.663 0 0 1-.518-1.883c0-1.254.627-2.36 1.584-3.025l-3.307-12.248Zm7.901-7.587l-6.512 6.253l3.5 12.963a3.665 3.665 0 0 1 3.037.969l13.71-13.157a3.664 3.664 0 0 1-.767-2.704l-12.968-4.324Zm-30.255-14.326h-.05l-5.02 19.525a3.678 3.678 0 0 1 1.725 4.336l11.959 4.748a3.695 3.695 0 0 1 1.48-1.332l-8.819-27.503a3.67 3.67 0 0 1-1.275.226Zm19.308 14.08l-5.295 13.5l7.839-7.526l-1.547-5.728a3.655 3.655 0 0 1-.997-.245ZM118.57 110.67l8.915 27.805a3.717 3.717 0 0 1 1.13.047l5.452-13.901a3.665 3.665 0 0 1-.89-2.4c0-.6.144-1.167.399-1.667l-14.852-10.024l-.154.14Zm-16.597-21.954L91.18 105.2a3.668 3.668 0 0 1 1.077 2.6c0 .96-.367 1.834-.97 2.489l16.309 20.761a3.661 3.661 0 0 1 1.729-.43l.154.003l5.009-19.478a3.68 3.68 0 0 1-1.135-5.629l-11.38-16.801Zm36.198 36.942l1.246 4.617l5.205-4.998l-4.442-1.48a3.691 3.691 0 0 1-2.01 1.861Zm18.105-9.227l-8.753 8.402l12.27 4.09a3.696 3.696 0 0 1 1.31-1.414l-4.827-11.078Zm15.46-14.84l-11.346 10.89l2.811 14.472l.03.002a3.66 3.66 0 0 1 1.277.294l8.3-25.161a3.66 3.66 0 0 1-1.072-.497Zm-12.496 11.995l-1.934 1.856l4.14 9.496l-2.206-11.352Zm-8.005-4.819l-11.178 11.641a3.663 3.663 0 0 1 .467 2.091l5.19 1.73l9.843-9.448l-2.413-5.537l-.093.002a3.66 3.66 0 0 1-1.816-.479Zm-9.815-1.807l-21.584 1.287a3.65 3.65 0 0 1-.362 1.262l14.864 10.03a3.665 3.665 0 0 1 3.217-.931l3.865-11.648Zm8.067-.48l-6.251.372l-3.958 11.929l10.719-11.163a3.661 3.661 0 0 1-.51-1.139Zm8.1-1.4l-.81.29a3.68 3.68 0 0 1-2.288 3.606l2.099 4.815l2.269-2.178l-1.27-6.534Zm12.886-4.617l-11.61 4.16l1.144 5.885l10.466-10.045Zm-18.73-19.248l-8.078 24.341l5.724-.341a3.682 3.682 0 0 1 2.353-3.088V81.214Zm-62.64-5.692v28.636c.22.032.435.083.641.152l11.203-17.11l-6.08-8.975l-5.765-2.703Zm15.797 8.724l-1.924 2.937l11.59 17.112l-7.64-19.897a3.693 3.693 0 0 1-2.026-.152Zm48.182-2.368l-.001 20.008h.023c1.369 0 2.563.749 3.197 1.86l.96-.345l-4.179-21.523ZM70.35 67.383l17.064 35.711V74.73l-16.65-7.805a3.7 3.7 0 0 1-.414.458Zm83.546 11.664l4.642 23.897l11.589-4.153a3.663 3.663 0 0 1 .671-2.38l-16.26-17.65a3.66 3.66 0 0 1-.642.286Zm18.257-8.491l-15.747 4.836l.004.164a3.67 3.67 0 0 1-.63 2.06l16.286 17.679a3.63 3.63 0 0 1 .947-.348l-.86-24.391Zm16.04-4.925l-14.786 4.54l.872 24.723c.208.028.41.072.606.132l14.19-28.392a3.698 3.698 0 0 1-.882-1.003ZM97.856 79.626l4.093 6.042l1.543-2.357a3.676 3.676 0 0 1-.832-1.43l-4.804-2.255Zm-5.531-8.166l4.142 6.116l6.05 2.836c.033-.319.107-.626.216-.916L92.325 71.46Zm-13.1-26.388L86.62 64.35a3.679 3.679 0 0 1 5.29 4.658l11.77 9.085c.197-.183.414-.344.648-.48L79.225 45.072Zm9.877 26.04v3.01l4.376 2.053l-3.573-5.275c-.255.1-.524.171-.803.212Zm81.576-23.015l-15.367 24.836c.249.246.463.526.635.834l16.144-4.958l-.724-20.535a3.652 3.652 0 0 1-.688-.177ZM72.832 66.495l14.58 6.836v-2.365a3.684 3.684 0 0 1-2.484-2.958l-12.096-1.513Zm99.8-18.244l.712 20.173l14.338-4.403a3.663 3.663 0 0 1 .539-2.213l-14.156-14.171c-.36.257-.77.45-1.21.564l-.222.05ZM76.448 44.22a3.61 3.61 0 0 1-.418-.024L69.536 61.44a3.68 3.68 0 0 1 1.973 3.188l13.562 1.696a3.67 3.67 0 0 1 .546-1.05L77.483 44.07a3.679 3.679 0 0 1-1.036.149Zm-2.475-.957L49.96 62.965c.086.275.14.564.159.862l14.083.277a3.68 3.68 0 0 1 4.127-3.05l6.483-17.217a3.686 3.686 0 0 1-.839-.574Zm-57.916 2.774L43.471 61.9a3.673 3.673 0 0 1 2.976-1.517c.633 0 1.23.16 1.75.442l5.857-8.78A3.683 3.683 0 0 1 52.8 50.15l-36.743-4.113Zm193.545 4.136L196.01 61.75l38.247-8.608l-24.657-2.968Zm-34.419-3.808l14.232 14.25a3.66 3.66 0 0 1 1.936-.551c.746 0 1.44.222 2.02.604l12.808-10.907l-30.847-3.71a3.663 3.663 0 0 1-.149.314ZM70.464 43.957l-10.45 4.975a3.679 3.679 0 0 1-4.433 3.834l-4.963 7.475l19.846-16.284Zm148.015.782a3.66 3.66 0 0 1-1.886-.52l-5.243 4.464l23.593 2.84l-13.96-7.768a3.665 3.665 0 0 1-2.504.984Zm10.768-9.183l-7.201 4.598a3.688 3.688 0 0 1-.12 2.193l14.37 7.996a3.68 3.68 0 0 1 .256-.3l-7.305-14.487Zm20.583-13.14l-18.795 11.998l7.35 14.572a3.688 3.688 0 0 1 1.604-.017l10.22-26.248a3.696 3.696 0 0 1-.379-.304ZM214.528 42.65l-18.238 1.215l-15.53 1.138l27.166 3.268l6.602-5.621Zm-185.11-3.723a3.664 3.664 0 0 1-2.497-.978l-11.026 5.554c.047.222.074.452.078.687l36.295 3.956L32.48 37.287a3.675 3.675 0 0 1-3.062 1.64ZM5.84 22.717L12.008 40.6a3.66 3.66 0 0 1 2.243.551l7.861-9.553L5.878 22.69l-.037.027Zm17.402 9.502l-7.346 8.926l9.958-4.978a3.687 3.687 0 0 1 .197-2.406l-2.809-1.542ZM216.882 6.35l13.39 26.547l18.61-11.881a3.672 3.672 0 0 1-.217-1.704L217.189 6.02a3.701 3.701 0 0 1-.307.33ZM41.692 9.799L24.335 30.892l2.752 1.509a3.663 3.663 0 0 1 2.33-.833c.466 0 .911.087 1.321.244l2.172-4.341l-.041-.022L41.692 9.8Zm1.329-3.841L7.357 19.73v.01c0 .584-.136 1.136-.378 1.626l16.226 8.904L43.117 6.074l-.096-.116Z"/></svg>