<svg xmlns="http://www.w3.org/2000/svg" xmlns:xlink="http://www.w3.org/1999/xlink" width="256" height="239" viewBox="0 0 256 239"><path fill="#669DF6" d="M224.022 173.159h-92.959c-22.48 0-35.07 15.736-35.07 32.485c0 15.455 10.679 32.484 35.07 32.484h92.959v-64.97Z"/><ellipse cx="224.022" cy="205.587" fill="#1A73E8" rx="31.979" ry="32.485"/><path fill="#669DF6" d="M128.028 86.551H35.07C12.59 86.551 0 102.288 0 119.036c0 15.456 10.678 32.485 35.07 32.485h92.958V86.55Z"/><ellipse cx="128.028" cy="119.036" fill="#1A73E8" rx="31.979" ry="32.485"/><path fill="#669DF6" d="M224.022 0h-92.959c-22.48 0-35.07 15.737-35.07 32.485c0 15.455 10.679 32.485 35.07 32.485h92.959V0Z"/><ellipse cx="224.022" cy="32.485" fill="#1A73E8" rx="31.979" ry="32.485"/></svg>