<svg xmlns="http://www.w3.org/2000/svg" xmlns:xlink="http://www.w3.org/1999/xlink" width="512" height="150" viewBox="0 0 512 150"><path fill="#A6AFBD" d="M42.903 31.87c9.807 0 19.153 3.295 25.895 8.965v-7.202h19.613v68.875c0 30.492-15.552 45.968-46.197 45.968c-14.94 0-27.351-5.746-37.924-17.468l-2.298-2.605l15.782-12.411l2.069 2.528c7.814 9.807 16.625 11.875 22.677 11.875c16.778 0 25.359-7.048 26.202-21.528c-6.895 5.9-14.863 8.35-26.278 8.35C16.242 117.218 0 94.924 0 74.315c0-23.443 19.23-42.443 42.903-42.443Zm189.387 1.763l22.218 53.476l22.447-53.476h21.222L248.61 148.399h-20.84l15.552-36.544l-33.096-78.222h22.064Zm-55.697-1.762c23.367 0 38.46 11.415 38.613 29.113v55.238h-18.847v-4.29c-5.9 4.136-12.641 6.052-20.992 6.052c-21.452 0-36.468-12.565-36.468-30.569c0-14.173 11.415-29.42 36.315-29.42c7.431 0 14.326 1.916 20.225 5.44v-1.379c0-9.96-10.649-12.028-19.536-12.028c-6.512 0-12.718 1.532-19.613 4.903l-2.911 1.38l-8.81-16.932L147.862 38c9.806-4.137 19.23-6.13 28.73-6.13Zm-33.02 0v21.298l-3.984-.996c-1.916-.383-3.678-.613-5.287-.613c-9.576 0-15.016 6.666-15.016 18.234v46.504h-19.69V33.633h19.69v4.444c5.823-5.67 12.258-6.206 20.992-6.206h3.294Zm34.016 44.206c-11.569 0-18.234 4.366-18.234 11.951c0 7.585 6.665 11.952 18.234 11.952c11.568 0 18.233-4.367 18.233-11.952s-6.665-11.951-18.233-11.951ZM45.125 50.717c-15.4 0-24.593 12.029-24.593 23.597c0 16.09 12.488 24.746 24.21 24.746c13.254 0 24.056-10.802 23.98-23.98c0-13.253-10.803-24.362-23.597-24.362Z"/><path fill="#FF3633" d="M467.798 34.552c11.722 0 23.673 4.904 30.186 14.327h.306V36.468h13.714v68.492c0 29.266-14.02 44.512-44.819 44.512c-14.02 0-26.355-5.21-37.08-17.085l10.955-8.657c8.428 10.496 18.157 13.713 26.355 13.713c21.375 0 30.798-10.649 30.798-28.346v-5.67h-.23c-7.508 8.964-15.245 13.408-30.645 13.408c-26.66 0-40.91-22.908-40.91-41.371c0-23.06 18.923-40.912 41.37-40.912Zm-93.697.077c24.975 0 42.98 19.23 42.98 41.6c0 22.755-17.085 41.525-42.98 41.525c-25.896 0-42.98-18.77-42.98-41.524c-.077-22.371 17.927-41.601 42.98-41.601ZM315.568 0v91.093c0 8.963 4.444 12.028 8.81 12.028h4.138v12.794h-5.67c-12.64 0-21.068-7.201-21.068-23.826V0h13.79Zm58.456 47.423c-15.17 0-28.347 12.335-28.347 28.807c0 15.246 13.101 28.653 28.347 28.653s28.347-13.407 28.347-28.653c0-16.472-13.101-28.807-28.347-28.807Zm96.226 0c-18.617 0-29.113 14.787-29.113 28.04c0 18.311 14.326 29.267 28.653 29.267c15.706 0 28.5-12.641 28.5-28.5c0-16.012-13.1-28.807-28.04-28.807Z"/><path fill="#A6AFBD" d="M355.943 73.931c1.15 0 2.145.613 2.682 1.61h2.528l3.984-9.577c.153-.46.613-.843 1.072-.996c.843-.154 1.686.306 1.84 1.149l4.213 18.54l4.29-24.976c.077-.612.536-1.072 1.15-1.225c.842-.23 1.685.306 1.915 1.149l4.596 18.77l2.375-6.972c.077-.306.307-.613.613-.843c.69-.46 1.686-.306 2.146.384l1.991 2.834c.077.69.077 1.38.077 2.069c0 .92-.077 1.838-.153 2.681c-.307-.076-.536-.306-.766-.536l-1.992-2.758l-3.065 9.27c-.306.843-1.149 1.226-1.992.996c-.536-.153-.919-.613-.996-1.073l-4.137-16.701l-4.367 25.359c-.153.842-.919 1.379-1.762 1.302c-.69-.077-1.149-.613-1.302-1.302l-4.674-21.452l-2.528 6.052c-.23.613-.843.996-1.455.996h-3.601a3.09 3.09 0 0 1-2.682 1.533c-1.685 0-3.14-1.38-3.14-3.141c.076-1.686 1.455-3.142 3.14-3.142Z"/></svg>