<svg xmlns="http://www.w3.org/2000/svg" xmlns:xlink="http://www.w3.org/1999/xlink" width="512" height="188" viewBox="0 0 512 188"><path fill="#262626" d="M0 0h512v188H0z"/><path fill="#848484" d="M163.014 121.69c0-.61.26-.87.87-.87h9.646c.347 0 .521.26.521.87v.434c0 .608-.173.869-.521.869h-8.082v6.344h7.213c.347 0 .521.26.521.869v.435c0 .608-.173.869-.521.869h-7.213v6.779h8.082c.347 0 .521.26.521.868v.435c0 .609-.173.87-.521.87h-9.734c-.608 0-.869-.261-.869-.87V121.69h.087Zm14.689 18.075l.086-9.82l-.003-.322c-.03-2.045-.345-3.071-.345-3.154c0-.521 1.13-.608 1.477-.608c.696 0 .782 1.13.956 1.825c1.13-1.304 2.782-2.086 4.346-2.086c2.868 0 4.519 1.65 4.519 4.52v9.645c0 .348-.347.609-1.13.609h-.086c-.783 0-1.13-.26-1.13-.609v-9.385c0-1.652-1.043-2.694-2.868-2.694c-1.217 0-2.607.782-3.476 1.911v10.168c0 .348-.348.61-1.13.61h-.087c-.782 0-1.13-.262-1.13-.61Zm17.206-.608c-1.043-.434-1.738-1.13-1.738-2.26c0-1.39 1.13-1.998 2.086-2.346c-1.651-.782-2.52-2.346-2.52-4.171c0-2.607 1.911-4.78 5.561-4.78c.696 0 1.304.087 1.825.174h4.78c.348 0 .522.26.522.869v.348c0 .608-.174.868-.522.868h-1.912c.609.783.957 1.651.957 2.608c0 2.606-1.912 4.78-5.563 4.78h-.26c-.695 0-2.347.173-2.347 1.129c0 2.172 9.386 0 9.386 5.475c0 2.433-2.433 4.345-6.952 4.345l-.31-.001c-3.488-.045-5.948-.863-5.948-3.649c-.174-1.65 1.13-2.78 2.955-3.389Zm3.476 4.954c2.52 0 4.171-.956 4.171-2.26c0-1.65-2.955-1.825-5.561-2.26c-1.13.435-2.782 1.391-2.782 2.608c0 1.565 1.913 1.912 4.172 1.912Zm3.042-13.731c0-2.133-1.34-2.758-3.033-2.78l-.096-.001c-1.738 0-3.129.695-3.129 2.78c0 2.174 1.391 2.782 3.129 2.782l.192-.003c1.648-.044 2.937-.686 2.937-2.778Zm15.122.87v-1.305c0-1.217-.782-2.346-3.042-2.346c-2.52 0-4.084 1.13-4.346 1.13c-.347 0-.955-1.043-.955-1.391c0-.696 2.433-1.738 5.214-1.738c3.476 0 5.475 1.65 5.475 4.345v6.17c0 2.26.348 3.39.348 3.477c0 .521-1.13.608-1.478.608c-.695 0-.782-1.13-.956-1.911c-1.042 1.129-2.607 2.085-4.693 2.085c-2.693 0-4.78-1.303-4.78-4.17c0-4.608 5.04-4.955 9.213-4.955Zm-4.346 7.125c1.999 0 3.216-.955 4.346-1.912v-3.302l-.57.001c-2.779.011-6.122.186-6.122 2.867c0 1.564.782 2.346 2.346 2.346Zm13.036.782c-1.042-.434-1.738-1.13-1.738-2.26c0-1.39 1.13-1.998 2.086-2.346c-1.651-.782-2.52-2.346-2.52-4.171c0-2.607 1.912-4.78 5.562-4.78c.695 0 1.304.087 1.825.174h4.78c.347 0 .521.26.521.869v.348c0 .608-.174.868-.521.868h-1.912c.608.783.956 1.651.956 2.608c0 2.606-1.912 4.78-5.562 4.78h-.26c-.696 0-2.347.173-2.347 1.129c0 2.172 9.386 0 9.386 5.475c0 2.433-2.434 4.345-6.953 4.345l-.31-.001c-3.487-.045-5.947-.863-5.947-3.649c-.174-1.65 1.042-2.78 2.954-3.389Zm3.39 4.954c2.52 0 4.171-.956 4.171-2.26c0-1.65-2.955-1.825-5.562-2.26c-1.13.435-2.781 1.391-2.781 2.608c0 1.565 1.912 1.912 4.171 1.912Zm3.041-13.731c0-2.133-1.34-2.758-3.032-2.78l-.096-.001c-1.738 0-3.129.695-3.129 2.78c0 2.174 1.39 2.782 3.129 2.782l.191-.003c1.648-.044 2.937-.686 2.937-2.778Zm7.04-8.69v-1.652c0-.348.347-.608 1.13-.608h.347c.782 0 1.13.26 1.13.608v1.651c0 .347-.348.609-1.13.609h-.348c-.782 0-1.13-.261-1.13-.609Zm.086 4.605c0-.347.348-.608 1.13-.608h.087c.782 0 1.13.26 1.13.608v13.384c0 .347-.348.608-1.13.608h-.087c-.782 0-1.13-.26-1.13-.608v-13.384Zm7.214 3.65c0-2.26-.347-3.389-.347-3.476c0-.521 1.13-.608 1.477-.608c.695 0 .782 1.13.956 1.825c1.13-1.304 2.781-2.086 4.346-2.086c2.868 0 4.519 1.65 4.519 4.52v9.645c0 .348-.348.609-1.13.609h-.087c-.782 0-1.13-.26-1.13-.609v-9.385c0-1.652-1.042-2.694-2.867-2.694c-1.217 0-2.607.782-3.476 1.911v10.168c0 .348-.348.61-1.13.61h-.087c-.782 0-1.13-.262-1.13-.61l.086-9.82Zm17.12 9.212c-1.042-.434-1.737-1.13-1.737-2.26c0-1.39 1.129-1.998 2.086-2.346c-1.652-.782-2.52-2.346-2.52-4.171c0-2.607 1.911-4.78 5.561-4.78c.696 0 1.304.087 1.825.174h4.78c.347 0 .522.26.522.869v.348c0 .608-.174.868-.522.868h-2c.61.783.957 1.651.957 2.608c0 2.606-1.912 4.78-5.562 4.78h-.26c-.696 0-2.347.173-2.347 1.129c0 2.172 9.386 0 9.386 5.475c0 2.433-2.434 4.345-6.953 4.345l-.31-.001c-3.487-.045-5.947-.863-5.947-3.649c-.087-1.65 1.216-2.78 3.041-3.389Zm3.477 4.954c2.52 0 4.171-.956 4.171-2.26c0-1.65-2.955-1.825-5.562-2.26c-1.13.435-2.781 1.391-2.781 2.608c0 1.565 1.825 1.912 4.172 1.912Zm3.042-13.731c0-2.133-1.34-2.758-3.033-2.78l-.096-.001c-1.738 0-3.129.695-3.129 2.78c0 2.174 1.39 2.782 3.129 2.782l.192-.003c1.647-.044 2.937-.686 2.937-2.778Zm14.165-2.607h-1.39c-.348 0-.522-.261-.522-.87v-.347c0-.608.174-.869.521-.869h1.391l.348-2.955c0-.347.26-.608.869-.608h.26c.609 0 .87.26.87.608v2.955h2.345c.348 0 .522.26.522.87v.346c0 .609-.173.87-.522.87h-2.346v8.603c0 1.652.696 2.086 1.478 2.086s.955-.173 1.217-.173c.347 0 .608 1.042.608 1.303c0 .735-1.15.856-1.866.868l-.133.001c-1.37 0-3.496-.59-3.562-3.675l-.088-9.013Zm9.126-7.735c0-.348.347-.608 1.129-.608h.087c.782 0 1.13.26 1.13.608v7.474c.955-.956 2.433-1.912 4.258-1.912c1.825 0 4.432.695 4.432 4.52v9.646c0 .347-.348.608-1.13.608h-.086c-.782 0-1.13-.26-1.13-.608v-9.386c0-1.651-.956-2.694-2.868-2.694c-2.086 0-3.476 1.912-3.476 1.912v10.168c0 .347-.348.609-1.13.609h-.087c-.782 0-1.13-.261-1.13-.61v-19.727Zm21.118 5.562c3.824 0 5.735 2.52 5.735 7.213c0 .348-.608 1.13-.956 1.13h-8.777c.26 3.041 1.565 4.432 4.259 4.432c2.433 0 3.736-1.13 4.084-1.13c.347 0 .956 1.043.956 1.39c0 .696-2.173 1.739-4.954 1.739c-4.606 0-6.779-2.346-6.779-7.3c-.086-4.867 2.173-7.474 6.432-7.474Zm3.215 6.344c0-2.868-1.13-4.345-3.302-4.345c-2.434 0-3.65 1.477-3.911 4.345h7.213Zm13.036-10.516c0-.347.348-.608 1.13-.608h.26c.783 0 1.13.26 1.13.608v18.338c0 .347-.347.608-1.13.608h-.26c-.783 0-1.13-.26-1.13-.608v-18.338Zm7.475 18.337l.086-9.82l-.003-.322c-.03-2.045-.345-3.071-.345-3.154c0-.521 1.13-.608 1.478-.608c.695 0 .782 1.13.956 1.825c1.129-1.304 2.781-2.086 4.345-2.086c2.868 0 4.52 1.65 4.52 4.52v9.645c0 .348-.348.609-1.13.609h-.087c-.782 0-1.13-.26-1.13-.609v-9.385c0-1.652-1.043-2.694-2.868-2.694c-1.217 0-2.607.782-3.476 1.911v10.168c0 .348-.347.61-1.13.61h-.086c-.782 0-1.13-.262-1.13-.61Zm16.077-11.992h-1.39c-.348 0-.522-.261-.522-.87v-.347c0-.608.173-.869.521-.869h1.39l.348-2.955c0-.347.348-.608.87-.608h.26c.608 0 .869.26.869.608v2.955h2.346c.348 0 .522.26.522.87v.346c0 .609-.174.87-.522.87h-2.346v8.603c0 1.652.695 2.086 1.477 2.086c.783 0 .956-.173 1.217-.173c.348 0 .609 1.042.609 1.303c0 .735-1.15.856-1.867.868l-.132.001c-1.37 0-3.496-.59-3.562-3.675l-.088-9.013Zm14.513-2.173c3.824 0 5.736 2.52 5.736 7.213c0 .348-.609 1.13-.956 1.13h-8.777c.26 3.041 1.564 4.432 4.258 4.432c2.433 0 3.737-1.13 4.084-1.13c.348 0 .956 1.043.956 1.39c0 .696-2.172 1.739-4.953 1.739c-4.606 0-6.779-2.346-6.779-7.3c0-4.867 2.173-7.474 6.431-7.474Zm3.216 6.344c0-2.868-1.13-4.345-3.302-4.345c-2.434 0-3.651 1.477-3.911 4.345h7.213Zm6.257 7.735v-9.734l-.002-.322c-.031-2.045-.345-3.071-.345-3.154c0-.521 1.13-.608 1.477-.608c.695 0 .782 1.13.956 1.825c.956-1.304 2.086-2.086 3.215-2.086c1.043 0 1.652.434 1.652 1.042c0 .522-.261 1.478-.522 1.478c-.348 0-.609-.26-1.564-.26c-1.478 0-2.52 1.65-2.52 1.65v10.169c0 .347-.348.608-1.13.608h-.087c-.782 0-1.13-.26-1.13-.608Zm9.994-9.734c0-2.26-.347-3.389-.347-3.476c0-.521 1.13-.608 1.478-.608c.695 0 .782 1.13.955 1.825c1.13-1.304 2.781-2.086 4.346-2.086c2.868 0 4.52 1.65 4.52 4.52v9.645c0 .348-.349.609-1.13.609h-.087c-.783 0-1.13-.26-1.13-.609v-9.385c0-1.652-1.043-2.694-2.868-2.694c-1.217 0-2.607.782-3.476 1.911v10.168c0 .348-.348.61-1.13.61h-.087c-.782 0-1.13-.262-1.13-.61l.086-9.82Zm21.119-4.345c3.823 0 5.735 2.52 5.735 7.213c0 .348-.608 1.13-.955 1.13h-8.778c.26 3.041 1.564 4.432 4.258 4.432c2.434 0 3.737-1.13 4.085-1.13c.347 0 .955 1.043.955 1.39c0 .696-2.172 1.739-4.953 1.739c-4.606 0-6.779-2.346-6.779-7.3c-.087-4.867 2.173-7.474 6.432-7.474Zm3.215 6.344c0-2.868-1.13-4.345-3.302-4.345c-2.434 0-3.65 1.477-3.91 4.345h7.212Zm6.692-4.171h-1.391c-.347 0-.522-.261-.522-.87v-.347c0-.608.174-.869.522-.869h1.39l.348-2.955c0-.347.26-.608.87-.608h.26c.608 0 .869.26.869.608v2.955h2.346c.348 0 .522.26.522.87v.346c0 .609-.174.87-.522.87h-2.346v8.603c0 1.652.695 2.086 1.477 2.086c.782 0 .956-.173 1.217-.173c.347 0 .608 1.042.608 1.303c0 .735-1.15.856-1.866.868l-.133.001c-1.368 0-3.495-.59-3.561-3.675l-.088-9.013Z"/><path fill="#FFF" d="M184.915 50.86c7.3 0 14.078 2.607 14.078 4.606c0 1.217-1.564 4.258-2.52 4.258c-.782 0-4.345-3.215-11.472-3.215c-13.036 0-17.294 7.561-17.294 20.423c0 11.298 3.39 20.857 16.512 20.857l.498-.002c3.648-.035 7.146-.455 8.975-.953V81.973h-8.604c-1.042 0-1.477-.696-1.477-2.173v-1.217c0-1.564.435-2.173 1.477-2.173h12.95c1.564 0 2.172.695 2.172 2.173v19.554c0 4.171-7.995 5.302-16.425 5.302c-14.687 0-22.77-8.257-22.77-25.812c0-18.424 8.517-26.767 23.9-26.767Zm22.943 50.667V75.629c0-6.006-.847-8.878-.868-9.285v-.014c0-1.39 3.04-1.738 3.997-1.738c1.738 0 2.173 2.954 2.607 4.866c2.52-3.563 5.475-5.562 8.517-5.562c2.868 0 4.258 1.217 4.258 2.868c0 1.39-.609 3.998-1.478 3.998c-.955 0-1.564-.782-4.084-.782c-3.824 0-6.78 4.519-6.78 4.519v27.028c0 1.043-.868 1.651-2.954 1.651h-.26c-2.086 0-2.955-.608-2.955-1.651Zm38.673-37.63c10.081 0 15.209 6.691 15.209 19.206c0 .869-1.564 3.041-2.433 3.041h-23.291c.608 8.17 4.084 11.907 11.385 11.907c6.43 0 9.994-3.13 10.776-3.13c1.043 0 2.607 2.869 2.607 3.651c0 1.738-5.823 4.693-13.296 4.693c-12.132 0-17.96-6.133-18.075-19.073l-.002-.394c-.087-12.95 5.823-19.902 17.12-19.902Zm8.604 17.033c0-7.734-2.955-11.645-8.864-11.645c-6.431 0-9.82 3.91-10.342 11.645h19.206Zm29.635-17.034c10.081 0 15.209 6.692 15.209 19.207c0 .869-1.564 3.041-2.434 3.041h-23.29c.608 8.17 4.084 11.907 11.385 11.907c6.43 0 9.994-3.13 10.776-3.13c1.043 0 2.607 2.869 2.607 3.651c0 1.738-5.822 4.693-13.297 4.693c-12.254 0-18.076-6.257-18.076-19.467c0-12.95 5.822-19.902 17.12-19.902Zm8.69 17.034c0-7.734-2.954-11.645-8.864-11.645c-6.43 0-9.82 3.91-10.341 11.645h19.205Zm13.21 20.423V75.63l-.001-.462c-.042-5.692-.846-8.426-.867-8.823v-.014c0-1.39 3.041-1.738 3.997-1.738c1.738 0 2.173 2.954 2.607 4.866c3.129-3.476 7.387-5.562 11.472-5.562c7.56 0 11.993 4.52 11.993 11.906v25.551c0 1.043-.87 1.651-2.955 1.651h-.26c-2.087 0-2.956-.608-2.956-1.651v-25.03c0-4.518-2.694-7.125-7.56-7.125c-3.303 0-6.866 1.999-9.3 5.127v27.028c0 1.043-.869 1.652-2.955 1.652h-.26c-2.086 0-2.955-.609-2.955-1.652Z"/><path fill="#88CE02" d="M349.081 90.49c1.304 0 4.953 3.389 10.864 3.389l.214-.001c3.086-.044 6.738-1.056 6.738-5.387c0-8.691-21.292-5.302-21.292-22.683c0-10.863 8.864-15.121 17.468-15.121c7.822 0 13.296 2.693 13.296 5.127c0 2-2.26 6.431-4.084 6.431c-.956 0-3.215-1.825-8.169-1.825c-5.736 0-6.865 2.694-6.865 4.346c0 8.43 21.291 5.04 21.291 22.335c0 12.254-8.604 16.338-16.686 16.338c-11.21 0-17.294-3.998-17.294-6.517c0-2.174 2.955-6.432 4.52-6.432Zm51.71-26.68c11.732 0 17.815 7.039 17.815 19.814c0 12.862-6.083 19.902-17.816 19.902c-11.732 0-17.903-7.04-17.903-19.902c0-12.862 6.17-19.815 17.903-19.815Zm6.777 20.035l.001-.22c0-7.388-2.086-11.212-6.779-11.212s-6.866 3.824-6.866 11.211c0 7.387 2.173 11.298 6.866 11.298c4.646 0 6.737-3.833 6.778-11.077Zm34.764-20.036l.315.002c5.178.068 11.939 1.804 11.939 5.126c0 1.39-2.694 5.649-3.911 5.649c-.26 0-.695-.26-1.304-.522l-.29-.152c-1.305-.675-3.236-1.499-6.14-1.499c-5.852 0-8.295 3.578-8.343 10.985v.226c0 7.56 2.258 11.298 7.907 11.298c3.476 0 5.823-1.043 7.214-1.738l.234-.1c.487-.204.843-.335 1.07-.335c1.65 0 3.823 4.172 3.823 5.562c0 4.171-10.515 5.128-12.862 5.128c-12.601 0-18.598-6.431-18.598-19.64c0-13.037 5.736-19.99 18.946-19.99Zm17.815-14.078c0-1.537 1.259-2.319 4.27-2.346h2.248c3.13 0 4.433.781 4.433 2.346v29.2l.26.087l8.951-13.383c.847-1.185 2.27-1.381 4.35-1.391h2.864c2.78 0 4.171.434 4.171 1.13c0 .326-.23.808-.62 1.37l-10.33 14.707l11.992 19.032l.296.584c.19.383.313.682.313.981c0 .695-1.304 1.13-4.171 1.13h-3.129l-.33-.003c-2-.027-3.442-.316-4.102-1.388L471.358 84.84l-.26.087v15.904c0 1.564-1.304 2.346-4.433 2.346h-2.086c-3.128 0-4.432-.782-4.432-2.346v-51.1Z"/><path d="M24.92 83.016C20.487 85.1 8.755 94.487 6.496 97.268c-2.347 2.781-3.042-1.564-.609-8.777c1.912-5.823 6.779-13.732 14.948-20.51c4.78-3.911 15.296-9.56 21.726-12.863c1.304-.695 18.164-7.821 33.199-11.384c1.304-.348-1.564 2.172-2 3.563c-2.259 6.605-47.363 34.936-47.363 34.936l-1.477.783Zm63.528 79.692c.782 4.693.087 5.041-4.78 5.65c-4.867.608-8.43-1.217-9.733-2.434c-1.304-1.217-1.564-3.91-.26-6.344c.782-1.564 1.564-2.086 1.999-3.998c.434-1.825.782-2.26 1.129-2.954c.347-.61.435-1.218.521-5.476c.087-4.258 0-12.254.435-15.643c.435-3.476 15.47 1.564 15.47 1.564s-3.564 8.865-4.52 11.037c-.956 2.173-.869 6.345-.869 7.214c0 .869-.347 2.607-.608 2.694c-.26.086.87 2.346.347 3.65c-.347 1.217.782 4.345.869 5.04Zm5.736-132.879c-.522-3.303 0-9.821.695-10.864c2.173-2.955 13.645-3.302 16.078.174c1.043 1.564.956 5.214.782 7.56c-.173 2.347-.782 7.388-.869 9.04c-.086 1.216-12.688 3.128-15.47-.175c-.782-.868-1.216-5.735-1.216-5.735Zm25.551 124.449c5.3 3.825 9.385 4.52 12.08 5.91c2.693 1.391 1.998 4.085-2.52 4.867c-3.651.695-9.387-.695-13.21-.695c-3.824 0-12.341.434-14.601-1.13c-2.607-1.825-1.478-5.214-1.478-5.214c.696-1.912 2.434-6.17 1.912-9.647c-.521-3.476-1.217-5.388-2.52-8.604c-1.304-3.215-2.26-11.123-1.042-11.558c1.216-.435.868 0 2.433.347c1.564.348 3.302.87 6.692.87s7.126-.522 8.43-.783c1.303-.26 2.346-.522 1.911 2.173c-.434 2.694-1.738 7.734-1.825 11.645c-.086 3.911-.086 8.43.175 9.212c.26.783 2.172 1.652 3.563 2.607Z"/><g fill="#88CE02"><path d="M101.137 38.52c-9.56 8.256-28.07 10.515-55.533 21.118c-7.04 2.694-25.81 10.776-30.33 19.206c15.208-8.777 20.857 3.303 22.074 15.73c1.13 11.646 6.952 17.73 21.9 17.381c15.383-.347 20.076 8.604 24.334 19.12c8.256-40.238 21.466-48.06 29.982-54.925c18.077-14.687-4.17-40.585-12.427-37.63Z"/><path d="M101.137 38.52c-22.943 7.995-45.626 9.994-72.306 26.42c-6.344 3.91-19.728 12.773-22.335 29.72c9.733-10.776 32.242-24.333 59.791-32.937c13.905-4.346 24.074-7.213 36.414-11.993c-.868-5.563-.868-7.735-1.564-11.211Z"/></g><path d="M130.424 86.144s-1.65 5.65-4.953 7.475c0 0-2.434.869-7.3-1.825c-1.39-.782-2.433-3.476-2.347-4.346c.087-2.086 1.39-3.041 1.39-3.041s1.392-2.347 3.042-2.26c1.652.087 4.433.347 5.302-.435c.782-.869 5.04 1.564 4.866 4.432ZM94.967 31.48s-.348 4.433-.956 7.214c-.087.521-2.694.782-4.606 1.564c3.65 10.429 25.637 10.342 28.505 5.214c-1.39-.955-4.171-2.433-5.475-2.954c-1.304-.522-1.217-.435-1.304-2.868c-.086-2.434-.26-6.953-.434-8.17c-.174-1.217-13.645-1.217-15.73 0Z"/><path fill="#EFEFEF" d="M95.836 31.48s0 2.52-.261 4.954c-.087 1.13-.174 1.825-.347 2.694c-.087.522 2.954 2.607 3.824 7.213c4.171 9.299 13.818 4.693 17.815.26c-1.39-.955-3.65-2.259-6.257-3.302c-1.304-.521-.695-1.65-.782-4.084c-.087-2.433-.435-5.997-.608-7.3c-.175-1.304-11.298-1.652-13.384-.435Z"/><path d="M94.967 31.48s-.087 1.565-.348 3.39c1.13 1.13 2.607 2.694 3.737 3.65c.783.695 2.694.608 4.433.608c1.564 0 2.954.174 3.563-.173c1.39-.696 3.39-2.434 4.519-3.737c-.087-1.565-.174-3.042-.26-3.738c-.088-1.217-13.559-1.217-15.644 0Z"/><path d="M102.875 38.085c-1.043 0-2.26-.086-3.215-.26c-.435-.087-.87-.348-1.217-.522c-.609-.435-1.217-.956-1.912-1.477c-1.39-1.043-1.477-1.652-1.477-1.912c.608-5.475-.174-10.081-.174-10.081s-.609-2.347 2.694-2.955c3.302-.609 5.3-.695 5.3-.695s2.087 0 5.302.695c3.303.608 2.694 2.955 2.694 2.955s-.782 4.606-.173 10.081c0 .26-.087.869-1.478 1.912c-1.217.869-2.173 1.824-3.128 1.998c-.956.175-2.173.261-3.216.261Z"/><path d="M102.875 17.923c-5.735 0-6.866 1.564-8.517 3.302c-.347.435-.087 3.042.522 8.604h.782s-.522-1.564-.435-3.39c.087-1.824.435-1.737.174-2.172c-.347-.522-1.043-1.39.522-2.26c1.564-.869 3.997.696 6.952.783c2.955-.087 5.475-1.652 7.04-.783c1.564.87.869 1.738.521 2.26c-.347.521.087.347.174 2.173a10.41 10.41 0 0 1-.435 3.39h.782c.522-5.563.87-7.996.609-8.43c-1.478-1.913-2.955-3.39-8.69-3.477Zm27.549 68.482s-1.65 5.301-4.866 7.126c-.696-.347-.609-.868-1.217-1.65c-.174-.261-.783-.436-1.043-.696c-.26-.26-.174-.695-.608-1.043c-.348-.347-.609-.087-.956-.347c-.348-.348-.435-.783-.695-1.043c-.175-.174-.87-.26-1.043-.435c-.435-.434-4.258-1.216-4.085-2.086c.348-1.303 1.043-2.26 1.043-2.26s1.651-2.432 3.302-2.346c1.651.087 3.216.435 4.085-.347c.956-.87 6.344 2.346 6.083 5.127Z"/><path d="M119.127 47.993s5.475-1.304 9.212 2.26c3.737 3.65 3.476 8.168 2.346 10.95c.956 1.13 2.694 4.257 1.39 7.995c5.737 4.866 3.216 12.34-1.91 17.294c0 0-1.218-4.52-6.084-4.78c.173-1.738-4.52-3.129-2.347-7.648c-3.302-.782-3.215-3.041-3.737-5.822c-.435-2.782 1.13-20.25 1.13-20.25Z"/><path fill="#EFEFEF" d="M117.128 50.426s6.344-3.215 10.081.435c3.737 3.65 2.694 7.647 1.564 10.428c.956 1.13 3.215 4.346 1.825 8.17c-.26.868-2.173.868-3.564 3.128c3.477-2 5.65-1.477 6.432 1.042c1.216 3.911-1.478 8.604-3.824 11.212c0-.087-.087-.175-.087-.261c-.348 1.304-.782 3.824-3.39 6.605c-1.303 1.39-2.346 1.217-3.823.869c-1.738-.435-2.347-1.218-4.78-2.52c-1.39-.783-.608-1.739-.608-2.52c0-.175.173-.436.434-.783c.174-.435.695-1.13 1.477-1.912c0 0 1.13-1.564 2.782-1.477c1.651.087 3.389-.26 3.824-.695c0-3.042-3.476-3.13-2.26-8.343c.087-.261.522-.696 1.912-.87c-2.086-.434-3.042-.521-4.52-1.911c-1.042-.956-1.824-2.173-2.085-3.737c-.521-2.694-1.39-16.86-1.39-16.86Z"/><path d="M98.79 44.951c-.521-.695-3.215-4.171-8.343-5.562c-1.477-.435-2.433.782-3.91 1.651c-.435-.26-2.347-1.13-3.39-.522c-1.042.608-1.737 1.217-2.78 1.652c-.522-.261-1.912-.261-3.042.173c-1.13.348-2.868 1.13-4.52 3.39c-1.042 3.737 18.424.955 18.424.955l7.561-1.737Z"/><path fill="#88CE02" d="M98.964 44.951c-2.781-.956-2.346-4.171-8.517-4.693c-1.216-.087-1.999.869-2.868 1.477c.435.435.87 1.13 1.13 1.825c-.782-.869-2.172-1.999-3.563-2.26c-1.304-.26-2.173.696-3.563 1.391c.26.26.52.695.868 1.217c-1.217-.782-2.085-1.042-3.737-.434c-1.13.347-3.302 1.303-4.953 3.65c-1.043 3.737 17.555-.435 17.555-.435l7.648-1.738Z"/><path d="M115.303 46.342s0-.957-.087-1.825c0-.174-.695-.609-.695-.782l-.174-.174s1.39-.783 2.433-.348c1.13.348 1.738 1.825 1.738 1.825c2-.695 2.173.087 3.129 1.13c2.086-.435 2.346.347 3.65 2.26c0 0-1.564-.261-4.606.26c-2.955.434-5.388-2.433-5.388-2.346Z"/><path fill="#88CE02" d="M114.955 45.907s.521-.435.347-.522c.956-.521 2.26-1.13 2.868.522c2-.696 2.26.26 3.216 1.304c2.433-1.13 2.607.26 2.78.868c-.781 0-1.91.087-3.475.261c-2.955.435-5.823-2.52-5.736-2.433Z"/><path d="M85.407 43.734s4.954 1.738 9.125 1.477c4.172-.347 11.298-.695 15.122 1.565c0 0 3.91-1.391 7.56-.435c3.651.956 10.343 7.213 8.344 13.818c-.174.435-1.304 1.13-2.607 1.565c0 0 .695 2.954-.522 5.388c-1.216 2.346-3.91 6.866-3.997 13.123c-.087 1.042-.26 3.215-.435 4.258c-6.779-.26-17.207-2.781-27.462-2.607c.086-1.13.173-1.825.26-2.955h.26c-.52-2.868-.694-4.345-1.216-6.518c-3.302-2.086-6.779-4.519-9.733-9.125c-2.868-4.606 5.301-19.554 5.301-19.554Zm33.546 46.93s5.388 19.293-.956 27.375c0 0 .956 3.737-1.217 7.735c-.347 1.738-.782 3.302-1.042 5.04c-1.13 7.214-3.043 10.255-3.564 21.814l-5.215-.087s-.608-8.343-2.433-12.775c-1.042-2.52-5.128-5.91-4.953-9.299c.174-2.607.695-4.78 5.128-8.256c.347-5.04-4.694-9.821-3.911-28.593l18.163-2.954Z"/><path fill="#EFEFEF" d="M117.389 89.881c1.39 8.865 4.606 21.988-1.217 28.418c.26 1.217.434 2.955.087 4.954c-.174 1.043-.522 2.173-.956 3.389c-.87 2.086-1.217 5.128-1.478 6.952c-1.13 7.214-1.13 7.562-1.65 19.12l-5.216-.087s-.608-8.343-2.433-12.775c-1.042-2.52-3.215-4.693-3.389-8.082c-.174-2.607 1.651-7.821 5.997-7.648c-.26-10.515-5.128-8.43-6.431-30.33l16.686-3.91ZM85.407 43.734s1.912.609 3.998.782c2.086.174 4.345 0 6.344-.087c4.171-.347 10.081-.782 13.992 1.478c0 0 2.172-.696 4.52-.522c1.042.087 2.085.956 3.301 1.304c3.824.956 7.474 7.3 5.823 13.036c-.174.435-1.39 0-2.781.435c.26 1.216.435 3.997-.956 6.952c-1.478 2.955-3.39 6.779-3.042 14.08c-9.125-.436-13.21-1.044-22.248-1.478c-.782-3.216-1.304-6.431-1.39-8.083c1.216-.608 1.91-1.129 2.867-2.172c-2.607.435-3.65.26-5.214-.609c-1.565-.869-4.346-3.65-5.736-5.475c-.174-.174-1.13 2.694-3.302 2.781c-.783-1.13 2.52-4.345 1.911-5.562c-2.172-4.432 1.913-16.86 1.913-16.86Z"/><path d="M118.083 82.668s.174 3.129.174 3.91c0 .87.696 3.477.782 4.694c-.956 1.65-5.127 5.388-12.688 6.779c-7.474 1.564-17.381-10.168-17.381-10.168c.26-1.13 1.13-4.433 1.738-6.17c.087-.174.26-.61.26-.783c.783-1.13 27.115 1.738 27.115 1.738Z"/><path fill="#EFEFEF" d="M116.172 82.93c0 2.172.347 3.736.608 5.127c.435 2.52 1.13 4.171 1.13 5.822c0 5.04-6.605 4.172-12.167 4.346c-7.474 1.564-13.819-10.168-13.819-10.168c.522-2 .87-4.258 1.652-6.17a56.38 56.38 0 0 1 .347-2.955c10.603 0 18.077.608 22.422 1.042c.174.956 0 2.607-.173 2.955Z"/><path d="M107.828 94.14s-4.605-10.255-18.424-7.213c-3.302 9.299-7.734 19.988-4.866 31.547c-2.868 3.91-6.17 6.084-6.17 13.296c0 7.214.347 8.43.347 8.43l10.168.522s3.302-4.258 4.606-8.864c.347-1.304.695-3.65.434-6.344c.348-.522 1.825-1.738 2-4.085c0 0 4.953-2.607 7.821-8.95c2.694-5.738 1.999-10.691 4.084-18.34Z"/><path fill="#EFEFEF" d="M107.828 94.14c-.26-.956-3.736-10.342-16.599-7.561c-7.56 20.162-4.78 28.505-3.65 32.155c-5.127 6.518-7.474 7.908-6.43 21.118h6.778c3.129-4.953 3.824-6.778 3.998-13.296c0-.26-.956.521-1.651 1.39c.522-2.694 1.999-3.215 3.128-4.866c.522-.696.956-1.739.956-3.13c6.084-4.084 8.343-9.211 9.647-14.513c1.043-3.65 2.26-9.646 3.823-11.297Z"/><path d="M86.363 80.148s2.347.087 4.433.782c1.998.695 1.998 1.13 2.78 2c.783.869 2.695 2.172 2.347 3.475c-.174.696-.608.87-1.217 1.478c-.26.26-2.173 2.346-2.607 2.607c-.26.173-.608.434-.87.608l-1.303.87c-.869.434-1.477.695-2.433.608c0 0-2.172-.087-3.563-1.565c0 0-.174-.695.174-1.042c0 0-1.826-1.565-2.347-2.608c-.522-1.042-.522-2.52-.174-3.302c.174-.783 3.563-2.955 4.78-3.91Zm2.173 84.56l-.26 2.173s-.783.956-6.606.869c-5.91-.087-7.474-1.912-7.995-2.868l-.347-2.26s1.13-1.65 1.39-1.65c1.912.173 8.43 2.78 12.95 3.475c.433 0 .52.174.868.26Zm12.601-4.432c0 .955-.087.955-.087 1.912c1.043.782 3.65 1.216 8.604 1.129c7.213-.174 13.905 2.173 22.074.782l.087-1.564l-.782-.087l-28.94-2.346l-.956.174Z"/><path d="M107.481 163.317h2.173c4.693-.173 9.125.87 13.905 1.13c2.52-.087 5.649-.695 5.388-2.52l-24.681-2.086c-1.478 1.651-.348 3.042 3.215 3.476ZM79.15 126.73c.782.521 6.083 3.65 14.687 3.215c-.174 1.651-.087 4.867-3.911 10.516c-1.912 2.78-3.564 7.648-3.91 13.818c.086 1.39.868 2.607-.175 4.432c.348 1.13 1.738 3.39 2.434 4.78c.695 1.39 1.043 2.955-3.564 3.042c-4.693.087-12.254-.435-11.21-4.084c.521-1.912 1.999-3.911 2.173-4.694c.173-.782.173-3.128 1.65-4.693c1.304-4.345.87-8.516.61-12.427c-.436-4.085-.523-10.603 1.216-13.905Zm8.082-70.829c6.17-8.256.956-14.86-8.951-12.862c-3.998.782-7.995 3.563-8.256 8.603c-1.304.174-4.259.348-5.736 5.736c-1.13 4.172-1.738 4.954-3.737 7.04c-1.304 1.477.087 4.519 1.042 6.692c3.216 7.473 13.123 8.169 19.815 13.818c2.26-.609 4.606-3.129 5.302-4.78c-5.65-6.692-4.433-9.3-6.693-12.775c2.434-.87 7.996-4.259 7.214-11.472Z"/><path fill="#EFEFEF" d="M86.015 55.38c.347-.522.956-1.652 1.217-2.086c.087-.087 1.043 1.564 1.13 1.477c2.346-3.824 2.954-9.386.26-9.907a15.402 15.402 0 0 1-2.694-.696c-1.738-.608-3.302-.608-6.083-.086c-3.824.695-7.648 3.476-7.648 7.473c0 .261 2.694 1.043 3.476 4.259c-1.304-1.825-3.563-3.824-6.257-2.086c-2.868 1.825-1.39 5.996-5.215 10.342c-1.304 1.477-1.13 3.215.26 6.691c2.26 5.476 12.95 8.43 18.773 13.645c1.39-.609 2.346-2 3.041-3.042c-3.91-4.084-5.475-7.909-6.604-10.69c-1.39-3.215-2.955-5.04-5.997-7.474c1.564.608 2.781 1.217 3.476 1.738c.782.522 1.912.609 2.955.26c3.738-1.302 5.736-6.516 5.91-9.818Z"/><path d="M123.82 56.77c-.261 3.303-2.694 1.651-3.998 1.043c-2.607-1.13-5.215-1.912-8.256-1.912c-3.042 0-6.953.26-10.342 1.13c-4.693 1.303-6.084 1.217-8.17.173c-2.085-1.13-5.735-3.91-5.735-3.91s-.087.869.783 1.999c1.129 1.39 3.65 3.128 7.039 4.258c1.65.522 2.955.173 4.432-.174c7.735-1.912 15.904-2.26 22.77 1.912c.347.174 1.564-.348 2.085-1.13c.695-1.13-.608-3.389-.608-3.389Z"/><path fill="#001423" d="M84.277 89.881c.695.435 1.564.696 2.52 1.478c0 0-.782 0-1.13-.348c-.434-.26-1.303-1.042-1.39-1.13Z"/><path fill="#EFEFEF" d="M109.393 20.965c-.26-.782-2.173-2.173-6.605-2.173c-4.78 0-6.17 1.477-6.257 2.26c0 .26-.348 3.041-.435 4.17c0 0 0 1.391.087 3.477c.087 1.39.435 2.172.608 3.998c.174 1.911.696 3.128 1.652 4.693c.434.26.782.521 1.217.608c1.738.347 4.78.434 6.43 0c.956-.26 2.173-1.912 2.434-3.39c.347-1.824.695-3.128.782-4.257c.174-1.13.26-3.65.347-4.346c.261-1.912-.173-4.867-.26-5.04Z"/><path d="M100.268 128.381s4.606 1.999 15.991.26c0 0-3.215 16.165-1.738 24.247c0 0 1.477 2.086 12.428 6.084c0 0 4.866 1.217 4.693 3.65c0 0 .173.522-5.736.348c-5.91-.174-11.472-1.217-15.383-1.217c-3.91 0-8.082.173-8.777-.956c-.782-1.043.174-3.737 1.303-5.302c1.218-1.65.87-2.868.783-5.822c-.262-7.735-6.171-15.73-3.564-21.292Z"/><path fill="#88CE02" d="M99.312 129.859c-.609.869.086 4.17.956 7.386c.869 3.216 2.781 5.128 3.215 10.429c.435 5.214.522 5.91-.956 8.951c-1.477 3.041-1.912 5.823 3.216 5.91c5.127.087 7.908-.087 13.122.695c5.215.782 7.04 1.043 9.908.609c2.868-.435 3.476-1.391 2.26-2.26c-1.217-.869-6.258-1.825-8.43-3.563c-2.086-1.565-7.996-4.172-8.082-4.867c-.26-2.347-.348-10.863.086-13.644c.435-2.782 1.043-6.78 1.217-7.822c.174-1.043 1.043-2.086-.435-1.738c-1.477.347-7.039 1.13-11.21.869c-4.172-.26-4.606-1.217-4.867-.955Z"/><path d="M102.267 156.713c1.477.695 3.65 1.216 5.301 1.216c0 0-.609 2.868.348 4.606c.955 1.739-6.953.696-6.953.696l-.347-6.17l1.65-.348Zm23.03 7.473c1.39-.434 2.347-1.998 1.217-3.476c-1.217-1.477-2.26-1.738-.696-1.824c1.565-.087 7.3 3.389 7.3 3.389l-2.954 2.694l-4.867-.783Zm-26.246-30.938c1.999.695 5.04.869 7.648.782c2.607-.087 6.518-.435 9.039-1.304c2.52-.869 1.477.956 1.477.956l-1.39 1.304s-3.303 1.303-8.691 1.217c-6.344-.087-8.257-.782-8.257-.782l.174-2.173Zm.174 4.345c2 .696 5.04.87 7.648.782c2.607-.086 6.083-.086 8.603-1.043c1.043-.347.435 1.13.435 1.13l-.435.782s-3.389 1.217-8.69 1.13c-6.344-.087-7.474-.609-7.474-.609l-.087-2.172Z" opacity=".3"/><path fill="none" d="M100.268 128.381s7.56 2.694 16.078.87c0 0-3.302 15.555-1.825 23.55c0 0 1.477 2.086 12.428 6.084c0 0 4.866 1.217 4.693 3.65c0 0 .173.522-5.736.348c-5.91-.174-11.472-1.217-15.383-1.217c-3.91 0-8.082.174-8.777-.956c-.782-1.043.174-3.737 1.303-5.301c1.218-1.652.87-2.868.783-5.823c-.262-7.648-6.171-15.643-3.564-21.205Z"/><path fill="none" d="M100.268 128.381s7.56 2.607 16.078.782c0 0-3.302 15.643-1.825 23.639c0 0 1.477 2.085 12.428 6.083c0 0 4.866 1.217 4.693 3.65c0 0 .173.522-5.736.348c-5.91-.174-11.559-1.825-15.383-1.217c-4.084.695-8.082.434-8.777-.956c-.609-1.13.174-3.737 1.303-5.301c1.218-1.652.87-2.868.783-5.823c-.262-7.648-6.171-15.643-3.564-21.205Z"/><path d="M93.49 76.672c0 .608 6.778 3.997 10.515 4.693c3.737.695 11.559 0 12.775-.26l-.174 1.216s-9.299 1.39-16.425-.521c-7.127-1.912-6.344-2.347-6.344-2.347l-.348-2.781Z"/><path fill="#EFEFEF" d="M78.975 150.803c1.043.522 4.78 1.478 7.213.956c.348-.087 0-5.996.957-8.69c1.39-3.738 3.65-6.78 4.692-13.384c-3.65-.347-7.821-1.304-9.994-1.999c-2.78 8.517-1.825 15.817-2.868 23.117Zm5.823 5.476c.609.173 1.043.868 1.217.434c.347-.782-.608-2.26-.695-3.302v-.087c-.782-.695-6.084-.782-5.736-.435c-.608 1.13-1.564.956-1.911 3.216c-.174 1.13 1.216.174 2.52.087c-2.347 1.564-5.04 3.563-5.476 5.3c-.521 2.434.348 3.13 2.956 4.434c2.26.521 4.953.608 7.039.521c2.346-.435 2.781-1.564 2.086-3.129c-1.044-2.346-1.739-5.388-2-7.04Z"/><path d="M85.754 43.386c2.869 1.652 6.866 1.217 8.343 1.13c.348 0 3.825-.608 3.998-.522c.348.088.348.348.348.348s-1.304.695-4.258.869c-2.781.174-6.084 0-7.909-.869c-2.173-.956-.522-.956-.522-.956Zm29.549 1.652c.521.347 3.91 1.65 5.388 3.215c1.304 1.391.609 1.304.348.956c-.348-.435-3.042-2.26-4.085-2.694c-1.043-.434-2.347-1.217-2.347-1.39c0-.174.696-.087.696-.087Z"/><path fill="#EFEFEF" d="M85.32 81.104c2.52-.174 5.127.435 6.779 2.172c.869.87 2.26 1.825 2.086 2.694c0 .261-.522.957-.956 1.478c-.26.347-1.043 1.13-1.304 1.39c-.347.261-1.564 1.217-1.825 1.39c-.26.175-.608.61-.87.696c-.868.435-1.824.087-2.693-.347c-.869-.435.174-.522-.782-1.217c-2.346-1.651-3.65-2.781-2.694-5.997c.087-.608 1.042-1.303 2.259-2.26Z"/><path d="M63.159 61.202C55.337 64.33 35.435 74.238 29.786 77.28c4.693 2.955 6.866 10.08 7.561 17.294c.087.696.174 1.304.261 1.999c.087.608.174 1.043.26 1.304c0 .087 0 .26.087.347c5.128-13.992 23.465-28.766 24.16-29.896c.348-.52-.434-2.78.782-4.953c1.565-2.782 4.607-3.998.262-2.173Zm18.598 65.614c3.997-7.995 4.084-15.643 3.997-24.594c0-3.738 2.694-9.039 1.304-7.561c-5.215 5.822-18.337 16.773-27.81 17.38c13.296-.434 18.51 6.258 22.509 14.775Z" opacity=".4"/><path d="M22.138 84.666C27.092 81.103 52.73 67.46 58.9 65.547c6.17-1.999 4.258-4.346 4.258-4.346S38.13 71.978 23.181 81.277"/><path d="M95.14 59.55c-2-.781-3.563 1.565-3.042 3.825c.522 2.26 5.215 4.78 4.954 13.036c-.174 6.779-1.651 9.56-1.651 9.56l-3.303-4.172s-.521-9.386-1.651-10.777c-1.13-1.39-4.693-3.91-6.083-5.214c-1.391-1.304 1.564-3.042 1.39-5.475c-.174-2.346 1.478-7.04 1.478-7.04l7.908 6.258Zm12.08 37.023c-.174 6.517 1.304 16.164 1.912 20.77c.608 4.606 1.39 4.954 0 7.04c-1.39 1.999-3.215 5.301-3.215 5.301l-5.997-.521s4.78-6.084 5.04-7.214c.26-1.129-2.433-9.733-2.433-9.733l4.693-15.643ZM95.662 35.738c1.216 2.694 2.694 3.91 5.04 4.693c1.39.522 6.865 1.217 9.038-1.217c.956-1.13.348-4.171.348-4.171l-4.954 3.997l-6.692-1.216l-.782-1.999l-1.998-.087Z" opacity=".4"/><path fill="#88CE02" stroke="#000" stroke-linejoin="round" stroke-width="1.586" d="M96.183 41.735c2.26 1.477 7.908 2.868 9.472 3.129c1.565.347 4.085-1.652 5.302-2.173c1.304-.608 3.563-.956 6.17 1.39c.26.261-.608 1.391-.608 1.391c-.087-.087-.609-.087-1.304-.435c-.695-.347-1.304-.608-2.346-.521c-4.346.521-5.041 1.999-8.865 1.13c-3.824-.87-4.78-1.565-8.516-1.391"/><path fill="#88CE02" d="M95.4 41.995c2.869 1.217 8.43 2.52 9.995 2.869c1.564.347 4.084-1.217 5.301-2c2.173-1.39 4.954-.26 6.258 1.217c.868.956 1.216 1.565 1.216 1.825c0 .348-1.042 0-1.042 0c-.609-.26-1.304-.347-1.825-.695c-.696-.347-1.391-.869-2.433-.782c-4.346.522-5.215 1.999-8.952 1.13c-3.737-.87-4.693-1.652-8.69-1.391"/><path d="M81.93 123.166c-.173-.174.174-.347 0-.347c-1.13 0-2.694-.87-3.563-2.086c-3.737-5.388-9.212-8.951-19.12-8.69c-14.86.347-20.77-5.736-21.9-17.382c-.608-6.344-2.347-12.514-5.91-15.991l-2.086 1.304c3.998 3.476 5.302 9.125 6.17 16.86c1.391 11.645 10.777 17.033 21.727 17.207c11.385.174 15.47 2.52 19.728 8.257c1.39 1.824 2.955 2.433 4.171 2.694l.783-1.826Z"/><path d="M122.255 67.285c.26 1.304.956 3.824 2.346 5.04c.609.609.696.783.174.783s-4.345-.174-4.345-.174l-1.043-1.825l2.868-3.824Z" opacity=".4"/></svg>