<svg xmlns="http://www.w3.org/2000/svg" xmlns:xlink="http://www.w3.org/1999/xlink" width="256" height="316" viewBox="0 0 256 316"><path fill="#ECDFA7" d="M119.78 158.373L98.172 312.677s-35.229 12.918-67.17-14.091l34.994-149.608L0 15.107S26.07 4.068 42.745 7.826l58.011 109.446l100.521-85.49s33.82 11.743 36.873 23.016L119.78 158.373Z"/><path fill="#3F3E29" d="M251.772 173.798c-1.644-3.288-3.757-6.341-6.106-9.16c-4.697-5.401-10.334-9.864-16.44-13.387c-5.872-3.757-12.448-6.81-19.024-8.924l-2.584-.705l-2.113-.705c-1.41-.47-2.584-1.174-3.758-1.644c-2.349-1.409-3.993-2.818-5.167-4.697c-2.349-3.523-2.584-8.925-1.41-14.561c.236-1.41.705-2.819 1.175-4.228c.47-1.409.94-2.818 1.41-4.462c.469-2.114.704-4.228.704-6.811l1.174-.94l14.092-11.743c2.583-2.114 5.167-4.462 7.75-6.576c.94.47 1.88 1.174 2.584 1.644c0 0 7.28.705 11.273-10.334l-2.114-1.409l1.41-1.174l3.522-3.054c1.175-.939 2.114-2.113 2.584-4.227c-2.114-.235-3.523.47-4.697 1.41l-3.758 2.817l-2.584 1.88l-32.41-22.313c1.643-1.409 3.053-2.583 4.697-3.992l6.81-6.107l.705-.704c.705.47 1.175.94 1.88 1.409a63.123 63.123 0 0 0 5.166 3.288l10.334 5.637c3.288 1.879 6.811 3.757 10.334 5.402c1.644.939 3.523 1.644 5.402 2.348c.94.235 1.879.705 2.818.94c.47 0 1.175.234 1.644.234h1.175c.47 0 .939-.234 1.409-.939v-.235c0-.235 0-.47.235-.704v-.94c0-.47-.235-.704-.47-.94c-.235-.47-.705-.939-.94-1.409c-.704-.704-1.409-1.644-2.113-2.113c-1.41-1.41-3.054-2.584-4.463-3.758c-3.053-2.349-6.341-4.462-9.63-6.576c-3.287-2.114-6.575-3.993-10.098-5.637c-1.644-.94-3.523-1.644-5.402-2.349c-.94-.234-1.879-.704-3.053-.939c-.47 0-1.175-.235-1.88-.235c-.469 0-.704 0-1.408.235c-.47.235-1.175.47-1.88 1.174c-1.643.705-3.052 1.41-4.227 2.349l-7.046 3.993c-2.113 1.644-4.462 3.523-6.576 5.167l-2.348-1.644s-9.865.939-6.577 7.28l.94.94c-9.395 7.75-18.554 15.736-27.714 23.486c-9.394 7.985-18.554 15.97-27.948 24.19l-13.857 12.214c-.705.704-1.41 1.409-2.349 2.113c-.47-1.409-1.174-2.583-1.644-3.757l-3.288-7.046l-6.341-14.092c-4.228-9.395-8.455-18.789-12.918-28.184L73.512 32.646l-2.114-4.228h2.819s.939-7.75-4.698-9.16c0 0-.94 0-2.348.236c-2.114-4.228-3.993-8.455-6.107-12.683l-.94-3.523c-.234-1.174-.939-1.644-1.408-2.114c-.47-.235-.94-.47-1.175-.47c-.704-.234-1.174-.234-1.879-.47C54.488 0 53.55 0 52.61 0c-2.114 0-3.992.235-5.871.47c-3.758.47-7.75 1.174-11.509 2.113c-3.757.94-7.515 1.88-11.273 3.054c-1.879.704-3.758 1.174-5.402 2.113l-2.818 1.41c-.47.234-.94.704-1.41.94l-.704.704c-.235.235-.235.47-.47.704v.94c.235.94.705 1.174 1.175 1.409c.47.235.704.47.94.47c.704.234 1.173.234 1.643.47c.94.234 2.114.234 3.053.234c1.88 0 3.993-.235 5.872-.47c3.758-.47 7.75-.939 11.508-1.644l11.508-1.878c1.88-.235 3.758-.705 5.872-1.175c1.644 3.288 3.288 6.811 4.932 10.1c-10.804.939-27.714 2.348-38.283 3.522c-1.174-2.114-2.113-3.992-3.288-6.106c-.234-.47-.939-.94-1.644-.705c-.704.235-.94.94-.704 1.644c.704 1.88 1.409 3.523 2.114 5.402c-3.289.47-5.402.94-5.637 1.41c-1.174 2.113 2.348 13.152 7.046 15.97c0 0 1.879-.705 5.167-1.41l4.932 11.274L43.45 82.906l14.326 31.942c4.697 10.569 9.63 21.137 14.562 31.941c0 0 0 .235.234.235l-2.113 7.046l-5.637 19.728c-3.523 13.152-6.811 26.54-10.1 39.692l-4.931 19.963l-4.697 19.964c-3.288 13.387-6.342 26.539-10.1 39.691c0 .235 0 .705.235.94c1.88 2.583 4.463 4.462 6.811 6.341c2.584 1.879 5.167 3.288 7.75 4.697c5.403 2.819 11.04 4.932 16.91 6.811c5.872 1.644 11.979 2.819 18.32 3.053c3.053.235 6.341 0 9.395-.47c3.053-.469 6.106-.939 9.394-1.878c.94-.235 1.644-1.174 1.88-2.114v-.235c2.583-12.917 4.696-26.07 7.045-38.987l6.576-39.222c2.114-13.152 4.462-26.07 6.576-39.222c.235-1.41.47-3.053.705-4.462c.47.47.704 1.174 1.174 1.644c2.349 2.818 5.167 5.167 7.985 7.28c5.637 3.993 11.744 7.046 17.85 9.395c6.106 2.349 12.448 4.227 18.789 5.637c4.228.939 8.22 1.644 12.448 2.113c-1.88 4.228-3.054 8.69-2.819 13.622c0 .47.235.94.705 1.175h.235c4.462 2.348 9.16 4.227 14.326 5.402c4.933.939 10.334 1.409 15.501.704c5.402-.704 10.804-2.818 15.032-6.341c4.227-3.523 7.28-8.22 9.16-13.152l.234-.235v-.235l.705-6.341v-.235c2.348-1.41 4.697-2.819 7.045-4.698c2.819-2.348 5.402-4.932 7.281-8.22c1.88-3.288 3.053-7.28 2.819-11.273c-.235-3.758-1.644-7.516-3.289-10.804Zm-4.462-118.37s0 .234 0 0ZM230.635 42.98c3.288 1.879 6.341 3.758 9.394 6.106c1.41 1.175 3.054 2.114 4.463 3.523c.704.705 1.409 1.174 1.879 1.88l.47.469h-.47c-.94-.235-1.644-.47-2.584-.705c-1.644-.704-3.523-1.409-5.167-2.114c-3.288-1.644-6.81-3.288-9.864-5.401c-3.053-2.114-6.106-4.463-8.69-7.046c-.94-.94-1.879-1.88-2.583-2.819l3.523 1.41c3.053 1.174 6.34 2.818 9.629 4.697Zm-15.97-10.334l.234.235v.469s0-.234-.235-.234v-.47ZM47.206 6.34C43.92 7.985 40.161 9.16 36.64 10.1c-3.758.94-7.281 1.644-11.039 1.879c-1.879.235-3.758.235-5.637.235c-.94 0-1.879 0-2.583-.235h-.705c.235 0 .235-.235.47-.235c.705-.47 1.644-.704 2.349-1.174c1.644-.705 3.523-1.175 5.167-1.88c3.522-.939 7.28-1.878 11.038-2.583a94.676 94.676 0 0 1 11.039-1.409c1.174 0 2.348 0 3.523-.235c-.705.705-1.88 1.175-3.054 1.88Zm162.996 80.09L195.64 97.703l-14.56 11.507c-3.993 3.288-7.985 6.576-11.978 9.63c.235-.235.47-.705.705-.94c1.878-2.584 3.757-4.932 5.636-7.28c3.993-4.698 7.75-9.63 11.978-14.093c4.228-4.462 8.69-8.924 13.152-12.917c2.35-2.114 4.698-3.993 7.281-5.637l2.114-1.409c2.114 1.644 4.462 3.288 6.576 4.932c-1.879 1.644-4.227 3.288-6.341 4.932ZM38.048 57.541l1.174 1.175c2.349 2.348 4.697 4.697 6.576 7.28c1.88 2.584 3.523 5.402 4.228 8.22c.47 2.35.47 4.933-.705 7.046l-.235-.704L38.048 57.54Zm11.508 24.426c.705-.705 1.174-1.644 1.644-2.818c.705-1.644.705-3.523.47-5.167c-.47-3.523-2.114-6.811-4.228-9.395c-3.053-3.993-6.81-7.28-11.038-10.099l-2.584-5.402c-1.644-3.523-3.288-7.046-5.167-10.334c3.523-.94 7.75-2.348 12.448-3.523c4.227 6.811 7.985 13.857 11.508 21.138c3.993 9.16 7.985 18.789 8.69 28.653c.235 2.349 0 4.932 0 7.516c0 2.583 0 5.167.235 7.75c.235 3.523.94 7.281 1.644 10.804L49.556 81.967Zm55.427 191.413c-.704.94-1.174 1.644-2.113 2.348c-1.175.94-2.349 1.41-3.758 1.175c-1.174-.235-2.114-1.41-2.584-2.584c-.47-1.174-.939-2.583-.939-3.992c-.235-2.819-.235-5.637.47-8.455c.47-2.819 1.409-5.402 2.583-7.986c.705-1.174 1.41-2.348 2.349-3.288c.94-.94 2.114-1.644 3.288-1.409c1.174 0 2.349 1.174 3.053 2.349c.47.704.705 1.409.94 2.113l-2.819 16.676c-.235 1.174-.235 2.113-.47 3.053Zm13.857-81.028l-4.227 24.66c-.235-1.643-.705-3.287-1.174-4.931c-1.175-4.463-2.584-8.69-3.993-12.918c-3.053-8.455-6.576-16.675-10.804-24.425c2.584 8.69 5.637 16.91 8.69 25.365c1.644 4.227 3.053 8.455 4.462 12.447l2.114 6.342c0 .235.235.704.235.94c-.704 3.757-1.41 7.515-1.879 11.507l-3.523 21.373c-.235-.47-.235-.94-.47-1.41c-.704-1.408-1.643-2.818-3.522-3.287c-1.644-.47-3.288.47-4.698 1.409c-1.174.94-2.113 2.348-3.053 3.523c-1.644 2.583-2.583 5.636-3.053 8.455c-.47 3.053-.705 6.106 0 9.16c.235 1.409.705 3.053 1.644 4.462c.705 1.409 2.114 2.818 3.758 3.053c1.644.235 3.288-.705 4.227-1.879c.47-.47.94-1.174 1.41-1.644c-1.645 11.039-3.523 22.077-5.167 33.35a30.757 30.757 0 0 1-6.342 1.41c-2.818.47-5.636.704-8.455.94c-5.871.234-11.508-.236-17.38-1.645c-5.636-1.174-11.508-3.053-16.91-5.402c-5.167-2.348-10.099-5.401-13.857-9.629c3.523-12.917 7.516-25.835 11.509-38.752l6.106-19.494l5.872-19.728c3.992-13.153 7.985-26.305 11.743-39.457c1.879-6.576 3.523-13.153 5.402-19.729c1.409-6.81 4.227-13.152 2.113-20.668v-.234c-.235-.235-.47-.235-.47 0c-1.174 1.174-1.878 2.113-2.818 3.288c-2.583-5.872-5.402-11.509-7.985-17.38c-.705-2.114-1.41-4.228-1.879-6.576c-1.174-4.932-2.114-9.865-2.349-14.797c-.234-2.583-.234-4.932-.234-7.515c0-2.584.234-5.167 0-7.75c-.94-10.335-4.933-20.199-9.395-29.358c-3.523-7.281-7.75-14.092-12.448-20.668c7.75-2.114 15.971-4.228 22.547-5.402c.94 2.114 2.114 3.992 3.053 6.106l14.092 27.714l14.092 27.479l7.046 13.622l3.523 6.81c.94 1.41 1.409 3.054 2.348 4.228l-9.16 8.455c-.234.235-.47.705 0 1.175c.236.47.94.47 1.175.235c4.932-3.523 9.864-7.281 14.796-11.039l14.797-11.273c9.864-7.516 19.493-15.031 29.123-22.547c9.629-7.516 19.258-15.266 28.888-23.017l.234-.234c5.167 4.932 12.918 12.212 21.138 18.554c-3.523 1.879-6.81 3.757-9.864 6.106c-4.932 3.758-9.63 7.985-13.857 12.683c-4.228 4.697-8.22 9.394-11.743 14.561c-2.584 3.523-4.932 7.28-7.28 11.274c-14.327 11.743-28.42 23.72-42.041 36.168c-.47.47-.47 1.175-.235 1.644c.47.47 1.174.705 1.644.47c-1.644 4.697-2.584 9.395-3.523 14.092c-1.41 6.576-2.818 13.152-3.993 19.728Zm103.81 31.472c-3.289 2.583-7.281 4.227-11.509 5.167c-4.227.94-8.924.94-13.387.47c-4.227-.47-8.69-1.175-12.917-2.35c-.47-3.757.235-7.984 1.879-11.742c1.644.235 3.053.235 4.697.47c.704 0 1.174-.235 1.409-.94c.235-.705 0-1.644-.94-1.879c-1.174-.47-2.113-.704-3.288-1.174c.94-1.644 2.114-3.053 3.289-4.463c1.409-1.409 2.818-2.818 4.227-3.992c3.053 1.879 6.107 3.288 9.63 4.462c3.992 1.175 8.22 1.644 12.682 1.175c4.228-.47 8.69-2.584 11.508-6.107c2.584-3.053 3.758-6.576 3.993-10.334c.47 1.41.47 3.053.235 4.463c-.235 1.878-.47 3.992-.94 5.871l-.704 3.523l-3.523 2.114c-1.41.94-2.584 1.879-3.758 3.992c2.114.705 3.758.47 5.402 0c.235 0 .235-.234.47-.234c-.235.704-.235 1.174-.47 1.878c-1.879 3.758-4.697 7.046-7.985 9.63Zm23.25-30.767c-1.173 2.583-3.052 4.932-5.166 7.046c-.94.94-2.114 1.879-3.053 2.583c0-2.114-.235-4.227-.705-6.341c-.235-1.174-.47-2.114-.94-3.288c-.469-.94-.939-2.114-2.113-2.818c-.235 0-.47 0-.47.234c-1.409 3.523-3.758 6.577-6.341 8.69c-2.584 2.114-5.872 3.054-9.16 3.288c-3.288.235-6.81-.47-10.334-1.409c-3.523-.94-7.046-2.114-10.568-3.288l-.47-.235c-.705-.235-1.644 0-2.114.47c-1.879 2.349-3.288 4.462-4.932 6.811c-1.174 1.879-2.114 3.523-3.053 5.402c-4.228-1.644-8.22-3.053-12.448-4.697c-5.872-2.349-11.743-4.698-17.145-7.516c-5.637-2.583-11.038-5.637-15.736-9.16c-4.697-3.523-8.924-7.28-11.038-11.978v-.234a4.609 4.609 0 0 0-2.114-2.114c0-.47.235-1.175.235-1.644c.704-5.637 1.644-11.274 1.174-17.145c19.024-13.387 37.578-27.48 55.897-42.04l-.704 2.113c-1.174 3.523-1.644 7.516-1.644 11.508c.235 3.993 1.409 8.455 3.992 12.213c2.584 3.758 6.107 6.576 9.63 8.22a31.863 31.863 0 0 0 5.402 2.114l2.818.705l2.349.47c6.106 1.644 11.978 3.992 17.38 7.045c5.401 3.054 10.568 6.811 14.796 11.039c4.227 4.227 7.515 9.63 7.985 15.031c.235 3.758-.235 6.576-1.41 8.925Z"/><path fill="#3F3E29" d="M89.952 247.075c-1.879 2.584-3.288 5.637-3.992 8.69c-.47 1.644-.705 3.288-.705 4.697l-.235 4.698c-.47 6.106-.235 12.682 1.644 18.789c1.88 6.106 4.463 11.743 7.516 17.145c-.94-3.054-2.114-5.872-3.053-8.69c-.94-2.819-1.88-5.872-2.584-8.925c-1.41-5.872-1.41-11.978-1.174-18.085l.235-4.697c0-1.409.235-3.053.47-4.462c.704-2.818 1.878-5.637 3.287-8.22c1.645-2.584 3.523-4.932 5.872-7.046a29.217 29.217 0 0 1 7.516-5.402c-5.872 2.349-11.274 6.106-14.797 11.508Z"/></svg>