<svg xmlns="http://www.w3.org/2000/svg" xmlns:xlink="http://www.w3.org/1999/xlink" width="256" height="255" viewBox="0 0 256 255"><path fill="#00ADE5" d="M217.787 131.997a37 37 0 0 1-7.453 13.035L191.2 164.06l-37.001-36.794L191.2 90.472l19.134 18.66a21.86 21.86 0 0 1 7.17 10.322a21.75 21.75 0 0 1 .283 12.543m-95.145 84.574a36.7 36.7 0 0 1-12.739-7.517l-19.081-18.976l37-36.793l37.002 36.793l-19.188 19.08a22 22 0 0 1-10.38 7.13a22.1 22.1 0 0 1-12.614.283m-85.101-94.614a36.7 36.7 0 0 1 7.559-13.035l19.134-18.976l37.001 36.794l-37.001 36.795l-19.187-19.08a22.03 22.03 0 0 1-7.186-10.348a21.9 21.9 0 0 1-.32-12.57zm95.145-84.994a36.7 36.7 0 0 1 13.161 7.516l19.082 18.976l-37 36.794l-37.001-36.794L109.903 44.9a22 22 0 0 1 10.381-7.13a22.1 22.1 0 0 1 12.613-.282zm104.078 46.15l-64.805-64.232A73.55 73.55 0 0 0 145.53 3.113c-22.042-7.307-43.925-1.63-61.686 15.768L18.988 83.113A73.1 73.1 0 0 0 3.13 109.394c-7.347 21.92-1.639 43.733 15.858 61.394l64.487 64.39a73.3 73.3 0 0 0 26.428 16.084a59.6 59.6 0 0 0 18.66 3.1a60.6 60.6 0 0 0 23.475-5.241a60.4 60.4 0 0 0 19.552-13.943l65.174-64.18a73 73 0 0 0 16.121-26.281c7.348-21.92 1.586-43.732-16.121-61.341"/></svg>