<svg xmlns="http://www.w3.org/2000/svg" xmlns:xlink="http://www.w3.org/1999/xlink" width="512" height="135" viewBox="0 0 512 135"><path fill="#273240" d="M176.13 131.66a3.053 3.053 0 0 1-3.054-3.052V48.509a3.053 3.053 0 0 1 3.054-3.053h19.544a3.053 3.053 0 0 1 3.053 3.053v80.099a3.053 3.053 0 0 1-3.053 3.053H176.13Zm9.69-102.438c8.34 0 15.099-6.541 15.099-14.61c0-8.07-6.76-14.612-15.098-14.612c-8.339 0-15.098 6.542-15.098 14.611c0 8.07 6.76 14.611 15.098 14.611Zm123.463 13.474c6.819 0 12.284 2.3 16.397 6.9c3.839 4.293 5.885 10.118 6.141 17.475l.028 61.537a3.055 3.055 0 0 1-3.053 3.053h-19.544a3.053 3.053 0 0 1-3.054-3.053V73.055c0-7.684-2.435-11.527-7.305-11.527c-2.705 0-5.086.92-7.143 2.76c-1.066.954-2.118 2.17-3.155 3.647a14.077 14.077 0 0 0-2.749 8.357l-.084 21.932l-.019 30.384a3.055 3.055 0 0 1-3.053 3.053h-19.544a3.053 3.053 0 0 1-3.053-3.053V73.055c0-7.684-2.435-11.527-7.305-11.527c-2.598 0-4.952.947-7.062 2.841c-1.245 1.117-2.461 2.544-3.65 4.283a12.855 12.855 0 0 0-2.358 7.42l-.08 52.536a3.055 3.055 0 0 1-3.054 3.053h-19.543a3.053 3.053 0 0 1-3.054-3.053V48.509a3.053 3.053 0 0 1 3.054-3.053h16.79a3.053 3.053 0 0 1 3.007 2.52l.69 3.895a1.744 1.744 0 0 0 3.002.871c2.708-2.959 5.633-5.25 8.767-6.88c4.059-2.11 8.686-3.166 13.88-3.166c4.763 0 8.902 1.19 12.42 3.572c1.678 1.136 3.548 3.48 5.044 5.62l1.177 1.752a2.53 2.53 0 0 0 3.853.364l1.859-1.844c2.362-2.29 5.274-4.902 7.386-6.054c3.704-2.02 7.9-3.143 12.586-3.367l1.781-.043Zm85.393 0c10.498 0 18.534 4.005 24.108 12.014c5.574 8.009 8.36 19.319 8.36 33.93c0 8.874-1.38 16.775-4.139 23.702c-2.76 6.926-6.71 12.338-11.851 16.234c-5.14 3.897-11.229 5.845-18.264 5.845c-4.762 0-9.064-.948-12.906-2.841a25.704 25.704 0 0 1-5.9-4a2.795 2.795 0 0 0-4.64 1.639h-.035a2.89 2.89 0 0 1-2.855 2.442H349.35a3.053 3.053 0 0 1-3.053-3.053V13.944a3.053 3.053 0 0 1 2.726-3.036l19.544-2.102a3.055 3.055 0 0 1 3.38 3.035v36.85a2.124 2.124 0 0 0 3.572 1.553c1.826-1.701 3.94-3.156 6.33-4.382c3.657-1.876 7.44-2.918 11.353-3.126l1.473-.04Zm-9.564 73.064l.473-.009c9.957 0 14.935-9.037 14.935-27.111c0-10.174-1.19-17.236-3.571-21.186c-2.381-3.95-5.79-5.926-10.228-5.926c-3.586 0-6.825 1.263-9.718 3.789a14.792 14.792 0 0 0-5.015 11.1l-.04 25.86c0 7.322 5.843 13.307 13.164 13.483Zm121.743-9.1c0 3.247.46 5.628 1.38 7.143c.578.953 1.382 1.756 2.41 2.41a2.987 2.987 0 0 1 1.212 3.413l-.285 1.013l-.712 2.31l-.399 1.25a11.134 11.134 0 0 1-15.131 6.774l-.895-.449c-3.3-1.84-5.925-4.816-7.873-8.928c-5.628 8.55-14.287 12.825-25.975 12.825c-8.55 0-15.369-2.49-20.455-7.468c-5.087-4.979-7.63-11.472-7.63-19.481c0-9.416 3.462-16.613 10.39-21.592c6.541-4.702 15.834-7.184 27.879-7.445l7.682-.023a3.237 3.237 0 0 0 3.239-3.238v-.496c0-5.087-1.083-8.577-3.247-10.47c-2.165-1.895-5.953-2.842-11.365-2.842c-2.814 0-6.223.406-10.227 1.218a101.85 101.85 0 0 0-9.531 2.43a3.051 3.051 0 0 1-3.78-1.918l-3.888-11.227a3.053 3.053 0 0 1 1.876-3.882a99.167 99.167 0 0 1 13.78-3.667c5.682-1.082 10.959-1.624 15.829-1.624c12.338 0 21.375 2.544 27.112 7.63c5.398 4.788 8.256 11.829 8.574 21.122l.03 35.212Zm-38.8 9.416c2.412 0 4.645-.517 6.699-1.55l1.012-.56a12.278 12.278 0 0 0 5.926-10.507V96.01a3.474 3.474 0 0 0-3.474-3.474h-2.858c-5.845 0-10.2 1.028-13.069 3.085c-2.868 2.056-4.302 5.249-4.302 9.578c0 3.463.893 6.142 2.679 8.036c1.587 1.683 3.709 2.619 6.365 2.806l1.022.035Z"/><path fill="#16CEC6" d="M152.465 52.121C135.59 20.291-15.079-12.232 1.233 8.805c16.312 21.037 88.58 49.904 92.862 50.44c-22.172 6.963-81.352 19.452-68.684 29.971c12.667 10.52 72.838-1.229 72.739-1.042c-16.662 12.556-37.408 50.462-16.564 42.363c32.887-12.778 80.713-59.869 70.88-78.416Z"/></svg>