<svg xmlns="http://www.w3.org/2000/svg" xmlns:xlink="http://www.w3.org/1999/xlink" width="256" height="145" viewBox="0 0 256 145"><path fill="#00E7C3" d="M189.727 0c22.575 0 45.15 14.022 54.536 41.742a33.134 33.134 0 0 0-12.477-2.412a33.227 33.227 0 0 0-14.177 3.155c-6.417-13.58-17.826-18.846-29.722-18.846c-15.585 0-30.237 16.416-46.209 41.348c.602.835 1.207 1.676 1.813 2.52l1.015 1.412l.508.707l1.02 1.419l1.025 1.421l1.028 1.422c13.555 18.715 28.036 37.145 42.222 37.145c10.883 0 14.124-2.241 22.047-11.168a33.288 33.288 0 0 0 19.43 6.235c3.897 0 7.644-.668 11.131-1.896c.345-.01.615-.032.798-.086c-9.873 25.783-34.115 39.999-55.71 39.999c-26.59 0-45.263-24.101-63.912-50.378c-17 27.296-34.126 49.203-58.94 49.203c-21.767 0-43.534-13.041-53.47-38.823c.118.033.28.065.474.087a33.225 33.225 0 0 0 11.098 1.894a33.215 33.215 0 0 0 15.061-3.587c6.567 12.052 17.418 16.791 28.688 16.791c14.802 0 32.33-20.372 45.985-41.265c-18.784-26.442-33.59-45.577-50-46.129c-8.128-.27-15.587 4.664-21.412 12.902a33.191 33.191 0 0 0-18.322-5.482a33.25 33.25 0 0 0-9.979 1.518C22.76 13.721 44.916 0 67.07 0c26.025 0 44.161 23.429 63.18 49.365C146.42 23.026 164.827 0 189.727 0ZM24.22 48.482c13.376 0 24.22 10.848 24.22 24.23c0 13.38-10.844 24.228-24.22 24.228S0 86.093 0 72.711C0 59.33 10.843 48.482 24.22 48.482Zm207.562 0c13.376 0 24.219 10.848 24.219 24.23c0 13.38-10.843 24.228-24.22 24.228c-13.375 0-24.219-10.847-24.219-24.229c0-13.381 10.844-24.229 24.22-24.229Z"/></svg>