<svg xmlns="http://www.w3.org/2000/svg" xmlns:xlink="http://www.w3.org/1999/xlink" width="256" height="263" viewBox="0 0 256 263"><path d="M221.66 144.561c0 2.342-.897 4.588-2.493 6.244c-1.597 1.656-3.763 2.586-6.021 2.586s-4.424-.93-6.021-2.586s-2.494-3.902-2.494-6.244V65.677c0-2.342.897-4.588 2.494-6.243s3.763-2.587 6.02-2.587c2.259 0 4.425.93 6.022 2.587c1.596 1.655 2.493 3.901 2.493 6.243zm-2.955 54.657c-1.126 1.168-32.792 28.533-90.846 28.533s-89.508-27.22-90.845-28.387a8.6 8.6 0 0 1-2.043-2.654a9 9 0 0 1-.533-6.637a8.8 8.8 0 0 1 1.59-2.969c1.47-1.763 3.552-2.852 5.793-3.03a8.32 8.32 0 0 1 6.17 2.082c.493.365 28.78 24.154 79.798 24.154s79.516-23.935 79.798-24.154a8.45 8.45 0 0 1 6.202-2.059c2.247.177 4.339 1.256 5.83 3.007a8.9 8.9 0 0 1 1.995 6.274c-.158 2.282-1.178 4.407-2.839 5.913zM33.988 65.678c.127-2.35 1.146-4.551 2.834-6.124s3.907-2.388 6.173-2.269a8.38 8.38 0 0 1 5.564 2.6a9 9 0 0 1 2.458 5.792v78.738c0 2.342-.897 4.588-2.494 6.244c-1.596 1.656-3.762 2.586-6.02 2.586c-2.259 0-4.424-.93-6.021-2.586s-2.494-3.902-2.494-6.244zM76.7 48.163c.128-2.35 1.146-4.551 2.834-6.124s3.908-2.388 6.174-2.268a8.38 8.38 0 0 1 5.564 2.599a9 9 0 0 1 2.458 5.793V164.92c0 2.341-.898 4.587-2.494 6.243s-3.763 2.586-6.02 2.586c-2.26 0-4.425-.93-6.022-2.586s-2.494-3.902-2.494-6.243zm42.925-4.379c0-2.342.897-4.587 2.494-6.243s3.763-2.587 6.02-2.587c2.259 0 4.425.93 6.021 2.587c1.597 1.656 2.494 3.901 2.494 6.243v126.973c0 2.342-.897 4.588-2.494 6.244c-1.596 1.656-3.762 2.586-6.02 2.586s-4.424-.93-6.021-2.586s-2.494-3.902-2.494-6.244zm42.221 4.379c0-2.342.897-4.588 2.494-6.244s3.763-2.586 6.02-2.586c2.259 0 4.425.93 6.021 2.586s2.494 3.902 2.494 6.244V164.92c0 2.341-.897 4.587-2.494 6.243c-1.596 1.656-3.762 2.586-6.02 2.586s-4.424-.93-6.021-2.586s-2.494-3.902-2.494-6.243zM223.982 0H32.018a30.8 30.8 0 0 0-12.205 2.434A31.7 31.7 0 0 0 9.44 9.533A33.1 33.1 0 0 0 2.482 20.21A34 34 0 0 0 0 32.839v197.028a34 34 0 0 0 2.482 12.628a33.1 33.1 0 0 0 6.958 10.678a31.7 31.7 0 0 0 10.373 7.098a30.8 30.8 0 0 0 12.205 2.434h191.964a30.8 30.8 0 0 0 12.188-2.427a31.7 31.7 0 0 0 10.365-7.08a33.1 33.1 0 0 0 6.963-10.652A34 34 0 0 0 256 229.94V32.84a34 34 0 0 0-2.475-12.612a33.1 33.1 0 0 0-6.94-10.67a31.75 31.75 0 0 0-10.35-7.102A30.8 30.8 0 0 0 224.053.001"/></svg>