<svg xmlns="http://www.w3.org/2000/svg" xmlns:xlink="http://www.w3.org/1999/xlink" width="256" height="256" viewBox="0 0 256 256"><path fill="#F06" d="M0 0h256v256H0z"/><path fill="#FFF" d="M87.112 82.38c8.097-.118 14.577-6.757 14.499-14.855c-.079-8.099-6.686-14.611-14.785-14.572c-8.099.039-14.643 6.614-14.644 14.713a14.766 14.766 0 0 0 14.93 14.715Zm-30.956 78.777a50.289 50.289 0 0 0-1.32 11.05c0 12.953 7.024 21.554 21.954 21.554c12.38 0 22.425-7.352 29.645-19.23l-4.414 17.715h24.576l14.06-56.32c3.512-14.275 10.311-21.678 20.633-21.678c8.12 0 13.169 5.048 13.169 13.394c.04 2.675-.33 5.341-1.096 7.905l-7.24 25.897a38.717 38.717 0 0 0-1.535 10.977c0 12.288 7.24 21.3 22.384 21.3c12.954 0 23.276-8.336 28.98-28.314l-9.657-3.738c-4.833 13.394-9 15.81-12.288 15.81c-3.287 0-5.059-2.19-5.059-6.584a29.194 29.194 0 0 1 1.096-6.81l7.035-25.24a55.787 55.787 0 0 0 2.417-16.006c0-18.883-11.418-28.733-25.252-28.733c-12.954 0-26.122 11.683-32.707 23.982l4.823-22.078h-37.53l-5.273 19.456h17.572l-10.813 43.254c-8.5 18.883-24.105 19.19-26.061 18.75c-3.216-.728-5.264-1.946-5.264-6.145c.094-3.399.61-6.773 1.536-10.045l16.466-65.321H55.296l-5.263 19.456h17.336l-11.213 45.742Z"/></svg>