<svg xmlns="http://www.w3.org/2000/svg" xmlns:xlink="http://www.w3.org/1999/xlink" width="256" height="298" viewBox="0 0 256 298"><path fill="#FEEA5F" d="m210.741 74.865l-82.858 47.877L44.959 74.88l82.915-47.886z"/><path fill="#E0CC41" d="m104.25 258.24l-82.239-47.465v-95.653l82.239 47.447z"/><path fill="#EFDB50" d="m150.051 161.649l84.853-48.988v99.186l-84.853 48.971z"/><path fill="#C3C2C2" d="m50.435 74.879l77.446 44.7l77.384-44.714l-77.393-44.708l-77.437 44.722ZM127.658 0l128.33 74.699l-61.239 48.043l-67.764 25.904l-63.565-20.762L0 74.69L127.658 0Z"/><path fill="#B3B3B3" d="m154.24 253.505l76.476-44.137v-89.394l-76.477 44.152v89.379Zm-27.311-104.859l129.059-73.778v149.337l-129.06 73.707l-6.546-73.707l6.547-75.559Z"/><path fill="#A5A5A4" d="m101.559 164.147l-76.857-44.342v89.393l76.857 44.358v-89.41ZM0 74.867l126.985 73.78l-.056 149.264L0 224.77V74.868Z"/></svg>