<svg xmlns="http://www.w3.org/2000/svg" xmlns:xlink="http://www.w3.org/1999/xlink" width="256" height="284" viewBox="0 0 256 284"><defs><linearGradient x1="81.81%" y1="8.918%" x2="37.824%" y2="79.44%" id="ssvg-id-keymetricsa"><stop stop-color="#A8B57D" offset="0%"/><stop stop-color="#A8B57D" offset="24.986%"/><stop stop-color="#26A0A2" offset="58.936%"/><stop stop-color="#268999" offset="100%"/></linearGradient></defs><path d="M245.256 231.632c-3.319.287-5.878-1.911-8.513-3.917c-32.105-24.445-64.206-48.894-96.311-73.338c-2.131-1.623-4.323-3.168-6.418-4.835c-7.028-5.59-7.09-11.514.133-17.02c14.03-10.696 28.228-21.17 42.303-31.805c20.996-15.863 41.928-31.81 62.93-47.667c4.675-3.53 9.125-3.49 12.933-.21c5.275 4.541 4.872 11.59-1.097 16.17c-12.628 9.687-25.35 19.25-37.993 28.918c-13.208 10.102-26.367 20.268-39.548 30.406c-3.69 2.839-7.394 5.66-11.07 8.519c-4.945 3.847-4.959 4.577-.088 8.282c20.198 15.367 40.407 30.718 60.61 46.076c9.411 7.154 18.85 14.272 28.213 21.488c4.227 3.258 5.588 7.68 4.022 12.102c-1.488 4.2-5.246 6.827-10.106 6.831zm-185.254-90.24c-.373-3.68 1.337-6.118 4.025-8.164c12.288-9.352 24.497-18.807 36.816-28.118c14.685-11.1 29.45-22.093 44.186-33.124c1.134-.849 2.264-1.729 3.491-2.427c4.622-2.632 9.978-1.554 13.108 2.569c3.093 4.074 2.896 9.872-1.19 13.268c-7.12 5.915-14.442 11.62-21.999 16.96c-4.697 3.32-9.2 6.937-13.72 10.421c-10.394 8.01-20.72 16.123-31.129 24.124c-4.95 3.805-4.969 4.51-.065 8.243c21.448 16.325 42.882 32.667 64.376 48.93c3.757 2.842 6.49 6.125 5.82 11.077c-1.13 8.356-10.169 11.705-17.349 6.345c-11.745-8.77-23.351-17.726-35.026-26.59c-15.062-11.439-30.15-22.84-45.184-34.315c-3.103-2.368-6.675-4.554-6.16-9.2zm120.958 142.2c-2.869.119-5.203-1.105-7.372-2.78c-33.919-26.188-67.856-52.355-101.745-78.583c-5.829-4.512-6.863-10.606-2.954-15.604c3.706-4.74 9.99-5.225 15.532-.956a79316.719 79316.719 0 0 1 101.775 78.549c4.688 3.623 6.07 7.675 4.397 12.355c-1.61 4.508-4.963 6.694-9.633 7.02zM181.665 0c4.592.373 7.91 2.31 9.571 6.643c1.623 4.234.413 8.49-3.673 11.688c-9.302 7.28-18.708 14.428-28.037 21.674c-21.853 16.972-43.687 33.97-65.527 50.96c-2.803 2.18-5.579 4.398-8.401 6.555c-5.563 4.247-11.69 3.877-15.52-.902c-3.967-4.946-2.858-11.1 2.982-15.573c18.224-13.96 36.513-27.835 54.736-41.796a9783.072 9783.072 0 0 0 46.771-36.061c2.19-1.699 4.515-2.792 7.098-3.188zM42.747 175.895c-1.706.093-3.846-.817-5.78-2.287c-10.665-8.1-21.393-16.12-31.96-24.344c-6.665-5.187-6.678-11.22-.028-16.4c10.567-8.225 21.246-16.308 31.982-24.31c5.203-3.88 11.555-2.966 15.078 1.828c3.447 4.688 2.55 10.648-2.46 14.637c-5.547 4.414-11.213 8.684-16.917 12.894c-2.98 2.2-2.97 4.044-.02 6.246c5.933 4.432 11.87 8.866 17.618 13.533c3.837 3.118 4.837 7.666 2.95 11.935c-1.83 4.143-5.103 6.26-10.463 6.268zm206.013 96.89c-.18 4.45-2.039 7.596-5.707 9.481c-3.878 1.993-7.664 1.527-11.098-1.099c-9.764-7.469-19.49-14.987-29.224-22.495c-7.986-6.16-16.011-12.273-23.919-18.535c-3.483-2.758-5-6.457-3.76-10.914c1.164-4.178 3.968-6.7 8.22-7.556c3.335-.672 6.213.448 8.805 2.448c17.347 13.38 34.67 26.793 52.04 40.143c2.965 2.28 4.52 5.158 4.643 8.527zm-62.434-209.99c-4.551-.209-7.814-2.374-9.196-6.76c-1.43-4.536-.073-8.393 3.696-11.31c7.725-5.978 15.478-11.922 23.219-17.879c9.614-7.4 19.208-14.827 28.852-22.188c5.417-4.135 11.315-3.546 14.944 1.362c3.452 4.667 2.393 10.368-2.899 14.464c-17.196 13.307-34.448 26.543-51.662 39.826c-2.061 1.59-4.225 2.751-6.954 2.485z" fill="url(#ssvg-id-keymetricsa)"/></svg>