<svg xmlns="http://www.w3.org/2000/svg" xmlns:xlink="http://www.w3.org/1999/xlink" width="256" height="271" viewBox="0 0 256 271"><path fill="#DC0000" d="M99.807 202.834c90.148 14.488 90.148-54.733 88.539-54.733H67.61s-45.073 40.245-59.56 53.123c6.44 25.757 37.025 51.513 54.733 57.952c1.61 0 33.805-51.513 37.025-56.342ZM54.733 32.196C54.733 14.488 46.684 0 27.366 0C6.44 0 0 14.488 0 32.196V149.71c0 16.098 3.22 32.195 6.44 38.635l49.903-43.465c-1.61 0-1.61-99.807-1.61-112.685Zm201.224 0C255.957 14.488 247.907 0 228.59 0c-20.927 0-27.366 14.488-27.366 32.196c0 9.659 1.61 82.1 0 127.173c0 16.098-22.537 57.953-74.05 56.343c-11.269 0-17.708 0-20.928-1.61c-3.22 4.83-27.366 46.684-28.976 48.294c9.659 3.22 30.586 8.049 49.904 8.049c86.928 0 130.393-54.733 128.783-127.174V32.196ZM122.344 135.222V85.32c0-17.708-8.049-32.196-27.366-32.196c-20.928 0-27.367 14.488-27.367 32.196v49.903h54.733Zm67.611 0V85.32c0-17.708-8.049-32.196-27.366-32.196c-20.927 0-27.367 14.488-27.367 32.196v49.903h54.733Z"/></svg>