<svg xmlns="http://www.w3.org/2000/svg" xmlns:xlink="http://www.w3.org/1999/xlink" width="512" height="136" viewBox="0 0 512 136"><defs><linearGradient id="logosLeaflet0" x1="-6.234%" x2="103.068%" y1="45.374%" y2="58.975%"><stop offset="0%" stop-color="#8AC443"/><stop offset="100%" stop-color="#75B843"/></linearGradient><linearGradient id="logosLeaflet1" x1="-10.801%" x2="110.996%" y1="43.538%" y2="56.986%"><stop offset="0%" stop-color="#75B843"/><stop offset="100%" stop-color="#4B9744"/></linearGradient><linearGradient id="logosLeaflet2" x1="108.51%" x2="-3.274%" y1="41.458%" y2="65.747%"><stop offset="0%" stop-color="#C1DB74"/><stop offset="100%" stop-color="#ACD259"/></linearGradient><linearGradient id="logosLeaflet3" x1="129.073%" x2="-25.413%" y1="38.386%" y2="61.919%"><stop offset="0%" stop-color="#ACD259"/><stop offset="100%" stop-color="#8AC443"/></linearGradient></defs><path fill="#70706F" d="M347.7 88.3c-2 1.3-4.1 2-6.1 2c-1.5 0-2.7-.6-3.7-1.8c-.9-1.2-1.4-2.7-1.4-4.6c0-2.8.7-6.5 2.1-11.2l4-13.6l9.4-.7l2-9.3l-8.5.5l6.3-21l-16.2 3.3l-5.7 18.9l-5.8.2l-1.9 9.5l4.6-.2l-2.6 9.2c-1.2 4.1-2.1 7.7-2.6 10.9c-4.8 4.9-8.4 8-10.8 9.4c-2.4 1.4-5 2.1-7.6 2.1c-6.8 0-11-3.9-12.6-11.8c17.7-5.2 26.6-12 26.6-20.3c0-3.1-1.1-5.7-3.4-7.6c-2.3-1.9-5.3-2.9-9-2.9c-7.2 0-13.8 3.5-19.7 10.4c-5.4 6.3-8.3 13.2-8.8 20.9c-4.9 4.8-8.6 8-11 9.5c-2.5 1.6-4.8 2.4-7 2.4c-2.1 0-3.9-1-5.1-3.1c-1.3-2.1-1.9-4.8-1.9-8.3c0-1.6.2-4.5.5-8.6c8.1-8.7 14-17 17.8-24.7c3.8-7.7 5.7-15.7 5.7-23.9c0-2.9-.4-5.2-1.1-6.9c-.7-1.7-1.7-2.6-2.9-2.6c-.2 0-.6.1-1.1.2L254.8 20c-5.2 10-9.7 20.9-13.4 32.8c-3.3 10.7-5.1 20.1-5.4 28c-6.4 7.7-12.3 11.5-17.7 11.5c-3.9 0-6.9-2.1-8.9-6.3l5.1-25.3c8.3-7.7 13.9-14.1 16.9-19.3c3-5.2 4.5-10.7 4.5-16.3c0-3.3-.5-5.9-1.5-7.9s-2.2-3-3.7-3c-.2 0-1.7.4-4.5 1.1c-2.8.7-5.5 1.5-8 2.2c-2.5.8-4 1.6-4.7 2.5c-.6.9-2.2 4.2-4.7 10.1c-2.5 5.9-4.4 11.2-5.7 16.1c-1.4 4.8-3.2 12.7-5.3 23.5l-10.1 10.5v-.1c-3.4 3.4-6.1 6-8 7.6c-1.9 1.7-3.6 2.5-5.2 2.5c-2.5 0-3.7-1.7-3.7-5.2c0-3.3 1.4-9.4 4.1-18.3l5.3-17.7h-3.4l-12.4 6.8c-2-4.6-5.5-7-10.6-7c-4 0-8.6 1.7-13.8 5.1c-5.2 3.4-9.5 7.8-12.8 13.3c-2.6 4.3-4.2 8.7-4.7 13.3c-4.6 4.6-8.1 7.7-10.5 9.1c-2.4 1.4-5 2.1-7.6 2.1c-6.8 0-11-3.9-12.6-11.8c17.7-5.2 26.6-12 26.6-20.3c0-3.1-1.1-5.7-3.4-7.6c-2.3-1.9-5.3-2.9-9-2.9c-7.2 0-13.8 3.5-19.7 10.4c-5.4 6.3-8.3 13.3-8.8 21c-5.9 6.5-12.1 9.8-18.6 9.8c-3.4 0-7.4-.9-12.1-2.7c-4.7-1.8-8.3-3-10.8-3.7c-2.5-.6-5.5-.8-8.9-.6c5.3-5.5 8.8-11.1 10.8-16.8c1.9-5.7 3.3-12.2 4.1-19.6c.8-7.4 1.6-12.7 2.3-16c.7-3.3 2-6.1 3.8-8.5c1.8-2.4 4.4-3.6 7.7-3.6c2.7 0 4.9 1 6.5 3c1.6 2 2.4 4.7 2.4 8.2c0 4.5-1 8.4-3.1 11.7c-2.1 3.3-4.5 4.9-7.2 4.9c-1.7 0-3-.6-4.1-1.9c-.5 1.7-.7 3.1-.7 4.4c0 2.4.7 4.3 2.2 5.7c1.5 1.4 3.4 2.1 6 2.1c4.9 0 9.2-2.4 12.9-7.1c3.7-4.8 5.6-10.3 5.6-16.6c0-5.5-1.8-10-5.4-13.5c-3.6-3.5-8.1-5.3-13.7-5.3c-8.1 0-15.6 4-22.5 12.1c-6.9 8-10.7 19.2-11.4 33.4c-.4 6.9-.9 11.8-1.5 14.8s-2.1 6.1-4.4 9.2c-5.5.9-9.7 2.5-12.7 4.8s-4.5 5-4.5 8.1c0 1.5.5 2.7 1.5 3.7S4 102 5.5 102c4.4 0 9.3-3 14.8-8.9c2.9.8 6.3 2.1 10.2 3.9c3.8 1.8 7.1 3 9.8 3.8c2.7.7 5.5 1.1 8.4 1.1c10 0 19.7-4.8 29.3-14.5c.7 3.7 2.2 6.9 4.7 9.4c3.4 3.5 7.8 5.3 13.3 5.3c4.9 0 9.4-1.2 13.5-3.6c3.9-2.3 8.3-5.9 13.2-10.6c.4 3.5 1.6 6.6 3.5 9.2c2.5 3.3 5.5 5 9 5c3.6 0 7.1-1.4 10.6-4.1c3.4-2.7 7.1-7 11.2-12.8c-.4 11.2 2.6 16.9 9 16.9c2.5 0 5.2-.9 8-2.8s7.4-5.8 13.8-12l4.1-4.5c1.1 3.1 1.9 5 2.4 5.8c-3.2 17.6-5.4 31.9-6.7 43c5.9-1.2 10.9-2 15.1-2.6c1.3-10.3 2.8-19.8 4.5-28.7c2.7 1.2 4.8 1.7 6.3 1.7c3.2 0 6.9-1.3 11-3.8c4-2.5 8-6 12.1-10.5c.5 3.7 1.7 6.8 3.7 9.3c2.6 3.3 6.1 5 10.4 5c3.7 0 7.7-1.2 11.8-3.6c4.1-2.4 8.9-6.1 14.4-11.2c.7 3.8 2.2 6.9 4.7 9.5c3.4 3.5 7.8 5.3 13.3 5.3c4.9 0 9.4-1.2 13.5-3.6c3.9-2.3 8.3-5.9 13.2-10.6c.2 4 1.3 7.3 3.2 9.8c2.2 2.9 5 4.4 8.4 4.4c3.3 0 6.9-1.2 10.6-3.6c3.7-2.4 8.1-6.1 13.2-11.2v-7c-4.3 4-7.3 6.8-9.3 8.1Zm-85.9-56.1c2.8-7.4 5-11.1 6.5-11.1c.7 0 1.2.5 1.7 1.4c.4.9.7 2.1.7 3.6c0 5.1-1.6 11.2-4.8 18.2c-3.2 7.1-7.3 13.4-12.5 19.1c2.7-13.4 5.5-23.8 8.4-31.2Zm-39.1-4.8c1.8-4.6 3.6-7 5.4-7c.9 0 1.7.5 2.3 1.6c.6 1.1.9 2.5.9 4.2c0 4-1.3 8.4-4 13.1c-2.7 4.7-6.4 9.2-11.1 13.3c2.5-12.2 4.7-20.6 6.5-25.2ZM102.5 54c2.8 0 4.2 1.9 4.2 5.8c0 7.8-5.2 13.2-15.5 16.1c0-6.5 1.2-11.8 3.6-15.8c2.4-4 5-6.1 7.7-6.1Zm52.2 26.1c-3.6 6.9-7.4 10.3-11.4 10.3c-1.7 0-3-.7-4.1-2c-1.1-1.3-1.6-3.1-1.6-5.3c0-5.8 1.8-12.1 5.4-18.9c3.6-6.9 7.4-10.3 11.5-10.3c1.7 0 3 .6 4.1 1.9c1 1.3 1.5 3 1.5 5.3c-.1 5.8-1.9 12.1-5.4 19ZM301.3 54c2.8 0 4.2 1.9 4.2 5.8c0 7.8-5.2 13.2-15.5 16.1c0-6.5 1.2-11.8 3.6-15.8c2.5-4.1 5.1-6.1 7.7-6.1Z"/><path fill="url(#logosLeaflet0)" d="M377.4 54.3c1.3 1.5 26 9.7 34.5 19.7c8.6 10 12.3 18.9 11.1 27.5c-1.2 8.6-6.5 8.4-8.7 11.6c-2.3 3.1-5.5 7-11.5 6.6c-8-.5-16.2-4.5-22.1-18.3c-5.9-13.8-5.5-26.8-5-34c.4-7.3 1.7-13.1 1.7-13.1Z"/><path fill="url(#logosLeaflet1)" d="m378.1 56.6l37 55.2l-1.7 1.9l-35.3-57.1Z"/><path fill="#3D3D3C" d="m236.4 133.3l.3-2.4c9.9-5.3 22.1-7.3 32.1-12.4c3 1.3 4.3-.6 7.5-.4c1.2 1-1.5 2.4 1.7 2.2c7.1.9 14.1-.4 21.1-1c7.4-.6 14.7.1 22-.4c2.3-.1 5.9-3.3 8.7-1.7c1.3 2.3-4.2 2.5-2.7 5.1c14.5 3.4 50.8 17.8 57 2.1c.1 1-1.1 2.8.6 2.6c12.2-5.5 33-17.3 36.7-20.4c4-3.4 9.4-3.3 14.6-4.5c9.5-2.2 19.6-4.4 27.8-9.2c5.1 3.5 15.7 5.3 21.3 4c5.9-1.3 15.1-11.1 20-14.6c1.9-1.4 4.8-4 6.8-2.5c-1.4 1 .2 3.8-1.5 3.3c-.9-1.7-2.7.3-4-.1c-4.9 4.1-10.1 7.9-15.1 11.8c-2.4 1.4 2.3 2.9-.5 3.4c-13 2.6-32.9-3.9-41.1 5.1c-13 4.5-25.3 5.6-38.1 12.5c-7.4 4-16.4 11.2-24.1 15c-1.3.6-3.2.9-4.7 1.8c-1.9 1.1-2.3 2.6-3.9 2.9c-3.9.8-12-1.2-17.2-1.9c-17-2.5-35.2-9.4-51.3-10.3c-6.4-.3-13.9.7-21.1 1c-15.3.7-24.8 1.1-37.1 5.2c-4.8 1.7-12.6 6.2-15.8 3.8Z"/><path fill="url(#logosLeaflet2)" d="M472.6 0c-1.7 2.8-40.9 23-52.6 41.9c-11.8 19-15.1 33.9-10.8 47.9c4.3 14 12.4 13.4 17 18s10.9 10.2 21 8c13.2-3 25.9-11.8 32.2-36.4c6.3-24.6 2.2-46.2-.5-58.1C476.2 9.4 472.6 0 472.6 0Z"/><path fill="url(#logosLeaflet3)" d="M471.9 4.2L424.4 106l2.8 2.8L471.9 4.2Z"/></svg>