<svg xmlns="http://www.w3.org/2000/svg" xmlns:xlink="http://www.w3.org/1999/xlink" width="256" height="243" viewBox="0 0 256 243"><path fill="#76B6FF" d="M43.39 75.932h47.729v21.695H43.39z"/><path d="M101.966 75.932h47.729v21.695h-47.729z"/><path fill="#76B6FF" d="M160.542 75.932h19.526v21.695h-19.526zM43.39 110.644h78.102v21.695H43.39zm88.949 0h47.729v21.695h-47.729z"/><path d="M43.39 145.356h47.729v21.695H43.39z"/><path fill="#76B6FF" d="M101.966 145.356h47.729v21.695h-47.729z"/><path d="M160.542 145.356h19.526v21.695h-19.526z"/><path d="M236.475 0v21.695H212.61v199.593h23.865v21.695H169.22v-21.695h21.695V21.695H169.22V0h67.255Zm-56.407 32.542v21.695H21.695v134.509h158.373v21.695H0V32.542h180.068Zm75.932 0v177.899h-32.542v-21.695h10.847V54.237h-10.847V32.542H256Z"/></svg>