<svg xmlns="http://www.w3.org/2000/svg" xmlns:xlink="http://www.w3.org/1999/xlink" width="256" height="256" viewBox="0 0 256 256"><path fill="#222326" d="m8.174 102.613l145.213 145.213c2.12 2.12 1.097 5.72-1.85 6.27a128.23 128.23 0 0 1-15.02 1.896a3.78 3.78 0 0 1-2.92-1.109L1.117 122.403a3.78 3.78 0 0 1-1.109-2.92c.34-5.095.978-10.107 1.896-15.02c.55-2.947 4.15-3.97 6.27-1.85Zm-4.092 58.796c-.97-3.614 3.3-5.894 5.946-3.248l87.81 87.811c2.647 2.646.367 6.915-3.247 5.946c-44.03-11.805-78.704-46.478-90.51-90.509Zm12.727-97.245c1.233-2.135 4.147-2.463 5.89-.719L192.556 233.3c1.744 1.744 1.417 4.658-.72 5.891a127.748 127.748 0 0 1-11.1 5.705c-1.43.65-3.11.322-4.22-.79L11.893 79.487c-1.111-1.112-1.439-2.79-.79-4.221a127.698 127.698 0 0 1 5.706-11.1ZM127.86 0C198.63 0 256 57.37 256 128.14c0 37.57-16.168 71.362-41.926 94.8c-1.487 1.354-3.768 1.264-5.19-.157L33.217 47.116c-1.421-1.422-1.51-3.703-.158-5.19C56.498 16.168 90.291 0 127.86 0Z"/></svg>