<svg xmlns="http://www.w3.org/2000/svg" xmlns:xlink="http://www.w3.org/1999/xlink" width="512" height="127.964" viewBox="0 0 512 127.964"><path fill="#222326" d="m4.086 51.292l72.586 72.587c1.06 1.06.549 2.859-.924 3.134a64 64 0 0 1-7.508.947a1.9 1.9 0 0 1-1.46-.554L.558 61.184a1.9 1.9 0 0 1-.554-1.46c.17-2.546.489-5.051.948-7.507c.275-1.473 2.074-1.984 3.134-.925M2.04 80.682c-.484-1.806 1.65-2.946 2.973-1.623l43.893 43.893c1.322 1.322.183 3.457-1.624 2.972c-22.009-5.9-39.34-23.233-45.242-45.242m6.362-48.609c.616-1.067 2.073-1.23 2.945-.36l84.904 84.905c.871.871.708 2.328-.36 2.945a64 64 0 0 1-5.548 2.851a1.885 1.885 0 0 1-2.11-.394L5.945 39.732a1.885 1.885 0 0 1-.395-2.11a64 64 0 0 1 2.852-5.549M63.912 0c35.375 0 64.052 28.677 64.052 64.052c0 18.78-8.081 35.672-20.957 47.387c-.743.677-1.883.632-2.594-.079L16.604 23.551a1.88 1.88 0 0 1-.079-2.594C28.241 8.082 45.133 0 63.912 0m194.14 35.248c4.591 0 8.313-3.735 8.313-8.343s-3.722-8.343-8.313-8.343c-4.59 0-8.312 3.735-8.312 8.343c0 4.507 3.561 8.18 8.014 8.338zm-71.202 72.761V18.567h14.773v76.356h39.83v13.086zm105.144-36.497v36.497H277.7V44.62h14.115v10.865l.179-.12q2.153-5.102 6.938-8.524q4.784-3.482 12.201-3.482q6.578 0 11.961 2.942q5.383 2.88 8.612 8.464q3.23 5.583 3.23 13.686v39.56h-14.294V70.43q0-7.203-3.828-10.925q-3.766-3.781-10.108-3.782q-4.066 0-7.415 1.681q-3.35 1.68-5.323 5.163q-1.974 3.48-1.974 8.944m147.608-28.154q5.98 0 10.764 1.561q4.786 1.5 8.134 4.322q3.41 2.821 5.204 6.664q1.793 3.84 1.794 8.464v43.64h-13.696v-8.944h-.239q-1.435 2.701-3.888 4.982q-2.392 2.282-6.1 3.662q-3.708 1.32-8.912 1.32q-6.338 0-11.243-2.1q-4.904-2.16-7.775-6.363q-2.87-4.263-2.87-10.565q0-5.463 2.033-8.944a15.7 15.7 0 0 1 5.502-5.583q3.529-2.1 8.014-3.182q4.485-1.08 9.33-1.62l2.647-.301q4.076-.472 6.684-.84q3.467-.48 4.904-1.5q1.494-1.022 1.495-3.182v-.48q0-2.881-1.436-5.043q-1.436-2.16-4.126-3.421q-2.632-1.26-6.4-1.261t-6.638 1.26q-2.871 1.2-4.546 3.362a9.16 9.16 0 0 0-1.914 4.922h-13.816q.3-5.882 3.648-10.565q3.35-4.681 9.271-7.443q5.981-2.822 14.175-2.822m11.84 34.037q-.582.426-1.783.806l-.31.094q-1.374.42-3.348.84l-4.246.78q-2.274.361-4.666.721q-3.29.42-6.1 1.501t-4.546 2.941q-1.674 1.86-1.674 4.863q0 3.84 3.05 6.063q3.05 2.16 8.195 2.16q5.082 0 8.552-1.86q3.468-1.92 5.142-4.983q1.735-3.12 1.735-6.843zm26.527 30.614V44.62h13.755v10.445h.18q1.735-5.403 5.442-8.224q3.768-2.88 9.869-2.881q1.496 0 2.69.12l1.49.08q.326.02.605.04v12.906l-.322-.046a67 67 0 0 0-2.429-.254a46 46 0 0 0-4.187-.18q-3.529 0-6.46 1.62q-2.93 1.622-4.664 4.983q-1.675 3.301-1.675 8.344v36.437zm-227.094 0V44.62h14.294v63.39zM374.38 43.18q6.758 0 12.26 2.4q5.564 2.401 9.51 6.844q3.947 4.382 6.1 10.445q2.153 6.003 2.154 13.326v3.842h-45.976q.165 4.962 1.957 8.884q1.974 4.263 5.742 6.663q3.827 2.402 9.15 2.402q3.947 0 6.938-1.201q2.99-1.2 4.963-3.302a12.9 12.9 0 0 0 2.932-4.982h13.456q-1.196 6.183-5.203 10.925q-4.007 4.683-10.048 7.384q-5.98 2.64-13.277 2.641q-9.45 0-16.328-4.262q-6.877-4.261-10.585-11.706q-3.709-7.503-3.709-17.108q0-9.665 3.828-17.168T358.83 47.44q6.76-4.261 15.55-4.262m.179 11.525q-4.904 0-8.553 2.221q-3.586 2.22-5.62 6.303q-1.452 2.956-1.836 6.723h32.078q-.384-3.766-1.834-6.723q-1.974-4.082-5.622-6.303q-3.649-2.22-8.613-2.221"/></svg>