<svg xmlns="http://www.w3.org/2000/svg" xmlns:xlink="http://www.w3.org/1999/xlink" width="512" height="127.964" viewBox="0 0 512 127.964"><path fill="#222326" d="m4.086 51.292l72.586 72.587c1.06 1.06.549 2.859-.924 3.134a64.097 64.097 0 0 1-7.508.947a1.89 1.89 0 0 1-1.46-.554L.558 61.184a1.89 1.89 0 0 1-.554-1.46c.17-2.546.489-5.051.948-7.507c.275-1.473 2.074-1.984 3.134-.925ZM2.04 80.682c-.484-1.806 1.65-2.946 2.973-1.623l43.893 43.893c1.322 1.322.183 3.457-1.624 2.972c-22.009-5.9-39.34-23.233-45.242-45.242Zm6.362-48.609c.616-1.067 2.073-1.23 2.945-.36l84.904 84.905c.871.871.708 2.328-.36 2.945a63.856 63.856 0 0 1-5.548 2.851a1.885 1.885 0 0 1-2.11-.394L5.945 39.732a1.885 1.885 0 0 1-.395-2.11a63.831 63.831 0 0 1 2.852-5.549ZM63.912 0c35.375 0 64.052 28.677 64.052 64.052c0 18.78-8.081 35.672-20.957 47.387c-.743.677-1.883.632-2.594-.079L16.604 23.551a1.88 1.88 0 0 1-.079-2.594C28.241 8.082 45.133 0 63.912 0Zm194.14 35.248c4.591 0 8.313-3.735 8.313-8.343c0-4.608-3.722-8.343-8.313-8.343c-4.59 0-8.312 3.735-8.312 8.343c0 4.507 3.561 8.18 8.014 8.338l.298.005Zm-71.202 72.761V18.567h14.773v76.356h39.83v13.086H186.85Zm105.144-36.497v36.497H277.7V44.62h14.115v10.865l.179-.12c1.435-3.401 3.748-6.243 6.938-8.524c3.189-2.321 7.256-3.482 12.201-3.482c4.386 0 8.372.981 11.961 2.942c3.589 1.92 6.459 4.742 8.612 8.464c2.153 3.722 3.23 8.284 3.23 13.686v39.56h-14.294V70.43c0-4.802-1.277-8.444-3.828-10.925c-2.511-2.52-5.88-3.782-10.108-3.782c-2.71 0-5.183.56-7.415 1.681c-2.233 1.12-4.007 2.842-5.323 5.163c-1.316 2.32-1.974 5.302-1.974 8.944Zm147.608-28.154c3.986 0 7.575.52 10.764 1.561c3.19 1 5.902 2.441 8.134 4.322c2.274 1.881 4.008 4.102 5.204 6.664c1.195 2.56 1.794 5.382 1.794 8.464v43.64h-13.696v-8.944h-.239c-.957 1.8-2.253 3.462-3.888 4.982c-1.595 1.521-3.627 2.742-6.1 3.662c-2.473.88-5.442 1.32-8.912 1.32c-4.225 0-7.973-.7-11.243-2.1c-3.27-1.44-5.861-3.562-7.775-6.363c-1.914-2.842-2.87-6.363-2.87-10.565c0-3.642.677-6.623 2.033-8.944a15.68 15.68 0 0 1 5.502-5.583c2.352-1.4 5.024-2.461 8.014-3.182c2.99-.72 6.1-1.26 9.33-1.62l2.647-.301c2.718-.315 4.945-.595 6.684-.84c2.311-.32 3.946-.82 4.904-1.5c.996-.681 1.495-1.742 1.495-3.182v-.48c0-1.921-.479-3.602-1.436-5.043c-.957-1.44-2.333-2.581-4.126-3.421c-1.755-.84-3.888-1.261-6.4-1.261c-2.512 0-4.724.42-6.638 1.26c-1.914.8-3.43 1.921-4.546 3.362a9.156 9.156 0 0 0-1.914 4.922h-13.816c.2-3.921 1.416-7.443 3.648-10.565c2.234-3.121 5.323-5.602 9.271-7.443c3.988-1.881 8.712-2.822 14.175-2.822Zm11.84 34.037c-.388.284-.983.553-1.783.806l-.31.094c-.916.28-2.032.56-3.348.84l-4.246.78c-1.516.241-3.071.481-4.666.721c-2.193.28-4.226.78-6.1 1.501c-1.874.72-3.388 1.7-4.546 2.941c-1.116 1.24-1.674 2.862-1.674 4.863c0 2.56 1.016 4.582 3.05 6.063c2.033 1.44 4.765 2.16 8.195 2.16c3.388 0 6.239-.62 8.552-1.86c2.312-1.28 4.026-2.942 5.142-4.983c1.157-2.08 1.735-4.362 1.735-6.843v-7.083Zm26.527 30.614V44.62h13.755v10.445h.18c1.157-3.602 2.97-6.343 5.442-8.224c2.512-1.92 5.802-2.881 9.869-2.881c.997 0 1.894.04 2.69.12l1.49.08c.217.013.419.027.605.04v12.906l-.322-.046a67.138 67.138 0 0 0-2.429-.254a46.15 46.15 0 0 0-4.187-.18c-2.353 0-4.505.54-6.46 1.62c-1.953 1.081-3.509 2.742-4.664 4.983c-1.117 2.201-1.675 4.982-1.675 8.344v36.437H477.97Zm-227.094 0V44.62h14.294v63.39h-14.294ZM374.38 43.18c4.506 0 8.592.8 12.26 2.4c3.71 1.601 6.879 3.882 9.51 6.844c2.631 2.921 4.665 6.403 6.1 10.445c1.435 4.002 2.154 8.444 2.154 13.326v3.842h-45.976c.11 3.308.763 6.269 1.957 8.884c1.316 2.842 3.23 5.063 5.742 6.663c2.551 1.601 5.602 2.402 9.15 2.402c2.632 0 4.944-.4 6.938-1.201c1.993-.8 3.649-1.901 4.963-3.302a12.89 12.89 0 0 0 2.932-4.982h13.456c-.797 4.122-2.532 7.764-5.203 10.925c-2.672 3.122-6.02 5.583-10.048 7.384c-3.987 1.76-8.413 2.641-13.277 2.641c-6.3 0-11.743-1.42-16.328-4.262c-4.584-2.841-8.114-6.743-10.585-11.706c-2.472-5.002-3.709-10.705-3.709-17.108c0-6.443 1.276-12.166 3.828-17.168c2.552-5.002 6.08-8.924 10.586-11.766c4.506-2.84 9.69-4.262 15.55-4.262Zm.179 11.525c-3.27 0-6.12.74-8.553 2.221c-2.39 1.48-4.265 3.582-5.62 6.303c-.968 1.97-1.58 4.212-1.836 6.723h32.078c-.256-2.511-.868-4.752-1.834-6.723c-1.316-2.721-3.19-4.822-5.622-6.303c-2.433-1.48-5.303-2.221-8.613-2.221Z"/></svg>