<svg xmlns="http://www.w3.org/2000/svg" xmlns:xlink="http://www.w3.org/1999/xlink" width="256" height="257" viewBox="0 0 256 257"><path d="M178.744 77.638h49.915V47.513h-19.723v-19.79h-30.192v49.915zm20.612 50.506l35.295 35.295l21.302-21.302l-13.946-13.945L256 114.198l-21.35-21.35l-35.294 35.296zM114.34 0L92.99 21.35l35.296 35.295l35.296-35.295L142.28.048l-13.946 13.946L114.34 0zM77.83 178.648H27.915v30.125h19.723v19.79H77.83v-49.915zM.048 114.15l13.946 13.946L0 142.09l21.349 21.349l35.296-35.295l-35.296-35.296L.048 114.15zM77.83 77.638V27.723H47.705v19.723h-19.79v30.192H77.83zm100.914 101.01v49.915h30.125V208.84h19.79v-30.192h-49.915zm-85.753 56.29l21.302 21.3l13.946-13.945l13.994 13.994l21.349-21.35l-35.295-35.295l-35.296 35.296zM128.258 65.33c-34.733 0-62.89 28.157-62.89 62.89c0 34.733 28.157 62.89 62.89 62.89c34.733 0 62.89-28.157 62.89-62.89c0-34.733-28.157-62.89-62.89-62.89zm0 96.72c-18.684 0-33.83-15.146-33.83-33.83c0-18.684 15.146-33.83 33.83-33.83c18.684 0 33.83 15.146 33.83 33.83c0 18.684-15.146 33.83-33.83 33.83z" fill="#397FF8"/></svg>