<svg xmlns="http://www.w3.org/2000/svg" xmlns:xlink="http://www.w3.org/1999/xlink" width="256" height="293" viewBox="0 0 256 293"><path fill="#3F5DFF" d="M255.268 75.543a5.851 5.851 0 0 0-2.925-5.047L130.194.784a5.851 5.851 0 0 0-5.851 0L2.926 71.732A5.851 5.851 0 0 0 0 76.816L.731 217.44a5.851 5.851 0 0 0 2.926 5.047l122.149 69.683a5.851 5.851 0 0 0 5.851 0l121.417-70.948a5.851 5.851 0 0 0 2.926-5.084l-.732-140.595Zm-127.575-2.691l51.28 29.257l.161 51.463l-20.21-11.527l-.094-28.197l-31.013-17.693l-30.859 18.03l.088 28.182l-6.883 4.008l-13.246 8.506l-.168-52.275l50.944-29.754Zm-8.88 56.817l-14.519 8.463l-.05-16.757l14.57 8.294ZM36.571 168.28v-42.752l32.915-19.266l.073 23.318l-12.764 7.46l.103 19.588l17.013 9.7l77.678-45.35l.065 23.318l-77.612 45.35l-37.47-21.366Zm91.736 51.88l-43.461-24.81l19.12-12.288l24.217 13.81l24.444-14.285l20.239 11.542l-44.559 26.031Zm54.126-31.064l-45.122-25.724l20.041-11.761l24.927 14.19l16.91-9.882l-.102-19.588l-12.77-7.314l-.073-23.267l33.184 18.952v42.752l-36.995 21.642Z"/></svg>