<svg xmlns="http://www.w3.org/2000/svg" xmlns:xlink="http://www.w3.org/1999/xlink" width="256" height="291" viewBox="0 0 256 291"><path fill="#59473D" d="M243.813 261.514q-.689.454-1.428.454q-1.096 0-1.897-.783q-.803-.786-.803-2.058q0-1.191.692-2.027q.69-.837 1.89-.837q.766 0 1.327.315q.916.513 1.138 1.79l-1.229-.019q-.11-.593-.47-.797q-.301-.191-.66-.19q-.543.001-.89.446q-.345.448-.345 1.347q-.001.894.382 1.298q.382.405.917.404q.49 0 .743-.267q.251-.268.323-.673h1.195q-.194 1.14-.885 1.597m-4.375-5.191q-1.152 1.176-1.151 2.79q0 1.675 1.171 2.841q1.165 1.173 2.81 1.172q1.642 0 2.803-1.177a3.9 3.9 0 0 0 1.163-2.836q0-1.606-1.157-2.79q-1.166-1.203-2.81-1.203q-1.657 0-2.83 1.203m6.201 6.247q-1.404 1.358-3.371 1.358q-2.033 0-3.423-1.391q-1.395-1.391-1.394-3.424q.001-2.111 1.503-3.508q1.412-1.309 3.314-1.308q1.994 0 3.404 1.413q1.412 1.41 1.413 3.403q0 2.052-1.446 3.457m10.296-51.701a16 16 0 0 0-.115-1.377a7 7 0 0 0-.16-.85a12.5 12.5 0 0 0-.483-1.888l-.005-.011a10.9 10.9 0 0 0-2.014-3.49a10.5 10.5 0 0 0-2.985-2.38l-.035-.02a11.6 11.6 0 0 0-3.228-1.108c-.295-.053-.569-.08-.843-.112c1.28-5.483-.322-9.67-1.357-11.627c.08-.078.164-.155.24-.229c1.367-1.32 2.528-2.582 3.506-3.85l.184-.254a12.2 12.2 0 0 0 1.636-3.344a13 13 0 0 0 .505-2.488l.01.001l.007-.045l.005-.107l.032-.232h-.019l.014-.26h.007l.003-.156q.01-.23.01-.482c.008-.31.006-.632-.01-.986c-.075-1.698-.382-3.906-1.497-6.296a14.4 14.4 0 0 0-2.352-3.55a14.7 14.7 0 0 0-3.755-2.982l.008.004c-.106-.06-.19-.117-.288-.174c-3.037-4.472-6.506-7.938-9.582-10.568a73 73 0 0 0-4.354-3.43c-1.257-.923-2.317-1.653-2.907-2.09l.006.003c-1.353-.992-2.359-1.589-2.84-1.86c-1.11-.674-1.933-1.212-2.431-1.588a5 5 0 0 1-.649-.559l-.037-.049c-.007-.01-.05-.094-.108-.393c-.062-.299-.129-.81-.158-1.548q-.077-1.739.116-5.105c.202-3.61.613-8.59 1.037-15.34c.14-2.147.16-4.17.082-6.076c-.127-3.056-.522-5.824-1.161-8.334l-.002-.014c-.14-.57-.304-1.13-.475-1.683l-.003-.005l-.003-.007c-.129-.412-.242-.723-.312-.921l.005.011a31 31 0 0 0-.41-1.1l-.005-.015c-.073-.18-.165-.411-.287-.699l-.003-.007l-.002-.004a23 23 0 0 0-.828-1.758l-.089-.168l-.166-.298l-.119-.2a28 28 0 0 0-1.947-2.796a47 47 0 0 0-1.929-6.458c-.879-2.297-2.057-4.846-3.732-7.36a27 27 0 0 0-1.966-2.564l.24-.25c.339-.354 8.385-8.78 14.686-19.715c11.742-20.382 7.833-32.843 2.489-39.707l-.152-.192l-.16-.18c-5.154-5.728-12.162-9.18-20.832-10.256c-17.955-2.233-38.259 6.577-43.583 9.083l-9.677-10.69l-.037-.04a18.4 18.4 0 0 0-2.824-2.519a20 20 0 0 0-3.276-1.91c-2.313-1.074-4.85-1.745-7.55-2.081c-5.417-.667-11.497-.02-18.111 1.676c-9.912 2.557-21.044 7.509-32.68 14.489c-11.63 6.982-23.75 16.001-35.517 26.734c-14.38 13.114-26.257 26.98-34.911 40.14c-4.324 6.581-7.845 12.987-10.461 19.063c-2.611 6.08-4.328 11.827-4.99 17.145c-.48 3.865-.403 7.517.373 10.884a21.3 21.3 0 0 0 1.449 4.228a18.7 18.7 0 0 0 3.123 4.733l.032.034l11.26 11.794l-.065.112c-.122.213-.236.429-.356.645c-.173.32-.348.639-.515.962q-.168.332-.327.665c-.161.33-.318.657-.47.992q-.155.334-.299.676q-.222.506-.427 1.024l-.268.681c-.131.348-.256.705-.381 1.057q-.119.345-.232.69c-.118.36-.226.724-.335 1.09c-.03.102-.064.2-.093.302q-.055.194-.106.389c-.105.374-.197.753-.29 1.132c-.054.226-.113.454-.166.684l-.105.5c-.049.233-.091.467-.138.704c-.04.212-.087.425-.123.639c-.084.476-.153.96-.22 1.44c-.018.143-.045.282-.062.425l-.005.04l-.011.13c-.038.313-.065.63-.099.95q-.07.744-.113 1.498q-.022.331-.036.668c-.007.173-.02.343-.026.517c-.01.35-.005.705-.007 1.062q-.002.316 0 .64c.002.127-.002.253 0 .38v.073q.012.343.021.683c.012.252.035.497.05.745c.011.185.016.37.027.552c.016.164.024.287.035.393c.02.233.043.47.068.701c.024.268.053.554.093.88l.003.028v-.005l.044.313q.056.398.118.792c.032.237.074.501.128.833l.066.34l.093.475l.003.012l.004.022l.043.202c.04.218.095.492.179.867l.06.252l.137.543l.059.242c.02.08.04.152.067.265l.058.223l.05.186l.044.169l.065.22l.061.229c.054.179.113.355.167.534c.065.208.147.485.268.856l-.02-.06l.023.07c.028.088.051.146.077.22c.108.309.194.545.237.667l.007.014v.002q.103.304.323.883l.002.006l.002.009l-.002-.01l.012.036l-.005-.017l.065.159c.093.237.168.42.23.561l.072.18l.012.03a40 40 0 0 0 .35.826l-.007-.015l.08.172c.075.165.143.32.206.446q.09.185.153.32l-.006-.014l.008.019l.007.015l-.007-.015c.095.197.209.45.369.766l.012.03l.01.016l.067.132c.068.13.133.256.192.365c.082.157.157.29.215.403l.012.026c.087.157.208.389.372.686l.011.02l.012.022l.068.114q.102.181.194.337c.106.178.204.337.28.47l.024.037l.005.011q.118.196.374.611l.016.026l.05.08q.127.2.241.376c.124.182.233.348.327.49l-.016-.024c.103.151.243.367.435.639l.015.023l.009.017l-.017-.029l.02.03l.015.022l-.005-.004l.007.01l.003.002q.136.192.274.383q.191.267.355.484l-.007-.01q.154.21.387.52l.034.044q.176.227.34.434q.214.267.404.5l.043.054c.086.105.187.23.323.389l.06.072l-.002.001l.02.025l.036.038c.203.238.386.443.569.647l.194.223l.002.003l.008.008l.015.015l-.005-.003q.135.152.34.373l.044.049v.003l.008.006l.027.027l-.007-.006c.22.238.436.457.653.678c.09.09.178.19.269.277l.01.01l.322.325l.033.03l.097.101c.261.256.534.502.804.751l.062.062l.018.014l.006.006l.01.01c.07.061.18.164.341.309l.017.018q.52.46 1.04.892l.02.017l.196.162l.133.109l-.004-.005l.2.159q.44.353.857.672l.078.062l.036.026l.227.17l.054.042l.042.029q.119.086.244.173q.367.265.737.521l.208.146l.024.017l.257.175l.011.005l.131.084c.25.169.518.335.782.505c.14.089.266.173.411.261l.225.137l.127.074l.083.05q.621.371 1.155.666l.034.017l.22.12l.016.012q.736.39 1.398.72l.076.036l.241.116l.002-.003c.239.116.47.216.707.322q.166.078.334.152c.134.06.274.132.408.189l.114.049l.033.013l.054.024c.23.097.454.18.68.272l.116.044c.254.102.509.21.762.305l.06.022l.188.068c.119.042.241.08.36.123l.113.037c.363.13.727.262 1.097.38l.087.027l.032.01l.012.007q.854.264 1.704.493l.022.006l.096.024l-.033-.007c.501.131.995.244 1.483.354h.006l.181.048l.19.04c.466.102.94.184 1.419.267l.135.037l.336.051c.288.047.576.084.864.123l.124.338l.005.016q1.18 3.223 2.555 6.403c13.506 37.374 50.84 66.347 93.442 71.644c42.605 5.297 88.082-23.02 106.61-61.285a90 90 0 0 0 2.192-4.291c1.837-1.892 3.264-3.854 4.212-5.934c1.134-2.444 1.516-5.017 1.41-7.122"/><path fill="#59473D" d="m218.468 101.184l.004.01l.002.004zM30.475 205.814l-.003-.002h-.002zM18.41 194.51l.002.005v-.003zm.006.012l.003.001l-.007-.008zm-5.65-11.969l-.004-.017l-.003-.004zm-.478-1.891l-.001-.006l-.002-.003zm7.22 15.348l.014.018l-.02-.024l-.011-.015z"/><path fill="#141C26" d="M219.494 24.087c-2.063-2.294-4.45-4.022-7.042-5.302a21 21 0 0 0-1.452-.496q-.36-.238-.735-.457c-2.293-.878-4.719-1.451-7.214-1.772c-12.378-1.593-26.47 2.913-34.529 6.113l-1.338.56a189 189 0 0 0-5.59 2.495q-.261.122-.521.246l-3.175-3.689l-.91-1.058l-.393-.46l-8.307-9.644l-.721-.838l-.893-1.035l-.159.035l-2.35.532l-2.713.614c-1.5-.696-3.282-1.193-5.345-1.45c-4.132-.52-9.378-.042-15.354 1.503c-5.977 1.534-12.678 4.114-19.785 7.654C86.753 24.71 70.928 35.613 55.7 49.505a235 235 0 0 0-14.824 14.76a205 205 0 0 0-12.1 14.415c-7.373 9.677-13.024 19.089-16.633 27.484c-2.41 5.594-3.901 10.734-4.446 15.133c-.402 3.198-.297 5.995.239 8.306c.173.747.403 1.427.662 2.076c.539 1.366 1.247 2.543 2.161 3.55l9.213 9.653l.988 1.033l.065-.07c.28-.325.569-.65.86-.967l.079-.084c.106-.115.216-.222.323-.331q.414-.436.841-.86c.177-.175.356-.343.537-.513c.175-.165.346-.337.524-.5c.08-.073.163-.14.245-.213q.282-.254.575-.505a37 37 0 0 1 1.309-1.086l.072-.056a49 49 0 0 1 1.45-1.09q.461-.328.936-.647q.283-.191.568-.378q.486-.314.983-.615c.193-.117.38-.233.571-.344c.346-.203.697-.395 1.046-.587c.187-.1.371-.205.558-.304l.21-.11l.032-.019c.297-.153.6-.294.902-.44c.17-.08.331-.165.504-.243c.252-.12.51-.23.767-.342q.332-.147.669-.29l.249-.11a40 40 0 0 1 1.721-.656c.183-.066.373-.122.557-.186q.298-.1.601-.197l.234-.08c.12-.037.24-.078.359-.113c.247-.073.497-.138.744-.21l.184-.05q.43-.124.863-.235c.27-.07.54-.128.814-.19q.505-.118 1.011-.224l.424-.086c.141-.026.288-.047.43-.073q.5-.09 1-.168q.443-.064.885-.124c.239-.03.473-.063.71-.09q.145-.014.29-.025c.109-.013.213-.029.322-.038l.178-.01a34 34 0 0 1 3.888.067l.215.014c1.428.117 2.971.343 4.592.687c.387.083.773.163 1.173.26q.123-.23.25-.46c.858-1.54 1.726-3.041 2.604-4.516c5.13-8.601 10.633-16.12 16.25-22.676a156 156 0 0 1 5.782-6.39c8.056-8.414 16.16-14.966 23.57-20.025a145 145 0 0 1 4.827-3.155a137 137 0 0 1 6.155-3.626a129 129 0 0 1 4.575-2.417a118 118 0 0 1 6.56-3.056a105 105 0 0 1 4.058-1.636q-.914-.096-1.864-.146q-.886-.045-1.797-.044l-.457.001a38 38 0 0 0-5.497.453q-.62.097-1.252.221a54.4 54.4 0 0 1 9.061-3.695c1.951-.6 3.858-1.07 5.688-1.428a57 57 0 0 1 11.264-1.032c1.294.013 2.485.069 3.556.149c3.741.28 5.996.853 5.996.853c-.531-.748-1.2-1.4-1.927-1.969c-1.325-1.026-2.85-1.761-4.188-2.282a24 24 0 0 0-2.414-.798q.946-.16 1.867-.282a50 50 0 0 1 1.93-.224a49.8 49.8 0 0 1 13.65.618c4.272.79 6.844 1.864 6.844 1.864c-.609-1.187-1.512-2.2-2.5-3.056a17 17 0 0 0-2.207-1.608a61.2 61.2 0 0 1 12.693 4.453a55 55 0 0 1 2.517 1.295c2.092 1.141 3.248 1.961 3.248 1.961c-.35-1.23-1.06-2.393-1.888-3.436c-.208-.262-.42-.52-.636-.765l.1.046c.077.025.241.076.47.154q.248.083.608.212c.91.331 2.302.887 3.938 1.7l.238.119q.334.17.676.35c.562.296 1.142.625 1.734.977a36 36 0 0 1 2.558 1.672q.936.67 1.86 1.442a29 29 0 0 1 1.849 1.686c.117.119.238.235.356.358q.656.677 1.268 1.416a23 23 0 0 1 2.133 3.006a20.6 20.6 0 0 1 1.902 4.206q.039.13.073.26c.353-.379.975-1.06 1.785-1.99c6.725-7.73 26.53-32.837 14.598-48.157"/><path fill="#856249" d="m249.088 211.659l.004-.002s.232-1.738-.687-3.293l-.02-.043a3 3 0 0 0-.17-.26l-.06-.09a4 4 0 0 0-.348-.397a4.2 4.2 0 0 0-.8-.656a5 5 0 0 0-.529-.299c-.521-.249-1.146-.438-1.888-.547a10.7 10.7 0 0 0-1.837-.08c-.273.008-.542.014-.837.042l-.133.008l.049.179l.131.492l.067.27c.096.384.212.873.33 1.425a3 3 0 0 1-.122.314l-.045.107c-.338.786-1.257 2.6-3.304 4.96c-.349.4-.735.82-1.149 1.252c-5.71 5.9-18.07 14.302-44.07 19.002c-8.823 1.245-16.958 1.313-23.906.449c-10.274-1.278-17.972-4.56-21.553-8.974c-.31-.379-.595-.77-.866-1.163a17 17 0 0 1-.57-.884l-.185-.33a16.9 16.9 0 0 1-2.172-8.56c.05-3.488 1.137-6.825 2.979-9.39c1.494-2.08 3.48-3.652 5.804-4.378a9.9 9.9 0 0 1 3.637-.428q.387.027 1.026.107c.854.107 2.047.275 3.51.463l.488.062c4.88.606 12.65 1.34 22.046.766c17.096-1.041 39.597-6.42 60.029-24.845l.056-.072v-.032c.068-1.543-.138-4.33-2.088-6.498a7.8 7.8 0 0 0-1.19-1.07a8 8 0 0 0-.826-.54c-.3-.166-.575-.334-.84-.503a16 16 0 0 1-1.005-.678l-.045-.065c-.138-.216-.285-.426-.426-.642c-5.3-8.027-12.601-12.686-15.513-14.821c-1.373-1.01-2.247-1.47-2.247-1.47c-6.305-3.84-7.23-5.114-6.64-15.544c.21-3.756.617-8.693 1.036-15.385a54 54 0 0 0 .097-2.51q.007-.29.008-.575a46 46 0 0 0-.032-2.239l-.007-.207l-.017-.221a54 54 0 0 0-.187-2.355a31 31 0 0 0-.224-1.665c-.044-.274-.098-.538-.148-.805a29 29 0 0 0-.18-.881a25 25 0 0 0-.193-.841l-.003-.002l.003-.003v.003c-.085-.336-.183-.655-.276-.973c-.034-.117-.061-.238-.099-.35c-.035-.108-.073-.206-.107-.314l-.036-.106l-.107-.306l-.003-.02q-.134-.37-.269-.72l-.028-.078l-.091-.222l-.11-.273l-.025-.052v-.007c-.19-.442-.387-.871-.597-1.273l-.167-.297a20 20 0 0 0-.734-1.121l-.1-.15l-.125-.165c-.18-.246-.36-.486-.54-.711l-.247-.31a21 21 0 0 0-.726-.823v-.002l-.005-.041l-.007-.05l-.014-.07l-.018-.1l-.015-.099l-.032-.16l-.015-.098l-.044-.225l-.018-.08a39 39 0 0 0-.368-1.641l-.01-.048l-.128-.498l-.019-.065a30 30 0 0 0-.15-.552l-.006-.012a40 40 0 0 0-.426-1.412c-.049-.16-.108-.328-.167-.494a32 32 0 0 0-.365-1.052c-.076-.207-.159-.412-.24-.624a27 27 0 0 0-.412-1.013c-.093-.226-.198-.449-.297-.677a36 36 0 0 0-.83-1.708a28 28 0 0 0-.576-1.028l-.388-.657c-.23-.367-.478-.726-.728-1.085c-.126-.177-.244-.362-.376-.54c-.116-.154-.247-.297-.368-.447c-.288-.368-.572-.736-.887-1.082l-.038-.038l-.179-.17c-.405-.436-.831-.86-1.289-1.25l-.082-.07a14 14 0 0 0-.622-.496l-.022-.018l-.076-.055q-.274-.205-.56-.396l-.1-.07l.04.033c-.2-.148-.564-.34-1.042-.553q-.25-.11-.545-.23c-.984-.395-2.314-.842-3.89-1.261c-.098-.028-.202-.052-.298-.076a46 46 0 0 0-5.889-1.124c-.252-.032-.511-.045-.765-.072l-.31-.029a35 35 0 0 0-3.682-.185l-.073.003c-1.594.015-3.19.147-4.712.448c.358-.593 1.325-1.249 2.295-1.797a26 26 0 0 1 2.42-1.192c-.691.052-1.4.15-2.106.264c-.227.038-.457.069-.686.111l-.444.084l-.13.027l-.368.077c-3.554.757-6.974 2.037-8.876 2.813q-.404.166-.714.297l-.12.05c-.19.023-.383.052-.573.075l.005-.006c1.402-2.593 3.471-3.99 5.047-4.728c.275-.129.538-.245.776-.335c.09-.035.164-.057.243-.087q.34-.12.59-.192c.372-.108.614-.156.614-.156c-.17.004-.327.026-.492.035l-.417.033c-.205.015-.413.026-.615.045c-.121.012-.248.015-.37.027c-3.929.426-7.423 1.758-10.418 3.413a36 36 0 0 0-5.443 3.702q-.62.129-1.263.265c-4.296.917-9.204 2.098-14.364 3.682a133 133 0 0 0-5.805 1.926a119 119 0 0 0-7.901 3.177c-7.923 3.537-15.73 8.232-22.29 14.532c-.236.227-.484.44-.716.671a58 58 0 0 0-1.67 1.756c-.225.242-.461.47-.682.716c-.277.306-.533.636-.803.95a55 55 0 0 0-3.487 4.47a52 52 0 0 0-2.304 3.624l-.089.148a53 53 0 0 0-3.902 8.394a57 57 0 0 0-1.788 5.921l-.058.224a61 61 0 0 0-1.015 5.392c-.051.365-.109.726-.158 1.097c-.116.926-.207 1.87-.285 2.827a71 71 0 0 0-.166 2.66l-.009.208c-.017.44-.042.876-.051 1.323c-.01.509-.006 1.028-.006 1.547l-.003.363a78 78 0 0 0 .065 3.077l.011.166c.045 1.036.118 2.093.208 3.16c.038.442.075.886.12 1.335q.015.162.028.329q.04.374.084.749q.197 1.77.475 3.596c.049.338.095.675.15 1.015c.17 1.065.355 2.138.566 3.23c0 0-.191-1.4-.072-3.46q.043-.712.138-1.521c.147-1.17.397-2.46.823-3.792q.159-.488.35-.983c.052-.144.116-.285.174-.43c.252-.609.535-1.22.877-1.825q.116.644.246 1.293l.028.14l-.003.196l-.009.86a124 124 0 0 0 .056 4.816c.118 3.876.452 8.554 1.29 12.54c0 0 .157-7.248 1.384-8.068c0 0 2.145 13.422 4.136 18.489c.258.656.515 1.18.763 1.507l-.051-1.331l-.284-7.46s.013-.279.04-.767a131 131 0 0 0 5.108 9.425c.533.893 1.076 1.79 1.64 2.697c-3.688 3.243-7.098 7.832-9.546 13.32q-.587 1.316-1.097 2.696a45 45 0 0 0-1.504 5.007c-.044.182-.09.364-.129.548q-.19.837-.35 1.69l-.008.053q-.154.856-.275 1.727q-.04.282-.071.562q-.08.621-.14 1.247q-.032.317-.059.637q-.052.632-.084 1.27q-.019.287-.03.576a41 41 0 0 0-.037 1.851l.002.08c0 .479.014.956.032 1.437q.03.726.084 1.459l.013.196l.007.122c.046.593.11 1.186.182 1.785c.023.19.056.379.081.57c.056.408.111.818.182 1.231c.036.227.081.46.12.687c.072.378.141.754.222 1.133l.16.73a46 46 0 0 0 .786 2.97q.109.367.225.736c.124.386.257.775.39 1.16c.082.232.159.464.244.696q.237.642.498 1.285c.077.192.147.383.228.576a50 50 0 0 0 1.744 3.74c.098.183.203.37.299.556q.35.656.721 1.313q.199.341.407.687c.234.394.47.791.72 1.186c.152.244.312.49.47.735a62 62 0 0 0 1.286 1.893q.4.567.827 1.132q.274.372.557.744q.449.58.922 1.158q.28.354.57.706c.352.42.718.842 1.088 1.26c.174.198.338.396.515.593c.555.616 1.123 1.23 1.717 1.843l-.002-.004a15 15 0 0 1-.812-1.364l-.017-.028c-.086-.161-.177-.34-.27-.528l-.03-.052a24 24 0 0 1-.3-.63l-.021-.038a24 24 0 0 1-.328-.75c-.874-2.102-1.724-5.02-1.614-8.274c.338.453.683.89 1.025 1.335a133 133 0 0 0 2.117 4.114a109 109 0 0 0 2.971 5.16c1.319 2.135 2.768 4.273 4.265 6.117l-.003-.002c-.007-.012-1.742-3.635-2.323-6.012c-.163-.668-.24-1.242-.156-1.603l.42.432c.139.145.28.286.42.431c.277.368.627.832 1.018 1.346l.198.26c.194.255.394.52.61.801l.012.016l.78 1.01c2.442 3.139 5.69 7.15 8.007 9.354c.773.735 1.441 1.27 1.942 1.501l-3.343-5.989c7.566 6.157 38.786 14.062 69.543 5.238a89 89 0 0 0 11.074-3.965a85 85 0 0 0 6.556-3.167l.314-.175a86 86 0 0 0 4.505-2.653l.033-.02a83 83 0 0 0 8.754-6.347l.005-.002l.007-.006q.153-.134.314-.268a74 74 0 0 0 4.93-4.722a74 74 0 0 0 5.472-6.469l.12-.156q.603-.805 1.175-1.6l.108-.155c.124-.181.234-.354.357-.533a86 86 0 0 0 1.545-2.284l.356-.55c.255-.401.5-.803.745-1.2c.185-.311.375-.622.554-.93q.301-.505.595-1.006a94 94 0 0 0 1.001-1.806c.127-.237.247-.468.37-.702q.37-.699.714-1.381l.316-.636l.093-.2q.428-.863.821-1.706l.05-.12a19 19 0 0 0 2.376-2.641c.09-.12.183-.24.265-.359c1.371-1.978 1.82-3.729 1.845-5.3M65.354 189.424q-.041-.21-.076-.417l.024-.01a72 72 0 0 1-.828-6.089c-.012-.148-.033-.291-.049-.438c-.342.107-.728.56-1.116 1.179a13 13 0 0 0-.43.752c-1.04 1.953-1.976 4.66-1.976 4.66a80 80 0 0 1 .283-2.785q.02-.163.043-.328c.115-.96.249-1.928.391-2.89q.025-.175.052-.346c.166-1.085.342-2.163.525-3.203l.07-.4l.014-.069l.064-.362q.047-.27.096-.535c.15-.825.304-1.621.453-2.377q.205-1.025.394-1.938l.04-.196c.019-.096.04-.183.058-.274q.03-.134.056-.274l.007-.032c.033-.152.068-.308.098-.452l.01-.04c.028-.143.056-.264.084-.397c.047-.21.091-.424.135-.62l.012-.054c.036-.159.069-.32.102-.465q.073-.31.13-.582l.002-.005l.003-.005c.022-.104.044-.194.066-.29l.004-.017c.021-.087.04-.178.059-.255l.116-.499l.029-.118l.011-.044l.033-.14l.023-.097l.005-.014l-.016.013l-.21.19c-.185.165-.375.326-.548.508l-.191.21a9 9 0 0 0-.588.723l-.098.123c-.23.32-.443.656-.646.997v.001l-.027.045v.002l-.083.152q-.07.126-.136.253c-.117.214-.239.422-.344.637l-.005.008l-.004.007l-.005.018l-.041.081l-.038.082a22 22 0 0 0-.455 1.014a27 27 0 0 0-1.15 3.327c-.134.483-.228.861-.27 1.046l-.002.016l-.03.124v-.002v.002l.012-.145c.016-.287.049-.573.072-.858c.044-.6.082-1.203.148-1.8c.053-.502.13-.993.201-1.491l.07-.466q.044-.346.1-.688c.033-.213.08-.423.12-.632l.002-.016v-.001l.045-.234l.013-.064a92 92 0 0 1 .201-1.07l.036-.177l.007-.033l.053-.251c.02-.105.05-.207.071-.306c.085-.376.176-.744.264-1.115l.015-.062c.065-.276.125-.554.196-.826l.002-.012l.007-.018l.022-.08c.145-.56.306-1.107.467-1.658l.084-.304c.031-.101.057-.209.09-.311c.265-.894.55-1.777.852-2.64l.039-.108c.26-.733.522-1.455.797-2.166l.03-.081c.125-.313.253-.613.375-.923l.02-.045c.188-.461.373-.925.565-1.371v-.007l.004-.006l.022-.056c.051-.112.17-.383.355-.783l.003-.007l.025-.054c.072-.158.14-.311.21-.471l.34-.756l.101-.219l.003-.01l1.948-3.502q.122-.221.239-.442l.041-.07l.1-.18c.212-.389.425-.78.633-1.158l.893-1.609c.572-1.03 1.062-1.903 1.36-2.43l.304-.544l.014-.026h-.002l-.007-.006l-.018-.014c-.076-.051-.667-.459-1.641-1.049a50 50 0 0 0-6.674-3.355a43 43 0 0 0-2.611-.978c-.234-.077-.48-.14-.716-.214q-1.14-.36-2.338-.645l-.046-.01c-.548-.132-1.092-.269-1.654-.373a27 27 0 0 0-1.331-.227c-.214-.03-.435-.047-.65-.066l-.641-.065a28 28 0 0 0-1.817-.096c-.294-.007-.589-.016-.883-.01c-1.32.03-2.616.147-3.889.328l-.232.036a32.2 32.2 0 0 0-6.616 1.717q-1.074.403-2.114.878a31 31 0 0 0-.587.283c-.237.115-.478.228-.712.348a32.5 32.5 0 0 0-5.839 3.864l-.064.053a32.4 32.4 0 0 0-5.317 5.604a33 33 0 0 0-1.172 1.666a33 33 0 0 0-1.918 3.351c-.202.407-.4.816-.585 1.232q-.051.119-.099.239a32.4 32.4 0 0 0-2.423 8.635a33 33 0 0 0-.197 1.797l-.017.226a34 34 0 0 0-.08 3.227c.001.097.01.188.013.283c.015.464.033.926.067 1.386l.026.242l.029.318q.044.547.107 1.08l.015.082v.023l.002.004c.025.179.056.36.081.54c.047.323.092.648.145.968c.043.233.094.461.139.692c.06.298.113.6.182.896c.055.244.12.483.18.72l.04.168l.066.25l.049.19l.06.231c.069.248.15.496.223.742c.08.26.157.526.243.781c.082.254.176.503.267.754l.074.2q.091.272.197.54c.098.254.206.507.311.761c.097.23.192.464.293.693q.088.197.18.385c.063.127.119.256.178.382a24 24 0 0 0 .723 1.425c.11.202.214.404.325.604c.148.263.306.522.463.783c.11.182.218.367.332.552c.167.265.34.521.516.78q.169.26.341.51q.279.394.57.785q.17.231.342.46q.308.4.63.787c.11.138.22.277.339.412q.335.396.687.783q.162.182.332.366q.364.397.747.775c.11.107.213.217.323.324a43 43 0 0 0 1.117 1.046q.429.38.874.749l.29.242c.308.252.622.493.938.734c.09.065.184.137.272.204q.495.361 1.001.707l.251.171q.525.353 1.063.683l.229.138c.37.227.75.438 1.131.65l.196.11q.594.319 1.196.614l.172.082q.62.299 1.255.574l.15.065q.65.27 1.31.522l.123.044c.455.166.908.324 1.371.473l.094.03c.225.07.456.13.683.197c.247.072.494.15.744.217l.07.02q.735.19 1.48.35l.043.012q.005 0 .008.003q.754.16 1.522.282l.023.008a33 33 0 0 0 4.814.413q.583.012 1.169.007a33 33 0 0 0 3.837-.352a39 39 0 0 0 5.004-1.1c2.935-.852 5.528-1.99 7.078-3.146c0 0-1.02-4.516-1.882-9.104a178 178 0 0 1-.274-1.507"/><path fill="#856249" d="m199.057 80.92l.005.002l-.013-.009z"/><path fill="#3478AD" d="m138.63 19.778l-.373-4.574l2.29-5.07l.905-.203c-1.5-.696-3.282-1.193-5.345-1.45c-4.132-.52-9.378-.042-15.354 1.503c-5.977 1.534-12.678 4.114-19.785 7.654C86.753 24.71 70.928 35.613 55.7 49.505a235 235 0 0 0-14.824 14.76a205 205 0 0 0-12.1 14.415c-7.373 9.677-13.024 19.089-16.633 27.484c-2.41 5.594-3.901 10.734-4.446 15.133c-.402 3.198-.297 5.995.239 8.306c.173.747.403 1.427.662 2.076c.539 1.366 1.247 2.543 2.161 3.55l9.213 9.653l.988 1.033l.065-.07c.28-.325.569-.65.86-.967l.079-.084c.106-.115.216-.222.323-.331q.414-.436.841-.86c.177-.175.356-.343.537-.513c.175-.165.346-.337.524-.5c.08-.073.163-.14.245-.213q.282-.254.575-.505a37 37 0 0 1 1.309-1.086l.072-.056a49 49 0 0 1 1.45-1.09q.461-.328.936-.647q.283-.191.568-.378q.486-.314.983-.615c.193-.117.38-.233.571-.344c.346-.203.697-.395 1.046-.587c.187-.1.371-.205.558-.304l.21-.11l.013-.038c2.206-6.107 5.51-12.736 9.793-19.643c5.262-8.484 11.985-17.382 19.968-26.244a239 239 0 0 1 16.483-16.564c7.7-7.018 15.548-13.28 23.29-18.705a191 191 0 0 1 15.412-9.766c.478-.27.957-.551 1.432-.813a149 149 0 0 1 3.994-2.129a136 136 0 0 1 8.46-4.029l-1.351-1.622l-.224-.267l-11.188-13.455l.086-8.197l-.105-.119l6.724-2.005z"/><path fill="#FCE9C9" d="m249.088 211.659l.004-.002s.232-1.738-.687-3.293l-.02-.043a3 3 0 0 0-.17-.26l-.06-.09a4 4 0 0 0-.348-.397a4.2 4.2 0 0 0-.8-.656a5 5 0 0 0-.529-.299c-.521-.249-1.146-.438-1.888-.547a10.7 10.7 0 0 0-1.837-.08c-.273.008-.542.014-.837.042l-.133.008l.049.179l.131.492l.067.27c.096.384.212.873.33 1.425a3 3 0 0 1-.122.314l-.045.107c-.338.786-1.257 2.6-3.304 4.96c-.349.4-.735.82-1.149 1.252c-5.71 5.9-18.07 14.302-44.07 19.002c-8.823 1.245-16.958 1.313-23.906.449c-10.274-1.278-17.972-4.56-21.553-8.974c-.31-.379-.595-.77-.866-1.163a17 17 0 0 1-.57-.884l-.185-.33a16.9 16.9 0 0 1-2.172-8.56c.05-3.488 1.137-6.825 2.979-9.39c1.494-2.08 3.48-3.652 5.804-4.378a9.9 9.9 0 0 1 3.637-.428q.387.027 1.026.107c.854.107 2.047.275 3.51.463l.488.062c4.88.606 12.65 1.34 22.046.766c17.096-1.041 39.597-6.42 60.029-24.845l.056-.072v-.032c.068-1.543-.138-4.33-2.088-6.498a7.8 7.8 0 0 0-1.19-1.07a8 8 0 0 0-.826-.54c-.3-.166-.575-.334-.84-.503a16 16 0 0 1-1.005-.678l-.045-.065c-.138-.216-.285-.426-.426-.642c-5.3-8.027-12.601-12.686-15.513-14.821c-1.373-1.01-2.247-1.47-2.247-1.47c-6.305-3.84-7.23-5.114-6.64-15.544c.21-3.756.617-8.693 1.036-15.385a54 54 0 0 0 .097-2.51q.007-.29.008-.575a46 46 0 0 0-.032-2.239l-.007-.207l-.017-.221a54 54 0 0 0-.187-2.355a31 31 0 0 0-.224-1.665c-.044-.274-.098-.538-.148-.805a29 29 0 0 0-.18-.881a25 25 0 0 0-.193-.841l-.003-.002l.003-.003v.003c-.085-.336-.183-.655-.276-.973c-.034-.117-.061-.238-.099-.35c-.035-.108-.073-.206-.107-.314l-.036-.106l-.107-.306l-.003-.02q-.134-.37-.269-.72l-.028-.078l-.091-.222l-.11-.273l-.025-.052v-.007c-.19-.442-.387-.871-.597-1.273l-.167-.297a20 20 0 0 0-.734-1.121l-.1-.15l-.125-.165c-.18-.246-.36-.486-.54-.711l-.247-.31a21 21 0 0 0-.726-.823v-.002q-.447-.473-.9-.885a13 13 0 0 0-1.033-.581c-.111-.058-.224-.102-.339-.152a9 9 0 0 0-.681-.292c-.133-.05-.262-.09-.393-.135a12 12 0 0 0-.615-.185a10 10 0 0 0-.407-.089a8 8 0 0 0-1.001-.152c-.196-.02-.394-.028-.59-.036q-.201-.007-.395-.004a10 10 0 0 0-.604.03q-.186.014-.37.033l-.27.04c-.123.022-.246.035-.373.06q-.161.026-.323.058q-.375.08-.744.187l-.217.056c-.65.194-1.3.443-1.942.735l-.215.102q-.375.172-.751.364l-.288.155q-.341.178-.679.37l-.308.18q-.335.194-.67.4l-.303.187q-.349.218-.7.447l-.258.169q-.395.258-.792.527l-.158.106q-.445.304-.9.618l-.01.009l-.046.028h.003c-.562.386-1.122.781-1.69 1.175c-.474.331-.959.662-1.445.991l-.234.161q-.736.492-1.482.97l-.25.156c-.5.31-1.001.613-1.507.9l-.266.148a30 30 0 0 1-1.547.81l-.26.122c-.528.25-1.066.485-1.611.69l-.225.086a19 19 0 0 1-1.712.547l-.152.035c-.613.158-1.226.284-1.857.37a24.5 24.5 0 0 1-3.178.194a34.4 34.4 0 0 1-5.212-.392a57 57 0 0 1-1.752-.297c-.208-.04-.415-.071-.62-.111c-1.52-.296-3.05-.649-4.59-1.02q-.97-.231-1.944-.468c-1.043-.254-2.097-.5-3.152-.74c-.209-.049-.41-.101-.622-.147l.01-.001l-.447-.094q-.352-.076-.7-.154l-.671-.133l-.117-.024l-.078-.015l-.616-.122q-.718-.136-1.442-.256c-.143-.025-.287-.043-.428-.065a52 52 0 0 0-1.072-.159c-.18-.026-.364-.043-.542-.065l-.04-.004a33 33 0 0 0-.937-.108l-.622-.057l-.283-.02c-.212-.016-.428-.034-.643-.046a27 27 0 0 0-1.596-.062q-.147 0-.294-.004l-.274-.005a30 30 0 0 0-1.225.028c-.106.003-.218.002-.327.01a25 25 0 0 0-1.568.117c-.136.014-.272.035-.41.048q-.51.06-1.02.138l-.153.022c-.186.028-.375.063-.56.096q-.523.094-1.046.207q-.303.066-.604.14q-.518.124-1.041.273a22 22 0 0 0-1.722.547c-.171.06-.341.113-.512.18a27 27 0 0 0-1.652.67c-4.333 2.495-8.055 5.9-11.014 9.871a39 39 0 0 0-2.698 4.146a39 39 0 0 0-2.25 4.717a39 39 0 0 0-1.324 3.87l-.068.266a37 37 0 0 0-1.1 5.785c-.06.539-.114 1.077-.15 1.617a35 35 0 0 0 .005 4.362c.005.131.017.265.026.395c.025.372.038.74.078 1.113c.107 1.034.254 2.069.462 3.095c.073.38.176.736.267 1.102c.086.35.163.71.257 1.051v-.002a30.3 30.3 0 0 0 3.007 7.127c4.721 8.156 12.483 13.034 18.107 15.651a69 69 0 0 0 6.843 2.584s-.112.07-.285.187a59 59 0 0 0-4.274 1.263a61 61 0 0 0-3.845 1.44c-3.65 1.512-7.794 3.663-11.465 6.634q-.69.555-1.354 1.15a31 31 0 0 0-2.163 2.158c-.079.086-.163.168-.238.255q-.157.176-.31.355q-.393.457-.77.934l-.3.382c-.33.436-.653.878-.957 1.337c-.3.45-.587.915-.859 1.386c-2.176 3.798-3.41 8.346-3.031 13.769l.011-.056l.007-.04l.04-.202l.012-.045q.026-.125.065-.286l.015-.068q.045-.186.105-.419l.027-.1l.148-.536h.003c.053-.19.12-.395.187-.606l.043-.129q.106-.324.234-.671l.045-.111q.119-.329.262-.676l.045-.107q.156-.376.335-.77l.076-.164c.127-.268.256-.54.4-.815v-.001l.019-.032c.215-.411.457-.83.715-1.252c.097-.16.19-.318.298-.478l.082-.134l.002-.003a19 19 0 0 1 1.344-1.782q.106-.123.22-.247q.266-.301.554-.596c.079-.078.156-.16.235-.237c.263-.257.532-.508.818-.751l.024-.023v.001v-.001s-4.94 11.174-2.792 20.035l-.002-.074v-.055c-.002-.05-.002-.106-.002-.182l-.002-.048q.001-.134.006-.322l.002-.049c0-.13.01-.277.016-.44l.003-.047a25 25 0 0 1 .096-1.229l.006-.054c.022-.223.054-.454.087-.697l.01-.065q.055-.386.13-.799l.012-.065l.026-.138v-.006q.091-.466.215-.946l.015-.064q.125-.47.275-.948l.094-.292l.068-.203v-.004q.14-.392.307-.783l.017-.042l.001-.002a12 12 0 0 1 .684-1.343c.205-.346.42-.685.664-1.006l.01-.016v.002v-.002h.001s-.283 2.752-.21 6.026c.014.515.038 1.044.07 1.578q.03.533.077 1.068l.001.004a44 44 0 0 0 .121 6.991c.393 4.026 1.35 8.285 3.035 12.769c0 0-1.545-5.156.68-10.313q.303.704.64 1.418c.183 1.53.492 3.702.942 6.094c.43 3.986 2.337 15.942 10.46 24.352c0 0-3.07-3.984-2.593-9.17c.32.681.638 1.296.94 1.825c1.39 2.601 4.154 7.445 7.167 10.803c0 0-2.445-4.735-1.875-5.755c0 0 7.971 9.912 10.507 10.879l-3.334-5.528l-.075-.162c11.583 8.399 27.475 11.517 47.131 6.043a96 96 0 0 0 10.466-3.605a85 85 0 0 0 6.556-3.167l.314-.175a86 86 0 0 0 4.505-2.653l.033-.02a83 83 0 0 0 8.754-6.347l.005-.002l.007-.006q.153-.134.314-.268a74 74 0 0 0 4.93-4.722a74 74 0 0 0 5.472-6.469l.12-.156q.603-.805 1.175-1.6l.108-.155c.124-.181.234-.354.357-.533a86 86 0 0 0 1.545-2.284l.356-.55c.255-.401.5-.803.745-1.2c.185-.311.375-.622.554-.93q.301-.505.595-1.006a94 94 0 0 0 1.001-1.806c.127-.237.247-.468.37-.702q.37-.699.714-1.381l.316-.636l.093-.2q.428-.863.821-1.706l.05-.12a19 19 0 0 0 2.376-2.641c.09-.12.183-.24.265-.359c1.371-1.978 1.82-3.729 1.845-5.3M64.425 182.47c-.342.107-.728.56-1.116 1.179a13 13 0 0 0-.43.752c-1.04 1.953-1.976 4.66-1.976 4.66a80 80 0 0 1 .283-2.785q.02-.163.043-.328c.115-.96.249-1.928.391-2.89q.025-.175.052-.346c.166-1.085.342-2.163.525-3.203l.07-.4l.014-.069l.064-.362q.047-.27.096-.535c.15-.825.304-1.621.453-2.377q.205-1.025.394-1.938l.04-.196c.019-.096.04-.183.058-.274q.03-.134.056-.274l.007-.032c.033-.152.068-.308.098-.452l.01-.04c.028-.143.056-.264.084-.397c.047-.21.091-.424.135-.62l.012-.054c.036-.159.069-.32.102-.465q.073-.31.13-.582l.002-.005l.003-.005c.022-.104.044-.194.066-.29l.004-.017c.021-.087.04-.178.059-.255l.116-.499l.029-.118l.011-.044l.033-.14l.023-.097l.005-.014l-.016.013l-.21.19c-.185.165-.375.326-.548.508l-.191.21a9 9 0 0 0-.588.723l-.098.123c-.23.32-.443.656-.646.997v.001l-.027.045v.002l-.083.152q-.07.126-.136.253c-.117.214-.239.422-.344.637l-.005.008l-.004.007l-.005.018l-.041.081l-.038.082a22 22 0 0 0-.455 1.014a27 27 0 0 0-1.15 3.327c-.134.483-.228.861-.27 1.046l-.002.016l-.03.124v-.002v.002l.012-.145c.016-.287.049-.573.072-.858c.044-.6.082-1.203.148-1.8c.053-.502.13-.993.201-1.491l.07-.466q.044-.346.1-.688c.033-.213.08-.423.12-.632l.002-.016v-.001l.045-.234l.013-.064a92 92 0 0 1 .201-1.07l.036-.177l.007-.033l.053-.251c.02-.105.05-.207.071-.306c.085-.376.176-.744.264-1.115l.015-.062c.065-.276.125-.554.196-.826l.002-.012l.007-.018l.022-.08c.145-.56.306-1.107.467-1.658l.084-.304c.031-.101.057-.209.09-.311c.265-.894.55-1.777.852-2.64l.039-.108c.26-.733.522-1.455.797-2.166l.03-.081c.125-.313.253-.613.375-.923l.02-.045c.188-.461.373-.925.565-1.371v-.007l.004-.006l.022-.056c.051-.112.17-.383.355-.783l.003-.007l.025-.054c.072-.158.14-.311.21-.471l.34-.756l.101-.219c-.16-.087-.327-.164-.492-.247l-.093-.046l-.175-.088a18.5 18.5 0 0 0-3.355-1.223l-.185-.046a18.5 18.5 0 0 0-3.65-.53a18 18 0 0 0-1.149-.013c-.58.012-1.15.061-1.712.123c-.18.023-.353.054-.527.077c-.278.042-.553.096-.83.146c-.107.023-.22.036-.327.06a18 18 0 0 0-1.687.443c-.17.054-.34.097-.505.155q-.742.26-1.456.575c-.19.084-.365.181-.55.268c-.217.107-.432.222-.645.331l-.22.113a20 20 0 0 0-1.321.814q-.378.248-.736.51c-.147.112-.287.228-.435.342a19 19 0 0 0-1.666 1.507c-.318.315-.628.636-.918.973l-.148.168c-.153.183-.295.376-.438.567l-.023.027l-.018.025c-.097.128-.202.251-.297.382l-.038.051l-.037.051l-.003.005l-.002.003a18.4 18.4 0 0 0-1.545 2.6c-.065.13-.123.264-.185.396q-.309.667-.566 1.362c-.067.184-.142.362-.205.548l-.003.002v.001l-.002.004q-.235.704-.412 1.442l-.045.182l-.043.232l-.006.02c-.08.357-.158.713-.214 1.075c-.029.178-.047.36-.07.54l-.008.051q-.033.288-.062.58c-.017.145-.038.293-.05.441q-.065.855-.047 1.73c.012.45.052.894.094 1.338l.003.025l.015.207c.024.245.067.487.103.73a17.9 17.9 0 0 0 2.958 7.603a18.6 18.6 0 0 0 5.321 5.224a18.3 18.3 0 0 0 3.856 1.877c1.31.463 2.678.8 4.104.956q.481.048.97.08c.487.032.972.053 1.468.043c.456-.01.9-.067 1.349-.11c.256-.024.52-.026.773-.062c.645-.09 1.277-.221 1.9-.376l.14-.031c.26-.068.5-.162.751-.24a18 18 0 0 0 2.278-.865l.16-.071c.205-.088.418-.173.616-.274l.024-.01a72 72 0 0 1-.828-6.089c-.012-.148-.033-.291-.049-.438"/><path fill="#4D94C3" d="m141.497 21.245l.341.174l-.006-.046z"/><path fill="#FFF" d="m242.03 206.982l-.067-.27l-.131-.491c-.56-1.817-1.269-3.236-1.9-4.247c-.807-1.306-1.476-1.951-1.476-1.951a19.4 19.4 0 0 0 .62-3.045c.486-4.14-.622-7.363-1.51-9.181a15 15 0 0 0-.397-.76q-.961.684-1.933 1.34c-12.275 8.312-26.091 13.645-41.05 15.937c-10.31 1.58-21.155 1.728-32.432.355l.197.057s-6.797.93-8.64 7.45l.115.067l-.562 4.373c.199 5.921 2.906 9.627 5.987 11.577c3.203 1.222 7.07 2.153 11.364 2.687c7.474.929 16.052.683 24.809-.707l.044-.007l.045-.006c11.646-1.561 28.085-7.78 39.836-15.807c2.677-1.83 5.112-3.748 7.191-5.732l.078-.076l.141-.137a43 43 0 0 0-.329-1.426"/><path fill="#EFCFA5" d="M219.813 150.548c-6.305-3.84-7.23-5.115-6.64-15.545c.21-3.756.617-8.693 1.036-15.385a54 54 0 0 0 .097-2.51q.007-.29.008-.575a46 46 0 0 0-.032-2.239l-.007-.207l-.017-.221a54 54 0 0 0-.187-2.355a31 31 0 0 0-.224-1.665c-.044-.274-.098-.538-.148-.805a29 29 0 0 0-.18-.881a25 25 0 0 0-.193-.841l-.003-.002l.003-.003a16.1 16.1 0 0 0-3.218-3.545l-.245-.183l-.05-.037l-.184-.138l-.063-.047c-.18-.14-.37-.275-.557-.4a17 17 0 0 0-.609-.388c-1.864-1.134-3.942-1.846-6.166-2.176a20.7 20.7 0 0 0-3.806-.194c-.606.022-1.22.075-1.837.148a28 28 0 0 0-4.924 1.04c-.562.386-1.122.781-1.69 1.175c-.474.331-.959.662-1.445.991l-.234.161q-.736.492-1.482.97l-.25.156c-.5.31-1.001.613-1.507.9l-.266.148a30 30 0 0 1-1.547.81l-.26.122c-.528.25-1.066.485-1.611.69l-.225.086a19 19 0 0 1-1.712.547l-.152.035c-.613.158-1.226.284-1.857.37a24.5 24.5 0 0 1-3.178.194a34.4 34.4 0 0 1-5.212-.392a57 57 0 0 1-1.752-.297c-.208-.04-.415-.071-.62-.111c-1.52-.296-3.05-.649-4.59-1.02q-.97-.231-1.944-.468c-1.043-.254-2.097-.5-3.152-.74c-.209-.049-.41-.101-.622-.147c-.885.048-1.773.135-2.665.247l-.194.024a39.4 39.4 0 0 0-7.76 1.845c-.142.049-.285.09-.426.142c-.401.143-.8.3-1.2.457q-.804.317-1.6.668c-3.724 1.644-7.34 3.88-10.703 6.723a47 47 0 0 0-3.83 3.639a45.6 45.6 0 0 0-4.866 6.175q-.119.18-.232.362a43 43 0 0 0-2.077 3.583c-.226.434-.454.87-.662 1.308l-.042.085a43 43 0 0 0-1.766 4.355q-.043.131-.079.262c-.072.214-.127.428-.194.64a41 41 0 0 0-1.094 4.191c-.028.154-.063.308-.089.462q-.124.654-.23 1.308a37 37 0 0 0-.41 4.795c-.012.4-.027.803-.022 1.199a30.3 30.3 0 0 0 3.007 7.127c4.721 8.156 12.483 13.034 18.107 15.651a69 69 0 0 0 6.843 2.584l.06.103h.003l.01-.004l.153-.117c.303-.23.605-.462.918-.69q.166-.125.335-.248a52 52 0 0 1 1.322-.938c.335-.234.68-.472 1.032-.703c.116-.08.234-.154.352-.232q.532-.353 1.086-.702l.365-.229l1.134-.692q.198-.117.396-.237q.575-.335 1.17-.676q.216-.116.43-.24q.586-.33 1.197-.655l.486-.257q.6-.318 1.215-.63l.53-.266q.614-.306 1.239-.607l.597-.282q.613-.29 1.244-.576c.218-.101.447-.198.672-.299a68 68 0 0 1 1.244-.54c.247-.11.501-.214.751-.318q.612-.255 1.24-.51q.42-.164.845-.333q.606-.237 1.226-.472c.31-.12.627-.237.939-.35c.401-.147.799-.294 1.209-.44l1.048-.362c.392-.136.786-.274 1.186-.403q.576-.193 1.16-.377c.383-.125.765-.248 1.154-.369q.64-.198 1.296-.394c.364-.106.73-.219 1.101-.325c.47-.138.953-.27 1.43-.404c.24-.065.472-.138.713-.2c1.867-4.7 7.407-16.352 16.898-17.627a21 21 0 0 1 2.814-.21c.218-.003.452-.019.66-.014c-.11-.676-.196-1.38-.24-2.112c-.298-5.021 1.246-9.195 3.446-9.328c1.704-.138 3.06 2.351 3.291 3.222c.648 1.527 1.102 3.477 1.233 5.64c.117 1.976-.066 3.8-.443 5.321c.192.198.35.417.522.627c2.174 2.698 2.542 6.44 2.452 9.091c.845-.085 1.713-.16 2.58-.234l.663-.062l.137-.012c.125-.013.25-.02.375-.03q1.61-.133 3.261-.25l.05-.003c2.494-.174 5.055-.321 7.698-.434c-1.373-1.01-2.247-1.47-2.247-1.47m23.881 70.292a70.4 70.4 0 0 1-12.813 9.048a76 76 0 0 1-6.4 3.132a81 81 0 0 1-13.133 4.423c-8.735 2.128-14.895 2.132-14.895 2.132c4.777 2.642 10.823 2.667 14.97 2.248c2.855-.284 4.817-.775 4.817-.775a32 32 0 0 1-.62 4.873a26 26 0 0 1-1.391 4.565l-.045.12l-.004.007a22.5 22.5 0 0 1-2.522 4.54c-.104.142-.205.295-.31.433l.314-.175a86 86 0 0 0 4.505-2.653l.033-.02a83 83 0 0 0 8.754-6.347l.005-.002l.007-.006q.153-.134.314-.268a74 74 0 0 0 4.93-4.722a74 74 0 0 0 5.472-6.469l.12-.156q.603-.805 1.175-1.6l.108-.155c.124-.181.234-.354.357-.533a86 86 0 0 0 1.545-2.284l.356-.55c.255-.401.5-.803.745-1.2c.185-.311.375-.622.554-.93q.301-.505.595-1.006a94 94 0 0 0 1.001-1.806c.127-.237.247-.468.37-.702q.37-.699.714-1.381l.316-.636l.093-.2q.428-.863.821-1.706c-.287.262-.573.51-.858.76m-104.079-45.982a61 61 0 0 0-3.844 1.44c-3.65 1.512-7.794 3.663-11.465 6.634q-.69.555-1.354 1.15a31 31 0 0 0-2.163 2.158c-.079.086-.163.168-.238.255q-.157.176-.31.355q-.393.457-.77.934l-.3.382c-.33.436-.653.878-.957 1.337c-.3.45-.587.915-.859 1.386c-2.176 3.798-3.41 8.346-3.031 13.769l.011-.056l.007-.04l.04-.202l.012-.045q.026-.125.065-.286l.015-.068q.045-.186.105-.419l.027-.1l.148-.536h.003c.053-.19.12-.395.187-.606l.043-.129q.106-.324.234-.671l.045-.111q.119-.329.262-.676l.045-.107q.156-.376.335-.77l.076-.164c.127-.268.256-.54.4-.815v-.001l.019-.032c.215-.411.457-.83.715-1.252c.097-.16.19-.318.298-.478l.082-.134l.002-.003a19 19 0 0 1 1.344-1.782q.106-.123.22-.247q.266-.301.554-.596c.079-.078.156-.16.235-.237c.263-.257.532-.508.818-.751l.024-.023v.001v-.001s-4.94 11.174-2.792 20.035l-.002-.074v-.055c-.002-.05-.002-.106-.002-.182l-.002-.048q.001-.134.006-.322l.002-.049c0-.13.01-.277.016-.44l.003-.047a25 25 0 0 1 .096-1.229l.006-.054c.022-.223.054-.454.087-.697l.01-.065q.055-.386.13-.799l.012-.065l.026-.138v-.006q.091-.466.215-.946l.015-.064q.125-.47.275-.948l.094-.292l.068-.203v-.004q.14-.392.307-.783l.017-.042l.001-.002a12 12 0 0 1 .684-1.343c.205-.346.42-.685.664-1.006l.01-.016v.002v-.002h.001s-.283 2.752-.21 6.026c.014.515.038 1.044.07 1.578q.03.533.077 1.068a43.2 43.2 0 0 1 1.797-9.906c.262-.85.547-1.677.85-2.493q.062-.177.127-.353a49 49 0 0 1 2.139-4.825q.086-.161.169-.322a52 52 0 0 1 2.417-4.163l.185-.29c.322-.491.651-.965.981-1.435c.086-.125.17-.257.256-.38q.12-.165.236-.33q.63-.871 1.268-1.691l.203-.257c.443-.562.885-1.11 1.329-1.633l.024-.028a62 62 0 0 1 1.67-1.894q.609-.661 1.207-1.273q.226-.228.459-.46a62 62 0 0 1 2.727-2.59c2.569-2.299 4.57-3.72 5.267-4.19a59 59 0 0 0-4.274 1.263"/><path fill="#EFCFA5" d="M205.308 150.112s-.028-.286-.13-.716c-.401-1.634-2.016-5.488-8.373-4.877c-6.647.64-8.88 6.004-9.452 7.831c-.118.38-.17.618-.17.618l.181.154c.843-.716 2.451-.631 3.91.295a5.1 5.1 0 0 1 1.56 1.52v.003c.562.865.718 1.798.32 2.49c-.084.15-.19.275-.312.385c0 0 .256.099.687.224c1.847.545 6.969 1.62 9.74-1.96c.134-.172.27-.332.392-.524c-.545-.279-.85-1.079-.851-2.028a4.8 4.8 0 0 1 .205-1.432c.455-1.504 1.483-2.392 2.293-1.983m-32.952 48.825a258 258 0 0 1-10.982 2.018l.488.062c4.88.606 12.65 1.34 22.046.766c17.096-1.041 39.597-6.42 60.029-24.845l.056-.072v-.032c.068-1.543-.138-4.33-2.088-6.498a7.8 7.8 0 0 0-1.19-1.07c-.076-.044-.147-.094-.226-.139c-.536-.3-1.005-.604-1.44-.904a16 16 0 0 1-1.005-.678l-.045-.065a38.4 38.4 0 0 1-4.342 5.16a48 48 0 0 1-1.808 1.692c-5.637 5.078-12.921 9.307-20.784 12.79c-13.066 5.787-27.67 9.542-38.71 11.815m-108.21-29.776c-.185.165-.375.326-.548.508l-.191.21a9 9 0 0 0-.588.723l-.098.123c-.23.32-.443.656-.646.997v.001l-.027.045v.002l-.083.152q-.07.126-.136.253c-.117.214-.239.422-.344.637l-.005.008l-.004.007l-.005.018l-.041.081l-.038.082a22 22 0 0 0-.455 1.014a27 27 0 0 0-1.15 3.327c-.134.483-.228.861-.27 1.046l-.002.016l-.03.124v-.002v.002l.012-.145c.016-.287.049-.573.072-.858c.044-.6.082-1.203.148-1.8c.053-.502.13-.993.201-1.491l.07-.466q.044-.346.1-.688c.033-.213.08-.423.12-.632l.002-.016v-.001l.045-.234l.013-.064a92 92 0 0 1 .201-1.07l.036-.177l.007-.033l.053-.251c.02-.105.05-.207.071-.306c.085-.376.176-.744.264-1.115l.015-.062c.065-.276.125-.554.196-.826l.002-.012l.007-.018l.022-.08c.145-.56.306-1.107.467-1.658l.084-.304c.031-.101.057-.209.09-.311c.265-.894.55-1.777.852-2.64l.039-.108c.26-.733.522-1.455.797-2.166l.03-.081c.125-.313.253-.613.375-.923l.02-.045c.188-.461.373-.925.565-1.371v-.007l.004-.006l.022-.056c.051-.112.17-.383.355-.783l.003-.007l.025-.054c.072-.158.14-.311.21-.471l.34-.756l.101-.219c-.16-.087-.327-.164-.492-.247l-.093-.046l-.175-.088a18.5 18.5 0 0 0-3.355-1.223l-.185-.046a18.5 18.5 0 0 0-3.65-.53a18 18 0 0 0-1.149-.013c-.58.012-1.15.061-1.712.123c-.18.022-.353.054-.527.077c-.278.042-.553.096-.83.146c-.107.023-.22.036-.327.06a18 18 0 0 0-1.687.443c-.17.054-.34.097-.505.155q-.742.26-1.456.575c-.19.084-.365.181-.55.27c-.217.105-.432.22-.645.33l-.22.112a20 20 0 0 0-1.321.814q-.378.248-.736.51c-.147.112-.287.228-.435.342a19 19 0 0 0-1.666 1.507a18 18 0 0 0-.918.973l-.148.168c-.153.183-.295.376-.438.567l-.023.027l-.018.025c-.097.128-.202.251-.297.383l-.038.05l-.037.051l-.003.005l-.002.003c-.586.823-1.1 1.695-1.545 2.604c-.065.13-.123.26-.182.392q-.31.667-.569 1.362c-.067.184-.142.362-.205.548l-.003.002v.001c.036.12.076.233.112.351q.19.618.392 1.2l.047.133l.051.135a32 32 0 0 0 1.871 4.223c.073.133.145.272.216.399l.051.094l.068.113a28 28 0 0 0 1.048 1.714a24 24 0 0 0 1.313 1.802l.19.23q.072.087.135.157c.125.143.202.226.202.227c-.048-.203-.072-.403-.114-.609a25 25 0 0 1-.489-4.307v-.084l-.004-.163a27 27 0 0 1 .07-2.668a37 37 0 0 0 .763 2.38l.056.161l.023.059a31 31 0 0 0 2.279 4.843c.906 1.56 1.736 2.665 2.232 3.273q.15.184.257.306c.14.163.218.246.218.246a24.3 24.3 0 0 1-.597-4.58a26 26 0 0 1-.03-1.506q.015-.95.094-1.873v.002v-.002c.276 1.052.593 2.026.932 2.944l.024.07c1.218 3.301 2.722 5.729 3.76 7.167l.118.159c.183.244.34.45.483.634c.099.124.192.244.27.333a10 10 0 0 0 .362.421l-.043-.216a36 36 0 0 1-.133-.646a24 24 0 0 1-.32-2.304a26 26 0 0 1-.115-1.516a27 27 0 0 1-.01-1.417l.008-.253c.008-.243.013-.487.026-.727l.009-.149l.01-.107q.053-.929.167-1.83v.003v-.002q.178.598.37 1.16c.096.285.196.556.297.829l.021.056l.034.094l.06.167a31 31 0 0 0 1.122 2.588c.305.631.616 1.214.916 1.747c.175.3.341.583.507.854a27 27 0 0 0 1.107 1.662l.119.162a22 22 0 0 0 .671.869c.205.249.35.412.415.483l.037.04l.13.089q.02-.163.043-.328c.115-.96.249-1.928.391-2.89q.025-.175.052-.346c.166-1.085.342-2.163.525-3.203l.07-.4l.014-.069l.064-.362q.047-.27.096-.535c.15-.825.304-1.621.453-2.377q.205-1.025.394-1.938l.04-.196c.019-.096.04-.183.058-.274q.03-.134.056-.274l.007-.032c.033-.152.068-.308.098-.452l.01-.04c.028-.143.056-.264.084-.397c.047-.21.091-.424.135-.62l.012-.054c.036-.159.069-.32.102-.465q.073-.31.13-.582l.002-.005l.003-.005c.022-.104.044-.194.066-.29l.004-.017c.021-.087.04-.178.059-.255l.116-.499l.029-.118l.011-.044l.033-.14l.023-.097l.005-.014l-.016.013zm138.358 47.761c1.612-.558 3.016-1.008 4.105-1.483c2.183-.93 3.355-1.557 3.282-1.788c-.074-.237-1.391-.058-3.71.466c-1.161.271-2.568.508-4.185.87c-.804.194-1.692.304-2.613.482c-.927.161-1.902.365-2.931.475c-2.031.288-4.355.55-6.822.837l-3.76.307q-1.954.098-4.014.199c-5.488.16-11.546-.088-17.71-1.222c-3.25-.572-7.594-2.048-10.719-3.822l-.115-.066c1.843-6.52 8.64-7.45 8.64-7.45l-.197-.058l-.342-.039c-.989-.122-1.858-.24-2.603-.34q-.8-.11-1.393-.185q-.57-.07-.807-.085c-4.094-.281-6.337 3.186-7.113 4.688c-.11.217-.212.44-.315.667a13.5 13.5 0 0 0-1.089 4.543c-.202 3.064.587 6.429 2.935 9.293c1.566 1.932 4.29 3.635 7.824 4.982c-3.081-1.95-5.788-5.656-5.987-11.577c3.49 1.5 7.557 2.418 10.612 2.961c6.543 1.206 12.857 1.35 18.533 1.001c1.418-.118 2.798-.222 4.138-.357l3.907-.506c2.456-.414 4.722-.815 6.85-1.284c1.06-.199 2.045-.49 2.976-.743c.932-.27 1.815-.474 2.623-.766"/><path fill="#59473D" d="M197.075 140.61c3.418.08 5.74 1.165 7.287 2.744c.377-1.522.562-3.346.441-5.322c-.131-2.163-.583-4.113-1.23-5.641c-.23-.87-1.588-3.36-3.293-3.222c-2.201.133-3.74 4.308-3.443 9.328c.042.733.126 1.437.238 2.114m5.774 12.945c.003.95.307 1.749.851 2.027c.818.41 1.837-.484 2.29-1.988c.043-.132.067-.263.097-.392v-.003c.29-1.367-.005-2.689-.742-3.059c-.81-.41-1.837.48-2.29 1.981c-.147.49-.209.977-.206 1.434m-15.521 2.423c.362.59.908 1.16 1.606 1.605c1.476.936 3.116 1.015 3.947.261c.123-.11.23-.238.313-.386c.398-.693.242-1.625-.318-2.492l-.002-.002a5.15 5.15 0 0 0-1.56-1.52c-1.459-.926-3.067-1.011-3.91-.293a1.6 1.6 0 0 0-.354.412c-.381.671-.24 1.567.278 2.413zm56.665 20.893v-.03l-.096.139l.042-.036z"/><path fill="#59473D" d="m242.22 208.552l-.078.074c-2.079 1.984-4.516 3.905-7.191 5.734c-11.751 8.027-28.19 14.245-39.838 15.806l-.045.007l-.044.007c-8.757 1.391-17.335 1.636-24.809.706c-4.295-.534-8.16-1.464-11.364-2.687c-3.531-1.347-6.256-3.05-7.824-4.981c-2.348-2.865-3.137-6.229-2.934-9.293a13.5 13.5 0 0 1 1.09-4.543q.15-.341.315-.667c.776-1.502 3.017-4.97 7.113-4.69c.155.013.428.04.805.087c.394.048.862.112 1.395.184c.743.1 1.615.218 2.603.34q.172.021.34.039c11.277 1.372 22.122 1.226 32.432-.354c14.959-2.292 28.777-7.626 41.05-15.936a96 96 0 0 0 1.933-1.342l6.728-10.062c-20.419 18.394-42.901 23.767-59.989 24.808c-9.397.574-17.167-.159-22.044-.765l-.49-.063c-1.463-.186-2.656-.355-3.508-.462q-.64-.081-1.028-.108a9.9 9.9 0 0 0-3.635.429c-2.325.727-4.312 2.297-5.804 4.378c-1.844 2.565-2.93 5.901-2.98 9.39c-.036 2.871.632 5.839 2.173 8.56q.088.164.184.331q.269.447.57.88c.27.396.554.786.867 1.166c3.58 4.413 11.279 7.696 21.551 8.974c6.95.864 15.085.794 23.908-.45c26-4.7 38.36-13.1 44.068-19.002c.417-.43.8-.85 1.15-1.251c2.046-2.36 2.967-4.175 3.303-4.96l.046-.107c.086-.203.12-.31.121-.315z"/><path fill="#E1B27E" d="M159.478 118.386c-.82-.447-1.715-.765-2.618-.989a15.6 15.6 0 0 0-2.457-.393c-3.043-.266-5.675.25-5.675.25q-.845.193-1.628.434c-4.134 1.254-7.012 3.407-9.024 5.891c-1.628 2.01-2.686 4.237-3.362 6.386q-.089.284-.168.565a27 27 0 0 0-.412 1.643a27.7 27.7 0 0 0-.57 4.792c-.052 1.804.088 2.966.088 2.966a53 53 0 0 1 2.248-4.373c1.926-3.355 4.014-6.057 6.124-8.228c4.111-4.23 8.299-6.461 11.545-7.634c3.506-1.267 5.909-1.31 5.909-1.31m49.384-5.888l-.138-.182a7.7 7.7 0 0 0-1.687-1.585c-1.57-1.08-3.736-1.643-6.74-1.027c0 0-3.565.842-5.65 3.174c0 0 6.214-2.654 12.792 2.022q.9.64 1.802 1.475a22 22 0 0 1 1.833 1.914s-.261-2.866-1.894-5.335a7 7 0 0 0-.318-.456"/><path fill="#59473D" d="M160.23 158a104 104 0 0 1 7.724-2.042c.48-2.15.599-4.814.259-7.658c-.787-6.67-3.796-11.779-6.717-11.418c-2.923.36-4.648 6.06-3.86 12.726c.398 3.358 1.36 6.324 2.593 8.391"/><path fill="#FACE56" d="m146.674 8.75l-6.127 1.385l1.285 11.238L125.5 13.06l-6.724 2.005l.105.119l19.841 22.614l.19-.12l.256-.16q.925-.592 1.86-1.173c.217-.136.434-.277.652-.411q1.349-.826 2.705-1.633l-8.428-9.654l13.637 6.668l.052-.029q.614-.339 1.228-.674l-1.257-9.737l6.188 7.157l.075-.036c.524-.264 1.037-.514 1.552-.769l.16-.077l.25-.126q.135-.064.266-.131c.219-.106.444-.22.66-.326l.131-.062a217 217 0 0 1 2.175-1.03z"/><path fill="#4D94C3" d="m140.587 10.49l-.04-.355l.04.357z"/><path fill="#4D94C3" d="m140.547 10.135l.905-.204c-1.5-.696-3.282-1.193-5.345-1.45c-4.132-.52-9.378-.042-15.354 1.503c-5.977 1.534-12.678 4.114-19.785 7.654C86.753 24.71 70.928 35.613 55.7 49.505a235 235 0 0 0-14.824 14.76L59.374 86.92A243 243 0 0 1 75.69 70.57c7.853-7.159 15.859-13.546 23.775-19.097c7.671-5.374 15.247-9.936 22.541-13.627l-3.212-14.466l.086-8.197l-.105-.119l6.724-2.005l13.131 6.72l-.373-4.575z"/><path fill="#141C26" d="m140.547 10.135l-2.29 5.069l.373 4.574l3.202 1.595zm-4.591 14.511l13.637 6.668l-5.209 2.986zm13.66-3.772l1.257 9.737l4.931-2.58z"/><path fill="#FFF" d="M201.211 17.274q1.26-.05 2.473-.025c2.295.047 4.45.318 6.493.828c.11.029.224.045.332.074l.025.007l.08.017l.201.058l.185.056q-.36-.238-.735-.457c-2.293-.878-4.719-1.451-7.214-1.772c-12.378-1.593-26.47 2.913-34.529 6.113l-1.338.56a189 189 0 0 0-5.59 2.495q-.261.122-.521.246c-.72.338-1.441.676-2.175 1.03q-.066.03-.131.062c-.216.106-.441.22-.66.326l-.265.131l-.25.126l-.161.077c-.515.255-1.028.505-1.552.769l-.075.036q-.024.014-.047.025c-.13.062-.252.123-.38.186l-.066.032l-.283.149a214 214 0 0 0-4.065 2.14l-.09.048l-1.228.674l-.052.029q-1.998 1.105-3.98 2.262q-.207.118-.415.239l-.352.207q-.165.096-.323.195l-.139.083q-1.356.807-2.705 1.633c-.218.134-.435.275-.653.41q-.934.582-1.86 1.174l-.255.16l-.19.12a239 239 0 0 0-13.424 9.295q-.53.397-1.061.8c-7.16 5.39-14.074 11.173-20.7 17.18c-6.995 6.344-13.66 12.937-19.956 19.56a352 352 0 0 0-8.73 9.054c-4.796 5.165-7.412 8.358-7.304 8.43c.043.047.465-.345 1.214-1.094c-.62.72-1.24 1.438-1.848 2.153c10.455-11.147 22.051-22.562 34.502-33.317c7.564-6.527 15.434-12.81 23.565-18.64v.002a266 266 0 0 1 14.355-9.622c.588-.366 1.182-.72 1.772-1.082q.499-.307 1.004-.613q.948-.569 1.897-1.131q.93-.548 1.862-1.091l.978-.561a186 186 0 0 1 2.379-1.335c.472-.262.95-.527 1.425-.785l.004-.002a199 199 0 0 1 4.52-2.382q.186-.097.379-.192l.709-.36c.314-.16.624-.322.94-.479c.12-.058.235-.12.354-.18l.05-.023l.636-.31l.133-.063l.074-.04l1.969-.954c.118-.054.238-.117.36-.173c.21-.103.418-.196.63-.297a314 314 0 0 1 2.259-1.057c.205-.093.414-.195.617-.287l.32-.143l.636-.286c.876-.396 1.747-.787 2.6-1.158c.782-.34 1.54-.651 2.302-.972c4.307-1.81 8.355-3.333 12.117-4.543c7.231-2.319 13.474-3.59 18.951-3.825"/></svg>