<svg xmlns="http://www.w3.org/2000/svg" xmlns:xlink="http://www.w3.org/1999/xlink" width="256" height="251" viewBox="0 0 256 251"><path fill="#231F20" d="M76.02 64.287a82.315 82.315 0 0 0 37.215 17.077V8.556L128.064 0l14.816 8.556v72.808a82.42 82.42 0 0 0 37.228-17.077l26.92 15.57c-43.782 43.316-114.274 43.316-158.056 0l27.048-15.57Zm32.717 185.928C124.35 190.623 89.072 129.57 29.645 113.34v31.152a82.385 82.385 0 0 1 33.413 23.686L0 204.582v17.124l14.828 8.51l63.047-36.404a82.315 82.315 0 0 1 3.814 40.774l27.048 15.629ZM226.413 113.34c-59.395 16.266-94.634 77.305-79.023 136.875l26.979-15.582a82.431 82.431 0 0 1 3.814-40.775l63 36.358L256 221.66v-17.078l-63.058-36.404a82.466 82.466 0 0 1 33.413-23.686l.058-31.152Z"/></svg>