<svg xmlns="http://www.w3.org/2000/svg" xmlns:xlink="http://www.w3.org/1999/xlink" width="256" height="256" viewBox="0 0 256 256"><path fill="#4E5E9E" d="M128.135 256C57.58 256 0 198.42 0 127.863C0 57.31 57.58 0 128.135 0c17.03 0 33.52 3.244 49.2 9.732c4.324 1.892 6.487 7.028 4.595 11.353c-1.893 4.326-7.029 6.488-11.354 4.596c-13.516-5.677-27.844-8.38-42.712-8.38c-61.093 0-110.833 49.74-110.833 110.834c0 61.093 49.74 110.833 110.833 110.833c61.094 0 110.834-49.74 110.834-110.833c0-12.976-2.162-25.952-6.758-38.116c-1.622-4.596.54-9.462 5.136-11.084c4.596-1.622 9.462.54 11.084 5.136c5.136 14.057 7.84 28.925 7.84 44.064c.27 70.555-57.31 127.864-127.865 127.864Z"/><path fill="#FDB933" d="m184.092 114.889l16.22 67.04h-24.87l-11.084-46.225l19.734-20.815Zm30.277-68.934l-7.029 38.927l-6.758-6.758l-72.447 78.936l-33.791-37.035l-14.868 61.905h-25.14L81.368 70.285l46.767 48.388l54.876-58.12l-7.029-6.758l38.387-7.84Z"/></svg>