<svg xmlns="http://www.w3.org/2000/svg" xmlns:xlink="http://www.w3.org/1999/xlink" width="512" height="177" viewBox="0 0 512 177"><path d="M219.892 69.655v-4.097a26.786 26.786 0 0 0 7-1.366c2.048-.683 4.268-1.707 6.829-3.073h3.926v8.878l1.199-.938c.39-.3.769-.59 1.138-.868l1.079-.8l.517-.376l.992-.703l.474-.327l.907-.61l.433-.283l.824-.521l.77-.465l.718-.411l.339-.186c3.414-1.707 6.829-2.56 9.902-2.56c2.22 0 4.268.34 6.317 1.194c2.048.854 3.756 1.708 4.95 2.903c1.196 1.195 2.39 2.731 3.244 4.78c3.535-3.053 6.768-5.35 9.698-6.606l.546-.223c3.244-1.366 6.317-2.049 9.56-2.049c3.073 0 5.805.683 8.195 1.878c2.39 1.366 4.098 2.903 5.122 4.78c1.024 1.878 1.536 4.78 1.536 8.537l.005 26.573l.007.641l.014.55l.02.458l.03.363c.024.21.055.357.095.438c.17.683.512 1.366 1.195 1.878c.448.597 1.027.933 1.737 1.122l.482.112l.412.077l.242.036l.558.067l.654.056l.752.041c.267.01.55.018.849.022l2.167.003v4.439h-26.462v-4.439l1.036-.007c.329-.005.642-.013.94-.023l.846-.041c1.337-.084 2.302-.247 2.964-.525l.19-.087c.853-.341 1.536-1.024 2.048-2.048c.384-.769.576-1.921.649-3.602l.026-.885l.008-.977V76.996c0-2.902-.341-4.95-.853-6.146c-.513-1.195-1.537-2.048-2.903-2.902a11.337 11.337 0 0 0-5.121-1.195c-2.561 0-5.122.683-7.854 2.049c-3.756 1.878-6.658 3.926-8.707 6.146v25.267l.01.919l.024.84l.037.76l.05.67l.056.58l.064.481l.067.38c.011.054.022.104.034.15c.17.683.683 1.366 1.195 1.878c.512.512 1.195.854 1.878 1.024c.08.02.177.04.29.06l.386.059l.479.055l.567.05l.654.043l.736.035l.816.025l.436.008l.928.007v4.439h-26.12v-4.44h1.536c2.049 0 3.585-.17 4.439-.682a5.189 5.189 0 0 0 2.049-2.22c.25-.626.409-1.71.475-3.187l.028-.844c.003-.147.005-.297.006-.45l.003-23.005c0-.72-.017-1.4-.049-2.03l-.059-.91c-.127-1.6-.361-2.817-.662-3.535l-.084-.183c-.512-1.195-1.536-2.22-2.902-2.903c-1.366-.853-3.073-1.195-5.122-1.195c-2.22 0-4.61.513-7 1.708c-3.414 1.707-6.658 3.756-9.56 6.487v27.145c0 1.707.17 2.732.683 3.585a7.278 7.278 0 0 0 2.049 1.878c1.024.512 2.219.683 3.926.683h1.878v4.439h-26.633v-4.439h1.366c.319 0 .625-.003.919-.009l.841-.027l.759-.046c.954-.073 1.675-.194 2.111-.364l.15-.066c1.087-.466 1.75-1.213 2.246-2.243l.144-.318c.141-.281.224-.707.272-1.301l.034-.552l.02-.637l.011-.727l.005-1.734v-30.9h-8.707Zm101.751 0v-4.268c2.66-.313 5.034-.77 6.858-1.37l.483-.166c1.366-.456 2.808-1.063 4.376-1.77l1.612-.74l.841-.393h3.927v42.51c0 1.383.138 2.351.54 3.153l.143.262c.341.683 1.024 1.366 1.707 1.536c.525.263 1.556.425 2.858.485l.812.025c.14.002.283.003.427.003h2.561v4.438h-27.145v-4.438h2.22l.91-.01c1.877-.042 3.13-.23 3.87-.673c.853-.342 1.366-1.025 1.707-1.878c.14-.352.252-.848.335-1.513l.064-.611c.01-.11.018-.222.026-.338l.043-.742l.028-.833l.015-.927l.001-.5V69.656h-9.219Zm13.487-32.608c1.708 0 3.073.512 4.268 1.707c1.196 1.195 1.878 2.561 1.878 4.268c0 1.708-.682 3.073-1.878 4.268c-1.195 1.195-2.731 1.878-4.268 1.878c-1.707 0-3.073-.683-4.268-1.878c-1.195-1.195-1.878-2.731-1.878-4.268c0-1.707.683-3.073 1.878-4.268c1.025-1.024 2.561-1.707 4.268-1.707Zm66.241 61.631l3.415 2.732c-6.659 8.877-14.683 13.316-23.902 13.316c-7.17 0-13.316-2.56-18.267-7.682c-4.951-5.122-7.512-11.61-7.512-19.292c0-5.122 1.195-9.731 3.415-13.829c2.219-4.097 5.463-7.17 9.56-9.56c4.097-2.22 8.878-3.415 14.17-3.415c6.146 0 11.097 1.537 15.194 4.44c4.098 2.901 6.147 5.974 6.147 9.047c0 1.708-.513 2.903-1.366 3.756c-.854.854-2.049 1.366-3.244 1.366c-.683 0-1.195-.17-1.878-.512c-.683-.341-1.195-.854-1.878-1.536c-.131-.132-.288-.364-.47-.688l-.23-.431l-.255-.516l-.427-.922l-.154-.346l-.975-1.934l-.327-.627l-.296-.543l-.267-.46a6.708 6.708 0 0 0-.355-.533a11.563 11.563 0 0 0-4.097-3.415c-1.537-.853-3.415-1.195-5.293-1.195c-3.073 0-5.804.854-8.365 2.561c-2.56 1.707-4.61 4.098-6.146 7.341c-1.537 3.244-2.22 7.17-2.22 11.61c0 7 1.878 12.462 5.634 16.56c3.244 3.585 7 5.292 11.439 5.292c2.048 0 4.097-.341 6.146-1.024a22.08 22.08 0 0 0 5.975-3.073a17.17 17.17 0 0 0 1.572-1.208l.61-.535c.106-.095.214-.193.323-.294l.679-.64l.725-.713l.773-.788l.821-.864l.872-.944l.454-.502Zm9.56-29.023v-4.268c2.561-.17 4.78-.683 6.83-1.366c2.048-.683 4.268-1.707 6.829-3.243h3.926V70.85a32.18 32.18 0 0 1 8.707-7.34c3.244-1.879 6.317-2.732 8.878-2.732c2.56 0 4.61.682 6.146 1.878c1.536 1.195 2.22 2.731 2.22 4.438c0 1.195-.513 2.39-1.537 3.415c-1.025 1.024-2.22 1.536-3.586 1.536c-.569 0-1.02-.118-1.45-.257l-.257-.084c-.512-.17-1.195-.512-2.048-1.195c-1.878-1.195-3.586-1.878-4.951-1.878c-1.708 0-3.756.683-5.805 2.22c-2.732 1.877-4.78 3.755-6.317 5.633v24.584c0 .44.008.855.022 1.243l.036.74l.049.664l.06.579c.02.178.043.342.067.49l.071.393c.012.058.024.11.037.16c.17.682.683 1.365 1.195 1.877c.512.513 1.195 1.025 1.878 1.195l.245.047l.567.09l.322.042l.72.073c.642.055 1.39.09 2.243.09h1.707v4.439H410.42v-4.44h2.22a37 37 0 0 0 .843-.008l.754-.028c1.302-.066 2.17-.225 2.671-.475a5.145 5.145 0 0 0 1.849-1.851l.2-.369c.444-.74.63-2.12.673-4.143l.01-.978V69.655h-8.707Zm75.29-8.707c5.121 0 9.731 1.025 13.487 3.244c3.756 2.22 6.829 5.292 9.048 9.39c2.22 4.097 3.244 8.877 3.244 14.17c0 5.292-1.195 10.073-3.414 14.17c-2.103 3.882-4.972 6.997-8.607 9.056l-.613.334c-3.926 2.22-8.536 3.244-13.828 3.244c-8.536 0-15.024-2.732-19.292-8.024c-4.268-5.293-6.487-11.61-6.487-18.78c0-5.293 1.195-9.902 3.414-14c2.22-4.097 5.292-7.17 9.39-9.56c3.856-1.928 8.166-3.1 12.788-3.231l.87-.013Zm-.342 5.122c-4.097 0-7.512 1.537-10.243 4.78c-3.585 3.927-5.293 9.732-5.293 17.243c0 7.341 1.537 12.805 4.44 16.56c2.73 3.415 6.487 5.122 11.096 5.122c3.073 0 5.634-.853 8.024-2.39c2.39-1.536 4.268-4.097 5.634-7.682c1.366-3.415 2.22-7.512 2.22-12.293c0-4.61-.854-8.706-2.39-12.292c-1.196-2.902-3.074-5.121-5.464-6.829c-2.071-1.274-4.589-2.103-7.414-2.208l-.61-.011Z"/><path fill="#2E3192" d="M88.093 0C39.437 0 0 39.437 0 88.093c0 48.657 39.437 88.094 88.093 88.094c48.657 0 88.094-39.437 88.094-88.094C176.187 39.437 136.75 0 88.093 0Zm41.828 100.044c-.854 3.414-2.22 6.146-4.098 8.365c-1.707 2.22-3.414 3.586-5.292 4.269a16.624 16.624 0 0 1-5.805 1.024c-2.048 0-3.756-.342-5.121-1.195c-1.366-.683-2.39-1.878-3.244-3.244c-.854-1.366-1.366-3.073-1.707-4.95c-.342-1.879-.513-3.928-.513-6.147c0-.854 0-1.707.171-2.902c.17-1.195.342-2.732.512-2.732h-.341c-2.732 6.83-6.488 11.78-11.268 15.707c-4.78 3.926-10.073 5.804-15.877 5.804c-3.927 0-7.17-1.536-9.39-4.438c-2.39-2.903-3.585-7.342-3.585-13.146c0-.854 0-1.707.17-2.732c.171-.853.171-1.195.342-2.902H63.68c-1.537 3.414-2.902 8.195-3.927 12.463c-1.024 4.268-1.878 8.194-2.39 11.78c-.683 3.585-1.024 6.829-1.366 9.56c-.341 2.732-.512 4.61-.683 5.634c.171.854.342 1.707.513 2.732c.341 1.024.512 2.048.853 2.902c.342.854.512 1.878.683 2.732c.17.853.342 1.536.342 2.048c0 2.39-.513 4.268-1.537 5.463c-1.024 1.195-2.22 1.878-3.414 1.878c-1.537 0-2.903-.512-3.927-1.365c-1.195-1.025-1.707-2.561-1.707-4.61c0-2.902.512-6.658 1.536-11.097c1.025-4.439 2.561-10.073 4.439-16.73c1.024-3.074 1.878-6.147 2.902-9.22c1.025-3.073 1.878-5.975 2.732-8.536c.854-2.561 1.536-4.951 2.22-7c.682-2.049 1.024-3.585 1.194-4.78c.171-.512.342-1.707.513-3.415c.17-1.707.341-3.585.682-5.804c.342-2.22.513-4.61.854-7c.342-2.56.683-4.78.854-6.829c.341-1.536.512-3.244.853-5.121c.342-1.878.854-3.756 1.537-5.293c.683-1.707 1.707-3.073 2.902-4.268c1.195-1.195 2.732-1.707 4.61-1.707c2.048 0 3.414.683 4.097 1.878c.683 1.195 1.024 2.731.854 4.439c-.171 1.707-.342 3.585-.854 5.463c-.512 1.878-1.024 3.585-1.536 4.95c-1.366 4.269-2.732 8.195-4.269 11.44c-1.536 3.243-2.902 6.828-4.097 10.584a18.757 18.757 0 0 0-1.366 7c0 3.756 1.195 6.487 3.415 8.536c2.39 2.049 5.121 2.902 8.365 2.902c2.561 0 5.122-.853 7.512-2.731c2.39-1.878 4.61-4.098 6.658-6.659c2.049-2.56 3.756-5.292 5.122-8.365c1.366-2.902 2.39-5.634 3.073-7.853c.17-.342.341-1.025.512-2.39c.342-1.366.512-2.903.854-4.61c.341-1.707.683-3.415 1.024-5.292c.342-1.878.683-3.415.854-4.61c.341-1.366.512-2.732.853-4.439a22.342 22.342 0 0 1 1.537-4.78c.683-1.537 1.707-2.732 2.731-3.756c1.195-1.024 2.561-1.537 4.44-1.537c2.219 0 3.584.683 4.438 1.878c.683 1.195 1.024 2.732 1.024 4.44c-.17 1.706-.341 3.414-.853 5.121c-.512 1.707-.854 3.073-1.195 4.097a170.58 170.58 0 0 1-4.098 11.439c-1.365 3.414-2.56 6.487-3.756 8.877c-1.024 2.561-1.878 4.44-2.56 5.976c-.683 1.536-1.025 2.56-1.025 3.073c0 4.439 1.025 7.682 2.903 9.56c1.877 1.878 3.926 2.903 6.146 2.903c3.756 0 6.658-1.195 8.877-3.415c2.22-2.39 3.927-6.658 4.951-11.78h1.366c.341 4.951-.17 9.049-1.024 12.463Z"/></svg>