<svg xmlns="http://www.w3.org/2000/svg" xmlns:xlink="http://www.w3.org/1999/xlink" width="512" height="164" viewBox="0 0 512 164"><path d="M216.866 28.297h11.174l4.61 16.671l1.581 6.505h.29l1.562-6.505l4.632-16.671h11.174V75.34h-9.01V60.777l.005-.76c.078-5.566.947-16.24 1.422-21.093h-.217l-3.61 12.627l-3.664 11.332h-5.167l-3.727-11.332l-3.368-12.627h-.25l.115 1.125c.542 5.495 1.312 15.792 1.312 20.728v14.564h-8.864zm44.527 38.116h10.992V37.224h-10.992v-8.928h32.634v8.928H283.04v29.19h10.988v8.927h-32.634zm41.626 3l6.114-7.312c3.558 2.912 7.949 4.91 12.512 4.91c4.52 0 6.608-1.75 6.608-4.05c0-3.387-2.798-4.206-7.251-6.07l-6.132-2.617c-5.215-1.98-9.977-5.978-9.977-12.825c0-7.791 7.022-14.019 17.25-14.019c5.661 0 11.382 2.122 15.631 6.16l-5.366 6.711c-3.316-2.38-6.25-3.675-10.848-3.675c-3.508 0-5.89 1.454-5.89 4.201c0 2.83 3.155 3.867 7.67 5.558l5.758 2.439c6.165 2.31 10.055 6.152 10.055 12.79c0 7.821-6.564 14.592-18.215 14.592c-6.36 0-12.928-2.325-17.919-6.792m56.037-32.189h-14.111v-8.928h38.873v8.928H369.71v38.117h-10.654zm42.681-.478h5.194c5.595 0 8.597 1.562 8.597 6.207c0 4.606-3.002 7.014-8.597 7.014h-5.194zm26.493 38.595l-10.644-18.82c5.025-2.272 8.387-6.655 8.387-13.568c0-11.08-8.042-14.587-17.876-14.656h-17.034V75.34h10.674V58.417h5.592l8.986 16.924zm17.682-19.484l1.114-4.334l3.652-15.172h.289c.808 3.546 1.77 7.37 2.69 10.978l2.174 8.528zm14.89 19.484h11.294l-14.66-47.045h-12.768l-14.66 47.045h10.9l2.873-11.188h14.166zm19.615-47.044h10.632v38.117H512v8.927h-31.583zM229.238 131.327l1.113-4.334l3.652-15.173h.29c.808 3.546 1.77 7.37 2.689 10.979l2.174 8.528zm14.885 19.502h11.299l-14.666-47.064h-12.773l-14.666 47.064h10.904l2.876-11.194h14.17zm17.27-8.946h10.992v-29.19h-10.992v-8.928h32.634v8.928H283.04v29.19h10.988v8.928h-32.634zm42.107 13.61h34.866v8.109H303.5zM122.925 0h30.731v30.731h-30.731z"/><path fill="#F7D046" d="M138.291 0h30.731v30.731h-30.731z"/><path d="M0 0h30.731v30.731H0zm0 30.731h30.731v30.731H0zm0 30.732h30.731v30.731H0zm0 30.731h30.731v30.731H0z"/><path d="M0 122.925h30.731v30.731H0z"/><path fill="#F7D046" d="M15.366 0h30.731v30.731H15.366z"/><path fill="#F2A73B" d="M138.291 30.731h30.731v30.731h-30.731zm-122.925 0h30.731v30.731H15.366z"/><path d="M92.194 30.731h30.731v30.731H92.194z"/><path fill="#F2A73B" d="M107.56 30.731h30.731v30.731H107.56zm-61.463 0h30.731v30.731H46.097z"/><path fill="#EE792F" d="M76.828 61.463h30.731v30.731H76.828zm30.732 0h30.731v30.731H107.56zm-61.463 0h30.731v30.731H46.097z"/><path d="M61.463 92.194h30.731v30.731H61.463z"/><path fill="#EB5829" d="M76.828 92.194h30.731v30.731H76.828z"/><path fill="#EE792F" d="M138.291 61.463h30.731v30.731h-30.731zm-122.925 0h30.731v30.731H15.366z"/><path d="M122.925 92.194h30.731v30.731h-30.731z"/><path fill="#EB5829" d="M138.291 92.194h30.731v30.731h-30.731z"/><path d="M122.925 122.925h30.731v30.731h-30.731z"/><path fill="#EB5829" d="M15.366 92.194h30.731v30.731H15.366z"/><path fill="#EA3326" d="M138.291 122.925h30.731v30.731h-30.731zm-122.925 0h30.731v30.731H15.366z"/></svg>