<svg xmlns="http://www.w3.org/2000/svg" xmlns:xlink="http://www.w3.org/1999/xlink" width="256" height="256" viewBox="0 0 256 256"><path fill="#3DB5E6" d="M251.927 159.692c-13.893 55.817-64.726 95.53-124.596 95.53c-60.141 0-110.537-42.063-123.861-98.11c16.021 0 30.999.072 37.952.072c3.28 0 3.918.057 4.107.044c5.232-.258 11.793-1.985 16.157-12.598l16.632-43.506l36.936 88.93c3.32 7.09 8.864 6.587 12.172 6.587h.311c6.452 0 9.258-2.26 11.711-6.937l41.721-87.913l14.232 39.62l.868 1.919c3.009 6.601 5.174 13.121 12.62 13.973c1.535.176 19.362-.136 43.394-.136c0 0 0 .155-.356 2.525Z"/><path fill="#D8292F" d="M256.003 126.817c0 .664 0 2.335-.013 2.335h-38.386l-22.379-62.514c-1.992-4.65-4.988-11.62-13.717-11.62c-5.34 0-10.166 4.411-12.904 11.69l-40.568 93.97l-39.05-93.4c-3.823-8.295-6.466-12.197-14.111-12.197c-5.191 0-9 1.913-13.148 11.74L38.55 130.08l-38.51-.04a99.31 99.31 0 0 1-.041-2.887C0 56.833 57.01 0 127.33 0c70.321 0 128.673 56.497 128.673 126.817Z"/></svg>