<svg xmlns="http://www.w3.org/2000/svg" xmlns:xlink="http://www.w3.org/1999/xlink" width="256" height="209" viewBox="0 0 256 209"><path fill="#B8C6C9" d="M231.941 142.042c-3.532 0-6.955.772-9.98 2.146c-1.325-.806-1.998-1.588-3.998-2.35V52.714L127.75.214L51.988 44.935c-1.286-.753-2.58-1.539-3.907-2.343c-.109-13.167-10.843-23.847-24.035-23.847C10.785 18.745 0 29.534 0 42.795c0 13.26 10.79 24.049 24.052 24.049c3.532 0 7.03-.772 10.054-2.146c1.253.762 2.86 1.502 3.86 2.224v89.93l90.084 52.143l76.497-44.746c1.124.662 2.23 1.345 3.385 2.046c.11 13.168 10.835 23.847 24.027 23.847c13.261 0 24.041-10.79 24.041-24.05c0-13.26-10.798-24.05-24.059-24.05"/><path fill="#759BC5" d="m127.876 194.069l77.148-45.14v-88.65L127.872 15.36L50.766 60.908v88.543l77.11 44.618m115.057-27.779c0 6.048-4.898 10.95-10.937 10.95c-6.041 0-10.937-4.902-10.937-10.95c0-6.047 4.896-10.95 10.937-10.95c6.04 0 10.937 4.903 10.937 10.95M13.072 42.784c0-6.047 4.896-10.95 10.937-10.95c6.04 0 10.937 4.903 10.937 10.95s-4.897 10.95-10.937 10.95c-6.04 0-10.937-4.903-10.937-10.95"/><path fill="#343532" d="M232.096 172.75a6.572 6.572 0 0 1-6.565-6.566a6.571 6.571 0 0 1 6.565-6.564a6.571 6.571 0 0 1 6.564 6.564a6.572 6.572 0 0 1-6.564 6.565Zm-89.16 7.354c7.145-10.292 15.613-25.042 20.823-42.76c11.066 2.271 21.394 5.951 32.598 11.542l-53.42 31.218ZM89.016 78.04c-1.727 7.203-2.91 14.875-3.178 22.945c-10.058.003-19.858.003-30.867.003V65.571c11.01 5.935 22.598 9.936 34.044 12.47ZM24.033 49.347a6.572 6.572 0 0 1-6.566-6.565a6.572 6.572 0 0 1 6.566-6.564a6.571 6.571 0 0 1 6.564 6.564a6.571 6.571 0 0 1-6.564 6.565Zm87.425-19.163C104.28 40.208 96.065 54.267 90.934 71.32c-10.346-2.25-20.104-5.769-30.61-10.965l51.135-30.17Zm19.385 97.081c.006-2.691.014-5.424.022-8.189c5.673-1.137 10.176-5.512 11.524-11.106c6.932.006 13.555.01 20.052.011c-.264 7.48-1.347 14.677-2.99 21.497c-8.787-1.43-18.115-2.104-28.608-2.213Zm-.012 7c9.867.102 18.592.701 26.78 1.975c-6.926 22.825-19.529 40.672-26.634 49.495a5849.5 5849.5 0 0 1-.146-51.47Zm-39.881 4.054c5.14 17.12 13.366 31.122 20.55 41.066l-52.484-30.332c6.425-3.019 17.44-7.492 31.934-10.734Zm22.536-30.346c1.327 5.503 5.709 9.821 11.253 11.041c-.009 2.791-.017 5.552-.023 8.269a177.221 177.221 0 0 0-29.545 2.97c-1.7-6.985-2.812-14.432-3.061-22.268c6.964-.002 14.016-.006 21.376-.012Zm11.225-26.276c.007 2.763.015 5.518.024 8.27c-5.53 1.217-9.903 5.519-11.24 11.003c-7.36.006-14.41.01-21.374.013a108.877 108.877 0 0 1 2.998-21.758c9.085 1.583 18.711 2.337 29.592 2.472Zm-.069-53.737c.01 15.356.02 31.085.052 46.735c-10.243-.126-19.26-.795-27.733-2.215c7.121-23.304 20.274-40.677 27.678-49.144l.003 4.624Zm38.968 43.15c-5.194-17.348-13.513-31.767-20.568-41.88l53.776 31.27c-6.64 3.016-18.107 7.486-33.207 10.61Zm-32.84-43.154l-.004-4.699c7.015 8.575 19.693 26.218 26.717 49.006a174.046 174.046 0 0 1-26.662 2.427a30724.11 30724.11 0 0 1-.052-46.734Zm-2.833 84.41c-4.343 0-7.877-3.533-7.877-7.877c0-4.343 3.534-7.877 7.877-7.877c4.344 0 7.878 3.534 7.878 7.877c0 4.344-3.534 7.878-7.878 7.878Zm-3.083 73.846c-7.312-8.343-20.582-25.763-27.801-49.143a168.663 168.663 0 0 1 27.651-2.783a5831.12 5831.12 0 0 0 .15 51.926Zm17.524-85.245c-1.361-5.574-5.856-9.932-11.517-11.065l-.023-8.21a182.843 182.843 0 0 0 28.53-2.603c1.694 6.926 2.811 14.254 3.075 21.89c-6.5-.002-13.13-.006-20.065-.012Zm57.711-.01c-10.008.014-21.207.022-31.838.022c-.257-8.066-1.556-15.777-3.291-23.043c16.321-3.385 29.125-8.292 35.13-11.488v34.51ZM54.971 107.99c11.01 0 20.852 0 30.905-.003c.244 8.297 1.332 16.153 3.083 23.505c-15.62 3.495-26.982 8.378-33.988 11.59V107.99Zm110.246 22.616c1.678-7.151 2.616-14.721 2.872-22.624c10.629 0 21.993-.008 32.001-.023v35.327c-11.009-6.128-22.947-10.183-34.873-12.68Zm66.879 20.261c-4.114 0-8.043 1.639-10.797 4.287c-4.16-2.61-8.198-4.99-12.201-7.172V57.746L127.722 10.31L51.136 55.554c-4.087-2.288-8.278-4.817-12.746-7.62c.58-1.613.936-3.342.936-5.152c0-8.446-6.86-15.316-15.305-15.316c-8.446 0-15.311 6.87-15.311 15.316c0 8.446 6.875 15.318 15.32 15.318c4.114 0 7.617-1.638 10.372-4.286c4.082 2.56 8.56 4.9 11.562 7.048v91.023L127.72 199l77.605-45.284a303.02 303.02 0 0 1 12.307 7.316a15.183 15.183 0 0 0-.883 5.152c0 8.446 6.886 15.318 15.332 15.318c8.446 0 15.324-6.872 15.324-15.318s-6.863-15.317-15.31-15.317Z"/></svg>