<svg xmlns="http://www.w3.org/2000/svg" xmlns:xlink="http://www.w3.org/1999/xlink" width="512" height="180" viewBox="0 0 512 180"><path fill="#F5A800" d="M94.977 98.161c-7.653 7.653-7.653 20.075 0 27.728c7.653 7.653 20.075 7.653 27.728 0c7.652-7.653 7.652-20.075 0-27.728c-7.653-7.652-20.075-7.652-27.728 0Zm20.757 20.757c-3.774 3.774-9.96 3.774-13.733 0c-3.774-3.774-3.774-9.96 0-13.733c3.774-3.774 9.959-3.774 13.733 0c3.773 3.774 3.773 9.959 0 13.733Zm18.555-16.773h8.229v4.14c1.992-2.725 4.77-4.717 9.015-4.717c6.762 0 13.21 5.294 13.21 14.991v.105c0 9.697-6.343 14.99-13.21 14.99c-4.403 0-7.076-1.991-9.015-4.35v12.423h-8.23v-37.582Zm22.224 14.571v-.104c0-4.823-3.25-8.02-7.076-8.02c-3.827 0-7.024 3.197-7.024 8.02v.104c0 4.823 3.197 8.02 7.024 8.02c3.826-.052 7.076-3.145 7.076-8.02Zm14.047.053v-.105c0-8.23 5.87-15.043 14.257-15.043c9.645 0 14.048 7.495 14.048 15.672c0 .629-.053 1.415-.105 2.149h-20.075c.786 3.721 3.407 5.66 7.076 5.66c2.725 0 4.717-.838 7.023-2.934l4.665 4.14c-2.673 3.355-6.552 5.4-11.793 5.4c-8.701-.053-15.096-6.133-15.096-14.94Zm20.337-2.464c-.471-3.669-2.62-6.132-6.08-6.132c-3.407 0-5.608 2.41-6.237 6.132h12.317Zm13.838-12.16h8.387v4.193c1.939-2.463 4.403-4.717 8.648-4.717c6.343 0 10.012 4.193 10.012 10.955v19.079h-8.387v-16.459c0-3.983-1.887-5.975-5.084-5.975c-3.198 0-5.242 2.044-5.242 5.975v16.459h-8.386v-29.51h.052ZM122.39 1.769l-12.003 12.003a6.042 6.042 0 0 0 0 8.544L157.3 69.228a6.042 6.042 0 0 0 8.544 0l12.003-12.003a6.042 6.042 0 0 0 0-8.544L130.934 1.769a6.042 6.042 0 0 0-8.544 0Zm-84.127 153.42a5.473 5.473 0 0 0 0-7.757l-6.132-6.133a5.473 5.473 0 0 0-7.758 0l-12.58 12.58l-3.459-3.46c-1.887-1.886-5.032-1.886-6.919 0c-1.887 1.888-1.887 5.032 0 6.92l20.81 20.808c1.886 1.887 5.031 1.887 6.918 0c1.887-1.887 1.887-5.032 0-6.918l-3.46-3.46l12.58-12.58Z"/><path fill="#425CC7" d="m101.791 36.206l-26.68 26.68c-2.358 2.358-2.358 6.29 0 8.648L91.57 87.993c11.636-8.387 27.99-7.339 38.473 3.145l13.314-13.314c2.358-2.359 2.358-6.29 0-8.649L110.44 36.258c-2.412-2.41-6.29-2.41-8.649-.052Zm-17.14 58.758l-9.75-9.75c-2.253-2.253-6.027-2.253-8.28 0l-34.333 34.333c-2.254 2.254-2.254 6.028 0 8.281l19.446 19.447c2.254 2.253 6.028 2.253 8.282 0l22.067-22.067c-4.613-9.697-3.774-21.333 2.568-30.244Zm162.646 5.399h-11.951v-7.967h32.55v7.967h-11.95v31.292h-8.65v-31.292Zm20.651 16.353v-.104c0-8.23 5.87-15.044 14.257-15.044c9.645 0 14.048 7.496 14.048 15.672c0 .63-.053 1.416-.105 2.15h-20.075c.786 3.721 3.407 5.66 7.076 5.66c2.725 0 4.717-.838 7.024-2.935l4.665 4.141c-2.674 3.355-6.552 5.399-11.794 5.399c-8.701 0-15.096-6.08-15.096-14.939Zm20.338-2.41c-.472-3.67-2.621-6.133-6.08-6.133c-3.408 0-5.61 2.41-6.238 6.132h12.318Zm13.785-21.91h8.177v39.259h-8.177v-39.26Zm13.995 24.373v-.105c0-8.23 5.87-15.043 14.257-15.043c9.644 0 14.047 7.495 14.047 15.672c0 .629-.052 1.415-.105 2.149H324.19c.786 3.721 3.407 5.66 7.076 5.66c2.726 0 4.718-.838 7.024-2.934l4.665 4.14c-2.673 3.355-6.552 5.4-11.794 5.4c-8.648-.053-15.095-6.133-15.095-14.94Zm20.39-2.411c-.472-3.67-2.621-6.133-6.08-6.133c-3.408 0-5.61 2.411-6.238 6.133h12.317Zm13.785-12.213h8.386v4.193c1.94-2.463 4.456-4.717 8.701-4.717c3.827 0 6.762 1.73 8.282 4.665c2.568-3.04 5.66-4.665 9.697-4.665c6.237 0 9.959 3.721 9.959 10.85v19.184h-8.387v-16.459c0-3.983-1.782-5.975-4.874-5.975c-3.145 0-5.085 2.044-5.085 5.975v16.459h-8.386v-16.459c0-3.983-1.782-5.975-4.875-5.975c-3.145 0-5.084 2.044-5.084 5.975v16.459h-8.387v-29.51h.053Zm50.843 14.571v-.104c0-8.23 5.87-15.044 14.257-15.044c9.644 0 14.047 7.496 14.047 15.672c0 .63-.052 1.416-.105 2.15h-20.075c.786 3.721 3.407 5.66 7.076 5.66c2.726 0 4.718-.838 7.024-2.935l4.665 4.141c-2.673 3.355-6.552 5.399-11.793 5.399c-8.701 0-15.096-6.08-15.096-14.939Zm20.337-2.41c-.472-3.67-2.62-6.133-6.08-6.133c-3.407 0-5.609 2.41-6.238 6.132h12.318Zm14.729 8.438v-14.1h-3.564v-7.233h3.564v-7.6h8.439v7.6h7.023v7.233h-6.97v12.685c0 1.94.838 2.883 2.725 2.883c1.572 0 2.935-.367 4.14-1.049v6.762c-1.782 1.048-3.826 1.73-6.656 1.73c-5.19 0-8.701-2.044-8.701-8.91Zm21.805-20.809h8.491v6.028c1.73-4.14 4.508-6.814 9.54-6.604v8.91h-.472c-5.66 0-9.12 3.407-9.12 10.588v11.06h-8.492v-29.982h.053Zm45.025-.314h9.015l-11.74 31.344c-2.36 6.238-4.876 8.544-10.065 8.544c-3.145 0-5.45-.786-7.705-2.097l2.883-6.29c1.153.682 2.568 1.206 3.722 1.206c1.467 0 2.306-.472 3.04-1.992l-12.003-30.715h9.172l6.972 20.809l6.709-20.81Z"/></svg>