<svg xmlns="http://www.w3.org/2000/svg" xmlns:xlink="http://www.w3.org/1999/xlink" width="256" height="344" viewBox="0 0 256 344"><defs><linearGradient id="logosOrigin0" x1="50%" x2="50%" y1="0%" y2="100%"><stop offset="0%" stop-color="#F90"/><stop offset="100%" stop-color="#F05A22"/></linearGradient></defs><path fill="url(#logosOrigin0)" d="M127.616 2.374c.7 1.802-.51 3.45-1.503 4.844c-7.025 9.957-12.548 21.092-14.75 33.063c-.862 2.457-.672 4.288 0 4.492c13.633-1.197 29.012-1.059 42.434 1.808c24.423 4.917 47.25 17.274 64.793 34.942c17.493 17.486 29.77 40.144 34.738 64.385c5.508 26.247 2.43 54.186-8.586 78.632c-23.358 49.918-62.736 92.141-110.918 118.906c-1.554.722-3.794.751-4.859-.795c-1.254-1.62-.736-3.925.504-5.398c6.5-9.068 11.037-19.492 13.503-30.362c.474-2.254 1.123-4.537.926-6.857c-.795-1.036-2.108-.722-3.224-.685c-23.388 2.341-47.454-1.839-68.587-12.168c-22.636-10.906-41.843-28.735-54.544-50.408C5.777 216.836-.409 193.617.021 170.455c.08-21.257 5.88-42.34 16.093-60.948C39.888 63.863 77.215 25.346 122.284.463c1.889-1.05 4.683-.27 5.332 1.911ZM120.97 122.44c-13.911 1.868-26.743 10.038-34.534 21.68c-5.274 7.996-8.47 17.494-8.404 27.109c-.393 12.882 4.742 25.787 13.642 35.066c7.776 8.375 18.58 13.831 29.909 15.29c11.533 1.525 23.577-1.174 33.345-7.514c9.928-6.302 17.493-16.253 20.878-27.523c6.354-19.565-1.262-42.486-17.836-54.573c-10.41-7.922-24.059-11.439-37-9.535Z"/></svg>