<svg xmlns="http://www.w3.org/2000/svg" xmlns:xlink="http://www.w3.org/1999/xlink" width="512" height="152" viewBox="0 0 512 152"><path fill="#130754" d="M174.728 98.678c-7.046 0-14.223-2.916-18.717-8.631v30.876h-14.114V44.7h12.762l.487 8.384c4.378-6.442 12.152-9.845 19.569-9.845c14.223 0 24.7 11.918 24.7 27.719c0 15.801-10.463 27.726-24.687 27.72Zm-4.37-44.975c-8.268 0-14.95 6.443-14.95 17.263c0 10.82 6.682 17.276 14.95 17.276c8.268 0 14.95-6.442 14.95-17.262c0-10.712-6.55-17.147-14.703-17.275l-.247-.002Zm82.252 43.528l-.487-8.385c-4.377 6.443-12.158 9.846-19.575 9.84c-14.223 0-24.7-11.912-24.7-27.713c0-15.802 10.456-27.72 24.7-27.713c7.417 0 15.198 3.43 19.575 9.846l.487-8.384h12.79V97.23h-12.79ZM236.933 53.71c-8.268 0-14.951 6.443-14.958 17.263c-.007 10.82 6.683 17.27 14.95 17.27c8.268 0 14.958-6.443 14.958-17.263c0-10.82-6.683-17.27-14.95-17.27Zm77.779 43.528v-29.05c0-10.21-3.52-13.614-9.963-13.614c-6.69 0-13.983 6.073-13.983 13.366v29.298h-14.107V44.722h12.892l.611 9.729c3.527-6.69 11.424-11.184 19.452-11.184c13.976 0 19.211 9.73 19.211 22.731v31.246l-14.113-.006Zm65.799.013l-.487-8.391c-4.378 6.443-12.158 9.846-19.568 9.846c-14.224 0-24.701-11.918-24.701-27.72c0-15.801 10.457-27.712 24.7-27.712c7.047 0 14.217 2.923 18.718 8.631V24.316h14.107v72.935h-12.77Zm-15.678-43.52c-8.233 0-14.95 6.442-14.95 17.255c0 10.814 6.682 17.256 14.95 17.256c8.268 0 14.95-6.435 14.95-17.256c0-10.82-6.662-17.256-14.95-17.256Zm81.43 43.527l-.488-8.384c-4.377 6.442-12.158 9.839-19.575 9.839c-14.223 0-24.7-11.911-24.7-27.72c0-15.808 10.456-27.712 24.7-27.712c7.417 0 15.198 3.43 19.575 9.852l.487-8.39h12.762V97.25l-12.762.007Zm-15.679-43.52c-8.233 0-14.95 6.442-14.957 17.262c-.007 10.82 6.69 17.242 14.95 17.242c8.261 0 14.958-6.442 14.958-17.262c0-10.712-6.55-17.114-14.703-17.24l-.248-.003Zm59.68 45.229a41.277 41.277 0 0 1-21.03-5.963l2.312-9.722l.715.423c4.246 2.478 10.406 5.416 17.762 5.416c5.592 0 9.483-1.702 9.483-6.08c0-3.766-4.014-5.104-11.184-6.806c-12.886-2.8-17.503-9.605-17.503-17.022c0-8.268 6.442-16.042 20.666-16.042c8.631 0 16.172 3.767 17.839 4.741l-2.312 9.242a30.594 30.594 0 0 0-15.191-4.377c-5.709 0-8.508 1.941-8.508 5.104c0 3.52 3.65 5.105 9.235 6.443C506.408 67.24 512 73.683 512 80.736c.027 11.3-8.24 18.23-21.737 18.23ZM26.546 8.94h16.529v34.32H26.546V8.94Zm0 70.5h16.529v34.32H26.546V79.44ZM0 37.16h16.529v114.082H0V37.161Zm52.55 70.596h16.53v34.32H52.55v-34.32Zm0-70.554h16.53v34.32H52.55v-34.32ZM78.548 0h16.528v114.082H78.548V0Z"/><path fill="#FFCA00" d="M26.546 53.278h16.529v16.193H26.546z"/><path fill="#E70488" d="M52.55 81.539h16.529v16.193H52.55z"/></svg>