<svg xmlns="http://www.w3.org/2000/svg" xmlns:xlink="http://www.w3.org/1999/xlink" width="256" height="256" viewBox="0 0 256 256"><path fill="#21BBD1" d="M64.046 126.72c0-36.7 29.858-66.56 66.56-66.56c36.7 0 66.56 29.86 66.56 66.56c0 36.701-29.86 66.56-66.56 66.56c-36.702 0-66.56-29.859-66.56-66.56Z"/><path fill="#20222D" d="M256 20.48C256 9.216 246.12 0 234.856 0h-104.25C59.915 0 0 56.027 0 126.72V256h31.086V126.72c0-53.64 44.761-97.28 98.4-97.28c53.64 0 97.838 43.639 97.838 97.28c0 53.64-44.297 97.28-97.936 97.28c-25.735 0-52.588-10.06-67.217-26.432V256h68.435C201.298 256 256 197.413 256 126.72V20.48Z"/></svg>