<svg xmlns="http://www.w3.org/2000/svg" xmlns:xlink="http://www.w3.org/1999/xlink" width="512" height="107" viewBox="0 0 512 107"><path fill="#FF37AD" d="M418.941 27.487a4.72 4.72 0 1 0 .143-9.44a4.72 4.72 0 0 0-.143 9.44m72.292-4.002a4.72 4.72 0 1 0 .141-9.44a4.72 4.72 0 0 0-.141 9.44"/><path fill="#FCC954" d="M495.063 84.13a4.72 4.72 0 1 0 .142-9.44a4.72 4.72 0 0 0-.142 9.44M438.22 9.44a4.72 4.72 0 1 0 .142-9.44a4.72 4.72 0 0 0-.142 9.44"/><path fill="#2890E9" d="M466.147 42.22a3.686 3.686 0 0 1-3.577-4.576q.222-.887.358-1.775a10.1 10.1 0 0 1-3.48.758c-2.143.082-4.063-.28-5.699-1.072a8.86 8.86 0 0 1-3.831-3.538c-1.76-3.05-1.608-7.06.384-10.22c1.899-3.016 5.115-4.649 8.603-4.382c2.686.21 5.04 1.216 6.925 2.942a51 51 0 0 0 .986-3.11c1.926-6.798 2.562-13.624 2.567-13.693a3.68 3.68 0 0 1 4.002-3.336a3.685 3.685 0 0 1 3.336 4.003c-.027.305-.705 7.584-2.817 15.039c-1.067 3.764-2.327 6.944-3.755 9.484q.159.85.252 1.742c.297 2.874.06 5.968-.683 8.945a3.69 3.69 0 0 1-3.571 2.79m-8.02-17.466c-.381 0-1.053.112-1.593.968c-.517.821-.618 1.943-.234 2.609c.51.885 2.014.963 2.865.93c.966-.036 1.956-.642 2.925-1.746a6.5 6.5 0 0 0-.57-.965c-.8-1.11-1.812-1.679-3.188-1.786q-.078-.008-.205-.01"/><path fill="#F0A420" d="M455.552 52.315C440.27 40.27 424.299 35.05 419.878 40.659a5.1 5.1 0 0 0-.9 1.797a2 2 0 0 0-.062.243v.01q-.09.377-.133.764l-8.651 50.653c-1.386 8.135 6.667 14.648 14.334 11.594l46.916-18.694c.827-.33 2.863-1.587 3.42-2.281q.222-.217.414-.46c4.42-5.61-4.384-19.922-19.664-31.971"/><path fill="#FCC954" d="M475.21 84.288c4.424-5.612-4.377-19.927-19.658-31.973c-15.281-12.047-31.255-17.263-35.679-11.652c-4.423 5.612 4.378 19.927 19.659 31.973s31.255 17.263 35.678 11.652"/><path fill="#F0A420" d="M472.543 81.02c3.63-4.606-4.367-16.963-17.862-27.601c-13.494-10.639-27.378-15.53-31.007-10.925s4.365 16.963 17.86 27.6c13.495 10.64 27.378 15.531 31.009 10.926"/><path fill="#2E6AC9" d="M440.287 99.417c-5.71.028-10.363-2.83-16.004-7.276c-6.564-5.176-10.923-11.372-11.267-14.9l-1.86 10.89c.86 3.108 3.794 7.047 8.05 10.402c3.54 2.792 7.112 4.708 10.814 4.974zm-5.712-19.767c-10.937-8.624-18.042-18.52-17.842-24.18l-1.813 10.614c.14 5.055 6.048 13.225 14.452 19.85c7.53 5.936 15.376 10.115 21.385 9.31l10.2-4.064c-8.218.568-16.889-4.044-26.382-11.53"/><path fill="#2890E9" d="M457.215 57.808a4.72 4.72 0 1 0 .143-9.44a4.72 4.72 0 0 0-.143 9.44"/><path fill="#FF37AD" d="m482.673 48.624l.034-.039q.065-.071.238-.247c.232-.233.606-.59 1.116-1.02a24 24 0 0 1 4.62-3.041c4.036-2.043 10.046-3.71 17.928-1.892a4.4 4.4 0 1 0 1.978-8.576c-10.203-2.352-18.315-.201-23.88 2.617a33 33 0 0 0-6.32 4.164a26 26 0 0 0-1.68 1.541q-.313.314-.61.644l-.048.053l-.017.02l-.007.008l-.004.004c0 .002-.003.004 3.333 2.873l-3.336-2.87a4.401 4.401 0 0 0 6.655 5.761M439.08 17.236a4.68 4.68 0 0 0-6.468-1.46a4.686 4.686 0 0 0-1.46 6.466c.17.273 3.657 5.923 4.373 13.66c.73 7.863-1.58 15.09-6.876 21.57c1.784 2.265 3.93 4.62 6.38 6.976c3.392-3.919 5.943-8.13 7.62-12.586c2.063-5.483 2.792-11.295 2.17-17.276c-.99-9.515-5.13-16.384-5.74-17.35"/><path fill="#2890E9" d="M497.75 62.402c2.391.618 4.082 1.293 4.812 1.607a4.73 4.73 0 0 0 5.556-.446a4.722 4.722 0 0 0-1.575-8.047c-2.24-.994-10.723-4.351-21.938-3.755c-7.548.401-14.807 2.492-21.574 6.22c-6.406 3.53-12.356 8.533-17.757 14.915a79 79 0 0 0 8.039 5.025c9.12-10.394 19.64-16.028 31.364-16.773a42.2 42.2 0 0 1 13.072 1.254"/><path fill="#2E6AC9" d="M1.868 93.109q-.822 0-1.345-.51T0 91.286V43.88q0-.802.523-1.313t1.345-.51h20.398q6.052 0 10.46 1.823q4.484 1.823 6.949 5.543q2.54 3.646 2.54 9.117q0 5.542-2.54 9.19q-2.465 3.573-6.95 5.324q-4.407 1.75-10.458 1.75H12.254v16.482q0 .803-.523 1.313t-1.345.51zM12.029 65.76h9.863q3.811 0 5.902-1.824q2.168-1.824 2.168-5.47q0-3.21-1.943-5.25q-1.869-2.043-6.127-2.043H12.03zm47.614 28.08q-3.96 0-7.098-1.459q-3.138-1.532-5.006-4.084t-1.868-5.69q0-5.177 4.259-8.167q4.334-2.99 11.356-4.084l9.788-1.386v-1.313q.001-2.844-1.345-4.376q-1.343-1.531-4.707-1.531q-2.465 0-3.96.948a6.6 6.6 0 0 0-2.316 2.48q-.596.947-1.719.947H49.93q-.823 0-1.27-.437a1.45 1.45 0 0 1-.374-1.167q0-1.24.971-2.918q.972-1.676 2.988-3.282q2.018-1.677 5.157-2.77q3.138-1.095 7.695-1.095q4.708.001 8.07 1.094q3.362 1.095 5.38 3.064a12.3 12.3 0 0 1 2.987 4.595q.972 2.551.972 5.541v22.537q0 .803-.523 1.313q-.522.51-1.345.51h-7.321q-.749 0-1.27-.51q-.524-.51-.524-1.313v-2.699q-.972 1.387-2.615 2.626q-1.644 1.167-3.96 1.896q-2.242.73-5.305.73m2.988-7.586q2.466 0 4.409-1.02t3.064-3.136q1.12-2.115 1.12-5.325v-1.24l-6.948 1.095q-4.034.655-5.904 1.97q-1.868 1.311-1.868 3.208q0 1.385.823 2.407q.897 1.02 2.316 1.531q1.42.51 2.988.51m30.715 6.856a1.75 1.75 0 0 1-1.27-.51q-.525-.51-.524-1.313v-34.28q.001-.729.524-1.24q.523-.582 1.27-.582h7.323q.746-.001 1.27.583q.597.51.598 1.24v2.918a12.8 12.8 0 0 1 4.557-3.502q2.765-1.24 6.35-1.24h3.214q.746 0 1.27.51q.524.512.524 1.313v6.274q0 .801-.523 1.313a1.76 1.76 0 0 1-1.271.51h-6.575q-3.288 0-5.155 1.823q-1.868 1.751-1.868 5.032v19.327q0 .803-.523 1.313q-.524.51-1.345.51zm49.356 0q-4.632 0-7.92-1.458q-3.287-1.531-5.006-4.668q-1.644-3.135-1.644-7.877V63.791h-5.828q-.822 0-1.344-.511q-.523-.51-.523-1.313v-4.96q0-.8.523-1.312q.522-.51 1.344-.51h5.828V43.15q0-.803.524-1.313a2 2 0 0 1 1.344-.51h7.322q.823 0 1.345.51q.523.51.523 1.313v12.034h9.34q.747 0 1.27.51t.523 1.312v4.961q0 .801-.523 1.313a1.75 1.75 0 0 1-1.27.51h-9.34v14.44q0 2.771.972 4.377q1.046 1.53 3.586 1.531h5.455q.746 0 1.27.51q.522.51.523 1.24v5.397q0 .803-.523 1.313a1.75 1.75 0 0 1-1.27.51zm21.91 13.857q-.597 0-1.12-.437a1.47 1.47 0 0 1-.449-1.094q0-.146.075-.438q.075-.218.224-.583l5.828-13.638l-14.346-33.039q-.225-.583-.224-.947c.039-.416.224-.804.523-1.095c.278-.33.69-.518 1.12-.51h7.249q.971 0 1.42.51q.447.438.672.949l9.264 22.608l9.49-22.608c.191-.38.444-.725.747-1.022q.448-.437 1.42-.438h7.098q.67 0 1.12.51q.523.439.523 1.023q0 .364-.3 1.02l-21.144 47.771c-.156.4-.413.751-.746 1.021q-.45.437-1.42.437zM219.9 93.11q-4.632 0-7.92-1.458q-3.287-1.531-5.006-4.668q-1.644-3.135-1.644-7.877V63.791h-5.828q-.822 0-1.344-.511q-.524-.51-.524-1.313v-4.96q0-.8.524-1.312q.522-.51 1.344-.51h5.828V43.15q0-.803.524-1.313a2 2 0 0 1 1.344-.51h7.322q.823 0 1.345.51q.523.51.523 1.313v12.034h9.34q.747 0 1.27.51t.523 1.312v4.961q0 .801-.523 1.313a1.75 1.75 0 0 1-1.27.51h-9.34v14.44q0 2.771.972 4.377q1.046 1.53 3.586 1.531h5.455q.745 0 1.27.51q.522.51.523 1.24v5.397q0 .803-.523 1.313a1.75 1.75 0 0 1-1.27.51zm32.595.73q-6.202 0-10.386-1.97q-4.185-2.041-6.426-5.76q-2.167-3.721-2.39-8.68a64 64 0 0 1-.075-3.282q0-1.897.075-3.282q.222-5.032 2.54-8.678q2.316-3.72 6.5-5.69q4.184-2.041 10.162-2.042q5.902 0 10.087 2.042q4.184 1.97 6.5 5.69q2.316 3.646 2.54 8.678q.15 1.385.15 3.282q0 1.823-.15 3.282q-.223 4.959-2.465 8.68q-2.167 3.718-6.351 5.76q-4.184 1.97-10.311 1.97m0-8.022q3.66 0 5.529-2.19q1.867-2.26 2.017-6.563q.075-1.093.075-2.916a45 45 0 0 0-.075-2.918q-.15-4.23-2.017-6.491q-1.868-2.26-5.529-2.26q-3.663 0-5.604 2.259q-1.868 2.261-2.018 6.492q-.084 1.457-.074 2.917q0 1.824.074 2.917q.15 4.304 2.018 6.564q1.941 2.189 5.604 2.189m36.681 7.292q-1.046 0-1.644-.51q-.523-.51-.822-1.313L276.026 57.52a1.9 1.9 0 0 1-.15-.73q0-.657.45-1.094q.522-.51 1.195-.51h6.574q.972 0 1.495.51q.522.51.673.949l6.798 22.535l7.248-22.39q.15-.51.673-1.021q.597-.583 1.643-.583h4.259q1.046-.001 1.569.583q.599.51.748 1.022l7.247 22.39l6.8-22.536q.073-.438.597-.95q.597-.51 1.494-.51h6.575q.673 0 1.121.51q.523.439.523 1.095q0 .364-.075.73l-10.759 33.767c-.134.51-.42.969-.822 1.313q-.522.51-1.568.51h-5.754q-1.046 0-1.644-.51a3.1 3.1 0 0 1-.897-1.313l-7.247-21.588l-7.397 21.588c-.134.51-.421.969-.822 1.313q-.599.51-1.644.51zm53.057 0q-.748 0-1.27-.51q-.524-.51-.524-1.313v-34.28q0-.8.523-1.312c.337-.336.796-.52 1.271-.51h7.322q.822 0 1.345.51t.523 1.312v2.846q1.943-2.335 5.006-3.866t7.472-1.532q4.407 0 7.696 1.97q3.36 1.896 5.23 5.616q1.942 3.646 1.942 8.897v20.348q0 .803-.598 1.313c-.336.335-.795.52-1.27.51h-7.92q-.821 0-1.344-.51t-.523-1.313v-19.91q0-3.866-1.943-5.98q-1.868-2.189-5.53-2.188q-3.51 0-5.602 2.187q-2.094 2.115-2.093 5.981v19.91q0 .803-.523 1.313a1.75 1.75 0 0 1-1.27.51z"/></svg>