<svg xmlns="http://www.w3.org/2000/svg" xmlns:xlink="http://www.w3.org/1999/xlink" width="512" height="99" viewBox="0 0 512 99"><path fill="#3B4C60" d="M225.06 32.862L237.03 0h-33.649l-9.096 47.888h16.825l-11.245 50.6l43.532-65.626h-18.336Zm-185.155-1.93c0 3.071-.57 5.66-1.71 7.765c-1.139 2.106-2.675 3.802-4.607 5.09c-1.932 1.289-4.161 2.23-6.688 2.824a34.28 34.28 0 0 1-7.876.892h-6.317v19.841H0V14.732h19.32c2.874 0 5.562.285 8.063.855c2.502.57 4.682 1.486 6.54 2.75c1.858 1.262 3.319 2.922 4.384 4.978c1.065 2.056 1.598 4.595 1.598 7.617Zm-12.707.074c0-1.238-.248-2.254-.743-3.047a5.177 5.177 0 0 0-2.007-1.857c-.842-.446-1.796-.744-2.86-.892a23.911 23.911 0 0 0-3.308-.223h-5.573v12.41h5.35c1.19 0 2.329-.1 3.419-.297c1.09-.199 2.068-.545 2.935-1.04a5.573 5.573 0 0 0 2.044-1.97c.495-.817.743-1.845.743-3.084Zm20.36 36.338V14.732h35.373v10.775H59.82v9.883h21.847v10.181H59.82v10.924h24.448v10.849h-36.71Zm73.271 0l-11.37-20.881h-4.31v20.881H92.665V14.732h20.064c2.527 0 4.991.26 7.394.78c2.403.52 4.558 1.4 6.465 2.638c1.907 1.239 3.43 2.874 4.57 4.905c1.14 2.031 1.71 4.558 1.71 7.58c0 3.566-.967 6.564-2.899 8.991c-1.932 2.428-4.607 4.162-8.025 5.202l13.747 22.516H120.83Zm-.52-36.487c0-1.238-.26-2.241-.78-3.01a5.346 5.346 0 0 0-2.007-1.783c-.817-.42-1.734-.706-2.75-.854a20.278 20.278 0 0 0-2.935-.223h-6.762v12.261h6.02c1.04 0 2.105-.087 3.195-.26c1.09-.173 2.08-.483 2.972-.929a5.674 5.674 0 0 0 2.192-1.932c.57-.842.855-1.932.855-3.27Zm34.183-5.276v10.85h20.36v10.478h-20.36v20.435h-12.559V14.732h34.629v10.85h-22.07ZM287.21 67.344l-11.37-20.881h-4.31v20.881h-12.483V14.732h20.064c2.526 0 4.99.26 7.393.78c2.403.52 4.558 1.4 6.466 2.638c1.907 1.239 3.43 2.874 4.57 4.905c1.14 2.031 1.709 4.558 1.709 7.58c0 3.566-.966 6.564-2.898 8.991c-1.932 2.428-4.608 4.162-8.026 5.202l13.748 22.516H287.21Zm-.52-36.487c0-1.238-.26-2.241-.78-3.01a5.346 5.346 0 0 0-2.006-1.783a8.731 8.731 0 0 0-2.75-.854a20.278 20.278 0 0 0-2.935-.223h-6.762v12.261h6.019c1.04 0 2.105-.087 3.195-.26a10.18 10.18 0 0 0 2.973-.929a5.674 5.674 0 0 0 2.192-1.932c.57-.842.854-1.932.854-3.27Zm76.466 9.958c0 4.162-.718 7.964-2.155 11.407c-1.437 3.443-3.43 6.39-5.982 8.843c-2.551 2.452-5.586 4.347-9.103 5.684c-3.518 1.338-7.332 2.007-11.444 2.007c-4.112 0-7.914-.669-11.407-2.007c-3.492-1.337-6.514-3.232-9.066-5.684c-2.55-2.453-4.545-5.4-5.982-8.843c-1.436-3.443-2.155-7.245-2.155-11.407c0-4.21.719-8.013 2.155-11.407c1.437-3.393 3.431-6.279 5.982-8.657c2.552-2.378 5.574-4.21 9.066-5.499c3.493-1.288 7.295-1.932 11.407-1.932s7.926.644 11.444 1.932c3.517 1.288 6.552 3.121 9.103 5.5c2.551 2.377 4.545 5.263 5.982 8.656c1.437 3.394 2.155 7.196 2.155 11.407Zm-13.599 0c0-2.279-.372-4.409-1.115-6.39c-.743-1.982-1.77-3.679-3.084-5.09c-1.312-1.413-2.898-2.527-4.755-3.345c-1.858-.817-3.902-1.226-6.131-1.226c-2.23 0-4.26.409-6.093 1.226a14.752 14.752 0 0 0-4.756 3.344c-1.338 1.412-2.366 3.109-3.084 5.09c-.719 1.982-1.078 4.112-1.078 6.391c0 2.378.372 4.57 1.115 6.577c.743 2.006 1.771 3.727 3.084 5.164a14.08 14.08 0 0 0 4.719 3.381c1.833.818 3.864 1.226 6.093 1.226c2.23 0 4.26-.408 6.093-1.226a14.483 14.483 0 0 0 4.756-3.38c1.338-1.438 2.378-3.159 3.121-5.165c.743-2.007 1.115-4.199 1.115-6.577Zm68.291 19.247c-2.328 2.675-5.201 4.793-8.62 6.353c-3.418 1.56-7.356 2.34-11.815 2.34c-4.062 0-7.815-.668-11.258-2.006c-3.443-1.337-6.428-3.232-8.954-5.684c-2.527-2.453-4.509-5.388-5.945-8.806c-1.437-3.418-2.155-7.183-2.155-11.295c0-4.211.73-8.026 2.192-11.444c1.461-3.418 3.48-6.329 6.056-8.732c2.576-2.402 5.598-4.248 9.066-5.536c3.468-1.288 7.208-1.932 11.221-1.932c3.716 0 7.37.657 10.96 1.97c3.593 1.312 6.503 3.232 8.732 5.758l-8.62 8.62c-1.189-1.634-2.75-2.848-4.681-3.64a15.527 15.527 0 0 0-5.945-1.19c-2.23 0-4.273.409-6.13 1.226c-1.859.818-3.456 1.945-4.794 3.382c-1.337 1.436-2.378 3.133-3.12 5.09c-.744 1.957-1.116 4.1-1.116 6.428c0 2.378.372 4.557 1.115 6.539c.743 1.982 1.771 3.678 3.084 5.09c1.313 1.412 2.886 2.514 4.719 3.307c1.833.793 3.84 1.19 6.019 1.19c2.526 0 4.731-.496 6.614-1.487c1.882-.99 3.393-2.279 4.533-3.864l8.842 8.323Zm37.602 7.282l-19.544-24.225h-.149v24.225h-12.484V14.732h12.484v21.402h.223l18.8-21.402h15.903L448.02 38.957l24.002 28.387H455.45Zm48.45-38.939c-1.09-1.387-2.514-2.49-4.273-3.307c-1.758-.817-3.455-1.226-5.09-1.226c-.842 0-1.697.075-2.564.223a6.619 6.619 0 0 0-2.34.855a5.787 5.787 0 0 0-1.747 1.635c-.47.668-.706 1.523-.706 2.563c0 .892.186 1.635.558 2.23c.371.594.916 1.114 1.634 1.56c.719.446 1.573.855 2.564 1.226c.991.372 2.106.756 3.344 1.152c1.784.595 3.641 1.251 5.573 1.97a20.843 20.843 0 0 1 5.276 2.86a15.018 15.018 0 0 1 3.939 4.422c1.04 1.758 1.56 3.95 1.56 6.576c0 3.022-.557 5.635-1.672 7.84c-1.114 2.205-2.613 4.025-4.495 5.462c-1.883 1.437-4.038 2.502-6.465 3.195a27.185 27.185 0 0 1-7.506 1.04c-3.765 0-7.406-.656-10.923-1.969c-3.518-1.312-6.44-3.183-8.769-5.61l8.323-8.472c1.288 1.586 2.985 2.911 5.09 3.976c2.106 1.065 4.199 1.598 6.28 1.598c.94 0 1.857-.1 2.749-.297c.892-.199 1.672-.52 2.34-.967a4.837 4.837 0 0 0 1.598-1.783c.397-.743.595-1.635.595-2.675c0-.991-.248-1.833-.743-2.527c-.496-.693-1.202-1.325-2.118-1.895c-.917-.57-2.056-1.09-3.419-1.56c-1.362-.47-2.91-.979-4.644-1.524a44.385 44.385 0 0 1-4.942-1.932a16.54 16.54 0 0 1-4.31-2.86c-1.263-1.165-2.278-2.577-3.046-4.236c-.768-1.66-1.152-3.679-1.152-6.057c0-2.922.594-5.424 1.783-7.505a15.503 15.503 0 0 1 4.682-5.127c1.932-1.338 4.112-2.316 6.54-2.936a29.65 29.65 0 0 1 7.356-.929c2.972 0 6.007.545 9.103 1.635c3.096 1.09 5.809 2.7 8.137 4.83l-8.1 8.546Z"/></svg>