<svg xmlns="http://www.w3.org/2000/svg" xmlns:xlink="http://www.w3.org/1999/xlink" width="512" height="99" viewBox="0 0 512 99"><path fill="#3B4C60" d="M225.06 32.862L237.03 0h-33.649l-9.096 47.888h16.825l-11.245 50.6l43.532-65.626zm-185.155-1.93q0 4.607-1.71 7.765t-4.607 5.09Q30.69 45.72 26.9 46.612a34.3 34.3 0 0 1-7.876.892h-6.317v19.841H0V14.732h19.32q4.311 0 8.063.855t6.54 2.75q2.787 1.893 4.384 4.978t1.598 7.617m-12.707.074q0-1.857-.743-3.047a5.2 5.2 0 0 0-2.007-1.857q-1.264-.67-2.86-.892a24 24 0 0 0-3.308-.223h-5.573v12.41h5.35q1.785 0 3.419-.297q1.635-.298 2.935-1.04a5.6 5.6 0 0 0 2.044-1.97q.743-1.226.743-3.084m20.36 36.338V14.732h35.373v10.775H59.82v9.883h21.847v10.181H59.82v10.924h24.448v10.849zm73.271 0l-11.37-20.881h-4.31v20.881H92.665V14.732h20.064q3.79 0 7.394.78t6.465 2.638t4.57 4.905t1.71 7.58q0 5.35-2.899 8.991t-8.025 5.202l13.747 22.516zm-.52-36.487q0-1.857-.78-3.01a5.35 5.35 0 0 0-2.007-1.783q-1.226-.631-2.75-.854a20 20 0 0 0-2.935-.223h-6.762v12.261h6.02q1.56 0 3.195-.26t2.972-.929a5.7 5.7 0 0 0 2.192-1.932q.855-1.263.855-3.27m34.183-5.276v10.85h20.36v10.478h-20.36v20.435h-12.559V14.732h34.629v10.85zM287.21 67.344l-11.37-20.881h-4.31v20.881h-12.483V14.732h20.064q3.789 0 7.393.78t6.466 2.638t4.57 4.905t1.709 7.58q0 5.35-2.898 8.991t-8.026 5.202l13.748 22.516zm-.52-36.487q0-1.857-.78-3.01a5.35 5.35 0 0 0-2.006-1.783q-1.226-.631-2.75-.854a20 20 0 0 0-2.935-.223h-6.762v12.261h6.019q1.56 0 3.195-.26t2.973-.929a5.7 5.7 0 0 0 2.192-1.932q.854-1.263.854-3.27m76.466 9.958q0 6.243-2.155 11.407t-5.982 8.843q-3.827 3.678-9.103 5.684t-11.444 2.007t-11.407-2.007T314 61.065q-3.826-3.679-5.982-8.843q-2.154-5.164-2.155-11.407q0-6.315 2.155-11.407q2.155-5.09 5.982-8.657q3.828-3.566 9.066-5.499q5.24-1.932 11.407-1.932q6.168 0 11.444 1.932t9.103 5.5t5.98 8.655t2.155 11.407m-13.599 0q0-3.419-1.115-6.39q-1.114-2.973-3.084-5.09q-1.969-2.119-4.755-3.345q-2.787-1.226-6.131-1.226t-6.093 1.226a14.8 14.8 0 0 0-4.756 3.344q-2.007 2.118-3.084 5.09q-1.078 2.973-1.078 6.391q0 3.567 1.115 6.577t3.084 5.164a14.1 14.1 0 0 0 4.719 3.381q2.75 1.227 6.093 1.226q3.344 0 6.093-1.226a14.5 14.5 0 0 0 4.756-3.38q2.007-2.156 3.121-5.165q1.115-3.01 1.115-6.577m68.291 19.247q-3.492 4.013-8.62 6.353t-11.815 2.34q-6.093 0-11.258-2.006t-8.954-5.684q-3.79-3.68-5.945-8.806q-2.155-5.127-2.155-11.295q0-6.317 2.192-11.444t6.056-8.732t9.066-5.536t11.221-1.932q5.574 0 10.96 1.97q5.389 1.968 8.732 5.758l-8.62 8.62q-1.784-2.451-4.681-3.64a15.5 15.5 0 0 0-5.945-1.19q-3.345 0-6.13 1.226q-2.788 1.227-4.794 3.382q-2.006 2.154-3.12 5.09q-1.116 2.936-1.116 6.428q0 3.567 1.115 6.539t3.084 5.09t4.719 3.307t6.019 1.19q3.79 0 6.614-1.487q2.823-1.486 4.533-3.864zm37.602 7.282l-19.544-24.225h-.149v24.225h-12.484V14.732h12.484v21.402h.223l18.8-21.402h15.903L448.02 38.957l24.002 28.387zm48.45-38.939q-1.635-2.081-4.273-3.307t-5.09-1.226q-1.263 0-2.564.223a6.6 6.6 0 0 0-2.34.855a5.8 5.8 0 0 0-1.747 1.635q-.706 1.003-.706 2.563q0 1.338.558 2.23q.557.891 1.634 1.56q1.078.67 2.564 1.226q1.487.558 3.344 1.152q2.676.892 5.573 1.97a20.8 20.8 0 0 1 5.276 2.86a15 15 0 0 1 3.939 4.422q1.56 2.637 1.56 6.576q0 4.533-1.672 7.84t-4.495 5.462t-6.465 3.195a27.2 27.2 0 0 1-7.506 1.04q-5.648 0-10.923-1.969t-8.769-5.61l8.323-8.472q1.932 2.379 5.09 3.976q3.159 1.598 6.28 1.598q1.41 0 2.749-.297q1.338-.297 2.34-.967a4.84 4.84 0 0 0 1.598-1.783q.595-1.115.595-2.675q0-1.486-.743-2.527q-.744-1.04-2.118-1.895q-1.375-.855-3.419-1.56t-4.644-1.524a44 44 0 0 1-4.942-1.932a16.5 16.5 0 0 1-4.31-2.86q-1.894-1.748-3.046-4.236q-1.152-2.49-1.152-6.057q0-4.383 1.783-7.505a15.5 15.5 0 0 1 4.682-5.127q2.898-2.007 6.54-2.936a29.7 29.7 0 0 1 7.356-.929q4.459 0 9.103 1.635T512 19.86z"/></svg>