<svg xmlns="http://www.w3.org/2000/svg" xmlns:xlink="http://www.w3.org/1999/xlink" width="256" height="279" viewBox="0 0 256 279"><path d="M242.562 40.657c-.824-21.506-19.727-26.017-19.727-26.017s-65.518-9.873-94.22-13.457c-28.711-3.603-26.924 24.22-26.924 24.22s6.52 202.785 7.197 227.903c.769 29.925 28.702 25.109 28.702 25.109l98.711-17.07c17.95-3.593 18.839-26.007 18.839-26.007S243.48 64.135 242.562 40.657c-.824-21.506.917 23.478 0 0Zm-22.08 172.259l-73.399 7.603s-21.376 3.26-21.857-22.71c-.352-19.134-4.585-128.737-4.585-128.737s-1.473-20.098 20.524-18.45c22.45 1.667 76.243 5.761 76.243 5.761s14.402 3.427 15.031 19.839c.676 17.838 6.891 116.901 6.891 116.901s1.62 16.282-18.848 19.793ZM40.796 183.37l-13.56.964s-13.68 1.852-13.994-13.115c-.222-11.03-1.593-73.64-1.593-73.64s-.945-11.586 13.124-10.641c3.566.231 8.622.555 14.207.889c-.194-10.383-.36-19.46-.49-26.368c-7.743-.584-14.986-1.214-20.163-1.76C-.262 57.652.877 73.258.877 73.258s2.243 114.827 2.66 128.905c.51 16.782 18.579 14.059 18.579 14.059l19.292-2.065c-.167-8.327-.39-18.94-.611-30.786ZM94.727 79a15.823 15.823 0 0 0-.676-3.992c-5.937-.481-20.84-4.362-25.618.686c-3.029 3.177-1.779 9.873-1.705 13.68l10.809.61s9.215 1.973 9.614 11.42c.426 10.3.37 67.99.37 67.99s1.037 9.41-12.04 11.402l-6.863.51c.037 2.046.074 3.695.092 4.917c.288 16.45 17.783 11.18 28.758 10.114c.945-17.449-.732-35.426-1.12-52.884c-.473-21.478-.649-42.993-1.621-64.453c-.065-1.463.592 13.133 0 0Z"/><path d="m100.404 203.08l-19.774 1.908s-18.44 2.648-18.838-18.598c-.287-15.68-2.14-104.556-2.14-104.556s-1.278-16.43 17.644-15.115c4.862.334 11.55.88 18.83 1.464c-.547-17.051-.983-30.5-1.205-37.427c-9.965-.973-19.357-1.954-26.303-2.75C43.61 25.17 45.186 47.278 45.186 47.278s2.973 163.025 3.556 182.947c.676 23.812 25.007 19.987 25.007 19.987l27.998-3.585c-.278-9.27-.75-24.84-1.343-43.548Zm40.233-145.53c-3.5-.278-7.752-.046-10.345 2.686c-2.742 2.871-2.788 6.946-2.63 10.632c9.919.862 17.115 1.5 17.115 1.5s12.392 2.789 12.957 16.218c.574 14.606 4.122 93.97 4.122 93.97s1.389 13.346-16.227 16.226l-13.337 1.278c1.77 20.848 28.73 12.05 42.52 10.624c-1.416-31.351-5.806-128.312-6.797-151.078a4171.085 4171.085 0 0 0-27.378-2.056c-.685-.055 6.937.49 0 0Z"/></svg>