<svg xmlns="http://www.w3.org/2000/svg" xmlns:xlink="http://www.w3.org/1999/xlink" width="512" height="100" viewBox="0 0 512 100"><path d="M55.605 52.064c0 5.552-.592 10.38-1.77 14.474q-1.775 6.142-4.947 10.205q-3.174 4.06-7.705 6.04q-4.53 1.979-10.049 1.978c-2.69.02-5.37-.33-7.965-1.042c-2.462-.695-4.705-2.05-6.717-4.06l-.312.103l.208 8.435v11.558H0V21.034l11.35-.729l3.124 5.519a24.2 24.2 0 0 1 7.705-4.686a26.1 26.1 0 0 1 9.372-1.667q5.829 0 10.309 1.72c2.982 1.145 5.5 2.981 7.549 5.518q3.073 3.8 4.634 10.048t1.562 15.307M38.84 51.96c0-3.611-.227-6.593-.677-8.955q-.676-3.542-2.082-5.57a7.26 7.26 0 0 0-3.645-2.812a16 16 0 0 0-5.258-.781a14.1 14.1 0 0 0-6.3 1.353c-1.841.9-3.351 2.154-4.53 3.75v27.072q1.455 2.293 4.061 3.853c1.737 1.042 3.886 1.562 6.456 1.562a14.5 14.5 0 0 0 4.894-.78q2.187-.78 3.749-2.916c1.041-1.42 1.855-3.403 2.447-5.936q.886-3.798.885-9.84m24.47 31.76V21.033l16.557-.729V83.72zM80.804 6.976q0 3.436-2.187 5.154q-2.189 1.718-6.977 1.718q-4.684.001-6.976-1.51c-1.529-1.008-2.291-2.792-2.291-5.362q0-6.978 9.267-6.977q4.792.001 6.977 1.77c1.458 1.183 2.187 2.916 2.187 5.207m65.288 45.087c0 5.552-.591 10.38-1.77 14.474q-1.773 6.142-4.946 10.205q-3.175 4.06-7.705 6.04q-4.531 1.979-10.049 1.978c-2.69.02-5.37-.33-7.966-1.042c-2.46-.695-4.704-2.05-6.716-4.06l-.312.103l.208 8.435v11.558H90.488v-78.72l11.35-.729l3.124 5.519a24.2 24.2 0 0 1 7.705-4.686a26.1 26.1 0 0 1 9.372-1.667q5.829 0 10.308 1.72c2.982 1.145 5.5 2.981 7.55 5.518q3.073 3.8 4.633 10.048q1.563 6.249 1.562 15.307m-16.764-.104c0-3.611-.228-6.593-.677-8.955q-.676-3.542-2.083-5.57a7.26 7.26 0 0 0-3.644-2.812a16 16 0 0 0-5.259-.781a14.1 14.1 0 0 0-6.3 1.353c-1.84.9-3.35 2.154-4.53 3.75v27.072q1.457 2.293 4.062 3.853c1.737 1.042 3.886 1.562 6.456 1.562a14.5 14.5 0 0 0 4.894-.78q2.186-.78 3.749-2.916c1.04-1.42 1.855-3.403 2.447-5.936q.886-3.798.885-9.84m51.23 32.905q-16.35 0-23.897-8.487q-7.547-8.485-7.549-25.043c0-10.067 2.258-17.89 6.768-23.48c4.511-5.586 11.526-8.383 21.034-8.383q12.077 0 19.056 7.185q6.978 7.185 6.977 22.18c0 1.183-.034 2.46-.105 3.852a53 53 0 0 1-.312 3.749h-36.757q.624 7.915 4.633 11.193q4.011 3.28 12.131 3.28a46.6 46.6 0 0 0 16.87-3.123l1.77 13.016a46.7 46.7 0 0 1-9.268 2.915q-5.309 1.144-11.35 1.146m7.602-39.153q-.213-6.98-3.124-9.892c-1.94-1.94-4.614-2.915-8.017-2.915q-5.83 0-8.435 2.967t-3.124 9.84zm60.707 38.007l-1.562-5.414l-.312-.104c-1.874 2.224-4.198 3.904-6.977 5.05s-6.072 1.718-9.892 1.718c-8.188 0-14.266-2.674-18.222-8.018q-5.936-8.021-5.936-25.095q0-15.619 5.936-24.054t18.014-8.434q9.059-.002 15.41 5.727l.21-.208l-.21-8.33V2.706l16.14-.833V83.72zm-3.54-45.087q-1.455-2.08-4.217-3.437c-1.842-.899-3.976-1.353-6.404-1.353c-2.225 0-4.094.312-5.623.937a8.15 8.15 0 0 0-3.749 3.124q-1.457 2.187-2.082 5.779t-.625 8.903q0 5.517.573 9.215c.378 2.462 1.04 4.445 1.978 5.936q1.405 2.236 3.697 3.176q2.291.936 5.727.937c2.981 0 5.33-.554 7.028-1.666c1.704-1.113 2.935-2.324 3.697-3.645zm25.199 45.087V21.034l12.912-.625l1.458 10.517h.312c2.012-3.82 4.497-6.664 7.445-8.538a17.97 17.97 0 0 1 9.84-2.812c1.387 0 2.675.085 3.853.26c1.183.176 2.187.398 3.02.677l-1.041 15.932a17 17 0 0 0-3.228-.781a25 25 0 0 0-3.645-.26c-4.236 0-7.739 1.458-10.517 4.373q-4.166 4.373-4.165 12.287V83.72zm71.016 1.146q-16.35 0-23.898-8.487q-7.548-8.485-7.55-25.043c0-10.067 2.258-17.89 6.77-23.48c4.51-5.586 11.524-8.383 21.033-8.383q12.077 0 19.056 7.185q6.977 7.185 6.976 22.18c0 1.183-.033 2.46-.104 3.852a53 53 0 0 1-.312 3.749h-36.758q.624 7.915 4.634 11.193q4.01 3.28 12.131 3.28a46.6 46.6 0 0 0 16.869-3.123l1.77 13.016a46.7 46.7 0 0 1-9.267 2.915q-5.31 1.144-11.35 1.146m7.601-39.153q-.213-6.98-3.124-9.892c-1.94-1.94-4.615-2.915-8.018-2.915q-5.829 0-8.434 2.967q-2.606 2.968-3.124 9.84zm55.188 31.968l-.312-.104c-1.94 2.29-4.374 4.06-7.29 5.31q-4.372 1.875-9.787 1.875q-8.955 0-14.266-5.155q-5.31-5.154-5.31-15.775c0-2.916.501-5.585 1.51-8.018c1.007-2.428 2.46-4.497 4.373-6.196q2.86-2.554 7.028-4.009c2.779-.97 5.969-1.458 9.58-1.458c2.362 0 4.544.157 6.56.47q3.019.468 5.52 1.3v-3.644c0-3.195-.9-5.538-2.708-7.028q-2.706-2.238-9.268-2.24q-5.205.002-9.11.834q-3.906.83-8.28 2.603l-1.353-12.912q4.793-2.08 10.153-3.124a60.4 60.4 0 0 1 11.506-1.041c4.653 0 8.572.502 11.766 1.51q4.792 1.51 7.758 4.633q2.968 3.124 4.27 7.914q1.299 4.793 1.3 11.246V83.72h-12.39zm-2.395-21.034a15.3 15.3 0 0 0-3.436-.937a31.4 31.4 0 0 0-5.519-.417q-10.516.002-10.517 8.33q0 4.685 2.5 6.509q2.5 1.823 6.455 1.822q2.082 0 3.957-.573q1.876-.57 3.332-1.614t2.343-2.343a4.97 4.97 0 0 0 .885-2.863zm93.924 27.073V43.422q0-5-2.499-7.341q-2.498-2.343-6.977-2.343q-4.06 0-6.664 2.238t-2.603 6.925v40.818h-16.14V42.901c0-3.266-.814-5.604-2.447-7.029q-2.45-2.132-6.716-2.134c-1.94 0-3.768.435-5.467 1.301q-2.555 1.3-4.009 3.489v45.191h-16.244V21.034l11.662-.833l2.604 5.935a25.4 25.4 0 0 1 7.497-4.894a21.6 21.6 0 0 1 8.538-1.77q11.764 0 16.66 8.434q3.23-4.373 7.759-6.403a24 24 0 0 1 9.944-2.031q4.686.002 8.59 1.458t6.717 4.425t4.373 7.393T512 43.11v40.61z"/></svg>