<svg xmlns="http://www.w3.org/2000/svg" xmlns:xlink="http://www.w3.org/1999/xlink" width="512" height="368" viewBox="0 0 512 368"><path fill="#F9AD00" d="M512 126.274v114.794H397.206V126.274zM512 0v114.794H397.206V0zM385.726 0v114.794H270.932V0zM259.452 0v114.794H144.658V0z"/><path fill="#4E4E4E" d="M385.726 252.548v114.794H270.932V252.548zm126.274 0v114.794H397.206V252.548zm-252.548 0v114.794H144.658V252.548zm126.274-126.274v114.794H270.932V126.274zM21.503 159.77q5.785 0 10.752 1.494q4.965 1.496 8.534 4.58q3.568 3.086 5.593 7.763t2.025 11.138q-.001 6.171-1.736 10.8q-1.736 4.628-4.918 7.762t-7.666 4.676t-9.98 1.543q-4.147 0-7.714-1.253v16.007l-.156.044q-.972.27-2.93.582q-2.12.338-4.34.338q-2.12 0-3.808-.29q-1.687-.288-2.845-1.156q-1.157-.868-1.735-2.363Q0 219.942 0 217.531v-46.285l.005-.343q.069-2.37 1.104-3.9q1.11-1.64 3.037-2.99q2.99-1.928 7.425-3.085q4.436-1.157 9.932-1.157m112.627 0q5.785 0 10.752 1.494q4.965 1.496 8.534 4.58q3.568 3.086 5.593 7.763t2.025 11.138q0 6.171-1.736 10.8q-1.736 4.628-4.918 7.762t-7.666 4.676t-9.98 1.543q-4.147 0-7.714-1.253v16.007l-.155.044q-.973.27-2.931.582q-2.12.338-4.34.338q-2.12 0-3.808-.29q-1.687-.288-2.845-1.156q-1.157-.868-1.735-2.363q-.579-1.494-.579-3.905v-46.285l.005-.343q.069-2.37 1.104-3.9q1.11-1.64 3.037-2.99q2.99-1.928 7.425-3.085q4.436-1.157 9.932-1.157m-54.288 0q10.896 0 16.778 4.773t5.882 13.259v30.181l-.168.049q-.969.264-2.87.53q-2.072.29-4.29.29q-2.122 0-3.81-.29q-1.686-.29-2.844-1.157q-1.157-.868-1.784-2.363q-.627-1.494-.626-3.905v-22.757l-.005-.31q-.084-2.752-1.683-4.077q-1.688-1.398-4.58-1.398q-1.929 0-3.81.482q-1.88.481-3.23 1.446v33.46l-.168.049q-.969.264-2.869.53q-2.073.29-4.29.29q-2.123 0-3.81-.29t-2.844-1.157t-1.784-2.363q-.627-1.494-.627-3.905V172.21l.005-.343q.069-2.37 1.104-3.9q1.11-1.64 3.037-2.99q3.279-2.313 8.245-3.76t11.04-1.446m141.266 0q3.664 0 7.184.964t6.267 3.038q2.749 2.073 4.388 5.496q1.64 3.423 1.64 8.34v30.375l-.17.049q-.968.264-2.868.53q-2.073.29-4.291.29q-2.122 0-3.81-.29q-1.686-.29-2.844-1.157q-1.157-.868-1.784-2.363q-.627-1.494-.627-3.905v-23.046l-.005-.316q-.086-2.649-1.634-3.879q-1.64-1.3-4.435-1.301q-1.35 0-2.893.626q-1.543.627-2.315 1.302q.097.386.097.723v32.737l-.184.049q-1.05.264-2.95.53q-2.073.29-4.195.29q-2.12 0-3.808-.29t-2.845-1.157t-1.784-2.363q-.627-1.494-.627-3.905v-23.046l-.005-.3q-.088-2.66-1.779-3.895q-1.784-1.3-4.29-1.301q-1.737 0-2.99.53t-2.121 1.013v33.845l-.169.049q-.968.264-2.869.53q-2.073.29-4.29.29q-2.123 0-3.81-.29t-2.844-1.157t-1.784-2.363q-.627-1.494-.627-3.905v-29.12l.005-.343q.069-2.364 1.104-3.804q1.11-1.543 3.037-2.893q3.279-2.314 8.149-3.76q4.869-1.447 10.173-1.447q3.953 0 7.762 1.109q3.81 1.109 6.605 3.326q2.893-1.928 6.51-3.182q3.615-1.253 8.726-1.253M22.082 172.596q-1.832 0-3.279.434q-1.446.433-2.507 1.012v21.214l.391.188q.991.455 2.116.776q1.35.386 2.893.386q9.932 0 9.932-11.86q0-6.172-2.459-9.161q-2.458-2.99-7.087-2.99m112.627 0q-1.832 0-3.279.434q-1.446.433-2.507 1.012v21.214l.391.188q.991.455 2.116.776q1.35.386 2.893.386q9.933 0 9.932-11.86q0-6.172-2.459-9.161q-2.458-2.99-7.087-2.99"/></svg>