<svg xmlns="http://www.w3.org/2000/svg" xmlns:xlink="http://www.w3.org/1999/xlink" width="256" height="256" viewBox="0 0 256 256"><g fill="#DD3735"><path d="M255.902 121.097c-.086-3.284-.26-6.654-.432-9.938c-.173-3.37-.26-6.74-.605-10.11c-.605-4.582-1.21-9.248-2.247-13.742c-.778-3.716-2.074-7.259-3.37-10.802c-1.642-4.149-3.284-8.383-5.358-12.358c-3.371-6.395-7.778-12.099-11.84-18.062c-2.68-3.803-6.135-6.914-8.728-10.802c-1.47-2.247-3.63-4.149-5.79-5.877c-3.457-2.765-7.087-5.272-10.716-7.69c-2.766-1.903-5.531-3.717-8.47-5.359c-2.333-1.297-4.84-2.334-7.26-3.457c-2.764-1.297-5.443-2.852-8.554-3.457c-.778-.173-1.47-.432-2.247-.69c-1.988-.693-3.89-1.47-5.877-2.075c-3.024-.95-5.962-2.075-9.074-2.852c-3.024-.778-6.135-1.297-9.246-1.729c-3.457-.518-7-.69-10.457-1.037c-2.247-.259-4.494-.518-6.655-.605c-3.283-.172-6.654-.172-9.938-.259c-1.642-.086-3.37-.259-5.012-.173c-2.506.087-5.012.346-7.52.692c-2.418.26-4.838.691-7.172 1.037c-2.851.345-5.703.518-8.555.864c-2.68.346-5.444.864-8.123 1.296c-.951.173-1.902.52-2.852.691c-2.074.433-4.235.606-6.31 1.297c-3.715 1.123-7.431 2.42-11.061 3.802c-3.37 1.383-6.654 2.852-9.851 4.581c-3.284 1.814-6.395 3.975-9.507 6.05c-2.938 1.986-5.876 4.061-8.728 6.308c-2.765 2.16-5.358 4.58-7.864 7c-1.383 1.382-2.506 3.024-3.803 4.58c-2.16 2.506-4.321 4.926-6.395 7.518C24.557 47.9 23 50.147 21.36 52.394c-2.94 3.975-5.445 8.21-7.778 12.444c-.951 1.728-1.815 3.457-2.68 5.185c-1.296 2.593-2.678 5.1-3.888 7.778c-.864 1.815-1.556 3.802-2.074 5.79a698.06 698.06 0 0 0-3.543 12.79C.36 100.183.1 104.16.014 108.048c-.087 3.456.259 6.827.605 10.284c.086.864-.432 1.901.605 2.592c.086 0 0 .346-.087.432c-.26.52 0 1.037.519 1.21c0 0 .086.087.086.173H1.31c-.26.778.605 1.383.259 2.247c-.086.173.26.518.432.778c0 .26-.086.605 0 .864c.087.778.433 1.555.433 2.42c0 .605.518 1.296.69 1.901c.087.26 0 .691-.172.864c-.518.605-.432 1.124.346 1.47c.173.086.432.431.432.604c0 .52-.173 1.037-.26 1.556c.173.173.26.345.173.518c0 .26-.26.52-.172.692c.69 1.382.95 2.938 1.037 4.493c0 .346.173.692.345 1.124c.087 0 .346 0 .519.086l-.52 1.556c.433-.26.779-.346 1.21-.519c.26 1.124.52 2.161.865 3.111c.087.173.26.346.519.52c-.087.172-.087.517-.26.604c.346 1.555.519 3.025 1.124 4.494c.087 0 .173-.087.259-.087c-.26-1.555-.432-3.197-.691-4.753v-.518s.173-.087.259-.087c.087.346.26.778.26 1.037c.69 0 1.728.432 2.419.432c.087-.259.173-.605.26-.777c-.52-.519-.951-1.297-1.47-1.815c.173.691 0 .95 0 1.21a16.628 16.628 0 0 0-1.21-.519c.346-.432.692-.864 1.21-1.383c0-.777-.432-1.469-1.642-1.382c.519-.173 1.038-.432 1.642-.605c.087.26.173.518.26.691c.69-1.21-.346-2.16-.346-3.37c.086-1.469-.778-2.938-1.037-4.494c-.432-2.42-.346-6.049-.605-8.469c0-.173-.26-.346-.432-.519c-.087.087-.52 1.21-.605 1.297c.259 2.074.518 4.148.69 6.222c-.085 0-.172 0-.172.086c-.345-1.815-.691-3.716-1.123-5.79c-.086.605-.173.864-.173 1.21c-.26-.086-.345-.173-.778-.346c.346.778.692 1.297.95 1.902c-.604-.26-1.295-.173-1.295-.173v2.42c-.864-.865-1.124-1.556-1.556-2.16c-.173-.692-.26-1.384-.432-2.075l.259-.087c-.086-.345-.26-.605-.26-.864a67.673 67.673 0 0 1-.258-2.074c.086-.086.432-.173.605-.345l-.692-1.037c.692.086 1.124.172 1.556.172c0-.172.086-.259 0-.345c-.864-.778-.26-1.47.086-2.16c.173-.347.778-.433.95-.779c.692-1.296 1.816-2.333 1.816-3.975c0-.778.259-1.642.345-2.42c.173-1.469.346-2.938.433-4.407c.172-1.9 0-3.803.432-5.617c.69-3.025 1.555-6.05 2.506-9.074c.69-2.16 1.469-4.235 2.333-6.395c1.297-3.37 2.506-6.74 4.148-9.939c2.334-4.666 5.013-9.16 7.605-13.74c1.642-2.852 3.37-5.53 5.185-8.297c1.729-2.679 3.457-5.444 5.445-7.95c2.765-3.543 5.79-6.827 9.16-9.766c3.457-3.11 6.74-6.308 10.457-9.16c4.84-3.716 9.938-7 15.383-9.852c4.407-2.333 8.987-4.148 13.568-5.877c2.938-1.123 6.135-1.64 9.16-2.592c3.457-1.124 6.914-1.642 10.543-1.729c2.334-.086 4.58-.345 6.914-.604c2.074-.173 4.148-.346 6.395-.605a3.809 3.809 0 0 0-.432.691c-.951 1.383-1.988 2.765-2.938 4.148c-.778 1.124-1.642 2.333-2.42 3.457c-1.383 1.815-2.852 3.63-4.148 5.531c-1.988 2.852-3.803 5.79-5.877 8.642c-2.074 2.765-4.321 5.358-6.481 8.037c-2.852 3.716-5.531 7.518-8.383 11.234c-2.593 3.544-5.358 6.914-7.864 10.457c-2.247 3.111-4.235 6.395-6.395 9.593c-3.198 4.753-6.395 9.42-9.593 14.172a817.832 817.832 0 0 1-7.605 10.803c-.173.26-.432.346-.691.518c-.173.173-.52.346-.52.52c-.171.604-.171 1.21-.431 1.727c-.691 1.297-1.382 2.593-2.16 3.803c-.432.691-1.037 1.296-1.556 1.987c-.173-.086-.26-.172-.432-.172c.346-.865 1.815-1.383 1.124-2.679c-.432.691-.865 1.296-1.297 1.987l-1.037 2.074c.346.26.95.432.346.951c-.26.432-.52.95-.778 1.383c.087 0 .087.086.173.086c.259-.346.519-.605.778-.95c.086 0 .173.086.259.086c-.26.864-.778 1.642-1.21 2.42c-.346.691-1.21 1.21-1.815 1.728c.087.086.692.346.778.432c.259-.346.346-.173.605-.518c.173.26.432-.173.519.086c.259-.346.518-.605.605-.864c.345-.864.864-1.556 1.728-1.9c.346-.174.605-.434.864-.693c2.593-2.679 5.272-5.27 7.605-8.123c3.63-4.408 6.914-8.988 10.37-13.482c1.47-1.9 3.198-3.802 4.753-5.617c.173.087.346.087.433.173c-.173 1.815-.346 3.716-.433 5.531c-.26 3.197-.432 6.395-.691 9.68c-.086 1.295 0 2.591-.086 3.888c0 .345-.26.604-.26.95c0 .864.26 1.815.26 2.68c-.26 3.197-.605 6.308-.865 9.505c-.086.692.26 1.383.433 1.988c-.087-.086-.173-.173-.433-.346c0 5.013.95 9.94.173 14.865c.346-.087.519-.173.519-.346c.086-.605.259-1.21.259-1.815c.087-.518 0-1.037 0-1.642v-.864c.087-1.556.432-3.198.259-4.753c-.172-1.729-.172-3.37.173-5.013c.173-.69-.086-1.555.346-2.419v1.296c-.087 4.926.086 9.852-.605 14.778c-.086.432.259 1.21-.691 1.123c-.087 0-.173.432-.346.692c-.432.864.518 1.987-.346 2.851c-.173.173.173.951.259 1.47c0 .172.087.345 0 .432c-.345.605-.345.605.173.691c.087 1.901.26 3.63.346 5.444h.259c1.124-3.284.432-6.654 1.037-10.024c.087 1.382.173 2.765.087 4.234c0 2.247-.087 4.408-.173 6.655c0 .432-.087.864-.173 1.296c-.26 1.21-.346 2.42-.778 3.543c-.345.864-.173 2.161-.173 3.198v3.283c0 .087.26.346.26.692c.086.778-.346 1.556-.087 2.42c.087.173-.086.432-.173.605c-.086.26-.172.518-.086.777l.259 1.297c0 .086.087.173.173.345c.087-.345.087-.605.087-.69c1.469.172.69 1.468 1.382 2.16c-.345.172-.605.26-.605.345c.087.346.26.605.26.951c0 .777-.087 1.47-.173 2.247c0 1.987-.087 3.975-.087 5.876c0 .26.087.52.087.778c0 .173-.087.346-.087.605v1.815h.346c-.173.26-.346.518-.605.777c-.086 0-.346 0-.346-.086v-10.889h-1.296c-.173 5.185.259 9.852-.691 14.691c-1.037.087-1.383.26-2.506.26c-2.68 0-5.358 0-8.037.086c-3.198 0-6.31.087-9.507.087c-1.555 0-3.197.172-4.753.172c-2.074 0-4.234-.259-6.308-.259c-3.198 0-6.31.26-9.506.346c-2.334.086-4.667.086-7 .173c-1.556.086-3.112.173-4.667.345c-.691.087-1.296.346-2.161.605c-.26 0-.864-.086-1.382 0c-.864.173-1.642.692-2.506.864c-1.297.26-1.642.605-1.47 1.902v.864a2.588 2.588 0 0 0-.605-.432c-.086 0-.172.086-.172.086c.086.26.259.432.345.692c.346-.173.778-.605 1.124-.605h1.21c-.173 0-.26.518-.52.95a66.78 66.78 0 0 0 1.557-.605c.086.26.086.605.086.692c1.21-.087 2.333-.432 3.37-.173c3.37.864 6.828 1.21 10.284 1.555c2.247.173 4.408.26 6.655.346c3.197.173 6.395.346 9.592.346c2.679 0 5.272-.259 7.95-.259c3.717 0 7.433.172 11.149.26c.778 0 1.642-.088 2.506-.088h6.309c5.617-.172 11.234-.259 16.852-.432c3.197-.086 6.48-.259 9.679-.345l9.85-.26c3.804-.086 7.606-.086 11.322-.173c2.852 0 5.618-.086 8.469-.172c3.198-.087 6.482-.346 9.679-.519c1.729-.086 3.457-.259 5.186-.432c2.074-.173 4.234-.432 6.308-.519c3.11-.172 6.309-.259 9.42-.432c3.889-.259 7.778-.605 11.753-.69c3.63-.174 7.346-.087 10.975-.174c3.198-.086 6.395-.259 9.679-.345l5.445-.26s3.629-.086 5.444-.259c3.11-.173 6.222-.519 9.333-.605c1.988-.086 3.976 0 5.963-.086c3.198-.087 6.482-.26 9.679-.26c1.21 0 2.507.173 4.062.26c-.691.605-1.123.95-1.642 1.382c.346.087.69.26 1.037.432c0 .087-.086.173-.086.346c-.432 0-.864.087-1.297.087c-.172.432-.345.604-.518 1.47h1.555c-.604 0-1.123.776-1.728 1.295c.087.086.173.086.259.173c-.95-.346-1.555-.173-1.901.778c.259.086.432.086.69.086c-.085.26-.171.52-.258.864c-.086.173-.173.346-.173.605l-.26-.259c0-.173 0-.346-.085-.519c-.52.52-1.297.865-.865 1.988c-.345.173-.777.346-1.21.605c.087.173.26.346.346.605c-.777.086-1.555.26-1.382 1.21c.345.086.69.26.95.345c-.432.173-.864.432-1.296.605c-.087.173-.173.605-.346.692c-1.21.26-.518.691-.173 1.123c-.26.173-.518.346-.777.432c.259.087.432.173.605.346c-.26.173-.433.26-.605.346c.172.086.432.26.518.26c-.346.258-.778.604-1.296 1.036c0 .173 0 .26.086.432c-.345.346-.691.691-1.037 1.21c-.345.518-.518 1.21-.95 1.728c-1.815 1.988-3.112 4.321-5.445 5.877c-.864.605-1.642 1.382-2.42 2.16c-1.555 1.47-2.938 3.111-4.58 4.494c-2.16 1.815-4.407 3.457-6.741 5.1c-2.851 1.986-5.703 3.974-8.555 5.875c-1.556 1.037-3.284 1.815-4.926 2.766c-1.642.95-3.197 1.815-4.84 2.765c-1.037.692-1.987 1.642-3.111 2.161c-2.852 1.21-5.876 2.247-8.814 3.37c-.26.086-.432.173-.692.26c-2.16.95-4.234 1.987-6.395 2.765c-1.988.691-4.061 1.21-6.136 1.642c-.691.173-1.47 0-2.246.086c-1.47.26-2.94.605-4.408.778c-3.802.52-7.605.864-11.407 1.383c-2.247.26-4.408.691-6.655.95c-1.555.087-3.197-.086-4.753-.086c-1.123 0-2.333.26-3.457.086c-1.814-.259-3.63-.69-5.444-1.037c-.432-.086-1.037-.259-1.383-.086c-.691.345-1.296-.173-1.987 0c-.432.086-.864-.259-1.297-.259c-.345-.087-.777.086-1.21 0c-.95-.26-1.814-.605-2.851-.519c-1.037.087-2.074-.432-3.198-.69c-1.555-.347-3.024-.693-4.58-1.038c-.605-.173-1.123-.432-1.728-.778c-.173.086-.433.26-.778.26c-1.47-.26-2.938-.346-4.321-.865c-1.21-.432-2.333-1.037-3.63-.864c-.345.086-.605-.087-.95-.087c-.26-.345-.52-1.037-.778-1.037c-1.73.087-2.766-1.382-4.235-1.814c-.778-.26-1.382-1.124-2.16-1.383c-1.901-.778-3.457-2.42-5.617-2.679c-.692-.087-1.383-.432-2.161-.692c.259.346.432.605.69.865l-.172.172c-2.333-1.382-4.666-2.765-7-4.06c-.345-.088-.604-.433-.864-.606l-2.333-1.556c-.26-.173-.778-.432-.778-.346c-.518.606-1.037.087-1.382-.086c-2.334-1.642-5.013-2.679-7.26-4.494c-.95-.777-2.074-1.296-2.765-2.247c-1.21-1.469-2.68-2.506-4.321-3.37c-1.296-.69-2.506-1.469-3.716-2.247c-.605-.432-1.21-.95-1.21-1.9c0-.606-.26-1.21-1.037-.865c-.346-.519-.691-1.124-1.123-1.297c-1.037-.432-1.73-1.209-2.507-1.9c-.777-.692-1.382-1.643-2.333-1.988c-1.728-.692-2.765-2.16-3.802-3.37c-2.42-2.853-4.581-5.964-6.828-8.989c-.172-.259-.518-.432-.777-.69l-.087.086c.432.864.864 1.642 1.297 2.506c-.087.086-.26.173-.346.26c-.52-.606-1.124-1.21-1.642-1.816c-.087.087-.173.173-.26.173l6.223 9.852c.518.778.95 1.555 1.469 2.333a1.17 1.17 0 0 1-.346.26c-.95-.173-1.814-.865-2.247-1.643c-.777-1.382-1.642-2.246-3.37-2.074c-.173-.605-.346-1.296-.432-1.9c-.346 0-.605 0-1.21-.087c1.21 1.901 2.247 3.543 3.37 5.444c-.432-.259-.691-.432-.864-.518c1.556 1.642 2.679 3.716 4.667 4.753c.432 1.987 2.679 2.938 3.197 4.84c-.432-.087-.777-.174-1.21-.26c-.691-.864-1.47-1.728-2.246-2.679c.172.605.432 1.123.777 1.556c1.037 1.296 1.988 2.592 3.198 3.716c.432.432 1.037.605 1.037 1.382c.173-.173.346-.259.69-.432c-.172.346-.258.52-.344.778c.345 0 .605.086.864.086c.173.52-.087 1.297.95 1.124c.087 0 .173.086.26.173c.432 1.123 1.123 1.123 2.074.691c.173-.086.605 0 .69.173c.433.95 1.038 1.037 1.816.346c0 .432.086.864.086 1.21h.346c0-.173-.086-.433-.086-.865c.432.346.69.52.864.692c.864 1.21 1.642 2.333 2.852 3.283c1.642 1.383 3.11 2.852 4.666 4.15c3.025 2.505 6.395 4.58 9.766 6.48c4.148 2.333 8.123 4.84 12.358 7.086c5.098 2.68 10.543 4.494 16.16 5.791c2.074.432 4.062.864 6.136 1.382c1.815.52 3.63 1.297 5.444 1.73c2.766.604 5.618 1.122 8.383 1.641c.605.086 1.21.173 1.9.26v.172c.779 0 1.73-.346 1.903-.087c.432.692.777.346 1.296.26c.605-.173 1.296-.173 1.987-.173c2.42.086 4.753.605 7.173.432c.519 0 1.297-.432 1.729.432c.173-.087.259-.173.432-.259c.345-.087.778-.087 1.123-.173v.173c-.173.086-.345.086-.691.173c.432.086.69.172.95.26c-.172.172-.26.172-.432.258c-.172.086-.432.173-.777.432c3.11.605 6.049.692 8.642 0v-.518h.345c0 .172.087.345.173.518c3.975.346 7.864-.173 11.58-1.469c.346.432.605 1.037 1.124.173c.173-.259.605-.346.95-.432c.778-.173 1.729-.519 2.42-.259c.778.26 1.037-.433 1.642-.433a16.14 16.14 0 0 0 2.938-.259c.519-.086 1.037-.346 1.642-.518c0-.087 0-.173-.086-.26c-.605-.086-1.296-.172-1.815-.172c1.037-.519 1.988-.95 2.938-1.383c0 .086.087.086.087.173c-.26.086-.432.432-.778.432h1.21c-.26 0-.605.778-1.037 1.296c3.11-.778 5.963-1.469 8.728-2.16v-.173c-.345.086-.605.086-.864.173c-.086-1.815 1.9-1.21 2.593-2.247c-.865.26-1.73.518-2.593.691v-.173c2.938-1.296 5.963-2.592 8.9-3.889c0 .087.088.087.088.173c-.52.346-1.037.605-1.815 1.037c.518.087.864.087 1.123.173c0 .26 0 .432-.086.52c1.469-.088 1.123-1.384 1.555-2.162c.26.086.605.26.865.173c.777-.173 1.469-.432 2.246-.69c.865-.26 1.729-.52 2.593-.866c1.383-.605 2.679-1.382 4.062-2.074c.259-.086.69 0 1.037 0c.259 0 .432-.173.605-.345c.345-.26.69-.778.95-.692c1.21.173 2.074-.259 2.42-1.382c.087 0 .087-.087.173-.087c.432-.345.864-.69 1.296-.95c1.902-1.038 3.716-2.074 5.618-3.112c.086-.086.259 0 .432 0c.259 0 .605 0 .777-.086c1.124-.519 2.16-1.123 3.198-1.728c-.26-.087 0-.173-.864-.26v-.173c.864-.172 1.123-.259 1.642-.432l-.173-.172c2.247-2.247 5.099-3.889 7.259-5.79c.432.086.605.172.864.172c.087-.259.087-.518.087-.69c.345-.433.69-.952 1.123-1.297c1.9-1.729 3.976-3.198 5.704-5.013c2.506-2.506 4.926-5.098 7.173-7.777c2.074-2.42 4.148-4.84 5.876-7.519c2.42-3.716 4.494-7.518 6.654-11.407c1.556-2.766 2.939-5.53 4.494-8.297c.173-.259.519-.604.778-.604c2.333-.26 4.667-.433 6.914-.692c.518-.086 1.123-.432 1.642-.69c-.26-.433-.433-.952-.692-1.384c-.345-.519-.864-.95-1.21-1.469c-.345-.432-.604-.95-.864-1.469c-.26-.432-.518-.778-.778-1.21c-.518-.95-1.037-1.9-1.47-2.938c-.085-.26-.258-.692-.172-.95c1.556-3.37 2.16-7 3.63-10.37c1.469-3.458 1.9-7.347 2.593-11.063c.605-3.543.95-7.086 1.382-10.63c.26-2.506.605-4.926.692-7.432c.518-3.975.345-7.69.259-11.407Zm-217.26 96.444c-.603-.69-1.122-1.469-1.727-2.16l.259-.26c.95 1.038 1.902 2.074 2.852 3.198c-.518-.259-1.123-.432-1.383-.778Zm1.384.778c.259-.086.519-.086.778-.173c.259.432.432.951.69 1.47c-1.21-.087-1.814-.606-1.468-1.297Zm89.876 35.691v-.259c1.642-.173 3.198-.346 4.84-.518v.26a45.946 45.946 0 0 1-4.84.517Zm21.778-2.247c-1.21.26-2.506.432-3.716.605c-.432.087-.95.52-1.123-.259c-.173.086-.346.086-.52.173c.433 1.296 1.47.26 2.334.778c-1.901.26-3.716.432-5.53.691v-.173c.518-.086 1.123-.173 1.642-.259v-.259c-.865-.087-1.73-.173-2.593-.173c-.26 0-.605.346-.864.432c-.346.086-.692.173-1.124.173c-1.47.086-2.938.086-4.321.173c-.086 0-.26-.087-.345-.087v-.259c5.79-.778 11.494-1.556 17.284-2.333c.086.172.086.345.172.518c-.518 0-.864.173-1.296.26Zm1.296-.864c1.988-.259 3.803-.432 5.704-.69c-3.975 1.122-5.271 1.295-5.704.69ZM77.705 76.42c2.766-3.803 5.617-7.606 8.383-11.495c.864-1.123 1.555-2.333 2.42-3.456c.259-.346.604-.519 1.037-.865l-.087-.172c.346-.433.69-.778.864-1.124c.432-.69.692-1.469 1.037-2.247c.087-.173.346-.345.346-.345c1.21.604 1.21-.692 1.642-1.124a61.142 61.142 0 0 0 2.247-2.679c.518-.69 1.037-1.296 1.469-2.074c.086-.259-.173-.69-.26-1.037h-.258c.259-.173.518-.432.777-.605c.087 0 .087 0 .173-.086c.519-.778 1.037-1.556 1.556-2.247c1.037-1.383 2.16-2.766 3.37-3.976c-.173.432-.346.865-.518 1.21c.086 0 .086.087.172.087c1.037-1.383 2.16-2.679 3.198-4.062c-.087-.086-.173-.173-.26-.173c-.431.432-.777.864-1.21 1.296c-.086-.086-.172-.172-.26-.172c.866-1.124 1.73-2.247 2.594-3.544c.173.26.346.605.69 1.297c.347-.865.693-1.47.952-2.074c-.26.26-.605.518-.864.777l-.26-.259l1.556-2.333c1.642-2.334 3.284-4.753 4.926-7.087c.605-.864 1.383-1.555 1.9-2.419c1.643-3.284 4.236-5.877 6.223-8.902c.433-.604 1.037-1.123 1.556-1.642c.432-.518.778-.345 1.124.087c2.333 2.938 4.666 5.963 6.999 8.901c1.729 2.161 3.457 4.235 5.099 6.481c1.988 2.766 3.889 5.531 5.877 8.297c2.247 3.197 4.494 6.395 6.654 9.68c3.284 4.838 6.395 9.678 9.679 14.517c2.42 3.544 4.84 7 7.173 10.544h-4.408c-4.061-.087-8.21-.433-12.271-.26c-5.531.26-11.148.864-16.68 1.296c-7 .605-14.086.692-21.085.692c-2.507 0-5.013.345-7.52.518c-3.024.173-5.962.346-8.987.433c-3.543.172-7 .26-10.543.345c-1.987.087-4.062 0-6.222 0Zm99.123 39.752v.778c-.086 0-.173.086-.346.086c-.345-1.21-.691-2.506-1.123-3.716c-.864-2.506-1.815-5.012-3.37-7.259c-1.73-2.42-3.284-4.926-5.013-7.432c-.432-.605-1.037-1.124-1.555-1.642c-1.815-1.988-3.63-4.062-5.963-5.53a70.75 70.75 0 0 0-10.803-5.532c-1.037-.432-1.987-.95-3.024-1.555h2.074l14.778-.259c3.197-.087 6.308-.087 9.506-.26c.778 0 1.21.26 1.642.951c.778 1.296 1.555 2.592 2.419 3.89c.087.171.26.431.26.69c0 1.901 0 3.89.086 5.79c.087 1.988.259 3.89.346 5.877c0 1.987-.173 4.061-.087 6.135c.087 2.94.173 5.963.173 8.988ZM83.84 87.221c4.062-.173 7.95-.433 11.926-.605c3.11-.173 6.308-.26 9.419-.432c1.297-.087 2.507-.173 3.803 0c-1.383.691-2.765 1.382-3.975 2.247c-1.556 1.036-3.025 2.42-4.581 3.543c-1.555 1.123-2.938 2.506-4.234 3.975c-1.642 1.988-3.457 3.716-5.185 5.617c-1.21 1.383-2.593 2.68-3.63 4.148c-1.47 1.902-2.765 3.976-4.148 6.136c.432-8.21.95-16.333.605-24.629Zm56.432 83.135c-2.766.691-5.617 1.47-8.47 1.815c-2.42.346-4.925.26-7.431.26c-2.247 0-4.408-.087-6.655-.26c-2.506-.259-5.012-.519-7.432-1.642c-2.074-.95-4.234-1.815-6.308-2.852s-4.15-2.247-5.704-4.148c-1.124-1.383-2.68-2.506-4.062-3.716a4.073 4.073 0 0 0 1.815 2.506c-.432.52-1.037.26-1.901-1.123c-.26.172-.52.26-.692.345c.26-.605.519-1.209.778-1.728c-.345-.69-.778-1.469-1.123-2.16a70.764 70.764 0 0 1-1.988-3.457c-.173-.26-.173-.519-.346-.778c-.432-.519-.864-1.037-1.21-1.556c-.691-1.037-1.296-2.16-2.16-3.197c0 .26.086.518.086.864c-.086 0-.172.086-.172.086l-1.815-4.407c-.087 0-.087 0-.173.087l1.556 5.703c-.087 0-.173.087-.26.087c-.26-.346-.518-.692-.691-1.124c-.173-.69-.691-.69-1.124-.432c-.26.173-.432.778-.345 1.037c.605 1.47 1.296 2.938 1.987 4.408c.173.518.346.95.605 1.47c.087.172.346.344.346.604c.346.691.605 1.382 1.037 1.987c.778 1.037 1.642 2.074 2.42 3.111c.778 1.037 1.469 2.161 2.16 3.198c.087.173.346.173.432.26c.433 1.295 1.902 2.246 2.939 1.728c.259 1.987 2.419 2.68 3.284 4.58a39.795 39.795 0 0 1-2.507-1.124c-.086.087-.086.173-.172.346c1.037.518 2.074 1.037 3.024 1.642c.864.518 1.729 1.037 2.506 1.642c1.038.95 2.247 1.47 3.717 1.815c-.087-.26-.173-.346-.173-.346a277.903 277.903 0 0 1 6.827 3.284c-8.988.173-18.58.346-28.52.518c0-1.642-.085-3.197-.085-4.839c0-.69.173-1.296.086-1.988c-.26-3.975-.26-7.95-.777-11.839c-.52-4.148-.52-8.21-.432-12.358c.086-2.247-.087-4.58-.173-6.827c0-3.025 0-5.963.086-8.988c0-.432.173-.778.346-1.21h.259c.086.173 0 .432.173.52c.259.258.69.69.864.604c.519-.346 1.296-.692 1.469-1.21c.432-1.037.605-2.16.605-3.198c0-.777.346-1.296.69-1.815c.174-.259.26-.518.434-.864c-.346-.259-.692-.432-1.124-.777c.346-.95.259-2.075 1.556-2.593c.173-.087.173-.519.259-.778c.086-.69.173-1.469.259-2.16c.173.26.259.345.432.518c.087-.173.173-.259.173-.259c0-.346-.086-1.037 0-1.037c1.037-.173.605-1.296 1.124-1.815c.086-.086-.087-.346-.087-.518c0-.173 0-.433.087-.433c1.209-.259 1.037-1.555 1.814-2.16c.26-.173.346-.432.692-.864c.69 1.21-.52 1.815-.605 2.68c1.469-.865 1.9-2.939 1.037-3.544c.346-.26.69-.605.95-.95c.95-1.038 1.988-1.989 2.852-3.026c.605-.778.95-1.728 1.556-2.506c.346-.432 1.037-.778 1.555-1.037c1.556-.864 3.025-1.815 3.976-3.284c.173-.173.432-.346.69-.518c.26-.173.779-.173.865-.433c.087-.172-.173-.604-.346-.864c.346-.173.692-.518 1.383-.864c-.26.52-.345.864-.518 1.21l.432.432c.778-.605 1.988-1.296 2.765-1.815c0-.086-.432-.432-.432-.432c-.518.26-1.296.692-2.074 1.037c.173-.259.173-.432.259-.518c1.21-.778 2.42-1.556 3.716-2.16c3.025-1.384 6.05-2.766 9.074-4.063c.519-.259 1.21-.086 1.815-.086c.259 0 .432 0 .692-.086c1.382-.432 2.765-.864 4.148-1.21a7.19 7.19 0 0 1 1.9-.259c2.594.086 5.186.086 7.779.26c1.123.085 2.16.345 3.197.69c1.297.432 2.679 1.037 3.889 1.642a42.747 42.747 0 0 1 4.235 2.593c2.506 1.642 4.839 3.456 7.345 4.926c2.42 1.47 4.32 3.456 5.877 5.703c1.9 2.68 4.062 5.1 4.926 8.383l1.296 5.704c.259 1.037.864 2.074.605 3.284c-.432 2.16-.778 4.407-1.123 6.568c-.173.864-.346 1.728-.26 2.592c.173 2.68-.864 5.012-1.901 7.432c-.346.778-.864 1.556-1.296 2.42c.086.086.605.346.69.346l.779-1.556c.086 0 .086 0 .173.087c-.432 1.21-.778 2.506-1.21 3.716c-1.037 2.68-2.074 5.444-3.37 8.037c-.692 1.47-1.902 2.68-2.766 4.061c-.864 1.21-1.555 2.506-2.42 3.63c-.777.951-1.555 1.901-2.592 2.593c-2.334 1.728-4.753 3.456-7.26 4.84c-1.555.95-3.37 1.468-5.098 1.9Zm-46.062-4.58l-.086.086c-.173-.086-.432-.173-.605-.345l-2.074-3.11c-.173-.26-.26-.52-.173-.866a73.511 73.511 0 0 0 2.938 4.235Zm53.753 11.84c3.889-1.643 7.087-3.976 10.025-6.655c.432-.432.864-.864 1.383-1.21c3.629-2.247 6.308-5.358 8.728-8.815c2.765-3.975 4.58-8.469 6.827-12.703c.173-.346.346-.692.519-.95c-.173 9.851.95 19.53 2.246 29.295c-9.765.346-19.703.692-29.728 1.037Zm87.63-2.593c-.087.173-.26.345-.346.518c-.087-.173-.087-.432-.173-.777c-.52 1.382-1.642.691-2.42.691c-4.666.086-9.42.086-14.086.086c-4.494 0-9.074 0-13.568.087c-1.47 0-3.025.345-4.494.432c-3.543.173-7.086.26-10.63.345c-.26 0-.518-.432-.95-.777c-.086.173-.26.432-.52.777c-.085-.172-.258-.345-.431-.604a5.98 5.98 0 0 1-.26.691h-.258c-.173-1.21-.52-2.333-.52-3.543c0-2.593.26-5.185.347-7.778c.086-1.21 0-2.333 0-3.457c.346.26.605.432.95.692c.173-.346.346-.605.519-.865c0 0-.173-.086-.346-.259c.173-.086.346-.259.346-.345c.087-.26.259-.519.259-.692c0-.605-.172-1.123-.26-1.642c.088 0 .174 0 .26-.086l.519 2.592h.259c-.345-.605.778-1.123-.173-1.815c-.086-.086.087-.605.087-.864c-.26-.518-.432-1.037-.692-1.728c.087-.086.346-.173.605-.259c-.345-.173-.605-.346-.864-.433c.864-.777.864-1.209.087-2.074c.172-.086.345-.086.345-.172c0-.778 0-1.556-.173-2.334c-.172-.864.26-1.9-1.037-2.419a2.6 2.6 0 0 0 .346.691s-.26.086-.52.26c-1.122-1.038-.431-2.42-.69-3.976c.605.173 1.037.346 1.469.518c-.173-.604-.605-1.296-.864-2.074h-.346v-5.703c0 .086.605.086.95.172c0-.086.087-.172.087-.259c-.26-.346-.605-.69-.95-1.123l.173-.173c-.692-.864-.346-2.074-.346-2.333v-6.05c.864.864-.432 1.988.864 2.506v-.864h-.086c-.087-1.296-.087-2.592-.173-3.889h-.173c-.086.173-.086.26-.173.432h-.173c.173-6.827.346-13.654.519-20.654c.864 1.124 1.815 2.161 2.42 3.284c1.987 3.63 4.58 6.741 7 10.025c2.074 2.852 3.975 5.963 5.876 8.901c2.333 3.543 4.58 7.086 6.914 10.63a253.707 253.707 0 0 0 5.358 7.95c1.642 2.333 3.37 4.58 5.099 6.827c1.469 1.988 3.024 3.976 4.493 5.963c1.729 2.42 3.457 4.84 5.186 7.173c.864 1.21 1.814 2.42 2.765 3.63c.518.691 1.296 1.21 1.815 1.642c-.087 0-.173 0-.346-.087c.259.346.432.605.605.778c.95.518 1.037 1.037.519 1.815ZM240 153.418v-.605c0 .173.086.432 0 .605Zm2.938-38.11c-.086 0-.605-.52-.691-.606c-.087.26 0 .518-.173.864c-.086-.259-.691-.173-.691-.432c-.087 1.21.518 2.42.432 3.63c.259-.173 1.296-.26 1.555-.519c.087.087.259.173.346.173c-1.728 1.296-1.296 2.593-.52 4.062c.174.345.693 1.037.174 1.728c-.173.173.087.692.173 1.124h.259v.172l-.777.26c-.173-.26-1.21-.778-1.21-1.21v4.407c.864.26.864 1.47 1.21 2.074c.172-.259.259-.432.345-.69l.087.085c-.087.52-.173 1.037-.346 1.556c-.173.778-.346 1.47-.432 2.247c0 .086.173.26.173.345c-.951 2.161-.432 4.581-.778 6.828c-.26 1.642 0 3.37-.173 5.098c-.173 1.47-.518 3.025-.864 4.494c-.086.26-.26.346-.691.52c.172-1.038.086-1.73-.087-2.68c-.086 0-1.21-.605-1.296-.605c0 1.21.69 2.852.95 4.234c-.26-.086-1.296-.69-1.382-.69c-.173 1.036-.173 2.42-.26 3.542c-.086.864-.864 1.642-.95 2.593c0 .518.605.864.518 1.728h.692c0-1.728.778-3.284.778-5.099h.259c.086.173.346.346.259.433c-.173.95-.518 1.987-.432 2.938c0 .518.432 1.037.259 1.642c-.173.518-.26 1.037-.345 1.814c-.087-.432-.173-.604-.173-.864c-.087 0-.864-.086-.951-.086c-.086.518.605 1.037.519 1.47c-.087.086-.173.086-.346.172l-2.852-4.148c-2.247-3.284-4.494-6.568-6.741-9.938a20.627 20.627 0 0 1-1.555-2.593c-2.68-4.58-5.617-8.988-8.901-13.222c-2.507-3.198-4.494-6.655-6.828-10.025c-2.16-3.197-4.321-6.309-6.481-9.506c-.778-1.037-1.728-1.988-2.42-3.11c-2.247-3.544-4.234-7.174-6.481-10.717c-1.901-2.939-3.976-5.79-5.963-8.642a92.195 92.195 0 0 1-2.074-3.025c-.087-.173-.173-.346-.173-.605c-.173-1.9-.346-3.802-.432-5.617c0-1.729.173-3.457.173-5.272v-1.555c0-.432.086-.778.086-1.21c.086-.087.173-.259.259-.346c-2.506 0-5.098-.086-7.605 0c-1.641.087-2.506-.605-3.63-1.814c-3.283-3.717-5.703-7.95-8.555-11.926c-2.68-3.803-5.444-7.519-8.21-11.235c-2.246-3.025-4.493-5.963-6.74-8.988c-2.506-3.456-4.926-6.913-7.52-10.37c-3.11-4.148-6.307-8.296-9.505-12.444c-1.47-1.902-3.111-3.716-4.753-5.704c1.123.173 2.16.346 3.198.432l4.148.26c3.11.26 6.222.431 9.333.863c2.593.346 5.185.865 7.864 1.297c5.704.95 11.32 2.506 16.766 4.321c3.197 1.037 6.308 2.42 9.419 3.716c7 2.852 13.655 6.308 20.222 9.938c2.075 1.123 3.284 2.938 4.84 4.58c2.247 2.334 4.494 4.667 6.654 7.087c2.506 2.852 4.84 5.79 7.259 8.728c2.16 2.593 4.408 5.185 6.568 7.778c.692.778 1.21 1.728 1.815 2.592c1.383 2.074 2.938 4.062 4.148 6.31c.865 1.641 1.383 3.542 1.988 5.357c.864 2.68 1.728 5.272 2.593 7.951a71.016 71.016 0 0 1 1.555 6.135c.346 1.383.259 2.852.69 4.235c.52 1.815 0 3.802.52 5.617c.086.173.173.432.259.605c.346.346.605.691.087 1.21c-.087.086-.087.432 0 .691c.172-.172.259-.345.432-.605c0 .173.086.26.086.346c0 .346-.086.691 0 1.037c0 .173.173.432.259.605c.173-.173.346-.259.692-.518c.777 2.938.864 5.876.864 8.901c0 2.852.518 5.703-.691 8.47c.259-.952-.346-1.816-.087-2.68Z"/><path d="M188.001 149.197c.086 0 .173.087.173.087l-.087-.087c0-.086 0-.086-.086 0Zm13.654 85.383c-.95.691-1.901 1.296-3.111 1.555c-.086-.086-.086-.173-.173-.259c.951-.605 1.988-1.21 2.939-1.815c.086.173.259.346.345.519ZM39.619 117.481c.95-1.21 1.901-2.42 2.938-3.629c.086.086.778.259.864.345c-.95 1.21-2.247 2.852-3.197 4.148c-.173-.172-.432-.777-.605-.864Zm-24.543 42.346c-.692-1.469-1.383-3.025-2.074-4.494c.086-.086.691-.346.777-.346c.951 1.383 1.383 3.025 2.074 4.494c0 0-.691.346-.777.346Zm22.037-41.482c-.519.778-1.037 1.642-1.556 2.42c-.086-.086-1.037.346-1.123.259c.518-.777 1.814-2.16 2.333-2.938c.086.087.173.173.346.259Zm155.295 119.778c.087 0 .087-.087.173-.087c.605.087 1.297.173 1.988.173c-1.124.778-1.815.692-2.161-.086ZM37.285 121.975c.087-.259.26-.519.432-.778c.173 0 .433-.086.433-.086c.345-.605.345-1.037.691-1.556c-.086-.086-.173-.086-.259-.173c-.519.346-1.037.778-1.556 1.124c.173.173.173.259.173.432c-.691-.086-.951.259-1.296 1.21c-.087.259-.519.345-.951.691c-.086.173-.173.605-.346 1.037l.087.087a1.279 1.279 0 0 1-.432.259c-.519.518-1.124.951-1.642 1.469c-.087.259-.173.519-.173.778c.605-.605 1.642-1.729 2.42-2.42l.086.086c.346-.518.605-1.037.951-1.555c.086.086.086.173.173.259c-.26.691-.519 1.469-.778 2.161c-.173.086-.432.259-.432.173c-.346.259-.605.604-.951.864l-1.555 1.037c-.865.778-1.729 1.469-2.679 2.247c-.605.95-1.21 1.814-1.902 2.938c1.037-.259 1.297.173 1.21 1.037c1.21.173 1.296-.778 1.642-1.469c.087-.173.173-.519.346-.605c.778-.691 1.642-1.296 2.506-1.988c.173-.173.173-.518.173-.778c0-.086-.432-.086-.691-.172c.777-.865 1.901-2.334 2.679-3.284c.432-.26.864-.605.864-.865c-.087-.95.518-1.209 1.209-1.555c-.345-.259-.432-.519-.432-.605Z"/><path d="M39.014 121.024c-.346.605-.691 1.124-1.037 1.729l-.519-.26c-.345 1.988-1.555 3.717-2.765 4.062c.346.173.691.346.951.259c.259-.086.432-.518.604-.777l2.334-3.371l.778-1.296l-.346-.346Zm-28.778 37.938c.432 0 .864.087 1.383.087c0-.346.432-.259.432-.605h.259c0 .432.087.778.087 1.21h-1.815c-.087-.087-.432-.605-.346-.692Zm-.691-3.975c-.259-.259-.692-.518-.692-.778c-.086-.345.173-.777.433-1.209c.172.604.259 1.123.432 1.728c-.087.086-.173.173-.173.259Zm2.16-5.531c.346.865.692 1.815 1.037 2.679c-.086 0-.605.26-.691.346c-.346-.864-.778-1.815-1.123-2.679c.086-.086.604-.346.777-.346Zm192.37 82.618c.432-.173.951-.26 1.642-.433c-.778.605-1.383 1.037-1.901 1.556c-.087-.087-.173-.173-.259-.173c.172-.346.345-.605.518-.951v.001ZM97.866 49.469c.518-.346.95-.605 1.469-.951l.173.173c-.519.692-.951 1.383-1.556 2.247c-.086-.605-.086-.951-.173-1.383c-.086 0 0 0 .087-.086Zm25.32 43.728c.778-.345 1.556-.691 2.507-1.123c-.087.518-.087.864-.087 1.21c-.259-.087-.605-.173-.864-.173c-.518.086-1.469.778-1.901.864c-.087 0 .345-.691.345-.778Zm64.815 73.284c.173.864 1.815 1.296.173 2.16c.259.173.518.26.778.433c0 .086-.087.259-.173.345c-.173.087-.519.26-.692.173c-.086 0-.259-.346-.259-.518c0-.778.087-1.556.173-2.593Z"/></g></svg>