<svg xmlns="http://www.w3.org/2000/svg" xmlns:xlink="http://www.w3.org/1999/xlink" width="512" height="156" viewBox="0 0 512 156"><path fill="#FF6C37" d="M293.909 52.906c2.718 0 5.359.388 7.922 1.165c2.485.854 3.806 1.941 3.806 3.262c0 .699-.233 1.398-.7 2.02c-.31.62-1.009 1.087-1.708 1.087c-1.01-.311-2.02-.7-3.029-1.165c-1.942-.855-4.039-1.32-6.213-1.243c-2.253-.078-4.583.466-6.525 1.63c-1.708 1.166-2.64 3.185-2.485 5.282c-.078 1.942.7 3.806 2.175 5.049c1.63 1.32 3.495 2.407 5.514 3.029c2.175.776 4.35 1.63 6.524 2.64a14.52 14.52 0 0 1 5.437 4.738a14.888 14.888 0 0 1 2.252 8.31c0 4.583-1.32 8.078-4.038 10.408c-2.952 2.485-6.757 3.728-10.64 3.495c-3.496.078-6.99-.777-10.02-2.485c-2.796-1.864-4.194-3.495-4.194-5.126c0-.777.31-1.476.777-2.097c.388-.544.932-.932 1.63-1.01a2.4 2.4 0 0 1 1.554.854c.621.544 1.243 1.165 1.942 1.864a8.827 8.827 0 0 0 3.184 1.864c1.553.622 3.262.855 4.893.855c2.486.155 4.893-.622 6.835-2.097c1.709-1.554 2.64-3.884 2.485-6.214c.078-2.252-.699-4.35-2.252-5.98c-1.553-1.554-3.417-2.719-5.514-3.495c-2.175-.777-4.272-1.631-6.525-2.563c-2.174-.932-4.038-2.33-5.514-4.194c-1.553-2.097-2.408-4.66-2.252-7.301c-.078-2.097.388-4.194 1.32-6.136c.777-1.63 2.02-2.951 3.573-3.883c1.475-.855 3.029-1.476 4.66-1.942c1.708-.388 3.417-.621 5.126-.621Zm-39.766 3.65c2.64 2.33 3.961 6.058 3.961 11.029v20.116c0 5.048-1.32 8.699-3.961 11.029a17.247 17.247 0 0 1-20.97 0c-2.563-2.33-3.884-5.98-3.884-11.03V67.586c0-5.048 1.32-8.699 3.884-11.029a17.475 17.475 0 0 1 20.97 0Zm191.917-3.495c1.864 0 3.03.621 3.417 1.942l13.748 44.27v.389c0 .699-.466 1.32-1.088 1.63a3.853 3.853 0 0 1-2.485.622c-.854.078-1.709-.388-2.02-1.243l-2.95-9.786h-17.554l-2.951 9.786c-.233.855-1.165 1.398-2.02 1.32a4.047 4.047 0 0 1-2.252-.698c-.699-.31-1.087-.932-1.087-1.709c0-.155.077-.388.155-.544l13.67-44.037c.388-1.32 1.553-1.942 3.417-1.942Zm-69.28 0c1.787 0 3.262 1.165 4.505 3.573L391.77 76.75l10.563-20.116c1.32-2.33 2.796-3.573 4.505-3.573c1.32-.233 2.563.7 2.796 2.02a1.07 1.07 0 0 1 0 .698v44.038c0 .621-.31 1.165-.854 1.476a4.003 4.003 0 0 1-3.962 0a1.665 1.665 0 0 1-.854-1.476V64.79l-10.097 18.95c-.31.933-1.165 1.632-2.174 1.632a2.426 2.426 0 0 1-2.097-1.631L379.499 64.4v35.417c0 .621-.31 1.165-.855 1.476c-.543.388-1.242.621-1.864.621c-.699 0-1.398-.155-1.941-.544c-.622-.233-1.01-.854-.932-1.475V55.857c-.233-1.32.699-2.563 2.02-2.796c.31-.078.62-.078.853 0Zm108.58-.078c.854 0 1.709.311 2.408.855c.776.776 1.475 1.708 1.864 2.718l16.698 32.62v-34.25c0-.622.31-1.166.855-1.399a4.003 4.003 0 0 1 3.96 0c.544.31.855.854.855 1.398v44.97c0 .621-.31 1.165-.854 1.475c-.622.389-1.243.544-1.942.544a3.954 3.954 0 0 1-3.495-2.563l-17.553-33.63v34.174c0 .621-.31 1.165-.777 1.475a4.003 4.003 0 0 1-3.96 0a1.665 1.665 0 0 1-.855-1.475v-44.97c0-1.32.932-1.942 2.796-1.942Zm-302.516 0h12.66c3.728-.155 7.456 1.088 10.33 3.495c2.563 2.33 3.883 5.98 3.883 10.952v.621c0 4.97-1.32 8.699-3.961 11.029c-2.951 2.407-6.68 3.728-10.485 3.495h-9.01v17.32c0 .621-.31 1.165-.854 1.475a4.003 4.003 0 0 1-3.961 0a1.665 1.665 0 0 1-.854-1.475v-44.97c0-.544.233-1.01.62-1.398c.467-.388 1.01-.621 1.632-.544Zm169.937 0c.621 0 1.165.233 1.476.777c.388.466.543 1.087.543 1.709c0 .621-.155 1.32-.543 1.864c-.31.543-.855.776-1.476.776h-10.64v41.786c0 .621-.311 1.165-.855 1.475a4.003 4.003 0 0 1-3.96 0a1.665 1.665 0 0 1-.855-1.475V58.109h-10.796c-.621 0-1.165-.233-1.476-.776c-.388-.544-.621-1.165-.621-1.864c0-.622.155-1.243.544-1.709c.31-.544.854-.777 1.475-.777h27.184Zm-109.046 5.049c-5.825 0-8.698 3.107-8.698 9.475l-.078 20.194c0 6.291 2.874 9.475 8.776 9.475c2.408.156 4.738-.699 6.525-2.33c1.708-1.941 2.485-4.504 2.33-7.145V67.507c.233-2.563-.622-5.126-2.33-7.145c-1.787-1.631-4.117-2.486-6.525-2.33Zm202.325 3.184l-7.534 25.01h14.99l-7.456-25.01ZM195.27 58.11h-9.009l-.077 19.806h9.087c2.407.155 4.815-.7 6.524-2.408a9.515 9.515 0 0 0 2.33-7.145v-.777c.233-2.563-.621-5.126-2.33-7.145c-1.786-1.631-4.117-2.486-6.524-2.33Zm-40.542 29.436c5.437-42.562-24.62-81.474-67.105-86.91C45.14-4.802 6.073 25.255.635 67.74c-5.436 42.485 24.621 81.474 67.105 86.988c42.562 5.437 81.474-24.62 86.988-67.182Z"/><path fill="#FFF" d="M105.72 49.876L72.943 82.652L63.7 73.409c32.232-32.232 35.417-29.436 42.018-23.533Z"/><path fill="#FF6C37" d="M72.944 83.428a.705.705 0 0 1-.544-.233l-9.32-9.242a.75.75 0 0 1 0-1.087c32.776-32.776 36.193-29.67 43.105-23.456c.156.155.233.31.233.544a.705.705 0 0 1-.233.543L73.41 83.195c-.078.156-.311.233-.466.233ZM64.788 73.41l8.156 8.155l31.61-31.61c-5.747-5.126-9.63-6.68-39.766 23.455Z"/><path fill="#FFF" d="m82.341 92.05l-8.931-8.932l32.775-32.776c8.777 8.854-4.349 23.223-23.844 41.708Z"/><path fill="#FF6C37" d="M82.341 92.826a.705.705 0 0 1-.543-.233l-8.932-8.932c-.155-.155-.155-.31-.155-.543c0-.233.077-.389.233-.544l32.775-32.776a.75.75 0 0 1 1.088 0a9.456 9.456 0 0 1 3.029 7.223c-.156 8.622-9.942 19.573-26.873 35.572c-.233.156-.466.233-.622.233Zm-7.844-9.708c4.97 5.048 7.068 7.068 7.844 7.844c13.049-12.427 25.708-25.164 25.786-33.94c.078-2.02-.699-4.04-2.02-5.593l-31.61 31.689Z"/><path fill="#FFF" d="m63.856 73.642l6.602 6.602c.156.155.156.31 0 .466c-.077.078-.077.078-.155.078l-13.67 2.951c-.699.078-1.32-.388-1.475-1.087a1.148 1.148 0 0 1 .31-1.01l7.922-7.922c.156-.155.389-.233.466-.078Z"/><path fill="#FF6C37" d="M56.4 84.516c-1.165 0-2.019-.932-2.019-2.097c0-.544.233-1.088.621-1.476l7.922-7.922a1.181 1.181 0 0 1 1.554 0l6.602 6.602c.466.388.466 1.087 0 1.553c-.156.155-.311.233-.544.31l-13.67 2.952c-.155 0-.31.078-.466.078Zm7.223-10.02l-7.611 7.612c-.155.155-.233.388-.078.621c.078.233.311.311.544.233l12.815-2.796l-5.67-5.67Z"/><path fill="#FFF" d="M123.04 31.702c-4.971-4.816-12.971-4.66-17.787.388c-4.815 5.048-4.66 12.97.389 17.786a12.55 12.55 0 0 0 15.223 1.709l-8.854-8.854l11.028-11.03Z"/><path fill="#FF6C37" d="M114.34 54.148c-7.378 0-13.358-5.98-13.358-13.36c0-7.378 5.98-13.358 13.359-13.358c3.417 0 6.757 1.32 9.242 3.728c.155.155.233.31.233.544a.705.705 0 0 1-.233.543l-10.485 10.486l8.233 8.232a.75.75 0 0 1 0 1.088l-.156.155a13.174 13.174 0 0 1-6.834 1.942Zm0-25.087c-6.524 0-11.805 5.281-11.727 11.806c0 6.524 5.281 11.805 11.805 11.727c1.787 0 3.573-.388 5.204-1.242l-8.155-8.078a.705.705 0 0 1-.233-.543c0-.233.077-.389.233-.544l10.407-10.408c-2.097-1.786-4.737-2.718-7.533-2.718Z"/><path fill="#FFF" d="m123.272 31.935l-.155-.156l-11.106 10.952l8.776 8.776c.854-.544 1.709-1.165 2.408-1.864a12.447 12.447 0 0 0 .077-17.708Z"/><path fill="#FF6C37" d="M120.865 52.361a.705.705 0 0 1-.544-.233l-8.854-8.854a.705.705 0 0 1-.233-.543c0-.233.077-.389.233-.544l11.029-11.029a.75.75 0 0 1 1.087 0l.233.155c5.204 5.204 5.204 13.592.078 18.874c-.777.776-1.631 1.475-2.563 2.019c-.233.078-.389.155-.466.155Zm-7.767-9.63l7.844 7.844c.622-.388 1.243-.932 1.709-1.398c4.427-4.427 4.66-11.65.388-16.31l-9.941 9.864Z"/><path fill="#FFF" d="M107.04 51.274a4.781 4.781 0 0 0-6.757 0l-29.281 29.28l4.893 4.894l30.99-27.184c2.019-1.709 2.174-4.738.465-6.757a1.063 1.063 0 0 1-.31-.233Z"/><path fill="#FF6C37" d="M75.817 86.225a.705.705 0 0 1-.543-.233l-4.893-4.894a.75.75 0 0 1 0-1.087l29.28-29.28a5.532 5.532 0 0 1 7.845 0a5.532 5.532 0 0 1 0 7.844l-.233.233l-30.99 27.184c-.077.155-.233.233-.466.233Zm-3.728-5.67l3.806 3.805l30.446-26.717c1.708-1.398 1.864-3.961.466-5.67c-1.398-1.709-3.961-1.864-5.67-.466a1.072 1.072 0 0 1-.31.233L72.088 80.555Z"/><path fill="#FFF" d="M48.556 113.874c-.31.156-.466.466-.388.777l1.32 5.592c.31.777-.155 1.709-1.01 1.942c-.621.233-1.32 0-1.708-.466l-8.544-8.466L66.11 85.37l9.63.155l6.525 6.525c-1.554 1.32-10.951 10.407-33.708 21.824Z"/><path fill="#FF6C37" d="M47.935 122.961c-.622 0-1.243-.233-1.631-.699l-8.466-8.465a.705.705 0 0 1-.233-.544c0-.233.077-.388.233-.544L65.72 84.826a.839.839 0 0 1 .543-.233l9.631.156c.233 0 .388.077.544.233l6.524 6.524a.882.882 0 0 1 .233.621c0 .233-.078.389-.31.544l-.545.466c-8.232 7.223-19.417 14.446-33.32 21.359l1.321 5.514c.233 1.01-.233 2.097-1.165 2.64c-.466.234-.854.311-1.242.311Zm-8.544-9.708l8 7.922c.233.388.699.544 1.087.31c.389-.232.544-.698.31-1.087l-1.32-5.592c-.155-.699.156-1.32.777-1.63c13.747-6.913 24.854-14.059 33.01-21.126l-5.748-5.748l-8.932-.155l-27.184 27.106Z"/><path fill="#FFF" d="m31.624 119.932l6.68-6.68l9.941 9.942l-15.844-1.087c-.699-.078-1.165-.699-1.087-1.398c0-.31.077-.621.31-.777Z"/><path fill="#FF6C37" d="m48.245 123.893l-15.922-1.087c-1.165-.078-1.941-1.087-1.864-2.252c.078-.466.233-.932.622-1.243l6.68-6.68a.75.75 0 0 1 1.086 0l9.942 9.942c.233.233.31.544.155.854c-.155.311-.388.466-.699.466Zm-9.941-9.553l-6.136 6.136c-.233.155-.233.544 0 .699c.078.078.155.155.31.155l13.748.932l-7.922-7.922ZM63.39 88.943a.778.778 0 0 1-.776-.777a.7.7 0 0 1 .233-.543l7.534-7.534a.75.75 0 0 1 1.087 0l4.893 4.893c.233.233.31.466.233.777a.885.885 0 0 1-.621.543l-12.427 2.64h-.156Zm7.534-7.223l-5.126 5.126l8.388-1.787l-3.262-3.34Z"/><path fill="#FFF" d="m75.74 85.525l-8.544 1.865a1.158 1.158 0 0 1-1.398-.855c-.077-.388 0-.776.31-1.087l4.739-4.738l4.893 4.815Z"/><path fill="#FF6C37" d="M67.04 88.166a1.923 1.923 0 0 1-1.94-1.941c0-.544.232-1.01.543-1.399l4.738-4.737a.75.75 0 0 1 1.087 0l4.893 4.893c.233.233.31.466.233.777a.885.885 0 0 1-.621.543l-8.544 1.864h-.388Zm3.884-6.446l-4.194 4.194c-.155.155-.155.31-.077.466c.077.155.233.233.466.233l7.145-1.554l-3.34-3.34Zm52.426-42.33c-.155-.465-.699-.698-1.165-.543c-.466.155-.699.7-.544 1.165c0 .078.078.156.078.233c.466.932.31 2.097-.31 2.952c-.311.388-.234.932.077 1.242c.388.31.932.233 1.243-.155c1.165-1.476 1.398-3.34.621-4.893Z"/></svg>