<svg xmlns="http://www.w3.org/2000/svg" xmlns:xlink="http://www.w3.org/1999/xlink" width="256" height="247" viewBox="0 0 256 247"><path fill="#468BCC" d="M16.696 131.339L0 74.574L52.313 0L153.6 131.339z"/><path fill="#4BA8FF" d="M0 74.574L52.313 0L128 23.374l25.6 107.965z"/><path fill="#468BCC" d="M52.313 0L128 23.374L203.687 0L153.6 131.339z"/><path fill="#468BCC" d="M128 23.374L203.687 0L256 74.574l-102.4 56.765z"/><path fill="#4BA8FF" d="M203.687 0L256 74.574l-16.696 56.765H153.6z"/><path fill="#468BCC" d="m256 74.574l-16.696 56.765L128 229.287l25.6-97.948z"/><path fill="#468BCC" d="M239.304 131.339L128 229.287L16.696 131.339H153.6z"/><path fill="#468BCC" d="M128 229.287L16.696 131.339L0 74.574l153.6 56.765z"/><path fill="#468BCC" d="M16.696 131.339L0 74.574l153.6 56.765z"/><path fill="#FFF" d="m77.913 159.165l18.922 12.244l-30.052 23.374z"/><path fill="#082744" d="m77.063 158.9l-11.13 35.617c-.26.833.708 1.504 1.396.968l30.052-23.373a.89.89 0 0 0-.062-1.45l-18.922-12.244a.89.89 0 0 0-1.334.482Zm1.35 1.65L95.3 171.474l-26.82 20.86l9.932-31.785Z"/><path fill="#FFF" d="m178.087 159.165l-18.922 12.244l30.052 23.374z"/><path fill="#082744" d="m177.603 158.418l-18.922 12.243a.89.89 0 0 0-.062 1.45l30.052 23.374c.688.536 1.656-.135 1.396-.968l-11.13-35.617a.89.89 0 0 0-1.334-.482Zm-.016 2.131l9.932 31.785l-26.818-20.859l16.886-10.926Z"/><path fill="#4BA8FF" d="m66.783 61.217l36.73-45.412h48.974L128 94.609z"/><path fill="#468BCC" d="M103.513 15.805h48.974l36.73 45.412L128 94.609z"/><path fill="#166EBF" d="m152.487 15.805l36.73 45.412v94.609L128 94.609z"/><path fill="#0B457F" d="M189.217 61.217v94.609l-36.73 24.487L128 94.609z"/><path fill="#0C3861" d="m189.217 155.826l-36.73 24.487L128 245.983V94.609z"/><path fill="#166EBF" d="M152.487 180.313v53.426L128 245.983l-24.487-65.67L128 94.609z"/><path fill="#4BA8FF" d="m128 245.983l-24.487-12.244v-53.426l-36.73-24.487L128 94.609z"/><path fill="#166EBF" d="m103.513 180.313l-36.73-24.487V61.217L128 94.609z"/><path fill="#468BCC" d="M66.783 155.826V61.217L128 94.609z"/><path fill="#082744" d="M152.487 14.915h-48.974a.89.89 0 0 0-.692.33L66.09 60.657a.89.89 0 0 0-.199.56v94.61l.002.051a.89.89 0 0 0 .395.689l36.334 24.223v52.95c0 .336.19.645.492.796l24.487 12.243a.89.89 0 0 0 .796 0l24.487-12.243l.043-.023a.89.89 0 0 0 .45-.774v-52.95l36.333-24.222a.89.89 0 0 0 .397-.74v-94.61a.89.89 0 0 0-.198-.56l-36.73-45.412a.89.89 0 0 0-.693-.33Zm-.425 1.78l36.265 44.838v93.816l-36.334 24.223l-.043.03a.89.89 0 0 0-.353.711v52.876L128 244.987l-23.597-11.798v-52.876l-.001-.052a.89.89 0 0 0-.395-.689L67.673 155.35V61.532l36.265-44.836h48.124Z"/><path fill="#FFF" d="m80.139 86.817l28.939 8.905l-28.939 11.13zm95.722 0l-28.939 8.905l28.939 11.13z"/></svg>