<svg xmlns="http://www.w3.org/2000/svg" xmlns:xlink="http://www.w3.org/1999/xlink" width="256" height="256" viewBox="0 0 256 256"><path fill="#FBDE34" d="M0 .252h255.833v255.717H0z"/><path fill="#524739" d="M110.259 197.04v7.48h-8.19v20.159c0 1.89.315 3.15.945 3.78c.63.63 1.89.944 3.78.944c.63 0 1.233-.025 1.811-.078a15.25 15.25 0 0 0 1.654-.236v8.661c-.945.158-1.996.263-3.15.315a75.02 75.02 0 0 1-3.386.079c-1.732 0-3.374-.118-4.921-.354c-1.55-.237-2.914-.695-4.095-1.378c-1.18-.682-2.114-1.654-2.795-2.914c-.683-1.26-1.024-2.913-1.024-4.96V204.52h-6.772v-7.48h6.772v-12.206h11.182v12.205h8.189Zm15.748-15.513v21.182h.236c1.418-2.362 3.23-4.08 5.434-5.158c2.204-1.075 4.356-1.614 6.457-1.614c2.992 0 5.445.407 7.362 1.22c1.915.815 3.426 1.943 4.528 3.387c1.103 1.444 1.876 3.202 2.323 5.275c.445 2.075.669 4.37.669 6.89v25.041h-11.182v-22.992c0-3.36-.525-5.867-1.574-7.52c-1.051-1.654-2.914-2.482-5.591-2.482c-3.045 0-5.25.906-6.615 2.717c-1.365 1.811-2.047 4.791-2.047 8.938v21.34h-11.182v-56.224h11.182Zm43.545 46.459c1.68 1.628 4.094 2.44 7.244 2.44c2.256 0 4.199-.562 5.827-1.692c1.627-1.129 2.625-2.323 2.992-3.583h9.843c-1.574 4.882-3.99 8.374-7.244 10.473c-3.256 2.1-7.193 3.15-11.812 3.15c-3.203 0-6.09-.512-8.662-1.536c-2.572-1.024-4.752-2.48-6.536-4.37c-1.785-1.89-3.163-4.146-4.134-6.771c-.972-2.625-1.456-5.513-1.456-8.662c0-3.044.497-5.88 1.495-8.505c.997-2.624 2.414-4.894 4.253-6.811c1.837-1.916 4.028-3.425 6.575-4.528c2.545-1.103 5.367-1.654 8.465-1.654c3.465 0 6.483.669 9.056 2.008c2.57 1.34 4.685 3.137 6.338 5.394c1.654 2.258 2.848 4.83 3.583 7.718c.735 2.887.997 5.905.787 9.055h-29.37c.157 3.622 1.075 6.248 2.756 7.874Zm12.638-21.418c-1.339-1.47-3.374-2.205-6.103-2.205c-1.785 0-3.268.303-4.449.905c-1.181.604-2.125 1.352-2.835 2.245c-.708.893-1.208 1.838-1.496 2.834c-.289.998-.46 1.89-.512 2.677h18.19c-.525-2.834-1.456-4.986-2.795-6.456Zm27.284-9.529v5.67h.237c1.417-2.362 3.254-4.08 5.512-5.158c2.256-1.075 4.567-1.614 6.93-1.614c2.992 0 5.445.407 7.362 1.22c1.915.815 3.425 1.943 4.528 3.387c1.102 1.444 1.876 3.202 2.323 5.275c.445 2.075.669 4.37.669 6.89v25.041h-11.182v-22.992c0-3.36-.525-5.867-1.575-7.52c-1.05-1.654-2.913-2.482-5.59-2.482c-3.046 0-5.25.906-6.615 2.717c-1.366 1.811-2.048 4.791-2.048 8.938v21.34h-11.181v-40.712h10.63Z"/></svg>