<svg xmlns="http://www.w3.org/2000/svg" xmlns:xlink="http://www.w3.org/1999/xlink" width="256" height="256" viewBox="0 0 256 256"><path fill="#E23237" d="M256 128c0 70.692-57.308 128-128 128C57.308 256 0 198.692 0 128C0 57.308 57.308 0 128 0c70.692 0 128 57.308 128 128"/><path fill="#B52E31" d="M256 128c0-.416-.027-.825-.031-1.24c-25.578-24.658-51.444-49.633-52.17-50.492c-18.032-21.338-44.991-34.888-75.115-34.888c-54.288 0-98.298 44.01-98.298 98.298c0 7.51.87 14.814 2.466 21.84c35.629 37.536 68.765 71.672 93.565 94.442c.529.007 1.052.04 1.583.04c70.692 0 128-57.307 128-128"/><path fill="#FFF" d="M191.872 138.255H66.007c-.001-.17-.012-.339-.012-.51c0-34.764 28.18-62.945 62.945-62.945c34.763 0 62.945 28.181 62.945 62.945c0 .171-.012.34-.013.51Zm14.894-2.849h20.109c-1.082-25.292-11.712-48.106-28.39-64.928L184.6 84.365l-3.358-3.357l13.82-13.82c-17.03-15.604-39.58-25.26-64.38-25.758v17.893h-4.747V41.45c-24.815.684-47.326 10.55-64.26 26.34l12.642 12.642l-3.357 3.357L58.282 71.11c-16.326 16.76-26.718 39.315-27.788 64.296h18.409v4.748H30.4a98.54 98.54 0 0 0 2.452 21.365h191.666a98.602 98.602 0 0 0 2.452-21.365h-20.204v-4.748Z"/></svg>