<svg xmlns="http://www.w3.org/2000/svg" xmlns:xlink="http://www.w3.org/1999/xlink" width="256" height="326" viewBox="0 0 256 326"><path fill="#D04B06" d="M235.066 205c5.644-64.504-20.36-119.47-58.08-122.77c-37.722-3.3-72.875 46.315-78.518 110.819c-5.644 64.503 20.36 119.468 58.081 122.768c37.72 3.3 72.874-46.315 78.517-110.818Z"/><path fill="#C65C14" d="M255.159 204.998c5.643-64.503-20.361-119.469-58.082-122.769c-37.72-3.3-72.874 46.315-78.517 110.818c-5.643 64.503 20.36 119.468 58.081 122.769c37.72 3.3 72.874-46.315 78.518-110.818Z"/><path fill="#D04B06" d="M99.558 315.817c37.721-3.3 63.725-58.266 58.082-122.769c-5.644-64.503-40.797-114.118-78.518-110.818c-37.72 3.3-63.724 58.266-58.081 122.769c5.643 64.503 40.797 114.118 78.517 110.818Z"/><path fill="#C65C14" d="M79.472 315.815c37.72-3.3 63.724-58.266 58.081-122.769c-5.643-64.503-40.797-114.118-78.517-110.818C21.315 85.528-4.69 140.494.954 204.997C6.598 269.5 41.751 319.115 79.472 315.815Z"/><path fill="#F17008" d="M254.979 213.933c5.643-64.503-20.361-119.468-58.082-122.768c-37.72-3.3-72.874 46.314-78.517 110.818c-5.644 64.503 20.36 119.468 58.081 122.768c37.72 3.3 72.874-46.315 78.518-110.818Z"/><path fill="#8F6646" d="m97.957 121.3l-2.638-24.076s1.453-12.87 27.96-14.714c26.507-1.844-12.192-59.05-12.192-59.05s8.899-31.951 23.5-20.583c14.6 11.368 15.186 77.785 15.186 77.785s9.416 24.992 10.383 33.822"/><path fill="#F48D39" d="M234.886 213.935c5.644-64.503-20.36-119.468-58.08-122.769c-37.722-3.3-72.875 46.315-78.518 110.818c-5.644 64.503 20.36 119.469 58.08 122.769c37.722 3.3 72.875-46.315 78.518-110.818Z"/><path fill="#F17008" d="M79.288 324.752c37.72-3.3 63.725-58.265 58.081-122.768c-5.643-64.504-40.796-114.118-78.517-110.818c-37.72 3.3-63.725 58.265-58.081 122.768c5.643 64.503 40.796 114.118 78.517 110.818Z"/><path fill="#F48D39" d="M99.38 324.754c37.72-3.3 63.724-58.266 58.08-122.769c-5.643-64.503-40.796-114.118-78.517-110.818c-37.72 3.3-63.724 58.266-58.081 122.769c5.643 64.503 40.797 114.118 78.517 110.818Z"/><ellipse cx="123.236" cy="207.959" fill="#F17008" rx="68.56" ry="117.239"/><circle cx="127.306" cy="159.796" r="23.929" fill="#F7F3F0"/><circle cx="135.532" cy="169.902" r="8.227" fill="#160C06"/><circle cx="137.507" cy="170.236" r="2.547" fill="#F9F6F4"/></svg>