<svg xmlns="http://www.w3.org/2000/svg" xmlns:xlink="http://www.w3.org/1999/xlink" width="256" height="296" viewBox="0 0 256 296"><path fill="#4F859A" d="M91.265 126.16v.007l.33.304l36.633 21.266l36.782-21.64l.238-.268v-.005l-37.195-20.605l-36.788 20.94Zm113.488-23.258l.503-.014L255.67 73.63l.33-.469l-51.247-29.328v59.07ZM128.157 0L0 74.038l.425.744l50.71 28.965l.68-.113l76.443-43.791l36.966 22.094V21.212L128.157 0Z"/><path fill="#2E6371" d="m0 220.735l51.81 30.389V103.637l.005-.003L0 74.039v146.696Zm91.649 53.756l36.608 21.472l.486-1.21v-59.355l-.486-1.062l-36.608-19.094v59.249Zm-.384-148.324v42.882l36.976 21.067l.016-.009l.148-.338l-.011-42.233l-.137-.24l-36.992-21.129Z"/><path fill="#1BAFCE" d="M204.753 102.902v89.008l-76.495 42.425v61.628L256 220.734V73.161l-51.247 29.741Zm-39.505 22.927l-36.992 21.467v42.81l36.992-21.168v-43.11Z"/></svg>