<svg xmlns="http://www.w3.org/2000/svg" xmlns:xlink="http://www.w3.org/1999/xlink" width="512" height="106" viewBox="0 0 512 106"><path d="M268.21 63.528a19.9 19.9 0 0 1-5.852 14.696c-5.162 5.124-13.535 7.918-23.604 7.84a40.2 40.2 0 0 1-18.656-4.413l2.752-14.474a41.6 41.6 0 0 0 17.733 5c4.699 0 7.864-2.169 7.864-5.647c0-3.153-2.225-5.356-7.909-8.137c-8.99-4.495-13.489-10.195-13.489-16.912c0-13.216 11.257-22.147 28.147-22.147a33.54 33.54 0 0 1 17.978 4.176l-2.746 14.445a30.1 30.1 0 0 0-16.144-4.602c-4.922 0-8.128 2.062-8.128 5.514c0 2.475 2.453 4.694 7.646 7.225c6.766 3.38 14.408 8.385 14.408 17.436M151.142 19.466c-23.793 0-41.719 17.374-41.719 40.414c0 15.911 10.573 26.185 26.973 26.185a44.5 44.5 0 0 0 18.224-3.421l3.006-15.874a33.6 33.6 0 0 1-15.88 4.106c-5.997 0-12.431-3.451-12.431-13.084c0-11.352 8.05-23.132 21.564-23.132c3.652-.11 7.267.751 10.478 2.494l2.941-15.434a36.6 36.6 0 0 0-13.156-2.254m333.612 51.798a42.3 42.3 0 0 0 22.303-6.294l-3.04 15.978a55.7 55.7 0 0 1-23.83 5.121c-17.663 0-27.76-9.823-27.76-26.973a42.37 42.37 0 0 1 9.96-27.188a35.45 35.45 0 0 1 27.325-12.573c13.363 0 22.276 7.764 22.276 19.274a17.45 17.45 0 0 1-5.144 13.026c-6.382 6.22-22.11 9.706-36.436 6.893c-.683 8.072 5.394 12.737 14.346 12.737zm-12.27-25.052c11.142.091 17.409-1.036 20.143-3.744c2.961-2.942 2.034-9.246-5.263-9.246c-8.214 0-13.443 6.734-14.88 12.99M442.82 19.466c-23.793 0-41.719 17.374-41.719 40.413c0 15.911 10.573 26.186 26.974 26.186a44.5 44.5 0 0 0 18.223-3.422l3.006-15.874a33.6 33.6 0 0 1-15.88 4.106c-5.997 0-12.431-3.45-12.431-13.084c0-11.351 8.05-23.132 21.564-23.132c3.652-.11 7.267.751 10.478 2.494l2.942-15.433a36.6 36.6 0 0 0-13.157-2.254m-44.843 29.467l-6.846 35.83h-18.133l2.356-12.333a19.09 19.09 0 0 1-19.133 13.768c-12.615 0-18.316-11.199-18.323-22.406a48.43 48.43 0 0 1 13.37-33.726a36.25 36.25 0 0 1 26.202-10.732c7.703.03 13.402 2.26 16.973 6.588c5.287 6.405 4.853 16.02 3.534 23.01M380.52 40.69c-.221-4.518-2.573-6.954-6.79-6.954c-8.93 0-16.666 15.412-16.66 26.13c.003 6.697 2.485 10.867 6.804 10.867c6.907 0 12.856-7.223 14.902-17.8a72 72 0 0 0 1.744-12.243M106.3 48.933l-6.846 35.83H81.32l2.356-12.333a19.09 19.09 0 0 1-19.134 13.768c-12.615 0-18.317-11.199-18.323-22.406a48.43 48.43 0 0 1 13.37-33.726a36.25 36.25 0 0 1 26.202-10.732c7.703.03 13.402 2.26 16.973 6.588c5.287 6.405 4.854 16.02 3.535 23.01M88.842 40.69c-.221-4.518-2.573-6.954-6.79-6.954c-8.93 0-16.666 15.412-16.66 26.13c.003 6.697 2.485 10.867 6.804 10.867c6.907 0 12.856-7.223 14.902-17.8a72 72 0 0 0 1.744-12.243m247.79 3.007c0 15.566-7.475 31.527-20.945 38.708a30.2 30.2 0 0 1-13.8 3.792c-6.744 0-10.525-2.522-12.68-6.408l-4.822 25.486H265.4l16.117-84.763h16.72l-1.955 10.29a24.25 24.25 0 0 1 19.64-11.469c12.562 0 20.708 9.522 20.708 24.364m-19.744 1.438c0-3.017-.712-10.345-7.666-10.345c-7.07 0-13.04 8.056-15.354 20.274c-.792 4.178-3.008 16.722 5.726 16.722c9.972 0 17.294-14.155 17.294-26.65m-290.44-10.38l2.707-14.243h-16.72L0 85.893h18.987l5.127-26.957c3.023-15.896 12.143-22.257 25.122-20.293l3.708-19.5a26.3 26.3 0 0 0-26.496 15.613m152.284 50.006l6.54-34.4l13.46 34.4h20.417l-13.927-34.675l25.346-29.575h-20.726l-24.457 29.252L194.846 0h-18.855l-16.115 84.762z"/></svg>