<svg xmlns="http://www.w3.org/2000/svg" xmlns:xlink="http://www.w3.org/1999/xlink" width="512" height="78" viewBox="0 0 512 78"><path fill="#2453FF" d="m164.476 16.948l-1.81-10.695a20.185 20.185 0 0 0-.67-2.812l-.14-.413C161.22 1.213 160.41 0 159.705 0c-.671 0-1.278 1.135-1.636 2.836l-.076.387l-.034.2l-.063.412l-.028.212l-.048.434c-.014.147-.027.296-.038.447l-.028.46a19.6 19.6 0 0 0-.023.947v2.797c0 3.456-2.88 6.335-6.335 6.335h-3.373v7.734h11.107c3.537 0 5.923-2.797 5.347-6.253Zm-25.258-9.05H104.17c-.247 0-.412 0-.576.083l-.002-1.886l-.011-.474a19.215 19.215 0 0 0-.01-.233l-.028-.46a17.544 17.544 0 0 0-.087-.881l-.058-.42a14.22 14.22 0 0 0-.066-.404l-.076-.387c-.358-1.7-.965-2.836-1.637-2.836c-.939 0-2.068 2.157-2.72 5.022l-.104.484a22.91 22.91 0 0 0-.094.495l-1.854 10.947c-.575 3.456 1.81 6.253 5.266 6.253h10.53c1.07 0 2.14-.164 2.963-.493c-.33 1.81-1.892 3.126-3.785 3.126H97.012c-2.386 0-4.196-2.14-3.785-4.525l1.481-8.968c.412-2.386-1.398-4.525-3.784-4.525H17.536c-1.564 0-2.88.905-3.538 2.304L.176 31.264a.881.881 0 0 0 .082 1.152l2.715 3.208c.33.412.905.494 1.317.165l9.379-7.405V73.47a3.862 3.862 0 0 0 3.867 3.867h20.897A3.862 3.862 0 0 0 42.3 73.47V57.838a3.862 3.862 0 0 1 3.867-3.867h52.08a3.862 3.862 0 0 1 3.866 3.867V73.47a3.862 3.862 0 0 0 3.867 3.867h20.897a3.862 3.862 0 0 0 3.867-3.867V56.44h-11.107c-3.455 0-6.335-2.88-6.335-6.335V39.327c0-2.057.987-3.867 2.55-5.019v12.917c0 3.456 2.88 6.335 6.336 6.335h17.03c3.456 0 6.335-2.88 6.335-6.335v-32.91c0-3.537-2.88-6.417-6.335-6.417Z"/><path d="M201.993 10.037c11.19 0 18.676 5.43 18.676 15.88c0 8.556-5.841 13.657-11.518 15.467c1.626 1.316 2.815 3.143 3.772 5.068l.296.605l.459.967l.99 2.138l.221.463l.222.456l.225.448l.23.438l.232.428c1.456 2.604 3.228 4.538 6.27 4.538c.642 0 1.24-.111 1.666-.218l.257-.07c.038-.01.073-.021.106-.031l15.66-46.577h14.315l19.252 57.016H259.01l-3.538-10.778h-19.088l-3.455 10.778h-11.81c-1.053.17-2.358.33-3.575.33c-6.207 0-9.976-2.23-13.679-9.633l-.322-.657l-.322-.683c-.107-.233-.214-.47-.322-.71l-.178-.421l-.654-1.606l-.601-1.486l-.21-.505l-.322-.76l-.22-.503l-.226-.5l-.23-.49a33.151 33.151 0 0 0-.116-.243l-.237-.476l-.12-.233l-.245-.456c-1.11-2.012-2.368-3.511-3.799-3.511h-3.208v22.543H178.38V10.037h23.612Zm44.181 13.987h-.33l-.154 1.006l-.219 1.298l-.182.994l-.215 1.095l-.144.69l-.209.942l-.169.713l-.118.476l-.123.472l-.127.466l-.132.458l-.135.45l-.14.435l-.071.213l-3.95 12.094h12.26l-3.867-12.012a24.944 24.944 0 0 1-.141-.446l-.136-.458l-.13-.467l-.126-.474l-.12-.48l-.115-.482l-.11-.483l-.154-.722l-.143-.71l-.213-1.143l-.179-1.059l-.197-1.278l-.1-.722l-.111-.866Zm-46.532-3.7l-7.028-.002v13.986h5.1l.37-.003l.185-.005l.372-.015l.375-.023c3.689-.27 7.502-1.834 7.502-7.276c0-4.932-3.099-6.607-6.876-6.663Zm74.176-10.287h15.138L303.93 38.34c.154.309.316.646.484 1.006l.343.748l.177.395l.361.822l.37.861l.373.889l.564 1.366l.556 1.376l.713 1.797l.337.86h.33c-.02-.377-.043-.773-.068-1.183l-.081-1.268l-.18-2.696l-.043-.69l-.08-1.376a74.537 74.537 0 0 1-.125-3.894V10.037h11.601v57.016h-14.81l-15.549-28.22c-1.165-2.125-2.445-5.05-3.506-7.728l-.412-1.056l-.196-.513h-.329l.124 1.518l.134 1.572l.133 1.6c.148 1.872.268 3.746.268 5.43v27.397h-11.601V10.037Zm48.788 28.22c0-20.65 10.202-29.125 25.999-29.125c16.619 0 23.283 9.133 21.473 21.474l-13.164 1.152a28.06 28.06 0 0 0 .195-1.524l.05-.58c.488-6.56-2.093-9.722-6.683-10.417l-.404-.054c-.136-.016-.274-.03-.414-.042l-.424-.03a15.55 15.55 0 0 0-.654-.022l-.222-.002c-.124 0-.247.002-.369.006l-.366.017l-.363.028c-4.634.433-8.447 3.752-9.675 12.547l-.09.697a45.03 45.03 0 0 0-.273 3.416l-.03.823a60.56 60.56 0 0 0-.023 1.718c0 1.711.065 3.281.19 4.721l.075.773c1.079 10.256 5.321 13.555 10.233 13.961l.366.025l.367.015l.37.004c5.84 0 10.53-3.62 9.543-11.107l12.341 1.235c.905 11.6-7.405 20.075-22.625 20.075c-15.468.082-25.423-9.05-25.423-29.784Zm50.928-28.22h14.15v21.556h17.278V10.037h14.151v57.098h-14.151V42.947h-17.277v24.188h-14.151V10.037Zm51.256 0h37.764v10.531h-23.695v12.26h19.828v10.448h-19.828v13.328h24.517v10.531H424.79V10.037Zm41.22 0h23.612c11.189 0 18.676 5.43 18.676 15.88c0 8.556-5.842 13.657-11.519 15.467c1.626 1.316 2.815 3.143 3.773 5.068l.295.605l.349.731l1.011 2.181l.336.708l.226.463l.23.455l.233.444c.157.293.318.579.483.855l.251.407c1.36 2.135 3.054 3.632 5.73 3.632a6.53 6.53 0 0 0 1.1-.098l.27-.052l.356-.083l.197-.054l.16-.049l.221-.075l-1.152 10.12l-.57.126l-.497.101l-.451.085l-.508.087l-.553.086l-.39.054l-.402.05l-.412.046l-.208.02l-.421.036c-.212.015-.424.027-.635.036l-.421.012l-.209.001c-6.206 0-9.976-2.228-13.678-9.632l-.322-.657l-.322-.683a56.65 56.65 0 0 1-.322-.71l-.178-.421l-.654-1.606l-.602-1.486l-.21-.505l-.322-.76l-.22-.503l-.225-.5l-.23-.49a33.151 33.151 0 0 0-.117-.243l-.237-.476l-.12-.233l-.244-.456c-1.11-2.012-2.368-3.511-3.8-3.511h-3.208v22.543h-14.15V10.037Zm14.15 10.285v13.986h5.101l.368-.003l.186-.005l.373-.015l.374-.023c3.689-.27 7.502-1.834 7.502-7.276c0-4.932-3.099-6.607-6.876-6.663l-7.028-.001Z"/></svg>