<svg xmlns="http://www.w3.org/2000/svg" xmlns:xlink="http://www.w3.org/1999/xlink" width="256" height="283" viewBox="0 0 256 283"><g transform="translate(27.429 44.8)"><circle cx="100.677" cy="100.327" r="100.132" fill="#43A5EB"/><circle cx="101.029" cy="100.573" r="66.743" fill="#F34B41"/><circle cx="101.029" cy="100.571" r="33.829" fill="#FEFB1F"/></g><path d="m.347 75.584l3.719-6.019q2.223-3.597 4.807-4.194q2.583-.596 5.2 1.022a6.3 6.3 0 0 1 1.568 1.375a7.3 7.3 0 0 1 1.104 1.835q.418 1.004.5 2.116a5.7 5.7 0 0 1-.277 2.203l12.004.909l-1.577 2.551l-11.784-1.044l-2.425 3.925l8.995 5.558l-1.456 2.355zm3.615-1.021l7.195 4.446l2.436-3.942q1.348-2.183.987-3.756q-.36-1.573-1.963-2.564a4.6 4.6 0 0 0-1.6-.63a4.1 4.1 0 0 0-1.597.027q-.782.168-1.56.768q-.78.6-1.464 1.708zM21.948 45.85l10.61-10.158l1.648 1.721l-8.776 8.403l5.45 5.694l7.25-6.94l1.755 1.832l-7.249 6.94l6.09 6.36l8.692-8.323l1.649 1.723L38.54 63.18zm47.596-20.314q2.612 4.62 2.572 8.176q-.042 3.557-2.71 5.949q.693 1.066 1.591 1.486q.9.417 2.305-.376a8 8 0 0 0 .517-.337q.348-.24.774-.504q.426-.263.792-.514q.365-.252.533-.346l1.221 2.313l-1.305.74q-1.64.926-2.857 1.393q-1.216.466-2.242.253a3.9 3.9 0 0 1-1.83-.931q-.803-.717-1.541-2.022a7.1 7.1 0 0 1-2.945.496q-1.58-.056-3.253-.832q-1.677-.776-3.298-2.353q-1.621-1.58-3.061-4.123q-1.778-3.144-2.234-5.627q-.453-2.482-.03-4.312q.422-1.829 1.425-3.104q1.002-1.273 2.173-1.937a7.6 7.6 0 0 1 3.103-.959q1.662-.145 3.498.562q1.835.707 3.505 2.369q1.67 1.661 3.297 4.54m-14.62-.699q-.623 2.961 1.877 7.377q1.135 2.008 2.415 3.449t2.628 2.224q1.347.785 2.748.875a4.56 4.56 0 0 0 2.603-.59q.837-.473 1.488-1.393q.65-.92.847-2.29t-.229-3.14q-.426-1.768-1.676-3.977q-1.59-2.812-3.063-4.321q-1.471-1.51-2.86-2.048q-1.388-.54-2.475-.433t-1.89.561q-1.005.57-1.591 1.562a7 7 0 0 0-.821 2.144m27.684-17.42l2.932-.793l.057.064q.04.15-.052.474a2.1 2.1 0 0 0-.055.752l3.79 14.018q.525 1.933 1.181 2.893q.66.959 1.513 1.466a4.3 4.3 0 0 0 1.854.595q.999.09 2.059-.118a8.4 8.4 0 0 0 1.847-.9a3.9 3.9 0 0 0 1.32-1.453q.49-.91.59-2.094q.098-1.184-.445-3.191L95.115 4.034l2.488-.672l4.066 15.032q.612 2.264.533 3.958q-.081 1.695-.839 3.015a7 7 0 0 1-1.991 2.212q-1.232.89-2.94 1.352q-1.671.451-3.183.304a6.7 6.7 0 0 1-2.77-.884q-1.254-.736-2.183-2.038q-.931-1.302-1.592-3.752zm37.82-6.993l11.958-.107l.019 2.23l-4.728.042l.175 19.57l4.96-.043l.02 2.19l-12.458.112l-.02-2.23l4.73-.042l-.176-19.531l-4.46.04zm34.416 2.268l6.876 1.67q4.108.997 5.476 3.268t.642 5.259a6.4 6.4 0 0 1-.822 1.917a7.3 7.3 0 0 1-1.401 1.62q-.826.71-1.857 1.13a5.7 5.7 0 0 1-2.18.42l2.858 11.694l-2.915-.707l-2.66-11.528l-4.485-1.088l-2.495 10.274l-2.69-.653zm2.09 3.118l-1.995 8.22l4.502 1.094q2.493.605 3.877-.226q1.384-.83 1.83-2.662q.216-.896.1-1.716a4.1 4.1 0 0 0-.52-1.51q-.401-.692-1.213-1.246q-.813-.552-2.077-.86zm33.212 8.324l12.953 6.924l-1.124 2.103l-10.716-5.73l-3.716 6.952l8.851 4.732l-1.197 2.237l-8.85-4.732l-4.152 7.765l10.613 5.674l-1.123 2.102l-12.85-6.869zm21.609 21.932q.492.379.81.939q.318.561.43 1.155q.115.594.01 1.173q-.103.58-.445 1.025q-.367.48-.891.747q-.524.27-1.113.31a3.4 3.4 0 0 1-1.2-.137a3.5 3.5 0 0 1-1.152-.594a3.4 3.4 0 0 1-.845-.928a3.2 3.2 0 0 1-.423-1.1a2.8 2.8 0 0 1 .03-1.142q.134-.568.514-1.062q.367-.478.898-.74a3 3 0 0 1 1.121-.305q.589-.041 1.184.124q.594.168 1.072.535m20.877 8.762l7.44 8.048l-1.64 1.514l-2.504-2.71l-10.042 9.28q-1.725 1.595-3.184 2.341q-1.46.748-2.877.747q-1.416 0-2.497-.517a6.5 6.5 0 0 1-1.969-1.478q-2.324-2.513-1.888-5.952l2.836-.16q-.007.162-.176.347a.76.76 0 0 0-.206.373l-.025.651q-.037.245.043.64q.08.399.253.841t.386.872t.529.77q1.303 1.412 2.894 1.146q1.59-.266 4.053-2.541l10.071-9.31l-3.131-3.388zm22.43 36.094l-2.842-.32q-.03-.203.177-.345t.27-.265q.568-1.17.514-2.58q-.057-1.409-.973-3.01q-.882-1.533-2.366-2.034t-2.718.208q-.735.421-1.124.977q-.39.557-.592 1.362q-.203.803-.146 2.1q.057 1.299.343 3.262q.247 1.898.204 3.253q-.041 1.354-.398 2.356a4.9 4.9 0 0 1-.996 1.703q-.64.7-1.607 1.255a7.1 7.1 0 0 1-2.381.835a6.1 6.1 0 0 1-2.651-.14q-1.34-.363-2.619-1.356t-2.333-2.829q-2.317-4.034-1.065-8.033l3.184-.01q-.003.222-.238.358q-.233.132-.309.31q-.525 1.323-.43 2.996q.096 1.672 1.15 3.507q.534.933 1.302 1.536a5.1 5.1 0 0 0 1.609.871q.844.27 1.75.192a4.1 4.1 0 0 0 1.71-.537a3.4 3.4 0 0 0 1.025-.877q.392-.514.555-1.273q.164-.76.088-1.934a43 43 0 0 0-.338-3.02q-.305-2-.277-3.456t.313-2.507q.283-1.049.888-1.772a5.5 5.5 0 0 1 1.504-1.241a5.6 5.6 0 0 1 2.413-.741a6.4 6.4 0 0 1 2.516.328q1.238.42 2.325 1.346a8.5 8.5 0 0 1 1.853 2.262a8.8 8.8 0 0 1 1.154 3.594a8.6 8.6 0 0 1-.443 3.669"/><path stroke="#4C4C4C" stroke-width="2" d="M57.819 273.461h130.743"/><path fill="#4C4C4C" d="M199.562 272.537c.906.435.912 1.16.012 1.61l-12.151 6.096c-.9.45-1.604-.006-1.604-1.01v-11.491c0-1.006.71-1.472 1.616-1.038z"/><path stroke="#4C4C4C" stroke-width="2" d="m69.318 264.776l8.762 8.685m-15.162-8.685l8.762 8.685m-15.162-8.685l8.762 8.685m0 .002l-8.763 8.686m15.163-8.686l-8.763 8.686m15.163-8.686l-8.763 8.686m6.401-17.373l8.762 8.685m0 .002l-8.763 8.686"/></svg>