<svg xmlns="http://www.w3.org/2000/svg" xmlns:xlink="http://www.w3.org/1999/xlink" width="256" height="256" viewBox="0 0 256 256"><path d="M125.371.065c2.83-.088 5.662-.087 8.492.003l53.434 1.692c36.479 1.155 65.779 30.464 66.922 66.943l1.714 54.73c.089 2.83.089 5.66.001 8.49l-1.726 55.363c-1.137 36.484-30.438 65.8-66.921 66.954l-53.424 1.692c-2.83.09-5.662.091-8.492.003l-56.603-1.746c-36.506-1.126-65.84-30.45-66.978-66.956l-1.724-55.31c-.088-2.83-.088-5.66.001-8.49L1.78 68.755c1.143-36.5 30.476-65.819 66.977-66.945L125.371.065z" fill="#444F5C"/><path d="M128 21.582c58.773 0 106.418 47.645 106.418 106.418S186.773 234.418 128 234.418S21.582 186.773 21.582 128S69.227 21.582 128 21.582" fill="#313942"/><path d="M62.937 169.604l23.521-7.856c3.835-1.28 7.485 2.366 6.209 6.202l-7.841 23.57c-1.043 3.137-5.026 4.076-7.361 1.736l-16.266-16.298c-2.331-2.336-1.392-6.308 1.738-7.354" fill="#EEB545"/><path d="M85.326 64.442L92.8 88.01c1.222 3.853-2.479 7.447-6.295 6.114l-23.528-8.222c-3.133-1.095-4.004-5.112-1.606-7.406l16.648-15.922c2.377-2.273 6.313-1.267 7.307 1.868" fill="#42AADF"/><path d="M171.084 191.52l-7.841-23.57c-1.276-3.836 2.375-7.482 6.209-6.202l23.522 7.856c3.13 1.046 4.068 5.018 1.737 7.354l-16.265 16.298c-2.336 2.34-6.318 1.401-7.362-1.737" fill="#ED042B"/><path d="M163.243 88.05l7.841-23.569c1.044-3.138 5.026-4.077 7.362-1.737l16.265 16.298c2.331 2.336 1.393 6.308-1.737 7.354l-23.522 7.856c-3.834 1.28-7.485-2.366-6.209-6.202" fill="#2EA757"/><g><path d="M147.178 146.723c10.341-10.34 10.341-27.106 0-37.446c-10.34-10.34-27.105-10.34-37.446 0c-10.34 10.34-10.34 27.105 0 37.446c10.341 10.34 27.106 10.34 37.446 0zm-32.17-13.346a7.604 7.604 0 0 1 0-10.754l8.07-8.07a7.604 7.604 0 0 1 10.754 0l8.07 8.07a7.604 7.604 0 0 1 0 10.754l-8.07 8.07a7.604 7.604 0 0 1-10.754 0l-8.07-8.07z" fill="#596778"/><path d="M147.051 114.741a3.88 3.88 0 1 1-7.761-.001a3.88 3.88 0 0 1 7.761.001" fill="#2EA757"/><path d="M147.051 141.542a3.88 3.88 0 1 1-7.762 0a3.88 3.88 0 0 1 7.762 0" fill="#ED042B"/><path d="M117.824 114.741a3.88 3.88 0 1 1-7.761-.001a3.88 3.88 0 0 1 7.761.001" fill="#42AADF"/><path d="M117.824 141.542a3.88 3.88 0 1 1-7.762 0a3.88 3.88 0 0 1 7.762 0" fill="#EEB545"/></g></svg>