<svg xmlns="http://www.w3.org/2000/svg" xmlns:xlink="http://www.w3.org/1999/xlink" width="512" height="159" viewBox="0 0 512 159"><path fill="#C95228" d="M269.005 62.547a3.391 3.391 0 0 1 3.377 3.72l-.059.376l-11.523 54.352c-.44 2.087-.664 4.021-.664 5.743l.01.652l.031.652c.008.108.016.216.026.324l.073.644c.561 4.057 3.097 7.624 12.508 7.624c5.835 0 11.554-1.935 16.997-5.75c5.114-3.586 8.191-7.649 9.386-12.398l.165-.718l11.25-52.538a3.394 3.394 0 0 1 2.979-2.666l.339-.017h18.438c.895 0 1.749.354 2.38.975l.256.283a3.38 3.38 0 0 1 .742 2.46l-.058.378l-18.069 85.23a3.392 3.392 0 0 1-2.979 2.673l-.34.017h-18.437a3.395 3.395 0 0 1-3.376-3.729l.059-.377l.35-1.634c-7.52 4.87-17.635 7.33-30.223 7.33c-8.521 0-15.339-2.279-20.263-6.774c-5.016-4.577-7.56-11.043-7.56-19.218c0-2.42.256-5.031.761-7.778l.232-1.186l11.43-55.937a3.393 3.393 0 0 1 2.982-2.696l.342-.017h18.438Zm115.498-1.597c7.245 0 15.94 1.883 25.86 5.6l1.361.519a3.39 3.39 0 0 1 1.899 4.49l-.162.33l-7.836 14.005a3.393 3.393 0 0 1-5.069 1.002c-5.456-4.325-11.13-6.427-17.344-6.427c-3.954 0-7.376.864-10.172 2.567c-3.011 1.836-3.397 3.733-3.397 5.181c0 1.481.56 2.685 1.76 3.787l.342.301l.416.337l.497.374l.586.41l.68.445l.783.483l.432.255l.95.537l1.069.574l1.197.611l1.33.648l13.633 6.389c4.534 2.108 8.007 4.915 10.315 8.338c2.343 3.477 3.53 7.328 3.53 11.446c0 10.261-4.353 18.483-12.937 24.434c-8.194 5.682-18.662 8.563-31.111 8.563c-10.909 0-20.85-2.387-29.548-7.093a3.394 3.394 0 0 1-1.441-4.456l.195-.35l9.127-14.326a3.39 3.39 0 0 1 5.077-.745c2.09 1.804 5.227 3.517 9.325 5.09c4.074 1.568 7.541 2.361 10.307 2.361c4.722 0 8.618-1.072 11.58-3.187c2.678-1.914 3.926-4.324 3.926-7.585c0-.801-.18-2.036-1.735-3.489l-.339-.303l-.411-.34l-.493-.38l-.58-.418l-.673-.457l-.776-.496l-.884-.537l-.999-.577l-1.122-.618l-1.251-.66l-1.388-.7l-12.955-6.186c-4.555-2.238-8.026-5.134-10.35-8.622c-2.365-3.55-3.566-7.409-3.566-11.47c0-9.066 4.103-16.426 12.193-21.874c7.666-5.163 17.144-7.781 28.169-7.781Zm-161.965.013c.47 0 .986.015 1.547.045l1.185.082c.207.017.42.035.639.056l1.374.143l1.504.185c.261.034.529.07.801.108l1.705.248l1.84.29a3.393 3.393 0 0 1 2.776 4.036l-.094.357l-4.978 15.438a3.394 3.394 0 0 1-5.157 1.75c-3.136-2.165-6.727-3.217-10.979-3.217c-5.406 0-10.494 2.157-15.554 6.598c-4.875 4.276-7.928 9.189-9.311 14.993l-.205.924l-10.049 48.863a3.394 3.394 0 0 1-2.982 2.692l-.341.017h-17.516a3.392 3.392 0 0 1-3.38-3.697l.056-.375l17.424-85.23a3.393 3.393 0 0 1 2.982-2.697l.342-.017h17.515a3.393 3.393 0 0 1 3.38 3.693l-.055.375l-.602 2.966c7.541-5.73 16.294-8.626 26.133-8.626Zm281.089 7.297c-5.444-4.848-13.042-7.306-22.584-7.306c-5.91 0-11.938 1.13-17.918 3.358c-2.518.938-4.814 1.988-6.877 3.145l6.56-35.842a3.394 3.394 0 0 0-3.337-4.004h-17.424a3.393 3.393 0 0 0-3.327 2.726l-24.06 120.166a3.393 3.393 0 0 0 3.326 4.06h17.884c1.612 0 3-1.134 3.324-2.711l12.785-62.307c2.507-2.295 5.76-4.362 9.685-6.157c4.234-1.934 8.273-2.915 12.004-2.915c9.9 0 12.51 4.148 13.068 8.837l.07.707c.017.237.031.474.041.712l.02.715l.002.358c0 1.51-.195 3.24-.577 5.129l-10.97 53.556a3.392 3.392 0 0 0 3.324 4.074h18.07c1.61 0 3-1.134 3.323-2.713l10.973-53.575c.655-3.28.988-6.422.988-9.338c0-8.447-2.613-15.211-7.768-20.12l-.605-.555Z"/><path fill="#555" d="M136.87 52.977a22.362 22.362 0 0 0-15.216-8.08a22.362 22.362 0 0 0-16.473 5.045a22.45 22.45 0 0 0-5.76 7.19l-5.436-2.15c1.47-2.119 3.397-4.335 5.604-6.39c4.573-4.259 9.595-7.126 13.78-7.868c.278-.05.524-.21.68-.447c.279-.422.719-.905 1.106-1.33c.848-.93 1.648-1.81.88-2.676a1.031 1.031 0 0 0-.834-.346c-7.266.443-17.583 3.851-24.749 12.09c-1.312 1.509-2.43 2.902-3.377 4.232l-21.174-8.38c-1.198-1.538-2.881-2.71-3.875-2.798c-.16-.015-.371.038-.616.137a24.262 24.262 0 0 0 1.37-4.729c.63-3.484.712-6.405 1.71-6.635c1.847-.424 1.647.52 2.017-.83c.55-2.014-2.083-4.398-1.314-6.13c.567-1.278 1.123-2.201 1.626-2.892c1.868.356 3.51.653 5.112 1.702c1.686-1.562 3.095-3.887 2.78-5.637c-.323-1.803-3.809-1.716-3.09-4.96c.473-2.13 3.484-2.779 5.393-2.74c1.058.021.713-4.563-.55-5.29c-1.595-.916-15.587-5.772-20.304-.99c-2.638 2.673-3.904 9.792-.892 12.371c.343.294.677.565 1.007.826c-.43.254-.9.468-1.643.543c-1.639.165-2.549-.55-3.256.029c-.718.588.514 1.316-.04 2.274c-1.013 1.75-1.945-.646-5.27 2.646c-1.546 1.53-1.933 4.459-3.46 8.129c-2.454 5.896-4.606 4.762-7.43 13.844c-.693 2.225 2.26 1.131 7.74 3.814c-2.672 5.058-4.402 9.848-3.585 12.844c1.006 3.69 8.15 9.44 11.856 12.716c.25.22.515.502.796.828C41.782 82.868 24.008 90.165.294 107.882c-1.117 1.804 1.235 4.795 2.283 5.005C16.529 101.115 33.31 97.33 50.67 98.576a272.666 272.666 0 0 1-5.95 3.609l.875-2.234l-5.96 1.843l-27.544 8.663l-3.287 3.793l1.58 4.434l4.946.857l26.794-10.715l.254-.65c8.663-2.452 10.267-.16 11.23 2.473l-4.249 4.531c-7.362-2.873-16.028-1.79-22.544 3.586c-9.574 7.9-10.936 22.116-3.036 31.69c4.446 5.386 10.89 8.173 17.383 8.173a22.408 22.408 0 0 0 14.308-5.139a22.361 22.361 0 0 0 8.08-15.216c.503-5.25-.814-10.394-3.727-14.71l7.11-8.618c.322.097.623.129.896.085c1.012-.163 2.516-1.296 4.235-2.99c.331.627 1 1.026 1.731.957c.977-.092 1.691-.984 1.596-1.992a1.862 1.862 0 0 0-.356-.928c3.221.5 5.838.607 6.054-.125c.888-3.002-.781-4.298-2.8-5.179a102.28 102.28 0 0 0 3.208-4.466c3.568-3.344 6.209-6.45 6.63-8.351c.879-3.96-2.43-10.18-5.597-13.759c.23-2.378.509-5.106.775-7.824c.44 2.07 1.34 4.657 2.292 7.377c.554 1.583 1.127 3.221 1.6 4.745a1.03 1.03 0 0 0 1.8.323c.181-.233.402-.424.636-.626c.66-.57 1.657-1.432.988-3.253c-2.886-7.85-.7-14.538.352-17.752c.13-.399.242-.742.332-1.046c.046-.155.101-.314.157-.473l6.194 2.209a22.833 22.833 0 0 0-.557 3.278a22.365 22.365 0 0 0 5.046 16.474a22.364 22.364 0 0 0 15.216 8.081c.732.07 1.462.105 2.187.105c5.21 0 10.217-1.791 14.287-5.15a22.365 22.365 0 0 0 8.081-15.217a22.365 22.365 0 0 0-5.046-16.474v.002Zm-69.454 3.22c-2.542.89-4.835 2.112-6.404 3.664c-2.163-2.098-3.853-3.639-4.312-4.468a.888.888 0 0 0 .471-.163c.727-.531.08-1.824 1.009-2.538c1.518-1.169 4.207 1.55 5.957.475c.794-.49 1.242-1.668 1.239-2.796l4.452 1.587l-2.411 4.238Zm-18.552 47.52a250.253 250.253 0 0 0 5.32-3.294a131.172 131.172 0 0 0 3.83 5.525l-1.864 1.989c-1.19-2.273-3.163-4.114-7.286-4.22Zm10.039 11.823c.195-.03.395-.068.606-.12c1.21-.302 2.87-1.073 4.786-2.166c.092.082.184.16.274.237l-6.469 7.843A22.513 22.513 0 0 0 55.741 119l3.162-3.459Zm-5.168 10.199c.123.149.24.302.357.455l-6.558 7.95a6.667 6.667 0 0 0-1.229-2.275a6.682 6.682 0 0 0-1.261-1.171l6.52-7.13a16.322 16.322 0 0 1 2.17 2.17Zm3.658 11.946a16.218 16.218 0 0 1-5.86 11.035c-6.943 5.73-17.252 4.741-22.98-2.201c-5.73-6.943-4.742-17.253 2.2-22.982a16.246 16.246 0 0 1 10.376-3.726c1.187 0 2.371.13 3.531.384l-9.886 10.547l1.003 1.397a6.69 6.69 0 0 0 .204 8.25a6.693 6.693 0 0 0 9.422.902a6.657 6.657 0 0 0 1.892-2.535l8.35-10.125a16.21 16.21 0 0 1 1.748 9.054ZM135.76 68.86a16.218 16.218 0 0 1-5.86 11.035a16.22 16.22 0 0 1-11.946 3.66a16.218 16.218 0 0 1-11.035-5.861a16.218 16.218 0 0 1-3.659-11.947c.058-.6.15-1.192.27-1.775l9.289 3.312a6.693 6.693 0 1 0 2.432-5.142c-.333.275-.63.578-.896.898l-9.145-3.618a16.306 16.306 0 0 1 3.91-4.71a16.201 16.201 0 0 1 10.361-3.734c.526 0 1.056.025 1.586.076c4.34.415 8.26 2.497 11.035 5.86a16.218 16.218 0 0 1 3.659 11.946Z"/></svg>