<svg xmlns="http://www.w3.org/2000/svg" xmlns:xlink="http://www.w3.org/1999/xlink" width="256" height="263" viewBox="0 0 256 263"><path d="M255.922 37.155l-.011-.11a4.458 4.458 0 0 0-.125-.772a4.003 4.003 0 0 0-.238-.632l-.07-.17a4.351 4.351 0 0 0-.302-.674a4.14 4.14 0 0 0-.413-.579l-.109-.142a4.103 4.103 0 0 0-.452-.558a4.28 4.28 0 0 0-.563-.463l-.141-.109a4.023 4.023 0 0 0-.587-.426L198.75.85a6.19 6.19 0 0 0-6.418.096l-36.456 21.875l-37.836-21.31a6.225 6.225 0 0 0-6.105.036L3.264 63.911l-.355.21a5.219 5.219 0 0 0-.472.361l-.132.104c-.178.126-.35.261-.503.415c-.218.22-.402.467-.631.795a3.337 3.337 0 0 0-.343.478a6.268 6.268 0 0 0-.592 1.422l-.039.155A6.18 6.18 0 0 0 0 69.37l1.165 126.006a6.21 6.21 0 0 0 3.153 5.4l107.443 60.608c.275.156.564.267.95.403c.167.077.338.143.514.19a6.209 6.209 0 0 0 1.583.207c.531 0 1.065-.07 1.59-.208c.189-.05.372-.124.673-.252c.093-.033.185-.067.278-.103l.27-.002l.439-.35l106.341-60.505a6.204 6.204 0 0 0 3.133-5.434l.077-62.915c-.015-1.878-.538-4.182-1.98-5.338c-.188-.15-1.98-1.906-3.066-2.925l30.402-18.032a6.23 6.23 0 0 0 3.035-5.33V37.882c0-.228-.029-.448-.078-.728zm-60.191-23.71l41.724 24.4l-41.864 24.123l-41.488-24.458l41.628-24.065zm2.497 124.234l11.057-6.553l.565.978l-34.853 20.64l-.253-26.973l17.406 11.938l.311.181c.23.12.48.216.804.332c.179.082.36.155.541.203c1.047.284 1.962.093 3.051-.196c.176-.047.345-.116.602-.225c.257-.09.51-.188.769-.325zm-50.33-89.026l6.174 4.088l35.35 19.981l.011 47.604s-13.813-8.132-14.689-8.23l-.026-12.026c0-.21-.025-.412-.074-.73a4.406 4.406 0 0 0-.105-.747l-.066-.22a4.434 4.434 0 0 0-.165-.434l-.065-.169a4.23 4.23 0 0 0-.259-.617l-.074-.133a3.946 3.946 0 0 0-.345-.498l-.095-.13a4.436 4.436 0 0 0-.421-.544l-.113-.12a5.076 5.076 0 0 0-.546-.46a3.835 3.835 0 0 0-.53-.42l-23.962-13.397V48.653zm-39.289 196.718l-95.047-53.616V81.136l95.047 54.022v110.213zm6.167-120.968L18.862 69.421l95.986-55.844l28.365 16.588l-4.505 2.848a4.734 4.734 0 0 0-.597.466a4.759 4.759 0 0 0-.541.465a4.735 4.735 0 0 0-.435.527l-.115.151a5 5 0 0 0-.4.583a4.77 4.77 0 0 0-.283.606l-.075.182a5.01 5.01 0 0 0-.241.666a6.16 6.16 0 0 0-.143.81a3.613 3.613 0 0 0-.08.622l-.183 10.69l-23.572 15.03a6.164 6.164 0 0 0-2.974 5.227a6.167 6.167 0 0 0 2.858 5.29l44.076 25.484l-41.227 24.591zm21.132-60.605l-.315 10.95l-8.618-5.512l8.933-5.438zm-14.901 181.53v-110.21l41.502-24.02l-.048 7.71v42.908a6.207 6.207 0 0 0 3.135 5.39a6.215 6.215 0 0 0 6.24-.067l44.57-24.806l.253 47.993l-95.652 55.101zM243.504 96.392l-41.788 24.313l.103-48.018l41.784-24.079l-.099 47.784z" fill="#231F1F"/></svg>