<svg xmlns="http://www.w3.org/2000/svg" xmlns:xlink="http://www.w3.org/1999/xlink" width="256" height="299" viewBox="0 0 256 299"><path fill="#FFC700" d="M185.191 245.966a3.328 3.328 0 0 1-3.026-1.912c-.797-1.672-.16-3.743 1.513-4.54c19.754-9.877 36.242-24.931 47.712-43.49c11.708-18.957 17.842-41.18 17.842-64.28c0-42.215-21.427-80.767-57.35-103.07c-1.593-.955-2.07-3.106-1.115-4.699c.956-1.593 3.106-2.07 4.7-1.115c18.16 11.31 33.294 27.082 43.888 45.64c10.912 19.197 16.647 41.022 16.647 63.165c0 24.374-6.531 47.791-18.877 67.864c-12.108 19.674-29.551 35.604-50.42 45.959c-.478.398-.956.478-1.514.478Zm-113.345-1.275c-.478 0-1.035-.08-1.513-.398C25.648 221.752 0 180.731 0 131.745C0 79.81 30.985 33.375 78.935 13.46c1.753-.717 3.744.08 4.46 1.832c.718 1.753-.079 3.744-1.831 4.46C36.162 38.632 6.85 82.6 6.85 131.746c0 46.278 24.294 85.148 66.59 106.574a3.43 3.43 0 0 1 1.513 4.54c-.717 1.195-1.912 1.832-3.107 1.832Z"/><path fill="#150007" d="M128.4 213.388c2.226 2.637 3.288 6.437 3.631 9.784c4.88-.766 10.235-2.486 15.166-5.96c1.434-1.036 3.425-.638 4.46.796c1.036 1.434.638 3.425-.796 4.46c-8.841 6.134-18.48 7.647-25.807 7.647c-6.372 0-10.833-1.115-11.231-1.274c-1.673-.478-2.708-2.15-2.23-3.903c.478-1.673 2.15-2.708 3.903-2.23c.116.038 4.313 1.078 10.207.994c-.233-2.339-.945-4.802-2.162-6.252c-1.673-1.99-4.939-3.106-8.205-2.787c-1.832.159-5.177.955-7.009 4.221c-1.036 1.912-.956 6.691-.956 9v5.928l-.001 4.148v.483l-.001 1.403c-.005 7.144-.022 11.43-.078 13.05c-.08 2.39-.08 4.938 0 7.646c.08 11.47.24 24.453-7.248 31.94c-3.664 3.665-8.841 5.576-15.373 5.576c-9.24 0-15.77-2.947-19.355-8.682c-2.788-4.46-3.186-9.399-3.186-13.7v-20.869a3.195 3.195 0 0 1 3.186-3.186H91.36a3.195 3.195 0 0 1 3.186 3.186v16.887a3.195 3.195 0 0 1-3.186 3.186a3.195 3.195 0 0 1-3.186-3.186v-13.7H68.501v17.682c0 8.364 1.991 16.09 16.17 16.09c4.858 0 8.363-1.195 10.912-3.744c5.575-5.575 5.496-17.205 5.336-27.4c0-2.788-.08-5.416 0-7.965c.053-1.434.071-5.417.077-11.9v-.9l.001-.462v-1.431l.001-.492l.001-9.507c-.08-4.461 0-9.08 1.752-12.187c2.39-4.222 6.691-6.93 11.948-7.408c5.416-.478 10.674 1.434 13.7 5.018Zm77.82-55.517c.477.716 11.23 18.001 14.815 42.852c.239 1.434-.558 2.788-1.832 3.346c-12.585 5.496-27.082 31.064-31.542 40.384c-.478 1.194-1.594 1.832-2.788 1.832c-.478 0-.956-.08-1.354-.32c-1.593-.796-2.23-2.628-1.514-4.22c.637-1.434 16.09-32.977 32.498-42.296c-2.39-14.656-7.407-26.365-10.673-32.817l-36.242 77.582c-.557 1.115-1.673 1.832-2.867 1.832h-49.703a3.195 3.195 0 0 1-3.186-3.187a3.195 3.195 0 0 1 3.186-3.186h47.632l37.994-81.484c.478-1.035 1.513-1.752 2.708-1.832c1.195-.08 2.23.478 2.867 1.514Zm-149.508-.478c1.036.159 1.912.876 2.31 1.832l37.596 82.28c.717 1.593 0 3.505-1.593 4.222c-.398.239-.876.319-1.274.319c-1.195 0-2.39-.717-2.868-1.832l-35.525-77.9c-4.779 6.053-13.54 18.957-14.178 33.613c16.409 10.753 33.693 40.065 34.41 41.34c.876 1.513.398 3.424-1.115 4.38c-1.514.876-3.425.399-4.381-1.115c-.16-.318-18.32-31.144-33.693-40.065a3.213 3.213 0 0 1-1.593-2.788c0-23.656 18.4-42.614 19.117-43.41c.716-.717 1.752-1.115 2.787-.876ZM141.781 0a4.11 4.11 0 0 1 3.892 2.705c4.351.522 11.892 1.835 18.291 4.939c1.064-2.056 3.471-3.415 6.173-2.228c14.019 6.213 29.232 18.4 39.508 36.56l.02.033c.058.095.246.404.536.907l.324.566c3.406 6.017 15.421 29.14 13.298 52.499c-.265 3.174-2.823 4.64-5.23 4.358c.998 1.638 1.615 3.276 1.884 4.882c.24 1.115 1.434 7.168-2.628 12.425c-3.442 4.54-9.576 6.993-18.155 7.36c3.82 10.088 3.18 19.988 3.18 20.439c-.08 1.593-1.434 2.867-3.106 2.867h-.24c-1.752-.159-3.106-1.672-2.946-3.425c0-.035.03-.544.035-1.414v-.494c-.021-3.333-.453-10.507-3.46-17.288a3.144 3.144 0 0 1-.21-.637h-6.163c-5.416 0-11.947.08-18.957.08c-6.55 0-13.526-.027-20.497-.096c-1.47 4.634-2.204 10.3-2.204 17.3v37.198c.08 6.054 0 12.744-1.752 16.408c-2.47 5.098-7.806 8.205-14.258 8.284c-.08.16-.16.16-.318.16c-6.532 0-12.665-3.187-15.214-7.966c-2.15-3.982-2.071-8.523-1.991-14.257c0-1.753.08-3.505 0-5.496a3.25 3.25 0 0 1 3.106-3.266c1.752-.08 3.186 1.354 3.266 3.106v5.656c-.08 4.858-.16 8.682 1.195 11.23c1.513 2.788 5.496 4.7 9.797 4.62c1.912 0 6.611-.557 8.682-4.779c1.274-2.628 1.195-10.514 1.115-13.54v-37.278c0-6.83.678-12.566 1.991-17.46c-2.849-.038-5.673-.086-8.443-.143c-5.57.118-11.377.194-17.163.24l-2.169.017c-4.332.03-8.635.043-12.798.046H96.06a3780.69 3780.69 0 0 1-18.318-.064H67.147c-8.364 0-14.736-2.23-18.718-6.69c-4.7-5.178-4.54-11.55-4.461-12.666c0-2.177.619-4.298 1.84-6.346c-2.695 2.103-7.295.945-7.655-3.371c-2.123-23.359 9.892-46.482 13.298-52.499l.324-.566c.29-.503.478-.812.537-.907l.02-.032C62.606 23.816 77.82 11.629 91.838 5.417c2.53-1.112 4.802.008 5.954 1.843c8.17-3.749 17.925-4.683 20.551-4.897A4.133 4.133 0 0 1 122.107 0Zm30.746 139.073c3.475 0 6.292 2.781 6.292 6.213c0 3.43-2.817 6.212-6.292 6.212c-3.476 0-6.293-2.781-6.293-6.212c0-3.432 2.817-6.213 6.293-6.213Zm-65.156 2.07a3.195 3.195 0 0 1 3.186 3.187a3.195 3.195 0 0 1-3.186 3.186H78.06a3.195 3.195 0 0 1-3.186-3.186a3.195 3.195 0 0 1 3.186-3.186h29.312ZM53.048 99.327c-2.31 2.23-3.425 4.381-3.425 6.452v.239s-.011.14-.013.39v.184c.013 1.391.326 5.045 3.04 7.949c2.947 3.186 7.806 4.779 14.497 4.779H77.74c6.336.07 14.105.126 22.431.13h2.093c9.464-.005 19.543-.077 28.99-.268l1.047-.021c10.595.224 22.051.297 32.57.303h3.026c6.991-.004 13.473-.034 18.886-.064h10.594c7.886 0 13.382-1.753 16.01-5.178c2.629-3.425 1.593-7.646 1.593-7.646l-.08-.319c-.876-5.337-8.363-10.992-20.072-15.134c-15.134-5.257-36.72-8.045-62.606-8.045h-.08c-29.95-1.035-65.952 3.585-79.095 16.25Zm93.537-84.151l.206.183c2.232 2.013 4.798 4.783 7.416 8.538c11.251 16.063 15.142 38.593 16.339 55.89c18.5 2.579 31.205 7.027 39.19 12.121c-3.121-14.856-8.077-32.318-17.854-46.983c-10.975-16.463-26.142-26.434-45.297-29.75Zm-33.563.324l-.092.016c-13.478 2.433-24.722 7.67-33.517 15.629c-7.01 6.372-12.744 14.736-16.966 24.772c-4.15 9.974-6.902 21.878-8.257 35.408c8.17-5.267 20.651-9.26 35.772-11.62c1.247-17.212 5.173-39.436 16.214-55.888c2.398-3.545 4.754-6.262 6.846-8.317Zm18.563-1.56c-5.165 0-10.089.321-14.762.96c-7.524 6.342-21.84 23.615-24.845 64.5c12.117-1.744 25.833-2.463 40.324-1.977c13.85 0 25.819.756 36.077 2.073c-3.032-43.44-18.759-59.714-25.951-64.929a91.233 91.233 0 0 0-10.843-.627Zm14.273-9.085l-.014.079a4.058 4.058 0 0 1-1.684 2.538c7.199.923 13.92 2.67 20.152 5.233a4.46 4.46 0 0 1-.92-2.988c-5.957-2.955-13.173-4.29-17.534-4.862Zm-27.88-.382l-.14.013c-3.284.307-12.063 1.41-19.304 4.758a4.546 4.546 0 0 1-.354 2.611c6.493-2.284 13.59-3.812 21.286-4.58a4.028 4.028 0 0 1-1.488-2.802Z"/></svg>