<svg xmlns="http://www.w3.org/2000/svg" xmlns:xlink="http://www.w3.org/1999/xlink" width="256" height="248" viewBox="0 0 256 248"><path fill="#512833" d="M50.2.092L255.89 41.71l-41.618 205.695l-205.69-41.616L50.2.092Z"/><path fill="#934358" d="m24.17 9.173l208.883 20.273L212.78 238.33L3.897 218.057L24.171 9.173Z"/><path fill="#E5637C" d="M.182 18.825h209.869v209.869H.182z"/><path fill="#FFF" d="M72.569 162.917c0-1.24.775-3.107 2.331-5.595c1.553-2.486 2.953-3.73 4.197-3.73c.122 0 1.12.591 2.985 1.772c1.865 1.183 4.538 2.363 8.02 3.544c3.48 1.183 7.677 1.772 12.59 1.772c4.912 0 8.954-1.4 12.125-4.197c3.171-2.798 4.757-6.59 4.757-11.378c0-4.785-1.4-8.516-4.198-11.192c-2.798-2.672-8.364-5.19-16.694-7.553c-8.332-2.36-14.362-5.377-18.093-9.047c-3.73-3.666-5.595-9.233-5.595-16.694c0-7.46 2.858-13.71 8.58-18.746c5.717-5.036 13.179-7.554 22.382-7.554c6.342 0 12 .81 16.975 2.425c4.972 1.618 7.46 3.422 7.46 5.41c0 1.616-.717 3.7-2.144 6.248c-1.432 2.55-2.705 3.824-3.824 3.824c-.126 0-.933-.374-2.425-1.12c-4.23-2.239-8.986-3.357-14.27-3.357c-5.286 0-9.39 1.09-12.31 3.264c-2.923 2.177-4.383 5.007-4.383 8.487c0 3.482 1.087 6.219 3.264 8.207c2.174 1.99 5.876 3.795 11.098 5.409c11.687 3.608 19.614 7.554 23.782 11.844c4.165 4.29 6.249 10.758 6.249 19.399c0 8.645-3.078 15.761-9.234 21.357c-6.155 5.596-13.523 8.393-22.103 8.393c-8.58 0-15.98-1.273-22.196-3.823c-6.219-2.548-9.326-5.005-9.326-7.369Z"/></svg>