<svg xmlns="http://www.w3.org/2000/svg" xmlns:xlink="http://www.w3.org/1999/xlink" width="256" height="297" viewBox="0 0 256 297"><defs><linearGradient id="logosSpinnaker0" x1="82.179%" x2="34.613%" y1="6.032%" y2="106.135%"><stop offset="0%" stop-color="#2B3990"/><stop offset="16%" stop-color="#1E62A7"/><stop offset="32%" stop-color="#1485BC"/><stop offset="49%" stop-color="#0BA1CC"/><stop offset="66%" stop-color="#05B4D7"/><stop offset="83%" stop-color="#01C0DE"/><stop offset="100%" stop-color="#00C4E0"/></linearGradient><linearGradient id="logosSpinnaker1" x1="-31668%" x2="-19806%" y1="78954%" y2="78954%"><stop offset="0%" stop-color="#2B3990"/><stop offset="16%" stop-color="#1E62A7"/><stop offset="32%" stop-color="#1485BC"/><stop offset="49%" stop-color="#0BA1CC"/><stop offset="66%" stop-color="#05B4D7"/><stop offset="83%" stop-color="#01C0DE"/><stop offset="100%" stop-color="#00C4E0"/></linearGradient></defs><path fill="url(#logosSpinnaker0)" d="M21.943 218.333c98.86 9.8 178.241-48.676 198.043-73.732C239.788 119.544 209.763 0 209.763 0c-32.546 79.956-91.723 201.14-187.82 218.373v-.04Z"/><path fill="url(#logosSpinnaker1)" d="M67.657 186.424c58.315 2.147 102.702-34.523 113.402-49.725c10.7-15.202-5.683-83.67-5.683-83.67c-16.206 47.43-61.298 116.543-107.719 133.395Z"/><path fill="#149CB5" d="M3.805 269.93a20.952 20.952 0 0 0 6.322 4.488a17.699 17.699 0 0 0 7.554 1.7a12.047 12.047 0 0 0 7.748-2.23a7.131 7.131 0 0 0 2.767-5.848a7.194 7.194 0 0 0-.65-3.209a7.018 7.018 0 0 0-1.757-2.257a12.863 12.863 0 0 0-2.643-1.7l-3.265-1.577l-7.208-3.087a34.303 34.303 0 0 1-3.597-1.809a14.74 14.74 0 0 1-3.293-2.556a12.22 12.22 0 0 1-2.38-3.576a12.394 12.394 0 0 1 .263-9.981A12.8 12.8 0 0 1 6.96 234.1a15.365 15.365 0 0 1 4.98-2.72a19.552 19.552 0 0 1 6.324-.979c2.858-.019 5.688.56 8.3 1.7a21.045 21.045 0 0 1 6.517 4.406l-3.445 4.079a18.002 18.002 0 0 0-5.105-3.427a15.449 15.449 0 0 0-6.323-1.237a11.055 11.055 0 0 0-6.793 1.917a6.256 6.256 0 0 0-2.573 5.317a5.94 5.94 0 0 0 .733 3.046a7.585 7.585 0 0 0 2.006 2.135c.836.64 1.735 1.196 2.684 1.659c.969.48 1.965.933 2.989 1.36l7.139 3.018a30.816 30.816 0 0 1 4.067 2.067a14.593 14.593 0 0 1 3.293 2.72a11.762 11.762 0 0 1 2.186 3.617c.562 1.534.834 3.156.802 4.786a12.905 12.905 0 0 1-1.19 5.44a13.266 13.266 0 0 1-3.417 4.487a16.274 16.274 0 0 1-5.368 3.019a21.675 21.675 0 0 1-7.125 1.087c-6.655.056-13.037-2.591-17.64-7.315l3.805-4.352Z"/><path fill="#149CB5" d="M40.756 283.86v12.369h-6.013v-52.116h4.982l.515 4.218h.225a27.005 27.005 0 0 1 5.286-3.62a12.909 12.909 0 0 1 6.04-1.51c2.1-.03 4.18.436 6.079 1.361a11.902 11.902 0 0 1 4.4 3.77a17.935 17.935 0 0 1 2.643 5.878c.638 2.522.945 5.122.912 7.728a25.803 25.803 0 0 1-1.242 8.342a19.448 19.448 0 0 1-3.37 6.218a14.304 14.304 0 0 1-4.903 3.878a13.544 13.544 0 0 1-5.854 1.36a11.723 11.723 0 0 1-4.943-1.128a24.878 24.878 0 0 1-4.942-3.09l.185 6.342Zm0-11.24a15.895 15.895 0 0 0 4.691 2.98c1.263.524 2.604.819 3.965.87a8.353 8.353 0 0 0 4.07-1.02a9.801 9.801 0 0 0 3.225-2.87a14.238 14.238 0 0 0 2.127-4.56a22.38 22.38 0 0 0 .767-6.109a27.35 27.35 0 0 0-.516-5.443a12.458 12.458 0 0 0-1.652-4.259a8.015 8.015 0 0 0-2.933-2.721a8.823 8.823 0 0 0-4.282-.98a9.37 9.37 0 0 0-4.573 1.28a26.847 26.847 0 0 0-4.942 3.7l.053 19.132Zm31.477-36.208a4.895 4.895 0 0 1-3.256-1.108c-.843-.737-1.32-1.76-1.32-2.83c0-1.071.477-2.095 1.32-2.83c1.888-1.43 4.608-1.43 6.497 0c.846.734 1.326 1.758 1.326 2.83c0 1.071-.48 2.095-1.326 2.83a4.878 4.878 0 0 1-3.241 1.108Zm-3.372 7.395h6.584v35.964H68.86v-35.964Zm11.596.271H85.6l.526 5.141h.23a29.606 29.606 0 0 1 5.492-4.293a12.8 12.8 0 0 1 6.747-1.722c3.842 0 6.649 1.175 8.421 3.524c1.773 2.35 2.672 5.825 2.7 10.427v22.616h-6.14v-21.808c0-3.374-.55-5.807-1.647-7.3a6.068 6.068 0 0 0-5.236-2.239a9.07 9.07 0 0 0-5.007 1.391a32.326 32.326 0 0 0-4.94 4.108v25.848h-6.14l-.148-35.693Zm32.914.001h5.097l.528 5.14h.23a29.653 29.653 0 0 1 5.502-4.292a12.829 12.829 0 0 1 6.76-1.723c3.849 0 6.661 1.175 8.437 3.524c1.775 2.35 2.677 5.826 2.704 10.427v22.616h-6.274v-21.807c0-3.375-.55-5.808-1.65-7.3a6.085 6.085 0 0 0-5.245-2.24a9.1 9.1 0 0 0-5.016 1.391a32.372 32.372 0 0 0-4.948 4.108v25.848h-6.125V244.08ZM146.3 271.2c-.091-3.858 2.05-7.432 5.524-9.224c3.682-2.137 9.486-3.632 17.413-4.483c0-1.136-.115-2.27-.345-3.383a8.079 8.079 0 0 0-1.23-2.934a6.634 6.634 0 0 0-2.333-2.065a7.826 7.826 0 0 0-3.756-.788a15.21 15.21 0 0 0-6.09 1.21a30.2 30.2 0 0 0-5.013 2.716l-2.527-4.293a40.949 40.949 0 0 1 6.353-3.206a21.531 21.531 0 0 1 8.285-1.548c4.538 0 7.83 1.358 9.873 4.075a17.904 17.904 0 0 1 3.066 10.95v22.456h-5.206l-.539-4.361h-.152a30.986 30.986 0 0 1-5.772 3.722a14.498 14.498 0 0 1-6.545 1.549a11.48 11.48 0 0 1-7.844-2.717a9.66 9.66 0 0 1-3.162-7.676Zm6.2-.448a5.19 5.19 0 0 0 1.878 4.524a7.698 7.698 0 0 0 4.626 1.358a10.955 10.955 0 0 0 5.096-1.25a24.705 24.705 0 0 0 5.095-3.654v-10.162a66.3 66.3 0 0 0-7.885 1.427a20.922 20.922 0 0 0-5.164 1.956a7.337 7.337 0 0 0-2.762 2.595a6.32 6.32 0 0 0-.884 3.206Zm24.871-44.009h6.226v35.908h.236l15.903-19.07h6.933l-12.479 14.527l14.267 21.663h-6.932l-10.912-17.47l-6.933 7.902v9.528h-6.225z"/><path fill="#149CB5" d="M202.977 262.556c-.063-2.776.4-5.538 1.363-8.144a18.988 18.988 0 0 1 3.705-6.053a16.034 16.034 0 0 1 5.246-3.8a14.845 14.845 0 0 1 6.118-1.357a15.434 15.434 0 0 1 6.226 1.208a12.149 12.149 0 0 1 4.605 3.46a15.858 15.858 0 0 1 2.834 5.43a23.787 23.787 0 0 1 .981 7.07a21.125 21.125 0 0 1-.231 3.38h-24.689a14.49 14.49 0 0 0 3.666 9.406a11.277 11.277 0 0 0 8.57 3.46c1.659.02 3.309-.247 4.877-.787a21.576 21.576 0 0 0 4.265-2.063l2.193 4.072a31.387 31.387 0 0 1-5.368 2.633a18.718 18.718 0 0 1-6.717 1.126a18.045 18.045 0 0 1-6.908-1.357a16.353 16.353 0 0 1-5.586-3.76a17.39 17.39 0 0 1-3.733-5.985a22.303 22.303 0 0 1-1.417-7.94Zm25.683-2.783c0-3.764-.795-6.636-2.385-8.618a8.08 8.08 0 0 0-6.69-2.972a9.09 9.09 0 0 0-3.733.787a10.355 10.355 0 0 0-3.215 2.253a12.035 12.035 0 0 0-2.384 3.61a16.628 16.628 0 0 0-1.24 4.927l19.647.013Zm7.24-15.749h5.099l.527 6.475h.23a16.574 16.574 0 0 1 4.532-5.307a9.503 9.503 0 0 1 5.816-1.99a9.864 9.864 0 0 1 3.896.73l-1.204 5.307a14.587 14.587 0 0 0-1.65-.438c-.62-.107-1.25-.156-1.88-.146a8.206 8.206 0 0 0-4.843 1.844a14.585 14.585 0 0 0-4.383 6.396v22.876h-6.154l.013-35.747Z"/></svg>