<svg xmlns="http://www.w3.org/2000/svg" xmlns:xlink="http://www.w3.org/1999/xlink" width="256" height="419" viewBox="0 0 256 419"><path fill="#FFF" d="M217.619 99.409c-8.529-26.456-27.921-63.632-30.684-68.865l-2.406-4.574a533.076 533.076 0 0 0-4.806-9.363L170.985 0l-12.517 88.948l-.436 3.235a525.09 525.09 0 0 0-29.859-.84c-10.598 0-20.62.31-30.034.85l-.386-3.247l-4.393-31.179C93.366 57.715 85.217 0 85.217 0l-8.922 16.607a603.446 603.446 0 0 0-6.412 12.505l-.77 1.432c-2.77 5.238-22.347 42.48-30.93 68.94C13.423 104.267 0 109.383 0 109.383v216.216l127.999 92.72L256 325.6V109.383s-13.465-5.17-38.381-9.974Z"/><path fill="#3B3B63" d="M183.073 267.277H127.9v-94.47l-55.982 91.708l-8.704 94.172l63.824 46.618l.862.631l65.273-47.585z"/><path fill="#DBDBDB" d="M126.954 404.967L8.18 318.858V118.061s43.918-16.753 118.936-16.753c75.02 0 118.616 16.753 118.616 16.753v200.797l-118.777 86.11Z"/><path fill="#C6C6C6" d="m128.675 101.308l-.163.002v303.652h.002l118.777-86.109V118.061s-43.598-16.753-118.616-16.753"/><path fill="#3B3B63" d="m192.847 358.157l-10.08-90.88h-55.176v138.448z"/><path fill="#53537A" d="m63.213 358.687l64.687 47.249V172.807l-55.983 91.708z"/><path fill="#BC9375" d="M155.74 331.842c0 15.582-14.315 23.306-27.447 23.306s-27.736-7.724-27.736-23.306"/><path fill="#073251" d="M147.692 323.012c0 18.274-9.677 23.173-19.544 23.173c-9.866 0-19.546-4.9-19.546-23.173"/><path fill="#FFF" d="M128.147 339.9c-10.543 0-15.669-7.864-15.669-24.03h5.027c0 18.926 7.186 18.926 10.642 18.926c3.455 0 10.642 0 10.642-18.926h5.026c0 16.166-5.127 24.03-15.668 24.03"/><path fill="#C49A7E" d="M211.832 129.623c0-19.714-32.77-81.74-32.77-81.74l-11.085 78.663l-9.949 16.607l-29.819 1.233l-.118.244v-.244l-29.823-1.233l-9.946-16.607l-11.085-78.664s-32.773 62.027-32.773 81.741l13.845 37.88s-6.987 63.626-3.797 71.956c3.18 8.332 25.27 36.195 25.27 36.195s-.066 23.424 5.982 40.264c4.315 12.026 13.822 16.904 22.925 16.904c13.944 0 19.4-13.006 19.4-13.006s5.585 13.006 19.53 13.006c9.1 0 18.598-4.87 22.923-16.904c6.041-16.833 5.98-40.264 5.98-40.264s22.085-27.863 25.271-36.195c3.188-8.332-3.8-71.957-3.8-71.957l13.84-37.879Z"/><path fill="#D8B7A0" d="m128.147 144.512l-.057.118v-.243l-29.824-1.232l-9.945-16.608l-11.089-78.663s-32.77 62.027-32.77 81.741l13.842 37.879s-6.985 63.626-3.8 71.957c3.187 8.332 25.268 36.195 25.268 36.195s-.057 23.424 5.984 40.264c4.321 12.026 13.83 16.904 22.924 16.904c13.951 0 19.406-13.006 19.406-13.006s.025.046.063.131V144.512h-.002Z"/><path fill="#3B3B63" d="M198.291 171.23c-2.54-5.403 1.071-18.19 1.071-18.19c-20.694-21.565-25.869-66.534-25.869-66.534c-3.864 14.17-12.262 55.949-12.262 55.949s-15.445-5.848-33.015-5.876h-.131c-.965.005-1.916.03-2.866.06v176.292l1.312 1.953v-.965h.811v.965l.008-.965h1.602v.965v-.965h.82v.965l14.304-21.236l3.11-59.633l17.81 20.654l22.944 6.814s8.584-6.221 8.584-6.198c3.645-5.188 4.854-9.608 5.735-11.901c3.187-8.344-3.968-72.153-3.968-72.153"/><path fill="#53537A" d="m128.308 136.577l-.061-.002v.002c-17.577.03-33.024 5.874-33.024 5.874s-8.4-41.777-12.261-55.948c0 0-5.172 44.969-25.87 66.534c0 0 3.611 12.788 1.072 18.19c0 0-7.156 63.813-3.968 72.144c.88 2.295 2.098 6.712 5.738 11.9c0-.023 8.588 6.2 8.588 6.2l22.94-6.815l17.806-20.651l3.118 59.633l14.297 21.236v-.965h.82v.965v-.965h.802V136.577h.002Z"/><path fill="#333152" d="M169.78 211.144h-26.805v.287c0 9.507 8.095 17.208 17.589 17.208c9.496 0 17.59-7.703 17.59-17.208v-.287h-8.374Z"/><path fill="#FFF" d="M149.676 211.144v.287c0 5.655 4.482 10.237 10.054 10.237c5.57 0 10.05-4.582 10.05-10.237v-.287h-20.104Z"/><path fill="#333152" d="M162.83 211.144h-4.71c-.046 0-.085.023-.126.032c.584.124.908 1.47.782 2.365a2.707 2.707 0 0 1-2.652 2.341c.383 1.79 1.819 3.227 3.727 3.5c2.437.35 4.689-1.347 5.035-3.82c.248-1.82-.614-4.418-2.055-4.418m-57.755 0H78.274v.287c0 9.507 8.095 17.208 17.588 17.208c9.497 0 17.592-7.703 17.592-17.208v-.287h-8.378Z"/><path fill="#FFF" d="M84.976 211.144v.287c0 5.655 4.485 10.237 10.049 10.237c5.573 0 10.053-4.582 10.053-10.237v-.287H84.976Z"/><path fill="#333152" d="M98.13 211.144h-4.715c-.041 0-.085.023-.123.032c.583.124.905 1.47.782 2.365c-.19 1.368-1.331 2.318-2.655 2.341c.388 1.79 1.824 3.227 3.728 3.5c2.436.35 4.693-1.347 5.034-3.82c.252-1.82-.61-4.418-2.05-4.418"/><path fill="#C49A7E" d="M167.758 203.03c1.125-1.252 10.68-12.26-2.1-12.26c-11.546 0-19.854 9.46-22.056 12.26h24.156Z"/><path fill="#D8B7A0" d="M112.638 203.03c-2.2-2.8-10.508-12.26-22.059-12.26c-12.772 0-3.217 11.008-2.098 12.26h24.157Z"/><path fill="#53537A" d="M72.109 211.043h48.882v-4.667H72.109z"/><path fill="#333152" d="M199.176 144.864c-14.213-20.288-18.672-53.27-19.059-56.284l2.593-18.385c10.554 21.806 21.627 47.685 22.386 58.485l-5.92 16.184Zm-3.63 92.293c-1.94 5.064-15.345 23.157-24.249 34.39l-1.485 1.883l.007 2.404c0 .217-.007 22.394-5.577 37.914c-4.027 11.217-12.972 12.43-16.626 12.43c-9.252 0-13.245-8.612-13.385-8.923l-.529-8.066h-11.247l-.508 8.02c-.16.365-4.055 8.946-13.26 8.946c-3.663 0-12.605-1.199-16.635-12.416c-5.552-15.465-5.578-37.688-5.578-37.914l.008-2.403l-1.485-1.875c-8.899-11.225-22.304-29.318-24.197-34.259c-1.513-5.344.985-39.905 4.165-68.866l.175-1.607l-2.509-6.858c8.62-9.176 14.67-21.804 18.842-33.825l.406 2.926l13.691 22.843l5.35-2.332c.134-.058 13.851-5.984 27.171-5.984c13.236 0 27.18 5.931 27.31 5.99l5.341 2.311l13.675-22.833l.536-3.813c4.13 12.14 10.172 24.993 18.833 34.373l-2.627 7.197l.175 1.606c3.178 28.967 5.676 63.528 4.212 68.741Zm-75.74 100.245a26.17 26.17 0 0 0 4.831-2.83c1.302.387 2.551.387 3.51.387c.954 0 2.19.01 3.483-.38a26.763 26.763 0 0 0 4.837 2.823c-2.245 1.704-5.009 2.662-8.313 2.662c-3.323 0-6.1-.95-8.348-2.662Zm8.487 14.51c-7.356 0-17.816-3.33-20.418-12.158c.266.008.528.031.8.031c1.421 0 2.754-.132 4.042-.318c3.731 5.274 9.543 6.892 15.432 6.892c5.898 0 11.722-1.603 15.46-6.886c1.28.178 2.597.312 4.007.312c.277 0 .543-.023.82-.03c-2.577 8.826-12.897 12.156-20.143 12.156ZM51.206 128.677c.76-10.8 11.825-36.677 22.381-58.485l2.814 19.94c-1.073 7.455-5.977 36.693-19.132 55.123l-6.063-16.578Zm167.158 1.108c0-20.822-30.05-78.45-33.483-84.954l-9.607-18.259l-13.762 97.794l-6.352 10.622c-6.132-2.09-16.568-5.009-27.077-5.009c-10.497 0-20.863 2.908-26.969 5.002l-6.355-10.617l-4.83-34.28c.006-.057.014-.133.014-.168l-.037-.005l-8.93-63.339l-9.81 18.26c-3.438 6.502-33.728 64.131-33.728 84.953v1.222l13.87 37.511c-2.218 20.452-6.452 64.878-3.126 73.561c2.072 5.43 10.048 16.64 16.794 25.624L55.89 353.69l12.51 8.962l6.612-62.55c.95 6.083 2.352 12.507 4.433 18.31c2.87 7.997 7.94 14.05 14.431 17.642c.386 19.144 17.908 29.468 34.417 29.468c16.372 0 33.75-10.332 34.13-29.483c6.476-3.585 11.541-9.639 14.407-17.627c2.167-6.035 3.588-12.757 4.534-19.05l6.651 62.775l12.511-9.28l-9.064-85.413c6.693-8.945 14.52-19.99 16.572-25.36c3.325-8.68-1.08-53.114-3.295-73.563l13.623-37.516v-1.22h.002Z"/><path fill="#333152" d="M143.921 285.822h-31.443s-4.229 7.483-4.229 9.912c0 7.21 19.353 18.692 19.353 18.692s20.443-11.823 20.443-18.692c0-3.277-4.124-9.912-4.124-9.912"/><path fill="#C49A7E" d="M137.86 307.804c-1.754-3.157-4.017-3.733-5.056-1.3c-1.036 2.438-.444 6.972 1.31 10.122c1.755 3.159 4.02 3.735 5.053 1.299c1.04-2.435.45-6.971-1.306-10.121"/><path fill="#D8B7A0" d="M118.434 307.804c-1.757 3.15-2.341 7.686-1.307 10.12c1.035 2.437 3.296 1.86 5.058-1.298c1.753-3.15 2.34-7.684 1.302-10.121c-1.034-2.434-3.296-1.858-5.053 1.299"/></svg>