<svg xmlns="http://www.w3.org/2000/svg" xmlns:xlink="http://www.w3.org/1999/xlink" width="256" height="247" viewBox="0 0 256 247"><path fill="#027AC3" d="M55.216 246.742h-22.79c0-19.845 11.596-36.97 28.377-44.99a49.602 49.602 0 0 0-8.577 27.953a49.77 49.77 0 0 0 2.99 17.037Zm125.795 0h-22.79c0-19.845 11.596-36.97 28.38-44.99a49.605 49.605 0 0 0-8.58 27.953c0 5.985 1.06 11.72 2.99 17.037Zm64.97-13.723c-6.044-20.718-24.847-36.12-47.517-36.12c-27.525 0-49.844 22.313-49.844 49.838h-26c-.003-27.525-22.318-49.837-49.843-49.837c-27.524 0-49.842 22.312-49.842 49.837H1.845a128.918 128.918 0 0 1-1.844-21.735c0-28.716 9.458-55.23 25.425-76.587c-10.89-8.066-19.303-19.658-23.281-33.72C-6.321 84.803 11.03 53.757 40.918 45.3c7.09-2.007 11.573-9.37 9.563-16.459c-2.006-7.09-9.737-11.205-16.825-9.199c-5.08 1.438-10.37-1.512-11.805-6.596a9.557 9.557 0 0 1 6.593-11.808C45.71-3.648 63.642 6.364 68.528 23.629c4.888 17.262-5.133 35.192-22.398 40.081c-14.943 4.23-23.62 19.75-19.391 34.695c3.394 11.982 11.908 21.113 22.492 25.7C70.949 107.126 98.295 97.002 128 97.002c23.202 0 44.96 6.173 63.725 16.964c1.48-14.256 9.626-26.79 21.617-33.502c.326 1.33.608 2.686.82 4.067c1.558 10.143-.369 19.971-4.817 28.226c2.646-1.005 5.414-1.779 8.316-2.222c10.104-1.555 19.943.759 28.116 5.871c-5.971 5.823-13.658 9.885-22.409 11.232a40.69 40.69 0 0 1-12.268.011c27.476 23.475 44.9 58.38 44.9 97.354c0 2.605-.074 5.214-.23 7.778c-.125 2.924-1.864 4.82-4.456 4.956c-2.599.134-4.116-1.483-5.332-4.717Zm-38.841-72.09c0-5.042-4.084-9.13-9.126-9.13c-5.04 0-9.13 4.088-9.13 9.13c0 5.039 4.09 9.128 9.13 9.128c5.042 0 9.126-4.09 9.126-9.129Z"/></svg>