<svg xmlns="http://www.w3.org/2000/svg" xmlns:xlink="http://www.w3.org/1999/xlink" width="512" height="140" viewBox="0 0 512 140"><path d="M71.888 60.158c-5.9-5.088-14.68-9.375-26.343-12.86c-7.57-2.731-12.736-5.009-15.483-6.82c-2.752-1.81-4.127-4.231-4.127-7.247c0-3.117 1.365-5.729 4.092-7.85c2.727-2.117 6.488-3.18 11.29-3.18c4.89 0 8.72 1.29 11.496 3.849c2.773 2.573 4.162 6.362 4.162 10.461h23.138l.143-.428c.234-9.232-3.28-17.246-10.542-23.107c-7.268-5.872-16.594-9.264-27.972-9.264c-11.475 0-20.94 3.124-28.393 8.453c-7.463 5.325-11.19 12.293-11.19 20.92c0 8.856 3.128 15.636 9.386 20.32c6.251 4.692 15.873 9.087 28.85 13.186c6.209 2.215 10.513 4.308 12.913 6.29c2.396 1.977 3.594 4.78 3.594 8.41c0 3.204-1.215 5.795-3.632 7.77c-2.424 1.977-6.102 2.977-11.037 2.977c-6.488 0-11.335-1.278-14.529-3.824c-3.2-2.55-4.799-5.297-4.799-11.235H.157l-.147.418c-.233 11.033 3.445 17.984 11.96 23.849c8.515 5.872 18.6 8.807 30.26 8.807c11.61 0 20.937-2.56 27.969-7.675c7.03-5.116 10.545-12.193 10.545-21.24c-.004-8.895-2.95-15.895-8.856-20.98zM230.534 7.376h-21.85v102.646h69.4V91.686h-47.55V7.376zm-126.69 18.395h73.691c4.991 0 7.199-2.674 7.199-7.675v-.913c0-9.093-8.557-12.656-13.54-12.656c0 0-13.272-4.527-30.198-4.527c-16.929 0-30.807 4.527-30.807 4.527c-4.928 0-13.307 4.392-13.505 13.269c.177 4.663 2.385 7.975 7.16 7.975zm-7.199-8.588v.916c0-.108.032-.195.035-.303c-.01-.209-.035-.4-.035-.613zm5.52 52.51h77.09c4.984 0 7.31-4.05 7.31-9.047V49.418c0-4.994-2.322-9.044-7.31-9.044h-77.09c-4.987 0-7.198 4.046-7.198 9.044v11.228c-.004 4.997 2.211 9.048 7.198 9.048zm82.673 27.043c.3-1.132.509-2.35.509-3.74v-1.15c0-4.99-4.04-7.438-9.027-7.438h-70.644c-4.8 0-8.682 3.336-8.975 8.034c.307 8.543 6.788 12.983 11.656 12.983c0 0 15.71 4.51 32.64 4.51c11.558 0 22.4-2.1 28.118-3.434c.055.063.073.14.128.199l16.511 16.545a4.521 4.521 0 0 0 6.384 0l6.387-6.397c1.762-1.77 1.762-4.639 0-6.398l-13.687-13.714zm-88.193-3.74c0-.195.042-.366.063-.55c-.007-.213-.063-.38-.063-.6v1.15zm258.356-45.048c-2.556-4.61-6.216-8.243-10.517-10.897c-4.298-2.657-9.4-3.98-15.303-3.98c-8.925 0-15.898 3.524-20.916 10.583c-5.022 7.053-7.533 16.563-7.533 28.53v1.459c0 11.642 2.497 20.86 7.495 27.659c4.994 6.798 11.931 10.2 20.808 10.2c5.858 0 10.984-1.187 15.38-3.556c4.387-2.382 8.065-5.593 10.583-9.646l.136 11.732h3.402V3.604h-3.538v44.344H355zm0 43.369c-1.957 4.987-5.332 8.964-9.678 11.945c-4.346 2.981-9.796 4.468-16.35 4.468c-7.997 0-14.046-3.071-18.162-9.218c-4.113-6.143-6.168-14.435-6.168-24.866v-1.459c0-10.479 2.08-18.99 6.23-25.53c4.162-6.545 10.243-9.815 18.235-9.815c7.21 0 12.83 1.825 16.873 5.485c4.04 3.657 7.199 8.181 9.017 13.586v35.404H355zm52.89-58.246c-8.877 0-16.336 3.552-22.375 10.65c-6.043 7.104-9.065 16.079-9.065 26.927v4.465c0 10.336 3.12 18.99 9.371 25.948c6.258 6.959 13.68 10.441 22.275 10.441c5.764 0 10.775-.853 15.024-2.546c4.259-1.696 7.87-4.207 10.841-7.508l-2.027-2.94a25.407 25.407 0 0 1-9.72 6.92c-3.789 1.53-8.494 2.299-14.115 2.299c-7.898 0-14.529-3.148-19.875-9.462c-5.339-6.314-8.01-14.028-8.01-23.152v-5.378h56.54V63.94c0-9.406-2.685-16.9-8.055-22.49c-5.36-5.583-12.297-8.38-20.809-8.38zm25.106 32.896h-52.016l-.208-.418c.65-8.198 3.458-15.027 8.438-20.498c4.973-5.478 11.196-8.205 18.684-8.205c7.432 0 13.481 2.55 18.127 7.644c4.646 5.099 6.972 11.496 6.972 19.179v2.298h.003zm71.421-22.313c-5.035-7.055-11.99-10.583-20.874-10.583c-5.952 0-11.085 1.323-15.407 3.98c-4.326 2.654-8.198 6.31-10.71 10.963l.04-14.922h-3.497v106.233h3.53V98.303c2.47 4.054 6.35 7.265 10.748 9.647c4.388 2.372 9.536 3.56 15.449 3.56c8.821 0 15.752-3.407 20.774-10.201C509.493 94.514 512 85.292 512 73.653v-1.466c-.014-11.973-2.535-21.484-7.582-28.533zm3.737 29.992c0 10.43-2.082 18.723-6.244 24.866c-4.155 6.15-10.211 9.218-18.158 9.218c-6.603 0-12.088-1.49-16.456-4.468c-4.37-2.977-7.94-6.986-9.8-12.015V55.913c1.72-5.36 5.06-9.873 9.1-13.55c4.04-3.685 9.713-5.517 17.01-5.517c7.947 0 14.024 3.27 18.23 9.807c4.204 6.544 6.315 15.052 6.315 25.53l.003 1.463z" fill="#00CBDC"/></svg>