<svg xmlns="http://www.w3.org/2000/svg" xmlns:xlink="http://www.w3.org/1999/xlink" width="256" height="306" viewBox="0 0 256 306"><path d="m83.605.045l169.1 169.1c1.953 2.074 3.295 5.003 3.295 8.175c0 3.538-1.586 6.71-4.149 8.784L136.433 301.522a12.149 12.149 0 0 1-17.202 0L3.569 185.86a12.15 12.15 0 0 1 0-17.203L74.82 97.283l7.93 7.93l1.663 1.637c11.319 11.807 26.701 41.205 3.462 65.955c-2.44 2.44-2.44 6.223 0 8.663l35.626 35.748c2.44 2.44 6.222 2.44 8.662 0l35.626-35.626c1.098-1.099 1.952-2.685 1.952-4.392c0-1.587-.732-3.173-1.83-4.27l-30.502-30.502l.123-.122l-53.805-53.805C59.325 63.976 59.08 24.568 83.605.045Zm71.046 9.139c12.246-12.245 32.099-12.245 44.344 0c12.244 12.245 12.244 32.098 0 44.343c-12.245 12.245-32.098 12.245-44.344 0c-12.245-12.245-12.245-32.098 0-44.343Z"/></svg>