<svg xmlns="http://www.w3.org/2000/svg" xmlns:xlink="http://www.w3.org/1999/xlink" width="256" height="286" viewBox="0 0 256 286"><defs><path id="logosStdlibIcon0" fill="url(#logosStdlibIcon5)" d="M92.754 0L49.112 25.096a45.054 45.054 0 0 0-14.068 12.925a21.348 21.348 0 0 0 0 24.902a45.01 45.01 0 0 0 14.068 12.754l28.953 16.716a26.921 26.921 0 0 1-3.835-3.404c-9.938-10.733-9.29-27.484 1.442-37.419C91.699 40.908 99.282 18.031 92.754 0Z"/><path id="logosStdlibIcon1" fill="url(#logosStdlibIcon6)" d="m176.338 192.947l-21.113-12.192a19.023 19.023 0 0 1-.754 33.562L109.3 240.513a31.725 31.725 0 0 0-16.545 27.12v17.556l84.488-48.769a25.375 25.375 0 0 0-.904-43.385v-.088Z"/><path id="logosStdlibIcon2" fill="#F0AD3E" d="M84.411 75.567a45.01 45.01 0 0 1-14.068-12.753a21.348 21.348 0 0 1 0-24.902A45.041 45.041 0 0 1 84.41 25.096L51.15 44.484a32.573 32.573 0 0 0-15.852 27.7a32.578 32.578 0 0 0 15.42 27.942l160.918 92.91a25.375 25.375 0 0 1 .904 43.384l27.615-15.942A31.703 31.703 0 0 0 256 193.024a31.703 31.703 0 0 0-15.844-27.455L84.41 75.567Z"/><path id="logosStdlibIcon3" fill="#00AEEF" d="M46.821 203.074a32.568 32.568 0 0 1-15.419-27.942a32.557 32.557 0 0 1 15.85-27.7l-31.387 18.052a31.686 31.686 0 0 0 0 54.909l27.617 15.939l84.571 48.772v-17.556a31.752 31.752 0 0 0-16.542-27.035l-45.237-26.086a19.273 19.273 0 0 1-1.853-1.079l-17.6-10.274Z"/><path id="logosStdlibIcon4" fill="url(#logosStdlibIcon7)" d="m166.095 84.787l40.566-23.415a31.71 31.71 0 0 0 15.842-27.455A31.703 31.703 0 0 0 206.66 6.462L195.631 0a24.984 24.984 0 0 1-7.994 28.326l-59.584 34.467l-80.8 46.68a32.567 32.567 0 0 0-15.852 27.7a32.564 32.564 0 0 0 15.42 27.941l17.665 10.192a19.02 19.02 0 0 1-8.631-16.356a19.014 19.014 0 0 1 9.34-15.957l100.9-58.206Z"/></defs><defs><linearGradient id="logosStdlibIcon5" x1="32.902%" x2="85.889%" y1="78.13%" y2="33.994%"><stop offset="0%" stop-color="#A4681D"/><stop offset="31%" stop-color="#E18F2F"/><stop offset="100%" stop-color="#F0AD3E"/></linearGradient><linearGradient id="logosStdlibIcon6" x1="-5.516%" x2="87.603%" y1="75.392%" y2="17.059%"><stop offset="0%" stop-color="#F0AD3E"/><stop offset="69%" stop-color="#E18F2F"/><stop offset="100%" stop-color="#A4681D"/></linearGradient><linearGradient id="logosStdlibIcon7" x1="-.003%" x2="100.006%" y1="50.024%" y2="50.024%"><stop offset="0%" stop-color="#006991"/><stop offset="25%" stop-color="#008BBF"/><stop offset="62%" stop-color="#008BBF"/><stop offset="100%" stop-color="#00AEEF"/></linearGradient></defs><use href="#logosStdlibIcon0" transform="translate(35.299)"/><use href="#logosStdlibIcon1" transform="translate(35.299)"/><use href="#logosStdlibIcon2"/><use href="#logosStdlibIcon0" transform="translate(35.299)"/><use href="#logosStdlibIcon1" transform="translate(35.299)"/><use href="#logosStdlibIcon2"/><use href="#logosStdlibIcon3"/><use href="#logosStdlibIcon4" transform="translate(0 37.936)"/><use href="#logosStdlibIcon3"/><use href="#logosStdlibIcon4" transform="translate(0 37.936)"/></svg>