<svg xmlns="http://www.w3.org/2000/svg" xmlns:xlink="http://www.w3.org/1999/xlink" width="256" height="270" viewBox="0 0 256 270"><path d="M36.579 29.068C33.906 27.734 0 55.76 0 76.378c-.047 28.182 39.55 92.028 46.217 116.724c5.738 21.181-9.732 46.602-5.48 47.757c3.884 2.494 40.825-34.916 42.264-50.866c1.854-25.398-43.135-99.457-46.72-118.58c-4.16-22.317 3.292-41.846.298-42.345z" fill="#1A5099"/><path d="M121.252.058c-3.404-1.697-46.656 33.974-46.656 60.276c-.047 35.903 50.446 117.254 58.944 148.69c7.311 26.985-12.405 59.377-7.013 60.826c4.983 3.164 52.066-44.457 53.92-64.807c2.375-32.346-55.02-126.688-59.587-151.089c-5.3-28.365 4.182-53.264.392-53.896z" fill="#4BA2F2"/><path d="M208.637 29.068c-2.65-1.334-36.578 26.692-36.578 47.31c-.041 28.182 39.55 92.028 46.223 116.724c5.732 21.181-9.733 46.602-5.486 47.757c3.907 2.494 40.854-34.916 42.269-50.866c1.848-25.398-43.135-99.457-46.726-118.58c-4.153-22.317 3.293-41.846.298-42.345z" fill="#1A5099"/></svg>