<svg xmlns="http://www.w3.org/2000/svg" xmlns:xlink="http://www.w3.org/1999/xlink" width="256" height="256" viewBox="0 0 256 256"><path fill="#FFC600" d="M81.484 119.338v-17.965H256V0H0v137.303h182.216v17.965H0V256h256V118.697H81.484v.641Zm48.762-93.032c7.057 0 12.832 5.774 12.832 12.832c0 7.057-5.775 12.832-12.832 12.832c-7.058 0-12.832-5.775-12.832-12.832c.641-7.058 6.416-12.832 12.832-12.832ZM75.709 65.444h113.564l-5.133 17.965H80.842L75.71 65.444Zm54.537 164.25c-7.058 0-12.832-5.774-12.832-12.832c0-7.057 5.774-12.832 12.832-12.832c7.057 0 12.832 5.775 12.832 12.832c0 7.058-5.775 12.832-12.832 12.832Zm-54.537-39.138l4.492-17.965h103.94l5.132 17.965H75.71Z"/></svg>