<svg xmlns="http://www.w3.org/2000/svg" xmlns:xlink="http://www.w3.org/1999/xlink" width="256" height="256" viewBox="0 0 256 256"><circle cx="128" cy="128" r="128" fill="#FFE121"/><path d="M122.4 60.8v86.4c-24 0-43.2-19.2-43.2-43.2s19.2-43.2 43.2-43.2m11.2 134.4v-86.4c24 0 43.2 19.2 43.2 43.2c0 23.613-18.586 42.58-42.043 43.185zM154 60.8c11.2 0 20.4 9.2 20.4 20.4s-9.2 20.4-20.4 20.4s-20.4-9.2-20.4-20.4s9.2-20.4 20.4-20.4m-52 93.6c11.2 0 20.4 9.2 20.4 20.4s-9.2 20.4-20.4 20.4s-20.4-9.2-20.4-20.4s9.2-20.4 20.4-20.4"/></svg>