<svg xmlns="http://www.w3.org/2000/svg" xmlns:xlink="http://www.w3.org/1999/xlink" width="256" height="186" viewBox="0 0 256 186"><path fill="#809CC8" d="M0 0v67.149c34.6-14.407 80.831-28.887 139.01-43.497C176.29 14.304 212.32 6.444 247.12 0H0Zm256 14.318c-33.737 5.014-63.992 10.914-90.62 17.58c-30.482 7.657-55.022 15.397-73.582 23.29c-18.584 7.75-27.217 14.019-26.008 18.848c1.09 4.264 8.873 6.2 23.38 5.8c7.466-.142 19.556-.963 36.338-2.447s38.45-3.63 64.974-6.434c26.291-2.714 48.068-4.55 65.518-5.618v-51.02ZM181.058 99.5c-7.467.094-17.746.665-30.902 1.631c-13.202.99-29.536 2.415-49.115 4.44c-30.388 3.252-55.681 5.782-75.758 7.431c-9.63.813-17.998 1.318-25.283 1.722v54.463c39.875-5.83 75.947-12.779 108.109-20.843c31.597-7.916 55.882-15.64 72.949-23.108c17.09-7.468 25.07-13.804 23.742-18.94c-1.114-4.428-9.117-6.678-23.742-6.796ZM256 118.62c-35.04 13.727-78.53 27.19-130.492 40.236C77.13 170.986 35.341 179.665 0 185.045v.453h256v-66.877ZM10.693 130.04c.13-.02.23-.001.363 0c.661.022 1.367.23 1.812.725c.68.7.856 1.821.453 2.718c-.438 1.033-1.601 1.656-2.719 1.45c-1.233-.179-2.189-1.39-2.084-2.628c.036-1.164 1.024-2.12 2.175-2.265Zm9.062 0c.578.023 1.115.14 1.54.544c.804.66 1.12 1.846.726 2.809c-.37.99-1.382 1.724-2.447 1.631c-.915-.038-1.815-.608-2.175-1.45c-.498-1.095-.092-2.576.997-3.172a2.556 2.556 0 0 1 1.359-.362Zm-8.7 16.04c1.08-.035 2.045.725 2.357 1.721c.33 1.109-.196 2.503-1.269 2.99c-1.078.542-2.494.199-3.172-.815c-.69-.99-.594-2.483.363-3.262a2.522 2.522 0 0 1 1.722-.634Zm8.7 0c.859-.047 1.622.496 2.084 1.178c.667 1.039.388 2.538-.634 3.262c-1.025.78-2.627.649-3.444-.363c-.843-1.004-.788-2.715.272-3.534c.46-.38 1.122-.562 1.722-.543Z"/></svg>