<svg xmlns="http://www.w3.org/2000/svg" xmlns:xlink="http://www.w3.org/1999/xlink" width="512" height="78" viewBox="0 0 512 78"><path fill="#F93" d="M26.214 58.872a17.08 17.08 0 0 1-11.935 3.804H1.567v-6.798h13.6a7.44 7.44 0 0 0 5.368-1.969a6.33 6.33 0 0 0 2.057-4.74v-9.306a6.55 6.55 0 0 0-1.385-4.34a5.13 5.13 0 0 0-4.151-1.656H14.36a14.05 14.05 0 0 1-10.47-3.892a15.44 15.44 0 0 1-3.847-11.32v-3.398A14.7 14.7 0 0 1 4.194 3.84A17.1 17.1 0 0 1 16.13.038h12.794v6.797h-13.69a7.45 7.45 0 0 0-5.368 1.97a6.33 6.33 0 0 0-2.057 4.74v6.8a6.32 6.32 0 0 0 1.79 4.607a6.2 6.2 0 0 0 4.18 1.835h3.157a13.08 13.08 0 0 1 9.885 3.666a15.45 15.45 0 0 1 3.534 11.093v5.905a14.7 14.7 0 0 1-4.141 11.421m39.564 3.804h-3.735a15.03 15.03 0 0 1-10.78-3.4a14.6 14.6 0 0 1-3.533-10.914v-30.42h7.604V50.15a5.404 5.404 0 0 0 5.814 5.814h4.831a5.67 5.67 0 0 0 4.247-1.43c.876-.862 1.426-2 1.557-3.222v-33.37h7.604v44.734h-7.15v-2.058a12.2 12.2 0 0 1-6.46 2.058m36.884-44.734v2.148a11.35 11.35 0 0 1 7.158-2.148h3.22c4.129-.348 8.24.847 11.54 3.355a14.25 14.25 0 0 1 3.668 10.961v16.104c.366 4-.983 7.968-3.712 10.915a16.6 16.6 0 0 1-11.496 3.399h-9.932v15.208h-7.612V17.953zm1.878 8.276a4.9 4.9 0 0 0-1.432 3.358v26.39h10.827a7.3 7.3 0 0 0 5.01-1.52a5.47 5.47 0 0 0 1.699-4.296V30.468a5.47 5.47 0 0 0-1.7-4.294a7.3 7.3 0 0 0-5.01-1.523h-5.012a5.65 5.65 0 0 0-4.38 1.573zm43.569 33.103a14.23 14.23 0 0 1-3.669-10.959V32.258q0-7.692 3.31-11.003t11.004-3.31h4.205a12.47 12.47 0 0 1 9.618 3.533a14.72 14.72 0 0 1 3.266 10.334v11.631h-23.796v6.71a5.47 5.47 0 0 0 1.7 4.296a7.3 7.3 0 0 0 5.01 1.52h14.227v6.71h-13.322a16.7 16.7 0 0 1-10.925-2.902zm20.307-29.3a5.204 5.204 0 0 0-5.368-5.367h-5.19a5.78 5.78 0 0 0-4.516 1.479a6.38 6.38 0 0 0-1.297 4.338v6.263h16.37zm31.403 25.945V24.654h-6.533v-6.71h13.686v2.416a10.93 10.93 0 0 1 6.51-2.414l9.863-.001v7.158h-10.118a5.11 5.11 0 0 0-4.294 1.834a6.55 6.55 0 0 0-1.52 3.713v25.319h9.752v6.71h-23.887v-6.71zm95.91 13.038h-.392a9.47 9.47 0 0 1-4.709-1.717c-.394-.26-.778-.55-1.17-.828l-.034-.023q-1.201-.916-2.521-1.65a9.4 9.4 0 0 0-4.362-1.088h-.21a7.5 7.5 0 0 0-1.717.174a2.51 2.51 0 0 0-1.163 2.21c.029.525.158 1.04.38 1.516q.23.434.35.91c-.045 0-.159-.137-.372-.402a11.7 11.7 0 0 0-6.154-4.444a2.257 2.257 0 0 1-1.432-3.487c7.566-11.114 8.51-15.09 12.026-29.864l.303-1.277q.334-1.41.706-2.952c.172-.7.665-1.278 1.33-1.557l4.263-1.788a2.26 2.26 0 0 1 1.225-.14a18.4 18.4 0 0 1 6.691-1.038h2.95a18.4 18.4 0 0 1 6.704 1.038a2.27 2.27 0 0 0-1.297.69l-12.832.973l-.919-.978a2.28 2.28 0 0 0-1.297-.685a7.6 7.6 0 0 0-2.335 1.409a10.88 10.88 0 0 0-2.53 8.22v16.056a10.9 10.9 0 0 0 2.53 8.232a13.33 13.33 0 0 0 9.023 2.44h2.95a13.33 13.33 0 0 0 9.024-2.44a10.9 10.9 0 0 0 2.535-8.232V32.22a10.9 10.9 0 0 0-2.53-8.217a7.6 7.6 0 0 0-2.322-1.406q.174-.026.35-.026c.298 0 .592.06.867.174l4.262 1.775a2.27 2.27 0 0 1 1.329 1.556a912 912 0 0 1 1.938 8.342c2.7 11.854 3.71 16.287 10.526 26.315a2.257 2.257 0 0 1-1.43 3.487c-2.35.64-4.4 2.088-5.788 4.089c-.138.179-.2.26-.216.26q.093-.33.26-.629l.153-.35c.22-.477.348-.99.376-1.515a2.44 2.44 0 0 0-.843-1.956a13 13 0 0 0-2.854-.358h-.303a4.5 4.5 0 0 0-3.705 1.502a6 6 0 0 0-.384.584l-.016.028a5.6 5.6 0 0 1-.47.698c-.327.437-.844.69-1.39.682a5.7 5.7 0 0 1-2.358-.801c-.312-.156-.566-.286-.81-.39a7.4 7.4 0 0 0-2.87-.669q-.415 0-.824.07a9.9 9.9 0 0 0-3.555 1.715c-.26.164-.495.325-.742.48a7.7 7.7 0 0 1-4.195 1.344"/><path fill="#DB902E" d="m302.37 66.072l.207-3.5l3.158-.913l1.297 4.081a6.08 6.08 0 0 0-4.662.332m-18.395-3.673v1.406c-2.53-.449-4.595.381-4.53 2.27h-.02v-.54c-.104-3.65 1.696-6.709 2.708-10.087c.83-2.791 1.21-11.283 1.881-8.479a18.6 18.6 0 0 1-.047 7.203a30 30 0 0 0 0 4.104zm32.542 0v1.406c2.213.117 4.595.381 4.53 2.27h.021v-.54c.104-3.65-1.697-6.709-2.709-10.087c-.83-2.791-1.209-11.283-1.88-8.479a18.5 18.5 0 0 0 .049 7.203a30 30 0 0 1 0 4.104z"/><path fill="#292E37" d="M252.873 62.676V6.848h-14.226V.051h36.234v6.797h-14.225v55.828zm92.595-19.145v19.145h-7.607V.05h7.605v33.816l14.044-15.925h9.573l-15.567 17.624l16.82 27.107h-9.394l-13.152-21.83zm44.192 15.79a14.23 14.23 0 0 1-3.669-10.959V32.258q0-7.692 3.31-11.003t11.004-3.31h4.205a12.45 12.45 0 0 1 9.615 3.533a14.7 14.7 0 0 1 3.27 10.334v11.631h-23.8v6.71a5.47 5.47 0 0 0 1.7 4.296a7.3 7.3 0 0 0 5.012 1.52h14.226v6.71h-13.33a16.73 16.73 0 0 1-11.543-3.358m20.306-29.3a5.204 5.204 0 0 0-5.368-5.367h-5.188a5.78 5.78 0 0 0-4.517 1.479a6.4 6.4 0 0 0-1.298 4.338v6.263h16.374zm30.866-12.079v2.148a11.36 11.36 0 0 1 7.159-2.148h4.112c3.9-.31 7.767.91 10.782 3.401a14.6 14.6 0 0 1 3.531 10.915v30.418h-7.604V30.468a5.4 5.4 0 0 0-5.814-5.817h-5.903a5.65 5.65 0 0 0-4.382 1.557a4.9 4.9 0 0 0-1.432 3.357v33.11h-7.599V17.943zm67.682 41.96a15.6 15.6 0 0 1-9.973 2.774h-13.33v-6.71h14.225a5.66 5.66 0 0 0 3.668-1.037a3.65 3.65 0 0 0 1.25-2.997v-4.743q0-4.026-3.847-4.026h-3.31a13.78 13.78 0 0 1-9.34-2.73a10.96 10.96 0 0 1-3.085-8.634v-2.594a10.25 10.25 0 0 1 3.399-8.635a16.13 16.13 0 0 1 10.02-2.64h11.988v6.708h-12.884a5.72 5.72 0 0 0-3.577 1.038a3.54 3.54 0 0 0-1.342 2.994v3.223a3.69 3.69 0 0 0 1.207 3.04a4.72 4.72 0 0 0 3.09.986h3.038a12.95 12.95 0 0 1 9.127 2.908a11.22 11.22 0 0 1 3.132 8.635v4.026a10.16 10.16 0 0 1-3.456 8.414M301.713 25.181a9.84 9.84 0 0 1 6.58 1.489a8.23 8.23 0 0 1 1.354 5.552v16.07a8.23 8.23 0 0 1-1.357 5.552a9.83 9.83 0 0 1-6.577 1.49h-2.947a9.82 9.82 0 0 1-6.58-1.492a8.24 8.24 0 0 1-1.354-5.55v-16.07a8.24 8.24 0 0 1 1.354-5.552a9.84 9.84 0 0 1 6.58-1.49zm0-7.24h-2.947a16.57 16.57 0 0 0-11.47 3.39a14.13 14.13 0 0 0-3.705 10.897v16.07a14.13 14.13 0 0 0 3.705 10.897a16.56 16.56 0 0 0 11.47 3.39h2.947c4.112.34 8.203-.87 11.47-3.39a14.13 14.13 0 0 0 3.705-10.897v-16.07a14.14 14.14 0 0 0-3.705-10.896a16.56 16.56 0 0 0-11.47-3.391"/><path fill="#292E37" d="M300.24 37.616a3.137 3.137 0 0 1 1.661 5.797l.46 4.77a.66.66 0 0 1-.656.726h-2.931a.66.66 0 0 1-.66-.726l.461-4.771a3.137 3.137 0 0 1 1.664-5.796"/></svg>