<svg xmlns="http://www.w3.org/2000/svg" xmlns:xlink="http://www.w3.org/1999/xlink" width="512" height="94" viewBox="0 0 512 94"><path d="M269.29 21.637a27.43 27.43 0 0 1 10.25 1.832a18.9 18.9 0 0 1 7.724 5.595v-3.219a3.713 3.713 0 0 1 3.713-3.713h7.922v44.115c0 18.287-9.341 27.43-28.024 27.43c-4.8.031-9.583-.602-14.21-1.881a30.203 30.203 0 0 1-11.09-5.496l3.515-5.892a3.615 3.615 0 0 1 4.774-1.29l.177.102a29.707 29.707 0 0 0 5.595 2.475a33.866 33.866 0 0 0 10.546 1.733c4.535.4 9.047-.986 12.576-3.862a15.943 15.943 0 0 0 4.01-11.883v-2.822a19.805 19.805 0 0 1-7.575 4.951a26.786 26.786 0 0 1-9.902 1.733a28.173 28.173 0 0 1-13.369-3.169a23.766 23.766 0 0 1-9.456-8.912A24.756 24.756 0 0 1 243 46.344a24.756 24.756 0 0 1 3.466-13.072a23.518 23.518 0 0 1 9.456-8.516a28.569 28.569 0 0 1 13.369-3.12ZM35.297 56.444a10.546 10.546 0 0 1 7.546 17.378l-.219.248l-.111.126a1.882 1.882 0 0 0 .111 2.499a33.718 33.718 0 0 0 9.269 5.548l.634.244l.148.043a1.882 1.882 0 0 0 2.174-1.087l.054-.144l.124-.312a10.546 10.546 0 0 1 13.492-5.827a10.546 10.546 0 0 1 6.09 6.535c.063.16.146.309.248.446C48.91 95.36 39.603 91.2 20.392 68.575a38.719 38.719 0 0 1-6.535-11.438a32.926 32.926 0 0 0 21.439-.693Zm124.622-35.055c3.6.012 7.187.428 10.695 1.238a30.054 30.054 0 0 1 8.813 3.367L177.1 30.45a5.496 5.496 0 0 1-6.783 2.723a30.054 30.054 0 0 0-10.547-1.832a16.488 16.488 0 0 0-8.12 1.634a4.951 4.951 0 0 0-2.772 4.209a4.209 4.209 0 0 0 2.97 4.159a46.79 46.79 0 0 0 9.26 2.327a71.1 71.1 0 0 1 10.199 2.327a15.992 15.992 0 0 1 6.932 4.258a11.932 11.932 0 0 1 2.871 8.566a13.566 13.566 0 0 1-6.337 11.685a29.707 29.707 0 0 1-17.23 4.406a46.591 46.591 0 0 1-12.527-1.782a31.094 31.094 0 0 1-9.655-4.209l2.129-4.208a5.496 5.496 0 0 1 6.932-2.625a35.6 35.6 0 0 0 3.911 1.387a34.956 34.956 0 0 0 9.903 1.386c7.261 0 10.892-1.914 10.892-5.743a3.862 3.862 0 0 0-2.772-3.813a48.027 48.027 0 0 0-8.913-2.03a71.941 71.941 0 0 1-10.496-2.327a16.042 16.042 0 0 1-6.932-4.456a12.378 12.378 0 0 1-2.97-8.813a13.863 13.863 0 0 1 6.188-11.834a28.123 28.123 0 0 1 16.686-4.456Zm229.836-10.744a3.714 3.714 0 0 1 3.708 3.516l.006.198v8.12h13.863v9.902h-13.863v24.756a8.07 8.07 0 0 0 1.881 5.793a6.932 6.932 0 0 0 5.298 1.98c.774.067 1.553.067 2.327 0a5.892 5.892 0 0 1 6.684 3.516l1.386 2.872a14.359 14.359 0 0 1-5.248 2.624a23.51 23.51 0 0 1-6.486.891a18.37 18.37 0 0 1-13.27-4.506a17.23 17.23 0 0 1-4.703-13.07V10.644h8.417Zm-52.978 11.041c3.17-.038 6.317.551 9.259 1.733a20.449 20.449 0 0 1 7.377 4.952v-2.377a3.714 3.714 0 0 1 3.516-3.708l.198-.005l8.516-.149v52.136h-11.537v-6.882a18.815 18.815 0 0 1-7.427 5.546a25.202 25.202 0 0 1-9.902 1.832a27.578 27.578 0 0 1-13.566-3.318a23.518 23.518 0 0 1-9.26-9.259a30.846 30.846 0 0 1 0-27.974a23.667 23.667 0 0 1 9.359-9.457a27.727 27.727 0 0 1 13.467-3.07Zm120.018 3.268a24.756 24.756 0 0 1 9.902 9.457a28.42 28.42 0 0 1 0 27.48a24.756 24.756 0 0 1-9.902 9.456a31.54 31.54 0 0 1-28.52 0a24.756 24.756 0 0 1-9.902-9.457a28.42 28.42 0 0 1 0-27.479a24.756 24.756 0 0 1 9.903-9.457a31.54 31.54 0 0 1 28.519 0Zm-344.408-7.823c7.823 9.21-6.684 41.987-25.152 57.137a10.546 10.546 0 0 1 9.953-17.24l.296.06l.163.026a1.832 1.832 0 0 0 2.016-1.512c.523-3.337.556-6.731.098-10.076l-.098-.668l-.046-.146a1.882 1.882 0 0 0-2.232-1.19a10.546 10.546 0 0 1-9.861-17.298l.206-.23l.112-.126a1.882 1.882 0 0 0-.112-2.498a33.668 33.668 0 0 0-9.268-5.549l-.634-.244l-.149-.043a1.882 1.882 0 0 0-2.228 1.231a10.497 10.497 0 0 1-19.409 1.04a32.876 32.876 0 0 0-3.07-9.605c7.526-1.436 51.345-2.971 59.415 6.931Zm121.107 5l7.675.05l-20.201 47.136a8.07 8.07 0 0 1-7.094 4.944l-.284.007h-6.535l19.805-46.145l.99-2.327a6.09 6.09 0 0 1 5.644-3.664ZM512 21.539v11.536a15.497 15.497 0 0 0-2.822-.297a14.854 14.854 0 0 0-11.041 4.11a16.488 16.488 0 0 0-4.01 11.932v25.45h-12.181V22.131h7.872a3.714 3.714 0 0 1 3.709 3.516l.005.197v3.862A20.201 20.201 0 0 1 512 21.537Zm-319.503.544a6.09 6.09 0 0 1 5.546 3.538l.099.225l12.031 27.628l-6.04 14.012l-20.202-45.403h8.566Zm134.674 14.26a18.171 18.171 0 0 0 0 23.568a14.854 14.854 0 0 0 11.04 4.506a14.854 14.854 0 0 0 11.092-4.457v-.05c5.848-6.767 5.848-16.8 0-23.567c-6.166-5.98-15.967-5.98-22.132 0Zm104.272-.149a18.171 18.171 0 0 0 0 23.568a14.854 14.854 0 0 0 11.042 4.506a14.854 14.854 0 0 0 11.09-4.407v-.099c5.849-6.767 5.849-16.8 0-23.568c-6.165-5.98-15.966-5.98-22.132 0Zm-171.906-.247a13.863 13.863 0 0 0-4.407 10.596a14.012 14.012 0 0 0 4.407 10.744a17.775 17.775 0 0 0 22.775 0a14.012 14.012 0 0 0 4.457-10.744a13.863 13.863 0 0 0-4.457-10.596a17.923 17.923 0 0 0-22.775 0ZM65.15 40.105c5.524 0 10.002 4.478 10.002 10.001c0 5.524-4.478 10.002-10.002 10.002c-5.523 0-10.001-4.478-10.001-10.002c0-5.523 4.478-10.001 10.001-10.001ZM25.344 0a3.516 3.516 0 0 1 3.411 3.326l.005.19V8.12a3.515 3.515 0 0 0 1.546 2.952l.187.118l1.782 1.04a3.515 3.515 0 0 0 3.321.104l.195-.104l3.911-2.328l.194-.111a3.515 3.515 0 0 1 4.646 1.255l.111.193l1.931 3.17l.113.191a3.515 3.515 0 0 1-1.208 4.646l-.192.113l-3.862 2.327a3.515 3.515 0 0 0-1.728 2.849l-.005.221v1.882a3.515 3.515 0 0 0 1.5 2.95l.184.12l3.862 2.326l.049-.05a3.515 3.515 0 0 1 1.303 4.763l-.115.19l-1.832 3.168l-.113.192a3.515 3.515 0 0 1-4.646 1.208l-.192-.113l-3.812-2.376a3.515 3.515 0 0 0-3.321-.105l-.195.105l-1.782 1.04a3.515 3.515 0 0 0-1.729 2.848l-.004.221v4.11l-.005.193a3.516 3.516 0 0 1-3.318 3.317l-.192.005h-3.615a3.516 3.516 0 0 1-3.51-3.322l-.005-.193v-4.01a3.515 3.515 0 0 0-1.546-2.952l-.187-.119l-1.783-1.04a3.515 3.515 0 0 0-3.32-.104l-.195.105l-3.862 2.327l-.192.112a3.515 3.515 0 0 1-4.646-1.208l-.113-.192l-1.832-3.168l-.112-.193a3.515 3.515 0 0 1 1.207-4.645l.192-.114l3.862-2.327a3.515 3.515 0 0 0 1.723-2.755l.01-.215v-1.98a3.515 3.515 0 0 0-1.502-2.903l-.181-.118l-3.862-2.327l-.192-.113A3.515 3.515 0 0 1 .475 14.65l.112-.192l1.684-3.268l.113-.192A3.515 3.515 0 0 1 7.03 9.79l.192.112l3.912 2.674a3.515 3.515 0 0 0 3.32.104l.195-.104l1.782-1.04a3.515 3.515 0 0 0 1.729-2.848l.004-.221V3.515a3.516 3.516 0 0 1 3.323-3.51L21.68 0h3.664Zm-7.186 20.28a7.476 7.476 0 0 0 5.08 12.742l.274.003l-.05-.05l.246-.004a7.477 7.477 0 0 0 7.225-7.177l.005-.246l-.005-.274a7.476 7.476 0 0 0-12.775-4.994Z"/></svg>