<svg xmlns="http://www.w3.org/2000/svg" xmlns:xlink="http://www.w3.org/1999/xlink" width="256" height="256" viewBox="0 0 256 256"><path fill="#A295AE" d="m224.288 43.916l-11.963 84.2l-84.2-11.963l11.963-84.2l84.2 11.963Z" opacity=".8"/><path fill="#5D6F6D" d="m31.885 212.291l11.963-84.2l84.2 11.963l-11.963 84.2l-84.2-11.963Z" opacity=".8"/><path fill="#8CD592" d="m43.848 32.065l84.2 11.962l-11.963 84.2l-84.2-11.963l11.963-84.2Z" opacity=".8"/><path fill="#665E74" d="m212.226 224.264l-84.2-11.963l11.963-84.2l84.2 11.963l-11.963 84.2Z" opacity=".8"/><path fill="#3C3647" d="m119.642 255.595l-51.08-67.997l67.998-51.08l51.08 67.998l-67.998 51.08Z" opacity=".8"/><path fill="#837193" d="m255.463 136.39l-67.997 51.079l-51.08-67.997l67.998-51.08l51.08 67.998Z" opacity=".8"/><path fill="#A2F4AC" d="m136.437.554l51.079 67.997l-67.997 51.08l-51.08-67.998L136.437.553Z" opacity=".8"/><path fill="#7EA685" d="m.463 119.7l67.998-51.08l51.079 67.998l-67.997 51.08L.463 119.7Z" opacity=".8"/><path fill="#3C3647" d="m127.963 95.742l32.332 32.333l-32.332 32.332l-32.332-32.332l32.332-32.333Z"/></svg>