<svg xmlns="http://www.w3.org/2000/svg" xmlns:xlink="http://www.w3.org/1999/xlink" width="256" height="257" viewBox="0 0 256 257"><path fill="#00B3E3" d="m99.405 111.85l-39.329 16.42L0 93.633l34.638-58.994l59.535 34.639zm57.954 33.075l5.009 42.34l59.535 34.638L256 162.909l-60.076-34.638z"/><path fill="#FFC843" d="m128.27 160.204l34.098 27.06v69.277H94.173v-69.277zm34.098-90.927V0H94.173v69.277l34.098 27.407z"/><path fill="#FF4338" d="m157.359 113.344l5.009-44.067l59.535-34.639L256 93.632l-60.076 34.639zM60.076 128.27L0 162.909l34.097 58.994l60.076-34.639l9.936-42.419z"/><path fill="#002F32" d="m162.368 108.786l33.556 19.485l-33.556 19.484l-6.6-19.484zm-68.195 0l-34.097 19.485l34.097 19.484l7.58-19.484z"/><path fill="#FF350F" d="m128.27 88.761l34.098-19.484v39.51l-22.499-3.948zm-34.097 58.994v39.51l34.098-19.485l-11.943-18.496z"/><path fill="#008C3C" d="M162.368 147.755v39.51L128.27 167.78l13.699-15zM128.27 88.76L94.173 69.277v39.51l22.371-3.68z"/><path fill="#00250D" d="m128.271 88.761l-34.098 20.025v38.969l34.098 20.025l34.097-20.025v-38.969z"/></svg>