<svg xmlns="http://www.w3.org/2000/svg" xmlns:xlink="http://www.w3.org/1999/xlink" width="256" height="279" viewBox="0 0 256 279"><path d="M251.896 223.3c-2.312-2.3-13.762-8.568-13.762-8.568s-18.078-168.2-21.385-173.648C213.435 35.648 177.734.778 125.476.778C82.516.772 41.36 32.098 38.27 41.084c-3.195 9.333-21.403 173.625-21.403 173.625S5.4 220.416 3.62 223.299c-1.77 2.883-5 15.436-2.925 23.443c2.075 8.007 66.456 32.023 126.986 32.023c57.346 0 123.36-25.266 127.08-32.023c2.323-4.227-.572-21.126-2.865-23.443" fill="#A3B5BE"/><path d="M166.613 164.361c-3.355 0-6.114-2.748-6.114-6.12c0-3.39 2.76-6.126 6.114-6.126c3.385 0 6.144 2.736 6.144 6.126c0 3.372-2.76 6.12-6.144 6.12m0-29.34c-3.355 0-6.114-2.741-6.114-6.143c0-3.373 2.76-6.12 6.114-6.12c3.385 0 6.144 2.747 6.144 6.12a6.144 6.144 0 0 1-6.144 6.144m3.16-42.353c-5.63 0-10.235-4.58-10.235-10.259c0-5.648 4.605-10.236 10.236-10.236c5.672 0 10.277 4.582 10.277 10.236c0 5.678-4.605 10.26-10.277 10.26M125.47.777l-.607 61.243c5.059.62 8.997 4.941 8.997 10.16c0 5.318-4.039 9.663-9.198 10.194l-.206 20.925c5.265.442 9.404 4.859 9.404 10.218c0 5.437-4.257 9.882-9.605 10.213l-.26 26.072c5.478.207 9.865 4.706 9.865 10.23c0 5.584-4.499 10.136-10.065 10.242l-.182 18.762s-53.367 2.093-106.75 25.672c0 0-11.469 5.707-13.25 8.59c-1.768 2.883-4.787 16.056-2.924 23.443c.012.042.024.071.035.107c2.447 7.505 67.6 31.916 126.951 31.916c57.346 0 123.36-25.266 127.08-32.023c1.439-4.587.248-15.153-1.45-20.5c-.46-1.398-.932-2.436-1.392-2.913v-.006c-.005 0-.005-.012-.005-.012c-.006 0-.006-.006-.012-.012c-2.312-2.3-13.762-8.567-13.762-8.567s-18.078-168.2-21.385-173.648C213.435 35.648 177.734.778 125.469.778" fill="#B5C4CB"/><path d="M160.5 128.88v.004c0 3.402 2.758 6.144 6.113 6.144a6.147 6.147 0 0 0 6.144-6.144v-.003v-.003c0-3.367-2.76-6.12-6.144-6.12c-3.355 0-6.114 2.747-6.114 6.12v.003zM87.674 82.423c0 5.678-4.61 10.253-10.265 10.253c-5.648 0-10.253-4.575-10.253-10.253c0-5.655 4.605-10.236 10.253-10.236c5.655 0 10.265 4.581 10.265 10.236zm46.191-10.242c0 5.678-4.605 10.248-10.265 10.248c-5.631 0-10.242-4.57-10.242-10.248c0-5.648 4.611-10.236 10.242-10.236c5.654 0 10.265 4.582 10.265 10.236zm0 41.338c0 5.655-4.605 10.236-10.265 10.236c-5.631 0-10.242-4.581-10.242-10.236c0-5.648 4.611-10.253 10.242-10.253c5.654 0 10.265 4.605 10.265 10.253zm0 46.521c0 5.655-4.605 10.242-10.265 10.242c-5.631 0-10.242-4.587-10.242-10.242c0-5.666 4.611-10.247 10.242-10.247c5.654-.006 10.265 4.581 10.265 10.247zm46.185-77.623c0 5.672-4.605 10.26-10.277 10.26c-5.631 0-10.236-4.582-10.236-10.26c0-5.649 4.605-10.236 10.236-10.236c5.672 0 10.277 4.582 10.277 10.236zm-7.294 75.825c0 3.372-2.76 6.12-6.144 6.12c-3.355 0-6.114-2.748-6.114-6.12c0-3.39 2.76-6.126 6.114-6.126c3.385 0 6.144 2.736 6.144 6.126zM82.51 128.884c0 3.396-2.73 6.144-6.12 6.144a6.14 6.14 0 0 1-6.144-6.144c0-3.373 2.76-6.12 6.144-6.12a6.122 6.122 0 0 1 6.12 6.12zm-6.132 35.489a6.132 6.132 0 1 0 0-12.264a6.132 6.132 0 0 0 0 12.264z" fill="#FFF"/><path d="M224.767 239.178s-40.094 21.232-97.092 21.232c-53.626 0-96.974-21.232-96.974-21.232s42.64-24.458 96.974-24.458c56.592-.006 97.092 24.458 97.092 24.458z" fill="#647882"/></svg>