<svg xmlns="http://www.w3.org/2000/svg" xmlns:xlink="http://www.w3.org/1999/xlink" width="256" height="254" viewBox="0 0 256 254"><path fill="#0E0F0D" d="M254.646 89.417a35.37 35.37 0 0 0-.455-2.77a29.074 29.074 0 0 0-.66-2.837l-.711-1.128c-2.929-2.3-6.089-4.038-9.297-5.574c-2.648-1.25-5.338-2.34-8.06-3.344c-7.585-21.051-20.624-39.717-37.768-52.723C179.975 7.598 159.133.482 137.427.482c-21.707 0-42.55 7.116-60.27 20.56C60.012 34.047 46.972 52.714 39.388 73.77c-2.715 1-5.41 2.093-8.054 3.338c-3.214 1.536-6.372 3.274-9.301 5.574l-.713 1.128a39.566 39.566 0 0 0-.661 2.836c-.184.912-.322 1.84-.454 2.77a62.163 62.163 0 0 0-.534 5.552A69.783 69.783 0 0 0 20 106.116a70.724 70.724 0 0 0 2.064 10.986a59.073 59.073 0 0 0 1.795 5.354c.344.886.72 1.766 1.137 2.645c.206.437.43.864.66 1.311c.509.892.602 1.066.816 1.383l.962.886c.627.322 1.146.567 1.713.836l1.657.743c.307.126.595.25.908.376c-7.525 6.957-15.697 15.995-22.774 27.165L0 171.9l12.547-11.013c.213-.186 10.734-9.294 28.28-19.612l.246 2.017c-1.148.597-6.665 3.492-8.305 4.864c-2.718 2.257-2.85 5.76-2.122 12.295c.373 3.35 1.629 9.852 3.323 15.814c2.918 10.259 5.057 12.073 6.935 12.498c.847.203 1.94.296 3.17.296c3.361 0 7.666-.654 10.475-1.502c3.295 10.246 7.962 19.496 13.652 27.614c-.275.074-.546.163-.821.241c-3.422-1.587-15.388-7.13-19.41-8.938l-8.405-3.784l4.971 7.762c.362.56 8.943 13.94 15.948 22.958c6.553 8.41 15.525 17.019 32.455 17.019a58.4 58.4 0 0 0 6.367-.374c5.048-.58 8.842-1.035 11.726-1.405c17.772 6.53 37.369 6.932 55.966-.115a81.884 81.884 0 0 0 13.985-6.907c7.17-1.722 15.013-3.59 18.887-4.679a75.842 75.842 0 0 1 2.208-.544c5.398-1.241 14.42-3.335 19.23-12.958c4.848-9.709 12.753-24.586 12.836-24.738l3.697-6.94l-7.203 3.131c-.385.175-9.511 4.149-14.252 6.634c3.294-7.584 5.235-13.862 5.911-16.273c2.655.64 6.591.558 9.486.558c1.423 0 2.887-.248 3.837-.49c1.882-.478 3.335-1.728 6.067-12.314c1.591-6.153 2.732-12.853 3.045-16.297c.605-6.702.409-10.294-2.326-12.561c-1.363-1.126-5.363-3.28-7.397-4.34c1.138-.487 1.696-.344 1.74-.332l1.846-7.003c.65-.278 1.338-.557 2.12-.857c1.115-.444 2.23-.885 3.346-1.366l1.647-.743c.574-.269 1.09-.513 1.718-.836l.962-.886c.208-.317.32-.491.447-.733c.61-1.097.825-1.524 1.028-1.96c.417-.88.787-1.76 1.137-2.646a58.714 58.714 0 0 0 1.792-5.354a70.577 70.577 0 0 0 2.067-10.986c.415-3.7.508-7.427.322-11.148a58.692 58.692 0 0 0-.535-5.551Z"/><path fill="#E1C5A2" d="M149.066 233.63c-1.36.204-2.72.37-4.064.478c-.875.043-1.793.13-2.63.13l-.312.008c1.05-2.34 1.848-4.16 2.449-5.538a194.7 194.7 0 0 0 4.557 4.922"/><path fill="#A89983" d="M147.416 129.004c-2.126 1.726-4.366 3.333-6.699 4.743l-7.781 4.694c-4.88.596-9.116 1.802-9.358 1.876c-.142.03-.276.097-.402.173a1.803 1.803 0 0 0-.805 1.018l-7.925 26.11l-42.357 9.42l-13.345-9.345l-3.88-31.44c7.579-1.392 17.71-2.998 29.88-4.364a72.312 72.312 0 0 0-3.77 4.918l-7.245 10.399l10.551-7.033c.16-.11 6.874-4.53 17.864-9.908a482.942 482.942 0 0 1 35.979-1.35c3.16 0 6.254.038 9.293.09Zm-65.93 35.42c3.01-1.627 6.41-1.388 11.733-1.376c.567.01 1.158.004 1.77-.012c.525 0 1.05-.01 1.607-.026c5.486-.055 10.043.464 9.96-8.142c-.081-8.607-3.907-15.568-9.389-15.514c-5.48.049-10.786 7.103-10.458 15.706c.087 2.24.42 3.859.946 5.022c-4.777 1.201-6.1 4.156-6.17 4.342ZM220.83 136.15l-3.814 26.733l-13.453 9.422l-42.302-4.808l-7.893-25.99a1.778 1.778 0 0 0-1.208-1.191c-.26-.079-5.497-1.576-11.049-2.056l1.016-.067c.875-.066 15.463-1.852 32.888-7.856c19.29 1.48 35.048 3.847 45.816 5.813Zm-27.027 24.745c-.055-.208-1.216-3.666-6.308-3.059c.584-1.28.848-3.007.663-5.377c-.672-8.59-5.674-15.417-11.15-15.224c-5.482.19-8.988 7.311-8.685 15.93c.302 8.598 4.896 8.539 10.378 8.343c7.362-.14 11.404-2.4 15.102-.613Z"/><path fill="#FFF" d="M179.33 145.43a2.802 2.802 0 0 1-2.748 2.851a2.797 2.797 0 0 1-2.847-2.75a2.795 2.795 0 0 1 2.744-2.85a2.79 2.79 0 0 1 2.851 2.75m-78.517 2.059a2.801 2.801 0 0 1-2.722 2.87a2.801 2.801 0 0 1-2.884-2.727a2.798 2.798 0 0 1 2.732-2.87a2.803 2.803 0 0 1 2.874 2.727"/><path fill="#E1C5A2" d="M239.295 147.91c-.661-.546-2.87-1.808-5.023-2.972l-3.545 24.85a1.815 1.815 0 0 1-.744 1.2l-5.073 3.548c-.12.6-.214 1.101-.304 1.57c4.984 1.227 9.825-2.367 12.543-4.96c1.257-4.896 2.352-10.708 2.73-14.868c.579-6.448.067-7.832-.584-8.367m-78.343 94.406c-3.291-1.17-6.308-3.08-8.934-5.676c-.219-.223-.427-.438-.647-.656a53.717 53.717 0 0 1-6.223.894c-.892.04-1.743.116-2.673.116l-1.376.012l-.53-.012c-3.146 4.672-8.434 7.24-12.578 8.607c12.31 2.112 25.855-1.12 32.961-3.285M52.585 181.459c-.11-.375-.226-.746-.333-1.122l-6.59-4.613a1.79 1.79 0 0 1-.743-1.239l-3.213-26.094c-2.378 1.269-5.127 2.835-5.858 3.448c-.636.525-1.121 1.863-.434 8.08c.522 4.675 2.164 11.856 3.841 17.237c3.337 2.553 8.252 5.243 13.33 4.303m98.517-1.191a1.774 1.774 0 0 1-1.498-1.253l-8.132-26.799c-1.364-.178-2.574-.278-3.596-.278c-1.026 0-2.23.1-3.592.278l-7.905 26.028a1.778 1.778 0 0 1-1.313 1.212l-3.78.842c-.32 1.335-1.408 3.294-4.913 4.368c-5.656 1.725-41.461 12.398-45.544 11.817c-2.384-.334-6.92-2.837-10.275-4.86c-1.343-3.162-2.086-5.311-2.256-5.821v-.01l-.01.01c.475 1.388 5.147 14.837 14.64 27.992c10.177-2.999 18.967-5.795 21.778-6.684c5.724-8.828 13.88-17.587 19.672-17.886a62.45 62.45 0 0 1 3.064-.08c2.838 0 5.547.201 8.062.499c-2.136-1.939-2.574-4.206-2.884-5.213c0 0 7.397 5.786 16.806 4.569c9.424-1.206 15.27-6.633 15.27-6.633l.185-1.669l-3.78-.429"/><path fill="#E1C5A2" d="M158.75 183.66c-1.952-.505-3.181-1.31-3.96-2.15l-.096.856s-.032 3.955-4.13 7.019c7.891-2.39 11.154-3.2 13.389-3.2c2.46 0 3.676 1.027 4.743 1.929c.202.168.404.345.646.534a3228.139 3228.139 0 0 1 15.497 12.28c2.47.285 10.311 1.182 15.246 1.632c2.841.265 5.415.479 7.935.479c.808 0 1.572-.028 2.295-.077c2.602-4.984 4.998-10.496 7.13-16.574c-2.918 2.047-9.567 6.527-12.683 7.104c-4.052.759-40.297-8.35-46.012-9.832"/><path fill="#E0D896" d="M249.954 89.941a59.265 59.265 0 0 0-.267-2.563a30.121 30.121 0 0 0-.271-1.819c-2.289-1.925-4.892-3.64-7.6-5.192c-2.933-1.722-6.004-3.253-9.14-4.678c-3.108-1.47-6.308-2.799-9.519-4.094a155.678 155.678 0 0 0-4.85-1.885c-1.62-.633-3.253-1.223-4.893-1.82c3.437.571 6.846 1.357 10.23 2.226c2.201.562 4.388 1.201 6.56 1.885c-15.465-40.407-52.422-66.718-92.778-66.718c-40.361 0-77.316 26.312-92.77 66.718c2.17-.684 4.362-1.323 6.553-1.885c3.38-.87 6.792-1.655 10.235-2.225c-1.65.596-3.28 1.186-4.908 1.82a168.65 168.65 0 0 0-4.842 1.884c-3.213 1.295-6.406 2.624-9.525 4.094c-3.125 1.425-6.195 2.956-9.132 4.678c-2.709 1.552-5.306 3.267-7.6 5.192a54.427 54.427 0 0 0-.27 1.819a83.896 83.896 0 0 0-.271 2.563a65.392 65.392 0 0 0-.22 5.182c-.037 3.463.198 6.927.634 10.35c.476 3.437 1.105 6.851 2.036 10.154a54.027 54.027 0 0 0 1.584 4.856a42.3 42.3 0 0 0 1.504 3.422l.222.42c.253.127.52.262.77.383l1.536.733c.858.394 2.046.957 3.027 1.395c.055-.05.11-.1.154-.148l-2.852-10.865c.606-.163 6.022-1.563 15.356-3.344a45.4 45.4 0 0 1-2.257-.48c-2.125-.532-4.223-1.176-6.258-1.996a28.746 28.746 0 0 1-2.945-1.426c-.945-.546-1.874-1.159-2.597-1.978c10.253 3.35 31.446 1.836 50.286-.114c17.225-1.777 34.502-2.924 51.861-2.963c17.355.039 34.638 1.186 51.854 2.963c18.848 1.95 40.04 3.464 50.292.114c-.715.82-1.65 1.432-2.587 1.978c-.954.535-1.949 1-2.955 1.426c-2.033.82-4.123 1.464-6.251 1.996c-.316.075-.635.141-.95.212c10.24 1.898 16.198 3.443 16.83 3.611l-2.726 10.35c.554-.24 1.11-.48 1.644-.732l1.54-.733c.253-.121.516-.256.777-.383l.207-.42c.186-.355.367-.727.534-1.103c.345-.75.674-1.532.974-2.319a55.849 55.849 0 0 0 1.586-4.856c.933-3.303 1.562-6.718 2.031-10.154c.445-3.423.68-6.887.648-10.35a62.848 62.848 0 0 0-.23-5.181"/><path fill="#D7C184" d="M179.887 69.842c.158 4.622.045 13.01-2.11 20.858c-.087.3-.075.613 0 .903a339.6 339.6 0 0 0-8.228-.76c3.076-6.45 3.748-13.318 3.898-15.739c2.364-1.677 4.715-3.694 6.44-5.262m-78.473 5.262c.143 2.42.815 9.272 3.89 15.723c-2.743.217-5.486.469-8.223.76c.074-.278.08-.586 0-.886c-2.15-7.836-2.264-16.224-2.116-20.858c1.733 1.567 4.078 3.584 6.449 5.261m112.16 22.902a1.697 1.697 0 0 1-.057.23c.301.087.596.175.897.273c2.536.831 5.075 1.7 7.5 2.82c-4.048-2.63-6.615-10.217-8.046-16.017c.394 7.592-.257 12.407-.294 12.694M91.59 68.383L65.406 75.83c-1.568 10.185-1.09 17.963-.838 20.662l.133-.08s.853-11.094 2.592-15.352c.896-2.186 6.377-3.58 10.555-4.579c4.188-.994 10.865-2.988 12.161 2.891c.8 3.633 1.902 6.654 2.958 8.882c-1.682-8.077-1.575-15.975-1.377-19.871m91.67 0c.214 4.048.313 12.415-1.585 20.815c1.19-2.282 2.511-5.648 3.432-9.826c1.294-5.879 7.971-3.885 12.158-2.89c4.187.999 9.661 2.392 10.557 4.578c1.476 3.604 2.31 12.1 2.53 14.628c.249-3.249.525-10.551-.902-19.859l-26.19-7.446m-82.054 2.267a45.28 45.28 0 0 0 2.85 2.11c.457.318.737.836.747 1.394c.006.087.202 8.714 4.016 16.06c.055.11.094.23.131.344c9.482-.645 18.992-.906 28.478-.912c9.492.006 18.996.285 28.473.934c.038-.125.073-.246.14-.366c3.808-7.346 4.013-15.973 4.013-16.06a1.74 1.74 0 0 1 .753-1.394a44.62 44.62 0 0 0 2.742-2.037l.12-.336c1.982-19.297-1.654-37.08-3.965-45.866c-.122 6.008-1.546 57.486-14.32 57.486h-35.258c-13.565 0-14.656-58.04-14.656-58.04l-.699 2.061c-2.314 9.255-5.491 26.266-3.566 44.622M61.337 98.231c-.012-.075-.033-.148-.05-.225c-.042-.287-.696-5.108-.302-12.707c-1.432 5.804-4.006 13.404-8.06 16.033c2.425-1.125 4.975-1.996 7.515-2.828c.296-.093.6-.181.897-.273"/><path fill="#9F8F78" d="M224.607 176.106a56.263 56.263 0 0 1-.75 3.406c2.908.678 7.662 1.204 9.935.76c.973-1.057 2.23-4.723 3.358-9.127c-2.718 2.594-7.56 6.188-12.543 4.96M120.404 247.28c6.945 1.902 14.039 2.727 21.028 2.264c7.012-.477 16.115-1.99 25.778-5.913a23.9 23.9 0 0 1-6.258-1.313c-7.106 2.166-20.65 5.398-32.96 3.286c-3.26 1.073-5.814 1.406-6.063 1.437c-.514.059-.94.13-1.525.24m-67.36-64.265c-.16-.517-.307-1.038-.46-1.557c-5.078.94-9.993-1.75-13.327-4.301c1.08 3.454 2.169 6.169 2.984 6.994c2.515.44 8.078-.332 10.803-1.136m7.509 8.607c3.354 2.023 7.89 4.527 10.275 4.86c4.083.58 39.888-10.092 45.544-11.817c3.504-1.074 4.594-3.033 4.914-4.368L69.63 191.8a2.374 2.374 0 0 1-.387.039h-.006c-.356 0-.713-.11-1.017-.321l-2.012-1.404l-6.034-4.226v-.009l-2.435-1.7c.042.138.092.275.137.411c.138.401.274.807.42 1.201v.01c.17.51.913 2.66 2.256 5.82m158.455-9.921c.33-1.22.654-2.455.949-3.702l-1.793 1.26l-4.827 3.38l-5.221 3.66a1.83 1.83 0 0 1-.9.32a1.807 1.807 0 0 1-.318-.007l-52.016-5.914l-.088.811c.778.841 2.007 1.646 3.958 2.151c5.715 1.482 41.959 10.59 46.011 9.83c3.116-.576 9.767-5.056 12.682-7.103c.025-.071.05-.14.073-.21a177.567 177.567 0 0 0 1.49-4.477"/><path fill="#6E6A67" d="M163.97 111.62c-.41.53-.858 1.11-1.34 1.715c-2.47 3.122-5.892 7.104-9.945 11.011a464.67 464.67 0 0 0-14.559-.229c-8.247 0-16.154.217-23.662.578c10.613-4.398 23.357-8.698 37.16-11.278a142.87 142.87 0 0 1 12.346-1.798m-62.086 4.75c-3.793 2.662-8.066 6.054-12.213 10.174a462.456 462.456 0 0 0-27.525 3.584c11.748-5.397 25.158-10.37 39.738-13.758m129.756 21.925l-4.324 30.217l-20.694 14.5l-53.97-6.137l-8.12-26.756a1.778 1.778 0 0 0-1.415-1.24c-1.998-.323-3.765-.48-5.241-.48c-1.48 0-3.246.157-5.257.48a1.8 1.8 0 0 0-1.411 1.24l-7.922 26.105l-53.665 11.94l-21.268-14.897l-4.197-33.913a670.57 670.57 0 0 1 2.78-1.541c1.319-.284 2.8-.584 4.438-.895l3.95 32.001c.055.497.335.94.746 1.226l14.635 10.253c.294.203.655.318 1.008.318c.131 0 .257-.018.395-.044l44.122-9.816a2.18 2.18 0 0 0 .44-.161a1.77 1.77 0 0 0 .865-1.056l7.951-26.16c2.131-.545 7.592-1.825 12.389-1.825c4.788 0 10.247 1.28 12.384 1.825l7.946 26.16a1.78 1.78 0 0 0 1.496 1.25l44.13 5.014c.423.05.859-.068 1.21-.314l14.64-10.234a1.82 1.82 0 0 0 .733-1.208l3.908-27.345c2.934.562 5.387 1.077 7.318 1.493m5.448-18.953l-3.8 14.411c-7.769-1.714-24.83-5.077-48.055-7.34c7.585-3.235 15.312-7.288 22.373-12.366c13.82 1.952 23.967 4.048 29.482 5.295m-197.912 0l1.056 3.99a133.31 133.31 0 0 1 7.945-5.862a280.82 280.82 0 0 0-9.001 1.872"/><path fill="#93232C" d="M188.184 111.304a1141.9 1141.9 0 0 0-17.449-.849a91.534 91.534 0 0 1-2.005 2.843c-3.118 4.218-9.264 11.908-17.143 18.506c5.928-1.878 29.444-9.767 41.355-20.207a687.837 687.837 0 0 0-4.758-.293m-42.618-1.536l.024-.006c-2.95-.038-5.902-.07-8.847-.081h-.006c-4.339.012-8.667.067-13.006.142l-8 3.792a.476.476 0 0 0-.118.067c-1.204.584-11.706 5.884-21.594 15.339c.865-.456 1.782-.928 2.727-1.407c5.408-3.634 19.831-12.239 42.259-17.91c2.187.013 4.375.026 6.56.064m-49.16.966c-3.704.171-7.41.361-11.11.57c-4.292.24-8.57.53-12.845.852c-2.132.164-4.267.346-6.381.568c-.614.06-1.214.126-1.815.203c-5.586 3.339-26.964 16.76-41.652 34.324c.253-.305.514-.606.773-.907c27.193-23.2 57.006-32.23 73.03-35.61m123.023 95.406l-.49.252c-2.727 1.434-6.3 2.135-10.918 2.135c-2.749 0-5.445-.23-8.433-.5c-5.966-.546-16.066-1.734-16.169-1.753l-.772-.081l-.611-.493c-.093-.061-8.936-7.115-16.086-12.736c-.292-.236-.554-.46-.794-.65c-.754-.645-.754-.645-1.204-.645c-2.295 0-8.962 2.07-23.563 6.593l-.896.287l-.887-.337c-.1-.025-9.678-3.577-21.16-3.577c-.94 0-1.878.023-2.79.068c-1.149.059-7.602 3.125-15.86 16.18l-.529.842l-.95.304c-.138.045-14.344 4.629-29.412 8.938l-.972.275l-.93-.429c-.097-.033-5.981-2.77-11.589-5.34c.413.192.829.38 1.243.572c5.536 4.778 16.137 13.968 17.314 15.241c.163.183.39.407.66.661a28.583 28.583 0 0 1-.798-.949l-.01-.01l.001.001c2.442 2.315 5.168 4.316 8.146 5.724c1.486.698 3.044 1.239 4.628 1.502c.799.13 1.574.196 2.383.196c.819 0 1.656-.024 2.492-.065c3.312-.17 6.655-.424 9.99-.747c3.33-.3 6.663-.633 9.99-1.037c3.323-.358 6.646-.776 9.94-1.287c1.65-.24 3.29-.513 4.892-.868c.787-.186 1.607-.391 2.23-.671c.569-.272 1.258-.819 1.864-1.34c1.24-1.067 2.437-2.25 3.622-3.43a151.594 151.594 0 0 0 3.504-3.624c1.951-2.043 3.623-4.213 5.512-6.316c.242-.262.489-.54.74-.81c0 .005 0 .005.004.005l.022.025c.394.283.787.57 1.172.872c2.273 1.695 4.62 3.53 6.884 5.114c2.919 2.051 5.874 4.106 8.931 5.816c.763.425 1.552.822 2.305 1.071c.098.036.18.053.255.064c.056.034.257.066.28.066c.149.022.348.032.54.045a21.7 21.7 0 0 0 1.265-.033c1.724-.12 3.473-.371 5.224-.645c3.495-.545 7-1.174 10.484-1.872a357.33 357.33 0 0 0 10.446-2.155a280.093 280.093 0 0 0 10.392-2.418c1.711-.461 3.424-.886 4.951-1.619c1.56-.726 3.007-1.722 4.34-2.864c2.69-2.291 4.951-5.131 6.83-8.224l-.005.01a37.035 37.035 0 0 0 2.352-5.334M154.242 41.817h6.149v-12.49h-44.96v12.49h6.15v-6.343h12.713v38.575h-5.234v7.16h17.7v-7.16h-5.235V35.474h12.717v6.343"/><path fill="#731B2A" d="M200.762 112.15a.071.071 0 0 0-.036-.011a708.54 708.54 0 0 0-7.64-.533l-.146-.009c-11.912 10.44-35.426 18.329-41.355 20.207c-.115.098-.228.196-.343.292c7.632-1.374 19.032-4.098 30.864-9.337c5.819-2.576 11.742-5.757 17.376-9.69c.435-.302.857-.618 1.28-.919m-61.757-2.447c-22.428 5.67-36.851 14.275-42.26 17.909a226.918 226.918 0 0 1 15.248-7.06a308.696 308.696 0 0 1 1.873-.772c.196-.08.39-.16.587-.239c.519-.21 1.044-.417 1.571-.628c.294-.114.584-.23.88-.344c.474-.186.953-.37 1.435-.555c.361-.137.722-.275 1.087-.41c.442-.17.887-.336 1.336-.5c.419-.155.844-.308 1.265-.46c.416-.152.829-.3 1.248-.45c.477-.168.958-.334 1.442-.503c.382-.131.762-.264 1.146-.395c.566-.19 1.136-.38 1.709-.568c.315-.104.627-.208.943-.311c.896-.29 1.802-.578 2.714-.857c1.99-.611 4.023-1.194 6.09-1.755a176.898 176.898 0 0 1 8.247-2.038c-2.186-.037-4.374-.05-6.561-.064m-42.6 1.031c-16.024 3.38-45.837 12.41-73.03 35.61c-.259.301-.52.601-.773.907c13.823-9.61 37.583-23.894 66.957-32.584c.947-.28 1.903-.553 2.861-.823a189.317 189.317 0 0 1 15.048-3.562c-3.685.131-7.374.284-11.063.452m128.317 92.844a68.936 68.936 0 0 0-.842.393c-.153.07-.3.14-.454.21l-.364.173l-.556.265c-.076.039-.157.075-.236.116c-.211.1-.42.197-.623.298l-.137.068c-.223.11-.445.217-.66.324l-.069.033c-.478.236-.93.464-1.353.68a37.027 37.027 0 0 1-2.359 5.34l.01-.013c-.005.006-.01.01-.013.019c-1.876 3.08-4.135 5.912-6.818 8.2c-1.333 1.142-2.782 2.138-4.339 2.864c-1.53.733-3.242 1.157-4.952 1.619c-3.44.866-6.908 1.68-10.393 2.417a354.514 354.514 0 0 1-10.444 2.155a241.491 241.491 0 0 1-10.487 1.873c-1.749.274-3.497.525-5.223.644a20.45 20.45 0 0 1-1.263.033a6.696 6.696 0 0 1-.542-.045a1.04 1.04 0 0 1-.278-.065a1.05 1.05 0 0 1-.256-.065c-.755-.246-1.541-.647-2.305-1.07c-3.056-1.712-6.013-3.765-8.932-5.816c-2.26-1.585-4.612-3.42-6.884-5.115l-.198.281l.014.015c.141.128.284.246.425.37l-.01-.006c-.104-.078-.203-.154-.3-.224l1.905 2.272c.006.007.078.095.218.258c.972 1.142 5.04 5.861 9.87 10.653c3.677 3.645 8.113 5.486 13.202 5.486c1.737 0 3.563-.228 5.408-.667c1.706-.419 3.563-.861 5.465-1.321c5.641-1.342 11.89-2.839 16.038-3.916c.276-.073.545-.142.803-.211c.587-.155 1.119-.297 1.595-.429a45.104 45.104 0 0 1 2.45-.605c5.03-1.167 11.91-2.763 15.553-10.066a734.722 734.722 0 0 1 3.31-6.516a1452.445 1452.445 0 0 1 5.518-10.613c0-.002.002-.002.002-.002l.362-.692l-.858.398m-82.379 15.754l-.327-.31c-1.89 2.104-3.563 4.274-5.512 6.318a151.594 151.594 0 0 1-3.504 3.623c-1.185 1.18-2.383 2.367-3.622 3.43c-.607.522-1.296 1.07-1.864 1.34c-.622.28-1.443.486-2.23.671c-1.6.356-3.242.628-4.892.869c-3.293.51-6.617.931-9.94 1.286c-3.327.404-6.66.738-9.99 1.037a224.65 224.65 0 0 1-9.99.749c-.836.038-1.673.064-2.492.064c-.809 0-1.586-.064-2.383-.197c-1.585-.262-3.143-.804-4.628-1.501c-2.977-1.408-5.703-3.41-8.146-5.724l.009.008c.33.406.693.787 1.04 1.174c-.084-.077-.164-.154-.242-.226c-.27-.253-.497-.477-.661-.66c-1.178-1.275-11.78-10.463-17.314-15.241c-.414-.193-.83-.38-1.243-.573a429.148 429.148 0 0 0 3.17 4.631a286.457 286.457 0 0 0 4.999 6.992a161.28 161.28 0 0 0 2.232 2.946c6.017 7.743 13.591 14.898 28.126 14.898c1.82 0 3.757-.112 5.745-.337c.463-.05.913-.102 1.356-.155c.426-.048.845-.095 1.251-.143c12.639-1.453 16.106-2.073 18.03-2.405c.498-.086.923-.161 1.383-.229c.179-.025.362-.054.556-.08c.07-.006 4.344-.555 8.522-2.588c2.88-1.398 5.712-3.5 7.097-6.607c3.498-7.825 4.209-9.695 4.237-9.765l1.227-3.295"/><path fill="#0E0F0D" d="M176.582 148.282a2.805 2.805 0 0 0 2.748-2.85a2.791 2.791 0 0 0-2.853-2.75a2.795 2.795 0 0 0-2.745 2.852a2.8 2.8 0 0 0 2.85 2.748Zm17.221 12.613c-3.698-1.787-7.74.475-15.102.613c-5.482.196-10.076.255-10.378-8.344c-.303-8.618 3.203-15.74 8.684-15.93c5.477-.192 10.478 6.635 11.15 15.225c.186 2.37-.076 4.097-.662 5.377c5.092-.608 6.253 2.85 6.308 3.059ZM98.092 150.36a2.801 2.801 0 0 0 2.722-2.87a2.803 2.803 0 0 0-2.874-2.728a2.798 2.798 0 1 0 .152 5.597Zm8.464 4.507c.081 8.606-4.476 8.088-9.961 8.142a49.21 49.21 0 0 1-1.608.025c-.611.017-1.202.024-1.769.013c-5.324-.013-8.723-.25-11.734 1.376c.07-.186 1.394-3.14 6.17-4.345c-.527-1.163-.858-2.781-.945-5.02c-.329-8.602 4.978-15.656 10.458-15.706c5.481-.054 9.307 6.908 9.389 15.515Zm103.798-59.179a41.646 41.646 0 0 1-.15 1.586a188.413 188.413 0 0 0-6.545-1.64c-7.24-1.59-14.569-2.769-21.934-3.61c-.254-.033-.513-.05-.773-.082c.05-.11.095-.219.128-.328c.22-.804.412-1.609.595-2.415c1.898-8.4 1.799-16.766 1.585-20.815l26.19 7.447c1.427 9.307 1.15 16.608.904 19.857ZM177.778 90.7c-.088.3-.076.613 0 .903a339.6 339.6 0 0 0-8.229-.76c3.076-6.45 3.748-13.318 3.898-15.739c2.364-1.677 4.714-3.694 6.44-5.262c.158 4.622.045 13.01-2.11 20.858Zm-80.697.886c.074-.278.08-.586 0-.886c-2.15-7.837-2.264-16.224-2.116-20.858c1.732 1.568 4.077 3.585 6.449 5.262c.143 2.42.815 9.272 3.89 15.723c-2.743.216-5.485.469-8.223.76Zm-3.955.432c-3.674.448-7.352.911-11.012 1.518c-3.65.625-7.301 1.289-10.92 2.093c-2.195.51-4.37 1.05-6.547 1.639c-.02-.172-.047-.437-.078-.778c-.252-2.7-.73-10.476.838-20.662L91.59 68.38c-.198 3.897-.305 11.794 1.378 19.87c.234 1.122.5 2.244.806 3.36c.034.11.078.22.126.318c-.263.033-.515.056-.775.089Zm131.265 10.574c-.223-.107-.443-.216-.654-.32c-.324-.156-.683-.334-1.094-.534a6.786 6.786 0 0 1-.73-.41c-2.423-1.12-4.963-1.988-7.499-2.82c-.3-.098-.596-.186-.896-.274a1.88 1.88 0 0 0 .057-.229c.037-.287.688-5.103.295-12.694a99.855 99.855 0 0 0-1.204-11.109a1.724 1.724 0 0 0-1.222-1.372l-3.733-1.056c-.803-28.886-12.696-42.46-13.068-42.881c10.624 17.1 10.531 37.379 10.346 42.105l-23.144-6.579c-.017 0-.032 0-.054-.01a2.186 2.186 0 0 0-.297-.044c-.022 0-.047-.004-.085-.004a1.436 1.436 0 0 0-.378.032c-.018 0-.038.017-.062.017a1.281 1.281 0 0 0-.3.103c-.036.017-.069.04-.102.05c-.078.053-.154.097-.23.152c-.017.012-.04.022-.056.038c-.023.016-.03.033-.044.044c-.022.023-.048.038-.066.055c-.022.023-.645.633-1.613 1.547c.068-2.165.085-5.478-.161-9.523l-.075-1.167c-.728-10.163-3.13-24.438-10.309-36.935c.062.18.772 2.253 1.69 5.746c2.31 8.786 5.948 26.569 3.965 45.866c-.01.088-.016.175-.025.264c-.03.025-.063.048-.094.072a44.977 44.977 0 0 1-2.743 2.037a1.745 1.745 0 0 0-.755 1.394c0 .087-.203 8.714-4.01 16.06c-.068.12-.103.241-.142.366c-9.476-.65-18.98-.927-28.472-.934c-9.487.006-18.996.267-28.478.912c-.038-.115-.076-.235-.131-.345c-3.814-7.345-4.01-15.972-4.016-16.06a1.734 1.734 0 0 0-.748-1.393a44.85 44.85 0 0 1-2.849-2.11c-1.926-18.357 1.252-35.367 3.565-44.623c1.098-4.394 2.004-7.05 2.076-7.253C96.429 36.899 96.068 58.77 96.299 66.398c-.985-.914-1.596-1.523-1.612-1.547c-.018-.017-.05-.032-.072-.055l-.037-.045c-.018-.015-.039-.025-.061-.037a2.16 2.16 0 0 0-.23-.141c-.038-.021-.066-.044-.11-.061a.838.838 0 0 0-.283-.093c-.028-.01-.049-.027-.067-.027a1.544 1.544 0 0 0-.384-.032c-.032 0-.066.004-.098.004c-.094.01-.185.021-.283.044c-.023.01-.034.01-.056.01L69.87 70.997c-.186-4.727-.286-25.006 10.338-42.105c-.368.423-12.259 13.998-13.068 42.884l-3.715 1.055a1.708 1.708 0 0 0-1.234 1.374A100.646 100.646 0 0 0 60.985 85.3c-.392 7.6.26 12.42.302 12.707c.017.076.038.15.05.225c-.296.092-.601.18-.897.273c-2.54.832-5.089 1.704-7.514 2.828a6.68 6.68 0 0 1-.684.386l-.038.021c-.413.2-.772.378-1.096.534l-.569.278c-.12.07-.244.13-.362.201c1.717-.674 3.493-1.166 5.267-1.602a97.486 97.486 0 0 1 5.366-1.176c3.603-.67 7.214-1.252 10.848-1.694c3.624-.476 7.263-.869 10.908-1.174c3.646-.311 7.286-.618 10.94-.829c14.613-.865 29.264-1.138 43.92-1.143c14.661.01 29.31.24 43.921 1.138c3.656.211 7.295.516 10.947.825c3.65.31 7.277.708 10.9 1.184c3.635.437 7.253 1.016 10.85 1.69a90.79 90.79 0 0 1 5.359 1.179c1.788.437 3.554.929 5.275 1.603c-.096-.058-.194-.108-.287-.162Z"/><path fill="#0E0F0D" d="M141.525 35.474v38.575h5.235v7.16h-17.7v-7.16h5.234V35.474H121.58v6.344h-6.147v-12.49h44.958v12.49h-6.148v-6.345h-12.718Zm23.495 10.962V24.703h-54.205v21.733h15.393v-6.344h3.458v29.33h-5.222V85.82h26.94v-16.4h-5.24V40.09h3.471v6.345h15.405Z"/></svg>