<svg xmlns="http://www.w3.org/2000/svg" xmlns:xlink="http://www.w3.org/1999/xlink" width="256" height="279" viewBox="0 0 256 279"><path fill="#5FCF80" d="M225.627 50.983c-9.546-5.207-24.298 3.471-32.976 19.092l-16.488 27.77c-6.075 11.28-5.207 25.165 2.603 36.447l.868.867c7.81 10.414 17.356 20.827 20.827 24.299c1.736 1.735 3.471 4.339 4.339 7.81c2.603 9.546-2.603 19.96-13.017 22.563c-9.546 2.603-19.96-2.604-22.563-13.017c-.867-2.604-.867-5.207-.867-6.943c.867-4.339-.868-10.413-6.943-17.356c-6.074-6.074-17.356 6.075-21.695 18.224v.868c-3.47 12.149-6.074 23.43-5.207 24.298c0 .868.868.868.868 1.736c5.207 10.413 1.736 22.562-8.678 27.77c-10.413 5.206-22.562 1.735-27.77-8.679c-5.206-10.413-1.735-22.563 8.679-27.77c.868 0 .868-.867 1.735-.867s2.604-5.207 5.207-12.15c1.736-6.074 2.604-8.677 3.471-11.28c.868-3.472 2.604-12.15 1.736-15.62c-.868-4.34-5.207-4.34-9.546-1.737c-2.603 1.736-7.81 6.075-9.546 7.81c-4.339 3.472-7.81 8.679-9.545 13.018c-.868 1.735-2.604 4.339-4.34 6.074c-7.81 6.075-19.09 5.207-26.033-2.603c-6.075-7.81-5.207-19.092 2.603-26.034c2.604-1.736 5.207-3.471 7.81-3.471c4.34-.868 19.96-10.414 29.505-17.356c1.736-.868 4.34-3.471 5.207-4.34c2.604-3.47 0-6.074-2.603-6.074c-7.81.868-16.488 1.736-18.224 4.34c-.868.867-1.736 2.603-3.471 3.47c-6.942 5.207-17.356 3.472-22.563-3.47s-3.471-17.357 3.471-22.564c2.604-2.603 6.943-3.47 9.546-3.47c6.075 0 21.695 3.47 33.844.867l3.471-.868c13.017-2.603 28.638-13.884 34.712-25.166c0 0 6.075-10.413 13.017-23.43c7.81-13.017 6.943-27.77-.868-32.109l-14.752-8.678c-7.81-4.339-19.092-4.339-26.902 0L13.885 60.53C6.075 64.868 0 75.28 0 83.959v111.078c0 8.678 6.075 19.092 13.885 23.43l100.664 57.275c7.81 4.34 19.96 4.34 26.902 0l100.664-57.274c7.81-4.34 13.885-14.753 13.885-23.43V83.958c0-8.678-6.075-19.091-13.885-23.43c0 0-6.942-4.34-16.488-9.546"/></svg>