<svg xmlns="http://www.w3.org/2000/svg" xmlns:xlink="http://www.w3.org/1999/xlink" width="512" height="539" viewBox="0 0 512 539"><path fill="#5E464D" d="M175.56 463.557v47.305c-.16 2.922.207 5.85 1.08 8.643a8.315 8.315 0 0 0 3.531 4.032a10.977 10.977 0 0 0 5.942 1.524a11.575 11.575 0 0 0 6.328-1.679a8.952 8.952 0 0 0 3.685-4.302a32.025 32.025 0 0 0 1.023-9.974v-45.55h13.967v43.602a63.221 63.221 0 0 1-1.234 15.318a21.665 21.665 0 0 1-4.746 8.257a22.032 22.032 0 0 1-8.084 5.788a27.106 27.106 0 0 1-10.65 1.929a25.813 25.813 0 0 1-13.851-3.666a21.337 21.337 0 0 1-8.43-9.144c-1.265-2.75-2.054-6.92-2.37-12.513l-.078-1.636l-.029-.847l-.038-1.753a127.16 127.16 0 0 1-.013-1.83l.02-43.504h13.947Zm-135.143 0v13.717H27.106v59.42H12.984v-59.42H0v-13.717h40.417Zm34.997 0h18.675c8.077 0 13.832.72 17.267 2.16a17.71 17.71 0 0 1 8.257 7.197a21.781 21.781 0 0 1 3.144 11.864a20.122 20.122 0 0 1-3.472 12.058a20.913 20.913 0 0 1-10.399 7.35l17.363 32.508h-15.26L94.533 505.73h-5.19v30.964h-13.93v-73.137Zm214.164 0v13.562h-22.475v13.293h22.475v13.37h-22.475v32.912H253.27v-73.137h36.308Zm74.835 0v13.562h-22.475v13.293h22.475v13.37h-22.475v32.912h-13.833v-73.137h36.308Zm52.34 0v59.864h20.277v13.273h-34.205v-73.137h13.929Zm95.247 0v13.62h-26.103v13.235H512v13.37h-26.103v19.253H512v13.66h-39.916v-73.138H512ZM97.002 477.042h-7.717l.058 15.106h8.276c4.438 0 7.486-.579 9.145-1.736a6.579 6.579 0 0 0 2.508-5.788a7.157 7.157 0 0 0-1.235-4.244a6.849 6.849 0 0 0-3.318-2.566a25.717 25.717 0 0 0-7.717-.772Z"/><g transform="translate(56.491)"><ellipse cx="199.036" cy="197.052" fill="#5E464D" rx="194.776" ry="197.052"/><path fill="#FFF" d="M137.783 371.783c7.967 2.72 34.726 11.421 35.864 2.913c.618-4.668-13.504-9.453-32.623-19.581a306.749 306.749 0 0 1-73.793-54.52a169.426 169.426 0 0 1-50.778-117.8C14.833 123.182 38.138 74.99 76.472 43.89A196.55 196.55 0 0 0 .074 194.66c-1.138 43.118 10.92 79.446 33.569 112.513a128.294 128.294 0 0 0 24.443 24.077c21.704 16.418 53.44 31.6 79.697 40.514"/><path fill="#FFF" d="M396.493 151.889c-12.077-56.797-49.62-96.559-99.838-124.648c38.489 27.337 92.507 85.465 60.578 136.744c-27.009 41.074-92.603 33.029-128.583 13.505c-42.675-23.151-96.076-75.24-43.408-126.153c34.147-32.951 142.763 3.993 123.645 53.247c-11.151 28.65-54.56 22.283-74.083 8.276c-14.392-10.34-26.508-28.109-20.083-46.456c2.045-5.884 1.755-15.01-6.56-8.295c-6.135 5.016-9.318 13.273-10.398 20.99c-9.087 64.224 105.336 114.018 139.29 51.877c17.614-32.257-10.938-79.099-46.88-98.275c-27.01-14.47-55.118-24.637-89.574-22.167c-55.1 3.858-101.324 38.391-107.13 94.687c-5.789 55.947 31.62 106.3 75.664 136.416c46.301 31.64 108.539 52.494 165.49 33.626c51.047-16.919 72.134-75.51 61.87-123.336"/><path fill="#3FE0C5" d="M324.649 108.384c5.479-36.81-27.8-62.082-58.533-73.561c-36.232-13.505-84.096-7.601-110.488 22.398c-19.292 22.032-18.038 54.019-8.083 79.91c15.048 39.105 49.022 67.368 88.57 79.58c28.11 8.682 62.084 12.463 90.56 3.3c41.536-13.37 55.06-56.682 46.475-96.366a113.98 113.98 0 0 0-8.412-24.849c-5.247-11.016-21.318-33.318.83-6.154a95.883 95.883 0 0 1 6.405 9.472a106.494 106.494 0 0 1 10.784 23.942c12.077 37.042 2.605 80.257-30.868 102.616c-25.678 17.113-58.32 19.158-88.108 14.875c-39.935-5.788-77.574-25.08-103.735-56.122c-23.884-28.302-40.186-68.95-30.366-106.108c7.196-27.183 29.266-47.478 55.697-55.948c33.434-10.823 70.243-5.787 100.32 11.788c15.087 8.778 28.939 20.932 36.656 36.868a54.694 54.694 0 0 1 5.498 23.016a47.71 47.71 0 0 1-.752 9.646c-.213 1.157-2.663 4.418-2.315 1.736"/></g></svg>