<svg xmlns="http://www.w3.org/2000/svg" xmlns:xlink="http://www.w3.org/1999/xlink" width="512" height="191" viewBox="0 0 512 191"><path fill="#1F2E41" d="M209.623 80.368v51.562h21.731V80.368h17.225V63.803h-56.107v16.565h17.15Zm49.84 23.454c0 19.46 11.256 29.354 31.15 29.354h.037c19.056 0 31.26-9.052 31.26-29.537V63.803h-21.727v39.066c0 8.942-1.91 13.34-9.528 13.34c-7.738 0-9.644-4.398-9.644-13.23V63.803h-21.548v40.019Zm104.701-40.02c19.643 0 28.035 8.796 28.035 23.345v.367c0 14.219-9.455 22.208-27.082 22.208h-6.597v22.208h-21.512V63.803h27.156Zm-1.026 16.126h-4.58v15.318h4.47c5.717 0 8.685-2.565 8.685-7.622v-.367c0-5.24-2.931-7.33-8.575-7.33Zm40.275 52.002V63.803h21.622v51.453h24.816v16.674h-46.438Zm58.636-68.127v68.127h49.95v-16.564h-28.401V105.14h21.328V90.006h-21.328v-9.638h26.862V63.803h-48.41Z"/><path fill="#BFC6F1" d="m29.318 65.965l87.953-29.318v153.919l-87.953-29.318z"/><path fill="#4652AF" d="M0 29.318L87.953 0v153.919L0 124.601z"/></svg>