<svg xmlns="http://www.w3.org/2000/svg" xmlns:xlink="http://www.w3.org/1999/xlink" width="512" height="115" viewBox="0 0 512 115"><defs><linearGradient id="logosTurborepo0" x1="123.779%" x2="123.779%" y1="0%" y2="698.962%"><stop offset="0%" stop-color="#1E90FF"/><stop offset="100%" stop-color="#FF1E56"/></linearGradient><linearGradient id="logosTurborepo1" x1="11.486%" x2="11.486%" y1="-2.194%" y2="512.398%"><stop offset="0%" stop-color="#1E90FF"/><stop offset="100%" stop-color="#FF1E56"/></linearGradient><linearGradient id="logosTurborepo2" x1="-153.743%" x2="-153.743%" y1="-62.263%" y2="278.479%"><stop offset="0%" stop-color="#1E90FF"/><stop offset="100%" stop-color="#FF1E56"/></linearGradient><linearGradient id="logosTurborepo3" x1="-153.743%" x2="-153.743%" y1="-178.48%" y2="162.264%"><stop offset="0%" stop-color="#1E90FF"/><stop offset="100%" stop-color="#FF1E56"/></linearGradient><linearGradient id="logosTurborepo4" x1="11.486%" x2="11.486%" y1="-412.397%" y2="102.194%"><stop offset="0%" stop-color="#1E90FF"/><stop offset="100%" stop-color="#FF1E56"/></linearGradient><linearGradient id="logosTurborepo5" x1="123.779%" x2="123.779%" y1="-598.961%" y2="100%"><stop offset="0%" stop-color="#1E90FF"/><stop offset="100%" stop-color="#FF1E56"/></linearGradient></defs><path fill="url(#logosTurborepo0)" d="M37.276.034C24.093-.42 10.911 3.671 0 12.308l7.273 4.091c8.638-6.364 19.547-9.092 30.003-8.637z" transform="translate(419.72)"/><path fill="url(#logosTurborepo1)" d="M75.916 17.308C66.824 7.762 55.004 1.852 42.276.488v7.729c10.911 1.818 20.457 6.818 28.185 14.546z" transform="translate(419.72)"/><path fill="url(#logosTurborepo2)" d="M92.28 54.584c-.454-11.82-5-23.638-12.727-33.64L74.097 26.4c6.365 8.637 10.002 18.183 10.456 28.184z" transform="translate(419.72)"/><path fill="url(#logosTurborepo3)" d="M79.553 93.678c7.728-10 12.273-21.82 12.728-33.639h-7.728C84.1 70.04 80.462 79.586 74.097 88.223z" transform="translate(419.72)"/><path fill="url(#logosTurborepo4)" d="M42.277 114.135c12.273-1.364 24.547-7.274 33.639-16.82L70.46 91.86c-7.728 8.182-17.73 13.183-28.184 14.547z" transform="translate(419.72)"/><path fill="url(#logosTurborepo5)" d="M0 102.315c10.91 8.638 24.093 12.729 37.276 12.274v-7.728c-10.456.455-20.91-2.273-30.003-8.637z" transform="translate(419.72)"/><path d="M28.588 40.692v47.086H12.893V40.692H0V27.399h41.48v13.293zm31.565-13.293v32.832q0 2.643.16 5.445q.24 2.723 1.201 4.965q1.041 2.242 3.203 3.684q2.163 1.36 6.086 1.361t6.006-1.361q2.163-1.442 3.203-3.684t1.202-4.965q.24-2.802.24-5.445V27.4h15.615v34.994q0 14.094-6.486 20.58q-6.406 6.486-19.78 6.487q-13.373 0-19.859-6.487q-6.486-6.486-6.486-20.58V27.4zm61.294 26.986h2.963q4.644 0 7.127-1.922t2.483-5.525t-2.483-5.525t-7.127-1.922h-2.963zm34.513 33.393h-19.538l-14.975-23.223v23.223h-15.695V27.399h24.424q5.045 0 8.808 1.522q3.765 1.44 6.166 4.003a16.3 16.3 0 0 1 3.684 5.926q1.281 3.363 1.281 7.207q0 6.886-3.363 11.211q-3.283 4.244-9.77 5.766zm18.257-12.172h3.443q5.927 0 8.488-1.521q2.564-1.522 2.563-4.885q.001-3.363-2.563-4.885q-2.56-1.521-8.488-1.521h-3.443zm0-24.504h2.883q7.367 0 7.367-5.846q0-5.845-7.367-5.845h-2.883zM158.52 27.4h23.383q8.329 0 12.653 4.004q4.324 4.005 4.324 11.531q0 4.565-1.682 7.608q-1.601 2.963-4.965 5.045q3.363.64 5.686 2.001q2.402 1.282 3.844 3.204a11.8 11.8 0 0 1 2.162 4.324q.641 2.402.64 5.125q0 4.244-1.521 7.527a14.7 14.7 0 0 1-4.164 5.526q-2.643 2.241-6.487 3.363q-3.843 1.12-8.648 1.12H158.52zm64.667 30.19q-.001 3.603 1.36 6.646t3.684 5.285a17.3 17.3 0 0 0 5.366 3.524q3.122 1.2 6.566 1.2q3.442 0 6.486-1.2q3.123-1.282 5.446-3.524a16.2 16.2 0 0 0 3.763-5.285q1.361-3.043 1.362-6.647q0-3.603-1.362-6.646a16.2 16.2 0 0 0-3.763-5.285q-2.324-2.242-5.446-3.444q-3.044-1.28-6.486-1.28a17.1 17.1 0 0 0-6.566 1.28q-3.044 1.201-5.366 3.444q-2.323 2.242-3.683 5.285q-1.362 3.043-1.361 6.646m-16.416 0q0-6.727 2.482-12.493q2.481-5.845 6.887-10.17q4.403-4.324 10.49-6.726q6.164-2.483 13.533-2.483q7.286 0 13.453 2.483q6.166 2.402 10.57 6.726q4.485 4.325 6.967 10.17q2.482 5.766 2.483 12.492q-.001 6.727-2.483 12.573a30.8 30.8 0 0 1-6.966 10.09q-4.405 4.323-10.57 6.806q-6.168 2.403-13.454 2.403q-7.368 0-13.533-2.403q-6.087-2.483-10.49-6.806q-4.406-4.325-6.887-10.09q-2.482-5.846-2.482-12.573m88.47-3.204h2.963q4.644 0 7.127-1.922t2.483-5.525t-2.483-5.525t-7.127-1.922h-2.963zm34.514 33.393h-19.539l-14.975-23.223v23.223h-15.695V27.399h24.424q5.043 0 8.809 1.522q3.763 1.44 6.166 4.003a16.3 16.3 0 0 1 3.683 5.926q1.28 3.363 1.281 7.207q0 6.886-3.363 11.211q-3.284 4.244-9.77 5.766zm36.915-47.086h-18.659v10.09h17.618v13.293h-17.618v10.41h18.659v13.293h-34.354V27.399h34.354zm23.007 14.414h5.205q8.648 0 8.648-7.527t-8.648-7.528h-5.205zm0 32.672h-15.696V27.399h24.985q10.169 0 15.535 5.285q5.445 5.285 5.445 14.895q0 9.608-5.445 14.894q-5.366 5.285-15.535 5.285h-9.29zm48.265-30.19q0 3.604 1.361 6.647a16.8 16.8 0 0 0 3.684 5.285a17.3 17.3 0 0 0 5.365 3.524q3.122 1.2 6.567 1.2q3.444 0 6.486-1.2q3.124-1.282 5.445-3.524a16.2 16.2 0 0 0 3.764-5.285q1.36-3.043 1.361-6.647t-1.361-6.646a16.2 16.2 0 0 0-3.764-5.285q-2.321-2.242-5.445-3.444q-3.042-1.28-6.486-1.28a17.1 17.1 0 0 0-6.567 1.28a16.2 16.2 0 0 0-5.365 3.444a16.8 16.8 0 0 0-3.684 5.285q-1.36 3.043-1.36 6.646m-16.416 0q0-6.726 2.483-12.492q2.482-5.845 6.886-10.17q4.405-4.324 10.49-6.726q6.166-2.483 13.534-2.483q7.288 0 13.453 2.483q6.165 2.402 10.57 6.726q4.484 4.325 6.967 10.17q2.482 5.766 2.482 12.492T485.91 70.16a30.8 30.8 0 0 1-6.967 10.09q-4.405 4.323-10.57 6.806q-6.166 2.403-13.453 2.403q-7.367 0-13.533-2.403q-6.086-2.483-10.49-6.806q-4.405-4.325-6.887-10.09q-2.483-5.846-2.483-12.573"/></svg>