<svg xmlns="http://www.w3.org/2000/svg" xmlns:xlink="http://www.w3.org/1999/xlink" width="512" height="115" viewBox="0 0 512 115"><defs><linearGradient id="logosTurborepo0" x1="123.779%" x2="123.779%" y1="0%" y2="698.962%"><stop offset="0%" stop-color="#1E90FF"/><stop offset="100%" stop-color="#FF1E56"/></linearGradient><linearGradient id="logosTurborepo1" x1="11.486%" x2="11.486%" y1="-2.194%" y2="512.398%"><stop offset="0%" stop-color="#1E90FF"/><stop offset="100%" stop-color="#FF1E56"/></linearGradient><linearGradient id="logosTurborepo2" x1="-153.743%" x2="-153.743%" y1="-62.263%" y2="278.479%"><stop offset="0%" stop-color="#1E90FF"/><stop offset="100%" stop-color="#FF1E56"/></linearGradient><linearGradient id="logosTurborepo3" x1="-153.743%" x2="-153.743%" y1="-178.48%" y2="162.264%"><stop offset="0%" stop-color="#1E90FF"/><stop offset="100%" stop-color="#FF1E56"/></linearGradient><linearGradient id="logosTurborepo4" x1="11.486%" x2="11.486%" y1="-412.397%" y2="102.194%"><stop offset="0%" stop-color="#1E90FF"/><stop offset="100%" stop-color="#FF1E56"/></linearGradient><linearGradient id="logosTurborepo5" x1="123.779%" x2="123.779%" y1="-598.961%" y2="100%"><stop offset="0%" stop-color="#1E90FF"/><stop offset="100%" stop-color="#FF1E56"/></linearGradient></defs><path fill="url(#logosTurborepo0)" d="M37.276.034C24.093-.42 10.911 3.671 0 12.308l7.273 4.091c8.638-6.364 19.547-9.092 30.003-8.637V.034Z" transform="translate(419.72)"/><path fill="url(#logosTurborepo1)" d="M75.916 17.308C66.824 7.762 55.004 1.852 42.276.488v7.729c10.911 1.818 20.457 6.818 28.185 14.546l5.455-5.455Z" transform="translate(419.72)"/><path fill="url(#logosTurborepo2)" d="M92.28 54.584c-.454-11.82-5-23.638-12.727-33.64L74.097 26.4c6.365 8.637 10.002 18.183 10.456 28.184h7.728Z" transform="translate(419.72)"/><path fill="url(#logosTurborepo3)" d="M79.553 93.678c7.728-10 12.273-21.82 12.728-33.639h-7.728C84.1 70.04 80.462 79.586 74.097 88.223l5.456 5.455Z" transform="translate(419.72)"/><path fill="url(#logosTurborepo4)" d="M42.277 114.135c12.273-1.364 24.547-7.274 33.639-16.82L70.46 91.86c-7.728 8.182-17.73 13.183-28.184 14.547v7.728Z" transform="translate(419.72)"/><path fill="url(#logosTurborepo5)" d="M0 102.315c10.91 8.638 24.093 12.729 37.276 12.274v-7.728c-10.456.455-20.91-2.273-30.003-8.637L0 102.315Z" transform="translate(419.72)"/><path d="M28.588 40.692v47.086H12.893V40.692H0V27.399h41.48v13.293H28.588Zm31.565-13.293v32.832c0 1.762.053 3.577.16 5.445c.16 1.816.56 3.47 1.201 4.965c.694 1.495 1.762 2.723 3.203 3.684c1.442.907 3.47 1.361 6.086 1.361s4.618-.454 6.006-1.361c1.442-.961 2.51-2.189 3.203-3.684c.694-1.495 1.095-3.15 1.202-4.965c.16-1.868.24-3.683.24-5.445V27.4h15.615v34.994c0 9.396-2.162 16.256-6.486 20.58c-4.271 4.324-10.864 6.487-19.78 6.487c-8.915 0-15.535-2.163-19.859-6.487c-4.324-4.324-6.486-11.184-6.486-20.58V27.4h15.695Zm61.294 26.986h2.963c3.096 0 5.472-.64 7.127-1.922c1.655-1.28 2.483-3.123 2.483-5.525s-.828-4.244-2.483-5.525c-1.655-1.282-4.03-1.922-7.127-1.922h-2.963v14.894Zm34.513 33.393h-19.538l-14.975-23.223v23.223h-15.695V27.399h24.424c3.363 0 6.3.507 8.808 1.522c2.51.96 4.565 2.295 6.166 4.003a16.3 16.3 0 0 1 3.684 5.926c.854 2.242 1.281 4.645 1.281 7.207c0 4.591-1.12 8.328-3.363 11.211c-2.189 2.83-5.445 4.751-9.77 5.766l18.978 24.744Zm18.257-12.172h3.443c3.952 0 6.78-.507 8.488-1.521c1.71-1.015 2.563-2.643 2.563-4.885s-.853-3.87-2.563-4.885c-1.707-1.014-4.536-1.521-8.488-1.521h-3.443v12.812Zm0-24.504h2.883c4.912 0 7.367-1.948 7.367-5.846c0-3.897-2.455-5.845-7.367-5.845h-2.883v11.691ZM158.52 27.4h23.383c5.553 0 9.77 1.335 12.653 4.004c2.882 2.67 4.324 6.513 4.324 11.531c0 3.043-.56 5.579-1.682 7.608c-1.067 1.975-2.723 3.657-4.965 5.045c2.242.427 4.138 1.094 5.686 2.001c1.601.855 2.883 1.922 3.844 3.204a11.764 11.764 0 0 1 2.162 4.324c.428 1.601.64 3.31.64 5.125c0 2.83-.506 5.338-1.521 7.527a14.71 14.71 0 0 1-4.164 5.526c-1.762 1.494-3.924 2.615-6.487 3.363c-2.562.747-5.445 1.12-8.648 1.12H158.52V27.4Zm64.667 30.19c0 2.402.452 4.617 1.36 6.646c.908 2.029 2.135 3.79 3.684 5.285a17.315 17.315 0 0 0 5.366 3.524c2.082.8 4.27 1.2 6.566 1.2c2.295 0 4.457-.4 6.486-1.2c2.082-.855 3.897-2.029 5.446-3.524a16.218 16.218 0 0 0 3.763-5.285c.907-2.029 1.362-4.244 1.362-6.647c0-2.402-.455-4.617-1.362-6.646a16.218 16.218 0 0 0-3.763-5.285c-1.55-1.495-3.364-2.643-5.446-3.444c-2.03-.854-4.191-1.28-6.486-1.28a17.13 17.13 0 0 0-6.566 1.28a16.207 16.207 0 0 0-5.366 3.444c-1.549 1.495-2.776 3.256-3.683 5.285c-.909 2.029-1.361 4.244-1.361 6.646Zm-16.416 0c0-4.485.827-8.649 2.482-12.493c1.654-3.897 3.95-7.287 6.887-10.17c2.935-2.882 6.432-5.125 10.49-6.726c4.11-1.655 8.62-2.483 13.533-2.483c4.857 0 9.342.828 13.453 2.483c4.11 1.601 7.634 3.844 10.57 6.726c2.99 2.883 5.312 6.273 6.967 10.17c1.654 3.844 2.483 8.008 2.483 12.492c0 4.485-.829 8.676-2.483 12.573a30.802 30.802 0 0 1-6.966 10.09c-2.937 2.882-6.46 5.151-10.57 6.806c-4.112 1.602-8.597 2.403-13.454 2.403c-4.912 0-9.423-.801-13.533-2.403c-4.058-1.655-7.555-3.924-10.49-6.806c-2.937-2.883-5.233-6.247-6.887-10.09c-1.655-3.897-2.482-8.088-2.482-12.573Zm88.47-3.204h2.963c3.096 0 5.472-.64 7.127-1.922c1.654-1.28 2.483-3.123 2.483-5.525s-.829-4.244-2.483-5.525c-1.655-1.282-4.031-1.922-7.127-1.922h-2.963v14.894Zm34.514 33.393h-19.539l-14.975-23.223v23.223h-15.695v-60.38h24.424c3.363 0 6.298.507 8.809 1.522c2.508.96 4.564 2.295 6.166 4.003a16.313 16.313 0 0 1 3.683 5.926c.853 2.242 1.281 4.645 1.281 7.207c0 4.591-1.12 8.328-3.363 11.211c-2.19 2.83-5.445 4.751-9.77 5.766l18.98 24.744Zm36.915-47.086h-18.659v10.09h17.618v13.293h-17.618v10.41h18.659v13.293h-34.354v-60.38h34.354v13.293Zm23.007 14.414h5.205c5.765 0 8.648-2.509 8.648-7.527c0-5.019-2.883-7.528-8.648-7.528h-5.205v15.055Zm0 32.672h-15.696v-60.38h24.985c6.78 0 11.957 1.762 15.535 5.285c3.63 3.524 5.445 8.488 5.445 14.895c0 6.406-1.815 11.37-5.445 14.894c-3.578 3.524-8.755 5.285-15.535 5.285h-9.29v20.02Zm48.265-30.19c0 2.403.454 4.618 1.361 6.647a16.807 16.807 0 0 0 3.684 5.285a17.333 17.333 0 0 0 5.365 3.524c2.082.8 4.27 1.2 6.567 1.2c2.296 0 4.458-.4 6.486-1.2c2.082-.855 3.898-2.029 5.445-3.524a16.195 16.195 0 0 0 3.764-5.285c.907-2.029 1.361-4.244 1.361-6.647c0-2.402-.454-4.617-1.361-6.646a16.195 16.195 0 0 0-3.764-5.285c-1.547-1.495-3.363-2.643-5.445-3.444c-2.028-.854-4.19-1.28-6.486-1.28a17.13 17.13 0 0 0-6.567 1.28a16.217 16.217 0 0 0-5.365 3.444a16.807 16.807 0 0 0-3.684 5.285c-.907 2.029-1.36 4.244-1.36 6.646Zm-16.416 0c0-4.484.827-8.648 2.483-12.492c1.655-3.897 3.95-7.287 6.886-10.17c2.937-2.882 6.433-5.125 10.49-6.726c4.11-1.655 8.623-2.483 13.534-2.483c4.858 0 9.343.828 13.453 2.483c4.11 1.601 7.633 3.844 10.57 6.726c2.99 2.883 5.311 6.273 6.967 10.17c1.655 3.844 2.482 8.008 2.482 12.492c0 4.485-.827 8.676-2.482 12.573a30.802 30.802 0 0 1-6.967 10.09c-2.937 2.882-6.46 5.151-10.57 6.806c-4.11 1.602-8.595 2.403-13.453 2.403c-4.911 0-9.423-.801-13.533-2.403c-4.058-1.655-7.554-3.924-10.49-6.806c-2.937-2.883-5.232-6.247-6.887-10.09c-1.656-3.897-2.483-8.088-2.483-12.573Z"/></svg>