<svg xmlns="http://www.w3.org/2000/svg" xmlns:xlink="http://www.w3.org/1999/xlink" width="512" height="173" viewBox="0 0 512 173"><g fill="#2A3743"><path d="M16.423 169.414V73.105H.036V38.832h16.387V.262h37.633v38.57h16.375v34.273H54.056v61.803H66.6v34.506H16.423z"/><path d="M213.87 38.838v96.297h15.922v34.28h-50.875v-17.08c-4.259 6.432-9.515 11.235-15.738 14.405c-6.223 3.17-13.615 4.755-22.127 4.755c-14.478 0-25.627-4.271-33.46-12.838c-7.826-8.555-11.73-20.842-11.73-36.88v-48.44h-16.38V38.833h54.245v71.79c0 9.76 1.604 16.692 4.816 20.78c3.213 4.112 8.5 6.168 15.861 6.168c6.884 0 12.379-2.423 16.491-7.27c4.1-4.84 6.156-11.4 6.156-19.69V73.32h-14.986V38.812h51.81v.025h-.005z"/><path d="M252.188 169.414V73.105H235.8V38.832h16.387V.262h37.633v38.57h16.374v34.273h-16.374v61.803h12.544v34.506h-50.177z"/><path d="M320 129.211h35.197c.233 4.65 1.616 8.188 4.125 10.63c2.515 2.429 6.143 3.659 10.861 3.659c4.48 0 7.912-.986 10.28-2.962c2.369-1.97 3.543-4.816 3.543-8.536c0-5.355-5.85-9.412-17.537-12.202c-4.565-1.089-8.175-2.007-10.806-2.784c-12.324-3.482-21.375-8.5-27.176-15.04c-5.807-6.542-8.72-15.005-8.72-25.383c0-12.318 4.143-22.25 12.429-29.794c8.285-7.551 19.208-11.327 32.762-11.327c5.415 0 10.28.655 14.57 1.97c4.301 1.322 8.389 3.446 12.262 6.389v-5.458h27.175V75.43H384.46c-.691-4.259-1.97-7.3-3.83-9.117c-1.86-1.824-4.608-2.73-8.255-2.73c-3.708 0-6.725.906-9.007 2.73c-2.283 1.817-3.427 4.16-3.427 7.025c0 3.64 1.279 6.467 3.824 8.48c2.564 2.014 8.763 4.26 18.596 6.738c16.253 4.185 27.45 9.332 33.558 15.45c6.119 6.12 9.178 14.742 9.178 25.903c0 12.691-4.436 23.02-13.303 30.957c-8.866 7.942-20.34 11.901-34.438 11.901c-5.734 0-10.941-.813-15.628-2.429c-4.688-1.634-9.081-4.149-13.181-7.545v6.621H319.97v-40.203h.03z"/><path d="M511.7 82.112h-23.73V58.37H454.8v23.742h-23.736v33.166h23.736v23.73h33.172v-23.73h23.73V82.112z"/></g></svg>