<svg xmlns="http://www.w3.org/2000/svg" xmlns:xlink="http://www.w3.org/1999/xlink" width="256" height="256" viewBox="0 0 256 256"><path fill="#2015FF" d="m19.61 59.559l64.554-37.504l.04 105.173c-.121 38.978 27.226 73.945 65.022 83.143l.846.206l-.54.68c-.856 1.123-1.678 2.197-2.691 3.203a75.993 75.993 0 0 1-11.186 9.135a75.346 75.346 0 0 1-12.801 6.872v.002a75.165 75.165 0 0 1-14.121 4.318c-5.088 1.02-9.487 1.48-14.197 1.48h-.457a76.27 76.27 0 0 1-15.185-1.573a74.825 74.825 0 0 1-14.096-4.405a75.348 75.348 0 0 1-23.885-16.153a75.387 75.387 0 0 1-9.172-11.138a74.874 74.874 0 0 1-6.9-12.752a74.068 74.068 0 0 1-4.335-14.066c-1.052-5.2-1.179-10.574-1.164-15.143l-.01-101.316l.278-.162Zm162.422 132.54c3.732-10.497 5.64-20.767 5.67-30.524V50.502l48.939-27.992v105.184c-.014 4.77-.459 9.288-1.322 13.426a65.842 65.842 0 0 1-10.117 23.738a67.197 67.197 0 0 1-8.198 9.84a67.242 67.242 0 0 1-9.928 8.106a66.696 66.696 0 0 1-11.377 6.106c-4.015 1.727-7.76 2.873-12.514 3.827c-.16.032-.341.064-.53.096l-.942.166l.319-.9ZM0 49.39l.046 111.594c-.156 51.693 41.936 93.876 93.828 94.035h.285c16.488 0 32.712-4.311 46.917-12.46l68.636-39.286c28.457-14.705 46.181-43.642 46.278-75.53l.01-116.55a.939.939 0 0 0-.467-.809v-.002L238.72.59a.952.952 0 0 0-.939-.007L168.824 39.35a.936.936 0 0 0-.479.817l.06 121.33a75.073 75.073 0 0 1-1.576 15.13a74.267 74.267 0 0 1-4.419 14.039c-.362.841-.74 1.677-1.132 2.504l-.174.368l-.405-.052c-1.165-.152-1.933-.295-3.984-.68l-.543-.102c-4.316-.885-13.104-3.376-23.58-10.118a67.169 67.169 0 0 1-9.887-8.177a66.966 66.966 0 0 1-8.14-9.886a66.453 66.453 0 0 1-6.125-11.317a65.967 65.967 0 0 1-3.845-12.48c-.772-3.813-1.093-7.767-1.075-13.219V11.103c0-.33-.17-.632-.453-.806L86.272.137a.946.946 0 0 0-.957-.012L.472 48.577a.944.944 0 0 0-.472.814Z"/></svg>