<svg xmlns="http://www.w3.org/2000/svg" xmlns:xlink="http://www.w3.org/1999/xlink" width="256" height="256" viewBox="0 0 256 256"><path d="M127.992 0A127.992 127.992 0 0 1 256 127.992c.004 70.693-57.3 128.004-127.992 128.008C57.315 256.004.004 198.7 0 128.008C-.004 58.022 56.16 1.152 125.875.018L127.992 0Zm47.015 14.463C129.09-4.557 76.234 5.958 41.091 41.104c-35.144 35.146-45.655 88-26.633 133.919c19.023 45.917 63.832 75.855 113.534 75.851c67.863-.004 122.874-55.019 122.874-122.882c0-49.702-29.94-94.51-75.859-113.529Zm-58.624 36.071C105.668 56.641 99.64 66.61 99.64 74.977c0 7.513 2.54 10.32 5.198 10.99l.285.064l.143.026l.285.04c.332.039.663.047.987.031l.277-.02l.273-.031l.134-.02l.266-.047l.26-.057l.255-.066l.248-.074l.24-.082l.233-.088l.223-.095l.215-.1l.204-.106l.193-.109l.182-.113l.17-.115l.158-.117l.074-.06v77.647a12.56 12.56 0 0 0 1.57 2.739a11.452 11.452 0 0 0 9.395 4.741c2.53 0 5.294-.9 7.9-2.139l.648-.316c.43-.215.854-.439 1.271-.667l.62-.347l.609-.354l.594-.358l.58-.36l.564-.36l.547-.36l.528-.356l.753-.523l.704-.504l.648-.48l.59-.447l.526-.41l.843-.677l.718-.604V97.819c0-6.397-4.82-14.129-9.647-16.766l.462-.065l.547-.059l.572-.044l.5-.028l.555-.018l.607-.005l.43.005l.452.013l.469.022l.486.032l.502.043l.517.055c.174.021.351.044.53.069l.541.082c.092.015.183.03.275.047l.557.105c2.434.49 5.111 1.447 7.557 3.233l.28.21a58.242 58.242 0 0 1 4.13-4.545c8.03-7.889 15.834-12.951 23.208-16.323l.98-.44a73.642 73.642 0 0 1 5.299-2.085l.945-.324c.314-.106.627-.208.939-.308l.933-.294c.31-.095.619-.188.927-.279l.92-.265l.459-.127l.91-.246l.906-.233l.898-.222l.891-.21l.885-.2l.877-.19l.871-.182l.863-.172l.857-.164l1.27-.232l-.524.43l-.54.459l-.702.617l-.623.565l-.698.649l-.503.478l-.53.515l-.556.55l-.579.586l-.6.62l-.306.323l-.628.67c-.317.344-.64.7-.969 1.068l-.661.752c-.334.384-.67.78-1.01 1.187l-.683.83c-6.163 7.606-12.863 18.875-12.863 31.93l.009 4.9l.062 12.098l.392 44.887c4.434 4.259 9.975 3.12 15.878-.607l.623-.401l.625-.42c.209-.143.418-.29.627-.438l.63-.455l.631-.47l.634-.487l.634-.5l.636-.516l.638-.528l.638-.541l.639-.553l.64-.564l.639-.574l.64-.584l.96-.892l.96-.91l.957-.925l.637-.623l1.272-1.262l1.39-1.402l1.382-1.411l.344-.353a45.66 45.66 0 0 1-.142.658l-.16.697a59.35 59.35 0 0 1-.18.734l-.2.77a59.36 59.36 0 0 1-.109.398l-.232.821l-.254.853l-.277.884c-4.081 12.737-15.166 34.347-41.767 46.917l-12.56-14.129l-21.192 21.32a78.274 78.274 0 0 1-61.9-31.752a30.518 30.518 0 0 0 6.938 1.303l.186.002l.374-.004l.187-.006l.373-.021l.373-.035c2.974-.33 5.736-1.981 5.736-7V111.32a9.466 9.466 0 0 0-11.604-9.552l-.31.078c-3.489.798-6.728 4.407-9.456 8.729l-.476.77c-.156.258-.311.519-.464.781l-.454.792l-.442.798l-.43.803l-.418.806l-.406.804l-.392.801l-.38.796l-.543 1.177l-.344.77l-.49 1.126l-.457 1.085l-.422 1.035l-.387.975l-.35.908l-.408 1.09l-.338.934l-.457 1.316l-.148.447a77.905 77.905 0 0 1 26.97-59.703c11.693-9.909 23.17-14.634 32.846-16.987l.962-.228l.95-.212l.936-.198l.463-.093l.917-.178a83.8 83.8 0 0 1 .454-.083l.896-.158l.882-.146l.436-.069Z"/></svg>