<svg xmlns="http://www.w3.org/2000/svg" xmlns:xlink="http://www.w3.org/1999/xlink" width="256" height="227" viewBox="0 0 256 227"><defs><radialGradient id="logosV80" cx="1.278%" cy="11.379%" r="105.364%" fx="1.278%" fy="11.379%" gradientTransform="matrix(.88633 0 0 1 .001 0)"><stop offset="0%" stop-color="#FFF" stop-opacity=".1"/><stop offset="100%" stop-color="#FFF" stop-opacity="0"/></radialGradient></defs><path fill="#9E9E9E" d="m214.5 62.5l-6.2 13.1H226l.9-1.5l6.5-11.6h-19.1h.2Zm-173.3 0H22.5L30 75.6h17.5l-6.3-13.1Z"/><path fill="#424242" d="M256 23.3L232.7 64h-16.3l-26.1 49.5L128 226.9L65.6 113.5L39.6 64H23.3L0 23.3h66.9l10.9 21.6l35.5 64.7l14.5 26.6l14-26.6l34.9-64.7L189 23.2"/><path fill="#FFF" fill-opacity=".2" d="M67.7 24.7H.8L0 23.3h66.9l.8 1.4Zm121.4-1.4l-.8 1.5h66.9l.8-1.5h-66.9Z"/><path fill="#263238" fill-opacity=".2" d="m227 74.2l-.8 1.5h-15.8l-20 37.9L128 226.9L65.6 113.5L45.7 75.6H29.9l-.8-1.5h16.6l.8 1.5L65.6 112L128 225.5l62.4-113.4l19.2-36.4l.8-1.5"/><path fill="#FFF" d="M152.7 128c0 13.7-11.1 24.7-24.7 24.7s-24.7-11.1-24.7-24.7s11.1-24.7 24.7-24.7c13.7 0 24.7 11 24.7 24.7Zm-2.9-75.6c0 12-9.8 21.8-21.8 21.8s-21.8-9.8-21.8-21.8S116 30.5 128 30.5s21.8 9.8 21.8 21.9Z"/><path fill="#4285F4" d="M190.4 113.5c-3.3-14.1-11.2-26.5-22.1-35.3c5.8-8.1 9.2-18 9.2-28.8c0-1.5-.1-3-.2-4.5C175 19.7 153.8 0 128 0c-25.8 0-47 19.7-49.2 44.9c-.1 1.5-.2 3-.2 4.6c0 10.7 3.4 20.7 9.2 28.8c-10.9 8.8-18.9 21.1-22.1 35.3c-1.1 4.6-1.7 9.4-1.7 14.4c0 27.1 16.9 50.3 40.7 59.6c7.2 2.8 15.1 4.4 23.3 4.4c8.2 0 16.1-1.6 23.3-4.4c23.8-9.3 40.7-32.5 40.7-59.6c0-5-.6-9.8-1.6-14.5ZM128 32c11.2 0 20.4 9.1 20.4 20.4c0 11.3-9.1 20.4-20.4 20.4c-11.2 0-20.4-9.1-20.4-20.4c0-11.3 9.2-20.4 20.4-20.4Zm0 119.3c-12.8 0-23.3-10.4-23.3-23.3c0-7.5 3.5-14.1 9-18.4c3.9-3.1 8.9-4.9 14.3-4.9s10.4 1.8 14.3 4.9c5.5 4.3 9 10.9 9 18.4c0 12.9-10.4 23.3-23.3 23.3Z"/><path fill="#FFF" fill-opacity=".2" d="M177.5 49.5v.7c-.5-27-22.4-48.7-49.5-48.7S78.9 23.2 78.5 50.2v-.7C78.5 22.1 100.7 0 128 0s49.5 22.1 49.5 49.5ZM87.1 78.8C73 90.5 64 108.2 64 128v.7c.2-19.8 9.5-37.5 23.8-49l.7-.5l-.7-.9l-.7.5Zm81.8 0l-.6-.5l-.7.9l.7.6c14.3 11.6 23.6 29.2 23.8 49v-.8c-.1-19.8-9.1-37.5-23.2-49.2Z"/><path fill="#263238" fill-opacity=".2" d="M192 127.3v.7c0 35.3-28.7 64-64 64s-64-28.7-64-64v-.7c.4 35 28.9 63.3 64 63.3s63.6-28.3 64-63.3ZM78.5 48.7v.7c0 11.1 3.7 21.4 9.9 29.7c.2-.1.5-.3.7-.5c-6.5-8.2-10.4-18.6-10.6-29.9Zm99 0c-.2 11.3-4.1 21.6-10.6 29.9c.3.2.5.4.7.5c6.2-8.1 9.9-18.5 9.9-29.7v-.7Z"/><path fill="url(#logosV80)" d="M256 23.3L232.7 64l-6.6 11.6h-15.8l-20 37.9c1.1 4.7 1.6 9.5 1.6 14.5c0 27.1-16.9 50.3-40.7 59.6c-.7.3-1.5.6-2.2.8l-21 38.5l-21.2-38.5c-.7-.2-1.5-.5-2.2-.8C80.9 178.2 64 155.1 64 128c0-5 .6-9.8 1.6-14.5L45.7 75.6H30L23.3 64L0 23.3h66.9l10.9 21.6l.6.4c0-.1.2-.2.2-.4C80.9 19.7 102.1 0 127.9 0c25.8 0 47 19.7 49.3 44.9c0 .1-.3.2-.3.3l-.1-.3l12.3-21.7H256v.1Z"/></svg>