<svg xmlns="http://www.w3.org/2000/svg" xmlns:xlink="http://www.w3.org/1999/xlink" width="256" height="254" viewBox="0 0 256 254"><defs><linearGradient id="logosVaddy0" x1="50%" x2="50%" y1="-1.02%" y2="100%"><stop offset="0%" stop-color="#8FC53B"/><stop offset="100%" stop-color="#48A23C"/></linearGradient></defs><path fill="url(#logosVaddy0)" d="M189.574 13.209c25.131 18.66 41.421 48.556 41.421 82.263c0 56.554-45.846 102.4-102.4 102.4c-56.554 0-102.4-45.846-102.4-102.4c0-35.134 17.702-66.125 44.665-84.569C28.858 31.899 0 75.287 0 125.437c0 70.693 57.308 128.001 128 128.001c70.692 0 128-57.308 128-128.001c0-48.369-26.837-90.461-66.426-112.228ZM81.75 179.819c-18.812-13.967-31.006-36.346-31.006-61.576c0-42.333 34.318-76.65 76.651-76.65c42.332 0 76.65 34.317 76.65 76.65c0 26.299-13.251 49.497-33.433 63.302c31.439-15.716 53.041-48.193 53.041-85.733C223.653 42.897 180.756 0 127.84 0C74.924 0 32.028 42.897 32.028 95.812c0 36.207 20.088 67.714 49.722 84.007Zm78.2-80.775c0 17.645-14.304 31.95-31.95 31.95s-31.95-14.305-31.95-31.95c0-17.646 14.304-31.951 31.95-31.951s31.95 14.305 31.95 31.951Z"/></svg>