<svg xmlns="http://www.w3.org/2000/svg" xmlns:xlink="http://www.w3.org/1999/xlink" width="512" height="170" viewBox="0 0 512 170"><path fill="#BF3078" d="M427.709 0c-3.145 0-6.919 0-10.064.627l-18.24 31.929c8.176-5.01 18.24-7.513 28.304-7.513c32.707 0 59.753 26.92 59.753 59.475c0 32.556-27.046 59.475-59.753 59.475c-32.708 0-59.125-26.294-59.754-58.848l-18.869 31.929c12.58 30.675 43.4 51.962 77.994 51.962c46.545 0 84.913-38.19 84.913-84.518C512.623 38.19 474.253 0 427.709 0Z"/><path fill="#802050" d="m171.083 88.274l14.467-25.043l32.708 55.72l37.737-64.484l37.738 64.485L358.52 9.39C361.665 3.756 367.955 0 374.874 0h18.24l-99.38 169.036l-37.737-64.485l-37.74 64.485l-47.174-80.762Z"/><path fill="#26134D" d="M198.13 0L98.752 169.036L0 0h18.24c6.919 0 13.21 3.756 16.354 9.39l64.157 110.187L163.536 9.39C166.681 3.756 172.97 0 179.89 0h18.24Z"/></svg>