<svg xmlns="http://www.w3.org/2000/svg" xmlns:xlink="http://www.w3.org/1999/xlink" width="512" height="275" viewBox="0 0 512 275"><path d="m73.708 219.644l-17.236 54.458h-1.898l-17.275-50.275a11.4 11.4 0 0 1-.426-1.55a12 12 0 0 1-.426 1.55l-17.352 50.275h-1.86L0 219.644h1.743a.82.82 0 0 1 .852.658l15.028 48.377q.402 1.378.659 2.79a31 31 0 0 1 .33-1.473q.173-.697.367-1.317l16.772-48.377a.87.87 0 0 1 .93-.658h.503a.82.82 0 0 1 .851.658l16.772 48.377a25 25 0 0 1 .697 2.75q.154-.774.31-1.452q.154-.678.348-1.298l15.028-48.377c.103-.42.5-.7.93-.658zm43.03 52.637l-.077 1.82H84.513v-54.457h32.148v1.82H86.644v24.13h25.292v1.782H86.644v24.905zm27.578-52.637q8.908 0 13.246 3.563t4.339 10.11c.003 1.506-.287 3-.852 4.396a13.4 13.4 0 0 1-2.382 3.854a14.2 14.2 0 0 1-3.719 2.982a15.7 15.7 0 0 1-4.861 1.743c2.044.19 4.052.666 5.965 1.414a14.7 14.7 0 0 1 4.474 2.75a11.3 11.3 0 0 1 2.808 3.989c.663 1.628.992 3.374.968 5.132a15 15 0 0 1-1.2 6.178a12.1 12.1 0 0 1-3.506 4.55a15.9 15.9 0 0 1-5.636 2.829a27.2 27.2 0 0 1-7.591.968h-16.81v-54.458zm-12.627 1.704v24.363h12.898a19.6 19.6 0 0 0 6.991-1.104a13.9 13.9 0 0 0 4.726-2.866a10.74 10.74 0 0 0 2.672-3.95c.54-1.378.822-2.841.833-4.32q0-5.847-3.815-8.985t-11.678-3.138zm14.68 51.011q7.63 0 11.716-3.273t4.087-9.547a11.4 11.4 0 0 0-1.104-5.075a10.95 10.95 0 0 0-3.138-3.834a14.6 14.6 0 0 0-4.957-2.44a23.5 23.5 0 0 0-6.566-.852H131.69v25.021zm76.69-25.486c.06 3.895-.569 7.77-1.86 11.445a24.2 24.2 0 0 1-5.228 8.56a22.6 22.6 0 0 1-8.057 5.364a27.8 27.8 0 0 1-10.341 1.86h-19.638v-54.458h19.638a27.8 27.8 0 0 1 10.341 1.86a22.6 22.6 0 0 1 8.057 5.364a24.2 24.2 0 0 1 5.229 8.56a33 33 0 0 1 1.859 11.445m-2.247 0a32.3 32.3 0 0 0-1.685-10.826a22.3 22.3 0 0 0-4.764-7.998a20.4 20.4 0 0 0-7.359-4.958a25.3 25.3 0 0 0-9.431-1.704h-17.508v50.972h17.508c3.223.039 6.425-.54 9.431-1.704a20.4 20.4 0 0 0 7.36-4.958a22.3 22.3 0 0 0 4.763-7.998a32.2 32.2 0 0 0 1.685-10.826m52.095 27.23h-1.743a2.3 2.3 0 0 1-.756-.118a1.4 1.4 0 0 1-.639-.542l-19.21-23.51a3.8 3.8 0 0 0-.64-.698a3 3 0 0 0-.736-.445a3.8 3.8 0 0 0-.968-.252a10 10 0 0 0-1.375-.077h-7.94v25.641h-2.13v-54.458h13.13q8.87 0 13.479 3.447q4.608 3.448 4.608 10.458a13.8 13.8 0 0 1-1.2 5.83a13.5 13.5 0 0 1-3.37 4.53a16.4 16.4 0 0 1-5.267 3.061a24 24 0 0 1-6.856 1.375a5 5 0 0 1 1.356 1.162zm-34.007-27.27h10.38c2.336.03 4.665-.277 6.914-.91a15.1 15.1 0 0 0 5.229-2.634a11.6 11.6 0 0 0 3.292-4.164a12.8 12.8 0 0 0 1.143-5.5q0-6.312-4.106-9.295t-11.852-2.983h-11zm46.245 27.268h-2.13v-54.458h2.13zm57.169-54.458l-22.62 54.458h-1.898l-22.62-54.458h1.665a.82.82 0 0 1 .852.658l20.218 48.765a37 37 0 0 1 .853 2.556q.343-1.298.813-2.556l20.18-48.765a.87.87 0 0 1 .929-.658zm42.255 52.637l-.078 1.82h-32.147v-54.457h32.147v1.82h-30.017v24.13h25.292v1.782h-25.292v24.905zm48.958 1.821h-1.743a2.3 2.3 0 0 1-.755-.117a1.4 1.4 0 0 1-.64-.542l-19.211-23.51a3.8 3.8 0 0 0-.64-.698a3 3 0 0 0-.735-.445a3.8 3.8 0 0 0-.968-.252a10 10 0 0 0-1.375-.077h-7.94v25.641h-2.13v-54.458h13.13q8.87 0 13.479 3.447q4.608 3.448 4.609 10.458a13.8 13.8 0 0 1-1.201 5.83a13.5 13.5 0 0 1-3.37 4.53a16.4 16.4 0 0 1-5.267 3.06a24 24 0 0 1-6.856 1.376a5 5 0 0 1 1.356 1.162zm-34.007-27.268h10.38c2.336.03 4.665-.277 6.914-.91a15.1 15.1 0 0 0 5.229-2.634a11.6 11.6 0 0 0 3.292-4.164a12.8 12.8 0 0 0 1.143-5.5q0-6.312-4.106-9.295t-11.852-2.983h-11z"/><path fill="#EA5906" d="M450.814 218.18h53.308a7.694 7.694 0 0 1 7.694 7.694v40.634a7.694 7.694 0 0 1-7.694 7.694h-53.308a7.694 7.694 0 0 1-7.693-7.694v-40.634a7.694 7.694 0 0 1 7.693-7.694"/><path fill="#F2F2F2" d="M454.966 263.66h-1.346v-34.408h1.346zm3.94 1.42a.78.78 0 0 1-.368.416c-.159.08-.335.123-.514.123h-.49l15.468-36.808a.88.88 0 0 1 .832-.538h.538zm47.868-18.624a21.3 21.3 0 0 1-1.175 7.281a16 16 0 0 1-3.303 5.531a14.3 14.3 0 0 1-5.09 3.512a18.05 18.05 0 0 1-13.069 0a14.3 14.3 0 0 1-5.09-3.512a16 16 0 0 1-3.304-5.53a23.1 23.1 0 0 1 0-14.55a16 16 0 0 1 3.303-5.543a14.6 14.6 0 0 1 5.09-3.536a16.6 16.6 0 0 1 6.51-1.248a16.9 16.9 0 0 1 6.56 1.236a14.5 14.5 0 0 1 5.09 3.523a16 16 0 0 1 3.303 5.544a21.4 21.4 0 0 1 1.175 7.292m-1.42 0a20.8 20.8 0 0 0-1.064-6.889a14.8 14.8 0 0 0-3.01-5.176a13 13 0 0 0-4.65-3.255a16.33 16.33 0 0 0-11.918 0a13 13 0 0 0-4.65 3.255a15.1 15.1 0 0 0-3.035 5.176a22.34 22.34 0 0 0 0 13.778a14.8 14.8 0 0 0 3.035 5.152a13.1 13.1 0 0 0 4.65 3.23a16.33 16.33 0 0 0 11.918 0a13.1 13.1 0 0 0 4.65-3.23a14.5 14.5 0 0 0 3.01-5.152a20.8 20.8 0 0 0 1.065-6.889"/><path fill="#EA5906" d="M290.993 40.106a7.11 7.11 0 0 1 7.09 7.09v.726c4.753.776 20.734 6.142 20.734 23.418v37.585c1.877 1.245 3.036 2.943 3.036 4.815a5.38 5.38 0 0 1-1.87 3.898c-.124 2.749.671 8.228 1.024 10.304l.013.138c0 .111.012 2.761-1.73 4.52a5.3 5.3 0 0 1-3.927 1.505c-5.109 0-5.326-4.293-5.432-6.357c-.012-.261-.022-.497-.043-.704c-.083-.853-.382-1.29-.89-1.298h-.05c-.542 0-.894.164-1.474 1.048c-1.609 2.382-4.527 2.153-6.084 1.233a3.4 3.4 0 0 1-1.66-2.231c-.291-1.337.195-2.922 1.44-4.708a5.3 5.3 0 0 0 1.1-3.454a5.38 5.38 0 0 1-1.868-3.895c0-1.875 1.163-3.578 3.05-4.823V75.055c0-2.821-.869-3.897-2.657-5.495a5.37 5.37 0 0 0-2.712-1.262v54.043a7.11 7.11 0 0 1-7.09 7.09h-5.028v19.875h4.086l.079.015c.071.013 6.997 1.38 7.827 8.824v7.627h-24.691l-7.593-2.652v-5.773c-.19-2.98.345-5.191 1.547-6.402v-21.514h-32.393v21.514c1.204 1.211 1.735 3.422 1.549 6.402v5.774l-7.593 2.651h-24.69v-7.626c.802-7.208 7.319-8.719 7.795-8.819l.027-.005l.083-.016h4.086v-19.874h-4.881a7.11 7.11 0 0 1-7.09-7.09V68.295a5.36 5.36 0 0 0-2.71 1.265c-1.789 1.599-2.659 2.674-2.659 5.495v33.862c1.886 1.244 3.05 2.947 3.05 4.822a5.37 5.37 0 0 1-1.867 3.896a5.28 5.28 0 0 0 1.098 3.453c1.246 1.786 1.732 3.371 1.443 4.708a3.4 3.4 0 0 1-1.662 2.232c-1.56.92-4.474 1.149-6.085-1.233c-.58-.884-.932-1.048-1.475-1.048h-.048c-.508.008-.808.444-.889 1.297c-.02.207-.032.443-.046.705c-.104 2.063-.321 6.356-5.428 6.356a5.3 5.3 0 0 1-3.93-1.504c-1.74-1.76-1.73-4.41-1.728-4.52l.013-.14c.353-2.075 1.148-7.554 1.024-10.303a5.38 5.38 0 0 1-1.87-3.898c0-1.872 1.157-3.57 3.035-4.815V71.34c0-17.276 15.979-22.642 20.734-23.418v-.726a7.113 7.113 0 0 1 7.09-7.09Zm4.974 117h-21.304q.051.521.035 1.044h21.463a10 10 0 0 0-.194-1.044m-68.58 0H206.08a9 9 0 0 0-.193 1.044h21.462q-.015-.523.037-1.044m42.158-5.306a1.27 1.27 0 0 0-1.048.392c-.682.679-1.058 2.074-1.075 3.917l5.493 1.918a8.46 8.46 0 0 0-1.836-5.109c-.643-.786-1.214-1.092-1.534-1.118m-36.897-.005l-.146.005c-.32.026-.891.332-1.534 1.118a8.46 8.46 0 0 0-1.836 5.109l5.493-1.918c-.015-1.843-.391-3.238-1.075-3.917a1.27 1.27 0 0 0-1.048-.392Zm-2.413-.702h-18.063c-.554.125-4.26 1.107-5.755 4.942h21.144a10.6 10.6 0 0 1 2.024-4.248q.301-.37.65-.694m59.64 0h-18.061q.346.325.646.694a10.6 10.6 0 0 1 2.026 4.248h21.144c-1.385-3.554-4.67-4.658-5.585-4.9l-.124-.032zM271.45 129.43h-2.441v19.875h2.44V144.9h-.833v-3.752h.834zm13.443 0h-2.248v19.875h2.248zm-51.852 0h-2.442v11.717h.834v3.752h-.834v4.406h2.442zm-13.637 0h-2.248v19.875h2.248zM184 118.931a81 81 0 0 1-1.036 9.228c.012.345.123 2.091 1.22 3.194a3.53 3.53 0 0 0 2.65.966c1.257 0 2.066-.34 2.598-.905a4 4 0 0 1-2.38-1.397c-.672-.887-.814-2.037-.422-3.419c.138-.489.25-.874.348-1.202c.082-.274.151-.508.214-.734l.061-.225c.216-.82.367-1.669.707-4.086a13.2 13.2 0 0 1-3.96-1.42m134.196 0a13.2 13.2 0 0 1-3.96 1.42c.465 3.296.574 3.674.981 5.045q.18.6.35 1.202c.39 1.382.249 2.532-.423 3.42a4 4 0 0 1-2.38 1.396c.532.565 1.34.905 2.599.905c.979.06 1.939-.29 2.65-.966c1.097-1.103 1.208-2.849 1.219-3.194a82 82 0 0 1-1.036-9.227m-9.8 1.489c-.5.76-1.074 1.47-1.711 2.12c-.64.63-1.192 1.343-1.642 2.12a.94.94 0 0 0-.078.77c.141.323.37.6.66.799q.204-.194.364-.426c.634-.967 1.46-1.86 3.038-1.843c1.479.024 2.467 1.113 2.64 2.913q.034.392.049.785q.035 1.05.24 2.08c.516-.06 1.359-.259 1.767-.803c.313-.417.354-1.04.123-1.851a86 86 0 0 0-.341-1.182c-.428-1.438-.554-1.868-1.038-5.31q-.66.055-1.339.055c-.915 0-1.83-.076-2.732-.227m-114.596 0a16.4 16.4 0 0 1-4.07.172c-.483 3.441-.61 3.872-1.039 5.31c-.095.323-.206.701-.343 1.182c-.23.812-.187 1.434.125 1.851c.408.544 1.251.744 1.767.802q.207-1.029.24-2.079c.015-.29.029-.556.051-.785c.172-1.8 1.159-2.889 2.638-2.913c1.578-.017 2.404.876 3.04 1.843q.157.233.362.426c.29-.199.52-.475.66-.798a.94.94 0 0 0-.078-.772a10 10 0 0 0-1.642-2.118a14.3 14.3 0 0 1-1.71-2.121m4.395-1.52a12.6 12.6 0 0 1-2.895 1.188a17 17 0 0 0 1.263 1.485a11 11 0 0 1 1.867 2.447c.309.58.363 1.261.15 1.882a2.9 2.9 0 0 1-.597.973a3.5 3.5 0 0 0 1.914-.388c.416-.22.717-.611.825-1.07c.178-.82-.226-1.963-1.162-3.305a7.7 7.7 0 0 1-1.365-3.212m105.805 0a7.7 7.7 0 0 1-1.364 3.212c-.937 1.342-1.339 2.486-1.16 3.305c.107.458.407.848.823 1.07a3.5 3.5 0 0 0 1.915.388a2.8 2.8 0 0 1-.598-.973a2.37 2.37 0 0 1 .15-1.882a11.2 11.2 0 0 1 1.867-2.447q.675-.706 1.264-1.485a12.7 12.7 0 0 1-2.897-1.189m-15.655-11.948H213.85v10.566a7.11 7.11 0 0 0 7.09 7.09h2.824a8.493 8.493 0 1 1 2.827 0h14.922a8.493 8.493 0 1 1 2.884 0h36.86a7.11 7.11 0 0 0 7.089-7.09zm-41.894 3.577a6.728 6.728 0 1 0 2.259 2.289l-4.93 4.931a1.609 1.609 0 0 1-2.276-2.274Zm-21.274-1.002a6.706 6.706 0 0 0-1.608 13.216v-6.622a1.61 1.61 0 0 1 1.607-1.608a1.61 1.61 0 0 1 1.609 1.608v6.622a6.706 6.706 0 0 0-1.608-13.216m43.328 9.99a1.608 1.608 0 0 1 0 3.216h-6.437a1.608 1.608 0 0 1 0-3.216Zm12.843-4.825a1.608 1.608 0 0 1 0 3.215h-19.28a1.608 1.608 0 1 1 0-3.215Zm0-4.824a1.608 1.608 0 1 1 0 3.216h-19.28a1.608 1.608 0 1 1 0-3.216Zm-77.235-59.42a26.3 26.3 0 0 0-9.547 4.17c-5.763 4.056-8.685 9.683-8.685 16.722v35.313h8.218V75.055c0-4.16 1.415-8.247 4.208-10.743a14.85 14.85 0 0 1 5.806-3.083Zm93.97 0v10.78a14.85 14.85 0 0 1 5.808 3.084c2.79 2.495 4.206 6.583 4.206 10.743v31.598h8.218V71.34c0-7.04-2.922-12.666-8.685-16.723a26.3 26.3 0 0 0-9.547-4.17m-9.738 37.43c-2.342-2.666-4.175-3.006-5.663-2.82c-1.2.149-2.547 1.501-3.84 2.951c-1.629 1.831-3.475 3.907-5.993 3.907c-1.813 0-3.314-1.194-4.907-2.455c-2.136-1.693-4.555-3.611-8.48-3.801c-3.067-.15-5.576 2.546-7.14 4.832a27 27 0 0 0-2.068 3.655h38.091Zm-62.85-13.598h-1.225l-8.237 19.641h1.224zm7.498.426c-5.304 0-8.831 4.278-8.831 9.056v.05c0 4.777 3.478 9.005 8.781 9.005c5.301 0 8.829-4.278 8.829-9.055c.025-.025.025-.025 0-.05c0-4.778-3.476-9.006-8.78-9.006m-17.434.301h-1.301v17.509h1.301zm17.384.875c4.325 0 7.478 3.552 7.478 7.88v.05c0 4.326-3.1 7.83-7.428 7.83s-7.48-3.553-7.48-7.88v-.05c0-4.327 3.103-7.83 7.43-7.83m55.402-2.458h-39.078V89.28c2.2-3.414 5.664-7.058 10.35-6.83c4.956.237 8.06 2.695 10.321 4.489c1.143.906 2.22 1.76 2.91 1.76c1.076 0 2.355-1.437 3.594-2.827c1.68-1.89 3.945-3.968 6.598-4.03c2.168-.05 3.628.375 5.305 1.616zm-7.09-28.85H220.94a7.11 7.11 0 0 0-7.09 7.09v8.838h74.496v-8.839a7.11 7.11 0 0 0-7.09-7.09m-62.222 11.104v2.979h-2.978v-2.979zm5.003 0v2.979h-2.979v-2.979zm5.002 0v2.979h-2.978v-2.979zm5.004 0v2.979h-2.978v-2.979zM277.236 0a7.11 7.11 0 0 1 7.092 7.09v23.157a7.11 7.11 0 0 1-7.092 7.09h-52.277a7.11 7.11 0 0 1-7.09-7.09V7.09A7.11 7.11 0 0 1 224.96 0Zm0 1.786h-52.277a5.31 5.31 0 0 0-5.303 5.304v23.157a5.31 5.31 0 0 0 5.304 5.304h52.276a5.31 5.31 0 0 0 5.305-5.304V7.09a5.31 5.31 0 0 0-5.305-5.304m-61.839 11.2v18.456a9.229 9.229 0 1 1 0-18.456m71.403.001a9.227 9.227 0 0 1 9.226 9.227a9.227 9.227 0 0 1-9.227 9.227zm-49.4-.894a9.444 9.444 0 1 1 .001 18.889a9.444 9.444 0 0 1 0-18.89m27.394 0a9.444 9.444 0 1 1 .001 18.889a9.444 9.444 0 0 1 0-18.89m-27.392 1.787a7.658 7.658 0 1 0-.004 15.315a7.658 7.658 0 0 0 .004-15.315m27.394 0a7.658 7.658 0 1 0-.003 15.315a7.658 7.658 0 0 0 .003-15.315m-29.847 1.737a6.408 6.408 0 1 1 4.905 11.84a6.408 6.408 0 0 1-4.905-11.84m29.845-.488a6.408 6.408 0 1 1 0 12.816a6.408 6.408 0 0 1 0-12.816m15.78 6.785v2.978h-2.978v-2.978zm0-4.286v2.976h-2.978v-2.976z"/></svg>