<svg xmlns="http://www.w3.org/2000/svg" xmlns:xlink="http://www.w3.org/1999/xlink" width="256" height="281" viewBox="0 0 256 281"><path fill="#97BEEF" fill-opacity=".94" d="M233.858 123.628c-8.927-7.385-16.016-13.417-25.42-21.142c-2.176-12.29-4.3-24.366-6.415-36.175c-3.58-20.189-21.054-41.433-39.504-47.3c-8.45-2.698-16.317-1.858-23.831 2.617c-9.113-9.65-18.64-16.144-29.024-19.465c-24.643-7.885-44.85 6.388-42.585 33.031c1.294 14.838 2.57 30.94 3.63 43.715C56.76 84.7 42.394 90.793 30.587 95.791C15.889 102.061 5.74 114.63 1.829 129.56c-3.982 15.24-1.593 32.885 8.464 48.51c8.94 13.994 21.73 23.485 38.095 28.63c-1.355 18.45 1.955 34.387 10.224 47.45C67.96 269 81.781 277.9 95.886 280.316c13.868 2.38 27.866-1.514 38.568-11.685a12118.852 12118.852 0 0 1 32.669-31.425c12.25 7.364 24.065 14.468 35.557 21.39c18.79 11.204 37.976-.98 42.506-24.759c1.893-9.911 1.059-20.988-2.472-33.512c6.688-4.12 10.842-10.551 12.533-19.558c3.572-19.125-5.894-44.28-21.39-57.14l.001.001Zm3.131 42.934c-1.02 4.6-3.991 7.351-7.708 6.913c-3.055-.366-5.61-1.606-10.82-5.439c-8.592-6.436-17.368-13.032-26.45-19.72a150.078 150.078 0 0 1-2.51-1.78c-7.55-5.567-14.146-4.503-16.666 3.113c-2.615 7.796 1.059 16.957 8.834 22.41a104 104 0 0 1 2.595 1.84c9.475 6.64 18.799 13.116 27.87 19.43c3.846 2.684 6.71 5.196 8.6 7.47c4.182 4.785 6.168 12.66 4.73 19.235c-1.554 6.935-6.027 10.551-11.457 9.315c-2.746-.582-4.812-1.699-9.744-4.891c-9.562-6.198-19.394-12.626-29.54-19.16a63.879 63.879 0 0 1-2.768-1.862c-3.201-1.951-6.282-2.84-9.002-2.734h-.013c-3.038-.2-6.22.9-9.272 3.347c-.847.698-1.703 1.364-2.493 2.114c-9.466 7.789-19.28 16.097-29.682 24.834c-5.62 4.697-8.15 6.53-11.902 7.85c-7.557 2.887-15.91-.353-21.138-8.667c-4.922-8.092-4.71-18.595.389-25.217c2.167-2.945 5.832-6.313 10.882-9.894c11.006-7.872 21.434-15.284 31.337-22.391c.9-.614 1.765-1.219 2.667-1.855c7.509-5.333 8.949-14.764 3.651-23.553c-5.16-8.768-13.695-11.43-21.796-6.538a74.205 74.205 0 0 0-2.733 1.708c-10.48 6.424-21.473 13.21-33.062 20.357c-7.474 4.508-11.42 5.964-17.001 6.22c-6.896.358-14.115-3.89-18.317-10.577c-4.759-7.452-4.918-16.71-.348-22.454c2.569-3.377 5.32-5.426 13.214-9.474a3149.652 3149.652 0 0 1 35.08-17.866c.949-.579 1.907-.976 2.892-1.457c.68-.335 1.307-.733 1.858-1.134c4.98-2.198 7.404-7.695 6.627-15.139c-.133-1.249-.22-2.454-.428-3.647c-1.355-13.214-2.703-26.162-4.11-38.819c-.817-7.734-.738-10.454.242-13.523c1.562-4.874 7.08-6.997 13.271-5.328c5.453 1.47 10.67 5.743 13.515 10.922c2.321 4.309 3.39 7.859 4.33 15.2c1.541 12.052 3.127 24.286 4.725 36.806c.158 1.143.317 2.269.459 3.418c1.346 10.41 7.535 17.897 15.557 18.957c7.73 1.029 11.832-5.028 10.424-14.759c-.128-1.068-.292-2.193-.437-3.24c-1.748-11.978-3.475-23.713-5.161-35.2c-.737-4.967-.993-8.773-.592-11.227c.6-5.447 4.94-8.287 10.49-6.79c5.602 1.537 10.851 6.702 13.276 12.856c1.24 3.113 1.805 5.523 2.764 11.284c1.836 11.02 3.435 22.078 5.315 33.517l.658 3.183c.583 2.818.817 3.378 1.324 4.905l-.123-.503l-.031-.08l-.04-.079l-.018-.15v-.023l.053-.013c.971 4.335 3.828 8.613 8.234 12.07c.768.613 1.625 1.209 2.397 1.87c8.548 6.716 16.886 13.343 25.076 19.749c4.927 3.872 6.702 5.668 8.65 8.397c3.156 4.441 4.48 10.922 3.382 15.893h-.006Z"/></svg>