<svg xmlns="http://www.w3.org/2000/svg" xmlns:xlink="http://www.w3.org/1999/xlink" width="256" height="258" viewBox="0 0 256 258"><g fill="none" fill-rule="evenodd"><path fill="#FB7A24" d="M127.929.002c33.227 0 66.455 0 99.682-.002c4.17 0 8.3.362 12.301 1.582c8.675 2.644 13.268 8.865 15.068 17.438c.715 3.4.918 6.865.925 10.33c.053 23.27.092 46.542.094 69.814c.002 42.384.007 84.768-.08 127.151c-.012 5.933-.328 11.931-3.257 17.336c-3.249 5.994-7.697 10.738-14.45 12.824c-1.22.377-2.494.806-3.745.806c-2.882.002-5.687.716-8.56.716c-65.067-.005-130.133.033-195.2-.07c-5.292-.01-10.67-.395-15.697-2.548c-1-.43-2.01-.79-2.89-1.46c-6.4-4.877-10.746-10.96-11.678-19.191c-.335-2.968-.442-5.92-.442-8.889c.01-65.952.016-131.904.05-197.856c.003-3.826.042-7.718 1.219-11.38C4.403 6.846 11.261 1.519 21.427.437C23.79.185 26.173.022 28.547.02C61.672-.007 94.801.002 127.928.002Z"/><path fill="#FFF" d="M128.775 164.113c-.727 4.454-1.238 8.48-2.838 12.19c-7.49 17.384-20.256 27.977-39.394 30.086c-22.621 2.492-43.515-11.47-49.797-33.154c-2.277-7.858-2.049-15.869-1.223-23.867c.881-8.546 3.399-16.65 7.33-24.296c.563-1.093.552-1.918-.152-2.977c-6.036-9.078-8.378-19.107-7.528-29.932c.455-5.786 1.86-11.32 4.483-16.504c7.689-15.185 24.57-28.072 47.179-25.932c19.88 1.88 38.293 19.029 41.167 38.315c.145.968.417 1.918.735 3.346c.476-2.586.82-4.72 1.265-6.834c3.703-17.521 20.854-35.855 45.164-36.082c24.64-.228 42.887 19.097 46.33 37.045c1.455 7.585 1.202 15.163.002 22.738a81.02 81.02 0 0 1-6.672 21.775c-.716 1.529-.642 2.63.275 4.05c5.307 8.224 7.649 17.252 7.349 27.056c-.628 20.457-15.097 38.802-35.002 43.6c-27.79 6.697-49.093-9.923-56.262-30.031c-1.17-3.273-1.723-6.69-2.41-10.592Zm50.489-35.94c.297-1.157 1.193-1.85 1.837-2.706c6.968-9.26 10.633-19.603 9.815-31.25c-.596-8.5-7.587-14.488-16.05-14.171c-8.469.317-14.85 6.848-14.97 15.322c-.009.694.033 1.389-.01 2.078c-.583 9.031-5.566 13.978-13.117 14.53c-1.379.101-2.762.224-4.143.228c-9.8.022-19.599.018-29.4.009c-4.28-.004-8.524.462-12.6 1.72c-19.027 5.87-30.122 18.882-33.796 38.275c-.728 3.837-1.383 7.819-.125 11.76c1.805 5.653 5.17 9.857 11.126 11.263c6.173 1.457 11.55-.155 15.822-5.004c2.761-3.135 3.632-6.86 3.838-10.948c.534-10.515 6.26-15.771 15.81-15.692c14.649.122 29.3.026 43.951.037c2.6.001 2.624.036 2.637 2.608c.025 4.75-.121 9.507.062 14.252c.298 7.747 7.114 14.186 15.016 14.413c8.148.233 15.411-5.794 15.942-13.661c.458-6.81.429-13.661-.018-20.476c-.346-5.275-3.2-9.035-8.036-11.217c-1.16-.522-2.38-.913-3.591-1.37Zm-91.832-15.984c3.151 0 5.723-.029 8.293.013c1.274.02 1.746-.528 1.736-1.777c-.042-4.943.213-9.902-.102-14.827c-.416-6.497-3.871-11.194-9.92-13.563c-6.202-2.429-11.878-1.043-16.678 3.538c-4.821 4.603-5.464 10.232-3.777 16.392c1.55 5.662 5.21 8.878 10.968 9.85c3.344.563 6.707.293 9.48.374Z"/></g></svg>