<svg xmlns="http://www.w3.org/2000/svg" xmlns:xlink="http://www.w3.org/1999/xlink" width="512" height="139" viewBox="0 0 512 139"><path fill="#201515" d="m120.218 95.07l-.072-.228l45.523-41.675v-20.08H92.634v20.08h43.624l.072.192L91.251 95.07v20.08h75.152V95.07zm91.022-63.896q-12.636 0-20.597 3.812a27.03 27.03 0 0 0-11.952 10.473a38.1 38.1 0 0 0-5.014 15.15l22.16 3.115q1.204-7.082 4.81-10.04a14.7 14.7 0 0 1 8.5-2.958l1.023.012q6.747 0 9.787 3.607c2.01 2.405 3.032 5.735 3.032 10.124v2.189H201.68q-16.268 0-23.375 7.214t-7.094 19.046q0 12.12 7.094 18.037q7.095 5.915 17.844 5.88q13.336 0 20.513-9.175a34.1 34.1 0 0 0 5.928-12.637h.806l3.054 20.08h20.08v-50.85q0-15.765-8.308-24.421q-8.31-8.658-26.983-8.658m7.023 62.682c-3.187 2.658-7.36 3.98-12.554 3.98q-6.42 0-8.921-2.248a7.35 7.35 0 0 1-2.514-5.712a7.5 7.5 0 0 1 2.08-5.543a7.73 7.73 0 0 1 4.93-2.083l21.74.003v1.383a12.76 12.76 0 0 1-4.761 10.22m149.689-60.77h-23.723v82.077h23.723zm140.069 0q-10.053 0-15.849 7.094q-4.158 5.099-6.323 15.067h-.698l-3.103-22.16h-20.26v82.064h23.725V73.066q0-7.959 3.727-12.204q3.728-4.245 13.754-4.245H512v-23.53zm-69.777 2.682q-8.307-4.942-20.957-4.93q-19.913 0-31.166 11.338q-11.256 11.34-11.255 31.263a49.8 49.8 0 0 0 5.11 23.195a36.83 36.83 0 0 0 14.549 15.33q9.425 5.448 22.426 5.46q11.241 0 18.78-3.463a30.2 30.2 0 0 0 11.953-9.44a41.2 41.2 0 0 0 6.492-13.418l-20.44-5.724a18.95 18.95 0 0 1-4.81 8.321q-3.465 3.463-11.603 3.463q-9.68 0-14.43-5.543c-2.297-2.67-3.74-6.481-4.376-11.423h55.972c.23-2.309.35-4.245.35-5.808v-5.11a45.6 45.6 0 0 0-4.148-19.912a31.17 31.17 0 0 0-12.447-13.6M416.602 50.4q14.428 0 16.363 14.2h-34.028a19.55 19.55 0 0 1 3.812-8.669q4.679-5.543 13.853-5.531M356.348.008a13.32 13.32 0 0 0-9.704 3.727a12.87 12.87 0 0 0-3.806 8.553l-.005 1.066a13.04 13.04 0 0 0 3.817 9.695a13.04 13.04 0 0 0 8.625 3.804l1.073.005a12.83 12.83 0 0 0 9.62-3.812a13.2 13.2 0 0 0 3.712-8.623l.004-1.069a12.75 12.75 0 0 0-.847-5.195a12.8 12.8 0 0 0-2.872-4.412A12.77 12.77 0 0 0 356.36.02zm-49.01 30.83q-12.12 0-19.479 7.61q-5.448 5.64-7.996 16.835h-.757l-3.103-22.16h-20.26v105.62h23.722V95.239h.866a44.3 44.3 0 0 0 3.03 8.417a23.9 23.9 0 0 0 9.44 10.557a27.7 27.7 0 0 0 14.02 3.38q14.897 0 22.688-11.604q7.793-11.604 7.793-32.381q-.001-20.069-7.538-31.42q-7.54-11.35-22.426-11.35m2.405 59.471q-3.873 5.612-11.83 5.985l-1.157.027a15.3 15.3 0 0 1-12.72-5.807q-4.607-5.784-4.594-15.836v-1.563q0-10.21 4.593-15.632q4.593-5.423 12.72-5.363q8.996 0 13.072 5.712q4.077 5.712 4.076 15.932q.026 10.569-4.137 16.545z"/><path fill="#FF4F00" d="M82.077 95.071H0v20.104h82.077z"/></svg>