<svg xmlns="http://www.w3.org/2000/svg" xmlns:xlink="http://www.w3.org/1999/xlink" width="36" height="36" viewBox="0 0 36 36"><path fill="#E1E8ED" d="M.005 30.093L0 30.134c.001.11.02.215.032.322c.009.073.01.15.021.225l.046.2C.715 33.773 4.431 36 8.94 36c4.506 0 8.225-2.227 8.838-5.119q.028-.098.046-.199c.012-.074.015-.151.022-.227c.012-.106.031-.211.032-.321q-.002-.022-.006-.041l.006-.053h-.008c-.051-1.652-1.357-2.979-2.971-2.979c-1.617 0-2.923 1.327-2.973 2.979h-.018c.001-.031.009-.061.009-.093c0-1.696-1.334-3.072-2.98-3.072c-1.644 0-2.978 1.374-2.98 3.072c.001.032.009.062.012.093h-.017c-.051-1.652-1.356-2.979-2.972-2.979S.059 28.388.01 30.04L0 30.039c0 .019.005.036.005.054m18.083 0a.2.2 0 0 0-.006.041c.001.11.02.215.031.322c.01.073.011.15.021.225q.022.105.046.2C18.797 33.773 22.514 36 27.022 36c4.506 0 8.225-2.227 8.839-5.119q.028-.098.046-.199c.012-.074.016-.151.022-.227c.012-.106.03-.211.032-.321q-.001-.022-.006-.041l.006-.053h-.009c-.051-1.652-1.357-2.979-2.971-2.979c-1.616 0-2.923 1.327-2.973 2.979h-.018c.001-.031.009-.061.009-.093c0-1.696-1.334-3.072-2.979-3.072c-1.644 0-2.978 1.374-2.979 3.072c.002.032.009.062.012.093h-.019c-.051-1.652-1.356-2.979-2.972-2.979s-2.921 1.327-2.97 2.979l-.01-.001c.001.019.006.036.006.054"/><circle cx="18" cy="21" r="12" fill="#F7DECE"/><path fill="#292F33" d="M18 5.205c-7.444 0-13.5 6.056-13.5 13.5c0 1.9.396 3.751 1.178 5.499a.5.5 0 0 0 .952-.134c.393-2.755 2.581-4.706 4.512-6.428c1.793-1.599 3.498-3.119 3.444-5.041c6.516 1.171 14.006 6.017 14.784 11.469a.5.5 0 0 0 .951.134a13.4 13.4 0 0 0 1.179-5.499c0-7.444-6.056-13.5-13.5-13.5"/><path fill="#662113" d="M14 27h8s-1 2-4 2s-4-2-4-2m2-5a1 1 0 1 1-2 0v-2a1 1 0 1 1 2 0zm6 0a1 1 0 1 1-2 0v-2a1 1 0 1 1 2 0z"/><path fill="#8CCAF7" d="M18 0C11.373 0 6 2.687 6 6s5.373 6 12 6s12-2.686 12-6s-5.373-6-12-6m0 9c-4.971 0-9-1.567-9-3.5S13.029 2 18 2s9 1.567 9 3.5S22.971 9 18 9"/></svg>