<svg xmlns="http://www.w3.org/2000/svg" xmlns:xlink="http://www.w3.org/1999/xlink" width="36" height="36" viewBox="0 0 36 36"><circle cx="10.047" cy="16.953" r="1" fill="#67757F"/><circle cx="1.047" cy="25.953" r="1" fill="#67757F"/><circle cx="19.047" cy="25.953" r="1" fill="#67757F"/><circle cx="10.047" cy="34.953" r="1" fill="#67757F"/><circle cx="3.547" cy="19.828" r="1" fill="#67757F"/><circle cx="16.214" cy="32.495" r="1" fill="#67757F"/><path fill="#292F33" d="m32.339 5.338l-15.45 17.334l-3.561-3.56L30.66 3.66z"/><circle cx="10.047" cy="25.953" r="9" fill="#F18F26" transform="rotate(-52.019 10.047 25.953)"/><circle cx="10.047" cy="25.953" r="7" fill="#F5F8FA" transform="rotate(-52.019 10.047 25.953)"/><path fill="#CCD6DD" d="M4.628 29.934L28.8 5.807l.53.531L5.16 30.466zm.869.87L29.67 6.676l.531.531L6.028 31.335z"/><path fill="#292F33" d="m2.047 31.953l2-3s1 0 2 1s1 2 1 2l-3 2z"/><path fill="#67757F" d="M9.097 30.903a1 1 0 0 1-.707-.293l-3-3a.999.999 0 1 1 1.414-1.414l3 3a.999.999 0 0 1-.707 1.707"/><path fill="#F18F26" d="M34.704 2.685a1.13 1.13 0 0 1-.001 1.592l-3.186 3.186a1.13 1.13 0 0 1-1.593-.001l-1.39-1.389a1.13 1.13 0 0 1 .001-1.592l3.187-3.186a1.13 1.13 0 0 1 1.593 0z"/><circle cx="33" cy="8" r="1" fill="#642116"/><circle cx="35" cy="6" r="1" fill="#642116"/><circle cx="28" cy="3" r="1" fill="#642116"/><circle cx="30" cy="1" r="1" fill="#642116"/></svg>