<svg xmlns="http://www.w3.org/2000/svg" xmlns:xlink="http://www.w3.org/1999/xlink" width="36" height="36" viewBox="0 0 36 36"><path fill="#FFCC4D" d="m26.302 13.489l-.174-.174l-9.182-9.136c2.814 3.28 2.163 7.785-1.616 10.312c-3.672 2.455-8.996 2.174-12.389-.509l5.227 5.321l2.465 2.465c1.218 1.218 3.125 1.751 4.531 1.713c1.059-.028 1.834-.379 1.808-1.009c-.014-.362.189-.652.527-.881c1.086-.737 3.605-.828 5.108-.527c.492.098.957.081 1.395-.013c1.333-.286 2.393-1.352 3.034-2.601c.648-1.264.867-2.704.512-3.689l-.01-.035z"/><path fill="#FFAC33" d="M19.014 17.471c-.389-.389-1.118-.488-1.629-.22c-.511.267-.609.799-.22 1.189s1.118.488 1.629.22s.61-.8.22-1.189"/><path fill="#D99E82" d="M24.457 16.282c-.389-.389-.901-.271-1.145.264c-.243.535-.125 1.284.264 1.673s.901.271 1.145-.264c.243-.535.125-1.283-.264-1.673"/><path fill="#FFAC33" d="M21.903 11.908c-.268.511-.799.609-1.189.22s-.488-1.118-.22-1.629c.267-.511.799-.609 1.189-.22s.488 1.118.22 1.629"/><path fill="#D99E82" d="M12.747 21.064c-.584.195-1.372.037-1.761-.352s-.232-.862.352-1.057s1.372-.037 1.761.352c.389.39.232.863-.352 1.057"/><path fill="#BDBDBD" d="M24.003 21.051a3.4 3.4 0 0 1-1.395.013c-1.503-.301-4.021-.209-5.108.527l13.022 13.022c2.486-.848 3.93-3.036 3.962-3.082zm9.857.031l.018-.018l-3.522-3.522c-1-2.113.775-3.433.071-4.137c-.676-.676-2.715.027-4.124.084l1.236 1.236c.373.986.154 2.447-.501 3.725l8.928 8.928c.261-3.237-1.368-5.466-2.106-6.296"/><path fill="#808285" d="M15.164 23.482c-1.405.037-3.313-.496-4.531-1.713l-1.761-1.761c-.176.528 0 1.409.352 1.761c.704.704-.705 3.521 2.112 4.93c1.89.945 4.226 0 5.635 1.409c0 0 4.483 4.506 4.931 4.931s2.334 1.863 4.9 2.083z"/><path fill="#A6A6A6" d="M17.5 21.591c-.338.229-.542.519-.527.881c.025.63-.75.981-1.808 1.009L26.804 35.12c2.163.166 3.646-.481 3.718-.508z"/><path fill="#D8D8D8" d="M27.037 18.45c-.641 1.249-1.701 2.315-3.034 2.601l10.481 10.481c1.347-1.901 1.473-4.056 1.481-4.154z"/><path fill="#FFAC33" d="M3.155 7.407c.069-.304.205-.605.435-.835c.646-.646 1.474-1.282 2.577-1.308c.711-.017 1.535.091 2.501.675l7.069.059a6 6 0 0 0-.907-1.164c-2.528-2.528-7.035-2.935-10.065-.908c-1.431.956-2.268 2.284-2.497 3.685c.256-.207.587-.284.887-.204m12.592-1.391L15.738 6h-.004zM2.959 9.842c-.023-.019-.051-.027-.073-.049a.97.97 0 0 1-.244-.462a1.1 1.1 0 0 1-.379-.189a4.9 4.9 0 0 1 0-1.501c-.169 1.075.026 2.19.598 3.215l-.001-.002a1.5 1.5 0 0 1 .099-1.012"/><path fill="#C1694F" d="m2.265 7.613l-.002.028l.005-.029z"/><path fill="#FFE8B6" d="M16.946 4.179c-.137-.16-.274-.32-.428-.474C13.211.399 7.298-.165 3.355 2.516C-.48 5.124-1.043 10.124 2.166 13.301q.368.362.774.68c3.393 2.683 8.718 2.964 12.389.509c3.78-2.526 4.431-7.031 1.617-10.311M15.738 6l.009.016c1.428 2.397.759 5.337-1.826 7.066c-3.03 2.027-7.537 1.62-10.066-.909a6 6 0 0 1-.995-1.317c-.572-1.025-.767-2.14-.598-3.215l.002-.028l.003-.002c.23-1.401 1.067-2.729 2.498-3.685c3.031-2.026 7.537-1.62 10.066.909c.366.366.663.758.907 1.164"/><path fill="#C1694F" d="M13.921 13.082c2.585-1.729 3.254-4.669 1.826-7.066L15.734 6h.004l-.001-.002l-7.069-.059c-.967-.584-1.791-.692-2.501-.675c-1.103.026-1.931.662-2.577 1.308c-.23.23-.366.531-.435.835a1.01 1.01 0 0 0-.888.204l-.005.029a4.9 4.9 0 0 0 0 1.501q.174.135.38.19a1 1 0 0 0 .244.462c.022.022.05.03.073.049c-.156.318-.18.675-.099 1.012l.001.002c.257.461.583.906.995 1.317c2.528 2.529 7.035 2.936 10.065.909"/><path fill="#F4900C" d="m8.668 6.15l7.279.271a4.7 4.7 0 0 0-.484-.834c-2.6-1.922-6.547-2.087-9.29-.253l-.006.035c.71-.016 1.534.197 2.501.781"/><circle cx="5.703" cy="8.386" r=".996" fill="#D99E82"/><circle cx="7.112" cy="10.499" r="1.494" fill="#D99E82"/><circle cx="9.929" cy="11.203" r=".996" fill="#D99E82"/><circle cx="4.295" cy="7.682" r=".498" fill="#D99E82"/><circle cx="7.816" cy="13.316" r=".996" fill="#D99E82"/><circle cx="6.408" cy="5.568" r="1.494" fill="#FFD983"/><path fill="#D99E82" d="M10.634 13.316a.991.991 0 0 0-1.637 1.035a8.7 8.7 0 0 0 1.883-.097a.98.98 0 0 0-.246-.938"/><path fill="#77B255" d="M16.269 7.682a.99.99 0 0 0-1.664.45a1 1 0 0 0-.45.254a1 1 0 0 0 .001-1.41a.99.99 0 0 0 .009-1.398l-.016-.016a.993.993 0 0 0-1.402.005a.97.97 0 0 0-.461-.244a.96.96 0 0 0-.245-.46a1 1 0 0 0-.851-.278a1.98 1.98 0 0 0-.557-1.131a1.99 1.99 0 0 0-2.816.002a1.99 1.99 0 0 0-.001 2.817a1.98 1.98 0 0 0 1.959.497q.063.111.154.207a.996.996 0 0 0 0 1.409a.99.99 0 0 0 .826.28c.066.187.169.363.319.512a1.37 1.37 0 0 0 1.464.307a1 1 0 0 0 .208.31a.996.996 0 0 0 1.409 1.409c.075.075.16.13.249.176l.03.016a.992.992 0 0 0 1.129-1.601a1 1 0 0 0 .211-.318l-.001-.119a.993.993 0 0 0 .496-1.676"/><circle cx="14.86" cy="8.386" r=".498" fill="#A6D388"/><circle cx="12.747" cy="12.612" r=".996" fill="#FFD983"/><path fill="#FFD983" d="M12.395 9.442a1.49 1.49 0 0 0-1.797-.234a1.48 1.48 0 0 0-.786-.786a1.49 1.49 0 0 0-.234-1.797a1.493 1.493 0 1 0-1.643 2.429c-.328.571-.254 1.309.234 1.797s1.226.562 1.797.234a1.493 1.493 0 1 0 2.429-1.643"/><circle cx="10.458" cy="10.323" r="1.245" fill="#FFE8B6"/><circle cx="9.049" cy="8.21" r=".747" fill="#FFE8B6"/><circle cx="7.64" cy="6.801" r=".747" fill="#FFE8B6"/><circle cx="8.521" cy="4.864" r=".498" fill="#A6D388"/><circle cx="14.86" cy="6.273" r=".996" fill="#77B255"/><circle cx="14.156" cy="8.386" r=".996" fill="#A6D388"/><path fill="#A6D388" d="M13.099 5.921a1.5 1.5 0 0 0-.77-.41a1 1 0 0 0-.286-.646a.996.996 0 0 0-1.409 0a.996.996 0 1 0 0 1.409q.033.03.069.056a1.49 1.49 0 0 0 2.396 1.705a1.494 1.494 0 0 0 0-2.114"/><circle cx="10.458" cy="3.984" r=".747" fill="#DD2E44"/><circle cx="14.684" cy="6.801" r=".747" fill="#DD2E44"/><circle cx="14.156" cy="9.795" r=".996" fill="#DD2E44"/><path fill="#77B255" d="M13.451 3.455a.996.996 0 0 0-1.409 1.409a.996.996 0 1 0 1.409 0a.996.996 0 0 0 0-1.409"/><circle cx="12.042" cy="6.273" r=".996" fill="#DD2E44"/><circle cx="13.451" cy="4.16" r=".498" fill="#DD2E44"/></svg>