<svg xmlns="http://www.w3.org/2000/svg" xmlns:xlink="http://www.w3.org/1999/xlink" width="36" height="36" viewBox="0 0 36 36"><path fill="#DD2E44" d="M24.357 16.337s2.248-3.959 4.805-4.169s3.929.934 4.144 3.432c.287 3.334-.878 3.802-.033 7.53c0 0-3.546-2.414-2.421-6.07c1.172-3.806-4.81-3.095-3.835.316z"/><path fill="#FFCC4D" d="M14.31 20.375a1 1 0 0 0-1 1v13.563a1 1 0 1 0 2 0V21.375a1 1 0 0 0-1-1"/><path fill="#F4900C" d="m15.31 25.77l-2 1.047v2.257l2-1.047zm-2 8.054l2-1.047V30.52l-2 1.047z"/><path fill="#8899A6" d="M3.912 21.935c-1.181-.117-1.918 1.621-1.918 1.621c.114.814.447 2.255.597 2.778c.327 1.141 2.121 3.095 3.262 2.768s.814-1.468.487-2.608s-2.428.622-1.794-1.955c.149-.606.865-.756 1.483-.695c2.362.234 2.881-.223 3.788-1.325c1.064-1.296-4.724-.467-5.905-.584m25.142 6.7q0 3.56 3.56 3.56c3.56 0 1.187 0 0-2.373s-3.56-3.56-3.56-3.56z"/><path fill="#CCD6DD" d="M34.987 31.008c-1.187-1.187-2.373 0-2.373-2.373s-1.187-3.56-2.373-3.56s-1.187-4.746-1.187-5.933s-2.373-5.933-5.933-5.933s-5.933 1.187-8.306 1.187s-3.56 0-4.746-4.746c-.91-3.64-4.746-4.746-8.306-3.56c0 0-2.582-.995-1.395.192s-.18.995-.18 3.368c0 .275.066.515.174.73C.354 11.489.343 13.521.369 14c.036.667.294.883 1.131 1.208c1.125.438 1.782-.319 1.854-.708c.146-.792.021-1.656.021-1.656s1.167-.469 1.896-1.135c.098.081.625 1.146.052 2.688c-.413 1.112-1.187 2.373 1.187 5.933c0 0-3.56 0-4.746 1.187S.288 25.077.312 26.263c.033 1.648 1.452 3.56 2.639 3.56s1.187-1.187 1.187-2.373s-2.373 0-1.187-2.373s1.187-1.187 2.373-1.187s3.56-1.187 4.746-1.187s3.56 1.187 5.933 1.187s4.746-2.373 7.119 0s5.933 2.373 7.119 3.56c1.187 1.187 1.187 2.373 1.187 3.56s2.373 2.373 3.56 2.373s1.186-1.188-.001-2.375"/><path fill="#3B94D9" d="M10.712 11.761c1.006 2.629 2.154 2.635 4.103 2.635c2 0 4.008-.835 6.718-1.101q.214.54.401 1.101c1.187 3.56 0 5.933-5.933 5.933a5.933 5.933 0 0 1-5.933-5.933a5.9 5.9 0 0 1 .644-2.635"/><path fill="#F4900C" d="M5.629 19.705c.225.026.459-.013.674-.124c.17-.087 4.187-2.185 5.919-5.914c.276-.594-1.171-1.719-1.446-1.629c-.301.099-.56.318-.704.628c-1.385 2.98-4.821 4.786-4.854 4.804a1.187 1.187 0 0 0 .411 2.235"/><ellipse cx="14.31" cy="15.245" fill="#1C6399" rx="1.455" ry="1.163"/><path fill="#FFCC4D" d="M14.31.25a1 1 0 0 0-1 1v13.573l.005-.001l-.003.001a.998.998 0 0 0 1.998-.011V1.25a1 1 0 0 0-1-1"/><path fill="#F4900C" d="m15.31 2.02l-2 1.047v2.257l2-1.047zm0 4.75l-2 1.047v2.257l2-1.047zm-2 8.043l.01.006l1.99-1.041V11.52l-2 1.047z"/><path fill="#1C6399" d="M3.274 13.255a.5.5 0 0 1-.262-.074a5.14 5.14 0 0 0-2.353-.72a.5.5 0 0 1 .004-1c.057.011 1.129.003 2.35.584c.287-.838.765-2.666.466-4.922a.5.5 0 0 1 .992-.132c.452 3.409-.695 5.875-.744 5.978a.5.5 0 0 1-.453.286"/><ellipse cx="1.846" cy="8.862" fill="#292F33" rx=".555" ry=".424" transform="rotate(-56.453 1.847 8.862)"/><path fill="#DD2E44" d="M12.442 13.21c-2.373-2.373-1.006-5.256-3.379-7.629c-1.876-1.876-4.927-1.863-7.3.51c0 0 1.121 1.086 4.081 1.378c1.43.141 2.649 1.693 3.337 2.782c2.21 4.311 5.056 4.754 3.261 2.959"/></svg>