<svg xmlns="http://www.w3.org/2000/svg" xmlns:xlink="http://www.w3.org/1999/xlink" width="36" height="36" viewBox="0 0 36 36"><path fill="#AD743D" d="M35.432 22.773c-.195.858-.638 1.773-1.022 2.159c1.399-4.418 1.399-9.111-2.25-11.167c.112 1.107-.11 1.691-.265 2.153c-.21-2.219-.578-3.744-2.158-4.927c-1.82-1.363-2.611-.452-.736 3.765c2.2 4.945 1.475 8.603.827 11.216c-.038.154-.08.29-.12.439c.804-5.765-.989-11.722-6.825-14.915c-2.989-1.636-5.211-1.852-5.329-3.037c-.135-1.377-1.218-3.698-3.811-5.327c.444-1.309-.485-2.787-1.117-2.841c-.631-.054-2.024 1.039-2.16 2.528c-4.694 1.399-9.492 7.219-9.345 8.397s.341 2.638 6.57 3.656c1.104.18 3.995 1.835 4.4 5.779c.456 4.44 2.276 8.054 4.712 11.216h-1.73c-4.132 0-4.132 4.132-1.377 4.132h10.928l-.002-.002c.36-.003.788-.029 1.304-.085c6.931-.612 10.792-7.349 9.506-13.139"/><path fill="#D99E82" d="M11.325 15.279c3.258-.09 4.524-6.049-.682-6.82c-.122-1.077-.763-2.614-2.257-2.724c-2.348-.173-5.294 2.116-6.099 7.478c.881.601 2.467 1.18 5.405 1.661c1.104.18 3.995 1.835 4.4 5.779c.531 5.174 2.914 9.224 5.966 12.747c.903-.94 1.636-2.325 2.028-4.285c1.378-6.886-7.384-12.458-8.761-13.836"/><circle cx="7.692" cy="9.459" r="1.377" fill="#292F33"/><path fill="#662113" d="M21.254 13.564c4.065 3.341 6.158 7.296 5.402 12.37c-.318 2.143.83 2.933 1.688.902c.599-1.423.936-9.887-6.05-14.311c-1.859-1.177-1.961.284-1.04 1.039"/><path fill="#AD743D" d="M13.234 19.676c-1.243-1.243-4.97 0-6.211-2.488c-.786-1.572-3.728 1.245-2.485 3.734c1.242 2.483 4.969 2.483 7.454 1.242s1.242-2.488 1.242-2.488"/><path fill="#662113" d="M6.26 20.146c.304 1.49-.383 4.295-1.874 4.6c-1.49.304-3.22-2.007-3.524-3.496a2.76 2.76 0 0 1 2.147-3.253a2.756 2.756 0 0 1 3.251 2.149"/><path fill="#AD743D" d="M13.907 21.375c-1.635-1.062-5.388 1.148-7.309-1.259c-1.215-1.523-3.753 2.209-1.832 4.615c1.921 2.405 5.962 1.543 8.368-.378s.773-2.978.773-2.978"/></svg>