<svg xmlns="http://www.w3.org/2000/svg" xmlns:xlink="http://www.w3.org/1999/xlink" width="36" height="36" viewBox="0 0 36 36"><path fill="#5DADEC" d="M33.662.049c-1.148-.077-5.869-.75-17.522 6.665S-1.646 26.609 3.604 33.329c1.104 1.413 5.518 4.283 10.682.53c3.247-2.359 4.242-7.52 7.15-14.434c1.986-4.723 6.444-13.594 12.668-17.611c1.942-.97.22-1.72-.442-1.765"/><path fill="#8CCAF7" d="M16.625 13.651c-.265-1.059.971-4.281 1.324-5.164c-6.437 2.929-12.509 11.616-12.47 13.18c.006.227.139.305.42.193c5.398-2.166 8.882 1.07 9.807 3.751c.095.274.214.414.339.44c.171.036.352-.15.494-.557C18.565 19.675 23.112 9.055 27.835 5c-2.648 1.28-10.106 6.797-11.21 8.651"/><path fill="#BDDDF4" d="M14.242 12.989c-1.737.827-7.275 6.192-8.762 8.678c.006.227.139.305.42.193c5.398-2.166 8.882 1.07 9.807 3.751c.095.274.214.414.339.44c.057-2.328-.092-7.616 2.213-11.561c-4.061 3.707-5.076 3.618-4.017-1.501"/><path fill="#F5F8FA" d="M8.725 23.663a5.297 5.297 0 1 0 0 10.594a5.297 5.297 0 0 0 0-10.594"/></svg>