<svg xmlns="http://www.w3.org/2000/svg" xmlns:xlink="http://www.w3.org/1999/xlink" width="36" height="36" viewBox="0 0 36 36"><path fill="#FFE51E" d="M11 11.844c-2.297-.669-3.315-3.565-3.734-5.369C6.313 7.952 4.23 10.155 0 11.28V.425A11 11 0 0 1 3 0c6.075 0 11 4.925 11 11c0 3.009-1.211 5.733-3.168 7.719c.107-.557.168-1.13.168-1.719z"/><path fill="#F3D2A2" d="M0 28.604L2 32l3-5v-1.523A9.005 9.005 0 0 0 11 17v-5.156c-2.297-.669-3.315-3.565-3.734-5.369C6.313 7.952 4.23 10.155 0 11.28z"/><path fill="#3B94D9" d="M0 28.604L2 32l3-5h6a4 4 0 0 1 4 4v5H0z"/><path fill="#1C6399" d="M10 32h1v4h-1z"/><path fill="#C1694F" d="M5 22h1s-1 2-4 2a5.4 5.4 0 0 1-2-.363V22zm-2-2.5H1a.5.5 0 0 1 0-1h2a.5.5 0 0 1 0 1"/><path fill="#662113" d="M6 16a1 1 0 0 1-1-1v-1a1 1 0 1 1 2 0v1a1 1 0 0 1-1 1"/><path fill="#292F33" d="M25 11.844c2.297-.669 3.315-3.565 3.734-5.369c.953 1.477 3.036 3.68 7.266 4.805V.425A11 11 0 0 0 33 0c-6.075 0-11 4.925-11 11c0 3.009 1.211 5.733 3.168 7.719A9 9 0 0 1 25 17z"/><path fill="#F7DECE" d="M36 11.28c-4.23-1.125-6.313-3.328-7.266-4.804c-.42 1.804-1.438 4.699-3.734 5.369V17a9 9 0 0 0 6 8.476V27l3 5l2-3.396z"/><path fill="#3B94D9" d="M36 28.604L34 32l-3-5h-6a4 4 0 0 0-4 4v5h15z"/><path fill="#1C6399" d="M25 32h1v4h-1z"/><path fill="#C1694F" d="M31 22h-1s1 2 4 2a5.4 5.4 0 0 0 2-.363V22zm2-2.5h2a.5.5 0 0 0 0-1h-2a.5.5 0 0 0 0 1"/><path fill="#662113" d="M30 16a1 1 0 0 0 1-1v-1a1 1 0 1 0-2 0v1a1 1 0 0 0 1 1"/><path fill="#DD2E44" d="M26.539 4.711A4.71 4.71 0 0 0 21.828 0C20.249 0 18.855.78 18 1.972A4.7 4.7 0 0 0 14.172 0a4.71 4.71 0 0 0-4.711 4.711c0 .369.047.727.127 1.07c.654 4.065 5.173 8.353 8.411 9.529c3.238-1.177 7.758-5.465 8.412-9.528c.081-.344.128-.702.128-1.071"/></svg>