<svg xmlns="http://www.w3.org/2000/svg" xmlns:xlink="http://www.w3.org/1999/xlink" width="36" height="36" viewBox="0 0 36 36"><path fill="#292F33" d="M13.982 20H14v-9C14 4.925 9.075 0 3 0C1.956 0 .955.165 0 .44v31.037c.652.11 1.317.179 2 .179c6.511 0 11.799-5.189 11.982-11.656"/><path fill="#9268CA" d="M11.431 27C11.287 26.984 0 27 0 27v9h15v-5c0-2.061-1.566-3.782-3.569-4"/><path fill="#7450A8" d="M10 32h1v4h-1z"/><path fill="#F7DECE" d="M0 8.018v22.204A2.98 2.98 0 0 0 2 31a3 3 0 0 0 3-3v-2.523c3.494-1.237 6-4.56 6-8.477v-5.019c-5.92-.2-9.207-2.168-11-3.963"/><path fill="#DF1F32" d="M0 22v1.637A5.4 5.4 0 0 0 2 24c1.413 0 2.369-.445 3-.915C5.707 22.558 6 22 6 22z"/><path fill="#C1694F" d="M3 19.5H1a.5.5 0 0 1 0-1h2a.5.5 0 0 1 0 1"/><path fill="#662113" d="M6 16a1 1 0 0 1-1-1v-1a1 1 0 0 1 2 0v1a1 1 0 0 1-1 1"/><path fill="#963B22" d="M33 0c-6.075 0-11 4.925-11 11s4.925 11 11 11c1.041 0 2.045-.154 3-.425V.425A11 11 0 0 0 33 0"/><path fill="#4289C1" d="M25 27a4 4 0 0 0-4 4v5h15v-9z"/><path fill="#2A6797" d="M25 32h1v4h-1z"/><path fill="#D4AB88" d="M36 11.28c-4.23-1.125-6.313-3.328-7.266-4.804c-.42 1.804-1.438 4.699-3.734 5.369V17a9 9 0 0 0 6 8.476V27l3 5l2-3.396z"/><path fill="#C1694F" d="M30 22s.293.558 1 1.085c.63.469 1.587.915 3 .915a5.4 5.4 0 0 0 2-.363V22zm5-2.5h-2a.5.5 0 0 1 0-1h2a.5.5 0 0 1 0 1"/><path fill="#662113" d="M30 16a1 1 0 0 1-1-1v-1a1 1 0 1 1 2 0v1a1 1 0 0 1-1 1"/><path fill="#DD2E44" d="M26.539 4.711A4.71 4.71 0 0 0 21.828 0C20.249 0 18.855.78 18 1.972A4.7 4.7 0 0 0 14.172 0a4.71 4.71 0 0 0-4.711 4.711c0 .369.047.727.127 1.07c.654 4.065 5.173 8.353 8.411 9.529c3.238-1.177 7.758-5.465 8.412-9.528c.081-.344.128-.702.128-1.071"/></svg>