<svg xmlns="http://www.w3.org/2000/svg" xmlns:xlink="http://www.w3.org/1999/xlink" width="36" height="36" viewBox="0 0 36 36"><circle cx="18" cy="18" r="18" fill="#FFCC4D"/><path fill="#664500" d="M29.52 15.42a.95.95 0 0 1-.771-.4c-2.543-3.521-5.837-3.599-5.976-3.6c-.53-.006-.957-.456-.954-1.005c.003-.551.43-.995.96-.995c.177 0 4.369.05 7.511 4.4c.32.442.233 1.069-.193 1.4a.94.94 0 0 1-.577.2m-25.04 0a.94.94 0 0 1-.577-.2a1.026 1.026 0 0 1-.193-1.4c3.141-4.35 7.334-4.4 7.511-4.4c.532 0 .963.448.963 1c0 .551-.429.998-.959 1c-.15.002-3.437.086-5.975 3.6a.94.94 0 0 1-.77.4m10.223 1.598c-.013.009-1.262.902-3.703.902c-2.442 0-3.69-.893-3.7-.9a.499.499 0 0 0-.716.678c.061.09 1.515 2.222 4.416 2.222c2.9 0 4.355-2.132 4.416-2.223a.5.5 0 0 0-.713-.679m12.642.042a.5.5 0 0 0-.643-.042c-.012.009-1.262.902-3.702.902s-3.69-.893-3.7-.9a.499.499 0 0 0-.716.678c.061.09 1.515 2.222 4.416 2.222c2.9 0 4.355-2.132 4.416-2.223a.5.5 0 0 0-.071-.637m-4.86 11.239c-.011-.044-1.145-4.379-5.485-4.379s-5.474 4.335-5.485 4.379a.5.5 0 0 0 .232.544a.51.51 0 0 0 .596-.06c.009-.008 1.013-.863 4.657-.863c3.59 0 4.617.83 4.656.863a.5.5 0 0 0 .829-.484"/><path fill="#DEE7ED" d="M3.24 29.842c-.035.044-.077.08-.111.127a2.818 2.818 0 0 0 3.278 4.275a3.76 3.76 0 1 0 1.889-5.534a2.81 2.81 0 0 0-1.139-2.801a2.82 2.82 0 0 0-3.932.671a2.81 2.81 0 0 0 .015 3.262"/><path fill="#F3F7F9" d="M17.283 27.456c-.024.016-1.782 1.313-3.111 3.113c-.49.664-.777 1.445-1.039 2.228a3 3 0 0 1-.36.729c-.02.05-.05.09-.08.14q-.225.315-.51.57c-1.11.97-2.78 1.1-4.05.21q-.54-.39-.87-.93c-.74.27-1.59.19-2.27-.3a2.45 2.45 0 0 1-.59-3.42c.03-.04.07-.07.1-.11c-.72-1-.621-2.476.495-3.358c.964-.761 2.293-.637 3.215.174l.025.022c1.1.988 2.532 1.54 3.988 1.284c1.198-.211 2.708-.593 4.607-1.232c.23-.08.49.03.6.25c.12.22.05.49-.15.63"/></svg>