<svg xmlns="http://www.w3.org/2000/svg" xmlns:xlink="http://www.w3.org/1999/xlink" width="36" height="36" viewBox="0 0 36 36"><path fill="#FFDC5D" d="M26 22v-4h5v4h2v6h-9v-6z"/><path fill="#3B93D9" d="m31 22l-2.528 3.778L26 22h-5c-2 0-3 1-3 2.973V36h18V22z"/><path fill="#1B6399" d="M20.986 26h1.028v10h-1.028z"/><path fill="#FFDC5D" d="m21 4l.024 10c.011.175.036.347.059.518a7.47 7.47 0 0 0 7.417 6.45c3.978 0 7.223-3.079 7.476-6.969H36V4z"/><path fill="#FFAC33" d="M19.042 8.861c0 2.151.767 4.123 2.042 5.658c-.023-.172-.048-.343-.059-.518l-.01-4.033c5.362-.302 8.513-2.675 10.202-4.57C31.782 7.17 33.114 10 35.861 10H36V1.887A7.1 7.1 0 0 0 32.236.806c-.201 0-.398.014-.595.03A8.8 8.8 0 0 0 27.902 0a8.86 8.86 0 0 0-8.86 8.861"/><path fill="#BF6952" d="M25.278 17.723h6.444s-.805 1.61-3.222 1.61s-3.222-1.61-3.222-1.61M28 15.5h1a.5.5 0 0 0 0-1h-1a.5.5 0 0 0 0 1"/><path fill="#662113" d="M32 13a1 1 0 0 0 1-1v-1a1 1 0 0 0-2 0v1a1 1 0 0 0 1 1m-7 0a1 1 0 0 0 1-1v-1a1 1 0 0 0-2 0v1a1 1 0 0 0 1 1"/><path fill="#FFDC5D" d="M5 22v-4h5v4h2v6H3v-6z"/><path fill="#3B94D9" d="M15 22h-5l-2.472 3.778L5 22H0v14h18V24.973C18 23 17 22 15 22"/><path fill="#1B6399" d="M13.986 26h1.028v10h-1.028z"/><path fill="#FFDC5D" d="M15 14V5L0 4v10h.024c.252 3.89 3.498 6.969 7.476 6.969c3.791 0 6.932-2.799 7.438-6.428c.025-.18.05-.358.062-.541"/><path fill="#FFAC33" d="M3.806.806A7.1 7.1 0 0 0 0 1.912v8.083c5.947-.055 9.375-2.593 11.162-4.598c.506 1.589 1.633 4.021 3.838 4.51V14c-.012.183-.037.361-.062.54A8.86 8.86 0 0 0 8.139 0A8.8 8.8 0 0 0 4.4.836a7 7 0 0 0-.594-.03M15 5v.166l-.028-.167z"/><path fill="#BF6952" d="M10.722 17.723H4.278s.805 1.61 3.222 1.61s3.222-1.61 3.222-1.61M8 15.5H7a.5.5 0 0 1 0-1h1a.5.5 0 0 1 0 1"/><path fill="#662113" d="M4 13a1 1 0 0 1-1-1v-1a1 1 0 0 1 2 0v1a1 1 0 0 1-1 1m7 0a1 1 0 0 1-1-1v-1a1 1 0 0 1 2 0v1a1 1 0 0 1-1 1"/><path fill="#FFDC5D" d="M20.091 35v-4h-4v4h-1v1h6v-1z"/><path fill="#88C9F9" d="M23.091 33h-3l-2 3h8.818c-.518-1.602-2.159-3-3.818-3M9.277 36h8.814l-2-3h-2q-.551.002-1.055.088c-1.941.326-3.301 1.535-3.759 2.912"/><path fill="#FFDC5D" d="M25.085 26.047L25.083 26h.008v-6h-3.557c-1.018-.574-2.192-.906-3.446-.906s-2.428.332-3.446.906h-3.551v6h.002l-.002.047c0 .145.013.286.022.428c.224 3.64 3.257 6.525 6.975 6.525c3.383 0 6.206-2.387 6.856-5.558a7 7 0 0 0 .141-1.395"/><path fill="#F4900C" d="M26.425 22.861A7.86 7.86 0 0 0 18.564 15a7.8 7.8 0 0 0-3.464.812a6.136 6.136 0 0 0-6.009 6.133a6.1 6.1 0 0 0 2.022 4.53c-.009-.142-.022-.284-.022-.428l.002-.047h-.002v-3.035c4.856-.18 7.656-1.81 9.204-3.332c1.065 1.257 2.765 2.841 4.796 3.257V26h-.008l.002.047q-.002.718-.141 1.395a7.8 7.8 0 0 0 1.481-4.581"/><path fill="#BF6952" d="M21.091 30h-6s.583 2 3 2s3-2 3-2m-3-.5a.47.47 0 0 1-.35-.15c-.1-.09-.15-.22-.15-.35s.05-.26.15-.36c.17-.17.52-.18.71.01c.09.091.14.221.14.351s-.05.26-.15.35a.47.47 0 0 1-.35.149"/><path fill="#662113" d="M15.091 28a1 1 0 0 1-1-1v-1a1 1 0 1 1 2 0v1a1 1 0 0 1-1 1m6 0a1 1 0 0 1-1-1v-1a1 1 0 1 1 2 0v1a1 1 0 0 1-1 1"/></svg>