<svg xmlns="http://www.w3.org/2000/svg" xmlns:xlink="http://www.w3.org/1999/xlink" width="36" height="36" viewBox="0 0 36 36"><path fill="#77B255" d="M36 36v-2a6 6 0 0 0-6-6H14a6 6 0 0 0-6 6v2z"/><path fill="#3E721D" d="M22 34c.767 0 5-3 5-6H17c0 3 4.233 6 5 6"/><path fill="#7C533E" d="M17.64 28.038c0 2.846 8.72 2.962 8.72 0v-3.749h-8.72z"/><path fill="#664131" d="M17.632 25.973c1.216 1.374 2.724 1.746 4.364 1.746s3.147-.372 4.364-1.746v-3.491h-8.728z"/><path fill="#0B0200" d="M25.152 3.3c-1.925-.623-5.876-.46-7.008 1.012c-1.873.036-1.596 3.71-5.113 2.967c-.738 1.004-1.259 2.198-1.424 3.476c-.448 3.475.235 4.874.591 7.486c.403 2.96 2.067 3.907 3.397 4.303c1.914 2.529 3.949 2.421 7.366 2.421c6.672 0 9.271-4.458 9.552-12.04c.08-2.157-.473-4.067-1.584-5.649c-3.837 1.49-3.213-3.146-5.777-3.976"/><path fill="#7C533E" d="M29.547 13.243c-.646-.894-1.472-1.614-3.284-1.868c.68.311 1.874 2.202 1.959 2.797s.17 1.076-.368.481c-2.155-2.382-5.045-2.259-7.37-3.714c-1.624-1.016-2.119-2.141-2.119-2.141s-.198 1.5-2.661 3.029c-.714.443-1.566 1.43-2.038 2.888c-.34 1.048-.234 1.982-.234 3.578c0 4.66 3.841 8.578 8.578 8.578s8.578-3.953 8.578-8.578c-.002-2.898-.305-4.03-1.041-5.05"/><path fill="#3D2E24" d="M22.961 20.677h-1.906a.477.477 0 1 1 0-.954h1.906a.477.477 0 1 1 0 .954"/><path d="M18.195 17.341a.953.953 0 0 1-.953-.953v-.953a.953.953 0 0 1 1.906 0v.953a.953.953 0 0 1-.953.953m7.626 0a.953.953 0 0 1-.953-.953v-.953a.953.953 0 0 1 1.906 0v.953a.953.953 0 0 1-.953.953"/><path fill="#3D2E24" d="M22.134 24.657c-2.754 0-3.6-.705-3.741-.848a.655.655 0 0 1 .902-.95c.052.037.721.487 2.839.487c2.2 0 2.836-.485 2.842-.49a.64.64 0 0 1 .913.015a.67.67 0 0 1-.014.939c-.142.142-.987.847-3.741.847"/><path fill="#3B88C3" d="M13 28h3v8h-3zm15 0h3v8h-3z"/><path fill="#3B88C3" d="M13.125 35H31v1H13.125z"/><path fill="#C1694F" d="M30 8.8c0 1.32-3.092 2.2-8 2.2c-4.909 0-8-.88-8-2.2C14 5.253 18 0 19.333 0S21.556 1.76 22 1.76S23.333 0 24.667 0S30 5.253 30 8.8"/><path fill="#C1694F" d="M35.941 8c0 1.657-3.5 6-14 6s-14-4.343-14-6s6.82-1 14-1s14-.657 14 1"/><path fill="#292F33" d="M30 8.8c0 1.32-3.092 2.2-8 2.2c-4.909 0-8-.88-8-2.2c0-.566.102-1.175.279-1.8c2.388 2 13.054 2 15.443.004c.175.623.278 1.231.278 1.796"/><path fill="#C1694F" d="M7 31.75a1.25 1.25 0 0 0-2.5 0V36H7z"/><path fill="#66757F" d="M10.003 22.75c0 2.35-1.904 4.253-4.253 4.253S1.497 25.1 1.497 22.75c0-.086-1.497-.084-1.497 0a5.75 5.75 0 0 0 11.5 0c0-.084-1.497-.086-1.497 0"/><path fill="#66757F" d="M1.5 22.75a.75.75 0 0 1-1.5 0v-8.5a.75.75 0 0 1 1.5 0zm10 0a.75.75 0 0 1-1.5 0v-8.5a.75.75 0 0 1 1.5 0zM6.5 31A.75.75 0 0 1 5 31V14.25a.75.75 0 0 1 1.5 0z"/></svg>