<svg xmlns="http://www.w3.org/2000/svg" xmlns:xlink="http://www.w3.org/1999/xlink" width="36" height="36" viewBox="0 0 36 36"><path fill="#4B92DB" d="M36 27a4 4 0 0 1-4 4H4a4 4 0 0 1-4-4V9a4 4 0 0 1 4-4h28a4 4 0 0 1 4 4v18z"/><g fill="#FFF"><path d="M10.554 15.53c.149-.305.393-.596.68-.813c.64-.483 1.34-1.108 1.35-1.93c-.212.591-.856.836-1.285 1.24c-.227.214-.4.471-.502.738l-.015-.012c.053-.237.154-.451.222-.68c.187-.626.153-1.375.763-1.793c-.314.08-.577.283-.812.544c-.492.545-.449 1.35-.384 2.068c.02.222.008.411-.017.638zm3.217 7.731c-.71-.573-.817-1.432-1.134-2.186c-.197-.468-.517-.889-.859-1.298c.376.751.214 1.72.701 2.428c.153.222.366.434.562.612l-.009.009a2.369 2.369 0 0 1-.501-.342c-.853-.709-2.136-.8-2.647-1.956c.138.849.812 1.601 1.54 2.077c.692.453 1.578.402 2.347.656z"/><path d="M10.569 20.879c.481.379 1.055.675 1.493 1.008c-.086-.218-.227-.419-.284-.65c-.258-1.04-.114-2.243-.56-3.205c.083.547-.134 1.03-.184 1.55c-.041.428.034.843.2 1.203c.049.106.138.202.163.311c-.16-.144-.274-.329-.384-.508c-.517-.837-1.602-1.382-1.676-2.4c-.037.453.003.934.154 1.336c.21.559.613.989 1.078 1.355zm.73-7.131c.341-.32.737-.557 1.026-.939c.347-.459.649-.97 1.101-1.366c-.616.24-1.276.485-1.676 1.117c-.233.369-.267.806-.451 1.188zm4.304 9.971c.129-.032.286-.022.406-.065c-.498-.101-.979-.252-1.365-.605c-.554-.507-1.045-1.047-1.638-1.441c.464.625.596 1.532 1.444 1.852c.15.057.322.066.452.148c-.163.025-.306-.025-.458-.058c-1.093-.233-2.428.067-3.247-.865c.311.609.951 1.09 1.565 1.293c.953.313 1.946-.037 2.841-.259z"/><path d="M10.724 19.841l.046.037c-.049-.336-.074-.698.021-1.019c.145-.513.326-1.012.422-1.544c.074-.413.159-.877.111-1.278c-.055.216-.112.429-.231.613c-.45.697-.913 1.515-.597 2.4c-.007.01-.018.022-.029.015c-.127-.292-.155-.625-.237-.939c-.218-.831-.858-1.526-.67-2.487c-.099.209-.139.444-.191.671c-.111.588 0 1.211.16 1.751c.198.677.86 1.161 1.195 1.78z"/><path d="M11.557 15.366c.149-.302.242-.643.283-.976a1.065 1.065 0 0 1-.259.385c-.497.471-1.083.936-1.196 1.603c-.016.095-.024.193-.052.286c-.022.009-.022-.015-.031-.021l.062-.828c.06-.807-.365-1.705.102-2.416c-.016-.003-.025.009-.037.016c-.425.542-.708 1.135-.708 1.862c0 .898.517 1.525.581 2.369c.133-.88.872-1.505 1.255-2.28zm14.215 2.761c-.082.313-.11.646-.237.939c-.012.006-.022-.006-.029-.015c.315-.885-.147-1.703-.597-2.4c-.118-.183-.175-.397-.231-.613c-.049.401.037.864.111 1.278c.095.532.277 1.031.422 1.544c.095.321.07.683.021 1.019l.046-.037c.335-.619.997-1.103 1.197-1.778c.16-.54.27-1.164.16-1.751c-.052-.227-.092-.463-.191-.671c.186.959-.454 1.653-.672 2.485zm-2.302 4.357a2.369 2.369 0 0 1-.501.342l-.009-.009c.197-.178.41-.39.562-.612c.488-.708.325-1.677.701-2.428c-.342.409-.662.83-.859 1.298c-.317.754-.424 1.613-1.134 2.186c.768-.253 1.655-.203 2.346-.656c.727-.476 1.401-1.228 1.54-2.077c-.51 1.156-1.793 1.246-2.646 1.956z"/><path d="M21.099 23.607c.13-.082.302-.092.452-.148c.848-.32.98-1.227 1.444-1.852c-.593.394-1.084.934-1.638 1.441c-.386.353-.866.504-1.365.605c.12.044.276.034.406.065c.895.222 1.888.573 2.841.258c.615-.203 1.255-.683 1.565-1.293c-.819.932-2.154.632-3.247.865c-.152.034-.295.084-.458.059zm3.505-2.511c.025-.108.114-.205.163-.311a2.34 2.34 0 0 0 .2-1.203c-.05-.52-.267-1.003-.184-1.55c-.446.962-.302 2.165-.56 3.205c-.057.23-.197.432-.284.65c.438-.333 1.012-.629 1.493-1.008c.465-.366.868-.796 1.078-1.355c.151-.403.19-.883.153-1.336c-.074 1.019-1.158 1.563-1.676 2.4c-.109.179-.223.364-.383.508zm1.033-5.28l.062.828c-.009.006-.009.031-.031.021c-.028-.092-.036-.19-.052-.286c-.113-.667-.699-1.132-1.196-1.603a1.053 1.053 0 0 1-.259-.385c.041.333.134.673.283.976c.383.775 1.122 1.4 1.254 2.28c.064-.844.581-1.471.581-2.369c0-.727-.283-1.32-.708-1.862c-.012-.006-.021-.018-.037-.016c.469.711.043 1.609.103 2.416z"/><path d="M24.998 14.074c.068.229.168.443.222.68l-.015.012a2.006 2.006 0 0 0-.502-.738c-.428-.404-1.073-.649-1.285-1.24c.01.822.71 1.446 1.35 1.93c.287.217.531.508.68.813a3.035 3.035 0 0 1-.016-.638c.066-.718.108-1.523-.384-2.068c-.235-.261-.499-.464-.812-.544c.608.418.575 1.167.762 1.793zM21.225 24.34c-.736-.305-1.485-.711-2.324-.711c-.305 0-.607.052-.901.14a3.103 3.103 0 0 0-.901-.14c-.839 0-1.588.406-2.324.711c-.666.276-1.549.222-2.139-.185c.292.366.682.592 1.086.745c.749.299 1.624.07 2.262-.338c.459-.294.853-.71 1.4-.71c.098 0 .197.015.295.036c-.769.307-1.469.845-2.015 1.366c.1.115.23.222.352.32c.608-.628 1.297-1.304 1.983-1.585c.687.281 1.376.957 1.983 1.585c.122-.099.252-.206.352-.32c-.545-.521-1.246-1.058-2.015-1.366c.099-.021.197-.036.295-.036c.547 0 .941.416 1.4.71c.638.408 1.512.637 2.262.338c.403-.153.794-.378 1.086-.745c-.587.407-1.471.461-2.137.185z"/><path d="M24.702 13.748c-.184-.382-.218-.819-.452-1.189c-.4-.632-1.06-.877-1.676-1.117c.452.397.754.907 1.101 1.366c.29.383.686.62 1.027.94zm-12.136.565l-.069-.037a6.1 6.1 0 0 0-.631 2.706c0 .594.085 1.174.247 1.729l.145-.036a6.032 6.032 0 0 1-.242-1.618h1.106c.007.463.078.916.209 1.348l.143-.036a4.75 4.75 0 0 1-.205-1.312h1.002c.003.148.021.293.04.438a.783.783 0 0 0-.141.031l-.031.101c-.068.013-.111.126-.111.126c-.056.019-.099.088-.08.107c.018.019-.031.025-.031.025v.138l-.031.044l.006.151c.037 0 .031.069.031.069c-.062.006-.05.088-.05.088l-.13.044l-.025.038l-.161-.006l-.039.04c-.013-.04-.032-.078-.044-.119l-.143.036c.004.015.011.029.016.043h-.185l-.012-.031l-.062-.013l-.006-.069l-.093.006l-.019.038l-.099.006c.006.063-.099.157-.111.132c-.013-.025-.081-.094-.05-.107c.031-.013.111-.025.111-.025v-.044l-.229-.006l-.025.038l-.093.006v.101l-.043.013c-.031.019.006.088.006.088c.043.044-.006.113-.006.113c-.037.038.031.107.031.107c.05.012-.031.05-.031.05c.012.063.049.082.049.082c-.037.063.025.094.025.094l.006.107l.043.025v.069l.025.044h.099l-.006-.157c-.087-.101.074-.126.081-.088c.006.038.074.057.074.057c.012.094.118.151.148.057c.031-.094.056-.038.074.006a.876.876 0 0 0 .136.151h.093l.012.088c.105-.006.136.006.179.151a.273.273 0 0 0 .161.182l.087-.006c0-.075.087.013.087.05c0 .038.167.182.167.182l.167.038l.048.039c.099.124.199.246.311.361l-.782.782a5.94 5.94 0 0 1-1.458-2.487l-.145.036c.285.976.811 1.87 1.55 2.609c.5.5 1.072.903 1.692 1.2l.073-.13a6 6 0 0 1-1.608-1.123l.782-.782c.406.394.87.709 1.371.938l.073-.129a4.722 4.722 0 0 1-1.339-.913l.138-.138c.009.015.021.021.024.046c.012.094.056.075.056.075l.353-.006l.124-.107l.316-.006c.161-.006.062-.226.031-.226c-.021-.017-.021-.054-.016-.093c.253.195.519.368.809.492l.073-.129a3.595 3.595 0 0 1-1.055-.688l-.037-.034l.779-.779c.251.237.544.416.861.529l.074-.131a2.323 2.323 0 0 1-.83-.503l.709-.71c.216.193.485.303.773.327l-.001.008s-.023.057.005.066c.028.009.018.014.032.028l-.014.033c-.023-.031-.037.024-.023.038c.014.014-.032.005-.032.024s-.014.028 0 .038c.014.009-.005.014-.023.028c-.019.014.079.019.079.019s-.018-.038.005-.038l.01.002v.048c-.011-.002-.013.002-.026-.001v.044l-.05.006l.043.05l.032.004v.103l-.001.006c0 .082-.204.025-.223.006l-.006.113l-.037.006l.006.075l-.006.107l.068-.013v.044l.167.006l.032-.034v.116l-.001.006l-.111.013l-.046.024l-.004-.001l-.017-.035h-.049l-.015.02c-.15-.021-.303-.033-.445-.082l-.074.131c.091.033.185.054.28.076c-.015.013-.041.028-.037.037c.012.031-.049.063-.049.063l-.056.019l-.037.057l-.074.025l-.012.132l-.037.025v.057l-.043.012v.031l-.062.006l.037.094l.05.025c.087.012.049.119.049.119l.049.006l.025.069l.049.1c.019.075.074.057.099.05c.025-.006.049.075.049.075l.247.006s-.012.025.031.038c.024.007.12.013.205.015v.111a3.573 3.573 0 0 1-1.312-.276l-.073.129a3.71 3.71 0 0 0 1.385.295v1.002a4.705 4.705 0 0 1-1.879-.42l-.073.129a4.858 4.858 0 0 0 1.953.438v1.106a5.976 5.976 0 0 1-2.498-.577l-.073.13c.815.39 1.714.597 2.645.597a6.1 6.1 0 0 0 2.764-.657l-.07-.136c-.79.4-1.679.631-2.62.643v-1.106a4.883 4.883 0 0 0 1.302-.204l.12.037l.031.101l.05-.006l.037-.031l.148-.006l.074-.069l.08-.012l.648-.551c.294-.183.578-.386.832-.633l.78.78a6.005 6.005 0 0 1-1.483 1.06l.07.136a6.162 6.162 0 0 0 2.758-2.802l-.001-.001l-.086-.047l.086.047a6.11 6.11 0 0 0 .612-2.676c0-.802-.154-1.579-.445-2.3a6.13 6.13 0 0 0-1.351-2.037a6.127 6.127 0 0 0-2.046-1.355v.001A6.088 6.088 0 0 0 18 10.848c-.986 0-1.918.235-2.744.651l.067.129a5.95 5.95 0 0 1 2.603-.63v1.106a4.856 4.856 0 0 0-2.089.506l.067.129a4.694 4.694 0 0 1 2.022-.487v1.002a3.71 3.71 0 0 0-1.556.375l.068.129a3.569 3.569 0 0 1 1.489-.357v1.106c-.348.01-.677.093-.975.232l.068.13c.282-.131.589-.205.907-.214v1.003a1.316 1.316 0 0 0-.332.077h-.046l-.006-.069l.031-.019l-.05-.019l-.037.05l-.012.057l-.062.013v.031h-.043v.055c-.088.049-.178.094-.253.16l-.71-.71a2.31 2.31 0 0 1 .613-.415l-.068-.13a2.484 2.484 0 0 0-.648.441l-.783-.783c.275-.264.584-.478.918-.64l-.068-.129a3.737 3.737 0 0 0-.953.666l-.709-.709a4.733 4.733 0 0 1 1.197-.846l-.067-.129a4.874 4.874 0 0 0-1.233.872l-.784-.784a5.972 5.972 0 0 1 1.503-1.071l-.067-.129a6.174 6.174 0 0 0-2.759 2.777l.067.038zm2.287 2.743l.004.035l-.093.101l.012.1l-.056.019l-.012.044l-.025.132l.062.006c.031-.013.025.082 0 .094c-.025.013-.093.038-.056.063s-.099.019-.099-.019s-.074-.069-.093-.056c-.01.007-.023-.009-.033-.027a3.502 3.502 0 0 1-.046-.492h.435zm-.407 3.037h.015c.031-.107.179.006.192.044c.005.014.026.029.045.044l-.095.095c-.056-.059-.104-.123-.157-.183zm.969-.631c-.054-.056-.09-.124-.14-.183c.011-.031.027-.059.027-.059c.08-.05-.019-.132-.019-.132c.012-.076-.043-.163-.043-.163c-.111-.075-.08-.22-.08-.22v-.1c-.093-.088.037-.101.037-.101c.043-.075-.031-.132-.031-.132l-.006-.082l-.099-.013l-.012-.295l-.223-.32c-.043-.013-.012-.088-.012-.088c.056-.031-.012-.107-.012-.107l-.006-.138l.13-.013l.031-.05h.062l-.006-.163c.015-.039.04-.048.062-.048h.008c.018.003.035.01.035.01l.087.006l.009-.016h.295l.025.161l-.08.069c-.068.038-.068.126.006.144c.049.006.031.126-.043.044c-.111 0 .062.101.012.075c.111.057.087-.05.087-.05l.057-.045a2.469 2.469 0 0 0 .628 1.226l-.786.783zm-.218-2.566c-.074-.044-.037-.207-.037-.207c.118-.176.254-.075.254-.075l.087-.006c.03.02.045.045.053.071c-.006.045-.014.089-.017.135a.434.434 0 0 1-.024.045c-.007.01-.006.031-.008.049h-.24l.001-.005l-.069-.007zm1.374.252l.025-.038l.01-.054h.07c.002.037.019.069.024.105l-.005.024l-.043.013l-.012-.025l-.018.069h-.111l-.006-.075l.066-.019zm-.269 1.428a2.308 2.308 0 0 1-.491-.796a2.29 2.29 0 0 1-.103-.403c.052.02.108.102.108.117c0 .019.247.006.247.006c.068.044.093.157.093.157c.068-.088.21-.006.105.044c.099.063.099.119.099.119c.081-.025.081.038.081.057c0 .019.025-.094.025-.094c-.093-.069.124-.094.062.031l-.038.056l.062.05l.006.144c.136-.013.099-.182.099-.182l.062-.012c0-.057.043-.025.043-.025c-.034-.17.046-.227.082-.244c.049.092.096.186.167.265l-.709.71zm.636-1.099c.008-.038.01-.072.01-.072c-.056-.025-.025-.113.037-.038c.062.075-.037-.151-.037-.151l-.049-.044l-.042-.004c-.01-.063-.037-.122-.037-.187c0-.03.015-.056.017-.085c.012-.003.025-.001.025-.001l.037.031l.056.044l.006.038l-.037.019l-.006.05l.019.069h.049c.019-.101.149-.101.186-.038l.037-.088c-.087-.044-.002-.113.023-.082s.082-.082.082-.082s.043.057 0-.019c-.043-.075.031-.113.031-.113c-.012-.075.08-.063.08-.063l.006-.1l-.087-.006c-.018.088-.093.013-.056-.006s.074-.057.074-.057v-.063l.037-.013l.006-.063h.093l.08-.038l.019-.031l.087-.006l.124-.113l-.012-.05c-.074 0 0-.057 0-.057l.012-.094h-.068l-.01-.112c.085-.02.168-.05.258-.05l.012.151l-.068-.023h-.043l-.018-.038l-.037-.006v.138l.037.031l.031.031l.062.006l.012.075l.155.006l.019.031l.093.006l.179.182l-.012.057l-.031.019c.012.044-.08.019-.08.019v.038l.043.006l.043.025l.062-.107c.068-.044.099.019.105.057c.006.038-.031.031-.031.031v.088l.037.013c.062.075-.025.119-.025.119l-.019.063c-.019.057-.087.044-.087.044l-.025.038l-.074.019l.147.019c.014-.05.051-.063.07-.038c.019.025.019.069.019.069l.037.006l-.006.069l.037.013v.201l.043.05c.074-.031.074.019.037.044c-.037.025-.012.138-.012.138l-.031.031v.05l-.038.027v.069c-.062-.031-.136-.019-.155 0c-.056-.038-.173-.025-.173.006c.037.05-.043.063-.043.063l-.043.05c.031.063-.031.069-.031.069v.119l-.074.069l.004.093c-.04.004-.074.023-.115.023c-.289 0-.556-.114-.771-.303c.001-.001.003 0 .004-.002a.123.123 0 0 1 .08-.057l.019-.044l.167.006c.012-.069.093-.044.093-.013s.062.006.062.006l.043-.069h.068l.006-.075l.031-.019v-.113c.099-.031.087-.126.087-.126l.025-.031l-.012-.044c-.05-.019-.025-.063.006-.05c.031.013-.043-.057-.043-.057c-.037.031-.068-.038-.068-.038h-.093v-.088l-.012-.082l-.093-.044l-.068.063l-.012.088v.056l-.062.013l-.012.169l-.049.019l.006.063l-.068.019l-.068.019l-.012.082l-.049.031l-.025.075l-.029.171a1.038 1.038 0 0 1-.214-.309zm3.289-3.281a.147.147 0 0 0 .029.023c.029.024.06.046.089.071v.038c.045-.011.109.045.117.088l-.764.764a2.498 2.498 0 0 0-.743-.484a2.478 2.478 0 0 0-.881-.189v-1.106c.448.009.882.1 1.285.265c.313.129.6.316.868.53zm.688-.025c.088.05.159.16.148.182c-.012.025.074.019.074.019c.012-.113.118-.075.124-.038c.006.038.025.119.025.119l.031.056l.043.044l.068-.006l.019.038l.08.013s.068.075.074.094c.006.019.099.013.124.019c.025.006.062.025.068.057c.006.031.043.082.043.082s.074.019.08.044a.537.537 0 0 0 .037.082l.062.05l.006.057l.068.006l.019.075l.111-.006l.062-.044c.016-.009.026-.019.04-.028c.023.052.057.098.077.15c.209.526.323 1.09.332 1.672h-1.002a3.62 3.62 0 0 0-.054-.501c.01-.035.018-.069.006-.081c-.018-.019.019-.107.019-.107s.025-.05 0-.101c-.025-.05.006-.107.025-.132l-.049-.025l-.049-.006l-.051.009l-.031-.106l.008-.016l.031.006v-.038l-.057-.016c-.005-.015-.008-.031-.014-.047l-.01-.157l-.043-.031l.012-.05l-.049-.019l.025-.082l-.043-.088h-.083c-.027-.053-.051-.108-.081-.16c0-.009.003-.02.034-.029a.166.166 0 0 1 .049-.01l-.006-.065l-.056-.038l-.019-.075s-.068.013-.062.05c.001.007-.014.008-.019.013c-.039-.063-.09-.118-.133-.179c.003-.01.004-.02.009-.029c.025-.044.012-.069-.031-.082c-.043-.013-.043-.013-.056-.063c-.012-.05-.062-.063-.062-.063l-.019-.075l-.058.036c-.023-.027-.041-.057-.065-.083l.025-.079c-.026-.005-.033-.022-.04-.038l.184-.18zm-.2.496l-.005.007c0 .058.023.055.049.049l.052.067c.004.026.017.045.041.053c.1.133.191.269.27.413c-.007.008-.01.015-.01.015l-.099.013v.1l-.05.019l.006.063l.068-.006s0 .075.019.044s.173.006.161.082c-.005.031.155.113.136.213c.017.003.016.014.026.022c.03.087.054.176.077.266l-.004.008l.009.01c.022.085.045.169.06.256c-.006.063-.02.123-.051.142c-.074.044.006.019.006.019l-.012.138c.019.063.049.031.068 0c.006-.01.013-.015.019-.021c.009.091.027.179.029.271h-.748l.013-.017l.031-.088l.105-.031l.012-.082l-.056-.006s.062-.113.093-.113s.235 0 .254-.013c.019-.013.056-.113.056-.132s.05-.025.068-.031c.019-.006.062-.056.074-.082c.012-.025-.031-.182-.056-.157c-.025.025-.08.038-.08.038l-.019.069l-.031.025s.006.019 0 .063s-.062.069-.062.069l-.025.031s-.149.008-.167 0c-.056-.025-.018-.1.019-.094c.037.006-.006-.107-.006-.107l.05-.006s.006-.113.025-.113c.019 0-.006-.038-.031-.056c-.025-.019-.056-.082-.081-.075c-.025.006-.124 0-.124 0l-.019.038l-.068.013s.006.049-.006.063c-.037.044-.179.138-.118-.019l.018-.038v-.057l-.111-.006s-.056-.019-.056-.044s-.006-.056-.006-.056l-.13-.144l-.155-.019l-.012-.031l-.093-.013c-.012-.006-.02.001-.032-.003c-.041-.066-.095-.123-.143-.186l-.011-.044c-.005-.022-.07-.105-.107-.11c-.017-.019-.028-.041-.046-.059l.768-.768c.021.021.028.034.06.057c.005.003.008 0 .013.002c.029.026.05.059.075.089zm.56 3.763a3.568 3.568 0 0 1-.687 1.024c-.012-.127-.039-.266-.039-.266l-.05-.025l.012-.151h-.068l-.111.145l-.012.04l-.063-.063l.032-.033l-.006-.075l.043-.038v-.063l.037-.013l.006-.138l.031-.006v-.301l-.093-.088c-.006.031-.105.031-.105.031s-.025.044-.043.044s.025.057.012.094c-.012.038-.062.038-.062.038l-.093.025l-.025.031h-.099l-.01-.066l.016-.02l.093-.026l.062-.031l.031-.063c.006-.063.08-.056.08-.056s.142-.119.148-.176c.006-.057.056-.214.142-.214h.161c.062-.025.043-.107.043-.107l.08-.013l.012.044s.111.013.124-.006c.012-.019.037-.063.068-.044c.031.019.13-.044.13-.044c.006-.044.161-.025.161-.025l.019-.056s-.105-.144-.124-.144c-.019 0-.118-.088-.13-.057c-.099-.025-.093-.163-.093-.163l-.037-.088c0-.05-.093-.157-.111-.144c-.039-.029-.046-.059-.044-.086h.865a3.507 3.507 0 0 1-.303 1.373zm-2.799-.171l.031.013l-.056.044l-.049.057l-.062-.019l-.074-.006l-.025-.044l-.043-.006l-.006.088l-.031.038l-.074.076c.078 0 .026.042-.012.06v-.251c.076-.004.144-.033.217-.049l.03.026h.056l.005-.047c.031-.009.064-.01.094-.021c-.006.017-.001.041-.001.041zm1.113-2.762c.008.001.018.006.026.006c.037 0 .118-.013.118-.013l.053.012c.03.036.058.074.085.111l-.064-.01l-.049-.006l-.093-.006c-.093.063-.111.138-.111.138c-.045.085-.14-.013-.126-.07l.161-.162zm-.203 3.522l.161.082c.019.025.099.019.099.019l.025.031s.05-.006.081.031c.031.038.192.006.192.006l.043.038l.068.025l.115.004l.07.07a.657.657 0 0 1-.352.02c-.019-.019-.148-.075-.148-.075s-.099-.082-.118-.056s-.105-.031-.105-.013s-.08-.044-.08-.044l-.124-.044l.093-.019l-.02-.075zm.019-.737c.003-.007.009-.013-.001-.023c-.007-.008-.02-.007-.03-.008l-.051-.051c-.003-.039.005-.092.001-.111c-.006-.025.105-.063.087-.006c-.019.057 0 .082 0 .082c.08-.075.148.006.142.025c-.006.019.043.038.074.019s.068.057.056.094c-.012.038-.124.031-.13-.006c-.006-.038-.025-.025-.037-.006c-.011.017-.057.026-.088.014l-.023-.023zm.532-2.378c-.062 0-.074-.05-.074-.05s-.049-.019-.049.006s-.019.075 0 .1c.018.025-.025.063-.043.044c-.018-.019-.068-.075-.056-.094c.012-.019-.087-.138.012-.157c.099-.019-.006-.075.031-.088l.049-.025h.049l.022-.018c.028.039.062.074.088.114c-.003.014-.02.019-.017.036c.019.095.049.132-.012.132zm-1.472 2.161c-.035.015-.076.014-.113.026v-.12l.062-.069c.066-.023.055.116.051.163zm-.39 2.358c.032-.035.153-.039.21.003c.068.05.161.019.161.019l.052.063c-.141.02-.277.053-.423.056v-.141zm.826-5.589c.253.106.488.258.693.451l-.043.043c-.017-.021-.084-.034-.084-.057c0-.025-.062-.057-.056-.019c.006.038-.043.057-.056.044c-.012-.013-.049.038-.049.038c0 .019-.012.044.025.05c.037.006.105-.025.111.013c.002.013.005.023.008.033l-.243.243c-.035.002-.068.001-.068.001c-.019.057-.105-.006-.08-.044c.025-.038.025-.063.025-.063l-.031-.006l-.037.069c-.087 0-.111.05-.093.082c.019.031-.025-.006-.037.038c-.012.044.006.044.043.063c.037.019-.019.019.006.05c.018.023.048.02.054.029l-.024.024c-.045.022-.105.016-.105.016c-.002.017-.023.018-.039.024a1.214 1.214 0 0 0-.196-.123l-.006-.008h-.007c-.031-.017-.058-.043-.09-.057c.019-.013.045-.021.059-.062a.98.98 0 0 0 .037-.182s-.099-.006-.105.025c-.006.031-.068.05-.068.05s-.05.019-.031.044c.019.025-.037.038-.037.038s.005.029-.004.048c-.098-.029-.195-.062-.299-.068v-1.003c.288.006.567.067.827.176zm-.765 4.066l.142-.031c.012-.063.074.013.074.013c.062-.006.074.038.074.038l.081.013c.068.019.027.026.031.05c.006.038.037.025.037.025l.012-.082l.037.006l-.037-.044l-.068-.031l-.074-.031c-.049-.069.012-.057.062-.05h.08s.093.125.093.157c0 .031.043.038.043.038l.056-.006l.019.044h.056l.019.038h.111l.006-.057l-.105-.019l-.006-.063l-.074-.019c-.025-.107.018-.138.049-.088l.037.006l-.012-.094l.043-.013l-.012-.132l-.037-.012v-.046l.155.006c-.012-.082.006-.119.006-.119h.043l.006.031l.189.018l.009.001c.074.044.037.101.012.113c-.025.013-.068.013-.068.013l-.012.025l-.161.012l-.012.063c-.08-.013-.111.075-.093.119c.019.044 0 .082 0 .082l.068.031l.087-.025c.012-.063.068-.076.118-.113c.045-.034.106.048.1.102c-.1.07-.19.153-.3.207c-.164.08-.341.135-.524.175h-.001l-.068-.019l-.006-.094c-.012-.063-.13-.063-.124-.019c.006.044-.221.019-.222.019v-.173l.061-.065zm-.062 1.812c.172-.003.336-.04.503-.066l.022.049l.105.031l.074.019l.025.107l.056.006l.019.069c.068.05-.019.157-.019.157v.138l.05.025l-.006.05l.081.081l.093.006l.151.161c-.369.1-.754.159-1.153.166v-.999zm2.469.245v-.047c.111-.082.118-.226.012-.239c-.08-.01-.043-.094.031-.107l.043-.019v-.057l.142-.132v-.101l-.309-.258c-.068-.025-.068-.112-.04-.193c.053-.046.111-.085.163-.134l.435.435c-.017.033-.032.065-.025.086l.056.025l.006.107c.042.043.134.04.209.027l.026.026c-.227.223-.482.41-.749.581zm.853-.684l-.027-.027l-.009-.159l-.031-.031l-.006-.157c.025-.082-.118-.201-.13-.176c-.012.025-.093.006-.093.031s-.049.151-.025.195v.004l-.386-.386a3.721 3.721 0 0 0 1.04-2.511h1.001a4.692 4.692 0 0 1-.444 1.927a4.76 4.76 0 0 1-.89 1.29zm1.992-.689a6.023 6.023 0 0 1-1.106 1.575l-.78-.78a4.85 4.85 0 0 0 1.376-3.324h1.106a5.942 5.942 0 0 1-.596 2.529zm.164-4.844c.275.681.424 1.413.433 2.168h-1.106a4.857 4.857 0 0 0-.344-1.73c-.029-.072-.074-.135-.106-.206c.007-.034.021-.101.076-.084c.062.019.019-.138.019-.138s-.087-.063-.081-.094c.006-.031-.087-.094-.08-.119c.006-.025-.08-.075-.074-.1c.006-.025-.043-.094-.043-.094l-.093-.088l-.012-.057l-.074-.006l-.148-.182l.006-.05l-.043-.006v-.069l-.043-.025l-.068-.006l-.139-.154l-.012-.069h-.068l.01-.107l.723-.723a5.99 5.99 0 0 1 1.267 1.939zm-5.478-2.636v-1.106a5.992 5.992 0 0 1 2.164.431v-.001a5.975 5.975 0 0 1 1.942 1.269l-.659.659c-.024.006-.05.013-.068.005c-.043-.019.018-.063.018-.063v-.05l-.037-.038s-.105.013-.111-.006c-.006-.019-.025-.101-.025-.101l-.006-.107l-.043-.019l-.006-.038l-.068.006v-.075l-.037-.013l-.038-.017l-.006-.075l-.136-.006l-.043-.063l-.049-.075l-.155-.013l-.037-.038l-.062-.013l-.043-.019l-.019.031l-.118.006l-.006.038c-.045.023-.184.016-.262.018c-.111-.055-.215-.126-.33-.172l-.054.138c.101.041.193.104.291.152c-.005.008-.008.022-.016.022c-.031 0-.019.082-.019.082s.081 0 .105.006c.025.006.025.069.025.069c.093-.006.13.119.118.151c-.012.031.037.031.037.031s0 .1-.012.126c-.012.025.081.044.105.082c.025.038-.012.163-.031.17c-.019.006.049.025.043.057c-.006.031.019 0 .025.05l.019.157l.087.006c.012-.082.172-.085.198-.075c.105.038.186.201.186.239s-.068.044-.068.044l.003.041l-.221.221c-.02-.012-.042-.024-.054-.017c-.031.019-.019-.132-.019-.132s.056-.038.081-.019s-.21-.314-.26-.283c-.049.031-.161-.031-.155-.088c.006-.056-.223-.245-.223-.245s-.074-.05-.087-.012c-.012.038-.037.063 0 .082c.037.019.031-.031.074.013s.124.1.093.138a.163.163 0 0 1-.068.05l.043.05h.068l.012.107s.074.038.093.082c.015.036.01.056 0 .078a3.669 3.669 0 0 0-.429-.285c.003-.016.011-.032.008-.044c-.012-.044.05-.063.08-.013l.062-.006l.012-.057l-.086-.071h-.068s-.006.05-.049.031c-.043-.019-.019-.013-.056-.019c-.037-.006-.025.082-.019.107l-.002.007c-.098-.051-.191-.112-.293-.153a3.72 3.72 0 0 0-1.339-.276v-.557c.035-.001.058-.01.062-.026c.006-.025.012-.031.049-.038c.037-.006-.006-.082-.043-.075c-.032.005-.056-.014-.068-.037v-.268a4.72 4.72 0 0 1 1.705.345l.054-.138a4.859 4.859 0 0 0-1.759-.355zm-1.166 3.89l-.059-.002c-.025.057-.087-.006-.087-.006c-.012-.038-.099 0-.099 0c0 .069-.118-.031-.118-.031l-.217-.157c-.124-.113-.309.031-.315.063c.003.044-.032.048-.068.042c.097-.184.21-.359.356-.514l.607.605zm-.71-.709a2.485 2.485 0 0 0-.4.585c-.029-.001-.061 0-.069.022c-.018.05-.099.038-.099.038l-.012.025l-.062.013l-.012.038l-.074.013l.186-.006c.05-.006-.019.107-.049.1l-.087.006l-.031.031h-.08l-.039.05l-.117-.006s-.068.057-.062.075c.006.019-.012.075-.031.075s-.056.057-.043.075c.012.019-.037.082-.037.082l-.012.063l-.037.013v.17l-.074.05v.075l-.034.037h-.503a3.57 3.57 0 0 1 .997-2.406l.781.782zm-.886-.886a3.723 3.723 0 0 0-1.041 2.509h-1.002a4.693 4.693 0 0 1 1.333-3.218l.71.709zm-1.596-1.597l.784.784a4.902 4.902 0 0 0-.899 1.286a4.829 4.829 0 0 0-.479 2.036h-1.106a5.958 5.958 0 0 1 1.7-4.106z"/><path d="M13.106 19.923l.068.063l.025-.044l-.044-.094l-.043-.032l-.031-.088l-.093-.043l.044.113l.024.056zm4.702-3.956zm-2.549 1.714c.006.069.056-.044.056-.044v-.427l-.111-.013l.006.044h.031c.049.088.006.301.006.301s-.074.006-.087-.031c-.012-.038-.043.082-.019.101c.025.019.112 0 .118.069z"/><path d="M15.203 17.719v.151l.099.132l.037-.088l.013-.057l-.044-.019l.007-.094l.037-.006l.006-.044l-.093.063zm1.955-.276l.013-.063l.037-.019l.006-.063l.025-.044l.037-.044l.013-.05l.061-.037l.075-.013l.031-.038l.012-.075l.005-.056l.026-.038l.074-.032v-.119h-.037l-.006-.044l-.068-.006l-.013.031h-.03l-.007.05h.037l.007.038l-.025.025l-.012.032l-.05.012l-.111.107l-.007.05l-.03.044l-.037.094l-.131.006l-.024.114l.018.094zm.489.408l-.056.006l.006.088l.037.031l.068.019s.093-.025.099-.1l-.142-.006l-.012-.038zm.489-.358c.013.055.012-.088.037-.082c.025.006.006-.088.006-.088l-.111.081c.056.008.062.064.068.089zm.439-.126c-.093-.063-.087-.144-.111-.201c-.011-.024-.037-.044-.056.006v.082s.087.138.117.157c.032.019.082-.022.05-.044zm2.785.189c-.025-.075-.175-.011-.148.025c.037.05.099.025.124.031c.024.007.049.019.024-.056zm.198-2.091c0 .019.013.113.013.113s.043.019.049.044c.006.025 0 .075.019.082c.018.006.056.031.043.056c-.012.025-.012.075-.012.075l.025.057l.049.031s.019-.151-.012-.157c-.031-.006-.018-.094-.018-.094s.031-.119-.019-.119s-.012-.063-.043-.082c-.031-.019-.012-.107-.025-.132c-.012-.025-.012-.057-.043-.075c-.031-.019.006.069-.012.082c-.019.013-.031.038-.05.057c-.02.018.036.043.036.062zm-.266-.591c.018.025.056.044.056.069c0 .025-.012.044.025.05c.037.006.062-.006.074.025a.22.22 0 0 1 .006.107c-.006.025.006.063.037.063s.037.006.037.025c0 .019.037-.069.037-.069a.265.265 0 0 1-.056-.082s-.031-.088-.031-.1c0-.013-.043-.025-.062-.031c-.019-.006-.05-.063-.05-.063l-.073.006zm-.068-.138c.025 0 .043.013.068.025a.176.176 0 0 1 .062.057l.062-.019s.006-.063-.019-.044c-.025.019-.043-.044-.068-.038c-.025.006-.037-.025-.062-.056s-.019-.038-.05-.057c-.031-.019-.05-.019-.05.006s.031.038.019.069a.041.041 0 0 0 .038.057zm-.706.434s.019.031.037.05c.019.019.062.057.019.082s.006.019.006.019s-.006.132-.062.113c-.056-.019-.074.069-.074.094s.22.035.186 0c-.019-.019.025-.063.025-.063s.149.013.18.013s.056-.006.037-.038c-.019-.031-.074-.025-.074-.025s-.074.019-.142-.019s.012-.05.025-.05s.068-.044.043-.075c-.025-.031 0-.088 0-.063c0 .025.068.038.081.019c.012-.019 0-.075-.031-.094c-.031-.019.056-.031.031-.063c-.027-.032-.039-.07-.039-.07s-.037.05-.111.025c0 0-.012.119-.049.144h-.088zm.805-.048v.004s.004-.003 0-.004zm-2.234.374c0 .019.043.038.068.038s.093-.05.093-.05s.031-.088.006-.082c-.025.006-.074.044-.08.006c-.006-.038-.08-.019-.08-.019l-.099.013l-.006.044l.068.006c-.001 0 .03.026.03.044zm.532-2.091c-.031 0-.087-.038-.074-.063c.012-.025-.105-.05-.105-.05s-.105-.101-.068-.088c.037.013.019-.044.019-.044s-.074.013-.093.006c-.019-.006-.012-.063-.012-.063s-.074-.019-.074 0s.025.019.037.056c.012.038.006.101.062.113c.056.013.068.025.074.05c.006.025.074.031.074.031l.05.025l.148.126v-.05c-.001.001-.007-.049-.038-.049zm-.65-.804c.002.002.006-.005.008-.005c-.021-.01-.034-.015-.008.005zm.192 0l-.043-.031s-.068-.006-.068-.025c0-.017-.045.054-.072.052c.03.015.078.042.078.042c.049 0 .08.038.08.057s.068.013.068.013l.006-.044l-.049-.064zm1.77-.018s.116.137.111.069c-.012-.188-.099-.195-.13-.232c-.031-.038-.164.007-.155.057c.006.031.031.063.08.075l.094.031zm-2.389-.729v-.069l-.024-.025l-.025-.088l-.08-.025l-.08.031l-.087.057l-.093.013l-.05.056l.198.019l.037.063l.142.013l.093.094c.081.025.099-.013.05-.056l-.081-.083zm.57-.308h-.111c-.006-.044-.105-.025-.111 0c-.006.025-.043.031-.043.031l-.142.013c-.012.038-.087.063-.093.038c-.014-.055-.093.069-.012.094c.08.025.161 0 .161 0l.019-.038l.309.006c.025-.025.037-.063.037-.063s.074-.025.105-.013c.031.013.006-.088-.025-.075c-.032.013-.094.007-.094.007zm-1.671 1.306c.006.019.068.025.074.006c.006-.019.031-.057-.025-.057s-.043-.031-.062-.05c-.019-.019-.147-.016-.142.006c.006.031.056.069.056.069s.093.008.099.026zm.292 5.662c.028-.005.046-.019.069-.024c.023-.005.033-.042.042-.08c.009-.038-.009-.057-.009-.057s-.023.038-.06 0s-.07.085-.084.113c.001.001.015.052.042.048z"/></g></svg>