<svg xmlns="http://www.w3.org/2000/svg" xmlns:xlink="http://www.w3.org/1999/xlink" width="36" height="36" viewBox="0 0 36 36"><path fill="#EEE" d="M36 27a4 4 0 0 1-4 4H4a4 4 0 0 1-4-4V9a4 4 0 0 1 4-4h28a4 4 0 0 1 4 4z"/><path fill="#CE1A24" d="M10.391 21.254s-.337 1.015-.253 2.029s2.452.93 2.959.846s.846-.085.507.339c-.337.421-.76 1.098-.676 1.859c.084.759-1.015.253-1.352-.509c-.338-.76-.677-.76-1.269-1.098s-1.165-1.19-1.522-1.691c-.423-.591-.677-1.014 1.606-1.775m15.217 0s.339 1.015.254 2.029c-.083 1.015-2.452.93-2.959.846s-.845-.085-.508.339c.34.421.762 1.098.678 1.859c-.085.759 1.014.253 1.352-.509c.34-.76.677-.76 1.269-1.098c.593-.338 1.164-1.19 1.522-1.691c.422-.591.676-1.014-1.608-1.775"/><path fill="#F6E4BE" d="M27.047 22.859c-.931.424-2.861.703-3.637.762c-1.025.079-1.183.338-1.183.592c0 .255 1.099.423 1.69.338c.592-.083 1.269.085.254.677c-1.015.591-2.367 1.438-3.636 1.775c-1.267.339-2.535.254-2.535.254s-1.268.085-2.537-.254c-1.268-.338-2.621-1.184-3.635-1.775c-1.015-.592-.339-.76.253-.677c.592.085 1.691-.083 1.691-.338c0-.254-.158-.513-1.184-.592c-.774-.059-2.706-.338-3.635-.762c-.392-.178-.507-.506-.507-.506s0 .17.085.676c.084.507.507.845.592 1.353c.084.506.084.761.507.845c.423.085 1.353.17 1.353.17s0 .759-.169 1.183c-.17.423.423 1.185 2.705 2.029c2.283.847 3.298.762 4.481.762c1.184 0 2.198.085 4.48-.762c2.284-.845 2.874-1.607 2.706-2.029c-.169-.424-.169-1.183-.169-1.183s.93-.085 1.352-.17c.425-.084.425-.339.508-.845c.085-.509.507-.847.592-1.353s.084-.676.084-.676s-.115.329-.506.506"/><path fill="#BCAD96" d="M14.28 27.342c.938.313 4.833 1.13 7.185.085c.762-.341 1.015.674.339.93c-.531.198-2.621.506-3.551.506s-3.482-.295-4.227-.591c-.423-.171-.253-1.101.254-.93"/><path fill="#666" d="M12.589 10.517H23.41v1.521H12.589z"/><path fill="#CE1A24" d="M18 11.531h-5.411v6.425c0 3.214 2.029 4.482 3.043 5.242c1.015.761 3.72.761 4.734 0c1.015-.76 3.044-2.027 3.044-5.242v-6.425z"/><path fill="#1353B4" d="M12.723 19.31c.468 2.239 2.052 3.246 2.909 3.889c1.015.761 2.368 1.27 2.368 1.27s1.353-.509 2.366-1.27c.86-.642 2.442-1.649 2.911-3.889zm-.134-7.779H23.41v3.974H12.589z"/><path fill="#EACE23" d="M14.788 12.969s.084-.169 0-.423c-.076-.227-.423-.423-.423-.423s-.347.196-.422.423a.58.58 0 0 0 0 .423c-.423-.169-.592.254-.592.507c0 .254.339.422.339.422s0-.338.168-.338c.169 0 .169.338.169.338c-.338 0 0 .254 0 .254l-.253.422l.338-.085c-.084.254.254.507.254.507s.339-.253.253-.507l.339.085l-.253-.422s.338-.254 0-.254c0 0 0-.338.168-.338c.169 0 .169.338.169.338s.338-.168.338-.422c-.001-.253-.17-.677-.592-.507m7.271 0s.084-.169 0-.423c-.075-.227-.423-.423-.423-.423s-.347.196-.423.423a.58.58 0 0 0 0 .423c-.423-.169-.592.254-.592.507c0 .254.338.422.338.422s0-.338.169-.338s.169.338.169.338c-.338 0 0 .254 0 .254l-.253.422l.337-.085c-.084.254.255.507.255.507s.338-.253.253-.507l.339.085l-.254-.422s.338-.254 0-.254c0 0 0-.338.169-.338s.169.338.169.338s.339-.168.339-.422c-.001-.253-.171-.677-.592-.507m-3.636 0s.084-.169 0-.423c-.076-.227-.423-.423-.423-.423s-.347.196-.423.423a.6.6 0 0 0 0 .423c-.423-.169-.592.254-.592.507c0 .254.338.422.338.422s0-.338.169-.338s.169.338.169.338c-.338 0 0 .254 0 .254l-.253.422l.338-.085c-.084.255.254.509.254.509s.338-.253.253-.507l.338.085l-.253-.422s.338-.254 0-.254c0 0 0-.338.169-.338s.169.338.169.338s.338-.168.338-.422c.001-.255-.168-.679-.591-.509"/><path fill="#FFF" d="m18.93 17.45l.423-.593l-1.184.339l.338-1.1l-.507.339l-.507-.339l.338 1.1l-1.184-.339l.423.593l-.423.506l1.184-.422l-.423 1.183l.592-.338l.592.338l-.423-1.183l1.184.422z"/><path fill="#EACE23" d="M18.93 22.015s-.254 0-.254.254c0 .255.254.338.254.338s-.17.253-.423.253c-.254 0-.338-.253-.338-.253s.338-.083.338-.253s-.254-.254-.254-.254s0-.423-.253-.423s-.253.423-.253.423s-.254.084-.254.254s.338.253.338.253s-.085.253-.338.253s-.422-.253-.422-.253s.253-.083.253-.338c0-.254-.253-.254-.253-.254c0-.338-.338-.17-.338-.17l.253 1.776h2.029l.253-1.776s-.338-.168-.338.17m-1.945-2.2s-.253 0-.253.256c0 .253.253.338.253.338s-.168.253-.422.253c-.253 0-.338-.253-.338-.253s.338-.085.338-.253c0-.171-.253-.256-.253-.256s0-.421-.254-.421c-.253 0-.253.421-.253.421s-.254.085-.254.256c0 .168.338.253.338.253s-.084.253-.338.253c-.253 0-.423-.253-.423-.253s.254-.085.254-.338c0-.256-.254-.256-.254-.256c0-.336-.337-.168-.337-.168l.253 1.776h2.03l.253-1.776c-.001 0-.34-.168-.34.168m3.889 0s-.253 0-.253.256c0 .253.253.338.253.338s-.168.253-.423.253c-.253 0-.338-.253-.338-.253s.338-.085.338-.253c0-.171-.253-.256-.253-.256s0-.421-.254-.421c-.253 0-.253.421-.253.421s-.255.085-.255.256c0 .168.339.253.339.253s-.084.253-.339.253c-.253 0-.422-.253-.422-.253s.253-.085.253-.338c0-.256-.253-.256-.253-.256c0-.336-.338-.168-.338-.168l.254 1.776h2.029l.254-1.776s-.339-.168-.339.168M24.51 7.474l-.17.507l-.337-.085l.084-.507l-.845-.169l-.093.536l-.331-.092l.001-.613l-.846-.084l-.071.528l-.605-.106v.338h-.169v-.423h-.422v.339h-.255V7.22h-.422v.338l-.338-.084v-.762l-.846-.084v.507h-.423v-.507h-.846v.507h-.423v-.507l-.843.084v.761l-.339.084V7.22h-.422v.423h-.253v-.339h-.423v.423h-.168v-.338l-.606.106l-.071-.528l-.847.083v.613l-.331.092l-.092-.535l-.846.169l.084.507l-.338.085l-.168-.507l-.845.253l.423 1.099l.253-.084l1.268 2.79s1.438-.422 2.79-.592S18 10.771 18 10.771s1.268 0 2.621.169s2.789.592 2.789.592l1.268-2.79l.254.084l.422-1.099z"/><path fill="#5E520D" d="M18 7.981a.337.337 0 0 0-.338.337v.846h.677v-.846A.34.34 0 0 0 18 7.981m-5.122.526a.337.337 0 0 0-.242.413l.213.818l.654-.17l-.213-.818a.337.337 0 0 0-.412-.243m10.243 0a.34.34 0 0 1 .243.413l-.214.817l-.654-.17l.213-.818a.337.337 0 0 1 .412-.242"/></svg>