<svg xmlns="http://www.w3.org/2000/svg" xmlns:xlink="http://www.w3.org/1999/xlink" width="36" height="36" viewBox="0 0 36 36"><path fill="#BF0A30" d="M35.692 28.538H.308A4 4 0 0 0 4 31h28a4 4 0 0 0 3.692-2.462M0 23.811h36v2.561H0zM11.5 9.629H36v2.561H11.5zm24.192-2.167A4 4 0 0 0 32 5H11.5v2.462zM11.5 14.356H36v2.561H11.5zM0 19.083h36v2.561H0z"/><path fill="#EEE" d="M11.5 12.189H36v2.167H11.5zM0 16.917v2.166h36v-2.166H12zm11.5-9.455v2.167H36V9c0-.545-.111-1.064-.308-1.538zM0 21.644h36v2.167H0zM0 27c0 .545.111 1.064.308 1.538h35.383A4 4 0 0 0 36 27v-.629H0z"/><path fill="#002868" d="M4 5a4 4 0 0 0-4 4v7.917h12V5z"/><path fill="#FFF" d="M6.794 10.245L6 7.802l-.794 2.443H2.638l2.078 1.51l-.794 2.443L6 12.688l2.078 1.51l-.794-2.443l2.078-1.51z"/></svg>