<svg xmlns="http://www.w3.org/2000/svg" xmlns:xlink="http://www.w3.org/1999/xlink" width="36" height="36" viewBox="0 0 36 36"><path fill="#00247D" d="M32 5H4q-.308 0-.604.045l-.004 1.754l-2.73-.004A4 4 0 0 0 0 9v18a4 4 0 0 0 4 4h28a4 4 0 0 0 4-4V9a4 4 0 0 0-4-4"/><path fill="#C0E6E9" d="M26.641 13.104c-.141-.401-1.062-.745-1.469-.589c.469-.875 1.246-1.141 1.639-1.547s.408-.766.408-.766s.359.609.719 1.172s.846.875.846.875s-1.268.382-2.143.855"/><path fill="#AE7521" d="M26.826 13.019a.085.085 0 1 1-.17 0v-2.466a.085.085 0 1 1 .17 0z"/><path fill="#C7E9EB" d="M27.412 13.5c-.673 0-1.74-.031-1.834-.219s-.125-.672-.125-.672s.797.391 1.875.391s1.766-.391 1.766-.391s.008.659-.311.781c-.223.087-.605.11-1.371.11"/><path fill="#9FC2FF" d="M22.609 16.312c-.125.312-.141.719.094.891s.609-.172.609-.172s-.671-.062-.703-.719"/><path fill="#00A3D6" d="M24.141 16.844c-.297-.266-.918-.062-.918-.062s.074-.36.262-.469c-.516-.047-.789.094-.965.531c-.207-.234.09-.812.09-.812s.672-.406 1.312 0c.531-.734.615-2-.028-1.891c.169-.422 1.378-.157 1.148.57s-.604 1.008-.604 1.008s.627-.592 1.056-.327s.616 1.505-.321 1.096s-1.109-.153-1.125 0s.093.356.093.356"/><path fill="#9FC2FF" d="M26.312 16.625c-.4 1.177-1.188 1.177-1.188 1.177s.047-.406.203-.588c-.672.255-1.609-.151-1.406-1.182c.156.656.812.875 1.422.578s1.03-.163.969.015"/><path fill="#00A3D6" d="M21.922 14.891c-.114-.186.158-.516.524-.391c-.243.266-.132.531 0 .719s-.399-.125-.524-.328"/><path fill="#9FC2FF" d="M24.406 14.078c-.297-.094-.513.062-.513.062s-.159-.359-.644-.219s-.781-.033-.781-.033s.156.506.891.512c-.453.583-1.219.693-1.438.49c.125.281.562.625.719.641s.979-.47 1.156-1.031c.031-.099.125.015 0 .21c-.125.196-.234.415-.156.758c.113-.19.359-.203.484-.5s.016-.609.281-.703c.267-.093.001-.187.001-.187"/><path fill="#8DA8C3" d="M28.208 18.479c-.485 0-.521-.833-.521-.833s-.146.068-.562.419s-1.042.419-1.042.419s-.479-.526.084-1.151c-.021-.625-.729-1.271-.729-1.271l-.583-.125s1.395-1.354 2.416-1.438s1.083.375 1 1.312s.209 1.521.209 1.521s.874 1.147-.272 1.147"/><path fill="#CC1530" d="M25.641 15.532c-.109.125-.105.171.205.156c.311-.016.473.003.473.003s-.646.338-1.053.152c.062-.202.375-.311.375-.311m2.266 2.015s.421-.266.577.188c.156.453-.02.5-.229.516c-.208.015-.348-.704-.348-.704"/><path fill="#9FC2FF" d="M29.359 16.234c-.138.305-.141.969.547 1.219c.125-.5.032-.797-.547-1.219m1.485.328c.156-.156.047-.766-.422-.531s-.68.172-.801.094c.082-.141.41-.25.41-.25s-.6.047-.745-.453c.354.094.526 0 .526 0s-.195-.141-.191-.25c.27-.094.645.203.645.203s-.133-.219-.16-.734c-.027-.516.395-.695.707-.449c-.297.356.047 1.043.188 1.637c.578-.422 1.281-.328 1.312.328s-.172.5-.172.5s.25-.625-.656-.531c.391.188.203.362.203.362s-.422-.113-.844.074"/><path fill="#00A3D6" d="M28.799 14.875c-.408-.046-.252.455-.846.657c.141.062.423 0 .423 0s-.28.515 0 1.046c.249-.203.327-.547.327-.547s0 .599.312.885c.274-.353.141-.792.141-.792s.191.536.799.792c.607.255 1.014-.307 1.061-.604s-.094-.386-.094-.386s-.512.48-.967.199c.201-.188.115-.291-.334-.325s-.559-.659-.605-.737c-.047-.079-.217-.188-.217-.188m1.355-.54c.174-.46.768-.535.986-.396c.406-.22.834.217 1.175.077c-.143.328-.565.489-.784.385c.266.38.972.635 1.234.405c.263-.229.084.297-.45.472s-.909-.472-.909-.472s.109.402 0 .571c-.406-.143-.617-.568-.605-.877s-.242-.534-.647-.165"/><path fill="#9FC2FF" d="M32.315 15.278c.419-.091.732-.436.747-.568s-.213-.534-.747-.309c.466.177.378.749 0 .877"/><path fill="#00A3D6" d="M32.222 15.842c.325.439.231.908.169 1.001c-.062.094-.546.262-.734-.062c.405-.031.788-.386.565-.939"/><path fill="#D9A323" d="M27.428 14.922c-.714 0-1.786.356-1.786.356s-.037-.424-.267-.778s-.333-.854-.333-.854s.583.104.646.458s-.021.667-.021.667l.708-.188s-.188-.305-.354-.083s-.354-.604-.104-.729s.909-.271.909-.271s.05.604.091.75s-.334.151-.334.151l.062.099h.625s-.208-.234-.208-.604c0-.405.438-.792.438-.792s.391.523.391.833s-.233.563-.233.563l.55.104s.208-.417 0-.312s-.209-.125-.125-.396s.021-.521.021-.521l.854.396s.062.091 0 .42c-.062.33-.438.299-.438.299v.197l.562.146s-.167-.388 0-.642s.729-.42.729-.42s-.459.827-.729 1.507a4 4 0 0 0-1.654-.356"/><path fill="#FFF" d="M27.437 18h-2.663v3.219c0 2.747 1.848 3.181 2.644 3.401v.005l.01-.003l.009.003v-.005c.796-.221 2.644-.654 2.644-3.401V18z"/><path fill="#179AF9" d="M27.418 18h-2.644v3.141h5.306V18z"/><path fill="#179AF9" d="M27.428 22.984s-.193-.984-1.053-1.844h2s-.77.782-.947 1.844"/><path fill="#FFF" d="M27.428 19.297s-.193.984-1.053 1.844h2s-.77-.782-.947-1.844m-.24 0c-.059.173-.406.5-.656.578s-.637.375-.686.516c-.049-.157.123-.391.123-.391s-.281.031-.312.391c-.031.359-.614.375-.614.375s.114-.5.411-.797s.48-.125.662-.234s-.068-.359.135-.641c.203-.281.75-.203.938-.422c.062.172-.469.484-.547.516c-.078.031-.109.219-.016.203s.421-.063.562-.094m.479 0c.059.173.406.5.656.578s.637.375.686.516c.049-.157-.123-.391-.123-.391s.281.031.312.391c.031.359.614.375.614.375s-.114-.5-.411-.797s-.48-.125-.662-.234s.068-.359-.135-.641c-.203-.281-.75-.203-.938-.422c-.062.172.469.484.547.516c.078.031.109.219.016.203s-.421-.063-.562-.094"/><path fill="#179AF9" d="M27.188 22.969c-.059-.173-.406-.5-.656-.578s-.637-.375-.686-.516c-.049.156.123.391.123.391s-.281-.031-.312-.391c-.031-.359-.614-.375-.614-.375s.114.5.411.797s.48.125.662.234s-.068.359.135.641c.203.281.75.203.938.422c.062-.172-.469-.484-.547-.516c-.078-.031-.109-.219-.016-.203s.421.063.562.094m.479 0c.059-.173.406-.5.656-.578s.637-.375.686-.516c.049.156-.123.391-.123.391s.281-.031.312-.391c.031-.359.614-.375.614-.375s-.114.5-.411.797s-.48.125-.662.234s.068.359-.135.641c-.203.281-.75.203-.938.422c-.062-.172.469-.484.547-.516c.078-.031.109-.219.016-.203s-.421.063-.562.094"/><path d="M25.656 16.031c.453.188.844-.062 1.25-.391c.406-.328.846-.156.971-.109s-.143.043-.604.311c-.461.267-.68.351-.695.645c-.016.294-.141.128-.203 0s-.078.216 0 .56s-.057.755-.057.755s-.117-1.078-.662-1.771"/><path fill="#D8AB6D" d="M21.234 18.594s.078-.234.391-.406s.094-.312-.109-.297s-.359.031-.578.594s-1.047 3 .297 4.312c-.391-.188-.75-.953-.75-.953s.047.516.312 1.031c-.797-1.25-.703-2.578-.578-3.578s.422-1.641.875-1.672c.375-.562 1.062-.271 1.578.177s.766.87.766.87s.068-.828.456-.75s.95.359 1.028.562s-.484.047-.594-.078s-.322-.266-.434-.141s-.191.688-.191.688s.277-.516.443-.469s.922.719.896.953s-.229-.125-.433-.281s-.363-.438-.463-.391s-.459.875-.49.953s.084.062.237-.149s.325-.445.419-.445s.742.891.73 1.094s-.108.391-.188.438s.036-.233-.151-.562s-.359-.673-.438-.626c-.078.047-.438.609-.5.75s.406-.328.578-.25s.424.967.431 1.25a.72.72 0 0 1-.25.547c-.087.078-.054-.281 0-.453s-.071-.391-.118-.656c-.047-.266-.094-.516-.141-.438s-.766.703-.828.75s.225 0 .456-.125s.356-.109.388.125c.031.234.078.969-.281 1.172s.031-.25.078-.469s.016-.688-.078-.641s-.75.531-.953.609s-.094.609.109.906s.646.594.737.328s.436-.547.631-.406c.194.141.101.406.101.406s.256 0 .229.281s-.386.562-1.261.438s-1.969-.469-1.906-2c-.328-1.344-.078-1.922-.031-2.297s.188-.927.141-.971s-.406.067-.563.27m12.436 0s-.078-.234-.391-.406s-.094-.312.109-.297s.359.031.578.594s1.047 3-.297 4.312c.391-.188.75-.953.75-.953s-.047.516-.312 1.031c.797-1.25.703-2.578.578-3.578s-.422-1.641-.875-1.672c-.375-.562-1.062-.271-1.578.177s-.766.87-.766.87s-.068-.828-.456-.75s-.95.359-1.028.562s.484.047.594-.078s.322-.266.434-.141s.191.688.191.688s-.277-.516-.443-.469s-.922.719-.895.953c.026.234.229-.125.433-.281s.363-.438.463-.391s.459.875.49.953s-.084.062-.237-.149s-.325-.445-.419-.445s-.742.891-.731 1.094s.108.391.189.438c.08.047-.036-.233.151-.562s.359-.673.438-.626c.078.047.438.609.5.75s-.406-.328-.578-.25s-.424.967-.431 1.25a.72.72 0 0 0 .25.547c.087.078.054-.281 0-.453s.071-.391.118-.656c.047-.266.094-.516.141-.438s.766.703.828.75s-.225 0-.456-.125s-.356-.109-.388.125c-.031.234-.078.969.281 1.172s-.031-.25-.078-.469s-.016-.688.078-.641s.75.531.953.609s.094.609-.109.906s-.646.594-.737.328s-.437-.547-.631-.406s-.101.406-.101.406s-.256 0-.229.281s.386.562 1.261.438s1.969-.469 1.906-2c.328-1.344.078-1.922.031-2.297s-.188-.927-.141-.971c.046-.043.406.067.562.27"/><path fill="#CC1530" d="M23.797 24.797c.128-.448 1.219-.859 1.562-.797c.344.062.969.312.609.625c-.359.312-1.125.578-1.641.688c-.515.109-.624-.188-.53-.516m7.282 0c-.128-.448-1.219-.859-1.562-.797c-.344.062-.969.312-.609.625c.359.312 1.125.578 1.641.688c.514.109.624-.188.53-.516"/><path fill="#FBFAE7" d="M31.402 24.203s-.484-.527-.953-.209s-1.824 1.443-3.021 1.443s-2.553-1.125-3.021-1.443c-.469-.318-.953.209-.953.209s.234.109.188.344s0 .641.253.725c-.294-.729.731-.365 1.149.064c.418.43 1.52.945 2.385.945s1.967-.516 2.385-.945c.418-.43 1.443-.793 1.149-.064c.253-.084.3-.49.253-.725c-.048-.235.186-.344.186-.344"/><path fill="#FBFAE7" d="M25.266 23.997c.55-.116 1.266.487 1.391.628s-.062.578-.281.406s-.362-.205-.627-.249s-.609-.395-.232-.532c-.161.188 0 .44.25.282c.249-.157.045-.428-.501-.535m4.421 0c-.55-.116-1.266.487-1.391.628s.062.578.281.406s.362-.205.627-.249s.609-.395.232-.532c.161.188 0 .44-.25.282c-.249-.157-.046-.428.501-.535"/><path fill="#00247D" d="M19 18V5H4c-.32 0-.604.045-.604.045l-.004 1.754l-2.73-.004S.62 6.854.535 7A4 4 0 0 0 0 9v9z"/><path fill="#EEE" d="M19 5h-2.331L12 8.269V5H7v2.569L3.396 5.045a3.94 3.94 0 0 0-1.672.665L6.426 9H4.69L.967 6.391a4 4 0 0 0-.305.404L3.813 9H0v5h3.885L0 16.766V18h3.332L7 15.432V18h5v-3.269L16.668 18H19v-2.029L16.185 14H19V9h-2.814L19 7.029z"/><path fill="#CF1B2B" d="M11 5H8v5H0v3h8v5h3v-5h8v-3h-8z"/><path fill="#CF1B2B" d="M19 5h-1.461L12 8.879V9h1.571L19 5.198zm-17.276.71a4 4 0 0 0-.757.681L4.69 9h1.735zM6.437 14L.734 18h1.727L7 14.822V14zM19 17.802v-1.22L15.313 14H13.57z"/></svg>