<svg xmlns="http://www.w3.org/2000/svg" xmlns:xlink="http://www.w3.org/1999/xlink" width="36" height="36" viewBox="0 0 36 36"><path fill="#E41E20" d="M32 5H4a4 4 0 0 0-4 4v18a4 4 0 0 0 4 4h28a4 4 0 0 0 4-4V9a4 4 0 0 0-4-4z"/><path fill-rule="evenodd" clip-rule="evenodd" d="M25.335 21.202a.358.358 0 0 1-.199-.105c-.161-.151-.333-.162-.522-.047a.785.785 0 0 0-.174.142a.146.146 0 0 1-.114.05l-.777.021c-.02.001-.045.013-.059-.016c.116-.112.237-.222.352-.335c.058-.058.112-.074.196-.054c.255.062.446-.019.548-.224a.4.4 0 0 1 .271-.213c.053-.014.107-.019.171-.032c-.154-.147-.319-.146-.492-.077c-.052.021-.095.03-.15.01c-.241-.092-.352-.04-.445.199c-.018.045-.035.09-.081.119c-.24.157-.479.316-.718.478a.137.137 0 0 1-.13.02c-.325-.088-.652-.17-.978-.256a46.673 46.673 0 0 1-.645-.173c.127-.126.241-.235.353-.347c.091-.091.065-.19-.059-.226c-.102-.029-.205-.05-.309-.076c-.812-.196-1.326-.708-1.574-1.498a.451.451 0 0 1-.019-.267c.019-.061.053-.108.119-.119c.062-.01.11.025.14.074c.031.05.055.105.077.159c.145.347.336.656.648.879a.357.357 0 0 0 .255.068c.078-.007.166-.016.195-.102c.028-.085-.038-.142-.101-.184c-.272-.189-.411-.46-.484-.774c-.035-.145.034-.289.162-.324c.117-.032.238.052.283.198c.055.179.103.36.168.535c.154.418.438.722.846.907a.38.38 0 0 0 .436-.095c.079-.089.079-.19-.001-.278a.486.486 0 0 0-.179-.116c-.223-.096-.429-.22-.578-.418a.929.929 0 0 1-.171-.734c.022-.138.102-.169.224-.106a.502.502 0 0 1 .145.119c.49.539.977 1.081 1.499 1.587c.269.263.604.374.979.3c.231-.045.443-.138.569-.355c.054-.093.085-.194.017-.292c-.068-.097-.173-.105-.279-.094a1.759 1.759 0 0 1-1.354-.393c-.373-.3-.651-.678-.899-1.082a.586.586 0 0 1-.096-.32c.003-.098.047-.122.134-.076a.467.467 0 0 1 .151.136c.277.345.605.629.998.836c.31.164.634.266.989.222c.261-.032.382-.118.431-.442c.033-.22-.077-.309-.287-.245c-.443.135-.863.071-1.263-.153c-.385-.217-.686-.53-.953-.874a.483.483 0 0 1-.091-.355c.011-.083.062-.119.146-.109a.358.358 0 0 1 .189.094c.31.25.638.471 1.003.631c.254.112.513.203.797.158c.265-.041.462-.272.443-.52c-.009-.144-.095-.236-.237-.254c-.083-.009-.162.005-.243.014c-.413.046-.802-.015-1.155-.248a7.241 7.241 0 0 1-.744-.584a.255.255 0 0 1-.054-.064c-.054-.082-.064-.191-.016-.226c.073-.055.137-.003.195.034c.323.203.669.347 1.041.431c.286.065.572.103.862.029a.448.448 0 0 0 .357-.378c.041-.222-.108-.375-.331-.341a.63.63 0 0 0-.203.067a1.072 1.072 0 0 1-.824.097a2.822 2.822 0 0 1-.786-.363c-.125-.077-.256-.146-.359-.253c-.083-.088-.092-.196-.033-.272c.057-.072.139-.08.255-.021c.142.072.284.142.435.196c.357.129.72.206 1.102.143a.9.9 0 0 0 .763-.736a.325.325 0 0 0-.004-.158c-.033-.12-.121-.173-.242-.145a.594.594 0 0 0-.241.138a1.308 1.308 0 0 1-1.245.269a2.212 2.212 0 0 1-.592-.274c-.095-.058-.175-.119-.209-.227c-.036-.117.013-.184.136-.183c.046 0 .092.006.139.015c.486.097.973.128 1.455-.014c.385-.113.679-.326.787-.737c.037-.138-.008-.295-.109-.363c-.093-.064-.21-.048-.336.049c-.059.046-.113.099-.17.147c-.48.401-1.052.42-1.634.392c-.151-.007-.252-.152-.237-.287c.014-.122.111-.186.273-.197c.725-.05 1.353-.332 1.893-.808c.188-.166.315-.38.37-.628a.534.534 0 0 0-.15-.516c-.119-.12-.257-.108-.361.024c-.033.042-.058.089-.088.133a2.794 2.794 0 0 1-1.854 1.24c-.085.017-.127-.004-.174-.073c-.083-.125-.159-.152-.266-.111c-.596.232-1.175.506-1.737.81c-.061.033-.083.079-.081.144a.962.962 0 0 0 .062.282c.065.2.05.395-.022.587c-.094.254-.312.39-.594.377c-.227-.01-.429-.186-.493-.435a1.014 1.014 0 0 1 .081-.747c.216-.4.532-.699.954-.874c.318-.133.658-.191.992-.268c.181-.04.363-.067.518-.181c.05-.037.094-.078.103-.156c-.141.042-.269.087-.4.12c-.179.045-.325-.025-.458-.144c.047-.012.092-.014.137-.012c.274.014.548.02.82-.037c.226-.047.438-.106.574-.312a.265.265 0 0 0 .049-.148c-.001-.125-.085-.175-.194-.111a.723.723 0 0 0-.188.182a.723.723 0 0 1-.401.242a1.735 1.735 0 0 1-.547.053a.393.393 0 0 1-.15-.035c.11-.115.22-.211.358-.269c.157-.065.253-.044.372.078c.013.013.021.041.049.031c.041-.229-.068-.383-.297-.423a1.437 1.437 0 0 0-.393.005c-.023.002-.056.026-.068-.018c-.038-.121-.146-.158-.248-.192a1.261 1.261 0 0 0-.889.044a3.942 3.942 0 0 1-.79.227c-.161.029-.323.047-.494.072c.148.143.322.237.488.364a1.742 1.742 0 0 0-.727.551l.006.032h.454l-.002.026c-.141.051-.283.097-.421.153a.983.983 0 0 0-.377.265c.078.019.147.034.216.052c.055.014.066.045.022.084c-.198.173-.363.379-.543.569c-.046.048-.069.027-.104-.009c-.177-.184-.337-.386-.531-.555c-.056-.049-.032-.079.028-.094c.065-.017.13-.031.205-.048c-.218-.247-.517-.318-.802-.417l.007-.032h.475a1.783 1.783 0 0 0-.746-.578c.166-.128.343-.22.489-.37a4.537 4.537 0 0 1-1.306-.3a1.232 1.232 0 0 0-.915-.022c-.079.03-.161.064-.192.151c-.017.047-.037.05-.082.044c-.154-.021-.31-.036-.464.013c-.186.059-.271.222-.217.415c.068-.067.128-.142.229-.153c.161-.019.459.158.528.312a1.003 1.003 0 0 1-.382.022c-.297-.024-.573-.099-.76-.359a.403.403 0 0 0-.085-.085c-.056-.043-.117-.089-.186-.039c-.067.049-.059.127-.038.198a.405.405 0 0 0 .097.148c.113.122.259.178.417.215c.304.071.612.078.922.058c.043-.003.091-.012.14.017a.552.552 0 0 1-.589.109c-.089-.033-.177-.071-.276-.088c.006.076.05.115.098.151a.898.898 0 0 0 .351.146c.247.057.492.115.739.168c.501.109.912.36 1.227.768c.207.268.301.564.25.902c-.042.284-.248.512-.498.519c-.332.009-.537-.125-.626-.423a.862.862 0 0 1-.003-.543a.906.906 0 0 0 .061-.292c-.001-.055-.019-.096-.069-.123a15.437 15.437 0 0 0-1.763-.824a.165.165 0 0 0-.175.03a.389.389 0 0 0-.103.119c-.025.047-.055.055-.107.046a2.811 2.811 0 0 1-1.943-1.322c-.132-.218-.325-.221-.466-.008a.564.564 0 0 0-.073.501c.122.381.381.648.713.85c.491.298 1.008.522 1.597.53a.21.21 0 0 1 .197.136a.218.218 0 0 1-.038.237a.301.301 0 0 1-.235.116c-.15.001-.3.002-.45-.004c-.47-.02-.896-.154-1.241-.493a.52.52 0 0 0-.179-.119c-.129-.047-.243-.001-.305.122a.354.354 0 0 0-.026.247a.928.928 0 0 0 .404.576c.233.151.494.221.766.251a3.47 3.47 0 0 0 1.099-.067c.085-.017.185-.048.248.048c.039.059-.008.194-.085.271c-.009.009-.018.018-.029.024c-.145.084-.284.182-.44.246c-.549.227-1.06.188-1.521-.213a.477.477 0 0 0-.213-.112c-.116-.026-.203.026-.236.141a.35.35 0 0 0-.005.167c.079.432.444.73.916.751c.34.016.664-.056.98-.174c.152-.057.296-.131.441-.204c.07-.035.14-.035.2.022c.061.059.066.131.036.207a.305.305 0 0 1-.118.143a4.54 4.54 0 0 1-.785.454c-.391.169-.78.214-1.166-.018a.441.441 0 0 0-.199-.05c-.191-.013-.323.135-.292.333a.453.453 0 0 0 .355.391c.171.046.346.049.521.03a3.27 3.27 0 0 0 1.398-.497c.019-.012.037-.024.057-.032c.042-.016.084-.031.124.002c.039.032.037.078.029.122a.314.314 0 0 1-.113.188c-.177.154-.359.302-.544.444c-.366.281-.774.425-1.24.381c-.084-.008-.168-.018-.252-.024c-.218-.019-.346.108-.327.326c.019.219.206.409.438.449c.174.031.343.001.508-.049c.486-.149.899-.428 1.293-.738a.439.439 0 0 1 .153-.089c.114-.033.187.015.189.135a.505.505 0 0 1-.102.334c-.21.269-.445.516-.722.718c-.335.245-.703.387-1.125.364c-.142-.008-.277-.044-.413-.08c-.116-.031-.203.014-.232.113c-.065.22.1.514.322.567c.287.071.566.02.834-.085c.507-.196.914-.531 1.255-.949a.483.483 0 0 1 .159-.143c.082-.043.126-.017.127.075a.628.628 0 0 1-.105.345a4.533 4.533 0 0 1-.757.949c-.385.355-.833.543-1.362.518c-.069-.003-.137-.017-.205-.013c-.187.008-.275.139-.215.314c.03.091.081.168.159.227c.49.376 1.071.242 1.413-.089c.526-.508 1.014-1.053 1.506-1.593a.53.53 0 0 1 .15-.125c.119-.059.196-.027.22.103a.931.931 0 0 1-.069.567c-.136.297-.39.462-.676.588a.532.532 0 0 0-.167.102c-.101.098-.103.216 0 .31c.124.112.268.152.425.079a1.57 1.57 0 0 0 .841-.91c.065-.179.113-.363.17-.545c.042-.132.164-.214.275-.185c.118.028.202.163.173.293c-.068.31-.188.59-.461.78a.358.358 0 0 0-.107.102c-.054.079-.04.147.049.182c.121.048.243.05.358-.028c.325-.222.52-.539.668-.895c.023-.054.047-.109.078-.158c.031-.05.08-.082.142-.07c.062.012.096.057.113.113a.447.447 0 0 1-.016.268c-.25.798-.768 1.311-1.59 1.505a7.296 7.296 0 0 0-.3.074c-.118.035-.142.134-.057.221c.094.097.19.19.284.287c.019.018.047.03.045.067a.553.553 0 0 1-.079.024c-.504.133-1.008.264-1.511.399a.15.15 0 0 1-.139-.023c-.204-.138-.408-.277-.616-.409a.458.458 0 0 1-.204-.241c-.059-.161-.164-.222-.324-.169a.545.545 0 0 1-.348-.013c-.142-.044-.274-.008-.389.109c.023.005.034.008.046.009c.181.016.327.083.411.262c.06.126.172.194.313.208a.604.604 0 0 0 .25-.019c.053-.017.092-.008.133.032c.123.12.251.235.376.353c.004.004.003.016.002.007c-.247 0-.494-.003-.74.001a.333.333 0 0 1-.256-.099c-.229-.214-.469-.25-.702.006c-.029.031-.063.035-.1.04a.325.325 0 0 0-.281.23c.188-.126.344-.043.5.054c.01.008.022.011.034.016c.198.081.389.086.565-.056a.098.098 0 0 1 .069-.021c.301.02.603.037.923.059c-.068.07-.143.094-.203.138a.48.48 0 0 1-.412.094c-.218-.047-.426.017-.541.227c-.116.215-.196.444-.187.695c.001.017-.006.037.014.053c.027-.053.05-.107.08-.157c.075-.127.165-.228.337-.167c.031.012.067.009.102.009c.205-.002.335-.095.375-.284a.21.21 0 0 1 .132-.164c.051-.024.1-.052.151-.075c.16-.07.328-.122.472-.227c.031-.022.058-.011.088-.001l.514.174c.03.009.054.021.071.053c.144.271.263.329.567.289a.496.496 0 0 1 .31.047c.086.046.08.138.099.223a.3.3 0 0 0-.037-.418a.979.979 0 0 1-.162-.201c-.085-.146-.232-.2-.387-.139c-.093.038-.167.023-.249-.016c-.125-.06-.244-.135-.398-.184c.102-.032.181-.059.262-.08c.445-.121.901-.199 1.342-.34c.046-.014.075.003.108.032c.119.105.237.212.359.315c.107.087.188.073.263-.041c.043-.065.085-.133.127-.198c.169-.272.309-.563.49-.83c.175-.256.369-.5.628-.675c.237-.158.457-.063.515.213c.05.242-.006.471-.104.692c-.24.546-.63.952-1.143 1.248a.793.793 0 0 1-.565.11a.638.638 0 0 0-.386.032c-.129.058-.155.153-.076.271a.55.55 0 0 0 .294.203c.329.11.632.101.888-.17c.062-.066.132-.123.202-.182a.158.158 0 0 1 .185-.017c.063.036.089.093.083.165a.216.216 0 0 1-.055.126c-.101.12-.206.235-.324.338c-.216.188-.46.31-.753.314a.394.394 0 0 0-.196.057c-.099.054-.115.138-.044.224a.433.433 0 0 0 .158.114c.293.134.566.072.829-.085c.165-.099.299-.235.433-.37c.054-.056.116-.148.201-.095c.083.051.061.158.035.241a1.45 1.45 0 0 1-.226.47a.741.741 0 0 1-.42.28c-.085.021-.173.021-.261.026c-.146.01-.201.115-.13.242a.524.524 0 0 0 .775.141c.231-.176.364-.423.486-.678c.035-.072.066-.163.165-.154c.101.009.125.102.15.182a.438.438 0 0 1 .02.148a1.059 1.059 0 0 1-.191.579a2.173 2.173 0 0 1-.387.42c-.041.034-.047.06-.017.107c.351.527.7 1.057 1.047 1.586c.03.046.046.038.07-.002c.065-.104.13-.206.198-.308c.279-.422.557-.844.839-1.265c.038-.056.035-.086-.018-.129a2.192 2.192 0 0 1-.273-.272c-.181-.212-.297-.452-.295-.738c0-.094.022-.182.079-.256c.056-.074.126-.076.189-.008c.032.036.051.079.071.121c.122.255.256.502.49.674a.531.531 0 0 0 .753-.127c.091-.141.033-.267-.132-.265c-.416.006-.668-.213-.819-.578c-.044-.105-.099-.21-.087-.331c.004-.043.006-.091.05-.114c.049-.026.093.002.126.033c.076.07.147.145.223.215c.194.184.406.332.679.372a.696.696 0 0 0 .555-.142c.126-.102.106-.22-.042-.279a.516.516 0 0 0-.164-.038c-.499-.017-.808-.332-1.094-.685a.17.17 0 0 1 .021-.238c.068-.06.155-.053.236.019c.094.082.186.167.282.246a.565.565 0 0 0 .281.138c.211.03.409-.011.603-.094a.465.465 0 0 0 .186-.151c.095-.126.065-.227-.079-.288a.665.665 0 0 0-.387-.026a.712.712 0 0 1-.53-.1c-.122-.08-.25-.154-.366-.243a2.432 2.432 0 0 1-.866-1.204c-.061-.186-.087-.38-.019-.57c.073-.206.249-.275.444-.179a.682.682 0 0 1 .183.129c.189.183.368.374.511.596c.21.325.378.675.595.997c.09.134.167.144.29.038c.113-.097.227-.194.338-.296c.038-.036.073-.049.124-.032c.315.1.639.169.961.243c.205.047.409.098.627.174c-.17.05-.297.143-.441.202a.216.216 0 0 1-.178.002c-.16-.065-.308-.024-.396.112a1.516 1.516 0 0 1-.192.238a.287.287 0 0 0-.024.394c.033-.256.157-.259.368-.266c.031-.001.061.008.093.012c.236.034.409-.058.508-.275c.02-.045.049-.065.093-.081c.146-.046.292-.091.434-.145c.082-.031.147-.036.225.021c.07.05.155.079.234.114c.121.053.243.097.356.166a.164.164 0 0 1 .089.121c.035.188.139.276.329.303a.55.55 0 0 0 .232-.017c.066-.018.107.006.15.044c.092.08.141.187.194.292c.01-.045.01-.087.01-.131c0-.16-.063-.305-.109-.453c-.092-.289-.287-.441-.586-.391c-.204.033-.352-.027-.505-.129c-.044-.029-.099-.045-.134-.103c.309-.019.604-.039.9-.059c.028-.001.054-.002.079.017c.21.172.436.145.646.019c.148-.09.285-.109.439-.039c.004.002.01-.005.019-.01a.299.299 0 0 0-.232-.187z" fill="#000"/><path fill-rule="evenodd" clip-rule="evenodd" fill="#E41E20" d="M20.308 10.618a.514.514 0 0 1 .28-.059c.09 0 .18.008.261.055c.097.055.099.133.008.198c-.124.089-.427.092-.556.005c-.089-.06-.086-.143.007-.199zm-4.732.204a.579.579 0 0 1-.531-.004c-.043-.021-.079-.056-.078-.108c.002-.054.042-.082.084-.103a.48.48 0 0 1 .221-.048c.128 0 .221.006.305.055c.102.06.105.157-.001.208z"/></svg>