<svg xmlns="http://www.w3.org/2000/svg" xmlns:xlink="http://www.w3.org/1999/xlink" width="36" height="36" viewBox="0 0 36 36"><path fill="#007FFF" d="M4 31h28a4 4 0 0 0 4-4V11.25L3.215 30.921c.254.05.516.079.785.079M32 5H4a4 4 0 0 0-4 4v15.75L32.785 5.079A4 4 0 0 0 32 5M9.63 16.02l-3.06-2.34l-3.06 2.34l1.17-3.78L1.62 9.9H5.4l1.17-3.78L7.74 9.9h3.78l-3.06 2.34z"/><path fill="#F7D618" d="M7.74 9.9L6.57 6.12L5.4 9.9H1.62l3.06 2.34l-1.17 3.78l3.06-2.34l3.06 2.34l-1.17-3.78l3.06-2.34zM3.215 30.921L36 11.25V9.9L1.873 30.376c.406.256.856.448 1.342.545m29.57-25.842L0 24.75v1.35L34.127 5.624a4 4 0 0 0-1.342-.545"/><path fill="#CE1021" d="M34.127 5.624L0 26.1v.9c0 1.425.751 2.668 1.873 3.376L36 9.9V9a3.99 3.99 0 0 0-1.873-3.376"/></svg>