<svg xmlns="http://www.w3.org/2000/svg" xmlns:xlink="http://www.w3.org/1999/xlink" width="36" height="36" viewBox="0 0 36 36"><path fill="#1A8A00" d="M32 5H4a4 4 0 0 0-4 4v18a4 4 0 0 0 4 4h28a4 4 0 0 0 4-4V9a4 4 0 0 0-4-4"/><path fill="#EF7D00" d="M31 31h1a4 4 0 0 0 4-4V15h-5z"/><path fill="#141414" d="M26 15h5v16h-5z"/><path fill="#DE200F" d="M21 15h5v16h-5z"/><path fill="#EF7D00" d="M35.083 8.256c-.109-.021-.716.325-.716.325s.564-.65.434-.65s-.866.346-.866.346s.455-.563.303-.498s-.976.433-1.604.696c.088-.149.065-.372 0-.372c-.064 0-.434.238-.997.369c-.564.13-1.408.607-1.777.542c-.368-.065-1.105 0-1.105 0s-.216-.325-.043-.412c.172-.087.304.13.304.13s.304-.13.304-.314s-.521-.206-.521-.206s-.218-.281-.563-.281c-.91 0-.976.975-.976.975s-.369-.13-.715-.217c-.347-.087-.954-.043-1.56-.412s-.997-.498-.261.282c-1.084-.369-1.646-1.105-1.799-.786c-.152.32.412.699.412.699s-.304-.086-.563-.325c-.26-.239-.629-.39-.281.13c-.455-.13-.13.347-.13.347s-.369.108 0 .368c.368.26 1.04.369 1.04.369s-.304.216-.109.303s.521.022.521.022s-.26.216 0 .303s.585 0 .585 0s-.108.217.151.314c.261.098.673-.119.673-.119s-.195.13 0 .238s.498-.119.498-.119s-.173.292 0 .336c.173.043.455-.173.455-.173s-.173.281 0 .303s.563-.195.563-.195s-.238.303 0 .303c.239 0 .521-.151.521-.151s-.065.238.13.325s.476-.152.476-.152s.066.456.022.715c-.043.26.281.065.281.065s-.044.39-.304.369s-.521.325-.433.412c.087.087.433-.065.433-.065s-.021.477.108.437c.13-.04.347-.307.347-.307s.13.347.218.304c.087-.044.13-.238.13-.347s.237-.152.237-.152s.065.433.152.349c.088-.085.108-.371.238-.457s.087.498.217.455c.131-.043.065-.434.022-.564s.261.108.239 0c-.021-.109-.261-.325-.261-.325s.303.109.217 0s-.13-.39 0-.329s.239-.191.239-.191s.346.26.562.173c.216-.086-.281-.39-.281-.39s.759.26.926.217s-.255-.325-.255-.325s.477.108.564 0c.086-.109-.31-.195-.31-.195s.525.087.591 0s-.151-.195-.151-.195s.866-.021 1.04-.325c.867.022 1.82-.671 1.907-.823s-.151-.152-.151-.152s.521-.412.455-.477c-.065-.065-.347.086-.347.086s.672-.585.564-.606m-6.436 3.727c-.28 0-.088-.151-.132-.303s.152-.021.13-.152c-.023-.13 0-.758 0-.758c.217.217.325.499.304.715c-.021.217.108.238.151.347c.044.109-.172.151-.453.151"/></svg>