<svg xmlns="http://www.w3.org/2000/svg" xmlns:xlink="http://www.w3.org/1999/xlink" width="36" height="36" viewBox="0 0 36 36"><path fill="#EEE" d="M36 27a4 4 0 0 1-4 4H4a4 4 0 0 1-4-4V9a4 4 0 0 1 4-4h28a4 4 0 0 1 4 4z"/><path fill="#CE1126" d="M32 5H4a4 4 0 0 0-4 4v9h35.926L36 9a4 4 0 0 0-4-4"/><path fill="#FFAC33" d="M20.878 17.737c.277-.377.663-.375 1.124-.135c-.064-.611-.793-.997-1.122-1.049c.134-.45.565-.675 1.078-.608c-.266-.553-1.146-.571-1.475-.504c-.025-.471.306-.832.808-.948c-.434-.427-1.267-.137-1.555.038c-.18-.433.007-.887.442-1.171c-.552-.251-1.239.311-1.449.576c-.317-.344-.292-.836.021-1.253c-.604-.045-1.059.725-1.167 1.046c-.414-.212-.557-.681-.406-1.182c-.58.169-.749 1.049-.741 1.388c-.459-.055-.753-.447-.78-.971c-.488.361-.351 1.246-.229 1.562c-.451.109-.859-.159-1.06-.641c-.337.509.09 1.293.311 1.547c-.388.258-.86.15-1.212-.235c-.146.596.52 1.185.814 1.347c-.277.377-.444.654-.904.417c.063.611.575.715.905.766z"/><path fill="#FFF100" d="m19.922 17.142l2.266-.823l-2.404.012l1.85-1.563l-2.257.848l1.213-2.112l-1.836 1.581l.429-2.406l-1.193 2.123l-.407-2.409l-.407 2.409l-1.192-2.123l.429 2.406l-1.835-1.581l1.212 2.112l-2.257-.848l1.851 1.563l-2.407-.012l2.268.823z"/><path fill="#FFF100" d="M17.583 19.521c1.292 0 2.339-1.064 2.339-2.377s-1.047-2.377-2.339-2.377s-2.339 1.063-2.339 2.377c0 1.312 1.047 2.377 2.339 2.377"/><path fill="#F15A29" d="M17.583 19.551c-1.307 0-2.369-1.08-2.369-2.407s1.062-2.406 2.369-2.406c1.306 0 2.369 1.079 2.369 2.406s-1.063 2.407-2.369 2.407m0-4.754c-1.273 0-2.31 1.053-2.31 2.347s1.036 2.347 2.31 2.347c1.273 0 2.309-1.053 2.309-2.347s-1.036-2.347-2.309-2.347"/><path fill="#FFAC33" d="M17.438 9.504c-.188-.253-.421-.522-.702-.649c-.281-.126-.783-.205-1.325-.063c-.607.158-1.331.403-1.901.237c-.109-.031-.187.08.031.206c.218.127.772.159 1.324.087c.39-.05.905-.032 1.107.047c.242.095.678.42.865.752zm1.231 1.378a1.9 1.9 0 0 1 .708-.073c.204.034.486-.067.579-.109c.168-.075-.011-.203-.663-.166c-.429.023-.595.212-.624.348"/><path fill="#FCD116" d="M21.094 8.491c-1.349-.063-1.692.214-2.346.269c-.598.05-.974.232-1.278.586c-.273.317-.544.605-.694.705c-.018.012-.029.025-.044.038c-.222-.016-.445-.105-.572-.228c-.211-.205-.494-.229-.701-.02c-.039.04-.086.104-.215.104c-.222 0-.576.004-.581.376c.117-.147.199-.171.577-.171c.058 0 .129.028.187.127a.58.58 0 0 0 .468.265c.19.004.271.133.397.269c.367.396 1.185.657 1.949.364c.395-.151.765-.666 1.435-.649c.639.016.973-.19.421-.333c-.554-.142-.976-.087-1.349-.015a1 1 0 0 1-.404-.026c.054-.014.094-.045.107-.097c.097.036.245-.023.277-.127c.096.04.24-.016.277-.11c.128.047.26.012.318-.103c.085.051.233-.004.257-.123c.086.056.219.048.25-.079c.109.075.241.016.234-.111c.05.024.154 0 .163-.079c.202.008.459 0 .459-.15c.172.008.413-.07.408-.256c.12-.008.273-.102.309-.234c.034-.111-.091-.182-.309-.192"/><path fill="#EEE" d="M15 18h5v2h-5z"/><path fill="#00247D" d="M35.926 27.733c-.384.211-.818.313-1.562.313c-1.817 0-1.817-.984-3.636-.984c-1.818 0-1.818 1-3.693 1c-1.762 0-1.762-1-3.608-1c-1.789 0-1.789 1-3.607 1s-1.818-1-3.637-1s-1.818 1-3.636 1s-1.818-1-3.636-1s-1.818 1-3.636 1s-1.818-1-3.637-1c-.762 0-1.201.178-1.591.383C.269 29.441 1.943 31 4 31h28a3.995 3.995 0 0 0 3.926-3.267m.074-2.35v-1.944c-.402.228-.846.374-1.637.374c-1.817 0-1.817-1.007-3.636-1.007c-1.818 0-1.818 1-3.693 1c-1.762 0-1.762-1-3.608-1c-1.789 0-1.789 1-3.607 1s-1.818-1-3.637-1s-1.818 1-3.636 1s-1.818-1-3.636-1s-1.818 1-3.636 1s-1.818-1-3.637-1c-.791 0-1.234.19-1.636.404v2c.402-.214.846-.404 1.636-.404c1.818 0 1.818 1 3.637 1s1.818-1 3.636-1s1.818 1 3.636 1s1.818-1 3.636-1s1.818 1 3.637 1s1.818-1 3.629-1c1.825 0 1.825 1 3.64 1c1.822 0 1.822-1 3.639-1c2.378 0 2.323.991 3.638.991c.789 0 1.233-.207 1.635-.414m0-4.257v-1.944c-.402.228-.846.365-1.637.365c-1.817 0-1.817-.999-3.636-.999c-1.818 0-1.818 1-3.693 1c-1.762 0-1.762-1-3.608-1c-1.789 0-1.789 1-3.607 1s-1.818-1-3.637-1s-1.818 1-3.636 1s-1.818-1-3.636-1s-1.818 1-3.636 1s-1.818-1-3.637-1c-.791 0-1.234.191-1.636.404v2c.402-.214.846-.404 1.636-.404c1.818 0 1.818 1 3.637 1s1.818-1 3.636-1s1.818 1 3.636 1s1.818-1 3.636-1s1.818 1 3.637 1s1.818-1 3.629-1c1.825 0 1.825 1 3.64 1c1.822 0 1.822-1 3.639-1c1.82 0 1.82.969 3.638.969c.789.001 1.233-.184 1.635-.391"/><path fill="#EEE" d="M36 19.125v-1.979c-.402.228-.846.43-1.637.43c-1.817 0-1.817-1.063-3.636-1.063c-1.818 0-1.818 1-3.693 1c-1.762 0-1.762-1-3.608-1c-1.789 0-1.789 1-3.607 1s-1.818-1-3.637-1s-1.818 1-3.636 1s-1.818-1-3.636-1s-1.818 1-3.636 1s-1.818-1-3.637-1c-.791 0-1.234.19-1.636.404v2c.402-.213.846-.404 1.636-.404c1.818 0 1.818 1 3.637 1s1.818-1 3.636-1s1.818 1 3.636 1s1.818-1 3.636-1s1.818 1 3.637 1s1.818-1 3.629-1c1.825 0 1.825 1 3.64 1c1.822 0 1.822-1 3.639-1c1.82 0 1.82.987 3.638.987c.789 0 1.233-.168 1.635-.375"/></svg>