<svg xmlns="http://www.w3.org/2000/svg" xmlns:xlink="http://www.w3.org/1999/xlink" width="36" height="36" viewBox="0 0 36 36"><path fill="#4AA657" d="M6 31h26a4 4 0 0 0 4-4v-4H6v8z"/><path fill="#C8313E" d="M32 5H6v18h30V9a4 4 0 0 0-4-4z"/><path fill="#FFF" d="M4 5a4 4 0 0 0-4 4v18a4 4 0 0 0 4 4h2V5H4z"/><g fill="#C8313E"><path d="M.766 29.188l.625-1.109l.641 1.141l-.542.871a3.9 3.9 0 0 0 .544.372l.792-1.437l-1.42-2.276l-1.117 1.726c.183.46.451.872.781 1.23l-.304-.518zm5.215-.091l-1.497-2.222l-1.502 2.171L4.268 31h.647l1.066-1.903zm-1.453-1.019l.641 1.141l-.641 1.031l-.625-1.062l.625-1.11zM6 18.333v-.894l-.313.436zM2.825 7.026l-.894-1.434a3.986 3.986 0 0 0-1.685 2.07l1.285 1.713l1.294-2.349zm-2.059.162l.625-1.109l.641 1.141l-.641 1.03l-.625-1.062zm3.851 2.343l1.364-2.435L4.569 5h-.171L2.983 7.046l1.634 2.485zm.551-2.312l-.64 1.031l-.625-1.062l.625-1.109l.64 1.14z"/><path d="M4.953 15l.875-1.453l.172.076V13l-1.406-2.188l-1.688 2.344l-1.5-2.406L0 12.923v.65L.859 15l.609-.891l-.437-.609l.328-.438l.953 1.234l-1.406 2.312L0 15.361v1.553l.058-.077l.953 1.234L0 19.735v1.177l.906-1.248l1.406 2.312L1.522 23l-.163.211L1.201 23l-.17-.227l.438-.609l-.609-.891L0 22.701v.575l1.438 2.193L2.838 23l.053-.094l.058.094l1.614 2.609L6 23.062v-.391l-.125.056L5 21.273l-.61.891l.438.609l-.17.227l-.158.211L4.337 23l-.79-1.023l1.406-2.312L6 21.106v-1.142l-1.157-1.902l.953-1.234L6 17.1v-1.997L4.906 16.61L3.5 14.297l.953-1.234l.328.437l-.438.609l.61.891zm-.668 2.031v1.928L2.89 21.162L1.576 18.95v-1.908l1.314-2.213l1.395 2.202z"/><path d="M2.031 16.823l.598 1.091l-.598 1.091l.438.24l.445-.811l.445.811l.438-.24l-.598-1.091l.598-1.091l-.438-.24l-.445.811l-.445-.811zM.026 26.188l.625 1.062l.641-1.031l-.641-1.141zm1.516 0l.625 1.062l.64-1.031l-.64-1.141zm1.484 0l.625 1.062l.641-1.031l-.641-1.141zm1.592 0l.625 1.062l.64-1.031l-.64-1.141zM.026 10.125l.625 1.063l.641-1.032l-.641-1.14zm1.516 0l.625 1.063l.64-1.032l-.64-1.14zm1.484 0l.625 1.063l.641-1.032l-.641-1.14zm1.592 0l.625 1.063l.64-1.032l-.64-1.14z"/></g></svg>