<svg xmlns="http://www.w3.org/2000/svg" xmlns:xlink="http://www.w3.org/1999/xlink" width="36" height="36" viewBox="0 0 36 36"><path fill="#141414" d="M36 27a4 4 0 0 1-4 4H4a4 4 0 0 1-4-4V9a4 4 0 0 1 4-4h28a4 4 0 0 1 4 4z"/><path fill="#CE1126" d="M34.618 30.002A3.98 3.98 0 0 0 36 27V9a4 4 0 0 0-4-4H4a3.97 3.97 0 0 0-2.618.998z"/><path fill="#FFF" d="m7.721 13.536l.383 1.316h1.324l-1.045.804l.383 1.279l-1.045-.805l-1.045.768l.383-1.242l-1.045-.804h1.289zm-4.014 5.133l.383 1.314h1.324l-1.045.804l.383 1.279l-1.045-.803l-1.045.767l.383-1.243L2 19.983h1.289zm4.014 6.933l.383 1.315h1.324l-1.045.804L8.766 29l-1.045-.804l-1.045.767l.383-1.242l-1.045-.804h1.289zm1.792-2.794l.192.657h.662l-.523.403l.192.639l-.523-.403l-.522.384l.191-.62l-.522-.403h.644zm2.203-4.504l.383 1.315h1.324l-1.045.804l.383 1.279l-1.045-.804l-1.045.767l.383-1.242l-1.045-.804h1.289z"/><path fill="#FCD116" d="M22.723 12.734c-.309.399-1.039-.401-1.914-.419c-.875-.019-1.496.838-1.75 1.13c-.256.292-1.077 1.823-1.059 1.988c.02.164.512-.457.693-.566c.017.219-.201.475-.146.547c.055.074.639-.438.84-.455c.055.146-.109.291-.055.51c.072.074.4-.364.619-.455c.037.164-.201.474-.072.674c.09.019.639-.619.82-.692c.182-.073-.092.602 0 .657c.164-.109.674-.693.838-.766s-.018.747.055.747c.201-.145.711-.838.766-.947s-.055 1.057.512 1.677c.566.62 1.422 1.331 1.514 1.331c.109-.2-.037-.62.055-.602c.256.273.729.675.838.675s-.072-.438.074-.438c.291.273 1.129 1.35 2.771 1.842c-.109-.311-.348-.584-.365-.729c.109.018.492.2.564.183c.074-.019-.801-1.095-.748-1.24c.201-.019.293.109.365.018c-.09-.146-.857-1.003-.857-1.203s.238.036.311 0c.074-.037-.291-.802-.219-.894c.072-.09.875.492 1.076.492s.055-.711.147-.747c.09-.036.766.383.91.383c.146 0 .129-.31.184-.274s1.641 1.623 1.094 3.482c-.547 1.331-1.641 2.042-3.246 1.459c.092.146.949.856 1.879.602c.93-.255 2.061-.984 1.934-2.808c-.129-1.824-.73-2.079-.82-2.352c-.094-.273.145.073.344.145c.203.074-.035-.383-.09-.583s.602.419.766.474s-.383-1.495-.547-1.604s.164.037.273.073s-1.004-1.696-1.24-1.696s.201-.091.328-.091s-1.275-1.13-1.514-1.13c-.236 0 .512-.292.584-.311c.127.019-1.623-.93-3.191.019c-.09-.073.738-.648.766-.894c.01-.063-.273-.2-.291-.273s.438-.292.455-.456c-.109-.146-.309-.091-.418-.127c-.027-.137.383-.475.346-.621c-.027-.082-.328-.109-.4-.055c-.074.055.192-.383.145-.51c-.035-.055-.182-.018-.328.018c-.09-.018.475-.802.365-.912s-1.641.802-2.205 1.823c-.566 1.021-.129 1.842-.201 2.188s-.164.693-.4.693c-.238 0-.785-.365-.967-.547c-.184-.183-.219-.31-.475-.383s-.84.146-1.059.164s-1.074-.164-1.129-.109s.838.383 1.039.493c.199.109.219.254.363.346c.143.09 1.512.491 1.073 1.056m5.343 2.571c.438.438 3.391 2.407 3.391 4.814s-2.152 2.334-2.772 2.261c.693.584 3.318.475 3.318-2.261c0-2.407-3.391-4.814-3.828-5.033s-.548-.219-.109.219"/></svg>