<svg xmlns="http://www.w3.org/2000/svg" xmlns:xlink="http://www.w3.org/1999/xlink" width="36" height="36" viewBox="0 0 36 36"><path fill="#006B3F" d="M36 27a4 4 0 0 1-4 4H4a4 4 0 0 1-4-4V9a4 4 0 0 1 4-4h28a4 4 0 0 1 4 4v18z"/><path fill="#EEE" d="M36 15H21V5h-6v10H0v6h15v10h6V21h15z"/><path fill="#FCD116" d="M15 5h2v26h-2z"/><path fill="#FCD116" d="M0 15h36v2H0z"/><path fill="#141414" d="M17 5h2v26h-2z"/><path fill="#141414" d="M0 17h36v2H0z"/><circle fill="#DD2E44" cx="18" cy="18" r="6"/><path d="M18 12.64l-.169.524h-.555l.451.325l-.173.524l.446-.325l.445.325l-.171-.528l.449-.32h-.552zm-3.08 1l.171.523l-.448.326l.555-.001l.168.525l.169-.525l.552.001l-.448-.326l.175-.522l-.447.324zm-1.904 2.621l.446.322l-.171.527l.449-.327l.445.326l-.172-.525l.447-.323l-.555-.001l-.166-.525l-.17.526zm0 3.239l.55-.002l.171.527l.171-.529l.552.002l-.447-.322l.172-.525l-.45.325l-.442-.327l.171.525zm1.904 2.619l.444-.324l.448.326l-.172-.529l.448-.322l-.552.001l-.17-.525l-.172.527l-.55-.003l.447.324zm3.08 1l.169-.523h.554l-.451-.326l.173-.524l-.445.326l-.445-.326l.17.527l-.448.321h.552zm3.08-1l-.172-.523l.448-.326l-.555.001l-.168-.525l-.169.525l-.552-.001l.448.326l-.175.523l.448-.326zm1.903-2.621l-.446-.322l.171-.527l-.449.327l-.444-.326l.171.524l-.446.324h.554l.166.525l.171-.525zm-.001-3.238l-.549.001l-.171-.527l-.171.529l-.552-.003l.447.323l-.171.525l.449-.325l.442.327l-.171-.526zm-1.903-2.62l-.444.324l-.448-.325l.171.528l-.447.322l.552-.001l.17.525l.172-.528l.549.005l-.446-.324z" fill="#006000"/><path fill="#00693F" d="M19.594 20.818a13.145 13.145 0 0 1-.069-1.062c-.005-.276-.506-.646-.837-.643c-.226-.462-.887-1.02-1.331-.576c-.043.309.034.91.18 1.14l.678.154a.472.472 0 0 0 .171-.23c.019-.006.031-.024.049-.032c.126.487.377 1.247.448 1.429c.077.197.189.6.438.67c.111.059.266.016.197-.498c.076-.018.092-.215.076-.352z"/><path fill="#7D76B6" d="M18.86 15.76a.447.447 0 0 0 .154.27a.266.266 0 0 0-.09.128c-.283.244-.939 1.941-.951 2.314c-.045.199-.136.515-.213.65c-.437-.392-.887-1.125-.812-1.455c-.026-.004-.064-.008-.107-.021c.009-.03.025-.18.03-.27c-.026 0-.073 0-.112-.013c.009-.056.026-.219.026-.292a.343.343 0 0 1-.133-.099c.029-.077.107-.227.146-.317c-.064-.008-.111-.073-.133-.111a.562.562 0 0 0 .158-.193a.459.459 0 0 1-.111-.12c.06-.056.236-.248.313-.355c-.048 0-.064-.004-.104-.013c.064-.025.138-.12.224-.201c.147.128.428.105.563.028c.244.141.508.161.849.051c.066.019.239.045.303.019z"/><path fill="#00693F" d="M19.838 20.428c.051-1.813-.258-3.472-.733-4.076c-.476-.605-1.349-.47-1.594.051c-.104.219-.118.741-.014.965c.181.386.875 1.607 1.351 2.07c.475.462.809.771.99.99z"/><path fill="#FFD420" d="M19.122 19.996a.846.846 0 0 1-.429-.078c-.129-.061-.24-.119-.377-.119c-.138 0-.883-.053-1.003-.096a2.268 2.268 0 0 0-.592-.094c-.137.008-.352.104-.438.104c-.086 0-.128.068-.128.137c0 .068.017.197.119.266c.181-.008.438-.025.472-.06c.249.068.583.139.789.146c.206.008.574.025.712.018c.137-.01.162-.053.343.008c.18.06.42.189.531.223c.111.035.18-.076.205-.197c.028-.121-.058-.268-.204-.258z"/><path fill="#FFF" d="M17.279 15.002c-.005 0-.011.006-.016.006c-.039-.173-.219-.295-.32-.29c-.314.083-.296.663-.013.862a.395.395 0 0 1 .078-.261c.023.07.077.136.218.153c.149-.053.098-.381.053-.47z"/><path fill="#7D76B6" d="M17.146 15.662c.147.128.428.105.563.028c.244.141.508.161.849.051c.064.02.237.045.302.02c.039-.039.077-.064.116-.09a.703.703 0 0 1-.193-.295s.065-.078.09-.116a1.744 1.744 0 0 0-.257-.206c.039-.038.077-.154.077-.154a.835.835 0 0 1-.309-.18l.013-.077c-.21-.013-.201-.27-.655-.347c-.309-.052-.772.077-.798.424c.172.167.434.39.283.754a.593.593 0 0 1-.154.142c.026.028.043.032.073.046z"/><path fill="#FFF" d="M18.342 20.219c-.086-.01-.171-.104-.171-.18c0-.078.008-.233.154-.25c-.048-.082-.116-.104-.182-.094c-.062-.075-.161-.091-.256-.07c.003-.004.005-.013.009-.016c-.08-.065-.172-.051-.252-.011c-.148-.087-.373.022-.408.294c-.034.266.103.455.3.445v-.003c.089.044.216.004.249-.048l-.001-.019c.082.054.164.055.237.003c.026.024.051.05.09.059c.112.027.197-.067.231-.11z"/><path fill="#FFD420" d="M17.562 14.59c-.231 0-.225.347 0 .347s.231-.347 0-.347z"/><path d="M17.562 14.72c-.058 0-.056.086 0 .086c.056.001.058-.086 0-.086z" fill="#000"/></svg>