<svg xmlns="http://www.w3.org/2000/svg" xmlns:xlink="http://www.w3.org/1999/xlink" width="36" height="36" viewBox="0 0 36 36"><path fill="#F4900C" d="M22.217 35.615h-.002a1.477 1.477 0 0 1-1.198-1.712l.59-3.344s.68-3.165-1.076-5.449c1.259-1.171 5.024.085 5.024.085l-1.626 9.221a1.48 1.48 0 0 1-1.712 1.199m-12.692-.021h-.002a1.477 1.477 0 0 1-1.198-1.712l1.312-7.025s.503-2.419.503-4.439c1.142-.439 2.723 2.757 2.723 2.757l-1.626 9.221a1.48 1.48 0 0 1-1.712 1.198m21.277-9.823a.985.985 0 0 1-.985-.969c-.012-.723-.304-4.326-4.925-4.326a.984.984 0 1 1 0-1.97c5.363 0 6.858 3.938 6.896 6.264a.985.985 0 0 1-.969 1.002z"/><g fill="#754C29"><path d="m15.226 17.252l-3.46-11.98l1.687-1.02c.369.61.628 1.722 1.054 3.633c.569 2.558 1.349 6.06 2.657 7.876a.986.986 0 0 1-.224 1.376c-.175.126-1.714.115-1.714.115M7.615 2.71V.739a.74.74 0 0 1 1.478 0V2.71zm2.332 0V.739a.74.74 0 0 1 1.478 0V2.71z"/><ellipse cx="30.802" cy="26.263" rx="1.971" ry="2.464"/></g><path fill="#FFCC4D" d="M28.935 34.094s-.647-2.515-.998-4.154c-.332-1.549-1.025-3.981-1.171-8.225c-.01-.145-.039-.512-.138-.779c-.122-.33-.567-.933-.766-1.203c-.777-1.052-2.012-1.691-3.526-1.847c-1.283-.132-2.573-.185-3.854-.339c-.59-.071-1.1-.156-1.422-.272c-1.636-.589-1.962-2.502-2.414-3.965c-.8-2.59-1.508-5.225-1.961-7.9l-.036.009l.036-.009l-.027-.165V4.84c1.567-.714 2.79-2.888 1.971-3.706c-1.416-.708-2.827.11-3.513.992c-.02-.001-.039-.006-.059-.006H8.459c-.655 0-1.304.16-1.872.51c-.584.359-.986.907-1.633 1.19c-.786.344-1.721.093-2.417.64c-1.189.933-.625 2.525.854 2.578c.201.577.745.993 1.39.993h2.106c.055.011.108.021.173.029c.604.071 1.088.525 1.477 1.215c1.047 1.856 1.244 4.244 1.415 6.324a46 46 0 0 1 .158 4.36c-.293 1.566-.12 3.377-.12 3.377c.044.419.186.777.394 1.095l-.01.011c1.99 2.81 2.449 5.97 2.449 5.97l.784 4.193a1.478 1.478 0 0 0 2.912-.513l-1.262-7.159c1.977.534 4.609.932 6.449.852l-.002.02c2.371-.146 3.26 1.73 3.454 2.576s.868 4.228.868 4.228a1.478 1.478 0 1 0 2.909-.515"/><path fill="#F4900C" d="M11.975 22.1c-.985.985-1.16 2.408-.391 3.178c.77.77 2.193.595 3.178-.391s1.16-2.408.391-3.178c-.77-.77-2.193-.595-3.178.391m1.088-6.185a2.956 2.956 0 0 0 5.418 1.633c-.59-.071-1.1-.156-1.422-.272c-1.564-.563-1.872-2.237-2.253-3.441c-.057-.179-.108-.349-.162-.523a2.95 2.95 0 0 0-1.581 2.603m-.986-4.434a2.464 2.464 0 0 0-2.464-2.464c-.388 0-.75.098-1.077.257c.635 1.126 1.015 2.885 1.242 4.653a2.456 2.456 0 0 0 2.299-2.446m-1.093-4.079c0 1.118.906 2.023 2.023 2.023c.182 0 .355-.032.523-.077a52 52 0 0 1-.847-3.937a2.02 2.02 0 0 0-1.699 1.991m8.977 12.456a2.956 2.956 0 0 0 5.912 0c0-.043-.011-.082-.013-.124c-.777-1.052-2.012-1.691-3.526-1.847a58 58 0 0 0-1.499-.128a2.95 2.95 0 0 0-.874 2.099M11.598 2.613c.505-.483 1.317-1.089 1.778-.856s.258 1.273-1.166 2.151c.113-.439.551-1.215-.612-1.295"/><circle cx="8.772" cy="4.09" r=".985" fill="#292F33"/><path fill="#754C29" d="M21.047 33.545s-1.142 1.351-.985 1.781s2.741.491 3.249.022s-1.951-1.842-2.264-1.803m-12.623 0s-1.142 1.351-.985 1.781s2.741.491 3.249.022s-1.951-1.842-2.264-1.803m4.547 2.22c.136.391 2.766.329 3.205-.461s-2.678-1.317-2.678-1.317s-.703 1.273-.527 1.778m12.404 0c.136.391 2.766.329 3.205-.461s-2.678-1.317-2.678-1.317s-.703 1.273-.527 1.778"/></svg>