<svg xmlns="http://www.w3.org/2000/svg" xmlns:xlink="http://www.w3.org/1999/xlink" width="36" height="36" viewBox="0 0 36 36"><path fill="#8899A6" d="m34.247 6.324l-2.742 2.743s-1.829.914-3.657-.915c-1.829-1.828-.915-3.657-.915-3.657l2.743-2.743C30.591.838 29.492 0 28.667 0a7.333 7.333 0 0 0-7.334 7.333c0 .569.072 1.121.194 1.653l-6.199 6.199l5.485 5.485l6.199-6.198a7.4 7.4 0 0 0 1.654.194a7.333 7.333 0 0 0 7.333-7.333c.001-.83-.838-1.923-1.752-1.009m-19.027 9.04L3.031 27.552a3.83 3.83 0 0 0 0 5.417a3.83 3.83 0 0 0 5.417 0l12.187-12.188zM5.763 31.838a1.482 1.482 0 1 1 0-2.964a1.482 1.482 0 0 1 0 2.964"/><path fill="#F4900C" d="M30.83 33.279c1.166 1.166 3.022 1.221 4.121.121s1.045-2.955-.121-4.121L11.565 6.014c-1.167-1.167-3.021-1.221-4.121-.121s-1.045 2.955.121 4.121z"/><path fill="#66757F" d="M21.444.893s-6-3-11 2l-7 7s-1-1-2 0l-1 1s-1 1 0 2l4 4s1 1 2 0l1-1s1-1 0-2l-.078-.078c.77-.743 1.923-1.5 3.078-.922l4-4s-1-3 1-5s3-2 5-2s1-1 1-1"/></svg>