<svg xmlns="http://www.w3.org/2000/svg" xmlns:xlink="http://www.w3.org/1999/xlink" width="36" height="36" viewBox="0 0 36 36"><path fill="#C1694F" d="M34.469 28.156c-.59-.885-2.458-2.365-4.5-2.656c-2.112-.302-3.877.18-6.571-1.394a3 3 0 0 0-.273-.19c-2.153-1.247-5.917-5.417-6-9.542c-.047-2.336-3-2.625-5.375-2.333s-10.083 2.083-9.792 3.25c.248.991.224 5.316-.018 8.205c-.366 2.27-.636 5.435-.636 7.44C1.303 31.599 2.333 32 2.333 32l14.198.5l17.688-.477s.933-.084.906-.711c-.042-.958-.156-2.406-.656-3.156"/><path fill="#662113" d="M23.208 32.458c.75-1.333 2.375-2.417 4.75-2.583s5.792-2.531 5.792-2.531s.969 0 1.531 2.031c.463 1.67-.406 2.094-.406 2.094s-3.542 1.99-5.875 1.615s-5.792-.626-5.792-.626M1.906 24.156s-1.125 3.656-.86 5.661c.181 1.369.573 2.351 1.376 2.58s9.5.066 9.328.009s-1.097-4.124-4.594-5.156s-5.25-3.094-5.25-3.094"/><path fill="#292F33" d="M1.906 35.562c-.55 0-1.031-.438-1.156-1.938l-.031-.562c.156-2 .638.625 1.188.625s1 .45 1 1c-.001.55-.451.875-1.001.875m3.032.25c-.55 0-1-.45-1-1s.45-1 1-1s1 .45 1 1s-.45 1-1 1M8 36c-.55 0-1-.45-1-1s.45-1 1-1s1 .45 1 1s-.45 1-1 1m3.062-.156c-.55 0-1-.45-1-1s.45-1 1-1s1 .45 1 1s-.449 1-1 1M20 36c-.55 0-1-.45-1-1s.45-1 1-1s1 .45 1 1s-.45 1-1 1m3 0c-.55 0-1-.45-1-1s.45-1 1-1s1 .45 1 1s-.45 1-1 1m2.938-.125c-.55 0-1-.45-1-1s.45-1 1-1s1 .45 1 1s-.451 1-1 1m3.031-.187c-.55 0-1-.45-1-1s.45-1 1-1s1 .45 1 1c0 .549-.45 1-1 1m3-.188c-.55 0-1-.45-1-1s.45-1 1-1s1 .45 1 1s-.45 1-1 1m2.962-.481h-.281c-.55 0-1-.606-1-1.156s.45-1 1-1s1.219-.675 1.219-.125l-.063 1.062c0 .55-.325 1.219-.875 1.219"/><path fill="#662113" d="M2.167 16.042c-.713.366-.75-1.25-.083-2s6.25-1.75 7.625-2s4.042-.75 4.875-.083s1 2.833.958 3.625s-3.084-.417-5.542-.667c-2.323-.237-6.208.291-7.833 1.125"/><circle cx="14.604" cy="18.583" r="1.5" fill="#292F33"/><circle cx="15.948" cy="21.781" r="1.5" fill="#292F33"/><circle cx="18.292" cy="24.458" r="1.5" fill="#292F33"/><circle cx="21.562" cy="25.938" r="1.5" fill="#292F33"/><circle cx="25" cy="26.823" r="1.5" fill="#292F33"/><path fill="#BE1931" d="M14.5 19.425a.799.799 0 0 1-.185-1.578l3.833-.917a.799.799 0 1 1 .372 1.556l-3.833.917a.8.8 0 0 1-.187.022m1.5 3.187a.8.8 0 0 1-.372-1.509l3.542-1.854a.8.8 0 1 1 .742 1.418l-3.542 1.854a.8.8 0 0 1-.37.091m2.25 2.688a.801.801 0 0 1-.522-1.406l2.958-2.542a.8.8 0 0 1 1.043 1.213l-2.958 2.542a.8.8 0 0 1-.521.193m3.332 1.5a.8.8 0 0 1-.708-1.171l1.417-2.708a.8.8 0 1 1 1.418.742l-1.417 2.708a.8.8 0 0 1-.71.429m3.45.906a.8.8 0 0 1-.793-.911l.386-2.739a.79.79 0 0 1 .903-.681a.8.8 0 0 1 .681.903l-.386 2.739a.8.8 0 0 1-.791.689"/><path fill="#292F33" d="M1.334 31.216c.787.175 2.201.662 4.591.7c2.755.044 5.187-.525 8.308-.525c2.991 0 6.9.848 10.319.7c3.487-.152 7.35-.652 8.192-.799c1.667-.292 2.438-.479 2.438-.479s.365-.021.531.688c.167.708.304 2.083-.841 2.427c-2.186.656-7.554 1.113-12.724 1.049c-2.626-.032-5.549-.81-6.966-.976c-1.417-.167-2.667-.287-3.062 0c-.396.287.089.792-.946.933c-2.58.35-8.614.044-9.928-.516c-.672-.286-1.051-3.455.088-3.202m12.102-10.613a.5.5 0 0 1-.482-.368l-.61-2.224a.501.501 0 0 1 .965-.265l.61 2.225a.5.5 0 0 1-.483.632m1.505 3.28a.5.5 0 0 1-.467-.32l-.827-2.153a.5.5 0 1 1 .934-.359l.827 2.153a.5.5 0 0 1-.467.679m2.992 2.861a.5.5 0 0 1-.352-.145l-1.639-1.622a.5.5 0 0 1 .703-.711l1.639 1.622a.5.5 0 0 1-.351.856m3.998 1.563a.5.5 0 0 1-.228-.055l-2.053-1.051a.5.5 0 0 1 .455-.891l2.053 1.051a.5.5 0 0 1-.227.946m3.993.755a.5.5 0 0 1-.098-.01l-2.263-.448a.5.5 0 0 1 .193-.981l2.263.448a.5.5 0 0 1-.095.991"/></svg>