<svg xmlns="http://www.w3.org/2000/svg" xmlns:xlink="http://www.w3.org/1999/xlink" width="36" height="36" viewBox="0 0 36 36"><path fill="#77B255" d="M36 36v-2a6 6 0 0 0-6-6H14a6 6 0 0 0-6 6v2z"/><path fill="#3E721D" d="M22 34c.767 0 5-3 5-6H17c0 3 4.233 6 5 6"/><path fill="#F3D2A2" d="M17.64 28.038c0 2.846 8.72 2.962 8.72 0v-3.749h-8.72z"/><path fill="#E2C196" d="M17.632 25.973c1.216 1.374 2.724 1.746 4.364 1.746s3.146-.373 4.363-1.746v-3.491h-8.728v3.491z"/><path fill="#F3D2A2" d="M15.444 15.936c0 1.448-.734 2.622-1.639 2.622s-1.639-1.174-1.639-2.622s.734-2.623 1.639-2.623c.905-.001 1.639 1.174 1.639 2.623m16.389 0c0 1.448-.733 2.622-1.639 2.622c-.905 0-1.639-1.174-1.639-2.622s.733-2.623 1.639-2.623c.906-.001 1.639 1.174 1.639 2.623"/><path fill="#F3D2A2" d="M13.477 16.959c0-5.589 3.816-10.121 8.523-10.121s8.522 4.532 8.522 10.121S26.707 27.08 22 27.08c-4.706 0-8.523-4.531-8.523-10.121"/><path fill="#C1694F" d="M22 23.802c-2.754 0-3.6-.705-3.741-.848a.655.655 0 0 1 .902-.95c.052.037.721.487 2.839.487c2.2 0 2.836-.485 2.842-.49a.64.64 0 0 1 .913.015a.67.67 0 0 1-.014.938c-.141.143-.987.848-3.741.848"/><path fill="#FFE51E" d="M22 3.48c5.648 0 9.178 4.168 9.178 7.641s-.706 4.863-1.412 3.473l-1.412-2.778s-4.235 0-5.647-1.39c0 0 2.118 4.168-2.118 0c0 0 .706 2.779-3.53-.694c0 0-2.118 1.389-2.824 4.862c-.196.964-1.412 0-1.412-3.473C12.822 7.648 15.646 3.48 22 3.48"/><path fill="#662113" d="M18 17c-.55 0-1-.45-1-1v-1c0-.55.45-1 1-1s1 .45 1 1v1c0 .55-.45 1-1 1m8 0c-.55 0-1-.45-1-1v-1c0-.55.45-1 1-1s1 .45 1 1v1c0 .55-.45 1-1 1"/><path fill="#C1694F" d="M22.75 19.75h-1.5c-.413 0-.75-.337-.75-.75s.337-.75.75-.75h1.5c.413 0 .75.337.75.75s-.337.75-.75.75"/><path fill="#3B88C3" d="M13 28h3v8h-3zm15 0h3v8h-3z"/><path fill="#3B88C3" d="M13.125 35H31v1H13.125z"/><path fill="#C1694F" d="M30 8.8c0 1.32-3.092 2.2-8 2.2c-4.909 0-8-.88-8-2.2C14 5.253 18 0 19.333 0S21.556 1.76 22 1.76S23.333 0 24.667 0S30 5.253 30 8.8"/><path fill="#C1694F" d="M35.941 8c0 1.657-3.5 6-14 6s-14-4.343-14-6s6.82-1 14-1s14-.657 14 1"/><path fill="#292F33" d="M30 8.8c0 1.32-3.092 2.2-8 2.2c-4.909 0-8-.88-8-2.2c0-.566.102-1.175.279-1.8c2.388 2 13.054 2 15.443.004c.175.623.278 1.231.278 1.796"/><path fill="#C1694F" d="M7 31.75a1.25 1.25 0 0 0-2.5 0V36H7z"/><path fill="#66757F" d="M10.003 22.75c0 2.35-1.904 4.253-4.253 4.253S1.497 25.1 1.497 22.75c0-.086-1.497-.084-1.497 0a5.75 5.75 0 0 0 11.5 0c0-.084-1.497-.086-1.497 0"/><path fill="#66757F" d="M1.5 22.75a.75.75 0 0 1-1.5 0v-8.5a.75.75 0 0 1 1.5 0zm10 0a.75.75 0 0 1-1.5 0v-8.5a.75.75 0 0 1 1.5 0zM6.5 31A.75.75 0 0 1 5 31V14.25a.75.75 0 0 1 1.5 0z"/></svg>