<svg xmlns="http://www.w3.org/2000/svg" xmlns:xlink="http://www.w3.org/1999/xlink" width="36" height="36" viewBox="0 0 36 36"><path fill="#D99E82" d="M30.08 31.069s-.77.477-1.539 0c-.77-.477-.311-1.246-.311-1.246c-.867-.075-.958-.878-.643-1.604A6 6 0 0 0 26 28H10a6 6 0 0 0-6 6v2h28v-2c0-.62-.094-1.219-.269-1.782c-1.684.642-1.651-1.149-1.651-1.149"/><path fill="#CCD6DD" d="M13.64 28.101c1.744 1.267 2.849 3.728 4.36 3.728s2.616-2.462 4.36-3.728V24.29h-8.72z"/><path fill="#99AAB5" d="M13.632 25.973C14.848 27.347 16.356 28 17.996 28s3.147-.654 4.364-2.027v-3.491h-8.728z"/><path fill="#CCD6DD" d="M11.444 15.935c0 1.448-.734 2.622-1.639 2.622s-1.639-1.174-1.639-2.622s.734-2.623 1.639-2.623c.906.001 1.639 1.175 1.639 2.623m16.389 0c0 1.448-.734 2.622-1.639 2.622s-1.639-1.174-1.639-2.622s.734-2.623 1.639-2.623c.906.001 1.639 1.175 1.639 2.623"/><path fill="#CCD6DD" d="M9.478 16.96c0-5.589 3.816-10.121 8.522-10.121s8.522 4.531 8.522 10.121c0 5.04-5.116 10.12-8.522 10.12S9.478 22 9.478 16.96"/><path fill="#99AAB5" d="M12.232 17.768a2.005 2.005 0 0 1 0-2.828l.707-.707a2.005 2.005 0 0 1 2.828 0a2.005 2.005 0 0 1 0 2.828l-.707.707a2.005 2.005 0 0 1-2.828 0m8-3.536a2.005 2.005 0 0 1 2.828 0l.707.707a2.005 2.005 0 0 1 0 2.828a2.005 2.005 0 0 1-2.828 0l-.707-.707a2.005 2.005 0 0 1 0-2.828"/><path fill="#66757F" d="M18 21.816c-2.754 0-3.6.706-3.741.848a.655.655 0 0 0 .902.951c.052-.038.721-.487 2.839-.487c2.2 0 2.836.485 2.842.49a.64.64 0 0 0 .913-.013a.67.67 0 0 0-.014-.94c-.141-.143-.987-.849-3.741-.849"/><path fill="#292F33" d="M28.646 9.958c-.833-.188-2.305-1.908-2.843-2.727c-.006-.009-.012-.013-.017-.021c-1.354-1.85-3.644-3.349-6.622-3.664a3 3 0 0 0 .337-.775c.122-.46.271-1.653-.417-.861c-.575.662-2.406 1.428-2.99 1.661c-1.426-.707-3.451-.603-3.906-.384c-.562.271-.039.231.312.292c.436.075.907.386 1.359.717c-1.711.663-2.961 1.73-3.789 2.953l-.004.005c-.61.886-1.695 2.138-2.274 2.346c-1.125.403.243.563.812.309q.194-.084.394-.183a6.8 6.8 0 0 0-.176 1.495c0 3.473 1.216 4.437 1.412 3.473c.706-3.473 2.824-4.863 2.824-4.863c3.213 3.831 2.9.581 2.9.581c5.646 6.542 2.748.113 2.748.113c1.412 1.39 5.648 1.39 5.648 1.39l1.412 2.778c.706 1.39 1.412 0 1.412-3.473a5.5 5.5 0 0 0-.079-.867c.425.157.812.215 1.13.225c.667.022 1.25-.332.417-.52"/><path fill="#662113" d="M15.5 15.5c0 .55-.45 1-1 1h-1c-.55 0-1-.45-1-1s.45-1 1-1h1c.55 0 1 .45 1 1m8 0c0 .55-.45 1-1 1h-1c-.55 0-1-.45-1-1s.45-1 1-1h1c.55 0 1 .45 1 1"/><path fill="#C1694F" d="M18.038 31.234s3.344 2.137 4.056 2.422c.156.063-.366-3.656-.366-3.656l-2.415.547l-1.317 1.531L17.001 30h-2.727s-.524 3.781-.232 3.625c.638-.342 3.996-2.391 3.996-2.391"/><path fill="#269" d="M19.312 30.547c-.027.054-.362.277-.606.765A3.7 3.7 0 0 0 17.89 31c-1.335-.329-2.177-.039-2.177-.039s.213 1.491.396 1.82c.156.281.513.876.513.876S15.958 34 15.677 36h3.886c-.281-1.594-1.078-2.062-1.078-2.062s.829-.629 1.016-.891c.312-.438.392-.808.392-.808s-.051-.062-.145-.159c.21-.09.432-.221.658-.424c1.047-.937-1.094-1.109-1.094-1.109"/><path fill="#FFD983" d="M13.292 26.625c.566.566 3.709 3.383 3.709 3.383s-1.126 1.242-3.084 3.534c-.197.23-1.542-4.625-1.583-5.708c-.012-.304.687-1.48.958-1.209m9.438 0c-.566.566-3.418 3.922-3.418 3.922s.834.703 2.793 2.995c.197.23 1.542-4.625 1.583-5.708c.012-.304-.687-1.48-.958-1.209"/><path fill="#662113" d="M26.929 33.341c-.127 1.929-.83 2.659-.83 2.659h1.385s.189-2.975-.555-2.659"/><path fill="#99AAB5" d="M17 20a.5.5 0 0 1-.5-.5v-1c0-.275.225-.5.5-.5s.5.225.5.5v1c0 .275-.225.5-.5.5m2 0a.5.5 0 0 1-.5-.5v-1c0-.275.225-.5.5-.5s.5.225.5.5v1c0 .275-.225.5-.5.5"/><path fill="#9AAAB4" d="M13.811 20.784c-1.71 0-3.092-1.357-3.165-1.431a.5.5 0 0 1 .707-.708c.018.018 1.773 1.734 3.423.907a.5.5 0 1 1 .447.895a3.1 3.1 0 0 1-1.412.337m8.378 0a3.1 3.1 0 0 1-1.413-.337a.5.5 0 0 1 .447-.895c1.657.829 3.406-.89 3.423-.906a.5.5 0 0 1 .707.707c-.072.074-1.455 1.431-3.164 1.431"/><path fill="#662113" d="M5.617 33.962c.319-.251.872-1.996 1.869-2.411s3.206-.957 3.173.09s-1.34 2.485-1.068 3.018c-.98.476-4.987.099-3.974-.697"/><path fill="#CCD6DD" d="M6.238 33.802c.319-.251.651-1.746 1.648-2.16s2.806-1.047 2.772 0s-1.23 1.685-2.21 2.16c-.979.475-3.222.795-2.21 0"/></svg>