<svg xmlns="http://www.w3.org/2000/svg" xmlns:xlink="http://www.w3.org/1999/xlink" width="36" height="36" viewBox="0 0 36 36"><path fill="#66757F" d="M33 36v-1a6 6 0 0 0-6-6H9a6 6 0 0 0-6 6v1z"/><path fill="#EF9645" d="M12 27.482C13.672 29.057 15.746 30 18 30s4.327-.944 6-2.518V26H12z"/><path fill="#66757F" d="M26.75 20.435c1.188.208 2.619.129 2.416.917c-.479 1.854-2.604 1.167-2.979 1.188s.563-2.105.563-2.105"/><path fill="#292F33" d="M27.062 20.645c1.875.25 2.541.416 1.166.958c-.772.305-2.243 4.803-3.331 4.118c-1.087-.685 2.165-5.076 2.165-5.076"/><path fill="#66757F" d="M9.255 20.435c-1.188.208-2.619.129-2.416.917c.479 1.854 2.604 1.167 2.979 1.188s-.563-2.105-.563-2.105"/><path fill="#292F33" d="M8.943 20.645c-1.875.25-2.541.416-1.166.958c.772.305 2.243 4.803 3.331 4.118s-2.165-5.076-2.165-5.076"/><path fill="#FFE51E" d="M8.055 11.031c-1.953 0-2.305 3.164-.664 3.594c0 0-1.367 3.32 1.953 3.32c-.547-1.68-1.562-4.414-.781-6.406m19.38-.508c1.953 0 2.305 3.164.664 3.594c0 0 1.367 3.32-1.953 3.32c.547-1.68 1.562-4.414.781-6.406"/><ellipse cx="18" cy="15.5" fill="#F3D2A2" rx="10" ry="12.5"/><path fill="#662113" d="M14 17a1 1 0 0 1-1-1v-1a1 1 0 0 1 2 0v1a1 1 0 0 1-1 1m8 0a1 1 0 0 1-1-1v-1a1 1 0 1 1 2 0v1a1 1 0 0 1-1 1"/><path fill="#C1694F" d="M19 20.5a.5.5 0 0 1-.5.5h-1a.5.5 0 0 1 0-1h1a.5.5 0 0 1 .5.5"/><path fill="#292F33" fill-rule="evenodd" d="M7.657 14.788c.148.147.888.591 1.036 1.034s.445 2.954 1.333 3.693c.916.762 4.37.478 5.032.149c1.48-.738 1.662-2.798 1.924-3.842c.148-.591 1.036-.591 1.036-.591s.888 0 1.036.591c.262 1.044.444 3.104 1.924 3.841c.662.33 4.116.614 5.034-.147c.887-.739 1.183-3.25 1.331-3.694c.146-.443.888-.886 1.035-1.034c.148-.148.148-.739 0-.887c-.296-.295-3.788-.559-7.548-.148c-.75.082-1.035.295-2.812.295s-2.062-.214-2.812-.295c-3.759-.411-7.252-.148-7.548.148c-.149.148-.149.74-.001.887" clip-rule="evenodd"/><path fill="#66757F" d="M7.858 8.395S9.217-.506 13.79.023c3.512.406 4.89.825 7.833.097c1.947-.482 4.065 1.136 5.342 4.379a28 28 0 0 1 1.224 4.041s3.938-.385 4.165 1.732c.228 2.117-4.354 4.716-15.889 4.716C10 14.987 3.33 12.63 3.013 10.657s4.845-2.262 4.845-2.262"/><path fill="#292F33" d="M8.125 7.149s-.27 1.104-.406 1.871c-.136.768.226 1.296 2.705 1.824c3.287.7 10.679.692 15.058-.383c1.759-.432 2.886-.72 2.751-1.583c-.167-1.068-.196-1.066-.541-2.208c0 0-1.477.502-3.427.96c-2.66.624-9.964.911-13.481.144c-1.874-.41-2.659-.625-2.659-.625m-.136 13.954c-.354.145 2.921 1.378 7.48 1.458c4.771.084 6.234.39 5.146 1.459c-1.146 1.125-.852 2.894-.771 3.418s2.047 1.916 2.208 2.56s-1.229 5.961-1.229 5.961l-8.729-.252c-2.565-8.844-2.883-8.501-4.105-13.604c-.241-1.008 0-1 0-1"/><path fill="#66757F" d="M6.989 21.144c-.354.146 2.921 1.378 7.48 1.458c4.771.084 6.234.39 5.146 1.459c-1.146 1.125-.664 2.894-.583 3.418s1.859 1.916 2.021 2.561c.16.644-1.231 5.96-1.231 5.96l-8.729-.252c-2.565-8.844-2.883-8.501-4.105-13.604c-.24-1.008.001-1 .001-1"/><path fill="#292F33" d="M28.052 21.103c.354.145-2.921 1.378-7.479 1.458c-4.771.084-6.234.39-5.146 1.459c1.146 1.125 2.976 2.892 2.896 3.416s-4.172 1.918-4.333 2.562c-.161.645 1.229 5.961 1.229 5.961l8.729-.252c2.565-8.844 2.883-8.501 4.104-13.604c.241-1.008 0-1 0-1"/><path fill="#66757F" d="M28.958 21.103c.354.145-2.921 1.378-7.479 1.458c-4.771.084-6.234.39-5.146 1.459c1.146 1.125 2.977 2.892 2.896 3.416s-4.172 1.918-4.333 2.562c-.161.645 1.229 5.961 1.229 5.961l8.657.01c2.565-8.844 2.955-8.763 4.177-13.866c.24-1.008-.001-1-.001-1"/></svg>