<svg xmlns="http://www.w3.org/2000/svg" xmlns:xlink="http://www.w3.org/1999/xlink" width="36" height="36" viewBox="0 0 36 36"><g fill="#DD2E44"><path d="m11.83 26.822l11.18.981a.5.5 0 0 0 .542-.454l.003-.03a.5.5 0 0 0-.455-.542l-11.18-.981a.5.5 0 0 0-.542.455l-.003.03a.5.5 0 0 0 .455.541"/><path d="m23.01 27.803l-.03-.003a.503.503 0 0 1-.455-.542l.452-5.161a.503.503 0 0 1 .542-.455l.03.003a.503.503 0 0 1 .455.542l-.452 5.161a.5.5 0 0 1-.542.455m-11.062-7.809l-.03-.003a.5.5 0 0 0-.542.454l-1.048 11.977a.5.5 0 0 0 .455.542l.03.003a.5.5 0 0 0 .542-.454l1.048-11.977a.503.503 0 0 0-.455-.542"/></g><path fill="#292F33" d="M22.207 20.128c1.475-.212 2.919-.152 2.416.56S23 22.651 21.102 22.447c-1.899-.204.191-2.188 1.105-2.319"/><path fill="#292F33" d="m21.101 22.447l-10.262-.898c-1.026-.09-1.026-.09-.936-1.116a1.033 1.033 0 0 1 1.116-.936l10.262.898c.564.049.986.552.936 1.116c-.089 1.025-.089 1.025-1.116.936"/><path fill="#DD2E44" d="m21.645 22.75l-11.318-.99a.503.503 0 0 1-.455-.542l.003-.03a.503.503 0 0 1 .542-.455l11.318.99a.503.503 0 0 1 .455.542l-.003.03a.5.5 0 0 1-.542.455"/><path fill="#292F33" d="m26.074 8.654l-.898 10.262c-.09 1.026-.09 1.026-1.116.936a1.033 1.033 0 0 1-.936-1.116l.898-10.262a1.033 1.033 0 0 1 1.116-.936c1.026.09 1.026.09.936 1.116"/><path fill="#DD2E44" d="m26.525 8.167l-.99 11.318a.503.503 0 0 1-.542.455l-.03-.003a.503.503 0 0 1-.455-.542l.99-11.318a.503.503 0 0 1 .542-.455l.03.003a.503.503 0 0 1 .455.542"/><path fill="#292F33" d="m23.337 17.992l-7.78-.681c-.778-.068-.778-.068-.711-.836a.777.777 0 0 1 .845-.7l7.78.681a.78.78 0 0 1 .711.836c-.067.768-.067.768-.845.7"/><path fill="#DD2E44" d="M21.207 21.677c1.035.091 3.079.269 3.348-2.809s1.296-2.989 1.026.09s-1.966 3.964-4.464 3.746c-2.052-.18-1.963-1.206.09-1.027m-10.764-.941c2.053.171 2.464 1.255.412 1.07c-.909-.082-.991.305-1.198 1.095c-.195.743-.469 1.858-.884 3.418c-.304 1.146-1.258.734-1.006-.265c.423-1.679.822-3.142 1.083-4.072c.267-.95.517-1.336 1.593-1.246"/><g fill="#66757F"><circle cx="23.213" cy="27.244" r="1.545"/><path d="m30.161 30.661l-6.245-3.606l3.606-6.245l-.892-.515l-3.606 6.245l-6.245-3.605l-.515.892l6.245 3.605l-3.605 6.245l.892.515l3.605-6.245l6.245 3.606z"/><path d="m25.71 34.573l-1.866-6.965l6.965-1.866l-.267-.995l-6.965 1.866l-1.866-6.965l-.995.266l1.866 6.966l-6.965 1.866l.266.995l6.966-1.866l1.866 6.965z"/></g><path fill="#292F33" d="M23.213 18.488c-4.836 0-8.756 3.92-8.756 8.756S18.377 36 23.213 36s8.756-3.92 8.756-8.756s-3.92-8.756-8.756-8.756m0 15.452a6.696 6.696 0 1 1 0-13.392a6.696 6.696 0 0 1 0 13.392"/><path fill="#66757F" d="M23.213 19.518a7.726 7.726 0 1 0 0 15.452a7.726 7.726 0 0 0 0-15.452m0 14.422a6.696 6.696 0 1 1 0-13.392a6.696 6.696 0 0 1 0 13.392m-9.428-.446l-2.23-1.288l1.287-2.23l-.892-.515l-1.287 2.23l-2.231-1.288l-.515.892l2.231 1.288l-1.288 2.23l.892.515l1.288-2.23l2.23 1.288z"/><path fill="#292F33" d="M10.851 28.789a3.605 3.605 0 1 0 0 7.21a3.605 3.605 0 0 0 0-7.21m0 6.181a2.575 2.575 0 1 1 0-5.15a2.575 2.575 0 0 1 0 5.15"/><path fill="#DD2E44" d="m8.587 25.046l-.029-.008a.5.5 0 0 0-.612.354l-1.608 5.999a.5.5 0 0 0 .354.612l.029.008a.5.5 0 0 0 .612-.354l1.608-5.999a.503.503 0 0 0-.354-.612"/><path fill="#66757F" d="m6.72 32.012l-4.009-1.074a.5.5 0 0 1-.354-.612l.008-.029a.5.5 0 0 1 .612-.354l4.009 1.074a.5.5 0 0 1 .354.612l-.008.029a.5.5 0 0 1-.612.354"/><path fill="#DD2E44" d="m29 9.187l-3.073-.542a.5.5 0 0 1-.406-.579l.005-.03a.5.5 0 0 1 .579-.406l3.073.542a.5.5 0 0 1 .406.579l-.005.03a.5.5 0 0 1-.579.406"/><path fill="#292F33" d="m29.999 9.364l-2.694-.482c-.279-.049-.268-.283-.219-.562s.119-.502.398-.453l2.694.482a.517.517 0 0 1 .418.597a.517.517 0 0 1-.597.418"/></svg>