<svg xmlns="http://www.w3.org/2000/svg" xmlns:xlink="http://www.w3.org/1999/xlink" width="36" height="36" viewBox="0 0 36 36"><path fill="#FFDC5D" d="M8.564 34.087c.131.787-2.091 1.454-2.376 1.326c-.305-.137.988-.808.967-1.226c-.106-2.12-.904-1.961-.818-4.18c-.802-2.376-.735-4.653-.772-5.287c-.087-1.472 3.804.623 3.682 1.518c-.204 1.488-.663 2.321-.687 3.502c.42 1.882-.304 2.499.004 4.347m7.189-.872c.353.715.726 1.971.416 1.931c-.331-.043-1.396-.505-1.736-1.427c-.734-1.991-1.962-1.447-2.522-3.596c-1.047-1.579-2.186-3.886-2.406-4.482c-.509-1.384 3.391-1.737 3.619-.863c.5 1.914.509 3.359.829 4.496c.948 1.68.97 2.261 1.8 3.941"/><path fill="#FFDC5D" d="M5.621 26.146c-.164.146-.57.212-.669.182c-.232-.07-.745-.46-1.026-.831c-.513-.675-2.601-1.446-3.103-2.856c-.085-.238-.067-.524.118-.86c.113-.205 1.505-2.37 2.77-3.655c.336-.342 1.248-.428 1.676-.104c.427.323 1.483.579 1.233 1.04c-.811 1.497-3.441 2.342-4.119 3.194c.974.847.851 1.353 2.193 2.22c.156-.088.457-.158.538-.136c.08.022.264.154.224.397c.024.02.226.196.271.286c.126.245.107.934-.106 1.123m8.023.065c.176.132.586.163.682.125c.225-.089.703-.521.953-.914c.454-.715 2.471-1.659 2.853-3.106c.065-.244.023-.528-.19-.847c-.13-.195-1.698-2.235-3.066-3.41c-.364-.312-1.279-.322-1.679.037c-.399.358-1.433.617-1.146 1.056c.934 1.424 3.628 2.129 4.375 2.922c-.9.925-.735 1.419-2 2.396c-.163-.075-.469-.119-.547-.09a.35.35 0 0 0-.19.414c-.022.021-.209.214-.246.307c-.103.255-.027.939.201 1.11"/><path fill="#292F33" d="M15.511 18.364c-.953-1.447-2.684-1.712-3.788-1.712H9.388v.002v-.002H7.053c-1.104 0-2.835.265-3.788 1.712l2.124 2.288l.147 4.008s.028 3.179.402 4.206c.564.04 1.958.198 2.797.315c.043.006.203-1.076.509-2.106c.238.009.587-.017.803-.065c.407.69 1.073 2.028 1.101 2.002c.812-.255 2.042-.664 2.621-.928c-.084-1.174-.381-3.143-.381-3.143v-4.288z"/><path fill="#FFDC5D" d="M12.059 17.343c0-.435-.117-.692-.672-.692v-3H7.388v3c-.555 0-.672.257-.672.692c0 .239 0 2.264 2.67 2.265h.003c2.669-.001 2.67-2.026 2.67-2.265"/><path fill="#F9CA55" d="M7.379 16.242c.608.687 1.178.859 1.998.859c.819 0 1.394-.173 2.002-.859v-.812h-4z"/><path fill="#FFAC33" d="M9.888 2.652A5.47 5.47 0 0 0 6.707 3.67a3.49 3.49 0 0 0-3.319 3.482c0 1.542.007 3.484 2.038 4.207a5.48 5.48 0 0 0 4.462 2.292a5.5 5.5 0 1 0 0-10.999"/><path fill="#FFDC5D" d="M14.388 5.652h-10v6.001c0 2.762 2.238 5 5 5s5-2.237 5-5z"/><path fill="#FFAC33" d="m4.417 5.152l-.5 2l.471 2.5c2.333 0 2.85-2.412 2.965-3.488c.039 1.076.815 3.488 7.035 3.488l.529-2.5l-.5-2z"/><path fill="#C1694F" d="M11.388 14.652h-4s0 1 2 1s2-1 2-1"/><circle cx="6.888" cy="11.152" r=".5" fill="#662113"/><circle cx="11.888" cy="11.152" r=".5" fill="#662113"/><path fill="#C1694F" d="M8.388 12.652h2s0 1-1 1s-1-1-1-1"/><path fill="#292F33" d="M4.075.777c2.625-.219 3.75 2.875 3 4.25c-1.968 0-3.937-1.813-3-4.25m9.988.062c-2.625-.219-3.75 2.875-3 4.25c1.969 0 3.937-1.812 3-4.25"/><path fill="#292F33" d="M6.7 3.902c1.812-1.438 4.344-1.062 5.156.156c.031.312-.37 1.178-.688 1.031c-.812-.375-2.188-.938-4.063-.062c-.092-.063-.439-1.098-.405-1.125m7.657 29.788c-.386.475.511 1.883 1.188 2.168c.564.238 1.545.149 1.842-.446c.186-.373-1.04-1.842-1.426-1.931s.594.475-.356.564c-.684.065-1.248-.355-1.248-.355m-5.793.397c.505.435.654 1.474-1.069 1.801c-1.268.241-2.228.086-2.347-.386c-.148-.594 1.486-1.278 1.902-1.367s-.475.564.238.535c.712-.03 1.276-.583 1.276-.583"/><path fill="#FFDC5D" d="M25.647 34.087c.131.787-2.091 1.454-2.376 1.326c-.305-.137.988-.808.967-1.226c-.106-2.12-.904-1.961-.818-4.18c-.802-2.376-.735-4.653-.772-5.287c-.087-1.472 3.804.623 3.682 1.518c-.204 1.488-.663 2.321-.687 3.502c.42 1.882-.304 2.499.004 4.347m7.188-.872c.353.715.726 1.971.416 1.931c-.331-.043-1.396-.505-1.736-1.427c-.734-1.991-1.962-1.447-2.522-3.596c-1.047-1.579-2.186-3.886-2.406-4.482c-.509-1.384 3.391-1.737 3.619-.863c.5 1.914.509 3.359.829 4.496c.949 1.68.971 2.261 1.8 3.941"/><path fill="#FFDC5D" d="M22.704 26.146c-.164.146-.57.212-.669.182c-.232-.07-.745-.46-1.026-.831c-.513-.675-2.601-1.446-3.103-2.856c-.085-.238-.067-.524.118-.86c.113-.205 1.505-2.37 2.77-3.655c.336-.342 1.248-.428 1.676-.104c.427.323 1.483.579 1.233 1.04c-.811 1.497-3.441 2.342-4.119 3.194c.974.847.851 1.353 2.193 2.22c.156-.088.457-.158.538-.136c.08.022.264.154.224.397c.024.02.226.196.271.286c.125.245.106.934-.106 1.123m8.022.065c.176.132.586.163.682.125c.225-.089.703-.521.953-.914c.454-.715 2.471-1.659 2.853-3.106c.065-.244.023-.528-.19-.847c-.13-.195-1.698-2.235-3.066-3.41c-.364-.312-1.279-.322-1.679.037c-.399.358-1.433.617-1.146 1.056c.934 1.424 3.628 2.129 4.375 2.922c-.9.925-.735 1.419-2 2.396c-.163-.075-.469-.119-.547-.09a.35.35 0 0 0-.19.414c-.022.021-.209.214-.246.307c-.103.255-.026.939.201 1.11"/><path fill="#292F33" d="M32.593 18.364c-.953-1.447-2.684-1.712-3.788-1.712H26.47v.002v-.002h-2.335c-1.104 0-2.835.265-3.788 1.712l2.124 2.288l.147 4.008s.028 3.179.402 4.206c.564.04 1.958.198 2.797.315c.043.006.203-1.076.509-2.106c.238.009.587-.017.803-.065c.407.69 1.073 2.028 1.101 2.002c.812-.255 2.042-.664 2.621-.928c-.084-1.174-.381-3.143-.381-3.143v-4.288z"/><path fill="#FFDC5D" d="M29.141 17.343c0-.435-.117-.692-.672-.692v-3h-3.998v3c-.555 0-.672.257-.672.692c0 .239 0 2.264 2.67 2.265h.003c2.669-.001 2.669-2.026 2.669-2.265"/><path fill="#F9CA55" d="M24.462 16.242c.608.687 1.178.859 1.998.859c.819 0 1.394-.173 2.002-.859v-.812h-4z"/><path fill="#FFAC33" d="M26.971 2.652A5.47 5.47 0 0 0 23.79 3.67a3.49 3.49 0 0 0-3.319 3.482c0 1.542.007 3.484 2.038 4.207a5.48 5.48 0 0 0 4.462 2.292a5.5 5.5 0 1 0 0-10.999"/><path fill="#FFDC5D" d="M31.471 5.652h-10v6.001c0 2.762 2.238 5 5 5s5-2.237 5-5z"/><path fill="#FFAC33" d="m21.5 5.152l-.5 2l.471 2.5c2.333 0 2.85-2.412 2.965-3.488c.039 1.076.815 3.488 7.035 3.488l.529-2.5l-.5-2z"/><path fill="#C1694F" d="M28.471 14.652h-4s0 1 2 1s2-1 2-1"/><circle cx="23.971" cy="11.152" r=".5" fill="#662113"/><circle cx="28.971" cy="11.152" r=".5" fill="#662113"/><path fill="#C1694F" d="M25.471 12.652h2s0 1-1 1s-1-1-1-1"/><path fill="#292F33" d="M21.158.777c2.625-.219 3.75 2.875 3 4.25c-1.969 0-3.937-1.813-3-4.25m9.987.062c-2.625-.219-3.75 2.875-3 4.25c1.969 0 3.938-1.812 3-4.25"/><path fill="#292F33" d="M23.783 3.902c1.812-1.438 4.344-1.062 5.156.156c.031.312-.37 1.178-.688 1.031c-.812-.375-2.188-.938-4.063-.062c-.092-.063-.44-1.098-.405-1.125m7.656 29.788c-.386.475.511 1.883 1.188 2.168c.564.238 1.545.149 1.842-.446c.186-.373-1.04-1.842-1.426-1.931s.594.475-.356.564c-.683.065-1.248-.355-1.248-.355m-5.792.397c.505.435.654 1.474-1.069 1.801c-1.268.241-2.228.086-2.347-.386c-.149-.594 1.485-1.277 1.901-1.366s-.475.564.238.535c.713-.031 1.277-.584 1.277-.584"/></svg>