<svg xmlns="http://www.w3.org/2000/svg" xmlns:xlink="http://www.w3.org/1999/xlink" width="36" height="36" viewBox="0 0 36 36"><g fill="#66757F"><path d="m19.78 21.345l-6.341-6.342l-.389 4.38l2.35 2.351z"/><path d="M15.4 22.233a.5.5 0 0 1-.354-.146l-2.351-2.351a.5.5 0 0 1-.145-.397l.389-4.38a.5.5 0 0 1 .851-.309l6.341 6.342a.5.5 0 0 1-.31.851l-4.379.389zm-1.832-3.039l2.021 2.021l3.081-.273l-4.828-4.828z"/></g><path fill="#8899A6" d="M31 32h-3c0-3.314-2.63-6-5.875-6s-5.875 2.686-5.875 6H8.73a2 2 0 0 0-4 0a2 2 0 0 0 0 4H31a2 2 0 0 0 0-4"/><path fill="#8899A6" d="M20 10v4a7 7 0 1 1 0 14h-8.485c2.018 2.443 5.069 4 8.485 4c6.075 0 11-4.925 11-11s-4.925-11-11-11"/><path fill="#67757F" d="M16.414 30.414a2 2 0 0 1-2.828 0l-9.899-9.9a2 2 0 1 1 2.829-2.828l9.899 9.9a2 2 0 0 1-.001 2.828m-7.225-1.786a1 1 0 1 1 .278 1.98l-5.942.834a1 1 0 1 1-.277-1.981z"/><path fill="#66757F" d="m27.341 2.98l4.461 4.461l-3.806 3.807l-4.461-4.461z"/><path fill="#AAB8C2" d="M34.037 7.083a2.12 2.12 0 0 1-2.997 0l-3.339-3.34A2.12 2.12 0 0 1 30.696.747l3.342 3.34a2.12 2.12 0 0 1-.001 2.996m-14.56 15.026l-6.802-6.803a1.003 1.003 0 0 1 0-1.414l9.858-9.858a1.003 1.003 0 0 1 1.414 0l6.801 6.803a1.003 1.003 0 0 1 0 1.414l-9.858 9.858a1 1 0 0 1-1.413 0"/><path fill="#E1E8ED" d="m13.766 12.8l1.638-1.637l8.216 8.216l-1.638 1.637z"/></svg>