<svg xmlns="http://www.w3.org/2000/svg" xmlns:xlink="http://www.w3.org/1999/xlink" width="36" height="36" viewBox="0 0 36 36"><path fill="#662113" d="M16.706 16.113c0 4.483-2.554 2.038-5.706 2.038c-3.151 0-5.706 2.446-5.706-2.038C5.294 13.187 7.849 10 11 10s5.706 3.187 5.706 6.113M5.074 8.037c.393 1.335.007 2.625-.862 2.881c-.87.256-1.893-.619-2.286-1.955c-.393-1.335-.008-2.625.862-2.881s1.893.619 2.286 1.955m15 .944c-.407 1.332-1.442 2.196-2.312 1.93s-1.244-1.561-.837-2.893s1.442-2.196 2.312-1.93s1.244 1.561.837 2.893M9.964 4.122c.366 1.898-.217 3.606-1.302 3.815c-1.084.208-2.26-1.161-2.625-3.059c-.367-1.898.216-3.606 1.301-3.815s2.261 1.161 2.626 3.059m5.996.778c-.387 1.894-1.578 3.25-2.66 3.029s-1.646-1.936-1.259-3.83s1.578-3.25 2.66-3.029s1.645 1.936 1.259 3.83m14.746 27.213c0 4.483-2.555 2.038-5.706 2.038s-5.706 2.445-5.706-2.038C19.294 29.188 21.849 26 25 26s5.706 3.188 5.706 6.113m-11.632-8.077c.394 1.336.007 2.626-.862 2.882c-.87.256-1.893-.619-2.286-1.954c-.393-1.336-.007-2.626.862-2.882c.87-.256 1.893.619 2.286 1.954m15 .945c-.407 1.332-1.442 2.196-2.312 1.93s-1.244-1.561-.837-2.892c.407-1.332 1.442-2.196 2.312-1.93c.869.265 1.244 1.56.837 2.892m-10.11-4.859c.365 1.897-.218 3.606-1.302 3.814s-2.261-1.16-2.626-3.059c-.365-1.898.218-3.606 1.302-3.815c1.085-.208 2.261 1.162 2.626 3.06m5.996.778c-.388 1.893-1.578 3.25-2.66 3.029s-1.647-1.937-1.26-3.83c.388-1.894 1.578-3.25 2.66-3.029s1.647 1.937 1.26 3.83"/></svg>