<svg xmlns="http://www.w3.org/2000/svg" xmlns:xlink="http://www.w3.org/1999/xlink" width="36" height="36" viewBox="0 0 36 36"><path fill="#F3D2A2" d="m15.087 24.856l-1.728-3.593c-.428.233-2.257 1.253-3.35 2.237c-.635.572-.549 1.002-.36 1.944l.017.085c.189.952 2.205 7.351 2.47 8.187l1.345-.334c.011-.446-.04-2.803-.272-4.27c-.073-.463-.147-1.025-.214-1.522c-.071-.543-.263-1.087-.309-1.323c-.064-.334.13-.493.433-.64c.862-.417 1.715-.66 1.968-.771m8.793 1.905c-.546-.067-1.107-.08-1.346-.095c-.339-.021-.577-.253-.643-.584c-.188-.939-.225-1.767-.268-2.039l-3.912.767c.118.473.644 2.5 1.322 3.806c.393.757.831.782 1.79.838l.087.005c.975.057 7.669-.284 8.545-.329l.015-1.385c-.43-.124-2.59-.664-4.069-.808c-.464-.045-1.025-.115-1.521-.176"/><path fill="#8899A6" d="m27.805 29.682l-.178-.328a.1.1 0 0 1 .058-.132c.171-.059.518-.217.639-.281c-.105.24-.225.624-.359.74c-.052.043-.134.063-.16.001"/><path fill="#DD551F" d="M30.398 27.138c-.139-.111-.457-.166-.657-.185a7 7 0 0 0-.799-.008a2 2 0 0 0-.355.043a.62.62 0 0 0-.332.198c-.057.069-.062.144-.049.181c.052.153.304.418.414.67a.5.5 0 0 1 .05.243c-.027.276-.379.678-.643.976c-.158.179-.285.32-.29.375a.27.27 0 0 0 .037.158v.002c.072.132.229.269.337.629c.069.232.395 1.291.395 1.291c.078.27.182.336.226.481c.091.297.251 1.094.331 1.346s.271.36.418.381s.232-.014.232-.014s.345-.155.574-1.449c.165-.935.019-1.079-.105-2.483s.216-2.835.216-2.835"/><path fill="#FA743E" d="M30.109 29.226c-.235-.096-.771-.45-.922-.831c-.136-.344-.229-1.273-.246-1.449c.288-.026.731-.007.873.007c.188.018.404.033.534.143l.05.043c0-.001-.229 1.473-.289 2.087"/><path fill="#CCD6DD" d="M28.048 30.27a.19.19 0 0 1-.175-.111a.193.193 0 0 1 .092-.258l.342-.162a.195.195 0 0 1 .259.092a.193.193 0 0 1-.092.258l-.342.162a.2.2 0 0 1-.084.019m.218.625a.2.2 0 0 1-.185-.135a.195.195 0 0 1 .126-.244l.38-.121a.194.194 0 0 1 .117.37l-.38.121a.2.2 0 0 1-.058.009m.184.637a.193.193 0 0 1-.038-.384l.356-.072a.19.19 0 0 1 .229.152a.194.194 0 0 1-.152.229l-.356.072zm2.776-4.13c-.006-.028-.027-.137-.101-.27c-.025-.045-.082-.059-.14-.066c-.072-.009-.6-.085-.61.022c0 0-.003.159-.077.268c-.075.109-.127.377-.146.577s-.105.951-.085 1.478c.02.528.183 1.482.19 1.8s0 .814-.068 1.18s-.14.692-.196.893a1.9 1.9 0 0 1-.279.619s.417-.028.736-.645c.252-.487.393-.955.446-1.411c.004-.035.113-1.252.165-1.86c.038-.445.102-1.155.102-1.155c.081-.841.1-1.269.063-1.43"/><path fill="#8899A6" d="m11.211 32.283l.269-.259a.1.1 0 0 1 .143.021c.102.149.348.441.441.541c-.26-.037-.661-.051-.809-.149c-.056-.038-.096-.112-.044-.154"/><path fill="#DD551F" d="M14.355 34.104c.07-.163.038-.485.003-.683a7 7 0 0 0-.206-.772a2 2 0 0 0-.136-.33c-.108-.176-.212-.237-.28-.267c-.082-.036-.155-.022-.188.001c-.134.091-.322.405-.535.578a.5.5 0 0 1-.22.113c-.273.048-.755-.184-1.112-.359c-.214-.105-.385-.189-.438-.18a.27.27 0 0 0-.143.078l-.002.001h.001c-.108.104-.199.293-.516.492c-.206.128-1.14.724-1.14.724c-.24.147-.275.265-.403.346c-.262.167-.987.534-1.209.678a.523.523 0 0 0-.179.725s.242.291 1.549.166c.945-.09 1.045-.269 2.365-.763c1.32-.493 2.789-.548 2.789-.548"/><path fill="#FA743E" d="M12.266 34.382c.03-.252.228-.863.555-1.11c.295-.222 1.166-.56 1.331-.624c.102.271.202.703.226.843c.033.186.076.398.004.553l-.028.059c.001.001-1.481.173-2.088.279"/><path fill="#CCD6DD" d="M11.144 33.103a.2.2 0 0 1-.147-.067l-.247-.287a.195.195 0 0 1 .294-.254l.247.287a.195.195 0 0 1-.147.321m-.575.425a.2.2 0 0 1-.163-.088l-.218-.334a.195.195 0 0 1 .326-.213l.218.334a.195.195 0 0 1-.163.301m-.617.337a.2.2 0 0 1-.173-.106l-.165-.324a.194.194 0 1 1 .346-.176l.165.324a.195.195 0 0 1-.173.282m4.369 1.108c.026-.014.125-.062.234-.17c.036-.036.035-.095.026-.153c-.01-.072-.078-.601-.184-.582c0 0-.154.04-.279-.003s-.398-.021-.595.013c-.197.035-.944.152-1.447.312s-1.379.571-1.684.664c-.305.092-.784.217-1.156.249s-.705.05-.913.049a1.9 1.9 0 0 1-.671-.103s.138.394.818.537a4.1 4.1 0 0 0 1.479.053c.034-.005 1.237-.225 1.836-.337c.439-.082 1.14-.21 1.14-.21c.833-.146 1.25-.241 1.396-.319"/><path fill="#C63900" d="M12.654 21.244c.751-.398 3.235-1.653 4.947-1.804a.35.35 0 0 1 .352.235l1.328 3.635a.345.345 0 0 1-.216.451c-.781.25-2.74.915-4.22 1.719a.34.34 0 0 1-.448-.106c-.456-.664-1.642-2.477-1.923-3.76a.34.34 0 0 1 .18-.37"/><path fill="#DD551F" d="M17.514 25.488c-.196-.827-.785-3.547-.501-5.242a.35.35 0 0 1 .316-.281l3.853-.37a.345.345 0 0 1 .382.323c.046.818.196 2.882.601 4.517a.34.34 0 0 1-.216.407c-.758.274-2.811.965-4.123.914a.34.34 0 0 1-.312-.268"/><path fill="#F3D2A2" d="M15.015 10.618c-.085.612.05 1.546 1.466 1.787s2.812.059 3.411-.108s.569.884.747 1.872c.179.992.301 1.768.252 1.973c-.082.347-.809 1.011-.517 1.612s.757 1.179 1.332.962s1.05-.475 1.203-.797s-.525-1.295-.552-1.574c-.027-.278.227-3.888.194-4.298c-.04-.501-.078-1.187-.896-1.47c-.818-.284-4.094-.92-4.915-1.079c-.942-.185-1.612.309-1.725 1.12M13.826.971C11.981.781 9.725 2.34 9.867 4.376c.198 2.841 2.368 4.687 4.011 4.031c1.723-.688 2.703-1.387 2.911-3.417c.21-2.03-1.117-3.829-2.963-4.019"/><path fill="#F3D2A2" d="M16.449 5.593c1.625-3.518-4.125-1.612-4.125-1.612c-1.092.348.181 1.974-.058 3.122c-.162.794 1.439.743 1.439.743s.685-.202.955.622l.002.008c.068.21.116.469.111.834c-.027 1.808 2.503 2.205 2.528.394c.01-.717-.229-1.278-.478-1.788l-.022-.045c-.372-.76-.753-1.408-.352-2.278"/><path fill="#FFE51E" d="M16.079.962c-1.13-.88-4.156-1.091-5.51.802c-1.269.129-1.411 1.408-1.123 2.041c.23.506 1.567.279 2.173 1.192c.156-.315.072-.847-.054-1.109c.525.283.637 1.379 2.455 1.608c1.757.221 1.867 1.688 1.867 1.688s.719-.623 1.109-1.451c.745-1.582.329-3.8-.917-4.771"/><path fill="#FA743E" d="M19.459 10.057c-.77-1.644-2.017-2.56-3.384-1.957c-1.809.799-2.443 2.756-2.332 4.652c.122 2.065 1.556 3.924 1.551 7.601c0 0 3.109.449 6.316.36c0 0-.298-6.699-2.151-10.656"/><path fill="#F3D2A2" d="M16.94 10.268c-.577-.345-1.462-.572-2.304.745s-1.187 2.756-1.447 3.433c-.243.632-1.127.196-2.194-.045c-1.07-.242-2.429-.654-2.614-.79c-.313-.229-.199-.874-.925-.837s-1.083-.047-1.11.622c-.026.669-.035 1.339.222 1.629c.258.29 1.127.04 1.516.177c.287.101 3.803 1.876 4.228 2.017c.519.172 1.223.425 1.854-.275s2.658-3.714 3.167-4.47c.584-.867.373-1.748-.393-2.206"/></svg>