<svg xmlns="http://www.w3.org/2000/svg" xmlns:xlink="http://www.w3.org/1999/xlink" width="36" height="36" viewBox="0 0 36 36"><path fill="#D4AB88" d="M23.331 31.571c-.397-.703-2.062-3.517-2.271-4.202c-.208-.688-.65-5.92-.425-8.497c0 0-4.17-2.707-3.805.281c.371 3.032 1.247 8.775 1.412 9.329c.166.552 2.589 3.442 3.342 4.393c.417.527 2.093-.693 1.747-1.304"/><path fill="#8E9195" d="M20.952 18.872c-.15 1.459-.079 4.396 0 6.047c.037.776-3.354 2.279-3.464 1.39c-.258-2.085-.748-5.292-1.016-7.156z"/><path fill="#B7C0C1" d="M17.407 25.676a13 13 0 0 0 3.527-1.199a85 85 0 0 1-.038-1.12a12 12 0 0 1-3.621 1.33z"/><path fill="#A0A7AD" d="M19.084 26.313c-.283-2.525-.718-6.65-.761-7.178l-.996.082c.017.2.491 4.733.785 7.355c.278-.028.621-.124.972-.259m.555-.242c.371-.184.712-.397.954-.607c-.16-2.229-.371-5.431-.437-6.542l-.996.063c.075 1.173.317 4.856.479 7.086"/><path fill="#66757F" d="M12.115 3.532L9.502 2.113c-.449-.249.029-1.303.479-1.054l2.692 1.466z"/><path fill="#D4AB88" d="M19.75 18.094c-.519-2.866-5.22.469-5.22.469s-1.768 8.649-1.768 9.48c0 .828.914 4.528 1.165 5.856c.084.439 2.633.614 2.523-.354c-.069-.599-.517-4.492-.444-4.948c.073-.458.452-2.888 1.109-4.426c.47-1.1 3.328-2.249 2.635-6.077"/><path fill="#CCD6DD" d="M16.492 33.744c-.658-.864-4.719.256-6.118.957C9.44 35.17 9.717 36 9.717 36h7.033s.399-1.391-.258-2.256"/><path fill="#CC9B7A" d="M20.357 8.932c-2.148-1.12-5.023-2.745-7.273-5.713c-.235-.31-2.122.944-1.969 1.156c2.125 2.938 4.438 5.5 11.075 7.398c.069.02-.943-2.376-1.833-2.841"/><path fill="#A0A7AD" d="M20.214 21.561c.649-.842 1.058-1.939.713-3.468l-7.264.55s-1.247 4.619-1.559 7.508c-.104.963 4.067 1.474 4.307.602c.204-.743.476-1.583.813-2.291c.318-.914 2.354-1.993 2.99-2.901"/><path fill="#CCD6DD" d="M19.198 22.592c.4-.332.798-.711 1.122-1.166c-3.304.609-5.535-.062-7.198-.634c-.061.324-.182.743-.255 1.103c1.255.419 2.721.779 4.84.779c.476 0 .977-.032 1.491-.082m-2.604 3.518c.104-.338.225-.678.354-1.01c-1.907.06-3.431-.315-4.597-.645c-.049.319-.135.829-.176 1.046c1.118.31 2.577.612 4.318.612z"/><path fill="#B7C0C1" d="M14.2 18.73c-.046.218-1.067 5.711-1.476 8.054c.269.117.604.213.962.283c.377-2.18 1.368-7.533 1.493-8.132zm3.488-.184l-.996-.092c-.001.014-.133 1.436-.312 2.322c-.051.253-.123.534-.198.819a27 27 0 0 1-.28.972c-.25.814-.54 1.67-.815 2.472l-.001.004a64 64 0 0 0-.67 2.128c.367.033.723.037 1.035.008c.267-.867.652-2.019.671-2.076c.276-.805.557-1.647.799-2.454q.153-.512.274-.989c.059-.234.122-.472.165-.686c.189-.939.322-2.368.328-2.428m1.709.507c0 .629-.265 1.913-.503 2.56c-.045.121-.841 1.651-.985 1.979c.359-.293.828-.617 1.298-1.008q.303-.25.59-.543c.065-.167.128-.359.187-.566c.238-.832.413-1.886.413-2.422z"/><path fill="#D4AB88" d="M25.376 5.216a3.578 3.578 0 1 1-7.157.001a3.578 3.578 0 0 1 7.157-.001"/><path fill="#FA743E" d="M13.662 18.644s-.429-6.864 2.639-9.231c2.289-1.768 6.143-.446 7.165 1.599c1.024 2.045-2.874 3.118-2.414 8.28c.092 1.019-7.39 1.356-7.39-.648"/><path fill="#D4AB88" d="M20.179 5.813c-.466 1.068-.788 1.977-.988 2.783c.574.271 1.061 1.31 1.701 1.542c1.056.383 1.173-.277 1.197-.398c.257-1.297.908-2.537 1.328-3.203c.512-.809-2.646-2.084-3.238-.724"/><path fill="#963B22" d="M25.376 5.605c0 2.131-1.461 2.973-2.328 3.189s-2.147-.618-2.849-1.621c-.74-1.058-1.177-2.188-.124-3.2c1.053-1.011-.14-.241-.599.204c-.535.519-.535 1.447-.535 1.447s-1.16-1.234-.357-2.6s4.091-.123 4.545.145c.455.269 2.247 2.436 2.247 2.436"/><path fill="#8E9195" d="M19.929 5.215c-1.71-1.278-2.587-3.85-1.95-4.525c1.196-1.268 3.688-.109 4.328.983c.641 1.094-1.86 3.929-2.378 3.542"/><path fill="#A0A7AD" d="M18.942 3.06c0 1.151 1.674 4.486 4.971 4.473c1.727-.007 2.037-1.91 2.028-3.172c-.006-1.081-1.176-2.966-2.808-3.433s-4.191.679-4.191 2.132"/><path fill="#CCD6DD" d="M22.887 31.456c1.5-.255 1.286 1.386 1.247 1.974c-.093 1.4-.37 2.57-1.362 2.57h-3.321s-.184-1.522 1.603-1.868c.353-.069-.312-2.312 1.833-2.676"/><path fill="#D4AB88" d="M13.63 8.191c-.717-.828-.977-1.983-.796-3.425a1.65 1.65 0 0 0 1.006-1.503c0-.913-.763-1.652-1.705-1.652c-.94 0-1.704.739-1.704 1.652c0 .206.044.402.115.584c-.005.007-.026.004-.028.014c-.871 7.123 4.099 7.824 5.732 8.055c.101.014 1.768-2.244 1.666-2.244c-1.993 0-3.435-.498-4.286-1.481"/><path fill="#FA743E" d="M14.445 8.385c-.384 1.283-1.605 2.723-1.605 2.723c1.765 1.579 3.844 1.719 3.844 1.719s1.818-2.049 2.159-3.28c-1.551.432-4.398-1.162-4.398-1.162"/><path fill="#66757F" d="M29.589 11.917c-.013-.006-.024-.007-.037-.012c-.049-.036-.091-.076-.147-.107l-15.62-8.65c-.449-.249-.706.926-.257 1.175l14.883 8.24c-.436.748-.717 1.871-.827 2.339c-.189.805 1.137 1.61 2.004 1.61c.867.001 1.027-4.072.001-4.595"/></svg>