<svg xmlns="http://www.w3.org/2000/svg" xmlns:xlink="http://www.w3.org/1999/xlink" width="36" height="36" viewBox="0 0 36 36"><path fill="#F3D2A2" d="M30.5 14c-.428 0-.824.188-1.177.491C27.69 8.459 23.244 4.125 18 4.125S8.309 8.46 6.676 14.49C6.324 14.188 5.928 14 5.5 14C4.119 14 3 15.79 3 18s1.119 4 2.5 4c.225 0 .438-.062.646-.151C7.006 29.287 11.978 35 18 35s10.993-5.713 11.854-13.152c.208.09.421.152.646.152c1.381 0 2.5-1.791 2.5-4s-1.119-4-2.5-4"/><path fill="#DD2E44" d="M6 12.11C6 7.055 10.958 1 18 1s12 6.056 12 11.111C30 12.833 25.041 15 18 15S6 12.833 6 12.11"/><path fill="#C1694F" d="M18 31c-2.21 0-4.357-1.06-4.447-1.105a1 1 0 0 1 .893-1.79c.018.009 1.824.895 3.554.895s3.536-.886 3.554-.896a1 1 0 0 1 .894 1.79C22.356 29.94 20.211 31 18 31m1-5h-2a1 1 0 1 1 0-2h2a1 1 0 1 1 0 2"/><path fill="#77B255" d="M18 1s5 4 6 8c.97 3.88 0 7 0 7H12s-1-3 0-7s6-8 6-8"/><path fill="#414042" d="M6 11s3 3 12 3s12-3 12-3s1 2 0 3s-4 3-12 3s-11-2-12-3s0-3 0-3"/><ellipse cx="18" cy="1" fill="#414042" rx="2" ry="1"/><ellipse cx="18" cy="11" fill="#FFD983" rx="3" ry="2"/><path fill="#662113" d="M13 22a1 1 0 0 1-1-1v-2a1 1 0 0 1 2 0v2a1 1 0 0 1-1 1m10 0a1 1 0 0 1-1-1v-2a1 1 0 1 1 2 0v2a1 1 0 0 1-1 1"/></svg>