<svg xmlns="http://www.w3.org/2000/svg" xmlns:xlink="http://www.w3.org/1999/xlink" width="36" height="36" viewBox="0 0 36 36"><path fill="#F4ABBA" d="M33.738 20.368c-.799-5.543-5.186-9.78-12.562-9.78c-.293 0-.621.012-.964.03a25.5 25.5 0 0 0-4.399.56a34 34 0 0 0-2.253.514c-.775-1.051-2.342-2.163-2.736-2.163c-.512 0-.038 1.871-.006 3.052c-.88.349-1.685.742-2.347 1.183c-3.177 2.118-3.177 3.177-6.838 3.177c-1.632 0-1.588 1.658-1.588 3.705c0 2.046-.044 2.618 1.588 3.707c2.183 1.456 4.731 3.612 7.952 5.386C11.608 32.886 9.91 36 11.648 36c1.226 0 2.807-1.964 3.647-3.944c1.788.474 3.732.769 5.881.769c1.142 0 2.204-.089 3.201-.245c.272 1.944-.16 3.42 1.035 3.42c1.555 0 6.998-4.994 8.218-11.29c.06-.287.103-.582.142-.882c.012-.09.028-.18.038-.271c.021-.199.03-.404.041-.608c1.046.275 2.149.693 2.149-.175c0-.705-1.119-1.715-2.262-2.406"/><path fill="#292F33" d="M10.588 16.941a1.06 1.06 0 1 1-2.119 0a1.06 1.06 0 0 1 2.119 0"/></svg>