<svg xmlns="http://www.w3.org/2000/svg" xmlns:xlink="http://www.w3.org/1999/xlink" width="36" height="36" viewBox="0 0 36 36"><path fill="#9266CC" d="M2 11c-2 0-2 2-2 2v21s0 2 2 2h32c2 0 2-2 2-2V13s0-2-2-2z"/><path fill="#CBB8E9" d="M2 6C0 6 0 8 0 8v20s0 2 2 2h32c2 0 2-2 2-2V8s0-2-2-2z"/><circle cx="25" cy="18" r="6.5" fill="#AA8DD8"/><path fill="#9266CC" d="M33 28.5H3c-.827 0-1.5-.673-1.5-1.5V9c0-.827.673-1.5 1.5-1.5h30c.827 0 1.5.673 1.5 1.5v18c0 .827-.673 1.5-1.5 1.5M3 8.5a.5.5 0 0 0-.5.5v18c0 .275.225.5.5.5h30c.275 0 .5-.225.5-.5V9a.5.5 0 0 0-.5-.5z"/><path fill="#FFE8B6" d="M14 6h8v24.062h-8z"/><path fill="#FFAC33" d="M14 30h8v6h-8z"/><path fill="#9266CC" d="M9.308 17.315c.439 0 .755.228.755.72s-.316.72-.755.72H7.393c.053.299.123.632.123 1.159c0 .826-.544 2.09-1.51 2.951h5.919c.44 0 .756.228.756.72s-.316.721-.756.721H4.9c-.491 0-.931-.123-.931-.738c0-.754 2.002-1.58 2.002-3.67c0-.316-.018-.755-.123-1.142H4.074c-.439 0-.755-.228-.755-.72s.316-.72.755-.72h1.353c-.421-.755-.86-1.581-.86-2.511c0-1.845 1.809-3.109 3.793-3.109c2.09 0 4.022 1.722 4.022 3.109c0 .474-.298.755-.737.755c-1.177 0-.562-2.424-3.268-2.424c-1.142 0-2.266.615-2.266 1.774c0 .931.527 1.633.931 2.406z"/></svg>