<svg xmlns="http://www.w3.org/2000/svg" xmlns:xlink="http://www.w3.org/1999/xlink" width="36" height="36" viewBox="0 0 36 36"><circle cx="18" cy="18" r="17" fill="#F4900C"/><path fill="#FFF" d="m15.272 21.598l-3.85 6.427c.278.183.561.36.854.519A11.9 11.9 0 0 0 18 30c2.078 0 4.033-.532 5.739-1.464c.293-.16.576-.336.854-.519l-3.855-6.427a4.5 4.5 0 0 1-2.738.942a4.5 4.5 0 0 1-2.728-.934m.847-7.71l-3.854-6.425q-.439.242-.854.52a11.99 11.99 0 0 0-5.385 9.518c-.008.166-.026.33-.026.499s.018.333.025.5h7.493c-.018-.166-.05-.329-.05-.5a4.53 4.53 0 0 1 2.651-4.112M22.532 18c0 .171-.032.334-.05.5h7.493c.007-.167.025-.331.025-.5s-.018-.333-.025-.5a11.99 11.99 0 0 0-5.382-9.516a13 13 0 0 0-.854-.52l-3.85 6.427A4.53 4.53 0 0 1 22.532 18"/><circle cx="18" cy="18" r="2" fill="#FFF"/></svg>