<svg xmlns="http://www.w3.org/2000/svg" xmlns:xlink="http://www.w3.org/1999/xlink" width="36" height="36" viewBox="0 0 36 36"><path fill="#66757F" d="M27.295 7.526c-1.152-3.054-2.65-6.8-8.299-6.915c-1.759-.036-1.52.539-.347 1.02c2.248.922-2.474 5.438 4.759 7.4c5.648 1.531 5.039 1.549 3.887-1.505"/><path fill="#99AAB5" d="M36.004 3.903c-7.737 0-14.411 2.514-18.105 5.757c-4.875 4.28-5.38 10.306-14.034 15.66c-2.847 1.761-.423 7.517 1.153 9.618c1.908 2.544 28.617.238 30.987-8.777z"/><path fill="#66757F" d="M8.676 29.652c1.011.507 1.787 1.051 1.318 1.986c-.469.936-1.173.25-2.185-.257c-1.012-.508-2.285-.018-1.816-.954s1.672-1.281 2.683-.775M34.202 6.326c.238-2.563-2.178-4.999-5.95-5.906c-1.685-.406-3.281-.35-2.345.478c1.793 1.585-.082 4.006 1.274 7.124c.728 1.674 3.238 3.753 4.719 3.82c1.056.048 2.054-2.847 2.302-5.516"/><path fill="#99AAB5" d="M33.247 6.326c.238-2.563-2.272-5.445-6.17-6.007c-1.715-.247-2.287.087-1.351.914c1.793 1.585-.638 3.627.718 6.745c.728 1.674 3.393 3.84 4.875 3.907c1.055.049 1.68-2.89 1.928-5.559"/><path fill="#CCD6DD" d="M2.639 26.898C.087 22.915-.988 14.927 1.147 9.301c.321-.845 1.083-1.071 1.179.13c.181 2.282 2.417 6.833 7.966 10.968c1.241.924-5.713 9.527-7.653 6.499"/><path fill="#CCD6DD" d="M13.248 15.387c-2.048-.852-3.609-3.189-4.092-4.661c-.577-1.758-2.152 3.927.852 8.892c1.207 1.993 4.653-3.644 3.24-4.231"/><circle cx="16.789" cy="21.006" r="2" fill="#292F33"/><path fill="#E6AAAA" d="M30.293 9.41c1.331.105 1.954-1.737 1.216-4.69c-.644-2.576-4.252-3.248-4.227-3.069s1.057 1.549.014 2.939c-1.014 1.352 1.347 4.69 2.997 4.82"/></svg>