<svg xmlns="http://www.w3.org/2000/svg" xmlns:xlink="http://www.w3.org/1999/xlink" width="36" height="36" viewBox="0 0 36 36"><path fill="#99AAB5" d="M10.746 21.521c1.668 0 7.43 4.345 7.427 9.701c.003 5.358-14.853 5.358-14.854-.001c.001-5.356 5.759-9.7 7.427-9.7"/><path fill="#CCD6DD" d="M8.541 25.182c8.839 8.84 17.337 5.163 20.033 2.469c2.695-2.696-.158-9.916-6.371-16.129C15.988 5.308 8.767 2.455 6.072 5.15S-.299 16.343 8.541 25.182"/><path fill="#66757F" d="M12.443 21.278c6.214 6.214 13.434 9.066 16.13 6.372c2.695-2.696-.158-9.916-6.371-16.129C15.988 5.308 8.767 2.455 6.072 5.15s.158 9.916 6.371 16.128"/><path fill="#CCD6DD" d="M22.202 11.521a1.14 1.14 0 0 1 0 1.607l-7.233 7.231a1.136 1.136 0 1 1-1.607-1.607l7.232-7.231a1.137 1.137 0 0 1 1.608 0"/><path fill="#CCD6DD" d="M23.809 9.915a2.274 2.274 0 1 1-3.217 3.214a2.274 2.274 0 0 1 3.217-3.214"/><path fill="#FFAC33" d="m28.287 13.078l-.051-.001a1 1 0 0 1-.949-1.048c.001-.016.063-2.157-1.58-3.8c-1.638-1.637-3.772-1.579-3.801-1.58a1 1 0 1 1-.1-1.997c.122-.012 3.028-.123 5.314 2.163c2.287 2.288 2.17 5.191 2.164 5.314a1 1 0 0 1-.997.949"/><path fill="#FFAC33" d="M31.846 12.522q-.165 0-.33-.057a1 1 0 0 1-.613-1.274c.034-.107.893-2.876-2.195-5.963c-3.126-3.127-6.126-2.414-6.252-2.382a1.003 1.003 0 0 1-1.216-.715a.995.995 0 0 1 .701-1.217c.17-.046 4.205-1.077 8.181 2.901c4.016 4.014 2.726 7.876 2.668 8.039c-.144.41-.531.668-.944.668"/><path fill="#66757F" d="M10.914 32.521c-2.9 0-5.543-.658-7.566-1.737c-.008.146-.029.29-.029.438c.001 5.359 14.857 5.359 14.854.001c0-.09-.015-.177-.018-.266c-1.977.976-4.496 1.564-7.241 1.564"/></svg>