<svg xmlns="http://www.w3.org/2000/svg" xmlns:xlink="http://www.w3.org/1999/xlink" width="36" height="36" viewBox="0 0 36 36"><path fill="#D99E82" d="M28.048 33.061c3.843 1.9 6.261-2.333 4.773-4.752c-1.204-1.957-3.696-1.547-3.256-2.047c.698-.791 2.665-1.138 4.558.093c1.86 1.209 2.372 5.116.512 7.07c-1.59 1.67-6.038 2.588-8.512-.326c-4.719-5.558-1.273-1.619 1.925-.038"/><path fill="#C1694F" d="M12.203 21.604s1.263 3.215 4.339 6.1c-3.174 2.721-1.395 4.884.261 5.508c-1.656.527-1.282 2.047-.731 2.047h2.646c.951 0 1.092-3.442.206-7.694c-.885-4.251-6.721-5.961-6.721-5.961"/><path fill="#C1694F" d="M9.635 21.739s.393 3.057.279 6.593c-.07 2.163-.384 3.93-.612 4.866c-1.812 0-1.652 2.064-1.268 2.064h2.902c.683 0 1.893-3.438 2.212-8.209c.317-4.771-3.513-5.314-3.513-5.314"/><path fill="#D99E82" d="M25.448 21.797c-2.407-3.139-4.928-5.403-8.368-8.165c-2.401-1.928-2.514-5.196-2.514-6.029c0-3.626-3.244-5.455-6.496-4.229c-.779.293-1.402 1.33-1.754 1.872c-1.978 3.037-4.659.015-4.918 2.822c-.313 3.395 1.721 4.534 5.051 4.821c1.892.163 2.425 1.069 2.838 5.018c.154 1.472-.433 3.802 1.411 5.822c.78 2.959.507 7.08-.091 9.756c-2.252.476-1.341 2.179-1.341 2.179s2.858-.043 3.543-.043c.814 0 2.146-5.639 1.849-9.067c.942 1.151 1.517 1.762 2.581 2.267c-1.116 1-1.081 2.512-.523 3.419c.467.759 1.326.872 2.147 1.22c-1.602.52-1.091 1.732-.909 2.122c1.083-.043 7.918-.043 8.197-.043c1.11 0 2.985-2.503 2.897-5.488c-.078-2.64-1.581-5.62-3.6-8.254"/><path fill="#F4C7B5" d="M18.114 28.212c-.145-.109-.374-.234-.7-.385c-.985-.456-2.076-1.517-2.791-2.18c.019.346.026.707.035.907c.942 1.151 1.517 1.762 2.581 2.267c.143-.192.461-.405.875-.609"/><path fill="#C1694F" d="M16.425 29.076c.93-1.419 3.988-1.93 6.081-1.686c0 0-5.452.086-6.058 2.663c-.371 1.582-.857.295-.023-.977"/><path fill="#C1694F" d="M16.52 32.572c.488.556 1.208 1.341 2.13.959c1.08-.449 2.235-.228 3.718-.245c0 0-.04-.248-.89-.227c-2.093.052-4.587.105-5.093-1.587c-.466-1.557-.868-.043.135 1.1"/><path fill="#F4C7B5" d="M10.665 23.689c-1.065-4.822.12-9.98-3.638-10.713c1.428.317 1.893 1.42 2.259 4.931c.154 1.463-.422 3.772 1.379 5.782"/><path fill="#272B2B" d="M2.503 8.326c-.109.762-.494 1.192-.879 1.133C.864 9.342.232 8.372.232 7.603s.624-.963 1.392-.928c1.043.048 1.002.788.879 1.651"/><path fill="#662113" d="M15.167 9.495c.348 2.515-1.157 2.898-2.383 2.898s-3.054-1.25-2.748-3.77c.134-1.107.555-2.193.809-3.175c.336-1.303 1.199-1.732 1.894-1.367c1.665.873 2.203 3.796 2.428 5.414"/><circle cx="8.069" cy="6.675" r=".928" fill="#292F33"/><circle cx="3.053" cy="10.503" r=".488" fill="#C1694F"/><circle cx="3.695" cy="9.804" r=".269" fill="#C1694F"/><circle cx="4.1" cy="10.503" r=".269" fill="#C1694F"/><path fill="#A0041E" d="M16.873 13.091c-.461 0-.746-.018-.797-.021a.5.5 0 0 1-.465-.533a.49.49 0 0 1 .532-.465c.056.002 5.985.36 10.488-2.668C31.069 6.42 31.472.979 31.476.925a.5.5 0 0 1 .998.063c-.016.243-.43 5.981-5.284 9.246c-3.833 2.576-8.477 2.857-10.317 2.857"/><path fill="#292F33" d="M8.588 14.077c1.116-.14 4.486-.19 7.023-2.093c.558-.419 1.326.913.93 1.163c-3.209 2.023-6.965 2.279-7.814 2.279c-.464-.001-.73-1.276-.139-1.349m.628 3.602c.844.244 2.594.28 3.39.235s6.165-.723 6.165-.723l.189 1.445s-5.659.826-6.554.943s-3.1.802-3.1.802s-.255-.615-.32-1.289c-.065-.684.23-1.413.23-1.413m10.929 4.999l1.377.958s-2.545 3.872-4.874 5.086l-1.249-1.237s1.303-.867 2.439-2.099a54 54 0 0 0 2.307-2.708"/><path fill="#A0041E" d="M19.472 14.821c1.485 1.412 4.14 4.233 5.953 6.558c.389.499-.791 1.488-1.349 2.14s-2.437 2.632-3.581 1.442c-1.163-1.209-3.256-3.163-4.791-4.698c-1.079-1.079-1.007-2.648-.093-3.349c.591-.453 1.302-1.349 1.256-2.465c-.019-.458.151-.964.558-.977c.453-.014 1.186.53 2.047 1.349"/><path fill="#F4ABBA" d="M16.109 16.439c2.116 1.975 5.568 5.504 7.386 7.695c.247-.239.451-.464.581-.615c.149-.174.343-.373.539-.58c-2.256-2.974-5.86-6.334-7.784-7.987c-.095.591-.386 1.1-.722 1.487"/><path fill="#F5F8FA" d="M16.684 15.494a3 3 0 0 1-.265.526c2.371 2.083 5.793 5.612 7.545 7.627l.113-.129c.082-.096.179-.2.281-.307c-2.134-2.582-6.124-6.373-7.674-7.717"/></svg>