<svg xmlns="http://www.w3.org/2000/svg" xmlns:xlink="http://www.w3.org/1999/xlink" width="36" height="36" viewBox="0 0 36 36"><path fill="#E1E8ED" d="M36 13.062V32s0 4-4 4H4c-4 0-4-4-4-4v-4.938s17-10 36-14"/><path fill="#8899A7" d="M14.751 24.46c.167.177.14.473-.062.662c-.201.189-.5.2-.666.023l-6.647-7.052c-.167-.177-.139-.474.062-.664c.201-.189.499-.199.666-.022z"/><path fill="#AA8ED6" d="M26.812 17.809c.435.516.086 1.301-.777 1.756L6.571 29.783c-1.812.876-4.896-.04-5.271-.79c-.416-.832 1.193-1.11 2.057-1.563l20.322-10.67c.863-.453 1.914-.401 2.349.113z"/><path fill="#1C6399" d="M13.562 21.828c-.234.641-1.078 1.061-1.625 1.468s-.641.766-.641 1.204s.328 1.047 1.656 1s2.125-.703 2.391-.969s.531-.375.547-.328s.859-.372.938-.616c.078-.243.047-1.29-.219-1.853s-3.047.094-3.047.094"/><path fill="#AA8ED6" d="M31.825 22.344c.435.516.086 1.301-.777 1.756L11.583 34.318c-1.812.876-4.896-.04-5.271-.79c-.416-.832 1.193-1.11 2.057-1.563l20.322-10.67c.863-.453 1.914-.4 2.349.113z"/><path fill="#1C6399" d="M19.344 26c-.234.641-1.078 1.061-1.625 1.468s-.641.766-.641 1.204s.328 1.047 1.656 1s2.125-.703 2.391-.969s.531-.375.547-.328s.859-.372.938-.616c.078-.243.047-1.29-.219-1.853S19.344 26 19.344 26"/><path fill="#55ACEE" d="M18.558 26.942c.4-.141.798-.159 1.159.017c.436.212.673.642.673.799c0 .077-.266.391-.403.079c-.153-.347-.806-.877-1.429-.895m-.69.505c.36-.127.719-.143 1.044.015c.393.191.606.578.606.719c0 .069-.239.352-.363.071c-.138-.313-.726-.789-1.287-.805"/><path fill="#8899A7" d="M34.844 21.326a.5.5 0 0 1 .129.693a.497.497 0 0 1-.694.129l-9.062-6.236a.5.5 0 1 1 .566-.824z"/><path fill="#1C6399" d="M24.688 14.404c-.312.958-.676 1.875-.312 2.412c.359.531 1.672 1.382 2.406 1.278s1.469-1.75.927-3.21c-.312-.841-3.021-.48-3.021-.48"/><path fill="#67757F" d="m21.733 14.605l-7.449-.077l-1.255 1.614c-.31.398-.467 1.01-.467 1.337c-.001.833.562 2.792.732 4.287c.181 1.598 3.542.793 3.497.192c-.073-.972.11-1.64-.302-2.511c-.078-.165.199-.662.199-.662c.415.24.872.395 1.353.449l-.627 1.269a2.18 2.18 0 0 0-.086 1.584s1.328 3.135 1.476 3.874c.323 1.602 4.206.488 3.706-.61c-.595-1.308-.553-2.954-1.438-3.923c.905-1.135 2.197-2.59 2.041-3.979c.002-.001-1.319-2.672-1.38-2.844"/><path fill="#BBDDF5" d="M21.062 7.057c-.524-.108-6.586 2.12-8.108 2.69c-1.959.733-1.381 2.407-2.238 3.944c-.459.823-1.578 1.197-2.252 1.815c-.7.643-.278 1.564.196 2.262c.794 1.169 1.585 1.244 2.766.487c.916-.587 1.594-1.51 2.162-2.422c.724 2.055 3.283 2.263 5.183 2.32c1.193.036 2.42-.056 3.566-.407c.837-.257 1.119-.397 1.105-1.385c0 0 .222-2.11-.544-4.019c.385.302.737.501.927.959c.152.369.08.794.196 1.156c.165.511.585.7 1.087.866c.607.201 1.322.321 1.963.252c.87-.094.849-.441.778-1.294c-.129-1.561-.546-3.25-1.748-4.316c-1.411-1.25-3.16-2.52-5.039-2.908"/><path fill="#1C6399" d="m29.996 3.938l-1.119-2.653a.5.5 0 0 0-.487-.286c-.129.006-3.21.174-7.169 3.112c-3.748 2.78-4.634 2.82-6.578 2.906l-2.997.133a.53.53 0 0 0-.347.148c-.506.498-.615 1.17-.291 1.799c.411.796 1.623 1.614 3.795 1.517c1.437-.064 3.482-1.196 5.851-2.507c2.91-1.61 6.208-3.436 8.894-3.555a.51.51 0 0 0 .396-.205a.41.41 0 0 0 .052-.409"/><path fill="#AF7E57" d="M16.405 4.29A4 4 0 0 1 8.86 6.949c-.734-2.084.692-3.425 2.776-4.159c2.083-.735 4.035-.584 4.769 1.5"/><path fill="#9AAAB4" d="M10.361 6.419c1.886-.665 3.44-2.272 3.772-1.329c.333.943.997 2.83 2.883 2.165s.503-7.599-5.156-5.605c-5.657 1.994-4.328 5.766-1.499 4.769"/><circle cx="10.056" cy="7.057" r="2" fill="#67757F"/><circle cx="10.056" cy="7.057" r="1" fill="#BDDDF4"/><circle cx="12.891" cy="6.062" r="2" fill="#67757F"/><circle cx="12.891" cy="6.062" r="1" fill="#BDDDF4"/><path fill="#1C6399" d="M8.312 16.373c-.907.382-1.531 1.127-1.703 1.517s.358 1.815 1.703 2.219s1.485-1.297 1.813-1.609s-.844-2.535-1.813-2.127"/><path fill="#8899A7" d="m7.387 18.082l-.151-.161c-.167-.177-.139-.474.062-.664c.201-.189.499-.199.666-.022c0 0 .092.095.151.161c.22.245-.539.892-.728.686"/><path fill="#004A77" d="M9.818 19.122c.117-.394-.157-1.006-.338-1.249c-.337.439-.792.91-1.184.808c.084.314.578.204.885.016c.307-.189.637.425.637.425"/><path fill="#55ACEE" d="M12.776 22.771c.4-.141.798-.159 1.159.017c.436.212.673.642.673.799c0 .077-.266.391-.403.079c-.152-.348-.805-.878-1.429-.895m-.69.504c.36-.127.719-.143 1.044.015c.393.191.606.578.606.719c0 .069-.239.352-.363.071c-.137-.313-.725-.789-1.287-.805"/></svg>