<svg xmlns="http://www.w3.org/2000/svg" xmlns:xlink="http://www.w3.org/1999/xlink" width="36" height="36" viewBox="0 0 36 36"><path fill="#FFCC4D" d="M36 18c0 9.941-8.059 18-18 18c-9.94 0-18-8.059-18-18C0 8.06 8.06 0 18 0c9.941 0 18 8.06 18 18"/><ellipse cx="11.5" cy="12.5" fill="#664500" rx="2.5" ry="5.5"/><ellipse cx="24.5" cy="12.5" fill="#664500" rx="2.5" ry="5.5"/><path fill="#664500" d="M18 22c-3.623 0-6.027-.422-9-1c-.679-.131-2 0-2 2c0 4 4.595 9 11 9c6.404 0 11-5 11-9c0-2-1.321-2.132-2-2c-2.973.578-5.377 1-9 1"/><path fill="#FFF" d="M9 23s3 1 9 1s9-1 9-1s-2 4-9 4s-9-4-9-4"/></svg>