<svg xmlns="http://www.w3.org/2000/svg" xmlns:xlink="http://www.w3.org/1999/xlink" width="36" height="36" viewBox="0 0 36 36"><circle cx="18" cy="26" r="10" fill="#E1E8ED"/><path fill="#E1E8ED" d="M12 11a6 6 0 1 1 12 0a6 6 0 0 1-12 0"/><path fill="#414042" d="M23 6a2 2 0 0 1-2 2h-6a2 2 0 0 1-2-2V2a2 2 0 0 1 2-2h6a2 2 0 0 1 2 2z"/><path fill="#231F20" d="M25 7a1 1 0 0 1-1 1H12a1 1 0 0 1 0-2h12a1 1 0 0 1 1 1"/><path fill="#DD2E44" d="M22.5 15h-9a1.495 1.495 0 0 0-.5 2.908V25a1 1 0 0 0 1 1h1a1 1 0 0 0 1-1v-7h6.5a1.5 1.5 0 1 0 0-3"/><path fill="#414042" d="M19 24a1 1 0 1 1-1.998.002A1 1 0 0 1 19 24m0 5a1 1 0 1 1-1.998.002A1 1 0 0 1 19 29"/><path fill="#F4900C" d="M19 12a1 1 0 1 1-1.998.002A1 1 0 0 1 19 12"/><path fill="#414042" d="M16 10a1 1 0 1 1-2 0a1 1 0 0 1 2 0m6 0a1 1 0 1 1-2 0a1 1 0 1 1 2 0"/><path fill="#FFAC33" d="m10.394 20.081l-3.452-1.479l-.547-2.866a1 1 0 0 0-1.965.375l.294 1.54l-1.33-.57a.999.999 0 1 0-.788 1.838l.743.318l-1.056 1.056a.999.999 0 1 0 1.414 1.414l1.621-1.621l4.278 1.833a.999.999 0 1 0 .788-1.838m22.922-3.03l-1.465-.488l.855-.855a.999.999 0 1 0-1.414-1.414l-.751.751l-.572-2.287a.999.999 0 1 0-1.939.486l.862 3.45l-3.6 3.6a.999.999 0 1 0 1.415 1.413l3.563-3.563l2.413.805q.16.052.317.051a.999.999 0 0 0 .316-1.949"/><path fill="#88C9F9" d="M10.08 2.113a.5.5 0 0 0-.693-.138l-.887.591V1.5a.5.5 0 0 0-1 0v1.066l-.887-.591a.5.5 0 1 0-.554.831l1.04.694l-1.04.693a.5.5 0 0 0 .555.833l.886-.592V5.5a.5.5 0 0 0 1 0V4.434l.887.591a.5.5 0 1 0 .555-.832L8.901 3.5l1.04-.693a.5.5 0 0 0 .139-.694m-4 7a.5.5 0 0 0-.693-.138l-.887.591V8.5a.5.5 0 0 0-1 0v1.066l-.887-.591a.5.5 0 1 0-.554.831l1.04.693l-1.04.693a.5.5 0 1 0 .555.832l.886-.59V12.5a.5.5 0 0 0 1 0v-1.066l.887.591a.5.5 0 1 0 .555-.832L4.901 10.5l1.04-.693a.5.5 0 0 0 .139-.694m0 17a.5.5 0 0 0-.693-.139l-.887.592V25.5a.5.5 0 0 0-1 0v1.066l-.887-.591a.5.5 0 1 0-.554.832l1.04.693l-1.04.693a.5.5 0 1 0 .555.832l.886-.591V29.5a.5.5 0 0 0 1 0v-1.066l.887.591a.5.5 0 1 0 .555-.832L4.901 27.5l1.04-.693a.5.5 0 0 0 .139-.694M33.901 9.5l1.04-.693a.5.5 0 1 0-.554-.832l-.887.591V7.5a.5.5 0 0 0-1 0v1.066l-.887-.591a.5.5 0 1 0-.554.832l1.04.693l-1.04.693a.5.5 0 1 0 .555.832l.887-.591V11.5a.5.5 0 0 0 1 0v-1.066l.887.591a.5.5 0 1 0 .555-.832zm.179 13.613a.5.5 0 0 0-.693-.139l-.887.592V22.5a.5.5 0 0 0-1 0v1.066l-.887-.591a.5.5 0 1 0-.554.832l1.04.693l-1.04.693a.5.5 0 1 0 .555.832l.887-.591V26.5a.5.5 0 0 0 1 0v-1.066l.887.591a.5.5 0 1 0 .555-.832l-1.04-.693l1.04-.693a.5.5 0 0 0 .137-.694m-4.139-18.92l-1.04-.693l1.04-.693a.5.5 0 1 0-.554-.832l-.887.591V1.5a.5.5 0 0 0-1 0v1.066l-.887-.591a.5.5 0 1 0-.554.832l1.04.693l-1.04.693a.5.5 0 1 0 .555.832l.886-.591V5.5a.5.5 0 0 0 1 0V4.434l.887.591a.5.5 0 1 0 .554-.832"/></svg>