<svg xmlns="http://www.w3.org/2000/svg" xmlns:xlink="http://www.w3.org/1999/xlink" width="36" height="36" viewBox="0 0 36 36"><path fill="#66757F" d="m6.667 30.02l.479-.479c3.97-.534 7.971 1.17 10.369 4.362v.611a.486.486 0 1 0 .972 0v-.637a11.12 11.12 0 0 1 10.355-4.351l.479.479c.059.059.13.093.205.115l.029.006c.158.037.33.002.453-.121s.158-.295.121-.453l-.006-.029a.5.5 0 0 0-.115-.205l-.479-.479a11.12 11.12 0 0 1 4.351-10.355h.636a.486.486 0 1 0 0-.972h-.61c-3.193-2.399-4.896-6.399-4.362-10.369l.479-.479a.485.485 0 0 0 0-.687a.47.47 0 0 0-.231-.12a.48.48 0 0 0-.456.12l-.479.479c-3.97.534-7.971-1.17-10.369-4.362v-.61a.486.486 0 1 0-.972 0v.637A11.12 11.12 0 0 1 7.16 6.472l-.479-.479a.5.5 0 0 0-.205-.115l-.029-.006a.48.48 0 0 0-.453.121a.48.48 0 0 0-.121.453l.006.029a.5.5 0 0 0 .115.205l.479.479a11.12 11.12 0 0 1-4.351 10.355h-.636a.485.485 0 1 0 0 .971h.611c3.193 2.399 4.896 6.399 4.362 10.369l-.479.479a.48.48 0 0 0-.12.456c.02.084.055.165.12.231c.19.19.497.19.687 0m.86-21.807l2.206 2.206a8.7 8.7 0 0 1-.66 4.041a8.9 8.9 0 0 1-2.159 3.053H3.613c.121-.11.271-.237.384-.35a12.12 12.12 0 0 0 3.53-8.95m12.098 8.171c.055.589.259 1.15.597 1.636a3.4 3.4 0 0 0-.393.735a3.4 3.4 0 0 0-.187.882c-.296.028-.59.08-.876.186a3.4 3.4 0 0 0-.728.389a3.4 3.4 0 0 0-.773-.42a3.4 3.4 0 0 0-.879-.187a3.4 3.4 0 0 0-.583-1.617c.156-.228.295-.469.393-.735c.106-.286.159-.58.186-.876c.298-.027.594-.08.882-.187c.265-.098.506-.236.734-.392a3.4 3.4 0 0 0 1.627.586m-4.673 2.101c.057.078.119.153.166.238c.161.286.26.601.296.928c.009.082 0 .166 0 .249l-1.544 1.544a9 9 0 0 0-.373-1.331a9 9 0 0 0-.802-1.627zm1.164 2.086c.073.001.146-.009.22 0c.199.022.397.059.59.131c.135.05.261.115.382.186c.074.043.138.1.207.15v2.267a9.2 9.2 0 0 0-1.627-.802a9 9 0 0 0-1.331-.373zm2.37 2.77v-2.248c.09-.068.178-.138.276-.192c.285-.16.6-.259.926-.296c.076-.009.154.001.231 0l1.539 1.539a9 9 0 0 0-1.331.373a9.7 9.7 0 0 0-1.641.824m2.123-3.42c.001-.08-.009-.159 0-.239c.022-.199.06-.397.131-.59c.045-.12.105-.231.166-.341c.053-.095.121-.18.185-.266h2.251a9.7 9.7 0 0 0-.825 1.641a9 9 0 0 0-.373 1.331zm.447-2.407c-.054-.074-.113-.144-.159-.223a2.5 2.5 0 0 1-.308-.95c-.009-.08 0-.162 0-.243l1.541-1.541c.094.448.211.894.373 1.331c.214.575.486 1.116.802 1.627h-2.249zm-1.161-2.095c-.076-.001-.152.008-.227 0a2.4 2.4 0 0 1-.938-.299c-.086-.048-.163-.111-.243-.17v-2.255c.51.315 1.052.588 1.627.802c.437.162.883.279 1.331.373zm-2.38-2.762v2.282c-.083.061-.163.125-.253.175a2.5 2.5 0 0 1-.335.163a2.4 2.4 0 0 1-.59.131c-.08.009-.159-.001-.239 0l-1.555-1.555a9 9 0 0 0 1.331-.373a9.5 9.5 0 0 0 1.641-.823m-2.101 3.442c-.001.077.008.154 0 .231a2.5 2.5 0 0 1-.297.929c-.051.09-.116.171-.178.255h-2.28c.31-.505.614-1.075.825-1.641c.162-.437.279-.883.373-1.331zm-2.827 4.351c.223.6.364 1.215.442 1.834l-.62.62l-1.674 1.674a9.7 9.7 0 0 0-.751-3.431a9.7 9.7 0 0 0-1.681-2.662h3.224a8.2 8.2 0 0 1 1.06 1.965m.509 3.141l.62-.62a8.2 8.2 0 0 1 1.834.442a8.2 8.2 0 0 1 1.965 1.06v3.224a9.7 9.7 0 0 0-2.662-1.681a9.7 9.7 0 0 0-3.431-.751zm5.39 4.14v-3.219a8.5 8.5 0 0 1 1.979-1.085a8.2 8.2 0 0 1 1.834-.442l2.294 2.294a9.7 9.7 0 0 0-3.431.751a10.1 10.1 0 0 0-2.676 1.701m5.121-4.812l-.62-.62a8.2 8.2 0 0 1 .442-1.834c.26-.7.657-1.388 1.085-1.979h3.219a10 10 0 0 0-1.701 2.677a9.7 9.7 0 0 0-.751 3.431zm.868-5.405a8.2 8.2 0 0 1-1.06-1.965a8.2 8.2 0 0 1-.442-1.834l.62-.62l1.674-1.674a9.7 9.7 0 0 0 .751 3.431c.417.99.99 1.88 1.681 2.662zm-1.57-5.106l-.62.62a8.2 8.2 0 0 1-1.834-.442a8.2 8.2 0 0 1-1.965-1.06V8.301a9.7 9.7 0 0 0 2.662 1.681a9.7 9.7 0 0 0 3.431.751zm-5.39-4.141v3.219a8.5 8.5 0 0 1-1.979 1.085c-.6.223-1.215.364-1.834.442l-.62-.62l-1.674-1.674a9.7 9.7 0 0 0 3.431-.751a10 10 0 0 0 2.676-1.701m-4.5 5.433a8.2 8.2 0 0 1-.442 1.834c-.26.7-.657 1.388-1.085 1.979H8.269a10 10 0 0 0 1.701-2.677a9.7 9.7 0 0 0 .751-3.431zm-9.004 5.121c-.118-.118-.249-.223-.371-.336h3.304a8.71 8.71 0 0 1 2.805 7.08l-.979.978l-1.229 1.229a12.12 12.12 0 0 0-3.53-8.951m13.168 13.168a12.12 12.12 0 0 0-8.951-3.53l1.229-1.229l.977-.977a8.72 8.72 0 0 1 7.08 2.805v3.304c-.112-.125-.217-.256-.335-.373m1.657.014c-.113.113-.24.264-.35.384v-3.301a8.9 8.9 0 0 1 3.053-2.159a8.7 8.7 0 0 1 4.041-.66l2.206 2.206a12.12 12.12 0 0 0-8.95 3.53m9.638-4.217l-1.229-1.229l-.977-.977a8.7 8.7 0 0 1 .66-4.041a8.9 8.9 0 0 1 2.159-3.053h3.301c-.121.11-.271.237-.384.35a12.12 12.12 0 0 0-3.53 8.95m3.516-10.608c.118.118.249.223.371.336h-3.304a8.71 8.71 0 0 1-2.805-7.08l.977-.977l1.229-1.229a12.13 12.13 0 0 0 3.532 8.95M18.822 4.01a12.12 12.12 0 0 0 8.951 3.53l-1.229 1.229l-.977.977a8.72 8.72 0 0 1-7.08-2.805V3.639c.112.122.217.254.335.371m-1.657-.014c.113-.113.24-.264.35-.384v3.301a8.9 8.9 0 0 1-3.053 2.159a8.7 8.7 0 0 1-4.041.66l-.978-.977l-1.229-1.229a12.12 12.12 0 0 0 8.951-3.53"/></svg>