<svg xmlns="http://www.w3.org/2000/svg" xmlns:xlink="http://www.w3.org/1999/xlink" width="36" height="36" viewBox="0 0 36 36"><path fill="#66757F" d="M28.815 4h1.996v1h-1.996z"/><path fill="#CCD6DD" d="M2 12v20a4 4 0 0 0 4 4h24a4 4 0 0 0 4-4V12z"/><path fill="#DD2E44" d="M30 4H6a4 4 0 0 0-4 4v5h32V8a4 4 0 0 0-4-4"/><path fill="#292F33" d="M8.836 8.731c-.702 0-1.271-.666-1.271-1.489c0-.822.569-1.489 1.271-1.489c.701 0 1.27.667 1.27 1.489s-.569 1.489-1.27 1.489m6 0c-.702 0-1.271-.666-1.271-1.489c0-.822.569-1.489 1.271-1.489c.701 0 1.27.667 1.27 1.489s-.569 1.489-1.27 1.489m6 0c-.702 0-1.271-.666-1.271-1.489c0-.822.569-1.489 1.271-1.489c.701 0 1.271.667 1.271 1.489c-.001.822-.57 1.489-1.271 1.489m6 0c-.702 0-1.271-.666-1.271-1.489c0-.822.569-1.489 1.271-1.489c.701 0 1.271.667 1.271 1.489c-.001.822-.57 1.489-1.271 1.489"/><path fill="#66757F" d="M27.315.179c-1.277 0-2.383.802-2.994 1.97c-.606-1.143-1.717-1.97-3.006-1.97c-1.277 0-2.383.802-2.994 1.97c-.606-1.143-1.717-1.97-3.006-1.97c-1.277 0-2.383.802-2.994 1.97c-.606-1.143-1.717-1.97-3.006-1.97c-1.934 0-3.5 1.819-3.5 4.005c0 1.854 1.045 3.371 2.569 3.926c.759.275 1.224-.447 1.159-1.026c-.055-.48-.374-.793-.729-1.018c-.485-.307-1-1.008-1-1.877c0-1.104.671-2.095 1.5-2.095s1.5.905 1.5 1.905h1.016c-.003.062-.016.121-.016.184c0 1.854 1.045 3.371 2.569 3.926c.759.275 1.224-.447 1.159-1.026c-.055-.479-.374-.792-.729-1.017c-.485-.307-1-1.008-1-1.877c0-1.104.671-2.095 1.5-2.095S16.815 3 16.815 4h1.016c-.003.062-.016.121-.016.184c0 1.854 1.045 3.371 2.569 3.926c.759.275 1.224-.447 1.159-1.026c-.055-.479-.374-.792-.729-1.017c-.485-.307-1-1.008-1-1.877c0-1.104.671-2.095 1.5-2.095S22.815 3 22.815 4h1.016c-.003.062-.016.121-.016.184c0 1.854 1.045 3.371 2.569 3.926c.759.275 1.224-.447 1.159-1.026c-.055-.479-.374-.792-.729-1.017c-.485-.307-1-1.008-1-1.877c0-1.104.671-2.095 1.5-2.095S28.815 3 28.815 4h1.996C30.79 2 29.235.179 27.315.179"/><path fill="#FFF" d="M11 15h4v4h-4zm5 0h4v4h-4zm5 0h4v4h-4zm5 0h4v4h-4zM6 20h4v4H6zm5 0h4v4h-4zm5 0h4v4h-4zm5 0h4v4h-4zm5 0h4v4h-4zM6 25h4v4H6zm5 0h4v4h-4zm5 0h4v4h-4zm5 0h4v4h-4zm5 0h4v4h-4zM6 30h4v4H6zm5 0h4v4h-4zm5 0h4v4h-4z"/></svg>