<svg xmlns="http://www.w3.org/2000/svg" xmlns:xlink="http://www.w3.org/1999/xlink" width="36" height="36" viewBox="0 0 36 36"><path fill="#FFCC4D" d="M33.78 27.231c-1.291 1.871-4.5 5.347-6.505 6.817s-2.862 1.13-5.033-.491c-.893-.667-2.386-1.98-4.591-4.677c-1.087-1.33-1.409-1.758-2.429-2.65c-2.851-2.496-13.511-12.855-13.511-12.855c-1.211-1.367-.454-3.368.586-5s2.905-3.26 4.57-4.805s3.527-2.54 5.469-1.094c1.22.909 7.031 6.671 12.044 11.522c.566.547 1.367 1.37 2.361 2.05c3.52 2.406 5.168 4.411 5.881 5.391c1.413 1.942 2.449 3.921 1.158 5.792"/><path fill="#FFAC33" d="M6.899 14.801s3.797 3.054 4.581 4.003s8.337 9.946 9.121 11.019s2.518 3.467 2.518 3.467s-7.14-8.419-8.172-9.657s-8.048-8.832-8.048-8.832m6.562-1.569s2.352 2.641 2.848 2.972c.495.33.612-.017.083-.66c-.53-.644-2.931-2.312-2.931-2.312m4.003 4.994s4.664 4.375 5.407 5.448s4.457 5.283 4.953 6.067c.495.784.619 2.064.619 2.064s-1.114-2.435-2.683-4.086s-4.829-4.994-5.448-5.695s-2.848-3.798-2.848-3.798m1.6-1.9s3.358 2.024 4.206 3.016s3.975 3.807 4.547 4.537s.636 1.159.636 1.159s-1.166-1.479-2.893-2.963s-2.921-2.421-3.608-3.056s-2.888-2.693-2.888-2.693m-5.149-7.551s2.93 1.981 3.467 2.6s1.733 1.898 1.527 2.146s-1.321-1.156-1.981-1.692s-3.013-3.054-3.013-3.054"/><path fill="#FFE8B6" d="M6.008 13.141c2.422-1.523 5.049-4.117 6.289-6.797c.977-2.109.65-3.813-1.055-4.57c-1.055-.469-3.24.158-4.18.742c-2.266 1.408-4.765 4.296-5.624 6.289c-.63 1.461-.791 2.941.039 4.219s3.263.914 4.531.117"/><path fill="#F4900C" d="M24.992 34.054a.8.8 0 0 1-.729-.47c-.575-1.271-1.422-2.395-2.102-3.297q-.232-.307-.433-.581c-1.5-2.052-3.386-4.594-3.769-5.006c-.314-.338-.94-1.133-1.665-2.052a110 110 0 0 0-1.413-1.772c-1.412-1.713-1.495-3.458-.216-4.554c1.303-1.117 2.316-2.479 2.938-3.425c.591-.9 1.331-1.142 1.848-1.186c1.153-.099 2.462.634 3.898 2.172c.976 1.045 2.886 2.529 4.42 3.721l.33.256c2.333 1.815 3.998 3.47 5.09 5.061a.8.8 0 0 1-1.318.906c-.984-1.434-2.583-3.017-4.754-4.704l-.329-.256c-1.579-1.227-3.545-2.754-4.608-3.893c-1.022-1.096-1.992-1.721-2.593-1.67c-.153.013-.388.076-.646.469c-.678 1.033-1.789 2.523-3.234 3.762c-.795.682.021 1.851.409 2.321c.406.492.929 1.156 1.436 1.8c.645.817 1.311 1.663 1.58 1.954c.525.565 2.895 3.79 3.888 5.15q.196.264.42.562c.728.966 1.633 2.169 2.28 3.6a.8.8 0 0 1-.728 1.132"/><path fill="#FFE8B6" d="M15.696 27.613a1 1 0 0 1-.405-1.915c1.573-.693 4.542-2.287 6.76-5.164c2.202-2.856 1.835-6.188 1.831-6.221a1 1 0 0 1 .87-1.113a.99.99 0 0 1 1.114.865c.021.168.489 4.161-2.231 7.689c-2.489 3.229-5.791 5.003-7.537 5.773a1 1 0 0 1-.402.086"/><path fill="#FFE8B6" d="M24.327 27.031a1 1 0 0 1-.978-.795l-1.133-5.395a1 1 0 0 1 1.295-1.153l4.688 1.566a1 1 0 0 1-.635 1.897l-3.033-1.014l.774 3.688a1 1 0 0 1-.978 1.206"/><path fill="#FFAC33" d="M7.805 3.297c1.953-.977 3.235-.554 3.555-.234c.43.43.625 1.758.039 3.047c-1.079 2.373-4.18 5.43-6.016 6.406c-1.13.601-2.984.535-3.359-.117c-.742-1.289.111-3.022.859-4.375C3.898 6.188 6.318 4.04 7.805 3.297"/><path fill="#C1694F" d="M11.398 6.109c.586-1.289.391-2.617-.039-3.047l-.003-.002c-1.169-.145-1.954.148-2.482.479c-.608.382-1.208 1.324-1.325 2.105S6.836 7.226 6.19 7.349c-.566.107-1.419.126-2.161.946s-.326 2.072-.326 2.072c-1.578.054-1.675 1.355-1.49 2.231c.608.456 2.17.449 3.169-.083c1.837-.976 4.938-4.033 6.016-6.406"/><circle cx="9.008" cy="5.377" r=".691" fill="#D99E82"/><path fill="#D99E82" d="M5.383 12.516c1.836-.977 4.937-4.033 6.016-6.406c.51-1.122.428-2.272.115-2.835c-.066-.011-.125-.039-.194-.039c-.681 0-1.232.552-1.232 1.232c0 .429.232.788.565 1.009a1.3 1.3 0 0 0-.347.768a2 2 0 0 0-.529-.086c-1.024 0-1.853.83-1.853 1.853c0 .161.027.314.065.462a1.7 1.7 0 0 0-.802.881a1.8 1.8 0 0 0-.478-.253a.83.83 0 0 0 .345-.66a.84.84 0 1 0-1.68 0c0 .244.108.46.275.613a1.82 1.82 0 0 0-1.333 2.124c-.065-.01-.123-.039-.191-.039c-.734 0-1.328.595-1.328 1.328c0 .139.039.265.079.391c.741.151 1.774.047 2.507-.343"/><g fill="#FFD983"><circle cx="3.318" cy="11.729" r=".657"/><path d="M6.957 11.426a1 1 0 0 0 .046-.288c0-.36-.18-.666-.443-.872a.86.86 0 0 0 .315-.656a.87.87 0 1 0-1.74 0c0 .213.086.402.213.553a1.12 1.12 0 0 0-.594.975c0 .598.47 1.075 1.059 1.111c.359-.226.739-.492 1.144-.823M9.95 4.947c.313.229.738.182.948-.105s.127-.706-.187-.935c-.313-.229-.738-.182-.948.105s-.127.705.187.935m1.471 1.104a1.3 1.3 0 0 0-.994-.474a1.32 1.32 0 0 0-1.332 1.306c0 .621.456 1.108 1.049 1.237c.52-.684.964-1.372 1.254-2.012c.009-.018.014-.037.023-.057m-2.424 3.43a.776.776 0 0 0-.756-.594a.78.78 0 0 0-.792.77c0 .377.284.676.652.742q.456-.44.896-.918"/><circle cx="7.848" cy="7.732" r=".78"/></g><g fill="#FFE8B6"><ellipse cx="5.735" cy="10.963" rx=".684" ry=".645"/><circle cx="10.47" cy="5.943" r=".739"/><circle cx="8.55" cy="8.786" r=".708"/><circle cx="2.882" cy="11.86" r=".449"/><circle cx="6.547" cy="6.658" r=".613"/><circle cx="3.428" cy="9.977" r=".568"/><circle cx="9.164" cy="6.892" r=".568"/></g><g fill="#FFAC33"><ellipse cx="4.798" cy="8.875" rx=".488" ry=".469"/><ellipse cx="8.184" cy="6.803" rx=".547" ry=".469"/><ellipse cx="4.219" cy="12.016" rx=".527" ry=".488"/><ellipse cx="9.32" cy="4.909" rx=".43" ry=".469"/></g><g fill="#DD2E44"><circle cx="3.666" cy="12.187" r=".371"/><ellipse cx="6.728" cy="10.096" rx=".488" ry=".449"/><circle cx="7.694" cy="5.177" r=".41"/><circle cx="8.952" cy="7.947" r=".371"/><circle cx="5.148" cy="7.188" r=".511"/><ellipse cx="10.88" cy="4.13" rx=".391" ry=".352"/></g></svg>