<svg xmlns="http://www.w3.org/2000/svg" xmlns:xlink="http://www.w3.org/1999/xlink" width="36" height="36" viewBox="0 0 36 36"><path fill="#9266CC" d="M36 32a4 4 0 0 1-4 4H4a4 4 0 0 1-4-4V4a4 4 0 0 1 4-4h28a4 4 0 0 1 4 4z"/><g fill="#FFF"><path d="M18 29.5c-4.687 0-8.5-3.813-8.5-8.5s3.813-8.5 8.5-8.5s8.5 3.813 8.5 8.5s-3.813 8.5-8.5 8.5m0-14a5.506 5.506 0 0 0-5.5 5.5c0 3.032 2.467 5.5 5.5 5.5s5.5-2.468 5.5-5.5s-2.468-5.5-5.5-5.5"/><path d="M18 15.5c-5.109 0-7.58-2.79-8.131-3.507C9.388 11.543 8.053 10.5 7 10.5c-1.297 0-1.94.563-1.967.587c-.604.543-1.547.519-2.106-.07A1.48 1.48 0 0 1 2.94 8.94C3.086 8.792 4.452 7.5 7 7.5s4.811 2.189 5.061 2.439q.105.105.188.229c.057.08 1.69 2.332 5.752 2.332c4.083 0 5.736-2.309 5.752-2.332q.082-.124.188-.229C24.19 9.689 26.452 7.5 29 7.5s3.913 1.292 4.061 1.439a1.5 1.5 0 1 1-2.121 2.121c-.002 0-.645-.561-1.94-.561c-1.052 0-2.384 1.04-2.869 1.494c-.552.718-3.024 3.507-8.131 3.507"/></g></svg>