<svg xmlns="http://www.w3.org/2000/svg" xmlns:xlink="http://www.w3.org/1999/xlink" width="36" height="36" viewBox="0 0 36 36"><path fill="#292F33" d="M35 32a4 4 0 0 1-4 4H5a4 4 0 0 1-4-4V8a4 4 0 0 1 4-4h26a4 4 0 0 1 4 4z"/><path fill="#E1E8ED" d="M33 32a2 2 0 0 1-2 2H5a2 2 0 0 1-2-2V12a2 2 0 0 1 2-2h26a2 2 0 0 1 2 2z"/><path fill="#66757F" d="M23.115 20.484H17.91c-1.098 0-1.504-.712-1.504-1.403c0-.712.386-1.403 1.504-1.403h7.362c1.038 0 1.464.935 1.464 1.464c0 .407-.224.834-.468 1.342l-5.043 10.25c-.569 1.139-.793 1.545-1.708 1.545c-1.119 0-1.688-.854-1.688-1.444c0-.244.061-.427.204-.712zm-11.485-.108h-.45c-.976 0-1.383-.658-1.383-1.349c0-.712.509-1.349 1.383-1.349h1.813c.874 0 1.362.631 1.362 1.444v11.572c0 1.016-.502 1.586-1.376 1.586s-1.349-.569-1.349-1.586z"/><path fill="#DD2E44" d="M33 16H3V8a2 2 0 0 1 2-2h26a2 2 0 0 1 2 2z"/><path fill="#F5F8FA" d="M15.26 9.604c0-.5.3-.78.702-.78s.701.28.701.78v4.017h1.665c.477 0 .682.38.672.72c-.018.33-.261.659-.672.659H15.99c-.458 0-.73-.319-.73-.819zm-6.465 0c0-.5.299-.78.702-.78s.701.28.701.78v2.488c0 .92.552 1.649 1.44 1.649c.85 0 1.43-.769 1.43-1.649V9.604c0-.5.299-.78.702-.78s.701.28.701.78v2.568c0 1.679-1.291 2.949-2.833 2.949c-1.561 0-2.843-1.25-2.843-2.949zm-.731 3.397c0 1.679-1 2.119-1.851 2.119c-.645 0-1.721-.27-1.721-1.14c0-.269.216-.609.524-.609c.374 0 .702.37 1.122.37c.524 0 .524-.52.524-.84V9.604c0-.5.298-.78.7-.78c.403 0 .702.28.702.78z"/><path fill="#F4ABBA" d="M30 14a1 1 0 1 0 2 0a1 1 0 0 0-2 0m-3 0a1 1 0 1 0 2 0a1 1 0 0 0-2 0m-3 0a1 1 0 1 0 2 0a1 1 0 0 0-2 0m0-3a1 1 0 1 0 2 0a1 1 0 0 0-2 0m3 0a1 1 0 1 0 2 0a1 1 0 0 0-2 0m3 0a1 1 0 1 0 2 0a1 1 0 0 0-2 0"/><path fill="#99AAB5" d="M11 7a1 1 0 0 1-2 0V1a1 1 0 0 1 2 0zm16 0a1 1 0 1 1-2 0V1a1 1 0 1 1 2 0z"/></svg>