<svg xmlns="http://www.w3.org/2000/svg" xmlns:xlink="http://www.w3.org/1999/xlink" width="36" height="36" viewBox="0 0 36 36"><path fill="#DD2E44" d="M24.77 19.715a6.8 6.8 0 0 0-6.801-6.801a6.79 6.79 0 0 0-5.526 2.845a6.79 6.79 0 0 0-5.526-2.845a6.8 6.8 0 0 0-6.801 6.801c0 .531.067 1.049.183 1.545c.945 5.867 7.468 12.059 12.144 13.758c4.675-1.699 11.2-7.891 12.142-13.756a6.8 6.8 0 0 0 .185-1.547M35.885 5.693A4.71 4.71 0 0 0 31.174.982c-1.579 0-2.973.78-3.828 1.972A4.7 4.7 0 0 0 23.519.982a4.71 4.71 0 0 0-4.711 4.711c0 .369.047.727.127 1.07c.654 4.064 5.173 8.353 8.411 9.529c3.238-1.177 7.758-5.465 8.412-9.528c.08-.344.127-.702.127-1.071"/></svg>