<svg xmlns="http://www.w3.org/2000/svg" xmlns:xlink="http://www.w3.org/1999/xlink" width="36" height="36" viewBox="0 0 36 36"><path fill="#FFCC4D" d="M36 18c0 9.941-8.059 18-18 18c-9.94 0-18-8.059-18-18C0 8.06 8.06 0 18 0c9.941 0 18 8.06 18 18"/><path fill="#664500" d="M25.485 27.879C25.44 27.7 24.317 23.5 18 23.5s-7.44 4.2-7.485 4.379a.5.5 0 0 0 .237.554a.505.505 0 0 0 .6-.077c.019-.019 1.954-1.856 6.648-1.856s6.63 1.837 6.648 1.855a.5.5 0 0 0 .598.081a.5.5 0 0 0 .239-.557M29.001 14a1 1 0 0 1-.801-.4c-2.432-3.244-6.514-.846-6.686-.743a1 1 0 1 1-1.029-1.715c1.998-1.199 6.514-2.477 9.314 1.257A1 1 0 0 1 29.001 14M6.999 14a1 1 0 0 1-.799-1.6c2.801-3.734 7.317-2.456 9.314-1.257a1 1 0 0 1-1.027 1.716c-.179-.106-4.274-2.475-6.688.742a1 1 0 0 1-.8.399M29 16a1 1 0 0 0-1-1h-7a1 1 0 1 0 0 2h5.092a1.496 1.496 0 0 0 2.872-.821c.012-.06.036-.116.036-.179m-13 0a1 1 0 0 0-1-1H8a1 1 0 0 0 0 2h5.092a1.496 1.496 0 0 0 2.872-.821c.011-.06.036-.116.036-.179"/></svg>