<svg xmlns="http://www.w3.org/2000/svg" xmlns:xlink="http://www.w3.org/1999/xlink" width="36" height="36" viewBox="0 0 36 36"><path fill="#3B88C3" d="M36 32a4 4 0 0 1-4 4H4a4 4 0 0 1-4-4V4a4 4 0 0 1 4-4h28a4 4 0 0 1 4 4z"/><path fill="#FFF" d="M2.281 11.562c0-1.05.672-1.638 1.575-1.638s1.575.588 1.575 1.638v7.328c0 1.932 1.239 3.464 3.233 3.464c1.911 0 3.212-1.616 3.212-3.464v-7.328c0-1.05.672-1.638 1.575-1.638s1.575.588 1.575 1.638v7.496c0 3.527-2.898 6.193-6.362 6.193c-3.506 0-6.383-2.625-6.383-6.193zm14.511.127c0-.987.588-1.638 1.638-1.638h3.717c3.086 0 5.375 2.016 5.375 5.018c0 3.066-2.373 4.976-5.25 4.976h-2.33v3.443c0 1.05-.672 1.638-1.575 1.638s-1.575-.588-1.575-1.638zm3.149 5.584h2.142c1.323 0 2.163-.966 2.163-2.225s-.84-2.226-2.163-2.226h-2.142zm9.45 6.341a1.639 1.639 0 1 1 3.275.001a1.639 1.639 0 0 1-3.275-.001m.127-12.387c0-.882.65-1.428 1.512-1.428c.84 0 1.512.567 1.512 1.428v8.084c0 .86-.672 1.428-1.512 1.428c-.861 0-1.512-.547-1.512-1.428z"/></svg>