<svg xmlns="http://www.w3.org/2000/svg" xmlns:xlink="http://www.w3.org/1999/xlink" width="36" height="36" viewBox="0 0 36 36"><path fill="#9266CC" d="M36 32a4 4 0 0 1-4 4H4a4 4 0 0 1-4-4V4a4 4 0 0 1 4-4h28a4 4 0 0 1 4 4z"/><path fill="#FFF" d="M32 17h-1.051a12.93 12.93 0 0 0-3.088-7.447l1.159-1.159a.999.999 0 1 0-1.414-1.414l-1.159 1.159A12.93 12.93 0 0 0 19 5.051V4a1 1 0 1 0-2 0v1.051a12.93 12.93 0 0 0-7.448 3.088L8.487 7.073a.999.999 0 1 0-1.414 1.414l1.066 1.066A12.92 12.92 0 0 0 5.051 17H4a1 1 0 1 0 0 2h1.051a12.93 12.93 0 0 0 3.088 7.447L6.98 27.606a.999.999 0 1 0 1.414 1.414l1.159-1.159A12.93 12.93 0 0 0 17 30.949V32a1 1 0 1 0 2 0v-1.051a12.93 12.93 0 0 0 7.447-3.088l1.066 1.066a.997.997 0 0 0 1.414 0a1 1 0 0 0 0-1.414l-1.066-1.066a12.93 12.93 0 0 0 3.088-7.448H32A1 1 0 1 0 32 17m-5.552-6.033A10.94 10.94 0 0 1 28.949 17h-6.04a5 5 0 0 0-.707-1.788zM19 7.051a10.95 10.95 0 0 1 6.034 2.501l-4.22 4.22A5 5 0 0 0 19 13.001zM21 17.9c0 1.654-1.346 3-3 3s-3-1.346-3-3s1.346-3 3-3s3 1.346 3 3M17 7.051v5.95a5 5 0 0 0-1.814.771l-4.22-4.22A10.95 10.95 0 0 1 17 7.051m-7.448 3.916l4.246 4.246a5 5 0 0 0-.707 1.788h-6.04a10.94 10.94 0 0 1 2.501-6.034m0 14.067A10.95 10.95 0 0 1 7.051 19h6.08a5 5 0 0 0 .741 1.714zM17 28.949a10.95 10.95 0 0 1-6.034-2.501l4.345-4.345a5 5 0 0 0 1.688.697v6.149zm2 0v-6.15a5 5 0 0 0 1.688-.697l4.345 4.346A10.94 10.94 0 0 1 19 28.949m7.447-3.915l-4.32-4.32a5 5 0 0 0 .741-1.715h6.08a10.94 10.94 0 0 1-2.501 6.035"/></svg>