<svg xmlns="http://www.w3.org/2000/svg" xmlns:xlink="http://www.w3.org/1999/xlink" width="36" height="36" viewBox="0 0 36 36"><path fill="#66757F" d="M32.75 36H4a4 4 0 0 1-4-4V4a4 4 0 0 1 4-4h15.042s4.849.569 4.542 2c-.351 1.634-2.455 6.896-2.542 7.708c-.173 1.62 4.735 4.393 4.5 6.292c-.733 5.934-3.5 8.25-2.505 11.305c.126.386 3.679.718 4.588 1.195C33 31.318 32.958 36 32.75 36"/><path fill="#99AAB5" d="M30 36H4a4 4 0 0 1-4-4V4a4 4 0 0 1 4-4h7.167s8.955.862 8.842 2.062c-.173 1.851-3.639 7.717-2.51 8.812s4.432 3.794 4.571 5.542c.179 2.244-4.284 8.299-1.918 13.304c.756 1.598 5.061.957 6.329 1.852C29.644 33.807 30.304 36 30 36"/><path fill="#292F33" d="M29.759 29.818s.404.278 1.516.666c.443.154-.044 1.84-.305 2.08s-2.188.627-3.928.098c-1.593-.484-.405-.938.744-1.193c1.151-.254 1.973-1.651 1.973-1.651"/><path fill="#664131" d="M28.313 14.316c-1.076.54-2.32.982-2.873.817c-.415-.124-1.235-.382-1.886-.38q-.977.003-.325 1.021c.435.679 1.324 1.039 2.032.823s2.276-.29 3.233-.317c.956-.025.628-2.369-.181-1.964"/><path fill="#664131" d="M27.85 14.614c.484-.258 1.333-.391 1.333-.391l.929-2.272l2.482 1.636s-1.65 1.934-2.05 2.355s-1.77.457-2.595.341s-.64-1.381-.099-1.669m1.972 11.558s-2.739-1.872-2.937-1.076s2.252 2.908 2.846 4.888c.24.799 1.68 1.663 1.697.079c.03-2.735-1.606-3.891-1.606-3.891"/><path fill="#664131" d="M27.162 25.501s.88 1.752 1.766 1.567s3.219-3.005 3.92-4.075s.419-3.671-1.168-2.416c-1.586 1.253-4.518 4.924-4.518 4.924"/><path fill="#A0041E" d="m34.225 21.936l-6.368.815l3.175 2.892z"/><path fill="#7C533E" d="M27.622 22.132s-2.369 2.157-2.583 3.02c-.215.862.003 3.664-.642 6.25s1.079 3.016 1.294 2.154s1.879-4.738 1.504-6.035c-.276-.955 2.584-3.02 2.584-3.02z"/><path fill="#BE1931" d="M29.807 19.266c-1.291.84-1.944 2.066-3.733 4.052l2.395 2.554s6.032-2.286 6.953-5.358c.794-2.649-1.491-4.143-1.491-4.143s-2.89 2.092-4.124 2.895"/><path fill="#7C533E" d="m32.932 7.593l-.245 2.329l-2.675-.429l.01-2.022z"/><path fill="#7C533E" d="M33.434 7.67c-.953 1.243-2.434 1.138-3.838.894c-1.338-.233-1.093-2.671-.44-4.083c.658-1.422 2.829-1.498 3.959-.631c1.131.867 1.273 2.577.319 3.82"/><path fill="#7C533E" d="M25.451 7.96c-.942-1.226-2.63-2.587-2.806-3.374c-.214-.957-.164-1.954-1.499-2.752c-.842-.503-.278.882-.154 2.717c.071 1.055 1.795 3.768 2.764 4.759c.623.637 3.457 1.854 4.439 3.973c.166.358-.01.759.503 1.569c.85 1.343 1.792 2.849 1.109 4.412c2.984.155 5.482-1.221 5.482-1.221c-.883-2.313-.212-4.329-.94-6.15c-1.15-2.879-2.429-2.989-4.35-2.598c-1.467.3-2.312-.572-4.548-1.335"/><path fill="#DD2E44" d="M29.592 17.689c2.984.155 5.519-.863 5.519-.863c-.23-1.965-.034-3.111-.761-4.932a6.7 6.7 0 0 0-.504-1.021c-.011.256-.149.448-.597.356c-.97-.2-1.585-1.274-2.541-1.898q-.344-.013-.708-.035c.76.597 1.077 2.165.639 3.292c-.443 1.14-1.473 1.056-2.443.695c.037.079-.578.966-.062 1.769c.515.803 1.429 1.618 1.458 2.637"/><path fill="#292F33" d="M24.3 31.985s.371 1.007 1.62.869c.277-.031-.079 1.164-.39 1.461s-3.405 1.719-4.959.855s-.345-1.208.864-1.553c1.208-.345 2.865-1.632 2.865-1.632"/><path fill="#0B0200" d="M30.936 2.94c1.992-.206 3.261.867 3.451 1.975c.368 2.152-1.002 3.9-2.193 3.555c-.526-.153-.965-.547-1.072-2.188c-.085-1.296-.325-3.07-1.964-1.8c-.388.299.395-1.399 1.778-1.542"/><path fill="#0B0200" d="M33.229 4.093c.307-.516 1.745-.438 2.298.7s-.699 3.17-.784 4.239s.503 1.191.481 1.425s-.626.861-1.434.626s-2.784-.619-1.246-2.999s.685-3.991.685-3.991"/><path fill="#66757F" d="M6.333 2.417h4.708c.792 0-2.208 3.156-3.292 3.156S4.917 2.417 6.333 2.417m4.334 6.208h4.458c.75 0-2.458 2.949-3.458 2.949s-2.292-2.949-1-2.949m-1.792 9.118H18c1.292 0-5.542 5.098-6.667 5.098s-4.916-5.098-2.458-5.098M3.167 29.052h8.071c1.888 0-3.281 4.531-5.113 4.531s-4.792-4.531-2.958-4.531"/></svg>