<svg xmlns="http://www.w3.org/2000/svg" xmlns:xlink="http://www.w3.org/1999/xlink" width="36" height="36" viewBox="0 0 36 36"><path fill="#292F33" d="M8.22 28.583s.108-.118.211-.409c.104-.291.147-.888.133-.98s-.039-.164-.148-.171c-.083-.006-.768.08-1.145-.039c-.699-.22-.812-.957-.812-.957s-.46.083-.829.152s-.818.209-1.134.274c-.271.056-.548.03-.823-.03s-.485-.147-.55-.165c-.066-.017-.575-.27-.782.25l-.051.154s.811.718 2.114 1.182s1.639.152 2.481.452c.843.3 1.335.287 1.335.287"/><path fill="#292F33" d="M6.243 28.821c-.038-.07-.043-.253-.083-.292s-.577-.11-.83-.137a5 5 0 0 1-1.158-.244c-.471-.168-1.032-.523-1.375-.752s-.594-.46-.646-.526s-.026-.078-.011-.107s.119-.176.119-.176s.196.213.569.459s.754.467 1.458.717c.703.25 1.182.303 1.583.335c.499.039 1.207.141 1.681.309c.365.13.66.114.768.123c.025.002.04.027.032.051l-.222.623c-.014.041-.081.121-.196.105s-1.651-.419-1.689-.488"/><path fill="#4289C1" d="M25.097 17.21c.069 1.432-.391 2.922-1.505 3.202c-1.066.268-3.056-.151-3.056-.151s-.698.408-.531 1.189c.095.444.257.67.201.712c-.05.038-.486-.022-.684-.032c-.528-.027-1.1-.211-2.073-.484c-.974-.273-1.421-.285-2.481-.577c-1.175-.324-1.986-.835-2.33-1.956c-.293-.956.277-2.123 1.654-2.63c1.12-.412 4.288.195 5.488.311c1.201.118 5.257-.829 5.317.416"/><path fill="#4289C1" d="M7.127 27.177c-.646-.143-1.069-.49-1.426-1.025c1.678-1.899 3.787-7.307 3.787-7.307c.695-1.744 1.62-2.914 3.252-2.851c2.317.089 5.748.535 5.748.535c2.276.329.671.789 1.305 1.693c.635.903-1.294 1.99-2.786 1.891c-2.602-.173-3.877-.453-5.522.846c-.8 2.306-2.071 4.087-2.844 6.406c-.489.079-.868-.045-1.514-.188"/><path fill="#7C533E" d="M24.879.905c-1.341-.8-3.695-.439-4.23 1.193c-.531 1.621-.487 4.307 1 4.389c1.559.086 3.185.011 4.064-1.464c.88-1.474.507-3.318-.834-4.118"/><path fill="#7C533E" d="M25.24 5.363c2.488-2.108-2.576-2.694-2.576-2.694c-.957-.122-.563 1.57-1.152 2.362c-.405.548.834 1.078.834 1.078s.594.089.508.813l-.001.007a2.1 2.1 0 0 1-.211.676c-.662 1.37 1.127 2.571 1.789 1.198c.262-.544.279-1.056.27-1.534l-.001-.042c-.015-.712-.076-1.343.54-1.864"/><path fill="#0B0200" d="M26.422 1.752C25.651.478 24.415-.201 22.023.298c-2.089.436-1.714 2.102-1.212 1.91c1.382-.528 2.116.237 2.589 1.369c.27-.473 1.143-.648 1.189.117c.051.859-.778 1.094-.712 1.337c.022.082-.028-.075 0 0c.35.945 1.106 1.348 1.106 1.348s.283.169.969-.766c.684-.934 1.235-2.595.47-3.861"/><path fill="#0B0200" d="M25.843 2.713c1.875.677.661 2.73.665 3.791c.004 1.306 1.158 1.604 1.158 1.604s-.331-.74-.045-1.649c.397-1.26 1.797-2.079 1.069-3.475c-.927-1.783-4.012-.692-2.847-.271"/><path fill="#9268CA" d="M25.778 16.257c-.214 1.304-.659 2.456-.696 3.032c-.02.32-.939-.237-1.604-.511c-1.782-.735-3.317-1.825-3.317-1.825c.398-1.193.696-3.032.149-5.268c-.477-1.953 3.106-5.252 4.309-4.634c1.573.807 2.382 1.782 1.904 4.684z"/><path fill="#66757F" d="m27.811 10.609l.425-5.242a.5.5 0 0 1 .539-.458c.274.022.48.265.458.539l-.425 5.242a.5.5 0 0 1-.539.458a.5.5 0 0 1-.458-.539"/><path fill="#292F33" d="M16 21v2s-2 0-2 2v3c0 1 1 2 2 2h10c1 0 2-1 2-2v-5c0-1-1-2-2-2z"/><path fill="#292F33" d="m22.956 22.559l-9.848-1.736c-.985-.174-.985-.174-.811-1.158a1 1 0 0 1 1.158-.811l9.848 1.736c.542.096.907.617.811 1.158c-.173.985-.173.985-1.158.811"/><path fill="#292F33" d="M25.238 19.023c-.193.922-.557 1.827-2.094 1.537s-1.782 1.225-.824 1.493c.958.267 3.252.646 3.921-.446c.668-1.092.78-2.139.713-2.606s-1.572-.66-1.716.022"/><path fill="#DD2E44" d="m23.442 22.896l-10.833-1.91a.5.5 0 0 1-.406-.579a.5.5 0 0 1 .579-.406l10.833 1.91a.5.5 0 0 1 .406.579a.5.5 0 0 1-.579.406"/><path fill="#292F33" d="m28.932 9.642l-1.736 9.848c-.174.985-.174.985-1.158.811a1 1 0 0 1-.811-1.158l1.736-9.848a1 1 0 0 1 1.158-.811c.984.173.984.173.811 1.158m.992-7.49l-.713 4.025c-.087.493-.168 1.007-1.153.834c-.542-.096-.882-.715-.763-1.398l.639-3.609c.163-.579.626-1.004 1.167-.909c.985.173.91.564.823 1.057"/><path fill="#DD2E44" d="m29.406 9.224l-1.91 10.833a.5.5 0 0 1-.579.406a.5.5 0 0 1-.406-.579l1.91-10.833a.5.5 0 0 1 .985.173m1.243-7.455l-.91 5.18a.5.5 0 0 1-.579.406a.5.5 0 0 1-.406-.579l.91-5.18a.5.5 0 0 1 .985.173"/><path fill="#292F33" d="m25.494 18.441l-7.466-1.316c-.747-.132-.747-.132-.617-.869a.757.757 0 0 1 .877-.606l7.466 1.316a.756.756 0 0 1 .617.869c-.13.738-.13.738-.877.606"/><path fill="#DD2E44" d="M23.123 21.824c.993.175 2.954.521 3.475-2.433s1.506-2.781.985.174s-2.237 3.667-4.634 3.245c-1.969-.348-1.796-1.333.174-.986m-10.33-1.821c1.971.34 2.277 1.422.308 1.07c-.873-.156-.984.212-1.251.958c-.252.702-.611 1.757-1.144 3.23c-.391 1.082-1.279.603-.95-.342a159 159 0 0 1 1.392-3.847c.338-.895.613-1.247 1.645-1.069"/><path fill="#DD2E44" d="M10.62 24.01a.5.5 0 0 0-.641.299l-2.052 5.638a.5.5 0 0 0 .299.641a.5.5 0 0 0 .641-.299l2.052-5.638a.5.5 0 0 0-.299-.641"/><path fill="#66757F" d="M8.226 30.588L4.467 29.22a.5.5 0 0 1-.299-.641a.5.5 0 0 1 .641-.299l3.759 1.368a.5.5 0 0 1 .299.641a.5.5 0 0 1-.641.299"/><path fill="#DD2E44" d="m13.844 30.862l2.95-2.95a.5.5 0 0 0 0-.707a.5.5 0 0 0-.707 0l-2.95 2.95a.5.5 0 0 0 0 .707a.5.5 0 0 0 .707 0M32 34c-.55 0-1-.45-1-1v-3c0-.55.45-1 1-1s1 .45 1 1v3c0 .55-.45 1-1 1"/><path fill="#DD2E44" d="M13.5 34c-.55 0-1-.45-1-1v-3c0-.55.45-1 1-1s1 .45 1 1v3c0 .55-.45 1-1 1m12.983-6.005h2c.275 0 .5-.225.5-.5s-.225-.5-.5-.5h-2c-.275 0-.5.225-.5.5s.225.5.5.5"/><path fill="#DD2E44" d="m31.123 30.803l-2.95-2.95a.5.5 0 0 1 0-.707a.5.5 0 0 1 .707 0l2.95 2.95a.5.5 0 0 1-.707.707"/><path fill="#292F33" d="M11.672 16.127c.742.318 2.05.936 2.339 1.047c0 0 .134-.891.49-.891c0 0 .134-.468.223-.668s.356-.134.379.245c.022.379-.089.512-.089.512s.334.423.134 1.002c0 0 .446.067.356.624c-.089.557.067.98-.334 1.092c-.401.111-1.916.535-1.938-.067c-.022-.601-.401-1.069-1.136-1.515s-1.27-.936-1.181-1.181c.088-.244.133-.467.757-.2"/><path fill="#DD2E44" d="M26.5 25h-11c-.275 0-.5-.225-.5-.5s.225-.5.5-.5h11c.275 0 .5.225.5.5s-.225.5-.5.5"/><path fill="#7C533E" d="M22.691 10.276c-.579 1.455-.982 3.884-1.237 3.894c-1.473.062-3.222.614-4.149.559c-.672-.04-1.306-.167-1.651-.05c-.552.187-1.159.289-1.351.632c-.195.348.171.657 1.035.656c.635 0 1.045.208 1.674.06c.896-.21 4.492.479 5.665-.345c.554-.389 1.272-1.95 2.356-4.742c-1.084-.476-2.342-.664-2.342-.664"/><circle cx="21.5" cy="31.5" r="4.5" fill="#66757F"/><circle cx="13.5" cy="33.5" r="2.5" fill="#66757F"/><circle cx="32" cy="34" r="2" fill="#66757F"/><circle cx="21.5" cy="31.5" r="2.5" fill="#CCD6DD"/><circle cx="13.5" cy="33.5" r="1.5" fill="#CCD6DD"/><circle cx="32" cy="34" r="1" fill="#292F33"/><g fill="#292F33"><circle cx="22" cy="30.634" r=".5"/><circle cx="21" cy="32.366" r=".5"/><circle cx="20.634" cy="31" r=".5"/><circle cx="22.366" cy="32" r=".5"/></g><circle cx="13.5" cy="33.5" r=".75" fill="#292F33"/><circle cx="32" cy="34" r=".5" fill="#66757F"/></svg>