<svg xmlns="http://www.w3.org/2000/svg" xmlns:xlink="http://www.w3.org/1999/xlink" width="36" height="36" viewBox="0 0 36 36"><ellipse cx="18" cy="23" fill="#FFD983" rx="18" ry="5"/><path fill="#FFD983" d="M29 17c0 1.566-4.925 6-11 6S7.043 18.566 7.043 17C7.043 10 14 7 18 7s11 3 11 10"/><path fill="#9266CC" d="M29 21c-5 3-17 3-22 0c0-.492.043-3.535.043-4C13 20 23 20 29 17c-.003.465 0 3.508 0 4"/><ellipse cx="18" cy="24" fill="#FFF" rx="1" ry="2"/><ellipse cx="18" cy="18" fill="#FFF" rx="1" ry="2"/><path fill="#FFF" d="M16.586 23.828c-.781.781-1.731 1.098-2.121.707c-.391-.391-.074-1.34.707-2.121s1.73-1.098 2.122-.707c.39.391.073 1.341-.708 2.121m4.242-4.242c-.78.781-1.73 1.098-2.121.707s-.074-1.34.707-2.122s1.73-1.098 2.121-.707s.074 1.341-.707 2.122"/><path fill="#FFF" d="M15 22c-1.105 0-2-.448-2-1c0-.553.896-1 2-1s2 .447 2 1s-.896 1-2 1m6 0c-1.104.001-2-.447-2-1s.896-1 2-1s2 .447 2 1s-.896 1-2 1"/><path fill="#FFF" d="M15.172 19.587c-.782-.782-1.098-1.732-.707-2.122c.391-.391 1.34-.074 2.121.707c.781.782 1.098 1.73.707 2.121c-.391.392-1.341.074-2.121-.706m4.242 4.242c-.782-.78-1.098-1.73-.707-2.121c.391-.392 1.34-.074 2.121.707s1.098 1.73.707 2.121c-.389.39-1.34.074-2.121-.707"/><circle cx="18" cy="21" r="2" fill="#FFAC33"/></svg>