<svg xmlns="http://www.w3.org/2000/svg" xmlns:xlink="http://www.w3.org/1999/xlink" width="36" height="36" viewBox="0 0 36 36"><path fill="#3B88C3" d="M31 36v-4.5c0-3.314-3.56-5.5-6.875-5.5h-12C8.812 26 5 28.186 5 31.5V36z"/><path fill="#FFE51E" d="M17.945 3.978c4.105 0 10.947 2.053 10.947 10.947c0 8.896 0 10.948-2.053 10.948s-4.79-2.053-8.895-2.053s-6.785 2.053-8.895 2.053c-2.287 0-2.053-8.211-2.053-10.948c.001-8.894 6.844-10.947 10.949-10.947"/><path fill="#292F33" d="M10.5 32.5h-2c0-4.094 1.877-8.5 6-8.5v2c-3.164 0-4 4.252-4 6.5m16-4h-2c0-.411-.521-2.5-3-2.5v-2c3.533 0 5 2.931 5 4.5"/><circle cx="9.5" cy="32.5" r="3" fill="#CCD6DD"/><circle cx="9.5" cy="32.5" r="2" fill="#F5F8FA"/><path fill="#292F33" d="M29.5 34h-2c0-.835-.108-5-2.25-5S23 33.165 23 34h-2c0-4.383 1.589-7 4.25-7s4.25 2.617 4.25 7"/><circle cx="22" cy="34" r="1" fill="#CCD6DD"/><circle cx="28.5" cy="34" r="1" fill="#CCD6DD"/><path fill="#F3D2A2" d="M14.5 22.409V26l3.5 5l3.5-5v-3.591z"/><path fill="#E2C196" d="M14.5 24c1.023 1.155 2.112 1.5 3.49 1.5s2.487-.345 3.51-1.5v-2.937h-7z"/><path fill="#F3D2A2" d="M9.734 14.627c0-5.834 3.676-10.563 8.211-10.563c4.533 0 8.209 4.73 8.209 10.563s-3.676 10.285-8.209 10.285c-4.535 0-8.211-4.452-8.211-10.285"/><path fill="#DF1F32" d="M17.945 22.452c-1.606 0-2.447-.794-2.537-.885a.685.685 0 0 1 .961-.974c.035.032.551.491 1.576.491c1.038 0 1.555-.473 1.576-.492a.69.69 0 0 1 .963.02c.26.269.26.691-.004.955c-.089.091-.929.885-2.535.885"/><path fill="#FFE51E" d="M7.725 17.909c-.021-1-.044-.224-.044-.465c0-3.422 2.053.494 2.053-1.943c0-2.439 1.368-2.683 2.736-4.051c.685-.685 2.053-2.026 2.053-2.026s3.421 2.067 6.158 2.067c2.736 0 5.474 1.375 5.474 4.112s2.053-1.584 2.053 1.837c0 .244-.023-.531-.04.469h.719c.006-2 .006-1.924.006-3.202c0-8.894-6.842-12.207-10.948-12.207c-4.105 0-10.948 3.257-10.948 12.152c0 .793-.02 1.257.008 3.257z"/><path fill="#662113" d="M14.608 16.796a.85.85 0 0 1-.846-.847v-.845c0-.465.381-.846.846-.846a.85.85 0 0 1 .847.846v.845a.85.85 0 0 1-.847.847m6.765 0a.85.85 0 0 1-.846-.847v-.845c0-.465.381-.846.846-.846s.846.381.846.846v.845a.85.85 0 0 1-.846.847"/><path fill="#C1694F" d="M18.836 19.409h-1.69a.424.424 0 0 1-.423-.423v-.153c0-.233.189-.424.423-.424h1.69c.233 0 .424.19.424.424v.153a.424.424 0 0 1-.424.423"/><path fill="#F3D2A2" d="M11.444 14.845c0 1.448-.734 2.622-1.639 2.622s-1.639-1.174-1.639-2.622s.734-2.623 1.639-2.623s1.639 1.174 1.639 2.623m16.389 0c0 1.448-.733 2.622-1.639 2.622c-.905 0-1.639-1.174-1.639-2.622s.733-2.623 1.639-2.623s1.639 1.174 1.639 2.623"/></svg>