<svg xmlns="http://www.w3.org/2000/svg" xmlns:xlink="http://www.w3.org/1999/xlink" width="36" height="36" viewBox="0 0 36 36"><path fill="#292F33" d="M19 0c-1.721 0-3.343.406-4.793 1.111A7 7 0 0 0 13 1a7 7 0 0 0-7 7v12h.018C6.201 26.467 11.489 31.656 18 31.656S29.799 26.467 29.982 20H30v-9c0-6.075-4.925-11-11-11"/><path fill="#9268CA" d="M27 27H10v9h21v-5a4 4 0 0 0-4-4"/><path fill="#F7DECE" d="M9 5v12c0 3.917 2.507 7.24 6 8.477V28a3 3 0 1 0 6 0v-2.523c3.493-1.237 6-4.56 6-8.477V5z"/><path fill="#292F33" d="M26.999 5V4H8v7c6 0 6-6 6-6s2 7 14 7V5z"/><path fill="#292F33" d="M12.252 4.589h4.01v4.703h-4.01z"/><path fill="#7450A8" d="m18.734 18.386l1.827.691s-6.529 13.746-7.413 15.022s-1.87 2.055-4.57 1.76zM26 32h1v4h-1z"/><path fill="#7450A8" d="M14.984 28.391s-2.359 4.422-2.865 5.335c-.276.497-1.305 2.009-2.322 2.009c0 0 2.214.122 3.122-1.682a142 142 0 0 1 2.425-4.646s-.125-.328-.203-.484c-.118-.235-.157-.532-.157-.532"/><path fill="#662113" d="M24.157 16.371c-.026-.058-.596-1.288-1.747-1.529l-.49 1.395c.037-.001.063-.009.101-.009c1.162 0 1.76.422 1.774.432a.24.24 0 0 0 .292-.005a.24.24 0 0 0 .07-.284"/><path fill="#E0AA94" d="m22.646 8.125l-3.774-1.324a2 2 0 0 0-2.549 1.225l-.756 2.155l-.284-1.14c-.172-.687-.825-1.486-1.77-1.195c-.677.208-.891 1.127-.719 1.815l1.226 4.929l-.345.984l.613 1.275l5.662 1.986c.944.331 1.275-.613 1.275-.613l.696-1.985l.49-1.395l1.462-4.168a2 2 0 0 0-1.227-2.549"/><path fill="#4F140B" d="M22.021 14.792c-1.417 0-2.107 1.515-2.136 1.58a.24.24 0 0 0 .069.283c.084.068.204.07.292.007c.005-.004.578-.397 1.673-.423l.49-1.395a1.8 1.8 0 0 0-.388-.052"/><path fill="#F7DECE" d="M12.513 7.657a1.284 1.284 0 0 1 1.555.934l.284 1.14l.756-2.155a2 2 0 0 1 2.549-1.225l3.774 1.324a2 2 0 0 1 1.225 2.549l-2.648 7.549s-.331.944-1.275.613L13.072 16.4l-.613-1.275l.345-.984l-1.226-4.929a1.283 1.283 0 0 1 .935-1.555"/><path fill="#E0AA94" d="m18.743 12.054l1.655-4.718l.944.331l-1.655 4.718zm-2.83-.993l1.656-4.718l.943.331l-1.655 4.718z"/><path fill="#DF1F32" d="M20.995 23.364s-.56-1.117-1.678-1.681c-.246.514-.516 1.078-.807 1.681zm-6 0h.815l1.024-1.744c-1.22.535-1.839 1.744-1.839 1.744"/><path fill="#E0AA94" d="m18.734 18.386l-1.9 3.234l-1.024 1.744l-1.16 1.974L15 28c0 .594.178 1.144.476 1.61c.98-1.986 2.097-4.295 3.035-6.246l.807-1.681c.741-1.547 1.244-2.606 1.244-2.606z"/><path fill="#A0041E" d="M19.317 21.683a2.9 2.9 0 0 0-1.322-.319c-.438 0-.819.107-1.161.256l-1.024 1.744h2.701z"/><path fill="#9268CA" d="M14.278 29.85s-1.719 3.579-2.107 4.416C11.484 35.75 10 36 10 36c-8 0-3.622-8.343-3.622-8.343l6.432-11.846l6.541 2.58z"/></svg>