<svg xmlns="http://www.w3.org/2000/svg" xmlns:xlink="http://www.w3.org/1999/xlink" width="36" height="36" viewBox="0 0 36 36"><path fill="#7C533E" d="M13.483 21.579c-.58.32-2.256 1.279-3.282 2.204c-.596.537-.518.928-.329 1.871l.017.085c.186.932 2.106 7.039 2.483 8.232l1.168-.291c.014-.621.043-2.801-.18-4.205c-.074-.47-.149-1.036-.217-1.549a29 29 0 0 0-.184-1.273c-.077-.396.05-.65.411-.825a52 52 0 0 1 1.764-.814zm10.673 5.408c-.533-.065-1.037-.128-1.278-.143c-.403-.025-.618-.212-.695-.606a55 55 0 0 1-.345-1.912l-3.74.733c.164.643.671 2.505 1.308 3.732c.369.711.767.734 1.726.789l.088.005c.95.057 7.342-.266 8.593-.33l.013-1.205c-.597-.169-2.699-.746-4.114-.885a53 53 0 0 1-1.556-.178"/><path fill="#8899A6" d="m28.11 29.77l-.166-.306a.09.09 0 0 1 .054-.123c.16-.055.483-.203.596-.262c-.098.224-.21.582-.335.69c-.048.041-.124.059-.149.001"/><path fill="#BE1931" d="M30.53 27.396c-.13-.104-.427-.155-.613-.173a6 6 0 0 0-.746-.007a2 2 0 0 0-.331.04c-.185.054-.266.131-.31.185c-.053.065-.058.134-.046.169c.049.143.284.39.386.625a.5.5 0 0 1 .047.226c-.025.258-.354.633-.6.911c-.148.167-.266.299-.271.35a.25.25 0 0 0 .035.148v.002c.067.123.214.251.314.587c.065.217.369 1.205.369 1.205c.073.252.17.313.211.449c.085.277.235 1.021.309 1.256a.49.49 0 0 0 .39.355c.138.019.217-.013.217-.013s.322-.145.535-1.352c.154-.872.018-1.007-.098-2.317c-.114-1.312.202-2.646.202-2.646"/><path fill="#DD2E44" d="M30.261 29.344c-.219-.09-.72-.42-.86-.775c-.127-.321-.213-1.188-.229-1.353c.269-.024.682-.006.815.006c.175.017.377.031.498.134l.046.04a49 49 0 0 0-.27 1.948"/><path fill="#CCD6DD" d="M28.337 30.337a.2.2 0 0 1-.086-.381l.319-.151a.2.2 0 1 1 .172.361l-.319.151a.2.2 0 0 1-.086.02m.204.584a.2.2 0 0 1-.19-.139a.2.2 0 0 1 .13-.251l.354-.113a.2.2 0 0 1 .121.381l-.354.113a.2.2 0 0 1-.061.009m.172.595a.2.2 0 0 1-.196-.16a.2.2 0 0 1 .156-.236l.332-.068a.197.197 0 0 1 .236.156a.2.2 0 0 1-.156.236l-.332.068zm2.59-3.873c-.006-.027-.025-.128-.095-.252c-.023-.042-.077-.055-.131-.061c-.067-.009-.56-.08-.569.02c0 0-.002.148-.072.25s-.118.352-.136.539c-.018.186-.098.887-.08 1.379s.17 1.383.178 1.68s0 .759-.063 1.101s-.131.646-.183.834a1.8 1.8 0 0 1-.26.578s.389-.026.687-.602c.235-.454.367-.891.416-1.317c.004-.032.105-1.168.154-1.736c.035-.415.095-1.078.095-1.078c.075-.786.093-1.185.059-1.335"/><path fill="#8899A6" d="m11.438 32.516l.246-.246a.09.09 0 0 1 .134.017c.098.138.332.406.421.497c-.243-.03-.618-.036-.757-.125c-.054-.035-.093-.103-.044-.143"/><path fill="#BE1931" d="M14.401 34.162c.063-.154.027-.453-.008-.637a6 6 0 0 0-.205-.717a2 2 0 0 0-.132-.306a.57.57 0 0 0-.266-.244c-.077-.033-.145-.018-.175.004c-.123.088-.294.383-.489.548a.46.46 0 0 1-.204.109c-.254.049-.707-.159-1.044-.317c-.202-.094-.362-.17-.412-.16a.25.25 0 0 0-.132.075l-.002.001h.001c-.099.099-.18.277-.474.468c-.189.123-1.051.696-1.051.696c-.221.141-.252.252-.37.33c-.242.16-.912.515-1.117.653a.49.49 0 0 0-.156.679s.23.268 1.448.129c.88-.1.97-.269 2.194-.752s2.594-.559 2.594-.559"/><path fill="#DD2E44" d="M12.457 34.457c.024-.236.198-.809.499-1.045c.271-.212 1.079-.542 1.232-.604c.1.251.2.652.225.783c.033.173.078.37.013.516l-.025.056c0-.001-1.38.184-1.944.294"/><path fill="#CCD6DD" d="M11.385 33.301a.2.2 0 0 1-.149-.067L11 32.971a.2.2 0 0 1 .299-.266l.235.263a.2.2 0 0 1-.149.333m-.529.406a.2.2 0 0 1-.165-.088l-.209-.308a.2.2 0 1 1 .33-.225l.209.308a.2.2 0 0 1-.165.313m-.57.325a.2.2 0 0 1-.177-.106l-.159-.299a.2.2 0 1 1 .354-.188l.159.299a.2.2 0 0 1-.177.294m4.098.941c.024-.013.116-.06.215-.162c.033-.034.031-.089.022-.143c-.011-.067-.083-.559-.181-.54c0 0-.143.04-.26.002s-.371-.013-.555.022c-.184.036-.878.158-1.345.315s-1.277.556-1.56.648s-.728.215-1.074.252s-.657.058-.851.062a1.8 1.8 0 0 1-.628-.085s.136.366.772.488c.502.097.959.099 1.381.025c.032-.006 1.15-.231 1.708-.346c.408-.084 1.06-.215 1.06-.215c.774-.151 1.162-.247 1.296-.323"/><path fill="#A0041E" d="M13.084 21.466c.738-.382 3.176-1.588 4.842-1.76c.152-.016 1.526 3.904 1.341 3.963c-.763.246-2.681.897-4.134 1.668a.334.334 0 0 1-.433-.09c-.431-.605-1.549-2.257-1.798-3.436c-.029-.138.048-.276.182-.345"/><path fill="#BE1931" d="M17.882 25.364c-.196-.795-.794-3.411-.586-5.049c.019-.15 3.69-.685 3.69-.685c.175-.021.6 3.084 1.005 4.655c.043.166-.033.334-.181.395c-.667.275-2.474.969-3.643.937c-.136-.004-.249-.11-.285-.253"/><path fill="#7C533E" d="M14.801 11.245c-.114.64.259 1.431 1.738 1.741s2.554.273 3.324.218c.653-.047.563.952.711 1.998c.148 1.05.241 2.419.182 2.633c-.1.361-.722.479-.439 1.123c.283.643.329.995.942.79s1.222-.427 1.396-.759s-.43-1.065-.439-1.463c-.007-.294.293-3.972.275-4.405c-.022-.528-.035-1.251-.884-1.582s-4.108-1.174-4.972-1.342c-.912-.177-1.683.199-1.834 1.048"/><path fill="#7C533E" d="M16.495 6.612a3.4 3.4 0 0 0 .661-1.455c.409-2.083-.794-4.073-2.688-4.444c-1.893-.372-4.483 1.029-4.425 3.151c.057 2.107 1.229 5.214 2.993 4.69c.466-.138.932-.29 1.375-.474c.189.224.325 1.081.247 1.815c-.2 1.87 2.381 2.065 2.579.192c.157-1.482-.768-2.424-.742-3.475"/><path fill="#0B0200" d="M21.903 2.733c-1.311-.014-2.496-1.36-3.845-.501a2.8 2.8 0 0 0-.604.503c-.234-.711-.636-1.367-1.299-1.798C15.507.515 14.712.2 13.961.285C9.384.801 9.632 4.111 9.98 4.421s1.299-.572 2.002-.669c.328-.046 1.041-.053 1.419.49c.306.44.411 1.33.411 1.33s.012-1.012.041-1.368c.027-.332.356-.714.801-.222c.387.428.19 1.268-.079 1.356c-.207.068.129.575.648.961c.946.704 1.681.428 1.786.389c.106-.039.465-.118.648-1.333q.039-.255.055-.537c.374.324.987.709 1.827.715c.929.007 2.619-.466 3.586-1.621c.744-.889 1.05-2.355 1.05-2.355c-.395.738-1.283 1.187-2.272 1.176"/><path fill="#DD2E44" d="M19.624 10.939c-.728-1.703-1.783-2.597-3.229-2.114c-1.285.43-1.922 1.151-2.301 1.96c-.184.393-.901 1.933-.466 2.933c.851 1.956 2.243 5.863 2.488 7.059c0 0 .322.326 2.403.064c1.823-.23 2.732-.404 2.732-.404c-.277-2.594-.452-6.747-1.627-9.498"/><path fill="#7C533E" d="M17.202 11.067c-.577-.372-1.499-.331-2.404.983a12 12 0 0 0-1.568 3.148c-.221.655-1.157.16-2.236-.122c-1.083-.284-2.455-.752-2.639-.897c-.311-.245-.172-.898-.914-.886s-1.103-.086-1.153.595s-.083 1.364.17 1.669s1.212.016 1.604.169c.289.113 3.749 1.905 4.178 2.064c.524.194 1.233.476 1.901-.216s2.819-3.522 3.335-4.296c.543-.814.491-1.718-.274-2.211"/></svg>