<svg xmlns="http://www.w3.org/2000/svg" xmlns:xlink="http://www.w3.org/1999/xlink" width="36" height="36" viewBox="0 0 36 36"><path fill="#662113" d="M34.539 33.488s1.18.215 1.18 1.256c0 1.043-1.042 1.256-2.084 1.256h-17.72C13.831 36 10 32 8 32l-.592 4H1v-2.936c0-2.084-.881-2.285-.881-3.211c0-2.084.672-4.395.672-4.395L17 33z"/><path fill="#C1694F" d="M25.449 27.111C23.146 26.054 19.194 21.618 19 21.4C14.149 13.139 19 1 19 1s-1.916-1-7-1q-1.013.001-2 .049L9 1L8 .182C4.616.47 2 1 2 1s1 15 1 17s-.723 3.401-.723 3.401S.84 23.829.583 24.959c-.287 1.26.22 2.113 1.084 2.322C4.704 28.013 8 29 15.637 32.66c0 0 2 1.34 4.363 1.34h14.539s1.18-.257 1.18-2.424c0-1.084-7.907-3.381-10.27-4.465"/><path fill="#D99E82" d="M10 20V.049q-1.032.05-2 .133V20z"/></svg>