<svg xmlns="http://www.w3.org/2000/svg" xmlns:xlink="http://www.w3.org/1999/xlink" width="256" height="256" viewBox="0 0 256 256"><g fill="none"><rect width="256" height="256" fill="url(#skillIconsApollo0)" rx="60"/><path fill="#fff" d="m140.279 73.046l-26.661-.047l-36.942 97.887l24.114.042l6.029-16.586l36.375.062l-6.877-18.366l-23.946-.042l14.909-42.121l28.934 77.148l24.115.042l-40.05-98.02Z"/><path fill="#fff" d="M233.142 99.124a5.325 5.325 0 0 0-.297-.968a2.277 2.277 0 0 0-.137-.308a5.554 5.554 0 0 0-2.061-2.291a5.65 5.65 0 0 0-2.979-.86a5.459 5.459 0 0 0-3.863 1.573a5.244 5.244 0 0 0-1.228 5.538l-.016.006a96.336 96.336 0 0 1 4.098 26.369c.411 25.919-9.499 50.271-27.9 68.567c-18.404 18.297-43.1 28.346-69.538 28.301c-26.436-.046-51.454-10.183-70.437-28.543c-18.987-18.361-29.667-42.748-30.078-68.667c-.41-25.92 9.5-50.271 27.903-68.567c18.402-18.297 43.1-28.346 69.536-28.3c23.607.04 46.076 8.133 64.133 22.939a12.816 12.816 0 0 0-.856 4.822c.115 7.279 6.226 13.187 13.652 13.2c7.423.013 13.349-5.875 13.233-13.154c-.115-7.279-6.228-13.19-13.651-13.203a13.542 13.542 0 0 0-4.597.787C178.55 30.1 153.358 20.238 125.974 20.19C65.237 20.085 16.765 68.273 17.709 127.822c.944 59.548 50.945 107.907 111.683 108.012c60.738.105 109.209-48.082 108.266-107.632a106.76 106.76 0 0 0-4.516-29.078Z"/><defs><linearGradient id="skillIconsApollo0" x1="0" x2="256" y1="0" y2="256" gradientUnits="userSpaceOnUse"><stop stop-color="#4010AC"/><stop offset="1" stop-color="#D540A8"/></linearGradient></defs></g></svg>