<svg xmlns="http://www.w3.org/2000/svg" xmlns:xlink="http://www.w3.org/1999/xlink" width="256" height="256" viewBox="0 0 256 256"><g fill="none"><rect width="256" height="256" fill="#242938" rx="60"/><path fill="#fff" d="M51.865 171.69c1.633 0 3.18.387 3.955 1.16c.129 1.205-.947 3.139-1.634 3.139c-.817-.301-1.59-.474-2.536-.474c-3.912 0-5.847 4.042-5.847 8.039c0 2.493.86 3.998 2.838 3.998c2.106 0 4.255-1.418 5.459-2.493c.3.214.687.903.687 1.676c0 .86-.258 1.677-1.031 2.45c-1.376 1.376-3.697 2.536-7.05 2.536c-3.869 0-6.534-2.192-6.534-7.307c0-6.706 4.428-12.724 11.65-12.724zM64.5 187.337c2.106 0 5.933-3.697 7.007-10.746c.043-.43.086-.559.172-.989a5.4 5.4 0 0 0-1.763-.301c-1.59 0-3.224.473-4.685 2.45c-1.504 2.106-2.149 4.728-2.149 6.835c0 1.804.516 2.751 1.375 2.751zm-6.92-1.934c0-2.536.859-6.964 4.084-10.188c2.75-2.837 6.103-3.525 9.156-3.525c2.02 0 4.77.644 6.49.989c-.43 1.891-1.461 9.026-1.934 13.153c-.215 1.763-.301 4.213-.215 5.116c-1.418.601-4.083.773-4.815.773c-.386 0-.473-1.762-.343-3.438a47 47 0 0 1 .171-1.72c-1.676 2.794-4.986 5.158-8.468 5.158c-2.492 0-4.127-2.063-4.127-6.275zm30.432-13.713c1.762 0 3.438.645 4.213 1.461c-.043 1.205-.989 3.224-2.494 2.665c-.645-.215-1.29-.386-2.15-.386c-1.16 0-2.148.516-2.148 1.59c0 .816.601 1.419 3.481 3.439c2.064 1.505 2.88 2.837 2.88 4.728c0 3.139-2.966 6.534-8.124 6.534c-2.106 0-3.955-.816-4.557-1.676c-.773-1.289-.172-3.825.689-3.396c1.117.558 2.966 1.161 4.47 1.161c1.418 0 2.321-.646 2.321-1.505c0-.73-.645-1.376-3.267-3.224c-2.192-1.633-2.88-3.138-2.88-4.857c0-3.567 3.052-6.534 7.523-6.534zm14.828 0c1.763 0 3.439.645 4.213 1.461c-.043 1.205-.988 3.224-2.493 2.665c-.645-.215-1.29-.386-2.149-.386c-1.161 0-2.149.516-2.149 1.59c0 .816.601 1.419 3.481 3.439c2.063 1.505 2.88 2.837 2.88 4.728c0 3.139-2.967 6.534-8.124 6.534c-2.107 0-3.955-.816-4.557-1.676c-.773-1.289-.172-3.825.688-3.396c1.118.558 2.966 1.161 4.47 1.161c1.419 0 2.321-.646 2.321-1.505c0-.73-.644-1.376-3.266-3.224c-2.192-1.633-2.88-3.138-2.88-4.857c0-3.567 3.051-6.534 7.523-6.534zm13.538 15.647c2.107 0 5.933-3.697 7.007-10.746c.043-.43.087-.559.173-.989a5.4 5.4 0 0 0-1.763-.301c-1.59 0-3.224.473-4.686 2.45c-1.503 2.106-2.149 4.728-2.149 6.835c0 1.804.516 2.751 1.376 2.751zm-6.921-1.934c0-2.536.861-6.964 4.084-10.188c2.751-2.837 6.104-3.525 9.157-3.525c2.02 0 4.772.644 6.491.989c-.43 1.891-1.462 9.026-1.934 13.153c-.216 1.763-.301 4.213-.216 5.116c-1.419.601-4.083.773-4.814.773c-.386 0-.473-1.762-.344-3.438a46 46 0 0 1 .172-1.72c-1.676 2.794-4.986 5.158-8.468 5.158c-2.493 0-4.128-2.063-4.128-6.275zm29.444-8.125c1.978-3.181 4.556-5.588 8.168-5.588c3.051 0 4.04 2.837 3.482 6.877c-.301 1.892-.817 4.6-1.161 7.093c-.301 2.107-.516 3.998-.472 5.288c-1.118.559-4.385.774-5.116.774c-.301 0-.345-2.365.043-4.858c.343-2.063 1.074-5.803 1.418-7.953c.216-1.245.172-2.751-1.031-2.751c-1.592 0-5.373 2.537-7.265 12.939c-.13.86-.473 1.375-.947 1.676c-.644.388-2.02.732-4.813.775c.516-2.622 1.333-7.996 1.934-11.95c.558-3.611.774-5.933.644-6.835c.732-.258 4.558-1.075 4.986-1.075c.475 0 .56 1.333.13 4.557c-.042.301-.086.773-.13 1.031zm21.836 10.016c1.89 0 5.717-3.525 6.791-9.758c.044-.344.173-.988.259-1.376c-.56-.516-1.291-.86-2.45-.86c-4.343 0-6.277 5.202-6.277 8.942c0 2.02.688 3.052 1.633 3.052zm-2.837 4.427c-2.751 0-4.47-2.45-4.47-6.662c0-6.964 4.34-13.369 11.648-13.369c1.29 0 2.45.343 3.181.773c.387-1.977 1.289-8.081 1.333-9.887c1.203-.214 3.782-.6 4.942-.6c.475 0 .604.472.431 1.546c-1.033 6.448-2.879 18.828-3.224 21.58c-.259 2.321-.301 4.599-.259 5.888c-1.374.602-4.169.731-4.899.731c-.302 0-.473-1.977-.387-3.739c.043-.559.128-1.377.128-1.505c-2.149 3.525-5.115 5.244-8.382 5.244zm25.187-13.841c2.279-5.073 4.986-6.19 6.749-6.19c.559 0 1.418.344 1.805.774c.173 1.418-.945 4.255-1.934 5.329c-.517-.257-1.16-.515-1.891-.515c-1.463 0-4.343 2.279-6.148 12.079c-.13.817-.387 1.161-.859 1.376c-.73.43-3.611.774-4.986.817c.643-3.526 1.761-10.704 2.192-14.917c.129-1.075.171-3.052.086-3.826c.816-.386 4.041-1.117 4.771-1.117c.387 0 .688 2.365.085 6.19zm15.172 9.457c2.108 0 5.932-3.697 7.008-10.746c.042-.43.086-.559.172-.989a5.4 5.4 0 0 0-1.763-.301c-1.591 0-3.224.473-4.686 2.45c-1.504 2.106-2.15 4.728-2.15 6.835c0 1.804.516 2.751 1.377 2.751zm-6.921-1.934c0-2.536.86-6.964 4.084-10.188c2.751-2.837 6.104-3.525 9.156-3.525c2.02 0 4.771.644 6.492.989c-.43 1.891-1.462 9.026-1.935 13.153c-.215 1.763-.302 4.213-.215 5.116c-1.418.601-4.083.773-4.815.773c-.386 0-.472-1.762-.343-3.438c.043-.559.128-1.376.172-1.72c-1.677 2.794-4.986 5.158-8.468 5.158c-2.494 0-4.128-2.063-4.128-6.275z"/><path fill="#BBE6FB" d="M185.636 98.847c1.418 16.523-24.585 32.249-58.079 35.123s-61.796-8.195-63.213-24.717c-1.418-16.526 24.585-32.25 58.079-35.124c33.494-2.873 61.796 8.192 63.213 24.718"/><path fill="#fff" d="M123.406 76.066c-12.776-.207-27.727 4.865-38.851 9.616a32.1 32.1 0 0 0-1.782 10.564c0 19.6 17.698 35.491 39.531 35.491s39.53-15.891 39.53-35.491c0-6.203-1.776-12.03-4.892-17.105c-8.9-1.383-21.141-2.873-33.536-3.075" opacity=".35"/><path fill="#fff" d="M122.303 76.063c-7.073-.432-19.265 3.258-29.43 6.94a30.2 30.2 0 0 0-2.404 11.82c0 17.174 15.571 31.095 32.042 31.095c16.363 0 30.84-13.944 32.042-31.095c.39-5.585-1.532-10.847-4.202-15.385c-10.539-1.856-21.725-2.99-28.048-3.376"/><path fill="#fff" d="M104.151 92.569c.868-1.922 2.183-2.863 3.456-4.474c-.142-.382-.451-1.63-.451-2.062a3.5 3.5 0 0 1 3.497-3.497c.456 0 .891.09 1.29.249c5.789-4.412 13.41-6.336 21.069-4.624c.7.158 1.386.349 2.059.558c-7.569-1.05-16.101 1.632-21.905 6.316c.177.418.669 1.614.669 2.094c0 1.932-1.25 2.402-3.182 2.402c-.438 0-.858-.084-1.245-.232c-1.311 1.76-2.918 5.114-3.704 7.21c3.209 2.871 6.109 3.912 9.888 5.324c-.01-.18.13-.347.13-.53c0-5.823 5.126-10.556 10.95-10.556c5.219 0 9.541 3.795 10.384 8.774c2.604-1.657 5.122-2.927 7.041-5.382c-.447-.546-.93-2.093-.93-2.854a3.175 3.175 0 0 1 3.174-3.173c.248 0 .487.036.718.09a27.7 27.7 0 0 0 2.18-6.314c-9.107-6.742-26.727-5.822-26.727-5.822s-14.021-.732-23.513 3.894c.633 4.577 2.459 8.928 5.152 12.609"/><path fill="#fff" d="M147.679 89.942a5.9 5.9 0 0 1 1.272 1.586c.851 1.53-.857 2.932-2.61 2.932a3 3 0 0 1-.521-.052c-1.974 3.085-5.433 7.042-8.505 9.034c4.711.772 9.153 2.658 12.689 5.574c2.574-4.612 4.549-11.273 4.549-16.93c0-4.307-1.901-7.463-4.771-9.779c-.151 2.307-1.382 5.533-2.103 7.635m-38.242 29.214c1.57-4.335 5.431-7.694 9.083-10.649c-.534-.731-1.336-2.543-1.67-3.401a25.56 25.56 0 0 1-11.454-7.247c-.022.097-.05.192-.073.29a23.2 23.2 0 0 0-.395 7.686a4.595 4.595 0 0 1 3.748 4.515c0 1.334-1.169 3.266-2.076 4.107c.986 2.127 1.658 3.154 2.837 4.699"/><path fill="#fff" d="M109.16 122.795c-1.872-1.861-3.167-5.575-4.382-7.907c-.227.035-.46.059-.698.059c-2.54 0-5.2-2.131-4.599-4.597c.333-1.365 1.275-2.257 2.809-3.002c-.349-2.827-.444-6.891.213-9.83c.188-.84.586-1.235.85-2.035c-2.802-4.1-4.612-9.483-4.612-14.822c0-.195.01-.388.014-.581c-4.735 2.374-8.286 6.116-8.286 12.005c0 13.027 7.504 25.807 18.667 30.816zm27.452-18.009c-1.443 4.103-5.344 7.05-9.94 7.05c-2.459 0-4.715-.848-6.507-2.258c-3.696 2.878-7.049 7.934-8.753 12.32c.765.823 1.298 1.5 2.156 2.23c2.585.673 6.145 0 8.944 0c11.256 0 21.225-5.007 26.941-13.788c-3.801-2.632-8.284-5.137-12.841-5.554"/><path fill="#1287B1" d="M103.863 94.091a25.5 25.5 0 0 1 3.228-5.311a3.5 3.5 0 0 1-.224-1.224a3.5 3.5 0 0 1 3.498-3.498c.456 0 .891.09 1.289.25c5.789-4.413 13.411-6.336 21.07-4.624a26 26 0 0 1 2.058.558c-7.569-1.05-15.39 1.27-21.193 5.955a3.498 3.498 0 0 1-3.224 4.856a3.5 3.5 0 0 1-1.246-.231a23.5 23.5 0 0 0-3.169 5.802c2.756 2.97 6.139 5.319 9.917 6.731c-.008-.18-.027-.358-.027-.541c0-5.823 4.72-10.544 10.544-10.544c5.219 0 9.54 3.795 10.384 8.773c2.604-1.656 4.918-3.784 6.836-6.24a3.13 3.13 0 0 1-.726-1.995a3.175 3.175 0 0 1 3.175-3.174c.248 0 .486.036.718.09a27.8 27.8 0 0 0 2.179-6.313c-9.106-6.742-26.727-5.823-26.727-5.823s-14.021-.731-23.513 3.895c.633 4.576 2.459 8.928 5.153 12.608"/><path fill="#1287B1" d="M148.171 90.461a3.15 3.15 0 0 1 1.056 2.347a3.175 3.175 0 0 1-3.174 3.174a3 3 0 0 1-.521-.052a25.7 25.7 0 0 1-7.665 7.708a25.66 25.66 0 0 1 12.351 5.553a31.9 31.9 0 0 0 4.046-15.583c0-4.306-1.901-7.463-4.771-9.779a25.6 25.6 0 0 1-1.322 6.632m-38.25 29.737a25.6 25.6 0 0 1 7.95-11.179a10.6 10.6 0 0 1-1.309-2.39a25.56 25.56 0 0 1-11.454-7.248c-.022.097-.051.192-.073.29a23.1 23.1 0 0 0-.395 7.687a4.594 4.594 0 0 1 3.747 4.515a4.6 4.6 0 0 1-1.479 3.373a27.7 27.7 0 0 0 3.013 4.952"/><path fill="#1287B1" d="M109.148 122.742a25.6 25.6 0 0 1-4.658-6.33a5 5 0 0 1-.699.058a4.593 4.593 0 0 1-2.004-8.731c-.348-2.826-.23-5.76.428-8.699q.284-1.26.681-2.461a25.43 25.43 0 0 1-4.443-14.396c0-.195.009-.388.013-.58c-4.735 2.374-8.286 6.116-8.286 12.005c0 13.028 7.78 24.231 18.944 29.24zm27.175-16.434c-1.443 4.103-5.343 7.05-9.94 7.05c-2.459 0-4.714-.848-6.507-2.257c-3.696 2.878-6.485 6.801-8.188 11.188c.764.823 1.58 1.598 2.438 2.327a32 32 0 0 0 8.097 1.034c11.256 0 21.152-5.811 26.868-14.591c-3.801-2.633-8.21-4.333-12.768-4.751"/><path fill="#fff" d="m136.693 103.59l9.742-2.324l-9.779-.499l7.958-6.082l-9.03 3.237l6.137-8.504l-8.476 5.633l2.964-9.954l-5.821 8.205l-.133-10.369l-3.829 9.236l-3.194-9.346l.173 11.01l-5.519-9.87l2.987 10.48l-8.952-6.51l7.012 8.81l-11.113-4.086l8.771 6.49l-11.247.345l11.499 2.968l-11.509 2.488l11.361.824l-9.581 6.135l9.865-3.577l-6.845 8.669l8.65-6.975l-3.115 11.633l6.678-9.467l-.936 11.181l3.79-10.136l3.227 10.653l.784-10.685l4.789 9.116l-2.829-10.427l8.769 6.793l-5.661-8.661l9.621 3.748l-7.357-7.229l9.865.775z"/><path fill="#fff" d="M32.981 122.23c30.213-30.212 54.343-39.539 76.243-43.797c2.897-.563 3.445-6.895 3.445-6.895s.406 4.664 2.434 5.272s4.663-7.3 4.663-7.3s-2.433 7.097 0 7.503c2.434.406 6.894-6.894 6.894-6.894s-1.824 6.285-.607 6.69c1.215.406 7.298-9.123 7.298-9.123s-3.65 6.285-.202 6.894c3.448.608 8.477-4.29 8.477-4.29s-3.954 4.482-2.192 5.1c7.503 2.638 13.574-7.114 13.574-7.114s-1.406 4.276-5.056 8.94c7.907 2.027 13.78-9.886 13.78-9.886l-5.873 11.913c3.042 1.623 15.209-12.368 15.209-12.368s-6.286 10.95-9.936 13.179c2.027 1.623 9.327-4.866 9.327-4.866s-5.88 7.299-3.65 7.705c3.245 2.636 15.207-13.585 15.207-13.585s-4.662 9.53-11.557 17.032c5.763 2.883 20.075-15.613 20.075-15.613s-.406 5.88-10.748 15.207c7.706-1.013 17.642-15.613 17.642-15.613s-3.65 10.95-12.37 18.655c7.566-.788 19.668-19.466 19.668-19.466s-4.663 12.977-14.192 20.48c10.544 2.332 25.752-13.383 25.752-13.383s-5.982 11.153-13.79 15.715c8.72 3.345 20.684-10.443 20.684-10.443s-11.964 18.453-31.024 17.641c-6.253-.265-25.17-18.973-65.698-17.438c-53.531 2.029-64.886 24.738-93.477 40.148" opacity=".35"/><path fill="#fff" d="M34.22 119.936c30.212-30.212 54.342-39.539 76.241-43.798c2.899-.563 3.447-6.894 3.447-6.894s.404 4.665 2.434 5.272c2.027.608 4.662-7.299 4.662-7.299s-2.433 7.097 0 7.502c2.434.405 6.895-6.894 6.895-6.894s-1.825 6.285-.609 6.69c1.217.407 7.299-9.124 7.299-9.124s-3.649 6.286-.202 6.894c3.447.61 8.477-4.289 8.477-4.289s-3.954 4.482-2.192 5.1c7.503 2.637 13.573-7.114 13.573-7.114s-1.407 4.276-5.055 8.94c7.907 2.028 13.78-9.886 13.78-9.886l-5.873 11.914c3.042 1.621 15.208-12.368 15.208-12.368S166.02 75.53 162.37 77.76c2.028 1.623 9.328-4.866 9.328-4.866s-5.881 7.3-3.65 7.705c3.244 2.637 15.206-13.585 15.206-13.585s-4.664 9.53-11.556 17.032c5.762 2.884 20.074-15.613 20.074-15.613s-.406 5.881-10.747 15.209c7.705-1.015 17.641-15.615 17.641-15.615s-3.65 10.95-12.37 18.656c7.566-.788 19.668-19.466 19.668-19.466s-4.662 12.977-14.192 20.48c10.544 2.331 25.752-13.383 25.752-13.383s-5.982 11.152-13.789 15.714c8.72 3.346 20.683-10.443 20.683-10.443s-11.963 18.453-31.025 17.642c-6.252-.267-25.169-18.974-65.698-17.439c-53.53 2.028-64.885 24.738-93.476 40.148"/><path fill="#fff" d="M32.19 125.535c15.968 8.01 30.568-1.216 48.97 3.969c13.989 3.944 31.023 8.805 54.137 5.459c23.116-3.344 42.887-13.382 52.317-31.328c2.94-8.008 14.902 1.826 14.902 1.826s-8.718-3.65-8.515-1.926s13.079 7.705 13.079 7.705s-11.66-3.65-10.95-.913s14.598 13.687 14.598 13.687s-15.714-11.963-17.031-10.342c-1.319 1.623 6.691 8.214 6.691 8.214s-13.282-8.214-17.946-5.791c-3.355 1.74 13.789 12.989 13.789 12.989s-11.153-8.517-13.789-6.287c-2.636 2.232 12.572 20.481 12.572 20.481s-17.237-18.656-18.959-17.743c-1.724.912 4.764 9.835 4.764 9.835s-8.516-9.328-10.847-7.706c-2.331 1.623 12.166 25.853 12.166 25.853s-15.714-24.838-22.203-20.683c10.19 22.356 6.387 25.55 6.387 25.55s-1.3-22.808-13.991-22.204c-6.388.305 3.041 17.033 3.041 17.033s-8.678-15.279-14.458-14.974c10.652 20.158 6.855 28.356 6.855 28.356s1.762-17.216-12.685-26.796c5.474 4.865-3.435 26.796-3.435 26.796s7.837-32.318-5.78-26.156c-2.152.971-.152 16.12-.152 16.12s-2.738-17.338-6.843-16.425c-2.393.531-15.208 24.028-15.208 24.028s10.494-25.397 7.3-24.332c-2.326.776-6.691 11.254-6.691 11.254s2.128-10.342 0-10.95s-13.992 10.95-13.992 10.95s8.821-10.342 7.3-12.471c-2.305-3.226-5.007-3.378-8.212-2.128c-4.665 1.817-10.95 10.34-10.95 10.34s6.265-8.629 5.17-11.862C81.833 129.769 63.822 145 63.822 145s10.645-10.037 8.212-12.166s-15.644-1.471-19.77-1.482c-12.166-.038-16.382-2.892-20.074-5.817" opacity=".35"/><path fill="#fff" d="M31.582 123.71c15.968 8.009 30.568-1.216 48.968 3.97c13.99 3.942 31.025 8.804 54.14 5.458s42.885-13.383 52.315-31.327c2.94-8.01 14.903 1.824 14.903 1.824s-8.719-3.649-8.515-1.925c.202 1.723 13.078 7.704 13.078 7.704s-11.66-3.649-10.95-.911c.71 2.736 14.6 13.686 14.6 13.686s-15.716-11.964-17.033-10.341c-1.317 1.622 6.692 8.212 6.692 8.212s-13.282-8.212-17.946-5.791c-3.355 1.74 13.788 12.989 13.788 12.989s-11.153-8.516-13.788-6.286c-2.636 2.232 12.573 20.48 12.573 20.48s-17.238-18.655-18.96-17.742s4.765 9.834 4.765 9.834s-8.517-9.328-10.848-7.705s12.165 25.853 12.165 25.853s-15.714-24.839-22.203-20.683c10.19 22.356 6.388 25.55 6.388 25.55s-1.3-22.808-13.992-22.203c-6.387.304 3.041 17.032 3.041 17.032s-8.678-15.28-14.456-14.975c10.652 20.158 6.854 28.357 6.854 28.357s1.761-17.217-12.686-26.797c5.474 4.866-3.435 26.797-3.435 26.797s7.839-32.318-5.778-26.156c-2.152.972-.152 16.12-.152 16.12s-2.739-17.337-6.843-16.425c-2.395.531-15.21 24.028-15.21 24.028s10.494-25.397 7.301-24.331c-2.327.774-6.692 11.252-6.692 11.252s2.129-10.341 0-10.949s-13.99 10.949-13.99 10.949s8.82-10.341 7.298-12.47c-2.305-3.227-5.006-3.377-8.211-2.128c-4.666 1.817-10.95 10.34-10.95 10.34s6.265-8.63 5.17-11.862c-1.758-5.193-19.769 10.037-19.769 10.037s10.645-10.037 8.212-12.166s-15.645-1.47-19.77-1.483c-12.166-.038-16.381-2.891-20.074-5.816"/></g></svg>