<svg xmlns="http://www.w3.org/2000/svg" xmlns:xlink="http://www.w3.org/1999/xlink" width="256" height="256" viewBox="0 0 256 256"><g fill="none"><rect width="256" height="256" fill="#242938" rx="60"/><g clip-path="url(#skillIconsClojureDark0)"><path fill="#242938" d="M127.999 28C72.862 28 28 72.862 28 128.001c0 55.144 44.862 100.003 99.999 100.003c55.139 0 100.001-44.859 100.001-100.003C228 72.861 183.138 28 127.999 28"/><path fill="#91DC47" d="M124.342 129.799a418 418 0 0 0-2.916 6.463c-3.629 8.222-7.648 18.226-9.116 24.636c-.527 2.282-.854 5.111-.848 8.248c0 1.241.067 2.545.172 3.873a47.9 47.9 0 0 0 16.459 2.932a48 48 0 0 0 15.066-2.456c-1.114-1.018-2.176-2.103-3.143-3.325c-6.422-8.19-10.005-20.191-15.674-40.371m-23.709-40.686c-12.265 8.644-20.29 22.9-20.321 39.057c.03 15.914 7.815 29.986 19.771 38.666c2.933-12.216 10.284-23.402 21.308-45.824c-.654-1.799-1.4-3.767-2.235-5.835c-3.054-7.661-7.462-16.558-11.396-20.587c-2.005-2.105-4.439-3.924-7.127-5.477"/><path fill="#63B132" d="M169.714 182.974c-6.328-.793-11.551-1.75-16.119-3.361a57.2 57.2 0 0 1-25.502 5.971c-31.706 0-57.409-25.699-57.412-57.414c0-17.209 7.58-32.636 19.575-43.157c-3.208-.775-6.554-1.227-9.97-1.22c-16.846.158-34.628 9.48-42.031 34.658c-.693 3.665-.528 6.436-.528 9.72c0 49.91 40.462 90.372 90.368 90.372c30.564 0 57.564-15.187 73.915-38.413c-8.844 2.204-17.348 3.258-24.631 3.28c-2.73 0-5.292-.146-7.665-.436"/><path fill="#90B4FE" d="M152.733 165.463c.558.277 1.822.728 3.583 1.228c11.841-8.693 19.536-22.696 19.567-38.521h-.005c-.044-26.384-21.395-47.732-47.785-47.784a47.9 47.9 0 0 0-15.002 2.439c9.702 11.06 14.368 26.864 18.881 44.152l.008.021c.008.014 1.443 4.8 3.907 11.151c2.447 6.342 5.933 14.194 9.735 19.916c2.496 3.834 5.241 6.59 7.111 7.398"/><path fill="#5881D8" d="M128.095 37.798c-30.268 0-57.043 14.9-73.443 37.748c8.535-5.345 17.25-7.273 24.855-7.205c10.505.03 18.763 3.288 22.726 5.516a42 42 0 0 1 2.755 1.755a57.2 57.2 0 0 1 23.105-4.855c31.71.004 57.416 25.702 57.421 57.413h-.005c0 15.987-6.539 30.442-17.08 40.852c2.587.29 5.347.47 8.165.456c10.008.005 20.826-2.204 28.937-9.025c5.288-4.455 9.718-10.977 12.175-20.757c.481-3.777.757-7.617.757-11.525c0-49.908-40.457-90.373-90.368-90.373"/></g><defs><clipPath id="skillIconsClojureDark0"><path fill="#fff" d="M28 28h200v200H28z"/></clipPath></defs></g></svg>