<svg xmlns="http://www.w3.org/2000/svg" xmlns:xlink="http://www.w3.org/1999/xlink" width="256" height="256" viewBox="0 0 256 256"><g fill="none"><g clip-path="url(#skillIconsDebianDark0)"><path fill="#242938" d="M196 0H60C26.863 0 0 26.863 0 60v136c0 33.137 26.863 60 60 60h136c33.137 0 60-26.863 60-60V60c0-33.137-26.863-60-60-60"/><g clip-path="url(#skillIconsDebianDark1)"><path fill="#D70751" d="M215 127.5c0 48.325-39.175 87.5-87.5 87.5S40 175.825 40 127.5S79.175 40 127.5 40S215 79.175 215 127.5"/><path fill="#fff" d="M163.86 119.01c.118 3.182-.929 4.728-1.876 7.463l-1.702.846c-1.393 2.706.138 1.718-.859 3.868c-2.176 1.932-6.593 6.044-8.008 6.421c-1.034-.023.7-1.22.926-1.687c-2.909 1.996-2.335 2.997-6.785 4.213l-.129-.291c-10.971 5.163-26.211-5.067-26.011-19.022c-.116.885-.333.664-.576 1.02c-.566-7.179 3.317-14.39 9.865-17.339c6.404-3.169 13.913-1.87 18.497 2.409c-2.518-3.3-7.534-6.8-13.475-6.476c-5.823.095-11.271 3.795-13.089 7.813c-2.982 1.876-3.329 7.238-4.628 8.221c-1.75 12.854 3.289 18.405 11.814 24.938c1.338.904.377 1.042.556 1.73c-2.832-1.325-5.424-3.327-7.557-5.778c1.132 1.655 2.353 3.265 3.932 4.529c-2.672-.902-6.24-6.47-7.279-6.697c4.603 8.242 18.673 14.454 26.044 11.371c-3.411.127-7.743.07-11.573-1.346c-1.613-.828-3.798-2.542-3.407-2.862c10.057 3.755 20.443 2.842 29.143-4.131c2.215-1.725 4.633-4.658 5.333-4.698c-1.053 1.583.18.761-.629 2.159c2.203-3.558-.96-1.449 2.279-6.143l1.196 1.646c-.448-2.955 3.668-6.54 3.249-11.21c.944-1.428 1.052 1.538.051 4.823c1.39-3.644.368-4.23.723-7.238c.383 1.011.893 2.084 1.153 3.153c-.907-3.523.925-5.931 1.381-7.979c-.45-.197-1.397 1.557-1.616-2.602c.033-1.807.505-.947.685-1.392c-.353-.205-1.284-1.59-1.849-4.246c.407-.626 1.096 1.618 1.654 1.709c-.359-2.111-.977-3.722-1.004-5.343c-1.633-3.411-.578.456-1.9-1.465c-1.739-5.418 1.441-1.257 1.657-3.718c2.631 3.813 4.131 9.727 4.823 12.175c-.527-2.986-1.377-5.879-2.416-8.678c.802.339-1.289-6.141 1.042-1.85c-2.488-9.147-10.639-17.694-18.139-21.703c.915.839 2.073 1.892 1.659 2.058c-3.732-2.219-3.076-2.394-3.611-3.332c-3.036-1.237-3.238.102-5.247.003c-5.729-3.04-6.833-2.717-12.105-4.619l.24 1.122c-3.794-1.264-4.421.477-8.521.003c-.249-.194 1.314-.706 2.602-.892c-3.669.485-3.497-.724-7.088.133c.884-.62 1.822-1.032 2.765-1.559c-2.991.182-7.144 1.741-5.862.321c-4.88 2.179-13.547 5.236-18.411 9.796l-.152-1.022c-2.229 2.675-9.719 7.99-10.315 11.457l-.597.138c-1.158 1.964-1.91 4.188-2.829 6.207c-1.516 2.586-2.223.996-2.007 1.402c-2.983 6.047-4.467 11.128-5.746 15.298c.911 1.363.022 8.208.366 13.685c-1.496 27.057 18.989 53.325 41.381 59.388c3.281 1.176 8.161 1.134 12.312 1.25c-4.896-1.401-5.529-.742-10.301-2.405c-3.442-1.622-4.195-3.473-6.634-5.589l.965 1.705c-4.781-1.692-2.78-2.094-6.671-3.325l1.032-1.345c-1.55-.118-4.105-2.61-4.803-3.994l-1.697.067c-2.036-2.51-3.122-4.324-3.042-5.729l-.548.977c-.62-1.065-7.495-9.427-3.929-7.481c-.662-.603-1.543-.983-2.498-2.721l.726-.828c-1.714-2.209-3.159-5.039-3.048-5.982c.915 1.236 1.55 1.467 2.18 1.679c-4.334-10.752-4.578-.591-7.859-10.944l.693-.055c-.53-.805-.856-1.673-1.283-2.528l.303-3.009c-3.119-3.603-.872-15.337-.42-21.77c.31-2.616 2.604-5.401 4.346-9.77l-1.061-.182c2.03-3.54 11.592-14.222 16.022-13.674c2.146-2.695-.426-.01-.846-.688c4.713-4.876 6.195-3.445 9.375-4.323c3.429-2.035-2.943.795-1.318-.776c5.931-1.513 4.201-3.443 11.936-4.21c.817.463-1.893.716-2.572 1.318c4.939-2.418 15.632-1.866 22.58 1.34c8.056 3.769 17.113 14.901 17.472 25.375l.407.11c-.206 4.164.637 8.98-.826 13.403z"/></g></g><defs><clipPath id="skillIconsDebianDark0"><path fill="#fff" d="M0 0h256v256H0z"/></clipPath><clipPath id="skillIconsDebianDark1"><path fill="#fff" d="M40 40h175v175H40z"/></clipPath></defs></g></svg>