<svg xmlns="http://www.w3.org/2000/svg" xmlns:xlink="http://www.w3.org/1999/xlink" width="256" height="256" viewBox="0 0 256 256"><g fill="none"><rect width="256" height="256" fill="#242938" rx="60"/><path fill="#fff" d="M118.032 26.656c-.478.048-2 .226-3.376.352c-19.554 2.046-38.812 10.328-54.516 23.476c-2.898 2.406-9.5 9.008-11.906 11.906c-13 15.532-20.6 32.96-23.406 53.586c-.624 4.58-.624 20.032 0 24.61c2.804 20.624 10.406 38.054 23.406 53.586c2.406 2.9 9.008 9.5 11.906 11.906c15.532 13 32.96 20.6 53.586 23.406c4.58.626 20.032.626 24.61 0c20.624-2.804 38.054-10.406 53.586-23.406c2.9-2.406 9.5-9.008 11.906-11.906c13-15.532 20.6-32.96 23.4-53.586c.632-4.58.632-20.032 0-24.61c-2.8-20.624-10.4-38.054-23.4-53.586c-2.406-2.898-9.008-9.5-11.906-11.906c-15.476-12.952-33.086-20.648-53.438-23.374c-2.202-.306-5.398-.43-11.328-.478c-4.524-.054-8.656-.022-9.124.024m1.25 10.804c0 2.922.194 9.274.476 15.306c.148 2.944.32 7.172.4 9.374c.272 7.806 1.1 28.28 1.224 30.11l.126 1.82l-1.126-.124c-.624-.048-1.202-.196-1.304-.274c-.07-.1-.25-1.828-.352-3.852c-.444-8.9-1.92-43.438-2.07-48.484l-.156-5.554l.704-.094c.374-.056 1-.126 1.398-.156l.68-.024zm23.928-.6c.024.022.102 7.578.172 16.78c.102 9.228.228 17.5.306 18.4c.07.928.046 1.726-.08 1.78c-.1.07-.726.07-1.35 0l-1.148-.1l-.172-7.282a1368 1368 0 0 0-.28-9.922c-.198-4.43-.376-19.454-.22-19.828c.094-.28.374-.306 1.42-.126c.728.148 1.33.274 1.352.298m-57.842 8.374c.156.226 1.328 14.008 2.78 32.032c.478 6.132.946 11.734 1.024 12.43c.124 1.272.1 1.328-.704 1.828c-.444.272-.898.5-1 .5c-.07 0-.218-.65-.296-1.454c-.352-3.25-1.704-18.952-2.648-30.304c-.556-6.68-1.056-12.656-1.126-13.306c-.124-1.1-.1-1.202.548-1.546c.796-.43 1.25-.5 1.42-.18zm68.842 5.032c.704.25.774.374.93 1.796c.25 2.5.172 14.454-.1 14.454c-.728 0-2.228-.852-2.352-1.328c-.08-.298-.148-3.844-.148-7.876c0-8.124-.102-7.648 1.67-7.046m-46.186 1.172c0 .672.18 4.398.374 8.328c.204 3.92.43 8.898.532 11.054c.172 4.352.22 4.196-1.454 4.298c-.828.022-.828.022-.874-1.228c-.048-.694-.172-2.874-.328-4.874c-.126-2-.422-6.328-.626-9.626q-.204-3.645-.522-7.28c-.15-1.25-.126-1.298.546-1.548a5.4 5.4 0 0 1 1.554-.272c.798-.024.798-.024.798 1.148m69.366 3.43l.852.342l.18 3.352c.07 1.828.124 5.78.07 8.76l-.07 5.444l-1.054-.524l-1.048-.5l-.078-8.304c-.046-4.57-.024-8.446.024-8.626c.1-.374.1-.374 1.124.056m-45.656 3.272c.148.15.5 12.274.524 18.43l.024 3.704l-1.172-.18c-.68-.08-1.228-.148-1.25-.172c-.08-.054-.828-18.58-.828-20.382v-1.852l1.272.148c.728.1 1.352.226 1.43.304m57.586 1.774c.306.352.352 5.828.43 36.032c.07 34.686.07 35.586-.376 35.586a1.6 1.6 0 0 1-.88-.328c-.376-.274-.424-3.298-.548-32.93c-.102-17.954-.228-34.26-.298-36.234l-.156-3.602l.726.522c.43.306.908.728 1.102.954m-22.43 5.126c.126.1.25 1.522.274 3.156c.126 5.522.148 39.406.024 39.508c-.048.046-.5-.08-1-.274l-.9-.376v-42.54l.704.15c.376.1.774.25.9.376zm-69.014 1.398c.07.68.194 2.202.272 3.452c.08 1.228.25 4.032.4 6.204c.304 4.4.248 4.68-1.174 4.68c-.748 0-.85-.08-.952-.828c-.25-1.478-1.126-13.782-1-13.978c.124-.18 1.43-.624 2.024-.68c.156-.022.35.5.43 1.15m-41.36 6.382c.274 2.648.82 8.204 1.226 12.328c.422 4.126.774 7.626.774 7.774c0 .304-1.93 1.25-2.126 1.054c-.124-.124-2.624-22.258-2.624-23.258c0-.6 1.92-3.124 2.172-2.85c.078.046.328 2.272.578 4.952m98.046 2.626l.728.42l.022 5.408c.024 2.944.08 6.25.08 7.32c.046 2.25-.228 2.624-1.58 2.156l-.772-.28v-2.15c0-1.194-.08-4.672-.18-7.75l-.15-5.554h.58c.296 0 .874.202 1.272.43m-87.07 9.702c.454 4.798 1.172 12.9 1.648 18l.852 9.26l-.976.966l-.946.978l-.18-1.978c-.1-1.1-.6-6.194-1.124-11.35a2894 2894 0 0 1-1.648-16.602l-.704-7.204l.976-.898c.876-.828.978-.852 1.15-.4c.1.252.522 4.4.952 9.228m-18.726 3.024c.546 4.93 2 18.032 3.25 29.11s2.42 21.75 2.648 23.75c.204 2 .546 5.03.75 6.758c.352 2.92.352 3.124-.046 3.42c-.602.454-.852.4-.852-.124c0-.226-.226-2.126-.5-4.172a7000 7000 0 0 1-2.876-22.258q-.773-5.809-1.5-11.624c-.5-3.782-1.226-9.406-1.632-12.508c-.4-3.102-1.07-8.4-1.5-11.828c-.446-3.4-.72-6.422-.648-6.75c.18-.672 1.648-3.024 1.804-2.876c.046.07.546 4.148 1.1 9.1zM41.11 98.946c.374 3.008 1.078 8.484 1.554 12.202c.468 3.704 1.07 8.328 1.344 10.26l.476 3.5l-.524.452c-.296.25-.6.344-.702.25c-.094-.102-.298-1.102-.446-2.204a1991 1991 0 0 0-2.078-14.258l-1.774-12.25l.572-1.702c.304-.922.624-1.672.702-1.672c.102 0 .476 2.452.876 5.42zm137.28-3.274c.352.352.406 1.9.406 13.382v12.978h-.702c-1.524 0-1.5.374-1.6-13.828l-.072-12.93h.796c.422 0 .978.172 1.172.398m-54.734 4.476c5.648.852 10.58 2.43 15.454 4.93c3.148 1.626 4.648 2.75 8.148 6.1c5.202 4.98 8.406 9.33 11.406 15.48c4.376 8.952 6.08 16.874 8.226 38.132c.978 9.53 2.25 26.804 2.524 33.88c.08 2.056.25 5.432.406 7.5c.274 4.408.594 3.806-3.28 5.68c-5.376 2.604-10.556 4.4-17.376 6.08c-8.352 2.046-13.758 2.694-22.008 2.726l-6 .024l.048-2.876c0-1.578.148-5.25.304-8.124c.75-13.93.594-31.508-.376-41.266c-.554-5.6-1.624-12.4-2.226-13.9c-.124-.326.446-.6 2.922-1.452c4.532-1.578 8.454-3.554 9.054-4.522c1.08-1.852-.85-4.508-3.304-4.508c-.42 0-1.696.452-2.874.976c-5.602 2.578-16.828 5.6-23.306 6.28c-4.476.478-11.43.196-16.25-.68c-2.624-.476-7.328-2.248-11.258-4.272c-4.522-2.352-7.296-5.476-8.124-9.18c-.454-2-.328-6 .25-8.25c.624-2.476 2.374-6.078 3.976-8.18c7.126-9.374 21.828-17.5 36.906-20.35c4.806-.9 11.602-1 16.76-.228zm77.14.774c.9.374 1 .476 1 1.328c.056 6.828-.1 22.43-.226 23.08c-.024.224-1.32.248-1.874.052c-.344-.124-.4-1.476-.4-12.508c0-7.898.102-12.35.25-12.35c.126 0 .704.18 1.25.398m10.93 13.734l.9.376l-.172 20.702c-.204 26.384-.228 27.156-1.18 29.43c-1.548 3.726-1.47 4.476-1.32-11.874c.046-8.18.17-16.454.226-18.384c.046-1.92.094-7.352.124-12.078c0-5.704.07-8.546.25-8.546c.15 0 .672.172 1.172.374m-150.382 6.226c.148 2.024.094 2.22-.634 3.82l-.796 1.704l-.296-2.5c-.478-4-.478-4.18.468-4.774c.43-.304.882-.5.954-.452c.078.046.226 1.046.304 2.202m-15.46 15.08c.226 2.046 1.976 15.648 2.88 22.328c1.346 10.328 1.446 11.804.846 11.18c-.07-.08-.65-3.556-1.25-7.728c-3.9-26.96-3.876-26.78-3.548-26.984c.672-.454.9-.204 1.07 1.202zm18.006 11.452c.15.626.876 7.4.876 8.226c0 .696-.9 1.352-1.298.946c-.124-.126-.452-2.25-.702-4.696c-.274-2.476-.548-5.054-.626-5.726l-.148-1.25l.876 1c.5.546.944 1.22 1.022 1.5m20.18 9.422c.274.25.454 1.25.672 3.954c.376 4.874.43 4.5-.594 4.5c-1.054 0-1.03.078-1.374-4.33c-.352-4.476-.352-4.42.32-4.42c.328 0 .75.148.976.296m19.806.374c.046.25.17 1.75.272 3.33c.08 1.578.306 5.124.5 7.874c.704 10.1.728 11.382.306 11.382c-.478 0-.532-.374-1.08-7.506a541 541 0 0 0-.828-10.33c-.218-2.718-.374-5-.296-5.046c.274-.304 1-.078 1.126.296m-47.008 4.806c.148.226 1.092 8.226 2.272 19.156c.352 3.296.696 6.476.774 7.07l.126 1.08l-.626-.4c-.476-.328-.648-.648-.648-1.226c0-1.58-1.08-11.954-1.9-18.306c-.476-3.6-.85-6.772-.85-7.078c0-.522.6-.726.852-.296m144.304 10.452L201 182.922l-.626.92c-1.428 2.104-1.35 2.5-1.272-9.2l.046-10.728l.922-.954c.5-.5 1-.92 1.1-.92c.08 0 .08 4.702 0 10.428zm-23.126 16.58c.126 14.53.094 15.656-.304 16.1c-.25.274-.476.454-.546.376c-.18-.196-.43-31.884-.228-32.056c.102-.1.352-.148.58-.124c.32.07.398 1.852.5 15.702zm-81.67-9.954c.17 1.546.796 8.976 1.046 12.476c.148 2.352.148 2.43-.4 2.6c-.296.104-.648.08-.748-.044c-.172-.18-.728-5.728-1.4-14.282l-.18-2.048h.782c.72 0 .774.048.9 1.298m-19.658 8.75c.172.18.298.804.298 1.43c0 .648.304 4.022.624 7.522c.954 9.58 1.032 10.876.602 10.626c-.648-.376-1.226-.946-1.1-1.094c.054-.1-.048-1.352-.252-2.78a131 131 0 0 1-.5-5.252c-.094-1.444-.32-4.1-.522-5.874c-.478-4.376-.446-4.876.1-4.876c.277.008.543.114.75.298m11.828 16.828c.08.554.228 2.6.328 4.554c.172 3.75.094 4.024-.928 3.25c-.298-.226-.5-1.172-.798-4.022c-.522-5.158-.554-4.954.422-4.852c.726.07.828.172.976 1.07"/><path fill="#fff" d="M79.618 112.126c-2.602 1.124-2.798 4.656-.352 5.906c1.78.898 3.578.468 4.508-1.08c1.75-2.85-1.102-6.148-4.156-4.826m16.952 2.406c-2.4 1.468-2.4 5.022 0 6.5c2.376 1.42 5.454-.454 5.454-3.306c0-2.75-3.15-4.6-5.454-3.194"/></g></svg>