<svg xmlns="http://www.w3.org/2000/svg" xmlns:xlink="http://www.w3.org/1999/xlink" width="256" height="256" viewBox="0 0 256 256"><g fill="none"><rect width="256" height="256" fill="#512BD4" rx="60"/><path fill="#fff" d="M24.052 168.943q-3.355 0-5.703-2.194Q16 164.498 16 161.402q0-3.151 2.349-5.403q2.348-2.25 5.703-2.251q3.411 0 5.76 2.251q2.404 2.251 2.404 5.403q0 3.096-2.404 5.347q-2.349 2.194-5.76 2.194m89.415-1.238H98.929l-38.304-59.318a26.4 26.4 0 0 1-2.404-4.672h-.336q.447 2.59.447 11.087v52.903H45.471V87H60.96l37.018 57.912q2.349 3.602 3.02 4.953h.223q-.559-3.208-.559-10.863V87h12.805zm62.631 0h-45.014V87h43.225v11.369h-29.916v22.849h27.568v11.312h-27.568v23.863h31.705zm63.973-69.336h-23.038v69.336h-13.309V98.369h-22.982V87h59.329z"/></g></svg>