<svg xmlns="http://www.w3.org/2000/svg" xmlns:xlink="http://www.w3.org/1999/xlink" width="256" height="256" viewBox="0 0 256 256"><defs><path id="skillIconsLatexDark0" fill="#fff" stroke="#fff" stroke-width=".661" d="M160.686 58.824a2.797 2.797 0 1 1-5.594 0a2.797 2.797 0 0 1 5.594 0Z"/></defs><g fill="none"><rect width="256" height="256" fill="#242938" rx="60"/><path fill="#9F393D" d="M67.895 193.68h-2.147c-.86 8.853-2.062 19.614-17.178 19.614h-6.957c-4.037 0-4.208-.607-4.208-3.471v-46.085c0-2.951 0-4.166 8.073-4.166h2.834v-2.604c-3.092.261-10.822.261-14.343.261c-3.35 0-10.049 0-12.969-.261v2.604h1.975c6.614 0 6.786.954 6.786 4.079v45.564c0 3.125-.172 4.079-6.786 4.079H21v2.691h44.576l2.319-22.305Z"/><path fill="#9F393D" d="M66.435 156.881c-.344-1.041-.516-1.388-1.632-1.388c-1.117 0-1.374.347-1.718 1.388l-13.828 35.41c-.601 1.476-1.632 4.166-6.957 4.166v2.17h13.313v-2.17c-2.663 0-4.294-1.215-4.294-2.951c0-.434.085-.607.257-1.215l2.92-7.464h17.006l3.436 8.853c.171.347.343.781.343 1.041c0 1.736-3.264 1.736-4.895 1.736v2.17h16.92v-2.17h-1.203c-4.037 0-4.466-.607-5.067-2.343l-14.601-37.233Zm-3.436 6.162l7.644 19.615H55.355L63 163.043Z"/><path fill="#9F393D" d="M135.231 157.489H82.925L81.38 176.93h2.061c1.203-13.974 2.491-16.838 15.46-16.838c1.546 0 3.779 0 4.638.174c1.804.347 1.804 1.302 1.804 3.298v45.564c0 2.951 0 4.166-9.018 4.166h-3.436v2.691c3.521-.261 12.196-.261 16.147-.261c3.951 0 12.797 0 16.319.261v-2.691h-3.436c-9.018 0-9.018-1.215-9.018-4.166v-45.564c0-1.736 0-2.951 1.546-3.298c.945-.174 3.264-.174 4.896-.174c12.883 0 14.171 2.864 15.374 16.838h2.147l-1.632-19.441Z"/><path fill="#9F393D" d="M181.267 213.207h-2.147c-2.148 13.279-4.123 19.615-18.81 19.615h-11.337c-4.037 0-4.209-.608-4.209-3.472v-23.086h7.644c8.332 0 9.276 2.778 9.276 10.155h2.148v-22.913h-2.148c0 7.377-.944 10.068-9.276 10.068h-7.644v-20.743c0-2.864.172-3.471 4.209-3.471h10.994c13.14 0 15.374 4.773 16.748 16.837h2.147l-2.405-19.441H128.36v2.604h1.975c6.614 0 6.785.954 6.785 4.079v45.304c0 3.124-.171 4.079-6.785 4.079h-1.975v2.69h49.3l3.607-22.305Z"/><path fill="#9F393D" d="m207.119 182.571l11.767-17.358c1.804-2.777 4.724-5.554 12.368-5.641v-2.604h-20.442v2.604c3.436.087 5.326 1.996 5.326 3.992c0 .868-.172 1.042-.773 1.996l-9.792 14.581l-10.993-16.664c-.172-.26-.602-.954-.602-1.302c0-1.041 1.89-2.516 5.497-2.603v-2.604c-2.92.261-9.19.261-12.453.261c-2.663 0-7.988-.087-11.166-.261v2.604h1.632c4.724 0 6.356.607 7.988 3.037l15.717 24.041l-14 20.916c-1.202 1.736-3.779 5.728-12.368 5.728v2.691h20.442v-2.691c-3.951-.086-5.411-2.43-5.411-3.992c0-.781.257-1.128.859-2.083l12.11-18.139l13.57 20.656c.172.347.43.694.43.955c0 1.041-1.89 2.517-5.583 2.603v2.691c3.006-.261 9.276-.261 12.454-.261c3.607 0 7.558.087 11.165.261v-2.691h-1.632c-4.466 0-6.27-.434-8.073-3.124l-18.037-27.599Z"/><path fill="#000" d="M67.033 21.075c1.499 2.701 3.058 5.027 4.685 7.028l.02.02c.005.007.014.012.02.02c-.75-.11-1.522-.186-2.323-.178c-1.584.017-3.285.289-5.119.866c3.15 2.638 5.832 4.566 8.19 6.064l-.178-.06l.177.1c-3.652-1.144-7.592-1.284-12.205.905c3.312 2.072 6.092 3.585 8.544 4.724c-.071-.01-.145-.029-.216-.039l.177.099c-3.822-.659-7.789-.289-12.107 2.559c2.816 1.255 5.262 2.202 7.441 2.933h.02l.138.079c-3.645.141-7.257 1.276-10.788 4.626c3.085.765 5.726 1.276 8.051 1.614l-.197.04c-.09-.002-.185.001-.275 0l.098.039c-2.717.617-5.366 1.98-7.953 4.587c2.097.453 3.983.805 5.71 1.063c-2.127 1.028-4.146 2.62-5.985 5.06a88.15 88.15 0 0 0 6.477.275c-2.325 1.076-4.516 2.764-6.458 5.493c3.45.172 6.334.165 8.82.02c-.047.018-.092.039-.138.058c-.151.014-.303.023-.453.04l.217.078c-2.584 1.135-4.976 2.973-7.028 6.083c4.287.063 7.683-.14 10.532-.492c-.087.024-.17.054-.256.079c-.11.006-.227.012-.335.02l.138.039c-3.36 1-6.46 2.928-9.036 6.831c3.463.05 6.355-.08 8.839-.315c-.054.03-.104.069-.157.099c-2.968 1.655-5.519 4.141-7.206 8.347c3.046-.577 5.6-1.186 7.816-1.83c-.037.028-.082.048-.118.078l.137-.02c-2.28 1.703-4.199 4.088-5.492 7.619a91.069 91.069 0 0 0 5.65-1.437c-1.507 1.822-2.672 4.097-3.327 7.087a88.512 88.512 0 0 0 6.004-2.441c-.02.024-.038.053-.059.078c-.036.028-.083.05-.118.079l.06-.02c-1.608 1.926-2.834 4.348-3.446 7.56c3.206-1.282 5.814-2.513 8.012-3.681c-.062.06-.138.116-.197.177l.06-.02c-1.945 2.132-3.396 4.871-3.977 8.642c3.784-1.671 6.7-3.223 9.095-4.685l-.079.079l.158-.079c-2.719 2.328-4.805 5.417-5.532 10.138c5.1-2.252 8.668-4.291 11.438-6.181c-1.19 2.405-1.818 5.208-1.516 8.721c4.93-3.782 8.05-6.832 10.374-9.528c-.003.039.004.079 0 .118c-.14 1.709-.034 3.562.473 5.61c2.923-5.021 5.846-7.102 8.819-8.819c-3.719 2.411-3.051 4.364-3.051 6.595c4.422-4.657 10.575-9.604 12.461-12.698c-2.522 3.788-3.529 7.385-4.193 10.552c-12.905 6.825-20.78 8.612-29.588 11.339c3.417 1.253 7.084 2.471 5.57 4.213l-4.035 4.036c2.58-.802 5.216-1.959 7.5-.394c-.224 2.117-2.893 3.195-5.177 4.429c4.02-1.448 4.888-1.107 5.945-.767c.529 2.536-1.306 3.896-2.5 5.571c10.128-7.7 23.334-13.78 32.64-16.32c13.09-4.408 29.979-9.004 34.57-20.179l4.587-18.426c5.381-5.824 10.33-11.854 12.678-19.194c14.984-2.9 27.106-1.86 39.746-1.536c-1.152-.192-38.585-6.535-38.585-6.535c-10.943-14.972-27.267-4.79-32.64 10c-1.357 3.733-9.097 3.725-11.339-.02c-8.867-19.089-35.791-39.276-58.705-46.715Z"/><path fill="teal" d="M66.772 20c1.51 2.72 3.08 5.04 4.718 7.052c-.749-.11-1.52-.174-2.323-.165c-1.583.017-3.276.28-5.11.857c3.2 2.68 5.905 4.636 8.29 6.143c-3.685-1.177-7.654-1.345-12.317.868c3.406 2.13 6.264 3.671 8.766 4.822c-3.9-.72-7.945-.392-12.359 2.519c2.915 1.299 5.435 2.274 7.672 3.015c-3.672.128-7.305 1.262-10.862 4.636c3.085.765 5.728 1.272 8.053 1.61c-2.845.575-5.637 1.94-8.342 4.667c2.096.453 3.983.795 5.71 1.053c-2.126 1.028-4.14 2.62-5.979 5.06c2.416.187 4.553.27 6.474.278c-2.325 1.076-4.501 2.776-6.443 5.504c3.45.172 6.332.155 8.818.01c-2.732 1.117-5.25 3.004-7.403 6.267c4.287.063 7.683-.143 10.53-.495c-3.534.96-6.806 2.89-9.498 6.97c3.463.05 6.354-.076 8.838-.31c-3.036 1.654-5.644 4.164-7.361 8.445c3.126-.592 5.745-1.225 8.002-1.889c-2.35 1.71-4.326 4.112-5.648 7.723a89.99 89.99 0 0 0 5.637-1.435c-1.507 1.822-2.67 4.103-3.325 7.093a87.842 87.842 0 0 0 6-2.447c-1.665 1.948-2.936 4.413-3.563 7.703c3.206-1.282 5.814-2.507 8.012-3.676c-2.015 2.154-3.514 4.925-4.109 8.787c3.904-1.724 6.899-3.32 9.334-4.822c-2.797 2.344-4.947 5.46-5.69 10.273c5.101-2.251 8.661-4.294 11.43-6.184c-1.189 2.405-1.82 5.222-1.517 8.734c4.93-3.782 8.052-6.843 10.376-9.54c-.157 1.742-.033 3.636.485 5.731c3.54-6.081 7.056-7.856 10.696-9.885c-5.797 2.919-4.938 5.116-4.938 7.665c4.423-4.657 10.59-9.596 12.477-12.69c-2.523 3.788-3.549 7.375-4.213 10.542c-12.905 6.825-20.762 8.608-29.57 11.336c3.416 1.254 7.078 2.481 5.564 4.223l-4.037 4.027c2.58-.802 5.212-1.947 7.496-.382c-.224 2.117-2.9 3.185-5.183 4.419c4.02-1.449 4.89-1.114 5.947-.774c.528 2.536-1.305 3.9-2.499 5.575c10.128-7.7 23.342-13.783 32.648-16.324c13.09-4.408 29.968-8.99 34.558-20.164l4.605-18.43C161 78.17 165.95 72.13 168.298 64.79c14.985-2.899 27.101-1.852 39.741-1.528c-1.152-.192-38.594-6.536-38.594-6.536c-10.943-14.971-27.254-4.795-32.628 9.995c-1.356 3.733-9.094 3.734-11.336-.01C116.614 47.62 89.687 27.438 66.773 20h-.001Z"/><path fill="#fff" d="m155.177 59.07l-.098.157c-.388.723-1.045 1.217-1.969 1.516c-.923.298-2.106.394-3.484.334l-.866-.04l.63.611c.319.308.409.553.413.768c.005.215-.088.446-.295.709c-.415.524-1.239 1.094-2.008 1.673l-.256.177l.177.256c.641.984.935 1.742 1.004 2.323c.069.581-.066.999-.335 1.358c-.537.72-1.715 1.208-2.776 1.811l-.196.099l.039.236c.091.554-.058 1.006-.453 1.457c-.395.45-1.059.88-1.949 1.26l-.236.098l.039.256c.178 1.185.534 2.217 1.28 2.874c.682.602 1.715.76 3.032.493c.229 1.263.558 2.412 1.319 3.17c.77.767 1.991.994 3.622.57c.367.885.904 1.515 1.516 1.93c.672.454 1.551.637 2.273.862l.428-.461c-.717-.223-1.776-.567-2.347-.953s-1.035-.915-1.358-1.83l-.099-.316l-.315.099c-1.677.515-2.607.283-3.248-.355c-.64-.637-1-1.79-1.22-3.13l-.059-.354l-.355.098c-1.382.361-2.199.177-2.756-.315c-.52-.459-.828-1.272-1.004-2.283c.801-.37 1.488-.776 1.929-1.28a2.42 2.42 0 0 0 .591-1.732c.977-.538 2.156-1 2.835-1.91c.355-.476.539-1.101.453-1.83c-.079-.665-.404-1.431-.965-2.343c.689-.508 1.436-1.016 1.91-1.615c.263-.333.461-.7.452-1.122c-.004-.232-.227-.443-.354-.67c1.198.017 2.289-.062 3.189-.353c.949-.307 1.694-.866 2.185-1.634c1.418.007 2.886.319 4.371.511c1.525.199 3.077.252 4.547-.393l-.275-.61c-1.301.57-2.69.547-4.174.354c-1.484-.193-3.03-.543-4.587-.532h-.197Z"/><use href="#skillIconsLatexDark0" stroke-width=".661"/><path fill="#fff" d="M169.041 56.2c-2.512 3.267-3.143 2.423-4.672 2.97l-.256.1l.04.275c.588 3.281 2.533 4.324 4.051 5.517l.084-.266l.404-.077c-1.521-1.195-3.186-2.208-3.791-4.997c1.113-.263 2.176.073 4.547-3.012l-.407-.51ZM72.344 33.88c4.746 2.942 12.556 5.976 17.572 9.146c2.759 1.757 5.237 3.507 7.165 5.02c1.928 1.512 3.354 3.075 3.879 3.583c.524.508.88.268.531-.394s-2.066-2.191-4.016-3.72c-1.95-1.53-4.43-3.273-7.205-5.04c-5.552-3.535-12.067-6.696-17.925-8.596Zm-.854-6.83c1.99.46 4.926 2.156 8.19 3.972c3.265 1.815 6.824 4.049 10.08 6.22c3.256 2.172 5.766 4.073 7.773 5.605c1.906 1.63 2.847 2.687 3.212 2.684c.05.01.099.01.177 0a.392.392 0 0 0 .275-.197a.355.355 0 0 0 .02-.296c-.021-.063-.032-.097-.059-.137c-.108-.162-.272-.314-.512-.532c-.479-.437-1.272-1.079-2.283-1.85c-2.023-1.544-4.962-3.648-8.23-5.828c-3.266-2.179-6.85-4.432-10.137-6.26c-1.17-.433-6.901-3.464-8.506-3.38Zm-2.718 12.528c6.09 2.486 14.755 5.406 20.538 9.041c3.108 1.974 5.814 3.94 7.835 5.552a47.867 47.867 0 0 1 2.48 2.106c.627.576.979 1.098 1.182 1.24c.423.3.748.1.551-.373c-.148-.358-.638-.77-1.28-1.359c-.64-.59-1.5-1.312-2.52-2.126a91.879 91.879 0 0 0-7.894-5.61c-6.258-3.975-13.74-7.469-20.892-8.471Zm-4.687 5.525c4.746.003 14.552 4.348 18.685 6.525c6.7 3.574 12.794 8.168 16.162 11.379c.374.356.92.042.492-.453c-3.128-3.625-9.589-7.897-16.34-11.497c-6.75-3.6-13.74-5.96-19-5.954Zm-2.743 6.252c7.136 1.044 15.69 3.925 21.922 7.046c3.478 1.766 6.58 3.657 8.958 5.335a28.665 28.665 0 0 1 4.567 4.055c.433.489.95.51.551-.354c-.398-.864-2.335-2.553-4.744-4.252c-2.41-1.7-5.53-3.595-9.036-5.375c-7.01-3.56-14.994-6.36-22.218-6.455Zm2.355 5.311c-1.772-.154-3.368.21-4.994.413c6.34-.595 15.207 2.317 21.118 5.04c6.962 3.265 12.743 7.746 15.513 10.592c.433.445.74-.122.512-.414c-2.579-3.292-8.72-7.492-15.75-10.788c-5.272-2.471-11.08-4.378-16.399-4.842Zm-4.505 5.715c6.24.462 14.594 1.957 20.446 4.643c5.885 2.753 10.352 6.322 12.599 8.347c.346.312.957.091.472-.472c-2.05-2.383-6.82-5.68-12.776-8.465c-5.957-2.787-13.194-4.571-20.741-4.053Zm5.604 5.193c-1.317-.045-1.934.202-3.204.339c4.235.186 10.965 1.313 14.681 2.574c4.823 1.674 8.789 4.194 11.044 6.162c.436.38.76-.13.473-.453c-2.113-2.37-6.406-4.64-11.3-6.339c-3.67-1.273-7.745-2.15-11.694-2.283Zm-.182 6.141c9.053.611 14.528 2.206 18.724 5.965c.314.282.81-.106.472-.472c-4.306-4.666-12.784-5.966-19.196-5.493Zm6.971 5.438c-2.744-.22-5.04.38-7.541 1.212c7.319-1.167 10.362-.607 15.908 1.997c.632.297.595-.403.315-.571c-2.946-1.77-5.938-2.417-8.682-2.638Zm-.26 5.098c-2.595.23-4.799 1.121-6.615 2.599c7.248-2.794 9.252-2.238 14.795-.667c.73.207.503-.495.217-.61c-3.32-1.33-5.802-1.552-8.397-1.322Zm14.361 4.489c-3.867-.418-8.224.051-12.048.749c-3.824.697-7.112 2.114-8.969 3.623c6.358-2.685 7.517-2.679 9.088-2.974c3.767-.687 7.5-.955 11.89-.748c.398.019.378-.613.04-.65h-.001Zm2.244 3.13c-4.19-.158-8.519.88-12.264 1.95c-3.744 1.07-6.524 2.53-8.357 4.02c3.709-1.783 7.16-2.99 8.534-3.39c3.692-1.056 7.417-1.97 12.127-1.91c.366.005.603-.645-.04-.67Zm3.423 2.577c-3.947.583-8.085 1.749-11.694 2.973c-3.607 1.224-6.175 2.678-7.85 4.418c4.29-2.463 6.65-3.327 8.047-3.808c3.564-1.209 6.891-2.05 11.615-2.933c.567-.106.112-.684-.118-.65Zm2.007 3.288c-7.915 1.261-13.045 4.676-16.305 8.063c5.053-3.807 8.568-5.853 16.443-7.413c.499-.1.348-.728-.138-.65Zm3.858 2.893c-7.962 1.226-12.553 6.066-14.465 9.261c5.037-5.032 8.957-7.771 14.602-8.611c.572-.085.426-.737-.137-.65Zm2.402 2.521c-1.241.155-2.93 1.035-4.527 2.048c-1.597 1.013-2.801 2.245-3.52 3.833c1.924-1.985 2.693-2.522 3.874-3.282a17.03 17.03 0 0 1 4.331-1.949c.588-.171.144-.687-.157-.65Z"/><use href="#skillIconsLatexDark0" stroke-width=".661"/><path fill="#37C871" stroke="#fff" stroke-width=".661" d="M160.686 58.824a2.797 2.797 0 1 1-5.594 0a2.797 2.797 0 0 1 5.594 0Z"/></g></svg>