<svg xmlns="http://www.w3.org/2000/svg" xmlns:xlink="http://www.w3.org/1999/xlink" width="256" height="256" viewBox="0 0 256 256"><g fill="none"><rect width="256" height="256" fill="#242938" rx="60"/><path fill="#49D" d="m33 138.187l53.797-21.735a140 140 0 0 1 18.36-19.912c4.455-2.363 12.825-1.08 28.148-20.115C148.155 57.863 152.88 42 159.832 42c11.003 0 19.103 23.76 31.388 59.737a780 780 0 0 0 30.779 80.798c-12.824-11.948-23.759-24.84-36.247-24.503c-11.61.27-24.502 14.04-38.61 31.725c-11.205 14.175-26.055 23.895-31.86 23.693c0 0-14.985-42.39-27.54-49.275a17.82 17.82 0 0 0-16.132 1.35L33 138.12z"/><path fill="url(#skillIconsMatlabDark0)" d="M153.151 46.861c-4.522 6.075-9.99 17.213-19.845 29.565c-15.322 19.035-23.625 17.753-28.147 20.115a132.8 132.8 0 0 0-18.36 19.913l22.275 16.267c18.9-25.785 29.025-53.73 36.922-71.82a92 92 0 0 1 7.155-14.04"/><path fill="url(#skillIconsMatlabDark1)" d="M159.9 42c-14.715 0-24.772 77.49-79.11 120.757c15.255-2.497 28.485 35.37 34.56 50.693c27-4.59 48.6-56.228 70.403-55.418c12.487.473 23.422 12.555 36.247 24.503C192.705 120.975 179.003 42 159.9 42"/><defs><linearGradient id="skillIconsMatlabDark0" x1="132.921" x2="120.839" y1="123.467" y2="84.452" gradientUnits="userSpaceOnUse"><stop stop-color="#512"/><stop offset=".23" stop-color="#523"/><stop offset=".36" stop-color="#534"/><stop offset=".51" stop-color="#645"/><stop offset=".66" stop-color="#568"/><stop offset=".84" stop-color="#29D"/></linearGradient><linearGradient id="skillIconsMatlabDark1" x1="220.043" x2="98.543" y1="147.86" y2="118.025" gradientUnits="userSpaceOnUse"><stop offset=".081" stop-color="#C33"/><stop offset=".189" stop-color="#DE5239"/><stop offset=".313" stop-color="#F06E3E"/><stop offset=".421" stop-color="#FA8042"/><stop offset=".5" stop-color="#FE8643"/><stop offset=".58" stop-color="#FA7F42"/><stop offset=".696" stop-color="#EF6C3E"/><stop offset=".833" stop-color="#DC4C37"/><stop offset=".916" stop-color="#CF3633"/></linearGradient></defs></g></svg>