<svg xmlns="http://www.w3.org/2000/svg" xmlns:xlink="http://www.w3.org/1999/xlink" width="256" height="256" viewBox="0 0 256 256"><g fill="none"><rect width="256" height="256" fill="#F4F2ED" rx="60"/><path fill="url(#skillIconsMavenLight0)" d="M53.329 27c-.347.817-.675 1.876-.98 3.152l-.225.998q-.11.519-.216 1.078l-.205 1.154l-.196 1.23l-.186 1.304l-.174 1.374l-.164 1.444l-.151 1.51q-.037.386-.072.78l-.133 1.607l-.12 1.668l-.107 1.728l-.049.886l10.704 5.18c-.162-6.249.04-12.158.602-17.587l.11-.968l-.075.887l-.096 1.466l-.034.699l-.06 1.595l-.021.898l-.024 1.996l.003 1.676l.026 1.832l.03 1.308l.07 2.095l.062 1.486l.078 1.557l.045.806c1.994-1.626 4.382-3.76 6.865-6.093l1.666-1.581q.419-.401.838-.807l1.672-1.631l1.65-1.64l1.61-1.626l1.55-1.594c-1.712-3.5-3.559-6.07-5.277-7.948l-.567-.6a24 24 0 0 0-1.098-1.055l-.526-.459l-.508-.414a20 20 0 0 0-.487-.373l-.465-.333l-.44-.296l-.609-.376l-.54-.303l-.604-.3l-.452-.194l-.826-.298l-.601-.193l-.587-.166l-.447-.112l-.486-.109l-.256-.052l-.534-.095l-.562-.08c-2.959-.371-6.782.018-8.421 3.888"/><path fill="url(#skillIconsMavenLight1)" d="M63.852 83.69A532 532 0 0 1 62.5 73.18a237 237 0 0 1-.824-8.469l-.19-2.501a3 3 0 0 1-.005-.19a219 219 0 0 1-.48-9.935l-10.682-5.15l-.029.654l-.072 1.359c-.106 2.56-.185 5.279-.208 8.137c-.026 3.222.005 6.583.063 10.104c.076 3.238.208 6.614.383 10.049c.13 2.205.272 4.427.436 6.678l.196 2.603l14.29 7.24l-.503-3.373z"/><path fill="url(#skillIconsMavenLight2)" d="m84.523 166.679l.221.762l1.42 4.823q.305 1.027.62 2.065l.677 2.192l.232.789q.06.193.135.386l2.302 7.378c2.039-.422 4.524.339 7.15 1.484l1.056.477c-1.933-2.325-4.608-3.881-7.805-4.241c8.753-5.838 14.512-13.357 13.703-22.327a31 31 0 0 0-.353-2.447c-.132 3.306-1.452 5.733-5.278 8.327l-.47.312c3.956-6.963 5.045-11.687 4.577-17.795a58 58 0 0 0-.563-4.639c-1.265 9.094-6.149 14.979-13.291 18.461z"/><path fill="url(#skillIconsMavenLight3)" d="m79.402 156.008l-.909-3.408l-1.828-6.899a673 673 0 0 1-2.536-10.093c-.83-3.405-1.631-6.832-2.432-10.259a477 477 0 0 1-2.313-10.527l-.726-3.481l-1.392-6.965a150 150 0 0 1-.696-3.775c-.4-2.142-.77-4.306-1.14-6.47l-.076-.35l-14.21-7.254l.046.45q.008.118.004.234c.287 3.218.566 6.487.946 9.771c.373 3.336.797 6.679 1.293 10.059a508 508 0 0 0 1.344 8.531l.31 1.713a200 200 0 0 0 4.794 20.3a232 232 0 0 0 1.844 5.954l.55 1.593l1.14 3.167a143 143 0 0 0 4.485 10.783l14.363 7.277c-.766-2.641-1.473-5.325-2.252-8.047l-.398-1.525z"/><path fill="url(#skillIconsMavenLight4)" d="M68.107 159.56c1.73 3.703 3.619 7.29 5.704 10.734l1.155 1.869c-1.36-.548-3.082-.82-4.754-.942l-.83-.049l-.409-.016l-.797-.017l-1.123.004l-1.002.029l-.844.044l-1.18.097l-.014.002c7.263 2.519 13.632 5.604 17.65 10.279c-1.597 1.758-4.586 3.095-8.343 4.183c2.797.303 4.928.18 6.465-.071l.622-.114q.147-.03.284-.061l.516-.128l.446-.131l.541-.188l.277-.114c-2.307 1.924-3.751 5.202-4.951 8.876l-.415 1.312q-.102.331-.201.665c3.055-4.995 6.086-8.302 9.038-9.566c3.297 10.931 7.109 22.564 11.293 34.704l1.957 5.638q.991 2.837 2.006 5.706c.974-1.255 1.083-2.644.675-4.059l-1.338-3.779l-1.524-4.417l-2.36-7.005l-1.936-5.874l-2.138-6.627l-2.04-6.466l-1.875-6.059l-1.378-4.538l-1.122-3.746c-.15-.492-.287-.992-.434-1.499l-.423-1.391l-1.212-4.185l-1.231-4.306l-.554-1.985l-.022-.029l-14.363-7.277c.032.126.069.23.112.335z"/><path fill="url(#skillIconsMavenLight5)" d="m67.047 94.065l.255 1.392c.184.947.355 1.904.537 2.867l1.554 7.972l.57 2.776l.832 3.923l.429 2.003c.429 1.986.88 4.003 1.355 6.064l.975 4.18l.971 4.078q.25 1.034.505 2.079l1.043 4.22l1.043 4.101a556 556 0 0 0 1.65 6.328q.631 2.38 1.301 4.824l1.494 5.439l1.129 3.997l1.165 4.083l.598 2.068c.014.08.027.16.07.219l4.333-3.992l-.105.043l-.231.113c5.142-4.856 9.549-14.587 10.556-23.356c.464-4.039.42-8.338-.134-13.028c-.4-3.496-1.112-7.169-2.089-11.144a143 143 0 0 0-3.189-10.921c-.795 1.621-1.924 3.216-3.308 4.773l-.75.822l-.257.267l-.545.546c3.793-5.896 4.244-12.227 3.119-18.8c-.69 1.95-2.043 4.839-4.289 7.434c-.287.346-.625.684-.963 1.023c-.059.043-.108.099-.169.157l-.103.087c1.259-2.096 2.188-4.087 2.784-6.103a9 9 0 0 0 .232-.849l.094-.427c.152-.653.254-1.314.355-1.975l.144-1.279c.057-.752.073-1.525.036-2.31l-.099-1.445a4 4 0 0 0-.04-.32l-.151-.924a12 12 0 0 0-.082-.438a66 66 0 0 0-.95-4.606l-.311-1.219l-.282-1.03l-.367-1.217l-.476-1.427q-.075-.214-.152-.412l-.288-.72q-.138-.332-.264-.606l-.237-.486a4 4 0 0 1-.182.571l-.132.291c-.895 2.1-2.976 4.98-4.873 7.005c-.03.022-.06.043-.067.094l-.391.39q-.1.107-.197.222l.074-.144l-13.651 12.5c.115.096.129.176.121.227"/><path fill="url(#skillIconsMavenLight6)" d="M61.773 51.843q.082 1.496.197 3.116l.165 2.215q.044.567.093 1.148l.203 2.376q.053.606.11 1.227l.032.394q.01.094.035.188q.173 1.826.386 3.762l.303 2.637q.16 1.346.34 2.75l.568 4.289c.266 1.947.553 3.964.875 6.068l.248 1.595c.245 1.624.517 3.285.805 4.991l.9 5.26l13.651-12.5c2.847-5.157 3.469-8.365 3.43-12.352a56 56 0 0 0-.104-2.493l-.057-.862c-.219-3.493-.639-7.2-1.234-10.778c-.56-3.468-1.246-6.799-2.032-9.651a51 51 0 0 0-1.564-4.897a56 56 0 0 0-1.507-3.405L76.07 38.5l-.798.805l-1.632 1.626l-1.662 1.63l-1.674 1.615l-.836.794l-1.654 1.552c-2.184 2.028-4.268 3.874-6.04 5.32"/><path fill="url(#skillIconsMavenLight7)" d="M193.196 29.676q-.657.27-1.427.678l-.797.44q-.824.473-1.752 1.075l-.952.634l-1 .696l-1.047.757l-1.092.818q-.279.21-.562.43l-1.156.906l-1.197.962l-1.237 1.02l-1.273 1.073l-1.309 1.128l-1.343 1.18l-1.376 1.233l-.699.636l4.501 12.675c4.869-5.196 9.76-9.821 14.559-13.763l1.688-1.37l.122-.093l-1.161.945l-1.138.984l-1.235 1.117l-1.171 1.097l-.984.947l-.706.692l-1.53 1.534l-1.251 1.286l-1.803 1.9l-.959 1.031l-.997 1.088l-1.565 1.738l-1.091 1.23c1.12.107 2.347.199 3.654.277l2.016.108l2.115.087l2.193.068l2.248.049l2.284.03q.573.006 1.148.009l2.297.003q.573 0 1.144-.004l2.262-.022q.561-.007 1.115-.017l2.181-.046c1.791-5.338 2.201-9.63 2.062-12.835l-.048-.812l-.07-.761l-.042-.363l-.096-.687l-.109-.638l-.059-.3l-.123-.562l-.128-.512l-.131-.462l-.129-.41l-.241-.67l-.195-.465l-.465-.958l-.271-.512l-.227-.402l-.263-.442l-.298-.473l-.333-.498l-.368-.513c-2.054-2.766-5.561-5.878-10.183-3.97"/><path fill="url(#skillIconsMavenLight8)" d="M156.631 83.683a603 603 0 0 1 7.261-9.536a271 271 0 0 1 7.598-9.279c.152-.185.304-.37.45-.516a247 247 0 0 1 7.506-8.377l-4.507-12.635l-.543.504l-1.138 1.037a272 272 0 0 0-6.632 6.386a368 368 0 0 0-3.925 3.976l-2.686 2.78q-.679.707-1.367 1.427a415 415 0 0 0-7.675 8.394a543 543 0 0 0-4.955 5.722l-1.911 2.251L149.859 93l2.274-3.116z"/><path fill="url(#skillIconsMavenLight9)" d="m107.328 166.912l-.855 1.579l-2.261 4.221q-.57 1.07-1.142 2.155l-1.196 2.303c-.229.424-.451.807-.639 1.237l-1.258 2.428l-2.75 5.34c2.24 1.451 3.734 4.581 5.047 8.099c.292-3.407-.626-6.785-2.913-9.615c11.684 2.255 22.295.777 28.77-7.087a35 35 0 0 0 1.661-2.25c-2.742 2.564-5.742 3.467-10.909 2.502l-.584-.114c8.718-2.463 13.348-5.4 17.824-10.689a66 66 0 0 0 3.233-4.182c-8.244 6.316-16.851 7.173-25.368 4.302z"/><path fill="url(#skillIconsMavenLighta)" d="m111.235 155.045l2.425-4.26l4.009-7.006c1.95-3.373 3.94-6.739 5.978-10.14s4.115-6.796 6.193-10.192a543 543 0 0 1 6.502-10.312c2.159-3.383 4.4-6.755 6.594-10.091a168 168 0 0 1 2.44-3.592a485 485 0 0 1 4.223-6.115l.216-.342l-5.676-17.13l-.321.4a2 2 0 0 1-.182.191c-2.326 2.819-4.698 5.672-7.001 8.618a334 334 0 0 0-6.952 9.124a574 574 0 0 0-5.696 7.936l-1.111 1.625c-2.282 3.365-4.429 6.667-6.349 9.836a226 226 0 0 0-5.92 10.315a262 262 0 0 0-3.247 6.258c-.832 1.707-1.63 3.461-2.422 5.174a162 162 0 0 0-4.956 12.244l5.781 17.27l1.125-2.05l2.3-4.124q.579-1.04 1.155-2.092z"/><path fill="url(#skillIconsMavenLightb)" d="M99.781 148.136c-1.548 4.356-2.879 8.745-3.937 13.173l-.555 2.423c-.52-1.2-1.357-2.44-2.3-3.61l-.577-.693a24 24 0 0 0-.295-.338l-.596-.658l-.597-.628l-.587-.592l-.84-.81l-.763-.702l-.836-.734l-.752-.619c3.845 7.798 6.521 15.341 6.04 22.296c-2.681.147-6.15-1.151-10.039-3.26c1.674 2.053 3.212 3.502 4.508 4.517l.581.439l.277.197l.526.354l.486.301l.443.253l.399.209l.352.168l.304.13q.069.029.133.053c-3.26-.274-6.872 1.098-10.603 2.988l-1.248.648l-1.254.677c6.428-1.593 11.495-1.847 14.876-.519a839 839 0 0 0-5.013 9.646l-2.529 4.98a1243 1243 0 0 0-11.55 23.558l-2.6 5.466a1770 1770 0 0 0-2.612 5.541c1.78-.238 2.971-1.269 3.768-2.732l2.945-6.244l2.71-5.614l3.463-7.05l3.06-6.129l3.03-5.989l2.88-5.617l3.995-7.682l2.837-5.377l.975-1.833l.841-1.552l.765-1.455l1.165-2.152l2.39-4.389l1.225-2.237l1.13-2.037l.006-.041l-5.78-17.27c-.075.128-.128.24-.176.359z"/><path fill="url(#skillIconsMavenLightc)" d="m150.959 94.578l-.9 1.323c-.605.909-1.228 1.815-1.846 2.735l-2.966 4.472l-2.117 3.18l-.537.823a536 536 0 0 0-2.427 3.76l-2.476 3.877a570 570 0 0 0-4.989 8.01l-1.274 2.088a861 861 0 0 0-6.217 10.355l-2.42 4.13a635 635 0 0 0-3.699 6.405a599 599 0 0 0-2.225 3.921l-3.679 6.562l-1.127 2.044l-2.289 4.166a911 911 0 0 0-2.318 4.257a.6.6 0 0 0-.118.232l6.66.229c-.116-.059-.238-.077-.395-.141c7.998.175 19.277-4.156 27.055-10.415c3.582-2.884 6.964-6.379 10.243-10.595c2.455-3.132 4.801-6.654 7.172-10.63a162 162 0 0 0 6.111-11.326c-1.928.673-4.106 1.06-6.456 1.214l-1.257.065c-.279.015-.556.011-.845.012l-.446.007c7.737-1.733 13.13-6.471 17.447-12.656c-2.104 1.021-5.489 2.271-9.358 2.576c-.507.051-1.048.054-1.589.058c-.081-.012-.165-.006-.26-.007l-.153-.012c2.679-.688 5.009-1.551 7.09-2.701a10 10 0 0 0 .862-.499l.415-.27c.642-.405 1.248-.856 1.855-1.308l1.132-.915a21 21 0 0 0 2.447-2.509l.486-.563q.116-.14.221-.29l.613-.864q.147-.209.282-.418a76 76 0 0 0 2.946-4.547l.343-.583c.445-.766.837-1.457 1.183-2.113l.404-.772l.613-1.242a17 17 0 0 0 .343-.738l.179-.417l.304-.754q.135-.35.233-.64l.089-.274a5 5 0 0 1-.601.315l-.338.13c-2.389.98-6.353 1.645-9.488 1.767c-.041-.006-.082-.012-.129.022l-.625.004q-.166.005-.334.022l.174-.058l-20.921-.783c.017.169-.036.244-.083.279"/><path fill="url(#skillIconsMavenLightd)" d="M180.257 56.38q-1.121 1.27-2.317 2.666l-1.627 1.915l-1.691 2.02l-2.044 2.469a2 2 0 0 0-.122.18a291 291 0 0 0-3.596 4.502l-1.88 2.422q-.478.62-.963 1.258l-2.701 3.571l-1.766 2.366a407 407 0 0 0-2.734 3.73l-.934 1.297a302 302 0 0 0-2.838 3.975l-1.939 2.77l-1.996 2.863l20.921.783c6.389-1.89 9.439-3.978 12.575-7.218a62 62 0 0 0 1.897-2.09l.639-.739a122 122 0 0 0 7.57-9.657c2.304-3.237 4.399-6.463 6.033-9.383c1.066-1.881 1.945-3.623 2.631-5.185a63 63 0 0 0 1.493-3.939l-2.17.038l-2.232.024l-2.272.008l-2.291-.009q-.575-.004-1.146-.01l-2.28-.033l-2.246-.051q-.555-.015-1.103-.033l-2.155-.078q-.529-.022-1.046-.047l-2.016-.108a104 104 0 0 1-3.654-.277"/><defs><linearGradient id="skillIconsMavenLight0" x1="55.992" x2="90.686" y1="41.491" y2="30.177" gradientUnits="userSpaceOnUse"><stop stop-color="#F69923"/><stop offset=".312" stop-color="#F79A23"/><stop offset=".838" stop-color="#E97826"/></linearGradient><linearGradient id="skillIconsMavenLight1" x1="53.254" x2="95.823" y1="231.877" y2="62.871" gradientUnits="userSpaceOnUse"><stop offset=".323" stop-color="#9E2064"/><stop offset=".63" stop-color="#C92037"/><stop offset=".751" stop-color="#CD2335"/><stop offset="1" stop-color="#E97826"/></linearGradient><linearGradient id="skillIconsMavenLight2" x1="91.431" x2="119.396" y1="226.554" y2="90.357" gradientUnits="userSpaceOnUse"><stop stop-color="#282662"/><stop offset=".095" stop-color="#662E8D"/><stop offset=".788" stop-color="#9F2064"/><stop offset=".949" stop-color="#CD2032"/></linearGradient><linearGradient id="skillIconsMavenLight3" x1="60.553" x2="122.45" y1="222.638" y2="72.125" gradientUnits="userSpaceOnUse"><stop offset=".323" stop-color="#9E2064"/><stop offset=".63" stop-color="#C92037"/><stop offset=".751" stop-color="#CD2335"/><stop offset="1" stop-color="#E97826"/></linearGradient><linearGradient id="skillIconsMavenLight4" x1="76.02" x2="125.862" y1="215.683" y2="153.584" gradientUnits="userSpaceOnUse"><stop stop-color="#282662"/><stop offset=".095" stop-color="#662E8D"/><stop offset=".788" stop-color="#9F2064"/><stop offset=".949" stop-color="#CD2032"/></linearGradient><linearGradient id="skillIconsMavenLight5" x1="79.861" x2="125.369" y1="248.894" y2="33.476" gradientUnits="userSpaceOnUse"><stop offset=".323" stop-color="#9E2064"/><stop offset=".63" stop-color="#C92037"/><stop offset=".751" stop-color="#CD2335"/><stop offset="1" stop-color="#E97826"/></linearGradient><linearGradient id="skillIconsMavenLight6" x1="66.756" x2="109.583" y1="302.142" y2="52.84" gradientUnits="userSpaceOnUse"><stop offset=".323" stop-color="#9E2064"/><stop offset=".63" stop-color="#C92037"/><stop offset=".751" stop-color="#CD2335"/><stop offset="1" stop-color="#E97826"/></linearGradient><linearGradient id="skillIconsMavenLight7" x1="180.304" x2="225.334" y1="45.929" y2="33.926" gradientUnits="userSpaceOnUse"><stop stop-color="#F69923"/><stop offset=".312" stop-color="#F79A23"/><stop offset=".838" stop-color="#E97826"/></linearGradient><linearGradient id="skillIconsMavenLight8" x1="113.92" x2="205.543" y1="239.48" y2="71.614" gradientUnits="userSpaceOnUse"><stop offset=".323" stop-color="#9E2064"/><stop offset=".63" stop-color="#C92037"/><stop offset=".751" stop-color="#CD2335"/><stop offset="1" stop-color="#E97826"/></linearGradient><linearGradient id="skillIconsMavenLight9" x1="88.54" x2="129.915" y1="203.463" y2="133.972" gradientUnits="userSpaceOnUse"><stop stop-color="#282662"/><stop offset=".095" stop-color="#662E8D"/><stop offset=".788" stop-color="#9F2064"/><stop offset=".949" stop-color="#CD2032"/></linearGradient><linearGradient id="skillIconsMavenLighta" x1="104.576" x2="197.49" y1="227.592" y2="70.311" gradientUnits="userSpaceOnUse"><stop offset=".323" stop-color="#9E2064"/><stop offset=".63" stop-color="#C92037"/><stop offset=".751" stop-color="#CD2335"/><stop offset="1" stop-color="#E97826"/></linearGradient><linearGradient id="skillIconsMavenLightb" x1="82.398" x2="133.362" y1="213.608" y2="137.786" gradientUnits="userSpaceOnUse"><stop stop-color="#282662"/><stop offset=".095" stop-color="#662E8D"/><stop offset=".788" stop-color="#9F2064"/><stop offset=".949" stop-color="#CD2032"/></linearGradient><linearGradient id="skillIconsMavenLightc" x1="80.94" x2="188.052" y1="227.736" y2="56.105" gradientUnits="userSpaceOnUse"><stop offset=".323" stop-color="#9E2064"/><stop offset=".63" stop-color="#C92037"/><stop offset=".751" stop-color="#CD2335"/><stop offset="1" stop-color="#E97826"/></linearGradient><linearGradient id="skillIconsMavenLightd" x1="81.295" x2="149.893" y1="159.727" y2="46.672" gradientUnits="userSpaceOnUse"><stop offset=".323" stop-color="#9E2064"/><stop offset=".63" stop-color="#C92037"/><stop offset=".751" stop-color="#CD2335"/><stop offset="1" stop-color="#E97826"/></linearGradient></defs></g></svg>