<svg xmlns="http://www.w3.org/2000/svg" xmlns:xlink="http://www.w3.org/1999/xlink" width="256" height="256" viewBox="0 0 256 256"><g fill="none"><rect width="256" height="256" fill="#F4F2ED" rx="60"/><path fill="#86B300" d="M50.232 54c-3.02 0-5.895.513-8.627 1.54c-4.888 1.758-8.914 4.91-12.076 9.453C26.509 69.391 25 74.301 25 79.723v96.301c0 7.035 2.444 13.118 7.332 18.248c5.032 4.983 10.999 7.475 17.9 7.475c7.044 0 13.01-2.492 17.899-7.475c5.031-5.13 7.548-11.213 7.548-18.248v-17.512c.054-3.793 3.886-2.798 5.823 0c3.627 6.404 11.317 11.904 20.271 11.873c8.953-.032 16.39-4.545 20.271-11.873c1.47-1.768 5.614-4.78 6.039 0v17.512c0 7.035 2.443 13.118 7.332 18.248c5.031 4.983 10.998 7.475 17.899 7.475c7.045 0 13.011-2.492 17.899-7.475c5.032-5.13 7.548-11.213 7.548-18.248v-96.3c0-5.423-1.581-10.334-4.744-14.73c-3.019-4.544-6.973-7.696-11.861-9.455c-2.875-1.026-5.751-1.539-8.626-1.539c-7.764 0-14.305 3.078-19.625 9.235l-25.606 30.551c-.575.44-2.48 3.802-6.527 3.802c-4.046 0-5.735-3.362-6.31-3.802L69.639 63.235C64.465 57.079 57.995 54 50.231 54Zm159.555 0c-6.039 0-11.214 2.199-15.527 6.596c-4.17 4.25-6.254 9.454-6.254 15.61c0 6.156 2.084 11.433 6.254 15.83c4.313 4.25 9.488 6.376 15.527 6.376c6.038 0 11.214-2.125 15.527-6.376c4.313-4.397 6.47-9.674 6.47-15.83c0-6.156-2.157-11.36-6.47-15.61C221.001 56.2 215.825 54 209.787 54Zm.215 48.809c-6.038 0-11.214 2.199-15.527 6.596c-4.313 4.397-6.469 9.674-6.469 15.83v54.305c0 6.156 2.156 11.433 6.469 15.83c4.313 4.25 9.489 6.376 15.527 6.376c6.038 0 11.142-2.126 15.312-6.376c4.313-4.397 6.47-9.674 6.47-15.83v-54.305c0-6.156-2.157-11.433-6.47-15.83c-4.17-4.397-9.274-6.596-15.312-6.596Z"/></g></svg>