<svg xmlns="http://www.w3.org/2000/svg" xmlns:xlink="http://www.w3.org/1999/xlink" width="256" height="256" viewBox="0 0 256 256"><g fill="none"><rect width="256" height="256" fill="#242938" rx="60"/><path fill="url(#skillIconsNetlifyDark0)" d="m172.787 97.405l-.073-.031c-.041-.016-.083-.031-.12-.068a.57.57 0 0 1-.146-.485l4.032-24.651l18.909 18.913l-19.665 8.367a.4.4 0 0 1-.172.031h-.078a.5.5 0 0 1-.105-.088a9 9 0 0 0-2.582-1.988m27.426-1.502l20.218 20.217c4.199 4.205 6.301 6.301 7.068 8.732c.114.36.208.72.281 1.09l-48.316-20.462l-.078-.032c-.193-.078-.418-.167-.418-.365s.23-.292.423-.37l.062-.026zm26.743 36.528c-1.043 1.961-3.077 3.996-6.52 7.443l-22.794 22.789l-29.481-6.139l-.157-.031c-.261-.042-.537-.089-.537-.324a8.9 8.9 0 0 0-3.417-6.222c-.12-.12-.088-.308-.052-.48c0-.026 0-.052.011-.073l5.544-34.04l.021-.115c.032-.261.078-.563.313-.563a9.02 9.02 0 0 0 6.051-3.469c.047-.052.078-.11.141-.141c.167-.078.365 0 .537.073l50.335 21.292zM192.4 167.905l-37.483 37.483l6.416-39.433l.01-.053a.7.7 0 0 1 .032-.151c.052-.125.187-.177.318-.229l.062-.026a9.66 9.66 0 0 0 3.626-2.697c.125-.146.276-.287.469-.313a.5.5 0 0 1 .151 0l26.393 5.425zm-45.417 45.417l-4.225 4.225l-46.71-67.507l-.052-.073c-.072-.099-.15-.198-.135-.313c.005-.083.057-.156.115-.219l.052-.067c.14-.209.26-.418.391-.642l.104-.183l.016-.015c.073-.125.14-.245.266-.313c.11-.052.26-.031.38-.005l51.749 10.672a.85.85 0 0 1 .397.172c.068.068.083.141.099.224a9.16 9.16 0 0 0 5.362 6.129c.146.073.083.235.016.407q-.05.113-.079.235c-.652 3.964-6.243 38.066-7.746 47.273m-8.825 8.82c-3.114 3.083-4.95 4.715-7.026 5.373a10.44 10.44 0 0 1-6.291 0c-2.43-.772-4.532-2.869-8.731-7.073l-46.908-46.908l12.252-19.003a.8.8 0 0 1 .209-.245c.13-.094.318-.052.475 0c2.812.849 5.831.696 8.543-.433c.141-.052.282-.088.392.011q.081.075.146.167l46.939 68.116zm-73.479-53.131l-10.76-10.76l21.25-9.066a.4.4 0 0 1 .172-.036c.177 0 .282.177.376.339q.32.492.678.959l.067.084c.063.088.021.177-.041.261l-11.737 18.219zm-15.523-15.523l-13.614-13.614c-2.315-2.316-3.995-3.995-5.164-5.44l41.395 8.586l.157.026c.255.041.537.088.537.328c0 .261-.308.381-.569.48l-.12.052zM28 127.434a10.4 10.4 0 0 1 .47-2.582c.771-2.431 2.868-4.527 7.072-8.732l17.422-17.421a11464 11464 0 0 0 24.13 34.88c.14.187.297.396.135.552c-.761.84-1.523 1.758-2.06 2.755a.83.83 0 0 1-.261.323c-.068.042-.14.026-.22.01h-.01L28 127.429zm29.627-33.398L81.052 70.61c2.202.965 10.214 4.35 17.38 7.376c5.425 2.295 10.37 4.381 11.924 5.06c.157.062.298.125.365.281c.042.094.021.214 0 .313a10.46 10.46 0 0 0 2.728 9.535c.157.157 0 .38-.135.574l-.073.11l-23.785 36.84a.7.7 0 0 1-.225.261c-.125.078-.302.042-.448.005a12 12 0 0 0-2.833-.386c-.855 0-1.784.157-2.722.329h-.006c-.104.016-.198.036-.281-.026a1.1 1.1 0 0 1-.235-.266zm28.157-28.157l30.326-30.326c4.199-4.199 6.301-6.3 8.731-7.068a10.43 10.43 0 0 1 6.291 0c2.431.767 4.533 2.87 8.732 7.068l6.572 6.572l-21.569 33.404a.8.8 0 0 1-.213.25c-.131.09-.313.053-.47 0a10.94 10.94 0 0 0-10.015 1.93c-.141.146-.349.063-.527-.015c-2.816-1.226-24.724-10.484-27.858-11.815m65.232-19.174L170.93 66.62l-4.798 29.721v.078a.8.8 0 0 1-.042.199c-.052.104-.157.125-.261.156a9.5 9.5 0 0 0-2.858 1.424a1 1 0 0 0-.105.089c-.057.062-.114.12-.208.13a.6.6 0 0 1-.225-.036l-30.347-12.894l-.057-.027c-.193-.078-.422-.172-.422-.37a11.5 11.5 0 0 0-1.617-4.773c-.146-.24-.308-.49-.183-.735zm-20.51 44.89l28.448 12.049c.157.073.329.14.397.302c.027.097.027.2 0 .297a7 7 0 0 0-.157 1.372v.798c0 .199-.203.282-.391.36l-.057.021c-4.507 1.925-63.271 26.983-63.36 26.983s-.182 0-.271-.089c-.156-.156 0-.375.14-.574q.038-.051.074-.104l23.378-36.2l.042-.062c.136-.22.292-.464.542-.464l.235.036c.532.073 1.002.141 1.476.141c3.547 0 6.833-1.726 8.815-4.679a.9.9 0 0 1 .178-.208c.141-.105.349-.052.511.02m-32.58 47.909l64.054-27.316s.094 0 .182.088c.35.35.647.584.934.803l.141.089c.13.073.261.157.271.292c0 .052 0 .084-.01.131l-5.488 33.706l-.021.135c-.036.261-.073.559-.318.559a9 9 0 0 0-7.161 4.418l-.027.041c-.073.12-.14.235-.26.298c-.11.052-.251.031-.365.005l-51.081-10.537c-.052-.01-.793-2.707-.85-2.712"/><defs><radialGradient id="skillIconsNetlifyDark0" cx="0" cy="0" r="1" gradientTransform="scale(230.653 199.78)rotate(90 -.267 .36)" gradientUnits="userSpaceOnUse"><stop stop-color="#20C6B7"/><stop offset="1" stop-color="#4D9ABF"/></radialGradient></defs></g></svg>