<svg xmlns="http://www.w3.org/2000/svg" xmlns:xlink="http://www.w3.org/1999/xlink" width="256" height="256" viewBox="0 0 256 256"><g fill="none"><rect width="256" height="256" fill="#242938" rx="60"/><path fill="#00DC82" d="M138.787 189.333h68.772c2.184.001 4.33-.569 6.222-1.652a12.4 12.4 0 0 0 4.554-4.515a12.24 12.24 0 0 0-.006-12.332l-46.185-79.286a12.4 12.4 0 0 0-4.553-4.514a12.53 12.53 0 0 0-12.442 0a12.4 12.4 0 0 0-4.553 4.514l-11.809 20.287l-23.09-39.67a12.4 12.4 0 0 0-4.555-4.513a12.54 12.54 0 0 0-12.444 0a12.4 12.4 0 0 0-4.555 4.513L36.67 170.834a12.24 12.24 0 0 0-.005 12.332a12.4 12.4 0 0 0 4.554 4.515a12.5 12.5 0 0 0 6.222 1.652h43.17c17.104 0 29.718-7.446 38.397-21.973l21.072-36.169l11.287-19.356l33.873 58.142h-45.16zm-48.88-19.376l-30.127-.007l45.16-77.518l22.533 38.759l-15.087 25.906c-5.764 9.426-12.312 12.86-22.48 12.86"/></g></svg>