<svg xmlns="http://www.w3.org/2000/svg" xmlns:xlink="http://www.w3.org/1999/xlink" width="256" height="256" viewBox="0 0 256 256"><g fill="none"><rect width="256" height="256" fill="#F4F2ED" rx="60"/><path fill="#36C" d="M43.935 127.954a119.953 119.953 0 0 0 4.506 32.886c3.041 10.459 7.518 20.505 13.32 29.888a8.184 8.184 0 0 1 1 2.53a3.6 3.6 0 0 1 0 1.967a3.558 3.558 0 0 1-1 1.406l-1.403 1.03l-8.312 4.685a137.123 137.123 0 0 1-11.116-18.739a122.455 122.455 0 0 1-7.41-18.738a116.925 116.925 0 0 1-4.207-18.739a143.837 143.837 0 0 1 0-38.788a116.927 116.927 0 0 1 4.207-18.739a124.46 124.46 0 0 1 7.41-18.738A138.437 138.437 0 0 1 51.746 53l8.312 4.778l1.402 1.03a3.75 3.75 0 0 1 1.001 1.406a3.602 3.602 0 0 1 0 1.968a8.37 8.37 0 0 1-1.001 2.53c-11.617 19.297-17.658 41.094-17.525 63.242Zm33.848 32.886a13.525 13.525 0 0 1 1.102-5.528a13.992 13.992 0 0 1 3.105-4.497c2.119-1.986 4.825-3.333 7.77-3.868a15.983 15.983 0 0 1 8.753.87c3.608 1.433 6.48 4.12 8.012 7.495a13.022 13.022 0 0 1 1.202 5.528a12.926 12.926 0 0 1-1.202 5.528a14.581 14.581 0 0 1-3.205 4.497a14.71 14.71 0 0 1-4.807 2.998a16.724 16.724 0 0 1-11.817 0a13.98 13.98 0 0 1-7.877-7.618a13.255 13.255 0 0 1-1.036-5.405Zm108.156-44.223l-5.407 8.807l-17.526-9.369l-3.405-2.155a13.488 13.488 0 0 1-2.704-2.436a16.21 16.21 0 0 1 1.002 7.121v18.738h-10.015v-18.738a19.053 19.053 0 0 1 1.202-7.121a18.004 18.004 0 0 1-5.808 4.497l-17.425 9.37l-5.408-8.807l17.325-9.37a23.502 23.502 0 0 1 7.511-2.717a18.497 18.497 0 0 1-7.511-2.623l-17.926-9.463l5.408-8.807l17.525 9.369l3.305 2.249a15.964 15.964 0 0 1 2.704 2.53a17.603 17.603 0 0 1-.902-7.215V71.738h10.015v18.739c.091 1.248.091 2.5 0 3.748a12.068 12.068 0 0 1-1.002 3.373a22.17 22.17 0 0 1 5.909-4.591l17.425-9.37l5.408 8.808l-17.325 9.369l-3.605 1.686c-1.147.475-2.361.79-3.605.937c1.229.212 2.435.526 3.605.937a20.58 20.58 0 0 1 3.605 1.78l17.625 9.463Zm25.737 11.337a120.112 120.112 0 0 0-4.506-32.886c-2.989-10.7-7.431-20.995-13.219-30.638a8.39 8.39 0 0 1-1.002-2.53a3.972 3.972 0 0 1 0-1.967a3.367 3.367 0 0 1 1.002-1.405l1.402-1.03L203.965 53a143.041 143.041 0 0 1 11.016 18.739a124.017 124.017 0 0 1 7.411 18.738a116.674 116.674 0 0 1 4.206 18.739A141.832 141.832 0 0 1 228 127.954a142.133 142.133 0 0 1-1.302 18.739a116.582 116.582 0 0 1-4.206 18.738a122.06 122.06 0 0 1-7.411 18.739a142.48 142.48 0 0 1-11.016 18.738l-8.412-4.685l-1.402-1.03a3.276 3.276 0 0 1-1.001-1.406a3.857 3.857 0 0 1 0-1.967a8.183 8.183 0 0 1 1.001-2.53c5.741-9.52 10.15-19.691 13.119-30.263a120.399 120.399 0 0 0 4.306-33.073Z"/></g></svg>