<svg xmlns="http://www.w3.org/2000/svg" xmlns:xlink="http://www.w3.org/1999/xlink" width="256" height="256" viewBox="0 0 256 256"><g fill="none"><rect width="256" height="256" fill="#242938" rx="60"/><path fill="url(#skillIconsRollupjsDark0)" d="M203.708 94.3c0-11.7-3.1-22.6-8.4-32.1c-14.3-14.7-45.3-18.1-53-.1c-7.9 18.5 13.3 39 22.6 37.4c11.8-2.1-2.1-29.1-2.1-29.1c18 34 13.9 23.6-18.7 54.8s-66 97.1-70.9 99.9c-.2.1-.4.2-.7.3h127.9c2.3 0 3.7-2.4 2.7-4.4l-33.4-66.2c-.7-1.4-.2-3.2 1.2-4c19.6-11.2 32.8-32.3 32.8-56.5"/><path fill="url(#skillIconsRollupjsDark1)" d="M203.708 94.3c0-11.7-3.1-22.6-8.4-32.1c-14.3-14.7-45.3-18.1-53-.1c-7.9 18.5 13.3 39 22.6 37.4c11.8-2.1-2.1-29.1-2.1-29.1c18 34 13.9 23.6-18.7 54.8s-66 97.1-70.9 99.9c-.2.1-.4.2-.7.3h127.9c2.3 0 3.7-2.4 2.7-4.4l-33.4-66.2c-.7-1.4-.2-3.2 1.2-4c19.6-11.2 32.8-32.3 32.8-56.5"/><path fill="url(#skillIconsRollupjsDark2)" d="M73.208 225.1c4.9-2.8 38.2-68.7 70.8-99.9s36.8-20.8 18.7-54.8c0 0-69 96.8-94 144.7"/><path fill="url(#skillIconsRollupjsDark3)" d="M82.908 138.3c46.6-85.7 52.7-94.4 77-94.4c12.8 0 25.6 5.8 34 16c-11.3-18.3-31.4-30.5-54.4-30.9h-79.2c-1.7 0-3 1.4-3 3v159.7c4.7-12.1 12.7-29.5 25.6-53.4"/><path fill="url(#skillIconsRollupjsDark4)" d="M144.008 125.2c-32.6 31.2-65.9 97.1-70.8 99.9s-13 3.1-17.3-1.7c-4.6-5.2-11.8-13.5 27.1-85c46.6-85.7 52.7-94.4 77-94.4c12.8 0 25.6 5.8 34 16c.5.7.9 1.5 1.4 2.3c-14.3-14.7-45.3-18.1-53-.1c-7.9 18.5 13.3 39 22.6 37.4c11.8-2.1-2.1-29.1-2.1-29.1c17.9 33.8 13.7 23.4-18.9 54.7"/><path fill="url(#skillIconsRollupjsDark5)" d="M86.708 142.2c46.6-85.7 52.7-94.4 77-94.4c10.5 0 21.1 3.9 29.1 11c-8.3-9.5-20.7-14.8-33-14.8c-24.3 0-30.4 8.6-77 94.4c-38.9 71.5-31.7 79.8-27.1 85c.7.7 1.4 1.4 2.2 1.9c-3.9-6-5.7-19.7 28.8-83.1" opacity=".3"/><defs><linearGradient id="skillIconsRollupjsDark0" x1="107.722" x2="161.152" y1="134.557" y2="147.047" gradientUnits="userSpaceOnUse"><stop stop-color="#FF6533"/><stop offset=".157" stop-color="#FF5633"/><stop offset=".434" stop-color="#FF4333"/><stop offset=".714" stop-color="#FF3733"/><stop offset="1" stop-color="#F33"/></linearGradient><linearGradient id="skillIconsRollupjsDark1" x1="99.36" x2="195.118" y1="116.847" y2="191.094" gradientUnits="userSpaceOnUse"><stop stop-color="#BF3338"/><stop offset="1" stop-color="#F33"/></linearGradient><linearGradient id="skillIconsRollupjsDark2" x1="102.491" x2="116.369" y1="131.464" y2="146.036" gradientUnits="userSpaceOnUse"><stop stop-color="#FF6533"/><stop offset=".157" stop-color="#FF5633"/><stop offset=".434" stop-color="#FF4333"/><stop offset=".714" stop-color="#FF3733"/><stop offset="1" stop-color="#F33"/></linearGradient><linearGradient id="skillIconsRollupjsDark3" x1="127.725" x2="123.561" y1="156.549" y2="96.874" gradientUnits="userSpaceOnUse"><stop stop-color="#FF6533"/><stop offset=".157" stop-color="#FF5633"/><stop offset=".434" stop-color="#FF4333"/><stop offset=".714" stop-color="#FF3733"/><stop offset="1" stop-color="#F33"/></linearGradient><linearGradient id="skillIconsRollupjsDark4" x1="109.686" x2="129.399" y1="130.442" y2="143.847" gradientUnits="userSpaceOnUse"><stop stop-color="#FBB040"/><stop offset="1" stop-color="#FB8840"/></linearGradient><linearGradient id="skillIconsRollupjsDark5" x1="129.884" x2="109.761" y1="54.651" y2="276.003" gradientUnits="userSpaceOnUse"><stop stop-color="#fff"/><stop offset="1" stop-color="#fff" stop-opacity="0"/></linearGradient></defs></g></svg>