<svg xmlns="http://www.w3.org/2000/svg" xmlns:xlink="http://www.w3.org/1999/xlink" width="256" height="256" viewBox="0 0 256 256"><g fill="none"><rect width="256" height="256" fill="#242938" rx="60"/><path fill="#5FB832" d="M209.545 171.821c-24.615 32.797-77.198 21.726-110.91 23.318c0 0-5.968.332-11.979 1.322c0 0 2.273-.97 5.172-1.969c23.678-8.188 34.867-9.833 49.254-17.223c27.032-13.848 53.936-44.01 59.41-75.344c-10.29 30.136-41.583 56.073-70.077 66.605c-19.504 7.197-54.773 14.201-54.778 14.204c.016.025-1.406-.738-1.426-.755c-23.986-11.67-24.678-63.62 18.886-80.366c19.1-7.347 37.369-3.311 58.017-8.226c22.022-5.236 47.528-21.743 57.895-43.324c11.622 34.472 25.583 88.404.536 121.758m.428-132.44c-2.93 6.962-6.507 13.236-10.629 18.847C181.197 39.604 155.868 28 127.871 28C72.799 28 28 72.804 28 127.866c0 28.865 12.32 54.898 31.964 73.146l2.187 1.937c-3.652-2.978-4.213-8.341-1.253-11.997c2.978-3.657 8.346-4.224 12-1.262c3.664 2.968 4.222 8.345 1.256 12.007c-2.956 3.664-8.334 4.217-11.993 1.261l1.489 1.318c17.375 14.63 39.774 23.467 64.221 23.467c52.64 0 95.865-40.965 99.565-92.67c2.74-25.316-4.737-57.462-17.463-95.692"/></g></svg>