<svg xmlns="http://www.w3.org/2000/svg" xmlns:xlink="http://www.w3.org/1999/xlink" width="256" height="256" viewBox="0 0 256 256"><g fill="none"><rect width="256" height="256" fill="url(#skillIconsStyledcomponents0)" rx="60"/><path fill="#fff" d="m11.487 129.079l50.304 20.384v14.269l-59.55-27.591v-8.372zm50.304-16.743L11.56 133.01l-9.318 1.02v-8.445L61.79 98.067zm179.58 19.655l-51.76-20.165V97.921l62.17 27.518v8.518zm-51.76 17.763l51.906-20.602l10.264-1.529v8.445l-62.17 27.591z"/><path fill="#B956A6" fill-rule="evenodd" d="M176.077 61.099c-.288 4.566-2.345 9.334-1.772 13.773c3.593 6.354 11.501 7.367 18.025 7.803c4.52.808 4.463-2.185 4.16-5.547l.055-16.124c-6.823.025-13.648-.067-20.468.095m-53.801 12.77c-11.108 1.886-22.368 7.194-31.609 13.584c-7.438 5.789 6.385 11.399 11.4 12.337c10.09.123 19.039-6.683 25.667-13.747c2.164-2.97 4.867-7.517 2.148-10.96c-2.076-1.8-5.095-1.363-7.606-1.213m23.637 16.155c-9.133 1.74-17.823 5.504-25.512 10.745c-5.637 1.77-10.283 7.959-3.298 11.06c7.335 5.845 15.836 4.413 22.591.467c6.186-3.677 12.868-8.214 15.73-15.136c2.703-7.583-4.271-7.864-9.511-7.136m25.909 29.383c-1.701 7.104-8.855 10.334-12.661 15.963c-3.112 4.106-1.671 8.943 1.872 12.175c1.725 3.577 4.749 5.576 7.992 2.469c8.352-5.678 10.662-16.738 10.315-26.321c.617-3.958-3.924-.38-7.518-4.286m-31.783 13.343c-11.091 1.898-22.184 7.302-31.429 13.682c-7.177 5.781 6.34 11.179 11.396 12.035c10.277.015 19.444-6.608 25.942-14.13c2.26-2.987 4.999-8.788.524-11.163c-2.001-.848-4.324-.599-6.433-.424" clip-rule="evenodd"/><path fill="#FCCC44" fill-rule="evenodd" d="M90.667 87.453c-8.53 3.413-16.758 7.557-24.884 11.897c-1.51 5.615-.299 12.568-.69 18.725c-.03 25.316-.016 50.633-.02 75.949h18.82c3.8-3.578 8.56-6.197 12.688-9.446c15.894-11.399 31.783-22.842 47.656-34.209c1.168.525.42-6.871-2.142-1.734c-6.071 5.713-14.129 10.412-22.658 9.953c-4.84-1.592-12.642-4.293-12.691-10.224c3.407-4.011-6.286 2.1-8.938 2.975c-8.622 4.14-17.04 8.763-25.68 12.826c2.076-2.23 5.96-4.309 8.714-6.521c19.673-14.122 39.341-28.299 59.061-42.41c3.793-2.663 7.457-5.568 11.367-8.057c.357 1.379 1.027-6.593-1.881-1.685c-5.928 5.876-13.924 10.25-22.357 10.31c-4.743-1.44-14.845-4.883-12.596-11.007c1.097-2.149-10.188 4.581-5.202.786c5.307-3.878 10.656-7.687 16.004-11.525c2.701-.203 2.126-10.236-1.544-3.764c-6.165 5.417-14.265 10.373-22.756 9.198c-4.77-1.373-10.493-4.032-12.227-9.02c-.574-1.198 3.212-3.065 1.956-3.017m35.339 6.193c-.473 1.353.857-.494 0 0" clip-rule="evenodd"/><path fill="#62777F" fill-rule="evenodd" d="M179.899 80.75c-2.663 12.716-5.574 26.025-8.077 38.657c7.192 9.064 7.889-5.726 9.147-9.908c2.033-8.741 4.441-15.341 4.696-24.391c.54-3.089-3.09-4.96-5.766-4.359m8.251 9.972c-.225 1.303.328.245 0 0m-8.39 28.514c.346.745.346-.746 0 0" clip-rule="evenodd"/><path fill="#4E5E67" fill-rule="evenodd" d="M184.616 82.19c2.244 12.602-5.189 27.912-7.62 39.794c5.52-4.062 9.785-22.492 10.875-29.706c.281-.825.627-2.901.702-2.976c.347-1.751 3.58-4.718 3.757-6.627c1.882-1.328-9.25-1.542-7.714-.486m-4.577 37.046c-.347.745-.347-.746 0 0" clip-rule="evenodd"/><path fill="#DC9624" fill-rule="evenodd" d="M90.854 87.663c-3.112 3.116-1.944 2.355.372-.236zm33.66 1.543c-3.605 5.417-16.605 9.947-18.242 10.298c7.82-1.465 15.109-6.33 20.238-12.028c-.815.363-1.299 1.216-1.996 1.73m-35.798 1.759c1.943 4.672 9.008 7.776 12.441 8.5c-4.687-1.51-10.204-4.188-12.441-8.5m37.01 2.702c-.981 1.158-4.475 2.89-6.317 4.59c-3.951 2.914-8.038 5.622-11.944 8.609c2.487-.107 9.775-5.551 6.039-.027c3.166 5.449 10.059 9.238 16.344 8.892c8.3-1.303 15.954-5.892 21.456-12.274c-6.679 6.609-15.509 12.829-25.28 11.972c-4.729-1.092-17.651-7.767-9.007-12.446c3.048-2.507 8.303-3.82 8.898-8.226c-.125-.55.9-1.087-.189-1.09m-23.659 6.123c3.145.411 3.145-.41 0 0m49.003 7.525c-12.479 8.694-24.777 17.728-37.148 26.578c-14.02 10.034-27.98 20.105-41.996 30.131c5.27-1.777 10.55-5.247 15.785-7.644c7.21-3.814 14.812-6.827 21.558-11.46c13.338-7.852 27.444-15.333 37.703-27.346c2.239-2.626 4.484-6.853 4.584-9.696c-.323.091-.078-1.137-.486-.563m-42.46 39.117c-2.245 2.537-3.157 4.35-.827 1.124c-.041.374 1.891-2.003.827-1.124m34.156 1.214c-5.914 6.236-14.661 10.734-22.868 11.037c9.488.069 18.048-5.563 24.476-12.207c-.422-.51-1.277 1.188-1.608 1.17m1.807 1.96c-19.869 14.464-40.424 29.467-60.36 43.879c3.14.985 9.979 1.447 13.1-2.574c6.64-4.582 14.105-7.951 20.767-12.595c9.647-6.26 19.976-13.102 25.455-23.623c.261-1.411 2.2-3.949 1.038-5.087m-37.813.918c.922 3.892 12.448 8.359 11.198 7.504c-4.25-1.49-8.466-3.812-11.198-7.504" clip-rule="evenodd"/><defs><linearGradient id="skillIconsStyledcomponents0" x1="0" x2="256" y1="256" y2="0" gradientUnits="userSpaceOnUse"><stop stop-color="#DB7093"/><stop offset="1" stop-color="#F3B661"/></linearGradient></defs></g></svg>