<svg xmlns="http://www.w3.org/2000/svg" xmlns:xlink="http://www.w3.org/1999/xlink" width="256" height="256" viewBox="0 0 256 256"><g fill="none"><rect width="256" height="256" fill="#F4F2ED" rx="60"/><path fill="url(#skillIconsTailwindcssLight0)" fill-rule="evenodd" d="M83 110c6-24 21.001-36 45-36c36 0 40.5 27 58.5 31.5c12.001 3.001 22.5-1.499 31.5-13.5c-5.999 23.999-21.001 36-45 36c-36 0-40.5-27-58.5-31.5C102.499 93.5 92 98 83 110Zm-45 54c6-23.999 21-36 45-36c36 0 40.5 27 58.5 31.5c12.001 3.001 22.5-1.499 31.5-13.5c-5.999 23.999-21.001 36-45 36c-36 0-40.5-27-58.5-31.5c-12-3.001-22.5 1.499-31.5 13.5Z" clip-rule="evenodd"/><defs><linearGradient id="skillIconsTailwindcssLight0" x1="86.5" x2="163.5" y1="74" y2="185.5" gradientUnits="userSpaceOnUse"><stop stop-color="#32B1C1"/><stop offset="1" stop-color="#14C6B7"/></linearGradient></defs></g></svg>