<svg xmlns="http://www.w3.org/2000/svg" xmlns:xlink="http://www.w3.org/1999/xlink" width="256" height="256" viewBox="0 0 256 256"><g fill="none"><rect width="256" height="256" fill="#fff" rx="60"/><rect width="256" height="256" fill="#1D9BF0" rx="60"/><path fill="#fff" d="M199.572 91.411c.11 1.587.11 3.174.11 4.776c0 48.797-37.148 105.075-105.075 105.075v-.03A104.54 104.54 0 0 1 38 184.677q4.379.525 8.79.533a74.15 74.15 0 0 0 45.865-15.839a36.98 36.98 0 0 1-34.501-25.645a36.8 36.8 0 0 0 16.672-.636c-17.228-3.481-29.623-18.618-29.623-36.198v-.468a36.7 36.7 0 0 0 16.76 4.622c-16.226-10.845-21.228-32.432-11.43-49.31a104.8 104.8 0 0 0 76.111 38.582a36.95 36.95 0 0 1 10.683-35.283c14.874-13.982 38.267-13.265 52.249 1.601a74.1 74.1 0 0 0 23.451-8.965a37.06 37.06 0 0 1-16.234 20.424A73.5 73.5 0 0 0 218 72.282a75 75 0 0 1-18.428 19.13"/></g></svg>