<svg xmlns="http://www.w3.org/2000/svg" xmlns:xlink="http://www.w3.org/1999/xlink" width="512" height="512" viewBox="0 0 512 512"><defs><mask id="circleFlagsIt550" width="512" height="512" x="0" y="0" maskUnits="userSpaceOnUse"><circle cx="256" cy="256" r="256" fill="#fff"/></mask></defs><g mask="url(#circleFlagsIt550)"><path fill="#6da544" d="M0 0h512v512H0z"/><path fill="#eee" d="M152 72h208v384H152z"/><path fill="#d80027" d="M232 136h16l-16 16v96l16 16h-16v48h16l-16 16v96l16 16h16l16-16v-96l-16-16h16v-48h-16l16-16v-96l-16-16h16V88h-48zm112-48h-48v48h16l-16 16v96l16 16h-16v48h16l-16 16v96l16 16h16l16-16v-96l-16-16h16v-48h-16l16-16v-96l-16-16h16zm-176 48h16l-16 16v96l16 16h-16v48h16l-16 16v96l16 16h16l16-16v-96l-16-16h16v-48h-16l16-16v-96l-16-16h16V88h-48z"/></g></svg>