<svg xmlns="http://www.w3.org/2000/svg" xmlns:xlink="http://www.w3.org/1999/xlink" width="512" height="512" viewBox="0 0 512 512"><mask id="circleFlagsLangKy0"><circle cx="256" cy="256" r="256" fill="#fff"/></mask><g mask="url(#circleFlagsLangKy0)"><path fill="#d80027" d="M0 0h512v512H0z"/><path fill="#ffda44" d="M381.2 256L330 280l27.3 49.6l-55.6-10.6l-7 56.1l-38.7-41.3l-38.7 41.3l-7-56.1l-55.6 10.6l27.3-49.5l-51.2-24.1l51.2-24l-27.3-49.6l55.6 10.6l7-56.1l38.7 41.3l38.7-41.3l7 56.1l55.6-10.6l-27.3 49.5z"/><circle cx="256" cy="256" r="77.9" fill="#d80027"/><path fill="#ffda44" d="M217 256c-1.8 0-3.7.1-5.5.3a44.3 44.3 0 0 0 10.4 28.3a78 78 0 0 1 15-24.9A55.4 55.4 0 0 0 217 256m24 42a44.4 44.4 0 0 0 30 0c-2.6-10-7.8-19-15-26c-7.2 7-12.4 16-15 26m53.6-64.3a44.5 44.5 0 0 0-77.2 0a77.4 77.4 0 0 1 38.6 10.5a77.4 77.4 0 0 1 38.6-10.5m-19.6 26a78 78 0 0 1 15.1 25a44.3 44.3 0 0 0 10.4-28.4a56 56 0 0 0-5.5-.3a55.3 55.3 0 0 0-20 3.7"/></g></svg>