<svg xmlns="http://www.w3.org/2000/svg" xmlns:xlink="http://www.w3.org/1999/xlink" width="512" height="512" viewBox="0 0 512 512"><mask id="circleFlagsLangKk0"><circle cx="256" cy="256" r="256" fill="#fff"/></mask><g mask="url(#circleFlagsLangKk0)"><path fill="#338af3" d="M0 0h512v512H0z"/><path fill="#ffda44" d="M400.7 258.8H111.3c0 20 17.4 36.2 37.4 36.2h-1.2c0 20 16.2 36.1 36.2 36.1c0 20 16.1 36.2 36.1 36.2h72.4c20 0 36.1-16.2 36.1-36.2c20 0 36.2-16.2 36.2-36.1h-1.2c20 0 37.4-16.2 37.4-36.2"/><path fill="#338af3" d="M356.2 211.5a100.2 100.2 0 0 1-200.4 0"/><path fill="#ffda44" d="m332.5 211.5l-31.3 14.7l16.7 30.3l-34-6.5l-4.3 34.3L256 259l-23.6 25.3L228 250l-34 6.5l16.6-30.3l-31.2-14.7l31.2-14.7l-16.6-30.3l34 6.5l4.3-34.3l23.6 25.2l23.6-25.2L284 173l34-6.5l-16.6 30.3z"/></g></svg>