<svg xmlns="http://www.w3.org/2000/svg" xmlns:xlink="http://www.w3.org/1999/xlink" width="512" height="512" viewBox="0 0 512 512"><mask id="circleFlagsMr0"><circle cx="256" cy="256" r="256" fill="#fff"/></mask><g mask="url(#circleFlagsMr0)"><path fill="#496e2d" d="M0 0h512v512H0z"/><g fill="#ffda44"><path d="M256 295.8a89 89 0 0 1-87-70a89.4 89.4 0 0 0-2 19a89 89 0 1 0 178 0a89.4 89.4 0 0 0-2-19a89 89 0 0 1-87 70"/><path d="m256 178l8.3 25.6H291l-21.7 15.8l8.3 25.5L256 229l-21.7 15.8l8.3-25.5l-21.7-15.8h26.8z"/></g></g></svg>