<svg xmlns="http://www.w3.org/2000/svg" xmlns:xlink="http://www.w3.org/1999/xlink" width="512" height="512" viewBox="0 0 512 512"><mask id="circleFlagsPy0"><circle cx="256" cy="256" r="256" fill="#fff"/></mask><g mask="url(#circleFlagsPy0)"><path fill="#eee" d="m0 144.7l255.3-36.5L512 144.7v222.6L250.5 407L0 367.3z"/><path fill="#d80027" d="M0 0h512v144.7H0z"/><path fill="#0052b4" d="M0 367.3h512V512H0z"/><path fill="#6da544" d="m319 182l-23.6 23.5a55.5 55.5 0 0 1-39.4 95a55.7 55.7 0 0 1-39.3-95L193 182a89 89 0 1 0 126 0"/><path fill="#ffda44" d="m256 211.5l8.3 25.5H291l-21.7 15.8l8.3 25.5l-21.7-15.8l-21.7 15.8l8.3-25.5l-21.7-15.8h26.8z"/></g></svg>