<svg xmlns="http://www.w3.org/2000/svg" xmlns:xlink="http://www.w3.org/1999/xlink" width="512" height="512" viewBox="0 0 512 512"><mask id="circleFlagsUsCa0"><circle cx="256" cy="256" r="256" fill="#fff"/></mask><g mask="url(#circleFlagsUsCa0)"><path fill="#eee" d="M0 0h512v416l-256 32L0 416Z"/><path fill="#6da544" d="m396 280l-67-8l-34 3l-24-2l-54-2l-93 13l-8 12h299z"/><path fill="#584528" d="m389 273l-10-33l-9-44l-23-23l-32-13l-50 3l-41-8l-50 24l-29 9l-9 20l-7 15l11 19l10 2l16-1l6-7l28-8l-12 31l-11 14l-19 9l13 3l15 1l19-12l26-24l11 3l14 13l-16 12l16 1l10-3l9-16l-4-19l11 1l10 3l1 23l-14 8l1 6h26l34-30l15 12l12 4l-6 8l1 5h17l10-7zM84 340h178v32H84z"/><path fill="#d80027" d="M0 416h512v96H0Z"/><path fill="#584528" d="M288 340h140v32H288z"/><path fill="#d80027" d="m71 182l69-50H55l69 50l-26-81z"/></g></svg>