<svg xmlns="http://www.w3.org/2000/svg" xmlns:xlink="http://www.w3.org/1999/xlink" width="32" height="32" viewBox="0 0 32 32"><path fill="#a51e22" d="m11.829 17.081l-.789 1.036a.45.45 0 0 1 0-.287a18.8 18.8 0 0 1 2.36-6.173a24.8 24.8 0 0 1 3.7-4.843a18 18 0 0 1 1.714-1.551a15.4 15.4 0 0 1 6.235-3a13 13 0 0 1 3.351-.246c.193.008.385.042.6.066l-.2.837c-.221.739-.454 1.474-.656 2.218a.47.47 0 0 1-.469.4q-.968.095-1.931.217a2.5 2.5 0 0 0-.813.162l2.84.306l-.046.247a2.5 2.5 0 0 0-.209.59a1.8 1.8 0 0 0-.185.45a25 25 0 0 1-2.872 5.664a17.5 17.5 0 0 1-2.325 2.681a.75.75 0 0 1-.906.182a5 5 0 0 0-.555-.178a18.3 18.3 0 0 0-4.446-.658c-.2-.007-.394 0-.591 0c1.169.333 2.305.739 3.434 1.164l.117.042l1.391.642c-.208.189-.458.261-.65.42c-.068.033-.137.063-.2.1a14.4 14.4 0 0 1-5.812 1.775a28 28 0 0 1-1.78.1c-.154.006-.313.007-.4.154c-.2.33-.4.666-.617 1.038h1.068c.4.006.8.009 1.192.02c.419.011.524.122.537.551c0 .118.013.237.019.355c-.006.087-.018.173-.019.26c-.007.629-.048.678-.682.712c-.135.007-.194.043-.189.188c.008.273 0 .546 0 .819c0 .517 0 .517.512.461c.388.043.776.009 1.164.019h.292a1.15 1.15 0 0 1 1.226 1.058a.5.5 0 0 0 .039.089c.008.141.009.284.026.424c.136 1.126.278 2.252.413 3.379a.88.88 0 0 1-.79 1.011a3 3 0 0 1-.389.013Q9.962 30 4.4 30a5 5 0 0 1-.841-.053a.9.9 0 0 1-.549-1c.059-.574.135-1.146.2-1.72c.082-.692.151-1.386.251-2.075a1.12 1.12 0 0 1 1.2-1.113c.528-.03 1.058-.011 1.587-.013h.259c.114 0 .151-.056.146-.162c-.007-.152-.009-.305-.014-.457s.013-.32.014-.481c0-.4 0-.4-.391-.37c-.424-.112-.462-.158-.469-.6c0-.284-.007-.568 0-.851s.125-.417.415-.436c.237-.015.476-.01.713-.01c.941 0 1.882-.005 2.822.012a.6.6 0 0 0 .6-.328c.343-.581.718-1.142 1.079-1.712a1 1 0 0 0 .162-.279a1.2 1.2 0 0 0 .234-.31A58.4 58.4 0 0 1 21.162 7.4c.672-.6 1.379-1.157 2.068-1.738a1.7 1.7 0 0 0 .428-.357a1.6 1.6 0 0 0-.492.311c-.092.056-.186.108-.275.168a32 32 0 0 0-2.755 2.133a52.6 52.6 0 0 0-6.553 6.853c-.594.736-1.186 1.474-1.718 2.258l-.033.053Z"/><path fill="#fff" d="M12.385 21.565a2 2 0 0 0 .02-.488c0-.041-.012-.106-.038-.117a.68.68 0 0 0-.442-.016c-.116.027-.056.148-.059.227c0 .131.008.262.012.392s-.013.283-.013.424c0 .269 0 .269.268.269s.269 0 .27-.269a1.3 1.3 0 0 0-.018-.422m-1.163 3.748a.7.7 0 0 0 .092-.465a.813.813 0 0 0-1.023-.876a2.2 2.2 0 0 0-1.139.765a10 10 0 0 0-.662.928a3.06 3.06 0 0 0-.463 1.743a.55.55 0 0 0 .3.572c.021-.132.044-.249.058-.368a8.5 8.5 0 0 1 .848-2.7a.89.89 0 0 1 .6-.5c.1-.029.21-.052.315-.075a.562.562 0 0 1 .748.5l-.076.393a2.2 2.2 0 0 1-.929.914c-.143.073-.29.138-.435.207l-.665.147a1.46 1.46 0 0 0 .389.59a2.16 2.16 0 0 0 .908.716a1.24 1.24 0 0 0 .98.031a.58.58 0 0 0 .383-.333a2.6 2.6 0 0 1-1.241-.1a4 4 0 0 1-.887-.534c-.052-.117-.2-.16-.238-.3c.118-.049.254-.019.362-.087a2.46 2.46 0 0 0 1.564-.776a.67.67 0 0 0 .211-.392"/></svg>