<svg xmlns="http://www.w3.org/2000/svg" xmlns:xlink="http://www.w3.org/1999/xlink" width="32" height="32" viewBox="0 0 32 32"><rect width="28" height="28" x="2" y="2" fill="#007055" rx="1.312"/><path fill="#fff" fill-rule="evenodd" d="M18.245 23.759v3.068a6.5 6.5 0 0 0 1.764.575a11.6 11.6 0 0 0 2.146.192a10 10 0 0 0 2.088-.211a5.1 5.1 0 0 0 1.735-.7a3.54 3.54 0 0 0 1.181-1.266a4.47 4.47 0 0 0 .186-3.394a3.4 3.4 0 0 0-.717-1.117a5.2 5.2 0 0 0-1.123-.877a12 12 0 0 0-1.477-.734q-.6-.249-1.08-.484a5.5 5.5 0 0 1-.813-.479a2.1 2.1 0 0 1-.516-.518a1.1 1.1 0 0 1-.181-.618a1.04 1.04 0 0 1 .162-.571a1.4 1.4 0 0 1 .459-.436a2.4 2.4 0 0 1 .726-.283a4.2 4.2 0 0 1 .956-.1a6 6 0 0 1 .808.058a6 6 0 0 1 .856.177a6 6 0 0 1 .836.3a4.7 4.7 0 0 1 .751.422V13.9a7.5 7.5 0 0 0-1.525-.4a12.4 12.4 0 0 0-1.9-.129a8.8 8.8 0 0 0-2.064.235a5.2 5.2 0 0 0-1.716.733a3.66 3.66 0 0 0-1.171 1.271a3.73 3.73 0 0 0-.431 1.845a3.6 3.6 0 0 0 .789 2.34a6 6 0 0 0 2.395 1.639q.63.26 1.175.509a6.5 6.5 0 0 1 .942.517a2.5 2.5 0 0 1 .626.585a1.2 1.2 0 0 1 .23.719a1.1 1.1 0 0 1-.144.552a1.3 1.3 0 0 1-.435.441a2.4 2.4 0 0 1-.726.292a4.4 4.4 0 0 1-1.018.105a5.8 5.8 0 0 1-1.969-.35a5.9 5.9 0 0 1-1.805-1.045m-5.154-7.638h4v-2.527H5.938v2.527H9.92v11.254h3.171Z"/></svg>