<svg xmlns="http://www.w3.org/2000/svg" xmlns:xlink="http://www.w3.org/1999/xlink" width="32" height="32" viewBox="0 0 32 32"><path fill="#ffc525" d="M15.62 2.83h.023c.206.113.416.218.626.323c.011 1.142 0 2.285.005 3.428v17.71c-.213.053-.427.1-.639.151c-.01-2.028 0-4.056-.006-6.084a38.321 38.321 0 0 1-4.88 4a40.761 40.761 0 0 1-6.042 3.459A28.663 28.663 0 0 1 2 26.92v-.032a29.479 29.479 0 0 0 2.72-2.552a35.528 35.528 0 0 0 3.954-5.108a59.927 59.927 0 0 0 3.148-5.6a49.117 49.117 0 0 0 2.858-6.987a26.7 26.7 0 0 0 .94-3.811Z"/><path fill="#5090cd" d="M16.274 17.7a31.642 31.642 0 0 0 6.772-10.265q.293.191.583.386a3.874 3.874 0 0 1 .008.4v17.891c-.193.063-.389.119-.585.172v-8.4a19.537 19.537 0 0 1-2.588 2.048a27.688 27.688 0 0 1-4.188 2.23c-.002-1.49-.005-2.976-.002-4.462Z"/><path fill="#73c267" d="M26.329 14.989a37.484 37.484 0 0 0 3.167-3.2c.165.088.338.16.5.248v16.93c-.172.055-.341.119-.514.173a44.222 44.222 0 0 0-4.8-1.345a42.238 42.238 0 0 0-16.13-.395a34 34 0 0 0-6.381 1.7l.007-.032a33.507 33.507 0 0 1 12.571-3.389c.081-.008.163-.006.245-.012a35.1 35.1 0 0 1 3.7.018c.615.03 1.227.1 1.839.156a18.726 18.726 0 0 1 2.519.442c.2-.053.392-.109.585-.172v-8.723c.913-.788 1.803-1.588 2.692-2.399Z"/><path fill="#00477f" d="M20.46 19.928a19.537 19.537 0 0 0 2.588-2.048c.006 2.8 0 5.6 0 8.4a18.726 18.726 0 0 0-2.519-.442a.415.415 0 0 0-.193-.04c-.885-.1-1.776-.161-2.667-.187c-.714-.006-1.429-.016-2.143.022a5.071 5.071 0 0 0-.535.032c-.082.006-.164 0-.245.012a33.507 33.507 0 0 0-12.568 3.391l-.007.032c-.064 0-.112.051-.171.07a9.855 9.855 0 0 1 .886-.612A26.865 26.865 0 0 1 8.9 25.837a33.472 33.472 0 0 1 5.632-1.257c.366-.054.736-.086 1.1-.138c.212-.054.426-.1.639-.151v-2.133a27.688 27.688 0 0 0 4.189-2.23Z"/><path fill="#f47835" d="M10.747 22.358a38.321 38.321 0 0 0 4.88-4c.008 2.028 0 4.056.006 6.084c-.365.052-.735.084-1.1.138A33.472 33.472 0 0 0 8.9 25.837a26.865 26.865 0 0 0-6.014 2.717a9.855 9.855 0 0 0-.886.612V26.92a28.663 28.663 0 0 0 2.705-1.1a40.761 40.761 0 0 0 6.042-3.462Z"/></svg>