<svg xmlns="http://www.w3.org/2000/svg" xmlns:xlink="http://www.w3.org/1999/xlink" width="200" height="200" viewBox="0 0 200 200"><g fill="#44D860"><circle cx="183" cy="113" r="10"/><circle cx="188" cy="104.3" r="2.4"/><circle cx="191.7" cy="108" r="2.4"/><circle cx="193" cy="113" r="2.4"/><circle cx="191.7" cy="118" r="2.4"/><circle cx="188" cy="121.7" r="2.4"/><circle cx="173" cy="163" r="20"/><circle cx="183" cy="145.7" r="5"/><circle cx="190.3" cy="153" r="5"/><circle cx="193" cy="163" r="5"/></g><path fill="#FFF" d="M99 52h84v34H99z"/><g fill="#3ECC5F"><path d="M23 163c-7.4 0-14-4-17.3-10A20 20 0 0 0 3 163c0 11 9 20 20 20h20v-20zm120 20h30v-40h-30z"/><path d="m113 57.4l70-4.4V43c0-11-9-20-20-20H73c-4-8-6-8-10 0c-4-8-6-8-10 0c-4-8-6-8-10 0c-6-9-9-5-10.3 2.3c-8-3-11-3-7.3 7.3c-8 2-10 4-2.4 10.4c-8 4-8 6 0 10c-8 4-8 6 0 10c-8 4-8 6 0 10c-8 4-8 6 0 10c-8 4-8 6 0 10c-8 4-8 6 0 10c-8 4-8 6 0 10c-8 4-8 6 0 10c-8 4-8 6 0 10c-8 4-8 6 0 10c-8 4-8 6 0 10c-8 4-8 6 0 10c0 11 9 20 20 20h120c11 0 20-9 20-20V83l-70-4.3A10.6 10.6 0 0 1 103 68c0-5.6 4.4-10.3 10-10.6"/></g><path fill="#FFFF50" d="M103 183h60c11 0 20-9 20-20V93h-60c-11 0-20 9-20 20z"/><g fill="none" stroke="#000" stroke-linecap="round" stroke-width="2"><path stroke-width="5" d="M63 53a1 1 0 1 0-20 0"/><path stroke-linecap="butt" d="M183 62.6c-5 0-5 10-10 10.7c-5 0-5-10-10-10s-5 9-10 9s-5-8.5-10-8.5s-5 8-10 8s-5-7.25-10-7.25s-5 6.5-10 6.5"/><path d="M168 113h-50m50 10h-50m50 10h-50m50 10h-50m50 10h-50m50 10h-50"/></g><circle cx="143" cy="39.3" r="2.5"/><circle cx="163" cy="38" r="2.5"/><circle cx="113" cy="71" r="1"/><path fill="#3ECC5F" d="M83 123h40v-20H83zm0 60h40v-40H83z"/><g fill="#44D860"><circle cx="123" cy="113" r="10"/><circle cx="128" cy="104.3" r="2.4"/><circle cx="131.7" cy="108" r="2.4"/><circle cx="133" cy="113" r="2.4"/><circle cx="131.7" cy="118" r="2.4"/><circle cx="128" cy="121.7" r="2.4"/><circle cx="123" cy="163" r="20"/><circle cx="113" cy="145.7" r="5"/><circle cx="123" cy="143" r="5"/><circle cx="133" cy="145.7" r="5"/><circle cx="140.3" cy="153" r="5"/><circle cx="143" cy="163" r="5"/></g></svg>