<svg xmlns="http://www.w3.org/2000/svg" xmlns:xlink="http://www.w3.org/1999/xlink" width="32" height="32" viewBox="0 0 32 32"><path d="M30 25.583h-4.243V15.378a8.271 8.271 0 0 0-.832-4.261A3.061 3.061 0 0 0 22.118 9.8a3.383 3.383 0 0 0-2.826 1.664a6.791 6.791 0 0 0-1.161 3.987v10.132h-4.262V15.031q0-5.231-3.694-5.231a3.332 3.332 0 0 0-2.826 1.573a6.935 6.935 0 0 0-1.106 4.078v10.132H2V6.856h4.243v2.962h.073a6.488 6.488 0 0 1 5.907-3.4a5.569 5.569 0 0 1 3.393 1.07a5.328 5.328 0 0 1 1.984 2.806a6.683 6.683 0 0 1 6.218-3.877Q30 6.417 30 14.043Z"/></svg>