<svg xmlns="http://www.w3.org/2000/svg" xmlns:xlink="http://www.w3.org/1999/xlink" width="32" height="32" viewBox="0 0 32 32"><path fill="#0088b6" d="M12.786 23.5H9.852l-.842-3.158H5.676l-.8 3.158H2L6.053 8.49h2.566Zm-6.231-6.609H8.1l-.78-3.024Zm10.187 6.858a3.706 3.706 0 0 1-3.05-1.349a7.1 7.1 0 0 1-1.3-3.909l-.046-.566l2.622-.368l.062.5a3.409 3.409 0 0 0 .565 1.693a1.425 1.425 0 0 0 1.169.515a1.454 1.454 0 0 0 1.179-.448a1.36 1.36 0 0 0 .338-.911a.919.919 0 0 0-.11-.478a1.251 1.251 0 0 0-.537-.438c-.147-.074-.534-.238-1.524-.592a5.006 5.006 0 0 1-2.355-1.5a5.121 5.121 0 0 1-1.016-3.216a5.536 5.536 0 0 1 .481-2.3a3.553 3.553 0 0 1 1.368-1.6a3.834 3.834 0 0 1 2.042-.527a3.6 3.6 0 0 1 2.97 1.277A5.645 5.645 0 0 1 20.7 13l.014.552l-2.651.168l-.063-.482a2.26 2.26 0 0 0-.395-1.2a1.274 1.274 0 0 0-1-.353a1.47 1.47 0 0 0-1.11.4a.535.535 0 0 0-.15.409a.612.612 0 0 0 .152.415a3.877 3.877 0 0 0 1.634.817a7.9 7.9 0 0 1 2.188 1.048a3.917 3.917 0 0 1 1.211 1.61a6.386 6.386 0 0 1 .443 2.517a6.254 6.254 0 0 1-.521 2.542A3.757 3.757 0 0 1 18.98 23.2a4.286 4.286 0 0 1-2.238.549Zm7.818-.249h-2.7V8.49h3.5a7.985 7.985 0 0 1 2.41.227a3.122 3.122 0 0 1 1.587 1.555a6.479 6.479 0 0 1 .643 3.05a7.047 7.047 0 0 1-.368 2.419a4.29 4.29 0 0 1-.942 1.559a2.854 2.854 0 0 1-1.142.743a7.929 7.929 0 0 1-2.1.211h-.892Zm0-8.717h.688a3.214 3.214 0 0 0 1.4-.182a1.038 1.038 0 0 0 .434-.482a1.752 1.752 0 0 0 .152-.762a1.616 1.616 0 0 0-.209-.875a.946.946 0 0 0-.571-.446a6.032 6.032 0 0 0-1.335-.086h-.563Z"/></svg>