<svg xmlns="http://www.w3.org/2000/svg" xmlns:xlink="http://www.w3.org/1999/xlink" width="32" height="32" viewBox="0 0 32 32"><path fill="#90a93a" d="M2 17.672v-3.344l11.86-6.2V11.2L5.1 15.939l8.762 4.835v3.1Zm27.814-8.88L19.465 23.229h-3.553L26.281 8.791ZM26.947 21.5a.8.8 0 0 0 .619-.278a1.06 1.06 0 0 0 .248-.732a1.14 1.14 0 0 0-.248-.753a.768.768 0 0 0-1.217 0a1.14 1.14 0 0 0-.248.753a1.1 1.1 0 0 0 .237.732a.76.76 0 0 0 .609.278m2.186 1.042a3.237 3.237 0 0 1-4.352-.01a2.864 2.864 0 0 1 0-4.1a3.223 3.223 0 0 1 4.352 0A2.77 2.77 0 0 1 30 20.486a2.74 2.74 0 0 1-.866 2.052Zm-10.312-9.481a.8.8 0 0 0 .619-.278a1.06 1.06 0 0 0 .248-.732a1.14 1.14 0 0 0-.248-.753a.77.77 0 0 0-1.217 0a1.14 1.14 0 0 0-.248.753a1.1 1.1 0 0 0 .237.732a.76.76 0 0 0 .609.278m2.186 1.039a3.237 3.237 0 0 1-4.352-.01a2.864 2.864 0 0 1 0-4.1a3.223 3.223 0 0 1 4.352 0a2.77 2.77 0 0 1 .866 2.063a2.74 2.74 0 0 1-.866 2.047"/></svg>