<svg xmlns="http://www.w3.org/2000/svg" xmlns:xlink="http://www.w3.org/1999/xlink" width="32" height="32" viewBox="0 0 32 32"><path fill="#5e9cff" d="m18.053 12.267l4.76 7.467l.373.56l1.12-.653l-.373-.56l-4.76-7.467l-.373-.654l-1.12.653l.373.653Zm-5.227-.747l-4.76 7.467l-.373.56l1.12.653l.373-.467l4.76-7.467l.373-.56l-1.119-.746l-.373.56Z"/><path fill="#5e9cff" d="M16 13.107a4.979 4.979 0 0 0 4.947-4.947A5.061 5.061 0 0 0 16 3.12a4.979 4.979 0 0 0-4.947 4.947A5.061 5.061 0 0 0 16 13.107Zm0-1.307a3.644 3.644 0 0 1-3.64-3.64a3.64 3.64 0 1 1 7.28 0A3.644 3.644 0 0 1 16 11.8Zm9.053 17.08a4.947 4.947 0 1 0-4.947-4.947a4.979 4.979 0 0 0 4.947 4.947Zm0-1.307a3.644 3.644 0 0 1-3.64-3.64a3.64 3.64 0 1 1 7.28 0a3.644 3.644 0 0 1-3.64 3.64ZM6.947 28.88a4.947 4.947 0 1 0 0-9.893a4.947 4.947 0 1 0 0 9.893Zm0-1.307a3.644 3.644 0 0 1-3.64-3.64a3.706 3.706 0 0 1 3.64-3.64a3.706 3.706 0 0 1 3.64 3.64a3.644 3.644 0 0 1-3.64 3.64Z"/><circle cx="6.947" cy="23.933" r="1.68" fill="#fff"/></svg>