<svg xmlns="http://www.w3.org/2000/svg" xmlns:xlink="http://www.w3.org/1999/xlink" width="32" height="32" viewBox="0 0 32 32"><path fill="#6965db" d="M29.937 25.078a.19.19 0 0 0-.185-.042c-1.464-2.162-3.325-4.213-5.128-6.193l-.297-.325a.17.17 0 0 0-.042-.105a.2.2 0 0 0-.118-.07l-.06-.063l-.042-.031c-.052-.112-.185-.196-.332-.122c-.551.283-1.047.688-1.536 1.062c-.654.5-1.293 1.02-1.894 1.579a6 6 0 0 0-.688.73c-.098.129-.024.251.095.303q-.64.63-1.286 1.307a.2.2 0 0 0-.056.154a.2.2 0 0 0 .077.143l.755.576s.003.01.01.014c1.08 1.065 2.973 2.543 4.978 4.108q.446.351.897.702q.204.247.392.49a.2.2 0 0 0 .279.038c.045.034.09.073.136.108a.2.2 0 0 0 .28-.035a.2.2 0 0 0 .038-.108c.014 0 .025.01.035.01a.2.2 0 0 0 .147-.063l3.556-3.884a.196.196 0 0 0-.014-.28zm-10.21-1.345q.037.047.073.088c.406.342.839.712 1.279 1.09l-1.789-1.366l-.181-.126a2 2 0 0 1-.108-.084l-.133-.112s.024-.024.035-.038l.122-.123c.6-.607 1.631-1.62 2.162-2.116c-.562.566-1.7 2.225-1.456 2.787zm6.123 4.824l-1.474-1.125a37 37 0 0 0-1.83-1.757c.796.615 1.477 1.135 1.579 1.226c.772.689.737.563 1.268 1.017l.639.464c-.063.056-.126.116-.185.172zm.37.283l-.027-.02l.17-.134l-.139.154zM2.843 6.031l.14.737c.24 1.292.464 2.456.89 3.34l.168.67c.066.255.16.573.248.64c.995.88 2.522 2.193 4.153 3.43a.2.2 0 0 0 .245-.004q.006.01.014.014a.2.2 0 0 0 .132.052a.2.2 0 0 0 .147-.066c2.089-2.323 3.643-4.234 4.75-5.834a.44.44 0 0 0 .102-.293c.07-.084.143-.168.21-.237a.195.195 0 0 0-.035-.3a.2.2 0 0 0-.06-.127a95 95 0 0 0-1.208-1.145a104 104 0 0 1-2.715-2.624L10 4.264a.2.2 0 0 0-.077-.05c-.388-.136-1.184-.272-2.186-.447c-1.475-.251-3.493-.6-5.31-1.142h-.014v-.003s-.007 0-.01.007h-.004l.014-.007s-.108.003-.13.014a.2.2 0 0 0-.065.052c-.018.021-.032.042-.165.07c-.132.028.028 0 .039 0h-.039v.01c.025.12.018.203.056.34c-.007.034.074.356.084.387l.64 2.536zm10.81 2.284l-.013.018l-.224-.248q.114.107.238.23zm-2.476 3.28l-.035.042l-.007-.007q.02-.017.045-.034zm-1.415-7.02c.123.122.608.576.72.688c-.507-.231-1.768-.818-2.354-1.006c.576.1 1.372.23 1.634.317zm-6.7-.968c.294.503.525 2.267.755 3.982c-.13-.552-.24-1.09-.346-1.607c-.181-.894-.349-1.694-.583-2.403q.075.006.171.017q-.002.006.007.01zm-.1-.423q-.122-.012-.217-.017q-.01-.021-.014-.042l.23.063zm-.776.157v-.007zm27.434-.412c.014-.08-.384-.433-.259-.44c.297-.014.3-.471 0-.458c-.394.021-.793.112-1.177.186q-1.036.195-2.068.422a85 85 0 0 0-4.576 1.087c-.475.129-.999.244-1.435.475c-.147.076-.14.234-.06.331a.3.3 0 0 1-.097.032q-.195.035-.388.066a.198.198 0 0 0-.136.3c-.81 1.084-1.733 2.25-2.732 3.476a351 351 0 0 0-3.046 3.543c-3.287 3.863-7.014 8.243-11.143 12.1a.2.2 0 0 0-.01.279a.2.2 0 0 0 .066.045l-.168.154a.18.18 0 0 0-.056.112l-.08.087a.2.2 0 0 0 .01.28a.2.2 0 0 0 .28-.01l.042-.046a.293.293 0 0 1 .426 0l.681.73l-.482-.402a.2.2 0 0 0-.28.024a.2.2 0 0 0 .025.28l5.177 4.342a.2.2 0 0 0 .269-.014l.126-.126a.2.2 0 0 0 .22-.042c7.017-7.049 12.669-12.376 19.142-17.137a.2.2 0 0 0 .08-.178a.2.2 0 0 0 .168-.136c1.194-3.654 1.425-6.889 1.495-8.478l.007-.024q.01-.027.014-.05l.017-.065a.95.95 0 0 0-.052-.751zM17.072 8.647q.471-.54.933-1.055C15.993 10.24 12.66 14.32 7.942 19.168c3.213-3.555 6.451-7.24 9.13-10.52zM5.702 27.094l-.01-.01l.07.014a.2.2 0 0 0-.06 0zm2.41 2.243l-.017-.014l.01-.01c.007 0 .01.006.014.006c0 .007-.007.01-.01.018zm2.92-2.519l.482-.503l.01.018c-.163.16-.328.325-.495.485zm.783-.772l.304-.356q.004-.006.014-.014a201 201 0 0 1 3.555-3.58l.025-.021l.95-.727a520 520 0 0 0-4.848 4.702zm7.562-19.519c-.65.846-1.362 1.942-1.966 2.82c-1.908 2.762-8.048 9.528-8.185 9.657c-.946.916-3.8 3.654-5.62 5.37a1 1 0 0 0-.119.122a.277.277 0 0 1 .01-.395c8.67-8.174 13.93-14.982 16.069-17.947c-.046.115-.084.24-.192.38zm5.767 2.48l-.003.007c0-.007-.007-.024.003-.007m-2.375 1.51c-.79-.458-1.16-1.143-.947-1.834l.067-.23q.041-.1.098-.2c.206-.342.52-.646.88-.824q.026-.01.052-.014a.3.3 0 0 1-.014-.15c.018-.109.088-.203.23-.203c.235 0 .961.216 1.237.454q.127.1.238.22c.105.122.258.321.335.465c.046.02.08.216.133.317q.073.242.063.49c0 .006 0 .006.003.01c-.01.024 0 .13-.014.14c-.035.251-.126.5-.262.716l-.038.056c0 .003-.007.007-.01.014a1.6 1.6 0 0 1-.378.394c-.44.311-.953.406-1.467.276a2 2 0 0 1-.2-.087zm5.683-.57c-.171.716-.38 1.464-.629 2.229c-.01.028-.01.055-.01.08a.2.2 0 0 0-.094.038a106 106 0 0 0-4.535 3.532a250 250 0 0 1 3.923-3.476a2.24 2.24 0 0 0 .737-1.306l.196-1.178l.01-.035c.088-.248.468-.14.409.116z"/></svg>