<svg xmlns="http://www.w3.org/2000/svg" xmlns:xlink="http://www.w3.org/1999/xlink" width="32" height="32" viewBox="0 0 32 32"><path fill="#fff" d="m16.51 2.383l12.989 4.363l-1.347 15.36l-11.447 7.465l-12.213-7.687l-.998-15.073z"/><path fill="#515151" d="M16.708 30L4.14 22.092L3.113 6.55L16.509 2l13.379 4.492l-1.388 15.82ZM4.842 21.675L16.7 29.141l11.1-7.243L29.112 7l-12.6-4.232L3.876 7.066Z"/><path fill="#1d79bf" d="M16.483 28.04V12.794l11.712-5.218l-1.048 13.784z"/><path fill="#383838" d="M16.483 28.04L5.921 21.497L4.798 7.565l11.685 5.229z"/><path fill="#fff" d="m7.589 11.228l.095 2.788L14.22 17.2l.021 2.571l-6.475-3.19l.287 6.492L5.5 21.5L4.621 7.4l11.863 5.4v2.7Z"/><path fill="#fff" d="M26.9 17.885a6.98 6.98 0 0 1-2.935 5.8l-7.49 4.888V12.8l7.4-3.3a1.546 1.546 0 0 1 2.17.544a4 4 0 0 1 .5 2.137a6.25 6.25 0 0 1-.793 3.117c.748.352 1.161 1.148 1.148 2.587m-2.259-4.727c0-.812-.35-1.213-.861-.954l-5.08 2.534l-.014 3.012l5.152-2.728a2.23 2.23 0 0 0 .8-1.864Zm.376 5.642c0-1-.423-1.442-1.146-1.038l-5.18 2.9v3.427l5.134-3.055a2.5 2.5 0 0 0 1.189-2.234Z"/><path fill="#383838" d="m15.263 10.936l8.711-1.481l4.221-1.879l-11.712-4.033L4.812 7.56l19.21.416L9.318 9.588l7.165 3.206l3.633-1.619z"/></svg>