<svg xmlns="http://www.w3.org/2000/svg" xmlns:xlink="http://www.w3.org/1999/xlink" width="32" height="32" viewBox="0 0 32 32"><path fill="#fbc02d" d="M4.014 14.976a2.5 2.5 0 0 0 1.567-.518a2.38 2.38 0 0 0 .805-1.358a15.3 15.3 0 0 0 .214-2.944q.012-2.085.075-2.747a5.2 5.2 0 0 1 .418-1.686a3 3 0 0 1 .755-1.018A3.05 3.05 0 0 1 9 4.125A6.8 6.8 0 0 1 10.544 4h.7v1.96h-.387a2.34 2.34 0 0 0-1.723.468a3.4 3.4 0 0 0-.425 2.092a36 36 0 0 1-.137 4.133a4.7 4.7 0 0 1-.768 2.06A4.6 4.6 0 0 1 6.1 16a3.8 3.8 0 0 1 1.992 1.754a8.9 8.9 0 0 1 .618 3.865q0 2.435.05 2.9a1.76 1.76 0 0 0 .504 1.181a2.64 2.64 0 0 0 1.592.337h.387V28h-.7a5.7 5.7 0 0 1-1.773-.2a2.97 2.97 0 0 1-1.324-.93a3.35 3.35 0 0 1-.681-1.63a24 24 0 0 1-.165-3.234a16.5 16.5 0 0 0-.214-3.106a2.4 2.4 0 0 0-.805-1.361a2.5 2.5 0 0 0-1.567-.524Zm23.972 2.035a2.5 2.5 0 0 0-1.567.524a2.4 2.4 0 0 0-.805 1.361a16.5 16.5 0 0 0-.212 3.109a24 24 0 0 1-.169 3.234a3.35 3.35 0 0 1-.681 1.63a2.97 2.97 0 0 1-1.324.93a5.7 5.7 0 0 1-1.773.2h-.7V26.04h.387a2.64 2.64 0 0 0 1.592-.337a1.76 1.76 0 0 0 .506-1.186q.05-.462.05-2.9a8.9 8.9 0 0 1 .618-3.865A3.8 3.8 0 0 1 25.9 16a4.6 4.6 0 0 1-1.7-1.286a4.7 4.7 0 0 1-.768-2.06a36 36 0 0 1-.137-4.133a3.4 3.4 0 0 0-.425-2.092a2.34 2.34 0 0 0-1.723-.468h-.387V4h.7a6.8 6.8 0 0 1 1.54.125a3.05 3.05 0 0 1 1.149.581a3 3 0 0 1 .755 1.018a5.2 5.2 0 0 1 .418 1.686q.062.662.075 2.747a15.3 15.3 0 0 0 .212 2.947a2.38 2.38 0 0 0 .805 1.355a2.5 2.5 0 0 0 1.567.518Z"/></svg>