<svg xmlns="http://www.w3.org/2000/svg" xmlns:xlink="http://www.w3.org/1999/xlink" width="32" height="32" viewBox="0 0 32 32"><path fill="#809cc9" d="M25.073 9.064H5.843v14.028h19.23z"/><path fill="#fff" d="m25.239 8.908l.3 1.173a72 72 0 0 0-7.267 1.4a38 38 0 0 0-5.526 1.763q-2.1.877-1.957 1.425q.12.483 1.757.437q.839-.015 2.731-.183t4.883-.486a65 65 0 0 1 7.568-.5q2.06.056 2.26.842q.269 1.065-3.906 2.854a76 76 0 0 1-10.8 3.443Q9.7 22.479 5.667 23.084l-.293-1.16a84 84 0 0 0 8.586-1.645a36.5 36.5 0 0 0 5.486-1.745q1.925-.847 1.778-1.428q-.127-.5-1.776-.515q-.844.009-2.327.119t-3.694.343q-3.424.367-5.687.556t-3.38.183q-2.14-.02-2.342-.824q-.274-1.085 3.615-2.744a75 75 0 0 1 10.65-3.372q4.65-1.174 8.956-1.944"/><path fill="#fff" d="M6.671 18.9a.18.18 0 0 1 .13.056a.18.18 0 0 1 .055.131a.18.18 0 0 1-.055.134a.19.19 0 0 1-.267 0a.2.2 0 0 1-.055-.134a.18.18 0 0 1 .055-.133a.2.2 0 0 1 .137-.054m0 1.208a.18.18 0 0 1 .13.057a.19.19 0 0 1 0 .266a.2.2 0 0 1-.133.054a.2.2 0 0 1-.074-.015a.2.2 0 0 1-.06-.04a.2.2 0 0 1-.041-.06a.2.2 0 0 1-.014-.074a.18.18 0 0 1 .055-.133a.2.2 0 0 1 .137-.055m.651-1.208a.18.18 0 0 1 .13.056a.18.18 0 0 1 .055.131a.18.18 0 0 1-.055.134a.19.19 0 0 1-.267 0a.2.2 0 0 1-.055-.134a.18.18 0 0 1 .055-.133a.2.2 0 0 1 .137-.054m0 1.208a.18.18 0 0 1 .13.057a.19.19 0 0 1 0 .266a.2.2 0 0 1-.133.054a.2.2 0 0 1-.074-.015a.2.2 0 0 1-.06-.04a.2.2 0 0 1-.04-.06a.2.2 0 0 1-.015-.07a.18.18 0 0 1 .055-.133a.2.2 0 0 1 .137-.059"/></svg>