<svg xmlns="http://www.w3.org/2000/svg" xmlns:xlink="http://www.w3.org/1999/xlink" width="32" height="32" viewBox="0 0 32 32"><path fill="#02303a" d="M28.477 7.021a4.436 4.436 0 0 0-6.169-.1a.413.413 0 0 0-.133.3a.427.427 0 0 0 .123.307l.56.559a.423.423 0 0 0 .553.039a2.517 2.517 0 0 1 1.522-.508a2.545 2.545 0 0 1 1.8 4.343C23.22 15.493 18.5 5.618 7.829 10.7a1.449 1.449 0 0 0-.7 1.924a1.129 1.129 0 0 0 .057.109L9.013 15.9a1.452 1.452 0 0 0 1.962.54l.046-.026l-.036.026l.812-.456a18.635 18.635 0 0 0 2.557-1.9a.443.443 0 0 1 .582-.019a.417.417 0 0 1 .06.587a.425.425 0 0 1-.06.06a19.372 19.372 0 0 1-2.674 2.017l-.029.016l-.811.453a2.263 2.263 0 0 1-1.122.294a2.324 2.324 0 0 1-2.015-1.162l-1.733-2.988c-3.323 2.348-5.341 6.871-4.258 12.594a.424.424 0 0 0 .417.343H4.68a.421.421 0 0 0 .434-.369a2.89 2.89 0 0 1 5.732 0a.421.421 0 0 0 .411.369h1.92a.425.425 0 0 0 .421-.369a2.887 2.887 0 0 1 5.729 0a.42.42 0 0 0 .417.369h1.9a.419.419 0 0 0 .42-.414c.046-2.677.767-5.752 2.826-7.291c7.11-5.329 5.236-9.897 3.587-11.553Zm-7.265 8.061l-1.358-.682a.854.854 0 1 1 1.358.685Z"/></svg>