<svg xmlns="http://www.w3.org/2000/svg" xmlns:xlink="http://www.w3.org/1999/xlink" width="32" height="32" viewBox="0 0 32 32"><path fill="#333" d="M7.453 22.855c0-.037.494-.849 1.1-1.805a6.9 6.9 0 0 0 .947-1.789a1.45 1.45 0 0 0-.6.111c-.764.266-.92.2-1.491-.67c-.617-.937-.639-1.034-.317-1.389c.21-.232.2-.286-.147-.631a1.4 1.4 0 0 1-.377-.516a17.7 17.7 0 0 0-3.647-1.5A4.2 4.2 0 0 1 2 14.267a21 21 0 0 1 2.378-.019l2.378.048l.232-.366c.981-1.547 2.463-2.945 3.122-2.945a1.33 1.33 0 0 1 .619.291c.331.26.376.422.435 1.545a5.8 5.8 0 0 0 .165 1.354c.055.055.228-.017.385-.159a.72.72 0 0 1 .71-.165a.57.57 0 0 0 .646-.17a24 24 0 0 0 1.455-2.332a9 9 0 0 1 .534-.913l.751-1.2c.213-.34.246-.3 1.524 1.842c1.32 2.212 2.03 3.028 2.385 2.741a3.15 3.15 0 0 1 1.914-.017c.207.111.338.109.453 0a.694.694 0 0 1 .953.069c.117.209.147.209.32 0a1.04 1.04 0 0 1 .692-.23c.389 0 .538.081.666.363l.165.363l2.558-.091a23 23 0 0 1 2.56-.022a24 24 0 0 1-2.321.934c-1.277.475-2.342.877-2.368.895a4.4 4.4 0 0 0 .128.923a2.837 2.837 0 0 1-1.565 3.561a1.3 1.3 0 0 0-.506.24a11 11 0 0 0 .66 1.094c.363.561.606 1.021.539 1.021c-.109 0-2.757-1.023-6.876-2.657a15 15 0 0 0-1.643-.586c-.171 0-1.649.56-5.984 2.268c-2.514.99-2.612 1.025-2.612.907Zm5.158-2.337c1.337-.52 2.664-1.027 2.947-1.128c.488-.174.651-.13 3.021.806c1.378.545 2.737 1.075 3.021 1.179s.868.329 1.3.5c.491.2.742.243.674.127c-.77-1.3-.793-1.324-1.327-1.224c-.644.121-1.043 0-1.249-.387c-.133-.249-.093-.371.24-.717c.495-.516.417-.991-.221-1.35a2 2 0 0 1-.686-.756l-.241-.506l-.517.351a1.87 1.87 0 0 1-2.059.059l-.477-.291l-.554.377a1.83 1.83 0 0 1-1.844.141c-.179-.079-.258-.048-.258.1c0 .117-.169.29-.375.384a1.4 1.4 0 0 1-1.633-.2L12 17.606l-.3.383a4 4 0 0 1-.853.731a5.9 5.9 0 0 0-1.455 1.811c-.5.8-.9 1.5-.9 1.554a2.3 2.3 0 0 0 .847-.266c.466-.2 1.942-.782 3.279-1.3Zm11.343-.559c1.015-.57 1.25-1.625.8-3.6c-.375-1.646-.562-2.185-.784-2.257c-.154-.05-.177 0-.091.21c.562 1.334.593 2 .1 2.192c-.337.129-.695-.355-.976-1.322c-.218-.749-.445-1.087-.617-.915c-.041.041.031.279.16.529a7 7 0 0 1 .394 1.672a5.7 5.7 0 0 0 .375 1.558c.309.487.8.37 1.118-.267s.35-.21.044.521c-.317.76-1.26.987-2.352.568c-.175-.067-.234 0-.234.275a1.45 1.45 0 0 1-.3.743l-.3.378l.408.069a3.86 3.86 0 0 0 2.255-.354M9.346 18.7c2.118-.609 2.5-1.319 1.793-3.365a6 6 0 0 1-.3-1.135c0-.509-.256-.274-.448.411c-.254.906-1.016 1.676-1.657 1.673c-.557 0-.738-.1-.968-.541c-.413-.784.037-1.987 1.184-3.167c.84-.865 1.3-.943 1.3-.222c0 1.125-.776 2.781-1.184 2.529c-.2-.123-.167-.669.065-1.088c.2-.356.157-.9-.066-.9c-.259 0-.773.944-.841 1.546c-.06.532-.022.661.231.8c.888.475 2.052-.976 2.111-2.632c.031-.87-.138-1.114-.674-.98c-.781.2-2.883 2.909-2.883 3.72a1.17 1.17 0 0 0 .88 1.232a2.266 2.266 0 0 0 2.529-1.251l.275-.442v.6c0 .87-.567 1.328-2.357 1.9c-.446.143-.829.276-.852.295a3.7 3.7 0 0 0 .892 1.253a8 8 0 0 0 .969-.239Zm12.764-1.08c.213-.235.25-.49.2-1.393c-.05-.982-.1-1.155-.486-1.554c-.691-.721-1.544-.537-1.045.225c.265.405.589.336.475-.1c-.091-.348.079-.358.375-.02c.556.633.416 1.511-.242 1.511c-.45 0-.59-.193-.883-1.216a2.1 2.1 0 0 0-.362-.847a.208.208 0 0 0-.179.355A8 8 0 0 1 20.42 16c.441 1.734 1.057 2.327 1.69 1.628Zm-8.38.028c.091-.061.132-.349.095-.658c-.06-.5-.094-.535-.364-.39c-.387.207-.8-.185-.944-.891c-.107-.535-.14-.525.64-.205c.1.04.346-.1.553-.3c.377-.377.5-.83.228-.83a.15.15 0 0 0-.147.147c0 .212-.4.182-.494-.037c-.053-.128-.166-.082-.367.147a1 1 0 0 1-.434.332c-.079 0-.185-.149-.237-.332c-.09-.32-.1-.322-.3-.056c-.178.233-.18.307-.01.477a5.1 5.1 0 0 1 .521 1.874a.892.892 0 0 0 1.267.723Zm2.688-.769a1.925 1.925 0 0 0 .416-2.106a.95.95 0 0 0-1.222-.631c-.429.108-1.082 1.358-1.084 2.075c0 1.118 1.06 1.491 1.89.661ZM15.411 16a1.12 1.12 0 0 1-.29-.7c0-.368.022-.382.2-.147c.22.29.611.34.761.1a.28.28 0 0 0-.065-.324c-.232-.232-.2-.547.049-.547c.28 0 .672.571.672.98a1.43 1.43 0 0 1-.9.936a1.05 1.05 0 0 1-.427-.298m3.937.847a1.764 1.764 0 0 0-.141-2.432a1.175 1.175 0 0 0-1.479-.123a3.1 3.1 0 0 0-.489 1.926a1.276 1.276 0 0 0 2.109.625ZM18.1 15.766a.79.79 0 0 1-.318-.774c.008-.45.031-.49.135-.233c.153.378.473.52.753.336c.174-.114.166-.169-.05-.334c-.288-.221-.344-.534-.1-.534a2.37 2.37 0 0 1 1.017 1.112c0 .237-.564.656-.884.656a1.26 1.26 0 0 1-.553-.229m8.662-.652l1.547-.581l-1.658-.006c-1.484-.005-1.658.021-1.656.252a3 3 0 0 0 .2.918c.011 0 .716-.264 1.567-.583m-20.222-.1l.158-.469l-1.398-.05a5.4 5.4 0 0 0-1.389.044a17 17 0 0 0 2.447.956c.013-.009.09-.226.177-.484Zm9.526-1.454a2 2 0 0 1 .819.3c.192.173.276.161.573-.081a1.24 1.24 0 0 1 .553-.283c.113 0 .2-.033.2-.072a42 42 0 0 0-2.2-3.607a44 44 0 0 0-2.337 3.918c-.028.112.06.153.231.108a.5.5 0 0 1 .468.158c.17.205.24.189.644-.151a1.01 1.01 0 0 1 1.048-.286Z"/><path fill="#6398aa" d="M14.5 14.109a.5.5 0 0 1-.115-.1a.51.51 0 0 0-.49-.174a.34.34 0 0 1-.15.012q-.098-.019-.07-.12a10 10 0 0 1 .548-1.016c.711-1.235 1.666-2.792 1.772-2.887c.012-.011.012-.011.024 0c.063.056.432.626.937 1.444c.682 1.107 1.25 2.081 1.25 2.145q.002.058-.186.073a1.2 1.2 0 0 0-.587.3a1.2 1.2 0 0 1-.226.153a.17.17 0 0 1-.1.024a.15.15 0 0 1-.1-.021a1 1 0 0 1-.1-.071a1.2 1.2 0 0 0-.414-.208a2.6 2.6 0 0 0-.738-.139a.7.7 0 0 0-.4.077a2 2 0 0 0-.416.3c-.257.21-.348.254-.441.211ZM6.252 15.47a23 23 0 0 1-2.3-.909c-.031-.019-.034-.022-.025-.028a5.4 5.4 0 0 1 1.14-.042c.23.006 1.619.052 1.621.054s-.3.88-.321.93c-.01.025-.03.025-.115-.005m18.925.209a3.7 3.7 0 0 1-.177-.885c0-.079.009-.111.044-.143c.081-.075.245-.1.7-.114c.228-.006 1.281-.007 2.025 0h.521l-1.255.47c-1.144.429-1.81.677-1.834.683c-.006 0-.012 0-.018-.014ZM8.506 22.072a8 8 0 0 1 .527-.929a7.5 7.5 0 0 1 1.827-2.419a4.1 4.1 0 0 0 .969-.886l.171-.211l.225.221a1.33 1.33 0 0 0 1.062.5c.526 0 1.1-.291 1.1-.562c0-.061.044-.124.086-.124a2 2 0 0 1 .226.069a2.1 2.1 0 0 0 .666.147a1.6 1.6 0 0 0 .609-.073a2.4 2.4 0 0 0 .711-.378c.187-.125.347-.227.354-.227s.143.078.3.174a5 5 0 0 0 .422.231a1.85 1.85 0 0 0 1.549-.04a5 5 0 0 0 .467-.283c.168-.113.307-.2.31-.2s.066.133.141.289a4 4 0 0 0 .209.39a2 2 0 0 0 .642.61a.87.87 0 0 1 .466.616c.017.218-.078.411-.352.715c-.214.237-.268.33-.267.462a.64.64 0 0 0 .213.421a1.16 1.16 0 0 0 1.069.2a3 3 0 0 1 .316-.034c.2 0 .315.1.542.435c.157.235.5.81.5.838s-.016.025-.039.025a2.3 2.3 0 0 1-.407-.111c-.2-.071-2.612-1-3.408-1.317c-2.128-.837-2.828-1.1-3.171-1.209a1.54 1.54 0 0 0-.827-.088c-.254.066-3.726 1.408-5.751 2.223a14 14 0 0 1-1.312.5c-.149.041-.143.04-.143.015Z"/></svg>