<svg xmlns="http://www.w3.org/2000/svg" xmlns:xlink="http://www.w3.org/1999/xlink" width="32" height="32" viewBox="0 0 32 32"><path fill="#004999" d="m29.988 22.372l-.748.048a5.209 5.209 0 0 1-2.99-.671a7.8 7.8 0 0 0-7.8 0a5.275 5.275 0 0 1-5.3.01A7.262 7.262 0 0 0 9.263 20.7a7.229 7.229 0 0 0-3.94 1.06a4.751 4.751 0 0 1-2.47.7h-.838c0 .889-.009 1.739-.015 2.515h.861a7.237 7.237 0 0 0 3.75-1.052a4.763 4.763 0 0 1 2.659-.7a4.835 4.835 0 0 1 2.634.718a7.794 7.794 0 0 0 7.8 0a5.287 5.287 0 0 1 5.319 0a7.709 7.709 0 0 0 4.4.989l.577-.042c-.005-.788-.009-1.639-.012-2.516Zm-.005-6.791l-.743.047a5.226 5.226 0 0 1-2.99-.671a7.8 7.8 0 0 0-7.8 0a5.278 5.278 0 0 1-5.3.01a7.312 7.312 0 0 0-3.887-1.057a7.3 7.3 0 0 0-3.941 1.06a4.742 4.742 0 0 1-2.469.7h-.828v2.515h.84a7.237 7.237 0 0 0 3.75-1.052a4.7 4.7 0 0 1 2.659-.7a4.8 4.8 0 0 1 2.634.718a7.794 7.794 0 0 0 7.8 0a5.287 5.287 0 0 1 5.319 0a7.709 7.709 0 0 0 4.4.989l.568-.037c-.012-.834-.012-1.679-.012-2.522Zm-.743-6.444a5.254 5.254 0 0 1-2.99-.671a7.8 7.8 0 0 0-7.8 0a5.275 5.275 0 0 1-5.3.009A7.16 7.16 0 0 0 9.263 7.42a7.159 7.159 0 0 0-3.94 1.059a4.738 4.738 0 0 1-2.469.7H2.02v2.517h.836a7.237 7.237 0 0 0 3.75-1.052a4.738 4.738 0 0 1 2.659-.706a4.814 4.814 0 0 1 2.634.719a7.791 7.791 0 0 0 7.8 0a5.293 5.293 0 0 1 5.319 0a7.732 7.732 0 0 0 4.4.988l.568-.037c0-.859 0-1.7.007-2.516Z"/></svg>