<svg xmlns="http://www.w3.org/2000/svg" xmlns:xlink="http://www.w3.org/1999/xlink" width="32" height="32" viewBox="0 0 32 32"><path fill="#00f" d="M7.342 4.635a.924.924 0 0 1-.2.315C5.908 6.416 5.488 8.449 5.62 10.313c.128 1.375.523 2.666 1.371 3.77c.07.099.07.099.07.19l.139.048c.077.084.077.084.153.193c.377.498.86.867 1.36 1.229l.08.058c.129.092.253.169.392.234l.12.066v.092c.081.033.158.066.235.095c.139.07.274.15.41.223a10.5 10.5 0 0 0 1.067.548c.128.055.252.117.38.183a5.2 5.2 0 0 0 .53.23c.33.125.658.256.988.388c.416.168.837.336 1.257.497c.67.264 1.331.541 1.99.838c.146.062.292.128.442.19c1.353.581 2.8 1.576 3.375 2.987c.413 1.155.383 2.607-.136 3.726c-.15.3-.318.592-.519.859l-.102.135c-.366.46-.808.841-1.35 1.082h-.095v.096c-.12.05-.12.05-.288.11l-.088.028c-.296.103-.589.194-.885.282l-.099.03a3.414 3.414 0 0 1-.278.061l-.128.03c-.932.153-1.934.113-2.866-.03l-.168-.021c-.402-.066-.783-.194-1.17-.326l-.157-.055c-.264-.091-.483-.179-.706-.343a4.65 4.65 0 0 0-.238-.103c-.585-.256-1.078-.68-1.54-1.115l-.123-.117a8.383 8.383 0 0 1-.852-.984a5.93 5.93 0 0 0-.14-.179a4.043 4.043 0 0 1-.365-.566a5.95 5.95 0 0 0-.146-.26c-.63-1.06-1.002-2.216-1.276-3.419l-.037-.168c-.223-.994-.223-.994-.172-1.261l-.025-.114a1.216 1.216 0 0 0-.713-.043c-.088.036-.088.036-.128.124c-.073.3-.04.618-.03.921c.004.106.004.209.008.311c.003.27.01.541.018.812c.011.332.018.662.022.99c.004.26.011.516.018.772l.004.143l.011.267c0 .095 0 .193-.004.288h-.095c-.077-.091-.077-.091-.164-.219l-.103-.139l-.106-.153l-.055-.08a27.158 27.158 0 0 1-.365-.531l-.095-.132a8.082 8.082 0 0 1-.315-.544l-.062-.11l-.186-.337l-.055-.098a7.205 7.205 0 0 1-.46-.958a6.584 6.584 0 0 0-.158-.37a12.801 12.801 0 0 1-.87-3.393l-.015-.124A13.477 13.477 0 0 1 2.3 12.95c.03-.147.055-.296.08-.446c.074-.432.198-.838.337-1.25c.037-.114.073-.228.11-.337a5.54 5.54 0 0 1 .42-1.042c.059-.12.11-.238.157-.362c.096-.245.216-.476.344-.71l.07-.12c.175-.315.369-.618.574-.914l.08-.114c.673-.99 1.48-1.96 2.432-2.698c.117-.091.117-.091.237-.216c.106-.106.106-.106.201-.106z"/><path fill="red" d="m19.324 2.482l.099.029c.757.22 1.543.526 2.146 1.045l.238.19l.117.096c.073.058.146.113.223.164l.077.066v.095l.08.04c.526.264.965 1.09 1.232 1.598l.08.143c.414.727.706 1.524.922 2.332c.018.07.04.14.058.209c.103.362.172.724.234 1.09l.033.182c.077.49.077.49.063.582c-.019.113-.019.113.014.281c.19.117.432.102.647.08c.106-.025.106-.025.194-.08c.172-.307.095-.75.08-1.086c-.003-.11-.003-.223-.007-.333a35.636 35.636 0 0 0-.022-.88c-.01-.359-.014-.714-.022-1.072a64.216 64.216 0 0 0-.018-.834l-.004-.153l-.01-.289l-.004-.124l-.004-.114l.011-.076h.095c.07.073.07.073.154.171c.095.114.186.22.288.322c1.006 1.006 1.006 1.006 1.006 1.331h.095c.08.113.16.23.234.347l.07.106c.65 1.031 1.107 2.103 1.52 3.247l.04.11c.224.629.352 1.29.476 1.949l.026.135c.256 1.39.212 2.965-.026 4.358l-.018.12c-.201 1.197-.56 2.41-1.093 3.5c-.063.124-.063.124-.106.278l-.048.124h-.091a7.527 7.527 0 0 0-.048.282l-.047.095h-.092l-.036.11c-.08.234-.209.431-.344.64l-.08.131c-.483.764-.483.764-.666.99h-.091c-.015.034-.026.067-.037.1c-.07.168-.18.277-.3.405c-.044.048-.088.092-.131.14l-.07.072c-.077.085-.15.169-.223.256c-.205.23-.417.45-.636.67l-.12.124l-.224.223l-.084.07l-.095-.048c.066-.099.132-.194.205-.289a7.93 7.93 0 0 0 .636-1.02l.047-.088a4.66 4.66 0 0 0 .29-.717c.021-.073.043-.146.069-.219l.03-.095c.025-.073.05-.143.08-.212c.047-.12.073-.23.095-.355l.025-.135l.022-.135l.026-.14c.358-2.01.08-4.219-1.105-5.922l-.09-.125l-.085-.117c-.775-1.02-1.814-1.71-2.921-2.318c-.077-.04-.15-.084-.227-.128a5.377 5.377 0 0 0-.808-.37c-.205-.076-.406-.16-.607-.248a16.604 16.604 0 0 0-1.166-.442a13.197 13.197 0 0 1-.827-.31a6.582 6.582 0 0 0-.515-.176c-.326-.1-.648-.212-.97-.326l-.28-.099a20.01 20.01 0 0 1-1.098-.427c-.062-.026-.12-.052-.183-.077a5.873 5.873 0 0 1-.793-.384c-.106-.062-.106-.062-.252-.117c-.194-.08-.366-.186-.545-.296l-.099-.062a3.908 3.908 0 0 1-.614-.48a2.68 2.68 0 0 0-.249-.208c-.738-.632-1.166-1.598-1.276-2.548c-.091-1.254.1-2.57.944-3.558c.142-.16.289-.314.446-.46h.095v-.095c.095-.077.095-.077.22-.165l.124-.084c.124-.077.124-.077.245-.128c.113-.037.113-.037.197-.11c.154-.11.322-.157.5-.215l.118-.037c.11-.033.22-.07.329-.102l.143-.048c1.213-.347 2.866-.336 4.069.048z"/><path fill="#0f0" d="M11.788 2.386c0 .143 0 .143-.124.275c-.055.05-.11.106-.165.157a5.04 5.04 0 0 0-.6.69c-.05.067-.106.133-.157.198c-.39.505-.709 1.028-1.012 1.587c-.04.073-.08.146-.125.216c-.26.439-.376.965-.512 1.451l-.04.14l-.036.127c-.037.121-.037.121-.085.227c-.11.307-.102.647-.102.969v.724c-.004.077-.004.153-.004.234v.11c0 .208.03.373.106.57l.044.22c.04.219.099.43.161.647c.03.117.03.117.026.248l.003.103h.095c.037.098.037.098.074.237a4.1 4.1 0 0 0 .358.786c.091.158.143.296.175.476h.096c.131.171.186.245.186.468h.091c.077.095.147.193.216.296l.059.084c.084.12.15.227.193.37l.234.233c.092.092.18.19.267.285l.073.08c.121.129.234.257.351.385c.227.252.454.482.713.698l.256.216l.176.153l.08.07l.147.124l.087.077l.051.062c-.24-.007-.372-.033-.563-.186a6.385 6.385 0 0 0-.252-.092a8.701 8.701 0 0 1-1.243-.61l-.08-.048c-.874-.515-.874-.515-1.042-.654v-.092l-.1-.036c-.178-.077-.306-.19-.453-.318l-.087-.077c-.234-.205-.457-.42-.673-.647l-.11-.11a6.406 6.406 0 0 1-1.48-2.417l-.033-.091c-.403-1.25-.209-2.797.314-3.982l.048-.11c.2-.45.413-.888.702-1.294l.087-.124c.296-.42.6-.834.998-1.163c.147-.12.275-.26.406-.399l.099-.098l.091-.099c.103-.088.202-.124.33-.176v-.09c.087-.07.087-.07.204-.15c.044-.03.084-.06.132-.089l.132-.091a9.2 9.2 0 0 0 .23-.168c.205-.143.413-.26.632-.377c.125-.062.125-.062.253-.15zm8.424 13.386c.315.037.578.26.826.443c.103.07.18.091.297.12v.092c.062.033.124.062.186.095c.099.07.194.143.289.216l.08.062l.165.131c.066.048.132.1.197.15a8.53 8.53 0 0 1 1.675 1.748l.058.08c.297.421.297.421.297.607h.095c.182.315.296.673.416 1.017c.03.088.059.175.096.263c.347.918.285 2.135.05 3.071l-.025.107c-.27 1.07-.713 2.043-1.426 2.892l-.139.168c-.819.99-1.912 1.711-3.09 2.216l-.11.047c-1.286.548-1.286.548-1.692.501l-.07-.033c.066-.058.066-.058.198-.132l.139-.084l.153-.087c.37-.216.72-.436 1.053-.702c.096-.07.096-.07.187-.07v-.095c.102-.088.208-.175.318-.256l.088-.073c.226-.172.226-.172.35-.234c.114-.059.129-.117.18-.23c.062-.07.062-.07.143-.143l.117-.12c.117-.114.117-.114.255-.162a2.22 2.22 0 0 0 .096-.186c.05-.07.102-.139.157-.208l.088-.11c.058-.077.12-.15.179-.223c.102-.132.186-.27.27-.413l.051-.073h.095l.022-.106c.03-.147.077-.202.165-.319c.073-.15.128-.307.186-.468l.059-.15c.146-.394.267-.793.366-1.206l.029-.128c.248-1.185.095-2.95-.545-3.989c-.026-.062-.051-.12-.073-.183l-.037-.102c-.014-.037-.025-.07-.04-.106a6.995 6.995 0 0 0-.738-1.434l-.085-.15c-.138-.244-.31-.467-.479-.694l-.102-.14a8.197 8.197 0 0 0-.881-1.03c-.091-.092-.091-.092-.139-.187z"/><path fill="#fff" d="m19.649 3.699l.143.044v.095l.11.033c.39.139.698.431.997.71c.11.102.11.102.238.2l.103.088v.091l.084.04c.135.07.193.162.281.29l.084.124c.066.11.066.11.066.2c-.139-.043-.139-.043-.23-.16c-.19-.241-.454-.41-.706-.585a2.682 2.682 0 0 0-.885-.453l-.131-.044c-1.042-.322-2.14-.38-3.196-.066l-.143.04c-.79.256-1.528.86-1.927 1.587a3.075 3.075 0 0 0-.117 2.3c.282.694.78 1.393 1.441 1.77c.03.018.059.04.091.058c-.138.048-.138.048-.248-.004l-.12-.08a2.867 2.867 0 0 0-.472-.241a5.028 5.028 0 0 1-.768-.59l-.07-.061a2.22 2.22 0 0 1-.38-.472l-.084-.12c-.505-.768-.706-1.62-.541-2.534a3.43 3.43 0 0 1 .998-1.605c.062-.033.124-.066.186-.096v-.091c.362-.267.754-.45 1.17-.61l.154-.07c.205-.088.413-.12.632-.15l.128-.018c1.086-.135 2.085.022 3.112.38zm-4.117 16.94c.87.066 1.817.654 2.398 1.283c.68.827.86 1.646.783 2.695c-.124.834-.702 1.583-1.36 2.073a8.84 8.84 0 0 1-.417.267l-.12.08c-.279.18-.542.267-.864.34l-.288.077c-1.116.29-2.355.198-3.36-.354c-.063-.03-.125-.055-.187-.08a2.067 2.067 0 0 1-.377-.202v-.095l-.095-.033c-.197-.084-.329-.22-.482-.365l-.092-.085c-.164-.153-.164-.153-.22-.219v-.091c.147.055.268.15.396.245c.5.35 1.027.512 1.616.643l.088.026c1.13.245 2.372-.146 3.33-.728c.1-.073.187-.153.278-.234h.095v-.095l.3-.3c.483-.512.71-1.21.702-1.897v-.143c-.003-.717-.3-1.338-.793-1.854a7.34 7.34 0 0 0-.629-.534l-.095-.073c-.143-.098-.3-.15-.46-.208c-.1-.044-.1-.044-.147-.139z"/></svg>