<svg xmlns="http://www.w3.org/2000/svg" xmlns:xlink="http://www.w3.org/1999/xlink" width="32" height="32" viewBox="0 0 32 32"><path fill="#75aadb" d="M15.242 2c.447-.009.894 0 1.342 0c.076 0 .161-.014.226.037c.156.008.313 0 .47.008c.121.072.269.021.4.04c.1.076.235 0 .334.072c.094.01.2-.016.283.04l.187.01c.078.047.175.025.254.067a.5.5 0 0 1 .2.041a.63.63 0 0 1 .2.037a.652.652 0 0 1 .162.044l.109.015c.068.027.141.039.211.062a.7.7 0 0 1 .162.042l.07.018c.069.025.142.038.211.063l.071.014c.054.027.111.042.167.064l.121.039l.121.039q.062.021.123.047l.075.01l.121.074l.076.011a.8.8 0 0 0 .126.042l.127.064h.076l.121.07a.683.683 0 0 1 .2.076l.076.044a2.7 2.7 0 0 1 .285.117l.161.082l.126.06l.2.1l.126.06c.14.06.255.164.4.219c.056.033.107.074.165.1c.083.039.153.1.237.139a14.748 14.748 0 0 1 1.609 1.163c.136.074.213.218.345.3a.754.754 0 0 1 .151.13c.311.319.634.627.942.949c.088.161.258.254.346.416c.163.15.264.352.419.51c.194.3.421.57.606.873c.058.128.16.23.219.358c.03.057.07.108.1.164l.035.084a2.913 2.913 0 0 1 .182.315c.026.054.052.108.081.161s.04.084.06.126c.034.065.066.131.1.2l.059.127l.061.113c.019.043.04.084.061.127a2.583 2.583 0 0 1 .118.282a.524.524 0 0 1 .08.2l.07.121l.006.077l.069.121a.786.786 0 0 0 .041.126l.012.075l.067.121a.9.9 0 0 0 .041.126l.014.072c.024.055.043.113.068.168c0 .018.011.054.015.072c.025.069.039.141.063.21l.018.072c.024.069.037.141.062.21c0 .018.013.054.018.071c.024.07.037.142.064.212c0 .036.01.072.015.109a.719.719 0 0 1 .045.162c.033.081.02.174.061.253c0 .036.01.072.015.108c.057.09.008.205.067.294c0 .049.007.1.012.148c.07.1 0 .235.07.335c.011.094-.019.2.041.282c0 .089 0 .179.008.268c.077.147.016.324.04.483c.051.066.033.151.037.228c-.005.595 0 1.189-.005 1.783c-.076.134-.018.3-.04.443c-.069.107-.024.241-.04.361c-.077.1 0 .237-.072.336a.641.641 0 0 1-.037.281a.454.454 0 0 1-.042.2c0 .049-.008.1-.012.148a.447.447 0 0 0-.043.2c-.039.079-.027.171-.06.253a1.383 1.383 0 0 1-.04.161a1.306 1.306 0 0 1-.04.161a.834.834 0 0 1-.043.161l-.019.07c-.026.068-.037.14-.058.209c-.014.041-.03.081-.046.121l-.016.072c-.025.069-.039.142-.063.211l-.017.071a1.048 1.048 0 0 0-.041.126l-.061.12a2.052 2.052 0 0 1-.041.126l-.017.072a.871.871 0 0 0-.041.126l-.068.121l-.006.078c-.024.039-.047.08-.07.12a.522.522 0 0 1-.08.2c-.035.082-.064.166-.1.248l-.041.078l-.061.116l-.061.128l-.04.078a6.113 6.113 0 0 0-.081.162l-.04.079a18.63 18.63 0 0 0-.1.2a3.053 3.053 0 0 1-.2.362c-.037.069-.088.13-.12.2a2.326 2.326 0 0 0-.121.2a13.507 13.507 0 0 1-1.2 1.648c-.085.151-.247.237-.328.391c-.281.3-.577.576-.862.868c-.1.116-.25.178-.343.3a15.287 15.287 0 0 1-1.681 1.246c-.115.054-.212.14-.321.2c-.144.054-.257.16-.4.218s-.261.17-.41.222l-.113.061l-.128.059c-.123.08-.268.112-.4.18a1.638 1.638 0 0 0-.165.089h-.078l-.122.076h-.079l-.121.076h-.078l-.121.069a.8.8 0 0 0-.126.041l-.076.012l-.12.068a1.135 1.135 0 0 0-.247.081l-.072.016c-.068.025-.14.037-.209.058a1.59 1.59 0 0 0-.121.046l-.072.016c-.07.024-.143.038-.212.064l-.109.015a.665.665 0 0 1-.163.044c-.07.022-.143.035-.211.062l-.109.015c-.079.043-.175.021-.253.066l-.149.013c-.078.046-.176.021-.254.068a.473.473 0 0 0-.241.041l-.228.009c-.1.074-.237 0-.335.072c-.116 0-.233 0-.348.008c-.2.1-.455-.03-.657.072q-.629.01-1.257 0l-.07-.033c-.2-.029-.417.043-.6-.041c-.116 0-.233 0-.348-.007c-.095-.065-.215-.027-.321-.041c-.088-.065-.207-.009-.3-.071l-.187-.01a.484.484 0 0 0-.241-.041c-.078-.046-.175-.024-.255-.067l-.108-.015a.619.619 0 0 0-.162-.045c-.081-.033-.173-.023-.253-.059l-.069-.018a.647.647 0 0 0-.161-.013c-.07-.023-.142-.035-.21-.06l-.071-.018c-.069-.025-.141-.039-.21-.063l-.072-.017c-.041-.016-.082-.031-.122-.044s-.112-.036-.167-.056s-.082-.029-.122-.045l-.075-.011c-.04-.024-.08-.046-.12-.068a.9.9 0 0 1-.127-.042l-.074-.011q-.06-.036-.121-.069a.848.848 0 0 1-.165-.056a.521.521 0 0 0-.2-.082l-.082-.043c-.13-.066-.274-.1-.4-.179l-.207-.1a2.028 2.028 0 0 0-.162-.08l-.113-.06c-.121-.041-.208-.14-.329-.181a2.115 2.115 0 0 0-.117-.058a1.857 1.857 0 0 0-.2-.121c-.069-.038-.129-.09-.2-.121a13.462 13.462 0 0 1-1.648-1.2c-.134-.075-.214-.217-.351-.288c-.288-.274-.564-.563-.848-.842a1.966 1.966 0 0 1-.287-.315a12.913 12.913 0 0 1-1.382-1.846c-.031-.057-.072-.108-.1-.165s-.083-.132-.121-.2c-.045-.1-.125-.179-.161-.284l-.06-.113a2.177 2.177 0 0 0-.163-.281a2.946 2.946 0 0 0-.058-.128c-.081-.123-.111-.269-.181-.4l-.062-.125c-.061-.1-.078-.219-.143-.317a.862.862 0 0 1-.056-.165a3.417 3.417 0 0 0-.068-.12l-.012-.076a.946.946 0 0 1-.041-.126l-.067-.119l-.012-.076a3.045 3.045 0 0 1-.045-.123a1.281 1.281 0 0 0-.063-.167c0-.018-.008-.055-.012-.074c-.025-.055-.043-.113-.068-.168c0-.018-.011-.054-.015-.072c-.025-.07-.039-.142-.063-.211l-.018-.07a.708.708 0 0 1-.043-.162c-.022-.07-.035-.142-.06-.211l-.018-.07c-.04-.08-.022-.174-.064-.253l-.015-.108c-.043-.079-.023-.175-.065-.254a.456.456 0 0 0-.043-.2a.489.489 0 0 0-.041-.241c0-.063-.006-.126-.01-.188c-.073-.1 0-.237-.071-.336c-.014-.107.024-.226-.04-.321c-.022-.146.035-.309-.04-.443q-.01-1.051 0-2.1l.033-.07c.006-.13 0-.26.008-.39c.082-.111-.01-.263.072-.375c.011-.094-.018-.2.04-.282c0-.076.005-.152.009-.228c.048-.077.025-.175.067-.254a.5.5 0 0 1 .041-.2a.485.485 0 0 1 .041-.2l.014-.108c.041-.079.028-.171.061-.253a.815.815 0 0 1 .043-.161l.018-.069a.756.756 0 0 0 .043-.162c.022-.069.035-.14.055-.21c.014-.041.03-.081.047-.121l.013-.073c.025-.055.043-.113.068-.168l.012-.074a1.455 1.455 0 0 0 .062-.167l.045-.123l.011-.076l.073-.12c0-.019.008-.057.011-.076a1.072 1.072 0 0 0 .043-.126l.062-.12a.938.938 0 0 1 .057-.164c.071-.113.094-.248.165-.362s.08-.216.138-.317c.034-.069.07-.138.1-.207l.041-.079a1.537 1.537 0 0 1 .163-.28l.037-.082a2.867 2.867 0 0 1 .188-.322l.035-.084c.059-.1.13-.185.185-.284a12.931 12.931 0 0 1 .85-1.215c.155-.169.272-.369.442-.524c.054-.054.084-.126.138-.18c.371-.368.738-.739 1.108-1.107a1.9 1.9 0 0 0 .3-.26c.121-.062.193-.182.311-.248c.159-.14.335-.259.5-.389c.241-.145.451-.337.7-.47c.1-.054.186-.129.286-.183c.083-.039.154-.1.235-.141c.132-.048.233-.15.364-.2l.206-.1c.053-.029.107-.055.163-.08l.113-.06c.054-.026.109-.052.162-.081l.126-.061a2.71 2.71 0 0 1 .282-.118a.5.5 0 0 1 .2-.08L10.732 3h.078l.122-.076h.079l.121-.076l.078-.008a1.279 1.279 0 0 1 .167-.064c.041-.013.082-.028.123-.044l.073-.014a1.51 1.51 0 0 1 .167-.062c.041-.013.082-.028.123-.044l.071-.017c.069-.025.142-.038.211-.063l.07-.018a.764.764 0 0 1 .161-.043a1.1 1.1 0 0 1 .162-.039c.07-.022.143-.035.212-.062l.108-.015c.079-.044.176-.021.254-.066l.149-.012a.445.445 0 0 1 .2-.042c.09-.056.205-.007.294-.066c.081-.01.171.01.241-.042c.107-.014.227.025.322-.041c.133-.019.282.032.4-.04c.172-.026.363.04.523-.04"/><path fill="#fff" d="M11.072 9.012v1.092c.577.059 1.151.144 1.728.206v10.15c-.572.008-1.146-.017-1.716.012a4.184 4.184 0 0 0-.013.55a5.468 5.468 0 0 0 .011.591c.424.031.85 0 1.275.013h3.582a.911.911 0 0 0 .148-.013a4.705 4.705 0 0 0 .012-.554a5.5 5.5 0 0 0-.011-.587a2.207 2.207 0 0 0-.389-.013h-1.607v-4.584h2.056c.331.461.632.944.953 1.414l2.767 4.153c.057.075.1.208.214.189h2.2v-1.165h-1.393c-.054 0-.117 0-.154-.043q-1.559-2.3-3.121-4.6a.567.567 0 0 1-.072-.167a4.434 4.434 0 0 0 1.5-.745a3.192 3.192 0 0 1 .281-.24a3.816 3.816 0 0 0 .567-.775a3.668 3.668 0 0 0 .327-2.214a2.821 2.821 0 0 0-1.118-1.858a4.518 4.518 0 0 0-2.349-.79a23.743 23.743 0 0 0-3.261.218a7.808 7.808 0 0 1-2.417-.24Zm3.022 1.307a22.825 22.825 0 0 1 2.089-.156a3.137 3.137 0 0 1 2.075.613a2.223 2.223 0 0 1 .627 2a1.978 1.978 0 0 1-.811 1.337a4.189 4.189 0 0 1-2.219.649c-.587.051-1.174-.011-1.761-.009q-.006-2.219 0-4.434Z"/></svg>