<svg xmlns="http://www.w3.org/2000/svg" xmlns:xlink="http://www.w3.org/1999/xlink" width="32" height="32" viewBox="0 0 32 32"><path fill="#6483c0" d="m10.457 11.092l5.557 2.747v4.468l-5.557-2.925z"/><path d="m16.2 18.613l-5.926-3.12V10.8l5.926 2.924Zm-5.558-3.343L15.83 18v-4.047l-5.188-2.564Z"/><path fill="#6483c0" d="M16.371 13.839v4.468l4.944-2.493v-4.46z"/><path d="M16.186 18.607v-4.882l5.313-2.67v4.873Zm.369-4.655v4.055L21.13 15.7v-4.047Z"/><path fill="#6483c0" d="m10.703 10.797l5.483 2.783l4.896-2.516l-5.305-2.675z"/><path d="m16.187 13.788l-5.9-3l5.5-2.608l5.709 2.879ZM11.122 10.8l5.064 2.57l4.49-2.308l-4.9-2.471Z"/><path fill="#952781" d="m18.957 15.829l5.558 2.746v4.468l-5.558-2.925z"/><path d="m24.7 23.349l-5.926-3.12v-4.7L24.7 18.46Zm-5.557-3.343l5.188 2.731v-4.048l-5.188-2.564Z"/><path fill="#952781" d="M24.871 18.575v4.468l4.944-2.493v-4.46z"/><path d="M24.687 23.343v-4.882L30 15.791v4.873Zm.369-4.655v4.055l4.575-2.308v-4.046Z"/><path fill="#952781" d="m19.203 15.546l5.484 2.783l4.896-2.517l-5.219-2.466z"/><path d="m24.687 18.536l-5.92-3.005l5.6-2.387L30 15.805ZM19.64 15.56l5.046 2.561l4.479-2.3l-4.806-2.27Z"/><path fill="#d87b30" d="m2.19 15.496l5.558 2.747v4.468L2.19 19.786z"/><path d="M7.932 23.017L2.006 19.9v-4.7l5.926 2.929Zm-5.557-3.343l5.188 2.731v-4.048l-5.188-2.564Z"/><path fill="#d87b30" d="M8.104 18.243v4.468l4.944-2.493v-4.46z"/><path d="M7.92 23.011v-4.882l5.313-2.67v4.873Zm.369-4.655v4.055l4.575-2.311v-4.043Z"/><path fill="#d87b30" d="m2.436 15.213l5.484 2.784l4.896-2.517l-5.219-2.466z"/><path d="M7.92 18.2L2 15.2l5.6-2.387l5.632 2.661Zm-5.047-2.972l5.046 2.561l4.479-2.3l-4.806-2.27Z"/><path fill="#e0d400" d="m10.875 16.296l5.557 2.746v4.469l-5.557-2.926z"/><path d="M16.617 23.816L10.691 20.7V16l5.926 2.929Zm-5.557-3.342l5.188 2.731v-4.048l-5.188-2.564Z"/><path fill="#e0d400" d="M16.789 19.042v4.469l4.944-2.494v-4.46z"/><path d="M16.6 23.811v-4.882l5.313-2.67v4.873Zm.369-4.655v4.055l4.58-2.311v-4.043Z"/><path fill="#e0d400" d="m11.121 16.001l5.484 2.783l4.896-2.517l-5.305-2.674z"/><path d="m16.605 18.991l-5.9-3l5.5-2.608l5.709 2.879Zm-5.065-2.985l5.064 2.57l4.49-2.308l-4.9-2.471Z"/></svg>