<svg xmlns="http://www.w3.org/2000/svg" xmlns:xlink="http://www.w3.org/1999/xlink" width="40" height="40" viewBox="0 0 40 40"><path fill="#e9f9fd" fill-opacity=".1" d="M4.345 9H14.9L9.618 20Zm21.1 0h10.55l-5.277 11Z"/><path fill="#25c4f2" fill-opacity=".22" d="M9.62 20h10.549l-5.275 11Z"/><path fill="#25c4f2" fill-opacity=".2" d="M20.169 20h10.55l-5.275 11Z"/><path fill="#25c4f2" fill-opacity=".4" d="M20.169 20H9.619l5.275-11Z"/><path fill="#25c4f2" fill-opacity=".4" d="M30.718 20h-10.55l5.276-11Z"/><path fill="#25c4f2" fill-opacity=".5" d="M25.444 31h-10.55l5.275-11Z"/><path fill="#25c4f2" d="M35.99 8H25.44a1 1 0 0 0-.9.568l-4.373 9.12l-4.373-9.12A1 1 0 0 0 14.89 8H4.34a1 1 0 0 0-.9 1.432l10.55 22a1 1 0 0 0 .9.568h10.55a1 1 0 0 0 .9-.576L36.892 9.432A1 1 0 0 0 35.99 8m-21.1 3.313L18.58 19h-7.372ZM5.934 10h7.372L9.62 17.687Zm8.959 18.687L11.207 21h7.372l-3.685 7.685ZM16.483 30l3.686-7.687L23.855 30Zm8.961-1.313L21.758 21h7.372ZM21.758 19l3.686-7.687L29.13 19Zm8.96-1.313L27.032 10h7.373Z"/></svg>