<svg xmlns="http://www.w3.org/2000/svg" xmlns:xlink="http://www.w3.org/1999/xlink" width="254.5" height="225" viewBox="0 0 254.5 225"><path fill="#f2e6c9" d="M56.277 13.214c16.4-.15 32.825 0 49.234-.063c-3.891 16.756-7.624 33.559-11.5 50.323H19.1c-2.368 0-4.736.079-7.1-.095c14.712-16.764 29.589-33.386 44.277-50.165m83.291-.056h49.092c14.743 16.78 29.629 33.417 44.333 50.22c-9.471.2-18.942 0-28.413.087h-53.63c-3.727-16.787-7.704-33.511-11.382-50.307"/><path fill="#efc75e" d="M105.511 13.158h34.056c3.678 16.8 7.648 33.52 11.4 50.3H94.012c3.875-16.748 7.608-33.544 11.499-50.3"/><path fill="#e7bf55" d="M12 63.371c2.368.174 4.736.087 7.1.095h74.912q0 26.578.055 53.156a19 19 0 0 0 2.02.142h53.22a15 15 0 0 0 1.579-.11c.15-17.735 0-35.469.071-53.2h53.63c9.471-.047 18.942.11 28.413-.087V217H12.008Q12 140.189 12 63.371"/><path fill="#dbb551" d="M94.012 63.482h56.953c-.063 17.735.087 35.469-.071 53.2c-.529.055-1.058.095-1.579.11H96.1a19 19 0 0 1-2.013-.134c-.115-17.739-.004-35.466-.075-53.176"/><path fill="#f2f2f2" d="M28.132 167.024h73.953V195.5H28.132z"/><path fill="#40d0fd" d="m167.429 139.1l20.965-20.424h52.075l-46.131 46.129z"/><path fill="#41d0fd" d="m102.086 125.433l26.19 26.812L240.469 39.123h-52.075z"/><path fill="#1fbcfd" d="m141.191 165.066l26.56 26.168l26.587-26.429l-26.909-25.705z"/><path fill="#095a9d" d="m167.751 191.234l26.587-26.429l45.481 46.001h-52.367z"/><path fill="#0e5199" d="m167.751 191.234l24.768-8.236l-8.346-8.088z"/></svg>