<svg xmlns="http://www.w3.org/2000/svg" xmlns:xlink="http://www.w3.org/1999/xlink" width="32" height="32" viewBox="0 0 32 32"><path fill="#c2c2c2" d="M11.29 15.976a8.892 8.892 0 0 0 1.039 4.557a4.818 4.818 0 0 0 5.579 2.13a3.789 3.789 0 0 0 2.734-3.181c.095-.535.1-.54.1-.54c1.537.222 4.014.582 5.55.8l-.1.389A9.958 9.958 0 0 1 23.8 24.9a8.35 8.35 0 0 1-4.747 2.378a12.925 12.925 0 0 1-7.322-.725a8.98 8.98 0 0 1-5.106-5.524A14.353 14.353 0 0 1 6.642 10.9a9.323 9.323 0 0 1 7.929-6.24a11.812 11.812 0 0 1 5.9.491a8.467 8.467 0 0 1 5.456 6.1c.083.311.1.369.1.369c-1.709.311-3.821.705-5.518 1.075c-.323-1.695-1.122-3.029-2.831-3.445a4.656 4.656 0 0 0-5.853 3.158a9.28 9.28 0 0 0-.341 1.273a10.89 10.89 0 0 0-.194 2.295Z"/><path fill="#c2c2c2" d="M2.033 30V2h5.934v2.227H4.723v23.546h3.244V30H2.033zm27.934-.001h-5.934v-2.228h3.244V4.226h-3.244V1.999h5.934v28z"/></svg>