<svg xmlns="http://www.w3.org/2000/svg" xmlns:xlink="http://www.w3.org/1999/xlink" width="32" height="32" viewBox="0 0 32 32"><path fill="#a653d9" d="M27.3 5H5.886L2 8.958V26h24.114L30 22.042V5ZM7.88 20.632a4.04 4.04 0 0 1-3.48-1.344a7.26 7.26 0 0 1-.984-4.248a7.5 7.5 0 0 1 1-4.312A3.96 3.96 0 0 1 7.88 9.32a3.95 3.95 0 0 1 3.456 1.4a7.5 7.5 0 0 1 .992 4.312a9.7 9.7 0 0 1-.408 3.1a3.45 3.45 0 0 1-1.335 1.808l1.343 2.16l-1.647.768l-1.425-2.332a3.6 3.6 0 0 1-.976.096M5.8 18.144a2.2 2.2 0 0 0 2.08.936a2.19 2.19 0 0 0 2.072-.92a6.6 6.6 0 0 0 .536-3.112a6.9 6.9 0 0 0-.552-3.184a2.14 2.14 0 0 0-2.056-.992a2.16 2.16 0 0 0-2.064.992a6.74 6.74 0 0 0-.56 3.168a6.54 6.54 0 0 0 .544 3.112m12.112-5.864a2.85 2.85 0 0 1 2.376.92a5.4 5.4 0 0 1 .728 3.256a4.76 4.76 0 0 1-.863 3.256a4.07 4.07 0 0 1-3.04.92q-.753 0-2.385-.144l-.544-.048V9.128h1.729v3.632a5.1 5.1 0 0 1 1.999-.48m-.8 6.8a1.98 1.98 0 0 0 1.7-.6a3.67 3.67 0 0 0 .424-2.04a4.1 4.1 0 0 0-.36-2.024a1.27 1.27 0 0 0-1.176-.584a5.1 5.1 0 0 0-1.536.24l-.256.08v4.864q.883.064 1.204.064m11.2-4.976a23 23 0 0 0-2.736-.256a2.44 2.44 0 0 0-1.176.2a.69.69 0 0 0-.328.632a.62.62 0 0 0 .359.608a8 8 0 0 0 1.7.408a3.9 3.9 0 0 1 1.9.728a2.28 2.28 0 0 1 .56 1.76a2.15 2.15 0 0 1-.808 1.856a3.97 3.97 0 0 1-2.36.592a14 14 0 0 1-2.464-.272l-.5-.08l.064-1.456a24 24 0 0 0 2.768.256a2.56 2.56 0 0 0 1.208-.208a.73.73 0 0 0 .36-.688a.69.69 0 0 0-.345-.664a6.8 6.8 0 0 0-1.647-.4a4.4 4.4 0 0 1-1.912-.68a2.02 2.02 0 0 1-.608-1.7a2.12 2.12 0 0 1 .841-1.84a3.58 3.58 0 0 1 2.151-.608a15 15 0 0 1 2.512.256l.5.1Z"/></svg>