<svg xmlns="http://www.w3.org/2000/svg" xmlns:xlink="http://www.w3.org/1999/xlink" width="32" height="32" viewBox="0 0 32 32"><path fill="#ee2d2b" d="m20.2 23.1l-7.7-3.71l-5.11 1.57l-5.06-2.44l5.42-6.95l-.93-1.73L9.8 7.09l4.62-.19l5.35-2l9.52 10.24l-4.5 6.82l-4.59 1.13Z"/><path fill="#bf2025" d="M7.85 16.33c2.02.61 4.13.04 6.35-1.7l10.38 6.72l-2.12 1.31H19l-5.47-2.7l-5 1.27l-5.68-2.58l4.05-2.09zm3.68-7.96c.73-.19 2.24 1.57 2.31 2.01c.27 1.5.38 2.51-1.46 3.98c-1.1.94-2.56 1.34-3.99 1.11l.37-1.65l-1.33-2.66a6.87 6.87 0 0 1 4.1-2.8Z"/><path fill="#361212" d="m8.37 21.76l-.12.04L2 18.99l.14-.32c1-2.3 2.47-4.32 4.4-6.06c.27-.25.55-.49.83-.72l-.32-.61l-.4-.74l-.13-.25l-.08-.16l.08-.16c.87-1.77 2.22-2.75 4.43-3.35c1.35-.35 2.48-.33 3.39.1c1.68-.95 3.5-1.66 5.38-2.1h.07l10.2 10.93l-.11.21q-1.29 2.58-2.64 5.13c-1.22 2.3-3.25 3.14-5.88 2.75c-1.98-.28-4.13-1.2-6.71-2.67l-.78-.43c-1.19.18-3.04.59-5.52 1.23Zm-1.36-8.63c-1.72 1.53-3.11 3.4-4.07 5.49l4.32 1.95c1.44-.52 2.92-.95 4.41-1.29c-1.5-.84-2.99-1.68-4.49-2.51l-.32-.18l1.65-2.58l-.78-1.48c-.24.2-.47.41-.71.61Zm2.62 3.44c2.67-.47 4.76-2.59 5.51-3.93c.14-.21.28-.43.41-.65l3.66-6.51c-1.86.5-3.65 1.27-5.28 2.29l-.76-.35c.13-.08.25-.16.38-.24a4.84 4.84 0 0 0-2.42.13c-1.95.52-3.12 1.36-3.9 2.82l.05.08l.39.74l1.38 2.61c.44.09.9.09 1.34.01c.68-.1 1.3-.35 1.8-.76c1-.81 1.53-1.41 1.57-1.95c.05-.64-.37-1.49-1.53-3.11c1.65 1.1 2.77 2.87 1.86 4.14c-.09.15-.19.28-.3.4c-.3.34-.66.67-1.15 1.07c-.62.48-1.36.8-2.14.9c-.45.07-.9.08-1.35.02l-1.31 2.05c1.17.65 2.33 1.3 3.5 1.95c3.6-.2 5.93-2.39 8.18-5.97c-1.72 3.66-3.86 6-7.15 6.55c.69.38 1.31.73 1.88 1.06c3.53-.23 5.66-2.17 7.9-5.71c-1.7 3.62-3.67 5.75-6.85 6.3c.34.19.69.38 1.04.56l-.04-.04l.39.21c.19.1.39.19.59.28c3.52-.23 5.48-1.91 7.71-5.46c-1.64 3.48-3.39 5.4-6.33 6c2.15.64 3.9.25 5.65-.85c.6-.39 2.04-2.44 4.31-6.16l-8.73-9.36l-3.71 6.62c-.58 1-1.29 1.91-2.13 2.71a6.67 6.67 0 0 1-4.41 1.52Z"/></svg>