<svg xmlns="http://www.w3.org/2000/svg" xmlns:xlink="http://www.w3.org/1999/xlink" width="32" height="32" viewBox="0 0 32 32"><path fill="#769788" d="M21.68 27.41c-.078-.083-.145-.223-.235-.24c-2.108-.405-4.187-.962-6.326-1.194L15.826 30h2.144c.08-.214.292-.1.429-.176l3.281-2.414Z"/><path fill="#8ba97b" d="M9.527 25.543zm5.592.433q-.009-.071-.015-.141c-1.86.009-3.713-.126-5.564-.286l-.013-.006c1.1 1.006 2.186 2.021 3.3 3.013a7.894 7.894 0 0 1 1.287 1.316a.393.393 0 0 1 0 .128h1.715l-.707-4.024Z"/><path fill="#555f61" d="M18.952 8.885zM30 15.335a.5.5 0 0 0-.037-.119q-2.682-.865-5.363-1.733c-1.027-.336-1.024-.342-.4-1.2l3.2-4.388a4.361 4.361 0 0 0-.969-1.181c-2.456.814-4.943 1.517-7.442 2.178l-.037-.009l.018.148c1.59 1.3 3.092 2.707 4.553 4.153q-.229 2.184-.46 4.367c-.081.751-.168 1.5-.252 2.253h.028c2.371-.914 4.7-1.931 7.112-2.743l.049-.256v-1.47Z"/><path fill="#7e813d" d="M10.819 8.455a1.382 1.382 0 0 0 .9.143a49.978 49.978 0 0 1 5.19.206a11.689 11.689 0 0 1 2.045.081l.037.009q-.579-2.155-1.156-4.312a15.49 15.49 0 0 1-.751-1.682a.95.95 0 0 0-1.149-.767a6.33 6.33 0 0 1-.848-.015c.065-.013.13-.023.2-.034a1.639 1.639 0 0 0-.2.034a.126.126 0 0 0-.115.025l-3.78 5.709c-.131.194-.249.4-.373.603Z"/><path fill="#abb130" d="m10.666 8.609l.153-.154c.124-.2.242-.409.373-.607q1.889-2.856 3.78-5.709a7.2 7.2 0 0 0-2.3.293A13.077 13.077 0 0 0 5.5 6.859l5.162 1.75Z"/><path fill="#c2ca37" d="M6.963 14.968c.117.283.277.547.417.82l3-6.484c.089-.192.2-.373.3-.559a1.231 1.231 0 0 0-.016-.136L5.5 6.859a5.988 5.988 0 0 0-1.235 1.6l2.698 6.509Z"/><path fill="#587789" d="M26.005 22.915c-1.02-1.03-2.057-2.041-3.16-2.981a26.059 26.059 0 0 0-.437 3.175c-.176 1.273-.3 2.554-.445 3.832a.576.576 0 0 1-.283.469l-3.28 2.414a13.834 13.834 0 0 0 5.057-1.953a11.727 11.727 0 0 0 3.94-3.746a5.46 5.46 0 0 1-1.392-1.21Z"/><path fill="#bcd05f" d="m9.527 25.543l.013.006l-.01-.143c-.623-2.251-1.033-4.551-1.56-6.823c-.205-.881-.374-1.77-.559-2.656H7.38l-.121.009c-.374 1.388-1.022 2.671-1.522 4.01c-.359.961-.779 1.9-1.165 2.851c-.1.243-.151.511-.444.606A9.429 9.429 0 0 0 5.95 25.7c1.197.063 2.383-.131 3.577-.157Z"/><path fill="#2e4880" d="M22.845 19.933c1.1.94 2.14 1.951 3.16 2.981a5.46 5.46 0 0 0 1.391 1.21a12.042 12.042 0 0 0 2.555-7.065c-2.41.812-4.741 1.829-7.112 2.743a.936.936 0 0 0 .006.131Z"/><path fill="#364673" d="M24.6 13.483q2.679.873 5.363 1.733A12.52 12.52 0 0 0 27.4 7.9l-3.2 4.388c-.629.853-.632.859.4 1.195Z"/><path fill="#d4e64e" d="M4.572 22.794c.386-.952.806-1.89 1.165-2.851c.5-1.339 1.148-2.622 1.522-4.01L2 15.927A13.5 13.5 0 0 0 4.128 23.4c.293-.095.346-.363.444-.606Z"/><path fill="#d5e238" d="m7.259 15.933l.121-.009a.772.772 0 0 0 0-.136c-.14-.273-.3-.537-.417-.82q-1.355-3.25-2.694-6.507A13.393 13.393 0 0 0 2 15.927Z"/><path fill="#5a614f" d="m17.833 4.582l1.156 4.312c2.5-.661 4.986-1.364 7.442-2.178a4.213 4.213 0 0 0-1.16-1.137l-5.753-.788c-.561-.076-1.118-.14-1.685-.209Z"/><path fill="#656945" d="M15.935 2.129a.95.95 0 0 1 1.149.767a15.49 15.49 0 0 0 .749 1.686c.562.069 1.124.133 1.685.209q2.877.39 5.753.788a12.066 12.066 0 0 0-5.92-3.141a10.743 10.743 0 0 0-4.068-.358c-.066.011-.131.021-.2.034a6.33 6.33 0 0 0 .852.015Z"/><path fill="#9fb96e" d="M12.823 28.556c-1.11-.992-2.2-2.007-3.3-3.013c-1.194.026-2.38.22-3.577.161a13.447 13.447 0 0 0 8.16 4.168a7.894 7.894 0 0 0-1.283-1.316Z"/><path fill="#6e897c" d="M22.688 19.8a10.538 10.538 0 0 1-2.028 1.668c-1.707 1.364-3.439 2.7-5.165 4.037a2.012 2.012 0 0 1-.378.186c0 .047-.007.094-.013.141q.006.071.015.141c2.139.232 4.218.789 6.326 1.194c.09.017.157.157.235.24a.576.576 0 0 0 .283-.469c.143-1.278.269-2.559.445-3.832a26.059 26.059 0 0 1 .437-3.175a.936.936 0 0 1-.006-.13h-.028Z"/><path fill="#899f66" d="M15.117 25.694a1.412 1.412 0 0 1-.146-.694c.1-2.342-.217-4.676-.136-7.016c.039-1.128-.189-2.236-.159-3.359a41.11 41.11 0 0 0-1.912 3.919c-1.114 2.269-2.16 4.573-3.234 6.862l.01.143c1.851.16 3.7.3 5.564.286c.006-.047.01-.094.013-.141Z"/><path fill="#647665" d="M16.613 14.156c-.562.083-1.2-.047-1.642.474l7.084 4.709c.218.144.422.309.633.464h.123c.084-.751.171-1.5.252-2.253q.233-2.184.46-4.367c-2.304.324-4.609.633-6.91.973Z"/><path fill="#869048" d="M18.952 8.885a11.689 11.689 0 0 0-2.045-.085a49.978 49.978 0 0 0-5.19-.206a1.382 1.382 0 0 1-.9-.143l-.153.154a1.231 1.231 0 0 1 .016.136a31.6 31.6 0 0 1 2.241 3.1c.609.816 1.174 1.665 1.758 2.5c1.056-1.1 1.879-2.385 2.842-3.558q.722-.879 1.447-1.755l-.018-.148Z"/><path fill="#727f5f" d="M17.523 10.788c-.963 1.173-1.786 2.46-2.842 3.558l-.016.148h.033l.273.141c.443-.521 1.08-.391 1.642-.474c2.3-.34 4.606-.649 6.91-.97c-1.461-1.446-2.963-2.848-4.553-4.153l-1.447 1.75Z"/><path fill="#a5b14b" d="m14.665 14.494l.016-.148c-.584-.834-1.149-1.683-1.758-2.5a31.6 31.6 0 0 0-2.241-3.1c-.1.186-.213.367-.3.559l-3 6.484a.772.772 0 0 1 0 .136h.031Z"/><path fill="#a4b558" d="M12.764 18.544a41.11 41.11 0 0 1 1.912-3.919c.006-.046.014-.091.022-.136h-.033l-7.254 1.438c.185.886.354 1.775.559 2.656c.527 2.272.937 4.572 1.56 6.823c1.07-2.289 2.12-4.593 3.234-6.862Zm1.934-4.055z"/><path fill="#7b916e" d="M14.676 14.625c-.03 1.123.2 2.231.159 3.359c-.081 2.34.237 4.674.136 7.016a1.412 1.412 0 0 0 .145.694a2.012 2.012 0 0 0 .378-.186c1.726-1.34 3.458-2.673 5.165-4.037a10.538 10.538 0 0 0 2.029-1.671c-.211-.155-.415-.32-.633-.464q-3.54-2.358-7.084-4.709l-.273-.141c-.008.048-.016.093-.022.139Z"/></svg>