<svg xmlns="http://www.w3.org/2000/svg" xmlns:xlink="http://www.w3.org/1999/xlink" width="32" height="32" viewBox="0 0 32 32"><path fill="#de3641" d="M2.73 6.67L15.85 2v28L4.77 23.88Z"/><path fill="#b13138" d="m15.85 2l13.42 4.59l-2.19 17.21L15.85 30Z"/><path fill="#fff" d="m15.85 5.14l8.53 18.23h-2.91l-1.82-4.16h-3.8v-2.48h2.77L15.85 11l-2.33 5.73h2.33v2.48h-3.47l-1.63 4.16H7.61Z"/><path fill="#007acc" d="M27.41 19.65a2.8 2.8 0 0 1 1.41.81a3.7 3.7 0 0 1 .54.72s-1 .69-1.57 1.06a.5.5 0 0 1-.2-.22a1.28 1.28 0 0 0-1.06-.64a.92.92 0 0 0-1.12.91a.83.83 0 0 0 .1.42a2.23 2.23 0 0 0 1.31.88c1.62.7 2.31 1.16 2.74 1.81a3.28 3.28 0 0 1 .26 2.76A3 3 0 0 1 27.31 30a7 7 0 0 1-1.72 0a4.15 4.15 0 0 1-2.3-1.2a4 4 0 0 1-.59-.87l.21-.13l.84-.48l.65-.38l.14.2a3 3 0 0 0 .86.82a2.1 2.1 0 0 0 2.2-.11a1 1 0 0 0 .13-1.25a3.7 3.7 0 0 0-1.55-.9A5.6 5.6 0 0 1 24 24.32a3 3 0 0 1-.62-1.13a4.5 4.5 0 0 1 0-1.44a2.76 2.76 0 0 1 2.32-2.15a5.7 5.7 0 0 1 1.71.05m-5.31.94v.93h-2.94v8.36h-2.08v-8.36h-2.94v-.91a9 9 0 0 1 0-.93h8v.92Z"/></svg>