<svg xmlns="http://www.w3.org/2000/svg" xmlns:xlink="http://www.w3.org/1999/xlink" width="32" height="32" viewBox="0 0 32 32"><path fill="gray" d="M23.627 14.143a7.763 7.763 0 0 0-.807-2.034l-2.034 2.034ZM11.714 16A4.286 4.286 0 0 1 16 11.714a4.225 4.225 0 0 1 1.174.184l2.717-2.718A7.849 7.849 0 0 0 9.18 19.891l2.72-2.717A4.225 4.225 0 0 1 11.714 16ZM16 20.286a4.225 4.225 0 0 1-1.174-.184l-2.717 2.718a7.844 7.844 0 0 0 11.555-5.106h-3.74A4.283 4.283 0 0 1 16 20.286Z"/><path fill="gray" d="M16 2a14 14 0 1 0 14 14A14 14 0 0 0 16 2ZM4.857 16a11.13 11.13 0 0 1 17.665-9.022L6.978 22.522A11.083 11.083 0 0 1 4.857 16ZM16 27.143a11.083 11.083 0 0 1-6.522-2.121L25.022 9.478A11.13 11.13 0 0 1 16 27.143Z"/></svg>