<svg xmlns="http://www.w3.org/2000/svg" xmlns:xlink="http://www.w3.org/1999/xlink" width="32" height="32" viewBox="0 0 32 32"><path fill="#73cfee" d="M19.24 2H4.063l1.514 2.429h13.577A6.1 6.1 0 0 1 23.55 6.3a6.371 6.371 0 0 1 1.818 4.469a5.931 5.931 0 0 1-1.786 4.295a7.538 7.538 0 0 1-4.369 2.048h-1.662l-4.583-.037l1.323 2.291H16.3l.109.175h.016l5.917 9.99l.027.046l.038.038a1.335 1.335 0 0 0 2.272-.944a.715.715 0 0 0-.206-.543a1.5 1.5 0 0 1-.189-.263l-4.891-8.325a8.605 8.605 0 0 0 6-2.562A8.8 8.8 0 0 0 19.24 2Z"/></svg>