<svg xmlns="http://www.w3.org/2000/svg" xmlns:xlink="http://www.w3.org/1999/xlink" width="32" height="32" viewBox="0 0 32 32"><path d="M2 2.887h5.075V7.51H2Zm.052 6.83H7.04v18.909H2.052Zm11.219 16.737a9.791 9.791 0 0 1-2.616-7.178a10.148 10.148 0 0 1 2.616-7.343a9.321 9.321 0 0 1 7.047-2.72a9.34 9.34 0 0 1 7.075 2.72A10.168 10.168 0 0 1 30 19.276a9.809 9.809 0 0 1-2.607 7.178a9.456 9.456 0 0 1-7.075 2.659a9.436 9.436 0 0 1-7.047-2.659Zm10.436-2.972a6.7 6.7 0 0 0 1.166-4.258a6.943 6.943 0 0 0-1.166-4.354a4.047 4.047 0 0 0-3.389-1.486a4.022 4.022 0 0 0-3.38 1.486a6.991 6.991 0 0 0-1.156 4.354a6.744 6.744 0 0 0 1.156 4.258a4.053 4.053 0 0 0 3.38 1.46a4.078 4.078 0 0 0 3.389-1.46Z"/></svg>