<svg xmlns="http://www.w3.org/2000/svg" xmlns:xlink="http://www.w3.org/1999/xlink" width="32" height="32" viewBox="0 0 32 32"><defs><linearGradient id="vscodeIconsFileTypeNpmpackagejsonlint0" x1="283.11" x2="-14.81" y1="594.56" y2="594.56" gradientTransform="translate(2 -.81)scale(.038)" gradientUnits="userSpaceOnUse"><stop offset="0" stop-color="gray"/><stop offset="1" stop-color="#ccc"/></linearGradient><linearGradient id="vscodeIconsFileTypeNpmpackagejsonlint1" x1="7.72" x2="188.21" y1="693.92" y2="572.82" gradientTransform="translate(2 -.81)scale(.038)" gradientUnits="userSpaceOnUse"><stop offset=".04" stop-color="gray"/><stop offset="1" stop-color="#ccc"/></linearGradient><linearGradient id="vscodeIconsFileTypeNpmpackagejsonlint2" x1="239.54" x2="732.04" y1="380.92" y2="380.92" gradientTransform="translate(2 -.81)scale(.038)" gradientUnits="userSpaceOnUse"><stop offset="0" stop-color="#e6e6e6"/><stop offset="1" stop-color="#999"/></linearGradient><linearGradient id="vscodeIconsFileTypeNpmpackagejsonlint3" x1="571.78" x2="716.02" y1="279.06" y2="279.06" gradientTransform="translate(2 -.82)scale(.038)" gradientUnits="userSpaceOnUse"><stop offset="0" stop-color="#999"/><stop offset="1" stop-color="gray"/></linearGradient></defs><path fill="url(#vscodeIconsFileTypeNpmpackagejsonlint0)" d="M13.4 20.82s-.59.04-1.41.65c-.82.62-2.22 1.94-3.85 2.86a23 23 0 0 1-4.16 1.81c-.9.2-1.17.12-1.49-.1a1.07 1.07 0 0 1-.46-1.13c.1-.52.89-1.59 1.7-2.4c.8-.8 1.54-1.46 3.1-2.26c1.13-.59 3.02-1.24 3.44-1.5c.96-.6.98-1.15.98-1.15"/><path fill="url(#vscodeIconsFileTypeNpmpackagejsonlint1)" d="M13.4 20.82s-.59.04-1.41.65c-.82.62-2.22 1.94-3.85 2.86a23 23 0 0 1-4.16 1.81c-.9.2-1.17.12-1.49-.1a1.07 1.07 0 0 1-.46-1.13c.1-.52.89-1.59 1.7-2.4c.8-.8 1.54-1.46 3.1-2.26c1.13-.59 3.02-1.24 3.44-1.5c.96-.6.98-1.15.98-1.15" opacity=".31"/><path fill="url(#vscodeIconsFileTypeNpmpackagejsonlint2)" d="m28.84 13.97l-12.72 7.74s-1.33.37-2.72-.89c-1.39-1.25-1.68-2-1.85-2.39a4.7 4.7 0 0 1-.27-2.73c.3-1 .56-1.1.56-1.1l12.14-8.46s.82-.68 2.04-.24c.99.36 4.06 2.2 3.98 6.02a2.3 2.3 0 0 1-1.16 2.05"/><path fill="gray" d="M28.62 8.59a4.21 2.36 57.37 0 1 .28 4.82a4.21 2.36 57.37 0 1-4.26-2.28a4.21 2.36 57.37 0 1-.28-4.81a4.21 2.36 57.37 0 1 4.26 2.27"/><path fill="#999" d="M28.6 8.6a4.15 2.33 57.37 0 1 .27 4.76a4.15 2.33 57.37 0 1-4.2-2.24a4.15 2.33 57.37 0 1-.28-4.75a4.15 2.33 57.37 0 1 4.2 2.24z"/><path fill="gray" d="M28.57 8.62a4.1 2.3 57.37 0 1 .27 4.7a4.1 2.3 57.37 0 1-4.15-2.22a4.1 2.3 57.37 0 1-.27-4.7a4.1 2.3 57.37 0 1 4.15 2.22"/><path fill="#999" d="M28.53 8.64a4.03 2.26 57.37 0 1 .27 4.62a4.03 2.26 57.37 0 1-4.07-2.18a4.03 2.26 57.37 0 1-.27-4.61a4.03 2.26 57.37 0 1 4.07 2.17"/><path fill="gray" d="M28.48 8.68a3.92 2.2 57.37 0 1 .26 4.48a3.92 2.2 57.37 0 1-3.96-2.11a3.92 2.2 57.37 0 1-.26-4.49a3.92 2.2 57.37 0 1 3.96 2.12"/><path fill="url(#vscodeIconsFileTypeNpmpackagejsonlint3)" d="M28.45 8.7a3.85 2.16 57.37 0 1 .26 4.4a3.85 2.16 57.37 0 1-3.9-2.07a3.85 2.16 57.37 0 1-.26-4.41a3.85 2.16 57.37 0 1 3.9 2.08"/><path fill="#c1272d" d="m23.85 6.23l-1.22.85c-.08.15-.23.46-.32.9c0 .16.05.43.38.3c.46-.2.48-.55.48-.55l.08-.15c.18-.66.46-1.14.6-1.35m-1.13 3.04a.6.6 0 0 0-.18.03c-.19.07-.26.19-.29.3c.04.4.12.82.3 1.3c.56 1.65 1.57 2.51 2.06 2.99a.5.5 0 0 0 .62.06a.5.5 0 0 0 .07-.78a7.5 7.5 0 0 1-2-2.87a4 4 0 0 1-.16-.62c-.01-.06-.06-.31-.28-.4a.4.4 0 0 0-.14-.01"/></svg>