<svg xmlns="http://www.w3.org/2000/svg" xmlns:xlink="http://www.w3.org/1999/xlink" width="32" height="32" viewBox="0 0 32 32"><path fill="#0f23c3" d="M24.554 20.075c.209.27 1.356.961 1.37 1.246a6.921 6.921 0 0 0-1.4-.324a16.535 16.535 0 0 1-1.412-.48a9.2 9.2 0 0 1-2.375-1.3A3.146 3.146 0 0 1 19.3 16.75a1.722 1.722 0 0 1 1.767-1.822a3.584 3.584 0 0 1 1.593.321c.146.066 1.31.606 1.256.809a5.5 5.5 0 0 0-1.41-.112c-.649.244-.4.828-.168 1.311a7.877 7.877 0 0 0 1.078 1.554c.164.194.884 1.271 1.138 1.264Z"/><path fill="#1a1978" d="M24.141 16.276c.128-.59.819-1.384 1.344-.773a4.2 4.2 0 0 1 .578 1.918c.12.656.2 1.327.261 1.982c.038.379.34 1.794.123 2.075a23.24 23.24 0 0 1-2.922-2.838a3.763 3.763 0 0 1-.925-1.7c-.1-1.073.879-.73 1.541-.664Z"/><path fill="#0f23c3" d="M26.3 17.781c.141-.732-.406-2.592-1.067-2.949a.06.06 0 0 0 .044-.007c-.156-.444-1.359 1.116-1.228 1.174c-.316-.138.774-1.984.988-2.16c.7-.578 1.372-.086 1.845.543a6.036 6.036 0 0 1 .733 4.434a4.5 4.5 0 0 1-.421 1.312c-.1.22-.45 1.1-.682 1.174a14.754 14.754 0 0 0-.212-3.521Z"/><path fill="#d2d2d2" d="M3.687 8.4c.179-.188-.041-1.527.324-1.548c.262-.015.553 1.741.627 1.968a9.2 9.2 0 0 0 1.127 2.329a7.529 7.529 0 0 0 4.016 2.978a4.55 4.55 0 0 0 2.366.2c.931-.208 1.82-.577 2.757-.765c1.35-.27 3.342-.352 4.438.647c.7.641.376.76.043 1.421a2.445 2.445 0 0 0 .178 2.562c.235.342 1.033.827.675 1.094c-.567.424-1.277-.452-1.636-.776c-1.4-1.264-2.711-1.313-4.492-1.074a8.987 8.987 0 0 1-4.883-.708A9.469 9.469 0 0 1 3.687 8.4ZM19.941 30a3.615 3.615 0 0 1-2.325-.817c.469-.092 1.021.025 1.508-.044a9.7 9.7 0 0 0 1.754-.43a10.537 10.537 0 0 0 3.022-1.554a6.55 6.55 0 0 0 2.757-5.214c.149-.088.316 1.034.319 1.091a5.789 5.789 0 0 1-.19 1.727a6.867 6.867 0 0 1-1.423 2.774A7.286 7.286 0 0 1 19.941 30Z"/><path fill="#d2d2d2" d="M18.962 19.109a5.76 5.76 0 0 1-2.05.859a13.38 13.38 0 0 1-2.224.549a8.861 8.861 0 0 1-4.435-.51a9.939 9.939 0 0 1-3.849-2.4c-.352-.367-2.104-2.417-1.548-3.05c.248-.282.875.846 1 .992a5 5 0 0 0 1.357 1.11a10.917 10.917 0 0 0 4.035 1.456a6.693 6.693 0 0 0 2.34-.094a12.743 12.743 0 0 1 1.694-.485a4 4 0 0 1 2.113.457c.344.17 1.523.743 1.567 1.116Zm9.351-4.031a19.277 19.277 0 0 1-.453 3.774c-.176-.242.016-1.47 0-1.792a6.032 6.032 0 0 0-.384-2.087a4.925 4.925 0 0 0-1.376-1.661a14.728 14.728 0 0 1-1.27-1.536c-1.837-2.382-3.245-5.211-2.9-8.3c.034-.308.069-1.448.411-1.445c.152 0 .266 1.561.29 1.718a12.527 12.527 0 0 0 1.224 4.116c.67 1.222 1.947 2.023 2.825 3.1a6.579 6.579 0 0 1 1.633 4.113ZM15.7 26.935a10.845 10.845 0 0 0 6.436-.687a6.941 6.941 0 0 0 4.278-4.418c.319.2-.048 1.529-.128 1.781a5.726 5.726 0 0 1-1.01 1.813a8.933 8.933 0 0 1-3.257 2.514c-1.703.772-5.662 1.652-6.319-1.003Z"/><path fill="#d2d2d2" d="M19.151 19.376c.367 2.107-2.957 3.124-4.478 3.213c-1.859.11-4.929-.292-6.06-2.031c-.673-1.035.781-.09 1.188.058a8.663 8.663 0 0 0 3.06.5a11.6 11.6 0 0 0 3.305-.5a13.725 13.725 0 0 0 1.533-.576c.301-.132 1.124-.691 1.452-.664Zm4.991 4.084c.4-.945-1.883-1.578-2.445-1.858a4.857 4.857 0 0 1-1.315-.867c-.181-.181-.872-.92-.807-1.219a4.912 4.912 0 0 1 1.087-.175a5.93 5.93 0 0 1 .855.588a10.323 10.323 0 0 0 .964.5a15.615 15.615 0 0 0 2.119.771c.308.09 1.549.208 1.727.428c-.04.296-1.97 2.021-2.185 1.832Z"/><path fill="#d2d2d2" d="M26.1 22.172c.265.43-1.08 1.831-1.363 2.105a9.34 9.34 0 0 1-2.566 1.728a7.748 7.748 0 0 1-2.56.753c-.679.058-1.966-.124-2.141-.979a6.951 6.951 0 0 1 1.177-.086c.462-.059.921-.149 1.376-.246a13.065 13.065 0 0 0 2.184-.645a11.506 11.506 0 0 0 2.084-1.11a10.872 10.872 0 0 0 1.078-.822c.105-.089.617-.702.731-.698Zm-7.342-10.207c-.1-1.308 2.612-1.3 3.271-1.092a5.976 5.976 0 0 1 2.982 2.475c-1.082.8-2.449.094-3.3-.654a4.324 4.324 0 0 0-1.481-1.029c-.809-.265-.818.094-1.472.3Z"/><path fill="#d2d2d2" d="M25.783 13.341c-.444-.029-.316.071-.647-.212c-.358-.307-.614-.795-.945-1.141c-.534-.558-1.242-.895-1.723-1.485a7.269 7.269 0 0 1-1.624-4.848c.018-1.489.407.187.551.675a12.276 12.276 0 0 0 1.126 2.708a46.055 46.055 0 0 0 3.4 4.321c-.039.002-.097-.021-.138-.018Zm-5.715 1.415c.033-.625-.911-.792-1.211-1.42c-.164-.343-.211-.569.029-.7c.082-.045.383.012.5-.02c.271-.076.335-.273.581-.4a1.193 1.193 0 0 1 1.633 1.021a1.821 1.821 0 0 1-1.532 1.519Z"/><path fill="#d2d2d2" d="M20.5 14.745a1.931 1.931 0 0 0 1.323-1.7c.524.139.928.658 1.521.771a2.584 2.584 0 0 0 1.029-.017c.207-.045.54-.274.721-.259c-.033.163-.464.546-.565.717a4.242 4.242 0 0 0-.388.9c-.229.741-.061.739-.709.311a4.284 4.284 0 0 0-1.957-.72c-.266-.026-.881.019-.975-.003Zm-.595 5.989a2.008 2.008 0 0 1-1.4 1.712c-.205.091-2.018.733-2.032.348c-.007-.2 1.624-.954 1.809-1.11a3.355 3.355 0 0 0 .867-1.071c.055-.112.232-.925.271-.943c.224-.106.488.93.485 1.064Zm-8.532-8.202a10.625 10.625 0 0 1 3.71-.914a10.282 10.282 0 0 1 1.865.024c.366.039 1.469.054 1.74.343a.255.255 0 0 1-.273.173c-.037.077.251.371.3.425c-.034.034-1.445-.4-1.572-.424a10.632 10.632 0 0 0-2.282-.134a16 16 0 0 0-1.841.194a6.224 6.224 0 0 1-1.647.313Zm11.139-1.801a1.888 1.888 0 0 1-1.517-.6c-.247-.349-.737-1.692-.385-2.021c.209-.2.384.662.484.846a10.822 10.822 0 0 0 1.418 1.775Zm5.276 8.469a19.212 19.212 0 0 1-.749 3.313c-.173-.077-.275-.778-.562-.95a4.07 4.07 0 0 0 .76-1.154c.152-.302.303-1.046.551-1.209Zm-7.807-7.357c-.132.268-.932 1.1-1.118.481c-.107-.356.876-.841 1.118-.481Zm-.747.45c.228.006.012-.248.012-.266c-.001-.043-.368.266-.012.266Z"/></svg>