<svg xmlns="http://www.w3.org/2000/svg" xmlns:xlink="http://www.w3.org/1999/xlink" width="32" height="32" viewBox="0 0 32 32"><path fill="#db9275" stroke="#925e4b" stroke-linecap="round" stroke-linejoin="round" stroke-width=".2" d="M28.142 6.332c-1.49-1.774-3.208-2.76-4-2.342a.27.27 0 0 1-.058.18a.275.275 0 0 1-.313.08L21.328 6.3a.3.3 0 0 1 .049.417a.29.29 0 0 1-.41.043a.3.3 0 0 1-.062-.105l-.83.7a.3.3 0 0 1-.042.153a.27.27 0 0 1-.25.092l-3.058 2.569a.28.28 0 0 1 .2.053a.3.3 0 0 1 .049.417a.29.29 0 0 1-.41.043a.27.27 0 0 1-.072-.32l-.807.678a.27.27 0 0 1 0 .313a.29.29 0 0 1-.41.043l-.006-.008l-2.566 2.156a.284.284 0 0 1 .044.4a.3.3 0 0 1-.407.056c-.032-.025-.037-.064-.056-.1l-.861.723c-.011.035-.007.074-.03.1a.28.28 0 0 1-.215.1l-2.989 2.516a.3.3 0 0 1 .167.043a.29.29 0 0 1 .043.41a.285.285 0 0 1-.4.05a.28.28 0 0 1-.091-.264l-3.78 3.176a.29.29 0 0 1 .03.394a.285.285 0 0 1-.4.05c-.029-.023-.031-.061-.049-.09l-.745.626a.26.26 0 0 1-.036.253a.28.28 0 0 1-.348.069l-.369.31a1.06 1.06 0 0 0-.244.926A.27.27 0 0 1 2 23.14a.287.287 0 1 1 .05.4a.3.3 0 0 1-.1-.165a5.3 5.3 0 0 0 .679 1.854a.28.28 0 0 1 .313 0a.29.29 0 0 1 .043.41c-.02.026-.056.026-.082.043a11 11 0 0 0 .826 1.154a6.53 6.53 0 0 0 3.414 2.427a.3.3 0 0 1-.049-.417a.29.29 0 0 1 .41-.043a.285.285 0 0 1 .05.4a.3.3 0 0 1-.113.069a.8.8 0 0 0 .434-.155l.653-.549a.3.3 0 0 1-.09-.029a.3.3 0 0 1-.057-.411a.3.3 0 0 1 .417-.049a.28.28 0 0 1 .1.179l.792-.658a.3.3 0 0 1 .05-.252a.28.28 0 0 1 .334-.071L13.97 24a.265.265 0 0 1 0-.313a.285.285 0 0 1 .4-.05l.013.015l2.728-2.291a.3.3 0 0 1-.09-.029a.29.29 0 0 1-.043-.41a.285.285 0 0 1 .4-.05a.3.3 0 0 1 .1.179l.768-.645a.29.29 0 0 1-.006-.335a.29.29 0 0 1 .41-.043c.009.007 0 .022.012.03l2.8-2.356a.27.27 0 0 1-.167-.043a.3.3 0 0 1-.049-.417a.29.29 0 0 1 .41-.043a.27.27 0 0 1 .091.264l.738-.62a.27.27 0 0 1 .034-.147a.27.27 0 0 1 .25-.092l2.995-2.504a.27.27 0 0 1-.188-.052a.285.285 0 0 1-.05-.4a.3.3 0 0 1 .411-.057a.27.27 0 0 1 .073.306l.861-.723a.265.265 0 0 1 .005-.306a.3.3 0 0 1 .411-.057l.006.008l2.39-2.007c.417-.35.318-1.184-.1-2.167a.26.26 0 0 1-.224-.048a.285.285 0 0 1-.05-.4c.011-.014.032-.013.045-.025a10 10 0 0 0-1.212-1.84m.6 1.006a.287.287 0 0 1-.353.454a.3.3 0 0 1-.057-.411a.29.29 0 0 1 .406-.042Zm-.914-.713a.287.287 0 0 1-.353.454a.3.3 0 0 1-.057-.411a.29.29 0 0 1 .406-.043Zm-.914-.713a.287.287 0 0 1-.353.454a.3.3 0 0 1-.057-.411a.29.29 0 0 1 .407-.043ZM26 5.192a.29.29 0 0 1 .043.41a.285.285 0 0 1-.4.05a.3.3 0 0 1-.057-.411a.3.3 0 0 1 .414-.049m-.914-.713a.29.29 0 0 1 .043.41a.285.285 0 0 1-.4.05a.3.3 0 0 1-.057-.411a.3.3 0 0 1 .419-.049Zm4.181 4.993a.3.3 0 0 1 .049.417a.29.29 0 0 1-.41.043a.285.285 0 0 1-.05-.4a.3.3 0 0 1 .416-.06Zm-.914-.713a.3.3 0 0 1 .049.417a.285.285 0 0 1-.4.05a.293.293 0 0 1 .354-.468Zm-.907-.706a.29.29 0 0 1 .043.41a.285.285 0 0 1-.4.05a.3.3 0 0 1-.057-.411a.3.3 0 0 1 .419-.049Zm-.914-.713a.285.285 0 0 1 .05.4a.3.3 0 0 1-.411.057a.3.3 0 0 1-.049-.417a.29.29 0 0 1 .415-.041Zm-.914-.713a.285.285 0 0 1 .05.4a.3.3 0 0 1-.411.057a.3.3 0 0 1-.049-.417a.29.29 0 0 1 .415-.041Zm3.44 4.1a.3.3 0 0 1 .057.411a.29.29 0 0 1-.41.043a.287.287 0 0 1 .353-.454M24.71 5.913a.285.285 0 0 1 .05.4a.3.3 0 0 1-.411.057a.3.3 0 0 1-.049-.417a.29.29 0 0 1 .41-.04m3.421 4.151a.287.287 0 0 1-.353.454a.3.3 0 0 1-.057-.411a.29.29 0 0 1 .41-.043M23.8 5.2a.285.285 0 0 1 .05.4a.3.3 0 0 1-.411.057a.3.3 0 0 1-.049-.417a.29.29 0 0 1 .41-.04m3.282 4.11a.3.3 0 0 1 .057.411a.3.3 0 0 1-.417.049a.29.29 0 0 1-.043-.41a.285.285 0 0 1 .399-.05Zm-.918-.71a.3.3 0 0 1 .057.411a.3.3 0 0 1-.417.049a.29.29 0 0 1-.043-.41a.285.285 0 0 1 .403-.05m-.914-.713a.3.3 0 0 1 .057.411a.29.29 0 0 1-.41.043a.287.287 0 0 1 .353-.454m-.914-.713a.3.3 0 0 1 .057.411a.29.29 0 0 1-.41.043a.287.287 0 0 1 .353-.454m3.38 4.133a.3.3 0 0 1 .057.411a.3.3 0 0 1-.417.049a.29.29 0 0 1-.043-.41a.285.285 0 0 1 .404-.057Zm-4.293-4.851a.3.3 0 0 1 .057.411a.29.29 0 0 1-.41.043a.287.287 0 1 1 .353-.454m3.38 4.133a.3.3 0 0 1 .057.411a.3.3 0 0 1-.417.049a.29.29 0 0 1-.043-.41a.285.285 0 0 1 .4-.05Zm-4.286-4.853a.3.3 0 0 1 .049.417a.29.29 0 0 1-.41.043a.285.285 0 0 1-.05-.4a.3.3 0 0 1 .411-.06m3.372 4.139a.3.3 0 0 1 .057.411a.3.3 0 0 1-.417.049a.29.29 0 0 1-.043-.41a.285.285 0 0 1 .403-.049Zm-.914-.713a.3.3 0 0 1 .057.411a.3.3 0 0 1-.417.049a.29.29 0 0 1-.043-.41a.285.285 0 0 1 .403-.05m-.914-.713a.3.3 0 0 1 .057.411a.29.29 0 0 1-.41.043a.287.287 0 0 1 .353-.454m-.914-.713a.3.3 0 0 1 .057.411a.29.29 0 0 1-.41.043a.287.287 0 0 1 .353-.454m-.906-.72a.3.3 0 0 1 .049.417a.29.29 0 0 1-.41.043a.285.285 0 0 1-.05-.4a.3.3 0 0 1 .412-.06Zm4.131 5.074a.285.285 0 0 1 .05.4a.3.3 0 0 1-.411.057a.285.285 0 0 1-.05-.4a.3.3 0 0 1 .412-.057Zm-.914-.713a.285.285 0 0 1 .05.4a.3.3 0 0 1-.411.057a.29.29 0 0 1-.043-.41a.285.285 0 0 1 .405-.047Zm-.914-.713a.285.285 0 0 1 .05.4a.3.3 0 0 1-.411.057a.29.29 0 0 1-.043-.41a.285.285 0 0 1 .406-.048Zm-.914-.713a.285.285 0 0 1 .05.4a.3.3 0 0 1-.411.057a.29.29 0 0 1-.043-.41a.285.285 0 0 1 .406-.048Zm-.914-.713a.285.285 0 0 1 .05.4a.3.3 0 0 1-.411.057a.29.29 0 0 1-.043-.41a.285.285 0 0 1 .406-.048Zm-.916-.715a.287.287 0 1 1-.4.05a.285.285 0 0 1 .4-.05m-.914-.713a.3.3 0 0 1 .057.411a.29.29 0 0 1-.41.043a.287.287 0 1 1 .353-.454m4.133 5.06a.29.29 0 0 1 .043.41a.287.287 0 1 1-.454-.353a.3.3 0 0 1 .415-.057Zm-.914-.713a.29.29 0 0 1 .043.41a.287.287 0 0 1-.454-.353a.3.3 0 0 1 .416-.057Zm-.914-.713a.29.29 0 0 1 .043.41a.287.287 0 0 1-.454-.353a.3.3 0 0 1 .42-.058Zm-.914-.713a.285.285 0 0 1 .05.4a.3.3 0 0 1-.411.057a.29.29 0 0 1-.043-.41a.285.285 0 0 1 .409-.048Zm-.914-.713a.285.285 0 0 1 .05.4a.3.3 0 0 1-.411.057a.29.29 0 0 1-.043-.41a.285.285 0 0 1 .409-.048Zm-.908-.718a.3.3 0 0 1 .057.411a.3.3 0 0 1-.417.049a.29.29 0 0 1-.043-.41a.285.285 0 0 1 .403-.05m4.211 5.138a.287.287 0 0 1-.353.454a.3.3 0 0 1-.057-.411a.29.29 0 0 1 .41-.039ZM19.541 8.59A.3.3 0 0 1 19.6 9a.3.3 0 0 1-.417.049a.29.29 0 0 1-.043-.41a.285.285 0 0 1 .401-.049m4.219 5.132a.29.29 0 0 1 .043.41a.287.287 0 0 1-.454-.353a.3.3 0 0 1 .411-.057m-.914-.713a.29.29 0 0 1 .043.41a.287.287 0 0 1-.454-.353a.3.3 0 0 1 .411-.058Zm-.914-.713a.29.29 0 0 1 .043.41a.287.287 0 1 1-.454-.353a.3.3 0 0 1 .411-.053Zm-.914-.713a.29.29 0 0 1 .043.41a.287.287 0 1 1-.454-.353a.3.3 0 0 1 .412-.058Zm-.914-.713a.285.285 0 0 1 .05.4a.3.3 0 0 1-.411.057a.285.285 0 0 1-.05-.4a.3.3 0 0 1 .407-.059Zm-.914-.713a.3.3 0 0 1 .057.411a.3.3 0 0 1-.417.049a.29.29 0 0 1-.043-.41a.285.285 0 0 1 .404-.052Zm4.125 5.067a.285.285 0 0 1 .05.4a.3.3 0 0 1-.411.057a.29.29 0 0 1-.043-.41a.285.285 0 0 1 .405-.049Zm-5.039-5.78a.3.3 0 0 1 .057.411a.3.3 0 0 1-.417.049a.29.29 0 0 1-.043-.41a.285.285 0 0 1 .404-.052Zm4.124 5.064a.287.287 0 1 1-.4.05a.285.285 0 0 1 .4-.05m-.914-.713a.287.287 0 1 1-.4.05a.285.285 0 0 1 .402-.05Zm-.914-.713a.287.287 0 1 1-.4.05a.285.285 0 0 1 .403-.05Zm-.906-.72a.29.29 0 0 1 .043.41a.287.287 0 1 1-.454-.353a.3.3 0 0 1 .414-.057Zm-.914-.713a.3.3 0 0 1 .049.417a.29.29 0 0 1-.41.043a.285.285 0 0 1-.05-.4a.3.3 0 0 1 .414-.061Zm-.914-.713a.3.3 0 0 1 .049.417a.29.29 0 0 1-.41.043a.285.285 0 0 1-.05-.4a.3.3 0 0 1 .414-.061Zm4.188 5a.29.29 0 0 1 .043.41a.285.285 0 0 1-.4.05a.3.3 0 0 1-.057-.411a.3.3 0 0 1 .417-.049Zm-.914-.713a.29.29 0 0 1 .043.41a.287.287 0 0 1-.454-.353a.3.3 0 0 1 .414-.057Zm-.914-.713a.285.285 0 0 1 .05.4a.3.3 0 0 1-.411.057a.29.29 0 0 1-.043-.41a.285.285 0 0 1 .406-.048Zm-.914-.713a.285.285 0 0 1 .05.4a.3.3 0 0 1-.411.057a.29.29 0 0 1-.043-.41a.285.285 0 0 1 .408-.044Zm-.914-.713a.285.285 0 0 1 .05.4a.3.3 0 0 1-.411.057a.29.29 0 0 1-.043-.41a.285.285 0 0 1 .408-.048Zm-.914-.713a.285.285 0 0 1 .05.4a.3.3 0 0 1-.411.057a.29.29 0 0 1-.043-.41a.285.285 0 0 1 .408-.049Zm3.289 4.118a.285.285 0 0 1 .05.4a.3.3 0 0 1-.411.057a.3.3 0 0 1-.049-.417a.29.29 0 0 1 .414-.042Zm-4.2-4.831a.287.287 0 1 1-.4.05a.285.285 0 0 1 .401-.052Zm3.289 4.118a.285.285 0 0 1 .05.4a.3.3 0 0 1-.411.057a.3.3 0 0 1-.049-.417a.29.29 0 0 1 .411-.042Zm-.914-.713a.287.287 0 0 1-.353.454a.3.3 0 0 1-.057-.411a.29.29 0 0 1 .411-.046Zm-.914-.713a.287.287 0 0 1-.353.454a.3.3 0 0 1-.057-.411a.29.29 0 0 1 .411-.046Zm-.914-.713a.287.287 0 1 1-.353.454a.3.3 0 0 1-.057-.411a.29.29 0 0 1 .412-.046Zm3.339 4.115a.287.287 0 1 1-.353.454a.3.3 0 0 1-.057-.411a.29.29 0 0 1 .411-.046Zm-4.245-4.835a.29.29 0 0 1 .043.41a.285.285 0 0 1-.4.05a.3.3 0 0 1-.057-.411a.3.3 0 0 1 .416-.052Zm3.339 4.115a.29.29 0 0 1 .043.41a.285.285 0 0 1-.4.05a.3.3 0 0 1-.057-.411a.3.3 0 0 1 .415-.052ZM15.274 12.2a.29.29 0 0 1 .043.41a.285.285 0 0 1-.4.05a.3.3 0 0 1-.057-.411a.3.3 0 0 1 .414-.049m3.339 4.115a.29.29 0 0 1 .043.41a.285.285 0 0 1-.4.05a.3.3 0 0 1-.057-.411a.3.3 0 0 1 .414-.048ZM17.7 15.6a.29.29 0 0 1 .043.41a.285.285 0 0 1-.4.05a.3.3 0 0 1-.057-.411a.3.3 0 0 1 .414-.049m-.914-.713a.29.29 0 0 1 .043.41a.285.285 0 0 1-.4.05a.3.3 0 0 1-.057-.411a.3.3 0 0 1 .413-.047Zm-.914-.713a.285.285 0 0 1 .05.4a.3.3 0 0 1-.411.057a.285.285 0 0 1-.05-.4a.3.3 0 0 1 .41-.056Zm-.914-.713a.285.285 0 0 1 .05.4a.3.3 0 0 1-.411.057a.29.29 0 0 1-.043-.41a.285.285 0 0 1 .404-.046Zm4.125 5.067a.3.3 0 0 1 .057.411a.29.29 0 0 1-.41.043a.287.287 0 1 1 .353-.454m-5.039-5.78a.285.285 0 0 1 .05.4a.3.3 0 0 1-.411.057a.29.29 0 0 1-.043-.41a.285.285 0 0 1 .404-.046Zm4.131 5.074a.287.287 0 0 1-.353.454a.3.3 0 0 1-.057-.411a.29.29 0 0 1 .41-.042Zm-.906-.72a.29.29 0 0 1 .043.41a.285.285 0 0 1-.4.05a.3.3 0 0 1-.057-.411a.3.3 0 0 1 .414-.051Zm-.914-.713a.29.29 0 0 1 .043.41a.285.285 0 0 1-.4.05a.3.3 0 0 1-.057-.411a.3.3 0 0 1 .414-.048Zm-.914-.713a.29.29 0 0 1 .043.41a.285.285 0 0 1-.4.05a.3.3 0 0 1-.057-.411a.3.3 0 0 1 .415-.048Zm-.914-.713a.29.29 0 0 1 .043.41a.285.285 0 0 1-.4.05a.3.3 0 0 1-.057-.411a.3.3 0 0 1 .415-.049Zm-.914-.713a.285.285 0 0 1 .05.4a.293.293 0 0 1-.463-.35a.3.3 0 0 1 .414-.05Zm4.125 5.067a.285.285 0 0 1 .05.4a.3.3 0 0 1-.411.057a.3.3 0 0 1-.049-.417a.29.29 0 0 1 .411-.041Zm-.914-.713a.285.285 0 0 1 .05.4a.3.3 0 0 1-.411.057a.3.3 0 0 1-.049-.417a.29.29 0 0 1 .411-.044Zm-.914-.713a.287.287 0 0 1-.353.454a.3.3 0 0 1-.057-.411a.29.29 0 0 1 .412-.044Zm-.91-.715a.287.287 0 0 1-.353.454a.3.3 0 0 1-.057-.411a.29.29 0 0 1 .41-.043m-.914-.713a.287.287 0 0 1-.353.454a.3.3 0 0 1-.057-.411a.29.29 0 0 1 .408-.043Zm-.906-.72a.29.29 0 0 1 .043.41a.285.285 0 0 1-.4.05a.3.3 0 0 1-.057-.411a.3.3 0 0 1 .412-.049Zm-.914-.713a.29.29 0 0 1 .043.41a.285.285 0 0 1-.4.05a.3.3 0 0 1-.057-.411a.3.3 0 0 1 .412-.049Zm4.2 5.131a.293.293 0 0 1-.354.468a.3.3 0 0 1-.049-.417a.285.285 0 0 1 .406-.052Zm-.907-.706a.285.285 0 0 1 .05.4a.3.3 0 0 1-.411.057a.3.3 0 0 1-.049-.417a.29.29 0 0 1 .413-.04Zm-.914-.713a.285.285 0 0 1 .05.4a.3.3 0 0 1-.411.057a.3.3 0 0 1-.049-.417a.29.29 0 0 1 .413-.041Zm-.914-.713a.285.285 0 0 1 .05.4a.3.3 0 0 1-.411.057a.3.3 0 0 1-.049-.417a.29.29 0 0 1 .413-.041Zm-.914-.713a.287.287 0 0 1-.353.454a.3.3 0 0 1-.057-.411a.29.29 0 0 1 .414-.044Zm-.914-.713a.287.287 0 0 1-.353.454a.3.3 0 0 1-.057-.411a.29.29 0 0 1 .414-.046Zm4.133 5.06a.29.29 0 0 1 .043.41a.285.285 0 0 1-.4.05a.3.3 0 0 1-.057-.411a.3.3 0 0 1 .417-.05ZM11 15.881a.29.29 0 0 1 .043.41a.285.285 0 0 1-.4.05a.3.3 0 0 1-.057-.411a.3.3 0 0 1 .414-.049m4.125 5.067a.29.29 0 0 1 .043.41a.285.285 0 0 1-.4.05a.3.3 0 0 1-.06-.408a.3.3 0 0 1 .418-.052Zm-.914-.713a.29.29 0 0 1 .043.41a.285.285 0 0 1-.4.05a.3.3 0 0 1-.057-.411a.3.3 0 0 1 .415-.049Zm-.914-.713a.285.285 0 0 1 .05.4a.3.3 0 0 1-.411.057a.3.3 0 0 1-.049-.417a.29.29 0 0 1 .413-.041Zm-.914-.713a.285.285 0 0 1 .05.4a.3.3 0 0 1-.411.057a.3.3 0 0 1-.049-.417a.29.29 0 0 1 .411-.041Zm-.914-.713a.285.285 0 0 1 .05.4a.3.3 0 0 1-.411.057a.3.3 0 0 1-.049-.417a.29.29 0 0 1 .412-.041Zm-.914-.713a.285.285 0 0 1 .05.4a.3.3 0 0 1-.411.057a.3.3 0 0 1-.049-.417a.29.29 0 0 1 .412-.042Zm4.181 4.993a.3.3 0 0 1 .057.411a.3.3 0 0 1-.417.049a.29.29 0 0 1-.043-.41a.285.285 0 0 1 .405-.051Zm-5.093-5.708a.287.287 0 1 1-.353.454a.3.3 0 0 1-.057-.411a.29.29 0 0 1 .41-.043m4.181 4.993a.3.3 0 0 1 .057.411a.29.29 0 0 1-.41.043a.287.287 0 1 1 .353-.454m-.914-.713a.3.3 0 0 1 .057.411a.285.285 0 0 1-.4.05a.3.3 0 0 1-.06-.409a.285.285 0 0 1 .404-.052Zm-.9-.712a.29.29 0 0 1 .043.41a.285.285 0 0 1-.4.05a.3.3 0 0 1-.057-.411a.3.3 0 0 1 .415-.049Zm-.914-.713a.29.29 0 0 1 .043.41a.285.285 0 0 1-.4.05a.3.3 0 0 1-.057-.411a.3.3 0 0 1 .418-.05Zm-.914-.713a.29.29 0 0 1 .043.41a.285.285 0 0 1-.4.05a.3.3 0 0 1-.057-.411a.3.3 0 0 1 .415-.05Zm3.282 4.11a.3.3 0 0 1 .049.417a.29.29 0 0 1-.41.043a.285.285 0 0 1-.05-.4a.3.3 0 0 1 .413-.061ZM9.27 18.1a.29.29 0 0 1 .043.41a.285.285 0 0 1-.4.05a.3.3 0 0 1-.057-.411a.3.3 0 0 1 .414-.049m3.282 4.11a.3.3 0 0 1 .049.417a.29.29 0 0 1-.41.043a.285.285 0 0 1-.05-.4a.3.3 0 0 1 .411-.064Zm-.914-.713a.3.3 0 0 1 .049.417a.29.29 0 0 1-.41.043a.285.285 0 0 1-.05-.4a.3.3 0 0 1 .411-.065Zm-.914-.713a.3.3 0 0 1 .049.417a.29.29 0 0 1-.41.043a.285.285 0 0 1-.05-.4a.3.3 0 0 1 .411-.065Zm-.914-.713a.3.3 0 0 1 .057.411a.3.3 0 0 1-.417.049a.29.29 0 0 1-.043-.41a.285.285 0 0 1 .404-.055Zm3.382 4.1a.287.287 0 1 1-.4.05a.285.285 0 0 1 .401-.051ZM8.9 19.352a.3.3 0 0 1 .057.411a.3.3 0 0 1-.417.049a.29.29 0 0 1-.043-.41a.285.285 0 0 1 .403-.05m3.39 4.1a.29.29 0 0 1 .043.41a.287.287 0 1 1-.454-.353a.3.3 0 0 1 .408-.058Zm-4.3-4.812a.3.3 0 0 1 .057.411a.3.3 0 0 1-.417.049a.29.29 0 0 1-.043-.41a.285.285 0 0 1 .396-.051Zm3.39 4.1a.29.29 0 0 1 .043.41a.287.287 0 0 1-.454-.353a.3.3 0 0 1 .404-.06Zm-.914-.713a.29.29 0 0 1 .043.41a.287.287 0 1 1-.454-.353a.3.3 0 0 1 .404-.06Zm-.914-.713a.3.3 0 0 1 .049.417a.29.29 0 0 1-.41.043a.285.285 0 0 1-.05-.4a.3.3 0 0 1 .405-.064Zm-.92-.714a.3.3 0 0 1 .057.411a.3.3 0 0 1-.417.049a.285.285 0 0 1-.05-.4a.3.3 0 0 1 .41-.06m-.914-.713a.3.3 0 0 1 .057.411a.3.3 0 0 1-.417.049a.29.29 0 0 1-.043-.41a.285.285 0 0 1 .403-.053Zm4.131 5.074a.287.287 0 1 1-.353.454a.3.3 0 0 1-.056-.415a.29.29 0 0 1 .409-.042ZM6.8 19.17a.3.3 0 0 1 .057.411a.3.3 0 0 1-.417.049a.29.29 0 0 1-.043-.41a.285.285 0 0 1 .403-.05m4.131 5.074a.287.287 0 1 1-.353.454a.3.3 0 0 1-.057-.411a.29.29 0 0 1 .415-.042Zm-.906-.72a.29.29 0 0 1 .043.41a.285.285 0 0 1-.4.05a.3.3 0 0 1-.057-.411a.3.3 0 0 1 .419-.048Zm-.914-.713a.29.29 0 0 1 .043.41a.285.285 0 0 1-.4.05a.3.3 0 0 1-.057-.411a.3.3 0 0 1 .419-.048ZM8.2 22.1a.29.29 0 0 1 .043.41a.285.285 0 0 1-.4.05a.3.3 0 0 1-.057-.411a.3.3 0 0 1 .414-.049m-.914-.713a.29.29 0 0 1 .043.41a.287.287 0 0 1-.454-.353a.3.3 0 0 1 .413-.059Zm-.914-.713a.285.285 0 0 1 .05.4a.3.3 0 0 1-.411.057a.285.285 0 0 1-.05-.4a.3.3 0 0 1 .414-.06Zm4.128 5.064a.285.285 0 0 1 .05.4a.3.3 0 0 1-.411.057a.3.3 0 0 1-.049-.417a.29.29 0 0 1 .41-.04m-5.039-5.78a.285.285 0 0 1 .05.4a.3.3 0 0 1-.411.057a.29.29 0 0 1-.043-.41a.285.285 0 0 1 .404-.047m4.125 5.067a.285.285 0 0 1 .05.4a.3.3 0 0 1-.411.057a.3.3 0 0 1-.049-.417a.29.29 0 0 1 .41-.04m-.914-.713a.287.287 0 1 1-.353.454a.3.3 0 0 1-.057-.411a.29.29 0 0 1 .41-.044Zm-.914-.712a.287.287 0 1 1-.4.05a.285.285 0 0 1 .4-.05m-.914-.713a.287.287 0 1 1-.4.05a.285.285 0 0 1 .401-.052Zm-.906-.72a.29.29 0 0 1 .043.41a.287.287 0 0 1-.454-.353a.3.3 0 0 1 .412-.059Zm-.914-.713a.29.29 0 0 1 .043.41a.287.287 0 0 1-.454-.353a.3.3 0 0 1 .412-.059Zm4.212 5.136a.285.285 0 0 1 .05.4a.3.3 0 0 1-.411.057a.3.3 0 0 1-.049-.417a.29.29 0 0 1 .41-.04m-.914-.713a.285.285 0 0 1 .05.4a.3.3 0 0 1-.411.057a.3.3 0 0 1-.049-.417a.29.29 0 0 1 .41-.041Zm-.914-.713a.285.285 0 0 1 .05.4a.3.3 0 0 1-.411.057a.3.3 0 0 1-.047-.415a.29.29 0 0 1 .409-.043Zm-.914-.713a.285.285 0 0 1 .05.4a.3.3 0 0 1-.411.057a.3.3 0 0 1-.049-.417a.29.29 0 0 1 .411-.041Zm-.914-.713a.287.287 0 1 1-.4.05a.285.285 0 0 1 .401-.052Zm-.914-.713a.287.287 0 1 1-.4.05a.285.285 0 0 1 .401-.052Zm-.906-.72a.29.29 0 0 1 .043.41a.287.287 0 0 1-.454-.353a.3.3 0 0 1 .412-.062Zm4.126 5.065a.29.29 0 0 1 .043.41a.285.285 0 0 1-.4.05a.3.3 0 0 1-.057-.411a.3.3 0 0 1 .414-.049m-.914-.713a.29.29 0 0 1 .043.41a.285.285 0 0 1-.4.05a.3.3 0 0 1-.057-.411a.3.3 0 0 1 .414-.049m-.914-.713a.285.285 0 0 1 .05.4a.3.3 0 0 1-.408.056a.3.3 0 0 1-.049-.417a.29.29 0 0 1 .408-.04Zm-.914-.713a.285.285 0 0 1 .05.4a.3.3 0 0 1-.411.057a.29.29 0 0 1-.043-.41a.285.285 0 0 1 .405-.048Zm-.914-.713a.285.285 0 0 1 .05.4a.3.3 0 0 1-.411.057a.29.29 0 0 1-.043-.41a.285.285 0 0 1 .405-.049Zm-.913-.718a.285.285 0 0 1 .05.4a.3.3 0 0 1-.411.057a.29.29 0 0 1-.043-.41a.285.285 0 0 1 .404-.047m3.274 4.288a.287.287 0 1 1-.353.454a.3.3 0 0 1-.057-.411a.29.29 0 0 1 .41-.04Zm-.914-.713a.287.287 0 1 1-.353.454a.3.3 0 0 1-.057-.411a.29.29 0 0 1 .411-.041Zm-.914-.713a.287.287 0 1 1-.353.454a.3.3 0 0 1-.057-.411a.29.29 0 0 1 .411-.041Zm-.906-.72a.29.29 0 0 1 .043.41a.285.285 0 0 1-.4.05a.3.3 0 0 1-.057-.411a.3.3 0 0 1 .415-.047Z"/><path fill="#c47f67" d="m20.276 12.686l.235.28c1.066 1.269 1.652 2.531 1.309 2.819l-6.706 5.633c-.343.288-1.485-.507-2.551-1.776l-.235-.28c-1.066-1.269-1.652-2.531-1.309-2.819l6.706-5.633c.343-.288 1.485.507 2.551 1.776"/><path fill="#bd7a62" d="M20.589 13.067a.287.287 0 1 0 .05.4a.285.285 0 0 0-.05-.4m.518.757l-.008.006a.285.285 0 0 0 .05.4a.26.26 0 0 0 .253.036c-.08-.137-.194-.291-.295-.442m-1.424-1.477a.3.3 0 0 0-.411.057a.287.287 0 0 0 .454.353a.29.29 0 0 0-.043-.41m-.914-.713a.3.3 0 0 0-.411.057a.285.285 0 0 0 .05.4a.29.29 0 0 0 .41-.043a.3.3 0 0 0-.049-.414m-.914-.713c-.028-.022-.065-.013-.1-.023h-.014l-.353.3a.3.3 0 0 0 .1.187a.29.29 0 0 0 .41-.043a.3.3 0 0 0-.043-.422Zm3.274 4.288a.3.3 0 0 0-.411.057a.287.287 0 1 0 .454.353a.29.29 0 0 0-.043-.411Zm-.914-.713a.285.285 0 0 0-.4.05a.29.29 0 0 0 .043.41a.3.3 0 0 0 .411-.057a.285.285 0 0 0-.054-.404Zm-.914-.713a.285.285 0 0 0-.4.05a.29.29 0 0 0 .043.41a.3.3 0 0 0 .411-.057a.285.285 0 0 0-.055-.405Zm-.914-.713a.285.285 0 0 0-.4.05a.29.29 0 0 0 .043.41a.3.3 0 0 0 .411-.057a.285.285 0 0 0-.053-.405Zm-.914-.713a.285.285 0 0 0-.4.05a.29.29 0 0 0 .043.41a.3.3 0 0 0 .411-.057a.285.285 0 0 0-.053-.405Zm3.289 4.118a.29.29 0 0 0-.41.043a.3.3 0 0 0 .049.417c.01.008.024 0 .035.01l.4-.336a.26.26 0 0 0-.073-.137Zm-4.11-4.659l-.361.3a.27.27 0 0 0 .32-.072a.28.28 0 0 0 .041-.231Zm3.2 3.946a.29.29 0 0 0-.41.043a.3.3 0 0 0 .049.417a.3.3 0 0 0 .411-.057a.285.285 0 0 0-.053-.406Zm-.914-.713a.29.29 0 0 0-.41.043a.3.3 0 0 0 .057.411a.287.287 0 1 0 .353-.454m-.914-.713a.29.29 0 0 0-.41.043a.3.3 0 0 0 .057.411a.287.287 0 0 0 .353-.454m-.914-.713a.29.29 0 0 0-.41.043a.3.3 0 0 0 .057.411a.287.287 0 0 0 .353-.454m-.91-.723a.3.3 0 0 0-.417.049a.3.3 0 0 0 .057.411a.285.285 0 0 0 .4-.05a.29.29 0 0 0-.04-.41m3.339 4.115a.3.3 0 0 0-.417.049a.3.3 0 0 0 .057.411a.285.285 0 0 0 .4-.05a.29.29 0 0 0-.039-.411Zm-.914-.713a.3.3 0 0 0-.417.049a.3.3 0 0 0 .057.411a.285.285 0 0 0 .4-.05a.29.29 0 0 0-.038-.412Zm-.914-.713a.3.3 0 0 0-.417.049a.3.3 0 0 0 .057.411a.285.285 0 0 0 .4-.05a.29.29 0 0 0-.038-.411Zm-.914-.713a.3.3 0 0 0-.417.049a.3.3 0 0 0 .057.411a.285.285 0 0 0 .4-.05a.29.29 0 0 0-.037-.412Zm-.914-.713a.3.3 0 0 0-.411.057a.285.285 0 0 0 .05.4a.3.3 0 0 0 .411-.057a.285.285 0 0 0-.048-.402Zm-.914-.713a.28.28 0 0 0-.194-.06l-.238.2a.274.274 0 0 0 .072.32a.3.3 0 0 0 .411-.057a.285.285 0 0 0-.048-.406Zm3.218 4.361a.29.29 0 0 0-.41.043a.3.3 0 0 0 .057.411a.287.287 0 0 0 .353-.454m-.906-.72a.3.3 0 0 0-.417.049a.3.3 0 0 0 .057.411a.285.285 0 0 0 .4-.05a.29.29 0 0 0-.038-.412Zm-.914-.713a.3.3 0 0 0-.417.049a.3.3 0 0 0 .057.411a.285.285 0 0 0 .4-.05a.29.29 0 0 0-.037-.413Zm-.914-.713a.3.3 0 0 0-.417.049a.3.3 0 0 0 .057.411a.285.285 0 0 0 .4-.05a.29.29 0 0 0-.037-.413Zm-.914-.713a.3.3 0 0 0-.417.049a.3.3 0 0 0 .057.411a.285.285 0 0 0 .4-.05a.29.29 0 0 0-.037-.413Zm-.871-.631l-.415.349c.008.008 0 .023.012.03a.3.3 0 0 0 .411-.057a.27.27 0 0 0-.005-.326Zm3.992 4.955a.274.274 0 0 0-.32.072a.3.3 0 0 0-.049.238Zm-.824-.684a.29.29 0 0 0-.41.043a.3.3 0 0 0 .049.417a.3.3 0 0 0 .411-.057a.285.285 0 0 0-.047-.406Zm-.914-.713a.29.29 0 0 0-.41.043a.3.3 0 0 0 .057.411a.287.287 0 1 0 .353-.454m-.914-.713a.29.29 0 0 0-.41.043a.3.3 0 0 0 .057.411a.287.287 0 1 0 .353-.454m-.914-.713a.29.29 0 0 0-.41.043a.3.3 0 0 0 .057.411a.287.287 0 0 0 .353-.454m-.906-.72a.3.3 0 0 0-.417.049a.3.3 0 0 0 .057.411a.285.285 0 0 0 .4-.05a.29.29 0 0 0-.036-.414Zm3.291 4.417a.285.285 0 0 0-.4.05a.294.294 0 0 0 .031.38l.415-.349c-.017-.031-.016-.065-.042-.085Zm-.907-.706a.29.29 0 0 0-.41.043a.3.3 0 0 0 .049.417a.3.3 0 0 0 .411-.057a.285.285 0 0 0-.046-.407Zm-.914-.713a.29.29 0 0 0-.41.043a.3.3 0 0 0 .049.417a.3.3 0 0 0 .411-.057a.285.285 0 0 0-.046-.407Zm-.914-.713a.29.29 0 0 0-.41.043a.3.3 0 0 0 .049.417a.3.3 0 0 0 .411-.057a.285.285 0 0 0-.046-.408Zm-.914-.713a.29.29 0 0 0-.41.043a.3.3 0 0 0 .057.411a.287.287 0 1 0 .353-.454m-.914-.713a.29.29 0 0 0-.41.043a.3.3 0 0 0 .057.411a.287.287 0 0 0 .353-.454m3.219 4.347a.3.3 0 0 0-.417.049a.3.3 0 0 0 .057.411c.025.02.055.011.084.022a.4.4 0 0 0 .215-.01a.3.3 0 0 0 .105-.062a.29.29 0 0 0-.039-.415Zm-.914-.713a.3.3 0 0 0-.417.049a.3.3 0 0 0 .057.411a.285.285 0 0 0 .4-.05a.29.29 0 0 0-.035-.416Zm-.914-.713a.29.29 0 0 0-.41.043a.3.3 0 0 0 .049.417a.3.3 0 0 0 .411-.057a.285.285 0 0 0-.045-.409Zm-.914-.713a.29.29 0 0 0-.4.036c.117.159.169.292.3.454a.3.3 0 0 0 .15-.087a.285.285 0 0 0-.043-.41Z"/><path fill="#a76c58" d="M17.825 11.151c-.133-.029-.258-.048-.329.012l-6.455 5.422c-.343.288.251 1.558 1.331 2.844a5.2 5.2 0 0 0 2.286 1.82a6.55 6.55 0 0 1-2.058-1.763c-1.08-1.286-1.667-2.548-1.325-2.836l6.547-5.5Z"/><path fill="#d7a08e" d="M15.06 21.24c.133.029.258.048.329-.012l6.455-5.422c.343-.288-.251-1.558-1.331-2.844a5.2 5.2 0 0 0-2.286-1.82a6.55 6.55 0 0 1 2.055 1.758c1.08 1.286 1.667 2.548 1.325 2.836l-6.547 5.5Z"/></svg>