<svg xmlns="http://www.w3.org/2000/svg" xmlns:xlink="http://www.w3.org/1999/xlink" width="32" height="32" viewBox="0 0 32 32"><path fill="#5099f9" d="M6.093 29.071V2.659h11.173A8.052 8.052 0 0 1 23.4 4.867a8.609 8.609 0 0 1 2.092 6.169a9.708 9.708 0 0 1-1.037 4.508A7.831 7.831 0 0 1 21.6 18.7l4.694 8.263v2.113h-6.081l-5.24-9.659h-2.62v9.659Zm6.26-15.017h3.857a3.291 3.291 0 0 0 2.2-.641a2.873 2.873 0 0 0 .746-2.264a2.763 2.763 0 0 0-.746-2.189a3.3 3.3 0 0 0-2.2-.641h-3.857Z"/><path fill="#415dd0" d="M6.093 2.659V10.4l6.26 2.276V8.319h3.857a3.3 3.3 0 0 1 2.2.641a2.763 2.763 0 0 1 .746 2.189a2.873 2.873 0 0 1-.746 2.264a3.291 3.291 0 0 1-2.2.641h-.061l7.51 2.731a8.442 8.442 0 0 0 .793-1.241a9.708 9.708 0 0 0 1.037-4.508a12.775 12.775 0 0 0-.107-1.652L7.73 2.659Z"/><path fill="#4469da" d="m16.466 22.164l3.747 6.907h6.077v-1.685l-9.824-5.222zm-4.113-2.546l-5.689-2.26l5.689 6.844v-4.584z"/></svg>