<svg xmlns="http://www.w3.org/2000/svg" xmlns:xlink="http://www.w3.org/1999/xlink" width="32" height="32" viewBox="0 0 32 32"><path fill="#a0b3c1" d="m18.053 12.267l4.76 7.467l.373.56l1.12-.653l-.373-.56l-4.76-7.467l-.373-.654l-1.12.653zm-5.227-.747l-4.76 7.467l-.373.56l1.12.653l.373-.467l4.76-7.467l.373-.56l-1.119-.746z"/><path fill="#a0b3c1" d="M16 13.107a4.98 4.98 0 0 0 4.947-4.947A5.06 5.06 0 0 0 16 3.12a4.98 4.98 0 0 0-4.947 4.947A5.06 5.06 0 0 0 16 13.107m0-1.307a3.644 3.644 0 0 1-3.64-3.64a3.64 3.64 0 1 1 7.28 0A3.644 3.644 0 0 1 16 11.8m9.053 17.08a4.947 4.947 0 1 0-4.947-4.947a4.98 4.98 0 0 0 4.947 4.947m0-1.307a3.644 3.644 0 0 1-3.64-3.64a3.64 3.64 0 1 1 7.28 0a3.644 3.644 0 0 1-3.64 3.64M6.947 28.88a4.947 4.947 0 1 0 0-9.893a4.947 4.947 0 1 0 0 9.893m0-1.307a3.644 3.644 0 0 1-3.64-3.64a3.706 3.706 0 0 1 3.64-3.64a3.706 3.706 0 0 1 3.64 3.64a3.644 3.644 0 0 1-3.64 3.64"/><circle cx="6.947" cy="23.933" r="1.68" fill="#5e9cff"/></svg>