<svg xmlns="http://www.w3.org/2000/svg" xmlns:xlink="http://www.w3.org/1999/xlink" width="32" height="32" viewBox="0 0 32 32"><path fill="#f1a842" d="M28.933 14.654c-.55-2.123-1.342-4.16-2.558-6.012c-.627-.956-1.37-1.824-2.384-2.374c-.492-.261-1.08-.329-1.621-.512c-.28-.096-.579-.183-.82-.347c-2.172-1.467-4.517-2.172-7.142-1.747a9.2 9.2 0 0 0-3.571 1.38c-.145.096-.29.222-.454.241c-1.66.203-2.76 1.274-3.744 2.48c-1.708 2.085-2.741 4.527-3.533 7.065c-.463 1.477.068 2.905.734 4.218c.666 1.293 1.477 2.509 2.258 3.735c.319.502.695.463.936-.078l.85-2.017c.096-.299.038-.675-.03-1.003c-.385-1.95-.665-3.9-.395-5.888c.087-.656.26-1.322.463-1.949c.058-.183.377-.29.57-.425c.116.232.367.521.309.705c-.84 2.615-.425 5.202.086 7.798c.078.386 0 .85-.135 1.226c-.135.366-.115.646.078.965c.8 1.322 1.67 2.577 3.155 3.252c.531.241.493.695-.028 1.033l1.158.424l-.222-2.808c-.02-.183-.184-.405-.338-.521c-1.042-.772-1.795-1.728-1.911-3.07a4 4 0 0 1 0-.684c.029-.329.125-.686.521-.59c.183.05.348.387.415.619c.087.308.02.656.097.965c.27 1.023.965 1.698 1.9 2.094c.271.116.715 0 1.014-.135c.348-.174.647-.483.917-.772c.126-.135.183-.367.203-.56c.038-.338-.03-.705.048-1.033c.039-.173.29-.405.444-.405s.338.232.463.396c.058.077.039.231.02.337c-.232 1.014.405 1.535 1.11 2.046c.366.27.752.3 1.138.097c1.178-.637 1.94-1.554 1.892-2.973c-.01-.357.02-.694.463-.694c.396 0 .463.328.483.656c.087 1.718-.734 2.934-2.124 3.812c-.308.193-.424.376-.434.762c0 .86-.116 1.718-.193 2.577l1.178-.444c-.493-.482-.454-.81.135-1.1c1.563-.772 2.355-2.2 3.117-3.658c.068-.135 0-.376-.068-.54c-.27-.57-.27-1.13-.144-1.737c.473-2.191.752-4.392.27-6.621c-.068-.3-.232-.589-.232-.888c0-.232.193-.463.3-.695c.192.135.492.232.578.425c.502 1.216.637 2.5.541 3.793c-.106 1.467-.367 2.924-.55 4.391c-.03.203-.048.434.02.618l.877 2.065c.222.473.58.53.879.125c1.36-1.853 2.576-3.783 3.03-6.08c.126-.627.155-1.322 0-1.93z"/><path d="M20.189 26.487c-.492-.483-.454-.811.135-1.1c1.563-.773 2.355-2.201 3.117-3.658c.068-.135 0-.377-.067-.54c-.27-.57-.27-1.13-.145-1.738c.473-2.19.753-4.391.27-6.62c-.067-.3-.231-.59-.231-.889c0-.231-.145-.463.299-.694c.415-.039.492.231.579.424c.502 1.207.637 2.5.54 3.793c-.106 1.467-.366 2.924-.55 4.391c-.029.203-.048.435.02.618l.878 2.065c.222.473.579.531.878.126c1.36-1.853 2.577-3.783 3.03-6.08c.126-.628.155-1.323 0-1.93c-.55-2.124-1.341-4.16-2.557-6.013c-.627-.956-1.37-1.824-2.384-2.374c-.492-.261-1.08-.329-1.621-.512c-.28-.096-.58-.183-.82-.347c-2.172-1.467-4.517-2.172-7.142-1.747a9.2 9.2 0 0 0-3.571 1.38c-.145.096-.29.222-.454.241c-1.66.203-2.76 1.274-3.745 2.48c-1.708 2.085-2.74 4.527-3.532 7.065c-.463 1.477.068 2.905.734 4.218c.666 1.293 1.476 2.509 2.258 3.735c.318.502.695.463.936-.078l.85-2.017c.096-.299.038-.675-.03-1.003c-.386-1.95-.665-3.9-.395-5.888c.087-.656.26-1.322.463-1.949c.058-.183.125-.425.57-.425c.51.184.366.521.308.705c-.84 2.615-.424 5.202.087 7.798c.077.386 0 .85-.135 1.226c-.135.366-.116.646.077.965c.801 1.322 1.67 2.577 3.156 3.252c.53.241.492.695-.029 1.033c-1.197-.357-2.046-1.178-2.799-2.114L8.097 22.8l-.435.772c-.463.695-1.419.859-1.93.232c-1.834-2.23-3.31-4.662-3.678-7.605c-.144-1.13.27-2.153.666-3.176c.937-2.403 2.027-4.729 3.822-6.63c.956-1.013 2.037-1.872 3.484-2.085c.126-.019.251-.096.357-.164c3.86-2.326 7.663-2.161 11.427.251c.28.174.618.31.936.348c1.554.212 2.674 1.12 3.61 2.268c1.756 2.152 2.731 4.69 3.455 7.325c.396 1.448.02 2.857-.492 4.217c-.637 1.7-1.554 3.243-2.635 4.7c-.772 1.043-1.853.975-2.47-.164c-.059-.096-.107-.193-.165-.299c-.511.705-.965 1.41-1.496 2.056c-.627.762-1.36 1.41-2.364 1.64m-7.074.337l-.222-2.808c-.02-.183-.184-.405-.338-.521c-1.042-.772-1.795-1.728-1.911-3.07a4 4 0 0 1 0-.684c.029-.329.125-.686.521-.59c.183.05.348.387.415.619c.087.308.02.656.097.965c.27 1.023.965 1.698 1.9 2.094c.271.116.715 0 1.014-.135c.348-.174.647-.483.917-.772c.126-.135.183-.367.203-.56c.038-.338-.03-.705.048-1.033c.039-.173.29-.405.444-.405s.338.232.463.396c.058.077.039.231.02.337c-.232 1.014.405 1.535 1.11 2.046c.366.27.752.3 1.138.097c1.178-.637 1.94-1.554 1.892-2.973c-.01-.357.02-.694.463-.694c.396 0 .463.328.483.656c.087 1.718-.734 2.934-2.124 3.812c-.308.193-.424.376-.434.762c0 .86-.116 1.718-.193 2.577l-.25.753c-.493 1.477-1.294 1.95-2.886 1.786c-1.38-.136-2.259-.811-2.597-2.172c-.038-.164-.106-.318-.164-.473zm.791-2.808c-.039 1.216-.01 2.384.463 3.474c.116.28.367.618.628.686c.598.164 1.235.212 1.853.24c.415.02.694-.24.859-.636c.453-1.081.588-2.21.54-3.368c0-.155-.135-.348-.26-.435l-1.41-.945c-.299-.242-.482-.27-.762 0c-.521.511-1.071.994-1.901.994z"/><path fill="#414141" d="M17.593 18.534c-1.052 0-1.815.087-2.538-.029c-.56-.087-1.1-.405-1.622-.666c-.106-.048-.125-.299-.154-.463c-.01-.068.029-.145.058-.222c.772-2.336.55-2.114 2.77-2.104h1.495c.425 0 .744.193.898.589l.56 1.448c.058.173.048.501-.068.579c-.521.366-1.08.675-1.4.859z"/><path d="M20.864 11.267c.54 0 .975.482.966 1.062c-.01.52-.377.974-.792.974c-.54 0-1.013-.395-1.013-.849c0-.801.27-1.187.83-1.197zm-7.875 1.139c0 .502-.444.897-1.013.897c-.415 0-.772-.444-.772-.974c0-.599.415-1.072.965-1.062c.55 0 .81.367.83 1.139z"/><path fill="#e55947" d="M13.906 24.016c.83 0 1.38-.483 1.901-.994c.28-.28.464-.241.763 0c.444.357.955.618 1.409.946c.125.096.26.29.26.434c.049 1.158-.086 2.287-.54 3.368c-.164.396-.454.657-.859.637c-.627-.029-1.255-.077-1.853-.241c-.26-.068-.512-.415-.627-.685c-.473-1.09-.493-2.259-.464-3.475z"/><path d="m19.398 16.932l-.599-1.505c-.154-.599-.83-.753-1.197-.753h-2.78c-.337.01-1.051.164-1.215.762c-.097.367-.463 1.216-.58 1.477c-.144.26-.202.888.705 1.419l1.245.443l.965-.694l-.019-.85h-.762v.464l-.31.222l-.79-.28c-.319-.193-.367-.348-.348-.386l.637-1.631c.039-.126.328-.184.473-.184h2.78c.144 0 .434.058.472.184c.135.501.618 1.582.637 1.63c.01.04-.029.194-.29.348l-.858.309l-.309-.222v-.454l-.753-.01v.85l.946.695l1.313-.473c.84-.502.79-1.13.656-1.36z"/></svg>