<svg xmlns="http://www.w3.org/2000/svg" xmlns:xlink="http://www.w3.org/1999/xlink" width="32" height="32" viewBox="0 0 32 32"><path fill="#A82CBB" d="M5.77 2h-.16c-.8.16-1 .5-.98 1.32v25.37c0 .91.4 1.31 1.3 1.31h20.13c.92 0 1.31-.4 1.31-1.31V12.98a1.77 1.77 0 0 0-.49-1.26L17.66 2.5A1.77 1.77 0 0 0 16.4 2H5.94a2 2 0 0 0-.17 0M21.1 2a1 1 0 0 0-.14.01c-.58.19-.78 1.08-.33 1.5l5.27 5.3c.49.46 1.46.06 1.49-.62V2.9a.92.92 0 0 0-.88-.88h-5.27a1 1 0 0 0-.14 0z"/><path fill="#f3f3f3" d="M5.94 3.31V28.7h20.12V12.94L16.44 3.3z"/><path fill="#a82cbb" d="M8.78 13.38v.65h3.06v-.65zm3.5 0v.65h3.28v-.65zm3.72 0v.65h3.28v-.65zm3.72 0v.65h3.06v-.65zM8.78 14.46v.87h3.06v-.87zm3.5 0v.87h3.28v-.87zm3.72 0v.87h3.28v-.87zm3.72 0v.87h3.06v-.87zM8.78 15.78v.88h3.06v-.88zm10.94 0v.88h3.06v-.88zM8.78 17.09v.88h3.07v-.88zm10.94 0v.88h3.06v-.88zM8.78 18.41v.87h3.06v-.87zm10.94 0v.87h3.06v-.87zM8.78 19.72v.88h3.07v-.88zm10.94 0v.88h3.06v-.88zM8.78 21.03v.88h3.07v-.88zm10.94 0v.88h3.06v-.88zM8.78 22.34v.88h3.07v-.88zm10.94 0v.88h3.06v-.88zM8.78 23.66v.87h3.07v-.87zm3.5 0v.87h3.29v-.87zm3.72 0v.87h3.28v-.87zm3.72 0v.87h3.06v-.87zM8.8 24.97v.66h3.06v-.66zm3.5 0v.66h3.28v-.66zm3.71 0v.66h3.28v-.66zm3.72 0v.66h3.07v-.66z" opacity=".6"/><path fill="#e7a8f1" d="M15.78 15.24a5.14 1.31 0 0 0-5.14 1.31a5.14 1.31 0 0 0 .07.2h-.18v1.76c0 .04 0 .08.02.12h-.02v1.86c0 .04 0 .07.02.1h-.02v1.86c0 .79 2.35 1.42 5.25 1.42s5.25-.63 5.25-1.42V20.6H21a.4.4 0 0 0 .02-.12v-1.86h-.01a.4.4 0 0 0 0-.1v-1.75h-.18a5.14 1.31 0 0 0 .08-.22a5.14 1.31 0 0 0-5.14-1.31z"/><path fill="#A82CBB" d="M15.78 14.9c-1.46 0-2.8.16-3.77.42a4.5 4.5 0 0 0-1.17.47c-.3.2-.53.44-.53.76v5.9c0 .3.22.55.52.74c.3.2.7.35 1.19.48c.97.26 2.3.42 3.76.42s2.8-.16 3.77-.42c.49-.13.9-.29 1.19-.48c.3-.19.51-.43.51-.74v-5.9c0-.3-.29-.6-.53-.76a4.5 4.5 0 0 0-1.17-.47c-.98-.26-2.3-.42-3.77-.42m0 .45c1.44 0 2.74.16 3.67.41c.46.13.83.27 1.06.42c.24.16.3.3.3.37s-.06.2-.3.36c-.24.15-.6.3-1.07.42c-.92.25-2.22.41-3.66.41s-2.74-.16-3.66-.4a4 4 0 0 1-1.07-.43c-.24-.15-.3-.29-.3-.36c0-.08.06-.21.3-.37c.24-.15.6-.3 1.07-.42c.92-.25 2.23-.41 3.66-.41m-5.03 1.88l.09.07c.3.19.69.34 1.17.47c.98.26 2.3.42 3.77.42s2.8-.16 3.77-.42c.49-.13.88-.28 1.17-.47l.1-.07v1.28c0 .1-.09.22-.32.37a4 4 0 0 1-1.06.43c-.92.25-2.22.4-3.66.4a14.7 14.7 0 0 1-3.66-.4a4 4 0 0 1-1.06-.43c-.23-.15-.31-.28-.31-.36v-.11zm0 1.97l.07.05c.3.2.7.35 1.2.48c.97.27 2.3.43 3.76.43s2.8-.16 3.77-.43c.49-.13.9-.29 1.19-.48l.07-.05v1.28c0 .1-.08.22-.31.37a4 4 0 0 1-1.06.43c-.93.25-2.23.4-3.66.4a14.7 14.7 0 0 1-3.66-.4a4 4 0 0 1-1.06-.43c-.23-.15-.31-.28-.31-.37v-.1zm0 1.97l.07.05c.3.2.7.35 1.2.48c.97.27 2.3.42 3.76.42s2.8-.16 3.77-.42c.49-.13.9-.29 1.19-.48l.07-.05v1.28c0 .09-.08.22-.31.37a4 4 0 0 1-1.06.43c-.93.25-2.23.4-3.66.4a14.7 14.7 0 0 1-3.66-.4a4 4 0 0 1-1.06-.43c-.23-.15-.31-.28-.31-.37v-.1z"/></svg>