<svg xmlns="http://www.w3.org/2000/svg" xmlns:xlink="http://www.w3.org/1999/xlink" width="32" height="32" viewBox="0 0 32 32"><defs><linearGradient id="vscodeIconsFileTypeGamemaker810" x1="16.262" x2="16.262" y1="2.974" y2="28.858" gradientUnits="userSpaceOnUse"><stop offset="0" stop-color="#535355"/><stop offset="1" stop-color="#0a0a0a"/></linearGradient><linearGradient id="vscodeIconsFileTypeGamemaker811" x1="20.703" x2="11.652" y1="23.848" y2="8.171" gradientUnits="userSpaceOnUse"><stop offset="0" stop-color="#fff"/><stop offset="1"/></linearGradient></defs><path fill="#010101" d="M11.956 2.572A18.491 18.491 0 0 1 15.343 2a1.945 1.945 0 0 1 1.057.222a1.3 1.3 0 0 1 .426.724a12 12 0 0 1 .4 2.487a10.866 10.866 0 0 1 2.838.8A15.984 15.984 0 0 1 21.7 4.324a1.319 1.319 0 0 1 .765-.42a2.252 2.252 0 0 1 1.337.415a11.109 11.109 0 0 1 2.015 1.721a11.246 11.246 0 0 1 1.559 2a4.678 4.678 0 0 1 .584 1.36c.064.292-.187.508-.362.7a17.137 17.137 0 0 1-2.1 1.629a10.716 10.716 0 0 1 .765 2.785a14.278 14.278 0 0 1 2.382.391a1.574 1.574 0 0 1 1.08.771a4.071 4.071 0 0 1 .029 2.476a23.871 23.871 0 0 1-1.109 3.737c-.239.543-.543 1.168-1.162 1.337a3.719 3.719 0 0 1-1.753-.326a12.972 12.972 0 0 1-1.5-.7a10.547 10.547 0 0 1-1.944 1.973c.269.671.555 1.343.765 2.032a2.2 2.2 0 0 1 .07 1.355a1.9 1.9 0 0 1-.49.747a4.081 4.081 0 0 1-1.109.543a30.526 30.526 0 0 1-3.275.969a5.031 5.031 0 0 1-1.769.146a1.339 1.339 0 0 1-1.016-.73a8.857 8.857 0 0 1-.712-2.9a10.556 10.556 0 0 1-2.674-.631c-.6.666-1.168 1.355-1.827 1.962a1.491 1.491 0 0 1-.87.479a2.367 2.367 0 0 1-1.325-.49a13.454 13.454 0 0 1-2.065-1.845a11.4 11.4 0 0 1-1.571-1.985a2.294 2.294 0 0 1-.368-1.518a1.362 1.362 0 0 1 .508-.788a11.327 11.327 0 0 1 1.7-1.22a10.872 10.872 0 0 1-.852-2.791a22.806 22.806 0 0 1-2.353-.514a1.726 1.726 0 0 1-.689-.356a1.539 1.539 0 0 1-.3-.882a9.3 9.3 0 0 1 .38-2.686a23.018 23.018 0 0 1 .993-3.013a2.644 2.644 0 0 1 .736-1.074a1.189 1.189 0 0 1 .9-.105a9.565 9.565 0 0 1 2.242.753A10.435 10.435 0 0 1 9.5 7.442c-.251-.782-.525-1.553-.7-2.359a1.428 1.428 0 0 1 .023-.911a2.065 2.065 0 0 1 .847-.782a10.393 10.393 0 0 1 2.289-.817m.4.4a8.741 8.741 0 0 0-2.6.963c-.269.181-.613.438-.508.812a20.694 20.694 0 0 0 .835 2.89A10.563 10.563 0 0 0 7.5 10.25a12.42 12.42 0 0 0-2.254-.829a2.1 2.1 0 0 0-.66-.07a.694.694 0 0 0-.368.327a5.621 5.621 0 0 0-.514 1.068a22.677 22.677 0 0 0-1.063 3.8a4.514 4.514 0 0 0-.053 1.4a.776.776 0 0 0 .158.385a1.615 1.615 0 0 0 .362.181v.018a13.577 13.577 0 0 0 1.349.3c.461.128.934.169 1.4.286c.029.286.088.572.14.858a10.386 10.386 0 0 0 .7 2.108l.193.42a12.423 12.423 0 0 0-2.044 1.425a1.365 1.365 0 0 0-.3.385a1.512 1.512 0 0 0 .193 1.051a5.124 5.124 0 0 0 .677 1.051a13.284 13.284 0 0 0 1 1.144a12.445 12.445 0 0 0 1.139 1.08a4.753 4.753 0 0 0 1.349.928c.2.064.432.163.625.035a5.265 5.265 0 0 0 1.179-1.1a9.9 9.9 0 0 0 .9-1.016h.018a4.327 4.327 0 0 1 .315-.339a2.889 2.889 0 0 0 .45.146a4.347 4.347 0 0 0 .841.292a11.7 11.7 0 0 0 1.95.315c.088.344.053.712.152 1.051a3.043 3.043 0 0 0 .128.782a3.63 3.63 0 0 0 .385 1.127c.864-.263 1.752-.473 2.616-.73c.461-.07.9-.239 1.355-.344c.724-.169 1.43-.385 2.143-.6a6.392 6.392 0 0 0 .718-.169a3.726 3.726 0 0 0-.228-1.033c-.07-.28-.21-.537-.292-.812c-.029-.058-.035-.146-.093-.181c-.093-.339-.269-.642-.356-.981c.321-.28.671-.531.969-.841a4.318 4.318 0 0 0 .718-.742c.228-.245.415-.52.625-.782c.058-.1.169-.029.245.012a5.139 5.139 0 0 0 .666.344a6.82 6.82 0 0 0 2.131.747a.718.718 0 0 0 .6-.2a2.554 2.554 0 0 0 .473-.759a3.744 3.744 0 0 0 .28-.777l.023-.006a27.223 27.223 0 0 0 .841-3.019a5.681 5.681 0 0 0 .134-1.506a1.257 1.257 0 0 0-.251-.771a1.309 1.309 0 0 0-.525-.3a22.2 22.2 0 0 0-2.838-.5a10.224 10.224 0 0 0-.893-3.346c.076-.07.152-.134.222-.2h.023c.514-.327 1-.695 1.483-1.068a4.72 4.72 0 0 0 .841-.794a1.1 1.1 0 0 0-.088-.362a5.506 5.506 0 0 0-.52-1.01c-.029-.023-.088-.064-.111-.088A9.724 9.724 0 0 0 24.895 5.8a6.751 6.751 0 0 0-1.787-1.3a.844.844 0 0 0-.823-.018a5.151 5.151 0 0 0-.753.718c-.467.531-.893 1.08-1.314 1.641a10.194 10.194 0 0 0-3.375-.952a.9.9 0 0 0-.076-.07a13.2 13.2 0 0 0-.4-2.744h-.006c-.076-.181-.117-.426-.321-.5a2.526 2.526 0 0 0-.981-.076a19.894 19.894 0 0 0-2.7.47Z"/><path fill="url(#vscodeIconsFileTypeGamemaker810)" d="M7.571 26.639a4.753 4.753 0 0 0 1.349.928c.2.064.432.163.625.035a5.4 5.4 0 0 0 1.179-1.1a9.318 9.318 0 0 0 .9-1.016c-.128-.006-.21.088-.292.175a.092.092 0 0 1-.022-.017l.016.011c.082-.088.163-.181.292-.175h.018c.1-.117.2-.228.315-.339a2.889 2.889 0 0 0 .45.146a6.715 6.715 0 0 0 1.713-.413l.021-.007c.128.029.251.053.385.076c.181-.146.356-.3.537-.45q-.324-.044-.648-.105c-.087.081-.186.151-.285.227c.093-.07.193-.146.286-.228c-.158-.035-.315-.076-.473-.117a8.772 8.772 0 0 1-.4-.117a8.588 8.588 0 0 1-1.769-.794h-.006a8.964 8.964 0 0 1-1.417-1.059c-.045.062-.086.13-.131.193c.047-.064.088-.134.134-.2A8.853 8.853 0 0 1 8.873 20.5a9.758 9.758 0 0 0-.004.008A8.416 8.416 0 0 1 7.642 16.8A9 9 0 0 1 8 13.379a9.79 9.79 0 0 1 .771-1.687a.863.863 0 0 1-.076-.047c-.1.086-.212.161-.316.247c.1-.088.216-.163.321-.251a.864.864 0 0 1 .076.047a7.988 7.988 0 0 1 1.232-1.606a7.239 7.239 0 0 1 1.15-1a8.651 8.651 0 0 1 2.415-1.208l.014.005a7.671 7.671 0 0 1 1.693-.356l-.111-.064h.008l.1.059c.473-.064.952-.018 1.425-.035a12.511 12.511 0 0 1 1.239.18a8.519 8.519 0 0 1 3.054 1.322h-.006a8.4 8.4 0 0 1 1.46 1.267c.035-.035.076-.07.111-.105a.721.721 0 0 1 .216-.3v.005a.693.693 0 0 0-.215.3c-.035.035-.076.064-.111.105a8.8 8.8 0 0 1 1 1.331a9.088 9.088 0 0 1 .795 1.7a3 3 0 0 0 .391-.426a3 3 0 0 1-.391.426c.053.146.093.286.134.432a.722.722 0 0 0 .175-.116a.766.766 0 0 1-.18.128c.076.3.14.607.193.917c.023.152.047.3.076.455c.029.424.041.848.029 1.273c0 .088-.006.169-.006.257c.029.08.057.16.092.24a2.16 2.16 0 0 0-.1-.234a9.329 9.329 0 0 1-.175 1.2a8.425 8.425 0 0 1-.523 1.617h.005a8.564 8.564 0 0 1-3.24 3.776a.754.754 0 0 1-.006.2a1.264 1.264 0 0 1-.35.128l.012.019l-.018-.025a1.264 1.264 0 0 0 .35-.128a.754.754 0 0 0 .006-.2a8.6 8.6 0 0 1-2.079.958a8.423 8.423 0 0 1-1.7.339a8.847 8.847 0 0 1-1.244.029a8.489 8.489 0 0 1-.654-.058c-.181.146-.362.3-.543.45a7.3 7.3 0 0 0 .921.116s-.862-.1 0 .005c-.306-.042-.61-.074-.91-.12c-.135-.021-.264-.049-.4-.078a10.394 10.394 0 0 1-1.728.432a4.619 4.619 0 0 0 .841.292a11.508 11.508 0 0 0 1.95.315c.088.344.053.706.152 1.051a3.666 3.666 0 0 0 .128.771a3.845 3.845 0 0 0 .385 1.127c.864-.263 1.752-.467 2.616-.73c.461-.076.9-.239 1.355-.344c.718-.169 1.43-.385 2.143-.6a5.842 5.842 0 0 0 .718-.169a3.68 3.68 0 0 0-.228-1.033c-.07-.28-.21-.537-.292-.812c-.029-.058-.035-.146-.093-.181c-.094-.336-.267-.639-.354-.975c.321-.28.671-.531.969-.841a4.294 4.294 0 0 0 .713-.735l.005.005c.222-.245.415-.525.625-.782c.064-.1.169-.029.245.012a5.114 5.114 0 0 0 .666.344l.01-.007a6.806 6.806 0 0 0 2.122.742a.678.678 0 0 0 .6-.2a2.762 2.762 0 0 0 .473-.759a3.358 3.358 0 0 0 .279-.77l.023-.006A26.01 26.01 0 0 0 29.3 18a5.468 5.468 0 0 0 .134-1.506l-.006-.01a1.232 1.232 0 0 0-.251-.761a1.309 1.309 0 0 0-.525-.3a21.226 21.226 0 0 0-2.838-.5a10.082 10.082 0 0 0-.893-3.346c.068-.062.142-.13.215-.193h.018c.514-.333 1-.695 1.483-1.068a4.52 4.52 0 0 0 .841-.794a.969.969 0 0 0-.088-.362a5.325 5.325 0 0 0-.52-1.01c-.023-.023-.082-.064-.111-.088a2.266 2.266 0 0 1 .222.613a1.985 1.985 0 0 1-.035.829c-.2-.321-.373-.653-.583-.968v-.007a12.447 12.447 0 0 0-1.95-2.3a8.15 8.15 0 0 0-1.363-1.088c-.193-.105-.438-.245-.66-.123a2.6 2.6 0 0 0-.683.654c-.479.584-.9 1.209-1.331 1.833a5.861 5.861 0 0 0-1.193-.629a15.147 15.147 0 0 0-2.383-.55c-.006-.146-.018-.286-.018-.426l.058-.012c-.018-.018-.058-.053-.076-.07a13.6 13.6 0 0 0-.4-2.744h-.006a3.646 3.646 0 0 0-.9-.1a12.171 12.171 0 0 0-2.511.362a13.782 13.782 0 0 0-2.2.666a2.544 2.544 0 0 0-.847.5c-.158.134-.064.356-.047.531c.14.963.479 1.88.654 2.838A6.886 6.886 0 0 0 8.7 9.479c-.374.5-.742 1-1.08 1.524a10.927 10.927 0 0 0-2.283-.975a.986.986 0 0 0-.648 0a1.192 1.192 0 0 0-.35.52a21.544 21.544 0 0 0-.724 2.09a9.408 9.408 0 0 0-.515 3.614c.012.088 0 .175.012.263v.018c.45.093.887.245 1.349.3l.339-.062l-.334.062c.455.128.934.175 1.4.286c.035.286.088.572.14.858a3.12 3.12 0 0 0 .314.018a3.1 3.1 0 0 1-.32-.021a10.268 10.268 0 0 0 .7 2.108h.009c.063.138.12.275.184.413c.07.158.146.321.222.479c-.619.415-1.244.823-1.822 1.284a1.356 1.356 0 0 0-.415.572l.07.07c.047 0 .094.023.134.023a1.208 1.208 0 0 1 .269-.152c.474-.144.953-.22 1.425-.362c.688-.207 1.378-.4 2.073-.59c.082-.006.187-.064.251.012c.35.354.753.656 1.127.981c.07.086.176.042.259.018c-.088.023-.189.069-.259-.018c-.374-.327-.777-.625-1.127-.981c-.064-.076-.169-.023-.251-.012c-.695.187-1.39.374-2.073.59c-.473.14-.958.222-1.425.362a.939.939 0 0 0-.269.152c-.047 0-.093-.023-.134-.023l-.07-.07a2.829 2.829 0 0 0-.128.543a5.174 5.174 0 0 0 .667 1.037a14.365 14.365 0 0 0 1 1.144a13.25 13.25 0 0 0 1.139 1.08"/><path fill="url(#vscodeIconsFileTypeGamemaker811)" d="m25.215 15.529l-.012-.2c0-.056-.009-.111-.014-.167q-.034-.372-.1-.735c.023.153.045.307.062.46l.018.137l-.018-.137c-.017-.156-.04-.312-.064-.468h-.006a5.024 5.024 0 0 0-.291-1.088l.005-.008a3.855 3.855 0 0 1 .165.5a8.98 8.98 0 0 0-.41-1.249l-.022-.054a9.008 9.008 0 0 0-.426-.883q-.1-.184-.212-.363q-.209-.34-.447-.66q-.269-.361-.571-.694l-.072-.076v-.006a9.1 9.1 0 0 0-1.363-1.2l-.037-.019q-.167-.118-.339-.229a9 9 0 0 0-2.8-1.187c-.014.024-.027.049-.042.072l.042-.072a9.019 9.019 0 0 0-1.024-.18a9.14 9.14 0 0 0-1.065-.063q-.462 0-.913.046c.168.023.336.052.5.068v.005c-.168-.021-.332-.047-.5-.073A9.037 9.037 0 0 0 7.923 12.3a.284.284 0 0 0 .221-.1c.04.023.079.051.119.079v.008c-.041-.023-.082-.053-.123-.082a.287.287 0 0 1-.218.1a8.982 8.982 0 0 0-.564 1.682a9.1 9.1 0 0 0 .054 4.272a9 9 0 0 0 1.138 2.62A9.093 9.093 0 0 0 9.976 22.6c.085.071.17.142.253.215s.172.037.259.018c-.088.023-.193.07-.263-.018c-.06-.053-.122-.1-.183-.157a9.038 9.038 0 0 0 3.109 1.878q.136.048.273.092q.271.086.55.156t.58.125c.168-.137.331-.283.5-.419q-.324-.044-.648-.105c-.087.081-.186.151-.285.227c.093-.07.193-.146.286-.228c-.158-.035-.315-.076-.473-.117a8.772 8.772 0 0 1-.4-.117a8.588 8.588 0 0 1-1.769-.794h-.006a8.964 8.964 0 0 1-1.414-1.056c-.045.062-.086.13-.131.193c.047-.064.088-.134.134-.2A8.853 8.853 0 0 1 8.873 20.5a9.758 9.758 0 0 0-.004.008A8.416 8.416 0 0 1 7.642 16.8A9 9 0 0 1 8 13.379a9.79 9.79 0 0 1 .771-1.687a.863.863 0 0 1-.076-.047c-.1.086-.212.161-.316.247c.1-.088.216-.163.321-.251a.864.864 0 0 1 .076.047a7.988 7.988 0 0 1 1.232-1.606a7.239 7.239 0 0 1 1.15-1a8.651 8.651 0 0 1 2.415-1.208l.014.005a7.671 7.671 0 0 1 1.693-.356l-.111-.064h.008l.1.059c.473-.064.952-.018 1.425-.035a12.511 12.511 0 0 1 1.239.18a8.519 8.519 0 0 1 3.054 1.322h-.006a8.4 8.4 0 0 1 1.46 1.267c.035-.035.076-.07.111-.105a.721.721 0 0 1 .216-.3v.005a.693.693 0 0 0-.215.3c-.035.035-.076.064-.111.105a8.8 8.8 0 0 1 1 1.331a9.088 9.088 0 0 1 .795 1.7a3 3 0 0 0 .391-.426a3 3 0 0 1-.391.426c.053.146.093.286.134.432a.722.722 0 0 0 .175-.116a.766.766 0 0 1-.18.128c.076.3.14.607.193.917c.023.152.047.3.076.455c.029.424.041.848.029 1.273c0 .088-.006.169-.006.257c.029.08.057.16.092.24a2.16 2.16 0 0 0-.1-.234a9.329 9.329 0 0 1-.175 1.2a8.425 8.425 0 0 1-.523 1.617h.005a8.564 8.564 0 0 1-3.24 3.776a.754.754 0 0 1-.006.2a1.264 1.264 0 0 1-.35.128l.012.019l-.018-.025a1.264 1.264 0 0 0 .35-.128a.754.754 0 0 0 .006-.2a8.6 8.6 0 0 1-2.079.958a8.423 8.423 0 0 1-1.7.339a8.847 8.847 0 0 1-1.244.029a8.489 8.489 0 0 1-.654-.058c-.169.136-.333.282-.5.419q.431.078.875.114q.367.03.741.03h.2a8.994 8.994 0 0 0 4.006-1.031a6.282 6.282 0 0 0-.174-.213a1.058 1.058 0 0 0 .257-.128l-.013-.022l.019.028a.963.963 0 0 1-.257.128c.054.065.114.136.169.207a9.081 9.081 0 0 0 4.237-4.746c.02-.053.041-.107.06-.161l.007-.019l.021-.06q.089-.249.163-.5c.075-.265.137-.533.193-.8l.006-.034v-.005q.051-.265.085-.531v.007a9.137 9.137 0 0 0 .073-1.155q.017-.255.005-.494Z"/><path fill="#b2b3b7" d="M12.359 2.969a19.16 19.16 0 0 1 2.7-.467a2.314 2.314 0 0 1 .981.076c.21.076.251.321.321.5a3.389 3.389 0 0 0-.9-.1a12.114 12.114 0 0 0-2.511.362a14.46 14.46 0 0 0-2.2.66a2.645 2.645 0 0 0-.847.5c-.158.14-.064.356-.047.531c.14.963.479 1.88.654 2.838A6.886 6.886 0 0 0 8.7 9.475c-.374.5-.742 1-1.08 1.524a10.8 10.8 0 0 0-2.283-.975a.986.986 0 0 0-.648 0a1.144 1.144 0 0 0-.35.52a22.1 22.1 0 0 0-.724 2.09a9.3 9.3 0 0 0-.515 3.618c.012.088 0 .175.012.263a1.4 1.4 0 0 1-.362-.181a.776.776 0 0 1-.158-.385a4.343 4.343 0 0 1 .053-1.4a21.99 21.99 0 0 1 1.063-3.8a6 6 0 0 1 .512-1.071a.742.742 0 0 1 .368-.327a2.288 2.288 0 0 1 .66.07a12.42 12.42 0 0 1 2.252.829a10.561 10.561 0 0 1 2.581-2.616a20.694 20.694 0 0 1-.835-2.89c-.105-.374.239-.631.508-.812a8.741 8.741 0 0 1 2.605-.963Zm9.926 1.524c.239-.193.566-.082.823.018a6.751 6.751 0 0 1 1.787 1.3a9.724 9.724 0 0 1 1.868 2.249a3.832 3.832 0 0 1 .237.608a2.2 2.2 0 0 1-.035.829c-.2-.321-.374-.654-.584-.969a12.447 12.447 0 0 0-1.95-2.3a8.393 8.393 0 0 0-1.366-1.086c-.2-.105-.438-.245-.66-.123a2.448 2.448 0 0 0-.683.66c-.479.584-.9 1.2-1.325 1.827a6.5 6.5 0 0 0-1.2-.631a16.575 16.575 0 0 0-2.382-.549c-.006-.14-.018-.28-.018-.426l.058-.012a10.019 10.019 0 0 1 3.375.952c.415-.561.847-1.109 1.308-1.629a4.361 4.361 0 0 1 .747-.718ZM4.857 21.927A12.423 12.423 0 0 1 6.9 20.5c.076.158.146.321.222.479c-.622.421-1.238.821-1.822 1.287a1.356 1.356 0 0 0-.415.572a2.777 2.777 0 0 0-.134.525a1.452 1.452 0 0 1-.193-1.051a1.182 1.182 0 0 1 .299-.385Z"/><path d="M15.284 7.512c.473-.064.952-.018 1.425-.035c.415.041.829.1 1.244.181a8.518 8.518 0 0 1 3.059 1.325a8.615 8.615 0 0 1 1.46 1.267a9.657 9.657 0 0 1 1 1.331a8.73 8.73 0 0 1 .8 1.7c.047.14.093.286.134.432c.076.3.14.607.193.917c.023.152.047.3.076.455c.029.426.041.852.029 1.279c-.006.082-.006.169-.006.257a9.329 9.329 0 0 1-.175 1.2A8.416 8.416 0 0 1 24 19.457a8.633 8.633 0 0 1-3.24 3.778a8.721 8.721 0 0 1-2.079.958a8.847 8.847 0 0 1-1.7.339a9.829 9.829 0 0 1-1.244.029c-.222-.012-.438-.029-.654-.058s-.432-.064-.648-.105c-.158-.035-.315-.076-.473-.117a8.772 8.772 0 0 1-.4-.117a8.588 8.588 0 0 1-1.769-.794a9.205 9.205 0 0 1-1.437-1.07a8.853 8.853 0 0 1-1.471-1.8a8.516 8.516 0 0 1-1.063-2.627a8.309 8.309 0 0 1-.163-1.08a9.118 9.118 0 0 1 .362-3.416a10 10 0 0 1 .771-1.687a7.876 7.876 0 0 1 1.232-1.606a7.546 7.546 0 0 1 1.15-1a8.492 8.492 0 0 1 2.435-1.214a7.318 7.318 0 0 1 1.676-.356m-4.934 2.736a7.712 7.712 0 0 0-2.225 4.379a.979.979 0 0 0-.047.432l-.012-.053a6.96 6.96 0 0 0 0 1.635l.006-.041a6.431 6.431 0 0 0 .333 1.717a1.519 1.519 0 0 0 .029.228a8.024 8.024 0 0 0 5.173 5.208a8.324 8.324 0 0 0 3.842.315a8.165 8.165 0 0 0 4.934-2.715a7.809 7.809 0 0 0 1.886-4.472a8.707 8.707 0 0 0-.023-1.46a3.866 3.866 0 0 0-.076-.636c-.012-.035-.029-.111-.041-.146l.023.035c-.012-.1-.023-.2-.041-.3h-3.731a.564.564 0 0 0-.257.053c-1.168.543-2.347 1.063-3.509 1.629a1.6 1.6 0 0 0-.234.088a3.545 3.545 0 0 0 .333.251l-.263.123a2.981 2.981 0 0 0 .87.566a4.96 4.96 0 0 0 2.8.368c.234-.029.455-.111.689-.123a4.9 4.9 0 0 1-3.024 3.048a5.025 5.025 0 0 1-3.836-.222a4.878 4.878 0 0 1-2.312-2.37a4.723 4.723 0 0 1-.409-2.044l.053.053A4.866 4.866 0 0 1 13.2 12.4a4.976 4.976 0 0 1 3.725-.946a4.883 4.883 0 0 1 2.7 1.325a1.632 1.632 0 0 0 2.1.029a1.587 1.587 0 0 0 .572-1.355a1.927 1.927 0 0 0-.105.187a.889.889 0 0 0 .064-.35a1.585 1.585 0 0 0-.385-1.08A8.141 8.141 0 0 0 17 7.932a2.231 2.231 0 0 0-.485-.023a4.01 4.01 0 0 0-.794 0a8.064 8.064 0 0 0-5.366 2.341m6.231 2.95a1.653 1.653 0 0 0 .263.829a.943.943 0 0 0 .251.4a.424.424 0 0 0 .642-.222a.46.46 0 0 0-.053-.339c.058-.309-.146-.561-.251-.835c-.088-.2-.2-.467-.455-.473a.426.426 0 0 0-.397.64Z"/><path fill="#d0e27f" d="M10.351 10.25a8.07 8.07 0 0 1 5.365-2.35a1.413 1.413 0 0 0 .794 0a2.249 2.249 0 0 1 .49.026a8.141 8.141 0 0 1 4.864 2.274a1.585 1.585 0 0 1 .385 1.08a.8.8 0 0 1-.064.35a1.672 1.672 0 0 1-.642.876a1.616 1.616 0 0 1-1.991-.128a4.919 4.919 0 0 0-2.446-1.267a4.968 4.968 0 0 0-3.573.631a4.829 4.829 0 0 0-2.26 3.316a12.524 12.524 0 0 0-.4-.134a25.747 25.747 0 0 1-2.592-.911a1.934 1.934 0 0 1-.158.619a7.754 7.754 0 0 1 2.228-4.382Zm6.259 5.798c1.156-.566 2.335-1.086 3.509-1.629c1.29.018 2.587-.012 3.877.018c.041.07.093.128.128.2c.012.035.029.111.041.146s-.006.093-.006.123a7.673 7.673 0 0 0-1.022.251a20.936 20.936 0 0 1-4.169.648a14.217 14.217 0 0 1-1.576.047a4.266 4.266 0 0 0-.782.196Z"/><path fill="#28663a" d="M13.533 11.745a4.978 4.978 0 0 1 6.014.636a1.608 1.608 0 0 0 1.991.128a1.672 1.672 0 0 0 .642-.876a1.506 1.506 0 0 1 .105-.187a1.572 1.572 0 0 1-.572 1.355a1.625 1.625 0 0 1-2.1-.029a4.9 4.9 0 0 0-2.7-1.325a4.969 4.969 0 0 0-3.725.946a4.875 4.875 0 0 0-1.915 3.392l-.053-.053a3.224 3.224 0 0 1 .053-.671a4.8 4.8 0 0 1 2.26-3.316Zm10.708 3.678a8.129 8.129 0 0 1 .023 1.46a7.77 7.77 0 0 1-1.886 4.472a8.136 8.136 0 0 1-4.934 2.715a8.318 8.318 0 0 1-3.842-.315a8.036 8.036 0 0 1-5.172-5.208a2.96 2.96 0 0 1-.029-.228c.134.315.251.642.409.952a7.929 7.929 0 0 0 1.933 2.5a8.142 8.142 0 0 0 4.893 1.985c.193.011.387.019.58.019c.219 0 .431-.017.646-.036a8.122 8.122 0 0 0 6.7-4.723a8 8 0 0 0 .677-3.6"/><path fill="#cfe280" d="M16.586 13.2a.426.426 0 0 1 .4-.642c.257.006.374.269.455.473c.105.269.315.525.251.835a.452.452 0 0 1-.724.111a7.348 7.348 0 0 1-.382-.777Z"/><path fill="#27653a" d="M16.586 13.2a6.856 6.856 0 0 0 .385.777a.452.452 0 0 0 .724-.111a.46.46 0 0 1 .053.339a.421.421 0 0 1-.642.222a.943.943 0 0 1-.251-.4a1.588 1.588 0 0 1-.269-.827Z"/><path fill="#b2d33c" d="M8.12 14.629c.029-.222.07-.42.117-.636a25.171 25.171 0 0 0 2.633.928c.134.041.269.088.4.134a3.256 3.256 0 0 0-.053.671a4.64 4.64 0 0 0 .409 2.044a4.878 4.878 0 0 0 2.312 2.37a5 5 0 0 0 3.836.222a4.913 4.913 0 0 0 3.026-3.047a4.246 4.246 0 0 0 .128-.467a4.964 4.964 0 0 1-4.227-.467a3.545 3.545 0 0 1-.333-.251a1.6 1.6 0 0 1 .234-.088a3.975 3.975 0 0 1 .777-.193a14.175 14.175 0 0 0 1.576-.047a21.368 21.368 0 0 0 4.169-.648a6.214 6.214 0 0 1 1.022-.251c0-.029.006-.093.006-.123a3.866 3.866 0 0 1 .076.636a7.924 7.924 0 0 1-4.286 7.421a8.126 8.126 0 0 1-3.094.9a8.22 8.22 0 0 1-.646.036c-.2-.007-.389 0-.58-.019a8.142 8.142 0 0 1-4.893-1.985a7.929 7.929 0 0 1-1.933-2.5c-.152-.309-.274-.631-.409-.952a6.417 6.417 0 0 1-.35-1.711a22.769 22.769 0 0 1-.035-.952"/><path fill="#28653a" d="M16.709 16.386a4.964 4.964 0 0 0 4.227.467c-.041.158-.082.315-.128.467c-.234.012-.455.093-.689.123a4.967 4.967 0 0 1-2.8-.368a2.981 2.981 0 0 1-.87-.566l.263-.123"/></svg>