<svg xmlns="http://www.w3.org/2000/svg" xmlns:xlink="http://www.w3.org/1999/xlink" width="32" height="32" viewBox="0 0 32 32"><defs><linearGradient id="vscodeIconsFileTypeOpencl0" x1="29.662" x2="21.419" y1="18.026" y2="20.234" gradientUnits="userSpaceOnUse"><stop offset="0" stop-color="red"/><stop offset="1" stop-color="#ff6a6a"/></linearGradient><linearGradient id="vscodeIconsFileTypeOpencl1" x1="24.588" x2="18.776" y1="9.748" y2="15.56" href="#vscodeIconsFileTypeOpencl0"/><linearGradient id="vscodeIconsFileTypeOpencl2" x1="18.466" x2="15.924" y1="6.619" y2="13.603" gradientUnits="userSpaceOnUse"><stop offset="0" stop-color="#cfa40c"/><stop offset="1" stop-color="#edd480"/></linearGradient><linearGradient id="vscodeIconsFileTypeOpencl3" x1="13.17" x2="13.17" y1="6.51" y2="12.997" href="#vscodeIconsFileTypeOpencl2"/><linearGradient id="vscodeIconsFileTypeOpencl4" x1="8.808" x2="10.988" y1="8.486" y2="13.161" href="#vscodeIconsFileTypeOpencl2"/><linearGradient id="vscodeIconsFileTypeOpencl5" x1="5.505" x2="8.546" y1="11.477" y2="14.519" gradientUnits="userSpaceOnUse"><stop offset="0" stop-color="#11a119"/><stop offset="1" stop-color="#37ae3d"/></linearGradient><linearGradient id="vscodeIconsFileTypeOpencl6" x1="3.639" x2="6.883" y1="14.285" y2="16.158" href="#vscodeIconsFileTypeOpencl5"/><linearGradient id="vscodeIconsFileTypeOpencl7" x1="2.265" x2="5.379" y1="17.799" y2="18.933" href="#vscodeIconsFileTypeOpencl5"/><linearGradient id="vscodeIconsFileTypeOpencl8" x1="2" x2="4.833" y1="21.614" y2="21.614" href="#vscodeIconsFileTypeOpencl5"/><linearGradient id="vscodeIconsFileTypeOpencl9" x1="20.662" x2="18.026" y1="18.949" y2="17.428" gradientUnits="userSpaceOnUse"><stop offset=".5" stop-color="#646464"/><stop offset="1" stop-color="#cbcbcb"/></linearGradient><linearGradient id="vscodeIconsFileTypeOpencla" x1="16.021" x2="16.021" y1="25.264" y2="22.691" href="#vscodeIconsFileTypeOpencl9"/></defs><path fill="url(#vscodeIconsFileTypeOpencl0)" d="M27.828 13.574a15 15 0 0 1 .835 1.542A14.96 14.96 0 0 1 29.92 22.9h-7.787a10.4 10.4 0 0 0-.967-4.424Z"/><path fill="url(#vscodeIconsFileTypeOpencl1)" d="M17.753 14.43a10.1 10.1 0 0 1 2.772 2.878l6.273-5.2a15.5 15.5 0 0 0-4.988-4.15Z"/><path fill="url(#vscodeIconsFileTypeOpencl2)" d="M14.781 13.086a8.8 8.8 0 0 1 2.376.966l3.509-6.622a12.7 12.7 0 0 0-4.645-.952Z"/><path fill="url(#vscodeIconsFileTypeOpencl3)" d="m14.364 13l.612-6.488a12.5 12.5 0 0 0-3.611.813l.507 5.638a7.2 7.2 0 0 1 2.492.037"/><path fill="url(#vscodeIconsFileTypeOpencl4)" d="m10.948 13.179l-.683-5.373a14.6 14.6 0 0 0-2.492 1.573l1.74 4.42a7.5 7.5 0 0 1 1.435-.619"/><path fill="url(#vscodeIconsFileTypeOpencl5)" d="m8.86 14.206l-2.386-3.695c-.453.44-.79.82-1.006 1.074q-.227.267-.436.538l2.448 3.264a9 9 0 0 1 1.38-1.182"/><path fill="url(#vscodeIconsFileTypeOpencl6)" d="m7.046 15.875l-2.711-2.763a14.3 14.3 0 0 0-1.25 2.429l3.007 1.71a10 10 0 0 1 .954-1.376"/><path fill="url(#vscodeIconsFileTypeOpencl7)" d="m5.527 18.393l-2.77-1.945a15.5 15.5 0 0 0-.63 2.83l2.906.607a10 10 0 0 1 .494-1.492"/><path fill="url(#vscodeIconsFileTypeOpencl8)" d="M4.833 20.9a10.7 10.7 0 0 0-.1 2h-2.64a14.3 14.3 0 0 1-.064-2.573Z"/><path fill="url(#vscodeIconsFileTypeOpencl9)" d="m22.551 12.478l-7.8 10.622a1.544 1.544 0 0 1 2.749 1.328Z"/><path fill="#646464" d="M16.021 25.522a1.544 1.544 0 1 1 1.092-.452a1.53 1.53 0 0 1-1.092.452"/><path fill="url(#vscodeIconsFileTypeOpencla)" d="M17.308 23.978a1.287 1.287 0 1 1-.377-.91a1.28 1.28 0 0 1 .377.91"/></svg>