<svg xmlns="http://www.w3.org/2000/svg" xmlns:xlink="http://www.w3.org/1999/xlink" width="32" height="32" viewBox="0 0 32 32"><path fill="#d8a303" d="M13.046 15.584a2.1 2.1 0 0 0-1.231-.3a2.18 2.18 0 0 0-1.751.859a3.6 3.6 0 0 0-.7 2.337V23H7v-9.457h2.361v1.949H9.4a3.27 3.27 0 0 1 1.064-1.556a2.54 2.54 0 0 1 1.6-.559a2.2 2.2 0 0 1 .977.176Z"/><path d="M25 23h-2.361v-5.172q0-2.806-2.067-2.807a2.24 2.24 0 0 0-1.75.813a3.03 3.03 0 0 0-.713 2.078V23h-2.372V9h2.372v6.113h.041a3.81 3.81 0 0 1 3.379-1.791q3.471 0 3.471 3.851Z"/></svg>