<svg xmlns="http://www.w3.org/2000/svg" xmlns:xlink="http://www.w3.org/1999/xlink" width="32" height="32" viewBox="0 0 32 32"><path d="M29.507 18.773a1.378 1.378 0 0 0-1.144-.921a2.619 2.619 0 0 0-.913.051a8.2 8.2 0 0 1-1.406.185a27.125 27.125 0 0 0 2.872-6.83c.953-3.689.444-5.369-.151-6.13A8.239 8.239 0 0 0 22.121 2a11.773 11.773 0 0 0-3.453.484a12.858 12.858 0 0 0-2.02-.184a6.565 6.565 0 0 0-3.518.867a16.039 16.039 0 0 0-2.484-.624a7.694 7.694 0 0 0-5.819.924C3.093 4.691 2.289 6.819 2.438 9.792a36.351 36.351 0 0 0 1.406 6.538a22.579 22.579 0 0 0 1.514 3.863A4.786 4.786 0 0 0 7.8 22.742a2.4 2.4 0 0 0 2.379-.516a2.08 2.08 0 0 0 .5.43a3.328 3.328 0 0 0 .944.4a5.069 5.069 0 0 0 3.3-.2c.006.171.011.335.014.477c.006.229.013.454.021.665a11.641 11.641 0 0 0 .441 3.3c.016.043.037.107.059.176a3.975 3.975 0 0 0 .991 1.745a2.955 2.955 0 0 0 2.09.777a4.7 4.7 0 0 0 .977-.109a4.592 4.592 0 0 0 3.091-1.787c.811-1.155 1.206-2.894 1.277-5.635l.026-.222l.017-.145l.191.017h.049a7.562 7.562 0 0 0 3.163-.548c.631-.293 2.654-1.361 2.177-2.8"/><path fill="#336791" d="M27.689 19.053c-3.163.652-3.38-.418-3.38-.418c3.339-4.955 4.735-11.245 3.53-12.784c-3.286-4.2-8.975-2.213-9.07-2.162l-.031.006a11.28 11.28 0 0 0-2.11-.22a5.212 5.212 0 0 0-3.34 1S3.14.294 3.612 9.733c.1 2.008 2.878 15.194 6.191 11.211c1.211-1.456 2.381-2.688 2.381-2.688a3.071 3.071 0 0 0 2.006.512l.057-.048a2.21 2.21 0 0 0 .023.567c-.854.954-.6 1.121-2.309 1.472c-1.726.356-.712.989-.05 1.155a3.508 3.508 0 0 0 3.915-1.272l-.05.2c.334.268.569 1.742.53 3.079a8.481 8.481 0 0 0 .2 2.971c.264.717.526 2.329 2.769 1.849a3.307 3.307 0 0 0 2.98-3.179c.1-1.234.313-1.052.326-2.155l.174-.522c.2-1.673.032-2.213 1.186-1.962l.281.025a6.4 6.4 0 0 0 2.615-.44c1.406-.652 2.239-1.742.853-1.455"/><path fill="#fff" d="M13.882 10.631a.981.981 0 0 0-.674.1a.247.247 0 0 0-.1.164a.48.48 0 0 0 .117.314a.881.881 0 0 0 .559.349a.637.637 0 0 0 .09.006a.725.725 0 0 0 .687-.467c.035-.248-.326-.414-.676-.463m9.442.008c-.027-.195-.374-.25-.7-.2s-.647.194-.62.389a.667.667 0 0 0 .62.411a.592.592 0 0 0 .083-.006a.8.8 0 0 0 .451-.247a.5.5 0 0 0 .169-.343"/><path fill="#fff" d="M28.741 18.979c-.121-.365-.509-.482-1.154-.349c-1.915.4-2.6.121-2.826-.044a26.327 26.327 0 0 0 3.373-7.565a14.374 14.374 0 0 0 .5-3.253a3.513 3.513 0 0 0-.509-2.2a7.482 7.482 0 0 0-6.049-2.825a10.363 10.363 0 0 0-3.5.551a8.717 8.717 0 0 0-1.968-.253a5.684 5.684 0 0 0-3.372.929a15.051 15.051 0 0 0-2.74-.718a6.978 6.978 0 0 0-5.242.805c-1.5 1.064-2.2 2.966-2.061 5.653a35.489 35.489 0 0 0 1.373 6.348c1.07 3.505 2.233 5.49 3.457 5.9a1.548 1.548 0 0 0 .491.081a2.049 2.049 0 0 0 1.563-.886q1.042-1.25 2.155-2.438a3.472 3.472 0 0 0 1.55.417v.042q-.14.166-.273.338c-.375.475-.452.574-1.658.823c-.343.071-1.254.259-1.267.9c-.014.7 1.077.991 1.2 1.022a5.144 5.144 0 0 0 1.249.162a3.634 3.634 0 0 0 2.5-.934a23.674 23.674 0 0 0 .381 5.684a2.854 2.854 0 0 0 2.729 2.1a4.378 4.378 0 0 0 .917-.1a3.462 3.462 0 0 0 3.156-3.212c.177-1.026.481-3.475.624-4.789a3.859 3.859 0 0 0 1.11.137a6.6 6.6 0 0 0 2.519-.48c.712-.331 2-1.141 1.763-1.846Zm-4.69-8.879a7.968 7.968 0 0 1-.116 1.107a10.229 10.229 0 0 0-.14 1.3a9.859 9.859 0 0 0 .1 1.47a5.236 5.236 0 0 1-.229 2.986a3.882 3.882 0 0 1-.207-.426c-.058-.141-.185-.368-.359-.681c-.68-1.22-2.274-4.078-1.458-5.244c.243-.347.86-.7 2.408-.512Zm-1.877-6.569a6.617 6.617 0 0 1 5.334 2.522c.975 1.245-.1 6.912-3.205 11.8l-.094-.119l-.039-.049a5.524 5.524 0 0 0 .506-3.8a9.114 9.114 0 0 1-.1-1.352a9.572 9.572 0 0 1 .131-1.206a7.614 7.614 0 0 0 .123-1.493a.619.619 0 0 0 .013-.21a8.381 8.381 0 0 0-1.912-3.6a8.61 8.61 0 0 0-3.039-2.284a10.246 10.246 0 0 1 2.28-.214ZM9.479 20.654c-.627.754-1.061.61-1.2.562c-.928-.31-2.006-2.272-2.955-5.384a35.167 35.167 0 0 1-1.34-6.159c-.12-2.4.462-4.074 1.73-4.974c2.063-1.463 5.456-.587 6.819-.143c-.02.019-.04.037-.059.057c-2.237 2.259-2.184 6.119-2.178 6.355c0 .091.007.22.018.4a15.969 15.969 0 0 1-.081 3.226a4.08 4.08 0 0 0 1.067 3.413q.133.138.278.262a55.7 55.7 0 0 0-2.1 2.385Zm2.39-3.19a3.3 3.3 0 0 1-.865-2.764a16.7 16.7 0 0 0 .087-3.381a15.422 15.422 0 0 1-.014-.243A4.3 4.3 0 0 1 14 10.223a1.188 1.188 0 0 1 .918 1.026c.646 2.989.085 4.234-.365 5.235c-.093.206-.181.4-.255.6l-.058.156a10.218 10.218 0 0 0-.368 1.109a2.788 2.788 0 0 1-2-.887Zm.113 4.03a1.733 1.733 0 0 1-.523-.225a2.553 2.553 0 0 1 .557-.166c1.418-.292 1.637-.5 2.116-1.105c.11-.139.234-.3.406-.489c.256-.287.374-.238.586-.15a.829.829 0 0 1 .408.525a.585.585 0 0 1-.05.491a3.1 3.1 0 0 1-3.499 1.12Zm7.424 6.906a2.113 2.113 0 0 1-2.754-1.526a31.129 31.129 0 0 1-.3-6.853a.392.392 0 0 0-.017-.124a1.643 1.643 0 0 0-.048-.23a1.589 1.589 0 0 0-.862-1.034a1.216 1.216 0 0 0-.793-.1a9.586 9.586 0 0 1 .342-1.022l.058-.157c.066-.177.148-.36.235-.554c.471-1.047 1.117-2.482.416-5.722a2.044 2.044 0 0 0-2.468-1.669a5.694 5.694 0 0 0-1.887.591c-.078.04-.15.078-.216.115a8.244 8.244 0 0 1 1.918-4.952a4.711 4.711 0 0 1 3.57-1.336a7.567 7.567 0 0 1 5.781 2.763a8.774 8.774 0 0 1 1.582 2.71c-1.463-.149-2.458.14-2.962.861c-1.1 1.568.6 4.612 1.416 6.075c.15.268.279.5.319.6a5.432 5.432 0 0 0 .861 1.387c.077.1.152.189.208.271c-.443.128-1.239.423-1.166 1.9c-.058.74-.474 4.205-.686 5.43c-.279 1.617-.874 2.22-2.548 2.579Zm7.242-8.288a5.714 5.714 0 0 1-1.931.4a2.422 2.422 0 0 1-1.3-.167c-.045-.919.3-1.015.66-1.117c.057-.016.112-.032.166-.05a1.353 1.353 0 0 0 .11.08c.639.422 1.78.467 3.39.135h.018a4.334 4.334 0 0 1-1.116.72Z"/></svg>