<svg xmlns="http://www.w3.org/2000/svg" xmlns:xlink="http://www.w3.org/1999/xlink" width="32" height="32" viewBox="0 0 32 32"><path fill="#0096e6" d="M16.54 12.663h2.86v2.924h1.446a6.272 6.272 0 0 0 1.988-.333a5.091 5.091 0 0 0 .966-.436a3.584 3.584 0 0 1-.67-1.849a3.907 3.907 0 0 1 .7-2.753l.3-.348l.358.288a4.558 4.558 0 0 1 1.795 2.892a4.375 4.375 0 0 1 3.319.309l.393.226l-.207.4a4.141 4.141 0 0 1-4.157 1.983c-2.48 6.168-7.871 9.088-14.409 9.088c-3.378 0-6.476-1.263-8.241-4.259l-.029-.049l-.252-.519a8.316 8.316 0 0 1-.659-4.208l.04-.433h2.445v-2.923h2.861V9.8h5.721V6.942h3.432v5.721Z"/><path fill="#fff" d="M12.006 24.567a6.022 6.022 0 0 1-3.14-3.089a10.329 10.329 0 0 1-2.264.343q-.5.028-1.045.028q-.632 0-1.331-.037a9.051 9.051 0 0 0 7 2.769q.392 0 .78-.014ZM7.08 13.346h.2v2.067h-.2Zm-.376 0h.2v2.067H6.7v-2.067Zm-.376 0h.2v2.067h-.2Zm-.376 0h.2v2.067h-.2Zm-.376 0h.2v2.067h-.2Zm-.368 0h.2v2.067h-.2v-2.067ZM5 13.14h2.482v2.479H5Zm2.859-2.861h2.48v2.479H7.863Zm2.077.207h.2v2.066h-.2Zm-.376 0h.2v2.066h-.2Zm-.376 0h.2v2.066h-.2v-2.066Zm-.376 0h.2v2.066h-.2Zm-.376 0h.2v2.066h-.2Zm-.368 0h.2v2.066h-.2Zm-.207 2.653h2.48v2.48H7.863V13.14Zm2.077.207h.2v2.067h-.2Zm-.376 0h.2v2.067h-.2Zm-.376 0h.2v2.067h-.2v-2.067Zm-.376 0h.2v2.067h-.2Zm-.376 0h.2v2.067h-.2Zm-.368 0h.2v2.067h-.2Zm2.654-.207H13.2v2.48h-2.48V13.14Zm2.076.207H13v2.067h-.2Zm-.376 0h.2v2.067h-.2Zm-.376 0h.2v2.067h-.2Zm-.376 0h.2v2.067h-.2Zm-.376 0h.2v2.067h-.2Zm-.368 0h.2v2.067h-.2Zm-.206-3.067H13.2v2.479h-2.48v-2.479Zm2.076.207H13v2.066h-.2Zm-.376 0h.2v2.066h-.2Zm-.376 0h.2v2.066h-.2Zm-.376 0h.2v2.066h-.2Zm-.376 0h.2v2.066h-.2Zm-.368 0h.2v2.066h-.2Zm2.654 2.653h2.479v2.48h-2.48V13.14Zm2.076.207h.2v2.067h-.2Zm-.376 0h.2v2.067h-.2Zm-.376 0h.2v2.067h-.2Zm-.376 0h.2v2.067h-.2Zm-.376 0h.2v2.067h-.2Zm-.368 0h.192v2.067h-.2v-2.067Zm-.206-3.067h2.479v2.479h-2.48v-2.479Zm2.076.207h.2v2.066h-.2Zm-.376 0h.2v2.066h-.2Zm-.376 0h.2v2.066h-.2Zm-.376 0h.2v2.066h-.2Zm-.376 0h.2v2.066h-.2Zm-.368 0h.192v2.066h-.2v-2.066Zm-.206-3.067h2.479V9.9h-2.48V7.419Zm2.076.206h.2v2.066h-.2Zm-.376 0h.2v2.066h-.2Zm-.376 0h.2v2.066h-.2Zm-.376 0h.2v2.066h-.2Zm-.376 0h.2v2.066h-.2Zm-.368 0h.192v2.066h-.2V7.625Zm2.654 5.514h2.479v2.48h-2.48V13.14Zm2.076.207h.195v2.067h-.2v-2.067Zm-.376 0h.206v2.067h-.206Zm-.376 0h.2v2.067h-.2Zm-.376 0h.2v2.067h-.2Zm-.376 0h.2v2.067h-.205v-2.067Zm-.368 0h.2v2.067h-.194v-2.067Zm-6.442 6.292a.684.684 0 1 1-.684.684a.684.684 0 0 1 .684-.684Zm0 .194a.489.489 0 0 1 .177.033a.2.2 0 1 0 .275.269a.49.49 0 1 1-.453-.3Z"/></svg>