<svg xmlns="http://www.w3.org/2000/svg" xmlns:xlink="http://www.w3.org/1999/xlink" width="32" height="32" viewBox="0 0 32 32"><path fill="#1c4913" d="M2 2h28v28H2V2m3.609 3.434v20.253h3.479v-8.815l2.536 8.815h3.474V5.434h-3.5v8.278q-1.266-4.14-2.539-8.278h-3.45m17.255 4.8v11.94h-2.528v-3.675c-1.17.274-2.342.542-3.513.814v3.688a4.19 4.19 0 0 0 .077 1.1a2.187 2.187 0 0 0 .863 1.219a2.077 2.077 0 0 0 1.193.371h4.763a4.058 4.058 0 0 0 1.08-.08a2.216 2.216 0 0 0 1.247-.931a2.136 2.136 0 0 0 .336-1.209V10.237Z"/><path fill="#fefffc" d="M5.609 5.434h3.45q1.271 4.139 2.538 8.279c-.007-2.759 0-5.518 0-8.278h3.5v20.253h-3.474q-1.27-4.407-2.536-8.815v8.815H5.609V5.434Zm17.256 4.799h3.514v13.234a2.136 2.136 0 0 1-.336 1.209a2.216 2.216 0 0 1-1.247.931a4.058 4.058 0 0 1-1.08.08h-4.763a2.077 2.077 0 0 1-1.193-.371a2.187 2.187 0 0 1-.86-1.216a4.19 4.19 0 0 1-.077-1.1v-3.688c1.171-.273 2.343-.541 3.513-.814v3.675h2.529v-11.94Z"/></svg>