<svg xmlns="http://www.w3.org/2000/svg" xmlns:xlink="http://www.w3.org/1999/xlink" width="32" height="32" viewBox="0 0 32 32"><path fill="#6f4e37" d="M13.114 5.728c.025.153-.051.28-.306.408a3.457 3.457 0 0 0-1.63-.229c-.637.051-1.172.255-1.1.688c.1.433.713.688 1.808.586c2.674-.229 2.649-2.038 6.571-2.394c3.056-.28 4.763.662 4.992 1.808c.178.891-.56 1.757-2.776 1.936c-1.961.178-3.107-.357-3.209-.891c-.051-.28.1-.688 1.044-.79c.1.433.637.891 1.91.764C21.341 7.536 22.1 7.2 22 6.7c-.1-.535-1.07-.84-2.6-.713c-3.107.28-3.871 1.987-6.52 2.216c-1.88.173-3.408-.514-3.612-1.533c-.076-.382-.076-1.273 1.91-1.452c1.019-.076 1.834.1 1.936.509Zm3.718 4.763A40.837 40.837 0 0 1 8.5 9.7c-2.263-.56-3.46-1.171-3.46-1.96c0-.331.153-.611.611-.942c-1.426.56-2.19 1.019-2.19 1.732c.076.79 1.35 1.579 3.948 2.19a39.443 39.443 0 0 0 9.347.942a38.993 38.993 0 0 0 9.344-.942c2.6-.611 3.846-1.426 3.846-2.19c0-.56-.56-1.1-1.579-1.5a.862.862 0 0 1 .408.688c0 .79-1.172 1.426-3.54 1.961a39.324 39.324 0 0 1-8.402.811Z"/><path fill="#393" d="M3.181 16.374A5.279 5.279 0 0 0 2.01 19.99a4.206 4.206 0 0 0 1.655 3.056a4 4 0 0 0 3.362.79a11.434 11.434 0 0 0 1.5-.484a4.238 4.238 0 0 1-2.751-1.019a4.13 4.13 0 0 1-1.732-2.827a3.79 3.79 0 0 1 .614-3.006A3.977 3.977 0 0 1 7.409 15a4.806 4.806 0 0 1 3.209.942a6.95 6.95 0 0 0-.866-.866a4.1 4.1 0 0 0-3.464-.688a5.2 5.2 0 0 0-3.107 1.987Zm23.024-3.693a42.315 42.315 0 0 1-9.347.942a44.144 44.144 0 0 1-9.424-.942c-2.19-.56-3.362-1.172-3.769-1.808a23.186 23.186 0 0 0 2.6 7.641c.942 1.426 1.885 2.674 2.827 4.024a9.883 9.883 0 0 1 .866 2.369a4.559 4.559 0 0 0 2.6 1.732a10.611 10.611 0 0 0 4.177.611h.153a11.839 11.839 0 0 0 4.3-.611a4.869 4.869 0 0 0 2.521-1.732h.076a9.592 9.592 0 0 1 .79-2.369c.942-1.35 1.885-2.6 2.827-4.024A24.62 24.62 0 0 0 30 10.872c-.509.713-1.681 1.328-3.795 1.809Z"/></svg>