<svg xmlns="http://www.w3.org/2000/svg" xmlns:xlink="http://www.w3.org/1999/xlink" width="32" height="32" viewBox="0 0 32 32"><path fill="#f9f8f5" d="M14.9 4.845c.322-.057.647-.1.973-.121v1.1l.241-.063c.022-.344.006-.689.009-1.033q.491.038.975.123c-.047.169-.1.336-.143.5l.26.061c.037-.167.074-.333.109-.5c.309.107.61.233.907.369c-.09.205-.331.431-.082.627c.107-.16.213-.322.312-.487c.268.189.528.388.779.6a9.8 9.8 0 0 0-.742.744c.045.072.091.141.141.209c.261-.258.519-.518.772-.784c.183.261.471.483.544.8c-.127.079-.26.145-.39.215l.119.241c.154-.089.311-.175.467-.259c.123.3.241.595.359.893l-.51.132l.088.258c.162-.048.327-.094.492-.139c.046.324.09.649.12.976h-1.089c.006.063.018.19.026.253c.357-.006.713-.006 1.071 0c-.04.314-.084.626-.121.94l-.5-.115l-.087.243l.5.14c-.111.3-.235.6-.374.892l-.409-.266l-.18.23c.151.085.3.171.457.254a9.279 9.279 0 0 1-.593.762c-.243-.239-.469-.5-.727-.72c-.083.041-.159.1-.238.142q.389.385.774.774a4.7 4.7 0 0 1-6.42.005c.244-.258.494-.51.751-.753l-.2-.2c-.247.252-.5.5-.745.752a8.846 8.846 0 0 1-.591-.76l.456-.256q-.092-.112-.181-.224q-.208.129-.418.253q-.2-.438-.364-.889c.168-.043.336-.088.5-.133l-.09-.26l-.475.143a8.484 8.484 0 0 1-.135-.961c.357 0 .714 0 1.071.007v-.262c-.358.006-.715.006-1.073.009c.029-.326.071-.651.112-.976q.25.063.5.135l.088-.255c-.172-.043-.342-.088-.513-.132c.119-.3.236-.6.358-.893c.157.087.316.171.47.263c.037-.085.076-.169.116-.25l-.441-.233c.19-.263.385-.52.585-.776c.254.252.509.5.753.766c.061-.059.126-.116.183-.181a10.53 10.53 0 0 0-.754-.756a8.689 8.689 0 0 1 .79-.6l.233.438l.246-.122l-.275-.441a8.108 8.108 0 0 1 .921-.379c.036.166.074.33.112.5l.255-.054c-.035-.178-.087-.348-.135-.516Zm1.123 3.841a.751.751 0 0 0-.69.979a.714.714 0 0 0 1.267.135a.8.8 0 0 0-.082-.911c.275-.715.537-1.435.811-2.15c.055-.161.2-.482-.1-.427c-.429.778-.786 1.588-1.202 2.374Z"/><path fill="#f9f8f5" d="M15.111 3.921A5.568 5.568 0 1 1 11.262 6.5a5.551 5.551 0 0 1 3.849-2.579Zm.231.447a5.052 5.052 0 0 0-2.33.924a5.1 5.1 0 0 0-.783 7.571a5.12 5.12 0 0 0 7.54 0a5.1 5.1 0 0 0-4.427-8.5Z"/><path fill="#f9f8f5" d="M6.515 11.153c.646-.033 1.293-.011 1.939-.012a1.5 1.5 0 0 1 1.35.989a6.8 6.8 0 0 0 3.674 3.582a6.922 6.922 0 0 0 4.2.283a6.77 6.77 0 0 0 4.466-3.71a1.865 1.865 0 0 1 .706-.93a3.369 3.369 0 0 1 1.729-.218c.47.027 1.02-.105 1.415.223c.355.307.236.818.182 1.223q-.884 6.525-1.755 13.054a2.046 2.046 0 0 1-1.775 1.751c-4.328.009-8.656 0-12.984.006a2.04 2.04 0 0 1-2.078-1.766q-.863-6.538-1.742-13.074a1.526 1.526 0 0 1 .032-.99a.8.8 0 0 1 .641-.411Zm.158.472a3 3 0 0 0 .242.227c.188.05.3-.115.419-.225a14.57 14.57 0 0 0-.661-.002Zm1.122 0a3.035 3.035 0 0 0 .24.218c.189.064.3-.111.426-.218a13.22 13.22 0 0 0-.661.003Zm15.757 0c.119.107.229.273.415.222a3 3 0 0 0 .244-.226c-.22 0-.439 0-.659.008Zm1.125 0c.116.11.227.269.414.228a3.222 3.222 0 0 0 .242-.231a17.914 17.914 0 0 0-.656.006Zm-18.445.229q.029.281.069.559c.213-.015.506-.077.419-.363c-.02-.25-.311-.216-.488-.193Zm1.31-.03c-.4 0-.315.7.09.571c.35-.037.258-.634-.09-.567Zm1.127 0c-.391 0-.324.684.073.575c.358-.017.282-.635-.073-.573Zm16.883.005c-.328-.022-.374.525-.053.569c.344.126.436-.651.053-.567Zm-2.387.03c-.209.113-.175.515.088.534a.286.286 0 0 0 .316-.43c-.055-.158-.275-.155-.404-.103Zm1.133 0c-.321.165-.058.705.274.518c.356-.132.071-.731-.272-.519Zm-17.349.549c-.18.036-.328.266-.209.428a.3.3 0 0 0 .526 0c.145-.193-.101-.487-.317-.429Zm1.123 0c-.356.049-.294.638.067.575c.429.027.327-.672-.067-.575Zm1.125 0c-.351.053-.3.623.059.578c.433.044.329-.658-.056-.58Zm13.217.367c.129.161.389.323.559.128c.2-.184.015-.5-.229-.51c-.183.041-.239.24-.329.38Zm1.4-.361a.293.293 0 1 0 .152.566c.364-.066.203-.68-.151-.568Zm1.123 0a.3.3 0 1 0 .329.427c.145-.211-.108-.5-.328-.43Zm-18.563.511c.016.225.04.45.076.673c.12-.092.316-.173.279-.357c.015-.208-.212-.249-.354-.319Zm1.007.052a1.124 1.124 0 0 0-.089.528a1.914 1.914 0 0 0 .546 0a1.121 1.121 0 0 0-.085-.53Zm1.141-.027c-.072.17-.223.439.005.555a.288.288 0 0 0 .441-.311c-.008-.232-.286-.212-.445-.246Zm1.024.549c.145-.007.373.138.45-.05a5.052 5.052 0 0 0-.335-.527a.943.943 0 0 0-.114.578Zm12.435.033c.157 0 .316-.01.473-.026a.567.567 0 0 0-.119-.539a4.428 4.428 0 0 0-.354.562Zm1.155-.554c-.123.189-.171.539.131.57c.341.065.42-.354.229-.57Zm1.123 0c-.036.131-.151.267-.082.406a.292.292 0 0 0 .532 0c.084-.138-.058-.271-.09-.4Zm1.034.2c-.088.222.129.323.271.433q.055-.33.1-.661c-.135.035-.364.037-.371.225Zm-18.524.482c-.143.137 0 .318.032.468c.17-.029.414.041.479-.174c.159-.288-.328-.582-.511-.294Zm1.186-.06a.285.285 0 0 0-.1.362a.307.307 0 0 0 .554-.009c.131-.253-.234-.537-.454-.353Zm1.024.357c.068.215.313.144.482.172c.027-.146.165-.326.031-.459c-.173-.299-.684-.009-.514.285Zm13.537-.282c-.127.136 0 .3.029.451c.188-.009.478.028.507-.229c.081-.297-.392-.497-.536-.224Zm1.172-.068c-.075.092-.159.224-.083.341a.3.3 0 0 0 .57-.051a.307.307 0 0 0-.487-.297Zm1.075.072c-.119.135 0 .3.028.446c.189-.007.484.034.508-.228a.3.3 0 0 0-.536-.221Zm-14.706-.034a4.235 4.235 0 0 0 .111.476c.119 0 .237 0 .355-.005a3.759 3.759 0 0 0-.466-.474Zm11.453.526a.435.435 0 0 0 .431-.529a2.288 2.288 0 0 0-.432.527ZM6.488 14.1a1.946 1.946 0 0 0 .191.59a3.877 3.877 0 0 0 .04-.461Zm.8.515c.147.028.317.153.451.022c.244-.14.081-.611-.214-.531c-.266-.001-.238.318-.236.506Zm1.23.022c.135.135.307 0 .455-.028c-.009-.186.026-.491-.236-.5c-.292-.09-.472.384-.217.526Zm1.174-.525a.316.316 0 0 0-.047.528a.29.29 0 0 0 .447-.325c-.025-.192-.238-.245-.398-.205Zm12.371.032c-.216.056-.127.307-.156.469c.145.029.31.152.446.032c.247-.128.077-.4-.016-.575Zm1.122 0c-.207.059-.125.3-.156.462c.144.03.309.164.445.041c.248-.129.083-.4-.011-.577Zm1.126-.026a.31.31 0 0 0 .015.553c.2.13.5-.144.39-.36a.3.3 0 0 0-.403-.194Zm1 .557c.211-.137.169-.4.2-.617a.525.525 0 0 0-.198.616Zm-14.675-.395l.051.33c.123.045.247.087.372.128a4.076 4.076 0 0 0-.423-.458Zm10.711.062a.611.611 0 0 0-.326.321c.036.136.222 0 .275-.058s.164-.218.051-.262ZM6.8 14.705c-.035.145-.17.322-.029.454a.3.3 0 0 0 .477-.007c.136-.132 0-.3-.031-.445c-.143-.002-.282-.007-.417-.002Zm1.125 0c-.033.144-.169.32-.031.451a.3.3 0 0 0 .519-.071c.077-.121-.055-.255-.073-.378c-.14-.002-.28-.002-.419-.002Zm1.123 0c-.034.145-.172.324-.026.454a.3.3 0 0 0 .474-.006c.134-.131 0-.306-.03-.449c-.143.001-.282.001-.422.003Zm1.062.153c-.177.3.341.59.514.29c.138-.14 0-.312-.041-.46c-.173.03-.41-.038-.477.173Zm11.31-.158c-.031.147-.165.316-.033.452c.146.265.626.076.539-.222c-.026-.264-.316-.23-.506-.23Zm1.149.036a.305.305 0 0 0-.06.413c.139.268.633.086.542-.215c-.016-.234-.305-.297-.482-.202Zm1.1-.035c-.024.144-.15.319-.028.454c.148.259.622.075.537-.221c-.023-.269-.323-.234-.513-.234Zm1.13 0c-.028.146-.155.314-.035.452c.137.264.636.084.538-.218c-.022-.27-.319-.235-.502-.241Zm-13.626.141c-.009.3.239.531.526.391a6.542 6.542 0 0 0-.53-.398Zm9.153.4a.361.361 0 0 0 .512-.38a5.625 5.625 0 0 0-.515.371Zm-12.861.019a.307.307 0 0 0-.077.521a.284.284 0 0 0 .46-.148a.3.3 0 0 0-.386-.382Zm1.119 0c-.367.131-.122.734.232.562c.339-.145.11-.735-.235-.567Zm1.124 0c-.365.128-.122.73.231.559c.348-.141.106-.735-.234-.561Zm1.128 0c-.36.119-.133.729.22.562c.36-.133.117-.732-.223-.566Zm9.962.072v.412c.217.152.568.118.576-.206c-.022-.321-.364-.358-.579-.21Zm1.113 0c.026.168-.048.4.157.479c.3.189.6-.335.3-.513c-.14-.142-.312.001-.46.03Zm1.137 0v.413c.143.034.332.187.457.033a.294.294 0 0 0-.01-.478c-.139-.141-.307-.009-.45.027Zm1.279-.063a.3.3 0 0 0-.009.542c.214.149.519-.147.4-.368a.275.275 0 0 0-.394-.18Zm-12.527.041c.013.147-.071.365.085.46c.146.158.342-.009.5-.048a5.159 5.159 0 0 0-.585-.412Zm7.829.408c.153.038.345.209.491.06c.16-.1.091-.309.1-.46a7.583 7.583 0 0 0-.593.4Zm-12.815.143a1.372 1.372 0 0 0-.013.479l.233.114c.144-.107.388-.266.238-.472c-.072-.19-.302-.161-.46-.121Zm1.046.127c-.145.231.125.371.275.491a2.687 2.687 0 0 0 .291-.259c.034-.138-.062-.265-.093-.393c-.167.027-.403-.042-.475.161Zm1.225-.128a.3.3 0 0 0-.024.483c.216.237.641-.1.458-.363c-.065-.181-.286-.168-.435-.12Zm1.121 0a.3.3 0 0 0 .048.524c.218.153.559-.178.393-.4c-.067-.185-.288-.173-.447-.124Zm.992.189c-.057.219.18.307.308.43c.148-.119.424-.276.266-.5a.317.317 0 0 0-.572.07Zm1.257-.177a.284.284 0 0 0-.015.472c.2.207.559-.04.5-.3c-.105-.145-.318-.29-.486-.172Zm6.845-.012a.273.273 0 0 0-.121.481c.217.235.652-.089.467-.359a.246.246 0 0 0-.346-.122Zm1.072.521c.164.127.32-.073.47-.128c-.047-.179-.093-.48-.348-.42a.287.287 0 0 0-.123.548Zm.965-.333c-.089.2.174.309.283.431c.134-.121.381-.205.308-.431a.308.308 0 0 0-.593 0Zm1.29.333c.16.123.315-.073.463-.126c-.04-.183-.09-.484-.348-.421a.285.285 0 0 0-.117.547Zm1.117 0c.164.126.322-.063.47-.121c-.042-.183-.09-.486-.351-.424a.287.287 0 0 0-.121.543Zm1.012-.106c.084.181.308.129.463.11c-.019-.169.142-.506-.121-.543c-.252-.108-.516.224-.344.431Zm-11.34-.076a.617.617 0 0 0 .548.236a1.372 1.372 0 0 0-.548-.236Zm5.071 0c-.131 0-.3.042-.344.184c.04.24.55-.075.343-.184Zm-11.2.256a.876.876 0 0 0 .107.517h.346a.942.942 0 0 0 .108-.516a.763.763 0 0 0-.56-.005Zm1.123 0a.952.952 0 0 0 .107.519h.347a.99.99 0 0 0 .108-.519a.845.845 0 0 0-.561-.006Zm1.24-.026c-.221.115-.1.376 0 .538h.337a.845.845 0 0 0 .11-.515c-.147-.023-.313-.139-.447-.023Zm1.012.015a.982.982 0 0 0 .1.522h.354a1.041 1.041 0 0 0 .105-.518a.855.855 0 0 0-.559-.003Zm1.125 0a.865.865 0 0 0 .109.521h.342a.955.955 0 0 0 .107-.522a.879.879 0 0 0-.558.003Zm1.238.522h.336c.169-.207.172-.547-.141-.6c-.342-.002-.391.384-.196.602Zm5.509-.517a3.613 3.613 0 0 0 .024.393c.106.123.274.121.42.153a.9.9 0 0 0 .114-.554a.836.836 0 0 0-.559.01Zm1.129 0c0 .131.006.261.018.391c.106.121.272.12.417.151c.078-.168.219-.347.08-.526c-.15-.141-.346-.066-.515-.011Zm1.117.005a1.144 1.144 0 0 0 .107.508h.351c.073-.158.2-.328.066-.495c-.153-.149-.352-.068-.525-.008Zm1.13 0q0 .193.021.386c.1.123.269.124.413.157a.736.736 0 0 0 .116-.557a.775.775 0 0 0-.55.015Zm1.128 0c0 .13.006.261.017.39a.733.733 0 0 0 .416.152c.079-.169.223-.348.08-.527c-.151-.146-.343-.07-.513-.014Zm1.123-.005c0 .131.006.261.018.391c.105.123.272.124.418.157a.76.76 0 0 0 .11-.563a.908.908 0 0 0-.546.016Zm-10.119-.018a.86.86 0 0 0 .1.537h.346c.05-.1.1-.207.137-.314c-.063-.268-.385-.176-.583-.223Zm3.367.063a.885.885 0 0 0 .105.473h.347c.086-.164.183-.338.064-.516a3.374 3.374 0 0 0-.516.048Zm-2.312.12a.45.45 0 0 0 .488.376l.189-.324c-.225-.021-.45-.04-.674-.052Zm1.124.057a.494.494 0 0 0 .5.32c.063-.125.126-.249.185-.376q-.343.019-.684.056Zm-9.333.255a2.018 2.018 0 0 0 .131.674c.149-.089.357-.219.283-.427c-.064-.174-.256-.203-.413-.246Zm1.076.083c-.382.2.079.784.358.47c.326-.192-.084-.707-.357-.469Zm1.122 0c-.381.213.094.786.368.464c.308-.207-.098-.7-.367-.462Zm1.125 0c-.38.214.094.791.372.462c.306-.202-.107-.696-.371-.46Zm1.133-.01a.287.287 0 0 0 .011.51c.154.158.344-.018.449-.146c.096-.25-.236-.527-.46-.364Zm1.113.011c-.264.175-.1.508.16.572c.138-.051.338-.147.318-.324c.018-.221-.305-.409-.478-.243Zm1.128 0c-.274.165-.1.529.172.573c.126-.062.33-.148.3-.321c.025-.221-.299-.412-.472-.248Zm1.123 0c-.375.216.1.787.373.462c.31-.205-.105-.7-.373-.46Zm1.127 0c-.267.17-.106.515.159.574c.136-.05.339-.147.314-.322a.3.3 0 0 0-.473-.249Zm1.12 0c-.259.169-.1.526.171.57c.132-.052.334-.146.308-.32a.3.3 0 0 0-.479-.245Zm1.128 0c-.371.213.093.774.369.467c.316-.207-.096-.709-.368-.462Zm1.117.005c-.354.221.105.768.378.458c.322-.208-.114-.713-.378-.453Zm1.128 0c-.359.222.1.778.377.459c.313-.209-.105-.711-.376-.457Zm1.127 0c-.363.216.1.772.372.463c.314-.21-.1-.715-.371-.461Zm1.123 0a.286.286 0 0 0 .007.483c.156.183.486-.021.468-.23a.3.3 0 0 0-.474-.25Zm1.124 0c-.348.219.091.763.369.468c.324-.204-.093-.728-.371-.465Zm1.016.158c-.119.22.176.353.328.439c.035-.229.055-.46.075-.691c-.151.052-.355.069-.402.255Zm-15.166.389c-.059.23-.024.614.315.533c.283 0 .229-.342.219-.528a1.4 1.4 0 0 0-.533-.001Zm1.122 0c-.012.186-.069.538.216.531c.339.085.365-.3.319-.529a1.565 1.565 0 0 0-.534.002Zm1.121.005c-.012.187-.061.534.224.527c.337.084.354-.3.317-.53a1.457 1.457 0 0 0-.536.007Zm-4.5.122a.284.284 0 0 0 .322.406c.277 0 .228-.343.212-.529c-.169-.027-.473-.113-.529.126Zm1.167-.1a.352.352 0 0 0 .077.494c.167.038.412.025.431-.193c.107-.3-.286-.491-.505-.297Zm4.459-.025c-.011.186-.065.534.218.529c.292.085.438-.292.281-.5c-.147-.111-.329-.048-.496-.024Zm1.122 0c0 .187-.065.538.222.529c.3.082.432-.3.28-.506a.675.675 0 0 0-.499-.018Zm1.125 0c0 .189-.063.534.224.527a.283.283 0 0 0 .312-.411c-.06-.229-.362-.139-.533-.109Zm1.139-.008c-.016.188-.086.547.207.534a.282.282 0 0 0 .314-.408c-.049-.225-.351-.139-.517-.119Zm1.116 0c0 .187-.079.529.206.531a.286.286 0 0 0 .327-.409c-.056-.226-.356-.134-.529-.111Zm1.118.008c0 .187-.06.528.221.522a.283.283 0 0 0 .319-.406c-.06-.23-.364-.14-.536-.105Zm1.165.033l-.055.176c-.086.363.513.447.578.109a.309.309 0 0 0-.519-.274Zm1.1-.039c-.016.191-.077.537.215.53a.285.285 0 0 0 .315-.408c-.056-.226-.359-.14-.529-.111Zm1.158.036a.308.308 0 0 0 .433.434c.295-.268-.147-.711-.432-.424Zm1.118 0a.313.313 0 0 0 .44.439c.299-.278-.147-.716-.439-.434Zm1.129 0a.315.315 0 0 0 .437.448a.315.315 0 0 0-.436-.443Zm-17.169.455c.022.225.055.45.1.672a1.59 1.59 0 0 0 .18-.336c-.037-.146-.177-.23-.279-.332Zm1 .046c-.1.069-.246.154-.218.3c-.025.25.365.437.519.207c.257-.184-.034-.598-.302-.503Zm1.127 0c-.161.081-.319.3-.173.46a.287.287 0 0 0 .473.049c.249-.187-.031-.593-.3-.505Zm1.125 0c-.2.08-.328.364-.126.51c.19.256.616-.025.51-.3a.347.347 0 0 0-.384-.206Zm1.123 0c-.191.082-.328.352-.131.5c.188.265.615-.011.522-.3c-.089-.114-.22-.263-.391-.196Zm1.121 0c-.157.082-.316.3-.166.459a.286.286 0 0 0 .469.05c.259-.184-.028-.599-.303-.505Zm1.124 0c-.1.072-.246.165-.217.31c0 .242.363.42.521.2c.257-.188-.03-.606-.304-.506Zm1.129-.005c-.433.144-.126.809.246.56c.32-.16.071-.645-.246-.551Zm1.121.007c-.441.141-.106.814.259.548c.309-.164.055-.653-.259-.546Zm1 .093c-.215.166-.014.388.093.546c.154-.05.349-.076.42-.246c.103-.275-.319-.563-.508-.291Zm1.089.043c-.172.17.049.349.127.5c.172-.047.46-.106.424-.347c.02-.269-.413-.423-.546-.148Zm1.119.01c-.159.171.057.342.136.493c.173-.046.457-.108.421-.349a.3.3 0 0 0-.552-.139Zm1.287-.144c-.185.083-.313.343-.128.5c.2.273.626-.015.518-.309c-.085-.119-.221-.26-.385-.186Zm.961.146c-.158.169.066.336.134.492c.173-.049.461-.105.424-.351a.3.3 0 0 0-.554-.136Zm1.286-.146a.313.313 0 0 0 .189.6a.313.313 0 0 0-.185-.595Zm1.124 0a.313.313 0 0 0 .192.595c.381-.116.183-.723-.188-.59Zm.872.268q.1.172.205.343a4.942 4.942 0 0 0 .134-.669a4.44 4.44 0 0 0-.335.331ZM7.31 18.7c-.017.181-.1.5.165.53a.285.285 0 0 0 .375-.343c-.024-.279-.35-.217-.54-.187Zm1.1.339c.041.27.363.182.548.159c0-.178.075-.481-.17-.523a.292.292 0 0 0-.379.368Zm1.19-.345l-.085.288l.089.237a.7.7 0 0 0 .441-.04c.1-.145.035-.326.024-.486a4.225 4.225 0 0 0-.469.001Zm1.071.176a.292.292 0 0 0 .428.343c.207-.086.1-.353.093-.517c-.185-.018-.492-.087-.525.174Zm1.141.243c.094.2.354.1.522.1c.005-.182.081-.484-.17-.535a.3.3 0 0 0-.356.435Zm1.165-.382a.681.681 0 0 0-.036.484a.916.916 0 0 0 .473-.026c.107-.147.046-.331.032-.495a.757.757 0 0 0-.473.037Zm1.245-.053c-.318.079-.217.641.127.571c.433-.007.275-.749-.131-.572Zm1.127 0c-.321.077-.224.64.121.572c.437.005.28-.742-.125-.575Zm1 .061a.4.4 0 0 0-.01.446a.966.966 0 0 0 .48.044a2.566 2.566 0 0 0 .006-.531c-.157-.004-.338-.07-.475.039Zm1.065.32c.049.248.355.166.533.166c.021-.187.094-.509-.172-.549a.294.294 0 0 0-.361.381Zm1.121-.167a.286.286 0 0 0 .37.347c.272-.034.188-.361.161-.546c-.188-.016-.512-.085-.531.197Zm1.307-.212c-.215.05-.232.339-.129.5c.159.116.461.105.513-.121a.3.3 0 0 0-.384-.381Zm.943.366c.049.254.353.182.537.18c.024-.187.1-.511-.171-.55a.293.293 0 0 0-.365.368Zm1.185-.3c-.124.159-.089.481.154.5a.288.288 0 0 0 .33-.421c-.054-.202-.346-.201-.483-.084Zm1.133 0c-.142.144-.092.488.151.5a.286.286 0 0 0 .323-.421c-.052-.199-.348-.211-.477-.081Zm1.12 0c-.138.15-.087.477.151.5a.278.278 0 0 0 .357-.331c-.006-.261-.344-.329-.507-.169Zm-16.438.668c.051.174.094.475.347.415a.288.288 0 0 0 .142-.547c-.166-.158-.333.068-.488.132Zm1.123.009c.053.169.1.457.346.407a.291.291 0 0 0 .14-.553c-.17-.149-.332.079-.485.146Zm1.323-.144c-.285.12-.158.611.15.55a.3.3 0 0 0 .3-.392c-.091-.142-.291-.296-.449-.158Zm1.123 0a.277.277 0 0 0-.122.4a.308.308 0 0 0 .538.005c.183-.232-.195-.595-.415-.402Zm1.124 0a.289.289 0 0 0 .143.547c.218.048.362-.2.307-.39c-.089-.141-.288-.296-.448-.154Zm1.128 0a.29.29 0 0 0 .138.549c.251.057.3-.236.351-.412c-.152-.066-.316-.282-.487-.136Zm1.124 0a.289.289 0 0 0 .144.548c.25.059.294-.24.346-.411c-.152-.066-.32-.289-.488-.135Zm1.123 0a.289.289 0 0 0 .143.547c.253.062.3-.24.347-.415c-.152-.063-.317-.281-.488-.129Zm2.248 0a.289.289 0 0 0 .138.545c.258.066.31-.237.351-.419c-.151-.063-.319-.274-.49-.121Zm1.127 0a.29.29 0 0 0 .136.547c.26.065.308-.242.351-.424c-.153-.06-.315-.27-.485-.12Zm2.241.005a.289.289 0 0 0 .145.542c.259.064.313-.239.345-.424c-.152-.066-.32-.274-.488-.114Zm1.144-.011a.29.29 0 0 0 .125.553c.262.061.32-.241.347-.429c-.147-.056-.306-.251-.47-.121Zm1.12 0a.29.29 0 0 0 .132.55c.262.063.316-.245.342-.432c-.148-.056-.307-.251-.472-.112Zm-16.509.11c-.09.123-.066.2.072.216c.091-.116.067-.189-.07-.209Zm9.676.351c.237.252.577-.007.562-.31a20.887 20.887 0 0 0-.356-.251c-.171.127-.431.363-.206.567Zm3.592.089c.261.063.3-.242.346-.422c-.146-.044-.3-.277-.451-.144c-.304.101-.216.61.107.572Zm4.26-.155a.264.264 0 0 0 .064-.337c-.166-.036-.247.339-.061.343Zm-17.438.675a.633.633 0 0 0 .483-.032c.154-.212 0-.6-.293-.5c-.282.013-.175.353-.187.538Zm1.231-.525c-.188.1-.226.475.005.539a.287.287 0 0 0 .42-.327c-.007-.212-.25-.262-.422-.206Zm1.062.052c-.291.292.141.707.441.444c.233-.289-.158-.696-.438-.438Zm1.127 0c-.251.234.042.672.349.483c.395-.168-.031-.795-.346-.478Zm1.121 0a.3.3 0 0 0 .246.519c.266-.008.332-.354.169-.521a.318.318 0 0 0-.412.01Zm1.186-.055c-.183.106-.219.471.008.539c.212.127.52-.083.424-.329c-.015-.21-.256-.253-.428-.202Zm1.122 0c-.18.106-.209.467.009.537a.289.289 0 0 0 .425-.329c-.013-.211-.258-.25-.43-.199Zm1.123 0c-.256.169-.147.627.189.577c.467-.039.237-.784-.185-.568Zm1 .514c.171.03.357.1.513-.019c.156-.213.009-.593-.289-.509c-.277.013-.21.35-.222.537Zm1.128.007a.7.7 0 0 0 .507-.022c.167-.2.009-.59-.279-.514c-.286.008-.221.354-.226.545Zm1.246-.518c-.308.192-.058.725.285.54c.374-.128.076-.733-.283-.531Zm1.13 0c-.312.181-.064.73.279.541c.377-.127.081-.73-.277-.533Zm1.122 0c-.313.187-.058.724.281.541c.373-.129.081-.734-.279-.532Zm1 .514c.168.024.353.092.506-.02c.175-.2.007-.6-.283-.511c-.28.015-.212.349-.218.54Zm1.247-.514c-.307.184-.058.726.281.541c.384-.13.081-.731-.276-.532Zm1.043.485c.146.115.328.055.495.036c-.017-.191.079-.549-.223-.542c-.287-.055-.402.303-.267.515Zm-16.382.259a.909.909 0 0 0 .092.387h.424c.033-.125.126-.249.089-.383a2.7 2.7 0 0 0-.3-.255a3.035 3.035 0 0 0-.3.26Zm1.222.387h.42c.153-.221.1-.56-.208-.589a.348.348 0 0 0-.207.598Zm1.117 0h.428c.154-.221.1-.565-.211-.588c-.31.027-.363.372-.212.596Zm1.043-.389c-.046.136.052.263.087.389h.42a.776.776 0 0 0 .092-.384a2.75 2.75 0 0 0-.3-.254a2.469 2.469 0 0 0-.294.257Zm1.212.39h.422c.158-.225.1-.563-.214-.591a.352.352 0 0 0-.203.599Zm1.038-.382c-.046.133.054.256.086.381h.423a.784.784 0 0 0 .089-.387a2.837 2.837 0 0 0-.3-.252a2.1 2.1 0 0 0-.292.266Zm1.208.38h.424c.159-.224.107-.566-.208-.59c-.308.029-.37.377-.211.598Zm1.055-.385c-.084.123.05.26.071.385h.422c.043-.14.182-.339.034-.46a.3.3 0 0 0-.522.083Zm1.092.074a3.3 3.3 0 0 0 .109.326c.128 0 .254-.013.381-.029a.671.671 0 0 0 .16-.378c-.116-.081-.233-.158-.349-.235c-.099.106-.256.179-.296.324Zm1.145-.065c-.054.134.062.264.09.391c.13 0 .26-.013.388-.028a.793.793 0 0 0 .152-.379q-.175-.121-.353-.236a1.967 1.967 0 0 0-.272.259Zm1.177-.069c-.145.137 0 .31.039.46c.188-.01.485.033.5-.23a.3.3 0 0 0-.534-.223Zm1.238-.1c-.243.1-.174.374-.076.558c.129 0 .256-.012.384-.027a.691.691 0 0 0 .156-.4c-.141-.054-.295-.234-.459-.122Zm1.13 0c-.244.1-.184.375-.082.56c.129 0 .256-.012.384-.027a.687.687 0 0 0 .156-.4c-.139-.054-.292-.236-.455-.126Zm1.025 0a.628.628 0 0 0 .015.56c.165-.031.418.056.483-.158l.061-.277a.67.67 0 0 0-.554-.118Zm1.226 0c-.294.1-.207.6.109.557c.266.064.324-.239.346-.432c-.137-.053-.288-.222-.45-.119ZM7.4 20.952c.035.209.072.419.112.627l.34-.144a1.062 1.062 0 0 0-.1-.495Zm1.106-.007a1.128 1.128 0 0 0-.1.518a.723.723 0 0 0 .572 0a1.124 1.124 0 0 0-.1-.517Zm1.126 0a1.053 1.053 0 0 0-.1.515a.694.694 0 0 0 .572 0a1.123 1.123 0 0 0-.1-.517Zm1.128 0a1 1 0 0 0-.1.52a.7.7 0 0 0 .569-.006a1.084 1.084 0 0 0-.1-.514Zm1.121 0a1.129 1.129 0 0 0-.1.518a.705.705 0 0 0 .575 0a1.178 1.178 0 0 0-.105-.513Zm1.123 0a1.141 1.141 0 0 0-.1.511c.15.029.323.157.462.03c.22-.12.086-.377 0-.543Zm1.125 0a1.139 1.139 0 0 0-.1.512c.149.029.322.157.461.028c.22-.119.086-.375 0-.541Zm1.127 0a1.113 1.113 0 0 0-.1.511c.149.03.321.156.461.031c.218-.118.087-.376.006-.541Zm1.17.027c-.2.075-.116.322-.146.487c.147.028.317.152.455.03c.235-.126.079-.4 0-.571Zm1.13 0c-.212.068-.122.32-.151.484c.147.032.313.156.452.034c.239-.121.084-.4 0-.573Zm1.12 0c-.2.073-.119.318-.149.481c.147.031.316.165.454.037c.242-.124.086-.4 0-.572Zm1.124 0c-.2.077-.118.318-.147.482c.148.034.316.167.455.036c.244-.127.088-.4-.005-.569Zm1.126 0c-.2.076-.12.318-.149.483c.147.03.32.16.458.034c.236-.131.081-.393 0-.57Zm1.125 0c-.2.075-.12.317-.149.482c.146.031.315.161.454.036c.243-.127.087-.4 0-.572Zm1.124 0c-.2.073-.118.316-.148.48c.148.032.317.166.456.036c.243-.127.085-.4-.006-.571Zm1.125 0c-.2.084-.126.314-.147.48c.108.042.217.08.328.114a1.994 1.994 0 0 0 .122-.639Zm-15.1.558a.291.291 0 0 0-.256.333c0 .259.409.354.55.147a.3.3 0 0 0-.294-.484Zm1.125 0a.3.3 0 0 0-.191.484a.316.316 0 0 0 .548-.147a.3.3 0 0 0-.353-.34Zm1.126 0a.3.3 0 0 0-.193.483a.315.315 0 0 0 .548-.147a.3.3 0 0 0-.35-.34Zm1.123 0c-.424.033-.267.741.14.575c.386-.069.221-.672-.135-.578Zm1.12 0a.3.3 0 0 0-.19.478c.135.205.546.115.552-.14a.3.3 0 0 0-.356-.341Zm.936.478c.152.219.411.059.586-.039c-.046-.168-.065-.442-.3-.439a.3.3 0 0 0-.281.47Zm1.153-.467c-.031.149-.173.333-.027.468c.152.217.407.059.582-.036l-.068-.273c-.053-.225-.314-.149-.483-.162Zm1.1.463c.146.221.408.064.584-.026c-.036-.175-.059-.449-.294-.449a.3.3 0 0 0-.29.471Zm1.156-.465c-.035.151-.174.33-.029.468c.147.22.407.062.58-.034l-.066-.272c-.059-.225-.317-.152-.485-.165Zm1.126 0c-.033.15-.175.329-.031.465c.144.221.407.064.58-.027l-.063-.276c-.057-.225-.318-.149-.486-.164Zm1.122 0c-.032.15-.167.324-.029.462c.139.22.4.065.577-.021l-.057-.281c-.063-.222-.319-.15-.491-.16Zm1.127 0c-.033.151-.175.327-.03.463c.14.218.4.064.576-.021l-.061-.288c-.064-.217-.318-.143-.485-.154Zm1.122 0c-.033.15-.164.322-.029.46c.126.211.383.086.547-.007v-.339a.749.749 0 0 0-.518-.114Zm-14.589.029a.306.306 0 0 0-.061.44a.31.31 0 1 0 .061-.44Zm15.718-.032c-.034.15-.171.323-.034.462c.124.212.384.086.548-.006v-.342a.823.823 0 0 0-.514-.114Zm-16.1.492c.019.214.042.426.059.641l.223-.105a.452.452 0 0 0-.277-.537Zm.938.591c.139.147.318.009.473-.028c-.014-.19.027-.5-.241-.516c-.294-.092-.471.392-.227.543Zm1.197-.536a.322.322 0 0 0 0 .578a.3.3 0 0 0 .392-.377c-.016-.189-.238-.246-.392-.201Zm1.121 0a.331.331 0 0 0 .012.588a.31.31 0 1 0-.012-.588Zm.961.51c.13.015.276.151.4.068c.323-.1.181-.675-.16-.587c-.266.009-.246.326-.243.518Zm1.295-.509a.326.326 0 0 0 .008.586a.3.3 0 0 0 .39-.379a.3.3 0 0 0-.402-.208Zm.957.507c.15.034.331.176.468.031c.254-.154.071-.629-.229-.547c-.273.007-.231.325-.243.515Zm1.291-.5a.323.323 0 0 0 .006.577a.3.3 0 0 0 .4-.375a.292.292 0 0 0-.411-.206Zm1.12 0a.326.326 0 0 0 .012.578a.3.3 0 0 0 .393-.383a.3.3 0 0 0-.41-.198Zm.962.5a2.741 2.741 0 0 0 .326.1c.158-.024.221-.2.317-.306c-.11-.135-.185-.384-.406-.311c-.272.018-.23.326-.244.515Zm1.129-.425c.019.174-.055.429.168.5c.221.13.362-.125.472-.274a2.634 2.634 0 0 0-.234-.314a1.035 1.035 0 0 0-.411.086Zm1.121.421c.148.036.337.189.471.035a.307.307 0 0 0-.232-.546c-.273.017-.231.316-.244.509Zm1.288-.476c-.219.054-.131.313-.166.476a2.971 2.971 0 0 0 .338.11c.141-.042.208-.19.3-.291a14.754 14.754 0 0 0-.224-.364Zm.979.056c0 .14-.006.28-.007.421c.17.075.392.18.524-.02c.161-.18-.028-.36-.105-.527a4.922 4.922 0 0 0-.417.124Zm1.124 0v.424c.126.031.248.126.383.09a2.122 2.122 0 0 0 .244-.28c-.074-.121-.148-.24-.225-.358a4.835 4.835 0 0 0-.407.122Zm1.122.019v.368l.2.131c.032-.216.069-.429.1-.644Zm-10.621.494a.914.914 0 0 0-.1.4a2.88 2.88 0 0 0 .294.238l.351-.231q-.06-.2-.132-.4c-.141-.01-.28-.01-.418-.009Zm1.127 0a.916.916 0 0 0-.1.389a3.083 3.083 0 0 0 .294.244l.353-.228a6.453 6.453 0 0 0-.134-.407a14.42 14.42 0 0 0-.417.001Zm1.124 0a.888.888 0 0 0-.1.388a2.666 2.666 0 0 0 .293.241l.352-.22a6.359 6.359 0 0 0-.13-.412c-.142 0-.28 0-.415.003Zm1.124 0c-.036.128-.123.252-.1.39a2.952 2.952 0 0 0 .288.241l.357-.223q-.06-.208-.135-.411c-.139-.001-.277 0-.414.002Zm-8.995 0a6.87 6.87 0 0 0-.132.406l.349.227a3.1 3.1 0 0 0 .289-.227c.037-.144-.052-.275-.1-.4a6.218 6.218 0 0 0-.41-.008Zm1.151.02a.73.73 0 0 0-.165.386l.351.231a3.3 3.3 0 0 0 .3-.237a.992.992 0 0 0-.105-.412c-.131 0-.261.011-.381.032Zm1.1-.016a6.474 6.474 0 0 0-.135.4c.114.08.231.157.348.235a2.962 2.962 0 0 0 .288-.227c.043-.143-.053-.275-.092-.406a6.37 6.37 0 0 0-.413-.007Zm1.119 0a.905.905 0 0 0-.1.394a3.057 3.057 0 0 0 .3.24c.118-.079.235-.156.352-.237a7.522 7.522 0 0 0-.135-.4a14.643 14.643 0 0 0-.416-.002Zm1.127 0a.814.814 0 0 0-.1.4a3.142 3.142 0 0 0 .294.237c.118-.078.234-.155.351-.235a6.93 6.93 0 0 0-.132-.4Zm5.628-.012a1 1 0 0 0-.107.4a2.513 2.513 0 0 0 .294.245q.175-.109.349-.221a31.96 31.96 0 0 0-.062-.259c-.064-.224-.311-.137-.478-.17Zm1.119.013a.946.946 0 0 0-.1.387a2.782 2.782 0 0 0 .291.243l.353-.221a6.38 6.38 0 0 0-.129-.413a9.77 9.77 0 0 0-.419-.001Zm1.134-.016a3.063 3.063 0 0 0-.118.337c.028.15.2.211.294.311l.354-.217c-.038-.137-.026-.317-.165-.4a2.588 2.588 0 0 0-.372-.036Zm1.121 0c-.036.129-.13.253-.1.392a1.958 1.958 0 0 0 .292.25l.343-.217l-.056-.27c-.074-.211-.317-.124-.483-.156Zm1.126 0a3.31 3.31 0 0 0-.114.325c.027.159.2.224.3.321l.342-.215c-.036-.139-.026-.315-.162-.4a2.52 2.52 0 0 0-.37-.035Zm1.054.172c-.151.211.114.362.252.476l.349-.214l-.054-.271a.3.3 0 0 0-.555.005Zm-15.188.45a.722.722 0 0 0 .1.528h.347a.885.885 0 0 0 .105-.523a.675.675 0 0 0-.556-.01Zm1.121.005a.716.716 0 0 0 .112.523h.336a.81.81 0 0 0 .11-.526a.649.649 0 0 0-.562-.002Zm1.126 0a.773.773 0 0 0 .105.527h.341a.705.705 0 0 0 .107-.525a.679.679 0 0 0-.556-.011Zm1.122 0a.8.8 0 0 0 .107.524h.346a.814.814 0 0 0 .106-.528a.686.686 0 0 0-.562-.002Zm1.124 0a2.628 2.628 0 0 0 .017.4a.685.685 0 0 0 .418.151a.727.727 0 0 0 .122-.558a.656.656 0 0 0-.56.003Zm1.124 0a.867.867 0 0 0 .109.524h.344a.76.76 0 0 0 .106-.528a.69.69 0 0 0-.562-.001Zm1.125 0a.856.856 0 0 0 .109.525h.344a.7.7 0 0 0 .1-.532a.7.7 0 0 0-.556.001Zm1.124.005a.865.865 0 0 0 .11.521h.341a.7.7 0 0 0 .106-.529a.662.662 0 0 0-.56.007Zm1.126 0a3.32 3.32 0 0 0 .019.4c.107.124.276.119.423.148a.711.711 0 0 0 .109-.561a.675.675 0 0 0-.554.004Zm1.125.006a3.228 3.228 0 0 0 .018.4a.683.683 0 0 0 .419.148c.113-.164.237-.431.024-.572c-.139-.155-.313-.02-.464.017Zm1.123 0a3.472 3.472 0 0 0 .021.4a.677.677 0 0 0 .417.148a.649.649 0 0 0 .112-.562a.665.665 0 0 0-.553.007Zm1.125 0a3.154 3.154 0 0 0 .019.392c.105.126.274.121.421.149c.1-.169.243-.432.022-.571c-.141-.146-.313-.014-.464.023Zm1.123 0a.9.9 0 0 0 .115.515h.332c.073-.129.208-.272.108-.426c-.091-.261-.373-.187-.557-.096Zm1.127 0a3.882 3.882 0 0 0 .02.392c.105.124.271.122.418.151c.109-.175.255-.436.017-.577c-.139-.142-.308-.01-.457.027ZM7.8 23.691c.154-.055.115-.333-.017-.394c-.149.047-.128.347.017.394Zm16.418-.408c-.14.076-.168.369-.012.44c.154-.059.177-.385.013-.44Zm-16.262.547a.343.343 0 0 0 .181.607c.124-.073.337-.154.3-.332a.33.33 0 0 0-.481-.275Zm1.129 0c-.371.228.069.815.365.5c.318-.214-.05-.686-.365-.501Zm.948.4c.158.068.329.309.5.132c.293-.115.147-.6-.154-.556c-.252-.044-.292.247-.346.419Zm1.317.131c.168.172.341-.059.5-.126c-.052-.173-.093-.47-.343-.429c-.301-.047-.449.434-.157.55Zm.931-.131a3.819 3.819 0 0 0 .354.208a.7.7 0 0 0 .3-.221c.051-.194-.088-.448-.311-.411c-.245-.037-.294.248-.343.419Zm1.276-.432c-.056.168-.222.41 0 .531c.172.208.372 0 .542-.1a.43.43 0 0 0-.541-.436Zm1.119 0c-.048.167-.218.408 0 .525c.209.275.67-.1.468-.37c-.075-.198-.305-.13-.467-.153Zm1.15.047c-.263.188-.1.529.172.595c.205-.056.419-.266.275-.483c-.073-.184-.299-.185-.447-.115Zm1.1-.047a1.253 1.253 0 0 0-.111.41a.833.833 0 0 0 .306.232c.208-.053.42-.266.277-.484c-.075-.203-.31-.132-.472-.156Zm1.152.044c-.264.194-.105.526.17.6c.131-.056.335-.144.311-.319a.312.312 0 0 0-.481-.284Zm1.127 0c-.266.189-.108.528.166.6c.129-.06.34-.141.312-.319a.31.31 0 0 0-.483-.283Zm1.034.114c-.177.223.109.394.255.519c.1-.113.336-.167.312-.348c.063-.327-.438-.461-.567-.172Zm1.224.393c.162.185.341-.037.5-.107c-.031-.19-.09-.5-.354-.434a.291.291 0 0 0-.146.54Zm1.026-.4c-.174.219.107.4.248.524c.1-.112.343-.165.317-.349c.076-.319-.437-.457-.565-.172Zm1.211-.1c-.366.221.1.785.374.475c.314-.214-.074-.719-.374-.472Zm-15.284.562a.936.936 0 0 0 .083.527h.39a1.148 1.148 0 0 0 .081-.524a.947.947 0 0 0-.554 0Zm1.124 0a.932.932 0 0 0 .082.526h.394a1.136 1.136 0 0 0 .079-.522a.9.9 0 0 0-.554 0Zm1.122 0a1.18 1.18 0 0 0 .08.525h.391a.975.975 0 0 0 .085-.525a.929.929 0 0 0-.555.004Zm1.126 0a.979.979 0 0 0 .082.523h.393a1.132 1.132 0 0 0 .081-.527a.963.963 0 0 0-.555.011Zm1.124 0a1.061 1.061 0 0 0 .082.524h.392a.978.978 0 0 0 .081-.526a.942.942 0 0 0-.554.007Zm1.122 0a1.2 1.2 0 0 0 .084.523h.391a.944.944 0 0 0 .083-.527a.952.952 0 0 0-.557.011Zm1.128 0a1.072 1.072 0 0 0 .09.545c.17-.021.442.018.471-.218l-.012-.331a.93.93 0 0 0-.548.009Zm1.122 0a1.3 1.3 0 0 0 .087.545c.176-.02.442.014.482-.223l-.019-.328a.968.968 0 0 0-.549.013Zm1.124 0a1.273 1.273 0 0 0 .091.545c.174-.022.433.013.479-.217l-.02-.335a.934.934 0 0 0-.549.015Zm1.126 0a1.168 1.168 0 0 0 .092.544c.176-.019.442.011.478-.225l-.024-.326a.924.924 0 0 0-.545.015Zm1.126 0a1.219 1.219 0 0 0 .089.547l.339-.038c.2-.1.136-.34.116-.515a.95.95 0 0 0-.542.011Zm1.124 0a1.116 1.116 0 0 0 .1.547l.334-.041c.211-.082.122-.348.116-.515a.981.981 0 0 0-.548.016Zm1.125 0a1.206 1.206 0 0 0 .089.544l.34-.037c.207-.092.132-.345.113-.517a.944.944 0 0 0-.54.018Zm1.127 0a3.826 3.826 0 0 0 .015.4c.081.157.261.124.407.113c.205-.105.145-.346.119-.527a.982.982 0 0 0-.539.019Zm-15.071.558a2.328 2.328 0 0 0 .077.615a.632.632 0 0 0 .394-.249c.076-.248-.236-.522-.469-.361Zm1.125.008c-.319.173-.071.671.259.565c.094-.079.251-.162.214-.31c.014-.212-.295-.41-.471-.249Zm1.117.008a.284.284 0 0 0-.041.465c.159.226.534.035.521-.208c.022-.217-.303-.43-.478-.251Zm1.13-.007c-.4.214.1.82.378.47c.299-.209-.109-.696-.376-.464Zm1.118.006c-.384.216.1.8.378.471c.316-.206-.108-.719-.376-.465Zm1.128 0c-.392.217.094.805.378.471c.307-.213-.107-.712-.376-.467Zm1.126 0c-.4.219.1.809.383.468c.294-.218-.113-.706-.381-.464Zm1.124 0c-.394.219.1.806.38.472c.298-.219-.106-.713-.378-.469Zm1.128 0c-.4.216.093.809.38.473c.292-.221-.107-.71-.377-.47Zm1.187-.05c-.147.093-.313.306-.157.465a.293.293 0 0 0 .473.058c.254-.198-.018-.627-.313-.52Zm1.124 0c-.146.093-.313.317-.152.47a.292.292 0 0 0 .466.057c.258-.198-.013-.631-.311-.524Zm1.127 0a.321.321 0 0 0 .193.611a.321.321 0 0 0-.192-.608Zm1.121 0c-.172.1-.32.368-.111.51a.294.294 0 0 0 .518-.2a.314.314 0 0 0-.404-.307Zm.973.15c-.169.176.059.36.153.5c.166-.052.448-.1.4-.342a.3.3 0 0 0-.546-.155Zm1.074.248a.641.641 0 0 0 .4.255a5.347 5.347 0 0 0 .1-.552c-.167-.286-.587.036-.497.3Zm-15.143.2c-.016.2-.092.54.209.55c.356.079.37-.307.32-.547a2.134 2.134 0 0 0-.525.001Zm1.122 0a5.134 5.134 0 0 0 0 .517a.985.985 0 0 0 .5-.025a.971.971 0 0 0 .036-.487a2.134 2.134 0 0 0-.532-.001Zm1.129 0a.925.925 0 0 0 .032.493a.874.874 0 0 0 .5.021a7.341 7.341 0 0 0 0-.514a2.851 2.851 0 0 0-.528.002Zm1.121 0a2.238 2.238 0 0 0-.013.361c.038.228.343.221.5.129c.1-.149.04-.332.035-.5a2.579 2.579 0 0 0-.518.017Zm1.129 0c-.005.162-.061.343.036.492a1.013 1.013 0 0 0 .488.038a3.843 3.843 0 0 0 0-.531a2.851 2.851 0 0 0-.52.004Zm1.121 0a.944.944 0 0 0 .036.483a.858.858 0 0 0 .493.036a4.467 4.467 0 0 0 .005-.523a2.387 2.387 0 0 0-.53.012Zm3.39-.007c-.005.16-.078.344.028.489c.144.091.324.041.484.048a3.458 3.458 0 0 0 .006-.534a3.133 3.133 0 0 0-.514.004Zm-2.265 0c-.046.233-.042.616.306.556c.313.005.246-.355.223-.559a4.555 4.555 0 0 0-.525.012Zm1.132 0c-.019.2-.1.55.209.553c.352.078.38-.314.307-.556a4.828 4.828 0 0 0-.511.011Zm2.253.006a.8.8 0 0 0 .025.481c.148.093.332.038.5.044a.908.908 0 0 0-.029-.5a.731.731 0 0 0-.491-.016Zm1.126-.005c-.017.193-.105.545.2.551c.353.086.4-.314.313-.557c-.168.002-.337.004-.508.014Zm1.114 0c-.044.231-.045.61.3.555c.313 0 .254-.355.223-.56a4.11 4.11 0 0 0-.519.015Zm1.161.482a.457.457 0 0 0 .46.015a.727.727 0 0 0 .027-.5l-.315-.028c-.246.026-.28.352-.167.524Zm1.074-.285a.291.291 0 0 0 .414.333c.237-.053.142-.366.122-.533c-.184-.023-.524-.069-.531.211Zm-14.843.354c-.052.122.106.326.238.284c.074-.119-.094-.325-.233-.274Zm.717.172c.043.179.1.475.351.418c.244.047.287-.244.34-.41a2.893 2.893 0 0 0-.345-.219a3.314 3.314 0 0 0-.341.221Zm1.124 0c.048.175.1.473.348.416c.244.046.292-.243.344-.411a2.959 2.959 0 0 0-.352-.218a3.276 3.276 0 0 0-.335.225Zm1.32-.143c-.284.12-.165.6.142.559c.25.053.31-.237.353-.415c-.144-.062-.317-.296-.49-.132Zm1.076.041a.289.289 0 0 0 .2.518c.251.057.3-.24.348-.414c-.16-.091-.373-.313-.543-.092Zm.976.112c.049.168.1.451.342.406c.25.052.311-.239.347-.419a3.235 3.235 0 0 0-.34-.209a2.661 2.661 0 0 0-.344.234Zm1.123 0c.051.167.105.449.345.407c.251.056.306-.241.345-.42a3.363 3.363 0 0 0-.342-.208a2.827 2.827 0 0 0-.343.232Zm1.206.265c.079.184.3.126.461.158q.084-.215.15-.435a3.113 3.113 0 0 0-.341-.199c-.2.052-.42.283-.265.487Zm1.234-.408a.293.293 0 0 0 .151.549c.25.051.32-.237.346-.422c-.15-.062-.325-.298-.491-.116Zm1.133-.006a.281.281 0 0 0-.12.408a.313.313 0 0 0 .57-.065c.093-.224-.247-.52-.447-.332Zm1.008.412c.082.178.3.133.456.162c.078-.16.215-.411.012-.539c-.206-.269-.663.134-.462.388Zm1.231-.4c-.354.188-.024.7.312.528c.387-.163.006-.8-.306-.52Zm1.118 0c-.308.17-.071.643.248.539c.222-.005.205-.274.255-.425c-.15-.066-.333-.292-.497-.102Zm1.134-.01c-.116.09-.235.281-.107.412c.112.224.53.188.563-.073c.098-.23-.249-.52-.45-.327Zm.966.291c.164.06.325-.194.258-.333c-.154-.041-.353.204-.252.345Zm-14.083.562c.228 0 .457.005.685 0c-.075-.16-.164-.374-.381-.326c-.187-.002-.225.205-.298.338Zm1.13 0h.671c-.068-.14-.115-.346-.314-.332c-.208-.028-.288.183-.351.344Zm1.129-.04a1.957 1.957 0 0 0 .673.035c-.077-.137-.129-.343-.326-.327c-.177-.013-.291.144-.34.305Zm1.437-.291c-.2-.019-.251.191-.323.331h.684c-.067-.142-.141-.359-.355-.319Zm.806.331c.222 0 .444 0 .665-.006a12.37 12.37 0 0 0-.125-.3a.4.4 0 0 0-.533.318Zm1.122 0c.222.005.444 0 .666 0l-.115-.307a.4.4 0 0 0-.546.319Zm1.127 0h.656l-.107-.315a.41.41 0 0 0-.542.327Zm1.3-.308a1.87 1.87 0 0 0-.178.307c.222.005.442 0 .664 0l-.12-.316a2.313 2.313 0 0 0-.358.022Zm.952.309h.662l-.122-.321c-.245-.029-.486.047-.532.333Zm1.3-.307a.944.944 0 0 0-.173.307h.663l-.123-.315a2.106 2.106 0 0 0-.36.021Zm1.121 0a1.122 1.122 0 0 0-.169.3h.657l-.112-.316a1.712 1.712 0 0 0-.371.031Zm1.126 0a1.254 1.254 0 0 0-.17.308h.661l-.116-.316a2.087 2.087 0 0 0-.368.019ZM15.768 9.172h.463c.071.2.049.52-.227.523s-.284-.321-.236-.523Z"/><path fill="#171717" d="M15.318 2.291A7.18 7.18 0 0 1 21.729 5.1c.531.654.792 1.487 1.373 2.1a3.183 3.183 0 0 0 2.4 1.2a3.34 3.34 0 0 1 2.625 1.05a3.056 3.056 0 0 1 .525 2.312q-.966 7.149-1.924 14.3a4.346 4.346 0 0 1-4.39 3.68H9.667a4.364 4.364 0 0 1-4.374-3.62Q4.32 19.1 3.36 12.074A3.211 3.211 0 0 1 3.831 9.7a3.654 3.654 0 0 1 2.762-1.286a3.316 3.316 0 0 0 2.463-1.36C9.521 6.5 9.764 5.8 10.2 5.231a7.167 7.167 0 0 1 5.118-2.94Zm-.207 1.63a5.571 5.571 0 1 0 4.085.942a5.586 5.586 0 0 0-4.085-.942Zm-8.6 7.232a.8.8 0 0 0-.638.411a1.526 1.526 0 0 0-.032.99l1.742 13.074a2.04 2.04 0 0 0 2.078 1.766c4.329-.007 8.657 0 12.984-.006a2.046 2.046 0 0 0 1.775-1.751q.869-6.527 1.755-13.054c.054-.406.173-.917-.182-1.223c-.4-.328-.945-.2-1.415-.223a3.369 3.369 0 0 0-1.729.218a1.865 1.865 0 0 0-.706.93a6.77 6.77 0 0 1-4.466 3.71a6.922 6.922 0 0 1-4.2-.283A6.8 6.8 0 0 1 9.8 12.13a1.5 1.5 0 0 0-1.35-.989c-.643.001-1.29-.021-1.935.012Z"/><path fill="#c2c2c2" d="M22.548 30q-.108 0-.217-.006H9.674a4.639 4.639 0 0 1-4.633-3.837q-.623-4.5-1.238-8.988q-.348-2.53-.7-5.06a3.432 3.432 0 0 1 .52-2.561a3.944 3.944 0 0 1 2.955-1.389h.013a3.041 3.041 0 0 0 2.265-1.264a5.637 5.637 0 0 0 .595-.933A6.984 6.984 0 0 1 10 5.076a7.419 7.419 0 0 1 11.932-.129a6.777 6.777 0 0 1 .636 1a5.216 5.216 0 0 0 .721 1.083a2.977 2.977 0 0 0 2.2 1.123a3.559 3.559 0 0 1 2.835 1.134a3.271 3.271 0 0 1 .581 2.5Q28.5 14.8 28.1 17.808a4893.56 4893.56 0 0 1-1.116 8.286A4.605 4.605 0 0 1 22.548 30Zm-12.887-.517h12.691a4.066 4.066 0 0 0 4.122-3.458c.376-2.762.752-5.57 1.116-8.286q.4-3.006.808-6.013a2.853 2.853 0 0 0-.468-2.114a3.165 3.165 0 0 0-2.43-.946a3.47 3.47 0 0 1-2.587-1.289A5.673 5.673 0 0 1 22.12 6.2a6.266 6.266 0 0 0-.59-.933l-.007-.009a6.919 6.919 0 0 0-6.179-2.71A6.905 6.905 0 0 0 10.41 5.38a6.51 6.51 0 0 0-.511.829a6.1 6.1 0 0 1-.647 1.01A3.542 3.542 0 0 1 6.6 8.67a3.446 3.446 0 0 0-2.564 1.185a3.014 3.014 0 0 0-.423 2.186q.348 2.528.7 5.059q.617 4.492 1.238 8.984a4.109 4.109 0 0 0 4.108 3.4Zm-.109-1.83a2.3 2.3 0 0 1-2.218-2c-.407-3.082-.827-6.223-1.233-9.26l-.509-3.807c-.007-.062-.017-.122-.026-.183a1.407 1.407 0 0 1 .086-.962a1.047 1.047 0 0 1 .831-.544h.019c.464-.024.932-.02 1.385-.016h.566a1.746 1.746 0 0 1 1.587 1.149a6.516 6.516 0 0 0 3.532 3.441a6.669 6.669 0 0 0 4.048.272a6.554 6.554 0 0 0 4.293-3.567a2.1 2.1 0 0 1 .807-1.044a2.385 2.385 0 0 1 1.4-.255c.157 0 .306.008.45 0h.03c.109.006.226 0 .35 0a1.7 1.7 0 0 1 1.214.282a1.368 1.368 0 0 1 .286 1.341a6061.633 6061.633 0 0 0-1.772 13.175a2.3 2.3 0 0 1-2 1.971H9.674a.842.842 0 0 1-.122.008ZM6.538 11.408a.554.554 0 0 0-.43.265L6.1 11.7a.972.972 0 0 0-.026.631c.011.067.021.133.029.2l.508 3.8c.406 3.037.826 6.178 1.234 9.268a1.794 1.794 0 0 0 1.807 1.544h.017q3.066-.005 6.131 0h6.84a1.8 1.8 0 0 0 1.535-1.521c.555-4.168 1.129-8.438 1.756-13.062l.018-.126c.058-.4.084-.7-.114-.869a1.288 1.288 0 0 0-.869-.161c-.124 0-.253.007-.38 0c-.159.007-.32 0-.476 0a1.933 1.933 0 0 0-1.115.178l-.012.007a1.656 1.656 0 0 0-.6.811a6.982 6.982 0 0 1-4.637 3.854a7.184 7.184 0 0 1-4.362-.294a7.03 7.03 0 0 1-3.813-3.718v-.01a1.249 1.249 0 0 0-1.119-.832h-.57a18.263 18.263 0 0 0-1.344.008ZM16 15.233a5.731 5.731 0 0 1-2.633-.635a5.819 5.819 0 0 1 1.7-10.929A5.819 5.819 0 1 1 16 15.233ZM16 4.1a5.131 5.131 0 0 0-.848.07a5.308 5.308 0 1 0 2.49 10.29a5.371 5.371 0 0 0 3.127-2.723A5.314 5.314 0 0 0 16 4.1Z"/><path fill="#4f4f4f" d="M15.342 4.368a5.1 5.1 0 0 1 4.427 8.5a5.12 5.12 0 0 1-7.54 0a5.1 5.1 0 0 1 3.113-8.5Zm-.438.477l.138.508l-.255.054c-.039-.166-.077-.33-.112-.5a8.108 8.108 0 0 0-.921.379q.136.221.275.441l-.246.122l-.233-.438a8.689 8.689 0 0 0-.79.6a10.53 10.53 0 0 1 .754.756c-.057.064-.122.122-.183.181c-.244-.263-.5-.514-.753-.766c-.2.255-.394.513-.585.776l.441.233a4.71 4.71 0 0 0-.116.25c-.154-.092-.313-.176-.47-.263c-.122.3-.239.595-.358.893c.171.044.341.089.513.132l-.088.255q-.248-.072-.5-.135c-.042.325-.084.65-.112.976c.358 0 .715 0 1.073-.009v.262c-.357 0-.714 0-1.071-.007a8.484 8.484 0 0 0 .135.961l.475-.143l.09.26l-.5.133q.167.451.364.889q.21-.124.418-.253q.089.112.181.224l-.456.256a8.846 8.846 0 0 0 .591.76c.248-.25.5-.5.745-.752l.2.2c-.258.243-.507.5-.751.753a4.7 4.7 0 0 0 6.42-.005q-.383-.389-.774-.774c.079-.047.155-.1.238-.142c.258.224.483.481.727.72a9.279 9.279 0 0 0 .593-.762l-.457-.254l.18-.23l.409.266c.139-.292.263-.59.374-.892a27.448 27.448 0 0 1-.5-.14l.085-.245l.5.115c.037-.314.081-.626.121-.94h-1.071l-.026-.253h1.089c-.03-.327-.074-.652-.12-.976c-.165.045-.329.091-.492.139a26.17 26.17 0 0 1-.088-.258l.512-.131c-.118-.3-.236-.6-.359-.893c-.156.084-.313.17-.467.259l-.119-.241c.131-.069.264-.136.39-.215c-.073-.318-.361-.541-.544-.8c-.252.266-.511.526-.772.784a2.32 2.32 0 0 1-.141-.209a9.8 9.8 0 0 1 .742-.744c-.25-.213-.511-.412-.779-.6c-.1.166-.2.327-.312.487c-.249-.2-.008-.422.082-.627c-.3-.136-.6-.262-.907-.369l-.109.5l-.26-.061c.047-.168.1-.335.143-.5q-.484-.084-.975-.123c0 .344.013.689-.009 1.033l-.241.063v-1.1c-.33.035-.655.073-.98.13Z"/><path fill="#a2a2a2" d="M16.027 8.686c.416-.782.769-1.6 1.2-2.37c.308-.055.158.266.1.427c-.275.715-.537 1.435-.811 2.15a.8.8 0 0 1 .084.907a.714.714 0 0 1-1.262-.139a.751.751 0 0 1 .689-.975Zm-.259.485c-.048.2-.049.524.236.524s.3-.323.227-.523a11.91 11.91 0 0 0-.463 0Z"/><path fill="#51555a" d="M6.673 11.625h.661c-.119.109-.231.275-.419.225a3 3 0 0 1-.242-.225Zm1.127.003c.222-.007.445-.007.666 0c-.123.106-.237.282-.426.218a3.035 3.035 0 0 1-.24-.218Zm15.752.001a9.05 9.05 0 0 1 .659 0a3 3 0 0 1-.244.226c-.186.045-.297-.118-.415-.226Zm1.125-.001c.218-.007.437-.007.656 0a3.222 3.222 0 0 1-.242.231c-.191.041-.297-.12-.414-.231Zm-18.445.229c.178-.024.472-.058.488.2c.087.286-.206.347-.419.363q-.04-.283-.069-.563Zm1.31-.029c.348-.066.44.53.09.571c-.405.128-.49-.569-.09-.571Zm1.127-.002c.356-.061.435.557.073.575c-.397.108-.465-.576-.073-.575Zm16.883.005c.383-.084.291.693-.053.569c-.321-.044-.275-.592.053-.569Zm-2.387.029c.13-.052.349-.055.4.1a.286.286 0 0 1-.316.43c-.259-.015-.294-.416-.084-.53Zm1.135-.002c.345-.213.631.386.274.518c-.334.187-.597-.353-.274-.518Zm-17.351.549c.216-.058.462.236.317.431a.3.3 0 0 1-.526 0c-.119-.165.029-.395.209-.431Zm1.123.001c.394-.1.5.6.067.575c-.361.063-.423-.526-.067-.575Zm1.128-.002c.388-.078.492.624.059.578c-.359.045-.412-.525-.059-.578Zm13.215.367c.091-.14.146-.339.33-.382c.244.012.428.326.229.51c-.174.199-.431.033-.559-.128Zm1.4-.361c.355-.111.515.5.152.566a.293.293 0 1 1-.152-.566Zm1.123-.001c.221-.071.473.219.329.427a.3.3 0 1 1-.329-.427Zm-18.563.511c.142.069.369.111.355.317c.037.184-.159.265-.279.357a7.677 7.677 0 0 1-.076-.674Zm1.006.052h.372a1.121 1.121 0 0 1 .085.53a1.914 1.914 0 0 1-.546 0a1.124 1.124 0 0 1 .089-.53Zm1.142-.026c.159.035.437.014.447.244a.288.288 0 0 1-.441.311c-.229-.116-.078-.386-.006-.555Zm1.024.552a.943.943 0 0 1 .114-.577a5.052 5.052 0 0 1 .335.527c-.076.184-.304.039-.449.05Zm12.434.029a4.428 4.428 0 0 1 .355-.564a.567.567 0 0 1 .119.539a5.314 5.314 0 0 1-.474.025Zm1.155-.554h.36c.191.217.112.636-.229.57c-.302-.031-.254-.381-.131-.57Zm1.123 0h.361c.032.131.174.264.09.4a.292.292 0 0 1-.532 0c-.07-.133.045-.269.081-.4Zm1.034.2c0-.188.236-.19.37-.228q-.044.331-.1.661c-.141-.108-.358-.208-.27-.433Zm-18.524.485c.183-.288.67.006.511.294c-.065.215-.31.145-.479.174c-.033-.15-.175-.328-.032-.468Zm1.186-.06c.221-.183.586.1.454.353a.307.307 0 0 1-.554.009a.285.285 0 0 1 .1-.362Zm1.023.355c-.171-.294.34-.585.513-.287c.134.133 0 .313-.031.459c-.169-.027-.413.043-.482-.172Zm13.538-.282c.144-.27.617-.075.535.222c-.029.256-.319.22-.507.229c-.03-.147-.155-.315-.028-.451Zm1.172-.073a.307.307 0 0 1 .487.29a.3.3 0 0 1-.57.051c-.077-.113.008-.241.083-.341Zm1.075.076a.3.3 0 0 1 .535.218c-.024.262-.319.221-.508.228c-.026-.145-.146-.311-.027-.446Zm-14.706-.034a3.759 3.759 0 0 1 .466.471c-.118 0-.236 0-.355.005a4.235 4.235 0 0 1-.111-.476Zm11.452.527a2.288 2.288 0 0 1 .431-.529a.435.435 0 0 1-.431.529ZM6.488 14.1l.231.129a3.877 3.877 0 0 1-.04.461a1.946 1.946 0 0 1-.191-.59Zm.801.512c0-.188-.031-.507.237-.509c.294-.08.458.391.214.531c-.134.132-.304.006-.451-.022Zm1.231.023c-.254-.142-.075-.616.219-.531c.262.013.227.318.236.5c-.149.034-.32.166-.455.031Zm1.174-.525c.16-.04.373.013.4.2a.29.29 0 0 1-.447.325a.316.316 0 0 1 .047-.525Zm12.371.031l.273-.075c.093.172.264.448.016.575c-.136.121-.3 0-.446-.032c.03-.161-.059-.409.157-.468Zm1.122.001l.277-.075c.094.174.26.449.011.577c-.136.123-.3-.011-.445-.041c.032-.158-.05-.403.157-.461Zm1.126-.025a.3.3 0 0 1 .406.193c.105.216-.187.489-.39.36a.31.31 0 0 1-.016-.553Zm1 .557a.525.525 0 0 1 .2-.617c-.032.214.01.48-.2.617Zm-14.677-.394a4.076 4.076 0 0 1 .423.458a11.638 11.638 0 0 1-.372-.128l-.051-.33Zm10.711.063c.113.045-.006.2-.051.263s-.239.194-.275.058a.611.611 0 0 1 .326-.321ZM6.8 14.705h.418c.033.144.167.313.031.445a.3.3 0 0 1-.477.007c-.146-.13-.011-.307.028-.452Zm1.121 0h.416c.017.123.149.258.073.378a.3.3 0 0 1-.519.071c-.139-.129-.003-.305.03-.449Zm1.123.002h.419c.032.143.164.318.03.449a.3.3 0 0 1-.474.006c-.147-.131-.009-.31.025-.455Zm1.062.154c.067-.211.3-.143.473-.17c.038.148.179.32.041.46c-.173.299-.691.007-.514-.29ZM21.42 14.7c.19.007.477-.03.506.23c.088.3-.392.486-.539.222c-.131-.14.003-.309.033-.452Zm1.149.032c.177-.1.466-.033.481.2c.091.3-.4.482-.542.215a.305.305 0 0 1 .061-.415Zm1.096-.032c.19 0 .489-.032.509.233c.086.3-.388.479-.537.221c-.122-.138.005-.313.028-.454Zm1.135-.006c.187.009.484-.029.5.234c.1.3-.4.481-.538.218c-.122-.138.006-.306.038-.452Zm-13.631.141c.182.121.356.254.526.391c-.286.14-.535-.092-.526-.391Zm9.154.398a5.625 5.625 0 0 1 .512-.38a.361.361 0 0 1-.512.38Zm-12.861.019a.3.3 0 0 1 .383.373a.284.284 0 0 1-.46.148a.307.307 0 0 1 .077-.521Zm1.119.004c.345-.168.574.422.232.562c-.354.172-.599-.431-.232-.562Zm1.124.003c.34-.174.581.42.231.559c-.353.171-.596-.431-.231-.559Zm1.128-.002c.339-.167.582.433.22.562c-.353.167-.579-.443-.22-.562Zm9.962.072c.216-.147.557-.11.573.205c-.008.324-.36.359-.576.206c0-.14.001-.274.003-.411Zm1.113 0c.148-.032.32-.172.456-.034c.307.178 0 .7-.3.513c-.204-.075-.131-.308-.156-.479Zm1.137-.001c.143-.036.311-.168.444-.033a.294.294 0 0 1 .01.478c-.125.154-.314 0-.457-.033c0-.14.001-.275.003-.412Zm1.279-.064a.275.275 0 0 1 .392.174c.118.221-.188.517-.4.368a.3.3 0 0 1 .008-.542Zm-12.524.047a5.159 5.159 0 0 1 .586.412c-.158.039-.355.206-.5.048c-.159-.095-.075-.313-.086-.46Zm7.827.408a9.03 9.03 0 0 1 .586-.4c0 .151.065.363-.1.46c-.141.15-.333-.022-.486-.06Zm-12.815.143c.158-.04.387-.069.458.122c.15.206-.094.365-.238.472l-.232-.115a1.372 1.372 0 0 1 .012-.479Zm1.046.127c.072-.2.308-.134.473-.161c.031.129.127.255.093.393a2.687 2.687 0 0 1-.291.259c-.15-.12-.42-.26-.275-.491Zm1.226-.128c.149-.048.37-.058.434.121c.183.264-.242.6-.458.363a.3.3 0 0 1 .024-.484Zm1.116 0c.154-.049.375-.057.441.125c.166.222-.176.553-.393.4a.3.3 0 0 1-.048-.525Zm1 .189a.317.317 0 0 1 .573-.067c.158.222-.118.379-.266.5c-.13-.126-.367-.214-.307-.433Zm1.254-.177c.168-.119.381.024.483.168c.06.265-.3.512-.5.3a.284.284 0 0 1 .017-.468Zm6.846-.012a.246.246 0 0 1 .346.123c.185.27-.25.594-.467.359a.273.273 0 0 1 .121-.482Zm1.071.521a.287.287 0 0 1 .122-.548c.255-.06.3.241.348.42c-.15.056-.307.255-.47.128Zm.964-.333a.308.308 0 0 1 .591 0c.074.226-.174.311-.308.431c-.109-.122-.372-.231-.283-.431Zm1.29.333a.285.285 0 0 1 .114-.547c.259-.063.309.238.348.421c-.147.054-.302.244-.462.126Zm1.117-.002a.287.287 0 0 1 .12-.545c.261-.062.309.241.351.424c-.149.058-.307.247-.471.121Zm1.012-.106c-.172-.206.092-.539.342-.432c.263.037.1.374.121.543c-.156.015-.38.07-.463-.111ZM13.416 16.2a1.372 1.372 0 0 1 .548.236a.617.617 0 0 1-.548-.236Zm5.07 0c.206.113-.3.429-.344.184c.043-.147.214-.184.344-.184Zm-11.198.252a.763.763 0 0 1 .56 0a.942.942 0 0 1-.108.516H7.4a.876.876 0 0 1-.112-.516Zm1.123-.002a.845.845 0 0 1 .563 0a.99.99 0 0 1-.108.519h-.347a.952.952 0 0 1-.108-.519Zm1.239-.02c.134-.116.3 0 .445.024a.845.845 0 0 1-.11.515h-.338c-.095-.163-.218-.423.003-.539Zm1.012.016a.855.855 0 0 1 .562.005a1.041 1.041 0 0 1-.105.518h-.354a.982.982 0 0 1-.103-.523Zm1.125.001a.879.879 0 0 1 .559 0a.955.955 0 0 1-.107.522H11.9a.865.865 0 0 1-.113-.522Zm1.237.522c-.2-.218-.146-.6.2-.606c.313.058.31.4.141.6Zm5.509-.517a.836.836 0 0 1 .558-.007a.9.9 0 0 1-.114.554c-.146-.033-.314-.031-.42-.153a3.613 3.613 0 0 1-.024-.394Zm1.13.003c.17-.051.366-.13.515.016c.139.179 0 .359-.08.526c-.145-.032-.311-.031-.417-.151a4.262 4.262 0 0 1-.018-.391Zm1.116.005c.173-.055.372-.141.524.013c.13.167.006.336-.066.495h-.351a1.144 1.144 0 0 1-.107-.508Zm1.131-.004a.775.775 0 0 1 .551-.013a.736.736 0 0 1-.116.557c-.144-.034-.31-.035-.413-.157q-.021-.194-.022-.387Zm1.128 0c.17-.053.364-.132.513.015c.143.179 0 .359-.08.527a.733.733 0 0 1-.416-.152a4.624 4.624 0 0 1-.017-.39Zm1.123-.005a.908.908 0 0 1 .547-.014a.76.76 0 0 1-.108.563c-.146-.034-.313-.035-.418-.157a3.445 3.445 0 0 1-.021-.392Zm-10.119-.019c.2.047.52-.045.585.221a4.142 4.142 0 0 1-.137.314h-.346a.86.86 0 0 1-.102-.535Zm3.367.068a3.374 3.374 0 0 1 .517-.044c.119.178.021.353-.064.516h-.347a.885.885 0 0 1-.106-.472Zm-2.309.115c.226.012.452.031.678.052l-.189.324a.45.45 0 0 1-.489-.376Zm1.122.057q.34-.038.683-.056c-.059.127-.122.251-.185.376a.494.494 0 0 1-.498-.32Zm-9.333.256c.157.043.349.071.414.247c.074.208-.134.338-.283.427a2.018 2.018 0 0 1-.131-.674Zm1.076.083c.273-.238.684.277.358.47c-.28.314-.74-.269-.358-.47Zm1.122.001c.269-.238.675.255.368.464c-.274.324-.749-.252-.368-.464Zm1.125 0c.264-.236.678.259.372.462c-.278.326-.752-.249-.372-.462ZM11.344 17c.224-.168.552.109.46.364c-.1.128-.294.3-.449.146a.287.287 0 0 1-.011-.51Zm1.113.016c.173-.166.5.022.478.248c.02.177-.18.273-.318.324c-.262-.064-.424-.397-.16-.572Zm1.128-.001c.173-.164.5.028.475.252c.027.173-.178.259-.3.321c-.274-.044-.449-.409-.175-.573Zm1.123-.002c.268-.24.683.255.373.462c-.274.325-.748-.247-.373-.462Zm1.127.001a.3.3 0 0 1 .473.252c.026.175-.178.272-.314.322c-.265-.059-.425-.405-.159-.574Zm1.12.002a.3.3 0 0 1 .478.25c.027.174-.176.268-.308.32c-.268-.044-.425-.402-.17-.57Zm1.129 0c.272-.247.685.255.369.467c-.276.306-.74-.255-.369-.467Zm1.116.005c.264-.26.7.245.378.458c-.272.31-.731-.237-.378-.458Zm1.129-.003c.268-.253.689.248.377.459c-.276.323-.736-.237-.377-.459Zm1.127 0c.271-.253.685.251.372.463c-.277.308-.735-.248-.372-.463Zm1.123.001a.3.3 0 0 1 .475.253c.018.208-.312.413-.468.23a.286.286 0 0 1-.007-.483Zm1.121 0c.275-.263.692.262.369.468c-.275.295-.714-.249-.369-.468Zm1.019.158c.047-.186.251-.2.4-.251c-.019.231-.04.462-.075.691c-.149-.087-.444-.217-.325-.44Zm-15.166.39a1.4 1.4 0 0 1 .533.005c.01.186.064.531-.219.528c-.338.081-.373-.3-.314-.533Zm1.122 0a1.565 1.565 0 0 1 .534 0c.046.229.02.614-.319.529c-.285.004-.227-.343-.215-.529Zm1.125.005a1.457 1.457 0 0 1 .541 0c.037.227.02.614-.317.53c-.289.004-.24-.343-.224-.53Zm-4.5.121c.057-.239.362-.153.533-.124c.016.186.065.529-.212.529a.284.284 0 0 1-.321-.405Zm1.165-.099c.219-.193.611 0 .508.3c-.019.218-.265.231-.431.193a.352.352 0 0 1-.077-.493Zm4.459-.024c.167-.024.348-.087.5.029c.157.208.011.586-.281.5c-.284.001-.23-.343-.219-.529Zm1.122 0a.675.675 0 0 1 .5.024c.152.211.016.588-.28.506c-.285.007-.22-.343-.22-.53Zm1.125.002c.171-.03.473-.12.535.116a.283.283 0 0 1-.312.411c-.286.007-.227-.338-.223-.527Zm1.14-.008c.167-.019.468-.105.521.127a.282.282 0 0 1-.314.408c-.293.011-.224-.347-.207-.535Zm1.116.004c.169-.022.478-.114.533.123a.286.286 0 0 1-.327.409c-.285 0-.207-.345-.206-.532Zm1.118.008c.173-.035.476-.125.54.116a.283.283 0 0 1-.319.406c-.282.002-.223-.335-.221-.522Zm1.165.033a.309.309 0 0 1 .523.285c-.065.337-.664.253-.578-.109c.014-.045.045-.133.055-.176Zm1.097-.039c.17-.029.473-.114.529.123a.285.285 0 0 1-.315.408c-.291.005-.23-.34-.214-.531Zm1.158.035c.285-.287.728.155.433.434a.308.308 0 0 1-.433-.434Zm1.118-.005c.292-.285.738.152.44.439a.313.313 0 0 1-.44-.439Zm1.129 0a.313.313 0 0 1 .437.448a.313.313 0 0 1-.437-.448Zm-17.169.454c.1.1.242.186.28.336a1.59 1.59 0 0 1-.18.336a7.464 7.464 0 0 1-.1-.672Zm.998.046c.268-.1.556.319.3.506c-.154.23-.544.043-.519-.207c-.022-.145.122-.229.219-.299Zm1.128 0c.27-.084.55.322.3.509A.287.287 0 0 1 9 18.556c-.15-.165.007-.379.169-.456Zm1.125 0a.347.347 0 0 1 .384.206c.106.279-.32.56-.51.3c-.202-.143-.068-.427.126-.506Zm1.123 0c.172-.067.3.082.391.207c.093.284-.334.56-.522.3c-.197-.155-.06-.425.131-.507Zm1.121 0c.275-.093.559.322.3.509a.286.286 0 0 1-.469-.05c-.147-.159.011-.378.169-.459Zm1.124 0c.274-.1.561.317.3.507c-.158.223-.522.045-.521-.2c-.025-.141.122-.234.221-.307Zm1.129 0c.317-.09.566.4.246.56c-.372.245-.679-.42-.246-.56Zm1.121 0c.314-.11.568.379.259.548c-.365.27-.7-.404-.259-.548Zm1.005.1c.189-.268.611.019.513.3c-.071.171-.266.2-.42.246c-.11-.162-.31-.384-.093-.546Zm1.089.039c.133-.275.566-.121.551.155c.036.241-.252.3-.424.347c-.078-.152-.299-.332-.127-.502Zm1.119.01a.3.3 0 0 1 .557.143c.036.241-.248.3-.421.349c-.079-.149-.295-.321-.136-.492Zm1.287-.144c.165-.075.3.066.39.187c.108.293-.322.581-.518.309c-.184-.152-.057-.413.128-.496Zm.96.146a.3.3 0 0 1 .558.141c.037.245-.251.3-.424.351c-.067-.155-.292-.323-.134-.492Zm1.286-.146a.313.313 0 0 1 .189.6a.313.313 0 0 1-.189-.6Zm1.124 0c.371-.133.569.474.192.595a.313.313 0 0 1-.192-.595Zm.872.268a4.44 4.44 0 0 1 .339-.326a4.942 4.942 0 0 1-.134.669q-.104-.171-.205-.343ZM7.31 18.7c.192-.034.516-.1.54.187a.285.285 0 0 1-.375.343c-.265-.03-.183-.345-.165-.53Zm1.099.343a.292.292 0 0 1 .378-.364c.244.042.173.345.17.523c-.185.023-.507.111-.548-.159Zm1.191-.349a4.225 4.225 0 0 1 .469 0c.011.16.08.341-.024.486a.7.7 0 0 1-.441.04l-.089-.237c.025-.097.052-.193.085-.289Zm1.067.176c.029-.261.34-.191.521-.174c.011.165.114.431-.093.517a.292.292 0 0 1-.428-.343Zm1.141.243a.3.3 0 0 1 .353-.437c.25.051.175.354.17.535c-.169.002-.431.099-.523-.098Zm1.165-.382a.757.757 0 0 1 .469-.036c.014.164.076.347-.032.495a.916.916 0 0 1-.473.026a.681.681 0 0 1 .036-.485Zm1.245-.054c.406-.175.564.564.127.571c-.345.07-.445-.492-.127-.571Zm1.127-.002c.4-.168.562.579.121.572c-.345.068-.442-.495-.121-.572Zm1.005.062c.138-.108.319-.043.476-.042a2.566 2.566 0 0 1-.006.531a.966.966 0 0 1-.48-.044a.4.4 0 0 1 .01-.445Zm1.064.32a.294.294 0 0 1 .362-.383c.266.04.193.362.172.549c-.179-.001-.485.077-.534-.166Zm1.121-.167c.018-.282.342-.213.531-.2c.027.185.11.512-.161.546a.286.286 0 0 1-.37-.346Zm1.307-.212a.3.3 0 0 1 .384.376c-.052.226-.354.237-.513.121c-.103-.157-.085-.446.129-.497Zm.944.366a.293.293 0 0 1 .366-.37c.267.039.194.363.171.55c-.185.002-.488.076-.537-.18Zm1.185-.303c.137-.116.427-.118.484.08a.288.288 0 0 1-.33.421c-.243-.02-.278-.342-.154-.501Zm1.129.003c.125-.13.421-.118.474.075a.286.286 0 0 1-.323.421c-.239-.008-.289-.352-.151-.496Zm1.124.002c.162-.159.5-.092.508.165a.278.278 0 0 1-.357.331c-.238-.019-.289-.342-.151-.496Zm-16.438.668c.155-.064.322-.29.489-.132a.288.288 0 0 1-.142.547c-.253.06-.296-.241-.347-.415Zm1.123.009c.153-.067.315-.3.486-.146a.291.291 0 0 1-.14.553c-.246.05-.293-.238-.346-.407Zm1.323-.144c.157-.138.358.015.447.157a.3.3 0 0 1-.3.392c-.305.062-.432-.428-.147-.549Zm1.123.003c.22-.193.6.17.416.4a.308.308 0 0 1-.538-.005a.277.277 0 0 1 .122-.395Zm1.125 0c.16-.142.36.012.45.156c.055.187-.089.438-.307.39a.289.289 0 0 1-.143-.546Zm1.128-.002c.172-.146.335.069.488.137c-.046.176-.1.469-.351.412a.29.29 0 0 1-.137-.549Zm1.124.001c.172-.154.336.068.491.137c-.052.171-.1.47-.346.411a.289.289 0 0 1-.145-.548Zm1.123.001c.171-.152.336.065.491.132c-.048.175-.094.477-.347.415a.289.289 0 0 1-.144-.547Zm2.245.002c.168-.153.336.057.488.126c-.041.182-.093.485-.351.419a.289.289 0 0 1-.137-.545Zm1.13-.002c.166-.15.332.059.486.123c-.043.182-.091.489-.351.424a.29.29 0 0 1-.135-.547Zm2.241.006c.168-.159.335.048.491.118c-.033.185-.087.488-.345.424a.289.289 0 0 1-.146-.542Zm1.144-.012c.165-.13.323.064.472.124c-.028.188-.086.491-.347.429a.29.29 0 0 1-.125-.553Zm1.12.003c.164-.139.324.055.474.118c-.027.187-.081.5-.342.432a.29.29 0 0 1-.132-.55Zm-16.509.111c.137.02.161.093.072.216c-.139-.021-.162-.094-.072-.216Zm9.674.35c-.227-.2.033-.438.206-.561l.356.251c.018.303-.323.563-.562.31Zm3.594.089c-.323.038-.412-.471-.1-.566c.155-.133.3.1.451.144c-.045.18-.09.485-.351.422Zm4.261-.155c-.186 0-.1-.379.064-.337a.264.264 0 0 1-.064.337Zm-17.438.675c.012-.185-.1-.525.19-.537c.3-.1.448.293.293.5a.633.633 0 0 1-.483.037Zm1.231-.525c.172-.056.415-.006.425.212a.287.287 0 0 1-.42.327c-.231-.063-.193-.437-.005-.539Zm1.062.052c.28-.259.671.149.441.444c-.3.263-.732-.152-.441-.444Zm1.127-.001c.315-.317.741.31.349.483c-.307.19-.6-.249-.349-.483Zm1.121.003a.318.318 0 0 1 .415 0c.164.168.1.513-.169.521a.3.3 0 0 1-.246-.521Zm1.187-.055c.173-.051.413-.008.432.209c.1.246-.213.456-.424.329c-.227-.067-.191-.432-.008-.538Zm1.122.001c.173-.051.417-.012.434.207a.289.289 0 0 1-.425.329c-.219-.069-.189-.43-.009-.536Zm1.123 0c.422-.216.652.529.189.577c-.336.05-.446-.408-.189-.577Zm.998.514c.007-.187-.055-.524.224-.528c.3-.084.446.3.289.509c-.156.116-.342.049-.513.019Zm1.128.007c.005-.191-.06-.538.228-.537c.288-.076.446.31.279.514a.7.7 0 0 1-.507.023Zm1.246-.518c.359-.2.657.4.285.54c-.347.185-.593-.348-.285-.54Zm1.13-.001c.358-.2.654.406.279.541c-.343.189-.59-.36-.279-.541Zm1.122.001c.36-.2.652.4.281.541c-.339.183-.595-.354-.281-.541Zm1.003.514c.006-.191-.062-.525.223-.531c.29-.085.458.308.283.511c-.154.112-.339.044-.506.02Zm1.247-.514c.358-.2.66.4.281.541c-.34.185-.588-.357-.281-.541Zm1.043.485c-.135-.209-.02-.57.272-.506c.3-.007.205.351.223.542c-.167.02-.349.08-.495-.036Zm-16.382.259a3.035 3.035 0 0 1 .31-.252a2.7 2.7 0 0 1 .3.255c.037.134-.056.259-.089.383h-.429a.909.909 0 0 1-.092-.386Zm1.222.387a.348.348 0 0 1 .212-.591c.309.029.362.368.208.589Zm1.117-.001c-.151-.225-.1-.569.218-.588c.313.022.365.367.211.588Zm1.043-.389a2.469 2.469 0 0 1 .3-.249a2.75 2.75 0 0 1 .3.254a.776.776 0 0 1-.092.384h-.42c-.036-.126-.134-.257-.088-.389Zm1.212.39a.352.352 0 0 1 .208-.592c.312.028.372.366.214.591Zm1.039-.382a2.1 2.1 0 0 1 .3-.259a2.837 2.837 0 0 1 .3.252a.784.784 0 0 1-.089.387h-.423c-.034-.123-.134-.247-.088-.38Zm1.207.38c-.159-.222-.1-.569.216-.587c.316.024.368.366.208.59Zm1.055-.385a.3.3 0 0 1 .526-.073c.148.121.009.32-.034.46h-.422c-.02-.127-.154-.264-.07-.387Zm1.092.074c.04-.149.2-.218.3-.316c.116.077.233.154.349.235a.671.671 0 0 1-.16.378a4.409 4.409 0 0 1-.381.029a3.3 3.3 0 0 1-.108-.326Zm1.145-.066a1.967 1.967 0 0 1 .278-.251q.178.115.353.236a.793.793 0 0 1-.152.379a5.06 5.06 0 0 1-.388.028c-.029-.128-.148-.258-.091-.392Zm1.177-.069a.3.3 0 0 1 .544.23c-.019.263-.317.22-.5.23c-.044-.151-.189-.323-.044-.46Zm1.238-.098c.165-.114.318.068.465.128a.691.691 0 0 1-.156.4a4.475 4.475 0 0 1-.384.027c-.097-.181-.168-.454.075-.555Zm1.128-.002c.161-.111.314.073.459.129a.687.687 0 0 1-.156.4a5.46 5.46 0 0 1-.384.027c-.101-.181-.161-.456.081-.556Zm1.027 0a.67.67 0 0 1 .56.125l-.061.277c-.065.215-.319.128-.483.158a.628.628 0 0 1-.016-.56Zm1.226-.001c.161-.1.313.066.456.125c-.022.193-.081.5-.346.432c-.317.042-.404-.466-.11-.557ZM7.4 20.952l.348-.011a1.062 1.062 0 0 1 .1.495l-.34.144l-.108-.628Zm1.107-.007h.368a1.124 1.124 0 0 1 .1.517a.723.723 0 0 1-.572 0a1.128 1.128 0 0 1 .104-.517Zm1.127-.001H10a1.123 1.123 0 0 1 .1.517a.694.694 0 0 1-.572 0a1.053 1.053 0 0 1 .106-.517Zm1.128 0h.363a1.084 1.084 0 0 1 .1.514a.7.7 0 0 1-.569.006a1 1 0 0 1 .106-.52Zm1.121 0h.367a1.178 1.178 0 0 1 .105.513a.705.705 0 0 1-.575 0a1.129 1.129 0 0 1 .103-.513Zm1.123.001h.364c.082.166.216.423 0 .543c-.139.128-.312 0-.462-.03a1.141 1.141 0 0 1 .098-.513Zm1.125 0h.362c.084.166.218.422 0 .541c-.139.13-.312 0-.461-.028a1.139 1.139 0 0 1 .099-.513Zm1.127-.001h.363c.081.165.212.423-.006.541c-.14.126-.312 0-.461-.031a1.113 1.113 0 0 1 .104-.51Zm1.17.027l.306-.054c.082.174.238.446 0 .571c-.138.123-.308 0-.455-.03c.033-.165-.055-.413.149-.487Zm1.13 0l.3-.055c.085.173.24.453 0 .573c-.139.123-.3 0-.452-.034c.031-.165-.059-.416.152-.484Zm1.12 0l.3-.054c.086.175.242.449 0 .572c-.138.128-.307-.006-.454-.037c.036-.164-.049-.409.154-.481Zm1.122-.001l.3-.051c.093.174.249.442.005.569c-.139.131-.307 0-.455-.036c.035-.165-.05-.406.15-.482Zm1.129.001l.3-.053c.085.177.24.439 0 .57c-.138.127-.311 0-.458-.034c.038-.166-.046-.408.158-.483Zm1.125 0l.3-.054c.087.177.243.446 0 .572c-.139.126-.308-.005-.454-.036c.034-.166-.05-.408.154-.482Zm1.124.001l.3-.055c.091.175.249.445.006.571c-.139.13-.308 0-.456-.036c.032-.165-.054-.408.15-.48Zm1.122-.004l.3-.044a1.994 1.994 0 0 1-.122.639a6.043 6.043 0 0 1-.328-.114c.027-.168-.042-.398.15-.481Zm-15.1.558a.3.3 0 0 1 .293.48c-.141.206-.55.111-.55-.147a.291.291 0 0 1 .257-.333Zm1.129.001a.3.3 0 0 1 .357.337a.316.316 0 0 1-.548.147a.3.3 0 0 1 .191-.484Zm1.127-.001a.3.3 0 0 1 .355.336a.315.315 0 0 1-.548.147a.3.3 0 0 1 .193-.483Zm1.123.001c.357-.094.519.51.14.575c-.407.165-.564-.543-.14-.575Zm1.121 0a.3.3 0 0 1 .362.338c-.006.255-.417.345-.552.14a.3.3 0 0 1 .19-.478Zm.935.473a.3.3 0 0 1 .288-.478c.232 0 .251.272.3.439c-.177.103-.436.262-.588.039Zm1.152-.462c.169.013.429-.062.487.159c.017.067.051.2.068.273c-.176.1-.43.252-.582.036c-.145-.135-.003-.319.027-.468Zm1.096.462a.3.3 0 0 1 .289-.474c.235 0 .259.274.294.449c-.175.09-.437.246-.583.025Zm1.156-.464c.169.013.426-.059.485.162l.066.272c-.174.1-.433.253-.58.034c-.145-.138-.01-.317.029-.468Zm1.126.001c.169.015.429-.06.486.162l.063.276c-.174.091-.436.247-.58.027c-.144-.136-.002-.315.031-.465Zm1.122.002c.172.01.428-.061.492.159l.057.281c-.174.087-.438.241-.577.021c-.139-.137-.004-.311.028-.461Zm1.127 0c.167.011.421-.062.485.153l.061.288c-.174.086-.436.239-.576.021c-.145-.135-.003-.311.03-.462Zm1.122 0a.749.749 0 0 1 .519.113v.339c-.164.093-.421.218-.547.007c-.135-.137-.008-.309.028-.459Zm-14.589.028a.31.31 0 1 1-.061.44a.306.306 0 0 1 .061-.44Zm15.718-.031a.823.823 0 0 1 .514.113v.342c-.164.092-.424.218-.548.006c-.136-.138.001-.311.034-.461Zm-16.095.491a.452.452 0 0 1 .282.535l-.223.105c-.017-.214-.039-.426-.059-.64Zm.938.591c-.244-.151-.067-.635.232-.544c.268.011.227.326.241.516c-.155.037-.334.175-.473.028Zm1.192-.535c.157-.045.379.011.4.2a.3.3 0 0 1-.392.377a.322.322 0 0 1-.008-.577Zm1.118-.001a.31.31 0 1 1 .012.588a.331.331 0 0 1-.012-.588Zm.961.51c0-.19-.022-.509.242-.518c.341-.089.483.484.16.587c-.127.083-.273-.053-.402-.069Zm1.294-.509a.3.3 0 0 1 .4.206a.3.3 0 0 1-.39.379a.326.326 0 0 1-.01-.585Zm.957.507c.012-.19-.033-.508.239-.516c.3-.083.483.392.229.547c-.137.145-.318.003-.468-.031Zm1.29-.503a.292.292 0 0 1 .4.2a.3.3 0 0 1-.4.375a.323.323 0 0 1 0-.575Zm1.12.001a.3.3 0 0 1 .406.2a.3.3 0 0 1-.393.383a.326.326 0 0 1-.013-.583Zm.96.501c.012-.19-.03-.5.237-.514c.221-.074.3.176.406.311c-.1.107-.158.282-.317.306a2.741 2.741 0 0 1-.326-.103Zm1.131-.425a1.035 1.035 0 0 1 .406-.092a2.634 2.634 0 0 1 .234.314c-.11.149-.251.4-.472.274c-.223-.067-.148-.322-.168-.496Zm1.121.421c.012-.193-.03-.493.239-.511a.307.307 0 0 1 .232.546c-.133.154-.323.001-.471-.035Zm1.288-.476l.251-.068c.077.12.15.241.224.364c-.094.1-.161.249-.3.291a2.971 2.971 0 0 1-.338-.11c.032-.164-.056-.423.163-.477Zm.979.056c.136-.046.273-.089.412-.127c.078.168.267.347.105.527c-.132.2-.355.1-.524.02c.001-.14.004-.28.007-.42Zm1.124 0c.132-.045.265-.087.4-.124c.077.118.151.237.225.358a2.122 2.122 0 0 1-.244.28c-.135.036-.258-.059-.383-.09c-.001-.142 0-.283.002-.424Zm1.122.02l.3-.145c-.032.215-.069.428-.1.644l-.2-.131v-.368Zm-10.621.493h.416q.072.2.132.4l-.351.231a2.88 2.88 0 0 1-.294-.238a.914.914 0 0 1 .097-.393Zm1.128.001h.411c.049.134.094.27.134.407l-.353.228a3.083 3.083 0 0 1-.294-.244a.916.916 0 0 1 .102-.391Zm1.128.001h.415c.048.135.091.273.13.412l-.352.22a2.666 2.666 0 0 1-.293-.241a.888.888 0 0 1 .1-.391Zm1.12-.001h.412q.075.2.135.411l-.357.223a2.952 2.952 0 0 1-.288-.241c-.022-.14.062-.265.098-.393Zm-8.995-.001h.411c.044.129.133.26.1.4a3.1 3.1 0 0 1-.289.227l-.349-.227c.035-.131.079-.267.127-.4Zm1.155.022c.125-.016.25-.028.376-.032a.992.992 0 0 1 .105.412a3.3 3.3 0 0 1-.3.237l-.351-.231a.73.73 0 0 1 .17-.386Zm1.096-.021h.41c.039.131.135.263.092.406a2.962 2.962 0 0 1-.288.227a15.087 15.087 0 0 1-.348-.235c.04-.134.085-.267.134-.398Zm1.124 0h.413c.049.131.094.264.135.4c-.116.081-.234.158-.352.237a3.057 3.057 0 0 1-.3-.24a.905.905 0 0 1 .104-.397Zm1.122 0h.413c.048.132.092.265.132.4c-.116.08-.233.157-.351.235a3.142 3.142 0 0 1-.294-.237a.814.814 0 0 1 .1-.398Zm5.628-.012c.167.029.414-.054.474.165l.062.259l-.349.221a2.513 2.513 0 0 1-.294-.245a1 1 0 0 1 .107-.4Zm1.119.013h.416c.048.136.09.273.129.413l-.353.221a2.782 2.782 0 0 1-.291-.243a.946.946 0 0 1 .099-.391Zm1.131-.016c.122 0 .244.014.366.031c.139.084.127.264.165.4l-.354.217c-.1-.1-.267-.16-.294-.311a3.063 3.063 0 0 1 .117-.337Zm1.124.004c.166.029.409-.055.476.156l.056.27l-.343.217a1.958 1.958 0 0 1-.292-.25c-.026-.14.068-.261.103-.393Zm1.126-.003c.124 0 .246.013.369.029c.137.088.127.264.162.4l-.342.215c-.108-.1-.277-.161-.3-.321a3.31 3.31 0 0 1 .111-.323Zm1.05.172a.3.3 0 0 1 .548-.008c.014.067.041.2.054.271l-.349.214c-.135-.114-.4-.267-.253-.477Zm-15.184.449a.675.675 0 0 1 .557.005a.885.885 0 0 1-.105.523h-.347a.722.722 0 0 1-.105-.528Zm1.121.005a.649.649 0 0 1 .559 0a.81.81 0 0 1-.11.526H9.65a.716.716 0 0 1-.113-.526Zm1.127-.004a.679.679 0 0 1 .554 0a.705.705 0 0 1-.107.525h-.341a.773.773 0 0 1-.106-.525Zm1.122.003a.686.686 0 0 1 .56 0a.814.814 0 0 1-.106.528h-.346a.8.8 0 0 1-.108-.528Zm1.124.002a.656.656 0 0 1 .557-.006a.727.727 0 0 1-.122.558a.685.685 0 0 1-.418-.151a2.628 2.628 0 0 1-.017-.401Zm1.124-.001a.69.69 0 0 1 .56-.005a.76.76 0 0 1-.106.528h-.344a.867.867 0 0 1-.11-.523Zm1.125-.001a.7.7 0 0 1 .555-.008a.7.7 0 0 1-.1.532h-.344a.856.856 0 0 1-.111-.524Zm1.124.01a.662.662 0 0 1 .558-.01a.7.7 0 0 1-.106.529h-.341a.865.865 0 0 1-.111-.519Zm1.126-.008a.675.675 0 0 1 .552-.01a.711.711 0 0 1-.109.561c-.147-.03-.316-.025-.423-.148a3.32 3.32 0 0 1-.02-.403Zm1.125.008c.15-.036.325-.171.461-.028c.214.141.09.409-.024.572a.683.683 0 0 1-.419-.148a3.228 3.228 0 0 1-.018-.396Zm1.123 0a.665.665 0 0 1 .551-.015a.649.649 0 0 1-.112.562a.677.677 0 0 1-.417-.148a3.472 3.472 0 0 1-.022-.399Zm1.126 0c.151-.038.324-.17.463-.03c.221.139.081.4-.022.571c-.147-.029-.316-.024-.421-.149a3.154 3.154 0 0 1-.02-.392Zm1.123 0c.184-.093.466-.167.556.086c.1.154-.036.3-.108.426h-.332a.9.9 0 0 1-.116-.512Zm1.127 0c.149-.038.318-.17.456-.034c.238.141.092.4-.017.577c-.147-.03-.313-.028-.418-.151a3.882 3.882 0 0 1-.021-.392ZM7.8 23.691c-.146-.047-.168-.346-.017-.394c.134.061.173.339.017.394Zm16.419-.408c.164.055.141.381-.012.44c-.155-.071-.128-.364.012-.44Zm-16.263.547a.33.33 0 0 1 .484.275c.034.178-.18.26-.3.332a.343.343 0 0 1-.184-.607Zm1.129-.001c.312-.185.684.287.365.5c-.296.315-.736-.272-.365-.5Zm.948.396c.054-.173.094-.463.343-.424c.3-.04.448.44.154.556c-.168.177-.339-.063-.497-.132Zm1.317.131c-.292-.116-.144-.6.156-.555c.25-.041.291.256.343.429c-.157.07-.331.298-.499.126Zm.931-.131c.049-.172.1-.457.342-.423c.223-.037.362.217.311.411a.7.7 0 0 1-.3.221a3.819 3.819 0 0 1-.353-.209Zm1.277-.432a.43.43 0 0 1 .541.435c-.17.1-.37.3-.542.1c-.221-.128-.057-.367.001-.535Zm1.119.007c.162.028.392-.04.469.155c.2.273-.259.645-.468.37c-.219-.125-.049-.363-.001-.525Zm1.149.042c.148-.071.378-.069.447.111c.144.218-.069.427-.275.483c-.275-.064-.434-.406-.172-.594Zm1.1-.042c.162.029.4-.042.471.157c.143.219-.068.431-.277.484a.833.833 0 0 1-.306-.232a1.253 1.253 0 0 1 .112-.409Zm1.152.039a.312.312 0 0 1 .48.28c.025.175-.18.263-.311.319c-.275-.073-.433-.405-.169-.599Zm1.122.001a.31.31 0 0 1 .477.28c.029.178-.183.259-.312.319c-.265-.071-.426-.41-.165-.599Zm1.039.115c.129-.288.631-.154.567.171c.025.182-.215.235-.312.348c-.146-.125-.432-.297-.255-.519Zm1.224.393a.291.291 0 0 1 .147-.542c.264-.068.323.244.354.434c-.164.071-.338.293-.501.108Zm1.026-.396c.128-.284.641-.146.565.175c.027.185-.218.237-.317.349c-.137-.129-.422-.306-.248-.524Zm1.211-.1c.3-.247.688.258.374.475c-.274.31-.74-.254-.374-.475Zm-15.284.562a.947.947 0 0 1 .554 0a1.148 1.148 0 0 1-.081.524H8.5a.936.936 0 0 1-.084-.524Zm1.125.001a.9.9 0 0 1 .555 0a1.136 1.136 0 0 1-.079.522h-.394a.932.932 0 0 1-.082-.522Zm1.122 0a.929.929 0 0 1 .556 0a.975.975 0 0 1-.085.525h-.391a1.18 1.18 0 0 1-.08-.525Zm1.126.003a.963.963 0 0 1 .556 0a1.132 1.132 0 0 1-.081.527h-.394a.979.979 0 0 1-.081-.527Zm1.124-.002a.942.942 0 0 1 .555 0a.978.978 0 0 1-.081.526h-.392a1.061 1.061 0 0 1-.082-.526Zm1.122.002a.952.952 0 0 1 .558 0a.944.944 0 0 1-.083.527h-.391a1.2 1.2 0 0 1-.084-.527Zm1.128-.002a.93.93 0 0 1 .549 0l.012.331c-.029.236-.3.2-.471.218a1.072 1.072 0 0 1-.09-.549Zm1.122.002a.968.968 0 0 1 .55-.006l.019.328c-.04.237-.307.2-.482.223a1.3 1.3 0 0 1-.087-.545Zm1.124.001a.934.934 0 0 1 .55-.007l.02.335c-.046.23-.306.194-.479.217a1.273 1.273 0 0 1-.091-.545Zm1.126 0a.924.924 0 0 1 .547-.007l.024.326c-.036.236-.3.205-.478.225a1.168 1.168 0 0 1-.093-.544Zm1.127-.003a.95.95 0 0 1 .545-.006c.019.175.085.415-.116.515l-.339.038a1.219 1.219 0 0 1-.09-.547Zm1.124.002a.981.981 0 0 1 .546-.009c.005.167.094.433-.116.515l-.334.041a1.116 1.116 0 0 1-.096-.547Zm1.125.001a.944.944 0 0 1 .543-.01c.018.172.094.425-.113.517l-.34.037a1.206 1.206 0 0 1-.09-.544Zm1.127-.003a.982.982 0 0 1 .541-.009c.027.181.087.422-.119.527c-.146.01-.326.044-.407-.113a3.826 3.826 0 0 1-.015-.405Zm-15.071.558c.231-.161.546.112.471.366a.632.632 0 0 1-.394.249a2.328 2.328 0 0 1-.077-.615Zm1.125.009c.176-.16.485.038.472.255c.038.147-.12.231-.214.31c-.329.106-.577-.393-.258-.565Zm1.117.008c.175-.179.5.034.48.256c.013.243-.362.434-.521.208a.284.284 0 0 1 .041-.464Zm1.13-.007c.267-.232.674.255.378.47c-.282.346-.781-.254-.378-.47Zm1.118.006c.268-.253.692.26.378.471c-.283.33-.762-.256-.378-.471Zm1.128-.002c.269-.244.683.254.378.471c-.284.334-.77-.259-.378-.471Zm1.126 0c.268-.242.674.246.383.468c-.282.344-.782-.25-.383-.468Zm1.124-.001c.272-.243.675.25.38.472c-.283.334-.774-.254-.38-.472Zm1.129 0c.271-.24.669.249.38.473c-.287.34-.781-.26-.38-.473Zm1.187-.05c.3-.106.567.322.316.523a.293.293 0 0 1-.473-.058c-.156-.16.006-.372.157-.465Zm1.124 0c.3-.106.569.326.314.527a.292.292 0 0 1-.466-.057c-.16-.154.006-.377.152-.47Zm1.125 0a.321.321 0 0 1 .193.611a.321.321 0 0 1-.193-.611Zm1.123 0a.314.314 0 0 1 .407.311a.294.294 0 0 1-.518.2c-.212-.148-.06-.412.111-.511Zm.977.15a.3.3 0 0 1 .558.158c.043.239-.239.29-.4.342c-.102-.14-.33-.324-.158-.5Zm1.07.248c-.09-.265.334-.587.5-.3a5.347 5.347 0 0 1-.1.552a.641.641 0 0 1-.4-.252Zm-15.142.201a2.134 2.134 0 0 1 .529 0c.05.24.036.625-.32.547c-.301-.007-.226-.348-.209-.547Zm1.122 0a2.134 2.134 0 0 1 .535.005a.971.971 0 0 1-.036.487a.985.985 0 0 1-.5.025a5.134 5.134 0 0 1 .001-.517Zm1.129-.002a2.851 2.851 0 0 1 .528 0c.008.171.01.342 0 .514a.874.874 0 0 1-.5-.021a.925.925 0 0 1-.028-.493Zm1.121.005a2.579 2.579 0 0 1 .525-.006c.005.164.065.346-.035.5c-.16.092-.466.1-.5-.129a2.238 2.238 0 0 1 .01-.365Zm1.129-.004a2.851 2.851 0 0 1 .528 0a3.843 3.843 0 0 1 0 .531a1.013 1.013 0 0 1-.488-.038c-.101-.149-.045-.328-.04-.493Zm1.121.005a2.387 2.387 0 0 1 .533 0a4.467 4.467 0 0 1-.005.523a.858.858 0 0 1-.493-.036a.944.944 0 0 1-.035-.487Zm3.39-.008a3.133 3.133 0 0 1 .518 0a3.458 3.458 0 0 1-.006.534c-.16-.007-.34.043-.484-.048c-.106-.141-.033-.325-.028-.486Zm-2.265.002a4.555 4.555 0 0 1 .528 0c.024.2.09.564-.223.559c-.347.058-.351-.326-.305-.559Zm1.133-.001a4.828 4.828 0 0 1 .516 0c.074.242.045.634-.307.556c-.307-.006-.229-.359-.209-.556Zm2.253.007a.731.731 0 0 1 .492.027a.908.908 0 0 1 .029.5c-.164-.006-.347.049-.5-.044a.8.8 0 0 1-.021-.483Zm1.126-.006c.171-.01.34-.012.512-.006c.083.243.04.643-.313.557c-.304-.006-.216-.357-.199-.551Zm1.113.002a4.11 4.11 0 0 1 .526-.005c.032.205.09.563-.223.56c-.347.056-.346-.324-.303-.555Zm1.162.483c-.112-.172-.079-.5.172-.511l.315.028a.727.727 0 0 1-.027.5a.457.457 0 0 1-.46-.017Zm1.074-.285c.007-.28.347-.229.535-.2c.02.168.115.48-.122.533a.291.291 0 0 1-.413-.333Zm-14.843.353c.139-.051.3.154.238.284c-.131.042-.29-.162-.238-.284Zm.717.172a3.314 3.314 0 0 1 .345-.211a2.893 2.893 0 0 1 .345.219c-.053.166-.1.457-.34.41c-.253.057-.307-.239-.35-.418Zm1.124.002a3.276 3.276 0 0 1 .341-.213a2.959 2.959 0 0 1 .352.218c-.052.168-.1.457-.344.411c-.253.057-.301-.241-.349-.416Zm1.32-.143c.173-.164.342.071.495.144c-.043.178-.1.468-.353.415c-.306.046-.426-.439-.142-.559Zm1.076.041c.169-.221.382 0 .544.1c-.049.174-.1.471-.348.414a.289.289 0 0 1-.196-.514Zm.976.112a2.661 2.661 0 0 1 .349-.223a3.235 3.235 0 0 1 .34.209c-.037.18-.1.471-.347.419c-.241.046-.293-.237-.342-.405Zm1.123-.001a2.827 2.827 0 0 1 .348-.222a3.363 3.363 0 0 1 .342.208c-.04.179-.094.476-.345.42c-.239.043-.293-.239-.345-.406Zm1.206.265c-.155-.2.067-.436.268-.486a3.113 3.113 0 0 1 .343.209q-.066.221-.15.435c-.159-.032-.382.026-.461-.158Zm1.235-.408c.167-.182.341.054.5.127c-.027.185-.1.473-.346.422a.293.293 0 0 1-.154-.549Zm1.13-.006c.2-.188.537.108.451.342a.313.313 0 0 1-.57.065a.281.281 0 0 1 .119-.407Zm1.011.412c-.2-.253.256-.657.468-.376c.2.128.065.378-.012.539c-.159-.03-.375.015-.456-.163Zm1.231-.403c.312-.28.693.357.312.528c-.335.174-.665-.34-.312-.528Zm1.118.004c.164-.19.346.036.5.113c-.05.151-.034.42-.255.425c-.315.105-.553-.372-.245-.538Zm1.134-.01c.2-.193.548.1.456.339c-.033.261-.451.3-.563.073c-.128-.131-.009-.322.107-.412Zm.966.291c-.1-.141.1-.386.258-.333c.067.139-.094.394-.258.333Zm-14.083.562c.073-.134.11-.34.3-.33c.218-.048.307.166.381.326a12.86 12.86 0 0 1-.681.004Zm1.13 0c.062-.161.143-.372.358-.332c.2-.014.245.192.314.332q-.336.005-.672 0Zm1.13-.039c.049-.16.158-.318.347-.292c.2-.016.249.19.326.327a1.957 1.957 0 0 1-.673-.035Zm1.436-.292c.214-.04.287.177.361.33c-.228.005-.456 0-.684 0c.072-.139.123-.349.323-.33Zm.807.331a.4.4 0 0 1 .541-.311l.125.3a7.809 7.809 0 0 1-.666.011Zm1.12 0a.4.4 0 0 1 .551-.307l.115.307c-.221.002-.442.005-.666 0Zm1.129 0a.41.41 0 0 1 .549-.313l.107.315c-.219-.001-.437.001-.656-.002Zm1.301-.307a2.313 2.313 0 0 1 .367-.006l.12.316h-.664a1.87 1.87 0 0 1 .177-.31Zm.952.308c.046-.286.287-.363.541-.32l.122.321c-.221 0-.445.001-.663-.001Zm1.299-.306a2.106 2.106 0 0 1 .368-.008l.123.315h-.663a.944.944 0 0 1 .172-.307Zm1.119.002a1.712 1.712 0 0 1 .376-.01c.038.1.075.209.112.316h-.657a1.122 1.122 0 0 1 .169-.306Zm1.128-.004a2.087 2.087 0 0 1 .375-.006c.039.105.078.209.116.316h-.661a1.254 1.254 0 0 1 .17-.31Z"/></svg>