<svg xmlns="http://www.w3.org/2000/svg" xmlns:xlink="http://www.w3.org/1999/xlink" width="32" height="32" viewBox="0 0 32 32"><path fill="#ea2845" fill-rule="evenodd" d="M18.487 2a1.781 1.781 0 0 0-.564.1c1.615 1.062-.29 2.6.6 3.9A2.235 2.235 0 0 1 19.6 3.765c.285-.237.468-.322.407-.714C19.908 2.409 19.052 2 18.487 2Zm2.3.414c-.223 1.123-.5 1.164-1.323 1.887a1.821 1.821 0 0 0-.527 2.191c-3.4-1.32-7.758-2.118-10.953.166c-1.149.821-1.85 2-3.267 2.481c-.916.314-1.816.221-2.39 1.129a1.413 1.413 0 0 0 .056 1.832c.171.175.5.287.636.465c.079.1.077.2.152.333a2.6 2.6 0 0 0 .564.828c.147.121.652.239.738.368c.108.161-.172.8.063.9c.158.073.621-.744.666-.816c-.092.643-.213 1.784.51.834c.343-.451.364-.6.941-.7a8.2 8.2 0 0 1 1.117-.116a8.362 8.362 0 0 1 8.622 7.622c-.108-.5-.761-1.3-1.369-1.11c-.259.08-.355.527-.525.786a3.773 3.773 0 0 1-.785.868a4.687 4.687 0 0 0-.072-1.452c-.182.748-.547 1.989-1.466 1.788a1.652 1.652 0 0 1-1.328-1.142c-.119-.76.684-1.651-.607-1.714c-2.59-.127-1.991 3.682-.462 4.675a3.272 3.272 0 0 0-1.015.283a6.893 6.893 0 0 0 10.276-4.922a7.058 7.058 0 0 1-.015 3.085a7.213 7.213 0 0 1-.554 1.559a6.781 6.781 0 0 1-1.3 1.81c-.314.311-.89.624-1.088.941a13.409 13.409 0 0 0 3.52-.968A11.638 11.638 0 0 1 15.1 30a11.589 11.589 0 0 0 9.3-5.909a11.657 11.657 0 0 1-1.945 4.668a11.531 11.531 0 0 0 4.975-7.783a11.622 11.622 0 0 1 .209 3.5a12.418 12.418 0 0 0 1.889-10.566a15.755 15.755 0 0 0-1.689-3.962a14.838 14.838 0 0 0-.939-1.394c-.133-.173-.844-.806-.844-1q-.009.029-.015 0c0 3.248-3.5 5.333-6.431 4.463a5 5 0 0 0 4.546-4.167a5 5 0 0 0-3.369-5.436Z"/></svg>