<svg xmlns="http://www.w3.org/2000/svg" xmlns:xlink="http://www.w3.org/1999/xlink" width="32" height="32" viewBox="0 0 32 32"><path fill="#67d55e" d="M21.05 30h-4.71v-1.77a2.46 2.46 0 1 0-4.92 0V30H2v-9.42h1.77a2.46 2.46 0 1 0 0-4.92H2V11a4.71 4.71 0 0 1 4.71-4.76H9.2a4.71 4.71 0 0 1 9.37 0h2.48A4.71 4.71 0 0 1 25.76 11v2.48a4.71 4.71 0 0 1 0 9.37v2.49A4.71 4.71 0 0 1 21.05 30m-2.48-2.24h2.48a2.48 2.48 0 0 0 2.47-2.47v-4.71h1.77a2.46 2.46 0 1 0 0-4.92h-1.77V11a2.48 2.48 0 0 0-2.47-2.47h-4.71V6.71a2.46 2.46 0 1 0-4.92 0v1.77H6.71A2.48 2.48 0 0 0 4.24 11v2.48a4.71 4.71 0 0 1 0 9.37v5h5a4.71 4.71 0 0 1 9.37 0Z"/></svg>