<svg xmlns="http://www.w3.org/2000/svg" xmlns:xlink="http://www.w3.org/1999/xlink" width="32" height="32" viewBox="0 0 32 32"><path fill="#ededed" d="M29.25 13.8a6.888 6.888 0 0 0-.742-2.268a1.011 1.011 0 0 0-.172-.233a9.471 9.471 0 0 1-1.725-2.4a8.632 8.632 0 0 0-1.395-2.382A6.906 6.906 0 0 1 24.1 4.644a4.572 4.572 0 0 0-2.11-2.917a1.009 1.009 0 0 0-.1-.054a8.886 8.886 0 0 0-1.3-.468a1.022 1.022 0 0 0-.263-.035a1.009 1.009 0 0 0-.2.021a5.607 5.607 0 0 1-.807.107c-.05 0-.1-.006-.149-.006a2.842 2.842 0 0 0-1.416.453c-.094.052-.188.106-.284.149q-.041.018-.078.039a1.637 1.637 0 0 1-.327.067a3.109 3.109 0 0 0-.772.194a1 1 0 0 0-.508.483a2.184 2.184 0 0 1-.469.5a4.382 4.382 0 0 0-.762.823a.964.964 0 0 0-.116.234a4.687 4.687 0 0 1-1.574 2.2a6.471 6.471 0 0 0-.8.613a2.734 2.734 0 0 0-.627-1.634a1.402 1.402 0 0 0-.053-.056v-.014a2.378 2.378 0 0 0-.135-.586a1 1 0 0 0-.132-.236a5.167 5.167 0 0 0-1.607-1.408a.988.988 0 0 0-.346-.119a1.5 1.5 0 0 1-.148-.077a2.06 2.06 0 0 0-1-.311a1.476 1.476 0 0 0-.681.166a.987.987 0 0 0-.274.206a1.328 1.328 0 0 1-.125.063a1.9 1.9 0 0 0-.908.778a2.539 2.539 0 0 0-.541.106a1.656 1.656 0 0 1-.383.057a2.3 2.3 0 0 0-1.5.545l-.106.1a2.533 2.533 0 0 0-1 2.525a1.08 1.08 0 0 0 .068.165a2.294 2.294 0 0 0 1.879 1.161c-.1.238-.2.473-.314.7a1.009 1.009 0 0 0-.087.293A11.052 11.052 0 0 0 4 12.039c0 .02 0 .04.007.06a5.278 5.278 0 0 1 .041.547a2.926 2.926 0 0 0 .931 2.4l.052.039l.008.031a2.8 2.8 0 0 0 .151.447a1.185 1.185 0 0 0 .632.617a1.289 1.289 0 0 0 .248.571a1 1 0 0 0 .332.279a2.453 2.453 0 0 0 .465.176l.064.018a.976.976 0 0 0 .192.171a5.879 5.879 0 0 1 .75.605a1.13 1.13 0 0 0 1.351.427a1.5 1.5 0 0 0 .765.215a1.421 1.421 0 0 0 .624-.145l.114-.026c.024.408.033.817.028 1.223a1.043 1.043 0 0 0 .026.242a10.744 10.744 0 0 1 .266 1.828a.931.931 0 0 0 .031.2a8.492 8.492 0 0 1 .268 1.815c0 .031 0 .063.008.094a6.083 6.083 0 0 1-.61 3.575a.994.994 0 0 0-.089.261a1.093 1.093 0 0 0-.234.079l-.05.022a2.013 2.013 0 0 0-1.2 1.065a1.322 1.322 0 0 0 .074 1.054a1 1 0 0 0 .324.371a3.547 3.547 0 0 0 3.509.3a1.546 1.546 0 0 0 .829-1.653l-.005-.067a.989.989 0 0 0 .056-.158a11.186 11.186 0 0 0 .288-2.068a8.939 8.939 0 0 1 .259-1.822a4.727 4.727 0 0 0 .389-1.588l.042.048a12.661 12.661 0 0 0 1.255 1.129a10.3 10.3 0 0 1 1.1.989l-.011.038a.532.532 0 0 1-.342.359l-.049.017a1.921 1.921 0 0 0-1.184 1.334a1.313 1.313 0 0 0 .452 1.234a1 1 0 0 0 .441.222a4.908 4.908 0 0 0 2.735-.181a1.556 1.556 0 0 0 .266-.124a1.411 1.411 0 0 0 .97.372a2.326 2.326 0 0 0 1-.274c.049-.023.1-.045.14-.062a1 1 0 0 0 .637-.864a4.553 4.553 0 0 0-.468-2.343a1.56 1.56 0 0 0-.51-.6a10.8 10.8 0 0 1 1.3-2.15a2.193 2.193 0 0 0 .451-2.026a2.519 2.519 0 0 1-.043-.394a1.046 1.046 0 0 0 0-.148a5.756 5.756 0 0 1 .012-1.279a7.161 7.161 0 0 0 .951 1.793a7.892 7.892 0 0 1 .133 1.1a10.733 10.733 0 0 0 .133 1.186a9.36 9.36 0 0 1-.224 3.9a1 1 0 0 0-.032.34a.98.98 0 0 0-.1.179a2.238 2.238 0 0 0-.312 1.235a1.007 1.007 0 0 0 .039.2a1.315 1.315 0 0 0 1.328.963c.086 0 .177-.006.268-.014h.019l.038.013a2.109 2.109 0 0 0 2.517-1.088a1 1 0 0 0 .058-.735a5.285 5.285 0 0 1-.208-1.027a1.011 1.011 0 0 0-.046-.217a6.47 6.47 0 0 1-.221-3.22a1.112 1.112 0 0 0 .015-.114a3.907 3.907 0 0 1 .074-.443a2.738 2.738 0 0 0-.193-2.1a4.339 4.339 0 0 1 .021-.476c.011-.147.023-.3.027-.463a1.59 1.59 0 0 0 .862-.851a12.83 12.83 0 0 0 .947-2.23a1.719 1.719 0 0 0 .172-1.185a1.234 1.234 0 0 0 .111-.251a1.467 1.467 0 0 0-.215-1.236Zm-10.387 8.968c-.026 0-.053-.008-.08-.01h-.024a2.748 2.748 0 0 1-.236-.323a8.942 8.942 0 0 0-.178-.258a2.253 2.253 0 0 0 .208-.234a1.255 1.255 0 0 0 .629-.321a3.186 3.186 0 0 1-.319 1.146Z"/><path fill="#3a3c5b" d="M19.289 2.3c-.548-.065-.961.3-1.419.506c-.368.206-.815.152-1.185.309c-.282.579-.941.908-1.3 1.443a5.7 5.7 0 0 1-1.942 2.694a5.464 5.464 0 0 0-2.368 3.394c-.145.3-.122.746-.277 1c-.511.143-.239-.516-.3-.825c-.074-.47.341-.77.373-1.226a1.834 1.834 0 0 0 .209-1.053c-.056-.814.189-1.807-.393-2.477c-.349-.2-.239-.623-.366-.947a4.214 4.214 0 0 0-1.3-1.139c-.419-.041-.806-.542-1.232-.323c-.266.309-.763.305-.922.713c-.1.516-.688.374-1.068.5c-.488.185-1.118.006-1.518.382c-.411.41-1.034.961-.835 1.606c.457.882 1.645.438 2.317.974a17.99 17.99 0 0 1-.727 1.779a10.051 10.051 0 0 0-.044 2.332c.123.773-.083 1.772.606 2.319c.38.137.357.572.5.887c.134.29.427-.113.543.193c.338.184.037.561.22.8c.263.137.639.128.822.426a6.844 6.844 0 0 1 .975.806c.23.467.531-.454.783-.109c.17.285.506.522.819.285a2.993 2.993 0 0 0 1.324-.556a18.033 18.033 0 0 1 .171 2.718a11.733 11.733 0 0 1 .29 2a9.409 9.409 0 0 1 .3 2.03a7.111 7.111 0 0 1-.709 4.16a1.012 1.012 0 0 1-.807.8c-.291.13-.9.366-.692.776a2.549 2.549 0 0 0 2.52.214c.51-.243.073-.858.334-1.226c.343-1.3.174-2.691.575-3.985a3.762 3.762 0 0 0 .3-2.1c.079-.44-.105-.969.187-1.329a1.813 1.813 0 0 1 .483-1.2a14.762 14.762 0 0 0 .144-2.026a3.214 3.214 0 0 1 1.267-.127c.018.375-.272.812-.19 1.234A1.948 1.948 0 0 1 15.5 20.3a2.849 2.849 0 0 0 .168 2.308c.782.839 1.8 1.432 2.536 2.327c.314.205.2.517.038.784a1.528 1.528 0 0 1-.987 1.034c-.308.121-.806.566-.442.882a3.906 3.906 0 0 0 2.178-.144c.476-.171.3-.738.488-1.088c.3.233.423.765.711 1.069c.3.433.807.073 1.156-.062a3.549 3.549 0 0 0-.372-1.842c-.167-.378-.8-.385-.77-.852a11.761 11.761 0 0 1 1.712-3c.51-.479.13-1.191.158-1.8a6.765 6.765 0 0 1 1.084-4.416a15.889 15.889 0 0 0 .692 2.14a6.23 6.23 0 0 0 1.1 2.246c.237.811.176 1.71.331 2.551a10.44 10.44 0 0 1-.242 4.347c.04.518-.457.9-.415 1.408c.14.469.7.093.99.29a1.11 1.11 0 0 0 1.324-.572a6.212 6.212 0 0 1-.247-1.223a7.454 7.454 0 0 1-.255-3.719c.046-.669.457-1.5-.073-2.072c-.148-.619.1-1.285-.049-1.915a12.877 12.877 0 0 1-.122-4.933c.093-.227.013-.649.247-.775a1.851 1.851 0 0 1 .315 1.232a3.7 3.7 0 0 1 .079 2.081c-.424.531-.163 1.248-.109 1.85c.068.422.516.118.589-.144a11.851 11.851 0 0 0 .944-2.241c.269-.356.014-.77 0-1.142c.413-.049.256-.506.035-.7a5.93 5.93 0 0 0-.667-2.2a10.464 10.464 0 0 1-1.941-2.723c-.528-1.639-2.042-2.726-2.556-4.379a3.556 3.556 0 0 0-1.652-2.317a7.881 7.881 0 0 0-1.156-.42a6.5 6.5 0 0 1-1.031.13Zm.4 14.66a38.907 38.907 0 0 1 .5 4.291a4.175 4.175 0 0 1-.76 2.517c-.12.425-.486.012-.751-.016c-.643-.018-.882-.683-1.232-1.107c-.36-.344-.1-.8.133-1.131c.252-.179.35-.579.708-.548c.4-.007.316-.487.26-.743c.238-.362.092-.892.328-1.283c.419-.182.294-.82.442-1.18c.115-.256.017-.749.334-.854c.037-.006.049.012.042.052Z"/></svg>