<svg xmlns="http://www.w3.org/2000/svg" xmlns:xlink="http://www.w3.org/1999/xlink" width="32" height="32" viewBox="0 0 32 32"><path fill="#f44250" d="M24.4 16a2.78 2.78 0 0 1-2.8 2.8a2.8 2.8 0 0 0-2.8 2.79a2.78 2.78 0 0 1-2.8 2.8a2.8 2.8 0 1 1 0-5.6a2.8 2.8 0 1 0 0-5.58a2.8 2.8 0 1 1 2.8-2.8a2.78 2.78 0 0 0 2.8 2.8A2.8 2.8 0 0 1 24.4 16"/><path fill="#121212" d="M13.2 16a2.8 2.8 0 1 0-5.6 0a2.8 2.8 0 0 0 5.6 0m-5.6 5.59a2.8 2.8 0 1 0-5.6 0a2.8 2.8 0 0 0 5.6 0m22.4 0a2.8 2.8 0 1 0-5.6 0a2.8 2.8 0 0 0 5.6 0"/></svg>