<svg xmlns="http://www.w3.org/2000/svg" xmlns:xlink="http://www.w3.org/1999/xlink" width="32" height="32" viewBox="0 0 32 32"><path fill="#2f406a" d="M24.612 10.929v10.087l-8.571 5.071l-.077.07v3.77l.077.073l12.071-6.972V8.972L28 8.945l-3.4 1.9l.017.082"/><path fill="#2379bd" d="m7.443 21.1l8.6 4.988V30L3.888 23V9l.125-.019l3.393 1.973l.037.113z"/><path fill="#03afef" d="M7.443 11.067L3.888 9l12.126-7l12.1 6.972l-3.5 1.957l-8.6-4.906z"/><path fill="#2f406a" d="m15.894 19.945l-.093-.1v-3.783l.093-.048l.023-.093l3.247-1.894l.1.022v3.9l-3.369 1.993"/><path fill="#2379bd" d="M12.469 18.073v-4.052h.094l3.3 1.922l.028.076v3.931l-3.425-1.872"/><path fill="#03afef" d="m15.838 12.027l-3.369 1.993l3.425 1.993l3.369-1.965z"/><path fill="#2f406a" d="m11.7 22.415l-.093-.1v-3.782l.093-.048l.023-.093l3.248-1.892l.1.022v3.9z"/><path fill="#2379bd" d="M8.276 20.544v-4.053h.094l3.3 1.922l.028.076v3.931z"/><path fill="#03afef" d="m11.645 14.5l-3.369 1.991l3.424 1.994l3.37-1.965z"/><path fill="#2f406a" d="m20.386 22.509l-.093-.1v-3.783l.093-.048l.023-.093l3.247-1.894l.1.022v3.9l-3.369 1.993"/><path fill="#2379bd" d="M16.961 20.637v-4.052h.094l3.3 1.922l.028.076v3.931l-3.425-1.872"/><path fill="#03afef" d="m20.33 14.592l-3.369 1.993l3.425 1.993l3.369-1.965z"/><path fill="#2f406a" d="m16.193 24.98l-.093-.1V21.1l.093-.048l.023-.093l3.247-1.894l.1.022v3.9z"/><path fill="#2379bd" d="M12.768 23.108v-4.052h.094l3.3 1.922l.028.076v3.926l-3.425-1.872"/><path fill="#03afef" d="m16.137 17.062l-3.369 1.993l3.425 1.993l3.369-1.965l-3.425-2.022"/><path fill="#2f406a" d="m15.894 14.573l-.093-.1V10.69l.093-.048l.023-.093l3.247-1.894l.1.022v3.9l-3.369 1.993"/><path fill="#2379bd" d="M12.469 12.7V8.649h.094l3.3 1.922l.028.076v3.931z"/><path fill="#03afef" d="m15.838 6.656l-3.369 1.993l3.425 1.993l3.369-1.965z"/><path fill="#2f406a" d="m11.7 17.044l-.093-.1v-3.783l.093-.048l.023-.093l3.247-1.894l.1.022v3.9z"/><path fill="#2379bd" d="M8.276 15.172V11.12h.094l3.3 1.922l.028.076v3.931z"/><path fill="#03afef" d="M11.645 9.126L8.276 11.12l3.424 1.993l3.369-1.965z"/><path fill="#2f406a" d="m20.386 17.137l-.093-.1v-3.782l.093-.048l.023-.093l3.247-1.894l.1.022v3.9l-3.369 1.993"/><path fill="#2379bd" d="M16.961 15.266v-4.053h.094l3.3 1.922l.028.076v3.931l-3.425-1.872"/><path fill="#03afef" d="m20.33 9.22l-3.369 1.993l3.425 1.993l3.369-1.965z"/><path fill="#2f406a" d="m16.193 19.608l-.093-.1v-3.783l.093-.048l.023-.093l3.247-1.894l.1.022v3.9l-3.369 1.993"/><path fill="#2379bd" d="M12.768 17.736v-4.052h.094l3.3 1.922l.028.076v3.931l-3.425-1.872"/><path fill="#03afef" d="m16.137 11.691l-3.369 1.993l3.425 1.993l3.369-1.965z"/></svg>