<svg xmlns="http://www.w3.org/2000/svg" xmlns:xlink="http://www.w3.org/1999/xlink" width="32" height="32" viewBox="0 0 32 32"><defs><clipPath id="vscodeIconsFileTypeVim0"><path fill="none" d="M2 2h28v28H2z" clip-rule="evenodd"/></clipPath></defs><path fill="#231f20" fill-rule="evenodd" d="M29.989 15.856L15.856 2.011L2.011 16.136l13.845 13.853z"/><g clip-path="url(#vscodeIconsFileTypeVim0)"><path fill="none" stroke="#231f20" stroke-miterlimit="10" stroke-width=".216" d="M29.989 15.856L15.856 2.011L2.011 16.136l13.845 13.853z"/></g><path fill="#29695d" fill-rule="evenodd" d="M28.575 15.856h.847L15.856 29.422v-.847z"/><path fill="none" stroke="#231f20" stroke-miterlimit="10" stroke-width=".216" d="M28.575 15.856h.847L15.856 29.422v-.847z"/><path fill="#317367" fill-rule="evenodd" d="M2.578 16.136h.847l12.431 12.439v.847z"/><path fill="none" stroke="#231f20" stroke-miterlimit="10" stroke-width=".216" d="M2.578 16.136h.847l12.431 12.439v.847z"/><path fill="#60c2ac" fill-rule="evenodd" d="M15.856 3.418v-.84L2.578 16.136h.847z"/><path fill="none" stroke="#231f20" stroke-miterlimit="10" stroke-width=".216" d="M15.856 3.418v-.84L2.578 16.136h.847z"/><path fill="#43b54a" fill-rule="evenodd" d="M15.856 2.578v.84l12.719 12.438h.847z"/><path fill="none" stroke="#231f20" stroke-miterlimit="10" stroke-width=".216" d="M15.856 2.578v.84l12.719 12.438h.847z"/><path fill="#3c8376" fill-rule="evenodd" d="m15.856 28.575l12.719-12.719L15.856 3.418L3.425 16.136z"/><path fill="none" stroke="#231f20" stroke-miterlimit="10" stroke-width=".216" d="m15.856 28.575l12.719-12.719L15.856 3.418L3.425 16.136z"/><path fill="#231f20" fill-rule="evenodd" d="m18.498 6.246l.847.854l-5.843 5.928V7.1h.567l.847-.854V3.992l-.847-.854H4.652l-.847.854v2.254l.847.854h.66v19.214l1.034.847h2.921L29.516 6.246V3.992l-.847-.854h-9.231l-.94.854z"/><path fill="none" stroke="#231f20" stroke-miterlimit="10" stroke-width=".216" d="m18.498 6.246l.847.854l-5.843 5.928V7.1h.567l.847-.854V3.992l-.847-.854H4.652l-.847.854v2.254l.847.854h.66v19.214l1.034.847h2.921L29.516 6.246V3.992l-.847-.854h-9.231l-.94.854z"/><path fill="#fff" fill-rule="evenodd" d="m4.932 6.533l-.567-.567V4.272l.567-.567l8.857-.007l.56.574l-.56.272l-.287-.272l-8.57 1.407z"/><path fill="none" stroke="#231f20" stroke-miterlimit="10" stroke-width=".216" d="m4.932 6.533l-.567-.567V4.272l.567-.567l8.857-.007l.56.574l-.56.272l-.287-.272l-8.57 1.407z"/><path fill="#fff" fill-rule="evenodd" d="m6.626 26.594l-.66-.567V6.526l.66-.56z"/><path fill="none" stroke="#231f20" stroke-miterlimit="10" stroke-width=".216" d="m6.626 26.594l-.66-.567V6.526l.66-.56z"/><path fill="#fff" fill-rule="evenodd" d="m20.759 6.533l.567-.567V7.1l-9.424 9.603l1.04-2.261z"/><path fill="none" stroke="#231f20" stroke-miterlimit="10" stroke-width=".216" d="m20.759 6.533l.567-.567V7.1l-9.424 9.603l1.04-2.261z"/><path fill="#929497" fill-rule="evenodd" d="m6.82 5.686l-.194.28l-.66.567H4.932V5.399z"/><path fill="none" stroke="#231f20" stroke-miterlimit="10" stroke-width=".216" d="m6.82 5.686l-.194.28l-.66.567H4.932V5.399z"/><path fill="#929497" fill-rule="evenodd" d="M12.942 6.533v7.909l-1.04 2.254V5.958h1.6l.287-.28l-.287-1.406h.847v1.694l-.56.567z"/><path fill="none" stroke="#231f20" stroke-miterlimit="10" stroke-width=".216" d="M12.942 6.533v7.909l-1.04 2.254V5.958h1.6l.287-.28l-.287-1.406h.847v1.694l-.56.567z"/><path fill="#fff" fill-rule="evenodd" d="m19.625 6.533l-.56-.567V4.272l.653-.567h8.577l.661.567l-.948.847l-8.383.56z"/><path fill="none" stroke="#231f20" stroke-miterlimit="10" stroke-width=".216" d="m19.625 6.533l-.56-.567V4.272l.653-.567h8.577l.661.567l-.948.847l-8.383.56z"/><path fill="#929497" fill-rule="evenodd" d="M28.956 5.966L9.074 26.594H6.626v-.847H8.42L28.295 5.399l-.287-1.127h.948z"/><path fill="none" stroke="#231f20" stroke-miterlimit="10" stroke-width=".216" d="M28.956 5.966L9.074 26.594H6.626v-.847H8.42L28.295 5.399l-.287-1.127h.948z"/><path fill="#929497" fill-rule="evenodd" d="m21.512 5.686l-.193.28l-.56.567h-1.134V5.399z"/><path fill="none" stroke="#231f20" stroke-miterlimit="10" stroke-width=".216" d="m21.512 5.686l-.193.28l-.56.567h-1.134V5.399z"/><path fill="#d0d2d3" fill-rule="evenodd" d="M11.902 16.696V5.958h1.6l.287-.279V4.544l-.287-.279h-8.29l-.28.279v1.135l.28.279h1.414v19.789l.366.28h1.615L28.389 5.399v-.811l-.287-.323h-8.19l-.287.279v1.142l.287.28h1.414V7.1z"/><path fill="none" stroke="#231f20" stroke-miterlimit="10" stroke-width=".216" d="M11.902 16.696V5.958h1.6l.287-.279V4.544l-.287-.279h-8.29l-.28.279v1.135l.28.279h1.414v19.789l.366.28h1.615L28.389 5.399v-.811l-.287-.323h-8.19l-.287.279v1.142l.287.28h1.414V7.1z"/><path fill="#231f20" fill-rule="evenodd" d="m17.041 16.711l.66-.567h1.694l.474.567l-.567 1.694l-.653.567h-1.694l-.481-.567z"/><path fill="none" stroke="#231f20" stroke-miterlimit="10" stroke-width=".216" d="m17.041 16.711l.66-.567h1.694l.474.567l-.567 1.694l-.653.567h-1.694l-.481-.567z"/><path fill="#231f20" fill-rule="evenodd" d="m17.608 26.034l1.701-5.081h-.567l.567-1.702h2.534l.567.568h.38l.56-.568h1.888l.567.568h.373l.567-.568h2.067l.754 1.135l-1.235 4.019h.56l-.545 1.629h-3.395l1.327-3.955h-.847l-.782 2.312h.56l-.531 1.643h-3.395l1.32-3.955h-.847l-.789 2.326h.567l-.531 1.629z"/><path fill="none" stroke="#231f20" stroke-miterlimit="10" stroke-width=".216" d="m17.608 26.034l1.701-5.081h-.567l.567-1.702h2.534l.567.568h.38l.56-.568h1.888l.567.568h.373l.567-.568h2.067l.754 1.135l-1.235 4.019h.56l-.545 1.629h-3.395l1.327-3.955h-.847l-.782 2.312h.56l-.531 1.643h-3.395l1.32-3.955h-.847l-.789 2.326h.567l-.531 1.629z"/><path fill="#d0d2d3" fill-rule="evenodd" d="m28.554 19.819l.438.624l-1.393 4.464h.56l-.187.56h-2.261l1.321-3.955h-1.981l-1.127 3.395h.56l-.187.56h-2.261l1.321-3.955h-1.981l-1.127 3.395h.567l-.194.56h-2.261l1.702-5.081h-.568l.187-.567h2.074l.567.567h.56l.567-.567h1.694l.567.567h.567l.567-.567z"/><path fill="none" stroke="#231f20" stroke-miterlimit="10" stroke-width=".216" d="m28.554 19.819l.438.624l-1.393 4.464h.56l-.187.56h-2.261l1.321-3.955h-1.981l-1.127 3.395h.56l-.187.56h-2.261l1.321-3.955h-1.981l-1.127 3.395h.567l-.194.56h-2.261l1.702-5.081h-.568l.187-.567h2.074l.567.567h.56l.567-.567h1.694l.567.567h.567l.567-.567z"/><path fill="#231f20" fill-rule="evenodd" d="m19.022 19.251l-1.73 5.149h.589l-.56 1.637h-3.388l1.694-5.082h-.567l3.962-1.7Zm-3.962 1.7l.567-1.7h3.4l-3.962 1.7Z"/><path fill="none" stroke="#231f20" stroke-miterlimit="10" stroke-width=".216" d="m19.022 19.251l-1.73 5.149h.589l-.56 1.637h-3.388l1.694-5.082h-.567l3.962-1.7Zm-3.962 1.7l.567-1.7h3.4l-3.962 1.7Z"/><path fill="#d0d2d3" fill-rule="evenodd" d="m16.947 25.467l.187-.56h-.567l1.701-5.088h-2.354l-.194.567h.66l-1.694 5.081z"/><path fill="none" stroke="#231f20" stroke-miterlimit="10" stroke-width=".216" d="m16.947 25.467l.187-.56h-.567l1.701-5.088h-2.354l-.194.567h.66l-1.694 5.081z"/><path fill="#d0d2d3" fill-rule="evenodd" d="m18.828 18.125l.38-1.134l-.186-.28h-1.134l-.374.28l-.38 1.134l.194.28h1.134z"/><path fill="none" stroke="#231f20" stroke-miterlimit="10" stroke-width=".216" d="m18.828 18.125l.38-1.134l-.186-.28h-1.134l-.374.28l-.38 1.134l.194.28h1.134z"/></svg>