<svg xmlns="http://www.w3.org/2000/svg" xmlns:xlink="http://www.w3.org/1999/xlink" width="32" height="32" viewBox="0 0 32 32"><path fill="#fff" d="M2 8.133h28v15.734H2z"/><path fill="#a2003e" d="M6.388 23.867a11 11 0 0 1-3.441-8.234a10.77 10.77 0 0 1 2.864-7.5H2v15.73Zm20.066 0a16.4 16.4 0 0 0 2.537-3.136l-4.218-1.873a8.3 8.3 0 0 1-6.641 4.12c-4.359-.014-6.072-3.329-6.063-7.584H28.36a6.5 6.5 0 0 0 0-.935a9.06 9.06 0 0 0-2.029-6.326H30v15.73h-3.544ZM12.332 11.742a3.723 3.723 0 0 1 3.9-3.23a3.29 3.29 0 0 1 3.532 3.23Z"/></svg>