<svg xmlns="http://www.w3.org/2000/svg" xmlns:xlink="http://www.w3.org/1999/xlink" width="32" height="32" viewBox="0 0 32 32"><defs><linearGradient id="vscodeIconsFileTypePhraseapp0" x1="18.968" x2="21.935" y1="19.819" y2="18.739" gradientUnits="userSpaceOnUse"><stop offset=".33" stop-color="#f60"/><stop offset="1" stop-color="#ffb800"/></linearGradient><linearGradient id="vscodeIconsFileTypePhraseapp1" x1="18.996" x2="30.06" y1="13.493" y2="12.525" href="#vscodeIconsFileTypePhraseapp0"/><linearGradient id="vscodeIconsFileTypePhraseapp2" x1="13.867" x2="25.287" y1="16.752" y2="6.103" gradientUnits="userSpaceOnUse"><stop offset="0" stop-color="#e7e7e7"/><stop offset=".024" stop-color="#eaeaea"/><stop offset=".178" stop-color="#f5f5f5"/><stop offset=".396" stop-color="#fcfcfc"/><stop offset="1" stop-color="#fefefe"/></linearGradient><linearGradient id="vscodeIconsFileTypePhraseapp3" x1="16.345" x2="17.597" y1="29.317" y2="5.432" gradientUnits="userSpaceOnUse"><stop offset="0" stop-color="#05588c"/><stop offset="1" stop-color="#3db5ff"/></linearGradient><linearGradient id="vscodeIconsFileTypePhraseapp4" x1="8.012" x2="21.637" y1="25.566" y2="1.967" gradientUnits="userSpaceOnUse"><stop offset=".4" stop-color="#005082"/><stop offset="1" stop-color="#2d9bdf"/></linearGradient></defs><path d="M19.455 6.767a2.241 2.241 0 1 1-1.16.789a2.248 2.248 0 0 1 1.16-.789Zm1.036.551a.787.787 0 1 0 .943.491a.786.786 0 0 0-.943-.491Z"/><path fill="url(#vscodeIconsFileTypePhraseapp0)" d="M22.462 20.323a2.109 2.109 0 0 0-.327-.87a5.962 5.962 0 0 0-.721-.906c-.186-.218-.407-.4-.593-.623c-.148-.183-.334-.332-.486-.512c-.115.252-.229.5-.342.757l-.807 1.789l-.091.2a7.258 7.258 0 0 0 1.884.368a7.073 7.073 0 0 0 .865 0c.178-.009.356-.026.534-.049a.591.591 0 0 0 .081-.027a.312.312 0 0 0 .003-.127Z"/><path fill="url(#vscodeIconsFileTypePhraseapp1)" d="M28.15 6.631a9.4 9.4 0 0 0-2.08-2.045l-.053.12l-.518 1.161c-.046.1-.093.208-.139.312l-.131.295l-.76 1.7l-.654 1.468l-.449 1.007q-.182.412-.366.823a2.005 2.005 0 0 1-.727.875a4.464 4.464 0 0 1-1.273.482a2.827 2.827 0 0 0-1.1.516a2.324 2.324 0 0 0-.733 1.36a2.272 2.272 0 0 0 .17 1.277a5.384 5.384 0 0 0 .995 1.431c.152.18.337.329.486.512c.186.218.406.4.593.623a5.962 5.962 0 0 1 .721.906a2.109 2.109 0 0 1 .327.87a.312.312 0 0 1 0 .133a.591.591 0 0 1-.081.027l.091-.011a1.753 1.753 0 0 1-.364 1.035a9.418 9.418 0 0 0 2.464-.755c.238-.108.469-.231.7-.358c.294-.16.57-.352.846-.539v-.014a.582.582 0 0 0 .123-.082a9.446 9.446 0 0 0 1.617-1.56a9.418 9.418 0 0 0 2.045-4.608a9.423 9.423 0 0 0-1.75-6.961Z"/><path fill="url(#vscodeIconsFileTypePhraseapp2)" d="M24.52 5.672A7.788 7.788 0 0 0 21 4.729a7.618 7.618 0 0 0-2.116.24q-.327.085-.644.2a8.75 8.75 0 0 0-.625.26a7.859 7.859 0 0 0-1.575 1.029a8.292 8.292 0 0 0-1.1 1.117a8.653 8.653 0 0 0-.635.888a8.697 8.697 0 0 0-.316.546a9.013 9.013 0 0 0-.437.963q-.139.368-.245.747a7.773 7.773 0 0 0-.255 1.4c0 .043-.008.087-.012.131a6.762 6.762 0 0 0 .125 1.872a9.706 9.706 0 0 0 .445 1.558a7.2 7.2 0 0 0 1.379 2.273A6.681 6.681 0 0 0 16.6 19.24a8.4 8.4 0 0 0 2.5.922l.091-.2l.807-1.789c.114-.253.227-.505.342-.757a5.384 5.384 0 0 1-.995-1.431a2.272 2.272 0 0 1-.17-1.277a2.324 2.324 0 0 1 .733-1.36a2.827 2.827 0 0 1 1.1-.516a4.464 4.464 0 0 0 1.272-.478a2.005 2.005 0 0 0 .72-.878l.366-.823l.449-1.007q.326-.735.654-1.468q.379-.852.76-1.7c.043-.1.088-.2.131-.295c-.281-.172-.551-.358-.84-.511Zm-3.073 5.011a2.237 2.237 0 1 1 .829-1.383a2.24 2.24 0 0 1-.829 1.383Z"/><path fill="url(#vscodeIconsFileTypePhraseapp3)" d="M23.636 29.54q-.631-.519-1.212-1.094a13.578 13.578 0 0 1-2.575-3.465h-.019h.018a9.02 9.02 0 0 1-.745-2.015a6.46 6.46 0 0 1-.17-1.793a4.814 4.814 0 0 1 .162-1.007a8.4 8.4 0 0 1-2.5-.922a6.681 6.681 0 0 1-1.611-1.289a7.2 7.2 0 0 1-1.379-2.273a9.706 9.706 0 0 1-.445-1.558a6.762 6.762 0 0 1-.125-1.872c0-.044.007-.088.012-.131a7.774 7.774 0 0 1 .255-1.4q.107-.378.245-.747a9.013 9.013 0 0 1 .437-.963c.1-.185.2-.369.316-.546a8.653 8.653 0 0 1 .635-.888a8.292 8.292 0 0 1 1.1-1.117a7.859 7.859 0 0 1 1.578-1.025a2.9 2.9 0 0 0-.463.16a14.011 14.011 0 0 0-1.926.953a12.41 12.41 0 0 0-1.037.694a11.431 11.431 0 0 0-1.433 1.255c-.173.17-.331.355-.492.537a9.398 9.398 0 0 0-.27.328c-.164.2-.314.413-.462.626a11.271 11.271 0 0 0-.617 1.009c-.065.119-.126.241-.187.362c-.133.26-.248.53-.358.8c-.081.2-.15.4-.22.6l-.056.164a11.221 11.221 0 0 0-.323 1.247c-.044.208-.077.417-.11.627q-.076.522-.1 1.049c-.02.258-.016.517-.023.775c.014.3.019.592.047.887a12.423 12.423 0 0 0 .985 3.876a10.239 10.239 0 0 0 .616 1.235a12.73 12.73 0 0 0 1.444 2.026c.182.251.434.439.623.684c.071.084.166.141.243.218c.231.24.492.448.744.666a14.316 14.316 0 0 0 2.781 1.777a17.28 17.28 0 0 0 3.184 1.158a19.536 19.536 0 0 0 2.953.5a5.535 5.535 0 0 1 .588.064l.068-.008a1.378 1.378 0 0 0-.176-.164Z"/><path fill="url(#vscodeIconsFileTypePhraseapp4)" d="M20.941 2.342a14.35 14.35 0 0 0-3.335-.328a13.966 13.966 0 0 0-2.24.217c-.666.122-1.327.276-1.982.449c-.773.2-1.539.428-2.3.662c-.806.246-1.61.5-2.416.747c-.683.2-1.369.4-2.062.574a14.452 14.452 0 0 1-2 .36A5.927 5.927 0 0 1 3.141 5A2.983 2.983 0 0 1 2 4.584a6.854 6.854 0 0 0 1.254 2.91a6.864 6.864 0 0 0 2.065 1.84a14.842 14.842 0 0 0-.624 1.6a14.254 14.254 0 0 0-.383 1.419v.025l-.007-.01a13.473 13.473 0 0 0-.29 2.991a13.643 13.643 0 0 0 1.906 6.684a15.409 15.409 0 0 0 3.537 4.111a16.888 16.888 0 0 0 6.345 3.231a18.478 18.478 0 0 0 7.938.319a5.534 5.534 0 0 0-.588-.064a19.536 19.536 0 0 1-2.953-.5a17.28 17.28 0 0 1-3.184-1.158a14.316 14.316 0 0 1-2.781-1.777c-.252-.218-.513-.426-.744-.666c-.078-.077-.173-.134-.243-.218c-.189-.245-.441-.433-.623-.684a12.73 12.73 0 0 1-1.444-2.026a10.239 10.239 0 0 1-.616-1.235a12.423 12.423 0 0 1-.978-3.876c-.028-.295-.034-.591-.047-.887c.007-.258 0-.517.023-.775q.026-.527.1-1.049c.033-.209.065-.419.11-.627a11.221 11.221 0 0 1 .323-1.247l.056-.164c.07-.2.138-.4.22-.6a10.424 10.424 0 0 1 .545-1.162a11.271 11.271 0 0 1 .617-1.009a10.975 10.975 0 0 1 .732-.954c.161-.182.319-.367.492-.537c.228-.234.465-.461.711-.676c.236-.2.472-.4.722-.579a12.41 12.41 0 0 1 1.037-.694a14.011 14.011 0 0 1 1.926-.953a2.9 2.9 0 0 1 .463-.16c.205-.094.413-.183.625-.26s.426-.146.644-.2A7.618 7.618 0 0 1 21 4.729a7.788 7.788 0 0 1 3.517.943c.289.153.559.339.839.508c.046-.1.093-.208.139-.312l.518-1.161l.053-.12a14.306 14.306 0 0 0-5.125-2.245Z"/></svg>