<svg xmlns="http://www.w3.org/2000/svg" xmlns:xlink="http://www.w3.org/1999/xlink" width="32" height="32" viewBox="0 0 32 32"><path fill="#a8c2ab" d="M17.181 4.437A5.993 5.993 0 0 1 21.579 2a5.979 5.979 0 0 1-1.447 4.476a4.729 4.729 0 0 1-4.17 1.961a5.2 5.2 0 0 1 1.219-4Zm-.981 5.597c.946 0 2.7-1.3 4.989-1.3a6.249 6.249 0 0 1 5.484 2.8a6.08 6.08 0 0 0-3.028 5.3a6.235 6.235 0 0 0 3.772 5.7s-2.637 7.422-6.2 7.422c-1.636 0-2.908-1.1-4.631-1.1c-1.757 0-3.5 1.144-4.635 1.144c-3.251 0-7.364-7.041-7.364-12.7c0-5.568 3.478-8.489 6.74-8.489c2.121 0 3.766 1.223 4.873 1.223Z"/></svg>