<svg xmlns="http://www.w3.org/2000/svg" xmlns:xlink="http://www.w3.org/1999/xlink" width="32" height="32" viewBox="0 0 32 32"><path d="m19.901 15.342l9.013 3.58c.26.103.481.28.638.509a1.38 1.38 0 0 1 .009 1.55c-.155.231-.375.41-.633.516l-12.43 5.094a1.42 1.42 0 0 1-1.075 0L2.99 21.498a1.4 1.4 0 0 1-.633-.515a1.38 1.38 0 0 1 .647-2.06l9.172-3.642c.525-.209 2.185.403 3.782.409c1.707.005 3.353-.581 3.942-.348zM7.25 20.233l8.71 3.57l8.711-3.57l-8.711-3.46zm9.234-14.59l12.43 4.937c.26.103.482.28.64.509a1.37 1.37 0 0 1 .008 1.551a1.4 1.4 0 0 1-.633.515L16.498 18.25c-.344.14-.73.14-1.075 0L2.991 13.157a1.4 1.4 0 0 1-.632-.515a1.38 1.38 0 0 1 .008-1.552a1.4 1.4 0 0 1 .638-.508l12.431-4.939a1.42 1.42 0 0 1 1.048 0M7.25 11.892l8.71 3.569l8.711-3.57l-8.711-3.46z"/></svg>