<svg xmlns="http://www.w3.org/2000/svg" xmlns:xlink="http://www.w3.org/1999/xlink" width="32" height="32" viewBox="0 0 32 32"><path fill="#ffed00" d="M26.034 7.613h-2.029V21.34h2.029z"/><path fill="#fcc204" d="M30 7.613h-3.966V21.34H30z"/><path fill="#fff7ad" d="m30 21.34l-2.973 3.838l-3.022-3.838Zm-4.121 0l-.845-.661l-.845.661Zm2 0l-.845-.661l-.845.661Zm2 0l-.845-.661l-.845.661Z"/><path fill="#e53524" d="m25.818 23.643l1.207 1.535l1.187-1.535z"/><path fill="#f7c3c6" d="M26.034 3.391h-2.029v3.854h2.029z"/><path fill="#f5b2b6" d="M30 3.391h-3.966v3.854H30z"/><path fill="#f68712" d="m12.324 5.972l-7.743 7.743l7.743 7.743l7.743-7.743z"/><path fill="#fab20b" d="m2 3.391l10.324 2.581l-7.743 7.743z"/><path fill="#f47216" d="m22.648 3.391l-2.581 10.324l-7.743-7.743z"/><path fill="#f25c19" d="m22.648 24.039l-10.324-2.581l7.743-7.743z"/><path fill="#f89c0e" d="m2 24.039l2.581-10.324l7.743 7.743z"/><path fill="#fbc707" d="M12.324 5.972L2 3.391h5.162zm0 0l10.324-2.581h-5.162z"/><path fill="#f68712" d="m12.324 21.458l10.324 2.581h-5.162z"/><path fill="#f25c19" d="M12.324 21.458L2 24.039h5.162z"/><path fill="#fff200" d="M4.581 13.715L2 24.039v-5.162zm0 0L2 3.391v5.162z"/><path fill="#f1471d" d="m20.067 13.715l2.581-10.324v5.162zm0 0l2.581 10.324v-5.162z"/><path fill="#e53524" d="M25.079 25.254a3.3 3.3 0 0 0-.694.538c-.2.2-.385.419-.56.628a2.96 2.96 0 0 1-1.225 1.042a1.92 1.92 0 0 1-2-.7c-.093-.1-.184-.213-.275-.322a3.67 3.67 0 0 0-1.963-1.456a3.02 3.02 0 0 0-2.949 1.191l-.169.2a2.72 2.72 0 0 1-1.593 1.177c-.621.07-1.186-.244-1.891-1.05a3.54 3.54 0 0 0-2.608-1.58h-.018a3.65 3.65 0 0 0-2.648 1.622c-.679.776-1.289 1.092-1.92.993a2.36 2.36 0 0 1-1.327-.924L2 26.775l.191.226A3.74 3.74 0 0 0 4.4 28.573a3.13 3.13 0 0 0 2.869-1.338c.567-.648 1.1-1.26 1.867-1.265h.009c.7 0 1.2.507 1.821 1.222a3.48 3.48 0 0 0 2.517 1.417a3 3 0 0 0 .28-.016a3.58 3.58 0 0 0 2.272-1.538l.164-.191a2.06 2.06 0 0 1 1.931-.855a2.8 2.8 0 0 1 1.388 1.107c.1.116.195.232.294.343a2.89 2.89 0 0 0 3.122.993a3.9 3.9 0 0 0 1.693-1.361c.167-.2.325-.388.494-.556a2.3 2.3 0 0 1 .471-.37Z"/></svg>