<svg xmlns="http://www.w3.org/2000/svg" xmlns:xlink="http://www.w3.org/1999/xlink" width="32" height="32" viewBox="0 0 32 32"><path fill="#f26e7e" d="M7.4 17.634c1.01-.6 1.01-2.524 0-4.3s-2.647-2.754-3.64-2.159s-1.01 2.524 0 4.312s2.629 2.743 3.64 2.147m0 3.821c1 1.753 1 3.707 0 4.3s-2.646-.368-3.648-2.147s-1-3.707 0-4.3s2.646.359 3.656 2.147Zm6.85 4.066c1 1.753 1 3.707 0 4.3s-2.646-.368-3.622-2.147s-1.01-3.716 0-4.312s2.637.368 3.648 2.156Zm0-8.124c1 1.753 1 3.707 0 4.3s-2.646-.377-3.63-2.129s-1-3.716 0-4.312s2.646.351 3.656 2.138Z"/><path fill="#8a3391" d="M28.243 15.481c1.009-1.753 1.009-3.709 0-4.3s-2.634.368-3.644 2.148s-1 3.717 0 4.313s2.652-.372 3.644-2.161m0 3.822c1.009.6 1.009 2.525 0 4.3s-2.634 2.753-3.644 2.157s-1.009-2.525 0-4.313s2.652-2.757 3.644-2.147Zm-6.843 4.06c1.009.6 1.009 2.525 0 4.3s-2.634 2.753-3.644 2.157s-1.009-2.525 0-4.313s2.651-2.744 3.627-2.148Zm0-8.127c1.009.6 1.009 2.525 0 4.3s-2.634 2.753-3.635 2.157s-1.009-2.525 0-4.314s2.643-2.744 3.618-2.148Z"/><path fill="#f7bf2a" d="M19.825 4.089c0 1.142-1.7 2.08-3.812 2.08s-3.821-.939-3.821-2.08S13.906 2 16.014 2s3.811.939 3.811 2.089M12.65 8c0 1.15-1.7 2.08-3.812 2.08S5 9.146 5 8s1.713-2.08 3.839-2.08s3.794.93 3.794 2.08Zm10.538 2.08C25.3 10.076 27 9.146 27 8s-1.677-2.08-3.812-2.08s-3.821.93-3.821 2.08s1.741 2.076 3.821 2.076Zm-3.363 1.84c0 1.15-1.7 2.08-3.812 2.08s-3.821-.93-3.821-2.08s1.713-2.08 3.821-2.08s3.812.93 3.812 2.08"/></svg>