<svg xmlns="http://www.w3.org/2000/svg" xmlns:xlink="http://www.w3.org/1999/xlink" width="32" height="32" viewBox="0 0 32 32"><path fill="#a6acb4" d="M29.3 12.7a2.2 2.2 0 0 0 0-3.1a1.1 1.1 0 0 0-.5-.5A7.1 7.1 0 0 0 25.1 8a1.3 1.3 0 0 0-.9.2a6.9 6.9 0 0 0-3.8 1.5c-.1.1-.2.2-.4.1a6.4 6.4 0 0 0-1.9-.8a7.2 7.2 0 0 0-6 .8l-.6-.5a7.9 7.9 0 0 0-3.3-1a6.5 6.5 0 0 0-6.1 3.6a1.2 1.2 0 0 0-.1.6a3.2 3.2 0 0 0 1.6 2.8a6.1 6.1 0 0 0 3.6.9h1.1a1.9 1.9 0 0 0-.3.7a8.6 8.6 0 0 0-.4 2.4a3.8 3.8 0 0 0 3.2 4.1a34.4 34.4 0 0 0 5.1.8a11.2 11.2 0 0 0 2.6 0a15.7 15.7 0 0 0 3.7-1.1a4.8 4.8 0 0 0 1.8-1.7a2.9 2.9 0 0 0 .7-2a12 12 0 0 0-.3-2.2c0-.2-.1-.4.2-.4l1.3-.5a5.7 5.7 0 0 0 2.9-1.7a1.1 1.1 0 0 0 .2-1.3c-.1-.3-.1-.4.1-.5Z"/><path fill="#4b5b64" d="M13.7 20.5a4 4 0 0 1 1.3-2.3a2 2 0 0 1 2.8.3v.2l.6 1.2a6 6 0 0 1 0 .8a2.7 2.7 0 0 1-3.3 1.7H15a2 2 0 0 1-1.3-1.9"/><path fill="#283037" d="m13.7 20.5l.5 1a2.2 2.2 0 0 0 2.8.5a2.5 2.5 0 0 0 1.3-1.4c.1-.1.1-.3.1-.5s0-.2.1-.1a3.2 3.2 0 0 1 .3 1.8a1.3 1.3 0 0 1-.5.9a3.5 3.5 0 0 1-3.1.6a2.2 2.2 0 0 1-1.6-2.4Z"/><path fill="#0a090b" d="M10.6 20.3a1.4 1.4 0 0 1 .2-1.4a.8.8 0 0 1 1.2-.3l.3.4a1.3 1.3 0 0 1-.6 1.7a.8.8 0 0 1-1.1-.2Zm9.5 0a1.1 1.1 0 0 0 1.1.5a.9.9 0 0 0 .6-.8a1 1 0 0 0-.2-.7l-.4-.4a.8.8 0 0 0-1-.1a.7.7 0 0 0-.3.9v.2Z"/><path fill="#8e949c" d="M10.6 20.3c.4.4.6.5 1 .3a1.4 1.4 0 0 0 .8-1.3V19a1.5 1.5 0 0 1-.3 2.1H12a1 1 0 0 1-1.3-.6Zm10.2.9a.7.7 0 0 0 .9-.2a1.4 1.4 0 0 0-.1-1.7v.5a.9.9 0 0 1-.4.9c-.3.2-.6 0-.8-.2a1.7 1.7 0 0 1-.5-.6a1.6 1.6 0 0 0 .9 1.3"/><path fill="#d48691" d="M27 10.5h.1c-.2 1.4-.4 2.5-2 3.1l-1.2.4a.8.8 0 0 1-.8-.3a3.3 3.3 0 0 1-.6-1a.6.6 0 0 1 .3-.6a7.7 7.7 0 0 1 2.8-1.5ZM6.2 14.3h1.9c.5-.1 1 0 1-.7a.9.9 0 0 1 .1-.5a.3.3 0 0 0 .1-.2c-.1-.2.1-.3 0-.5h-.5a6.8 6.8 0 0 0-3.6.8c-.4.4-.3.5.1.8l.6.3Z"/><path fill="#c95e66" d="m27 10.5l-2.6.8l-1.6 1l-.3.4c-.6-1.1-.5-1 .4-1.6a5.1 5.1 0 0 1 4.1-.6m-17.7 2c.3-.8.2-.9-.6-1h-.3a5.9 5.9 0 0 0-3.2 1.6l.6-.2a7.4 7.4 0 0 1 3.4-.4Z"/><path fill="#fcfdfc" d="M11.3 19c0-.2.1-.4.3-.3a.7.7 0 0 1 .5.7c0 .2-.1.4-.4.4s-.4-.5-.4-.8m9.4-.2a.4.4 0 0 0-.4.3a.4.4 0 0 0 .3.4c.2 0 .3-.1.4-.3a.4.4 0 0 0-.3-.4"/></svg>