<svg xmlns="http://www.w3.org/2000/svg" xmlns:xlink="http://www.w3.org/1999/xlink" width="32" height="32" viewBox="0 0 32 32"><path fill="#bebdbc" d="M4.615 9.863c.024-.107.3-.108.321 0a12 12 0 0 1-.321 0"/><path fill="#b5b2b0" d="M4.32 9.924q.054-.14.17-.039a.22.22 0 0 1-.17.039"/><path fill="#26211d" d="m4.49 9.886l.126-.022h.321l.12.014l.116.043a.48.48 0 0 1 .3.137a.44.44 0 0 0 .211.108a1.6 1.6 0 0 1 .387.178l.018.011q.137.083.272.17l.022.014l.145.1l.027.018l.148.1l.028.017l.147.093l.022.014l.268.165l.018.01q.137.08.275.158l.02.011q.203.112.4.233l.027.016l.035.019l.029.016a2.2 2.2 0 0 1 .487.3a.5.5 0 0 0 .284.147a.44.44 0 0 1 .249.127a.33.33 0 0 0 .184.108l.041.014l.028.01a7 7 0 0 1 .654.341l.028.016l.035.019l.029.015c.222.115.444.228.659.355l.028.016l.034.019l.029.015c.213.115.43.222.643.34l.02.011q.26.145.519.292l.033.018l.044.018l.042.021l.048.024l.034.017a5 5 0 0 1 .409.23l.023.015l.146.092l.022.014c.091.055.182.108.269.169l.019.014l.114.1a.3.3 0 0 0 .179.1l.077.044l.1.065a1.4 1.4 0 0 1 .4.194l.029.019l.042.027l.036.023l.046.031a.6.6 0 0 0 .261.111l.052.016l.125.035l.054.017a.44.44 0 0 0 .231.041h.059a.8.8 0 0 0 .282-.031l.185-.025a.21.21 0 0 0 .168-.039l.114-.014a.2.2 0 0 0 .167-.038l.177-.024l.117-.043l.18-.012a.2.2 0 0 0 .167-.036l.119-.02a.23.23 0 0 0 .171-.041l.052-.014a.23.23 0 0 0 .172-.04l.121-.021a.21.21 0 0 0 .169-.036l.114-.022l.117-.044l.178-.015l.118-.043l.115-.011a.21.21 0 0 0 .168-.038l.118-.02a.22.22 0 0 0 .17-.038l.122-.017a.5.5 0 0 0 .217-.035l.193-.023a1 1 0 0 0 .267-.029l.116-.024a.4.4 0 0 1-.231.207a8 8 0 0 1-1.244.264a15.4 15.4 0 0 1-3.423.446a5.7 5.7 0 0 0-1-.118a1.64 1.64 0 0 0-.7-.555c-.241-.112-.483-.334-.767-.228l.017-.183c-.354-.174-.694-.373-1.038-.562a.46.46 0 0 0-.335-.027c-.213-.281-.548-.611-.933-.515l-.205-.284a2.3 2.3 0 0 0 .774.1c-.3-.179-.645-.274-.95-.448c-.391-.219-.759-.478-1.151-.694a19 19 0 0 1-1.932-1.071a1.66 1.66 0 0 0-.955-.343l.11.2a3 3 0 0 0-1.451-.337a2.2 2.2 0 0 1 .584.2c-.41-.01-.8-.163-1.214-.149c.2.076.412.141.62.209c-.534.012-1.068-.018-1.6.031a1.05 1.05 0 0 1 .589.335c.269.389.77.534 1.024.936a2 2 0 0 1-.464-.269l-.018-.013c-.144-.1-.3-.182-.443-.275l-.019-.012a5 5 0 0 1-.389-.274l-.017-.013c-.165-.159-.4-.3-.427-.546h.146a1.4 1.4 0 0 0 .381-.036l.118-.017a.22.22 0 0 0 .167-.046l.181-.023l.118-.042l.115-.012a.2.2 0 0 0 .167-.039l.114-.025l.12-.039l.118-.013A.2.2 0 0 0 3.913 10l.119-.019a.21.21 0 0 0 .17-.038l.118-.02a.22.22 0 0 0 .17-.039m5.447 3.089a2.8 2.8 0 0 0 .743.445c.907.49 1.792 1.019 2.7 1.512a2.04 2.04 0 0 0 .887.241c-.072-.184-.287-.2-.445-.275a22 22 0 0 1-2.5-1.357c-.443-.234-.855-.616-1.386-.564Zm12.915-3.04a3 3 0 0 1 .534 0l-.067.106l-.024.124l-.02.047a.2.2 0 0 0-.04.169l-.02.121a.23.23 0 0 0-.042.172l-.013.055a.24.24 0 0 0-.042.176l-.016.055a.24.24 0 0 0-.043.175l-.014.054a.23.23 0 0 0-.043.172l-.007.052l-.043.117a.47.47 0 0 1-.084.3l-.035.119l-.014.05l-.044.118l-.014.053l-.043.119l-.014.054l-.042.121l-.014.054l-.052.115l-.021.04a.6.6 0 0 0-.091.236a.5.5 0 0 1-.076.2l-.048.12l-.019.056l-.016.04l-.02.048l-.017.039l-.025.059l-.184.086c.064-.241.133-.482.215-.717c.207-.6.365-1.206.56-1.8a7 7 0 0 0 .267-.854a1.14 1.14 0 0 0-.558.793a10 10 0 0 1-.475 1.249c.148-.526.331-1.041.521-1.553a1.4 1.4 0 0 1 .578-.641a2.44 2.44 0 0 0-1.076.207a2.9 2.9 0 0 0-.625.989c-.42.756-.872 1.494-1.315 2.236a3 3 0 0 1-.361-.051c-.271-.185-.593-.268-.868-.445a7 7 0 0 0 1.255.339a7.4 7.4 0 0 0-1.308-.5v.168l-.306-.166c-.318.175-.686.212-1.017.356a2 2 0 0 0 .351.228a.9.9 0 0 0 .269-.02a1 1 0 0 0 .261.3c.165.081.354.1.516.185a.56.56 0 0 1 .216.352a1.2 1.2 0 0 1-.326-.16a.5.5 0 0 0-.236-.11l-.043-.012l-.031-.01a2 2 0 0 1-.227-.1l-.021-.01a9 9 0 0 1-.382-.221l-.019-.011l-.272-.163l-.019-.011q-.147-.084-.3-.159c0-.042 0-.126-.006-.168l.111-.014a.17.17 0 0 1 .183-.085l.115-.046l.05-.012l.119-.044l.054-.014l.12-.043l.054-.009a.23.23 0 0 0 .171-.039l.118-.02a.2.2 0 0 0 .166-.037a.9.9 0 0 1 .359-.026h.095a1.2 1.2 0 0 1 .3.013l.113.046a1.18 1.18 0 0 1 .666.3l.017.013l.112.084l.089-.057l.053-.11l.017-.042a1 1 0 0 0 .1-.258l.012-.043l.009-.029a3.5 3.5 0 0 1 .4-.747l.015-.024l.09-.145l.014-.024a2 2 0 0 1 .286-.4a.32.32 0 0 0 .108-.175l.063-.149l.011-.021l.073-.118a4 4 0 0 0 .356-.663a.27.27 0 0 1 .226-.1l.114-.037l.093-.022c.167-.015.335-.026.503-.045"/><path fill="#ababab" d="m5.057 9.877l.043-.028l.059.022l.013.05Z" opacity=".87"/><path fill="#b7b5b6" d="M4.032 9.982q.054-.14.17-.038a.21.21 0 0 1-.17.038"/><path fill="#cbbfb5" d="M22.349 9.978a.86.86 0 0 1 .5-.044c-.165.018-.333.029-.5.044m-16.879.079c.064-.08.255.006.211.108a.44.44 0 0 1-.211-.108m16.089.743a1.56 1.56 0 0 1 .356-.663a4 4 0 0 1-.356.663m1.676-.422a.2.2 0 0 1 .04-.169q.1.117-.04.169m-21.089-.047c.038-.125.285-.1.381-.036a1.4 1.4 0 0 1-.381.036m19.154.933c-.074-.062.018-.216.108-.175a.32.32 0 0 1-.108.175M8.456 11.8c.087-.061.306.036.284.147a.5.5 0 0 1-.284-.147m11.928 1.139c-.076-.074-.013-.261.1-.258a1 1 0 0 1-.1.258m2.1-.032a.6.6 0 0 1 .091-.236c.076.064.015.262-.091.236m-12.548.068c.53-.051.943.331 1.378.566a22 22 0 0 0 2.5 1.357c.158.07.373.091.445.275a2.04 2.04 0 0 1-.887-.241c-.9-.493-1.789-1.022-2.7-1.512a2.8 2.8 0 0 1-.736-.445m12.734.615l.165.087c-.01.1-.013.2-.018.3l-.017-.037a2.4 2.4 0 0 0-.13-.35m-4.054.352a.5.5 0 0 1 .236.11c-.073.071-.252-.007-.236-.11m.193.426c0-.115.214-.112.267-.029a1 1 0 0 1-.267.029m-5.685.022c.06-.072.217.012.179.1a.3.3 0 0 1-.179-.1m10.791.11c.071-.08.266 0 .239.108a1.3 1.3 0 0 1-.239-.108m-10.535.036l.049-.021l.052.033v.052Zm10.814.094c.061-.084.267-.03.242.081a1 1 0 0 1-.242-.081m.586.223c.062-.079.26-.016.232.091a.54.54 0 0 1-.232-.091m-10.746.047c.083-.054.26 0 .261.111a.6.6 0 0 1-.261-.111m-5.555.336q.105.062-.013.117q-.107-.063.013-.117m.331.099c.15.089.294.187.438.285a.85.85 0 0 1-.438-.285m.551.339a1.1 1.1 0 0 1 .3.162c-.097.054-.327-.036-.3-.162m14.632.235a.6.6 0 0 1 .234.1c-.068.078-.257.005-.234-.1m-4.33.276a.6.6 0 0 1 .242-.114a.16.16 0 0 1-.242.114M9.4 16.508c-.015-.1.027-.138.124-.1a.2.2 0 0 1-.124.1m-.806.692c-.012-.1.03-.137.126-.1a.18.18 0 0 1-.126.1m-.639.4l.054-.031l.048.023l-.1.06Zm12.556.022c.062-.08.26-.015.231.091a.5.5 0 0 1-.231-.091m1.389.521c.06-.078.255-.014.227.089a.4.4 0 0 1-.227-.089m-5.745.547a.38.38 0 0 1 .227.082c-.058.081-.252.021-.227-.082m-9.855.065l.05.005l-.077.089Zm5.16.256a1 1 0 0 1 .3-.1c-.008.119-.217.174-.3.1m-.681.228a1 1 0 0 1 .284-.1c.007.116-.207.182-.284.1m-2.357.514a.9.9 0 0 1 .266-.03c-.002.115-.213.113-.266.03m-1.303.039c.355.006.712.01 1.067-.009l-.005.061a5 5 0 0 1-1.062-.052m22.148 1.066c.057-.07.218 0 .183.094a.27.27 0 0 1-.183-.094"/><path fill="#afabaa" d="M3.744 10.04q.053-.141.168-.039a.21.21 0 0 1-.168.039"/><path fill="#aaa6a4" d="m22.156 9.985l.06-.018l.04.033l-.115.035Zm.318 8.367l.107-.005l.015.05Z"/><path fill="#aca8a5" d="m3.523 10.042l.1.01l-.12.039Z"/><path fill="#cfbdb1" d="M22.111 10.239a2.44 2.44 0 0 1 1.076-.207a1.4 1.4 0 0 0-.578.641c-.19.512-.373 1.027-.521 1.553a10 10 0 0 0 .475-1.249a1.14 1.14 0 0 1 .558-.793a7 7 0 0 1-.267.854c-.2.6-.353 1.209-.56 1.8a10 10 0 0 0-.215.717l.184-.086q.092.076.188.152a2.2 2.2 0 0 0-.808.241c.341-.006.678-.063 1.018-.088v.349c-.592.218-1.174.467-1.782.642a4 4 0 0 0-.607.237l.313.006c0 .146-.005.291 0 .437q-.407.116-.806.254a14 14 0 0 1-1.728.538a2.1 2.1 0 0 1-.577.07c-.241-.016-.469-.11-.709-.133a1.4 1.4 0 0 0-.553.1c-.767.257-1.485.652-2.274.846a1.6 1.6 0 0 1-.449.05c.046-.136.205-.146.322-.183c.84-.184 1.583-.655 2.417-.86a1.2 1.2 0 0 0 .413-.19a5.4 5.4 0 0 0-1.024.214a.74.74 0 0 1-.383-.028c0 .043.006.087.01.13q-.841.235-1.676.49c-.27.076-.543.245-.83.146a3.7 3.7 0 0 1-.61.331a3.6 3.6 0 0 0 .894.272a10 10 0 0 0 1.243.445l-.094.126q-.272-.098-.542-.2a3.3 3.3 0 0 0-.576-.169c-.321-.087-.621-.232-.932-.348a1.84 1.84 0 0 0-1.048.145c0 .036.013.108.017.144c.3-.1.6-.208.908-.29a13 13 0 0 1-.091.583a3.7 3.7 0 0 1-.738.265l-.227.033l.025.109c-.3.048-.594.1-.888.171q-.594.055-1.189.064l-.048-.287a4 4 0 0 1-1.078.017c-.163-.032-.322-.081-.483-.122c.3-.227.707-.254 1.014-.472c.227-.275.443-.558.69-.816c.256-.141.49-.317.743-.463c.361-.184.609-.538 1.009-.656a4 4 0 0 0-.877-.438c-.136-.078-.272-.156-.412-.225c-.253-.108-.545.012-.79-.122a6 6 0 0 1-.649-.4a6.5 6.5 0 0 0-.871-.679c-.58-.4-1.175-.79-1.769-1.174a3.1 3.1 0 0 0-.84-.483a1.6 1.6 0 0 1-.467-.282a1.2 1.2 0 0 1-.284-.238c-.254-.4-.755-.546-1.024-.936a1.05 1.05 0 0 0-.589-.335c.533-.048 1.068-.018 1.6-.031c-.207-.069-.415-.133-.62-.209c.412-.014.8.138 1.214.149a2.2 2.2 0 0 0-.584-.2a3 3 0 0 1 1.451.337l.322.181v.207l.219-.116q.093.156.2.305c.1-.012.218-.064.315 0s.115.156.162.239a1 1 0 0 1 .2-.017c.232.159.437.353.668.514a2 2 0 0 1 .217-.015a1.3 1.3 0 0 1 .232.247a1.08 1.08 0 0 1 .868.421a.67.67 0 0 0 .327.152c.127.042.25.094.377.137l.205.284c.385-.1.719.234.933.515a.46.46 0 0 1 .335.027c.344.19.685.388 1.038.562l-.017.183c.283-.106.526.115.767.228a1.64 1.64 0 0 1 .7.555a5.7 5.7 0 0 1 1 .118a15.4 15.4 0 0 0 3.423-.446a8 8 0 0 0 1.244-.264a.4.4 0 0 0 .231-.207l-.014-.1a.56.56 0 0 0-.216-.352c-.163-.087-.351-.1-.516-.185a1 1 0 0 1-.261-.3a.9.9 0 0 1-.269.02a2 2 0 0 1-.351-.228c.331-.144.7-.181 1.017-.356l.306.166v-.168a7.4 7.4 0 0 1 1.308.5a7 7 0 0 1-1.255-.339c.275.177.6.261.868.445a3 3 0 0 0 .361.051c.443-.742.895-1.48 1.315-2.236a2.9 2.9 0 0 1 .625-.989m-17.035.326c-.03.093 0 .126.1.1q.045-.141-.1-.1m-1.606.63c-.069.085.081.176.138.093s-.081-.175-.138-.093m.4.23q-.045.141.1.1c.03-.094 0-.126-.1-.1m.4.288q-.045.141.1.1c.03-.093 0-.126-.1-.1m.75.535c-.025.081 0 .109.084.082c.024-.081 0-.108-.084-.082m3.117 0q-.034.122.086.08q.033-.123-.086-.08m-1.895.788q-.034.122.086.08q.034-.123-.086-.08m.393.291q-.045.141.1.1c.03-.093 0-.126-.1-.1m14.826.547c.165-.112.175-.322.215-.5a1.8 1.8 0 0 0-.215.5m-14.483-.32l.029.187a.27.27 0 0 1 .158-.158zm12.577.754a.95.95 0 0 0 .394-.67c-.249.127-.309.429-.394.67m.334-.05c.232-.046.294-.294.345-.49a.75.75 0 0 0-.345.49m-12.5-.41c-.068.085.082.174.14.092s-.083-.175-.14-.092m13.008.322a2.8 2.8 0 0 0 .807-.117a.19.19 0 0 0 .144-.152a3 3 0 0 0-.951.269m-9.033-.152q-.046.141.1.1q.048-.14-.1-.1m-3.571.119c-.069.086.082.175.139.092s-.083-.175-.139-.092m.4.288c-.068.085.082.175.139.092s-.082-.175-.139-.092m4.088.114q-.048.14.1.1c.03-.094 0-.126-.1-.1m-3.634.173q-.048.14.1.1c.03-.094 0-.126-.1-.1m11.306 0q-.048.14.1.1c.03-.094 0-.126-.1-.1m-.4.115q-.048.14.1.1c.03-.094 0-.126-.1-.1m-.461.173q-.045.141.1.1c.03-.094 0-.126-.1-.1m-.406.122c-.078.051 0 .188.082.123s0-.188-.082-.123m-5.345.122c-.451.062-.9.152-1.349.213c-.119.024-.278.025-.321.166a9 9 0 0 0 .991-.136a10 10 0 0 0 .951-.173a.38.38 0 0 0-.272-.07m4.423.16c-.03.094 0 .126.1.1q.044-.141-.1-.1m.6.051c.037.065.052.17.15.163c.118.05.147-.089.2-.159h-.352m-7.5.409a1.34 1.34 0 0 0 .663-.287c-.225.061-.56.036-.663.287m2.573.073c.007-.1.014-.206.023-.309a1.17 1.17 0 0 0-.679.508a.6.6 0 0 0 .012.445l.41-.3c.218-.136.462-.224.677-.368l.123.108a.6.6 0 0 0 .131-.4a9 9 0 0 0-.262.113l-.015-.17a2 2 0 0 1-.411.374m-1.9-.256a6.5 6.5 0 0 1-.445 1.007a1.2 1.2 0 0 1-1.172.489c-.272-.054-.374-.343-.581-.494a.85.85 0 0 0 .1.722c-.333.061-.741 0-.985.28a5 5 0 0 0 1.44-.165a2.6 2.6 0 0 0 1.224-.569a3.4 3.4 0 0 0 .539-1.131c.063-.087-.037-.166-.124-.142m5.138.012c-.069.084.08.179.137.093s-.08-.178-.137-.093m-.986.23c-.03.093 0 .126.1.1c.03-.094 0-.126-.1-.1m-3.4.414l-.032-.209a1 1 0 0 0-.42.206a.9.9 0 0 0-.194.355l.151.047v.148a2.2 2.2 0 0 1 .641-.3a5 5 0 0 0 .149-.489q-.151.117-.294.241m2.424-.126q-.045.141.1.1q.045-.141-.1-.1m-4.674 1.324c0 .041-.007.124-.01.165h.168v-.17l-.16.006m-.519.183c-.077.052.006.187.084.124s-.006-.189-.084-.124m-.573.167c0 .039 0 .118.006.158l.1-.048l.047-.1Z"/><path fill="#bbbab8" d="m23.3 10.162l.024-.124l.036.04l-.012.063Z"/><path fill="#a5a5a5" d="M3.226 10.156q.051-.141.167-.039a.2.2 0 0 1-.167.039M26.4 15.471l.107-.007l.017.049Z"/><path fill="#a4a4a4" d="m3.007 10.159l.1.008l-.118.042Z"/><path fill="#bbb" d="M2.645 10.278c.031-.1.087-.111.167-.046a.22.22 0 0 1-.167.046"/><path fill="#c4b9ae" d="M5.117 10.3a1.66 1.66 0 0 1 .955.343A19 19 0 0 0 8 11.716c.392.216.76.475 1.151.694c.305.174.647.269.95.448a2.3 2.3 0 0 1-.774-.1c-.126-.043-.25-.1-.377-.137a.6.6 0 0 0-.332-.318c-.709-.4-1.412-.82-2.124-1.219a5.8 5.8 0 0 0-1.271-.579Z"/><path fill="#cfcace" d="m6.069 10.344l.018.011Z"/><path fill="#281f16" d="M5.227 10.507a5.8 5.8 0 0 1 1.271.579c.712.4 1.415.814 2.124 1.219a.6.6 0 0 1 .332.318a.67.67 0 0 1-.327-.152a1.08 1.08 0 0 0-.868-.421a1.3 1.3 0 0 0-.232-.247a2 2 0 0 0-.217.015c-.231-.161-.436-.355-.668-.514a1 1 0 0 0-.2.017c-.047-.084-.072-.192-.162-.239s-.211-.007-.315 0q-.1-.15-.2-.305l-.219.116v-.207z"/><path fill="#e1e0de" d="m6.358 10.524l.022.014Z"/><path fill="#aeaaa8" d="M23.172 10.672a.23.23 0 0 1 .042-.172q.099.115-.042.172" opacity=".91"/><path fill="#5a4c3f" d="M5.077 10.564q.141-.045.1.1q-.146.04-.1-.1"/><path fill="#d9d5d2" d="m6.525 10.634l.027.018Z"/><path fill="#dfdeda" d="m6.7 10.749l.028.017Z"/><path fill="#b8b4b3" d="M23.117 10.9a.24.24 0 0 1 .042-.176q.097.122-.042.176"/><path fill="#d9d8d6" d="m2.427 10.873l.017.013Zm.405.287l.019.012Zm18.189 6.632l.027.013Z"/><path fill="#c9c8c4" d="m6.874 10.86l.022.014Z"/><path fill="#d2cccc" d="m21.475 10.941l.011-.021Z"/><path fill="#b5b3b1" d="M23.059 11.133a.24.24 0 0 1 .043-.175q.098.119-.043.175"/><path fill="#dfdfdf" d="m7.165 11.039l.018.01Z"/><path fill="#3d2d23" d="M3.469 11.2c.057-.082.207.007.138.093s-.207-.007-.138-.093"/><path fill="#d2d2d2" d="m7.457 11.208l.02.011Zm5.073 2.775l.023.015Z"/><path fill="#bdbdbc" d="M23 11.359a.23.23 0 0 1 .043-.172c.066.08.057.137-.043.172"/><path fill="#cdcccc" d="m3.294 11.446l.018.013Z"/><path fill="#412e27" d="M3.865 11.43c.093-.03.126 0 .1.1q-.145.041-.1-.1"/><path fill="#d0cbc8" d="m7.878 11.452l.027.016Z"/><path fill="#bebebe" d="m22.951 11.528l.043-.117c0 .026.006.078.007.1Z"/><path fill="#dbd7d1" d="m7.939 11.487l.029.016Z"/><path fill="#e1e1e1" d="m20.9 11.862l.015-.024Z"/><path fill="#e1dddc" d="m21 11.693l.014-.024Z"/><path fill="#645249" d="M4.269 11.719c.094-.03.126 0 .1.1q-.146.041-.1-.1"/><path fill="#bdbdbd" d="m22.833 11.948l.035-.119l.033.041l-.017.061Z"/><path fill="#aeafb0" d="m22.775 12.116l.044-.116c0 .026 0 .078.006.1Z"/><path fill="#b0afaf" d="M8.988 12.075c.065-.072.212.018.184.108a.33.33 0 0 1-.184-.108" opacity=".96"/><path fill="#e8e4e1" d="m9.213 12.2l.028.01Z"/><path fill="#9fa0a2" d="m22.718 12.288l.043-.119l.007.1Z"/><path fill="#56514d" d="M4.528 12.247a3.1 3.1 0 0 1 .84.483c.594.385 1.189.77 1.769 1.174a6.5 6.5 0 0 1 .871.679l.044.121a.8.8 0 0 1-.457-.287l-.1-.065c-.192-.11-.362-.253-.546-.374a9 9 0 0 1-.763-.541l-.072-.052c-.132-.075-.252-.167-.376-.254l-.018-.013a9.5 9.5 0 0 1-1.192-.871"/><path fill="#5d4a3e" d="M5.019 12.254q.12-.04.084.082q-.122.04-.084-.082"/><path fill="#5b4a40" d="M8.135 12.255q.12-.042.086.08q-.12.043-.086-.08"/><path fill="#b1b1b1" d="m22.661 12.462l.042-.121l.007.1Zm4.086 3.32l.115-.02l-.02.045Zm.928 4.474l.046-.027l.058.025l.009.051Z"/><path fill="#d6cfcc" d="m9.895 12.549l.028.016Z"/><path fill="#bab9b7" d="m22.6 12.631l.052-.115l.027.046l-.027.058Z"/><path fill="#d2d1d1" d="m9.958 12.584l.029.015Z"/><path fill="#d2d1cf" d="m20.492 12.638l.009-.029Zm-2.892.768l.019.011Z"/><path fill="#bbb8b7" d="M18.917 12.687q.049-.135.095 0Z" opacity=".82"/><path fill="#b6b2af" d="M18.393 12.751q.05-.142.166-.037a.2.2 0 0 1-.166.037m6.749 6.589l.043-.031l.059.021l.012.051Z"/><path fill="#c2bebd" d="m19.315 12.7l.044-.029l.058.023l.011.051Z"/><path fill="#c3bebb" d="M18.1 12.81q.056-.141.171-.039a.23.23 0 0 1-.171.039"/><path fill="#c0bbb8" d="m17.944 12.813l.1.007l-.12.043Z"/><path fill="#c1bdba" d="m17.771 12.87l.1.006l-.119.044Z"/><path fill="#dad9d7" d="m10.645 12.954l.028.016Z"/><path fill="#a3a2a1" d="m17.6 12.927l.059-.023l.044.028l-.115.046Z" opacity=".87"/><path fill="#d5d5d3" d="m10.707 12.989l.029.015Z"/><path fill="#bcb8b7" d="m20.315 12.989l.051-.009l-.053.11l-.025-.046Z"/><path fill="#5d4b3f" d="M6.24 13.043q.12-.042.086.08q-.119.043-.086-.08"/><path fill="#a9abaa" d="m17.3 13.078l.079-.051l.032.037Z"/><path fill="#cecfd3" d="m20.094 13.05l.017.013Z"/><path fill="#e5e4e2" d="m5.719 13.118l.018.013Z"/><path fill="#adacaa" d="m22.36 13.23l.048-.12l.028.044Z"/><path fill="#dad6d3" d="m22.325 13.326l.016-.04Z"/><path fill="#46372d" d="M6.634 13.335c.094-.03.126 0 .1.1q-.145.04-.1-.1"/><path fill="#d3d2d0" d="m11.379 13.344l.02.011Zm.538.303l.033.018Z"/><path fill="#d8d5d1" d="m6.113 13.385l.072.052c-.077.063-.101.041-.072-.052" opacity=".92"/><path fill="#2f1e18" d="M21.46 13.881a1.8 1.8 0 0 1 .215-.5c-.04.178-.05.389-.215.5m-2.772 1.248c.078-.065.162.073.082.123s-.159-.073-.082-.123m-2.011.571c.057-.085.2.009.137.093s-.206-.009-.137-.093m-5.605 1.795a1.84 1.84 0 0 1 1.048-.145c.31.117.61.262.932.348a3 3 0 0 1-.819-.084c-.115.1-.209.221-.327.317q.052-.29.091-.583c-.307.082-.607.186-.908.29zm-2.128.397l.156.008l-.047.1l-.1.048c-.004-.037-.007-.116-.009-.156"/><path fill="#d5d0cc" d="m22.288 13.414l.017-.039Z"/><path fill="#50423a" d="m6.977 13.561l.187.029a.27.27 0 0 0-.158.158c-.006-.048-.023-.14-.029-.187m9.608 2.96l.4-.089l-.148.175c1.3.407 2.534.98 3.813 1.438q.549.194 1.086.419a10 10 0 0 0 1.014.286c.2.21.506.213.767.3c.425.134.827.328 1.242.488c.489.2 1 .325 1.494.524c.7.268 1.391.577 2.112.8l-.052.175a.7.7 0 0 0-.662-.285c-.245-.172-.573-.117-.815-.295c-.317-.167-.673-.428-1.046-.3v-.145c-.2-.032-.41-.061-.615-.089l.037-.151a.98.98 0 0 1-.7-.234c-.172-.017-.371.018-.509-.109a1.06 1.06 0 0 0-.471-.232a10 10 0 0 0-1.013-.329a4 4 0 0 1-.731-.264a1.8 1.8 0 0 1-.524-.168c-.113-.063-.194-.172-.312-.226a2 2 0 0 0-.305.029a1.5 1.5 0 0 0-.224-.2a1 1 0 0 0-.3.019a.9.9 0 0 0-.332-.3l-.216.123l-.018-.159a1.03 1.03 0 0 1-.641-.249c-.114-.123-.28-.063-.421-.04a3 3 0 0 1-.857-.461l-.2.1v-.181a2 2 0 0 1-.541-.049a1.7 1.7 0 0 1-.312-.321"/><path fill="#d2d4d3" d="m17.892 13.58l.019.011Z"/><path fill="#26201d" d="M21.643 13.866a2.2 2.2 0 0 1 .808-.241l.219-.036a2.4 2.4 0 0 1 .134.35l.033.144l.008.044l.088.013a.56.56 0 0 1 .369.127l.115.042l.047.007l.115.044a.2.2 0 0 1 .185.078l.114.048l.037.017a1.3 1.3 0 0 0 .239.108l.04.017a1 1 0 0 0 .242.081a.5.5 0 0 1 .195.073l.112.049l.036.02a.54.54 0 0 0 .232.091a.4.4 0 0 1 .189.071l.115.041a.18.18 0 0 1 .171.073l.113.043a.7.7 0 0 1 .264.084l.026.014l.038.025l.119.043a.9.9 0 0 1 .279.091l.028.015l.042.027l.124.042l.057.017l.12.044l.049.024l.116.017v.147l-.115.02l-.046.02l-.117.046l-.052.013l-.118.044l-.05.015l-.121.032a2 2 0 0 1-.284.086q.058-.142.111-.287q-.15-.076-.3-.149a4 4 0 0 0 .513-.009c-.118-.032-.2-.127-.321-.149a13 13 0 0 1-1.849-.681a4 4 0 0 0-1.07-.368l.03.16a1.64 1.64 0 0 0-1.264.161a3.5 3.5 0 0 1-1.013.257c.244.059.484.134.73.186s.5-.016.7.139l-.179.04c-.11.02-.22.034-.33.055q-.01-.127-.1-.014l-.115.012a.18.18 0 0 0-.159.046a2.5 2.5 0 0 1-.373.162l-.021.009c-.256.1-.5.243-.75.351l-.035.016l-.051.027l-.045.018l-.059.022l-.045.016l-.058.018a.6.6 0 0 0-.242.114a1.3 1.3 0 0 1-.32.172l-.029.009l-.047.009l-.121.047l-.058.016l-.12.044l-.054.015l-.119.043l-.118.013a.2.2 0 0 0-.166.034l-.16.038a2.6 2.6 0 0 1-.915-.156c-.237-.087-.477-.247-.74-.167c-.717.17-1.361.549-2.061.77c-.292.089-.6.137-.888.227l-.123.034a3 3 0 0 1-.328-.316a2.4 2.4 0 0 0-.805.2c.175.093.349.19.529.276a3.6 3.6 0 0 1-.894-.272a3.7 3.7 0 0 0 .61-.331c.287.1.56-.07.83-.146a75 75 0 0 1 1.676-.49c0-.044-.006-.087-.01-.13a.74.74 0 0 0 .383.028a5.4 5.4 0 0 1 1.024-.214a1.2 1.2 0 0 1-.413.19c-.834.2-1.577.675-2.417.86c-.117.037-.277.047-.322.183a1.6 1.6 0 0 0 .449-.05c.789-.194 1.507-.588 2.274-.846a1.4 1.4 0 0 1 .553-.1c.24.022.468.117.709.133a2.1 2.1 0 0 0 .577-.07l-.173.254a1.6 1.6 0 0 0 .656-.024a6.3 6.3 0 0 0 1.564-.682l-.32-.087q.4-.138.806-.254v-.437l-.313-.006a4 4 0 0 1 .607-.237c.607-.175 1.189-.424 1.782-.642v-.349c-.337.023-.674.084-1.015.089"/><path fill="#d7d4d2" d="m12 13.69l.042.021Z"/><path fill="#23160e" d="M19.553 14.315c.085-.242.145-.543.394-.67a.95.95 0 0 1-.394.67m.847-.138a3 3 0 0 1 .951-.269a.19.19 0 0 1-.144.152a2.8 2.8 0 0 1-.807.117m-7.056 1.074a.38.38 0 0 1 .272.07a10 10 0 0 1-.951.173a9 9 0 0 1-.991.136c.043-.141.2-.142.321-.166c.451-.064.898-.151 1.349-.213"/><path fill="#dfdbd8" d="m12.087 13.736l.034.017Z"/><path fill="#e3dfde" d="m18.293 13.812l.021.01Z"/><path fill="#24110b" d="M19.887 14.265a.75.75 0 0 1 .345-.49c-.051.196-.113.444-.345.49m-9.016 1.606c.1-.252.438-.226.663-.287a1.34 1.34 0 0 1-.663.287m1.415.472c.1-.082.193-.163.294-.241a5 5 0 0 1-.149.489a2.2 2.2 0 0 0-.641.3v-.148l-.15-.043a.9.9 0 0 1 .194-.355a1 1 0 0 1 .42-.206l.032.209m-.541.28a.66.66 0 0 0 .423-.352c-.174.065-.379.141-.423.347Zm-2.228 1.097c.077-.065.162.072.084.124s-.161-.072-.084-.124"/><path fill="#311f13" d="M7.391 13.855c.057-.082.208.006.14.092s-.208-.007-.14-.092"/><path fill="#dfdcdd" d="m18.541 13.92l.031.01Z"/><path fill="#635146" d="M11.365 14.025c.093-.029.126 0 .1.1q-.146.041-.1-.1"/><path fill="#d4d5d7" d="m12.7 14.09l.022.014Z"/><path fill="#bfbfbe" d="m22.837 14.083l.1.008v.048l-.088-.013Z"/><path fill="#332316" d="M7.795 14.144c.056-.083.207.006.139.092s-.208-.006-.139-.092"/><path fill="#ddd9d8" d="m12.991 14.273l.019.014Z"/><path fill="#9b9795" d="m23.3 14.267l.043-.03l.059.021l.013.051Z"/><path fill="#c0bcb9" d="m23.465 14.316l.044-.029l.059.022l.012.051Z"/><path fill="#cfcbc6" d="m7.494 14.353l.1.065l-.048.021l-.052-.033Z"/><path fill="#b4b6b5" d="M18.4 14.427c0-.1.177-.119.217-.035a.5.5 0 0 1-.217.035"/><path fill="#46322c" d="M8.2 14.432c.057-.083.207.007.139.092s-.208-.007-.139-.092"/><path fill="#b2b2b3" d="M18.107 14.481q.054-.14.17-.038a.22.22 0 0 1-.17.038"/><path fill="#ab9e92" d="M23.039 14.4a4 4 0 0 1 1.07.368a13 13 0 0 0 1.849.681c.12.021.2.117.321.149a4 4 0 0 1-.513.009c-.328-.111-.641-.257-.966-.374a11.4 11.4 0 0 1-1.732-.673zm-11.294 2.223c.044-.207.249-.282.423-.352a.66.66 0 0 1-.423.352"/><path fill="#a6a6a4" d="m23.764 14.439l.044-.028l.058.024l.012.052Z"/><path fill="#b0afad" d="M17.82 14.539q.053-.141.168-.038a.21.21 0 0 1-.168.038m-.639 4.495l.118.045l-.1.005Z"/><path fill="#cfbba9" d="M21.8 14.717a1.64 1.64 0 0 1 1.264-.161a11.4 11.4 0 0 0 1.732.673c.325.117.638.264.966.374c.1.047.2.1.3.149a7 7 0 0 1-.111.287c-.037.078-.151.067-.218.109q.078-.114.163-.223h-.247l.055.277l.01.047l-.13-.081v-.075c0-.025 0-.076-.006-.1c-.122.06-.246.17-.39.12c-.31-.079-.607-.2-.914-.292a8 8 0 0 1-1.061-.328q-.063.053-.125.108a1.24 1.24 0 0 0-.867-.3c-.2-.155-.467-.091-.7-.139s-.486-.126-.73-.186a3.5 3.5 0 0 0 1.013-.257m1.9.232q-.045.141.1.1c.03-.094 0-.126-.1-.1m1.1.4q-.045.141.1.1c.026-.096-.004-.128-.104-.097Z"/><path fill="#54443a" d="M12.287 14.545c.094-.029.126 0 .1.1q-.147.04-.1-.1"/><path fill="#a4a3a1" d="m17.6 14.542l.1.007l-.118.043Z"/><path fill="#26201c" d="M8.009 14.584a6 6 0 0 0 .649.4c.245.134.537.014.79.122l-.181.148a2 2 0 0 0 .8.562a1.1 1.1 0 0 0 .344-.013a3.2 3.2 0 0 0-.556-.471a4 4 0 0 1 .877.438c-.4.118-.648.472-1.009.656c-.253.147-.487.322-.743.463l.036-.046l.057-.072l.014-.017a1 1 0 0 1 .313-.25a.2.2 0 0 0 .124-.1a.8.8 0 0 1 .171-.159l.019-.013c.073-.076.24-.1.239-.222c-.079-.049-.162-.091-.241-.14l-.024-.015l-.031-.021a1.1 1.1 0 0 0-.3-.162l-.113-.054c-.145-.1-.288-.2-.438-.285a4 4 0 0 1-.189-.126L8.6 15.2q-.109-.081-.215-.164l-.017-.013c-.092-.072-.186-.141-.271-.222l-.012-.014l-.036-.078Z"/><path fill="#b1adac" d="m17.307 14.6l.1.006l-.117.044Z"/><path fill="#b6b6b6" d="M17.01 14.711q.055-.139.169-.036a.21.21 0 0 1-.169.036"/><path fill="#4a392e" d="M8.653 14.718c.093-.03.126 0 .1.1q-.147.04-.1-.1"/><path fill="#c6c5c3" d="M16.717 14.772q.056-.14.172-.04a.23.23 0 0 1-.172.04"/><path fill="#443427" d="M19.959 14.718c.093-.03.126 0 .1.1q-.146.04-.1-.1"/><path fill="#dbd8d3" d="m8.088 14.784l.012.016Z"/><path fill="#cacac8" d="m13.88 14.8l.029.019Z"/><path fill="#a5a4a2" d="M16.493 14.827q.052-.14.171-.041a.23.23 0 0 1-.171.041"/><path fill="#a9a8a5" d="m24.631 14.784l.044-.028l.058.025l.011.052Z"/><path fill="#cecdca" d="m13.952 14.842l.036.023Z"/><path fill="#a2a2a2" d="M16.207 14.884q.053-.14.167-.036a.2.2 0 0 1-.167.036m10.672 5.094l.043-.031l.059.021l.014.051Z"/><path fill="#46382b" d="M19.555 14.834c.093-.03.126 0 .1.1q-.146.04-.1-.1"/><path fill="#a7a7a7" d="m15.924 14.888l.1.007l-.117.043Zm13.826 6.126l.044-.028l.055.025l.006.057Z"/><path fill="#b4b5ad" d="M15.566 15q.053-.141.167-.038a.2.2 0 0 1-.167.038"/><path fill="#44301f" d="M23.709 14.95q.14-.048.1.1q-.145.041-.1-.1"/><path fill="#dfdbdc" d="m8.371 15.02l.017.013Z"/><path fill="#c8c5c6" d="m14.348 15.022l.106-.014l.019.049Z"/><path fill="#b7b7b9" d="M15.283 15.059q.052-.141.168-.039a.21.21 0 0 1-.168.039"/><path fill="#423226" d="M19.094 15.007c.093-.03.126 0 .1.1q-.145.041-.1-.1"/><path fill="#a4a5a2" d="m25.2 15.014l.043-.031l.057.017l.013.051Z"/><path fill="#b0aeaf" d="M14.526 15.074c.052-.072.221-.058.231.041a.44.44 0 0 1-.231-.041"/><path fill="#c2c0c1" d="M14.816 15.115c.021-.11.219-.107.282-.031a.8.8 0 0 1-.282.031"/><path fill="#ac2822" d="M9.448 15.111c.14.069.276.147.412.225a3.2 3.2 0 0 1 .556.471a1.1 1.1 0 0 1-.344.013a2 2 0 0 1-.8-.562Z"/><path fill="#a0a19c" d="m25.488 15.129l.043-.03l.058.022l.012.051Z"/><path fill="#dbd7d4" d="m8.6 15.2l.018.013Z"/><path fill="#c7c4bf" d="m25.865 15.256l.026.014Z"/><path fill="#756c6c" d="M22.221 15.3a1.24 1.24 0 0 1 .867.3v.053a5.6 5.6 0 0 0-1.106-.3l.062-.016ZM7.8 18.54c.271-.187.628-.078.935-.071l.1.168q-.029.39-.044.782l-.044-.246a1.3 1.3 0 0 1-.442.385a2.5 2.5 0 0 1-.76.119A2.1 2.1 0 0 1 7.8 18.54"/><path fill="#bcb9b4" d="m25.929 15.3l.106-.007l.013.05Z"/><path fill="#bebab9" d="M21.616 15.381q.084-.114.1.014Z"/><path fill="#6c5b4a" d="M24.8 15.354q.14-.048.1.1q-.14.04-.1-.1"/><path fill="#433125" d="M17.767 15.411q.14-.045.1.1q-.146.035-.1-.1"/><path fill="#7e7c7e" d="M21.342 15.439a.18.18 0 0 1 .159-.046q-.042.145-.159.046" opacity=".81"/><path fill="#c9c8c6" d="m26.327 15.429l.028.015Z"/><path fill="#726054" d="M18.366 15.462h.352c-.055.07-.085.209-.2.159c-.1.011-.118-.094-.152-.159"/><path fill="#25221d" d="M23.088 15.6q.062-.056.125-.108a8 8 0 0 0 1.061.328c.307.089.6.213.914.292c.144.05.268-.06.39-.12c0 .025 0 .076.006.1c-.072.049-.136.13-.231.123h-.377l-.125-.022a.22.22 0 0 0-.17-.04l-.051-.007l-.117-.043a.4.4 0 0 1-.288-.087a.6.6 0 0 0-.234-.1l-.049-.015l-.122-.028a.26.26 0 0 1-.246-.081l-.115-.043l-.05-.01l-.118-.044l-.05-.018l-.115-.035l-.042.016Z"/><path fill="#b2b2b2" d="m26.578 15.529l.106-.006l.014.05ZM6.22 19.244c-.111.008-.108-.256 0-.245a2 2 0 0 1 0 .245"/><path fill="#4e2e26" d="M13.444 15.944a2 2 0 0 0 .411-.374c0 .057.01.113.015.17q.13-.059.262-.113a.6.6 0 0 1-.131.4l-.114-.114c-.215.144-.459.232-.677.368l-.41.3a.6.6 0 0 1-.012-.445a1.17 1.17 0 0 1 .679-.508c-.009.1-.016.206-.023.309m-.178-.127c-.1-.035-.181.134-.067.166s.182-.128.067-.16Z"/><path fill="#d0cbcf" d="m20.947 15.609l.021-.009Z"/><path fill="#b4b4b4" d="m26.747 15.6l.095-.028l.021.044Z" opacity=".98"/><path fill="#bbb6b1" d="m23.128 15.634l.115.035l-.1.013Z"/><path fill="#28150e" d="M11.539 15.688c.087-.024.187.055.124.142a3.4 3.4 0 0 1-.539 1.131a2.6 2.6 0 0 1-1.224.569a5 5 0 0 1-1.448.162c.244-.283.652-.219.985-.28a.85.85 0 0 1-.1-.722c.207.152.309.441.581.494a1.2 1.2 0 0 0 1.172-.489a6.5 6.5 0 0 0 .449-1.007"/><path fill="#9e211b" d="M18.049 16.242a14 14 0 0 0 1.728-.538l.32.087a6.3 6.3 0 0 1-1.564.682a1.6 1.6 0 0 1-.656.024q.087-.127.172-.255"/><path fill="#a9a7a2" d="m23.293 15.688l.118.044l-.044.028l-.059-.022Z"/><path fill="#9f9d98" d="m23.46 15.742l.115.043l-.043.029l-.059-.022Z"/><path fill="#96706a" d="M13.266 15.816c.115.032.032.2-.067.166s-.032-.201.067-.166"/><path fill="#b3b3b3" d="m26.581 15.849l.119-.049l-.013.05Z"/><path fill="#cfcfcd" d="m9.694 15.856l.024.015Z"/><path fill="#9b9a9a" d="m23.821 15.866l.122.028l-.041.035l-.062-.014Z"/><path fill="#afb1b0" d="m26.41 15.906l.118-.044l-.014.05Z"/><path fill="#3a291f" d="M15.691 15.93q.14-.048.1.1q-.147.04-.1-.1"/><path fill="#cfcfcf" d="m20.162 15.975l.035-.016Z"/><path fill="#100806" d="M25.654 15.921h.247a4 4 0 0 0-.163.223l-.028.05q-.029-.134-.056-.273"/><path fill="#afafad" d="m26.239 15.953l.121-.032l-.018.05l-.061.016Z"/><path fill="#d7d8d8" d="m20.067 16.015l.045-.015Z"/><path fill="#d6dad6" d="m19.963 16.053l.045-.016Z"/><path fill="#a6a7a2" d="m24.514 16.1l.117.043l-.1.007Z"/><path fill="#b4b4b2" d="M24.681 16.146a.22.22 0 0 1 .17.04q-.116.1-.17-.04"/><path fill="#e2e0e1" d="m9.7 16.245l.019-.013Z"/><path fill="#2f261f" d="M14.71 16.218q.141-.045.1.1q-.145.04-.1-.1"/><path fill="#b6b7b8" d="M24.977 16.208h.377c-.04.114-.337.109-.377 0"/><path fill="#d1beb0" d="M16.7 16.3c.262-.08.5.081.74.167a2.6 2.6 0 0 0 .915.156a3 3 0 0 0-.326.084c.175.009.33.1.5.121a5 5 0 0 0-.337.036c.468.245.977.4 1.455.623c.641.3 1.327.477 1.986.726a5.7 5.7 0 0 0 1.186.361l-.068.174a10 10 0 0 1-1.014-.286q-.537-.224-1.086-.419c-1.279-.459-2.516-1.031-3.813-1.438l.148-.175l-.4.089a1.7 1.7 0 0 0 .3.316a2 2 0 0 0 .541.049v.181l.2-.1a3 3 0 0 0 .857.461c.141-.024.307-.084.421.04a1.03 1.03 0 0 0 .641.249l.018.159l.216-.123a.9.9 0 0 1 .332.3a1 1 0 0 1 .3-.019a1.5 1.5 0 0 1 .224.2a2 2 0 0 1 .305-.029c.118.054.2.163.312.226a1.8 1.8 0 0 0 .524.168a4 4 0 0 0 .731.264a10 10 0 0 1 1.013.329a1.06 1.06 0 0 1 .471.232c.138.127.337.092.509.109a.98.98 0 0 0 .7.234l-.037.151q.307.041.615.089v.145c.374-.132.73.129 1.046.3c.242.178.57.122.815.295a.7.7 0 0 1 .662.285l.052-.175q.1.012.2.014l-.163.051a3.2 3.2 0 0 1 .632.043c.177.067.174.283.221.436l-.164-.026a.55.55 0 0 0-.472-.344c.036.192.072.384.091.579a.77.77 0 0 1-.318-.48l-.285.044a4 4 0 0 1-.028.622a1 1 0 0 1-.2-.456q-.17.032-.343.059a4.4 4.4 0 0 1 .035.62c-.191-.093-.216-.311-.265-.493l-.3.055c.017.166.016.333.018.5a1.1 1.1 0 0 1-.256-.362l-.231.042c-.07-.061-.138-.123-.212-.177a1 1 0 0 0-.191.168a17.4 17.4 0 0 1-2.719-.881c-1.534-.485-3.062-.985-4.6-1.463c-.606-.191-1.2-.421-1.806-.615c-.306-.1-.628-.14-.936-.233a.6.6 0 0 1 .385-.245a4.5 4.5 0 0 0-.616-.265c-.7-.255-1.388-.539-2.1-.753c.292-.089.6-.137.888-.227c.7-.221 1.343-.6 2.061-.77m-.4.419a2 2 0 0 0 .067.193a.9.9 0 0 0 .306.111c-.01-.209-.2-.275-.374-.3m.55 1.866c-.068.085.082.175.139.092s-.082-.176-.139-.092m1.789.577c-.069.085.081.175.138.092s-.082-.175-.138-.092m3.108.98q-.048.14.1.1q.044-.141-.1-.1m1.219.4c-.068.085.081.176.138.093s-.06-.174-.117-.091ZM10.84 19.049a1.8 1.8 0 0 0 .7-.7c-.049.153-.1.307-.138.461c.44-.11.868-.264 1.31-.365a1 1 0 0 1-.29.16c-.522.162-1.05.314-1.582.444"/><path fill="#d3ccc6" d="m19.314 16.366l.029-.009Z"/><path fill="#c0beb9" d="m19.146 16.422l.121-.047l-.076.074Z"/><path fill="#c1adb8" d="m18.969 16.481l.12-.044l-.015.05Z"/><path fill="#cecac5" d="m18.8 16.539l.119-.043l-.015.05Z"/><path fill="#c6beb6" d="M18.512 16.586a.2.2 0 0 1 .166-.034q-.054.142-.166.034"/><path fill="#d7d6d4" d="m9.078 16.775l.014-.017Z"/><path fill="#7b695f" d="M16.3 16.72c.177.028.363.094.374.3a.9.9 0 0 1-.306-.111a2 2 0 0 1-.068-.189"/><path fill="#26201e" d="M8.72 17.1a.8.8 0 0 1 .3-.249l-.036.046c-.247.258-.463.542-.69.816c-.307.217-.71.245-1.014.472c.161.041.32.091.483.122a4 4 0 0 0 1.078-.017l.048.287q.6-.009 1.189-.064a4.5 4.5 0 0 1-1.247.128l-.1-.168c-.307-.007-.664-.116-.935.071a2.1 2.1 0 0 0-.256 1.138a2.5 2.5 0 0 0 .76-.119a1.3 1.3 0 0 0 .442-.385l.044.246a4 4 0 0 0 .59-.044a12 12 0 0 0 1.462-.325c.531-.13 1.057-.282 1.579-.442a1 1 0 0 0 .29-.16c.293-.085.58-.192.868-.293l.05-.286l.542.2l.094-.126a8.2 8.2 0 0 0 1.67.4l-.046-.138l-.039-.155a4.5 4.5 0 0 1 .616.265a.6.6 0 0 0-.385.245c.308.093.63.133.936.233c.606.194 1.2.424 1.806.615c1.536.478 3.064.979 4.6 1.463a17.4 17.4 0 0 0 2.719.881a1.6 1.6 0 0 0 .4.009q.115-.019.231-.042a1.1 1.1 0 0 0 .256.362c0-.167 0-.334-.018-.5l.3-.055c.049.182.074.4.265.493a4.4 4.4 0 0 0-.035-.62q.17-.027.343-.059a1 1 0 0 0 .2.456a4 4 0 0 0 .028-.622l.285-.044a.77.77 0 0 0 .318.48a7 7 0 0 0-.091-.579a.55.55 0 0 1 .472.344l.164.026c-.047-.153-.044-.369-.221-.436a3.2 3.2 0 0 0-.632-.043l.163-.051l.192-.046c-.295-.152-.626-.2-.93-.327c-1.257-.513-2.565-.894-3.808-1.443a2.4 2.4 0 0 0-1.27-.306l.068-.174a5.7 5.7 0 0 1-1.186-.361c-.659-.249-1.345-.427-1.986-.726c-.478-.225-.986-.378-1.455-.623a4 4 0 0 1 .337-.036l.151.031l.114.042a.6.6 0 0 1 .407.132l.114.04a.5.5 0 0 1 .306.139l.119.048l.056.017l.039.013l.044.017l.032.013a2 2 0 0 1 .45.234l.114.047l.037.019a.5.5 0 0 0 .231.091a1.5 1.5 0 0 1 .279.08l.027.013l.038.025l.118.047a.58.58 0 0 1 .363.136l.114.04a.36.36 0 0 1 .22.089a.4.4 0 0 0 .227.089a1 1 0 0 1 .28.078l.027.014l.04.027l.122.045l.055.014l.117.045a.7.7 0 0 1 .272.086l.028.016l.042.028l.125.043l.062.021l.125.046l.055.017l.037.016l.049.025l.119.049a.7.7 0 0 1 .37.138l.115.042l.047.008l.114.046a.2.2 0 0 1 .185.077l.115.043l.047.007l.114.047a.54.54 0 0 1 .353.132l.114.042a.19.19 0 0 1 .18.076l.116.043l.05.01l.117.045l.05.008l.113.049a.6.6 0 0 1 .361.134l.115.042l.047.006l.112.05a.6.6 0 0 1 .36.133l.117.041l.049.01l.117.045l.048.012l.115.046a.19.19 0 0 1 .189.075l.115.044h.047l.112.05a.6.6 0 0 1 .359.132l.115.042l.047.006l.112.051a2.1 2.1 0 0 1 .652.249a.2.2 0 0 0 .157.054l.037.018a.27.27 0 0 0 .183.094h.035l.039.1l.051.129l.151.05v-.256l.023.039l.1.054l.152.031l-.036.185a.24.24 0 0 0-.209.032l-.051.019l-.12.046l-.055.015l-.119.044l-.052.008l-.116.044a.18.18 0 0 1-.175.077l-.117.037a2 2 0 0 1-.189.106l-.022.01a1.7 1.7 0 0 1-.366.133l-.114.042a.58.58 0 0 1-.355.132l-.114.045l-.108.012l-.117.042a.7.7 0 0 1-.2.027q-.26.002-.519-.006l-.092-.029a.2.2 0 0 0-.163-.036l-.112-.01l-.116-.042a1.1 1.1 0 0 1-.326-.08L26 21.945l-.119-.051l-.036-.018l-.045-.026l-.122-.041a.21.21 0 0 1-.19-.079l-.115-.042a.18.18 0 0 1-.171-.073l-.114-.043a.8.8 0 0 1-.264-.087l-.028-.015l-.042-.027l-.123-.042l-.059-.016l-.121-.044l-.055-.014l-.119-.044l-.053-.013l-.118-.044l-.051-.011l-.116-.044a.47.47 0 0 1-.3-.083l-.119-.035l-.05-.013l-.119-.04l-.053-.013l-.119-.044l-.053-.013l-.118-.045l-.051-.012l-.115-.046a.9.9 0 0 1-.471-.143l-.121-.03l-.05-.016l-.119-.043l-.053-.014l-.119-.044l-.051-.013l-.118-.044l-.118-.017l-.118-.044l-.052-.012l-.119-.043l-.054-.014l-.119-.043l-.06-.017l-.118-.044l-.051-.012l-.116-.043a.44.44 0 0 1-.291-.08l-.117-.036a.44.44 0 0 1-.235-.082l-.119-.035l-.051-.012l-.119-.045l-.053-.013l-.119-.044l-.054-.014l-.12-.043l-.053-.014l-.118-.045l-.051-.011l-.114-.047a1.65 1.65 0 0 1-.645-.2l-.119-.034l-.05-.013l-.117-.045l-.05-.011l-.115-.045a.9.9 0 0 1-.471-.143l-.12-.031l-.05-.014l-.118-.044l-.052-.013l-.118-.045l-.051-.01l-.115-.047a1.4 1.4 0 0 1-.632-.2a.38.38 0 0 0-.227-.082c-.085-.011-.186 0-.247-.077l-.114-.042a.19.19 0 0 1-.178-.073l-.115-.044l-.048-.007l-.115-.045a.19.19 0 0 1-.181-.075l-.116-.042l-.11-.014l-.119-.04l-.108-.034a.19.19 0 0 0-.164-.039a2 2 0 0 1-.312 0a.2.2 0 0 0-.166.04l-.048.02l-.119.042l-.113.017l-.117.039a.4.4 0 0 1-.291.078l-.115.039l-.077.09c.008-.084-.023-.1-.093-.035l-.051.021l-.12.032a1.8 1.8 0 0 1-.583.194l-.115.04a1.2 1.2 0 0 1-.314.106l-.03.006l-.118.02a1 1 0 0 0-.3.1l-.044.017l-.118.048l-.056.019l-.126.029l-.052.014a1 1 0 0 0-.284.1a.57.57 0 0 1-.3.087l-.119.04h-.054a.22.22 0 0 0-.167.048l-.05.021l-.12.041l-.117.018l-.119.042l-.117.012a.2.2 0 0 0-.168.039l-.118.02a.21.21 0 0 0-.169.038l-.117.02a.2.2 0 0 0-.168.037l-.19.019a.9.9 0 0 0-.266.03a2 2 0 0 1-.236.03c-.355.02-.712.016-1.067.009l-.147-.028l-.117-.035a.7.7 0 0 1-.509-.24c-.063-.067-.143-.142-.125-.245a2 2 0 0 0 0-.245c0-.035 0-.1-.006-.139l.053-.011l.077-.089c.066-.192.263-.312.412-.441l.022-.016l.144-.1l.027-.018l.147-.094l.023-.015a2.8 2.8 0 0 1 .605-.3l.111-.05l.115-.069l.1-.06a2 2 0 0 1 .252-.2l.018-.013a2 2 0 0 1 .267-.181a.18.18 0 0 0 .126-.1m-2.225 1.742a.36.36 0 0 0-.058.2c.124-.1.253-.2.378-.3a2.4 2.4 0 0 0-.3.674a1.53 1.53 0 0 0 .8.126c.082-.016.082-.122.121-.182a2.1 2.1 0 0 0 .192-.789c0-.258-.354-.23-.493-.095a1.2 1.2 0 0 0 .111-.236a1.64 1.64 0 0 0-.751.602"/><path fill="#c0bdbc" d="m18.679 16.86l.043-.031l.058.021l.013.051Z"/><path fill="#ba261b" d="M12.492 17.219a2.4 2.4 0 0 1 .805-.2a3 3 0 0 0 .328.316c.264.255.654.234.981.348a8.3 8.3 0 0 1 1.281.527q.021.069.046.138a8.2 8.2 0 0 1-1.67-.4a10 10 0 0 1-1.243-.445z"/><path fill="#acacaa" d="m19.2 17.034l.042-.034l.059.021l.013.051Z" opacity=".92"/><path fill="#b1b0b1" d="m19.619 17.213l.044-.028l.076.076Z"/><path fill="#d5d4d2" d="m19.795 17.279l.039.013Z"/><path fill="#451806" d="m13.625 17.332l.123-.034c.712.214 1.4.5 2.1.753l.039.155a8.3 8.3 0 0 0-1.281-.527c-.327-.113-.717-.092-.981-.347"/><path fill="#cecdcb" d="m19.878 17.309l.032.013Z"/><path fill="#d4d0cf" d="m8.309 17.392l.018-.013Z"/><path fill="#3f2d25" d="m10.036 17.542l.16-.006v.17h-.173a2 2 0 0 0 .013-.164"/><path fill="#a9a9a9" d="m20.36 17.556l.044-.029l.058.024l.012.052Z"/><path fill="#5c1005" d="M11.906 17.932c.118-.1.212-.217.327-.317a3 3 0 0 0 .819.084a3.3 3.3 0 0 1 .576.169l-.05.286c-.288.1-.575.208-.868.293c-.442.1-.87.255-1.31.365q.065-.233.138-.461c-.122-.053-.245-.108-.37-.153a3.7 3.7 0 0 0 .738-.266"/><path fill="#979f9f" d="m7.736 17.723l.057-.025l.044.028l-.111.05Z" opacity=".82"/><path fill="#b5b4b2" d="M21.085 17.831h.106l.012.05Z"/><path fill="#aaaaa8" d="m21.566 18.013l.043-.031l.059.021l.013.051Z"/><path fill="#e4e0e1" d="m7.1 18.094l.023-.015Z"/><path fill="#c4cbc4" d="m6.925 18.206l.027-.018Z"/><path fill="#b01912" d="m10.941 18.229l.227-.033c.125.046.247.1.37.153a1.8 1.8 0 0 1-.7.7a12 12 0 0 1-1.462.325a4 4 0 0 1-.59.044q.014-.391.044-.782a4.5 4.5 0 0 0 1.247-.128q.441-.098.888-.171z"/><path fill="#abaeae" d="M14.061 18.207a.2.2 0 0 1 .166-.04q-.05.14-.166.04"/><path fill="#c4b8b9" d="M14.538 18.166a.19.19 0 0 1 .164.039q-.117.102-.164-.039"/><path fill="#bfbebc" d="m13.894 18.268l.119-.042l-.016.05l-.06.021Z"/><path fill="#c7c3bf" d="m14.813 18.23l.119.04l-.1.009Z"/><path fill="#dfe4e0" d="m6.759 18.32l.022-.016Z"/><path fill="#724d43" d="M6.482 18.841a1.64 1.64 0 0 1 .755-.594a1.2 1.2 0 0 1-.111.236q-.163.13-.323.265c-.125.1-.254.2-.378.3a.36.36 0 0 1 .057-.207"/><path fill="#a5a9a2" d="m13.664 18.323l.117-.039l-.015.05l-.059.02Z"/><path fill="#a89593" d="m15.042 18.285l.116.042l-.043.029l-.059-.021Z"/><path fill="#cdc9c6" d="m22.408 18.311l.027.014Z"/><path fill="#b11812" d="M7.125 18.483c.139-.136.491-.164.493.095a2.1 2.1 0 0 1-.192.789c-.038.059-.039.166-.121.182a1.53 1.53 0 0 1-.8-.126a2.4 2.4 0 0 1 .3-.674q.155-.137.32-.266"/><path fill="#aba2a4" d="m13.257 18.44l.115-.039l-.014.05Z"/><path fill="#bbb3b0" d="m15.339 18.4l.115.045l-.044.028l-.059-.022Z"/><path fill="#bab6b4" d="m22.651 18.411l.1-.005l.012.05Z"/><path fill="#b4b4b0" d="M13.087 18.5q.104-.091.093.035Z"/><path fill="#a49799" d="m15.5 18.454l.115.044l-.043.029l-.059-.022Z"/><path fill="#bfbdb9" d="m12.915 18.548l.12-.032l-.018.05l-.062.016Z"/><path fill="#ccc" d="m23.039 18.542l.028.016Z"/><path fill="#aaa7ac" d="m15.795 18.571l.114.042l-.043.031l-.059-.021Z"/><path fill="#423126" d="M16.851 18.585c.057-.084.207.006.139.092s-.207-.007-.139-.092"/><path fill="#bababa" d="m23.109 18.585l.108-.006l.017.049Z"/><path fill="#bebcb8" d="m23.3 18.649l.045-.027l.08.072Z" opacity=".92"/><path fill="#cfcec9" d="m23.476 18.711l.037.016Z"/><path fill="#c4c4c4" d="m12.218 18.782l.115-.04l-.013.051l-.059.02Z"/><path fill="#bcb2ac" d="M22.75 18.75a2.4 2.4 0 0 1 1.27.306c1.243.549 2.551.929 3.808 1.443c.3.127.636.175.93.327l-.192.046q-.103-.001-.2-.014c-.72-.219-1.409-.528-2.112-.8c-.49-.2-1.005-.322-1.494-.524c-.415-.16-.817-.354-1.242-.488c-.261-.082-.566-.086-.768-.296m-12.609.668a.22.22 0 0 1 .167-.048q-.049.144-.167.048m19.383 1.635l.2-.078v.256l-.151-.05Z"/><path fill="#c3c0bb" d="M23.562 18.752h.107l.012.05Z"/><path fill="#cdc5c3" d="m11.874 18.895l.03-.006Z"/><path fill="#b3b1af" d="m24.051 18.939l.043-.031l.059.021l.013.051Z"/><path fill="#a39f9c" d="m17.015 18.977l.115.047l-.045.028l-.058-.024Z"/><path fill="#c4c2be" d="m24.214 18.988l.045-.028l.058.023l.011.051Z"/><path fill="#9ca5a4" d="m11.3 19.077l.118-.048l-.013.051l-.06.024Z"/><path fill="#a2a2a1" d="m11.115 19.124l.126-.029l-.021.048Z"/><path fill="#b0aeae" d="m17.351 19.093l.118.044l-.1.006Z"/><path fill="#aba7a4" d="m24.513 19.111l.043-.03l.059.022l.013.051Z"/><path fill="#bfbdbb" d="m17.519 19.151l.12.031l-.04.034l-.062-.016Z"/><path fill="#46362c" d="M18.64 19.162c.057-.083.207.007.138.092s-.207-.007-.138-.092"/><path fill="#b9b8b6" d="m24.675 19.161l.045-.028l.058.024l.011.051Z"/><path fill="#a6a3a3" d="m10.362 19.366l.119-.04l-.015.05l-.06.02Z"/><path fill="#a49f9e" d="m18.11 19.325l.115.045l-.044.028l-.059-.022Z"/><path fill="#b6b5b3" d="m18.276 19.381l.117.045l-.044.028l-.059-.022Z"/><path fill="#c0b7b8" d="m9.971 19.48l.12-.041l-.016.05Z"/><path fill="#bdbab9" d="m18.443 19.439l.119.034l-.042.033l-.061-.017Z"/><path fill="#a09c99" d="m25.436 19.457l.043-.029l.059.022l.013.051Z"/><path fill="#acb9b8" d="m9.735 19.539l.119-.042l-.015.05Z"/><path fill="#a6a6a6" d="m25.6 19.511l.044-.028l.059.022l.013.051Zm1.913.696l.043-.029l.059.022l.013.051Z"/><path fill="#aaa" d="M9.451 19.59a.2.2 0 0 1 .168-.039q-.052.14-.168.039m-2.596.14l.117.035l-.042.035l-.06-.018Z"/><path fill="#babab8" d="m25.769 19.564l.046-.027l.058.025l.01.051Z"/><path fill="#a0a0a0" d="M9.163 19.648a.21.21 0 0 1 .169-.038c-.032.09-.092.106-.169.038"/><path fill="#adadad" d="M8.878 19.7a.2.2 0 0 1 .168-.037q-.055.147-.168.037"/><path fill="#9e9c9d" d="m19.207 19.668l.114.047l-.044.028l-.059-.024Z"/><path fill="#a7a2a0" d="m19.372 19.726l.118.045l-.1.006Zm1.448.464l.116.043l-.044.029l-.059-.022Z"/><path fill="#acaba9" d="m26.244 19.747l.043-.031l.059.021l.013.051Z"/><path fill="#bab5b2" d="m19.543 19.785l.12.043l-.1.007Z"/><path fill="#b2b1af" d="m26.406 19.8l.046-.027l.057.025l.01.051Z"/><path fill="#beb9b5" d="m19.716 19.843l.119.044l-.1.006Z"/><path fill="#bab6b3" d="m19.889 19.9l.119.045l-.1.006Z"/><path fill="#b6b6b6" d="m20.058 19.957l.119.035l-.041.032l-.061-.018Z" opacity=".92"/><path fill="#b5b3b4" d="m27.044 20.03l.045-.03l.059.022l.013.051Z"/><path fill="#cac8c8" d="m20.413 20.074l.117.036l-.042.032l-.059-.018Z" opacity=".98"/><path fill="#989797" d="m27.209 20.086l.044-.028l.059.023l.012.051Z" opacity=".82"/><path fill="#53433b" d="M21.748 20.141q.14-.045.1.1q-.147.04-.1-.1"/><path fill="#b3afb0" d="m20.987 20.246l.118.044l-.105.01Z"/><path fill="#b6b5b6" d="m21.159 20.3l.119.043l-.1.007Z"/><path fill="#babab9" d="m21.332 20.362l.119.043l-.1.007Z"/><path fill="#c5c2c0" d="m21.5 20.417l.118.044l-.1.007Z" opacity=".98"/><path fill="#acacac" d="m28.147 20.438l.043-.03l.059.021l.013.051Z"/><path fill="#9e9e9e" d="m21.739 20.478l.118.044l-.1.006Z"/><path fill="#b4b3b3" d="m28.309 20.486l.046-.026l.057.026l.009.051Z" opacity=".92"/><path fill="#a1a4a5" d="m21.909 20.535l.119.044l-.1.006Z"/><path fill="#4e3831" d="M22.966 20.546c.057-.084.207.007.138.093s-.204-.007-.138-.093"/><path fill="#b1b1b0" d="m22.081 20.593l.119.043l-.1.007Z"/><path fill="#c5c3bf" d="m22.249 20.651l.121.03l-.04.035l-.062-.016Z"/><path fill="#8f8e8d" d="M29.072 20.786q.12-.1.157.054a.2.2 0 0 1-.157-.054" opacity=".84"/><path fill="#aba7a7" d="m22.841 20.824l.115.046l-.045.028l-.059-.023Z"/><path fill="#b8b6b7" d="m23.007 20.881l.118.045l-.1.005Z"/><path fill="#c4c1c0" d="m23.178 20.939l.119.044l-.1.006Z"/><path fill="#c6c1bf" d="m23.351 21l.118.044l-.1.006Z" opacity=".98"/><path fill="#d1ccc9" d="m23.518 21.053l.119.035l-.041.032l-.061-.018Z"/><path fill="#9d9894" d="m23.937 21.172l.116.044l-.044.029l-.059-.022Z"/><path fill="#a59f9b" d="m24.1 21.227l.118.044l-.1.006Z"/><path fill="#aaa39d" d="m24.275 21.284l.119.044l-.1.006Z"/><path fill="#a1a1a1" d="M29.754 21.321a.24.24 0 0 1 .209-.032c.002.096-.163.103-.209.032" opacity=".96"/><path fill="#b6aca5" d="m24.449 21.342l.121.044l-.106.005Z"/><path fill="#b8b8b8" d="m29.584 21.385l.12-.046l-.014.05Z"/><path fill="#999" d="m24.629 21.4l.123.042l-.107.007Z" opacity=".87"/><path fill="#bcbcbc" d="m29.409 21.444l.119-.044l-.015.05Z"/><path fill="#cbc6c1" d="m24.794 21.471l.028.015Z"/><path fill="#989695" d="m29.241 21.5l.116-.044l-.013.051l-.059.022Z" opacity=".82"/><path fill="#c3beba" d="m25.086 21.573l.114.043l-.043.03l-.058-.022Z"/><path fill="#8b7d77" d="M26.139 21.754a1 1 0 0 1 .191-.168c.074.054.142.117.212.177a1.6 1.6 0 0 1-.403-.009"/><path fill="#b5b1ae" d="m28.949 21.611l.117-.037l-.015.05l-.059.019Z"/><path fill="#b9b5b0" d="m25.371 21.688l.115.042l-.043.03l-.059-.021Z"/><path fill="#e4e3e1" d="m28.738 21.727l.022-.01Z"/><path fill="#bbbbb9" d="m25.676 21.809l.122.041l-.107.008Z" opacity=".98"/><path fill="#c9c9c7" d="m25.845 21.876l.036.018Z"/><path fill="#acb3b4" d="m28.258 21.9l.114-.042l-.013.051l-.058.021Z"/><path fill="#c4c2c3" d="m26 21.945l.032.012Z"/><path fill="#bebdbb" d="m26.358 22.036l.116.042l-.043.03l-.059-.021Z"/><path fill="#c4c4c5" d="m27.789 22.079l.114-.045l-.012.051l-.058.023Z"/><path fill="#9a9a98" d="M26.587 22.088a.2.2 0 0 1 .163.036q-.114.107-.163-.036"/><path fill="#c3c3c1" d="m27.565 22.133l.117-.042l-.013.051l-.059.021Z"/><path fill="#c4c2c0" d="M26.841 22.154q.26.006.519.006a.58.58 0 0 1-.519-.006"/></svg>