<svg xmlns="http://www.w3.org/2000/svg" xmlns:xlink="http://www.w3.org/1999/xlink" width="32" height="32" viewBox="0 0 32 32"><defs><linearGradient id="vscodeIconsFileTypeStylable0" x1="-1947.843" x2="-1947.706" y1="-2006.674" y2="-2005.516" gradientTransform="matrix(12.867 0 0 21.023 25072.473 42188.473)" gradientUnits="userSpaceOnUse"><stop offset="0" stop-color="#7ad852"/><stop offset=".536" stop-color="#3ab38b"/><stop offset="1" stop-color="#00bfc9"/></linearGradient><linearGradient id="vscodeIconsFileTypeStylable1" x1="-1958.897" x2="-1959.478" y1="-1999.713" y2="-1998.526" gradientTransform="matrix(12.805 0 0 21.012 25107.678 42025.3)" gradientUnits="userSpaceOnUse"><stop offset="0" stop-color="#ff2953"/><stop offset="1" stop-color="#ea3333"/></linearGradient></defs><path fill="url(#vscodeIconsFileTypeStylable0)" d="M10.944 2.5c-2.4 1-7.893 5.995-7.893 9.991c0 4.1 5.5 8.992 7.893 9.991a7.123 7.123 0 0 0 2.3.5a2.909 2.909 0 0 0 2.2-1.2a3.03 3.03 0 0 0-.5-4.5c-1.9-1.3-3.4-2.5-3.5-4.8c0-2.3 1.6-3.9 3.5-5.2a2.673 2.673 0 0 0 .7-4.2a3.011 3.011 0 0 0-2.4-1.1a7.123 7.123 0 0 0-2.3.518Z"/><path fill="#005892" d="M15.44 21.882a2.97 2.97 0 0 0-.5-4.5c-2.3-1.5-3.5-3-3.5-4.9a5.608 5.608 0 0 1 1.8-3.9c-5.3 5.695-5.995 11.989-.9 14.287a2.745 2.745 0 0 0 3.1-.987Z"/><path fill="#00418e" d="M13.042 19.784a2.325 2.325 0 0 0-.3-3.1a4.774 4.774 0 0 1-1.7-4a4.259 4.259 0 0 1 1.1-2.7c-3.4 3.9-4.4 8.992-1.1 10.591a1.924 1.924 0 0 0 2-.791Z"/><path fill="#002355" d="M11.543 18.285a1.537 1.537 0 0 0-.2-2a3.332 3.332 0 0 1-1.1-2.6c0-.9.3-1.8-.2-.7s-1.9 4.7.2 5.695a1.133 1.133 0 0 0 1.3-.395Z"/><path fill="url(#vscodeIconsFileTypeStylable1)" d="M18.758 30a3.15 3.15 0 0 1-2.4-1.1a2.673 2.673 0 0 1 .7-4.2c1.9-1.3 3.4-2.9 3.5-5.2c0-2.3-1.6-3.8-3.5-5.2a2.9 2.9 0 0 1-.7-4.3a3.15 3.15 0 0 1 2.4-1.1a6.553 6.553 0 0 1 2.3.5c2.4 1 7.793 5.895 7.893 9.991c0 3.9-5.5 8.992-7.893 9.991a5.187 5.187 0 0 1-2.3.618Z"/><path fill="#470000" d="M16.26 10.018a2.819 2.819 0 0 0 .8 4.3c2.3 1.6 3.4 3.3 3.4 5.2a5.608 5.608 0 0 1-1.8 3.9c5.5-3.9 5.995-11.989.9-14.287a3.036 3.036 0 0 0-3.3.887Z" opacity=".6"/><path fill="#670010" d="M19.258 12.016a2.224 2.224 0 0 0 .3 3.1a4.774 4.774 0 0 1 1.7 4a4.1 4.1 0 0 1-.5 2.4c2.7-3 3.6-8.792.4-10.191a1.541 1.541 0 0 0-1.9.691Z"/><path fill="#730000" d="M20.756 13.515a1.537 1.537 0 0 0 .2 2a4.312 4.312 0 0 1 1.3 2.5a4.883 4.883 0 0 1-.1 1.3c.4-.7 2.2-5.6-.1-6.294a1.377 1.377 0 0 0-1.3.494Z"/></svg>