<svg xmlns="http://www.w3.org/2000/svg" xmlns:xlink="http://www.w3.org/1999/xlink" width="32" height="32" viewBox="0 0 32 32"><path fill="#f90" d="M21.74 12.734A7.637 7.637 0 0 1 27.134 8.4a8.15 8.15 0 0 1 2.747-.129a5.828 5.828 0 0 1 .071 1.917c-.5 3.81-4.748 5.758-5.305 6c.971.562 4.273 2.624 4.631 5.995a5.706 5.706 0 0 1 .007 1.125a4.935 4.935 0 0 1-.817.228c-3.167.6-6.026-2.119-6.862-2.971a15.222 15.222 0 0 1-5.56 2.741c-5.77 1.475-10.947-.913-10.9-1.227c.015-.1.55-.014 1.715-.339a5.831 5.831 0 0 0 1.468-.595a2.463 2.463 0 0 0 1.124-1.1a1.792 1.792 0 0 0 .123-.458a7.269 7.269 0 0 1-2.9 1.265a8.863 8.863 0 0 1-1.421.124a2.524 2.524 0 0 1-.856-.076a2.412 2.412 0 0 1-.517-.221a3.607 3.607 0 0 1-.837-.635a3.4 3.4 0 0 1-.883-1.356a3.146 3.146 0 0 1-.085-1.689a8.769 8.769 0 0 1 .451-1.458a9.036 9.036 0 0 1 2.11-3.089a10.418 10.418 0 0 1 3.388-2.461a10.6 10.6 0 0 1 4.493-.924a12.616 12.616 0 0 1 5.094 1.123a15.087 15.087 0 0 1 4.127 2.544Z"/><circle cx="6.903" cy="15.055" r="1.907" fill="#099"/><path fill="#67cbca" d="M7.281 15.794a.948.948 0 0 1-.926-1.229a1.019 1.019 0 0 1 .206-.379a.3.3 0 0 1 .488.07l.03.064a.238.238 0 0 1-.041.263a.4.4 0 0 0-.088.157a.342.342 0 0 0 .03.277a.37.37 0 0 0 .366.15a.24.24 0 0 1 .244.11l.038.062a.3.3 0 0 1-.206.446a1.02 1.02 0 0 1-.141.009Z"/></svg>