<svg xmlns="http://www.w3.org/2000/svg" xmlns:xlink="http://www.w3.org/1999/xlink" width="32" height="32" viewBox="0 0 32 32"><path fill="#acc5e7" d="m28.1 10.107l-7.041-3.948a5.219 5.219 0 0 0-9.859-.146l-7.3 4.094a.576.576 0 0 0-.3.5v9.1a.577.577 0 0 0 .3.5l3.921 2.2a.613.613 0 0 0 .3.078a.6.6 0 0 0 .517-.291L9.67 20.46a.572.572 0 0 0-.2-.783a4.224 4.224 0 0 1-1.247-5.863a4.694 4.694 0 0 1 3.99-2.331a4.085 4.085 0 0 1 .708.06a5.283 5.283 0 0 0 6.422-.036a4.235 4.235 0 0 1 .452-.024a4.694 4.694 0 0 1 3.99 2.331a4.224 4.224 0 0 1-1.247 5.863a.572.572 0 0 0-.2.783l1.026 1.74a.6.6 0 0 0 .518.291a.616.616 0 0 0 .3-.078l3.921-2.2a.577.577 0 0 0 .3-.5v-9.1a.576.576 0 0 0-.303-.506Z"/><path fill="#5686ba" d="m28.4 9.6l-6.845-3.833a5.828 5.828 0 0 0-10.844-.149L3.6 9.6a1.155 1.155 0 0 0-.6 1.009v9.1a1.155 1.155 0 0 0 .6 1.006l3.921 2.2a1.216 1.216 0 0 0 1.634-.424l1.032-1.735a1.142 1.142 0 0 0-.4-1.565A3.657 3.657 0 0 1 8.74 14.11a4.094 4.094 0 0 1 3.473-2.04a3.436 3.436 0 0 1 .465.03a5.9 5.9 0 0 0 6.9-.024c.073 0 .146-.007.219-.006a4.094 4.094 0 0 1 3.473 2.04a3.658 3.658 0 0 1-1.047 5.081a1.142 1.142 0 0 0-.4 1.565l1.032 1.735a1.215 1.215 0 0 0 1.633.425l3.922-2.2a1.155 1.155 0 0 0 .6-1.006v-9.1a1.155 1.155 0 0 0-.61-1.01ZM7.7 13.527a4.813 4.813 0 0 0 1.448 6.646l-1.031 1.734L4.2 19.709v-9.1l6.162-3.453a5.386 5.386 0 0 0-.019.442a5.466 5.466 0 0 0 1.157 3.367a5.274 5.274 0 0 0-3.8 2.562Zm11.39-2.568a4.623 4.623 0 0 1-2.476 1.049a4.732 4.732 0 0 1-.508.028a4.68 4.68 0 0 1-.705-.053a4.616 4.616 0 0 1-2.221-.976a4.346 4.346 0 0 1-.709-6.1a4.655 4.655 0 0 1 7.265-.007a4.364 4.364 0 0 1 .81 1.64a4.285 4.285 0 0 1 .132 1.06a4.374 4.374 0 0 1-1.588 3.359Zm8.714 8.75l-3.922 2.2l-1.031-1.734a4.813 4.813 0 0 0 1.449-6.648A5.262 5.262 0 0 0 20.687 11a5.468 5.468 0 0 0 1.187-3.4c0-.106 0-.212-.01-.318l5.94 3.329Z"/><path fill="#69bf62" d="M17.158 29.12h-1.269l.17-1.576l-1.524.918l-.612-.887l1.705-.659l-1.7-.658l.612-.887l1.524.918l-.17-1.577h1.269l-.176 1.577l1.529-.918l.607.887l-1.7.658l1.7.659l-.607.887l-1.529-.918Zm6.834 0h-1.269l.17-1.576l-1.523.918l-.613-.887l1.7-.659l-1.7-.658l.613-.887l1.523.918l-.17-1.577h1.269l-.176 1.577l1.53-.918l.607.887l-1.7.658l1.7.659l-.607.887l-1.53-.918ZM9.357 30H7.919l4.236-8.306H13.6Z"/></svg>