<svg xmlns="http://www.w3.org/2000/svg" xmlns:xlink="http://www.w3.org/1999/xlink" width="32" height="32" viewBox="0 0 32 32"><path fill="#ce3f31" d="M16 30A13.859 13.859 0 0 1 2.286 16A14.149 14.149 0 0 1 6.3 6.1a13.517 13.517 0 0 1 19.4 0a14.149 14.149 0 0 1 4.014 9.9A13.859 13.859 0 0 1 16 30Z"/><path fill="#fff" d="M11.869 23.015h-.4a4.263 4.263 0 0 1-1.048-.113a1.387 1.387 0 0 1-.767-.548a2.2 2.2 0 0 1-.409-1.026a13.28 13.28 0 0 1-.086-1.728a12.78 12.78 0 0 0-.08-1.687a1.773 1.773 0 0 0-.405-.924a1.325 1.325 0 0 0-1.026-.391V15.4a1.325 1.325 0 0 0 1.026-.391a1.773 1.773 0 0 0 .405-.924a12.78 12.78 0 0 0 .08-1.687a13.28 13.28 0 0 1 .084-1.731a2.2 2.2 0 0 1 .409-1.026a1.387 1.387 0 0 1 .767-.548a4.263 4.263 0 0 1 1.048-.113h.4v1.14h-.226q-.76 0-.931.4a7.72 7.72 0 0 0-.172 2.17a4.876 4.876 0 0 1-.416 2.316A2.117 2.117 0 0 1 8.859 16a2.089 2.089 0 0 1 1.264.986a4.876 4.876 0 0 1 .417 2.314a7.72 7.72 0 0 0 .172 2.17q.172.4.931.4h.226Zm1.6-3.141h1.035V16.42h1.459l1.97 3.454h1.184l-2.077-3.566a2.243 2.243 0 0 0 1.833-2.319c0-1.7-1.2-2.294-2.855-2.294h-2.544Zm1.035-4.3V12.53h1.359c1.272 0 1.97.386 1.97 1.459s-.7 1.583-1.97 1.583Zm5.557-6.591h.4a4.263 4.263 0 0 1 1.048.113a1.387 1.387 0 0 1 .767.548a2.2 2.2 0 0 1 .409 1.026a13.28 13.28 0 0 1 .084 1.731a12.78 12.78 0 0 0 .08 1.687a1.773 1.773 0 0 0 .405.924a1.325 1.325 0 0 0 1.026.391v1.191a1.325 1.325 0 0 0-1.026.391a1.773 1.773 0 0 0-.405.924a12.78 12.78 0 0 0-.08 1.687a13.28 13.28 0 0 1-.084 1.731a2.2 2.2 0 0 1-.409 1.026a1.387 1.387 0 0 1-.767.548a4.263 4.263 0 0 1-1.048.113h-.4v-1.14h.226q.76 0 .931-.4A7.72 7.72 0 0 0 21.4 19.3a4.876 4.876 0 0 1 .416-2.316A2.089 2.089 0 0 1 23.075 16a2.117 2.117 0 0 1-1.264-.994a4.876 4.876 0 0 1-.416-2.316a7.72 7.72 0 0 0-.172-2.17q-.172-.4-.931-.4h-.226Z"/></svg>