<svg xmlns="http://www.w3.org/2000/svg" xmlns:xlink="http://www.w3.org/1999/xlink" width="32" height="32" viewBox="0 0 32 32"><defs><linearGradient id="vscodeIconsFileTypeCypressSpec0" x1="-232.831" x2="-232.767" y1="265.938" y2="265.938" gradientTransform="scale(-174.487 174.487)rotate(74.609 57.955 285.7)" gradientUnits="userSpaceOnUse"><stop offset="0" stop-color="#58d09e"/><stop offset="1"/></linearGradient><linearGradient id="vscodeIconsFileTypeCypressSpec1" x1="-233.052" x2="-232.988" y1="267.716" y2="267.716" gradientTransform="scale(174.5 -174.5)rotate(-38.239 -502.812 -202.442)" gradientUnits="userSpaceOnUse"><stop offset="0" stop-color="#58d09e"/><stop offset="1" stop-color="#d2d2d2"/></linearGradient></defs><path fill="#58d09e" d="M6.152 28.65a5.144 5.144 0 0 1-4.046-6.087c.339-1.429.269-1.346 7.644-9.06l6.95-7.269l1.97 1.878l-8.01 8.362l6.7-.144l4.734-4.938l1.962 1.888l-6.956 7.249c-6.385 6.65-7.017 7.278-7.666 7.6a5.2 5.2 0 0 1-3.274.525Zm19.574-16.666c-.183-.11-2.063-1.864-4.178-3.9L17.7 4.385l-.012-.562a1.15 1.15 0 0 1 .259-.9a1.325 1.325 0 0 1 1.387-.495a92 92 0 0 1 8.38 8.041a1.34 1.34 0 0 1-1.992 1.513Z"/><path fill="#58d09e" d="M4.085 23.185c-.353 2.28.96 3.828 3.443 3.49c.255-.268 3.214-3.357 9.861-10.328c-3.344.072-3.3-.074-6.649 0c-6.689 6.934-6.822 6.884-6.655 6.838"/><path d="M19.6 9.539A10.04 10.04 0 1 1 9.933 19.93A10.05 10.05 0 0 1 19.6 9.539"/><path fill="#d2d2d2" d="m25.345 16.388l-1.89 4.743l-1.9-4.743H20l2.668 6.474l-1.9 4.566l1.361.268l4.689-11.308z"/><path fill="#d2d2d2" d="M17.039 17.588a1.87 1.87 0 0 1 1.761 1.146l.026.057l1.327-.447l-.029-.067a3.265 3.265 0 0 0-3.087-2.011a3.32 3.32 0 0 0-2.429.949a3.34 3.34 0 0 0 0 4.732a3.32 3.32 0 0 0 2.429.949a3.265 3.265 0 0 0 3.087-2.01l.029-.068l-1.329-.448l-.025.06a1.84 1.84 0 0 1-1.762 1.143a1.87 1.87 0 0 1-1.383-.566a1.96 1.96 0 0 1-.561-1.42a2 2 0 0 1 .561-1.432a1.86 1.86 0 0 1 1.383-.569Z"/><path fill="url(#vscodeIconsFileTypeCypressSpec0)" d="M24.447 26.6a8.33 8.33 0 0 0 2.946-10.913l1.206-.624a9.675 9.675 0 0 1-3.42 12.676z"/><path fill="#58d09e" d="M10.571 22.128a9.6 9.6 0 0 1-.347-2.564a9.74 9.74 0 0 1 6.254-9.029l.491 1.259a8.385 8.385 0 0 0-5.383 7.77a8.3 8.3 0 0 0 .3 2.206l-1.312.358Z"/><path fill="#58d09e" d="M16.412 10.566a9.806 9.806 0 0 1 12.242 4.615l-1.211.616a8.447 8.447 0 0 0-10.535-3.974Z"/><path fill="url(#vscodeIconsFileTypeCypressSpec1)" d="m21.031 26.789l-.331.8a.44.44 0 0 1-.386.271c-.111 0-.224.007-.338.007a8.45 8.45 0 0 1-8.21-6.49l-1.329.3a9.7 9.7 0 0 0 3.393 5.391a9.87 9.87 0 0 0 6.13 2.152h.02c.131 0 .26 0 .39-.008a1.8 1.8 0 0 0 1.589-1.112l.434-1.04l-1.362-.268Z"/></svg>