<svg xmlns="http://www.w3.org/2000/svg" xmlns:xlink="http://www.w3.org/1999/xlink" width="32" height="32" viewBox="0 0 32 32"><path fill="#2e8e80" d="M27.4 5.5h-9.2l-2.1 4.2H4.3v16.8h25.2v-21Zm0 18.7H6.6V11.8h20.8Zm0-14.5h-8.2l1-2.1h7.1v2.1Z"/><path fill="#2e8e80" d="M25.7 13.7H.5l3.8 12.8h25.2l-3.8-12.8z"/><path fill="#5fc1b3" d="M21 31a10 10 0 1 1 10-10a10.011 10.011 0 0 1-10 10Zm0-18.182A8.182 8.182 0 1 0 29.182 21A8.191 8.191 0 0 0 21 12.818Z"/><path fill="#5fc1b3" d="M21.909 21.909h-1.068a.75.75 0 0 1-.75-.75v-6.682a.75.75 0 0 1 .75-.75h.318a.75.75 0 0 1 .75.75Z"/><path fill="#5fc1b3" d="M27.523 21.909h-6.682a.75.75 0 0 1-.75-.75v-1.068h7.432a.75.75 0 0 1 .75.75v.318a.75.75 0 0 1-.75.75Z"/></svg>