<svg xmlns="http://www.w3.org/2000/svg" xmlns:xlink="http://www.w3.org/1999/xlink" width="32" height="32" viewBox="0 0 32 32"><defs><linearGradient id="vscodeIconsFolderTypeAurelia0" x1="-42.612" x2="-39.39" y1="-38.015" y2="-40.974" gradientTransform="matrix(7.886 0 0 -8.589 343.962 -327.095)" gradientUnits="userSpaceOnUse"><stop offset="0" stop-color="#c06fbb"/><stop offset="1" stop-color="#6e4d9b"/></linearGradient><linearGradient id="vscodeIconsFolderTypeAurelia1" x1="-43.738" x2="-44.614" y1="-30.081" y2="-28.886" gradientTransform="matrix(15.701 0 0 -16.956 713.239 -480.525)" gradientUnits="userSpaceOnUse"><stop offset="0" stop-color="#6e4d9b"/><stop offset=".14" stop-color="#77327a"/><stop offset=".29" stop-color="#b31777"/><stop offset=".84" stop-color="#cd0f7e"/><stop offset="1" stop-color="#ed2c89"/></linearGradient><linearGradient id="vscodeIconsFolderTypeAurelia2" x1="-43.456" x2="-40.514" y1="-35.988" y2="-40.083" gradientTransform="matrix(8.637 0 0 -7.94 373.165 -284.546)" href="#vscodeIconsFolderTypeAurelia0"/><linearGradient id="vscodeIconsFolderTypeAurelia3" x1="4.839" x2="31.752" y1="40.432" y2="18.356" href="#vscodeIconsFolderTypeAurelia0"/><linearGradient id="vscodeIconsFolderTypeAurelia4" x1="-42.555" x2="-40.318" y1="-42.491" y2="-44.326" gradientTransform="matrix(6.504 0 0 -6.517 291.135 -265.393)" href="#vscodeIconsFolderTypeAurelia0"/><linearGradient id="vscodeIconsFolderTypeAurelia5" x1="-42.523" x2="-39.643" y1="-35.351" y2="-37.889" gradientTransform="matrix(10.02 0 0 -10.013 426.022 -346.247)" href="#vscodeIconsFolderTypeAurelia0"/><linearGradient id="vscodeIconsFolderTypeAurelia6" x1="-42.615" x2="-43.494" y1="-31.641" y2="-30.439" gradientTransform="matrix(15.678 0 0 -16.922 696.247 -503.63)" href="#vscodeIconsFolderTypeAurelia1"/><linearGradient id="vscodeIconsFolderTypeAurelia7" x1="-42.477" x2="-39.255" y1="-37.84" y2="-41.407" gradientTransform="matrix(7.887 0 0 -8.589 343.999 -327.094)" href="#vscodeIconsFolderTypeAurelia0"/><linearGradient id="vscodeIconsFolderTypeAurelia8" x1="-44.786" x2="-44.38" y1="-25.269" y2="-24.867" gradientTransform="matrix(37.627 7.508 7.477 -37.474 1885.141 -584.006)" gradientUnits="userSpaceOnUse"><stop offset="0" stop-color="#6e4d9b"/><stop offset=".14" stop-color="#77327a"/><stop offset=".53" stop-color="#b31777"/><stop offset=".79" stop-color="#cd0f7e"/><stop offset="1" stop-color="#ed2c89"/></linearGradient></defs><path fill="#bf5588" d="M27.5 5.5h-9.3l-2.1 4.2H4.4v16.8h25.2v-21Zm0 4.2h-8.2l1.1-2.1h7.1Z"/><path fill="url(#vscodeIconsFolderTypeAurelia0)" d="m23.537 13.888l-2 1.335l-2.06-3.087l2-1.335z"/><path fill="url(#vscodeIconsFolderTypeAurelia1)" d="m25.162 23.163l3.417 5.12L24.509 31l-3.417-5.12l-.6-.893l4.07-2.716z"/><path fill="url(#vscodeIconsFolderTypeAurelia2)" d="m20.036 26.585l.752 1.127l-3.1 2.068l-1.348-2.021l.677-.452l2.421-1.616l.6.893Z"/><path fill="url(#vscodeIconsFolderTypeAurelia3)" d="m26.855 20.743l.869-.58l1.348 2.021l-2 1.334l-.752-1.127l1.131-.755z"/><path fill="url(#vscodeIconsFolderTypeAurelia4)" d="m26.32 22.391l-.596-.893l1.131-.755l.596.893z"/><path fill="url(#vscodeIconsFolderTypeAurelia5)" d="m12.831 21.033l-.677.452l-2.06-3.085l3.1-2.068l1.444 2.164l-2.421 1.616l2.421-1.616l.616.923l-2.421 1.616Z"/><path fill="url(#vscodeIconsFolderTypeAurelia6)" d="m19.763 15.072l.616.923l-4.07 2.716l-.616-.923l-3.385-5.072L16.378 10z"/><path fill="url(#vscodeIconsFolderTypeAurelia7)" d="m22.668 14.468l-1.131.755l-.616-.923l-1.444-2.164l2-1.335l2.06 3.087z"/><path fill="#714896" d="m17.614 28.2l-.6-.893l2.421-1.616l.6.893z"/><path fill="#6f4795" d="m26.32 22.391l-.6-.893l1.131-.755l.6.893z"/><path fill="#88519f" d="m12.831 21.033l-.616-.923l2.421-1.616l.616.923z"/><path fill="#85509e" d="m21.537 15.223l-.616-.923l1.131-.755l.616.923z"/><path fill="#8d166a" d="m25.162 23.163l-4.07 2.716l-.6-.893l4.07-2.716z"/><path fill="#a70d6f" d="m19.763 15.072l.616.923l-4.07 2.716l-.616-.923z"/><path fill="#9e61ad" d="m10.525 15.103l1.151-.768l.768 1.151l-1.15.768z"/><path fill="#8053a3" d="m14.674 28.905l1.151-.769l.769 1.151l-1.151.769z"/><path fill="url(#vscodeIconsFolderTypeAurelia8)" d="m12.8 29.3l-3.374-5.1l18.013-12.044l3.534 5.011z"/></svg>