<svg xmlns="http://www.w3.org/2000/svg" xmlns:xlink="http://www.w3.org/1999/xlink" width="32" height="32" viewBox="0 0 32 32"><path fill="#7bb6db" d="M27.4 5.5h-9.2l-2.1 4.2H4.3v16.8h25.2v-21Zm0 18.7H6.6V11.8h20.8Zm0-14.5h-8.2l1-2.1h7.1v2.1Z"/><path fill="#7bb6db" d="M25.7 13.7H.5l3.8 12.8h25.2z"/><path fill="#1572b6" d="M14.177 28.901L12.492 10h18.516l-1.686 18.898L21.739 31z"/><path fill="#33a9dc" d="m21.75 29.393l6.127-1.699l1.442-16.149H21.75z"/><path fill="#fff" d="M21.75 18.393h3.068l.211-2.374H21.75v-2.318h5.813l-.056.622l-.57 6.388H21.75z"/><path fill="#ebebeb" d="m21.764 24.413l-.01.003l-2.582-.697l-.165-1.849H16.68l.325 3.64l4.748 1.318l.011-.003z"/><path fill="#fff" d="m24.62 20.613l-.279 3.105l-2.585.697v2.412l4.752-1.317l.035-.392l.403-4.505z"/><path fill="#ebebeb" d="M21.758 13.701v2.318h-5.599l-.047-.521l-.105-1.175l-.056-.622zm-.008 4.692v2.319h-2.549l-.046-.521l-.106-1.176l-.055-.622z"/></svg>