<svg xmlns="http://www.w3.org/2000/svg" xmlns:xlink="http://www.w3.org/1999/xlink" width="32" height="32" viewBox="0 0 32 32"><path fill="#c18053" d="M27.5 5.5h-9.3l-2.1 4.2H4.4v16.8h25.2v-21Zm0 4.2h-8.2l1.1-2.1h7.1Z"/><path fill="#59c2f2" d="m13.065 26.488l-.383-.365v-.753a4.479 4.479 0 0 0 5.557 0v.753l-.383.365a3.471 3.471 0 0 1-4.791 0Z"/><path fill="#59c2f2" d="M12.682 23.9V13a4.029 4.029 0 0 0 5.557 0v10.9l-.383.365a3.471 3.471 0 0 1-4.791 0Zm1.111-6.455h3.334v-1.111h-3.334Zm1.667 11.114a4.566 4.566 0 0 1-2.778-.966v2.077a4.029 4.029 0 0 0 5.557 0v-2.077a4.567 4.567 0 0 1-2.779.966Z"/><path fill="#8abf4f" d="m23.968 26.488l.383-.365v-.753a4.479 4.479 0 0 1-5.557 0v.753l.383.365a3.471 3.471 0 0 0 4.791 0Z"/><path fill="#8abf4f" d="M18.794 23.9V13a4.029 4.029 0 0 0 5.557 0v10.9l-.383.365a3.471 3.471 0 0 1-4.791 0Zm1.111-6.455h3.335v-1.111h-3.334Zm1.668 11.114a4.566 4.566 0 0 1-2.778-.966v2.077a4.029 4.029 0 0 0 5.557 0v-2.077a4.567 4.567 0 0 1-2.779.966Z"/><path fill="#b533a5" d="m30.081 26.488l.383-.365v-.753a4.479 4.479 0 0 1-5.557 0v.753l.383.365a3.471 3.471 0 0 0 4.791 0Z"/><path fill="#b533a5" d="M24.907 23.9V13a4.029 4.029 0 0 0 5.557 0v10.9l-.383.365a3.471 3.471 0 0 1-4.791 0Zm1.111-6.455h3.334v-1.111h-3.334Zm1.667 11.114a4.565 4.565 0 0 1-2.778-.966v2.077a4.029 4.029 0 0 0 5.557 0v-2.077a4.567 4.567 0 0 1-2.779.966Z"/></svg>