<svg xmlns="http://www.w3.org/2000/svg" xmlns:xlink="http://www.w3.org/1999/xlink" width="32" height="32" viewBox="0 0 32 32"><defs><clipPath id="vscodeIconsFolderTypeCommon0"><path fill="none" d="M0 0h32v32H0z"/></clipPath></defs><g clip-path="url(#vscodeIconsFolderTypeCommon0)"><path fill="#7c99ac" d="M27.5 5.5h-9.3l-2.1 4.2H4.4v16.8h25.2v-21Zm0 4.2h-8.2l1.1-2.1h7.1Z"/><path fill="#d1d1d1" d="M23.507 15a7.45 7.45 0 0 0-3 .63a7.5 7.5 0 0 1 1.684 1.02a6 6 0 1 1 0 11.7a7.5 7.5 0 0 1-1.684 1.02a7.5 7.5 0 1 0 3-14.371Z"/><path fill="#d1d1d1" d="M17.507 22.5a6.01 6.01 0 0 0 4.686 5.85a7.49 7.49 0 0 0 0-11.7a6.01 6.01 0 0 0-4.686 5.85"/><path fill="#d1d1d1" d="M16.007 22.5a7.51 7.51 0 0 1 4.5-6.87a7.5 7.5 0 1 0 0 13.74a7.51 7.51 0 0 1-4.5-6.87"/></g></svg>