<svg xmlns="http://www.w3.org/2000/svg" xmlns:xlink="http://www.w3.org/1999/xlink" width="32" height="32" viewBox="0 0 32 32"><path fill="#8895d1" d="M27.5 5.5h-9.3l-2.1 4.2H4.4v16.8h25.2v-21Zm0 4.2h-8.2l1.1-2.1h7.1Z"/><path fill="#fff" d="M11.847 23.189L17.562 12.3l5.622-3.014l1.671.845l-5.588 3.157l5.774 17.354l-1.857-1.08l-4.322-9.962l-5.672 4.306Z"/><ellipse cx="28.552" cy="18.403" fill="#fff" rx="2.11" ry="1.967"/><path d="M30.088 17.525a1.91 1.91 0 0 0-3.266.236a1.72 1.72 0 0 0 .329 1.925a2.785 2.785 0 0 0 2.937-2.161M24.416 10.1L23.2 9.43l-5.293 2.946l.422.228l.8.422l1.452-.8l3.832-2.136Zm.49-.2a.19.19 0 0 1 .135.127l1.772 5.233a.175.175 0 0 1-.084.228a3.43 3.43 0 0 0-1.654 3.912a3.62 3.62 0 0 0 3.866 2.549a.22.22 0 0 1 .219.135l1.832 5.369a.22.22 0 0 1-.085.236l-5.63 3.292a.2.2 0 0 1-.084.017a.23.23 0 0 1-.152-.025l-1.975-1.241a.2.2 0 0 1-.085-.085l-3.857-8.871l-5.875 3.342a.2.2 0 0 1-.043.017a.2.2 0 0 1-.185-.008l-1.334-.76a.193.193 0 0 1-.084-.253l5.706-10.83a.2.2 0 0 1 .091-.084l5.689-3.174a.22.22 0 0 1 .2 0Zm-7.057 2.912l-.279-.143l-5.5 10.475l1 .566l4.744-6.2a.23.23 0 0 1 .194-.085a.24.24 0 0 1 .169.127l5.166 11.9l1.384.852l-5.544-16.223l-.237-.675l-1.105-.606Zm8.509 6.247a2.14 2.14 0 0 1 1.055-2.448a2.33 2.33 0 0 1 2.735.337a2.14 2.14 0 0 1 .061 3.02l-.061.061a2.3 2.3 0 0 1-3.79-.97"/></svg>