<svg xmlns="http://www.w3.org/2000/svg" xmlns:xlink="http://www.w3.org/1999/xlink" width="32" height="32" viewBox="0 0 32 32"><path fill="#bf5e55" d="M27.5 5.5h-9.3l-2.1 4.2H4.4v16.8h25.2v-21Zm0 4.2h-8.2l1.1-2.1h7.1Z"/><path fill="#a41e11" d="M30.177 26.879c-1.121.584-6.926 2.971-8.162 3.615a2.76 2.76 0 0 1-2.9.171c-.976-.467-7.154-2.962-8.267-3.494c-.556-.266-.849-.49-.849-.7v-2.124s8.043-1.751 9.341-2.217a3.3 3.3 0 0 1 2.854-.078c1.105.4 7.712 1.6 8.8 2v2.093c0 .193-.252.44-.822.737Z"/><path fill="#d82c20" d="M30.177 24.756c-1.121.584-6.926 2.971-8.162 3.615a2.76 2.76 0 0 1-2.9.171c-.976-.466-7.154-2.962-8.267-3.494s-1.136-.9-.043-1.326s7.237-2.839 8.536-3.3a3.3 3.3 0 0 1 2.859-.082c1.105.4 6.876 2.7 7.968 3.1s1.134.73.014 1.314Z"/><path fill="#a41e11" d="M30.177 23.418c-1.121.584-6.926 2.971-8.162 3.616a2.76 2.76 0 0 1-2.9.171c-.976-.466-7.154-2.962-8.267-3.494c-.556-.266-.849-.49-.849-.7v-2.125s8.043-1.751 9.341-2.217a3.3 3.3 0 0 1 2.854-.078c1.105.4 7.712 1.6 8.8 2v2.093c0 .193-.247.437-.817.734"/><path fill="#d82c20" d="M30.177 21.295c-1.121.584-6.926 2.971-8.162 3.616a2.76 2.76 0 0 1-2.9.171c-.976-.466-7.154-2.962-8.267-3.494s-1.136-.9-.043-1.326s7.237-2.839 8.536-3.3a3.3 3.3 0 0 1 2.854-.078c1.105.4 6.876 2.7 7.968 3.1s1.134.73.014 1.314Z"/><path fill="#a41e11" d="M30.177 19.828c-1.121.584-6.926 2.971-8.162 3.616a2.76 2.76 0 0 1-2.9.171c-.976-.466-7.154-2.962-8.267-3.494c-.556-.266-.849-.49-.849-.7V17.3s8.043-1.751 9.341-2.217A3.3 3.3 0 0 1 22.2 15c1.105.4 7.712 1.6 8.8 2v2.093c0 .193-.252.44-.822.737Z"/><path fill="#d82c20" d="M30.177 17.7c-1.121.584-6.926 2.971-8.162 3.616a2.76 2.76 0 0 1-2.9.171c-.976-.467-7.154-2.962-8.267-3.494s-1.136-.9-.043-1.326s7.237-2.838 8.536-3.3a3.3 3.3 0 0 1 2.854-.078c1.105.4 6.876 2.7 7.968 3.1s1.134.73.014 1.314Z"/><path fill="#fff" d="m23.252 15.661l-1.82.188l-.407.981l-.658-1.094l-2.101-.189l1.567-.565l-.47-.868l1.468.574l1.384-.453l-.374.897zm-2.336 4.755l-3.396-1.409l4.866-.747z"/><ellipse cx="16.208" cy="17.213" fill="#fff" rx="2.601" ry="1.008"/><path fill="#7a0c00" d="m25.402 15.928l2.88 1.139l-2.878 1.137z"/><path fill="#ad2115" d="m22.216 17.189l3.186-1.261l.002 2.276l-.312.122z"/></svg>