<svg xmlns="http://www.w3.org/2000/svg" xmlns:xlink="http://www.w3.org/1999/xlink" width="32" height="32" viewBox="0 0 32 32"><defs><radialGradient id="vscodeIconsFolderTypeIdeaOpened0" cx="29.86" cy="-463.041" r="15.86" gradientTransform="matrix(1 0 0 -1 0 -442)" gradientUnits="userSpaceOnUse"><stop offset=".045" stop-color="#f4793b"/><stop offset="1" stop-color="#fff33e"/></radialGradient><radialGradient id="vscodeIconsFolderTypeIdeaOpened1" cx="13.122" cy="-458.585" r="7.97" gradientTransform="matrix(1 0 0 -1 0 -442)" gradientUnits="userSpaceOnUse"><stop offset=".258" stop-color="#ee3d85"/><stop offset="1" stop-color="#7b5aa6"/></radialGradient><radialGradient id="vscodeIconsFolderTypeIdeaOpened2" cx="19.652" cy="-453.559" r="14.153" gradientTransform="matrix(1 0 0 -1 0 -442)" gradientUnits="userSpaceOnUse"><stop offset=".134" stop-color="#f05872"/><stop offset="1" stop-color="#f4793b"/></radialGradient><linearGradient id="vscodeIconsFolderTypeIdeaOpened3" x1="13.453" x2="18.024" y1="-458.063" y2="-454.205" gradientTransform="matrix(1 0 0 -1 0 -442)" gradientUnits="userSpaceOnUse"><stop offset="0" stop-color="#ee3d85"/><stop offset="1" stop-color="#f05872"/></linearGradient></defs><path fill="#dbd47b" d="M27.4 5.5h-9.2l-2.1 4.2H4.3v16.8h25.2v-21Zm0 18.7H6.6V11.8h20.8Zm0-14.5h-8.2l1-2.1h7.1v2.1Z"/><path fill="#dbd47b" d="M25.7 13.7H.5l3.8 12.8h25.2z"/><path fill="url(#vscodeIconsFolderTypeIdeaOpened0)" d="M30.662 21.651a.749.749 0 0 0-.762-1.288L16.064 27.95a1.636 1.636 0 1 0 1.791 2.733Z" opacity=".997"/><path fill="url(#vscodeIconsFolderTypeIdeaOpened1)" d="M14.551 14.655a1.8 1.8 0 1 0-1.844 3.062l7.412 3.061a.694.694 0 0 0 .738-1.157Z"/><path fill="url(#vscodeIconsFolderTypeIdeaOpened3)" d="M19.995 10.065a1.42 1.42 0 0 0-1.188.158l-6.433 4.366a1.8 1.8 0 1 0 2.105 2.929q.065-.047.125-.1l5.864-4.884a1.426 1.426 0 0 0-.474-2.469Z" opacity=".999"/><path fill="url(#vscodeIconsFolderTypeIdeaOpened2)" d="M20.574 10.413a1.426 1.426 0 0 0-2.006 2.027l.057.054l11.166 9.129a.748.748 0 0 0 1.021-1.086Z" opacity=".997"/></svg>