<svg xmlns="http://www.w3.org/2000/svg" xmlns:xlink="http://www.w3.org/1999/xlink" width="32" height="32" viewBox="0 0 32 32"><defs><clipPath id="vscodeIconsFolderTypeSharedOpened0"><path fill="none" d="M0 0h32v32H0z"/></clipPath></defs><g clip-path="url(#vscodeIconsFolderTypeSharedOpened0)"><path fill="#9772fb" d="M27.4 5.5h-9.2l-2.1 4.2H4.3v16.8h25.2v-21Zm0 18.7H6.6V11.8h20.8Zm0-14.5h-8.2l1-2.1h7.1v2.1Z"/><path fill="#9772fb" d="M25.7 13.7H.5l3.8 12.8h25.2Z"/><path fill="#b094ff" d="M15 11a4 4 0 0 0-4 4v6a4 4 0 0 0 4 4h6.17a3 3 0 1 0 0-2H15a2 2 0 0 1-2-2v-6a2 2 0 0 1 2-2h6a2 2 0 0 1 2 2h2a4 4 0 0 0-4-4Zm12 20a4 4 0 0 0 4-4v-6a4 4 0 0 0-4-4h-6.17a3 3 0 1 0 0 2H27a2 2 0 0 1 2 2v6a2 2 0 0 1-2 2h-6a2 2 0 0 1-2-2h-2a4 4 0 0 0 4 4Z"/><path fill="#b094ff" d="M17 26.5v.5h2v-.5Z"/></g></svg>