<svg xmlns="http://www.w3.org/2000/svg" xmlns:xlink="http://www.w3.org/1999/xlink" width="32" height="32" viewBox="0 0 32 32"><path fill="#ff815a" d="M27.5 5.5h-9.3l-2.1 4.2H4.4v16.8h25.2v-21Zm0 4.2h-8.2l1.1-2.1h7.1Z"/><path fill="#ff3e00" d="M29.85 12.77A6.72 6.72 0 0 0 21 10.93l-5 3.12a5.6 5.6 0 0 0-2.62 3.76a5.8 5.8 0 0 0 .6 3.79a5.6 5.6 0 0 0-.86 2.1a5.86 5.86 0 0 0 1.05 4.53A6.72 6.72 0 0 0 23 30.07L28 27a5.64 5.64 0 0 0 2.61-3.76a5.76 5.76 0 0 0-.6-3.8a5.6 5.6 0 0 0 .87-2.1a5.9 5.9 0 0 0-1.06-4.53"/><path fill="#fff" d="M20.51 28.49a4.07 4.07 0 0 1-4.3-1.55a3.47 3.47 0 0 1-.63-2.72a2 2 0 0 1 .12-.46l.09-.28l.26.18a6.6 6.6 0 0 0 2 1l.19.05v.18a1.06 1.06 0 0 0 .2.73a1.23 1.23 0 0 0 1.31.47a.9.9 0 0 0 .31-.13l5-3.12a1 1 0 0 0 .47-.68a1.05 1.05 0 0 0-.18-.82a1.23 1.23 0 0 0-1.3-.46a.9.9 0 0 0-.31.13l-1.93 1.19a3.8 3.8 0 0 1-1 .43a4 4 0 0 1-4.3-1.54a3.5 3.5 0 0 1-.62-2.73a3.35 3.35 0 0 1 1.56-2.26l5-3.11a3.5 3.5 0 0 1 1-.44a4.05 4.05 0 0 1 4.3 1.55a3.52 3.52 0 0 1 .64 2.72a3 3 0 0 1-.12.45l-.1.29l-.25-.18a6.6 6.6 0 0 0-2-1l-.18-.05v-.18a1.06 1.06 0 0 0-.21-.73A1.21 1.21 0 0 0 24.3 15a.9.9 0 0 0-.31.13l-5 3.11a1 1 0 0 0-.47.68a1.05 1.05 0 0 0 .18.82a1.23 1.23 0 0 0 1.3.46a1.2 1.2 0 0 0 .31-.13l1.92-1.19a3.6 3.6 0 0 1 1-.43A4.05 4.05 0 0 1 27.51 20a3.56 3.56 0 0 1 .63 2.72a3.37 3.37 0 0 1-1.57 2.26l-5 3.12a3.6 3.6 0 0 1-1 .44"/></svg>