<svg xmlns="http://www.w3.org/2000/svg" xmlns:xlink="http://www.w3.org/1999/xlink" width="32" height="32" viewBox="0 0 32 32"><defs><clipPath id="vscodeIconsFolderTypeArangodb0"><path fill="none" d="M30.256 20.844a1.7 1.7 0 0 1 .334.446a5.7 5.7 0 0 1 .446 1.938a5.3 5.3 0 0 1-.356 2.205a13.6 13.6 0 0 1-1.537 1.582a5 5 0 0 1-.624.2a2.5 2.5 0 0 1-1.359.29c-2.094-.156-4.121-1.2-5.725-1.782c-.6 1.069-2.851 2.228-2.851 2.228s-.757.2-1.114.29a6 6 0 0 1-1.025.089c-.178 0-.356-.111-.535-.089c-.156.022-.312.134-.446.156a6.2 6.2 0 0 1-1.849-.49l-.913-.668l-.535-.535a5.9 5.9 0 0 1-1.025-1.448c-.089-.223-.312-.468-.379-.668c-.089-.223-.089-.646-.156-.913a3.23 3.23 0 0 1 .824-2.963a16 16 0 0 1 1.648-.958c1-.423 1.938-1.247 3.3-1.314a3.25 3.25 0 0 1 1.021-1.673a11.4 11.4 0 0 1 1.448-1.27a7.2 7.2 0 0 1 3.987-1.247a5.9 5.9 0 0 1 2.45.579a13.4 13.4 0 0 1 1.871.98a4.23 4.23 0 0 1 1.648 2.183c.134.379.891 1.136 1.069 1.582a2.5 2.5 0 0 1 .178.6a1.6 1.6 0 0 0 .2.668Z"/></clipPath></defs><path fill="#426f54" d="M27.5 5.5h-9.3l-2.1 4.2H4.4v16.8h25.2v-21Zm0 4.2h-8.2l1.1-2.1h7.1Z"/><path fill="#423334" d="M30.256 20.844a1.7 1.7 0 0 1 .334.446a5.7 5.7 0 0 1 .446 1.938a5.3 5.3 0 0 1-.356 2.205a13.6 13.6 0 0 1-1.537 1.582a5 5 0 0 1-.624.2a2.5 2.5 0 0 1-1.359.29c-2.094-.156-4.121-1.2-5.725-1.782c-.6 1.069-2.851 2.228-2.851 2.228s-.757.2-1.114.29a6 6 0 0 1-1.025.089c-.178 0-.356-.111-.535-.089c-.156.022-.312.134-.446.156a6.2 6.2 0 0 1-1.849-.49l-.913-.668l-.535-.535a5.9 5.9 0 0 1-1.025-1.448c-.089-.223-.312-.468-.379-.668c-.089-.223-.089-.646-.156-.913a3.23 3.23 0 0 1 .824-2.963a16 16 0 0 1 1.648-.958c1-.423 1.938-1.247 3.3-1.314a3.25 3.25 0 0 1 1.021-1.673a11.4 11.4 0 0 1 1.448-1.27a7.2 7.2 0 0 1 3.987-1.247a5.9 5.9 0 0 1 2.45.579a13.4 13.4 0 0 1 1.871.98a4.23 4.23 0 0 1 1.648 2.183c.134.379.891 1.136 1.069 1.582a2.5 2.5 0 0 1 .178.6a1.6 1.6 0 0 0 .2.668Z"/><g clip-path="url(#vscodeIconsFolderTypeArangodb0)"><path fill="#3d2f30" d="M21.5 25.455c.022-.022 0-.022 0-.022l-.022-.022c.022-.022-.067-.089-.067-.045c-.022-.022-.022 0-.022 0c0 .022 0 .022-.022.045c-.022 0-.022 0-.022.022h-.022v.022s.022.022 0 .022c-.022.022 0 .022 0 .022s.022.022 0 .022l.045.045h.045c.022 0 .022 0 .045-.022c0 0 .022-.022.022 0l.022-.022c.022-.022 0-.022 0-.022c.022-.022.022-.022 0-.045Zm-4.7 2.027c-.022 0-.022.022-.022.045a.07.07 0 0 0 .022-.045m-.891-.245c0 .045 0 .045.022.045c0 .022 0 .022.022.022c0 .022.022.022.022 0H16c.022 0 .022 0 .022-.022c.022 0 .022 0 .022-.022v-.045c0-.022 0-.089-.022-.089c-.022-.067-.045-.111-.156-.111v-.067c-.045 0-.045-.022-.067-.022c-.022-.045-.045-.111-.134-.089l-.022.134a1 1 0 0 1 .245.089c-.111-.001 0 .155.022.177Zm4.522-2.495a1 1 0 0 0-.156-.067a.21.21 0 0 0-.111.156c.09.045.179 0 .268-.089Zm-.022.691c0 .022 0 .045-.022.045c0 .022 0 .067-.022.067c-.045-.022-.045.089 0 .089c0 .022 0 .045.022.045c0 .022 0 .022.022.022c0 .022.045.022.045 0c.022 0 .067 0 .067-.022c.022 0 .022 0 .022-.022c.022 0 .022-.022.022-.045c.022 0 .022 0 .022-.022v-.045c-.022 0-.022-.045-.022-.067a1 1 0 0 0-.156-.045m1.47-.579c.022-.022.022-.022 0-.045c.022-.022 0-.022 0-.022c.022-.022 0-.022 0-.022c.022-.022 0-.022-.022-.045c.022-.022 0-.022-.022-.045l.022-.022c-.022-.067 0-.156-.089-.223a.3.3 0 0 0-.223.067l-.022.223c-.022.022-.067.067-.045.089l-.022.022c-.067-.045-.156-.156-.223-.156c-.022-.022-.045-.045-.067-.022c-.022-.022-.022-.022-.045 0c-.022-.022-.022-.022-.045 0c-.022-.022-.022 0-.022 0c-.022-.022-.022 0-.022 0c-.022-.022-.022-.022-.045 0c-.022-.022-.022-.022-.045 0c-.022-.022-.022-.022-.045 0c-.022-.022-.022 0-.022 0a.3.3 0 0 0-.245.022c-.045.156.089.2.245.312c-.022.022.022.045.045.067c.089.156.267.022.379 0c.045 0 .022.022.045.045l.134-.067l.022.022c.022-.022 0-.045 0-.067c.022-.022 0-.022-.022-.045l.022-.022c.045.045.089-.022.089.045c.067-.045.134-.022.178-.045c.022.022.022 0 .045-.022c.022.022.045 0 .067-.045Zm-.557.557c-.022-.022 0-.045.022-.022c0 0 .022-.022.022 0c0-.022.022-.045 0-.089c-.022 0-.022 0-.022-.022c-.022 0-.022 0-.022-.022c-.022 0-.067 0-.067-.022h-.134c0 .067-.111 0-.089.089h-.022c0 .022 0 .022-.022.022c0 .022 0 .022-.022.022c0 .022-.022.022-.022 0c-.022 0-.045 0-.045-.022h-.067a.15.15 0 0 1 .022.134c0 .067-.045.089-.089.111c0 .089.067.111.134.156a1.2 1.2 0 0 0-.423.178c-.022 0-.045 0-.045.022c-.045 0-.045.022-.045.045c-.067.045-.134.045-.134.156c0 .022 0 .022.022.022v.022c0 .022 0 .022.022.022c0 .022 0 .022.022.022c0 .022 0 .045.022.045c0 .022 0 .022.022.022c0 .045-.022.134.045.111c-.022.045.089.045.089 0c.067 0 .067-.089.067-.156c.022 0 .022-.022.022-.045a1.1 1.1 0 0 1 .267-.178c-.022 0-.022 0-.022-.022c.022 0 .022-.022.022-.045a.95.95 0 0 1 .356-.468c0-.045.045-.022.089-.022c.022-.045.022-.045.022-.067Zm.757-1.893c.022.022.022 0 .022 0c.045.067.089 0 .111-.045c-.022-.045-.045.022-.067 0c.022-.022.022-.022 0-.045a1.8 1.8 0 0 1 .668.067l-.245-.134c0-.089.067 0 .111-.067l-.022-.022l-.022-.022s-.022.022-.022 0a.02.02 0 0 1-.022-.022s-.022.022-.022 0l-.022-.022s-.022.022-.022 0l-.022-.022s-.022.022-.022 0l-.022-.022s-.022.022-.022 0l-.022-.022l-.022-.022s-.022.022-.022 0l-.022-.022l-.022.022c.045.045.067.045-.022.111a1 1 0 0 0-.245 0c.045.022.089.067.089.089l-.045.045c-.022-.022-.022 0-.022 0c-.067 0-.089.111-.111.156c.045.111.089.045.111 0Zm-6.571 3.007c.045.045.134.089.178.022c-.021-.068-.154-.134-.177-.023Zm.312.067v-.045c-.043-.068-.11.066.001.044Zm5.057-1.27a.6.6 0 0 0-.29-.156c-.022-.022-.022 0-.022 0c-.045-.045-.067.022-.089.045c-.067 0-.111.134-.089.156s.045.022.045.045h-.022c0-.022 0-.022-.022-.022c0-.022.045-.022.089-.022c0 .022 0 .022.022.022c0 .022 0 .022.022.022c0 .022 0 .022.022.022c0 .022 0 .022.022.022v.022h.067c.022-.045.067.045.089.045c.022.022.067.045.089.022v-.022c-.022-.111.045-.156.067-.2Zm-.088-1.022c.022.022.022-.022.045-.022c.022.022.067-.022.045-.045c.022-.022 0-.022 0-.022c.045-.045.111.045.156.067l.022.022l.022.022l.022.022c-.022.022 0 .022.022.022c.022.022.045.045.067.022c.022.022.022 0 .022 0c.022 0 .045 0 .089.045c.022-.045.045-.045.067-.045c.022.022.022 0 .022 0c.022.022.045-.022.067-.045c.022.022.022 0 .022 0c.022.022.022 0 .045-.022c.022.022.022 0 .022-.022c.022-.022.022-.022 0-.045c.067-.045-.067-.111-.089-.067c-.022-.022-.045-.045-.067-.022c-.022-.022-.022 0-.022 0c-.022-.022-.022 0-.045.022a.08.08 0 0 1-.067-.022c-.022-.022-.022 0-.022 0c-.022-.022-.022-.022-.045 0h-.045c-.022-.022-.022 0-.022 0c-.022-.022-.022 0-.022 0l-.022.022c-.022-.022-.045 0-.067 0l-.022-.022c-.2-.156-.423.134-.2.134Zm-2.428 1.337c.022.067.178.089.223.045c.022 0 .022 0 .022-.022c.022 0 .022 0 .022-.022c.022 0 .022-.067 0-.067c0-.022 0-.067-.022-.067s-.022 0-.022-.022c-.022 0-.022 0-.022-.022v-.022c-.067-.045-.111-.111-.2-.134c-.111.089-.022.267-.111.4c.067.089.067-.022.111-.067Zm3.453-1.671c-.022.022 0 .022 0 .022l-.022.022c.045.045.045.089.111.156a.37.37 0 0 1 .446 0c.111-.2.022-.334-.156-.446c-.089.045-.178.022-.245.089c-.022-.022-.022 0-.022 0c0 .022-.022 0-.022 0c-.022-.022-.022 0-.022 0c-.022-.022-.089.067-.045.067c-.022.022 0 .022 0 .022l-.022.022c-.022.022-.022.022 0 .045Zm-2.05 1.734c-.022 0-.022-.045-.067-.045c-.022.067.067.089.067.045m2.361-2.072c-.089-.044.045.067 0 0m-4.188 2.049c-.022 0-.045-.022-.089-.022a.17.17 0 0 0-.022.111c.089.023.089-.066.111-.089m-.6 1.693c.021 0-.001-.022-.001 0Zm.29.089c0-.045-.134-.045-.134 0h-.045c0-.089-.089 0-.022.022c.022.045-.067.067.022.067c.022 0 .022 0 .022.022c.022 0 .022 0 .022.022c.022 0 .022.022.022.045h.086c0-.022.022-.022.045-.022c-.022-.067-.022-.045 0-.111c0-.045 0-.045-.022-.045ZM17 27.281c.022.022.045.022.045 0c.067.022.089-.022.156-.022c0 .022.045.022.067.022c0 .045.134.045.111-.022c.111-.178 0-.423-.2-.356c0 .134-.022.178-.2.156c0-.022-.022-.022-.045-.022l-.29-.245c0-.022 0-.067-.022-.067c-.022-.223.089-.356-.022-.468c-.022.089-.156.089-.156.223c-.022 0-.022 0-.022.022a1 1 0 0 0 0 .267v.022c-.022 0-.022.022-.022.045c-.022 0-.022.045-.022.067c-.045-.022-.045.089 0 .089c0 .045.022.045.045.045c.045.134-.089.245.045.312c.134-.134.245-.111.379 0c-.022-.089.134 0 .156-.067Zm2.138-1.515l.089-.356c.245.178.267-.111.468-.156c.022-.045.022-.111.089-.156c-.067-.022 0-.067-.045-.134c-.067-.022-.111-.089-.178-.089a.32.32 0 0 1 .089.223c-.2.045-.379.134-.535.045c-.045 0-.045-.045-.111-.022c0 .022 0 .022-.022.022h-.022c0 .022 0 .022-.022.022v.089c.045-.022.045.089 0 .089c-.022.022.022.111-.022.111c0 .022 0 .067-.022.067c-.045 0 0 .067-.022.111c-.067.089.178.29.267.134Zm-1.178.334c.022-.067-.022-.067-.022-.134c-.223-.045-.312.334-.423.2c0-.022 0-.022-.022-.022c0-.022 0-.022-.022-.022c0-.022 0-.022-.022-.022c0-.022-.045-.022-.067-.022c0-.022-.067-.022-.067 0c-.022 0-.022 0-.022.022c-.022 0-.022 0-.022.022c-.022 0-.022 0-.022.022v.022c-.022 0-.022.022-.022.045H17.2c.022.045-.045.134.045.134h.022v.022c-.089-.022-.089.045-.156.089c-.089 0-.2-.045-.267 0v.089c.111.067.156-.067.29-.045c0 .045.045.067.089.089c-.022.045.089.045.089 0c.045 0 0-.111.022-.156c.022 0 .022 0 .022-.022s.022-.022.045-.022c.156 0 .156.178.312.156c.089-.156.067-.4.245-.446Zm4.277-.557c0 .022.045.022.067.022c-.004-.043-.023-.021-.067-.021Zm.267.557c.022 0 .022-.022-.004 0Zm-6.059 1.6c0-.045.022-.045.022-.067a.145.145 0 0 0-.2.045c-.022 0-.022 0-.022.022h-.022l-.134.111c-.022-.067-.2-.067-.134.022c0 .022 0 .022.022.022c0 .045-.111.022-.134.067c-.022 0-.022 0-.022.022c-.022 0-.022 0-.022.022c-.022 0-.022 0-.022.022v.022c-.022 0-.022 0-.022.022c.022.067.045.111.111.134c0-.089.045-.111.045-.156v-.045c.022 0 .022-.045.022-.067l.134-.022v-.067h.045c0 .089.089 0 .156.022c0 .022 0 .022.022.022c0 .022.022.022.045.022c.022.045.134.022.156.045c.045-.089-.045-.134-.045-.223Zm3.586-1.225a.6.6 0 0 0 .067-.334c.022 0 .022-.022 0-.022c-.022-.067-.045-.045 0-.111l-.089-.022c0-.022 0-.067-.022-.067v-.067c.045 0 .045-.022.045-.067c.134 0 .067-.2.045-.245a.24.24 0 0 1-.2-.045c-.045.022-.067.067-.111.111c.067.022.022.089.045.178l-.134.067a.3.3 0 0 0-.111-.178c0 .111-.111-.045-.156.045c-.022 0-.045 0-.045.022c-.089.045-.022.223 0 .267c-.045.045-.134.045-.245.045c0-.022-.045-.022-.045 0h-.022a.17.17 0 0 0-.2 0c0 .111.022.178.111.2c0 .022.045.022.067.022c0 .022.022.022.022 0c.022 0 .045 0 .045-.022c.156-.067.29.067.423 0c.045 0 .045-.022.045-.045c.022-.067.111-.067.2-.067c.045.045.045.111.045.2c-.022 0-.022.045-.022.067c-.022 0-.022.045 0 .045c-.022.111.156.045.156.134c-.045.089-.134.134-.156.223c.089.022.178.178.089.267a.36.36 0 0 0-.156.2l.267-.178l-.022-.089h.133c.067-.2.29-.245.29-.49c-.134.067-.334.067-.356-.045Zm-5.279 1.136h-.089c-.022.049.089.049.089.004Zm1.938-2.027c-.022-.045-.022-.045-.045-.045c0-.022 0-.022-.022-.022c.022-.045-.045-.022-.045-.067c-.134.089-.29.156-.334.334c-.045.111-.2.111-.312.067a.24.24 0 0 1-.134.156h-.022c0-.022-.045-.022-.045 0h-.267a.7.7 0 0 0 .022.223a.3.3 0 0 0 .2.045c0 .022 0 .022.022.022c0 .022.022.022.045.022c0 .022.045.022.067.022c0 .045.111.045.111 0c.022 0 .022 0 .022-.022c.022 0 .045 0 .045-.022c.022 0 .022 0 .022-.022c.022 0 .045 0 .045-.022c.022 0 .022 0 .022-.022c.2-.111.446-.624.691-.312c-.022-.022-.045-.022-.045.022c-.022 0-.022.067 0 .067c0 .022.022.022.045.022h.045c.134.045-.022-.2.134-.156c0-.2-.245-.134-.267-.29m-2.25 2.272c-.022 0-.045 0-.045-.022c-.022 0-.067 0-.067-.022c-.089-.022-.067.089-.134.111a.13.13 0 0 1-.022.089c-.022.045.022.067.022.111l.067.022h.022c0-.022.022-.022.045-.022c0-.022.022-.022.067-.022c0-.022.022-.022.045-.022c0-.022.022-.022.045-.045c0-.022 0-.022.022-.022c0-.022 0-.022.022-.022a1 1 0 0 0-.089-.134c.022.022 0 .022 0 0m-2.116-1.047a.02.02 0 0 1 .022-.022c-.022.004-.022.004-.022.027Zm-1.492-2.205c-.022-.022 0-.022 0-.067a.1.1 0 0 1-.045-.022c0 .022 0 .045.022.045a2 2 0 0 0 .245.423c.022-.022.022-.045.022-.089c.045-.156-.156-.223-.245-.29Zm1.893 2.296c0-.022-.022-.022 0 0c-.022-.045-.022-.045-.045-.045c0-.022-.022-.022-.045-.022c0-.022 0-.022-.022-.022c0-.022-.045-.022-.045 0h-.045c0-.111-.067-.022-.134-.067a.3.3 0 0 0 .045.178l.223.223v-.022c.022 0 .022-.022.022-.045c.022 0 .022-.022.022-.045c.045.022.045-.134.022-.134Zm1.247.8c0 .045.045.067.067.089a.5.5 0 0 1 .178-.022c0 .022 0 .022.022.045a.17.17 0 0 0 .089-.045l-.178-.156a.2.2 0 0 0-.178.089m.78.512c0-.022 0-.045-.022-.045c-.023.028 0 .05.022.05Zm.022.022c0-.017-.022-.017 0 .005Zm0-.646c.022 0 .022-.022.022-.067h-.045c.023.028.023.028.023.072Zm-.022.022c.022 0 .045 0 .045-.022c-.045.005-.045.005-.045.027Zm-.869.134V27.7a.17.17 0 0 0-.022.111h.067c-.023-.04-.023-.062-.045-.062Zm.646.223a.9.9 0 0 0 .2.2a.27.27 0 0 0-.2-.267Zm-.312-.045v-.111a.24.24 0 0 1-.178-.022l-.134.022v.022c.045 0 0 .067.022.111c.022 0 .022 0 .022.022c.022 0 .045 0 .045.022c.022 0 .022.022.022.045c.022 0 .045 0 .045.022c.022 0 .045 0 .045.022a.02.02 0 0 1 .022.022l.067.022c0-.045.022-.067.022-.089c-.022-.067-.022-.111 0-.111Zm.78-.29c.156-.022.134-.111.267-.156c.089.022.089-.045.111-.089c.045 0 .045-.022.045-.045c.022 0 .022-.045 0-.045v-.022h.022c.022-.067-.134-.045-.134-.022c-.022 0-.022 0-.022.022c-.022 0-.045 0-.045.022c-.022 0-.022 0-.022.022c-.022 0-.022.022-.022.045c-.022 0-.022 0-.022.022c-.022 0-.045 0-.045.022c-.022 0-.022 0-.022.022h-.134c0-.022-.022-.022-.045-.022c0-.022 0-.045-.022-.045c.022-.156-.067-.223.022-.267c-.111.022-.156-.022-.245-.045c-.134.045-.245.2-.379.178c-.022-.111-.067-.223-.089-.356c-.067-.022-.089 0-.156 0c.022-.111-.156-.134-.178-.156v.045c-.045-.022-.045.089 0 .089l.134.045l.022.2c.067 0 .111.067.134.134c-.022 0-.022 0-.022.022v.022c-.022 0-.045 0-.045.022c-.022 0-.067 0-.067.022c-.022 0-.067 0-.067.022c-.022 0-.045 0-.045.022c-.022 0-.022 0-.022.022c-.156 0-.156-.156-.379-.134c-.022.067-.067.134 0 .178c.022 0 .022.022.022.045c.022 0 .045 0 .045.045c.022 0 .022 0 .022.022c.022 0 .022 0 .022.022c.022-.022.089 0 .111.022c.022 0 .045 0 .045.022c.022 0 .022 0 .022.022c.022 0 .045 0 .045.022a.02.02 0 0 1 .022.022a1 1 0 0 1 .089-.156a1 1 0 0 1 .156.067a.3.3 0 0 1 .2 0a.17.17 0 0 1-.022.178c.022.022.045.022.045.045v.022c.022 0 .067 0 .067.022c.022 0 .045 0 .045.022c.022 0 .022 0 .022.022l.045.022l-.134-.178c.045-.045 0-.156.089-.156c0-.022 0-.022.022-.022a.33.33 0 0 1 .156-.067a.13.13 0 0 1 .089.022h.05v-.045c.022 0 .022.022.022.045c.045 0 .067 0 .067.022c.022 0 .022 0 .022.022c.022 0 .022 0 .022.022c.022 0 .045 0 .067.045c0-.022.022-.022 0 0Zm-.356-.067c0 .022 0 .045.022.045c0-.017 0-.039-.022-.039Zm5.836-1.114c0-.022-.022-.022 0 0c-.045 0-.022.022 0 0c-.023.049 0 .028 0 .006Zm-3.809 1.158c-.022 0-.022.022-.022.045c.022.006.022-.016.022-.039Zm0 .111c0 .022 0 .067.022.067c0-.038 0-.06-.022-.06Zm0 .067c0 .022 0 .067.022.067c0-.038.022-.06-.022-.06Zm0-.067v-.06a.033.033 0 1 0 0 .067Zm.134.2c.045.067.134.2.223.156c-.09-.037-.112-.149-.225-.149Zm-.111-.089c0 .045.022.045.045.045c-.002-.015-.024-.015-.046-.038Zm.535.267c-.045-.022-.134-.111-.178-.045c.178 0 .089.156.2.2c-.023-.036-.09-.081-.023-.147Zm-.49-.223c0 .022.022.022.045.022c-.002-.014-.024-.014-.047-.014Zm-5.19-3.119a.1.1 0 0 0-.156-.111c-.156.022-.089.312-.022.423c0 .022 0 .022.022.022c-.022.067.045.045.089.045a.135.135 0 0 0 .178-.022c.022-.134-.045-.178-.089-.245c0-.045.022-.111-.022-.111Zm.045.691c0 .045 0 .089.045.089c0-.022.022-.045.022-.089Zm.156.045c.111-.022.134 0 .223-.067a.17.17 0 0 0-.156-.134c.022.067-.067.022-.089.067c.042.074-.025.097.02.142Zm.512.423a.25.25 0 0 0-.134-.067h-.067c-.045-.045-.156 0-.223-.022c0-.022-.022-.022-.022 0c-.022 0-.022.022-.022.045c-.022 0-.022.022-.022.045c-.022 0-.022 0-.022.022c-.022 0-.022 0-.022.022c-.022 0-.022.022 0 .022v.067c-.067-.022-.022.045 0 .045c0 .022 0 .022.022.022c0 .022 0 .067.022.067s.045 0 .045.022h.086c0-.022.022-.022.045-.022c.045-.022.111-.022.134-.089c.022 0 .045 0 .045-.022a.12.12 0 0 0 .089-.045c.022 0 .022 0 .022-.022c.022 0 .022 0 .022-.022c.022 0 .022 0 .022-.022c0 .006 0-.038-.022-.038Zm2.918 1.893c-.134 0-.223.134-.156.2c.223.022.29.178.468.178c0-.045 0-.067.022-.089a1 1 0 0 1-.336-.281Zm-3.987-3.653l-.045-.022c-.022 0-.022 0-.022-.022H11.1c-.022 0-.022 0-.022.022c-.045 0-.045.022-.045.045c-.022 0-.022 0-.022.022v.022c-.045-.022-.045.089 0 .089c0 .022 0 .022.022.022c0 .022 0 .022.022.022c0 .022.045.022.045 0h.022c0-.022 0-.022.022-.022c0-.022 0-.022.022-.022s.022 0 .022-.022s0-.022.022-.022V24.2c-.022 0-.045-.022-.022-.045Zm1.582 3.1l.089.067v-.067c-.069.026-.092.004-.092.004Zm-1.158-1.292c-.022-.045-.022-.045-.045-.045l.067.089c-.003-.018-.003-.04-.025-.04Zm7.6 1.247v.067c.067 0 .111 0 .111-.067a.1.1 0 0 0-.118.005Zm-.757-.334c.022 0 0-.022 0 0c-.022-.045-.022-.045-.045-.045c-.067-.022-.2-.022-.2-.156c0-.022 0-.022-.022-.022c0-.022 0-.067-.022-.067c0-.022 0-.022-.022-.022c0-.022-.045-.022-.067-.022c0-.022-.045-.022-.045 0c-.022 0-.045 0-.045.022c-.022 0-.022 0-.022.022h-.022c-.022 0-.022 0-.022.022h-.022c-.022 0-.022 0-.022.022c-.045 0-.067 0-.067.045c-.022 0-.022 0-.022.022c-.045 0-.045.111 0 .111c0 .022 0 .045.022.045c0 .022 0 .045.022.045l.089.134c.045.089 0 .156-.134.134c0 .045-.045.045-.022.111c.045.045.089-.022.156 0c.022-.067.022-.134.089-.156c0 .045.111.045.111 0l-.022-.089c.022 0 .022 0 .022-.022c.089-.022.067.089.067.156a.5.5 0 0 0 .312-.045c-.022-.022.045-.223-.045-.245m.379-.379c0-.022-.045-.022-.045 0l-.156.022c-.067-.022-.111-.156-.178-.111c-.045.223.223.29.356.4c.022-.067.156-.156.089-.267c-.022-.045-.045-.045-.067-.045Zm-.913 1.381v.067c.037.027.037-.062-.008-.062Zm1.715-1.247c0-.022-.045-.022-.067-.022c0-.022-.045-.022-.045 0c-.111.022-.156-.022-.223.045c-.111 0-.2.022-.2.134c.111.045.156.156.334.156c-.022-.067.022-.045.022-.111c.111 0 .267-.067.223-.156c0-.045-.022-.045-.045-.045ZM18 27.927c.045 0 0 .111.067.111c.049-.044-.018-.155-.067-.111m-.089-.446c-.022 0-.067 0-.067.022h-.022c0 .045-.022.134.045.111c0 .022.022.022.022 0c.048-.021.004-.114.026-.132Zm3.052-1.359c0-.022-.045-.022-.045 0c-.022 0-.022.022 0 .022c.004.024.049.024.049-.021Zm-.936-.267c.049.068.049-.088.004.001ZM17 27.794c0 .022.024.022 0 0m.379.468l.111-.022h.022a.14.14 0 0 0 0-.134a.2.2 0 0 1-.134.156Zm-.356-.624c-.022 0-.022.022-.022.045c.023-.001.023-.023.023-.045Zm-.023.156v-.134c-.021.022-.021.156 0 .134m.067-.178c-.022 0-.045 0-.045.022c.024 0 .047 0 .047-.023Zm.067.245a.55.55 0 0 0 .379.223a.41.41 0 0 0-.378-.223Zm-.111-.045c.001.022.023.022.001 0Zm.022.022c0 .022.045.022.089.022c.001-.022-.043-.022-.088-.022Zm-4.277-1.426c0 .022.045.022.067.022a.08.08 0 0 0-.066-.021Zm1.225-.2c-.022 0-.022.022-.022.045s0 .045-.022.045c0 .022 0 .045-.022.045v.067c.022 0 .067 0 .067.022h.022c0-.022.022-.022.045-.045v-.022c-.022 0-.022-.022 0-.022v-.067a.17.17 0 0 1 .022-.111c-.045.022-.111 0-.089.045Zm0-.067a.08.08 0 0 0 .067-.022a.08.08 0 0 0-.065.022Zm-.045-.334c.024-.089-.065 0 .002 0Zm1.2.6a.13.13 0 0 0 .089-.134c-.067-.067-.156 0-.2.022c.004.069.027.114.116.114Zm-.134-.111c.005-.021-.014 0 .005 0Zm-1.314-.823c.089-.022.111.022.178.022l-.022-.089c-.067-.022-.156.022-.223.045c.022.045-.022.111.022.134v.022c.022 0 .022 0 .045.022a.2.2 0 0 1 0-.156m-.067.045v-.045c.022 0 .022 0 .022-.022c.045 0 .028.089-.017.067Zm.223.624c-.067.045-.134-.022-.156.045c-.022 0-.022.022-.022.045c-.022 0-.022 0-.022.022c-.045 0-.045.022-.045.045h-.022c.022.089-.022.045-.022.156c.272.087.405-.18.294-.314Zm.8.2h.045c0 .045.134.045.111-.022c.134.022.156-.089.178-.178c.022 0 .022-.022.022-.045c.022 0 .022-.045.022-.067c.022 0 .022-.067 0-.067c0-.022 0-.022-.022-.022c0-.022 0-.045-.022-.045c0-.022 0-.022-.022-.022c0-.022 0-.022-.022-.022c0-.022 0-.022-.022-.022c0-.022-.067-.067-.045 0c-.045 0-.045.022-.045.045c-.134.022-.2.134-.178.312c-.045.022-.045.156 0 .156Zm-.757-.646v-.2h-.022a.08.08 0 0 0 .022.067a.26.26 0 0 1-.223.045c0 .045.045.067.089.089c0-.022 0-.022.022-.022v.021Zm.067.178c0-.022 0-.067-.022-.067l.022.334h.022c0-.022.045-.022.067-.022a.25.25 0 0 1 .178 0c0 .022.045.022.045 0c.022 0 .022 0 .022-.022a1.4 1.4 0 0 0 .223-.49c.022 0 .022 0 .022-.022c.156-.067-.156-.089-.178-.045c-.045.022-.111-.022-.134.022h-.022c-.022.089-.134.067-.111.178c-.022 0-.022.022-.022.045c-.089-.022-.067.045-.111.089Zm1.136 1.27c.022-.178.334-.178.334-.312c-.022.045-.045-.067-.045-.111a.45.45 0 0 0-.4.423c0-.022 0-.045.022-.045c-.013.067.051.022.095.045Zm1.559-.958c.029 0 .007-.022.007 0Zm.423-.512c.007.022-.015-.001.007-.001Zm-.045-.022c-.022.067 0-.067-.067-.022l-.022.156c.067 0 .156-.067.089-.134M15.4 27.7c-.045.022-.045.089-.022.089c.045.089.134-.045.067-.089c-.003-.062-.045-.04-.045 0m2-1.849c.022 0 .022-.022 0 0c.045-.022.045-.022.045-.045c.022 0 .022 0 .022-.022c.022 0 .022 0 .022-.022c.045 0 .045-.022.045-.067a.109.109 0 0 0-.067-.178c-.022 0-.022 0-.022-.022v-.022a.6.6 0 0 0-.2-.022a.56.56 0 0 0 0 .423c-.022.067.178.045.156-.022Zm-4.567.579c.045 0 .045-.022.045-.045a.05.05 0 0 0-.042.05Zm2.651.111c.003.028-.019.005.003.005Zm-2.718-.134v-.067a.033.033 0 1 0 .003.073Zm0-.111c-.022 0-.022.022-.022.045c.025.005.025-.018.025-.041Zm.022-.045c-.022 0-.022.022-.022.045c.026.004.026-.017.026-.039Zm-.624-1c-.045 0-.045.111.022.089c.022.111.111-.022.156-.022c.022-.089-.134-.156-.178-.067m.713 1.025v.067c.023.003.023-.064.004-.064Zm-.4-.824c-.022.045-.022.045-.022.067a.036.036 0 1 0 .025-.064Zm.49-.29V25.1c-.022 0-.022-.022-.022-.045c-.022 0-.022 0-.022-.022H12.9c0 .022-.022.022-.022 0h-.111c-.045.045-.089.067-.089.156a.17.17 0 0 0 .2.045c0-.022 0-.022.022-.022a.2.2 0 0 1 .067-.045Zm.356 2.294c.045 0 .089.045.134 0l-.022-.089c-.086-.019-.109.026-.109.093Zm-.223-1.868c0 .022 0 .045.022.045l.156.4c.379 0 .2-.668-.134-.579c0 .022 0 .022-.022.022c0 .022 0 .022-.022.022c0 .022 0 .022-.022.022c0-.045 0 .067.022.067Zm.178.646c-.045-.022-.067 0-.089.022c-.022 0-.022 0-.022.022c-.022 0-.022 0-.022.022c-.022 0-.022 0-.022.022c-.045 0 0 .067-.022.111c.022.022.045.022.089.022v.022l.089.022c.022.067.156.045.2.022c.022-.178-.089-.223-.2-.29Zm-.334-.045c0 .022.022.022.045.022c.003-.021-.019-.021-.041-.021Zm-.067.178c.023.023.023.001.004.001Zm.245-.178c-.022 0-.045 0-.045.022Zm-.045.022h-.089c-.018.023.093.023.093.001Z"/></g><path fill="#6c4317" d="M22.1 23.2a10.8 10.8 0 0 1-4.656 2.228a7 7 0 0 1-1.158.29c-.267 0-.512-.089-.824-.089a6 6 0 0 1-1.114 0c-.4-.067-1.092-.468-1.693-.668c-.334-.111-.646-.089-.913-.2a2.18 2.18 0 0 1-1.069-1.025a3.14 3.14 0 0 1 .869-2.807c.134-.089.29-.089.446-.2c.29-.2.446-.512.668-.624c.178-.089.379-.111.579-.2c.49-.223.936-.579 1.448-.824a6.1 6.1 0 0 1 2.072-.446c1.648-.156 3.208-.579 4.7-.668c.78-.045.846.2 1.4.446l.49.089c.111.067.29.245.446.334c.223.134.4.134.49.245a1.66 1.66 0 0 1 .2 1.114c-.045.223-.267.379-.49.624c-.178.2-.29.49-.446.668c-.446.6-1.158 1-1.448 1.715Z"/><path fill="#a3b34f" d="M22.1 23.071a10.8 10.8 0 0 1-4.653 2.229a7 7 0 0 1-1.158.29c-.267 0-.512-.089-.824-.089a6 6 0 0 1-1.114 0c-.4-.067-1.092-.468-1.693-.668c-.334-.111-.646-.089-.913-.2a2.18 2.18 0 0 1-1.069-1.025a3.21 3.21 0 0 1 .869-2.829c.134-.089.29-.089.446-.2c.29-.2.446-.512.668-.624c.178-.089.379-.111.579-.2c.49-.223.936-.579 1.448-.824a6.1 6.1 0 0 1 2.072-.446c1.648-.156 3.208-.579 4.7-.668c.78-.045.846.2 1.4.446l.49.089c.111.067.29.245.446.334c.223.134.4.134.49.245a1.66 1.66 0 0 1 .2 1.114c-.045.223-.267.379-.49.624c-.178.2-.29.49-.446.668c-.446.624-1.158 1.025-1.448 1.738Z"/><path fill="#dde072" d="M17.8 18.75a28 28 0 0 1 3.052-.49a2.52 2.52 0 0 1 1.648.446c.535.267 1.381.668 1.2 1.559a9 9 0 0 1-.735 1.114c-.178.223-.535.423-.78.735c-.312.379-.535.8-.78 1.025c-.156.134-.379.156-.579.29c-.29.2-.49.512-.824.668a4 4 0 0 0-.49.156a6.8 6.8 0 0 1-1.4.624a4 4 0 0 1-.535 0a11 11 0 0 1-1.158.29a8 8 0 0 1-1.648-.045c-.178-.022-.334-.2-.579-.29c-1.27-.423-3.141-.4-2.807-2.428a4.7 4.7 0 0 1 .379-.735c.111-.223.111-.468.2-.579c.111-.156.4-.267.624-.446a5 5 0 0 1 1.559-.913z"/><path fill="#eaeca2" d="M18.2 18.861c2.473-.891 5.814.735 4.121 2.9a7.8 7.8 0 0 1-1.158 1.114a3.7 3.7 0 0 1-.735.334a9.3 9.3 0 0 1-1.849.869a19 19 0 0 1-2.428.334c-.312.045-.6.178-.913.2a3.17 3.17 0 0 1-2.985-1.158c-.512-.891.512-2.094 1.069-2.317z"/><path fill="#6c4317" d="M21.234 21.311a3.3 3.3 0 0 0-.958-1.648a6.2 6.2 0 0 0-1.359-.824a2 2 0 0 0-.379-.089a4.12 4.12 0 0 0-3.652 1.05c-.178.134-.334.29-.334.423a.02.02 0 0 1-.022.022c-.022 0-.045.045-.134.089c-.557.446-.891 1.96-.579 2.317a1.4 1.4 0 0 0 .29.245a6.2 6.2 0 0 0 2.629.936h.958a1 1 0 0 0 .267-.022a2 2 0 0 0 .267-.045c1.313-.204 3.072-1.139 3.006-2.454"/><path fill="#633c11" d="M16.734 23.851a6.5 6.5 0 0 1-2.629-.936a1.4 1.4 0 0 1-.29-.245a2.44 2.44 0 0 1 .579-2.317c.111-.089.134-.111.156-.089c-.067-.29.8-.8.958-.78c-.178.089-.223.045-.379.29c.356-.134.646-.245.913 0c.178 0 .2-.2.29-.29c.022-.178-.111-.178-.089-.334c.178 0 .245.156.379.2c.067-.045.134-.512-.045-.49a1.2 1.2 0 0 1 .379-.089c.089.045-.022.045-.089.045c-.2.312-.045.824.379.78c.134-.134 0-.557.334-.49c-.045.156.045.178.045.29a5.3 5.3 0 0 0 1.069-.535c0 .089 0 .446.2.49c-.111.468-.245.891-.735.958c-.022.356.067.824-.245.869c-.045-.334.134-.646 0-.913c-.29.045-.312.334-.446.535h-.379c.356.178-.557.557-.089.958c.2-.067.535-.267.735-.045a.4.4 0 0 1-.2.29c.089.111.223.178.245.334c.067 0 .089-.2.089 0c.067-.045.067-.156.156-.2c.223.245.356-.089.535.156c.111-.089.022-.356-.089-.379c.045-.2.223 0 .29-.089c.045-.245-.156-.245-.156-.446c.067-.067.2-.045.334-.045c-.067.267.089.29.2.379c0 .156-.134.178-.089.379c.067.111.245.045.156.245h.2c.067-.2.2-.29.334-.535c-.111-.111-.045-.446-.2-.535a.3.3 0 0 1 .379-.2c.045.29-.111.4-.2.579c.111.134.334.067.49.245c.089 0 .067-.134.2-.089l-.089-.245c-.045.045-.111.045-.2.045c.045-.178.446-.223.334-.379c.2-.2.557.067.624.29c-.089.045-.356.29-.089.334a2.9 2.9 0 0 1-.824 1.069a.46.46 0 0 0-.334-.156a.8.8 0 0 1-.731.24a1.14 1.14 0 0 1-.334.579a.3.3 0 0 0-.156-.045a.6.6 0 0 1 .045-.29a1.58 1.58 0 0 0-.98.6h-.936ZM14.8 20.4c-.089-.022 0-.067 0-.156c-.156.045-.267.379-.245.446c.089-.089.111-.223.2-.29c-.003.02.019.043.045 0"/><path fill="#6c4317" d="M30.768 23.272v-.2a.6.6 0 0 0-.022-.2l-.022-.2v-.045l-.024-.157a.08.08 0 0 0-.022-.067l-.022-.134a.08.08 0 0 0-.022-.067a1 1 0 0 0-.022-.111l-.022-.067c-.022-.045-.022-.089-.045-.111c0-.022 0-.045-.022-.045a.4.4 0 0 1-.045-.156c-.156-.423-.49-.735-.624-1.158a8 8 0 0 0-.245-.913c-.223-.49-.691-.869-.958-1.359a5 5 0 0 1-.312-.624a5.5 5.5 0 0 0-.6-.98a7 7 0 0 0-.739-.69a8.5 8.5 0 0 0-2.027-1.114a5.9 5.9 0 0 0-2.272-.446a6.5 6.5 0 0 0-1.515.2a6 6 0 0 0-1.225.4a6.3 6.3 0 0 0-1.671 1.247a9.3 9.3 0 0 0-1.314 1.337a2 2 0 0 0-.156.29l-.134.334a.5.5 0 0 0-.045.178h.111l.423-.045l.134-.045l.958-.111l.8-.134a19 19 0 0 1 2.384-.334h.178a1.36 1.36 0 0 1 .668.134a3.36 3.36 0 0 1 1.6.757a1.9 1.9 0 0 1 .535.2c.691 1.27-.134 2.651-.668 3.542c-.111.356-.512.4-.668.735c-.2.379-.156.936-.49 1.27c-.178.267-.535.356-.624.691c-.156.111-.4.089-.423.312v.089A20 20 0 0 0 24.13 26.5a7.9 7.9 0 0 0 3.052.668c.4-.022.49-.2.78-.334c.2-.089.446-.134.579-.2a6 6 0 0 0 1.069-.958a4 4 0 0 0 .958-1.114a2.7 2.7 0 0 0 .223-1.2c-.022-.067-.022-.067-.022-.089Z"/><path fill="#a3b34f" d="M30.5 21.712c-.156-.423-.49-.735-.624-1.158a8 8 0 0 0-.245-.913c-.223-.49-.691-.869-.958-1.359a10.3 10.3 0 0 0-.913-1.6A7.3 7.3 0 0 0 25 14.9a5.9 5.9 0 0 0-3.787-.245a5.3 5.3 0 0 0-2.9 1.648c-.691.646-1.426 1.136-1.648 2.138h.111l.423-.045l.134-.045l.958-.111l.8-.134a19 19 0 0 1 2.384-.334h.178a1.36 1.36 0 0 1 .668.134a3.36 3.36 0 0 1 1.6.757a1.9 1.9 0 0 1 .535.2c.691 1.27-.134 2.651-.668 3.542c-.111.356-.512.4-.668.735c-.2.379-.156.936-.49 1.27c-.178.267-.535.334-.624.668c-.134.156-.423.067-.446.334a20 20 0 0 0 2.562 1.025a7.9 7.9 0 0 0 3.052.668c.4-.022.49-.2.78-.334c.2-.089.446-.134.579-.2a6 6 0 0 0 1.069-.958a4 4 0 0 0 .958-1.114a4.1 4.1 0 0 0-.067-2.784Z"/><path fill="#dde072" d="M29.432 20.688c-.134-.312-.134-.646-.245-.913c-.2-.468-.668-.846-.913-1.314a7.3 7.3 0 0 0-.914-1.561a7.36 7.36 0 0 0-3.987-2.027a6.56 6.56 0 0 0-4.7 1.738c-.579.579-1.225.98-1.359 1.693l.958-.111l.8-.134a19 19 0 0 1 2.384-.334h.178a1.36 1.36 0 0 1 .668.134a3.36 3.36 0 0 1 1.6.757a1.9 1.9 0 0 1 .535.2c.691 1.27-.134 2.651-.668 3.542c-.111.356-.512.4-.668.735c-.2.379-.156.936-.49 1.27c-.178.267-.557.334-.646.691c0 .022-.067.067-.067.067c-.022 0 .045.022.089.022a20.7 20.7 0 0 0 4.259 1.357a3.56 3.56 0 0 0 2.138-.535a3 3 0 0 0 .446-.334a3.94 3.94 0 0 0 1.4-2.384a5.3 5.3 0 0 0-.8-2.562Z"/><path fill="#eaeca2" d="M28.028 19.485a9.57 9.57 0 0 0-4.3-3.185a4.98 4.98 0 0 0-4.01.78a2.06 2.06 0 0 0-.624.824c0 .022-.111.156-.022.2h.045a19 19 0 0 1 2.383-.334h.178a1.36 1.36 0 0 1 .668.134a3.36 3.36 0 0 1 1.6.757a1.9 1.9 0 0 1 .535.2c.691 1.27-.134 2.651-.668 3.542c-.111.356-.512.4-.668.735c-.2.379-.156.936-.49 1.27a3.8 3.8 0 0 0 1.2.49a3.74 3.74 0 0 0 2.384.49a2.9 2.9 0 0 0 1.693-1.359a2.9 2.9 0 0 0 .668-1.27a5.2 5.2 0 0 0-.572-3.274"/><path fill="#949952" d="M25.533 19.418a.14.14 0 0 0-.045-.111a4 4 0 0 0-.178-.468a2.3 2.3 0 0 0-.646-1a3.1 3.1 0 0 0-1.693-.824H22.1a2.22 2.22 0 0 0-1.448.446a2 2 0 0 0-.423.312a.4.4 0 0 0-.067.134c.446-.067.913-.134 1.337-.156h.178a1.44 1.44 0 0 1 .869.245a2.2 2.2 0 0 0 .4.2c.045.022.134.022.2.045a.7.7 0 0 1 .29.067a1.6 1.6 0 0 1 .223.178a1.6 1.6 0 0 0 .223.178a2 2 0 0 0 .245.111a.54.54 0 0 1 .267.156a1.77 1.77 0 0 1 .245.98a2 2 0 0 1-.022.356a.6.6 0 0 1-.2.334a3.5 3.5 0 0 1-.6 1.782A10 10 0 0 0 25 21.824a3.38 3.38 0 0 0 .533-2.406"/><path fill="#b0ad51" d="M24.91 18.126a.07.07 0 0 1-.067.067c-.446-.178-.8-.668-1.27-.512a.72.72 0 0 1-.757-.245a2 2 0 0 0-.223-.089c-.334-.156-.356-.067-.356-.067c.045.111.223.067.245.134c-.089.111-.245.022-.29-.134c0-.022-.089 0-.089 0s-.846.089-.846.446c-.111-.134-.4-.022-.334.067a6 6 0 0 1 .579-.045h.178a1.44 1.44 0 0 1 .869.245a2.2 2.2 0 0 0 .4.2c.045.022.134.022.2.045a.7.7 0 0 1 .29.067a1.6 1.6 0 0 1 .223.178a1.6 1.6 0 0 0 .223.178a2 2 0 0 0 .245.111a.54.54 0 0 1 .267.156a1.46 1.46 0 0 1 .223.646a6.4 6.4 0 0 1 .98.691v.135a3.22 3.22 0 0 0-.691-2.272Z"/></svg>