<svg xmlns="http://www.w3.org/2000/svg" xmlns:xlink="http://www.w3.org/1999/xlink" width="32" height="32" viewBox="0 0 32 32"><path fill="#7FAECC" d="M27.4 5.5h-9.2l-2.1 4.2H4.3v16.8h25.2v-21h-2.1Zm0 18.7H6.6V11.8h20.8v12.4Zm0-14.5h-8.2l1-2.1h7.1l.1 2.1Z"/><path fill="#7FAECC" d="M25.7 13.7H.5l3.8 12.8h25.2l-3.8-12.8Z"/><path fill="#00DC82" d="M20.376 27.816h8.863a1.6 1.6 0 0 0 1.389-.792a1.564 1.564 0 0 0 0-1.58l-5.953-10.168a1.59 1.59 0 0 0-.587-.579a1.62 1.62 0 0 0-1.603 0a1.593 1.593 0 0 0-.587.58l-1.522 2.6l-2.976-5.086a1.6 1.6 0 0 0-.587-.58a1.622 1.622 0 0 0-1.604 0a1.594 1.594 0 0 0-.587.58L7.215 25.443a1.564 1.564 0 0 0 0 1.582a1.615 1.615 0 0 0 1.388.791h5.564c2.204 0 3.83-.955 4.949-2.818l2.715-4.638l1.455-2.482l4.366 7.455h-5.82l-1.456 2.483Zm-6.3-2.485l-3.882-.001l5.82-9.94l2.904 4.97l-1.944 3.322c-.743 1.208-1.587 1.649-2.898 1.649Z"/></svg>