<svg xmlns="http://www.w3.org/2000/svg" xmlns:xlink="http://www.w3.org/1999/xlink" width="32" height="32" viewBox="0 0 32 32"><path fill="#cc9a69" d="M27.4 5.5h-9.2l-2.1 4.2H4.3v16.8h25.2v-21Zm0 18.7H6.6V11.8h20.8Zm0-14.5h-8.2l1-2.1h7.1v2.1Z"/><path fill="#cc9a69" d="M25.7 13.7H.5l3.8 12.8h25.2l-3.8-12.8z"/><path fill="#fba919" d="M16.433 15.1s.36 1.387.411 1.85s-.925 1.489-.925 2a2.007 2.007 0 0 0 1.336 1.9a2.356 2.356 0 0 1 1.284 2.363a10.489 10.489 0 0 1-.411 2.106s-.256 3.442 1.13 4.058s1.079.623 1.387.623s2.57.923 3.9.566a3.651 3.651 0 0 0 1.7-.768a1.742 1.742 0 0 0 1.747-1.079a13.943 13.943 0 0 0 .513-4.778c-.154-1.13-.359-2.619.565-3.133s1.9-1.13 1.747-1.644a3.975 3.975 0 0 0-.975-1.233a5.093 5.093 0 0 1-.052-1.592c.154-.308 1.079-1.079.565-1.644a2.173 2.173 0 0 0-1.44-.571l-1.181.1a7.244 7.244 0 0 0-4.624-1.7a6.955 6.955 0 0 0-4.263 1.7a2.64 2.64 0 0 0-1.644 0c-.771.316-.924.007-.77.876ZM21 12.812a1.189 1.189 0 0 1-.718-.439a2.486 2.486 0 0 0-2-1.085a9.027 9.027 0 0 0-2.15.288l.934.589c.1 0 .271 0 .556.008a1.43 1.43 0 0 1 1.35 1.2L23.1 12.8m2.327.008a1.187 1.187 0 0 0 .717-.439a2.482 2.482 0 0 1 2-1.085a8.962 8.962 0 0 1 2.15.287l-.934.589c-.1 0-.271 0-.557.008a1.43 1.43 0 0 0-1.35 1.2l-4.125-.568"/><path fill="#e78724" d="M21.127 22.75s-1.017 1.556-1.764 2.66c-.115.171.75.182.75.182Zm.485-3.225s-.307.765-.475 1.171c-.182.441-.877.66-.877.66a2 2 0 0 0 .36-1.336c0-.4.519-.561.519-.561l.473.066Zm-.31.436a1.606 1.606 0 0 1-1.795.329c-1.167-.419-1.287-1.915-1.287-2.334s2.214.419 2.513.6s.867.9.569 1.407ZM16.9 11.969a2.474 2.474 0 0 1 1.8.357a3.28 3.28 0 0 1 .925 1.019l-1.208.96a1.553 1.553 0 0 1-.764-1.049c-.179-.778-.06-1.137-.75-1.287Zm4.088 5.831a2.506 2.506 0 0 0-1.838-.993a2.375 2.375 0 0 0-1.535.287s1.7.075 2.2.717c.914 1.2 2.25 1.3 2.462 1.034a1.136 1.136 0 0 1-.809-.385a4.47 4.47 0 0 1-.48-.66Zm-2.876 2.325s-1.891-.65-1.532-1.308s.075-1.017.075-1.017s-1.057.791-.79 1.629c.165.513.443.886 1.966 1.6c.731 1.357.15 3.8.185 3.811c.058.019 1.026-.479.96-2.763c-.021-.7-.075-1.66-.867-1.95Zm2.475-6.988c-.793.4-1.875.964-1.875.964l.427.214c-.04.066-.061.105-.061.105l.439.2s1.071.775 1.725 1.275a11.086 11.086 0 0 0-.861-1.732a1.153 1.153 0 0 1 .209-1.024Zm2.633 16.415c-2.437 0-3.262-1.237-3.262-1.237l.381.927a4.267 4.267 0 0 0 2.876 1.652m-2.988-3.412s.225 1.37 1.125 1.37c.763 0 .988-1.157.988-1.4l-2.109.026Zm-1.494-2.066a9.836 9.836 0 0 0 .45-1.915a21.514 21.514 0 0 0 .069-2.382s-.24.928-.45 1.077a4.758 4.758 0 0 0-.6 1.167s-.209 1.514-.308 2.025c.275.055.506-.107.838.03Zm-2.167-6s.508-.18.658-1.286a4.975 4.975 0 0 0-.179-2.065a7.128 7.128 0 0 1-.15 1.825c-.179.3-.329.388-.538.777a.577.577 0 0 0 .209.75ZM25.3 22.75s1.017 1.556 1.764 2.66c.116.171-.75.182-.75.182Zm-.484-3.225s.306.765.474 1.171c.183.441.878.66.878.66a1.988 1.988 0 0 1-.36-1.336c0-.4-.519-.561-.519-.561l-.473.066Zm.309.436a1.606 1.606 0 0 0 1.8.329c1.167-.418 1.286-1.914 1.286-2.334s-2.214.419-2.513.6s-.868.9-.569 1.407Zm4.407-7.992a2.474 2.474 0 0 0-1.8.359a3.284 3.284 0 0 0-.925 1.017l1.21.959a1.557 1.557 0 0 0 .765-1.05c.179-.778.06-1.137.75-1.286ZM25.443 17.8a2.5 2.5 0 0 1 1.838-.993a2.375 2.375 0 0 1 1.533.287s-1.7.075-2.2.717c-.914 1.2-2.25 1.3-2.46 1.034a1.133 1.133 0 0 0 .808-.385a4.551 4.551 0 0 0 .481-.66Zm2.876 2.325s1.89-.65 1.531-1.308s-.075-1.017-.075-1.017s1.056.789.787 1.626c-.165.514-.443.887-1.966 1.6c-.73 1.357-.15 3.8-.185 3.811c-.058.019-1.025-.479-.959-2.763c.021-.7.077-1.658.867-1.949Zm-2.479-6.986c.793.4 1.875.964 1.875.964l-.427.214c.04.066.06.106.06.106l-.438.2s-1.071.776-1.725 1.275a11.086 11.086 0 0 1 .861-1.732a1.151 1.151 0 0 0-.206-1.027Zm-2.632 16.416c2.436 0 3.262-1.237 3.262-1.237l-.38.927a4.267 4.267 0 0 1-2.875 1.649m2.985-3.412s-.225 1.37-1.125 1.37c-.763 0-.988-1.157-.988-1.4Zm1.5-2.066a9.909 9.909 0 0 1-.45-1.915a21.514 21.514 0 0 1-.068-2.382s.239.928.45 1.077a4.829 4.829 0 0 1 .6 1.167s.208 1.514.307 2.025c-.274.055-.505-.107-.837.03Zm2.167-6s-.508-.18-.658-1.286a5.008 5.008 0 0 1 .179-2.065a7.173 7.173 0 0 0 .15 1.825c.179.3.329.388.539.777a.58.58 0 0 1-.21.747Zm-6.649-2.441a2.275 2.275 0 0 1-1.335-.3s.521.913 1.334.913a1.817 1.817 0 0 0 1.335-.913a2.272 2.272 0 0 1-1.337.3Z"/><path fill="#fff" d="M21.4 19.212a1.625 1.625 0 0 1-1.416.379c-.858-.18-1.376-.559-1.416-1.217a1.353 1.353 0 0 1 .18-.917a5 5 0 0 1 1.416.7c.459.4.8 1.037 1.236 1.057Zm-1.337 7.151a1.489 1.489 0 0 1 0-.591a2.71 2.71 0 0 0-.715-.254c-.189-.12-1.162.123-1.868-.73c-.884-1.069-.7-1.708-.7-1.708c-.225.252-.45.156-.792 1.331a2.544 2.544 0 0 0 1.11 2.815a3.018 3.018 0 0 0 1.625.61c-.182-.183.311-.2.652-.329a.91.91 0 0 1 .225-.756a1.149 1.149 0 0 1 .45-.269l.025-.061c.001-.021-.005-.039-.01-.058Zm4.964-7.151a1.624 1.624 0 0 0 1.416.379c.858-.18 1.376-.559 1.416-1.217a1.353 1.353 0 0 0-.18-.917a5 5 0 0 0-1.416.7c-.456.393-.798 1.035-1.234 1.055Zm1.336 7.151a1.489 1.489 0 0 0 0-.591a2.71 2.71 0 0 1 .715-.254c.19-.12 1.163.123 1.869-.73c.884-1.069.7-1.708.7-1.708c.225.252.45.156.792 1.331a2.543 2.543 0 0 1-1.11 2.815a3.018 3.018 0 0 1-1.625.61c.183-.183-.311-.2-.651-.329a.913.913 0 0 0-.225-.756a1.164 1.164 0 0 0-.45-.269l-.026-.061a.4.4 0 0 0 .014-.057Z"/><path fill="#c9c9c9" d="M20.726 19.012a1.526 1.526 0 0 1-1.026.042a1.149 1.149 0 0 1-.756-.975s-.435 1.275.785 1.521a1.781 1.781 0 0 0 1.556-.369l-.559-.22ZM19.375 27.5c-.019-.058-.034-.116-.049-.176s-.094-.247 0-.039a.715.715 0 0 1-.053-.164c-1.535 0-2.871-1.056-2.613-3.27c-.2-.267-.482.537-.482.537s-.763 2.231 1.219 3.095a3.057 3.057 0 0 0 1.383.412a.693.693 0 0 0 .643-.274a1.402 1.402 0 0 1-.048-.122Zm6.325-8.488a1.526 1.526 0 0 0 1.026.042a1.149 1.149 0 0 0 .756-.975s.434 1.275-.784 1.521a1.78 1.78 0 0 1-1.556-.369l.558-.22Zm1.355 8.488c.02-.058.035-.116.05-.176s.094-.247 0-.039a.827.827 0 0 0 .053-.164c1.534 0 2.87-1.056 2.611-3.27c.2-.267.482.537.482.537s.768 2.231-1.215 3.095a3.057 3.057 0 0 1-1.383.412a.693.693 0 0 1-.644-.274a1.15 1.15 0 0 0 .049-.122Z"/><path fill="#463014" d="M18.064 18.55v-.006v.006Zm-.211-.785a.587.587 0 0 1 .267-.466c-.176-.065-.348-.14-.53-.19A3.559 3.559 0 0 1 21 18.412a1.181 1.181 0 0 0 1.457.359a.887.887 0 0 1-.355.624a.868.868 0 0 1-.517.158a2.237 2.237 0 0 1-.565 1.353a2.065 2.065 0 0 0 .109-1.036a3.072 3.072 0 0 0-.138-.338a1.78 1.78 0 0 1-2.236-.257a2.536 2.536 0 0 1-.515-1.409a1.9 1.9 0 0 0-.174.678a1.293 1.293 0 0 1-.213-.779Zm1.165-.054a1.445 1.445 0 0 0 .284 1.432a1.4 1.4 0 0 0 1.551.058a6.508 6.508 0 0 0-1.835-1.49Zm2.88 9.457h-1.206a.526.526 0 0 0-.389.117a.285.285 0 0 0-.036.324a2.129 2.129 0 0 0 .563.744a.749.749 0 0 0 .482.172a.608.608 0 0 0 .45-.183a2.984 2.984 0 0 0 .535-.793a.247.247 0 0 0-.036-.273a.5.5 0 0 0-.361-.108Zm6.469-8.618v-.006v.006Zm-4.391.221a1.181 1.181 0 0 0 1.456-.359a3.559 3.559 0 0 1 3.408-1.3c-.182.05-.354.125-.53.19a.587.587 0 0 1 .267.466a1.3 1.3 0 0 1-.211.779a1.9 1.9 0 0 0-.173-.677a2.548 2.548 0 0 1-.515 1.408a1.782 1.782 0 0 1-2.237.257a3.317 3.317 0 0 0-.137.338a2.061 2.061 0 0 0 .109 1.035a2.228 2.228 0 0 1-.565-1.353a.871.871 0 0 1-.518-.158a.892.892 0 0 1-.354-.626Zm1.6.43a1.4 1.4 0 0 0 1.552-.058a1.445 1.445 0 0 0 .284-1.432a6.5 6.5 0 0 0-1.835 1.489Zm.55 8.083a.523.523 0 0 0-.387-.118h-1.207a.5.5 0 0 0-.363.109a.249.249 0 0 0-.037.273a3.024 3.024 0 0 0 .535.793a.612.612 0 0 0 .45.183a.757.757 0 0 0 .482-.173a2.12 2.12 0 0 0 .562-.744a.281.281 0 0 0-.034-.323ZM23.212 17.7c.525-.006 1.121-.73 1.121-.73a2.018 2.018 0 0 1-2.241 0s.597.723 1.12.73Zm6.453 5.316a2.983 2.983 0 0 1 .847 2.905a2.779 2.779 0 0 1-1.945 2.243a3.419 3.419 0 0 1-2.738 2.03a3.928 3.928 0 0 1-2.614.806a3.932 3.932 0 0 1-2.616-.808a3.421 3.421 0 0 1-2.736-2.03a2.777 2.777 0 0 1-1.944-2.243a2.98 2.98 0 0 1 .846-2.905a2.893 2.893 0 0 0 1 1.775a22.463 22.463 0 0 0 .159-2.54a1.373 1.373 0 0 0-.5-1.069c-.105-.06-.221-.122-.339-.187c-.738-.395-1.658-.887-1.658-1.794a1.319 1.319 0 0 1 .634-1.141c.032-.024.062-.046.089-.068a.625.625 0 0 0 .177-.178a3.25 3.25 0 0 0 .068-1.543a2.126 2.126 0 0 1-.482-1.606a1.093 1.093 0 0 1 .579-.7a1.983 1.983 0 0 1 .8-.178a.592.592 0 0 1 .039-.248a1.119 1.119 0 0 0 .038-.331a1.232 1.232 0 0 0-.089-.461a2.079 2.079 0 0 0-1.189-.722l-.5-.1l.333-.39a2.8 2.8 0 0 1 1.894-.718a3.249 3.249 0 0 1 .988.16a4.789 4.789 0 0 1 2.026 1.626c.079-.026.16-.044.241-.066a2.167 2.167 0 0 1 1.155-2c.017.185-.017.909.293 1.131c.091-.591.4-1.242 1.605-1.669a2.023 2.023 0 0 0 .075 1.528c.825-.75 1.38-.625 1.38-.625a2.534 2.534 0 0 0-.35 1.6c.126.033.252.064.376.1a4.8 4.8 0 0 1 2.023-1.623a3.219 3.219 0 0 1 .988-.161a2.8 2.8 0 0 1 1.9.717l.333.39l-.507.1a2.088 2.088 0 0 0-1.192.723a1.22 1.22 0 0 0-.088.462a1.112 1.112 0 0 0 .037.33a.6.6 0 0 1 .04.247a1.972 1.972 0 0 1 .8.178a1.1 1.1 0 0 1 .579.7a2.131 2.131 0 0 1-.483 1.606a3.25 3.25 0 0 0 .069 1.543a.613.613 0 0 0 .177.178c.027.022.057.044.089.068A1.316 1.316 0 0 1 31 19.2c0 .907-.92 1.4-1.658 1.794c-.121.065-.237.127-.341.188a1.373 1.373 0 0 0-.5 1.069a22.463 22.463 0 0 0 .159 2.54a2.891 2.891 0 0 0 1.005-1.777ZM26.33 12.877c.065.028.132.049.2.079a3.085 3.085 0 0 1 .3.155a1.977 1.977 0 0 1 .834-.919a2.1 2.1 0 0 1 1.561-.319a2.176 2.176 0 0 1 .391-.234a2.649 2.649 0 0 0-1.013-.205a2.34 2.34 0 0 0-.724.112a3.656 3.656 0 0 0-1.549 1.331Zm1.932.983a1.075 1.075 0 0 0 .2-.7a1.588 1.588 0 0 1 .179-.73c.034-.049.082-.083.119-.128a1.348 1.348 0 0 0-.824.283a2.074 2.074 0 0 0-.546.934a3.159 3.159 0 0 1 .418.461c.153-.045.301-.093.454-.12Zm-9.642.117a3.146 3.146 0 0 1 .418-.46a2.07 2.07 0 0 0-.548-.936a1.348 1.348 0 0 0-.824-.283c.037.046.086.08.119.129a1.574 1.574 0 0 1 .18.73a1.076 1.076 0 0 0 .205.7c.153.031.3.078.45.12Zm1.286-1.019c.064-.03.13-.05.194-.078a3.662 3.662 0 0 0-1.548-1.334a2.346 2.346 0 0 0-.725-.112a2.648 2.648 0 0 0-1.012.205a2.2 2.2 0 0 1 .39.233a2.1 2.1 0 0 1 1.562.319a1.979 1.979 0 0 1 .835.923a3.109 3.109 0 0 1 .304-.156Zm-1.4 9.109a27.541 27.541 0 0 1-.144 3.106a5.245 5.245 0 0 0 1.6.279c.087-.178.183-.352.252-.538c.027-.075.8-2.091 1.082-2.55a18.5 18.5 0 0 1-.963 3.66a1.836 1.836 0 0 1 .486-.015h4.794a1.878 1.878 0 0 1 .48.014a18.573 18.573 0 0 1-.963-3.659c.279.459 1.055 2.475 1.082 2.55a5.475 5.475 0 0 0 .252.538a5.243 5.243 0 0 0 1.6-.279a27.308 27.308 0 0 1-.143-3.106a1.714 1.714 0 0 1 .782-1.4c.112-.064.225-.127.345-.191c.609-.329 1.24-.67 1.24-1.252a.8.8 0 0 0-.365-.75l-.02-.016c-.028-.02-.05-.046-.076-.068c.031.2.059.4.1.6a3.8 3.8 0 0 1-.645-1.819a4.533 4.533 0 0 1 .209-1.765c0 .214.015.426.031.639c.014-.045.02-.092.036-.137a1.586 1.586 0 0 0 .384-1.09a.5.5 0 0 0-.276-.32a1.359 1.359 0 0 0-.619-.12a4.886 4.886 0 0 0-1.35.245a10.093 10.093 0 0 0-2.625 1.547l-.017.014l-.225.158l.143-.239a5.234 5.234 0 0 1 2.191-1.888a2.134 2.134 0 0 0-.9-.64a6.9 6.9 0 0 0-3.049-.646a6.891 6.891 0 0 0-3.049.648a2.16 2.16 0 0 0-.9.638a5.238 5.238 0 0 1 2.192 1.888l.142.239l-.225-.158l-.017-.014a10.093 10.093 0 0 0-2.625-1.547a4.886 4.886 0 0 0-1.35-.245a1.362 1.362 0 0 0-.619.12a.5.5 0 0 0-.275.32a1.585 1.585 0 0 0 .383 1.09c.016.045.022.092.036.138c.016-.213.034-.426.031-.64a4.514 4.514 0 0 1 .209 1.765a3.8 3.8 0 0 1-.645 1.819c.038-.2.067-.4.1-.606a.83.83 0 0 1-.076.069l-.02.016a.8.8 0 0 0-.364.75c0 .582.63.923 1.239 1.252c.12.064.234.127.345.191a1.717 1.717 0 0 1 .781 1.405Zm-.806 5.374h.523a2.741 2.741 0 0 0 .088.265a2.912 2.912 0 0 0 .845.114a1.25 1.25 0 0 1 .106-1.211h-.016a5.944 5.944 0 0 0 .4-.575a3.08 3.08 0 0 1-3.028-1.861a2.981 2.981 0 0 0 .15 2.422a2.885 2.885 0 0 0 .932.846Zm2.2 1.96a5.788 5.788 0 0 1-.492-.931a7.122 7.122 0 0 1-.763-.1A2.874 2.874 0 0 0 19.9 29.4Zm3.316 1.031a3.508 3.508 0 0 0 3.484-2.657a.94.94 0 0 0-.035-.945a1.287 1.287 0 0 0-1.011-.3h-4.875a1.285 1.285 0 0 0-1.01.3a.938.938 0 0 0-.035.945a3.506 3.506 0 0 0 3.481 2.657Zm4.571-2.063a7.122 7.122 0 0 1-.763.1a5.78 5.78 0 0 1-.5.933a2.874 2.874 0 0 0 1.262-1.033Zm2.029-4.195a3.087 3.087 0 0 1-3.028 1.861c.1.161.209.322.328.472c.025.032.043.069.07.1h-.011a1.25 1.25 0 0 1 .1 1.21a2.843 2.843 0 0 0 .844-.114c.031-.087.065-.172.088-.263h.52a2.866 2.866 0 0 0 .937-.846a2.977 2.977 0 0 0 .151-2.42Z"/></svg>