<svg xmlns="http://www.w3.org/2000/svg" xmlns:xlink="http://www.w3.org/1999/xlink" width="32" height="32" viewBox="0 0 32 32"><path fill="#999" d="M27.35 5.542h-9.227l-2.083 4.2H4.433v16.8h25v-21zm0 4.2h-8.135l1.091-2.1h7.044z"/><path d="M20.91 14.457h1.687v16.297H20.91z"/><path d="M23.813 15.81a6.738 6.774 0 0 0-6.739 6.775a6.738 6.774 0 0 0 6.739 6.774a6.738 6.774 0 0 0 6.738-6.774a6.738 6.774 0 0 0-6.738-6.775m.02 1.628a5.14 5.168 0 0 1 5.141 5.167a5.14 5.168 0 0 1-5.14 5.168a5.14 5.168 0 0 1-5.14-5.169a5.14 5.168 0 0 1 5.14-5.166"/></svg>