<svg xmlns="http://www.w3.org/2000/svg" xmlns:xlink="http://www.w3.org/1999/xlink" width="32" height="32" viewBox="0 0 32 32"><path fill="#7baddb" d="M27.4 5.5h-9.2l-2.1 4.2H4.3v16.8h25.2v-21Zm0 18.7H6.6V11.8h20.8Zm0-14.5h-8.2l1-2.1h7.1v2.1Z"/><path fill="#7baddb" d="M25.7 13.7H.5l3.8 12.8h25.2z"/><path fill="#0a6ec9" d="M9.842 15.246L20.4 10l10.558 5.246v.693L20.4 21.185l-10.558-5.23Z"/><path fill="#0568c1" d="M9.842 15.246L20.4 20.492l10.558-5.246v10.508L20.367 31L9.842 25.754Z"/><path fill="#0663b4" d="M20.4 30.984V20.492L9.908 15.279h-.066v10.475L20.367 31Z"/><path fill="#add4f7" d="m14.148 13.118l10.541 5.246l2.145-1.056l-10.575-5.246Z"/><path fill="#99c7f2" d="m24.689 18.364l2.145-1.056v3.3l-.577-.1l-.61.742l-.957-.066Z"/><path fill="#f2f2f2" d="M18.222 24.682L14.659 22.9c-.2-.1-.363.017-.363.264v2.392a.76.76 0 0 0 .363.627l3.58 1.782c.2.1.363-.017.363-.264v-2.409a.78.78 0 0 0-.38-.61m-.808 1.963l-2.277-1.138a.4.4 0 0 1-.181-.33c0-.132.082-.2.181-.148l2.277 1.138a.4.4 0 0 1 .181.33c.005.131-.082.197-.181.148m.33-.825l-2.606-1.32a.4.4 0 0 1-.181-.33c0-.132.082-.2.181-.148l2.606 1.32a.4.4 0 0 1 .181.33c.001.148-.082.198-.181.148"/></svg>