<svg xmlns="http://www.w3.org/2000/svg" xmlns:xlink="http://www.w3.org/1999/xlink" width="32" height="32" viewBox="0 0 32 32"><path fill="#7bd7db" d="M27.4 5.5h-9.2l-2.1 4.2H4.3v16.8h25.2v-21Zm0 18.7H6.6V11.8h20.8Zm0-14.5h-8.2l1-2.1h7.1v2.1Zm-1.7 4H.5l3.8 12.8h25.2Z"/><path fill="#fff" d="m28.621 22.783l-.126.07l-1.283.7a.1.1 0 0 1-.105.009q-.69-.38-1.383-.755l-.038-.024l.061-.039l1.356-.754a.116.116 0 0 1 .093 0q.69.38 1.376.765a.141.141 0 0 1 .049.028Zm-2.24 2.182a.109.109 0 0 0-.053-.071q-.708-.388-1.418-.773l-.064-.03v1.393a.116.116 0 0 0 .057.076c.363.206.728.409 1.092.612l.387.215c.002-.487.003-.953-.001-1.422Zm1.579 1.4l1.456-.811c.044-.024.045-.055.045-.095V24.1h-.017q-.742.4-1.486.809a.081.081 0 0 0-.033.059v1.418ZM13.406 22.8c.466.254.932.509 1.4.76a.117.117 0 0 0 .1-.006q.681-.366 1.358-.738l.056-.033l-.044-.03q-.69-.386-1.382-.768a.111.111 0 0 0-.094.006c-.272.148-.542.3-.812.45l-.6.339Zm.669 2.166a.1.1 0 0 0-.054-.07q-.707-.389-1.417-.773c-.019-.011-.039-.018-.065-.03v1.393a.113.113 0 0 0 .057.076c.363.206.728.409 1.092.612l.387.215v-1.425Zm1.587 1.4l1.443-.8a.089.089 0 0 0 .05-.092V24.1h-.021l-1.472.8a.1.1 0 0 0-.039.079v1.4Zm3.928-12.752l1.357.74a.1.1 0 0 0 .105 0q.681-.373 1.364-.744c.016-.009.031-.022.048-.033c-.008-.008-.011-.013-.016-.015q-.7-.394-1.41-.786a.107.107 0 0 0-.089.007c-.134.07-.265.146-.4.22l-1.024.571a.716.716 0 0 1 .065.04Zm.641 3.533v-1.375c0-.052-.028-.065-.062-.083l-1.4-.764c-.021-.012-.044-.022-.069-.034v1.39c0 .05.028.065.062.084l1.4.783c.021.012.044.022.07.035a.112.112 0 0 1-.001-.036Zm3.034-2.239c-.484.263-.967.527-1.452.788c-.045.024-.044.055-.044.094v1.395l.041-.019c.483-.27.966-.541 1.45-.809c.044-.024.045-.055.045-.094V14.89a.287.287 0 0 0-.04.018Z"/><path fill="#007f7c" d="M15.907 28.45q2.262 1.26 4.525 2.529a.124.124 0 0 0 .138 0q2.262-1.26 4.526-2.528c.026-.014.05-.029.082-.048l-.086-.051c-.5-.278-1-.555-1.494-.84a.142.142 0 0 0-.16 0l-2.86 1.6a.137.137 0 0 1-.155 0q-1.435-.805-2.875-1.608a.116.116 0 0 0-.131 0c-.506.286-1.015.568-1.523.852c-.02.01-.04.024-.068.042a.657.657 0 0 0 .081.052Z"/><path fill="#7f7c00" d="m10.984 20.524l-.005-.6c0-1.328-.02-2.64-.02-3.968a.1.1 0 0 1 .071-.106c1.3-.618 3.221-1.634 4.517-2.254c.023-.012.117-.063.15-.077v1.767a.093.093 0 0 1-.065.1c-.762.363-2.2 1.182-2.963 1.544a.1.1 0 0 0-.071.1c0 .764.011 1.753.014 2.514a.1.1 0 0 1-.058.1l-1.57.88Z"/><path fill="#7c007f" d="M28.384 19.646a.1.1 0 0 1-.058-.1c0-.761.014-1.75.014-2.514a.1.1 0 0 0-.07-.1c-.762-.362-2.2-1.181-2.963-1.544a.093.093 0 0 1-.066-.1v-1.773c.033.014.128.065.151.077c1.3.62 3.221 1.636 4.516 2.254a.1.1 0 0 1 .071.106c0 1.328-.02 2.64-.02 3.968v.6s-1.059-.589-1.575-.874Z"/><path fill="#7f0000" d="M24.539 14.394v2.078a.116.116 0 0 1-.07.119q-1.953 1.089-3.906 2.182a.116.116 0 0 1-.131 0q-1.954-1.093-3.907-2.181a.112.112 0 0 1-.066-.113v-4.164a.112.112 0 0 1 .065-.114q1.955-1.086 3.907-2.18a.126.126 0 0 1 .139 0q1.944 1.09 3.893 2.173a.131.131 0 0 1 .076.132v2.067Z"/><path fill="#fff" d="m19.02 12.742l1.425.777a.106.106 0 0 0 .111 0q.714-.392 1.432-.781c.017-.009.032-.023.05-.035c-.008-.008-.011-.013-.016-.015q-.736-.414-1.481-.826a.115.115 0 0 0-.094.008c-.14.073-.278.153-.42.231l-1.075.6c.03.017.048.027.068.041Zm.673 3.71v-1.444c0-.054-.029-.068-.065-.087l-1.47-.8c-.022-.013-.046-.023-.072-.036v1.46c0 .052.029.068.065.088l1.47.822c.022.013.046.023.073.037a.125.125 0 0 1-.001-.04Zm3.186-2.352c-.508.276-1.015.554-1.524.828c-.048.025-.047.057-.047.1v1.465l.044-.02c.507-.283 1.014-.568 1.522-.849a.092.092 0 0 0 .048-.1v-1.442Z"/><path fill="#00007f" d="M31 24.055v2.078a.117.117 0 0 1-.069.119q-1.955 1.089-3.907 2.182a.116.116 0 0 1-.131 0q-1.953-1.092-3.907-2.181a.112.112 0 0 1-.066-.113v-4.164a.11.11 0 0 1 .065-.113q1.954-1.087 3.907-2.18a.122.122 0 0 1 .139 0q1.944 1.089 3.893 2.172a.13.13 0 0 1 .076.133v2.066Z"/><path fill="#fff" d="M25.48 22.4q.716.389 1.425.778a.11.11 0 0 0 .111 0q.715-.393 1.432-.782c.017-.009.033-.023.051-.034c-.009-.009-.012-.014-.017-.016q-.735-.414-1.481-.826a.112.112 0 0 0-.093.008c-.141.073-.279.153-.42.231l-1.076.6a.724.724 0 0 1 .068.041Zm.674 3.711V24.67c0-.055-.03-.069-.066-.088l-1.47-.8l-.072-.036V25.2c0 .053.029.068.065.088l1.47.823c.022.012.046.023.074.036a.094.094 0 0 1-.001-.033Zm3.186-2.352c-.509.276-1.016.554-1.525.828c-.047.025-.046.058-.046.1v1.464l.043-.02c.507-.283 1.014-.568 1.522-.849c.047-.025.048-.058.048-.1v-1.439a.408.408 0 0 0-.042.019Z"/><path fill="#007f00" d="M18.08 24.055v2.078a.114.114 0 0 1-.069.119q-1.954 1.089-3.906 2.182a.118.118 0 0 1-.132 0q-1.953-1.092-3.906-2.181A.111.111 0 0 1 10 26.14v-4.164a.11.11 0 0 1 .065-.113q1.954-1.087 3.906-2.18a.124.124 0 0 1 .14 0q1.944 1.089 3.893 2.172a.129.129 0 0 1 .075.133v2.066Z"/><path fill="#fff" d="m12.562 22.4l1.425.778a.108.108 0 0 0 .11 0q.716-.393 1.433-.782c.016-.009.032-.023.05-.034c-.008-.009-.012-.014-.017-.016q-.735-.414-1.48-.826a.115.115 0 0 0-.094.008c-.141.073-.278.153-.42.231l-1.075.6c.03.02.048.03.068.041Zm.673 3.711V24.67c0-.055-.029-.069-.065-.088l-1.47-.8c-.022-.012-.046-.023-.073-.036V25.2c0 .053.03.068.065.088l1.471.823c.022.012.046.023.073.036a.118.118 0 0 1-.001-.033Zm3.186-2.352c-.508.276-1.015.554-1.525.828c-.047.025-.046.058-.046.1v1.464l.043-.02c.507-.283 1.015-.568 1.523-.849c.046-.025.047-.058.047-.1v-1.439Z"/></svg>