<svg xmlns="http://www.w3.org/2000/svg" xmlns:xlink="http://www.w3.org/1999/xlink" width="32" height="32" viewBox="0 0 32 32"><defs><linearGradient id="vscodeIconsFolderTypeChangesetsOpened0" x1="303.46" x2="291.69" y1="-401.7" y2="-386" gradientTransform="matrix(1 0 0 -1 -281.64 -372.94)" gradientUnits="userSpaceOnUse"><stop offset="0" stop-color="#001b33"/><stop offset="1" stop-color="#006dcc"/></linearGradient><linearGradient id="vscodeIconsFolderTypeChangesetsOpened1" x1="300.45" x2="288.67" y1="-403.96" y2="-388.26" href="#vscodeIconsFolderTypeChangesetsOpened0"/><linearGradient id="vscodeIconsFolderTypeChangesetsOpened2" x1="298.46" x2="310.24" y1="-401.67" y2="-385.97" gradientTransform="matrix(1 0 0 -1 -281.64 -372.94)" gradientUnits="userSpaceOnUse"><stop offset="0" stop-color="#0089d6"/><stop offset="1" stop-color="#6cf"/></linearGradient><linearGradient id="vscodeIconsFolderTypeChangesetsOpened3" x1="301.47" x2="313.25" y1="-403.93" y2="-388.23" href="#vscodeIconsFolderTypeChangesetsOpened2"/></defs><path fill="#7db4d3" d="M27.4 5.5h-9.2l-2.1 4.2H4.3v4H.5l3.8 12.8h25.2v-21Zm-7.2 2.1h7.1v2.1h-8.1Zm5.5 6.1H6.6v-1.9h20.8v7.63Z"/><path fill="url(#vscodeIconsFolderTypeChangesetsOpened0)" d="M19.94 22.32a7.84 7.84 0 0 0-7.85-7.85H8.16A7.86 7.86 0 0 0 16 22.32Z"/><path fill="url(#vscodeIconsFolderTypeChangesetsOpened1)" d="M19.94 22.32a7.85 7.85 0 0 1-7.85 7.85h-1.57a7.84 7.84 0 0 1 7.85-7.85Z"/><path fill="url(#vscodeIconsFolderTypeChangesetsOpened2)" d="M18.68 22.32a7.85 7.85 0 0 1 7.85-7.85h3.93a7.86 7.86 0 0 1-7.85 7.85Z"/><path fill="url(#vscodeIconsFolderTypeChangesetsOpened3)" d="M18.68 22.32a7.86 7.86 0 0 0 7.85 7.85h1.57a7.84 7.84 0 0 0-7.85-7.85Z"/><path fill="#08c" d="M19.31 19.24a7.84 7.84 0 0 1 0 6.16a7.84 7.84 0 0 1 0-6.16"/></svg>