<svg xmlns="http://www.w3.org/2000/svg" xmlns:xlink="http://www.w3.org/1999/xlink" width="32" height="32" viewBox="0 0 32 32"><path fill="#dbaf7b" d="M27.4 5.5h-9.2l-2.1 4.2H4.3v4H.5l3.8 12.8h25.2v-21Zm-7.2 2.1h7.1v2.1h-8.1Zm5.5 6.1H6.6v-1.9h20.8v7.6Z"/><path fill="#a86749" d="M27.3 16.881a7.815 7.815 0 0 1 1.575 1.419a4.666 4.666 0 0 1 .17 6.087a5.186 5.186 0 0 1-3.162 1.765a9.328 9.328 0 0 1-3.381-.073a11 11 0 0 0-1.609-.176a.9.9 0 0 0-1.046.724v.015a.944.944 0 0 0 .18.742a10.477 10.477 0 0 0 .848 1.108a2.175 2.175 0 0 1 .529.99a.787.787 0 0 1-.491.946a6.371 6.371 0 0 1-3.139.552a14.984 14.984 0 0 1-7.736-2.555a6.838 6.838 0 0 1-2.928-4.416a5.869 5.869 0 0 1 1-4.544a10.176 10.176 0 0 1 4.318-3.6a15.053 15.053 0 0 1 11.67-.6c.039.02 3.13 1.677 3.202 1.616Z"/><path fill="#3783ff" d="M11.246 22.676a2.47 2.47 0 0 1 1.595.514a1.126 1.126 0 0 1 .32 1.533a1.088 1.088 0 0 1-.32.328a2.768 2.768 0 0 1-3.2 0a1.128 1.128 0 0 1-.329-1.535a1.086 1.086 0 0 1 .336-.342a2.458 2.458 0 0 1 1.598-.498Z"/><path fill="#4de94c" d="M10.965 21.431a1.92 1.92 0 0 1-1.172-.371a.9.9 0 0 1-.3-1.214a.867.867 0 0 1 .29-.3a2.113 2.113 0 0 1 2.458.025a.887.887 0 0 1 .235 1.212a.864.864 0 0 1-.225.234a1.954 1.954 0 0 1-1.286.414Z"/><path fill="#fe0" d="M14.109 18.49a1.462 1.462 0 0 1-1.072-.385a.721.721 0 0 1-.087-1a.814.814 0 0 1 .087-.089a1.656 1.656 0 0 1 2.124 0a.721.721 0 0 1 .087 1a.678.678 0 0 1-.128.123a1.482 1.482 0 0 1-1.011.351Z"/><path fill="#4c1ac6" d="M15.858 25.412a2.8 2.8 0 0 1 1.793.568a1.234 1.234 0 0 1 .373 1.677a1.2 1.2 0 0 1-.373.382a3.158 3.158 0 0 1-3.6 0a1.237 1.237 0 0 1-.39-1.678a1.214 1.214 0 0 1 .4-.4a2.8 2.8 0 0 1 1.797-.549Z"/><path fill="#2a3e4f" d="M31 13.466a5.779 5.779 0 0 1-1.151 1.909a46.73 46.73 0 0 1-3.749 4.084a.512.512 0 0 1-.537.189a.677.677 0 0 1-.251-.153q-.429-.409-.844-.833a.475.475 0 0 1-.076-.653a.557.557 0 0 1 .052-.057a.664.664 0 0 1 .056-.052a48.492 48.492 0 0 1 4.1-3.7a8.543 8.543 0 0 1 1.421-.946a2.557 2.557 0 0 1 .507-.189a.353.353 0 0 1 .463.187v.014Z"/><path fill="#7e8c8d" d="M20 22.963a.08.08 0 0 1 .03.006A2.259 2.259 0 0 0 23 22.5a1.539 1.539 0 0 0 .412-1.21a1.173 1.173 0 0 0-1-1.006a1.025 1.025 0 0 0-.923.408a1.546 1.546 0 0 0-.284.657A2.574 2.574 0 0 1 20 22.938Z"/><path fill="#f89b36" d="M25.16 19.792c-.326-.327-.656-.651-.985-.976a.236.236 0 0 0-.33-.053h-.006a.252.252 0 0 0-.062.072q-.419.544-.831 1.092a.219.219 0 0 0 .008.3l.011.01q.369.366.739.728a.223.223 0 0 0 .313.029c.375-.277.751-.554 1.12-.839a.8.8 0 0 0 .136-.2a1.111 1.111 0 0 0-.113-.163Z"/><path fill="#ff8c00" d="M17.864 17.121a1.145 1.145 0 0 1-.859-.321a.617.617 0 0 1-.048-.856l.048-.05a1.286 1.286 0 0 1 1.7 0a.617.617 0 0 1 .048.857a.583.583 0 0 1-.08.077a1.167 1.167 0 0 1-.809.293Z"/><path fill="#8f9fa0" d="M20 22.963s3.915-1.136 2.659-2.614c0 0-.857-.393-1.454 1.007A3.932 3.932 0 0 1 20 22.963Z"/><path fill="#e9bb42" d="m23.305 20.585l1.374-1.272l-.5-.5a.239.239 0 0 0-.335-.045l-.008.006a.221.221 0 0 0-.055.063c-.2.259-1.153 1.07-.813 1.407Z"/><path fill="#32495d" d="M24.877 19.073L31 13.254s.041-.393-.468-.2s-.8-.177-6.093 4.9a.441.441 0 0 0 .024.71Z"/><path fill="#f60000" d="M21.721 17.41a1.152 1.152 0 0 1-.859-.321a.617.617 0 0 1-.048-.857a.555.555 0 0 1 .048-.049a1.286 1.286 0 0 1 1.7 0a.617.617 0 0 1 .048.855a.549.549 0 0 1-.082.078a1.156 1.156 0 0 1-.807.294Z"/></svg>