<svg xmlns="http://www.w3.org/2000/svg" xmlns:xlink="http://www.w3.org/1999/xlink" width="32" height="32" viewBox="0 0 32 32"><defs><linearGradient id="vscodeIconsFolderTypeLess0" x1=".865" x2=".865" y1="-481.202" y2="-471.891" gradientTransform="translate(19.712 502.891)" gradientUnits="userSpaceOnUse"><stop offset=".15" stop-color="#2a4f84"/><stop offset=".388" stop-color="#294e82"/><stop offset="1" stop-color="#172e4e"/></linearGradient></defs><path fill="#5580bf" d="M27.5 5.5h-9.3l-2.1 4.2H4.4v16.8h25.2v-21Zm0 4.2h-8.2l1.1-2.1h7.1Z"/><path fill="url(#vscodeIconsFolderTypeLess0)" d="M29.919 29.2a1.8 1.8 0 0 1-1.8 1.8H13.03a1.8 1.8 0 0 1-1.8-1.8v-5.715a1.8 1.8 0 0 1 1.8-1.8h15.093a1.8 1.8 0 0 1 1.8 1.8Z"/><path fill="#f6f6f6" d="M26.762 26.222a1.479 1.479 0 0 1 1.183 1.418a1.268 1.268 0 0 1-.49 1.048a2.2 2.2 0 0 1-1.4.419a3.419 3.419 0 0 1-1.681-.463a1.489 1.489 0 0 1 .12-.5a1.372 1.372 0 0 1 .262-.432a2.774 2.774 0 0 0 1.236.37a.724.724 0 0 0 .387-.082a.254.254 0 0 0 .134-.224q0-.265-.409-.4l-.49-.185q-1.114-.405-1.114-1.322a1.315 1.315 0 0 1 .467-1.062a1.94 1.94 0 0 1 1.258-.486a3.82 3.82 0 0 1 .863.11a3.416 3.416 0 0 1 .774.354a1.251 1.251 0 0 1-.1.542a.915.915 0 0 1-.285.419a3.2 3.2 0 0 0-1.245-.335a.408.408 0 0 0-.271.079a.254.254 0 0 0-.093.2q0 .211.338.335l.552.194Zm-3.94 0A1.479 1.479 0 0 1 24 27.64a1.269 1.269 0 0 1-.489 1.048a2.2 2.2 0 0 1-1.4.419a3.42 3.42 0 0 1-1.681-.463a1.486 1.486 0 0 1 .12-.5a1.366 1.366 0 0 1 .262-.432a2.777 2.777 0 0 0 1.237.37a.722.722 0 0 0 .39-.082a.255.255 0 0 0 .134-.224q0-.265-.409-.4l-.489-.185q-1.112-.405-1.112-1.321a1.314 1.314 0 0 1 .467-1.062a1.939 1.939 0 0 1 1.258-.486a3.816 3.816 0 0 1 .863.11a3.414 3.414 0 0 1 .774.354a1.251 1.251 0 0 1-.1.542a.915.915 0 0 1-.285.419a3.2 3.2 0 0 0-1.246-.335a.407.407 0 0 0-.271.079a.254.254 0 0 0-.093.2q0 .211.338.335l.552.194Zm-2.874.063a2.117 2.117 0 0 0-.129-.749a1.679 1.679 0 0 0-.369-.59a1.71 1.71 0 0 0-.582-.388a2.053 2.053 0 0 0-.769-.235a2.1 2.1 0 0 0-.885.271a1.692 1.692 0 0 0-.622.484a2.073 2.073 0 0 0-.365.727a3.3 3.3 0 0 0-.12.912a4.26 4.26 0 0 0 .1.943a1.971 1.971 0 0 0 .333.749a1.58 1.58 0 0 0 .614.493a2.2 2.2 0 0 0 .938.208a2.964 2.964 0 0 0 1.743-.534a1.4 1.4 0 0 0-.363-.811a4.641 4.641 0 0 1-.642.2a2.406 2.406 0 0 1-.492.059a.762.762 0 0 1-.611-.218a.89.89 0 0 1-.2-.578h2.313a3.335 3.335 0 0 0 .108-.943Zm-2.436.061a1.825 1.825 0 0 1 .163-.753a.474.474 0 0 1 .419-.2a.5.5 0 0 1 .437.211a1.312 1.312 0 0 1 .146.642v.1h-1.165Z"/><path fill="#f6f6f6" stroke="#404040" stroke-miterlimit="10" stroke-width=".25" d="M30.385 26.932a1.2 1.2 0 0 0-.4.949v1.539a1.358 1.358 0 0 1-.512 1.168a2.1 2.1 0 0 1-1.238.412h-.28v-.77a.93.93 0 0 0 .446-.251a1.027 1.027 0 0 0 .314-.785v-1.242a1.909 1.909 0 0 1 .193-.992a1.874 1.874 0 0 1 .9-.628a1.9 1.9 0 0 1-.993-.884a2.217 2.217 0 0 1-.1-.874v-1.139a1.094 1.094 0 0 0-.275-.79a.864.864 0 0 0-.486-.236v-.72h.7a1.257 1.257 0 0 1 .768.331a1.5 1.5 0 0 1 .505.757a1.748 1.748 0 0 1 .064.526v1.317a1.384 1.384 0 0 0 .372 1.037a1.585 1.585 0 0 0 .64.359v.6a1.457 1.457 0 0 0-.615.32ZM12.7 21.689h-.251a1.254 1.254 0 0 0-.768.331a1.283 1.283 0 0 0-.5.757a2.648 2.648 0 0 0-.029.526v1.317a1.4 1.4 0 0 1-.408 1.037a2.135 2.135 0 0 1-.736.359v.6a1.914 1.914 0 0 1 .71.32a1.229 1.229 0 0 1 .433.949v1.535a1.336 1.336 0 0 0 .477 1.168A2.1 2.1 0 0 0 12.86 31h.316v-.77a1.1 1.1 0 0 1-.482-.251a1.016 1.016 0 0 1-.278-.785v-1.242a1.887 1.887 0 0 0-.229-.992a1.872 1.872 0 0 0-.9-.628a1.9 1.9 0 0 0 .993-.884a2.143 2.143 0 0 0 .137-.874v-1.139a1.1 1.1 0 0 1 .239-.79a.985.985 0 0 1 .431-.2h.321v-.754H12.7Z"/><path fill="#f6f6f6" d="M15.653 27.932h-.24c-.261 0-.359-.137-.359-.413v-5.07a.942.942 0 0 0-.2-.642c-.113-.123-.308-.122-.587-.122h-.606v6.079a1.406 1.406 0 0 0 .264.93a1.081 1.081 0 0 0 .858.295a5.894 5.894 0 0 0 .952-.088a1.672 1.672 0 0 0 .027-.382a1.709 1.709 0 0 0-.107-.587Z"/></svg>