<svg xmlns="http://www.w3.org/2000/svg" xmlns:xlink="http://www.w3.org/1999/xlink" width="32" height="32" viewBox="0 0 32 32"><defs><linearGradient id="vscodeIconsFolderTypeFlowOpened0" x1="-235.911" x2="-235.873" y1="-171.036" y2="-171.046" gradientTransform="matrix(87.822 0 0 -88.533 20744.25 -15114.083)" gradientUnits="userSpaceOnUse"><stop offset="0" stop-color="#ffd441"/><stop offset="1" stop-color="#ffb047"/></linearGradient><linearGradient id="vscodeIconsFolderTypeFlowOpened1" x1="-235.679" x2="-235.66" y1="-172.644" y2="-172.6" gradientTransform="matrix(87.822 0 0 -88.533 20724.385 -15266.467)" gradientUnits="userSpaceOnUse"><stop offset="0" stop-color="#ffd754"/><stop offset="1" stop-color="#ffb532"/></linearGradient><linearGradient id="vscodeIconsFolderTypeFlowOpened2" x1="-235.02" x2="-235.02" y1="-173.45" y2="-173.412" gradientTransform="matrix(87.822 0 0 -88.533 20662.517 -15342.2)" gradientUnits="userSpaceOnUse"><stop offset="0" stop-color="#ffd642"/><stop offset="0" stop-color="#ffd441"/><stop offset="1" stop-color="#ffb532"/></linearGradient><linearGradient id="vscodeIconsFolderTypeFlowOpened3" x1="-234.582" x2="-234.633" y1="-172.909" y2="-172.897" gradientTransform="matrix(106.198 0 0 -88.551 24932.157 -15295.168)" gradientUnits="userSpaceOnUse"><stop offset="0" stop-color="#ffd441"/><stop offset="1" stop-color="#ffa829"/></linearGradient></defs><path fill="#dbad7b" d="M27.4 5.5h-9.2l-2.1 4.2H4.3v16.8h25.2v-21Zm0 18.7H6.6V11.8h20.8Zm0-14.5h-8.2l1-2.1h7.1v2.1Z"/><path fill="#dbad7b" d="M25.7 13.7H.5l3.8 12.8h25.2z"/><path fill="#ffdf51" fill-opacity=".7" d="M28.069 30.557v-5.428h-5.385l5.385 5.429"/><path fill="#ff8900" fill-opacity=".7" d="M28.674 27.479v-5.871h-5.825z"/><path fill="url(#vscodeIconsFolderTypeFlowOpened0)" fill-opacity=".7" d="M25.136 25.129V31h5.824z"/><path fill="#ffdf4f" fill-opacity=".7" d="M27.456 22v-4.643h-4.607z"/><path fill="url(#vscodeIconsFolderTypeFlowOpened1)" fill-opacity=".8" d="M29.643 20.894v-5.871h-5.824z"/><path fill="url(#vscodeIconsFolderTypeFlowOpened2)" fill-opacity=".8" d="M19.716 10v5.871h5.824z"/><path fill="url(#vscodeIconsFolderTypeFlowOpened3)" fill-opacity=".88" d="M21.082 19.2v-5.875h-7.043l5.8 5.873h1.244"/><path fill="#ffb700" fill-opacity=".7" d="M21.082 30.968v-7.1h-7.043z"/><path fill="#ffb700" fill-opacity=".5" d="M21.084 25.085v-5.871H15.26z"/><path fill="#ffcd25" fill-opacity=".7" d="M22.849 17.357v5.871h5.824z"/><path fill="#ff8900" fill-opacity=".7" d="M21.069 18.018v-5.872h-5.824zm1.615 7.111V31h5.824z"/><path fill="#fff" d="m26.342 25.129l-1.885-1.901h-1.608v-5.871h3.286l-1.474-1.486h-3.592l.013 3.325V31h1.602v-5.871z"/></svg>