<svg xmlns="http://www.w3.org/2000/svg" xmlns:xlink="http://www.w3.org/1999/xlink" width="32" height="32" viewBox="0 0 32 32"><g fill="none"><path fill="#D3D3D3" d="M29 8H3v1h26zm0 5H3v1h26zM3 18h26v1H3zm26 5H3v1h26z"/><path fill="#FF6723" d="M8 2a6 6 0 0 0-6 6v16a6 6 0 0 0 6 6h16a6 6 0 0 0 6-6V8a6 6 0 0 0-6-6zm0 2h16a4 4 0 0 1 4 4v16a4 4 0 0 1-4 4H8a4 4 0 0 1-4-4V8a4 4 0 0 1 4-4"/><path fill="#F70A8D" d="M6 8a1.5 1.5 0 1 1 3 0a1.5 1.5 0 1 1 3 0a1.5 1.5 0 0 1 3 0a1.5 1.5 0 0 1 3 0v1a1.5 1.5 0 0 1-3 0a1.5 1.5 0 0 1-3 0a1.5 1.5 0 0 1-3 0a1.5 1.5 0 1 1-3 0zm18.5-1.5A1.5 1.5 0 0 0 23 8v1a1.5 1.5 0 0 0 3 0V8a1.5 1.5 0 0 0-1.5-1.5"/><path fill="#00A6ED" d="M6 13a1.5 1.5 0 0 1 3 0a1.5 1.5 0 0 1 3 0a1.5 1.5 0 0 1 3 0a1.5 1.5 0 0 1 3 0v1a1.5 1.5 0 0 1-3 0a1.5 1.5 0 0 1-3 0a1.5 1.5 0 0 1-3 0a1.5 1.5 0 0 1-3 0zm18.5-1.5A1.5 1.5 0 0 0 23 13v1a1.5 1.5 0 0 0 3 0v-1a1.5 1.5 0 0 0-1.5-1.5"/><path fill="#FCD53F" d="M6 18a1.5 1.5 0 0 1 3 0a1.5 1.5 0 0 1 3 0a1.5 1.5 0 0 1 3 0a1.5 1.5 0 0 1 3 0v1a1.5 1.5 0 0 1-3 0a1.5 1.5 0 0 1-3 0a1.5 1.5 0 0 1-3 0a1.5 1.5 0 0 1-3 0zm18.5-1.5A1.5 1.5 0 0 0 23 18v1a1.5 1.5 0 0 0 3 0v-1a1.5 1.5 0 0 0-1.5-1.5"/><path fill="#00D26A" d="M6 23a1.5 1.5 0 0 1 3 0a1.5 1.5 0 0 1 3 0a1.5 1.5 0 0 1 3 0a1.5 1.5 0 0 1 3 0v1a1.5 1.5 0 0 1-3 0a1.5 1.5 0 0 1-3 0a1.5 1.5 0 0 1-3 0a1.5 1.5 0 0 1-3 0zm18.5-1.5A1.5 1.5 0 0 0 23 23v1a1.5 1.5 0 0 0 3 0v-1a1.5 1.5 0 0 0-1.5-1.5"/></g></svg>