<svg xmlns="http://www.w3.org/2000/svg" xmlns:xlink="http://www.w3.org/1999/xlink" width="32" height="32" viewBox="0 0 32 32"><g fill="none"><path fill="#9B9B9B" d="m15 5.5l1.615-.512l.051-.052a1.14 1.14 0 0 0 .01-1.6a1.126 1.126 0 0 0-1.592-.011L14.022 4.38zm13.659 12.436l-.679.676L27 17.5l.442-1.415c.41-.169.9-.087 1.227.25a1.123 1.123 0 0 1-.01 1.601"/><path fill="#CDC4D6" d="m14.12 28.875l-1.348-5.554a26 26 0 0 0 4.825-3.61l3.428-3.254l3.443-1.551l1.943-3.563l2.295-2.18a4.163 4.163 0 0 0 .1-5.935a4.14 4.14 0 0 0-5.924.04L20.36 5.892l-4.1 1.727l-1.037 3.618l-2.96 3.08a26.2 26.2 0 0 0-3.646 4.813l-5.525-1.404a.9.9 0 0 0-.859.23c-.44.442-.2.993.24 1.454l9.95 10.087c.49.521 1.009.692 1.448.25a.9.9 0 0 0 .25-.872"/><path fill="#00A6ED" d="m27.793 5.77l-1.54-1.552a.73.73 0 0 0-1.032-.01a.713.713 0 0 0-.01 1.022l1.54 1.552a.73.73 0 0 0 1.032.01a.72.72 0 0 0 .01-1.022"/><path fill="#0084CE" d="m15.216 11.245l5.166-5.375L8.346 3.05c-.46-.11-.95-.04-1.37.19c-1.3.73-1.3 2.59-.01 3.32zm11.213.08l-5.42 5.147L25.46 24.7c.7 1.31 2.57 1.34 3.32.06c.24-.41.32-.89.22-1.36zM8.156 22.315a1.07 1.07 0 0 1 1.527.01c.43.421.42 1.111-.01 1.533L6.84 26.685a1.07 1.07 0 0 1-1.526-.01a1.08 1.08 0 0 1 .01-1.533z"/></g></svg>