<svg xmlns="http://www.w3.org/2000/svg" xmlns:xlink="http://www.w3.org/1999/xlink" width="32" height="32" viewBox="0 0 32 32"><g fill="none"><path fill="#00A6ED" d="M2 6a4 4 0 0 1 4-4h20a4 4 0 0 1 4 4v20a4 4 0 0 1-4 4H6a4 4 0 0 1-4-4z"/><path fill="#fff" d="M23.87 27h2.25c.49 0 .88-.39.88-.87V5.88c0-.49-.39-.88-.87-.88h-2.25c-.49 0-.88.39-.88.88v20.24c0 .49.39.88.87.88m-3.75 0h-2.25c-.48 0-.87-.39-.87-.88V9.88c0-.49.39-.88.88-.88h2.25c.48 0 .87.39.87.88v16.25c0 .48-.39.87-.88.87m-8.24 0h2.24c.49 0 .88-.39.89-.87V14.88c0-.49-.4-.88-.88-.88h-2.25c-.49 0-.88.39-.88.88v11.24c0 .49.39.88.88.88m-6 0h2.24c.49 0 .88-.39.88-.87v-5.25c0-.49-.39-.88-.87-.88H5.88c-.49 0-.88.39-.88.87v5.25c0 .49.39.88.88.88"/></g></svg>