<svg xmlns="http://www.w3.org/2000/svg" xmlns:xlink="http://www.w3.org/1999/xlink" width="32" height="32" viewBox="0 0 32 32"><g fill="none"><path fill="#8D65C5" d="M2 6a4 4 0 0 1 4-4h20a4 4 0 0 1 4 4v20a4 4 0 0 1-4 4H6a4 4 0 0 1-4-4z"/><path fill="#fff" d="M25.34 14.23c.19.17.43.25.66.25c.27 0 .53-.11.71-.32c.36-.4.33-1.02-.07-1.38l-3.33-3.02a.97.97 0 0 0-1.31 0l-2.59 2.35c-.05.04-.12.04-.17 0l-2.59-2.35a.97.97 0 0 0-1.31 0l-2.59 2.35c-.05.04-.12.04-.17 0L9.99 9.76a.97.97 0 0 0-1.31 0l-3.33 3.02c-.4.36-.43.98-.07 1.38s.98.43 1.38.07l2.59-2.35c.05-.04.12-.04.17 0l2.6 2.35c.37.34.94.34 1.31 0l2.59-2.35c.05-.04.12-.04.17 0l2.59 2.35c.37.34.94.34 1.31 0l2.59-2.35c.05-.04.12-.04.17 0zm0 8.01c.19.17.43.25.66.25c.27 0 .53-.11.72-.32c.36-.4.33-1.02-.07-1.38l-3.33-3.02a.97.97 0 0 0-1.31 0l-2.59 2.35c-.05.04-.12.04-.17 0l-2.59-2.35a.97.97 0 0 0-1.31 0l-2.59 2.35c-.05.04-.12.04-.17 0L10 17.77a.97.97 0 0 0-1.31 0l-3.33 3.02c-.4.36-.43.98-.07 1.38s.98.43 1.38.07l2.59-2.35c.05-.04.12-.04.17 0l2.59 2.35c.37.34.94.34 1.31 0l2.59-2.35c.05-.04.12-.04.17 0l2.59 2.35c.37.34.94.34 1.31 0l2.59-2.35c.05-.04.12-.04.17 0z"/></g></svg>