<svg xmlns="http://www.w3.org/2000/svg" xmlns:xlink="http://www.w3.org/1999/xlink" width="32" height="32" viewBox="0 0 32 32"><g fill="none"><path fill="#CA0B4A" d="M15.538 4.146a2 2 0 0 0-.26-.311l1.53-1.53c.48-.48 1.29-.38 1.63.21c.47.801.576 1.546.655 2.102l.005.038l.002.014c.079.6.111.849.518 1.256c.41.4.66.44 1.27.52l.018.002c.78.11 1.961.277 3.152 1.468c1.195 1.195 1.359 2.37 1.469 3.16l.001.01l.002.014c.079.6.111.849.518 1.256c.41.4.66.44 1.27.52c.56.07 1.32.18 2.14.66c.58.35.69 1.15.21 1.63l-1.53 1.53a1.7 1.7 0 0 0-.458-.338l-2.11 2.153q.193.16.388.355l-.93.93c-.7.7-1.69 1.03-2.67.9h-.02l-.017-.003c-.78-.11-1.962-.276-3.153-1.467c-1.195-1.195-1.358-2.37-1.468-3.16l-.002-.01l-.002-.014c-.078-.6-.11-.85-.518-1.256c-.41-.4-.66-.44-1.27-.52l-.017-.003c-.78-.11-1.962-.276-3.153-1.467c-1.19-1.191-1.357-2.373-1.467-3.153l-.003-.017v-.02c-.13-.98.19-1.96.89-2.66l.94-.94q.188.186.342.373zm-9.19 9.353a1.7 1.7 0 0 0-.31-.394l1.53-1.53c.48-.48 1.28-.37 1.63.21c.47.801.576 1.546.655 2.102l.005.038l.003.02c.078.595.112.854.517 1.25c.41.4.66.44 1.27.52l.018.002c.78.11 1.961.277 3.152 1.468c1.195 1.195 1.359 2.37 1.469 3.16l.001.01l.002.014c.079.6.111.849.518 1.256c.41.4.66.44 1.27.52c.56.07 1.32.18 2.14.66c.58.35.69 1.15.21 1.63l-1.53 1.53a2 2 0 0 0-.373-.293l-2.13 2.173q.16.138.323.3l-.93.93c-.7.7-1.69 1.03-2.67.9h-.02l-.017-.003c-.78-.11-1.962-.276-3.153-1.467c-1.195-1.195-1.358-2.37-1.468-3.16l-.002-.01l-.001-.015c-.08-.6-.112-.849-.519-1.255c-.41-.4-.66-.44-1.27-.52l-.017-.003c-.78-.11-1.962-.276-3.153-1.467c-1.19-1.191-1.357-2.373-1.467-3.153l-.003-.017v-.02c-.13-.98.19-1.96.89-2.66l.94-.94q.222.22.397.44z"/><path fill="#FFDEA7" d="M18.15 12.002c-.78-.11-1.96-.276-3.152-1.467c-1.195-1.195-1.358-2.37-1.468-3.16l-.002-.01l-.002-.014c-.078-.6-.11-.85-.518-1.256l2.35-2.35c1.195 1.195 1.359 2.37 1.469 3.16l.001.01l.002.014c.079.6.112.849.518 1.256c.41.4.66.44 1.27.52l.018.002c.78.11 1.961.277 3.152 1.468c1.195 1.195 1.359 2.37 1.469 3.16l.001.01l.002.014c.079.6.111.849.518 1.256c.41.4.66.44 1.27.52l.018.002c.78.11 1.961.277 3.152 1.468l-2.35 2.35c-.41-.4-.66-.44-1.27-.52l-.017-.003c-.78-.11-1.962-.276-3.153-1.467c-1.195-1.195-1.358-2.37-1.468-3.16l-.002-.01l-.002-.014c-.078-.6-.11-.85-.518-1.256c-.41-.4-.66-.44-1.27-.52zm-9.24 9.28c-.78-.11-1.96-.276-3.152-1.467c-1.19-1.191-1.357-2.373-1.467-3.153l-.003-.017l-.002-.014c-.078-.6-.11-.85-.518-1.256l2.35-2.35c1.195 1.195 1.359 2.37 1.469 3.16l.001.01l.002.014c.079.6.111.849.518 1.256c.41.4.66.44 1.27.52l.018.002c.78.11 1.961.277 3.152 1.468c1.195 1.195 1.359 2.37 1.469 3.16l.001.01l.002.014c.079.6.112.849.518 1.256c.41.4.66.44 1.27.52l.018.002c.78.11 1.961.277 3.152 1.468l-2.35 2.35c-.41-.4-.66-.44-1.27-.52l-.017-.003c-.78-.11-1.962-.276-3.153-1.467c-1.195-1.195-1.358-2.37-1.468-3.16l-.002-.01l-.002-.014c-.078-.6-.11-.85-.518-1.256c-.41-.4-.66-.44-1.27-.52z"/></g></svg>