<svg xmlns="http://www.w3.org/2000/svg" xmlns:xlink="http://www.w3.org/1999/xlink" width="32" height="32" viewBox="0 0 32 32"><g fill="none"><path fill="#FF6DC6" d="M10.124 3.128c3.557 0 5.961 3.195 5.961 5.928c0 1.335-.479 2.56-.97 3.814c-.513 1.313-1.039 2.656-1.039 4.189c0 1.724.295 3.093.545 4.255c.184.859.345 1.605.345 2.299c0 2.338-1.528 6.422-5.928 6.422H4.987c-2.371 0-2.965-1.624-2.965-3.029v-6.188a.367.367 0 0 1-.032.02c-.173.093-.277.012-.277-.23v-.82c0-.218.07-.38.277-.553l.032-.027v-2.15c0-.713.031-1.728.146-2.888c-.434-.638-.34-1.343-.2-1.967c.115-.517.432-.692.6-.72c.817-4.015 2.81-8.355 7.556-8.355ZM2.477 11.95Zm21.562-8.823C27.596 3.128 30 6.323 30 9.056c0 1.335-.48 2.56-.97 3.814c-.513 1.313-1.039 2.656-1.039 4.189c0 1.724.294 3.093.544 4.255c.185.859.345 1.605.345 2.299c0 2.338-1.528 6.422-5.928 6.422h-4.05c-2.372 0-2.965-1.624-2.965-3.029v-6.188a.373.373 0 0 1-.032.02c-.173.093-.277.012-.277-.23v-.82c0-.218.07-.38.277-.553l.032-.027v-2.15c0-.713.03-1.728.145-2.888c-.434-.638-.34-1.343-.2-1.967c.116-.517.433-.692.6-.72c.817-4.015 2.81-8.355 7.557-8.355Zm-7.648 8.823Z"/><path fill="#BB1D80" d="M10.526 21.362c-.544 1.017-1.627 1.602-3.575 1.602H5.005C3.881 22.964 3 22.278 3 21.012l.001-.974a63.323 63.323 0 0 0 2.732-2.398c1.418 1.249 3.086 2.592 4.793 3.722Zm.418-1.447a121.098 121.098 0 0 1-4.171-3.28c.733-.727 1.452-1.432 2.072-2.038c.452-.443.852-.834 1.164-1.143c-.021.17-.032.342-.032.518c0 1.156.25 1.809.5 2.467c.257.67.516 1.348.516 2.57a7.7 7.7 0 0 1-.05.906Zm.261-9.573l-.341.34a235.134 235.134 0 0 1-5.173 5.04a47.876 47.876 0 0 1-2.069-1.878a33.09 33.09 0 0 1-.388-.405c.34-2.618 1.05-5.073 2.095-6.657c1.222-1.852 3.486-2.324 5.382-1.107c.81.52 1.255 1.32 1.255 2.309c0 .782-.353 1.553-.76 2.358Zm-8.138 4.795a27.6 27.6 0 0 0-.063 1.855v1.273c.385-.37.918-.88 1.666-1.584a53.794 53.794 0 0 1-1.603-1.544Zm21.374 6.225c-.544 1.017-1.628 1.602-3.576 1.602H18.92c-1.124 0-2.005-.686-2.005-1.952v-.974a63.281 63.281 0 0 0 2.733-2.398c1.418 1.249 3.086 2.592 4.793 3.722Zm.417-1.447a121.107 121.107 0 0 1-4.17-3.28a468.77 468.77 0 0 1 2.071-2.038h.001c.452-.444.851-.834 1.163-1.143a4.25 4.25 0 0 0-.031.518c0 1.156.249 1.809.5 2.467c.257.67.515 1.348.515 2.57c0 .317-.015.62-.049.906Zm.262-9.573l-.341.34a236.241 236.241 0 0 1-5.173 5.04a47.88 47.88 0 0 1-2.07-1.878a32.803 32.803 0 0 1-.387-.405c.34-2.618 1.05-5.073 2.095-6.657c1.221-1.852 3.485-2.324 5.381-1.107c.811.52 1.255 1.32 1.255 2.309c0 .782-.352 1.553-.76 2.358Zm-8.138 4.795a27.543 27.543 0 0 0-.063 1.855v1.273c.384-.37.918-.88 1.666-1.584a53.733 53.733 0 0 1-1.603-1.544Z"/><path fill="#D73B9A" d="M10.367 12.102c-.133.34-.25.884-.326 1.234l-.023.11l-.754.74c.305-1.59.754-2.623 1.955-3.858c-.195.352-.667 1.3-.852 1.774Zm-7.876.385c-.217-.443-.526-.284-.58.029c.038-.313.167-.961.667-1.063c-.083.438-.107.604-.087 1.034Zm.617 2.686c-.385-.39-.784-.827-.936-.997l-.001.024c-.02.331-.05.8.355 1.242c.266.292.446.695.482.913l.005-.104c.012-.236.033-.656.095-1.078ZM2.038 22v-1.194c.133-.094.486-.373.962-.767v1.107c0-.755-.962.212-.962.854Zm4.446-3.714c-.448-.384-.663-.57-.75-.646c.283-.265.56-.53.824-.792l.217-.216l.335.279c-.346.34-.951 1.09-.626 1.375Zm3.903 1.198c.264.209-.282 1.588-.752 1.264l.888.62s.293-.563.418-1.466l-.064-.046a8.846 8.846 0 0 1-.49-.372Zm13.569-6.148c.076-.35.193-.894.326-1.234c.184-.473.656-1.422.852-1.774c-1.202 1.235-1.65 2.269-1.955 3.858l.753-.74l.024-.11Zm-7.55-.849c-.217-.443-.526-.284-.581.029c.039-.313.168-.961.668-1.063c-.083.438-.107.604-.087 1.034Zm7.144 8.261c.47.325 1.016-1.055.751-1.264c.303.239.382.295.49.372l.065.046c-.125.903-.418 1.465-.418 1.465l-.888-.62Zm-7.463-6.572c.151.17.55.607.936.997c-.062.422-.083.842-.095 1.078l-.006.104c-.035-.218-.215-.62-.482-.913c-.404-.443-.375-.91-.354-1.242l.001-.024Zm-.134 6.63V22c0-.642.962-1.61.962-.854v-1.107c-.476.394-.83.673-.962.767Zm3.695-3.166l.75.646c-.325-.284.281-1.034.626-1.375l-.335-.279l-.217.216a38.07 38.07 0 0 1-.824.792Z"/></g></svg>