<svg xmlns="http://www.w3.org/2000/svg" xmlns:xlink="http://www.w3.org/1999/xlink" width="32" height="32" viewBox="0 0 32 32"><g fill="none"><path fill="#9D5044" d="M26.274 4.367a4.45 4.45 0 0 1 .333 2.821a1.996 1.996 0 0 0 1.028 2.184a4.43 4.43 0 0 1 2.002 2.136c1.242 2.783-.881 5.901-3.926 5.828a5.73 5.73 0 0 1-5.037-3.282l-2.11-4.48a5.73 5.73 0 0 1 .675-5.976c1.883-2.395 5.64-2.043 6.994.686q.023.04.041.083M8.726 3.265a4.47 4.47 0 0 0-1.268 2.543a2 2 0 0 1-1.707 1.706A4.43 4.43 0 0 0 3.21 8.782l-.064.068c-2.11 2.196-1.169 5.853 1.723 6.814a5.72 5.72 0 0 0 5.85-1.386l3.503-3.504a5.73 5.73 0 0 0 1.387-5.85c-.964-2.892-4.621-3.833-6.818-1.726q-.034.033-.064.067m2.981 16.61a4.45 4.45 0 0 1 .177-2.837q.018-.046.038-.08c1.2-2.8 4.935-3.356 6.946-1.067a5.72 5.72 0 0 1 1.002 5.928l-1.86 4.588a5.73 5.73 0 0 1-4.852 3.555c-3.036.243-5.328-2.76-4.24-5.604a1 1 0 0 0 .036-.087a4.43 4.43 0 0 1 1.847-2.158a2 2 0 0 0 .906-2.238"/><path fill="#E39D89" d="M8.573 5.885a.47.47 0 0 0-.522.393A2.13 2.13 0 0 1 6.219 8.11a.464.464 0 0 0-.394.522a.46.46 0 0 0 .519.39a3.05 3.05 0 0 0 1.748-.867a3.05 3.05 0 0 0 .868-1.749a.46.46 0 0 0-.09-.339a.42.42 0 0 0-.297-.182m16.958.999a.45.45 0 0 1 .324.256c.041.09.054.192.035.291a2.136 2.136 0 0 0 1.101 2.347a.46.46 0 0 1 .192.621a.46.46 0 0 1-.62.193a3.03 3.03 0 0 1-1.352-1.41a3.04 3.04 0 0 1-.224-1.94a.46.46 0 0 1 .199-.291a.47.47 0 0 1 .345-.067M12.46 19.782a.46.46 0 0 1 .871.055a3.04 3.04 0 0 1-.118 1.95a3.05 3.05 0 0 1-1.272 1.48a.463.463 0 0 1-.663-.57a.44.44 0 0 1 .19-.222a2.13 2.13 0 0 0 .973-2.402a.46.46 0 0 1 .019-.29"/></g></svg>