<svg xmlns="http://www.w3.org/2000/svg" xmlns:xlink="http://www.w3.org/1999/xlink" width="32" height="32" viewBox="0 0 32 32"><g fill="none"><path fill="#9D5044" d="M26.274 4.367a4.45 4.45 0 0 1 .333 2.821a1.996 1.996 0 0 0 1.028 2.184a4.427 4.427 0 0 1 2.002 2.136c1.242 2.783-.881 5.901-3.926 5.828a5.73 5.73 0 0 1-5.037-3.282l-2.11-4.48a5.731 5.731 0 0 1 .675-5.976c1.883-2.395 5.64-2.043 6.994.686a.912.912 0 0 1 .041.083ZM8.726 3.265a4.474 4.474 0 0 0-1.268 2.543a1.997 1.997 0 0 1-1.707 1.706A4.425 4.425 0 0 0 3.21 8.782a1.24 1.24 0 0 0-.064.068c-2.11 2.196-1.169 5.853 1.723 6.814a5.718 5.718 0 0 0 5.85-1.386l3.503-3.504a5.725 5.725 0 0 0 1.387-5.85c-.964-2.892-4.621-3.833-6.818-1.726c-.022.022-.045.045-.064.067Zm2.981 16.61a4.45 4.45 0 0 1 .177-2.837a.602.602 0 0 1 .038-.08c1.2-2.8 4.935-3.356 6.946-1.067a5.724 5.724 0 0 1 1.002 5.928l-1.86 4.588a5.73 5.73 0 0 1-4.852 3.555c-3.036.243-5.328-2.76-4.24-5.604a.98.98 0 0 0 .036-.087a4.429 4.429 0 0 1 1.847-2.158a2 2 0 0 0 .906-2.238Z"/><path fill="#E39D89" d="M8.573 5.885a.468.468 0 0 0-.522.393A2.13 2.13 0 0 1 6.219 8.11a.464.464 0 0 0-.394.522a.46.46 0 0 0 .519.39a3.046 3.046 0 0 0 1.748-.867a3.05 3.05 0 0 0 .868-1.749a.458.458 0 0 0-.09-.339a.417.417 0 0 0-.297-.182Zm16.958.999a.45.45 0 0 1 .324.256c.041.09.054.192.035.291a2.136 2.136 0 0 0 1.101 2.347a.462.462 0 0 1 .192.621a.46.46 0 0 1-.62.193a3.032 3.032 0 0 1-1.352-1.41a3.043 3.043 0 0 1-.224-1.94a.458.458 0 0 1 .199-.291a.465.465 0 0 1 .345-.067ZM12.46 19.782a.46.46 0 0 1 .871.055a3.038 3.038 0 0 1-.118 1.95a3.05 3.05 0 0 1-1.272 1.48a.463.463 0 0 1-.663-.57a.44.44 0 0 1 .19-.222a2.13 2.13 0 0 0 .973-2.402a.456.456 0 0 1 .019-.29Z"/></g></svg>