<svg xmlns="http://www.w3.org/2000/svg" xmlns:xlink="http://www.w3.org/1999/xlink" width="32" height="32" viewBox="0 0 32 32"><g fill="none"><path fill="#8C5543" d="M12 9.5a4.5 4.5 0 1 1-9 0a4.5 4.5 0 0 1 9 0m17 0a4.5 4.5 0 1 1-9 0a4.5 4.5 0 0 1 9 0"/><path fill="#A56953" d="M30.002 20.07v-.026a9 9 0 0 0-.15-1.585c-.309-2.072-1.256-5.756-4.163-8.738c-4.172-4.28-9.688-4-9.688-4s-5.516-.28-9.689 4C3.407 12.703 2.46 16.387 2.15 18.46A9 9 0 0 0 2 20.07a8.7 8.7 0 0 0 4.876 7.82S10 29.72 16 29.72s9.125-1.83 9.125-1.83a8.7 8.7 0 0 0 4.876-7.82"/><path fill="#F3AD61" d="M6.313 9.721a12.8 12.8 0 0 1 2.772-2.155a2.5 2.5 0 0 0-3.72 3.235q.434-.551.947-1.08m19.378 0q.511.528.946 1.078a2.5 2.5 0 0 0-3.72-3.234a12.8 12.8 0 0 1 2.773 2.156M11 21.053c0-.754.373-1.455.988-1.855a7.32 7.32 0 0 1 8.025 0c.614.4.987 1.1.987 1.855v.74C21 24.67 18.761 27 16 27s-5-2.331-5-5.207z"/><path fill="#402A32" d="M11 15.969a1 1 0 0 1 2 0v1a1 1 0 0 1-2 0zm8 0a1 1 0 0 1 2 0v1a1 1 0 0 1-2 0zm-3.474 4.851l-1.014-.834a.715.715 0 0 1 .453-1.264h2.074a.713.713 0 0 1 .453 1.264l-1.013.833a.75.75 0 0 1-.953 0M16 22a.5.5 0 0 1 .488.389c.084.337.196.745.427 1.073c.212.302.526.538 1.085.538c.654 0 1-.534 1-1a.5.5 0 0 1 1 0c0 .868-.654 2-2 2c-.925 0-1.528-.43-1.903-.962A3 3 0 0 1 16 23.89q-.045.076-.097.148c-.375.532-.978.962-1.903.962c-1.346 0-2-1.132-2-2a.5.5 0 0 1 1 0c0 .466.346 1 1 1c.56 0 .873-.236 1.085-.538c.231-.328.343-.736.427-1.073a.5.5 0 0 1 .313-.357A.5.5 0 0 1 16 22"/></g></svg>