<svg xmlns="http://www.w3.org/2000/svg" xmlns:xlink="http://www.w3.org/1999/xlink" width="32" height="32" viewBox="0 0 32 32"><g fill="none"><path fill="#F3EEF8" fill-rule="evenodd" d="M12.5 24.5a5 5 0 1 1-10 0a5 5 0 0 1 10 0m-1.5 0a3.5 3.5 0 1 1-7 0a3.5 3.5 0 0 1 7 0m18.5 0a5 5 0 1 1-10 0a5 5 0 0 1 10 0m-1.5 0a3.5 3.5 0 1 1-7 0a3.5 3.5 0 0 1 7 0" clip-rule="evenodd"/><path fill="#321B41" fill-rule="evenodd" d="M12 24.5a4.5 4.5 0 1 1-9 0a4.5 4.5 0 0 1 9 0M7.5 30a5.5 5.5 0 1 0 0-11a5.5 5.5 0 0 0 0 11M29 24.5a4.5 4.5 0 1 1-9 0a4.5 4.5 0 0 1 9 0M24.5 30a5.5 5.5 0 1 0 0-11a5.5 5.5 0 0 0 0 11" clip-rule="evenodd"/><path fill="#D3D3D3" d="M14 9.5a.5.5 0 0 0-.5-.5h-2a2.5 2.5 0 0 0 0 5h.164l-.636 1.264a.528.528 0 0 0 .944.472L12.845 14h.655a.5.5 0 0 0 0-1h-2a1.5 1.5 0 0 1 0-3h2a.5.5 0 0 0 .5-.5m6.104 3.983a.53.53 0 0 1 .413.62l-.5 2.5a.528.528 0 0 1-1.034-.207l.5-2.5a.53.53 0 0 1 .62-.414"/><path fill="#F92F60" d="M12.03 15.736a.58.58 0 0 0-1.06-.472l-4 9a.58.58 0 0 0 1.06.472l2.613-5.878l6.994 5.595a.58.58 0 0 0 .935-.352l1.22-6.918l4.274 7.485a.58.58 0 1 0 1.008-.576l-5.07-8.88a.58.58 0 0 0-1.076.187l-1.33 7.537l-6.468-5.175z"/><path fill="#F9C23C" d="m25.096 23.401l-6.871-1.383C17.05 21.858 16 22.79 16 24s1.04 2.141 2.225 1.982l6.87-.482c.52-.074.905-.52.905-1.05s-.395-.985-.904-1.049"/><path fill="#9D5044" d="M18 13a1 1 0 0 1 1-1h2a1 1 0 1 1 0 2h-2a1 1 0 0 1-1-1"/><path fill="#533566" d="M12 9.5a.5.5 0 0 1 .5-.5h2a.5.5 0 0 1 0 1h-2a.5.5 0 0 1-.5-.5"/><path fill="#F4F4F4" d="M18 25a1 1 0 1 0 0-2a1 1 0 0 0 0 2"/></g></svg>