<svg xmlns="http://www.w3.org/2000/svg" xmlns:xlink="http://www.w3.org/1999/xlink" width="32" height="32" viewBox="0 0 32 32"><g fill="none"><path fill="#CA0B4A" d="M26.01 2.5c0-.28.23-.5.5-.5c.28 0 .5.22.5.5v9.49c0 .75-.17 1.51-.54 2.17A5.56 5.56 0 0 1 21.61 17H10.42c-2.09 0-3.9-1.14-4.89-2.84c-.37-.66-.54-1.41-.54-2.17V2.5c0-.28.23-.5.5-.5c.28 0 .5.23.5.5v3.64c5.12 0 9.32 2.92 9.9 6.7h.22c.59-3.77 4.79-6.7 9.9-6.7zm.826 13.786a1.87 1.87 0 0 1 2.638 0a1.87 1.87 0 0 1 0 2.637c-.252.252-.579.408-.887.509a4 4 0 0 1-.6.145a3.93 3.93 0 0 1 2.033 3.443a.5.5 0 0 1-1 0a2.93 2.93 0 0 0-2.17-2.83l-9.29 9.25c-.35.36-.84.56-1.34.56h-.42c-.51 0-.99-.2-1.35-.57l-9.246-9.285A2.93 2.93 0 0 0 2.98 22.99a.5.5 0 0 1-1 0c0-1.444.776-2.701 1.93-3.384a4 4 0 0 1-.49-.126c-.31-.102-.638-.261-.894-.516a1.87 1.87 0 0 1 0-2.638a1.87 1.87 0 0 1 2.637 0c.502.502.66 1.29.716 1.84a7 7 0 0 1 .03.834H26.08a5 5 0 0 1-.001-.822c.044-.562.206-1.34.757-1.892m.228 2.377c.141-.005.306-.014.48-.033c.25-.028.507-.075.732-.149c.23-.075.393-.167.49-.265a.87.87 0 0 0 0-1.223a.87.87 0 0 0-1.222 0c-.296.297-.43.778-.468 1.264a4 4 0 0 0-.012.406"/><path fill="#FF6DC6" d="M7.01 10.01a1.01 1.01 0 1 0 0-2.02a1.01 1.01 0 0 0 0 2.02m3 2a1.01 1.01 0 1 0 0-2.02a1.01 1.01 0 0 0 0 2.02M8.02 13A1.01 1.01 0 1 1 6 13a1.01 1.01 0 0 1 2.02 0m3 2A1.01 1.01 0 1 1 9 15a1.01 1.01 0 0 1 2.02 0m3-2A1.01 1.01 0 1 1 12 13a1.01 1.01 0 0 1 2.02 0M17 15a1.01 1.01 0 1 1-2.02 0A1.01 1.01 0 0 1 17 15m4.98 1.01a1.01 1.01 0 1 0 0-2.02a1.01 1.01 0 0 0 0 2.02M25.99 13a1.01 1.01 0 1 1-2.02 0a1.01 1.01 0 0 1 2.02 0m-4.01-.99a1.01 1.01 0 1 0 0-2.02a1.01 1.01 0 0 0 0 2.02m-1.99.99a1.01 1.01 0 1 1-2.02 0a1.01 1.01 0 0 1 2.02 0m4.99-2.99a1.01 1.01 0 1 0 0-2.02a1.01 1.01 0 0 0 0 2.02m-15.97 12a1.01 1.01 0 1 0 0-2.02a1.01 1.01 0 0 0 0 2.02M13.52 21a1.01 1.01 0 1 1-2.02 0a1.01 1.01 0 0 1 2.02 0m2.47 1.01a1.01 1.01 0 1 0 0-2.02a1.01 1.01 0 0 0 0 2.02m1.03 2.49a1.01 1.01 0 1 1-2.02 0a1.01 1.01 0 0 1 2.02 0m0 3.5A1.01 1.01 0 1 1 15 28a1.01 1.01 0 0 1 2.02 0m-3.5-3.5a1.01 1.01 0 1 1-2.02 0a1.01 1.01 0 0 1 2.02 0m5.97-2.49a1.01 1.01 0 1 0 0-2.02a1.01 1.01 0 0 0 0 2.02M24 21a1.01 1.01 0 1 1-2.02 0A1.01 1.01 0 0 1 24 21m-4.51 4.51a1.01 1.01 0 1 0 0-2.02a1.01 1.01 0 0 0 0 2.02"/></g></svg>