<svg xmlns="http://www.w3.org/2000/svg" xmlns:xlink="http://www.w3.org/1999/xlink" width="32" height="32" viewBox="0 0 32 32"><g fill="none"><path fill="#9B9B9B" fill-rule="evenodd" d="M23.98 5.012a4.6 4.6 0 0 0-3.637 2.26a4.58 4.58 0 0 0-4.292-2.26a4.6 4.6 0 0 0-4.259 4.284a4.6 4.6 0 0 0 .393 2.178l.005.009c.59 1.3.93 2.68.93 4.066v.2c0 .644-.267 1.267-.736 1.723l-.285.275l-.002.002c-3.187 3.05-3.218 8.127-.091 11.23l.002.002l1.505 1.486l.003.003c.317.315.76.5 1.214.5h3.32a1.7 1.7 0 0 0 1.216-.502l.001-.001l1.084-1.077l1.092 1.077l.003.003c.317.315.76.5 1.214.5h3.32a1.7 1.7 0 0 0 1.216-.502l.001-.001l1.506-1.496v-.001a7.835 7.835 0 0 0-.092-11.233l-.309-.289l-.008-.007a2.27 2.27 0 0 1-.734-1.691c0-1.472.352-2.946.957-4.33l.001-.004a4.588 4.588 0 0 0-4.537-6.404M21.05 15.75a2.4 2.4 0 0 1-.696 1.681a2.3 2.3 0 0 1-.724-1.682c0-1.262.26-2.526.715-3.735c.45 1.143.705 2.337.705 3.536z" clip-rule="evenodd"/><path fill="#E6E6E6" d="M26.56 15.75c0-1.63.39-3.24 1.04-4.73a3.588 3.588 0 0 0-3.55-5.01a3.6 3.6 0 0 0-3.33 3.35c-.04.61.08 1.19.31 1.71c.64 1.41 1.02 2.93 1.02 4.48v.2c0 .92-.38 1.8-1.04 2.44l-.29.28c-2.78 2.66-2.81 7.09-.08 9.8l1.51 1.49c.13.13.32.21.51.21h3.32c.19 0 .37-.07.51-.21l1.51-1.5a6.835 6.835 0 0 0-.08-9.8l-.3-.28a3.27 3.27 0 0 1-1.06-2.43"/><path fill="#F4F4F4" d="M18.63 15.75c0-1.63.39-3.24 1.04-4.73a3.588 3.588 0 0 0-3.55-5.01a3.6 3.6 0 0 0-3.33 3.35c-.04.61.08 1.19.31 1.71c.64 1.41 1.02 2.93 1.02 4.48v.2c0 .92-.38 1.8-1.04 2.44l-.29.28c-2.78 2.66-2.81 7.09-.08 9.8l1.51 1.49c.13.13.32.21.51.21h3.32c.19 0 .37-.07.51-.21l1.51-1.5a6.835 6.835 0 0 0-.08-9.8l-.3-.28a3.3 3.3 0 0 1-1.06-2.43"/><path fill="#CA0B4A" d="m18.63 15.75l.002-.21H14.12v.21c0 .388-.068.77-.196 1.13h4.904a3.3 3.3 0 0 1-.198-1.13m.084-1.32q.085-.679.25-1.34H13.81q.166.661.245 1.34zm7.846 1.32v-.014q0-.099.002-.197H22.05v.21c0 .39-.068.77-.196 1.13h4.9a3.4 3.4 0 0 1-.194-1.13m.084-1.319q.084-.679.25-1.34H21.74q.166.661.245 1.34z"/><path fill="#635994" d="M9 31a7 7 0 1 0 0-14a7 7 0 0 0 0 14"/><path fill="#212121" d="M10.24 19.74a1.13 1.13 0 1 1-2.26 0a1.13 1.13 0 0 1 2.26 0M7.18 23.7a1.13 1.13 0 1 0 0-2.26a1.13 1.13 0 0 0 0 2.26m3.68 0a1.13 1.13 0 1 0 0-2.26a1.13 1.13 0 0 0 0 2.26"/></g></svg>