<svg xmlns="http://www.w3.org/2000/svg" xmlns:xlink="http://www.w3.org/1999/xlink" width="32" height="32" viewBox="0 0 32 32"><g fill="none"><path fill="#0074BA" d="m4.47 10l.4 3.105L4.5 15.5l.847 1.317L6.77 27.88C6.85 28.52 7.38 29 8 29h16.14c.62 0 1.15-.48 1.23-1.12L27.548 10L16 8z"/><path fill="#D3D3D3" d="m4.872 13.12l.475 3.694a20 20 0 0 0-.765 2.085c-.412 1.4-.44 2.376-.18 2.966c.2.454.7.94 2.207 1.006c1.476.064 2.66-.179 3.666-.65c1.011-.472 1.899-1.2 2.744-2.183c1.478-1.718 2.73-4.082 4.268-6.984q.395-.746.817-1.536a1 1 0 1 1 1.763.944q-.404.758-.794 1.495c-1.525 2.881-2.9 5.482-4.538 7.385c-.979 1.138-2.082 2.07-3.413 2.691c-1.335.625-2.846.912-4.6.836c-1.927-.084-3.325-.782-3.95-2.196c-.564-1.278-.346-2.854.092-4.34c.45-1.53 1.21-3.204 2.01-4.817z"/><path fill="#00A6ED" d="m3.356 9.06l-.35-2.35c-.05-.37.24-.71.62-.71h24.75c.38 0 .67.34.62.71l-.36 2.35c-.08.54-.54.94-1.08.94H4.446c-.55 0-1.01-.4-1.09-.94"/></g></svg>