<svg xmlns="http://www.w3.org/2000/svg" xmlns:xlink="http://www.w3.org/1999/xlink" width="32" height="32" viewBox="0 0 32 32"><defs><path id="fluentEmojiFlatButter0" fill="#FFF478" d="M9.35 20.424v-3.77c0-.2.21-.34.4-.25l7.35 3.62c.19.09.31.29.31.5v3.73c0 .24-.25.4-.47.29l-7.23-3.55a.63.63 0 0 1-.36-.57"/></defs><g fill="none"><path fill="#D3D3D3" d="M2 22.93v1.22c0 .21.11.42.33.53l10.15 4.99c.62.31 1.36.31 1.98 0l15.2-7.4c.22-.11.33-.32.33-.53v-1.22z"/><path fill="#F4F4F4" d="M18.26 14.67L2.33 22.43a.59.59 0 0 0 0 1.06l10.15 4.99c.62.31 1.36.31 1.98 0l15.2-7.4a.59.59 0 0 0 0-1.06l-10.88-5.35a.6.6 0 0 0-.52 0"/><path fill="#FCD53F" d="M18.91 12.13c-.35-.17-.75-.17-1.09 0l-8.04 3.85c-.26.13-.43.4-.43.69c2.282 3.17 4.581 5.314 7.619 7.88l.101.05c.21.1.46.1.68 0l.129-.062C21.875 20.594 22.5 20 26.42 16.3c0-.29-.17-.56-.43-.69z"/><use href="#fluentEmojiFlatButter0"/><use href="#fluentEmojiFlatButter0"/><path fill="#FCD53F" d="M8.4 17.31c-.35-.17-.75-.17-1.09 0l-.98.47c-.26.13-.43.39-.43.69c2.214 3.167 5.18 4.872 7.62 7.88l.1.05c.21.1.46.1.68 0l.133-.065c.25-1.71.906-3.188 1.477-4.855c0-.29-.17-.56-.43-.69z"/><path fill="#FFF478" d="M5.9 22.223v-3.77c0-.2.21-.34.4-.25l7.36 3.62c.19.09.31.29.31.5v3.73c0 .24-.25.4-.47.29l-7.24-3.56a.62.62 0 0 1-.36-.56"/><path fill="#F9C23C" d="M26.43 16.284v3.77c0 .24-.14.46-.35.56l-8.19 3.93a.323.323 0 0 1-.47-.29v-3.73c0-.21.12-.41.31-.5l8.3-3.99c.19-.09.4.05.4.25m-10.52 5.189v3.77c0 .24-.13.46-.35.55l-1.13.55a.323.323 0 0 1-.47-.29v-3.73c0-.21.12-.41.31-.5l1.24-.6c.19-.09.4.05.4.25"/></g></svg>