<svg xmlns="http://www.w3.org/2000/svg" xmlns:xlink="http://www.w3.org/1999/xlink" width="32" height="32" viewBox="0 0 32 32"><g fill="none"><path fill="#D3D3D3" d="M21.5 11a.5.5 0 0 0-.5.5V13h6v-1.5a.5.5 0 0 0-.5-.5z"/><path fill="#E6E6E6" d="M2 14a2 2 0 0 1 2-2h24a2 2 0 0 1 2 2v2.5L28 22l2 5.5v.5a2 2 0 0 1-2 2H4a2 2 0 0 1-2-2v-.5L4.5 22L2 16.5z"/><path fill="#533566" d="M2 16.5a.5.5 0 0 1 .5-.5h27a.5.5 0 0 1 .5.5v11a.5.5 0 0 1-.5.5h-27a.5.5 0 0 1-.5-.5z"/><path fill="#321B41" d="M22 22a6 6 0 1 1-12 0a6 6 0 0 1 12 0"/><path fill="#9B9B9B" d="M16 27a5 5 0 1 0 0-10a5 5 0 0 0 0 10m0 2a7 7 0 1 1 0-14a7 7 0 0 1 0 14"/><path fill="#433B6B" d="M18.5 22a2.5 2.5 0 1 1-5 0a2.5 2.5 0 0 1 5 0"/><path fill="#fff" d="M19.083 19.875c.414.717.362 1.523-.116 1.799c-.479.276-1.202-.082-1.616-.799s-.363-1.523.116-1.8c.478-.275 1.201.082 1.616.8"/><path fill="#FCD53F" d="M7.195 7.592a1 1 0 0 1 1.61 0l1.439 1.953q.09.121.211.211l1.953 1.439a1 1 0 0 1 0 1.61l-1.953 1.439q-.121.09-.211.211l-1.439 1.953a1 1 0 0 1-1.61 0l-1.439-1.953a1 1 0 0 0-.211-.211l-1.953-1.439a1 1 0 0 1 0-1.61l1.953-1.439a1 1 0 0 0 .211-.211z"/></g></svg>