<svg xmlns="http://www.w3.org/2000/svg" xmlns:xlink="http://www.w3.org/1999/xlink" width="32" height="32" viewBox="0 0 32 32"><g fill="none"><path fill="#F3EEF8" d="m12.435 15.66l3.208-7.687h1.13c.892.735 3.13 2.5 4.947 3.681c1.317.856 2.629 1.647 3.653 2.265c.742.446 1.333.803 1.666 1.027v.714z"/><path fill="#CA0B4A" d="M11.009 15.236v12.278L7.755 30l-3.728.004c-.683 0-1.065-.366-1.017-.986c.047-.62 1.59-12.113 1.812-13.067c1.437-.56 3.237-.71 3.958-.715z"/><path fill="#FF5E59" d="m11.009 27.993l5.077-.884L24.576 30h3.569c.774 0 .906-.505.84-1.06l-.187-1.536c-.133-1.089-.314-2.562-.478-3.922c-.276-2.29-.998-6.828-1.088-7.384c-.09-.555-.251-.862-.663-.862h-15.56z"/><path fill="#E1D8EC" d="m12.435 15.66l3.208-7.687h.78l.294.472a59 59 0 0 0 2.252 3.415a101 101 0 0 1 1.63 2.37c.205.306.335.501.495.716c0 .343-.026.547-.04.647l-.007.067z"/><path fill="#CDC4D6" d="M15.697 7.973h-.432c-2.076 1.994-5.968 4.379-7.428 5.27l-2.79 1.703v.714h6.44z"/><path fill="#E1D8EC" d="M7.58 30.002L11 30l5-1.832L21 30h3.569c.496 0 .552-.422.515-.758c-.051-.469-1.09-8.905-1.619-13.108l-4.822-.844h-5.185l-4.77.707A4925 4925 0 0 0 6.99 29.403c-.04.393.177.6.59.6M4.892 17.475c-.66-.866-.351-1.76-.14-2.157c.194-.367.378-.36.715-.36h2.914c.407 0 .5.089.304.59c-.196.5-.701 1.38-1.3 1.88s-1.834.912-2.493.046m22.248.001c.654-.866.348-1.76.139-2.157c-.193-.367-.377-.36-.711-.36h-2.894c-.404 0-.497.089-.302.59c.195.5.697 1.38 1.291 1.88c.595.5 1.821.912 2.476.046"/><path fill="#F8312F" d="m13.166 22.473l.344-6.907h5.074l.363 6.907z"/><path fill="#533566" d="M16.05 19.97c-2.67 0-5.041 2.17-5.041 4.84v5.186h9.987V24.81c0-2.67-2.276-4.84-4.946-4.84"/><path fill="#F837A2" d="M9.232 14.565c-.259.23-.339.426-.346.495c-.07.173.888.266 2.099.266c1.21 0 2.409.134 2.512-.131c.739-1.707 1.901-5.598 2.367-7.228h-.381c-2.491 3.564-5.928 6.31-6.251 6.598"/><path fill="#FF5E59" d="M22.908 14.565c.26.23.34.426.348.495c.07.173-.892.266-2.11.266s-2.469-.07-2.573-.335c-.742-1.707-1.863-5.394-2.33-7.024h.382c2.504 3.564 5.959 6.31 6.283 6.598"/><path fill="#F8312F" d="M16.272 2.154c.158-.021.862.1 2.41.748c.373.144.859.334 1.112.45s.248.406 0 .517s-2.98 1.092-3.522 1.092c.009-.624.006-1.247.003-1.871zm6.603 12.814c.415 0 .484.149.637.73c.226.765-.252 2.27-2.013 2.27c-1.312 0-2.546-.914-2.857-2.23a6 6 0 0 1-.056-.316c-.02-.14-.062-.454.318-.454z"/><path fill="#FFB02E" d="M14.999 7.648c0 .254.147.385.336.385h1.255c.27 0 .402-.188.402-.385v-.5c0-.64-.402-.73-.402-1.297V2.767c0-.525-.27-.697-.574-.697s-.583.172-.583.697v3.084c0 .632-.434.542-.434 1.296z"/><path fill="#E5336D" d="M8.544 15.698c.154-.581.224-.73.641-.73h3.999c.382 0 .34.313.32.454a5 5 0 0 1-.056.316c-.314 1.316-1.555 2.23-2.877 2.23c-1.773 0-2.255-1.505-2.027-2.27"/><path fill="#E1D8EC" d="M14.018 15.002H18.3c.289 0 .32.158.355.447c.125 1.625-1.296 2.526-2.658 2.526c-1.665 0-2.665-1.355-2.54-2.526c.048-.447.158-.447.56-.447"/></g></svg>