<svg xmlns="http://www.w3.org/2000/svg" xmlns:xlink="http://www.w3.org/1999/xlink" width="32" height="32" viewBox="0 0 32 32"><g fill="none"><path fill="#636363" d="M23.42 29.07h-6.84c-.28 0-.5-.22-.5-.5v-.12c0-.27.22-.5.5-.5h6.84c.27 0 .5.22.5.5v.12c0 .28-.23.5-.5.5"/><path fill="#9B9B9B" d="M20.01 30c-.92 0-1.67-.75-1.67-1.67V15.02h3.34v13.31c0 .92-.75 1.67-1.67 1.67"/><path fill="#533566" d="M14.44 22c-2.14 0-3.88-1.67-3.88-3.73V8.74C10.56 6.67 12.3 5 14.44 5h3.07l2.886.73L23.04 5c-.24-1.84-1.86-3-3.83-3H9.88C7.74 2 6 3.67 6 5.73v15.53C6 23.33 7.74 25 9.88 25h9.32c1.98 0 2.6-1.16 2.83-3z"/><path fill="#321B41" d="M22.07 7h-3.74a.97.97 0 0 1-.97-.97V5h5.68v1.03c0 .54-.43.97-.97.97"/><path fill="#433B6B" d="M21.92 27.03h-3.44c-.62 0-1.12-.5-1.12-1.12v-4.79c0-.62.5-1.12 1.12-1.12h3.44c.62 0 1.12.5 1.12 1.12v4.79c0 .62-.5 1.12-1.12 1.12"/><path fill="#D3D3D3" d="M21.929 16H18.07c-.588 0-1.07-.45-1.07-1s.482-1 1.071-1h3.858c.589 0 1.071.45 1.071 1s-.482 1-1.071 1M16.08 29.63a1.12 1.12 0 1 0 0-2.24a1.12 1.12 0 0 0 0 2.24m8.96-1.12a1.12 1.12 0 1 1-2.24 0a1.12 1.12 0 0 1 2.24 0"/></g></svg>