<svg xmlns="http://www.w3.org/2000/svg" xmlns:xlink="http://www.w3.org/1999/xlink" width="32" height="32" viewBox="0 0 32 32"><g fill="none"><path fill="#00A6ED" d="M2 6a4 4 0 0 1 4-4h20a4 4 0 0 1 4 4v20a4 4 0 0 1-4 4H6a4 4 0 0 1-4-4z"/><path fill="#fff" d="M16.47 7c3.896 0 7.054 3.034 7.054 6.777v5.558c0 .138.112.25.25.25h1.284c.84 0 1.258 1.048.661 1.656l-3.414 3.479a.92.92 0 0 1-1.323 0l-3.415-3.479c-.597-.608-.178-1.656.662-1.656h1.283a.25.25 0 0 0 .25-.25v-5.558c0-1.357-1.225-2.905-3.292-2.905c-.25 0-.47-.192-.47-.443V7.485c0-.264.206-.485.47-.485m-.94 18c-3.896 0-7.054-3.034-7.054-6.777v-5.558a.25.25 0 0 0-.25-.25H6.942c-.84 0-1.258-1.048-.661-1.656L9.695 7.28a.92.92 0 0 1 1.323 0l3.415 3.478c.597.609.178 1.657-.662 1.657h-1.283a.25.25 0 0 0-.25.25v5.558c0 1.357 1.225 2.905 3.292 2.905c.25 0 .47.192.47.443v2.944a.477.477 0 0 1-.47.485"/></g></svg>