<svg xmlns="http://www.w3.org/2000/svg" xmlns:xlink="http://www.w3.org/1999/xlink" width="32" height="32" viewBox="0 0 32 32"><g fill="none"><path fill="#F8312F" d="M18.65 30.008h-5.39c-6.21 0-11.25-5.04-11.25-11.25v-5.26H29.9v5.26c0 6.21-5.04 11.25-11.25 11.25"/><path fill="#CA0B4A" d="M21.92 7.728c3.18 0 5.77 2.59 5.77 5.77s-2.59 5.77-5.77 5.77H9.98c-3.18 0-5.77-2.59-5.77-5.77s2.59-5.77 5.77-5.77zm0-2.21H9.98c-4.41 0-7.98 3.57-7.98 7.98s3.57 7.98 7.98 7.98h11.93c4.41 0 7.98-3.57 7.98-7.98c.01-4.4-3.57-7.98-7.97-7.98"/><path fill="#BEBEBE" d="m4.234 12.283l-.018-.169c-.02-.193-.052-.39-.088-.613l-.011-.066c-.088-.54-.21-1.281-.005-2l.1-.367c.133-.499.2-.749.347-.896l-.002-.008c.147-.188.269-.357.367-.526c.157-.274.282-.59.439-.995l.026-.068c.225-.584.535-1.386 1.144-1.994c.6-.6 1.387-.91 1.958-1.134l.067-.026c.412-.162.729-.29.997-.45l.008-.005l.007-.004c.26-.15.518-.356.85-.626l.057-.046c.488-.395 1.165-.944 2.015-1.168c.815-.221 1.656-.09 2.267.005l.075.012c.434.067.78.119 1.106.119s.672-.052 1.106-.12l.075-.01c.611-.096 1.452-.227 2.267-.006c.85.224 1.527.773 2.015 1.168l.056.046c.333.27.59.475.85.625c.274.158.591.283.995.44l.069.026c.583.225 1.385.535 1.994 1.144c.607.606.916 1.409 1.14 1.99l.027.068c.158.409.283.726.44.995l.002.003c.117.203.267.403.454.639v.004c.258.383.267.415.355.766c.026.099.058.224.103.39c.204.719.083 1.46-.005 2l-.01.066c-.038.226-.07.426-.09.62l-.016.157C27.633 15.451 24.88 18 21.517 18H10.483c-3.359 0-6.109-2.543-6.25-5.717"/><path fill="#F4F4F4" d="M27.81 12.739c-.038.252-.078.505-.103.757h-.017v.002c0 3.18-2.59 5.77-5.77 5.77H9.98c-3.18 0-5.77-2.59-5.77-5.77v-.002h-.018a14 14 0 0 0-.103-.747c-.103-.667-.205-1.324-.039-1.931c.168-.64.599-1.173 1.026-1.7c.26-.321.517-.64.714-.98c.203-.352.354-.743.505-1.134c.245-.63.488-1.26.945-1.716c.45-.45 1.067-.694 1.684-.937c.397-.156.794-.312 1.146-.523c.34-.197.66-.455.98-.715c.527-.427 1.06-.857 1.7-1.025c.608-.166 1.265-.064 1.931.04c.42.064.842.13 1.259.13s.84-.066 1.259-.13c.666-.104 1.323-.206 1.931-.04c.64.168 1.173.598 1.7 1.025c.32.26.64.518.98.715c.352.202.743.354 1.134.505c.63.244 1.259.488 1.716.945c.455.455.698 1.084.942 1.712c.152.394.304.787.508 1.138c.197.34.455.659.715.98c.426.527.857 1.06 1.025 1.7c.166.607.064 1.264-.04 1.93"/><path fill="#BEBEBE" d="m15.05 4.478l.95 1.64c.21.37.09.83-.28 1.04s-.83.08-1.04-.28l-.95-1.64a.764.764 0 0 1 .28-1.04c.37-.21.83-.08 1.04.28m4.35 3.45l.35-1.86c.08-.41.48-.68.89-.61c.42.08.69.48.61.89l-.35 1.86a.76.76 0 0 1-.89.61a.76.76 0 0 1-.61-.89m-6.48 4.71l-.77-1.73c-.17-.39 0-.83.38-1s.83 0 1 .38l.77 1.73c.17.38 0 .83-.38 1s-.83 0-1-.38m-3.69 4.36l.35-1.86a.75.75 0 0 1 .89-.61c.42.08.69.48.61.89l-.35 1.86a.76.76 0 0 1-.89.61a.76.76 0 0 1-.61-.89m-1.41-5.54l-1.68.88a.75.75 0 0 0-.32 1.02c.19.37.65.52 1.02.32l1.68-.88a.75.75 0 0 0 .32-1.02a.76.76 0 0 0-1.02-.32m1.22-5.09l-1.13 1.52c-.25.34-.18.81.16 1.06s.81.18 1.06-.16l1.13-1.52c.25-.34.18-.81-.16-1.06a.755.755 0 0 0-1.06.16m5.89 10.2l1.13-1.52c.25-.33.72-.4 1.06-.16c.34.25.41.72.16 1.06l-1.13 1.52c-.25.34-.72.41-1.06.16a.754.754 0 0 1-.16-1.06m8.59-5.56l1.23 1.44a.76.76 0 0 0 1.16-.98l-1.23-1.44a.76.76 0 0 0-1.16.98m.52 5.54l-.95-1.64a.764.764 0 0 0-1.04-.28c-.36.21-.49.67-.28 1.04l.95 1.64c.21.36.67.49 1.04.28c.36-.21.49-.67.28-1.04m-5.56-6l1.74.75c.38.16.56.61.4 1c-.17.39-.62.57-1 .4l-1.74-.75a.76.76 0 0 1-.4-1c.17-.39.62-.57 1-.4"/></g></svg>