<svg xmlns="http://www.w3.org/2000/svg" xmlns:xlink="http://www.w3.org/1999/xlink" width="32" height="32" viewBox="0 0 32 32"><g fill="none"><path fill="#00D26A" d="M24.485 2.569a1 1 0 0 0-1.414 0l-1.06 1.06l2.474 3.89l3.89 2.474l1.06-1.06a1 1 0 0 0 0-1.415zM5.042 20.598l4.505 2.39l1.859 3.974l-.54.54a1 1 0 0 1-.392.242l-6.322 2.105a1.5 1.5 0 0 1-1.535-.362l-.104-.104a1.5 1.5 0 0 1-.362-1.535l2.109-6.32a1 1 0 0 1 .241-.39z"/><path fill="#C3EF3C" d="m28.376 9.991l-6.364-6.364l-.707.708l2.817 3.574l3.547 2.79zm-1.414 1.415l-2.84-3.497l-3.524-2.867L6.456 19.184l2.693 3.492l3.67 2.872zm-14.85 14.849L9.15 22.676l-3.4-2.785l-.707.707l6.364 6.364z"/><path fill="#321B41" d="m27.67 10.699l-6.365-6.364l-.707.707l6.364 6.364zm-9.549 6.008c-2.733 2.734-5.583 4.317-6.364 3.536s.802-3.63 3.536-6.364s5.583-4.317 6.364-3.536s-.802 3.63-3.536 6.364M6.456 19.184l6.364 6.364l-.707.707l-6.364-6.364z"/></g></svg>