<svg xmlns="http://www.w3.org/2000/svg" xmlns:xlink="http://www.w3.org/1999/xlink" width="32" height="32" viewBox="0 0 32 32"><g fill="none"><path fill="#00A6ED" d="M27.752 30H4.248A2.25 2.25 0 0 1 2 27.751V14.25A2.25 2.25 0 0 1 4.248 12h23.504A2.25 2.25 0 0 1 30 14.249V27.75A2.245 2.245 0 0 1 27.752 30"/><path fill="#F4F4F4" d="M23.386 24H5.614A.617.617 0 0 1 5 23.384v-2.768c0-.333.272-.616.614-.616h17.772c.332 0 .614.273.614.616v2.778a.61.61 0 0 1-.614.606"/><path fill="#FFF478" d="M25.353 28h1.794a.85.85 0 0 0 .853-.853v-1.794a.85.85 0 0 0-.853-.853h-1.794a.85.85 0 0 0-.853.853v1.794a.86.86 0 0 0 .853.853"/><path fill="#321B41" d="M30 15H2v3h28z"/><path fill="#9B9B9B" d="M6 22a.5.5 0 0 1 .5-.5h11a.5.5 0 0 1 0 1h-11A.5.5 0 0 1 6 22"/></g></svg>