<svg xmlns="http://www.w3.org/2000/svg" xmlns:xlink="http://www.w3.org/1999/xlink" width="32" height="32" viewBox="0 0 32 32"><g fill="none"><path fill="#86D72F" d="M7 10.85v1.685A4 4 0 0 1 9 12c1.8 0 3.984.663 4.733 2.53h1.818L15.5 14l4.742-2l2.448-2.75c.28-.31.75-.34 1.06-.06c.184.163.27.4.25.634V12l1 2.5l-.246.615a5.5 5.5 0 0 1 2.756 3.215c.26.83-.36 1.67-1.23 1.67H24v4.25c0 .41-.34.75-.75.75s-.75-.34-.75-.75V20h-4.48l-1.17 1.96A2.068 2.068 0 0 1 13.215 20H11.11v4.25a.749.749 0 1 1-1.5 0V20H9q-.255 0-.5-.03v1.49c0 .63-.25 1.22-.69 1.67L6.14 24.8c-.15.14-.34.21-.53.21s-.38-.07-.53-.22a.754.754 0 0 1 0-1.06l1.67-1.67a.84.84 0 0 0 .25-.6v-1.995a4 4 0 0 1-1-6.11V10.85C6 9.28 7.28 8 8.85 8H19.5c.28 0 .5.22.5.5s-.22.5-.5.5H8.85C7.83 9 7 9.83 7 10.85"/><path fill="#C3EF3C" d="M5.96 12c.57 0 1.04.47 1.04 1.05v5.9C7 19.53 6.53 20 5.96 20C3.77 20 2 18.21 2 16s1.77-4 3.96-4m3.17 0h11.112l-4.45 5h-2.918a4 4 0 0 0-3.744-4.998zm13.37 5h-2.692l2.692-4.513zm1.5-5v5h.28c2.27 0 4.37-1.19 5.54-3.14c.49-.82-.1-1.86-1.05-1.86z"/><path fill="#212121" d="M4.5 15c-.28 0-.5.22-.5.5v1c0 .28.22.5.5.5s.5-.22.5-.5v-1c0-.28-.22-.5-.5-.5"/></g></svg>