<svg xmlns="http://www.w3.org/2000/svg" xmlns:xlink="http://www.w3.org/1999/xlink" width="32" height="32" viewBox="0 0 32 32"><g fill="none"><path fill="#9B9B9B" d="M10.042 4.7a.5.5 0 0 1 .916-.4l.436.996a.5.5 0 1 1-.917.4l-.435-.996Zm4.519 10.402a.5.5 0 0 1 .917-.4l.519 1.194l.519-1.193a.5.5 0 1 1 .917.399l-.89 2.047L20.958 27.3a.5.5 0 1 1-.918.4l-4.044-9.298l-4.045 9.297a.5.5 0 1 1-.917-.399l4.417-10.151l-.891-2.047ZM21.952 4.7a.5.5 0 1 0-.916-.4l-.436.996a.5.5 0 0 0 .917.4l.435-.996Z"/><path fill="#E1D8EC" d="M11.389 5.262L4.963 8.078A1 1 0 0 0 4.47 9.44l.793 1.585l2.648 8.737L9.5 17.5l5.993-2.777l-4.104-9.461Zm9.222 0l6.426 2.816a1 1 0 0 1 .493 1.363l-.839 1.715l-2.396 9.298L22.5 17.5l-5.993-2.777l4.104-9.461Z"/><path fill="#CDC4D6" d="m9.5 17.5l-.54.27a.5.5 0 0 1-.677-.235l-2.975-6.376a.5.5 0 0 1-.295.55l-2.059.882a1 1 0 0 0-.51 1.347l3.638 7.68a1 1 0 0 0 1.31.486l3.13-1.392a.5.5 0 0 0 .244-.68L9.5 17.5Z"/><path fill="#F3EEF8" d="m22.5 17.5l.54.27a.5.5 0 0 0 .677-.235l2.975-6.376a.5.5 0 0 0 .295.55l2.059.882a1 1 0 0 1 .51 1.347l-3.638 7.68a1 1 0 0 1-1.31.486l-3.13-1.392a.5.5 0 0 1-.244-.68L22.5 17.5Z"/><path fill="#F8312F" d="M9.25 15.5a2.25 2.25 0 1 0 0-4.5a2.25 2.25 0 0 0 0 4.5Zm13.5 0a2.25 2.25 0 1 1 0-4.5a2.25 2.25 0 0 1 0 4.5Z"/></g></svg>