<svg xmlns="http://www.w3.org/2000/svg" xmlns:xlink="http://www.w3.org/1999/xlink" width="32" height="32" viewBox="0 0 32 32"><g fill="none"><path fill="#9B9B9B" d="M11.855 19.92a.75.75 0 0 1 0 1.06l-7 7a.75.75 0 1 1-1.06-1.06l7-7a.75.75 0 0 1 1.06 0"/><path fill="#7167A4" d="m22.525 13.75l-4.5-4.5l1.4-1.4l4.5 4.5z"/><path fill="#BEBEBE" d="M10.325 23.45c-.2 0-.4-.1-.6-.2l-1.1-1.1c-.3-.3-.3-.8 0-1.2l2-2.1c.6-.5 2.1-2.3 2.1-3.5c0-2.2 2-3.9 2.1-4l7.2-7.2l1.2 1.2l-7.3 7.3c-.1.1-1.5 1.4-1.5 2.8c0 1.2-.8 2.5-1.5 3.4c.9-.7 2.2-1.5 3.5-1.5c1.4 0 2.8-1.5 2.8-1.5l7.3-7.3l1.2 1.2l-7.4 7.2s-1.8 2-4 2c-1.2 0-2.9 1.5-3.5 2l-1.9 2.2q-.3.3-.6.3"/><path fill="#7167A4" d="m3.225 29.65l-1-1c-.3-.3-.3-.8 0-1.1l1.7-1.7c.3-.3.8-.3 1.1 0l1 1c.3.3.3.8 0 1.1l-1.7 1.7c-.3.3-.8.3-1.1 0m23.8-19.7l-5.2-5.2c-.6-.6-.6-1.7 0-2.3s1.7-.6 2.3 0l5.2 5.2c.6.6.6 1.7 0 2.3s-1.7.6-2.3 0"/></g></svg>