<svg xmlns="http://www.w3.org/2000/svg" xmlns:xlink="http://www.w3.org/1999/xlink" width="32" height="32" viewBox="0 0 32 32"><g fill="none"><path fill="#F3C07B" d="M5 29h23V13.962L16.531 5L10 10.076V6.54c0-.3-.241-.54-.533-.54H8.01v-.46c0-.3-.251-.54-.543-.54h-.924A.54.54 0 0 0 6 5.54v6.92c0 .216.125.4.306.487L5 13.962z"/><path fill="#212121" d="M8 20.534C8 18.58 9.568 17 11.505 17A3.503 3.503 0 0 1 15 20.534v8.073c0 .222-.17.393-.39.393H8.39a.385.385 0 0 1-.39-.393zM20 19.5c0-1.38 1.118-2.5 2.495-2.5A2.513 2.513 0 0 1 25 19.5V23h-5z"/><path fill="#7D4533" d="m26.563 20.344l-7.71 1.645a.544.544 0 0 1-.644-.426l-.198-.912a.544.544 0 0 1 .426-.644l7.71-1.645a.544.544 0 0 1 .644.426l.198.912a.544.544 0 0 1-.426.644M7 22.5a.5.5 0 0 1 .5-.5h8a.5.5 0 0 1 .5.5v1a.5.5 0 0 1-.5.5h-8a.5.5 0 0 1-.5-.5zm.503 2.5l7.994.01a.494.494 0 1 1 0 .99l-7.994-.01a.494.494 0 1 1 0-.99"/><path fill="#F8312F" d="M29.76 15.638a.95.95 0 0 0-.14-1.35l-6.22-4.99a.72.72 0 0 0-.65-.14c-.14.04-.3.05-.4-.03l-1.54-1.24c-.13-.1-.13-.34-.11-.52a.39.39 0 0 0-.15-.36l-3.39-2.72a1 1 0 0 0-.214-.158a.97.97 0 0 0-1.233.222L3.36 14.248c-.24.19-.36.47-.36.75c0 .22.07.44.21.61c.33.41.95.47 1.36.14l2.56-2.05c.17-.14.23-.36.19-.57v-.04c0-.14.07-.3.2-.4l2.08-1.66c.11-.09.3-.07.46-.02c.19.06.41.03.57-.1l5.841-4.675L28.4 15.788c.41.33 1.03.27 1.36-.15"/></g></svg>