<svg xmlns="http://www.w3.org/2000/svg" xmlns:xlink="http://www.w3.org/1999/xlink" width="32" height="32" viewBox="0 0 32 32"><g fill="none"><path fill="#FFB02E" d="M15.999 29.998c9.334 0 13.999-6.268 13.999-14c0-7.73-4.665-13.998-14-13.998C6.665 2 2 8.268 2 15.999s4.664 13.999 13.999 13.999"/><path fill="#212121" d="M9.879 9.121c-.829-.828-1.93-.828-2.758 0A3 3 0 0 1 2.88 4.88c3.171-3.172 8.07-3.172 11.242 0A3 3 0 1 1 9.88 9.12m12.241.001c.829-.828 1.93-.828 2.758 0A3 3 0 1 0 29.12 4.88c-3.171-3.172-8.07-3.172-11.242 0a3 3 0 1 0 4.242 4.24m-4.23 18.297a3.3 3.3 0 0 0 1.875.583a3.26 3.26 0 0 0 2.851-1.643c.813-1.442.282-3.266-1.095-4.22l-3.685-2.555a3.315 3.315 0 0 0-3.782.021l-3.707 2.64a3.145 3.145 0 0 0-.304 4.92c1.138 1.06 2.937 1.07 4.206.17l.227-.16a2.63 2.63 0 0 1 3.035-.021z"/><path fill="#fff" d="M27.5 13.5a5 5 0 1 1-10 0a5 5 0 0 1 10 0m-12.998.003a5 5 0 1 1-10 0a5 5 0 0 1 10 0"/><path fill="#FF822D" d="M17.972 22h-3.943c-1.467 0-2.445-1.485-1.854-2.8c0 0 2.272-2.618 2.781-6.2h2.12c.509 3.462 2.75 6.21 2.75 6.21c.591 1.315-.397 2.79-1.854 2.79"/><path fill="#402A32" d="M8 13.5a2.5 2.5 0 1 1 5 0a2.5 2.5 0 0 1-5 0m11 0a2.5 2.5 0 1 1 5 0a2.5 2.5 0 0 1-5 0"/><path fill="#402A32" d="M9.5 8a5.5 5.5 0 0 1 5.293 4h2.414a5.502 5.502 0 0 1 10.586 0h2.12c.598 0 1.087.45 1.087 1s-.49 1-1.087 1h-1.935a5.5 5.5 0 0 1-10.956 0h-2.044a5.5 5.5 0 0 1-10.956 0H2a1 1 0 1 1 0-2h2.207A5.5 5.5 0 0 1 9.5 8M5 13.5a4.5 4.5 0 1 0 9 0a4.5 4.5 0 0 0-9 0m13.007 0a4.493 4.493 0 1 0 8.986 0a4.493 4.493 0 0 0-8.986 0"/></g></svg>