<svg xmlns="http://www.w3.org/2000/svg" xmlns:xlink="http://www.w3.org/1999/xlink" width="32" height="32" viewBox="0 0 32 32"><g fill="none"><path fill="#F8312F" d="M3.75 16c-.41 0-.75-.34-.75-.75v-.23c0-.46.37-.82.82-.82h.68v1.05c0 .41-.34.75-.75.75"/><path fill="#D3883E" d="M15.54 21h-3L14 29.74c.03.15.16.26.31.26h2.44c.15 0 .27-.14.25-.29zm4.41 0h3l-1.97 8.76c-.03.14-.15.24-.3.24h-2.44a.24.24 0 0 1-.24-.3z"/><path fill="#F3AD61" d="M19.05 9.72A5.506 5.506 0 0 1 24.62 5c2.91.06 5.3 2.43 5.38 5.34a5.5 5.5 0 0 1-3.072 5.097q.071.381.072.783v5.28c0 .11.06.21.14.26l1.17.78c.43.29.69.78.7 1.3v5.85c0 .17-.14.31-.31.31h-2.38c-.17 0-.31-.14-.31-.31v-3.48c0-.13-.08-.24-.2-.29l-2.45-.98A3.75 3.75 0 0 1 21 21.52L16.84 21L12 22v1.17C12 24.74 10.74 26 9.17 26H8v.38c0 .34-.28.62-.62.62H5.63c-.35 0-.63-.28-.63-.62v-.67C5 24.21 6.21 23 7.7 23H9v-1.03c-1.28-1.26-2-2.98-2-4.78v-1.88c0-.17-.14-.31-.31-.31H5c-1.66 0-3-1.34-3-3v-.24c0-.42.34-.76.76-.76h1.51c.43 0 .81-.29.91-.71l.09-.36A3.87 3.87 0 0 1 9.02 7h1.94c.58 0 1.11.36 1.32.9l1.25 3.12l.067.172c.251.655.701 1.831 2.043 1.658l6.82-.84a4.2 4.2 0 0 1 3.642 1.603A3.51 3.51 0 0 0 28 10.31c-.1-1.79-1.55-3.23-3.33-3.31c-1.43-.07-2.68.72-3.28 1.9c-.35.68-1.07 1.1-1.83 1.1h-.26a.25.25 0 0 1-.25-.28"/><path fill="#FFDEA7" d="M12 22v-1.99l7.47-.01c.85 0 1.53.687 1.53 1.522a5.04 5.04 0 0 1-2.16.478z"/><path fill="#212121" d="M7 11.34c0 .27.22.5.5.5s.5-.23.5-.5v-.57c0-.28-.22-.5-.5-.5s-.5.22-.5.5zM2.75 12.5h.5c.41 0 .75-.34.75-.75S3.66 11 3.25 11h-.5c-.41 0-.75.34-.75.75s.34.75.75.75"/><path fill="#D3883E" d="M9 7h3.56c.73 0 1.27.69 1.09 1.4l-.6 2.39c-.17.71-.81 1.21-1.55 1.21c-.73 0-1.37-.5-1.55-1.21z"/></g></svg>