<svg xmlns="http://www.w3.org/2000/svg" xmlns:xlink="http://www.w3.org/1999/xlink" width="32" height="32" viewBox="0 0 32 32"><g fill="none"><path fill="#FFCE7C" d="M15.999 30c9.334 0 13.999-6.268 13.999-13.999c0-7.731-4.665-13.999-14-13.999C6.665 2.002 2 8.27 2 16.002C2 23.731 6.664 30 15.999 30Z"/><path fill="#D3883E" d="M16 2.75c-.529 0-1.04.02-1.535.061a.75.75 0 0 1-.123-1.495A20.31 20.31 0 0 1 16 1.25c.568 0 1.12.022 1.658.066a.75.75 0 0 1-.123 1.495A18.806 18.806 0 0 0 16 2.75Zm5.045-.056a.75.75 0 0 1 .964-.443c1.098.406 2.097.93 2.994 1.554a.75.75 0 1 1-.857 1.231a11.791 11.791 0 0 0-2.658-1.379a.75.75 0 0 1-.443-.963Zm-10.09 0a.75.75 0 0 1-.443.963a11.81 11.81 0 0 0-2.658 1.379a.75.75 0 0 1-.857-1.23A13.292 13.292 0 0 1 9.99 2.25a.75.75 0 0 1 .964.443ZM4.867 6.809a.75.75 0 0 1 .193 1.043c-.56.815-1.02 1.709-1.377 2.668a.75.75 0 1 1-1.405-.525a13.76 13.76 0 0 1 1.546-2.993a.75.75 0 0 1 1.043-.193Zm22.266 0a.75.75 0 0 1 1.043.193a13.755 13.755 0 0 1 1.546 2.993a.75.75 0 1 1-1.405.525a12.256 12.256 0 0 0-1.377-2.668a.75.75 0 0 1 .193-1.043Zm-25 6.848a.75.75 0 0 1 .682.812a17.714 17.714 0 0 0 0 3.062a.75.75 0 1 1-1.494.13a19.21 19.21 0 0 1 0-3.322a.75.75 0 0 1 .812-.682Zm27.734 0a.75.75 0 0 1 .812.682a19.198 19.198 0 0 1 0 3.322a.75.75 0 1 1-1.494-.13a17.682 17.682 0 0 0 0-3.062a.75.75 0 0 1 .682-.812Zm-.585 7.383a.75.75 0 0 1 .44.965a13.755 13.755 0 0 1-1.546 2.993a.75.75 0 0 1-1.236-.85c.56-.814 1.02-1.709 1.377-2.668a.75.75 0 0 1 .965-.44Zm-26.564 0a.75.75 0 0 1 .965.44c.358.96.817 1.854 1.377 2.668a.75.75 0 0 1-1.236.85a13.76 13.76 0 0 1-1.546-2.994a.75.75 0 0 1 .44-.964Zm4.092 6.11a.75.75 0 0 1 1.044-.186a11.81 11.81 0 0 0 2.658 1.379a.75.75 0 1 1-.52 1.406a13.29 13.29 0 0 1-2.995-1.554a.75.75 0 0 1-.187-1.044Zm18.38 0a.75.75 0 0 1-.187 1.045a13.29 13.29 0 0 1-2.994 1.554a.75.75 0 1 1-.52-1.406a11.794 11.794 0 0 0 2.657-1.379a.75.75 0 0 1 1.044.187Zm-11.534 2.725a.75.75 0 0 1 .809-.686a19.042 19.042 0 0 0 3.07 0a.75.75 0 0 1 .123 1.495A20.31 20.31 0 0 1 16 30.75c-.568 0-1.12-.022-1.658-.066a.75.75 0 0 1-.686-.81Z"/><path fill="#fff" d="M14.999 11.501a4.5 4.5 0 1 1-9.001 0a4.5 4.5 0 0 1 9 0Zm1.999 0a4.5 4.5 0 1 0 9.001 0a4.5 4.5 0 0 0-9.001 0Z"/><path fill="#402A32" d="M11.12 14.691a3.21 3.21 0 1 0 0-6.42a3.21 3.21 0 0 0 0 6.42Zm9.757 0a3.21 3.21 0 1 1 0-6.42a3.21 3.21 0 0 1 0 6.42Zm-9.384 4.061a.75.75 0 0 0 0 1.5h9.012a.75.75 0 1 0 0-1.5h-9.012Z"/></g></svg>