<svg xmlns="http://www.w3.org/2000/svg" xmlns:xlink="http://www.w3.org/1999/xlink" width="32" height="32" viewBox="0 0 32 32"><g fill="none"><path fill="#FFCE7C" d="M26.67 4.48c-.13-.11-.28-.22-.45-.32c-1.18-.68-2.96.07-4.25-.27C20.66 3.54 19.49 2 18.15 2c-1.35 0-2.51 1.54-3.82 1.89c-1.29.34-3.07-.41-4.25.27c-1.15.66-1.39 2.57-2.37 3.55s-2.89 1.22-3.55 2.36c-.68 1.18.07 2.96-.27 4.25C3.54 15.63 2 16.8 2 18.15s1.54 2.51 1.89 3.82c.34 1.29-.41 3.07.27 4.25c.1.17.21.31.32.45l.02.02c.08.09.16.17.25.25l1.53 1.53a5.36 5.36 0 0 0 7.59 0l14.61-14.61a5.36 5.36 0 0 0 0-7.59z"/><path fill="#FFDEA7" d="M12.27 11.78c-3.47 3.47-3.47 9.11 0 12.58l2.85 2.85L27.7 14.63l-2.85-2.85c-3.48-3.48-9.11-3.48-12.58 0"/><path fill="#F3AD61" d="M15.6 8c.53-.16.84-.72.68-1.25l-.98-3.29l-.35.2c-.37.18-.77.29-1.18.35l-.4.01l.98 3.29c.16.54.72.85 1.25.69m-4.87 2.73c-.39.39-1.03.39-1.42 0L6.88 8.31l.35-.21c.33-.24.63-.54.87-.87l.2-.35l2.43 2.43c.39.39.39 1.03 0 1.42m-2.77 4.91c-.16.53-.72.84-1.25.68l-3.28-.98l.2-.34c.18-.37.29-.77.35-1.18l.01-.4l3.29.98c.53.15.84.71.68 1.24m-.61 7.19c.55-.09.92-.6.84-1.15a1.02 1.02 0 0 0-1.14-.86l-3.4.52l.16.37c.13.4.19.81.19 1.22l-.04.41zM22.78 7.4c-.09.55-.6.92-1.15.84c-.55-.09-.92-.6-.85-1.14l.52-3.4l.37.16c.4.13.81.19 1.22.19l.4-.04z"/></g></svg>