<svg xmlns="http://www.w3.org/2000/svg" xmlns:xlink="http://www.w3.org/1999/xlink" width="32" height="32" viewBox="0 0 32 32"><g fill="none"><path fill="#00D26A" d="M21.166 26.579V26h-2.737A3.43 3.43 0 0 0 15 29.43v.193c0 .212.172.385.385.385h2.351a3.43 3.43 0 0 0 3.43-3.43"/><path fill="#7D4533" d="M2 19.098L30 7.902v5l-15.495 6.079H30v5.117h-7.43c-.153 0-.207.203-.074.28l1.727.997c1.31.756.773 2.758-.74 2.758c-.259 0-.514-.069-.738-.198l-5.486-3.168a5 5 0 0 0-2.5-.67H2z"/><path fill="#F3AD61" fill-rule="evenodd" d="M21.753 2.849a.5.5 0 0 0 .118.697c.866.616 1.85 1.888 2.645 3.554C22.791 5.16 19.596 3 14.344 3a.5.5 0 1 0 0 1c2.422 0 4.363.485 5.895 1.186a8.5 8.5 0 0 0-1.734-.177h-5.01c-2.11 0-4.041.77-5.527 2.044a9.6 9.6 0 0 1 2.13-2.115a.5.5 0 1 0-.58-.814c-2.114 1.508-4.531 4.556-4.531 9.17q0 .06.014.118v.093A8.495 8.495 0 0 0 13.494 22h5.01a8.495 8.495 0 0 0 8.487-8.858c-.038-2.217-.626-4.4-1.454-6.216c-.85-1.868-1.98-3.408-3.087-4.195a.5.5 0 0 0-.698.118" clip-rule="evenodd"/><path fill="#B97028" fill-rule="evenodd" d="M12.997 5.818a4.854 4.854 0 1 0 0 9.71h1.587c2.1-.192 4.377-.836 6.211-2.848a.5.5 0 1 1 .739.674a9.25 9.25 0 0 1-2.945 2.173h.414a4.854 4.854 0 1 0 0-9.709z" clip-rule="evenodd"/><path fill="#7D4533" fill-rule="evenodd" d="M14.584 15.527h-1.727c-2.241 0-4.117-1.61-4.596-3.769c.402-1.556 1.78-2.703 3.418-2.703h8.642c1.638 0 3.016 1.147 3.418 2.703c-.479 2.159-2.355 3.77-4.596 3.77h-.554a9.25 9.25 0 0 0 2.945-2.174a.5.5 0 1 0-.739-.674c-1.834 2.012-4.11 2.656-6.212 2.847" clip-rule="evenodd"/></g></svg>