<svg xmlns="http://www.w3.org/2000/svg" xmlns:xlink="http://www.w3.org/1999/xlink" width="32" height="32" viewBox="0 0 32 32"><path fill="#F8312F" d="M5 20.618C5 21.933 6.12 23 7.5 23s2.5-1.067 2.5-2.392V4.383C10 3.067 8.88 2 7.5 2S5 3.067 5 4.382zm12.502.245c0 1.302 1.096 2.36 2.447 2.36s2.447-1.058 2.447-2.37v-1.705c0-.11.072-.206.176-.24c3.205-1.06 5.428-3.99 5.428-7.346v-1.254c0-4.239-3.533-7.773-7.879-7.861a8.16 8.16 0 0 0-5.807 2.212c-1.553 1.469-2.416 3.447-2.416 5.552c0 1.311 1.106 2.369 2.457 2.369s2.446-1.058 2.446-2.36c0-.822.335-1.596.945-2.173a3.17 3.17 0 0 1 2.274-.872c1.706.04 3.086 1.45 3.086 3.143v1.244c0 1.468-1.076 2.731-2.568 2.996c-1.757.313-3.036 1.791-3.036 3.514zM19.949 30a2.5 2.5 0 1 0 0-5a2.5 2.5 0 0 0 0 5M10 27.5a2.5 2.5 0 1 1-5 0a2.5 2.5 0 0 1 5 0"/></svg>