<svg xmlns="http://www.w3.org/2000/svg" xmlns:xlink="http://www.w3.org/1999/xlink" width="32" height="32" viewBox="0 0 32 32"><g fill="none"><path fill="#FFB02E" d="M15.999 29.998c9.334 0 13.999-6.268 13.999-14c0-7.73-4.665-13.998-14-13.998C6.665 2 2 8.268 2 15.999s4.664 13.999 13.999 13.999"/><path fill="#fff" d="M15 14.5a4.5 4.5 0 1 1-9 0a4.5 4.5 0 0 1 9 0m11 0a4.5 4.5 0 1 1-9 0a4.5 4.5 0 0 1 9 0"/><path fill="#402A32" d="M11 18a3 3 0 1 0 0-6a3 3 0 0 0 0 6m10 0a3 3 0 1 0 0-6a3 3 0 0 0 0 6"/><path fill="#F3EEF8" d="M32 0H0v32h32zm-9.852 5.438l1.238.722l-.167 1.788a7 7 0 0 0 3.319 2.607l.97-.438l.51.815a8.47 8.47 0 0 0 .892 4.4l-.228 1.15l-.996.357a5.48 5.48 0 0 0-.632 3.435a7.02 7.02 0 0 0-4.604 4.252a8.5 8.5 0 0 0-2.705-.523a4.502 4.502 0 0 0-7.76-1.312A7.98 7.98 0 0 0 6 20h-.022a5.5 5.5 0 0 0-2.27-3.968l-.977.098l-.241-.76a6.99 6.99 0 0 0 2.508-5.52l.914-.48s.864.626 1 .619a7.49 7.49 0 0 0 5.6-3.004l.398-2.261l1.077-1.779A6.5 6.5 0 0 0 19.5 6c.943 0 1.84-.2 2.648-.562"/><path fill="#BCA4EB" d="M0 18.71v-2a7 7 0 0 0 2.49-1.34q.661.26 1.228.67A7 7 0 0 1 0 18.71m0 10.268v-3q.247.021.5.022a5.5 5.5 0 0 0 4.497-2.333A5.5 5.5 0 0 1 0 28.977M11.015 32H8.374a8.5 8.5 0 0 1 1.818-3.197A4.5 4.5 0 0 1 10 27.5c0-1.127.415-2.158 1.1-2.948a4.52 4.52 0 0 0 .955 3.843A8.45 8.45 0 0 0 11.015 32m19.611 0h-2.64a8.47 8.47 0 0 0-2.382-5.415A8.52 8.52 0 0 1 30.626 32M32 24.978v1.815a5.51 5.51 0 0 1-3.819-3.887A5.5 5.5 0 0 0 32 24.978m0-6.265v2.535a8.53 8.53 0 0 1-4.317-4.404a5.5 5.5 0 0 1 1.228-1.512A8.54 8.54 0 0 0 32 18.712M13.136.828A6.47 6.47 0 0 0 12 4.5c0 .887.178 1.732.499 2.502a7.46 7.46 0 0 0 1.488-4.057a6.5 6.5 0 0 1-.851-2.117M24.98 2.996a6.53 6.53 0 0 1-2.832 2.442a7 7 0 0 0 1.08 2.523a6.48 6.48 0 0 0 1.753-4.965m4.592 3.577a8.53 8.53 0 0 0-3.047 3.977c.475.18.975.31 1.493.382a8.45 8.45 0 0 1 1.554-4.36M4.998 9.85a7.5 7.5 0 0 0 1.93.138a7.01 7.01 0 0 0-4.84-5.672a6.99 6.99 0 0 1 2.91 5.534"/></g></svg>