<svg xmlns="http://www.w3.org/2000/svg" xmlns:xlink="http://www.w3.org/1999/xlink" width="32" height="32" viewBox="0 0 32 32"><g fill="none"><path fill="#FFB02E" d="M15.999 29.998c9.334 0 13.999-6.268 13.999-14c0-7.73-4.665-13.998-14-13.998C6.665 2 2 8.268 2 15.999c0 7.731 4.664 13.999 13.999 13.999Z"/><path fill="#fff" d="M10.5 19a4.5 4.5 0 0 0 2.463-8.267l-1.954.625l-1.802-1.17A4.502 4.502 0 0 0 10.5 19Zm11 0a4.5 4.5 0 0 0 1.293-8.811l-1.733 1.35l-2.012-.813A4.5 4.5 0 0 0 21.5 19Z"/><path fill="#402A32" d="M13 11a2 2 0 1 1-3.834-.799A4.5 4.5 0 0 1 10.5 10a4.48 4.48 0 0 1 2.484.747c.01.083.016.167.016.253Zm10 0a2 2 0 1 1-3.984-.253A4.479 4.479 0 0 1 21.5 10a4.5 4.5 0 0 1 1.334.201c.107.245.166.515.166.799ZM12 25a1 1 0 0 1 1-1h6a1 1 0 1 1 0 2h-6a1 1 0 0 1-1-1Z"/></g></svg>