<svg xmlns="http://www.w3.org/2000/svg" xmlns:xlink="http://www.w3.org/1999/xlink" width="32" height="32" viewBox="0 0 32 32"><g fill="none"><path fill="#D3D3D3" d="M5 20.88q0 .12.03.12h2.94Q8 21 8 20.88V17l-.5-1.5L8 14v-3l-.5-1.5L8 8V5l-1.5-.5L5 5v3l.5 1.5L5 11v3l.5 1.5L5 17zm7 0q0 .12.03.12h2.94q.03 0 .03-.12V17l-.5-1.5l.5-1.5v-3l-.5-1.5L15 8V5l-1.5-.5L12 5v3l.5 1.5L12 11zM17.866 30H30V13.13c0-.63-.511-1.13-1.133-1.13h-9.734A1.13 1.13 0 0 0 18 13.13V17l-.134.217z"/><path fill="#9B9B9B" d="m2.21 20.91l7.245-3.63c.25-.12.54.06.54.33v2.79c0 .28.29.46.54.33L18 17v13h-2.033l-2.472-1.537L11.023 30H8.94l-2.501-1.537L3.937 30H2v-8.77c0-.13.08-.26.21-.32"/><path fill="#83CBFF" d="M20 14.5a.5.5 0 0 1 .5-.5h1a.5.5 0 0 1 .5.5v1a.5.5 0 0 1-.5.5h-1a.5.5 0 0 1-.5-.5zm0 3a.5.5 0 0 1 .5-.5h1a.5.5 0 0 1 .5.5v1a.5.5 0 0 1-.5.5h-1a.5.5 0 0 1-.5-.5zm0 3a.5.5 0 0 1 .5-.5h1a.5.5 0 0 1 .5.5v1a.5.5 0 0 1-.5.5h-1a.5.5 0 0 1-.5-.5zm3-6a.5.5 0 0 1 .5-.5h1a.5.5 0 0 1 .5.5v1a.5.5 0 0 1-.5.5h-1a.5.5 0 0 1-.5-.5zm0 3a.5.5 0 0 1 .5-.5h1a.5.5 0 0 1 .5.5v1a.5.5 0 0 1-.5.5h-1a.5.5 0 0 1-.5-.5zm0 3a.5.5 0 0 1 .5-.5h1a.5.5 0 0 1 .5.5v1a.5.5 0 0 1-.5.5h-1a.5.5 0 0 1-.5-.5zm3-6a.5.5 0 0 1 .5-.5h1a.5.5 0 0 1 .5.5v1a.5.5 0 0 1-.5.5h-1a.5.5 0 0 1-.5-.5zm0 3a.5.5 0 0 1 .5-.5h1a.5.5 0 0 1 .5.5v1a.5.5 0 0 1-.5.5h-1a.5.5 0 0 1-.5-.5zm0 3a.5.5 0 0 1 .5-.5h1a.5.5 0 0 1 .5.5v1a.5.5 0 0 1-.5.5h-1a.5.5 0 0 1-.5-.5z"/><path fill="#1C1C1C" d="M21 30h6v-3.637c0-.2-.17-.363-.381-.363H21.38a.37.37 0 0 0-.381.363zM9 30H4v-2.62c0-.21.17-.38.38-.38h4.24c.21 0 .38.17.38.38zm7 0h-5v-2.62c0-.21.17-.38.38-.38h4.24c.21 0 .38.17.38.38z"/><path fill="#F8312F" d="M8 2.51C8 2.23 7.77 2 7.49 2H5.51c-.28 0-.51.23-.51.51V5h3zM8 14H5v3h3zM5 8h3v3H5zm10-5.49c0-.28-.23-.51-.51-.51h-1.98c-.28 0-.51.23-.51.51V5h3zM15 8h-3v3h3zm-3 6h3v3h-3z"/></g></svg>