<svg xmlns="http://www.w3.org/2000/svg" xmlns:xlink="http://www.w3.org/1999/xlink" width="32" height="32" viewBox="0 0 32 32"><g fill="none"><path fill="#402A32" d="M23.09 13.665c.69-.15 1.4 0 1.97.42c.28.21.61.35.95.42c.69.14 1.28.58 1.63 1.18c.17.3.41.57.69.77c.57.41.94 1.05 1.01 1.75c.04.35.14.68.32.99c.35.61.43 1.34.21 2c-.11.33-.15.68-.11 1.03c.08.7-.15 1.4-.62 1.92c-.23.26-.41.57-.52.9c-.22.67-.71 1.21-1.35 1.5c-.32.14-.61.35-.84.61c-.47.52-1.14.82-1.84.82c-.35 0-.7.07-1.01.22c-.64.29-1.37.29-2.02 0c-.32-.14-.67-.22-1.01-.22c-.7 0-1.37-.3-1.84-.82c-.23-.26-.52-.47-.84-.61c-.64-.28-1.13-.83-1.35-1.5c-.11-.33-.28-.64-.52-.9c-.47-.52-.7-1.22-.62-1.92c.04-.35 0-.7-.11-1.03c-.22-.67-.14-1.4.21-2c.18-.3.29-.64.32-.99c.07-.7.44-1.33 1.01-1.75c.28-.2.52-.47.69-.77c.35-.61.94-1.04 1.63-1.18c.34-.07.67-.22.95-.42c.57-.41 1.28-.57 1.97-.42c.35.07.7.07 1.04 0"/><path fill="#212121" d="M24.51 13.779a2.8 2.8 0 0 1-.442.656a3 3 0 0 0-.585 1.012a2.82 2.82 0 0 1-1.518 1.687c-.36.158-.686.394-.944.686a2.8 2.8 0 0 1-2.07.922c-.306 0-.612.048-.897.148a3 3 0 0 1 .256 2.435a2.9 2.9 0 0 0-.134 1.255a3 3 0 0 1-.755 2.338c-.22.248-.401.533-.534.838a2.5 2.5 0 0 1-.367-.711c-.11-.33-.28-.64-.52-.9c-.47-.52-.7-1.22-.62-1.92c.04-.35 0-.7-.11-1.03c-.22-.67-.14-1.4.21-2c.18-.3.29-.64.32-.99c.07-.7.44-1.33 1.01-1.75c.28-.2.52-.47.69-.77c.35-.61.94-1.04 1.63-1.18c.34-.07.67-.22.95-.42c.57-.41 1.28-.57 1.97-.42c.35.07.7.07 1.04 0a2.43 2.43 0 0 1 1.42.114"/><path fill="#6D4534" d="M19.17 3.985c-.57-.42-1.28-.57-1.97-.42c-.34.07-.69.07-1.04 0c-.69-.15-1.4.01-1.97.42c-.28.2-.61.35-.95.42c-.69.14-1.28.57-1.63 1.18c-.17.3-.41.57-.69.77c-.57.42-.94 1.05-1.01 1.75c-.03.35-.14.69-.32.99c-.35.6-.43 1.33-.21 2c.11.33.15.68.11 1.03a2.45 2.45 0 0 0 .401 1.64c-.324.06-.658.057-.99-.01c-.69-.15-1.4.01-1.97.42c-.28.2-.61.35-.95.42c-.69.14-1.28.57-1.63 1.18c-.17.3-.41.57-.69.77c-.57.42-.94 1.05-1.01 1.75c-.03.35-.14.69-.32.99c-.35.6-.43 1.33-.21 2c.11.33.15.68.11 1.03c-.08.7.15 1.4.62 1.92c.24.26.41.57.52.9c.22.67.71 1.22 1.35 1.5c.32.14.61.35.84.61c.47.52 1.14.82 1.84.82c.34 0 .69.08 1.01.22c.65.29 1.38.29 2.02 0c.31-.15.66-.22 1.01-.22c.7 0 1.37-.3 1.84-.82c.23-.26.52-.47.84-.61c.64-.29 1.13-.83 1.35-1.5c.11-.33.29-.64.52-.9c.47-.52.7-1.22.62-1.92c-.04-.35 0-.7.11-1.03c.22-.66.14-1.39-.21-2a2.5 2.5 0 0 1-.325-1.023a2.44 2.44 0 0 0 1.504-.167c.31-.15.66-.22 1.01-.22c.7 0 1.37-.3 1.84-.82c.23-.26.52-.47.84-.61c.64-.29 1.13-.83 1.35-1.5c.11-.33.29-.64.52-.9c.47-.52.7-1.22.62-1.92c-.04-.35 0-.7.11-1.03c.22-.66.14-1.39-.21-2c-.18-.31-.28-.64-.32-.99c-.07-.7-.44-1.34-1.01-1.75c-.28-.2-.52-.47-.69-.77c-.35-.6-.94-1.04-1.63-1.18a2.4 2.4 0 0 1-.95-.42"/><path fill="#402A32" d="M16.186 18.262c.317.065.642.067.957.007a3 3 0 0 1-.058-.345a2.8 2.8 0 0 0-1.143-1.981a2.75 2.75 0 0 1-.782-.872a2.8 2.8 0 0 0-1.845-1.336a2.7 2.7 0 0 1-1.076-.476c-.645-.475-1.45-.645-2.23-.475a3 3 0 0 1-.494.058c.06.329.189.643.376.923l.05-.01c.69-.15 1.4 0 1.97.42c.28.21.61.35.95.42c.69.14 1.28.58 1.63 1.18c.17.3.41.57.69.77c.56.403.927 1.03 1.005 1.717"/><path fill="#C3EF3C" d="M8.27 15.345c.46-.1.93 0 1.31.28c.19.14.4.23.63.28c.46.1.85.38 1.08.79c.12.2.27.38.46.51c.38.27.62.69.67 1.16c.02.23.1.45.21.66c.23.4.29.89.14 1.33c-.07.22-.1.45-.07.69c.05.46-.1.93-.41 1.27c-.16.17-.27.38-.34.6c-.14.44-.47.81-.9.99c-.21.09-.4.23-.56.4c-.31.35-.76.55-1.22.54c-.23 0-.46.05-.67.14c-.43.19-.91.19-1.34 0c-.21-.1-.44-.14-.67-.14c-.47 0-.91-.2-1.22-.54c-.15-.17-.34-.31-.56-.4a1.66 1.66 0 0 1-.9-.99c-.07-.22-.19-.42-.34-.6c-.31-.35-.46-.81-.41-1.27c.02-.23 0-.46-.07-.69c-.15-.44-.09-.93.14-1.33q.18-.3.21-.66c.05-.46.29-.89.67-1.16c.19-.14.35-.31.46-.51c.23-.4.63-.69 1.08-.79c.23-.05.44-.14.63-.28c.38-.28.85-.38 1.31-.28c.22.05.46.05.68 0"/></g></svg>