<svg xmlns="http://www.w3.org/2000/svg" xmlns:xlink="http://www.w3.org/1999/xlink" width="32" height="32" viewBox="0 0 32 32"><g fill="none"><path fill="#000" d="M22.39 30H9.61A2.615 2.615 0 0 1 7 27.384V4.617A2.615 2.615 0 0 1 9.61 2h12.78C23.83 2 25 3.173 25 4.617v22.767A2.615 2.615 0 0 1 22.39 30"/><path fill="#433B6B" d="M9.745 15.5h12.52c.957 0 1.745-.794 1.735-1.76V4.76C24 3.784 23.222 3 22.255 3H9.745C8.778 3 8 3.784 8 4.76v8.98c0 .976.778 1.76 1.745 1.76m0 13.5h12.52c.957 0 1.745-.794 1.735-1.76v-8.98c0-.976-.778-1.76-1.745-1.76H9.745C8.778 16.5 8 17.284 8 18.26v8.98c0 .976.778 1.76 1.745 1.76"/><path fill="#F4F4F4" d="M13.53 8.1h4.9c.44 0 .79-.35.79-.79V5.73c0-.44-.36-.79-.79-.79h-4.9c-.44 0-.79.36-.79.79v1.58c0 .44.36.79.79.79m0 13.42h4.9c.44 0 .79-.35.79-.79v-1.58c0-.44-.36-.79-.79-.79h-4.9c-.44 0-.79.36-.79.79v1.58c0 .44.36.79.79.79"/><path fill="#8D65C5" d="M13.53 4.567c-.649 0-1.163.53-1.163 1.163v1.58c0 .649.53 1.163 1.163 1.163h4.9c.646 0 1.163-.517 1.163-1.163V5.73c0-.649-.53-1.163-1.163-1.163zm-.417 1.163c0-.227.186-.417.417-.417h4.9c.227 0 .417.186.417.417v1.58a.413.413 0 0 1-.417.417h-4.9a.42.42 0 0 1-.417-.417zm-.003 4.45a.75.75 0 0 0 0 1.5h5.72a.75.75 0 0 0 0-1.5zm-.743 8.97c0-.633.514-1.163 1.163-1.163h4.9c.633 0 1.163.514 1.163 1.163v1.58c0 .646-.517 1.163-1.163 1.163h-4.9a1.164 1.164 0 0 1-1.163-1.163zm1.163-.417a.42.42 0 0 0-.417.417v1.58c0 .231.19.417.417.417h4.9a.413.413 0 0 0 .417-.417v-1.58a.42.42 0 0 0-.417-.417zm-.42 4.867a.75.75 0 0 0 0 1.5h5.72a.75.75 0 0 0 0-1.5z"/></g></svg>