<svg xmlns="http://www.w3.org/2000/svg" xmlns:xlink="http://www.w3.org/1999/xlink" width="32" height="32" viewBox="0 0 32 32"><g fill="none"><path fill="#D3D3D3" d="M2 6a4 4 0 0 1 4-4h20a4 4 0 0 1 4 4v20a4 4 0 0 1-4 4H6a4 4 0 0 1-4-4z"/><path fill="#E6E6E6" d="M2.34 4.385A4 4 0 0 0 2 6v9.051h28V6c0-.477-.083-.934-.236-1.357c-.486.216-.998.411-1.593.411c-.827 0-1.339-.252-1.844-.5c-.491-.243-.976-.482-1.74-.482c-.665 0-1.162.239-1.666.48c-.518.25-1.045.502-1.77.502c-.743 0-1.222-.239-1.707-.48c-.5-.25-1.005-.502-1.81-.502c-.797 0-1.305.247-1.812.493c-.506.245-1.01.49-1.799.49c-.712 0-1.165-.235-1.63-.475c-.484-.251-.98-.508-1.794-.508c-.688 0-1.18.233-1.687.472c-.533.252-1.08.51-1.883.51c-.67 0-1.17-.243-1.671-.488c-.505-.246-1.013-.494-1.7-.494c-.57 0-.96.14-1.319.313"/><path fill="#F4F4F4" d="M30 12.826v8.25H5.809V12h.717c.687 0 1.194.248 1.7.494c.5.245 1 .488 1.67.488c.804 0 1.35-.258 1.883-.51c.507-.239 1-.472 1.688-.472c.813 0 1.31.257 1.794.507c.464.24.918.475 1.63.475c.788 0 1.293-.245 1.798-.49c.507-.246 1.015-.492 1.812-.492c.806 0 1.311.252 1.81.501c.485.242.964.481 1.707.481c.726 0 1.252-.253 1.77-.502c.504-.242 1.001-.48 1.667-.48c.763 0 1.248.239 1.74.481c.253.125.509.251.805.345"/><path fill="#9B9B9B" d="M6.965 30h2.027L13 29V7.25C13 6.56 12.44 6 11.75 6h-1.5C9.56 6 9 6.56 9 7.25V8H5.25C4.56 8 4 8.56 4 9.25v19.215zM18 29l2.996 1h2.01L28 28.465V17.25c0-.69-.56-1.25-1.25-1.25h-7.5c-.69 0-1.25.56-1.25 1.25z"/><path fill="#5A93CB" d="M2 14v12c1.18 2 1.79 2 4 2h1V15.25C7 14.56 6.44 14 5.75 14zm7 14h12v-3.75c0-.69-.56-1.25-1.25-1.25H19V12.25c0-.69-.56-1.25-1.25-1.25h-7.5C9.56 11 9 11.56 9 12.25zm14 0h3c2.21 0 2.367-.957 4-2v-7h-5.75c-.69 0-1.25.56-1.25 1.25z"/><path fill="#FFF478" d="M11.5 13a.5.5 0 0 0-.5.5v1a.5.5 0 0 0 .5.5h1a.5.5 0 0 0 .5-.5v-1a.5.5 0 0 0-.5-.5zm-8 7a.5.5 0 0 0-.5.5v1a.5.5 0 0 0 .5.5h1a.5.5 0 0 0 .5-.5v-1a.5.5 0 0 0-.5-.5zm7.5-2.5a.5.5 0 0 1 .5-.5h1a.5.5 0 0 1 .5.5v1a.5.5 0 0 1-.5.5h-1a.5.5 0 0 1-.5-.5zm.5 7.5a.5.5 0 0 0-.5.5v1a.5.5 0 0 0 .5.5h1a.5.5 0 0 0 .5-.5v-1a.5.5 0 0 0-.5-.5zm3.5-7.5a.5.5 0 0 1 .5-.5h1a.5.5 0 0 1 .5.5v1a.5.5 0 0 1-.5.5h-1a.5.5 0 0 1-.5-.5zm.5 3.5a.5.5 0 0 0-.5.5v1a.5.5 0 0 0 .5.5h1a.5.5 0 0 0 .5-.5v-1a.5.5 0 0 0-.5-.5zm8.5 1a1 1 0 0 1 1-1h5v2h-5a1 1 0 0 1-1-1m1 3a1 1 0 1 0 0 2h4.35a.5.5 0 0 0 .486-.38l.164-.667V25z"/><path fill="#FCD53F" d="M11.5 13a.5.5 0 0 0-.5.5h1a.5.5 0 0 1 .5.5v1a.5.5 0 0 0 .5-.5v-1a.5.5 0 0 0-.5-.5zm-8 7a.5.5 0 0 0-.5.5h1a.5.5 0 0 1 .5.5v1a.5.5 0 0 0 .5-.5v-1a.5.5 0 0 0-.5-.5zm7.5-2.5a.5.5 0 0 1 .5-.5h1a.5.5 0 0 1 .5.5v1a.5.5 0 0 1-.5.5v-1a.5.5 0 0 0-.5-.5zm.5 7.5a.5.5 0 0 0-.5.5h1a.5.5 0 0 1 .5.5v1a.5.5 0 0 0 .5-.5v-1a.5.5 0 0 0-.5-.5zm3.5-7.5a.5.5 0 0 1 .5-.5h1a.5.5 0 0 1 .5.5v1a.5.5 0 0 1-.5.5v-1a.5.5 0 0 0-.5-.5zm.5 3.5a.5.5 0 0 0-.5.5h1a.5.5 0 0 1 .5.5v1a.5.5 0 0 0 .5-.5v-1a.5.5 0 0 0-.5-.5zm9.5 0a1 1 0 0 0-.866.5H30V21zm0 4a1 1 0 0 0-.866.5H30V25z"/><path fill="#212121" d="M15 13.5a.5.5 0 0 1 .5-.5h1a.5.5 0 0 1 .5.5v1a.5.5 0 0 1-.5.5h-1a.5.5 0 0 1-.5-.5zm-12 3a.5.5 0 0 1 .5-.5h1a.5.5 0 0 1 .5.5v1a.5.5 0 0 1-.5.5h-1a.5.5 0 0 1-.5-.5zm0 8a.5.5 0 0 1 .5-.5h1a.5.5 0 0 1 .5.5v1a.5.5 0 0 1-.5.5h-1a.5.5 0 0 1-.5-.5zm8.5-3.5a.5.5 0 0 0-.5.5v1a.5.5 0 0 0 .5.5h1a.5.5 0 0 0 .5-.5v-1a.5.5 0 0 0-.5-.5zm4 4a.5.5 0 0 0-.5.5v1a.5.5 0 0 0 .5.5h1a.5.5 0 0 0 .5-.5v-1a.5.5 0 0 0-.5-.5z"/><path fill="#D3D3D3" d="M30 25.95V26a4 4 0 0 1-4 4H6a4 4 0 0 1-4-4v-.05h.055c.688 0 1.195.247 1.7.494c.501.244 1 .488 1.672.488c.803 0 1.35-.259 1.883-.51c.505-.24.999-.472 1.687-.472c.813 0 1.31.256 1.794.507c.464.24.918.475 1.63.475c.788 0 1.293-.245 1.798-.49c.507-.246 1.015-.492 1.812-.492c.806 0 1.311.252 1.81.5c.485.243.964.482 1.707.482c.726 0 1.252-.253 1.77-.502c.504-.242 1.001-.48 1.667-.48c.763 0 1.248.239 1.74.48c.505.25 1.016.502 1.843.502c.692 0 1.272-.264 1.83-.519c.517-.236 1.015-.463 1.568-.463z"/></g></svg>