<svg xmlns="http://www.w3.org/2000/svg" xmlns:xlink="http://www.w3.org/1999/xlink" width="32" height="32" viewBox="0 0 32 32"><g fill="#533566"><path d="M10.495 2.01a1.25 1.25 0 0 1 1.1 1.384l-.072.625a1.25 1.25 0 1 1-2.484-.285l.072-.626a1.25 1.25 0 0 1 1.384-1.099Zm4.94 2.11a1.718 1.718 0 0 0-1.356-2.015a1.716 1.716 0 0 0-2.011 1.36l-.165.845a1.717 1.717 0 0 0 1.356 2.016c.93.18 1.83-.429 2.011-1.361l.165-.845Z"/><path d="M13.66 8.92c0-3-2.46-3.42-5.5-3.42s-5.43.38-5.49 3.31v11.11a4.5 4.5 0 1 0 8.18-2.58a3.59 3.59 0 0 1 .81-4.16a5.49 5.49 0 0 0 2-4.26ZM8.67 3.43a1.13 1.13 0 0 0-2.26 0V4a1.13 1.13 0 1 0 2.26 0v-.57Zm-3.798-.57a1.028 1.028 0 0 1 1.136.907l.06.517a1.028 1.028 0 0 1-.902 1.14a1.028 1.028 0 0 1-1.135-.907l-.06-.516a1.028 1.028 0 0 1 .901-1.14Z"/><path d="m2.67 4.092l-.009.002a.87.87 0 0 0-.64 1.051l.107.437a.87.87 0 0 0 1.051.64l.01-.003a.87.87 0 0 0 .64-1.05l-.107-.438a.87.87 0 0 0-1.051-.64Zm19.24 5.922a1.25 1.25 0 0 1-1.384-1.1l-.072-.625a1.25 1.25 0 1 1 2.484-.286l.071.626a1.25 1.25 0 0 1-1.099 1.385Zm-5.122-.146A1.718 1.718 0 0 0 18.8 11.23a1.718 1.718 0 0 0 1.355-2.015l-.164-.844a1.718 1.718 0 0 0-2.011-1.362a1.717 1.717 0 0 0-1.356 2.016l.164.844Z"/><path d="M18.39 13.82c0-3 2.47-3.42 5.5-3.42s5.44.38 5.5 3.31v11.12a4.5 4.5 0 1 1-9 0c0-.926.29-1.828.83-2.58a3.599 3.599 0 0 0-.81-4.16a5.5 5.5 0 0 1-2.02-4.27Zm5-4.91a1.13 1.13 0 1 0 2.26 0v-.57a1.13 1.13 0 0 0-2.26 0v.57Zm3.495 1.402a1.028 1.028 0 0 1-.901-1.14l.06-.517c.064-.565.573-.97 1.135-.906c.562.064.966.575.9 1.14l-.059.516a1.027 1.027 0 0 1-1.135.907Zm1.981.797l.01.002a.87.87 0 0 0 1.051-.64l.107-.437a.87.87 0 0 0-.64-1.05l-.01-.003a.87.87 0 0 0-1.05.64l-.107.437a.87.87 0 0 0 .64 1.05Z"/></g></svg>