<svg xmlns="http://www.w3.org/2000/svg" xmlns:xlink="http://www.w3.org/1999/xlink" width="32" height="32" viewBox="0 0 32 32"><g fill="none"><path fill="#008463" d="M20.663 29.841a.875.875 0 0 0 .799-1.557zm.799-1.557c-2.708-1.39-3.811-3.233-4.277-5.269c-.49-2.143-.279-4.44-.279-6.89h-1.75c0 2.225-.226 4.881.323 7.28c.573 2.506 1.986 4.795 5.184 6.436z"/><path fill="#00D26A" d="M16.025 9.237c-.095-2.481-.513-5.067-2.134-6.425c-2.253-1.886-5.672.141-5.188 2.922c-3.14-.328-5.257 3.91-2.094 5.907c1.504.948 3.044 1.246 4.85 1.327c-1.827.102-3.381.424-4.9 1.382c-3.162 1.996-1.046 6.234 2.095 5.906c-.485 2.781 2.843 4.693 5.187 2.922c1.447-1.094 1.97-2.979 2.138-4.965c.188 1.986.733 3.871 2.18 4.965c2.344 1.771 5.671-.14 5.187-2.922c3.14.328 5.257-3.91 2.094-5.906c-1.506-.95-3.074-1.275-4.905-1.38c1.83-.077 3.385-.37 4.905-1.33c3.163-1.995 1.047-6.234-2.094-5.906c.484-2.78-2.935-4.808-5.187-2.922c-1.621 1.358-2.04 3.944-2.134 6.425"/></g></svg>