<svg xmlns="http://www.w3.org/2000/svg" xmlns:xlink="http://www.w3.org/1999/xlink" width="32" height="32" viewBox="0 0 32 32"><g fill="none"><path fill="#FFB02E" d="M15.999 29.998c9.334 0 13.999-6.268 13.999-14c0-7.73-4.665-13.998-14-13.998C6.665 2 2 8.268 2 15.999s4.664 13.999 13.999 13.999"/><path fill="#fff" d="M10.5 18a4.5 4.5 0 1 0 0-9a4.5 4.5 0 0 0 0 9m11 0a4.5 4.5 0 1 0 0-9a4.5 4.5 0 0 0 0 9"/><path fill="#402A32" d="M12 16a2 2 0 1 0 0-4a2 2 0 0 0 0 4m8 0a2 2 0 1 0 0-4a2 2 0 0 0 0 4"/><path fill="#BB1D80" d="M20.901 25.006c.11.542-.35.994-.902.994H12c-.552 0-1.01-.452-.901-.994a5.002 5.002 0 0 1 9.802 0"/></g></svg>