<svg xmlns="http://www.w3.org/2000/svg" xmlns:xlink="http://www.w3.org/1999/xlink" width="32" height="32" viewBox="0 0 32 32"><g fill="none"><path fill="#F8312F" d="M7 29.01V3.99C7 2.89 7.89 2 8.99 2h12.02c1.1 0 1.99.89 1.99 1.99v25.02z"/><path fill="#212121" d="M26 12.5a.5.5 0 1 1-1 0a.5.5 0 0 1 1 0m0 12V13h1v11.5c0 .83-.67 1.5-1.5 1.5s-1.5-.67-1.5-1.5v-7c0-.28-.22-.5-.5-.5l-.098-.004c-.137-.007-.357-.019-.402.004v-1c.032-.008.305-.003.435-.001L23.5 16c.83 0 1.5.67 1.5 1.5v7c0 .28.22.5.5.5s.5-.22.5-.5"/><path fill="#D3D3D3" d="M10.03 12h9.94c.57 0 1.03-.46 1.03-1.03V5.03C21 4.46 20.54 4 19.97 4h-9.94C9.46 4 9 4.46 9 5.03v5.94c0 .57.46 1.03 1.03 1.03M7 28h16.01c.55 0 .99.44.99.99V30H6v-1c0-.55.45-1 1-1M23 7.45c0 .07.01.13.04.19l.92 2.01c.03.06.04.13.04.19v3.1c0 .59.44 1.05.99 1.05h1.59c.23 0 .42-.2.42-.45V9.96a.46.46 0 0 0-.17-.36l-3.15-2.51c-.28-.22-.68-.01-.68.36m2.58 5.48h-.15c-.23 0-.42-.2-.42-.45v-1.65c0-.4.46-.6.72-.32l.15.16c.08.08.12.2.12.32v1.5c0 .24-.19.44-.42.44M7 14h16v1H7z"/><path fill="#212121" d="M9 6h12v-.97C21 4.46 20.54 4 19.97 4h-9.94C9.46 4 9 4.46 9 5.03zm6.5 1h4c.28 0 .5.22.5.5s-.22.5-.5.5h-4c-.28 0-.5-.22-.5-.5s.22-.5.5-.5"/></g></svg>