<svg xmlns="http://www.w3.org/2000/svg" xmlns:xlink="http://www.w3.org/1999/xlink" width="32" height="32" viewBox="0 0 32 32"><g fill="none"><path fill="#FCD53F" d="M29.999 15.966c0 7.731-6.268 14-14 14c-7.731 0-13.999-6.269-13.999-14c0-7.732 6.268-14 14-14c7.731 0 13.999 6.268 13.999 14"/><path fill="#F9C23C" d="M2.022 15.175a3.651 3.651 0 1 1 1.482 7.11a13.94 13.94 0 0 1-1.482-7.11M26.157 25.6a14 14 0 0 1-6.224 3.806a3.651 3.651 0 0 1 6.224-3.805m3.797-8.508a13.9 13.9 0 0 1-1.28 4.828a2.498 2.498 0 1 1 1.28-4.828M15.494 8a2.497 2.497 0 1 0 0-4.994a2.497 2.497 0 0 0 0 4.994m-.704 14.615c1.05.822 1.337 2.211.64 3.102c-.697.89-2.114.945-3.165.123c-1.05-.823-1.336-2.211-.64-3.102c.698-.89 2.115-.946 3.165-.123"/><path fill="#321B41" d="M10.67 8.04a2.48 2.48 0 0 0-2.48 2.48a.5.5 0 1 1-1 0a3.48 3.48 0 0 1 3.48-3.48a.5.5 0 1 1 0 1m9.88-.5a.5.5 0 0 1 .5-.5a3.48 3.48 0 0 1 3.48 3.48a.5.5 0 1 1-1 0a2.48 2.48 0 0 0-2.48-2.48a.5.5 0 0 1-.5-.5m-10.242 4.844a1.37 1.37 0 0 1 1.282-.864c.608 0 1.126.394 1.308.945a.75.75 0 0 0 1.424-.47a2.88 2.88 0 0 0-2.732-1.975a2.87 2.87 0 0 0-2.678 1.816a.75.75 0 0 0 1.396.548m9.902-.864a1.37 1.37 0 0 0-1.282.864a.75.75 0 1 1-1.396-.548a2.87 2.87 0 0 1 2.678-1.816c1.272 0 2.354.826 2.732 1.975a.75.75 0 0 1-1.424.47c-.182-.55-.7-.945-1.308-.945m-8.24 5.06a.75.75 0 0 0-1.06 1.06a7.02 7.02 0 0 0 9.93 0a.75.75 0 1 0-1.06-1.06a5.52 5.52 0 0 1-7.81 0"/></g></svg>