<svg xmlns="http://www.w3.org/2000/svg" xmlns:xlink="http://www.w3.org/1999/xlink" width="32" height="32" viewBox="0 0 32 32"><g fill="none"><path fill="#FFB2FF" d="M21.014 4.16C18.172 4.663 16 8.017 16 8.017s-2.172-3.354-5.014-3.857C3.981 2.925 1.088 9.092 2.25 13.682c1.65 6.476 9.33 12.943 12.44 15.342a2.13 2.13 0 0 0 2.622 0c3.108-2.398 10.781-8.859 12.44-15.342c1.16-4.59-1.732-10.757-8.737-9.522"/><path fill="#FF6DC6" d="M19.94 7.121c-2.23.38-3.938 2.927-3.938 2.927s-1.709-2.556-3.94-2.927c-5.506-.936-7.787 3.747-6.862 7.24c1.26 4.78 6.974 9.686 9.543 11.694c.746.584 1.77.584 2.516 0c2.57-2.011 8.284-6.92 9.544-11.694c.915-3.493-1.356-8.176-6.863-7.24"/><path fill="#F92F60" d="M18.495 11.084c-1.422.256-2.501 2.008-2.501 2.008s-1.089-1.742-2.502-2.008c-3.501-.645-4.953 2.56-4.365 4.947c.738 3.015 3.887 5.76 5.657 7.104a2 2 0 0 0 2.439-.001c1.768-1.343 4.913-4.09 5.657-7.103c.569-2.386-.883-5.592-4.385-4.947"/></g></svg>