<svg xmlns="http://www.w3.org/2000/svg" xmlns:xlink="http://www.w3.org/1999/xlink" width="32" height="32" viewBox="0 0 32 32"><g fill="none"><path fill="#7D4533" d="m14.122 9.879l15 15a3 3 0 1 1-4.243 4.242l-15-15z"/><path fill="#B4ACBC" d="M12.427 3.23a.5.5 0 0 1 .407-.144l3.196.339a.5.5 0 0 1 .3.85L13.608 7s-.427.52.05 1l1.95 1.95a.5.5 0 0 1 0 .707l-4.95 4.95a.5.5 0 0 1-.707 0l-.29-.29L6.5 14.5l-.97-3.312l-.177-.178a.5.5 0 0 1 0-.707z"/><path fill="#CDC4D6" d="M2.177 12.298a.25.25 0 0 1 0-.353l.643-.644a2 2 0 0 1 2.829 0l3.889 3.89a2 2 0 0 1 0 2.828l-.644.643a.25.25 0 0 1-.353 0z"/></g></svg>