<svg xmlns="http://www.w3.org/2000/svg" xmlns:xlink="http://www.w3.org/1999/xlink" width="32" height="32" viewBox="0 0 32 32"><g fill="#F8312F"><path d="M16.024 3.938c.35-1.035.637-1.882.329-1.937c-.69-.08-3.35 3.1-3.75 4.99c-.22.94-.14 1.93.3 2.89c.058.198.19.397.32.589l.08.121l.114.17c.115.177.232.354.406.52l1.11 1.14c.6.64 1.02 1.35 1.21 2.12c.28.76.26 1.57.21 2.39c-.064.8-.514 1.99-.902 3.017c-.409 1.082-.75 1.982-.498 2.053c.55.14 3.4-3.05 4.1-4.86c.39-.9.5-1.86.38-2.83c-.1-.97-.59-1.96-1.42-2.85l-1.15-1.13c-.32-.31-.58-.66-.8-1.01c-.5-.7-.64-1.48-.75-2.28c-.066-.81.355-2.054.71-3.103"/><path d="M25.813 13.002c.49-.52 2.35 1.81 2.94 4.13c.28 1.16.28 2.4.12 3.63c-.21 1.22-.71 2.36-1.34 3.38c-1.28 2.05-3.17 3.5-5.17 4.48c-2.02.94-4.2 1.39-6.36 1.4c-2.17-.02-4.34-.47-6.36-1.4c-2-.98-3.89-2.43-5.17-4.48c-.63-1.02-1.13-2.16-1.34-3.38c-.19-1.22-.19-2.46.09-3.62c.59-2.33 2.45-4.65 2.94-4.13c.253.262.009.88-.304 1.67c-.317.804-.706 1.787-.716 2.76c-.02 1.82.7 3.42 1.79 4.66c1.09 1.25 2.55 2.16 4.11 2.78c1.57.57 3.25.88 4.94.88s3.37-.3 4.95-.89c1.56-.61 3.02-1.52 4.11-2.78c1.09-1.25 1.81-2.85 1.79-4.66c-.01-.966-.397-1.943-.714-2.746c-.314-.794-.56-1.416-.306-1.684"/><path d="M21.883 4.002c.238.044.016.72-.257 1.546c-.276.839-.604 1.834-.553 2.484c.09.64.2 1.26.58 1.82c.17.28.37.56.62.81l.9.9c.64.71 1.03 1.5 1.1 2.28c.09.78.01 1.54-.3 2.26c-.54 1.45-2.76 4-3.19 3.88c-.196-.062.07-.789.39-1.659c.3-.817.647-1.762.7-2.402c.04-.66.05-1.3-.16-1.91c-.15-.61-.47-1.18-.94-1.7l-.87-.91a2 2 0 0 1-.298-.382q-.054-.085-.112-.168l-.075-.115c-.099-.149-.195-.296-.235-.455c-.34-.77-.41-1.56-.23-2.31c.32-1.49 2.39-4.03 2.93-3.97M10.396 5.548c.273-.827.495-1.502.257-1.546c-.53-.06-2.6 2.48-2.93 3.97c-.18.75-.11 1.54.23 2.31c.04.159.136.305.235.454l.075.115q.059.082.112.168c.086.13.172.264.298.383l.87.91c.47.52.79 1.09.94 1.7c.21.61.2 1.25.16 1.91c-.053.639-.4 1.584-.7 2.401c-.32.87-.586 1.597-.39 1.659c.43.12 2.65-2.43 3.19-3.88c.31-.72.39-1.48.3-2.26c-.07-.78-.46-1.57-1.1-2.28l-.9-.9c-.25-.25-.45-.53-.62-.81c-.38-.56-.49-1.18-.58-1.82c-.05-.65.277-1.645.553-2.484"/></g></svg>