<svg xmlns="http://www.w3.org/2000/svg" xmlns:xlink="http://www.w3.org/1999/xlink" width="32" height="32" viewBox="0 0 32 32"><g fill="none"><path fill="#83CBFF" d="m25 4l-9-1l-9 1v3.5c.19 2.484 1.823 6.52 7 7.348v2.304c-5.177.829-6.81 4.864-7 7.348V28l9 1l9-1v-3.5c-.19-2.484-1.823-6.52-7-7.348v-2.304c5.177-.829 6.81-4.864 7-7.348z"/><path fill="#FFB02E" d="M17 22.2v-7.4c0-.5.3-.9.8-1c3.2-.7 5.6-3.3 6.1-6.6c.1-.6-.4-1.2-1-1.2H9.1c-.6 0-1.1.6-1 1.2c.5 3.3 2.9 5.9 6.1 6.6c.5.1.8.5.8 1v7.4c0 .5-.3.9-.8 1c-1.9.4-3.5 1.5-4.6 3c-.6.8 0 1.8.9 1.8h11c.9 0 1.5-1 .9-1.7c-1.1-1.5-2.8-2.6-4.6-3c-.5-.2-.8-.6-.8-1.1"/><path fill="#D3D3D3" d="M7 2a1 1 0 0 0 0 2h18a1 1 0 1 0 0-2zm0 26a1 1 0 1 0 0 2h18a1 1 0 1 0 0-2z"/><path fill="#fff" d="M22.007 6.117c.14 1.193-.021 2.147-.4 2.86c-.37.696-.99 1.246-1.939 1.58a1 1 0 1 0 .664 1.886c1.376-.484 2.414-1.347 3.041-2.528c.618-1.164.794-2.551.62-4.032a1 1 0 1 0-1.986.234m-3.136 12.954a1 1 0 0 0-.742 1.857c1.151.46 2.117 1.079 2.79 1.887C21.58 23.605 22 24.628 22 26a1 1 0 1 0 2 0c0-1.828-.578-3.306-1.544-4.465c-.952-1.142-2.236-1.924-3.585-2.464"/></g></svg>