<svg xmlns="http://www.w3.org/2000/svg" xmlns:xlink="http://www.w3.org/1999/xlink" width="32" height="32" viewBox="0 0 32 32"><g fill="none"><path fill="#83CBFF" d="M25 6.4V3.9l-9-.4l-9 .4v2.5c0 4 2.8 7.3 6.5 8.2c.3.1.5.4.5.7v1.2c0 .3-.2.6-.5.6C9.8 18 7 21.3 7 25.3V28l9 1l9-1v-2.7c0-4-2.8-7.3-6.5-8.2c-.3-.1-.5-.3-.5-.6v-1.2c0-.3.2-.6.5-.6c3.7-1 6.5-4.3 6.5-8.3"/><path fill="#9B9B9B" d="M7 4h18c.6 0 1-.4 1-1s-.4-1-1-1H7c-.6 0-1 .4-1 1s.4 1 1 1m0 26h18c.6 0 1-.4 1-1s-.4-1-1-1H7c-.6 0-1 .4-1 1s.4 1 1 1"/><path fill="#FFB02E" d="M17 19.4v-4.3c0-.7.5-1.2 1.1-1.4c1.7-.4 3.2-1.4 4.3-2.7c.7-.8.1-2-.9-2h-11c-1 0-1.6 1.2-.9 2c1.1 1.3 2.6 2.2 4.3 2.7c.7.2 1.1.7 1.1 1.4V19c0 .7-.3 1-.6 1.1c-3.7.7-6.4 3.5-6.4 6.8V28h16v-1.1c0-3.3-2.7-6.1-6.4-6.8c-.3 0-.6-.3-.6-.7"/><path fill="#fff" d="M21.5 5.8c0-.5.4-.9.9-.9c.6.1 1 .5.9.9c-.1 1.6-.5 3-1.3 4.2c-.8 1.4-2 2.4-3.4 2.9c-.5.2-1 0-1.2-.5s0-1 .5-1.2c2.4-.9 3.4-3.5 3.6-5.4m0 20.1c0 .5.4.9.9.9c.6 0 1-.5.9-.9c-.1-1.6-.5-3-1.3-4.2c-.8-1.4-2-2.4-3.4-2.9c-.5-.2-1 0-1.2.5s0 1 .5 1.2c2.4.9 3.4 3.5 3.6 5.4"/></g></svg>