<svg xmlns="http://www.w3.org/2000/svg" xmlns:xlink="http://www.w3.org/1999/xlink" width="32" height="32" viewBox="0 0 32 32"><g fill="none"><path fill="#F3AD61" d="m24.064 19.25l-3.005-1.716a7.516 7.516 0 0 1-4.39 3.181L15.5 25l-.01 4.107a7.495 7.495 0 0 0 6.12-4.395l2.454-5.461ZM7.546 20.962H6.09c-2.26 0-4.09 1.83-4.09 4.09s1.83 4.09 4.09 4.09h.307L8 25l-.454-4.038Z"/><path fill="#F8312F" d="M20.927 17.73c.261-.376.49-.78.683-1.208L25.214 8.5l3.05 1.404l-4.26 9.48l-3.077-1.654Z"/><path fill="#533566" d="M26.79 4.992L25.179 8.58l3.069 1.36l1.602-3.567c.1-.22.15-.45.15-.69c0-1.81-2.47-2.34-3.21-.69Zm-3.15 20.55h5.47c.49 0 .88.39.88.88v1.84c0 .48-.39.88-.88.88h-5.47c-.48 0-.88-.39-.88-.88v-1.84c0-.48.39-.88.88-.88Z"/><path fill="#F4F4F4" d="m12.456 29.142l1.044-4.09l.105-4.09h-3.03L9.5 25.052l-.074 4.09h3.03Z"/><path fill="#D3D3D3" d="M14.76 20.962h-1.155l-1.15 8.18h2.305c.245 0 .49-.012.73-.035l1.18-8.392a7.491 7.491 0 0 1-1.91.247Zm-4.184 0l-1.15 8.18h-3.03l1.15-8.18h3.03Z"/></g></svg>