<svg xmlns="http://www.w3.org/2000/svg" xmlns:xlink="http://www.w3.org/1999/xlink" width="32" height="32" viewBox="0 0 32 32"><g fill="none"><path fill="#F92F60" d="M22.83 13.77H21.7a5.16 5.16 0 0 0-5.16 5.16v7.76c0 .58.47 1.06 1.06 1.06l4.665.75l4.665-.75c.58 0 1.06-.47 1.06-1.06v-7.76a5.16 5.16 0 0 0-5.16-5.16"/><path fill="#00A6ED" d="M10.3 13.77H9.17a5.16 5.16 0 0 0-5.16 5.16v7.76c0 .58.47 1.06 1.06 1.06l4.665.75l4.665-.75c.58 0 1.06-.47 1.06-1.06v-7.76a5.16 5.16 0 0 0-5.16-5.16"/><path fill="#B76A1E" d="M29 27.75H3c-.55 0-1 .45-1 1s.45 1 1 1h26c.55 0 1-.45 1-1s-.45-1-1-1"/><path fill="#321B41" d="M22.53 12.05a1.8 1.8 0 0 1-.54 0h-.25v.02a1.81 1.81 0 1 1-1.528-1.788q.117-.138.253-.258a1.81 1.81 0 0 1 3.59 0q.134.12.25.257q.135-.021.275-.021a1.81 1.81 0 1 1-1.81 1.81v-.02z"/><path fill="#FCD53F" d="M22.003 7.77a1.1 1.1 0 0 0-.481.244l-.282-.674c-.22-.53-.93-.61-1.28-.16a.742.742 0 0 0 .5 1.18l.751.088a1.13 1.13 0 0 0 .115 1.058a2.7 2.7 0 0 1 1.868 0a1.13 1.13 0 0 0 .114-1.059l.742-.087c.56-.07.84-.72.5-1.18c-.35-.45-1.06-.37-1.28.16l-.28.668a1.1 1.1 0 0 0-.473-.239l.383-.659A.742.742 0 0 0 22.26 6c-.57 0-.93.62-.64 1.11zm.737 15.76l2.59-2.65c1.24-1.27.34-3.41-1.44-3.41h-3.32c-1.78 0-2.68 2.14-1.44 3.41l2.59 2.65c.29.28.75.28 1.02 0M9.23 17.51h1c.24 0 .43.21.41.45l-.5 5.53a.412.412 0 0 1-.82 0l-.5-5.53c-.02-.24.17-.45.41-.45"/><path fill="#D3D3D3" d="M7.5 8.41a.5.5 0 0 1 .5-.5h3.594a.5.5 0 0 1 0 1H8a.5.5 0 0 1-.5-.5"/><path fill="#FFF3D7" d="M7.03 12.04c0-1.49 1.21-2.7 2.7-2.7c1.5 0 2.71 1.21 2.7 2.7v1.77c0 1.49-1.21 2.7-2.7 2.7s-2.7-1.21-2.7-2.7zm15.22 4.47c-1.49 0-2.7-1.21-2.7-2.7h-.01v-1.76h5.41v1.76c0 1.49-1.21 2.7-2.7 2.7"/><path fill="#433B6B" d="M12.44 12.05v-.07a2.6 2.6 0 0 0-.11-.69v-.02c-.26-.85-.92-1.53-1.77-1.8c-.07-.03-.13-.04-.19-.06V7.02c0-.23-.11-.43-.27-.56a.586.586 0 0 0-.73 0c-.17.13-.28.34-.28.56v2.39c-.06.02-.12.03-.18.05c-.85.27-1.51.95-1.77 1.8v.02c-.07.22-.1.46-.11.7v.07z"/><path fill="#000" d="M8.11 13.84c0 .28.22.5.5.5a.5.5 0 0 0 .5-.49v-.41c0-.28-.22-.5-.5-.5s-.5.22-.5.5zm2.25 0c0 .28.22.5.5.5a.5.5 0 0 0 .5-.49v-.41c0-.28-.22-.5-.5-.5s-.5.22-.5.5zm10.78.5c-.28 0-.5-.22-.5-.5v-.4c0-.28.22-.5.5-.5s.5.22.5.5v.41c0 .27-.22.49-.5.49m1.75-.5c0 .28.22.5.5.5s.5-.22.5-.49v-.41c0-.28-.22-.5-.5-.5s-.5.22-.5.5z"/></g></svg>