<svg xmlns="http://www.w3.org/2000/svg" xmlns:xlink="http://www.w3.org/1999/xlink" width="32" height="32" viewBox="0 0 32 32"><g fill="none"><path fill="#F92F60" d="M16 30C8.27 30 2 23.73 2 16S8.27 2 16 2s14 6.27 14 14s-6.27 14-14 14"/><path fill="#FCF2FF" d="M18.112 12.67v5.456c1.936-2.288 3.432-5.236 4.51-8.866c.176-.638.264-1.144.286-1.65c.506.154.902.286 1.32.462c.198.088.286.176.286.286c0 .132-.11.242-.22.374c-.198.264-.286.528-.462 1.056c-1.342 4.092-3.124 7.524-5.72 10.252v2.904c0 .506.154.66.506.748c.286.088.814.154 1.584.154c.902 0 1.54 0 2.112-.286c.418-.22.616-.792.726-3.146c.242.176.528.33.858.44c.374.154.374.154.352.528c-.242 2.42-.572 2.948-1.166 3.278s-1.606.44-2.86.44c-1.342 0-1.936-.088-2.42-.242c-.528-.176-.946-.484-.946-1.342v-2.354a22.5 22.5 0 0 1-3.784 2.75c-.176.11-.264.176-.352.176s-.132-.088-.264-.308a2.5 2.5 0 0 0-.682-.748c1.848-.924 3.586-2.134 5.082-3.652v-6.622c0-.616 0-1.232-.11-1.848c.44.022.902.066 1.298.132c.198.044.286.11.286.198c0 .11-.066.242-.11.352c-.066.198-.11.418-.11 1.078m-4.532-.616v.836c0 .154-.022.176-.176.176c-.132 0-.594-.044-2.156-.044h-.132c.682 1.496 1.32 2.574 2.156 3.586c-.22.154-.44.506-.572.792c-.088.176-.132.264-.176.264c-.066 0-.11-.066-.198-.22c-.572-1.012-1.034-2.068-1.474-3.3c0 5.874.154 10.956.154 11.286c0 .132-.022.154-.176.154H9.774c-.154 0-.176-.022-.176-.154c0-.33.198-5.61.242-11.33c-.836 2.816-1.738 4.818-2.86 6.644c-.088.154-.176.242-.242.242s-.11-.088-.198-.264c-.132-.352-.308-.66-.506-.858c1.342-1.848 2.332-3.74 3.366-6.842h-.638c-1.562 0-2.046.044-2.156.044c-.154 0-.176-.022-.176-.176v-.836c0-.176.022-.198.176-.198c.11 0 .594.044 2.156.044h.924V8.622c-.638.198-1.276.352-1.936.506c-.44.11-.44.11-.638-.308a2.5 2.5 0 0 0-.484-.704c2.178-.33 3.828-.858 5.038-1.474c.352-.176.55-.33.792-.528c.374.264.638.484.902.77c.11.11.176.176.176.286c0 .132-.132.198-.33.22c-.176.022-.352.088-.594.198c-.506.22-1.078.44-1.672.638V11.9h.308c1.562 0 2.024-.044 2.156-.044c.154 0 .176.022.176.198m1.298 1.826l.572.198c.242.088.242.154.22.308c-.33 2.112-.704 3.608-1.606 5.412c-.066.154-.154.22-.396.088l-.572-.308c-.242-.154-.242-.242-.176-.352c.968-1.87 1.32-3.212 1.606-5.302c.022-.176.044-.154.352-.044m8.602.396l.506-.264c.242-.132.264-.132.352.022c.88 1.562 1.518 3.102 1.936 4.928c.044.154.044.198-.22.33l-.506.264c-.154.088-.264.132-.308.132c-.066 0-.088-.044-.132-.176c-.462-1.848-.99-3.344-1.87-4.928c-.088-.154-.044-.154.242-.308m-7.392-7.392l.44-.44c.198-.198.22-.22.396-.132c1.364.726 2.618 1.694 3.674 2.684c.132.132.066.176-.11.374l-.418.506c-.22.242-.264.264-.396.132A14.9 14.9 0 0 0 16 7.214c-.132-.066-.132-.11.088-.33"/></g></svg>