<svg xmlns="http://www.w3.org/2000/svg" xmlns:xlink="http://www.w3.org/1999/xlink" width="32" height="32" viewBox="0 0 32 32"><g fill="none"><path fill="#E1D8EC" d="M10 7h12v6H10zm15 8H7v6h18zm2 7H5v8h7.988l3.007-1.46L19.003 30H27z"/><path fill="#F8312F" d="M24.628 6.24a.83.83 0 0 0-.463-1.52a.8.8 0 0 0-.463.14a2.57 2.57 0 0 1-1.399.42c-.865 0-1.72-.44-2.203-1.28l-.714-1.39A1.14 1.14 0 0 0 18.38 2H13.7c-.413 0-.785.22-.986.57L11.9 4a2.53 2.53 0 0 1-2.204 1.28c-.482 0-.965-.14-1.398-.42a.8.8 0 0 0-.453-.14a.83.83 0 0 0-.845.83c0 .28.14.54.372.69l2.013 1.34c.422.27.905.42 1.408.42h10.424c.483 0 .966-.15 1.378-.42zm3.872 7.32c0 .28-.14.54-.372.69l-2.009 1.33c-.411.27-.893.42-1.396.42H7.277a2.57 2.57 0 0 1-1.397-.42l-2.008-1.33a.82.82 0 0 1-.372-.69c0-.49.402-.84.844-.84c.15 0 .311.05.462.14a2.535 2.535 0 0 0 3.174-.31c.351-.35.833-.55 1.336-.55h13.379c.502 0 .984.2 1.335.55c.482.48 1.125.73 1.778.73c.482 0 .964-.14 1.396-.42c.151-.1.302-.14.462-.14c.432 0 .834.35.834.84m1.5 8c0 .28-.14.54-.37.69l-2 1.33c-.41.27-.89.42-1.39.42H5.76c-.49 0-.98-.15-1.39-.42l-2-1.33a.82.82 0 0 1-.37-.69c0-.49.4-.84.84-.84c.15 0 .31.05.46.14c.42.28.91.42 1.39.42c.65 0 1.29-.25 1.77-.73c.35-.35.83-.55 1.33-.55h16.43c.5 0 .98.2 1.33.55c.48.48 1.12.73 1.77.73c.48 0 .96-.14 1.39-.42a.8.8 0 0 1 .46-.14c.42 0 .83.35.83.84"/><path fill="#321B41" d="M13.57 11h-1.14c-.24 0-.43-.19-.43-.43V9.43c0-.24.19-.43.43-.43h1.14c.24 0 .43.19.43.43v1.14a.42.42 0 0 1-.43.43m-3 8H9.43c-.24 0-.43-.19-.43-.43v-1.14c0-.24.19-.43.43-.43h1.14c.24 0 .43.19.43.43v1.14a.42.42 0 0 1-.43.43m-2.81 9h2.5c.41 0 .75-.33.75-.75v-1.5c0-.41-.34-.75-.75-.75h-2.5c-.41 0-.75.34-.75.75v1.5c0 .41.34.75.75.75M13 30h6v-3.99c0-.56-.45-1.01-1.01-1.01h-3.98c-.56 0-1.01.45-1.01 1.01zm2.43-11h1.14c.24 0 .44-.19.43-.43v-1.14c0-.24-.19-.43-.43-.43h-1.14c-.24 0-.43.19-.43.43v1.14c0 .24.19.43.43.43m3-8h1.14c.24 0 .44-.19.43-.43V9.43c0-.24-.19-.43-.43-.43h-1.14c-.24 0-.43.19-.43.43v1.14c0 .24.19.43.43.43m4.14 8h-1.14c-.24 0-.43-.19-.43-.43v-1.14c0-.24.19-.43.43-.43h1.14c.24 0 .43.19.43.43v1.14a.42.42 0 0 1-.43.43m-.81 9h2.5c.41 0 .75-.33.75-.75v-1.5c0-.41-.34-.75-.75-.75h-2.5c-.41 0-.75.34-.75.75v1.5c0 .41.34.75.75.75"/></g></svg>