<svg xmlns="http://www.w3.org/2000/svg" xmlns:xlink="http://www.w3.org/1999/xlink" width="32" height="32" viewBox="0 0 32 32"><g fill="none"><path fill="#F92F60" d="M2 6a4 4 0 0 1 4-4h20a4 4 0 0 1 4 4v20a4 4 0 0 1-4 4H6a4 4 0 0 1-4-4z"/><path fill="#fff" d="M23.748 8.392H22.24c1.69 1.924 3.172 3.042 5.72 4.29c-.208.26-.442.624-.598.936c-.13.234-.208.338-.312.338c-.078 0-.182-.052-.364-.156c-2.002-1.3-3.692-2.782-5.122-4.836c.078 3.094.182 4.888.182 5.2c0 .182-.026.208-.208.208h-1.092c-.182 0-.208-.026-.208-.208c0-.312.13-2.158.182-5.2c-1.248 2.002-2.288 3.276-4.238 4.784c-.182.13-.286.208-.364.208c-.104 0-.182-.13-.364-.364a3 3 0 0 0-.676-.624c2.132-1.326 3.432-2.47 4.888-4.576h-.234c-2.21 0-2.938.052-3.094.052c-.182 0-.208-.026-.208-.208v-.962c0-.182.026-.208.208-.208c.156 0 .884.052 3.094.052h.858v-.78c0-1.092-.052-1.742-.182-2.366a12 12 0 0 1 1.586.156c.208.026.26.13.26.234a.85.85 0 0 1-.104.338c-.078.182-.156.442-.156 1.612v.806h2.054c2.21 0 2.938-.052 3.094-.052c.182 0 .208.026.208.208v.962c0 .182-.026.208-.208.208c-.156 0-.884-.052-3.094-.052m2.834 10.686v1.04c0 .182 0 .208-.208.208c-.13 0-.988-.052-3.51-.052h-5.85v1.586c0 1.118.026 2.08.026 2.938s-.208 1.378-.728 1.716c-.546.416-1.196.546-3.302.52c-.52 0-.52 0-.65-.52a3.2 3.2 0 0 0-.468-1.04c.884.104 1.43.13 2.132.13c1.17 0 1.378-.26 1.378-1.196v-4.134H8.98c-2.548 0-3.38.052-3.536.052c-.182 0-.208-.026-.208-.208v-1.04c0-.182.026-.208.208-.208c.156 0 .988.052 3.536.052h13.884c2.522 0 3.38-.052 3.51-.052c.182 0 .208.026.208.208M11.866 8.392h-.052c1.118 1.326 1.95 1.976 3.224 2.808c-.208.182-.494.468-.65.702s-.234.364-.338.364c-.078 0-.182-.104-.338-.26c-.806-.754-1.612-1.638-2.496-2.938c.052 3.146.182 4.81.182 5.122c0 .182-.026.208-.208.208h-1.092c-.182 0-.208-.026-.208-.208c0-.312.13-1.898.182-4.992c-1.274 2.028-2.756 3.51-4.524 4.966c-.156.13-.26.182-.338.182c-.13 0-.208-.104-.338-.338a2.8 2.8 0 0 0-.676-.78c2.028-1.274 3.692-2.756 5.226-4.836h-1.3c-2.132 0-2.808.052-2.938.052c-.182 0-.208-.026-.208-.208v-.962c0-.182.026-.208.208-.208c.13 0 .806.052 2.938.052h1.82v-.754c0-1.196-.052-1.794-.182-2.392c.572.026 1.17.078 1.586.156c.182.026.286.078.286.208c0 .156-.052.26-.104.39c-.078.182-.182.494-.182 1.638v.754h.52c2.132 0 2.808-.052 2.938-.052c.156 0 .182.026.182.208v.962c0 .182-.026.208-.182.208c-.13 0-.806-.052-2.938-.052m12.116 7.254v1.04c0 .156-.026.182-.208.182c-.156 0-1.014-.052-3.614-.052h-8.242c-2.6 0-3.484.052-3.64.052c-.182 0-.208-.026-.208-.182v-1.04c0-.182.026-.208.208-.208c.156 0 1.04.052 3.64.052h8.242c2.6 0 3.458-.052 3.614-.052c.182 0 .208.026.208.208m-3.406 6.058l.65-.494c.208-.156.286-.104.416.026c1.56 1.664 3.094 2.886 5.33 3.952a3.1 3.1 0 0 0-.806.91c-.156.26-.234.39-.364.39c-.078 0-.208-.078-.39-.208c-2.106-1.326-3.51-2.496-5.044-4.212c-.104-.13-.078-.182.208-.364m-8.424.312c0 .13-.156.26-.286.312c-.234.104-.572.39-.754.624c-1.17 1.274-2.496 2.34-4.186 3.354c-.182.104-.286.182-.39.182s-.208-.104-.39-.338c-.234-.286-.572-.52-.884-.702c1.794-.91 3.354-2.054 4.238-3.016c.624-.624.806-.91 1.014-1.352a9 9 0 0 1 1.404.676c.156.078.234.156.234.26"/></g></svg>