<svg xmlns="http://www.w3.org/2000/svg" xmlns:xlink="http://www.w3.org/1999/xlink" width="32" height="32" viewBox="0 0 32 32"><g fill="none"><path fill="#212121" d="m23 30l2-6l-2-5.5H9L7 24l2 6z"/><path fill="#000" d="M23 30V18.593c-1.37 2.46-3.982 4.127-7 4.127a7.99 7.99 0 0 1-7-4.124V30H5v-3.5c-.01-3.41 1.57-6.47 4-8.5v.013a10.98 10.98 0 0 1 7-2.513c2.661 0 5.099.939 7 2.512V18c2.45 2.02 4 5.09 4 8.5V30z"/><path fill="#000" d="M12.5 29.99v-5.25c0-.28-.22-.5-.5-.5s-.5.22-.5.5v5.25zm4 0v-5.25c0-.28-.22-.5-.5-.5s-.5.22-.5.5v5.25zm4 0v-5.25c0-.28-.22-.5-.5-.5s-.5.22-.5.5v5.25z"/><path fill="#9B9B9B" d="m16.92 19.69l-.65.58c-.16.14-.39.14-.55 0l-.65-.58a3.45 3.45 0 0 1-1.14-2.55v-3.09A2.07 2.07 0 0 1 16 12c1.14 0 2.06.92 2.06 2.06v3.09c-.01.97-.42 1.89-1.14 2.54"/><path fill="#E6E6E6" d="M18.05 15.21h-4.11v1.94c0 .97.41 1.9 1.14 2.55c.07.06.18.05.24-.03l.58-.84a.13.13 0 0 1 .22 0l.58.84c.05.08.16.09.24.03c.72-.65 1.14-1.58 1.14-2.55v-1.94z"/><path fill="#F4C6AD" d="M26.995 23c.557 0 1.005.407 1.005.914V26h-2v-2.086c-.01-.507.437-.914.995-.914"/><path fill="#7D4533" d="M22.62 20.99c-.46 0-.84-.37-.84-.84v-2.33c0-.46.37-.84.84-.84c.46 0 .84.37.84.84V18v-.5c0-.28.23-.5.5-.5h2.88c.27 0 .49.22.5.5v.19c.062-.4.405-.71.83-.71c.46 0 .84.37.84.84v2.33a.839.839 0 0 1-1.67.13v.22c0 .28-.23.5-.5.5h-.52c.23.047.399.253.39.49c0 .28-.22.5-.5.5h-.07v5.38h-1.5v-5.38h-.07c-.28 0-.5-.22-.5-.5c0-.245.168-.444.398-.49h-.508c-.28 0-.5-.23-.5-.5V20v.15c0 .47-.38.84-.84.84"/><path fill="#FFD7C2" d="M24.202 24.51c-.374 0-.692.336-.702.765a.83.83 0 0 0 .31.681a.81.81 0 0 0-.31.65c0 .272.119.513.31.65a.81.81 0 0 0-.31.649c0 .272.119.513.31.65a.85.85 0 0 0-.31.68c.01.43.328.765.702.765h3.006c.437 0 .792-.409.792-.911V25.41c0-.502-.355-.911-.792-.911h-3.006z"/><path fill="#F4C6AD" d="M16 18.5c-1.107 0-2-.965-2-2.162v-2.687c0-1.185.893-2.151 2-2.151s2 .966 2 2.162v2.687c-.01 1.186-.903 2.151-2 2.151"/><path fill="#212121" d="M22.25 5.29c-.3-.52-.77-.88-1.29-1.06a2.56 2.56 0 0 1-1.38-1.08a2.38 2.38 0 0 0-2.97-.96c-.39.17-.83.17-1.22 0c-.29-.12-.6-.19-.93-.19c-.85 0-1.6.44-2.02 1.11c-.33.52-.82.92-1.41 1.12c-.55.19-1.03.58-1.32 1.13c-.43.8-.34 1.76.15 2.47c.17.26.27.57.27.88v4.17c0 .93.59 1.75 1.47 2.06l1.89.65V8.17c.15-.14.27-.31.38-.5c.17-.29.27-.61.3-.92a2.32 2.32 0 0 0 1.82-.55c.42.35.95.57 1.54.57c.1 0 .19-.01.28-.02a2.37 2.37 0 0 0 .68 1.42v7.43l1.89-.65c.88-.3 1.47-1.13 1.47-2.06V8.72c0-.31.1-.62.28-.88c.52-.74.59-1.73.12-2.55"/><path fill="#F4C6AD" d="M12.77 10.59a1.67 1.67 0 1 1-3.34 0a1.67 1.67 0 0 1 3.34 0m9.79 0a1.67 1.67 0 1 1-3.34 0a1.67 1.67 0 0 1 3.34 0"/><path fill="#FFD7C2" d="M10.833 7.968A3.415 3.415 0 0 1 14.24 4.7h1.3c.28 0 .52.17.63.42c.4.89 1.29 1.45 2.26 1.45h1.43c.8.04 1.43.71 1.41 1.52l-.012.515l-.308 4.955A3.97 3.97 0 0 1 17.02 17h-1.9c-1.98 0-3.66-1.47-3.92-3.44z"/><path fill="#212121" d="M12.284 8.418c.093.12.264.14.383.049l.001-.001l.095-.062a2.26 2.26 0 0 1 1.405-.292a.274.274 0 0 0 .064-.544a2.8 2.8 0 0 0-1.75.366l-.15.1a.274.274 0 0 0-.048.384m7.393-.386l.001.002a.274.274 0 0 1-.336.432l-.002-.001l-.017-.012l-.076-.05a2.26 2.26 0 0 0-1.405-.292a.274.274 0 1 1-.064-.543a2.8 2.8 0 0 1 1.75.366q.07.04.107.068l.039.028z"/><path fill="#fff" d="M12.18 10.28c.15-.62.71-1.08 1.38-1.08c.7 0 1.27.49 1.4 1.15a.23.23 0 0 1-.23.28h-2.28c-.18 0-.32-.18-.27-.35m7.65 0c-.15-.62-.71-1.08-1.38-1.08c-.7 0-1.27.49-1.4 1.15c-.03.15.08.28.23.28h2.28c.18 0 .31-.17.27-.35"/><path fill="#7D4533" d="M12.86 10.39c0-.5.41-.91.91-.91a.9.9 0 0 1 .91.91q0 .12-.03.24h-1.76a1 1 0 0 1-.03-.24m6.29 0c0-.5-.41-.91-.91-.91c-.51 0-.91.41-.91.91q0 .12.03.24h1.76q.03-.12.03-.24"/><path fill="#000" d="M13.77 9.87a.516.516 0 0 1 .46.76h-.92a.516.516 0 0 1 .46-.76m4.47 0a.516.516 0 0 0-.46.76h.92q.06-.105.06-.24c0-.29-.23-.52-.52-.52"/><path fill="#fff" d="M13.62 10.03a.16.16 0 1 1-.32 0a.16.16 0 0 1 .32 0m4.5 0a.16.16 0 1 1-.32 0a.16.16 0 0 1 .32 0"/><path fill="#E5AF93" d="m15.69 10.31l-.53 1.71c-.11.35.15.71.52.71h.78c.37 0 .63-.36.52-.71l-.53-1.71c-.11-.38-.64-.38-.76 0"/><path fill="#990838" d="M16.01 13.68c-.54 0-1.05-.13-1.48-.36c-.15-.08-.3.09-.21.23c.36.55.98.92 1.69.92s1.33-.37 1.69-.92c.09-.14-.07-.3-.21-.23c-.44.23-.94.36-1.48.36"/></g></svg>