<svg xmlns="http://www.w3.org/2000/svg" xmlns:xlink="http://www.w3.org/1999/xlink" width="32" height="32" viewBox="0 0 32 32"><g fill="none"><path fill="#321B41" d="M2 7.51L16 2l5.548 13.828L16 29.92l-14-5.5V14.403l1.458-1.19L2 12.044z"/><path fill="#FFB02E" d="m16 14.29l.892-2.043L16 10.33c-.43 0-.86.03-1.28.08L2 12v2.41zm-6.13 3.79l.76.99c.13.17.34.2.47.07l.82-.8c.14-.14.14-.39 0-.56l-.82-1c-.13-.16-.34-.18-.47-.04l-.76.81c-.12.14-.12.37 0 .53M16 20l-1.98-.32c-.42-.07-.76-.48-.76-.92v-1.14c0-.44.34-.77.76-.74l1.98.18l1.078 1.598zM4.37 17.38l-.52.66c-.08.11-.22.09-.3-.04l-.49-.78a.4.4 0 0 1 0-.42l.49-.67c.08-.11.22-.1.3.03l.52.78c.09.13.09.33 0 .44m3.82 1.42l-2.51-.38c-.27-.04-.48-.35-.47-.71v-.9c0-.35.21-.61.47-.59l2.51.2c.31.02.57.36.57.75v1.01c0 .39-.26.67-.57.62"/><path fill="#533566" d="M30 7.51L16 2v27.92l14-5.5V13.994l-1.365-1.078L30 12.062z"/><path fill="#FCD53F" d="M30 14v-2l-12.72-1.59c-.42-.05-.85-.08-1.28-.08v3.96h.21zm-9.92 4.33l.82.81c.13.13.34.1.47-.08l.76-.99c.12-.16.12-.4 0-.53l-.76-.81c-.13-.14-.34-.12-.47.04l-.82 1c-.14.17-.14.42 0 .56m-1.34-.71v1.14c0 .44-.34.85-.76.92L16 20v-2.94l1.98-.18c.42-.03.76.3.76.74m10.2-.4l-.49.78c-.08.13-.22.15-.3.05l-.52-.66c-.09-.11-.09-.31 0-.44l.52-.78c.08-.13.22-.14.3-.03l.49.66c.08.11.08.29 0 .42m-2.14-.4v.9c0 .35-.21.66-.47.71l-2.51.38c-.31.05-.57-.23-.57-.62v-1.01c0-.39.26-.72.57-.75l2.51-.2c.26-.02.47.24.47.59"/></g></svg>