<svg xmlns="http://www.w3.org/2000/svg" xmlns:xlink="http://www.w3.org/1999/xlink" width="32" height="32" viewBox="0 0 32 32"><g fill="none"><path fill="#433B6B" d="M12.449 5.002h7.071v7.072h-7.071z"/><path fill="#00A6ED" d="M15.994 8.315L14 5h-2.86c-1.4 0-2.78.33-4.03.98L3 8.09l-.173.091c-.4.208-.827.43-.827.909v5.51c0 3.87 3.14 7.01 7.01 7.01v-8.96H23V18H9.01v12.2h14.02v-8.57a7.01 7.01 0 0 0 6.98-7.01V9.2c0-.447-.225-.57-.664-.811q-.152-.081-.336-.189l-4.23-2.25A8 8 0 0 0 20.99 5H18z"/><path fill="#433B6B" d="M23.01 12H8.99v6h14.02z"/><path fill="#FF6DC6" d="m27.03 8.895l.19-.34c.12-.22.44-.22.57 0l.18.34c.03.05.07.1.13.13l.34.19c.22.13.22.45 0 .57l-.34.18c-.06.03-.1.07-.14.13l-.18.34c-.13.22-.45.22-.57 0l-.18-.34a.35.35 0 0 0-.13-.14l-.34-.18c-.22-.13-.22-.45 0-.57l.34-.18c.06-.03.1-.08.13-.13m-22.25-.34l.19.34c.03.05.07.1.13.13l.34.18c.22.12.22.44 0 .57l-.34.19c-.06.03-.1.07-.13.13l-.19.33c-.12.22-.44.22-.57 0l-.18-.33a.27.27 0 0 0-.13-.13l-.34-.19c-.22-.12-.22-.44 0-.57l.34-.18c.06-.03.1-.08.13-.13l.18-.34c.13-.22.45-.22.57 0m2.009 3.009l.19.34c.03.05.07.1.13.13l.34.18c.22.12.22.44 0 .57l-.34.19c-.06.03-.1.07-.13.13l-.19.33c-.12.22-.44.22-.57 0l-.18-.33a.27.27 0 0 0-.13-.13l-.34-.19c-.22-.12-.22-.44 0-.57l.34-.18c.06-.03.1-.08.13-.13l.18-.34c.13-.22.45-.22.57 0M4.96 14.913l-.18-.34c-.12-.22-.44-.22-.57 0l-.18.34c-.03.05-.07.1-.13.14l-.34.18c-.22.13-.22.45 0 .57l.34.18c.06.03.1.07.13.13l.19.34c.13.22.45.22.57 0l.18-.34c.03-.06.07-.1.13-.13l.34-.19c.22-.13.22-.45 0-.57l-.34-.18a.4.4 0 0 1-.14-.13m1.832 2.653l.18.34c.03.05.07.1.13.13l.34.18c.22.12.22.44 0 .57l-.33.18c-.05.03-.1.07-.13.13l-.19.34c-.12.22-.44.22-.57 0l-.18-.34a.33.33 0 0 0-.13-.13l-.34-.18c-.22-.12-.22-.44 0-.57l.34-.18c.05-.03.1-.07.13-.13l.18-.34c.13-.23.45-.23.57 0m18.423-6.006l-.19.34c-.03.05-.07.1-.13.13l-.34.18c-.22.12-.22.44 0 .57l.34.18c.06.04.1.08.13.14l.18.34c.12.22.44.22.57 0l.18-.34c.04-.06.08-.1.14-.13l.34-.18c.22-.12.22-.44 0-.57l-.34-.19a.33.33 0 0 1-.13-.13l-.18-.34c-.13-.22-.45-.22-.57 0m1.825 3.359l.18-.34c.12-.22.44-.22.57 0l.18.34c.03.06.08.1.13.13l.34.18c.22.13.22.45 0 .57l-.34.18c-.06.03-.1.08-.13.13l-.18.34c-.13.22-.45.22-.57 0l-.18-.34a.33.33 0 0 0-.13-.13l-.34-.18c-.22-.13-.22-.45 0-.57l.34-.18c.06-.03.1-.08.13-.13m-1.823 2.646l-.18.34c-.03.05-.07.1-.13.13l-.34.18c-.22.12-.22.44 0 .57l.34.18c.05.03.1.07.13.13l.18.34c.12.22.44.22.57 0l.18-.34c.03-.05.07-.1.13-.13l.34-.18c.22-.12.22-.44 0-.57l-.34-.18a.33.33 0 0 1-.13-.13l-.18-.34a.322.322 0 0 0-.57 0m-5.257 3.392l-.18-.34a.313.313 0 0 0-.56 0l-.18.34c-.03.06-.08.1-.13.13l-.34.18c-.22.13-.22.45 0 .57l.34.18c.06.03.1.08.13.13l.18.34c.13.22.45.22.57 0l.18-.34c.03-.06.08-.1.13-.13l.33-.18c.22-.13.22-.45 0-.57l-.34-.18a.33.33 0 0 1-.13-.13m-3.68 2.983l.18.34c.03.05.07.1.13.13l.34.18c.22.12.22.44 0 .57l-.34.18c-.05.03-.1.07-.13.13l-.18.34c-.12.22-.44.22-.57 0l-.18-.34a.33.33 0 0 0-.13-.13l-.34-.18c-.22-.12-.22-.44 0-.57l.34-.18c.05-.03.1-.07.13-.13l.18-.34c.13-.23.45-.23.57 0m-3.32-3.037l-.18-.34c-.12-.22-.44-.22-.57.01l-.18.34c-.03.06-.08.1-.13.13l-.34.18c-.22.13-.22.45 0 .57l.34.18c.06.03.1.07.13.12l.18.34c.13.22.45.22.57 0l.18-.34c.03-.06.08-.1.13-.13l.34-.18c.22-.13.22-.45 0-.57l-.34-.18a.33.33 0 0 1-.13-.13m6.832 5.674l.18.34c.03.05.07.1.13.13l.34.18c.22.12.22.44 0 .57l-.34.18c-.05.03-.1.07-.13.13l-.18.34c-.12.22-.44.22-.57 0l-.18-.34a.33.33 0 0 0-.13-.13l-.34-.18c-.22-.12-.22-.44 0-.57l.34-.18c.05-.03.1-.07.13-.13l.18-.34c.13-.22.45-.22.57 0m-6.832.34l-.18-.34c-.12-.22-.44-.22-.57.01l-.18.34c-.03.06-.08.1-.13.13l-.34.18c-.22.13-.22.45 0 .57l.34.18c.06.03.1.07.13.12l.18.34c.13.22.45.22.57 0l.18-.34c.03-.06.08-.1.13-.13l.34-.18c.22-.13.22-.45 0-.57l-.34-.18a.33.33 0 0 1-.13-.13"/><path fill="#D3D3D3" d="M15.988 8.312L14.004 5H12.46l2.759 4.579l-1.47 2.419h1.508L19.52 5H18z"/><path fill="#0074BA" d="M9.01 21.608V11.006c0-.706-1.011-.693-1.011 0v10.529a7 7 0 0 0 1.01.073m13.99 0V11.006c0-.706 1-.693 1 0v10.529a6.6 6.6 0 0 1-1 .073"/></g></svg>