<svg xmlns="http://www.w3.org/2000/svg" xmlns:xlink="http://www.w3.org/1999/xlink" width="32" height="32" viewBox="0 0 32 32"><path fill="#F92F60" d="m20.302 2.442l7.71 1.72a.86.86 0 0 1 .657.606a.5.5 0 0 1 .053.104l.17.51c1.98 5.94 1.18 14.68-3.24 19.11l-1.15 1.15c-4.42 4.42-13.17 5.22-19.1 3.23l-.51-.17a.4.4 0 0 1-.073-.031a.86.86 0 0 1-.647-.669l-1.7-7.62c-.22-.63-.45-2.19-.45-2.19c-.17-2.34.64-4.74 2.43-6.53a8.36 8.36 0 0 1 4.82-2.39a8.36 8.36 0 0 1 2.39-4.82c1.79-1.79 4.2-2.6 6.54-2.43c0 0 1.53.23 2.1.42M6.396 27.06l2.326-1.247a41.73 41.73 0 0 0 17.11-17.11l1.243-2.32l-5.413 2.67c-5.47 2.7-9.9 7.13-12.6 12.6z"/></svg>