<svg xmlns="http://www.w3.org/2000/svg" xmlns:xlink="http://www.w3.org/1999/xlink" width="32" height="32" viewBox="0 0 32 32"><g fill="none"><path fill="#6D4534" d="m26.332 8.62l-2.95-2.95l-17.71 17.71l2.95 2.95c4.89 4.89 12.82 4.89 17.71 0c4.89-4.89 4.89-12.82 0-17.71Z"/><path fill="#00D26A" d="M14.532 27.06c6.92 0 12.53-5.61 12.53-12.53c0-6.92-5.61-12.53-12.53-12.53c-6.92 0-12.53 5.61-12.53 12.53c0 6.92 5.61 12.53 12.53 12.53Z"/><path fill="#E2FF92" d="M14.533 20.15a5.62 5.62 0 1 0 0-11.24a5.62 5.62 0 0 0 0 11.24Z"/><path fill="#1C1C1C" d="M15.942 7.12a.98.98 0 1 0 0-1.96a.98.98 0 0 0 0 1.96Zm5.5 1.37a.98.98 0 1 1-1.96 0a.98.98 0 0 1 1.96 0ZM9.472 20.46a.98.98 0 1 1-1.96 0a.98.98 0 0 1 1.96 0Zm4.51 2.35a.98.98 0 1 1-1.96 0a.98.98 0 0 1 1.96 0Zm-3.08-15.02a.98.98 0 1 0 0-1.96a.98.98 0 0 0 0 1.96Zm8.13 14.35a.98.98 0 1 1-1.96 0a.98.98 0 0 1 1.96 0ZM7.152 11.22a.98.98 0 1 0 0-1.96a.98.98 0 0 0 0 1.96Zm15.63 7.48a.98.98 0 1 1-1.96 0a.98.98 0 0 1 1.96 0Zm-16.73-2.51a.98.98 0 1 0 0-1.96a.98.98 0 0 0 0 1.96Zm17.83-2.45a.98.98 0 1 1-1.96 0a.98.98 0 0 1 1.96 0Z"/></g></svg>