<svg xmlns="http://www.w3.org/2000/svg" xmlns:xlink="http://www.w3.org/1999/xlink" width="32" height="32" viewBox="0 0 32 32"><g fill="none"><path fill="#7D4533" d="m13.972 3.07l-6.86 26.02a1.21 1.21 0 0 1-1.169.91H2.851a.85.85 0 0 1-.823-1.07l6.86-26.02c.138-.53.624-.91 1.179-.91h3.082a.85.85 0 0 1 .823 1.07Zm16.001 0l-6.854 26.02a1.22 1.22 0 0 1-1.179.91h-3.09a.85.85 0 0 1-.822-1.07l.242-.92l-.898-1.548l1.692-1.467l1.056-4.007l-.905-1.526l1.687-1.445l1.062-4.03l-.904-1.528l1.687-1.446l1.068-4.052l-.907-1.518l1.685-1.437l.289-1.096c.138-.53.624-.91 1.178-.91h3.09c.555 0 .961.53.823 1.07Z"/><path fill="#A56953" d="m19.063 25l-.79 3H5.546c-.365 0-.634-.371-.519-.742l.539-1.796A.632.632 0 0 1 6.17 25h12.892Zm1.844-7l-.79 3H7.083c-.39 0-.677-.371-.554-.742l.575-1.796A.67.67 0 0 1 7.75 18h13.157Zm2.897-11l.79-3H11.24a.67.67 0 0 0-.647.46l-.564 1.8c-.123.37.164.74.554.74h13.221Zm-1.054 4H9.25a.67.67 0 0 0-.646.461l-.575 1.796a.57.57 0 0 0 .554.743H21.96l.79-3Z"/></g></svg>