<svg xmlns="http://www.w3.org/2000/svg" xmlns:xlink="http://www.w3.org/1999/xlink" width="32" height="32" viewBox="0 0 32 32"><g fill="none"><path fill="#FFC83D" d="M7.266 25.156c0-1.281.859-1.945.859-1.945H6.203c-1.038 0-1.969-1.001-1.969-2.04c0-1.952 1.157-2.28 1.157-2.28s-.907-.016-1.688-.157c-.781-.14-1.734-1.133-1.734-2.172c0-1.943 1.539-2.68 3.218-2.554c0 0-1.062-.649-1.062-2.055c0-1.038.984-2.492 2.898-2.32l7.555.36S13.011 8.954 12.5 8.077s-.489-2.19.281-2.906c.905-.842 2.323-.995 3.188-.391c2.594 1.813 5.982 4.385 7.562 4.875c4.032 1.25 6.451 4.906 6.451 8.313c0 4.109-3.098 8.423-7.873 8.765l-12.125.711c-1.046.078-2.718-.734-2.718-2.289"/><path fill="#D67D00" fill-rule="evenodd" d="M12.227 6.143c.07.475.283.982.773 1.357c.716.548 2.31 1.508 3.254 2.065l.691.403L17 10l2.004 1.171a.5.5 0 0 1 .169.701l-.23.361l-.043.067l-.003.004l-.3.47A4.85 4.85 0 0 0 18 15.062c0 1.123.435 2.399 1.82 3.553a.5.5 0 0 1-.64.768C17.565 18.04 17 16.481 17 15.063c0-1.147.368-2.18.808-2.924l-3.27-2.179h-.007l-.172-.12l-.003-.002a12 12 0 0 1-.809-.626c-.405-.343-.825-.754-1.047-1.134a2.67 2.67 0 0 1-.273-1.935m-4.425 20.39q1.237-.058 2.421-.11h.002c4.365-.196 8.27-.37 12.666-.8c4.184-.41 6.322-5.243 7.089-7.465c-.094 4.052-3.17 8.239-7.87 8.576l-12.126.711c-.672.05-1.603-.267-2.182-.913M11.51 18l-9.1-.183c.35.482.849.838 1.293.918c.392.07.816.11 1.14.13L11.49 19a.5.5 0 0 0 .02-1m-7.163-5H12.5a.5.5 0 0 1 0 1H5.175a2.46 2.46 0 0 1-.828-1m.254 1h.462a5 5 0 0 0-.462 0m.36 7.98a5 5 0 0 1-.613-.172c.28.776 1.034 1.403 1.855 1.403h.723l6.583-.121a.5.5 0 0 0-.018-1s-6.66.3-8.53-.11" clip-rule="evenodd"/></g></svg>