<svg xmlns="http://www.w3.org/2000/svg" xmlns:xlink="http://www.w3.org/1999/xlink" width="32" height="32" viewBox="0 0 32 32"><g fill="none"><path fill="#C68D7B" d="M23.438 11.813s-8.672-7.547-10.079-8.797c-1.406-1.25-5.215-1.804-6.765 1.171s.245 5.285 1.437 6c3.164 1.899 9.888 5.2 10.438 5.626c.894.69-1.021 1.298-1.367 4.132c-.336 2.751.578 4.118.578 6.532c0 .65-.453 1.632-.453 2.085c0 .945.595 1.422 1.757 1.422h5.977c.555 0 .977-.336.977-.984s-.573-.956-.907-.977c-.62 0-1.566-.341-2.406-.796c-.934-.506-1.722-1.172-1.469-2.07c.604-2.147 2.007-6.963 2.782-9.063c.843-2.375.145-3.667-.5-4.282"/><path fill="#A9715F" d="M19.5 29.984c-1.462-.413-1.781-1.562-.922-1.984c.52-.255.672-.625.672-.625s-1.172-.266-.516-1.36c.366-.61.173-1.71-.036-2.907c-.167-.948-.343-1.956-.26-2.827c.083-.878.589-1.573 1.259-2.493c.184-.253.38-.523.584-.82c1.14-1.655-.433-2.911-1-3.218a83 83 0 0 0-1.105-.583c-1.7-.888-4.297-2.246-7.051-4.042c-3.45-2.25-3.48-5.187-2.813-6.562l-.545.233a4 4 0 0 0-1.173 1.391c-1.55 2.975.245 5.285 1.437 6c1.82 1.093 4.818 2.649 7.141 3.855c1.716.89 3.063 1.59 3.297 1.77c.428.332.211.643-.168 1.19c-.413.595-1.02 1.467-1.2 2.943c-.193 1.585.028 2.71.25 3.841c.164.832.329 1.667.329 2.69c0 .355-.135.809-.258 1.221c-.102.344-.195.66-.195.866c0 .944.595 1.421 1.757 1.421z"/></g></svg>