<svg xmlns="http://www.w3.org/2000/svg" xmlns:xlink="http://www.w3.org/1999/xlink" width="32" height="32" viewBox="0 0 32 32"><g fill="none"><path fill="#44911B" d="M23.994 4.83c5.876 4.82 6.697 13.434 1.84 19.255c-4.854 5.816-13.716 6.562-19.585 1.749l-1.755-1.44a1.246 1.246 0 0 1-.167-1.769L20.361 3.482a1.28 1.28 0 0 1 1.787-.165z"/><path fill="#86D72F" d="M4.255 22.712a1.09 1.09 0 0 0 .228 1.606c5.836 3.998 13.896 2.98 18.51-2.53c4.616-5.509 4.13-13.535-.924-18.468a1.12 1.12 0 0 0-1.636.076z"/><path fill="#FFF3D7" d="M21.673 20.706c4.263-5.09 3.547-12.665-1.597-16.883L4.612 22.285c5.144 4.22 12.798 3.51 17.06-1.58"/><path fill="#AAE64B" d="m14.607 12.138l5.795.66c1.04.119 1.897-.806 1.678-1.82a9.8 9.8 0 0 0-3.378-5.516l-4.583 5.473a.736.736 0 0 0 .488 1.204zm-1.394 2.698l1.855 5.906a1.538 1.538 0 0 0 2.217.874a9.9 9.9 0 0 0 4.479-5.347c.317-.914-.309-1.883-1.28-1.994l-6.209-.707a.986.986 0 0 0-1.062 1.268m.372 6.101l-1.73-5.512a.749.749 0 0 0-1.286-.252l-4.584 5.473a9.98 9.98 0 0 0 6.104 2.261c1.047.025 1.807-.98 1.496-1.97"/></g></svg>