<svg xmlns="http://www.w3.org/2000/svg" xmlns:xlink="http://www.w3.org/1999/xlink" width="32" height="32" viewBox="0 0 32 32"><g fill="none"><path fill="#F3C07B" d="M15.236 15.79a1.75 1.75 0 0 1 2.474-.054l11.75 11.25a1.75 1.75 0 0 1-2.42 2.528l-11.75-11.25a1.75 1.75 0 0 1-.054-2.474"/><path fill="#5092FF" d="M3.386 6.918a10.05 10.05 0 0 1 3.75-3.658C13.351 6.72 12 12 12 12C9.96 8.791 8.015 7.264 3.386 6.918"/><path fill="#00D26A" d="M2 11.907a9.95 9.95 0 0 1 1.417-5.042C10.297 6.967 12 12 12 12c-3.333-1.748-5.71-2.094-10-.093"/><path fill="#FCD53F" d="M3.293 16.921A9.96 9.96 0 0 1 2 11.844C8.01 8.494 12 12 12 12c-3.783.095-6.017 1.146-8.707 4.921"/><path fill="#FF9F2E" d="M6.921 20.616a10.05 10.05 0 0 1-3.66-3.75C6.79 10.959 12 12 12 12c-3.22 1.904-4.58 4.027-5.079 8.616"/><path fill="#F837A2" d="M6.865 20.583C6.967 13.703 12 12 12 12c-1.827 3.297-2.028 5.775-.093 10a9.95 9.95 0 0 1-5.042-1.417"/><path fill="#C790F1" d="M11.844 21.999C8.494 15.99 12 12 12 12c.173 3.837 1.18 6.105 4.92 8.708a9.95 9.95 0 0 1-5.076 1.29"/><path fill="#5092FF" d="M16.866 20.738C10.96 17.211 12 12 12 12c2.095 3.32 3.973 4.747 8.614 5.082a10.05 10.05 0 0 1-3.748 3.656"/><path fill="#00D26A" d="M20.583 17.135C13.703 17.033 12 12 12 12c3.342 1.803 5.852 2.093 10 .094a9.95 9.95 0 0 1-1.417 5.04"/><path fill="#FCD53F" d="M21.999 12.156L22 12a9.96 9.96 0 0 0-1.292-4.92C18.038 10.964 15.792 11.881 12 12c0 0 3.991 3.507 9.999.156"/><path fill="#FF9F2E" d="M17.082 3.386a10.05 10.05 0 0 1 3.656 3.748C17.211 13.04 12 12 12 12c3.107-1.928 4.712-3.772 5.082-8.614"/><path fill="#F837A2" d="M17.135 3.417A9.95 9.95 0 0 0 12.096 2c2.141 4.27 1.64 6.836-.096 10c0 0 5.033-1.703 5.134-8.583"/><path fill="#C790F1" d="M12.156 2.001L12 2a9.95 9.95 0 0 0-4.916 1.29C11.228 5.88 12.116 8.218 12 12c0 0 3.507-3.991.156-9.999"/></g></svg>