<svg xmlns="http://www.w3.org/2000/svg" xmlns:xlink="http://www.w3.org/1999/xlink" width="32" height="32" viewBox="0 0 32 32"><g fill="none"><path fill="#FBB8AB" d="M28.99 10.08h-26v19.91h26z"/><path fill="#FF8687" d="M9 11h1v19H9zm13 0h1v19h-1z"/><path fill="#FBB8AB" d="M22 30H10V8.63C10 5.52 12.682 3 15.995 3c3.312 0 5.994 2.52 5.994 5.63V30z"/><path fill="#FF8687" d="M20.989 30H11v-7.92c0-.59.533-1.08 1.199-1.08H19.8c.655 0 1.199.48 1.199 1.08V30z"/><path fill="#83CBFF" d="M5.61 18c-.34 0-.61-.27-.61-.61V15.5c0-.83.67-1.5 1.5-1.5s1.5.67 1.5 1.5v1.89c0 .33-.27.61-.61.61zm0 7c-.34 0-.61-.27-.61-.61V22.5c0-.83.67-1.5 1.5-1.5s1.5.67 1.5 1.5v1.89c0 .33-.27.61-.61.61zM24 17.39c0 .34.27.61.61.61h1.78c.34 0 .61-.28.61-.61V15.5c0-.83-.67-1.5-1.5-1.5s-1.5.67-1.5 1.5zm.61 7.61c-.34 0-.61-.27-.61-.61V22.5c0-.83.67-1.5 1.5-1.5s1.5.67 1.5 1.5v1.89c0 .33-.27.61-.61.61zm-12.17 4.03h2.66c.25 0 .45-.2.44-.45V22c0-.24-.2-.44-.44-.44h-2.66c-.24 0-.44.2-.44.44v6.59c0 .24.2.44.44.44M20 22v6.59c0 .24-.2.44-.44.43H17c-.24 0-.44-.2-.44-.44V22c0-.24.2-.44.44-.44h2.56c.24 0 .44.2.44.44"/><path fill="#F8312F" d="M23.26 7.998h3.4c1.84 0 3.33 1.504 3.34 3.34c0 .361-.3.662-.66.662h-6.83c-.06 0-.1-.02-.12-.04c-.44-.07-.78-.431-.78-.883V9.462c0-3.099-2.52-5.626-5.61-5.626s-5.61 2.527-5.61 5.626v1.615c0 .462-.34.823-.78.883c-.02.03-.06.04-.12.04H2.66c-.36 0-.66-.3-.66-.662a3.35 3.35 0 0 1 3.34-3.35h3.4q0-.008.005-.02l.005-.02a7.392 7.392 0 0 1 14.505.025zM17.491 12h.02c.28 0 .499.22.489.49v4.02c0 .27-.22.49-.49.49h-.019a.49.49 0 0 1-.489-.49v-1.5h-2.005v1.5a.49.49 0 0 1-.488.49h-.02a.49.49 0 0 1-.489-.49v-4.02c0-.27.22-.49.489-.49h.02a.49.49 0 0 1 .488.49V14h2.005v-1.51c0-.27.22-.49.489-.49m3.949 9.19q-.006-.015-.005-.025t-.005-.025A6.29 6.29 0 0 0 16 18.02c-2.32 0-4.33 1.26-5.43 3.12c0 .01 0 .02-.01.03a.56.56 0 0 0-.07.26c0 .3.25.55.55.55c.19 0 .35-.1.45-.25h.2c.1.15.26.25.45.25s.35-.1.45-.25h.2c.1.15.26.25.45.25s.35-.1.45-.25h.2c.1.15.26.25.45.25s.35-.1.45-.25h.2c.1.15.26.25.45.25s.35-.1.45-.25h.2c.1.15.26.25.45.25s.35-.1.45-.25h.2c.1.15.26.25.45.25s.35-.1.45-.25h.2c.1.15.26.25.45.25s.35-.1.45-.25h.2c.1.15.26.25.45.25s.35-.1.45-.25h.2c.1.15.26.25.45.25a.555.555 0 0 0 .5-.79M19 7.523v-.03C19 6.661 18.313 6 17.454 6c-.12 0-.252.02-.363.05a1.45 1.45 0 0 0-.99.712a.11.11 0 0 1-.101.06c-.04 0-.07-.02-.101-.06a1.45 1.45 0 0 0-.99-.712a1.5 1.5 0 0 0-.364-.05c-.848 0-1.535.661-1.545 1.493v.03c0 .471.141.912.394 1.273a8.9 8.9 0 0 0 2.293 2.124c.09.05.202.08.313.08s.222-.02.313-.08a8.4 8.4 0 0 0 2.293-2.124A2.2 2.2 0 0 0 19 7.523"/></g></svg>