<svg xmlns="http://www.w3.org/2000/svg" xmlns:xlink="http://www.w3.org/1999/xlink" width="32" height="32" viewBox="0 0 32 32"><g fill="none"><path fill="#8B5C56" d="M12.5 15.333a1.75 1.75 0 1 1-3.5 0a1.75 1.75 0 0 1 3.5 0m10.5 0a1.75 1.75 0 1 1-3.5 0a1.75 1.75 0 0 1 3.5 0"/><path fill="#966661" d="M15 2.62c0-.4-.312-.62-.702-.62l-1.798.1S12.382 2 12 2c-1.106 0-2.44.966-3 1.5L7.5 5L10 6.5c.868.579 1.484.237 2.188-.154c.513-.285 1.073-.596 1.812-.596c1 0 1.2-.198 1.2-.9c.2 0 .7-.35.4-.95c0 0 .456-.175.3-.8c-.054-.215-.326-.48-.9-.48"/><path fill="#966661" d="M16.933 2.62c0-.4.311-.62.702-.62l1.798.1s.118-.1.5-.1c1.106 0 2.439.966 3 1.5l1.5 1.5l-2.5 1.5c-.868.579-1.484.237-2.189-.154c-.513-.285-1.073-.596-1.811-.596c-1 0-1.2-.198-1.2-.9c-.2 0-.7-.35-.4-.95c0 0-.457-.175-.3-.8c.053-.215.325-.48.9-.48"/><path fill="#764C49" d="M10.943 2.518c.01.033.045.052.078.042c.801-.27 1.322-.42 1.482-.46c0 0-.028-.024-.101-.048l-.138.031a15 15 0 0 0-.407.107c-.304.083-.648.183-.872.25a.06.06 0 0 0-.042.078m3.462 1.945a1.1 1.1 0 0 1 .442.088c.219.099.356.238.356.299q.028 0 .062-.009v-.027c-.057-.214-.203-.303-.366-.377a1.2 1.2 0 0 0-.496-.1l-1.404.1a.063.063 0 0 0 .008.125zm.902-.827a.7.7 0 0 0-.304-.073h-2a.062.062 0 1 1 0-.125h2a.84.84 0 0 1 .36.086a.55.55 0 0 1 .297.346c-.034.021-.057.03-.057.03c0-.035-.06-.136-.296-.264m-3.363-.616c.01.033.046.05.079.04c1.53-.448 2.624-.48 2.98-.44q0-.031-.003-.063c-.564-.257-2.513.216-3.017.384a.063.063 0 0 0-.04.079m9.05-.502a.063.063 0 0 1-.078.042a24 24 0 0 0-1.482-.46s.028-.024.1-.048q.06.012.139.031a41 41 0 0 1 1.278.357c.034.01.052.045.043.078M17.53 4.463c-.136 0-.3.024-.442.088c-.218.099-.355.238-.355.299a.3.3 0 0 1-.062-.009v-.027c.056-.214.203-.303.366-.377s.346-.1.496-.1l1.404.1a.062.062 0 1 1-.009.125zm-.902-.827a.7.7 0 0 1 .305-.073h2a.063.063 0 0 0 0-.125h-2a.84.84 0 0 0-.361.086a.55.55 0 0 0-.296.346c.034.021.057.03.057.03c0-.035.059-.136.295-.264m3.364-.616a.063.063 0 0 1-.08.04c-1.53-.448-2.624-.48-2.98-.44l.003-.063c.565-.257 2.514.216 3.017.384c.033.01.05.046.04.079"/><path fill="#0092E7" d="m25.47 6.27l-3.36 2.09l-.88-1.43a.31.31 0 0 1 .1-.43l2.83-1.76c.15-.09.34-.05.43.1zm-18.93.01l3.35 2.08l.89-1.42c.09-.15.05-.34-.1-.43L7.85 4.75a.31.31 0 0 0-.43.1z"/><path fill="#00A6ED" d="m28.67 9.8l-2.36-3.793a1.075 1.075 0 0 0-1.47-.347L22 7.398c-.5.307-.66.963-.35 1.46l2.36 3.793c.64 1.033.69 2.344.12 3.426l-3.27 6.187a.9.9 0 0 1-.379.384A9.2 9.2 0 0 0 16 21.5a9.3 9.3 0 0 0-4.475 1.149a.96.96 0 0 1-.385-.385l-3.27-6.187a3.46 3.46 0 0 1 .12-3.426l2.36-3.794a1.06 1.06 0 0 0-.35-1.46L7.16 5.66a1.066 1.066 0 0 0-1.47.347L3.33 9.801a8.88 8.88 0 0 0-.31 8.808l3.61 6.823c.28.536.87 1.462.87 2.068c0 0-.5 1.25-.499 2.5H25c0-1.25-.499-2.5-.499-2.5c0-.596.62-1.572.9-2.108l3.58-6.773c1.46-2.78 1.35-6.157-.31-8.818"/><path fill="#8B5C56" d="M16 24.5c-1.1 0-2-.84-2-1.886v-2.228c0-1.037.892-1.886 2-1.886c1.1 0 2 .84 2 1.886v2.228c-.008 1.045-.9 1.886-2 1.886"/><path fill="#966661" d="M15.55 7.62c-2.98 0-5.34 2.53-5.13 5.5l.42 5.98c.18 1.88 1.66 3.22 3.46 3.22h3.45c1.8 0 3.28-1.34 3.46-3.22l.42-5.98c.21-2.98-2.15-5.5-5.13-5.5z"/><path fill="#2D242D" d="m21.65 8.68l-.45-.23c-.32-.16-.62-.37-.87-.63l-.89-.88c-.66-.66-1.65-.89-2.54-.58c-.57.2-1.2.2-1.78 0c-.78-.39-1.72-.24-2.34.38l-1.07 1.08q-.39.39-.87.63l-.46.23a2.1 2.1 0 0 0-1.13 2.26l.61 3.31c.06.33.34.57.68.58l-.1-1.55c-.02-.31.1-.61.34-.82l.2-.18c.26-.24.42-.59.42-.95v-.93c0-.26.18-.49.43-.56c.69-.17 2.15-.46 4.19-.46s3.5.29 4.19.46c.26.06.43.29.43.56v.93c0 .36.15.71.43.95l.21.19c.23.21.36.51.34.82l-.1 1.53c.33-.02.6-.26.66-.58l.61-3.31a2.1 2.1 0 0 0-1.14-2.25"/><path fill="#fff" d="M11.925 14.964a1.521 1.521 0 0 1 2.966.075a.25.25 0 0 1-.247.294h-2.425a.3.3 0 0 1-.294-.369m8.15 0a1.526 1.526 0 0 0-1.475-1.147c-.743 0-1.353.524-1.491 1.222a.25.25 0 0 0 .247.294h2.425c.196 0 .34-.178.294-.369"/><path fill="#7D4533" d="M12.65 15.075a.97.97 0 1 1 1.907.258h-1.872a1 1 0 0 1-.034-.258m6.698 0a.97.97 0 0 0-.973-.971a.96.96 0 0 0-.968.97q0 .139.035.26h1.871a1 1 0 0 0 .035-.26"/><path fill="#000" d="M13.624 14.523a.552.552 0 0 1 .49.81h-.98a.552.552 0 0 1 .49-.81m4.746 0a.552.552 0 0 0-.49.81h.98a.552.552 0 0 0-.49-.81"/><path fill="#fff" d="M13.463 14.703a.174.174 0 0 1-.173.175a.174.174 0 0 1-.173-.175c0-.096.078-.175.173-.175c.096 0 .173.079.173.175m4.78 0a.174.174 0 0 1-.173.175a.174.174 0 0 1-.172-.175c0-.096.077-.175.172-.175c.096 0 .173.079.173.175"/><path fill="#75443E" d="m15.584 15.057l-.578 1.849c-.118.38.165.76.566.76h.856a.588.588 0 0 0 .566-.76l-.578-1.849c-.124-.41-.702-.41-.832 0"/><path fill="#990838" d="M16 18.772c-.552 0-1.07-.13-1.507-.357c-.149-.076-.309.092-.215.227c.364.553.999.92 1.722.92a2.06 2.06 0 0 0 1.722-.92c.094-.14-.066-.303-.215-.227c-.436.227-.95.357-1.507.357"/><path fill="#372128" fill-rule="evenodd" d="M11.88 13.36c.12.15.29.23.47.23c.12 0 .25-.04.35-.13l.017-.01c.097-.062.617-.39 1.343-.3c.31.04.61-.19.65-.51a.584.584 0 0 0-.51-.65c-1.277-.15-2.166.517-2.21.55c-.26.19-.31.56-.11.82m7.47.11c.1.08.23.12.35.12c.18 0 .35-.08.47-.22c.19-.25.15-.62-.11-.82c-.03-.03-.92-.71-2.21-.55a.584.584 0 0 0 .14 1.16c.767-.097 1.298.268 1.356.307z" clip-rule="evenodd"/></g></svg>