<svg xmlns="http://www.w3.org/2000/svg" xmlns:xlink="http://www.w3.org/1999/xlink" width="32" height="32" viewBox="0 0 32 32"><g fill="none"><path fill="#FFF9BA" d="m19.962 4.78l-.4-.16a3 3 0 0 1-.78-.46l-.81-.68c-.61-.51-1.45-.62-2.17-.3c-.47.21-.99.26-1.49.13c-.68-.27-1.46-.07-1.93.49l-.82 1c-.2.23-.43.43-.68.59l-.37.22c-.67.41-.99 1.22-.78 1.97l.75 2.73c.07.27.61.44.61.44l9.2-.81s.49-.26.51-.54l.27-2.82c.07-.77-.38-1.51-1.11-1.8"/><path fill="#0092E7" d="m6.593 13.874l-1.6.546v1.64h3.32v-1.64zm20.411.546v1.64h-3.33v-1.64l1.663-.518z"/><path fill="#00A6ED" d="M26.754 15.42h-2.88c-.41 0-.74.33-.74.74v2.44c0 .13-.14.21-.26.15l-2.58-1.39c-.04-.02-.08-.05-.12-.07l-.05-.03c-.62-.31-1.32-.49-2.07-.49h-4.09c-.76 0-1.47.18-2.1.51l-2.77 1.46c-.1.07-.25-.01-.25-.14v-2.44c0-.41-.33-.74-.74-.74h-2.87c-.41 0-.74.33-.74.74v5.07c0 1.05.56 2.03 1.46 2.56c.46.27.99.41 1.51.41c.5 0 .99-.12 1.44-.37l.48-.25v4.43h13.27v-4.4l.42.22c.45.25.94.37 1.44.37c.52 0 1.05-.14 1.51-.41a2.98 2.98 0 0 0 1.46-2.56v-5.07a.724.724 0 0 0-.73-.74"/><path fill="#EEBFAA" d="m2.144 11.94l.248.29a.596.596 0 0 0-.038.81s.19.22.54.63c.41.48 1.01.75 1.64.75h3.78v-1.81c0-.86-.31-1.68-.88-2.33l-.49-.56a.745.745 0 0 0-1.05-.08c-.31.27-.34.74-.08 1.05l.33.38c.07.07.01.19-.09.19l-.855-.01l-.915-1.07a.58.58 0 0 0-.83-.06a.6.6 0 0 0-.15.19a.58.58 0 0 0-.77 0a.595.595 0 0 0-.147.693a.587.587 0 0 0-.243.937m27.71 0l-.254.295a.62.62 0 0 1 .044.815s-.19.22-.54.63c-.41.48-1.01.75-1.64.75h-3.78v-1.81c0-.85.31-1.68.87-2.33l.49-.56a.745.745 0 0 1 1.13.97l-.33.37c-.07.07-.01.19.09.19l.859-.01l.92-1.07c.21-.25.58-.27.83-.06a.6.6 0 0 1 .146.185a.59.59 0 0 1 .913.696q.103.036.192.11c.25.21.27.58.06.83"/><path fill="#E4B29A" d="M15.994 19.31c-1.09 0-1.97-.88-1.97-1.97v-2.33c0-1.09.88-1.97 1.97-1.97s1.97.88 1.97 1.97v2.33c0 1.09-.88 1.97-1.97 1.97m5.51-8.81a1.47 1.47 0 1 1-2.94 0a1.47 1.47 0 0 1 2.94 0m-8.61.76a1.47 1.47 0 1 1-2.94 0a1.47 1.47 0 0 1 2.94 0"/><path fill="#EEBFAA" d="M11.08 10.75h.012l-.2-1.29c-.04-.26.04-.52.22-.71l.15-.16c.21-.22.31-.52.29-.83l-.07-.78c-.02-.22.12-.42.33-.5c.56-.19 1.77-.55 3.48-.7s2.96-.01 3.54.08c.22.03.39.21.4.44l.07.78c.03.3.18.58.43.77l.19.14c.18.137.301.333.332.55l.08 5.01c-.01 1.59-1.15 2.82-2.66 2.95l-2.89.25c-1.51.13-2.85-.88-3.14-2.44z"/><path fill="#A56953" d="M18.354 8.76c.08.06.17.08.26.08c.16 0 .32-.08.42-.23c.15-.23.08-.53-.15-.68c-.03-.03-.83-.52-1.89-.3a.5.5 0 0 0-.38.59c.05.26.32.43.58.38a1.7 1.7 0 0 1 1.154.157zm-6.27.46c.1.11.23.16.37.16c.11 0 .23-.05.33-.13l.015-.01c.081-.062.464-.35 1.045-.35h.07a.495.495 0 0 0 .01-.99c-1.1-.03-1.78.59-1.81.62a.5.5 0 0 0-.03.7"/><path fill="#fff" d="M19.074 10.31c-.18-.53-.71-.89-1.3-.84c-.61.05-1.08.53-1.14 1.12c-.01.13.1.24.23.23l2-.18c.16-.02.26-.18.21-.33m-6.74.6c.09-.56.55-1.01 1.14-1.06c.61-.06 1.16.33 1.31.9c.04.12-.05.25-.18.26l-2 .18c-.16.02-.3-.12-.27-.28"/><path fill="#7D4533" d="M18.474 10.46a.805.805 0 0 0-.87-.73c-.44.04-.77.43-.73.87c.01.07.03.14.05.21l1.54-.13c.01-.07.02-.15.01-.22m-5.53.48c-.04-.44.29-.83.73-.87c.45-.04.84.29.88.72c.01.08 0 .15-.01.22l-1.55.14a.8.8 0 0 1-.05-.21"/><path fill="#000" d="M17.644 10.07c-.25.02-.44.25-.42.5c0 .08.03.15.07.21l.82-.07c.02-.07.04-.14.03-.22a.467.467 0 0 0-.5-.42m-3.94.34c.25-.02.48.17.5.42c.01.08 0 .15-.04.22l-.81.07a.467.467 0 0 1 .35-.71"/><path fill="#fff" d="M17.544 10.24a.14.14 0 1 1-.28 0a.14.14 0 0 1 .28 0m-3.96.34a.14.14 0 1 1-.28 0a.14.14 0 0 1 .28 0"/><path fill="#990838" d="M16.004 14.68a.63.63 0 1 0 0-1.26a.63.63 0 0 0 0 1.26"/><path fill="#D19479" d="m15.374 10.66l-.34 1.55c-.07.32.19.61.51.58l.69-.06c.32-.03.53-.36.4-.66l-.6-1.46c-.12-.33-.59-.29-.66.05"/></g></svg>