<svg xmlns="http://www.w3.org/2000/svg" xmlns:xlink="http://www.w3.org/1999/xlink" width="32" height="32" viewBox="0 0 32 32"><g fill="none"><path fill="#966661" d="M9.467 10.958a6.7 6.7 0 0 1 1.044-1.574c.627-.681 1.196-1.17 1.206-1.179a.793.793 0 0 0 .085-1.132a.84.84 0 0 0-1.158-.083c-.028.028-.38.322-.835.773c-.066.065-.18.019-.17-.064c.151-1.51.284-2.624.388-3.416c.048-.396-.133-.792-.531-.893a.763.763 0 0 0-.92.516c0 .037-.077.874-.248 1.887c-.019.11-.037.23-.047.34c-.01.028-.038.056-.076.047c-.028-.01-.047-.037-.038-.055c.095-1.427.209-2.726.209-2.753a.73.73 0 0 0-.588-.856a.74.74 0 0 0-.883.57c-.02.056-.086 1.418-.209 2.597c0 .027-.047.027-.047 0L6.6 3.878a.74.74 0 0 0-.778-.69a.744.744 0 0 0-.721.782l.123 1.989c0 .055-.085.064-.085.01c-.086-.58-.143-.986-.143-.995a.756.756 0 0 0-.854-.626a.73.73 0 0 0-.636.82c.247 1.758.646 4.63.674 4.998c0 .019 0 .028.01.037c.085.59.38 1.151.863 1.584c1.12 1.003 2.885.939 3.93-.138c.199-.203.36-.442.483-.69"/><path fill="#0092E7" d="M9 14H5v-1.578c0-.241.154-.422.337-.422h3.317c.192 0 .336.193.336.422V14z"/><path fill="#00A6ED" d="M21.5 21c2.5 0 7.5 3.5 7.5 9H11v-3.5a.67.67 0 0 0-.416-.625L7.5 24.5C5 23.5 4 21 4 19.302v-5.287C4 13.45 4.425 13 4.935 13h4.13c.52 0 .935.461.935 1.015V18c0 1.302 1 1.5 1 1.5l6 1.5z"/><path fill="#8B5C56" d="M19.267 24.213A2.27 2.27 0 0 1 17 21.946v-2.679a2.268 2.268 0 0 1 4.535 0v2.679a2.27 2.27 0 0 1-2.268 2.267M15.75 14a2 2 0 1 1-4 0a2 2 0 0 1 4 0m11.438 0a2 2 0 1 1-4 0a2 2 0 0 1 4 0"/><path fill="#966661" d="M18.985 5.447c-3.325 0-5.953 2.763-5.72 6.012l.464 6.526c.202 2.05 1.85 3.507 3.85 3.507h3.841c2.001 0 3.649-1.466 3.85-3.507l.466-6.526c.232-3.25-2.396-6.012-5.72-6.012z"/><path fill="#2D242D" d="m25.708 6.62l-.5-.234a3.7 3.7 0 0 1-.96-.65l-.98-.912c-.73-.687-1.82-.922-2.8-.602a3.17 3.17 0 0 1-1.961 0a2.34 2.34 0 0 0-2.58.395l-1.2 1.12c-.28.263-.61.48-.96.649l-.5.235c-.91.433-1.41 1.383-1.23 2.343l.67 3.434c.07.339.38.593.75.602c0 0-.07-.979-.11-1.609a1 1 0 0 1 .37-.847l.22-.178c.3-.255.47-.612.47-.988v-.97a.6.6 0 0 1 .48-.573c.76-.18 2.37-.48 4.62-.48s3.86.3 4.62.48a.6.6 0 0 1 .48.573v.96c0 .377.17.734.47.988l.23.198c.26.216.39.527.37.856c-.04.62-.11 1.59-.11 1.59a.77.77 0 0 0 .73-.602l.67-3.434c.17-.96-.34-1.91-1.26-2.343"/><path fill="#372128" d="M14.982 11.688a.66.66 0 0 0 .899.138c.02-.02.612-.445 1.481-.346a.642.642 0 0 0 .148-1.274c-1.392-.168-2.37.563-2.41.593a.64.64 0 0 0-.118.889m8.138.138a.62.62 0 0 0 .384.128a.68.68 0 0 0 .514-.247a.644.644 0 0 0-.119-.898c-.046-.035-1.012-.76-2.41-.593a.642.642 0 0 0 .148 1.274c.86-.108 1.453.306 1.482.336"/><path fill="#75443E" d="m19.11 13.343l-.581 2.063c-.125.42.17.852.58.852h.876c.41 0 .706-.432.58-.852l-.591-2.063a.444.444 0 0 0-.865 0"/><path fill="#990838" d="M19.36 17.956c-.63 0-1.2-.215-1.624-.439c-.152-.08-.313.142-.196.281c.434.517.89 1.098 1.82 1.098c.929 0 1.41-.514 1.827-1.02c.118-.142-.074-.381-.228-.303a3.5 3.5 0 0 1-1.6.383"/><path fill="#fff" d="M17.857 14.006c.32 0 .583-.277.461-.574a1.777 1.777 0 0 0-3.288 0c-.121.297.14.574.462.574zm3.265 0c-.32 0-.583-.277-.461-.574a1.777 1.777 0 0 1 3.288 0c.121.297-.14.574-.461.574z"/><path fill="#7D4533" d="M15.836 13.726q0 .145.036.28h1.985a.6.6 0 0 0 .186-.033q.027-.12.028-.247a1.117 1.117 0 0 0-2.235 0m7.307 0q0 .145-.036.28h-1.985a.6.6 0 0 1-.186-.033a1.117 1.117 0 1 1 2.207-.247"/><path fill="#000" d="M16.283 13.74q.001.132.047.247h1.303a.7.7 0 0 0 .047-.246a.69.69 0 0 0-.698-.685a.69.69 0 0 0-.699.685m6.413.013a.7.7 0 0 1-.047.252h-1.303a.698.698 0 1 1 1.35-.251"/><path fill="#fff" d="M16.954 13.168a.28.28 0 1 1-.559 0a.28.28 0 0 1 .559 0m4.581 0a.28.28 0 1 0 .558 0a.28.28 0 0 0-.558 0"/></g></svg>