<svg xmlns="http://www.w3.org/2000/svg" xmlns:xlink="http://www.w3.org/1999/xlink" width="32" height="32" viewBox="0 0 32 32"><g fill="none"><path fill="#990838" d="M23.5 8H8.65c-.39.32-.77.64-1.15.96V11c0 4.69 3.81 8.5 8.5 8.5s8.5-3.81 8.5-8.5V9.31c-.35-.42-.68-.86-1-1.31"/><path fill="#F92F60" d="M16.005 15.5a10.98 10.98 0 0 0-8.05 3.5c-.82.878-.955 3-.955 3s-1 2.396-1 4v3l2 1h16l2-1v-3c0-1.604-1-4-1-4s-.16-2.163-1-3.053a10.96 10.96 0 0 0-7.995-3.447"/><path fill="#990838" d="M17.358 19.5h-2.865c-1.07 0-1.943-.851-1.943-1.893V16h6.75v1.607c0 1.052-.873 1.893-1.942 1.893"/><path fill="#CA0B4A" d="M14.75 16v2.537c0 .45.317.824.75.932V26h1v-6.5h1.028c1.086 0 1.972-.849 1.972-1.888V16zM9 18c-2.43 2.03-4.01 5.09-4 8.5V30h4zm14 0v12h4v-3.5c0-3.41-1.55-6.48-4-8.5"/><path fill="#FCD53F" d="M23 26H9v4h14z"/><path fill="#F4C6AD" d="M12.77 10.59a1.67 1.67 0 1 1-3.34 0a1.67 1.67 0 0 1 3.34 0m9.79 0a1.67 1.67 0 1 1-3.34 0a1.67 1.67 0 0 1 3.34 0"/><path fill="#FFD7C2" d="M15.555 3c-2.786 0-4.99 2.407-4.793 5.247l.396 5.691C11.326 15.721 12.709 17 14.389 17h3.222c1.68 0 3.063-1.28 3.231-3.062l.396-5.69C21.435 5.417 19.232 3 16.445 3z"/><path fill="#fff" d="M12.31 10.502c.15-.61.71-1.07 1.37-1.07c.69 0 1.26.49 1.39 1.14c.03.14-.08.27-.23.27h-2.26c-.18 0-.32-.17-.27-.34m7.59 0c-.15-.61-.71-1.07-1.37-1.07c-.69 0-1.26.49-1.39 1.14c-.03.14.08.27.23.27h2.26c.18 0 .31-.16.27-.34"/><path fill="#7D4533" d="M12.98 10.612c0-.5.41-.91.91-.91s.9.4.9.9c0 .09-.01.17-.03.25h-1.75a1 1 0 0 1-.03-.24m6.25 0c0-.5-.41-.91-.91-.91s-.9.4-.9.91q0 .12.03.24h1.75q.03-.12.03-.24"/><path fill="#000" d="M13.89 10.082a.516.516 0 0 1 .46.76h-.92a.516.516 0 0 1 .46-.76m4.43 0a.516.516 0 0 0-.46.76h.92q.06-.105.06-.24c0-.29-.23-.52-.52-.52"/><path fill="#fff" d="M13.74 10.252a.16.16 0 1 1-.32 0a.16.16 0 0 1 .32 0m4.46 0a.16.16 0 1 1-.32 0a.16.16 0 0 1 .32 0"/><path fill="#212121" d="m21.183 4.392l-.418-.21a3.1 3.1 0 0 1-.798-.59l-.817-.84a2.21 2.21 0 0 0-2.335-.55c-.525.19-1.109.19-1.634 0c-.71-.37-1.576-.22-2.15.36l-.992 1.02c-.234.24-.506.44-.808.6l-.408.21a2.015 2.015 0 0 0-1.041 2.14l.554 3.13c.059.31.321.54.623.55l-.098-1.46a.99.99 0 0 1 .312-.78l.185-.17c.253-.23.389-.56.389-.9v-.88c0-.25.165-.47.399-.53c.632-.16 1.984-.44 3.852-.44s3.22.28 3.852.44c.234.06.4.28.4.53v.88c0 .34.145.67.388.9l.195.18c.214.2.33.48.311.78l-.097 1.45a.67.67 0 0 0 .613-.55l.554-3.13a1.98 1.98 0 0 0-1.031-2.14"/><path fill="#212121" d="M19.24 8.932c.11.07.22.11.34.11c.17 0 .33-.07.43-.22c.19-.24.14-.59-.1-.78c-.03-.03-.87-.67-2.09-.52a.56.56 0 0 0 .13 1.11a1.92 1.92 0 0 1 1.29.3m-7.05-.11c.1.14.27.22.44.22c.11 0 .23-.04.33-.11c.02-.02.53-.39 1.29-.3c.31.03.58-.19.62-.49a.57.57 0 0 0-.49-.62c-1.21-.14-2.06.49-2.09.52c-.24.19-.29.53-.1.78"/><path fill="#E5AF93" d="m15.654 10.29l-.496 1.738c-.103.356.14.722.487.722h.73c.345 0 .589-.366.486-.722l-.496-1.738c-.103-.387-.599-.387-.71 0"/><path fill="#990838" d="M16 13.706c-.55 0-1.07-.14-1.508-.385c-.153-.085-.306.096-.214.246c.367.587.999.982 1.722.982c.724 0 1.356-.395 1.723-.982c.092-.15-.071-.32-.214-.246a3.1 3.1 0 0 1-1.509.385"/><path fill="#F92F60" d="M22.5 7v-.02C22.5 4.23 20.263 2 17.505 2h-3.01C11.737 2 9.5 4.23 9.5 6.98V7a2 2 0 0 0-2 2v1.68C7.5 9.2 8.69 8 10.17 8h11.65c1.48 0 2.68 1.2 2.68 2.68V9a2 2 0 0 0-2-2"/><path fill="#321B41" d="M18.75 7h-5.5V5.694C13.25 4.205 14.48 3 16 3s2.75 1.205 2.75 2.694z"/><path fill="#F9C23C" d="M15.347 6.24a1.8 1.8 0 0 1-.597-1.328V4.79c0-.165.214-.237.338-.124l.101.093c.124.113.338.03.338-.124c0-.39.225-.762.597-.967l.259-.144c.113-.062.259.01.259.133v1.205c0 .206.27.298.417.164c.067-.061.191-.02.191.072v.247c0 .35-.158.68-.45.906a1.12 1.12 0 0 1-.721.247h-.023a.96.96 0 0 1-.71-.257"/><path fill="#6D4534" d="m24 16.38l-1.35-.36a.5.5 0 0 0-.61.35L18.38 30h2.49l3.49-13.01a.52.52 0 0 0-.36-.61"/><path fill="#9B9B9B" d="m21.39 16.96l4.21 1.13c.41.107.837.139 1.255.092L28 18.5v-.41l1 1.41c.24 1.07-.09.96-.5 2.5s-.953 2.432-1.751 2.862c-.08.02-.369.07-.419 0L26 24.5c-.153-.177-.534-.116-.718-.255a3.4 3.4 0 0 0-1.162-.565l-4.21-1.13c-.24-.06-.39-.29-.33-.51l1.29-4.81c.04-.21.28-.33.52-.27"/><path fill="#D3D3D3" d="M28.3 21.81c.38-1.43-.25-2.89-1.45-3.62c.24-.03.49-.08.72-.16l.45-.15c.08-.03.17-.01.24.06a4.35 4.35 0 0 1 1.09 4.16a4.34 4.34 0 0 1-3.02 3.06c-.08.02-.18 0-.23-.07l-.31-.36a3.6 3.6 0 0 0-.54-.5c1.39-.04 2.67-1 3.05-2.42"/></g></svg>