<svg xmlns="http://www.w3.org/2000/svg" xmlns:xlink="http://www.w3.org/1999/xlink" width="32" height="32" viewBox="0 0 32 32"><g fill="none"><path fill="#BB806E" d="M10 18a3 3 0 1 1-6 0a3 3 0 0 1 6 0Zm18 0a3 3 0 1 1-6 0a3 3 0 0 1 6 0Z"/><path fill="#C68D7B" d="M15.155 3.99c-5.31 0-9.504 3.959-9.132 9.217l.744 11.095c.332 3.32 2.957 5.688 6.165 5.688h6.146c3.208 0 5.833-2.369 6.155-5.688l.744-11.095c.372-5.268-3.822-9.217-9.132-9.217h-1.69Z"/><path fill="#593B39" d="M8.902 14.128a.995.995 0 0 0 1.39.185l.02-.014a3.46 3.46 0 0 1 .614-.315a3.75 3.75 0 0 1 1.809-.235a.995.995 0 1 0 .23-1.977a5.74 5.74 0 0 0-3.556.743a4.117 4.117 0 0 0-.29.19l-.023.017l-.008.006l-.003.002l-.002.001l-.001.001a.995.995 0 0 0-.18 1.396Zm14.596 0a.996.996 0 0 0-.18-1.396l-.003-.002l-.003-.002l-.097-.07a5.44 5.44 0 0 0-1.012-.527a5.74 5.74 0 0 0-2.768-.36a.995.995 0 0 0 .23 1.978a3.75 3.75 0 0 1 2.308.477c.054.032.093.058.116.073l.02.014a.995.995 0 0 0 1.389-.185Z"/><path fill="#fff" d="M9.04 17.41a2.638 2.638 0 0 1 2.55-1.99c1.28 0 2.34.92 2.58 2.12c.05.27-.16.51-.43.51H9.55c-.34 0-.59-.31-.51-.64Zm14.1 0a2.638 2.638 0 0 0-2.55-1.99c-1.28 0-2.34.92-2.58 2.12c-.05.27.16.51.43.51h4.19c.34 0 .59-.31.51-.64Z"/><path fill="#7D4533" d="M10.3 17.61c0-.93.75-1.68 1.68-1.68a1.677 1.677 0 0 1 1.62 2.13h-3.24c-.04-.15-.06-.3-.06-.45Zm11.58 0c0-.93-.75-1.68-1.68-1.68a1.677 1.677 0 0 0-1.62 2.13h3.24c.04-.15.06-.3.06-.45Z"/><path fill="#000" d="M11.98 16.65a.96.96 0 0 1 .85 1.41h-1.7a.96.96 0 0 1 .85-1.41Zm8.22 0a.96.96 0 0 0-.85 1.41h1.7a.96.96 0 0 0-.85-1.41Z"/><path fill="#fff" d="M11.7 16.95a.3.3 0 1 1-.6 0a.3.3 0 0 1 .6 0Zm8.28 0a.3.3 0 1 1-.6 0a.3.3 0 0 1 .6 0Z"/><path fill="#990838" d="M15.998 23.889a5.68 5.68 0 0 1-2.583-.607c-.257-.13-.522.16-.37.392a3.53 3.53 0 0 0 2.953 1.576a3.53 3.53 0 0 0 2.954-1.576c.161-.233-.114-.522-.37-.392a5.692 5.692 0 0 1-2.584.607Z"/><path fill="#AB6A55" d="m15.29 17.517l-.993 3.12c-.205.64.286 1.29.972 1.29h1.462c.686 0 1.177-.65.972-1.29l-.992-3.12c-.205-.69-1.207-.69-1.422 0Z"/><path fill="#E6E6E6" d="M20.15 2h2.47c3.31 0 5.85 2.96 5.35 6.23l-.77 4.95c-.13.8-.74 1.41-1.5 1.56l.01-.32v-.58c-.01-.29-.04-.58-.09-.87c-.31-1.2-1.4-2.08-2.7-2.08h-7.45L20.15 2Z"/><path fill="#F4F4F4" d="M16.1 2H9.57C6.26 2 3.72 4.96 4.23 8.23L5 13.18c.12.79.73 1.41 1.5 1.56l-.01-.32v-.58c.01-.3.04-.59.09-.87a2.8 2.8 0 0 1 2.7-2.08h6.19c2.03 0 3.82-1.35 4.38-3.3l1.24-4.32A.986.986 0 0 0 20.15 2H16.1Z"/><path fill="#D3D3D3" d="M19.32 3.485a9.398 9.398 0 0 1-.57 1.73c-.441.966-1.038 1.69-1.84 2.245c-1.38.96-3.36 1.41-6.24 1.41c-2.692 0-4.225.805-5.079 1.596l-.027.026a4.792 4.792 0 0 0-.283.293a3.72 3.72 0 0 0-.531.775l-.22-1.41c.11-.13.23-.26.37-.37C6.56 8.23 8.95 7.9 10.67 7.9c2.78 0 4.538-.431 5.686-1.236c.16-.111.309-.231.446-.357c.456-.42.794-.919 1.055-1.49l.003-.007l-.034.019a6.01 6.01 0 0 1-1.533.575c-.871.202-1.962.273-3.31.077c-.36-.05-.723-.11-1.079-.168a92.282 92.282 0 0 0-.444-.073c-2.064-.34-3.974-.652-5.547-.286a5.059 5.059 0 0 0-.321.085c-.387.117-.752.28-1.092.501c.19-.53.47-1.02.81-1.46c1.863-.548 4.092-.183 6.284.176l.027.004l.394.066c.364.06.743.123 1.108.175c2.088.301 3.438-.102 4.254-.561c.051-.03.1-.058.148-.088c.642-.396.9-.803.905-.812a.497.497 0 0 1 .91.36l-.02.085Zm2.128 5.316a7.19 7.19 0 0 1 5.912 3.309l.21-1.37a8.186 8.186 0 0 0-6.26-2.92a.49.49 0 0 0 0 .98l.138.001Zm5.517-2.145A7.28 7.28 0 0 1 28.02 7.71c.03-.54-.02-1.07-.14-1.57a8.192 8.192 0 0 0-5.44-2.08a.49.49 0 0 0 0 .98l.137.001a7.179 7.179 0 0 1 4.388 1.615Z"/></g></svg>