<svg xmlns="http://www.w3.org/2000/svg" xmlns:xlink="http://www.w3.org/1999/xlink" width="32" height="32" viewBox="0 0 32 32"><g fill="none"><path fill="#FF9F2E" d="M28.334 4.716c-.4-.34-.64-.82-.67-1.32h.59c.13 0 .19-.17.09-.25l-1.32-1.04c-.12-.1-.28-.02-.28.12v1.17c0 .82.36 1.47.99 2.01c.39.33.61.81.62 1.32c.01.47-.18.91-.51 1.24c-.34.35-.8.54-1.28.54c-.59 0-1.07-.48-1.07-1.07v-4.05h.33c.15 0 .23-.17.14-.28l-.78-1.01a.227.227 0 0 0-.35 0l-.77 1.01c-.09.12-.01.28.14.28h.39v4.033a1.07 1.07 0 0 1-1.07 1.067c-.48 0-.94-.19-1.28-.54c-.33-.34-.51-.78-.51-1.24c.01-.51.23-.99.62-1.32c.63-.54.99-1.19.99-2.01v-1.17c0-.14-.16-.21-.27-.13l-1.32 1.04c-.11.08-.05.25.09.25h.59c-.04.5-.28.98-.67 1.32c-.58.5-.92 1.23-.93 1.99c-.01.71.27 1.38.77 1.89c.51.52 1.19.8 1.92.8h1.07h-.6c-.25 0-.45.231-.45.52s.2.52.45.52h.6v19.18c0 .23.19.42.42.42h.05c.23 0 .41-.19.42-.41v-19.19h.61c.25 0 .46-.242.46-.52c0-.227-.123-.419-.298-.49h.308c.72 0 1.41-.29 1.92-.8c.5-.51.78-1.18.77-1.89c0-.77-.34-1.49-.92-1.99"/><path fill="#00D26A" d="m17.374 16.206l-.29.39q-.435-.15-.93-.15l-3.04-.24c-1.12.19-2.3 1.52-2.3 3.1s1.52 2.51 2.29 2.91c0 0 2.26 1.07 2.42 2.77c.11 1.23-.48 3.58-4.5 3.02c-.66-.09-1.24-.42-1.47-1.01c-.04-.11.01-.22.12-.27l.76-.31c.85-.34 1.42-1.17 1.42-2.09v-.61c0-.2-.2-.34-.39-.26l-1.69.67c-.48.19-.86.55-1.09 1c-.05.09-.14.15-.23.15s-.19-.06-.23-.15c-.23-.44-.61-.8-1.09-1l-1.69-.67c-.19-.07-.39.06-.39.26v.61c0 .92.56 1.75 1.42 2.09l.85.34c.09.04.16.12.18.22a3.55 3.55 0 0 0 3.52 3.03h3.13c2.53 0 4.88-1.4 6.02-3.66c.45-.89.74-1.96.74-3.24c-.01-5.13-3.54-6.9-3.54-6.9"/><path fill="#E4B29A" d="M4.494 17.206c-.17 0-.33-.1-.4-.26c-.37-.83.05-1.45.33-1.67l.73.54l-.06.04c-.06.05-.37.36-.2.74c.1.22 0 .48-.22.58q-.09.03-.18.03"/><path fill="#EEBFAA" d="M21.524 13.516c-.24-.04-.35-.16-.48-.28l-1.52-1.47a5.4 5.4 0 0 0-1.826-1.154l-1.844.107h-2.07l-1.93-.062c-.62.254-1.19.63-1.67 1.11l-2.41 2.41c-.09.09-.2.14-.32.16l-2.72.3q-.12 0-.24.03c-.48.09-.91.37-1.17.8l-.23.37c-.17.22-.1.52.13.67c.08.05.17.07.26.07c.16 0 .32-.08.41-.23l.23-.37c.17-.25.42-.33.59-.36c.08-.01.16.02.21.08c.06.09.05.2-.02.27l-.33.34c-.19.19-.2.52-.01.71c.09.09.21.13.34.13c.12 0 .25-.05.34-.14l.09-.09c.08-.08.2-.13.31-.13h2.06c.69 0 1.34-.27 1.83-.76l1.74-1.74c.08-.08.22-.03.23.09l.06.88c.04.4.03.96-.15 1.61c-.02.06-.03.11-.04.17c-.14.76.32 1.47 1.04 1.68c1.49.43 3.08.44 4.57.02c.62-.17 1.08-.7 1.12-1.34c.01-.16-.01-.33-.05-.48a4.4 4.4 0 0 1-.16-1.64c.03-.29.05-.77.07-1.07c.01-.11.14-.17.23-.09l.97.93c.66.64 1.54.99 2.46.99h3.86l-.01-2.19z"/><path fill="#E4B29A" d="M13 7a1 1 0 1 1-2 0a1 1 0 0 1 2 0m5.544 0a1 1 0 1 1-2 0a1 1 0 0 1 2 0m-.824 3.621a2.8 2.8 0 0 1-2.048.879h-1.849a2.8 2.8 0 0 1-2.001-.83a5.1 5.1 0 0 1 1.962-.394h2.07c.645 0 1.276.12 1.867.345"/><path fill="#EEBFAA" d="M14.496 2.5c-1.597 0-2.852 1.381-2.742 2.997l.221 3.254c.1 1.023.884 1.749 1.848 1.749h1.849c.964 0 1.747-.726 1.848-1.75l.22-3.253C17.852 3.881 16.597 2.5 15 2.5z"/><path fill="#fff" d="M12.604 6.8a.795.795 0 0 1 1.55.04c.02.08-.05.15-.13.15h-1.27c-.1 0-.17-.09-.15-.19m4.27 0a.795.795 0 0 0-1.55.04c-.02.08.05.15.13.15h1.27c.1 0 .17-.09.15-.19"/><path fill="#A56953" d="m12.595 5.407l.001-.001l.003-.002l.007-.005a1 1 0 0 1 .088-.057a1.78 1.78 0 0 1 1.073-.227a.313.313 0 0 1-.066.622a1.15 1.15 0 0 0-.724.165l-.005.004a.313.313 0 0 1-.377-.499m4.19-.065a1.78 1.78 0 0 0-1.073-.227a.313.313 0 0 0 .065.622a1.15 1.15 0 0 1 .724.165l.006.004a.313.313 0 0 0 .377-.499z"/><path fill="#7D4533" d="M12.984 6.846c0-.28.23-.51.51-.51a.512.512 0 0 1 .49.65h-.98L13 6.965a.6.6 0 0 1-.016-.12m3.51.001c0-.28-.23-.51-.51-.51a.512.512 0 0 0-.49.65h.98l.005-.021a.6.6 0 0 0 .015-.12"/><path fill="#000" d="M13.494 6.556c.16 0 .29.13.29.29q-.002.047-.016.089l-.014.05h-.52a.4.4 0 0 1-.03-.14c0-.16.13-.29.29-.29m2.49.001a.29.29 0 0 0-.29.29c0 .05.01.09.03.14h.52c.02-.05.03-.09.03-.14a.29.29 0 0 0-.29-.29"/><path fill="#fff" d="M13.404 6.646a.09.09 0 1 1-.18 0a.09.09 0 0 1 .18 0m2.51 0a.09.09 0 1 1-.18 0a.09.09 0 0 1 .18 0"/><path fill="#D19479" d="m14.55 6.806l-.287.95c-.058.2.086.39.277.39h.42c.191 0 .335-.2.277-.39l-.286-.95a.206.206 0 0 0-.402 0"/><path fill="#FFF9BA" d="m17.652 3.346l-.232-.12c-.165-.09-.32-.2-.445-.33l-.465-.51a1.25 1.25 0 0 0-1.305-.31c-.3.11-.61.15-.91.04c-.396-.21-.89-.13-1.2.2l-.56.58q-.206.21-.455.33l-.232.12a1.13 1.13 0 0 0-.58 1.2l.31 1.76c.028.18.173.3.347.31l-.048-.82a.52.52 0 0 1 .174-.43l.097-.09a.7.7 0 0 0 .222-.51v-.49c0-.14.097-.26.223-.3a8.8 8.8 0 0 1 2.157-.25c1.045 0 1.8.16 2.157.25c.126.03.223.15.223.29v.49c0 .19.077.38.222.51l.107.1c.116.11.183.27.174.44l-.049.82c.165-.01.31-.14.339-.31l.31-1.76c.086-.49-.155-.98-.581-1.21"/><path fill="#990838" d="M14.75 8.686c-.315 0-.61-.07-.864-.2c-.081-.04-.172.05-.122.13c.214.32.57.53.986.53s.772-.21.985-.53c.05-.08-.04-.17-.122-.13c-.244.13-.538.2-.863.2"/><path fill="#E4B29A" d="M26.134 14.356c0-.14-.08-.26-.19-.32c.11-.06.19-.19.19-.32a.37.37 0 0 0-.37-.37h-.59a.37.37 0 0 0-.18.69c-.11.06-.19.19-.19.32c0 .14.08.26.19.32c-.11.06-.19.19-.19.32c0 .14.08.26.19.32c-.11.06-.19.19-.19.32c0 .21.17.37.37.37h.59a.37.37 0 0 0 .18-.69c.11-.06.19-.19.19-.32c0-.14-.08-.26-.19-.32c.12-.06.19-.18.19-.32"/><path fill="#E4B29A" d="M25.334 13.106a.42.42 0 0 0-.32-.14h-.88c-.18 0-.33.11-.39.26v.01l-.17.45l.83.07c.12.01.22.11.22.24v.28c0 .24.2.44.44.43s.42-.21.42-.45v-.82a.47.47 0 0 0-.15-.33"/></g></svg>