<svg xmlns="http://www.w3.org/2000/svg" xmlns:xlink="http://www.w3.org/1999/xlink" width="32" height="32" viewBox="0 0 32 32"><g fill="none"><path fill="#A56953" d="M2 18.7v8.8l8-1.11h1.4c1.56 0 2.82 1.26 2.82 2.82H30V26.4c0-2.96-2.11-5.5-5.01-6.05c0 0-5.83-.71-8.99-3.36a4.13 4.13 0 0 0-2.66-.99H4.7C3.21 16 2 17.21 2 18.7"/><path fill="#6D4534" d="M16.898 16.832a.69.69 0 0 1 0 .976l-1.64 1.64a.69.69 0 1 1-.976-.976l1.64-1.64a.69.69 0 0 1 .976 0m2.98 1.58a.69.69 0 0 1 0 .976l-1.64 1.64a.69.69 0 1 1-.976-.976l1.64-1.64a.69.69 0 0 1 .976 0M2 26.4h7.98v2.82H2z"/></g></svg>