<svg xmlns="http://www.w3.org/2000/svg" xmlns:xlink="http://www.w3.org/1999/xlink" width="32" height="32" viewBox="0 0 32 32"><g fill="none"><path fill="#8D65C5" d="M2 6a4 4 0 0 1 4-4h20a4 4 0 0 1 4 4v20a4 4 0 0 1-4 4H6a4 4 0 0 1-4-4z"/><path fill="#fff" d="m6.127 4.736l.62 1.105a.883.883 0 1 1-1.556.03l.578-1.128a.203.203 0 0 1 .358-.007m3.151 1.105l-.62-1.105a.203.203 0 0 0-.358.007L7.722 5.87a.883.883 0 1 0 1.556-.029m1.88-1.105l.62 1.105a.883.883 0 1 1-1.556.03l.578-1.128a.203.203 0 0 1 .358-.007m8.096 1.105l-.62-1.105a.203.203 0 0 0-.358.007l-.578 1.127a.883.883 0 1 0 1.556-.029m7.508 0l-.62-1.105a.203.203 0 0 0-.358.007l-.578 1.127a.883.883 0 1 0 1.556-.029m-2.5 0l-.62-1.105a.203.203 0 0 0-.358.007l-.578 1.127a.883.883 0 1 0 1.556-.029m-8.128-1.105l.62 1.105a.883.883 0 1 1-1.556.03l.578-1.128a.203.203 0 0 1 .358-.007m4.976 0l.62 1.105a.883.883 0 1 1-1.555.03l.578-1.128a.203.203 0 0 1 .358-.007m-6.888 1.105l-.62-1.105a.203.203 0 0 0-.358.007l-.578 1.127a.883.883 0 1 0 1.556-.029M18.75 27a.235.235 0 0 0 .24-.25a3 3 0 0 0-2.054-2.6a.265.265 0 0 1-.186-.248V20.41c0-.131.102-.24.233-.252c5.52-.497 9.845-5.135 9.845-10.784a.75.75 0 0 0-1.5 0c0 4.807-3.636 8.765-8.308 9.273a.245.245 0 0 1-.27-.245v-.583c0-.13.1-.237.228-.252a8.25 8.25 0 0 0 7.272-8.193a.75.75 0 0 0-1.5 0a6.75 6.75 0 0 1-5.723 6.672a.242.242 0 0 1-.277-.242v-.509c0-.125.093-.231.217-.252a5.75 5.75 0 0 0 4.783-5.669a.75.75 0 0 0-1.5 0a4.25 4.25 0 0 1-3.208 4.121a.237.237 0 0 1-.292-.235v-.525c0-.116.08-.216.191-.25a3.25 3.25 0 0 0 2.309-3.111a.75.75 0 0 0-1.5 0c0 .557-.26 1.053-.665 1.373c-.144.114-.335-.003-.335-.187V9.375a.75.75 0 0 0-1.5 0v1.186c0 .184-.191.301-.335.187a1.75 1.75 0 0 1-.665-1.373a.75.75 0 0 0-1.5 0c0 1.468.973 2.708 2.309 3.112a.26.26 0 0 1 .191.249v.525a.237.237 0 0 1-.292.235a4.25 4.25 0 0 1-3.208-4.121a.75.75 0 0 0-1.5 0a5.75 5.75 0 0 0 4.783 5.669a.26.26 0 0 1 .217.252v.509c0 .149-.13.265-.277.242A6.75 6.75 0 0 1 9.25 9.375a.75.75 0 0 0-1.5 0a8.25 8.25 0 0 0 7.272 8.193a.256.256 0 0 1 .228.252v.583a.245.245 0 0 1-.27.245c-4.672-.508-8.308-4.466-8.308-9.273a.75.75 0 0 0-1.5 0c0 5.649 4.325 10.287 9.845 10.784c.13.012.233.12.233.252v3.49a.265.265 0 0 1-.186.249a3 3 0 0 0-2.054 2.6a.235.235 0 0 0 .24.25z"/></g></svg>