<svg xmlns="http://www.w3.org/2000/svg" xmlns:xlink="http://www.w3.org/1999/xlink" width="32" height="32" viewBox="0 0 32 32"><g fill="none"><path fill="#7D4533" d="M19.17 30h-3.61a.75.75 0 0 1-.72-.54L11 16h5l3.77 13.2c.12.4-.18.8-.6.8"/><path fill="#008463" d="M30 12.46c-.02-.82-.72-1.46-1.54-1.46h-.03c-.54 0-1.03-.34-1.22-.85C25.45 5.39 20.87 2 15.5 2C8.65 2 3 7.67 3 14.5v2.56c0 1.33-.33 2.64-.87 3.86c-.09.18-.13.38-.13.6A1.5 1.5 0 0 0 3.5 23c2.87 0 4.15-.6 6.76-1.77l12.7-5.72c2.23-1 3.09-1.51 5.53-1.51c.85 0 1.53-.69 1.51-1.54"/><path fill="#44911B" d="m9.03 18.49l12.7-5.72c2.29-1.03 3.26-1.75 6.54-1.75c0-.01-.01-.03-.01-.04a1.3 1.3 0 0 1-1.05-.84C25.45 5.39 20.87 2 15.5 2C8.65 2 3 7.67 3 14.5v2.56c0 1-.19 1.98-.51 2.92c3.45-.05 4.65-.64 6.54-1.49"/><path fill="#9B9B9B" d="m18.236 23.9l.6 2.1H14l-.74-2.1zm.024-1h-5c-.32 0-.63.16-.82.42s-.23.6-.13.91l.74 2.1c.15.4.53.67.95.67h4.86c.31 0 .61-.15.8-.4a.99.99 0 0 0 .16-.88l-.6-2.1c-.12-.42-.52-.72-.96-.72"/><path fill="#5C2614" d="M12.864 22.558c-.24-.872-.04-1.353 1.193-1.894c.886-.39 2.088-.882 2.731-1.146l.196-.08l-.316-1.102l-4.435 2.007zm5.007 2.081c-.087-.301-.214-.74-1.08-.74h1.445l.609 2.098h-1.617c1.08 0 .769-.962.671-1.263l-.002-.007zm-3.447-.738c-.436 0-.436.431-.279.908c.307.928.872 1.186 1.166 1.196h-1.308l-.75-2.104z"/></g></svg>