<svg xmlns="http://www.w3.org/2000/svg" xmlns:xlink="http://www.w3.org/1999/xlink" width="32" height="32" viewBox="0 0 32 32"><g fill="none" fill-rule="evenodd" clip-rule="evenodd"><path fill="#F3C07B" d="M17.44 3.385c.33.38.89.45 1.3.16c.8-.57 1.84.29 1.43 1.17l-2.42 2.77h-3.87l-2.44-2.8c-.41-.89.63-1.75 1.43-1.18l.07.05c.41.29.97.21 1.29-.17l.87-1.04a.955.955 0 0 1 1.47 0zM4 21.225c0-6.54 5.3-11.84 11.84-11.84s11.84 5.3 11.83 11.84c0 4.83-3.92 8.75-8.75 8.75h-6.17c-4.83 0-8.75-3.92-8.75-8.75"/><path fill="#8C5543" d="M14.12 7.465h3.44c.61 0 1.11.5 1.11 1.11s-.5 1.11-1.11 1.11h-3.44c-.61 0-1.11-.5-1.11-1.11s.5-1.11 1.11-1.11m1.72 11.88h.07c1.5.04 2.7 1.26 2.7 2.76c0 1.28-.87 2.35-2.05 2.67v1.12c0 .4-.32.72-.72.72s-.72-.32-.72-.72v-1.12a2.77 2.77 0 0 1-2.05-2.67c0-.4.32-.72.72-.72s.72.32.72.72c0 .74.59 1.33 1.32 1.33s1.33-.6 1.33-1.33s-.6-1.33-1.33-1.33h-.07a2.765 2.765 0 0 1-2.69-2.76c0-1.28.87-2.35 2.05-2.67v-1.12c0-.4.32-.72.72-.72s.72.32.72.72v1.12c1.18.32 2.05 1.39 2.05 2.67c0 .4-.32.72-.72.72s-.72-.32-.72-.72c0-.73-.6-1.33-1.33-1.33s-1.33.6-1.33 1.33s.6 1.33 1.33 1.33"/></g></svg>