<svg xmlns="http://www.w3.org/2000/svg" xmlns:xlink="http://www.w3.org/1999/xlink" width="32" height="32" viewBox="0 0 32 32"><g fill="none"><path fill="#402A32" d="M11.5 18a.5.5 0 0 1 .5.5v5c0 2.563-1.08 4.213-2.458 5.206C8.19 29.68 6.58 30 5.5 30a.5.5 0 0 1 0-1c.92 0 2.311-.28 3.458-1.106C10.079 27.087 11 25.737 11 23.5v-5a.5.5 0 0 1 .5-.5m4.5.5a.5.5 0 0 0-1 0v5c0 2.378 1.092 3.978 2.452 4.989c1.34.996 2.934 1.42 4.006 1.51a.5.5 0 0 0 .084-.997c-.928-.078-2.334-.454-3.494-1.316C16.908 26.84 16 25.522 16 23.5zm-2 1a.5.5 0 0 0-1 0v10a.5.5 0 0 0 1 0zM2.65 29.818l5.606-9.983l-1.241-.76l-4.983 10.423a.348.348 0 0 0 .617.32"/><path fill="#8C5543" d="m16.131 19.11l10.005 9.555a1.11 1.11 0 0 0 1.76-1.299l-6.175-12.38a3.525 3.525 0 1 0-5.59 4.124"/><path fill="#7D4533" d="M13.5 20a4.5 4.5 0 0 0 2.497-8.244L15.644 11l-.896.175A4.504 4.504 0 0 0 9 15.5a4.5 4.5 0 0 0 4.5 4.5"/><path fill="#7D4533" d="M8 21a2 2 0 1 0 0-4a2 2 0 0 0 0 4"/><path fill="#212121" d="M8.125 19.5a.625.625 0 1 1-1.25 0a.625.625 0 0 1 1.25 0"/><path fill="#F4F4F4" d="m15.236 13.029l5.89-5.696l5.284-4.786A2.156 2.156 0 1 1 29 5.974L23.21 9.59l-7.292 4.332a.566.566 0 0 1-.682-.893m2.669-9.994l-3.174 8.135a4.5 4.5 0 0 1 1.282.596l4.725-7.277a1.6 1.6 0 1 0-2.833-1.454"/></g></svg>