<svg xmlns="http://www.w3.org/2000/svg" xmlns:xlink="http://www.w3.org/1999/xlink" width="32" height="32" viewBox="0 0 32 32"><g fill="none"><path fill="#321B41" d="M11 25.5a4.5 4.5 0 1 1-9 0a4.5 4.5 0 0 1 9 0m19 0a4.5 4.5 0 1 1-9 0a4.5 4.5 0 0 1 9 0"/><path fill="#636363" d="m6.99 26.254l-1.076-1.621l4.07-3.988l1.516 1.357zm18.51-1.106l.501-.648l-3.756-3.673L21 22.5l2.723 2.53H19.02V27h6.48z"/><path fill="#FF822D" d="M11.23 23c.465.922.77 1.89.77 3c0 1.04.917 2 2 2h4c1.083 0 2-.85 2-1.89V26c0-1.09.266-2.12.797-3l-4.783-1z"/><path fill="#F92F60" d="M7.5 15L6 17c.5.5.717 1.015 1 1.5c.311.533.5.5.79 1.39l.54.27c1.26.63 2.25 1.64 2.89 2.84h9.6a6.03 6.03 0 0 1 3.09-2.62c1.65-.62 3.2-1.48 4.45-2.73c.42-.42.65-.98.65-1.57v-.11a.995.995 0 0 0-.99-.97h-4.05a.97.97 0 0 0-.97.97v1.13h-7c0-1.1-.9-2.1-2-2.1z"/><path fill="#CA0B4A" d="M27 17.01c-.55 0-1 .45-1 1c0 .46.31.82.73.94c.58-.38 1.13-.8 1.62-1.3c.19-.19.33-.41.44-.65H27z"/><path fill="#533566" d="M22.03 19h-5.06a.97.97 0 0 1-.97-.97V17h7v1.03c0 .54-.44.97-.97.97"/><path fill="#FCD53F" d="M8 19c0 .32-.09.62-.22.89A3.22 3.22 0 0 1 6 17c1.1 0 2 .9 2 2m2.01 0h1v-2h-1c-.55 0-1 .45-1 1s.45 1 1 1"/><path fill="#F4F4F4" d="M8 25.5a1.5 1.5 0 1 1-3 0a1.5 1.5 0 0 1 3 0m19 0a1.5 1.5 0 1 1-3 0a1.5 1.5 0 0 1 3 0"/><path fill="#26C9FC" d="M5.999 17c.63 0 1.23-.28 1.64-.77l3.2-3.83c.44-.53-.09-1.31-.74-1.09c-2.39.8-4.1 3.05-4.1 5.69"/><path fill="#321B41" d="M10.51 15h-2c-.28 0-.5-.22-.5-.5s.22-.5.5-.5h2c.28 0 .5.22.5.5s-.23.5-.5.5"/></g></svg>