<svg xmlns="http://www.w3.org/2000/svg" xmlns:xlink="http://www.w3.org/1999/xlink" width="32" height="32" viewBox="0 0 32 32"><g fill="none"><path fill="#F3C07B" d="m2 16l7.5 2l5-2l4-3s1.615-5.605 2.356-4.736C20.856 8.264 19.75 7 19 7H8.5c-1 0-1.611 1-1.611 1z"/><path fill="#FFDEA7" d="m21.035 8.5l7.93 11.5s1.035 1.5.498 2.413L25 30l-6.5-6l-4-8L19 7.9c.201-.373 1.273-.53 2.035.6"/><path fill="#7D4533" d="M14.5 16H2l10.5 14H25z"/><path fill="#D3D3D3" d="M7 16c-.274 0-.306-.025-.313-.03l-.021-.026a.6.6 0 0 1-.061-.127c-.051-.142-.105-.394-.105-.817a1 1 0 1 0-2 0c0 1.138.283 2.007.938 2.53c.183.148.376.249.562.318V29.25a1 1 0 1 0 2 0V17.848c.186-.07.379-.17.562-.317c.447-.357.72-.876.85-1.531z"/><path fill="#FFB02E" d="M9.606 30h6.288c.426 0 .707-.508.572-.966c-.025-.085-.052-.17-.06-.258L15.765 22H12.75c-.204 0-.408.121-.524.364l-3.144 6.545c-.233.485.058 1.091.524 1.091"/><path fill="#F9C23C" d="M15.226 22.364c.233-.485.815-.485 1.048 0l3.144 6.545c.233.485-.058 1.091-.524 1.091h-6.288c-.466 0-.757-.606-.524-1.09z"/><path fill="#D3883E" d="M16.25 25.5a.75.75 0 1 1-1.5 0a.75.75 0 0 1 1.5 0M16 28a1 1 0 1 1-2 0a1 1 0 0 1 2 0m1-.5a.5.5 0 1 0 0-1a.5.5 0 0 0 0 1"/></g></svg>