<svg xmlns="http://www.w3.org/2000/svg" xmlns:xlink="http://www.w3.org/1999/xlink" width="32" height="32" viewBox="0 0 32 32"><g fill="none"><path fill="#FFCE7C" d="M10.992 25.309L13.5 18.5H18l2.831 6.724A2 2 0 0 1 18.988 28h-6.12a2 2 0 0 1-1.876-2.691"/><path fill="#F8312F" d="M4 16c0-2.27.63-4.394 1.727-6.205L9.5 8l3.258-3.557A12 12 0 0 1 16 4c1.626 0 3.176.323 4.59.91l2.91 5.59l4.455 4.456Q28 15.472 28 16v2a2 2 0 0 1-2 2H6a2 2 0 0 1-2-2z"/><path fill="#FBB8AB" d="M12.79 4.434q.079.436.08.896c0 2.74-2.23 4.96-4.97 4.97a4.9 4.9 0 0 1-2.173-.506a12.03 12.03 0 0 1 7.062-5.36m7.784.468A6.6 6.6 0 0 0 19.43 8.63a6.632 6.632 0 0 0 8.528 6.353c-.384-4.567-3.324-8.406-7.385-10.081M14.94 17.04a2.74 2.74 0 1 0 0-5.48a2.74 2.74 0 0 0 0 5.48"/></g></svg>