<svg xmlns="http://www.w3.org/2000/svg" xmlns:xlink="http://www.w3.org/1999/xlink" width="32" height="32" viewBox="0 0 32 32"><g fill="#402A32"><path d="m14.36 3.004l-6.14.8c-.32.04-.56.32-.56.64v7.62c-.57-.2-1.2-.28-1.86-.21c-2.05.22-3.67 1.92-3.8 3.98a4.27 4.27 0 0 0 4.27 4.55c2.36 0 4.28-1.91 4.28-4.28c0-.09 0-.18-.01-.27v-7.83c0-.28.21-.52.49-.56l3.46-.45a.53.53 0 0 0 .46-.53v-2.93a.52.52 0 0 0-.59-.53m15.04 2.37l-6.14.8c-.32.04-.56.31-.56.63v10.01c-.57-.2-1.2-.28-1.86-.21c-2.05.22-3.67 1.92-3.8 3.98a4.27 4.27 0 0 0 4.27 4.55c2.36 0 4.28-1.91 4.28-4.28c0-.09 0-.18-.01-.27v-10.21c0-.28.21-.52.49-.56l3.46-.45c.27-.04.47-.26.47-.53v-2.94c0-.32-.28-.56-.6-.52"/><path d="m13.09 10.654l6.14-.8c.32-.05.6.2.6.52v2.93c0 .27-.2.5-.46.53l-3.46.45a.57.57 0 0 0-.49.56v10.22c.01.09.01.18.01.27c0 2.37-1.92 4.28-4.28 4.28c-2.46 0-4.43-2.06-4.27-4.55c.12-2.06 1.74-3.75 3.79-3.97c.66-.07 1.29.01 1.86.21v-10.01c0-.33.24-.6.56-.64"/></g></svg>