<svg xmlns="http://www.w3.org/2000/svg" xmlns:xlink="http://www.w3.org/1999/xlink" width="32" height="32" viewBox="0 0 32 32"><g fill="none"><path fill="#fff" d="M27.875 15.938c0 6.592-5.345 11.937-11.937 11.937C9.345 27.875 4 22.53 4 15.938C4 9.345 9.345 4 15.938 4c6.592 0 11.937 5.345 11.937 11.938"/><path fill="#000" d="M9 10.5a.5.5 0 0 1 .5-.5h5a.5.5 0 0 1 0 1h-3.552a.5.5 0 0 1-.377.277c-.11.017-.271.134-.41.535a3.7 3.7 0 0 0-.175 1.107a.5.5 0 0 1-1 0c0-.368.055-.931.23-1.436c.053-.153.126-.322.223-.483H9zm8.5.5a.5.5 0 0 0 0 1h1.17l-.276.646h-6.918a.5.5 0 0 0-.492.409l-.36 1.947L10.5 15a3.5 3.5 0 1 0 1.108.179l.284-1.533h6.074l-1.119 2.618a.5.5 0 0 0 .92.393l.941-2.203l.632 1.292a3.5 3.5 0 1 0 .869-.5l-.982-2.007l.53-1.239h.743a.5.5 0 0 0 0-1zm-7 10a2.5 2.5 0 0 1-.062-5l-.453 2.446a.5.5 0 0 0 .984.182l.454-2.452A2.5 2.5 0 0 1 10.5 21m9.293-4.326a2.5 2.5 0 0 0-.77 1.479a.5.5 0 0 1 .32-.116h1.117zm-.756 2.259a.5.5 0 0 0 .307.104h1.917a.5.5 0 0 0 .449-.72l-1.06-2.169q.4-.146.85-.148a2.5 2.5 0 1 1-2.463 2.933"/><path fill="#F8312F" d="M16 30c7.732 0 14-6.268 14-14S23.732 2 16 2S2 8.268 2 16s6.268 14 14 14m6.645-5.233A10.95 10.95 0 0 1 16 27C9.925 27 5 22.075 5 16c0-2.497.832-4.8 2.233-6.645zm2.122-2.122L9.355 7.233A10.95 10.95 0 0 1 16 5c6.075 0 11 4.925 11 11c0 2.497-.832 4.8-2.233 6.645"/></g></svg>