<svg xmlns="http://www.w3.org/2000/svg" xmlns:xlink="http://www.w3.org/1999/xlink" width="32" height="32" viewBox="0 0 32 32"><g fill="none"><path fill="#fff" d="M27.875 15.938c0 6.592-5.345 11.937-11.937 11.937C9.345 27.875 4 22.53 4 15.938C4 9.345 9.345 4 15.938 4c6.592 0 11.937 5.345 11.937 11.938"/><path fill="#000" d="M17.918 10.11a1.461 1.461 0 1 0 0-2.923a1.461 1.461 0 0 0 0 2.922m-1.621.797a.88.88 0 0 0-.587.226l-2.152 1.946l-2.741.972a.875.875 0 1 0 .585 1.65l2.906-1.032a.9.9 0 0 0 .294-.175L16 13.229v4.529q-.03.183-.031.375v5.992a.875.875 0 0 0 1.75 0v-5.406h.984v5.406a.875.875 0 0 0 1.75 0v-5.992q0-.135-.015-.266v-3.138l1.04 2.152a.875.875 0 0 0 1.575-.762l-2.28-4.719a.88.88 0 0 0-.789-.494zM10 16.5a.5.5 0 1 1-1 0a.5.5 0 0 1 1 0m1.5 5.5a.5.5 0 1 0 0-1a.5.5 0 0 0 0 1"/><path fill="#000" d="M11 18.125c0-.069.056-.125.125-.125h.75c.069 0 .125.056.125.125v.75a.125.125 0 0 1-.125.125h-.75a.125.125 0 0 1-.125-.125zm-2.119 1.318a.125.125 0 0 0 0 .177l.53.53a.125.125 0 0 0 .177 0l.53-.53a.125.125 0 0 0 0-.177l-.53-.53a.125.125 0 0 0-.176 0z"/><path fill="#F8312F" d="M16 30c7.732 0 14-6.268 14-14S23.732 2 16 2S2 8.268 2 16s6.268 14 14 14m6.645-5.233A10.95 10.95 0 0 1 16 27C9.925 27 5 22.075 5 16c0-2.497.832-4.8 2.233-6.645zm2.122-2.122L9.355 7.233A10.95 10.95 0 0 1 16 5c6.075 0 11 4.925 11 11c0 2.497-.832 4.8-2.233 6.645"/></g></svg>