<svg xmlns="http://www.w3.org/2000/svg" xmlns:xlink="http://www.w3.org/1999/xlink" width="32" height="32" viewBox="0 0 32 32"><g fill="none"><g clip-path="url(#fluentEmojiFlatOden0)"><path fill="#D3883E" d="M-.124-.121a1.5 1.5 0 0 1 2.121-.003l25 24.94a1.5 1.5 0 1 1-2.118 2.124L-.121 2A1.5 1.5 0 0 1-.124-.121"/><path fill="#635994" d="m3.51 7.35l1.89 7.06c.62 2.33 3.54 3.11 5.24 1.4l5.17-5.17c1.71-1.71.92-4.62-1.4-5.24L7.35 3.51c-2.33-.62-4.46 1.51-3.84 3.84"/><path fill="#E39D89" d="M16.78 23.63a6.85 6.85 0 1 0 0-13.7a6.85 6.85 0 0 0 0 13.7"/><path fill="#FFDEA7" d="m28.4 21.95l-6.45 6.45a3.664 3.664 0 0 1-5.18-5.18l6.45-6.45a3.664 3.664 0 0 1 5.18 5.18"/><path fill="#D3883E" d="M23.538 23.49a1.5 1.5 0 0 1 2.121-.002l3.4 3.39a1.5 1.5 0 0 1-2.118 2.124l-3.4-3.39a1.5 1.5 0 0 1-.003-2.121"/></g><defs><clipPath id="fluentEmojiFlatOden0"><path fill="#fff" d="M0 0h32v32H0z"/></clipPath></defs></g></svg>