<svg xmlns="http://www.w3.org/2000/svg" xmlns:xlink="http://www.w3.org/1999/xlink" width="32" height="32" viewBox="0 0 32 32"><g fill="none"><path fill="#433B6B" d="m15.996 15.996l-4.08.286A11 11 0 0 0 5 26.5V30h22v-3.5c0-4.614-2.849-8.57-6.881-10.201z"/><path fill="#D3D3D3" d="M18.71 16.12h-5.42L13.3 30h5.41z"/><path fill="#8D65C5" d="m18.874 15.88l-.164.16v13.95l2.75-7.86c.12-.36.03-.75-.24-1.01l-1.36-1.33a.262.262 0 0 1 .19-.45h1.05c.21 0 .35-.22.26-.41l-1.23-2.62l-.004-.008a11 11 0 0 0-1.252-.422m-6.961.403l-.003.007l-1.27 2.69c-.09.19.06.41.27.41h1.05c.24 0 .35.29.19.45l-1.36 1.33c-.26.26-.36.65-.23 1l2.73 7.82h.01v-13.9l-.425-.14q-.49.144-.962.333"/><path fill="#321B41" d="m15.99 18.68l-1.68.32l.98 2.11L13.93 30h4.11l-1.35-8.89l.97-2.11z"/><path fill="#E6E6E6" d="M16 15.31h-2.71v4.74c0 .31.36.49.61.29l2.1-1.67l2.1 1.67c.25.2.61.02.61-.29v-4.74z"/><path fill="#E4B29A" d="M16 18.5c-1.107 0-2-.964-2-2.159V13.66c0-1.195.893-2.159 2-2.159s2 .964 2 2.159v2.682c0 1.195-.893 2.159-2 2.159"/><path fill="#FFF9BA" d="M22.25 5.29c-.3-.52-.77-.88-1.29-1.06a2.56 2.56 0 0 1-1.38-1.08a2.38 2.38 0 0 0-2.97-.96c-.39.17-.83.17-1.22 0c-.29-.12-.6-.19-.93-.19c-.85 0-1.6.44-2.02 1.11c-.33.52-.82.92-1.41 1.12c-.55.19-1.03.58-1.32 1.13c-.43.8-.34 1.76.15 2.47c.17.26.27.57.27.88v4.17c0 .93.59 1.75 1.47 2.06l1.89.65V8.17c.15-.14.27-.31.38-.5c.17-.29.27-.61.3-.92a2.32 2.32 0 0 0 1.82-.55c.42.35.95.57 1.54.57c.1 0 .19-.01.28-.02a2.37 2.37 0 0 0 .68 1.42v7.43l1.89-.65c.88-.3 1.47-1.13 1.47-2.06V8.72c0-.31.1-.62.28-.88c.52-.74.59-1.73.12-2.55"/><path fill="#E4B29A" d="M12.77 10.59a1.67 1.67 0 1 1-3.34 0a1.67 1.67 0 0 1 3.34 0m9.79 0a1.67 1.67 0 1 1-3.34 0a1.67 1.67 0 0 1 3.34 0"/><path fill="#EEBFAA" d="M10.75 8.188C10.825 6.418 12.334 5 14.178 5h1.307c.282 0 .523.166.634.41c.402.868 1.298 1.414 2.273 1.414h1.44c.804.04 1.438.693 1.418 1.483l-.012.503l-.31 4.834C20.656 15.566 18.976 17 16.974 17h-1.911c-1.992 0-3.682-1.434-3.944-3.356z"/><path fill="#fff" d="M12.18 10.28c.15-.62.71-1.08 1.38-1.08c.7 0 1.27.49 1.4 1.15a.23.23 0 0 1-.23.28h-2.28c-.18 0-.32-.18-.27-.35m7.65 0c-.15-.62-.71-1.08-1.38-1.08c-.7 0-1.27.49-1.4 1.15c-.03.15.08.28.23.28h2.28c.18 0 .31-.17.27-.35"/><path fill="#7D4533" d="M12.86 10.39c0-.5.41-.91.91-.91a.9.9 0 0 1 .91.91q0 .12-.03.24h-1.76a1 1 0 0 1-.03-.24m6.29 0c0-.5-.41-.91-.91-.91c-.51 0-.91.41-.91.91q0 .12.03.24h1.76q.03-.12.03-.24"/><path fill="#000" d="M13.77 9.87a.516.516 0 0 1 .46.76h-.92a.516.516 0 0 1 .46-.76m4.47 0a.516.516 0 0 0-.46.76h.92q.06-.105.06-.24c0-.29-.23-.52-.52-.52"/><path fill="#fff" d="M13.62 10.02a.16.16 0 1 1-.32 0a.16.16 0 0 1 .32 0m4.5 0a.16.16 0 1 1-.32 0a.16.16 0 0 1 .32 0"/><path fill="#D19479" d="m15.654 10.29l-.496 1.738c-.103.356.14.722.487.722h.73c.345 0 .589-.366.486-.722l-.496-1.738c-.103-.387-.599-.387-.71 0"/><path fill="#990838" d="M16 13.706a3.1 3.1 0 0 1-1.508-.385c-.153-.085-.306.097-.214.246c.367.587.999.982 1.722.982c.724 0 1.356-.395 1.723-.982c.092-.15-.071-.32-.214-.246a3.1 3.1 0 0 1-1.509.385"/><path fill="#A56953" d="M12.345 8.427a.274.274 0 0 0 .33-.01a2.23 2.23 0 0 1 1.5-.354a.267.267 0 0 0 .3-.24a.274.274 0 0 0-.24-.3a2.7 2.7 0 0 0-1.9.465a.274.274 0 0 0 .01.439m7.001-.005a.275.275 0 0 0 .327.005a.273.273 0 0 0 .01-.438a2.73 2.73 0 0 0-1.9-.466a.274.274 0 0 0 .063.544a2.22 2.22 0 0 1 1.5.355"/></g></svg>