<svg xmlns="http://www.w3.org/2000/svg" xmlns:xlink="http://www.w3.org/1999/xlink" width="32" height="32" viewBox="0 0 32 32"><g fill="none"><path fill="#321B41" d="M6 29h2c.55 0 1-.45 1-1v-4H5v4c0 .55.45 1 1 1m18 0h2c.55 0 1-.45 1-1v-4h-4v4c0 .55.45 1 1 1"/><path fill="#212121" d="M10.15 19H7.2c-.66 0-1.19-.53-1.2-1.19v-.62c0-.66.53-1.19 1.19-1.19h.62c1.48 0 2.67 1.2 2.67 2.67c0 .18-.15.33-.33.33m11.726 0h2.931c.656 0 1.183-.53 1.193-1.19v-.62c0-.66-.527-1.19-1.183-1.19h-.616c-1.47 0-2.653 1.2-2.653 2.67c0 .18.149.33.328.33"/><path fill="#9B9B9B" d="M25 26H7c-1.1 0-2-.9-2-2h22a2 2 0 0 1-2 2"/><path fill="#D3D3D3" d="M17.34 25h-.67zh-2.67c-.37 0-.67.3-.67.67v.67c0 .37.3.67.67.67h2.67h-.67h.67c.37 0 .67-.3.67-.67v-.67c0-.37-.3-.67-.67-.67"/><path fill="#26C9FC" d="M9.324 11.893a4 4 0 0 0-.294.637L7 18l8.97.844L24.94 18l-2.03-5.47a5 5 0 0 0-.294-.637z"/><path fill="#F8312F" d="M12.5 10c-1.423 0-2.592.78-3.235 2h13.41c-.637-1.22-1.752-2-3.175-2zm-5.46 8h17.92c1.25.61 2.04 1.88 2.04 3.27V24H5v-2.73c0-1.39.79-2.66 2.04-3.27"/><path fill="#D3D3D3" d="M26.772 20H25a1 1 0 0 0-1 1v1a1 1 0 0 0 1 1h2v-1.73c0-.441-.08-.87-.228-1.27M5 23h2a1 1 0 0 0 1-1v-1a1 1 0 0 0-1-1H5.228c-.148.4-.228.829-.228 1.27z"/><path fill="#E6E6E6" d="M8 21v1c0 .55-.45 1-1 1H5v-1.73c0-.44.09-.87.24-1.27H7c.55 0 1 .45 1 1m16 0c0-.55.45-1 1-1h1.76c.15.4.24.83.24 1.27V23h-2c-.55 0-1-.45-1-1z"/><path fill="#636363" d="M18 20h-1zh-4c-.55 0-1 .45-1 1v1c0 .55.45 1 1 1h4h-1h1c.55 0 1-.45 1-1v-1c0-.55-.45-1-1-1"/><path fill="#FFB02E" d="M12 21.5a1.5 1.5 0 1 0-3 0a1.5 1.5 0 0 0 3 0m11 0a1.5 1.5 0 1 1-3 0a1.5 1.5 0 0 1 3 0"/></g></svg>