<svg xmlns="http://www.w3.org/2000/svg" xmlns:xlink="http://www.w3.org/1999/xlink" width="32" height="32" viewBox="0 0 32 32"><g fill="none"><path fill="#341A1C" d="M14.614 10.262a2 2 0 0 1 3.412-.828a1.995 1.995 0 0 1 2.455.403a2 2 0 0 1 3.306.936l1.664 6.21a2 2 0 0 1-3.863 1.034L21 15.825v.792a2 2 0 0 1-4 0v-.62a2 2 0 0 1-3.428-1.846z"/><path fill="#573739" d="M2.024 12.61c0 4.147 1.696 6.308 5.315 9.559a6 6 0 0 0 3.905 1.444h3.175c.386 0 .755-.015 1.02.267a2.33 2.33 0 0 0 3.564-.195l.069-.092a2.426 2.426 0 0 0-.23-3.174l-.615-.613a4.1 4.1 0 0 0-2.899-1.197h-.551a2.72 2.72 0 0 1-2.46-1.554l-.021-.047a2.8 2.8 0 0 1-.271-1.202v-.197a3 3 0 0 1 3-3h5.186a2 2 0 0 1 1.396.568l4.256 4.149a2.422 2.422 0 1 0 3.288-3.555l-6.428-5.64a6 6 0 0 0-3.958-1.49h-9.56c-3.311 0-7.18 1.82-7.18 5.968"/></g></svg>