<svg xmlns="http://www.w3.org/2000/svg" xmlns:xlink="http://www.w3.org/1999/xlink" width="32" height="32" viewBox="0 0 32 32"><g fill="none"><path fill="#C68D7B" d="M2.781 14.156c-.208-1.574 0-3.234 1.5-3.312c1.124-.059 1.442.454 1.687.847l.032.051c0-1.512.165-2.71 1.914-2.71c1.328 0 1.716 1.326 1.716 2.4c0 0 .351-.807 1.526-.807c1.6 0 1.749 1.372 1.749 2.715c0 0 .447-.566 1.366-.566c1.275 0 1.667 1.137 1.72 1.689c0-.156.017.079.029 1.537h.023c.012-1.458.03-1.693.03-1.537c.051-.552.444-1.688 1.719-1.688c.918 0 1.366.565 1.366.565c0-1.343.15-2.715 1.748-2.715c1.175 0 1.526.807 1.526.807c0-1.074.388-2.4 1.716-2.4c1.75 0 1.915 1.198 1.915 2.71l.031-.051c.245-.394.563-.906 1.687-.847c1.5.078 1.708 1.738 1.5 3.312c-.218 1.656-.25 2.375-.25 2.719c1.797-.078 2.472.928 1.797 3.578q-.078.306-.16.643c-.845 3.42-2.216 8.967-7.73 8.967c-5.363 0-6.834-4.04-6.904-10.063h-.005c-.07 6.023-1.542 10.063-6.904 10.063c-5.515 0-6.885-5.546-7.73-8.966l-.16-.644c-.676-2.65 0-3.656 1.796-3.578c0-.344-.031-1.062-.25-2.719"/><path fill="#A9715F" d="M23.597 9.76c.096-.306.245-.533.506-.728c-1.19.027-1.606 1.14-1.664 2.146l-.002.306v5.079a.5.5 0 1 0 1 0v-5.079c0-.792.036-1.327.16-1.724M6 11.738c0-.555.023-1.067.138-1.494l.044.049c.249.27.796.867.966 1.763c.05.265.126 1.11.2 2.043c.075.95.15 2.04.198 2.824a.5.5 0 0 1-.998.06c-.047-.778-.122-1.86-.197-2.805c-.077-.964-.149-1.74-.186-1.937A2 2 0 0 0 6 11.738m-3.083 5.134l.114.003c0-.19-.01-.492-.054-1.002c.319.028.63.114.91.236c.424.184.824.473 1.068.84c.38.57.672 1.523.864 2.266a22 22 0 0 1 .308 1.385l.004.022l.001.006v.002a.5.5 0 0 1-.984.177V20.8l-.004-.02a13 13 0 0 0-.073-.368a21 21 0 0 0-.22-.948c-.195-.757-.454-1.55-.728-1.961c-.109-.163-.332-.346-.635-.478a2 2 0 0 0-.57-.154m8.238-6.246c-1.063 0-1.451.66-1.516.786a4 4 0 0 0-.086.43c-.043.322-.054 1.12-.054 1.973c0 .873.012 1.857.022 2.584a.5.5 0 0 0 1-.014c-.01-.727-.022-1.704-.022-2.57c0-.885.013-1.602.045-1.842c.02-.15.082-.438.2-.724c.118-.283.266-.504.427-.623zm1.749 2.702v.013s.447-.566 1.366-.566q.05 0 .098.003q-.036.044-.094.12c-.095.13-.21.31-.32.532a3.9 3.9 0 0 0-.416 1.712v2.21a.5.5 0 0 1-1 0v-2.21c0-.696.161-1.314.366-1.814m5.261 13.125c.813 1.776 2.145 3.174 4.29 3.6c-2.78-.134-4.438-1.436-5.371-3.58a13 13 0 0 1-.742-2.612a22 22 0 0 1-.267-2.508q-.015-.373-.014-.727v-5.727q0-.397.078-.792c.16-.578.613-1.332 1.652-1.332q.205.001.38.035c-.282.072-.556.302-.77.692c-.215.392-.34.896-.34 1.397v5.727c0 1.822.27 4.007 1.104 5.827"/><path fill="#A9715F" d="M20.915 10.625h-.009c-1.599 0-1.748 1.372-1.748 2.715l-.002-.002v4.006a.5.5 0 0 0 1 0v-4.672c0-.588.195-1.143.428-1.563c.115-.208.234-.373.331-.484m5.145.808c-.198.504-.305 1.1-.37 1.785c-.076.794-.121 1.44-.162 2.04l-.007.106c-.038.559-.073 1.078-.128 1.651a.5.5 0 0 0 .995.095c.056-.587.092-1.119.13-1.675l.008-.11c.04-.597.085-1.232.16-2.012c.072-.767.193-1.307.385-1.699a1.65 1.65 0 0 1 .735-.769l-.025-.001c-1.124-.059-1.442.453-1.687.847l-.032.051q0-.157-.002-.31m1.398 6.866c.205-.705.83-1.252 1.573-1.428v.005c1.394-.06 2.113.531 2.05 2.037a.5.5 0 0 1-.056-.076c-.523-.87-1.144-1.069-1.605-1.02c-.505.053-.897.398-1.003.762c-.168.579-.306 1.21-.401 1.702a27 27 0 0 0-.137.768l-.008.045l-.001.01v.003a.5.5 0 0 1-.99-.15l.002-.005l.002-.013l.007-.048a27 27 0 0 1 .143-.801c.098-.505.242-1.17.424-1.791"/></g></svg>