<svg xmlns="http://www.w3.org/2000/svg" xmlns:xlink="http://www.w3.org/1999/xlink" width="32" height="32" viewBox="0 0 32 32"><g fill="none"><path fill="#F3AD61" d="M7.813 29.736c-1.37-.326-2.905-1.322-3.514-1.885c-.914-.987-2.003-2.784-2.25-5.18c-.245-2.396.457-3.523 1.336-5.214s3.318-3.372 5.557-3.493c2.224-.12 2.97-.589 3.797-1.485c.874-.948 1.127-2.02 1.268-3.641c.14-1.621 1.033-3.616 2.828-5.055c1.581-1.268 3.882-2.342 7.326-1.461c3.444.88 4.842 3.578 5.404 5.058s.828 4.305-.788 7.018s-4.288 3.602-5.94 3.673c-1.651.07-2.9.795-3.674 1.711c-.773.916-.913 1.656-1.054 3.277c-.14 1.62-.931 3.646-3.25 5.443s-5.32 1.644-7.046 1.234"/><path fill="#D3883E" d="M21.573 2.312c.204.147.39.299.337.406s-.27.227-.657.347s-1.16.468-1.431.638s-.667.28-.863.12a5 5 0 0 1-.274-.247a2 2 0 0 0-.206-.18c-.093-.063-.133-.152 0-.281c.134-.13.943-.562 1.205-.682s.933-.326 1.213-.339s.471.071.676.218m3.549 3.215c-.3-.238-.647-.319-.879-.08c-.343.33-1.063 1.031-1.203 1.208c-.176.22-.378.537-.115.801c.264.265 1.292 1.295 1.555 1.568c.264.273.606.23.8.044c.193-.185 1.036-1.013 1.212-1.224l.02-.024c.172-.206.381-.456.068-.804a62 62 0 0 0-1.458-1.489m4.188 5.03c.057-.194.272-.08.4.061c.099.09.21.296.153.626s-.175.775-.334 1.176c-.158.4-.57 1.176-.619 1.26c-.048.083-.119.118-.224.043c-.084-.06-.231-.242-.294-.325a.46.46 0 0 1-.035-.542c.034-.056.11-.218.198-.406c.093-.199.199-.427.285-.59c.167-.317.413-1.11.47-1.303m-5.256 1.79c-.276-.245-.57-.386-.924-.116c-.184.141-.323.254-.446.354c-.113.092-.213.174-.324.257c-.116.088-.271.19-.419.287a7 7 0 0 0-.37.254c-.173.135-.36.418-.18.63s1.117 1.139 1.303 1.267c.186.129.571.393 1.065.039l.261-.186c.468-.332 1.028-.73 1.19-.908c.192-.212.34-.457.07-.701s-.93-.888-1.226-1.177m-6.409-5.499c.316-.334.562-.132.834.168c.216.243.588.612.891.913l.251.25c.317.317-.008.783-.228 1.012c-.22.23-.72.996-.993 1.419c-.248.385-.496.17-.698-.004l-.057-.05a10 10 0 0 1-.576-.595c-.21-.228-.426-.46-.566-.593c-.3-.282-.159-.75 0-1.022c.158-.273.825-1.163 1.142-1.498M8.833 18.994c.276.244.57.386.924.116c.184-.141.322-.254.446-.354c.113-.092.213-.174.324-.257c.116-.088.271-.19.419-.287c.146-.096.284-.187.37-.254c.173-.135.359-.418.18-.63c-.18-.212-1.117-1.139-1.303-1.267c-.186-.13-.571-.393-1.065-.039l-.261.186c-.468.332-1.028.73-1.19.908c-.192.212-.34.456-.07.7c.27.245.93.889 1.226 1.178m-6.028 1.99c-.057.194-.272.08-.4-.061c-.099-.09-.21-.295-.153-.626c.057-.33.176-.775.334-1.176s.57-1.175.62-1.26c.047-.083.118-.118.223-.043c.084.06.231.242.294.326a.46.46 0 0 1 .036.541c-.035.056-.11.218-.199.407c-.092.198-.199.426-.285.589c-.167.317-.413 1.11-.47 1.303m4.49 5.158c.298.238.646.319.878.08c.343-.33 1.063-1.032 1.204-1.208c.175-.22.377-.537.114-.801a259 259 0 0 1-1.555-1.568c-.264-.273-.606-.23-.8-.044c-.193.185-1.036 1.013-1.212 1.224l-.02.024c-.172.206-.38.456-.068.804c.26.29 1.08 1.113 1.459 1.489m3.697 3.438c-.205-.147-.392-.299-.338-.406s.27-.227.658-.347c.386-.12 1.16-.468 1.43-.638c.272-.169.667-.28.863-.12c.096.079.191.169.274.247c.086.08.159.15.206.18c.093.063.133.152 0 .282s-.942.561-1.205.681c-.262.12-.933.326-1.213.339s-.471-.071-.675-.218m3.884-5.147c-.316.335-.562.132-.834-.167c-.216-.244-.588-.612-.891-.913l-.252-.25c-.316-.317.01-.784.229-1.013c.22-.23.72-.995.993-1.418c.248-.386.496-.17.698.003l.057.05c.112.093.34.34.576.596c.21.227.425.46.566.593c.299.282.158.748 0 1.021c-.158.274-.825 1.163-1.142 1.498m.817-6.835c.308.29.72.352.958.114c.237-.238 1.168-1.171 1.353-1.348c.184-.176.448-.58.131-.916l-.265-.284c-.37-.4-.898-.968-1.131-1.16c-.3-.247-.668-.344-.923-.097a49 49 0 0 0-1.353 1.365c-.21.238-.483.582-.131.952c.277.292.74.754 1.1 1.114q.146.144.261.26"/></g></svg>