<svg xmlns="http://www.w3.org/2000/svg" xmlns:xlink="http://www.w3.org/1999/xlink" width="32" height="32" viewBox="0 0 32 32"><g fill="none"><path fill="#00D26A" d="M7.12 2.291L3 3.891a4.338 4.338 0 0 0 5.62 2.48l4.12-1.6a4.355 4.355 0 0 0-5.62-2.48Z"/><path fill="#C3EF3C" d="m19.99 8.101l-.1-.25a5.557 5.557 0 0 0-7.19-3.17a5.543 5.543 0 0 0-3.17 7.18l.1.25c.63 1.62.66 3.41.1 5.06c-.75 2.18-.7 4.55.13 6.7c1.91 4.94 7.47 7.39 12.41 5.48c4.94-1.91 7.39-7.47 5.48-12.41a9.774 9.774 0 0 0-4.42-5.04a7.349 7.349 0 0 1-3.34-3.8Z"/></g></svg>