<svg xmlns="http://www.w3.org/2000/svg" xmlns:xlink="http://www.w3.org/1999/xlink" width="32" height="32" viewBox="0 0 32 32"><g fill="none"><path fill="#321B41" d="M18.92 15.84H8.38V30h10.54z"/><path fill="#6B438B" d="M17.58 5.36a4.419 4.419 0 0 1 8.2-1.187a4.42 4.42 0 0 1 .33 3.467l-.74 2.75a4.66 4.66 0 0 1-3.66 3.38a4.13 4.13 0 0 1-3.38-.91a4.66 4.66 0 0 1-1.49-4.75z"/><path fill="#8D65C5" d="M17.292 12A2.5 2.5 0 0 0 15 8.5H7.152c-2.969 0-4.134 3.85-1.665 5.496l1.65 1.1l1.485 2.35l2.371.22L14 19.672V30h14V19a7 7 0 0 0-7-7z"/><path fill="#533566" d="M18 5.36a4.42 4.42 0 1 0-8.51 2.28l.74 2.75a4.67 4.67 0 0 0 3.66 3.38a4.16 4.16 0 0 0 3.39-.91a4.65 4.65 0 0 0 1.48-4.75zm2.4 12.98a2.21 2.21 0 0 1-.79-4.27l5.87-2.26a2.21 2.21 0 0 1 1.59 4.12l-5.87 2.26a2.2 2.2 0 0 1-.8.15M10 22.43h7.67a2.25 2.25 0 0 1 2.26 2.25a2.21 2.21 0 0 1-2.21 2.17h-8a4.34 4.34 0 0 1-3.43-1.68a4.29 4.29 0 0 1-.77-3.74l1.618-6.344l3.857 2.568L9.85 22.24a.15.15 0 0 0 .15.19"/></g></svg>