<svg xmlns="http://www.w3.org/2000/svg" xmlns:xlink="http://www.w3.org/1999/xlink" width="32" height="32" viewBox="0 0 32 32"><g fill="none"><path fill="#636363" d="M9.17 12.26c-.03 0-.07-.01-.1-.03L2.1 8.14c-.1-.05-.13-.17-.07-.27c.05-.09.17-.12.26-.07l6.97 4.09c.09.05.12.17.07.27c-.03.06-.1.1-.16.1"/><path fill="#9B9B9B" d="m25.09 3.57l.175.143a.337.337 0 0 1 .466-.033l.37.31c.29.23.45.58.46.94l.03 2.15c0 2.61-2.12 4.73-4.73 4.73h-1.57V9.72h1.57c1.45 0 2.63-1.18 2.63-2.63l-.01-.54c-.1-.06-.2-.13-.29-.2l-.33-.28a.44.44 0 0 1-.06-.61a.44.44 0 0 1 .61-.06l.22.19c.04.04.11.01.11-.05l-.01-.18l.006-.005l-.636-.525a.337.337 0 0 1-.05-.48a.34.34 0 0 1 .108-.09a.34.34 0 0 1-.008-.44c.1-.125.264-.16.402-.097a.4.4 0 0 1 .058-.103c.12-.15.33-.17.48-.05m-6.467 8.058a1.046 1.046 0 1 0-1.805-1.056l-.788 1.348h-.001a2.64 2.64 0 0 1-3.61.938l-1.4-.82a1.046 1.046 0 0 0-1.057 1.804l1.4.82a4.73 4.73 0 0 0 6.47-1.682l.001-.002zm.398 6.722l3.04-2.27l5.46 11.08l-2.43.56zm0 0L16.2 16.1l-5.49 3.98c-.33.23-.49.63-.4 1.02l1.5 6.73h2.28l-.99-6z"/><path fill="#E6E6E6" d="m11.51 11.42l-.64-.38c-.83-.48-1.9-.21-2.38.62c-.49.83-.21 1.9.62 2.38l.64.38c.17.1.39.04.48-.13l1.4-2.39c.11-.16.05-.38-.12-.48"/><path fill="#D3D3D3" d="m25.09 27.72l-1.84-2.85l2.49-1.33l2.07 4.18zm-13.28.11l-.76-3.39h2.48l.56 3.39zm10.26-11.72v-3.76c0-1.62-1.32-2.94-2.94-2.94s-2.94 1.32-2.94 2.94v3.76l1.89 1.83c.58.57 1.51.56 2.09-.01l1.88-1.84z"/><path fill="#E6E6E6" d="M19.4 11.54c-.99.29-1.99-.45-1.99-1.48V9.01l3.09-.66v1.71c.01.68-.44 1.28-1.1 1.48"/><path fill="#D3D3D3" d="M18.19 3a2.59 2.59 0 0 0-2.59 2.59V7.2a2.59 2.59 0 0 0 5.18 0V5.59A2.59 2.59 0 0 0 18.19 3"/><path fill="#E6E6E6" d="M18.88 6.22v2c0 .64-.32 1.21-.8 1.55c-.76-.03-1.44-.4-1.89-.95a2.85 2.85 0 0 1-.46-1.55V5.5c0-.57.17-1.1.46-1.53c.45-.56 1.13-.93 1.89-.96c.48.34.8.91.8 1.55v1.13h1.9v.53z"/><path fill="#321B41" d="M18.47 8.05V4.73c0-.72-.45-1.34-1.08-1.6a2.59 2.59 0 0 0-1.78 2.46V7.2c0 1.15.75 2.12 1.78 2.46c.63-.27 1.08-.88 1.08-1.61"/><path fill="#433B6B" d="M14.09 29.17v-1.45l-2.43-.55l-2.26 1.57c-.31.21-.16.7.22.7h4.2c.15 0 .27-.12.27-.27m11 0v-1.45l2.43-.55l2.26 1.57c.31.21.16.7-.22.7h-4.2c-.15 0-.27-.12-.27-.27"/></g></svg>