<svg xmlns="http://www.w3.org/2000/svg" xmlns:xlink="http://www.w3.org/1999/xlink" width="32" height="32" viewBox="0 0 32 32"><defs><path id="fluentEmojiFlatPersonZombie0" fill="#000" d="M14.047 19.875h2.844c0-2.1-1.86-2.312-2.844-2.312c-.516 0-1.156.259-1.156 1.171c0 .913.77 1.141 1.156 1.141"/><path id="fluentEmojiFlatPersonZombie1" fill="#FFCE7C" d="M16.44 18.422H14.5a.5.5 0 0 1-.5-.5v-.359h.047c.68 0 1.78.101 2.394.859"/></defs><g fill="none"><path fill="#1C1C1C" d="M16 20.531c-3.44 0-6.39 1.14-8.797 3.285v6.09h17.531v-6.09C22.328 21.672 19.441 20.53 16 20.53"/><rect width="5" height="7.328" x="13.5" y="17" fill="#0074BA" rx="2.5"/><path fill="#321B41" d="M7.133 8.648c.316-1.84 1.539-2.351 2.398-2.539c.734-.16 1.082-.027 1.727-.672c1.525-1.525 2.397-1.45 2.945-1.375c1.484.204 2.305-.109 2.305-.109c.586-1.578 1.859-1.899 3.234-1.899c1.774 0 1.725.897 1.297 1.188c-1.047.711-1.297 1.273-1.297 1.273c.15.138.599.454.86.579c.185.089.59.042 1.453.117c1.095.095 2.39 1.179 2.82 1.852c.36.562-.164.859-.43.937c-.265.078-.46.07-.46.07h-.321c.258.485.204 1.68-.047 2.227c-.219.476-.527 1.258-.54 1.687c-.03 1.094-.037 3.379-.062 4.641s-.82 2.328-1.672 2.672c-2.932.135-9.143.266-10.453 0c-1.382-.281-1.786-1.677-1.859-2.36c-.068-1.682-.103-5.31-.289-5.914c-.169-.55-.36-.358-.505-.213l-.003.002c-.677.61-1.539.383-1.101-2.164"/><path fill="#00D1ED" d="M10 16.172a2 2 0 1 0 0-4a2 2 0 0 0 0 4m12 0a2 2 0 1 0 0-4a2 2 0 0 0 0 4"/><path fill="#37C9CD" d="M10.089 17.662c-.139-1.579-.339-6.094-.339-6.094c0-3.89 2.755-4.64 4.71-4.563c.892.036 1.653.092 1.847.672c.485 1.453 2.278 1.453 4.125 1.453c1.383 0 1.849 1.309 1.817 1.97c-.083 1.687-.271 5.362-.37 6.562s-1.24 3.395-2.986 3.968c-.837.275-4.28.282-5.726 0c-1.586-.308-2.94-2.39-3.078-3.968"/><path fill="#321B41" d="M13.375 15.594a1.875 1.875 0 1 0 0-3.75a1.875 1.875 0 0 0 0 3.75m5.5.156a1.875 1.875 0 1 0 0-3.75a1.875 1.875 0 0 0 0 3.75"/><path fill="#FFCE7C" d="M13.61 15.188a1.625 1.625 0 1 0 0-3.25a1.625 1.625 0 0 0 0 3.25m5.015 0a1.625 1.625 0 1 0 0-3.25a1.625 1.625 0 0 0 0 3.25"/><path fill="#990838" d="M13.531 14.117a.625.625 0 1 0 0-1.25a.625.625 0 0 0 0 1.25m4.926 0a.625.625 0 1 0 0-1.25a.625.625 0 0 0 0 1.25"/><use href="#fluentEmojiFlatPersonZombie0"/><path fill="#37C9CD" d="M17 13.327c0-.827.938-1.483 1.84-1.483s1.658.635 1.84 1.483z"/><use href="#fluentEmojiFlatPersonZombie1"/><path fill="#321B41" d="M20.482 11.028c-.062.083-.161.12-.272.12c-.075 0-.137-.012-.198-.072l-.021-.012a2.9 2.9 0 0 0-1.8-.395c-.185.024-.359-.107-.371-.287c-.025-.18.111-.335.297-.359c1.3-.15 2.198.467 2.296.533l.007.006c.149.12.173.322.062.466m-8.975 0c.062.083.16.12.272.12c.075 0 .136-.012.198-.072l.021-.012c.128-.078.83-.504 1.8-.395c.185.024.359-.107.371-.287c.025-.18-.112-.335-.297-.359c-1.3-.15-2.198.467-2.296.533l-.007.006a.33.33 0 0 0-.062.466"/><path fill="#00A6ED" d="m22 15.8l-.022.375a.25.25 0 0 1-.13.07a1.58 1.58 0 0 0-1.044.691c-.31.453-.553 1.205-.553 2.455a.25.25 0 0 1-.5 0c0-1.307.253-2.172.64-2.737a2.08 2.08 0 0 1 1.362-.9c.096-.018.191-.026.247.046m-12.009.472l-.03-.511c.383.052.854.199 1.266.589c.557.528.96 1.455.96 3.04a.25.25 0 0 1-.5 0c0-1.507-.382-2.278-.804-2.677a1.7 1.7 0 0 0-.892-.442m.697 6.901v2.703c0 .39.03 1.14.93 1.016c.827-.203 2.539-.392 2.632.843c.061.814-.71.97-1.656.907c-.577-.038-.992.226-1.422.625c-.446.413-1.409.64-1.758.64H6c-.672 0-1.219-.406-1.734-1.14l-.141-.227c-.217-.35-.494-.797-.617-.937a19 19 0 0 0-.727-.711l.446-2.094l1.039.781l.297-.172l.421-2.828l1.266 1.797l.281-.187l1.11-2.5l.625 1.421c.07.141.26.275.398.063c.07-.109.07-.75.07-1.125zm10.605 0v2.703c0 .39-.03 1.14-.93 1.016c-.828-.203-2.54-.392-2.633.843c-.061.814.71.97 1.656.907c.577-.038.992.226 1.422.625c.446.413 1.409.64 1.758.64h3.414c.672 0 1.219-.406 1.734-1.14l.141-.227c.217-.35.494-.797.617-.937c.088-.1.524-.524.727-.711l-.446-2.094l-1.039.781l-.296-.172l-.422-2.828l-1.266 1.797l-.281-.187l-1.11-2.5l-.625 1.421c-.07.141-.26.275-.398.063c-.07-.109-.07-.75-.07-1.125z"/><path fill="#37C9CD" d="M22.263 20.894c.544 0 .986.441.986.986v1.684a.986.986 0 0 1-1.972 0V21.88c0-.545.441-.986.986-.986m3.262.296c.52.163.81.717.646 1.237l-.509 1.622a.987.987 0 1 1-1.883-.592l.509-1.621a.987.987 0 0 1 1.237-.646m2.713 1.166c.48.279.644.895.364 1.375l-.834 1.437a1.006 1.006 0 0 1-1.74-1.011l.834-1.437c.28-.48.895-.643 1.376-.364m1.823 3.738a.942.942 0 1 0-1.563-1.052l-.468.695a.942.942 0 0 0 1.563 1.052zM5.809 22.427a.987.987 0 1 1 1.883-.591l.51 1.621a.987.987 0 1 1-1.884.592zm-2.067-.071c-.48.279-.644.895-.364 1.375l.834 1.437a1.006 1.006 0 0 0 1.74-1.011l-.834-1.437a1.006 1.006 0 0 0-1.376-.364m-1.823 3.738a.942.942 0 1 1 1.563-1.052l.468.695a.942.942 0 1 1-1.563 1.052zm7.798-5.2a.986.986 0 0 0-.986.986v1.684a.986.986 0 0 0 1.972 0V21.88a.986.986 0 0 0-.986-.986"/><path fill="#00A6ED" d="m15.5 13.612l-.667 2.248a.713.713 0 0 0 .668.93h1.009a.713.713 0 0 0 .668-.93l-.681-2.248a.519.519 0 0 0-.996 0"/><use href="#fluentEmojiFlatPersonZombie0"/><use href="#fluentEmojiFlatPersonZombie1"/><path fill="#00A6ED" d="m15.477 13.618l-.692 2.216c-.15.451.203.916.692.916h1.046c.489 0 .842-.465.692-.916l-.706-2.216c-.163-.49-.869-.49-1.032 0"/></g></svg>