<svg xmlns="http://www.w3.org/2000/svg" xmlns:xlink="http://www.w3.org/1999/xlink" width="32" height="32" viewBox="0 0 32 32"><g fill="none"><path fill="#212121" d="M24.087 6.231a3.1 3.1 0 0 0-1.677-1.37c-.739-.249-1.378-.726-1.787-1.391a3.07 3.07 0 0 0-3.834-1.222a1.98 1.98 0 0 1-1.577 0a3.07 3.07 0 0 0-3.814 1.182a3.5 3.5 0 0 1-1.827 1.44a3.08 3.08 0 0 0-1.717 1.46a3.08 3.08 0 0 0 .19 3.179c.23.337.36.734.36 1.132v5.363c0 1.192.758 2.255 1.896 2.652l2.446.844V9.936a2.95 2.95 0 0 0 .889-1.827c.12.009.24.019.359.019c.759 0 1.458-.278 1.997-.735a3.08 3.08 0 0 0 1.996.735c.12 0 .24-.01.36-.02c.05.407.17.815.39 1.192c.139.238.309.457.498.636V19.5l2.446-.844a2.79 2.79 0 0 0 1.897-2.652v-5.363c0-.408.12-.805.36-1.132a3.02 3.02 0 0 0 .15-3.278"/><path fill="#FFD7C2" d="m9.133 11l-.016-.635a4.75 4.75 0 0 1 4.75-4.865h1.625a.75.75 0 0 1 .697.471l.057.143A3 3 0 0 0 19.03 8h2.278a1.5 1.5 0 0 1 1.5 1.452L22.857 11h.004l-.005.083a2.25 2.25 0 0 1-.282 4.394l-.102 1.588c-.348 2.541-2.575 4.435-5.2 4.435h-2.534c-2.626 0-4.853-1.894-5.2-4.435l-.107-1.587a2.25 2.25 0 0 1-.294-4.394z"/><path fill="#E5AF93" d="m15.49 12.368l-.69 2.22c-.14.45.2.91.67.91h1.01a.7.7 0 0 0 .67-.91l-.69-2.22c-.13-.49-.82-.49-.97 0"/><path fill="#fff" d="M14.938 12.505c.068.268-.162.495-.438.495h-3c-.276 0-.506-.227-.438-.495a2 2 0 0 1 3.876 0m6 0c.068.268-.162.495-.438.495h-3c-.276 0-.506-.227-.438-.495a2 2 0 0 1 3.876 0"/><path fill="#7D4533" d="M14.5 12.75q0 .13-.025.25h-2.45a1.25 1.25 0 1 1 2.475-.25m5.5 0q0 .13-.025.25h-2.45A1.25 1.25 0 1 1 20 12.75"/><path fill="#000" d="M14 12.75a.8.8 0 0 1-.043.25h-1.414A.75.75 0 1 1 14 12.75m5.5 0a.8.8 0 0 1-.043.25h-1.414a.75.75 0 1 1 1.457-.25"/><path fill="#990838" d="M16 19a1.5 1.5 0 1 0 0-3a1.5 1.5 0 0 0 0 3"/><path fill="#212121" d="M11.28 9.91c.04.16.18.27.34.27c.03 0 .06 0 .1-.01c0 0 1.06-.27 2.12-.51c.19-.04.3-.23.26-.42a.34.34 0 0 0-.42-.26c-1.07.24-2.14.51-2.14.51c-.19.05-.31.24-.26.42m8.76.26c.03.01.06.01.09.01c.16 0 .3-.1.35-.26a.363.363 0 0 0-.26-.43s-1.07-.27-2.14-.51a.34.34 0 0 0-.42.26c-.05.19.07.38.26.42c1.06.24 2.12.51 2.12.51"/><path fill="#fff" d="M13 12.25a.25.25 0 1 1-.5 0a.25.25 0 0 1 .5 0m5.5 0a.25.25 0 1 1-.5 0a.25.25 0 0 1 .5 0"/><path fill="#F24827" d="M25.5 30h-19c-.83 0-1.5-.67-1.5-1.5v-4.33C5 21.87 6.87 20 9.17 20h13.66c2.3 0 4.17 1.87 4.17 4.17v4.33c0 .83-.67 1.5-1.5 1.5"/><path fill="#FF8101" d="m6.81 20.57l2.28 1.06l2.11-4.52l-2.23-1.05z"/><path fill="#FF6723" d="m11.56 16.098l15.407 7.178a3.53 3.53 0 0 1 1.7 4.687a3.52 3.52 0 0 1-4.679 1.704L8.581 22.48a1.003 1.003 0 0 1-.483-1.341l2.123-4.567a1.004 1.004 0 0 1 1.339-.474"/><path fill="#FF6723" d="m25.19 20.57l-2.28 1.06l-2.11-4.52l2.26-1.07z"/><path fill="#FF8101" d="M20.44 16.099L5.033 23.27a3.53 3.53 0 0 0-1.7 4.69a3.516 3.516 0 0 0 4.679 1.706l15.407-7.183c.503-.232.724-.837.483-1.342l-2.123-4.57a1.003 1.003 0 0 0-1.339-.473"/><path fill="#F4C6AD" d="m25.83 20.23l3.07-1.79c.26-.15.42-.43.42-.74c0-.56-.53-.97-1.07-.83l-2.2.57zm-19.66 0l-3.07-1.8a.83.83 0 0 1-.43-.73c0-.56.53-.97 1.07-.83l2.2.57z"/><path fill="#FFD7C2" d="m9 16.07l-2.12 4.54l-.72-.38a2.79 2.79 0 0 1-1.44-1.9l-.29-1.39c-.08-.42-.29-.8-.59-1.1l-1.51-1.3a.933.933 0 0 1 1.05-1.53zm14 0l2.12 4.54l.72-.38c.74-.39 1.27-1.08 1.44-1.9l.29-1.39c.08-.42.29-.8.59-1.1l1.51-1.3a.933.933 0 0 0-1.05-1.53z"/></g></svg>