<svg xmlns="http://www.w3.org/2000/svg" xmlns:xlink="http://www.w3.org/1999/xlink" width="32" height="32" viewBox="0 0 32 32"><g fill="none"><path fill="#CA0B4A" d="M27.5 30c-.067-3.765-.755-7.122-3.441-9.364C21.906 18.84 19.113 17.76 16 17.76a12.47 12.47 0 0 0-8 2.885C5.302 22.887 4.567 26.24 4.5 30z"/><path fill="#990838" d="M8.02 30H3.5v-.02c.015-1.143.19-2.277.52-3.37c.23-.758.38-1.082.454-1.244a.5.5 0 0 0 .056-.157a13 13 0 0 1 .993-1.837l.007-.003a12.6 12.6 0 0 1 2.49-2.779zm15.99 0h4.52v-.02a13.8 13.8 0 0 0-.52-3.37c-.23-.758-.38-1.082-.454-1.244a.5.5 0 0 1-.056-.157a12.4 12.4 0 0 0-.993-1.837l-.007-.003a12.2 12.2 0 0 0-2.49-2.779z"/><path fill="#FCD53F" d="M12 16.76v2.66c0 1.29 1.074 2.34 2.394 2.34h.849c.143 0 .257.11.257.25V30h1v-7.99c0-.14.134-.25.277-.25h.83c1.319 0 2.393-1.05 2.393-2.34v-2.66z"/><path fill="#321B41" d="M14.38 20.76h3.23c.762 0 1.38-.6 1.39-1.34v-1.66h-6v1.66c0 .74.617 1.34 1.38 1.34m.882 2.24a.5.5 0 0 0-.512.5c0 .28.225.5.512.5h1.476c.287 0 .512-.22.512-.5s-.225-.5-.512-.5zm-.512 3.55c0-.28.225-.5.512-.5h1.476c.287 0 .512.22.512.5s-.225.5-.512.5h-1.476a.5.5 0 0 1-.512-.5m.512 2.45a.5.5 0 0 0-.512.5c0 .28.225.5.512.5h1.476c.287 0 .512-.22.512-.5s-.225-.5-.512-.5z"/><path fill="#FDBB11" d="M12.5 11.75a1.75 1.75 0 1 1-3.5 0a1.75 1.75 0 0 1 3.5 0m10.5 0a1.75 1.75 0 1 1-3.5 0a1.75 1.75 0 0 1 3.5 0"/><path fill="#FFC83D" d="M15.498 3.5c-3.183 0-5.7 2.666-5.485 5.806l.45 6.301c.195 1.98 1.77 3.393 3.694 3.393h3.684c1.924 0 3.5-1.414 3.695-3.393l.45-6.3c.225-3.141-2.292-5.807-5.485-5.807z"/><path fill="#D37034" d="M19.413 9.824c.11.08.24.12.37.12a.615.615 0 0 0 .38-1.1c-.044-.033-.973-.73-2.31-.57a.61.61 0 0 0-.54.68c.04.34.34.58.68.54a2.14 2.14 0 0 1 1.42.33m-7.79-.12c.12.16.3.24.49.24c.12 0 .25-.04.37-.11c.02-.02.58-.43 1.42-.33c.33.04.64-.2.68-.54c.04-.33-.2-.64-.54-.68c-1.337-.16-2.266.537-2.31.57c-.26.2-.31.58-.11.85"/><path fill="#fff" d="M12.01 11.43c.17-.68.79-1.18 1.52-1.18c.76 0 1.4.54 1.54 1.26c.03.15-.1.3-.26.3h-2.5c-.2 0-.35-.19-.3-.38m8.4 0c-.17-.68-.79-1.18-1.52-1.18c-.76 0-1.39.54-1.54 1.26c-.03.15.1.3.26.3h2.5c.2 0 .35-.19.3-.38"/><path fill="#7D4533" d="M12.76 11.55c0-.55.45-1 1-1c.56 0 1 .44 1 1q0 .135-.03.27H12.8a.8.8 0 0 1-.04-.27m6.9 0c0-.55-.45-1-1-1s-1 .44-1.01 1c0 .1.02.19.04.27h1.93c.03-.09.04-.18.04-.27"/><path fill="#000" d="M13.77 10.98c.31 0 .57.25.57.57c0 .09-.03.18-.06.27h-1.01a.57.57 0 0 1 .5-.84m4.89 0a.57.57 0 0 0-.57.57q0 .135.06.27h1.01a.57.57 0 0 0-.5-.84"/><path fill="#fff" d="M13.6 11.15a.18.18 0 1 1-.36 0a.18.18 0 0 1 .36 0m4.93 0a.18.18 0 1 1-.36 0a.18.18 0 0 1 .36 0"/><path fill="#ED9200" d="m15.591 11.287l-.564 1.745c-.117.354.165.718.555.718h.837c.389 0 .671-.364.554-.718l-.564-1.745c-.127-.383-.691-.383-.818 0"/><path fill="#990839" d="M16 15.406a3.5 3.5 0 0 1-1.612-.384c-.157-.086-.333.096-.235.24c.39.595 1.075.988 1.846.988s1.456-.393 1.847-.988c.098-.144-.069-.326-.235-.24a3.5 3.5 0 0 1-1.612.384"/><path fill="#F1A11E" d="M9.04 7.02C9.01 6.84 9 6.67 9 6.5h2.147v.93c0 .38-.16.74-.441.99l-.2.19c-.242.21-.372.53-.352.87c.04.63.11 1.61.11 1.61a.75.75 0 0 1-.712-.61zm11.8.41V6.5h2.157c.01.17-.01.35-.04.52l-.521 3.45a.746.746 0 0 1-.693.61s.07-.97.11-1.6c.02-.33-.11-.64-.35-.86l-.221-.2a1.32 1.32 0 0 1-.442-.99"/><path fill="#CA0B4A" d="M23 7.2H9l.2-.52a7.27 7.27 0 0 1 5.916-4.627l.935.197l.833-.197A7.25 7.25 0 0 1 22.8 6.68z"/><path fill="#008463" d="M18.25 6.93v-.52c0-1.57-.485-3.09-1.358-4.35a6.6 6.6 0 0 0-1.784 0a7.65 7.65 0 0 0-1.358 4.35v.52z"/><path fill="#321B41" d="M22.574 8H9.426a.667.667 0 0 1-.669-.76l.24-1.668A.674.674 0 0 1 9.665 5h12.67c.33 0 .618.247.668.572l.24 1.668c.06.405-.26.76-.669.76"/><path fill="#F9C23C" d="M16 7.5a1 1 0 1 0 0-2a1 1 0 0 0 0 2"/></g></svg>