<svg xmlns="http://www.w3.org/2000/svg" xmlns:xlink="http://www.w3.org/1999/xlink" width="32" height="32" viewBox="0 0 32 32"><g fill="none"><path fill="#FF6723" d="M5 28.1c-.01 1.05.84 1.9 1.89 1.9h5.61l2.5-1l2 1h9.56l-.164-3.887l2.484-.773l-4.94-6.05l-.003.009a10.76 10.76 0 0 0-8.237-3.79c-5.9 0-10.69 4.69-10.69 10.46z"/><path fill="#F4C6AD" d="M15.42 18.53c1.06 0 1.91-.86 1.91-1.91v-2.26a1.91 1.91 0 1 0-3.82 0v2.26c-.01 1.06.85 1.91 1.91 1.91"/><path fill="#212121" d="M19.71 4.45c-.38-.46-.9-.73-1.45-.82c-.59-.09-1.15-.37-1.54-.82c-.53-.6-1.35-.92-2.19-.77c-.32.06-.62.18-.88.35c-.35.23-.78.31-1.2.21c-.3-.07-.62-.08-.95-.03c-.84.15-1.49.71-1.79 1.44c-.23.57-.65 1.04-1.19 1.34c-.5.28-.91.75-1.1 1.34c-.28.86-.03 1.78.57 2.4c.22.22.37.51.42.82L9.13 14c.16.91.88 1.62 1.79 1.77l1.97.31l-1.28-7.29c.12-.17.22-.35.29-.56c.12-.32.16-.64.14-.96l.28-.03c.58-.1 1.07-.4 1.41-.82c.47.28 1.03.39 1.61.29c.09-.02.18-.04.27-.07c.09.3.24.6.46.85c.14.16.29.3.46.42l1.28 7.29l1.74-.97c.81-.45 1.24-1.36 1.08-2.27l-.72-4.08c-.05-.31-.01-.63.12-.91c.39-.81.29-1.79-.32-2.52"/><path fill="#F4C6AD" d="M20.95 9.88a1.66 1.66 0 1 1-3.32 0a1.66 1.66 0 0 1 3.32 0m-9.38 1.7a1.66 1.66 0 1 1-3.32 0a1.66 1.66 0 0 1 3.32 0"/><path fill="#FFD7C2" d="M16.18 6.38a2.47 2.47 0 0 1-2.47-1.04a.67.67 0 0 0-.587-.32l-1.373.24a3.393 3.393 0 0 0-2.772 3.853l1.292 5.293c.6 1.89 2.5 3.04 4.45 2.69l1.88-.34a3.95 3.95 0 0 0 3.26-4.05l-.53-4.687l-.1-.649a1.466 1.466 0 0 0-1.619-1.243z"/><path fill="#E5AF93" d="m14.225 10.52l-.22 1.77c-.05.36.27.67.63.6l.77-.14a.54.54 0 0 0 .39-.78l-.81-1.59c-.19-.34-.71-.25-.76.14"/><path fill="#990838" d="M15.159 13.894a3.1 3.1 0 0 1-1.454-.09c-.154-.05-.27.14-.164.26c.433.48 1.079.73 1.753.61s1.194-.59 1.444-1.2c.058-.15-.115-.29-.24-.19c-.376.3-.829.51-1.339.61"/><path fill="#212121" d="M16.187 10.17a.3.3 0 0 0-.22-.06c-.22.04-.3.32-.11.47c.35.29.82.42 1.3.34c.47-.09.87-.38 1.1-.77c.11-.2-.06-.44-.28-.4c-.08.01-.15.06-.19.13a1.074 1.074 0 0 1-1.6.29m-4.5.81a.3.3 0 0 0-.22-.06c-.22.04-.3.33-.11.47c.35.29.82.42 1.3.34c.47-.09.87-.38 1.1-.77c.11-.2-.06-.44-.28-.4c-.08.01-.15.06-.19.13a1.074 1.074 0 0 1-1.6.29M17.4 8.07q.09.045.18.03c.08-.01.16-.06.2-.16c.07-.13.02-.3-.12-.37l-.001-.001a2.76 2.76 0 0 0-1.949-.13c-.15.05-.23.2-.19.35c.05.15.2.23.35.19a2.27 2.27 0 0 1 1.516.085zm-6.93 1.18c.07.06.16.08.24.06c.06-.01.11-.04.15-.08l.017-.015c.097-.089.59-.54 1.393-.585c.15-.01.27-.14.26-.29c0-.15-.14-.27-.29-.26a2.75 2.75 0 0 0-1.786.776l-.004.004c-.1.11-.09.29.02.39"/><path fill="#F9C23C" d="m16.95 19.34l.21.06c.26.07.41.33.34.59s-.33.41-.59.34l-.21-.06c-.08-.02-.17 0-.23.07l-.26.29c-.11.13-.29.18-.45.14l-.334-.087l.62-2.31l.334.087c.16.04.29.18.32.34l.08.38c.02.07.08.14.17.16"/><path fill="#26EAFC" d="M15.08 16.98c.01.01 0 .01 0 0h.02c.468.131.76.594.682 1.07l.226.282l-.637 2.336l-.328.13a.95.95 0 0 1-1.123.572h-.02l-2.88-.77a1.08 1.08 0 0 1-.76-1.32l.62-2.31c.15-.57.74-.91 1.32-.76h.01z"/><path fill="#00D1ED" d="M11.11 20.27a.744.744 0 0 1-.52-.9l.62-2.31c.11-.39.51-.62.9-.52q.016.001.035.005t.035.005l2.77.74q.015.007.03.01l.03.01c.32.09.51.43.42.75l-.68 2.54c-.08.32-.42.52-.74.44H14zm4.18.61l-.25-.07q.023-.057.04-.12l.68-2.54a1 1 0 0 0 .023-.109l.247.07c.12.03.19.15.16.27l-.63 2.34a.22.22 0 0 1-.27.16"/><path fill="#fff" d="m13.05 20.79l-1.94-.52a.744.744 0 0 1-.52-.9l.62-2.31c.1-.39.51-.62.9-.52c.02.01.05.01.07.01l1.18.32c.06.02.11.07.11.14l-.05 3.51c-.02.19-.19.32-.37.27"/><path fill="#00F397" d="M23.18 27.16a4.3 4.3 0 1 0 0-8.6a4.3 4.3 0 0 0 0 8.6"/><path fill="#00D26A" d="M22.02 18.72a4.3 4.3 0 0 0-.71 5.22a4.32 4.32 0 0 0 4.88 2a4.3 4.3 0 0 1-4.7.877c.08 1.217-.326 2.337-1.48 2.993L14 29v1h-2.02l-.21-.34c-1.17-2.03-.48-4.64 1.56-5.81l2.43-1.4a4.25 4.25 0 0 1 3.208-.429a4.3 4.3 0 0 1 2.012-2.851c.33-.2.68-.35 1.04-.45"/><path fill="#FF8101" d="M4.83 21.2L2 30h6.37l2.18-7.02a2.995 2.995 0 0 0-5.72-1.78m22.23 3.45l-6.414 1.13c-.953.17-1.146.99-1.146 1.96V30h7.56c1.486 0 2.69-1.19 2.69-2.67s-1.074-2.94-2.69-2.68"/><path fill="#F4C6AD" d="m7.91 17.67l-.98 1.9c-.27.52-.396 1.288-.086 1.788c.3.5.86.905 1.44.985c.38.06 1.133.023 1.783-.947l.383.254c.15.17.36.25.57.25c.18 0 .37-.07.53-.21c.2-.18.28-.44.24-.69c.29.11.64.02.85-.24c.26-.34.21-.82-.12-1.09l-.99-.8c-.01 0-.01 0-.02-.01l1.57.22c.42.06.81-.24.87-.66c.05-.3-.1-.59-.34-.75c.42.06.81-.24.87-.66a.775.775 0 0 0-.66-.87l-1.66-.23c-.06-.01-.67-.09-.67-.09c-1.72-.24-2.85.44-3.58 1.85m8.203 10.187h-2.55a1.072 1.072 0 0 0 0 2.143h5.31c.139.01.28-.015.414-.062c.145-.051.178-.535.178-.535v-.982l-.095-.564l-1.936-1.947a1.05 1.05 0 0 0-1.5 0a1.065 1.065 0 0 0 0 1.508l.259.26c.06.06.02.179-.08.179"/><path fill="#F24827" d="m10.01 21.18l.44.47C9.5 23 8 23 7 22.25S6 20 6.5 19.5c0 0 .25-.333.75-.5l-.34.608a1.64 1.64 0 0 0 .08 1.591c.3.5.83.83 1.41.91c.38.06.96.04 1.61-.93m9.24 5.321a.25.25 0 0 0-.25.25V30h.75v-3.375a.125.125 0 0 0-.125-.125z"/></g></svg>