<svg xmlns="http://www.w3.org/2000/svg" xmlns:xlink="http://www.w3.org/1999/xlink" width="32" height="32" viewBox="0 0 32 32"><g fill="none"><path fill="#533566" d="M16.005 15.5a10.97 10.97 0 0 0-7.576 3.022C6.317 20.525 6 23.358 6 26.5V30h20v-3.5c0-3.264-.418-6.193-2.672-8.207a10.95 10.95 0 0 0-7.323-2.793"/><path fill="#321B41" d="M15.98 29.99h.04c4.714-2.19 5.389-7.5 5.48-9.05a.41.41 0 0 0-.403-.43h-.534c-.121 0-.222-.1-.212-.22c.007-.357.005-1.006.003-1.728l-.003-1.212c0-.62-.423-1.16-1.017-1.35a11 11 0 0 0-3.324-.51h-.02c-1.158 0-2.277.18-3.324.51c-.594.19-1.017.73-1.017 1.35l-.003 1.213c-.002.723-.004 1.37.003 1.727c.01.12-.091.22-.212.22h-.534a.41.41 0 0 0-.403.43c.091 1.55.766 6.86 5.48 9.05M9 18c-2.43 2.03-4 5.09-3.99 8.5l.02 3.5H9zm14 0v12h4l-.01-3.51c0-3.41-1.54-6.47-3.99-8.49"/><path fill="#D3D3D3" d="M13.25 16.53v5.22c0 2.98.97 5.87 2.75 8.25c1.79-2.38 2.75-5.33 2.75-8.31v-5.22z"/><path fill="#F4F4F4" d="M18.74 14.5h-5.49v2.563c0 1.291.546 2.514 1.519 3.381c.09.089.238.07.318-.04L16 18.68l.913 1.725c.07.108.219.118.318.04a4.53 4.53 0 0 0 1.519-3.382V14.5z"/><path fill="#F1A11E" d="M22.25 5.29c-.3-.52-.77-.88-1.29-1.06a2.56 2.56 0 0 1-1.38-1.08a2.38 2.38 0 0 0-2.97-.96c-.39.17-.83.17-1.22 0c-.29-.12-.6-.19-.93-.19c-.85 0-1.6.44-2.02 1.11c-.33.52-.82.92-1.41 1.12c-.55.19-1.03.58-1.32 1.13c-.43.8-.34 1.76.15 2.47c.17.26.27.57.27.88v4.17c0 .93.59 1.75 1.47 2.06l1.89.65V8.17c.15-.14.27-.31.38-.5c.17-.29.27-.61.3-.92a2.32 2.32 0 0 0 1.82-.55c.42.35.95.57 1.54.57c.1 0 .19-.01.28-.02a2.37 2.37 0 0 0 .68 1.42v7.43l1.89-.65c.88-.3 1.47-1.13 1.47-2.06V8.72c0-.31.1-.62.28-.88c.52-.74.59-1.73.12-2.55"/><path fill="#FDBB11" d="M12.77 10.59a1.67 1.67 0 1 1-3.34 0a1.67 1.67 0 0 1 3.34 0m9.79 0a1.67 1.67 0 1 1-3.34 0a1.67 1.67 0 0 1 3.34 0"/><path fill="#FCB100" d="M16 19c-1.107 0-2-.828-2-1.853v-2.303c0-1.016.893-1.844 2-1.844s2 .828 2 1.853v2.303C17.99 18.172 17.097 19 16 19"/><path fill="#321B41" d="M15.99 18.04a.75.75 0 0 0-.603.304l-1.157-.804a.342.342 0 0 0-.53.28v1.93c0 .27.31.44.53.28l1.156-.796a.75.75 0 0 0 1.222-.018l1.182.814c.22.16.53-.01.53-.28v-1.93c0-.27-.31-.43-.53-.28l-1.184.822a.75.75 0 0 0-.616-.322m.02 5.24a.5.5 0 1 0 0-1a.5.5 0 0 0 0 1m0 3.15a.5.5 0 1 0 0-1a.5.5 0 0 0 0 1"/><path fill="#FFC83D" d="M10.75 8.188C10.825 6.418 12.334 5 14.178 5h1.307c.282 0 .523.166.634.41c.402.868 1.298 1.414 2.273 1.414h1.44c.804.04 1.438.693 1.418 1.483l-.012.503l-.31 4.834C20.656 15.566 18.976 17 16.974 17h-1.911c-1.992 0-3.682-1.434-3.944-3.356z"/><path fill="#990839" d="M16 13.706c-.55 0-1.07-.14-1.508-.385c-.153-.085-.306.096-.214.246c.367.587.999.982 1.722.982c.724 0 1.356-.395 1.723-.982c.092-.15-.071-.32-.214-.246a3.1 3.1 0 0 1-1.509.385"/><path fill="#fff" d="M12.18 10.28c.15-.62.71-1.08 1.38-1.08c.7 0 1.27.49 1.4 1.15a.23.23 0 0 1-.23.28h-2.28c-.18 0-.32-.18-.27-.35m7.65 0c-.15-.62-.71-1.08-1.38-1.08c-.7 0-1.27.49-1.4 1.15c-.03.15.08.28.23.28h2.28c.18 0 .31-.17.27-.35"/><path fill="#7D4533" d="M12.86 10.39c0-.5.41-.91.91-.91a.9.9 0 0 1 .91.91q0 .12-.03.24h-1.76a1 1 0 0 1-.03-.24m6.29 0c0-.5-.41-.91-.91-.91c-.51 0-.91.41-.91.91q0 .12.03.24h1.76q.03-.12.03-.24"/><path fill="#000" d="M13.77 9.87a.516.516 0 0 1 .46.76h-.92a.516.516 0 0 1 .46-.76m4.47 0a.516.516 0 0 0-.46.76h.92q.06-.105.06-.24c0-.29-.23-.52-.52-.52"/><path fill="#fff" d="M13.62 10.02a.16.16 0 1 1-.32 0a.16.16 0 0 1 .32 0m4.5 0a.16.16 0 1 1-.32 0a.16.16 0 0 1 .32 0"/><path fill="#ED9200" d="m15.654 10.29l-.496 1.738c-.103.356.14.722.487.722h.73c.345 0 .589-.366.486-.722l-.496-1.738c-.103-.387-.599-.387-.71 0"/><path fill="#D37034" d="M12.345 8.427a.274.274 0 0 0 .33-.01a2.23 2.23 0 0 1 1.5-.354a.267.267 0 0 0 .3-.24a.274.274 0 0 0-.24-.3a2.7 2.7 0 0 0-1.9.465a.274.274 0 0 0 .01.439m7.001-.005a.275.275 0 0 0 .327.005a.273.273 0 0 0 .01-.438a2.73 2.73 0 0 0-1.9-.466a.274.274 0 0 0 .063.544a2.22 2.22 0 0 1 1.5.355"/></g></svg>