<svg xmlns="http://www.w3.org/2000/svg" xmlns:xlink="http://www.w3.org/1999/xlink" width="32" height="32" viewBox="0 0 32 32"><g fill="none"><path fill="#EA9129" d="M25.701 4.487a.735.735 0 0 1 .807.17c.36-.225.85.004.988.378c.402-.04.791.266.758.692c.444.1.415.72-.055.726a.6.6 0 0 1 .133.207c.383 0 .774.264.766.684c.554.164.289.816-.18.656c-.078.098-.24.216-.3.246c.32.006.639.251.577.598c.28.123.222.56.133.781c.594.496-.11.984-.531.703c.255.19.324.344.246.766c.25.07.348.402.215.539c.242.066.335.384.199.613c.305.25.179.738-.164.902c.532.367.486 1.146-.219 1.262c.219.375-.121.926-.57.848c-.027.2-.176.3-.332.277c.562.477.183 1.164-.32 1.059c.193.222.34.645.101.89c-.409.769-1.19 2.349-1.047 2.524c.269.327.352.835-.101 1.027c.479.308.302.82-.223.88c.36.503-.203 1.015-.586.714c.345.517.067.855-.45.746c.321.477-.343 1.031-.612.477l-17.73.35c-.538.145-.738-.326-.644-.628c-.454.078-.695-.348-.594-.679c-.639.107-.67-.373-.56-.683c-.606-.174-.505-.652-.32-.923c-.394-.437-.112-.802.078-.93l-.148-1.351c-.882-.156-1.04-1.388-1.016-1.985c-1.002 0-1.068-1.144-.137-1.382c-.225-.31-.235-.655-.183-.79c-.13-.088-.365-.432-.352-.585c-.237.008-.716-.043-.754-.352c-.043-.352.246-.453.395-.492c-.152 0-.457-.22-.399-.582c-.524-.005-.606-.666-.113-.8c-.672-.272-.336-.779.086-.864c-.58.063-1.014-.47-.422-.852c-.344-.484.067-.773.336-.773c-.051-.422.212-.545.387-.558c-.544-.012-.463-.856.148-.802c-.58-.22-.254-1.076.348-.855c-.05-.392.335-.845.691-.45c-.063-.449.43-.624.727-.312c-.301-.316-.188-.757.058-.847c-.246-.184-.14-.555-.078-.668c-.707-.345-.078-1.361.395-.809c-.106-.41.29-.82.68-.523a.47.47 0 0 1 .472-.254c-.14-.352.442-.752.766-.39a.506.506 0 0 1 .722-.067c.223-.314.679-.269.864.066c.148-.326.733-.313.809.064c.225-.37.798-.259.808.192c.402-.309.822-.014.726.424c.215-.137.399-.165.536-.121a.54.54 0 0 1 .355-.512c-.222-.303-.038-.785.395-.754c0-.727.87-.66.945-.2c.14-.546.715-.503.84-.054c-.102-.484.691-.879.922-.148c.29-.498.798-.214.82.203c.176-.516.84-.485.898.039c.188-.492.95-.441.95.137c.218-.43.898-.399 1.039 0c.136-.356.895-.53 1.117-.02c-.024-.21.633-.754 1.008 0c.28-.552.953-.314.953.258c.502-.382.992.05.793.617c.062.035.194.12.219.18c.297-.37.824-.356 1.02.039c.269-.063.593.082.593.418c.414-.164.734.043.77.418a.67.67 0 0 1 .548.225"/><path fill="#F1A11E" d="m8.317 24.18l-1.113.021c-.538.146-.738-.325-.644-.627c-.42.072-.659-.288-.61-.604c.098-.249.297-.317.325-.295c-.395-.389-.294-.793.12-.937c-.346-.515-.203-.854.254-1.056c1.622-.721 2.116 2.098 1.668 3.497m17.731-1.515a.4.4 0 0 1-.052-.035c.345.517.067.855-.45.746c.321.477-.343 1.031-.612.477l-.672.013c-.366-.555-.545-1.435-.387-2.21c.305-1.499 1.532-1.54 2.052-1.229c.355.213.143 1.014-.09 1.105c.264.095.65.427.09.987q.062.061.12.146m2.146-7.126l-.021-.003c.562.477.183 1.164-.32 1.059c.193.222.34.645.101.89c-.15.284-.353.678-.54 1.072c-.618-.362-1.052-1.49-.948-1.827c.193-.622.481-.706.814-.804l.137-.042c-.467-.384-.05-.967.73-.384zM3.999 17.057L4 17.023c-1.002 0-1.068-1.144-.137-1.382a1.1 1.1 0 0 1-.21-.602a.96.96 0 0 1 .535.142c.505.306.65.847-.054 1.127c1.023.104.879.874-.135.75m22.187-1.584c.456-.817 0-1.409-.594-1.242c.43-.12.485-1.395-.78-.736c-2.605 1.01.402 3.722 1.374 1.978"/><path fill="#FDBB11" d="M10 18a3 3 0 1 1-6 0a3 3 0 0 1 6 0m18 0a3 3 0 1 1-6 0a3 3 0 0 1 6 0"/><path fill="#FFC83D" d="M7.828 12.602c-.086-.227-.23-.275-.523-.282c.218-.082.275-.16.375-.347c.545.564 1.08-.471.308-.653a.59.59 0 0 0-.265-.547c.105-.144.054-.363-.098-.484c.129-.098.172-.191.129-.418c.144.047.383-.2.398-.465c.106.2.364.38.641.348c-.156.098-.39.406-.172.762c.219.355.762.226.863.113c.102-.113.153-.313.043-.457l.044-.037c.103-.084.253-.206.25-.436c-.004-.256-.103-.338-.257-.466l-.017-.014a.56.56 0 0 0 .148-.664c.098-.063.16-.133.211-.293c.13 0 .293-.07.32-.145c.079.063.237.103.418.063c.79.514 1.238-.262 1.274-.75c.117.13.602.09.855-.239c-.02.239.18.645.516.727c-.036.555.402.832.859.551c.354.292.882-.075.86-.45c.104.605.676.464.92.264c-.018.03-.024.364.345.42c-.015.147-.014.461.477.445c-.295.28-.34.784.047 1.012c-.444.818 1.1.749 1.082 0c-.006-.269-.285-.5-.477-.558c.09-.042.253-.132.313-.254c.082.057.27.172.367.175c-.091.235-.126.725.465.813c-.034.467.289.988.98.762a.623.623 0 0 0 1.145.226q0-.003.016.02c.066.09.32.44.675.32c.611-.207.479-1.331-.207-.93c-.11-.492-.601-.574-.91-.09c.11-.594-.435-.607-.803-.34c.18-.15.328-.438.108-.753c.32.074.836.027.836-.54c.065.016.22.027.32-.058c-.176.57.306.885.914.504c-.21.527.301.962.758.45c-.211.653.252 1.016.734.527c0 1.023 1.65.217.66-.778c.23.07.415.054.672-.222c-.28.301-.015.867.414.726c-.135.17-.275.57.25.8c-.096.186-.175.606.282.806c-.194.412.024.692.33.824a8 8 0 0 1-.04.37l-.67 10.69A7.3 7.3 0 0 1 17.766 30H14.25a7.3 7.3 0 0 1-7.245-6.35L6.32 13.183c.367.267.64.104.862-.117c-.037.637.733.508.85.254c.848.473.943-1.254-.203-.718"/><path fill="#990839" d="M16 23.895a5.6 5.6 0 0 1-2.583-.612c-.255-.13-.53.158-.369.39A3.53 3.53 0 0 0 16 25.25a3.53 3.53 0 0 0 2.952-1.577c.16-.241-.114-.52-.369-.39a5.6 5.6 0 0 1-2.583.612"/><path fill="#ED9200" d="m15.287 17.527l-.99 3.17a1.005 1.005 0 0 0 .97 1.303h1.466c.688 0 1.173-.662.97-1.304l-.99-3.17c-.213-.701-1.203-.701-1.426 0"/><path fill="#fff" d="M9.015 17.367a2.607 2.607 0 0 1 5.085.128a.428.428 0 0 1-.425.505H9.518a.512.512 0 0 1-.503-.633m13.97 0a2.62 2.62 0 0 0-2.527-1.967a2.6 2.6 0 0 0-2.557 2.096a.428.428 0 0 0 .424.504h4.157a.512.512 0 0 0 .503-.633"/><path fill="#7D4533" d="M10.259 17.557a1.664 1.664 0 1 1 3.268.443h-3.209a1.7 1.7 0 0 1-.06-.443m11.483 0c0-.926-.75-1.664-1.668-1.664a1.65 1.65 0 0 0-1.66 1.664q0 .236.06.443h3.209c.04-.148.06-.286.06-.443"/><path fill="#000" d="M11.927 16.611a.947.947 0 0 1 .84 1.389h-1.679a.947.947 0 0 1 .84-1.389m8.135 0a.947.947 0 0 0-.84 1.389h1.679a.947.947 0 0 0-.84-1.389"/><path fill="#fff" d="M11.651 16.92c0 .166-.133.3-.296.3a.3.3 0 0 1-.296-.3c0-.166.132-.3.296-.3s.296.134.296.3m8.195 0c0 .166-.133.3-.297.3a.3.3 0 0 1-.296-.3c0-.166.133-.3.296-.3c.164 0 .297.134.297.3"/><path fill="#D37034" d="M22.888 13.883a.517.517 0 0 0-.055-.73h-.002l-.002-.002l-.076-.06a3 3 0 0 0-.192-.132a4 4 0 0 0-.704-.356c-.61-.241-1.49-.435-2.587-.274a.517.517 0 0 0 .15 1.023c.893-.131 1.589.028 2.057.213a3 3 0 0 1 .53.266q.087.056.125.087l.026.02l.004.003a.517.517 0 0 0 .726-.058m-12.952.023a.517.517 0 0 1-.7-.761a2 2 0 0 1 .258-.195c.155-.102.379-.228.673-.344c.59-.232 1.453-.415 2.585-.271a.517.517 0 1 1-.13 1.026c-.95-.12-1.638.035-2.077.208a2.7 2.7 0 0 0-.484.245a2 2 0 0 0-.127.093"/><path fill="#F1A11E" d="M19.797 2.332c-.024-.21.632-.753 1.007 0a1.18 1.18 0 0 1-.441.821a.785.785 0 0 1-1.135-.073c-.41.57-.975.446-1.213.165c-.123.248-.756.546-1.023.043c-.293-.552-.774-.499-1.033-.228c-.364-.3-.808-.064-.87.185c-.486-.162-.925-.014-1.039.425c-.047.183-.397.384-.652.263c-.294-.172-.367-.546.138-.788c-.117-.55.35-.646.587-.63c.113-.576.577-.466.807-.333a.5.5 0 0 1 .037-.227l.006.018c.29-.498.798-.214.82.203c.176-.516.84-.484.898.039c.188-.492.95-.441.95.137c.218-.43.898-.399 1.039 0c.136-.356.895-.53 1.117-.02m3.597 1.885c-.301-.232-.614-.28-.992 0c-.703.525-1.056-1.1.153-1.033l.004-.002l-.008.025c.062.035.194.12.219.18c.297-.37.824-.356 1.019.039c.27-.063.594.082.594.418c.412-.163.731.04.769.413a1.4 1.4 0 0 0-.536.145c-.198-.414-.76-.504-1.222-.185m1.876 5.275c.364-.037.68.146.584.577a.5.5 0 0 1-.131.173c.484.024.764.463.386.856c.543.03.634.584.168.84c.118.025.2.06.258.101q.09.097.12.19a.5.5 0 0 1 .001.134a.3.3 0 0 1-.036.117a.4.4 0 0 1-.16.137c-.424.196-1.359-.092-1.097-.786l.024-.031l-.01-.003l.014-.031c-.457-.2-.378-.62-.282-.805c-.525-.231-.385-.63-.25-.8c-.43.14-.695-.426-.414-.727l-.016.017l-.014.014c.066-.08.15-.15.23-.215q.092-.072.16-.141c0 .024.078.422.465.383"/><path fill="#F1A11E" d="M11.516 3.644a.54.54 0 0 1 .355-.515c-.222-.303-.038-.784.395-.754c0-.727.87-.66.945-.2l.007-.025c.172.545-.068.831-.285.871c.154.458-.002.624-.158.67c.341.224.127.584 0 .713c.333.303.148.626-.046.735c-.288-.494-.815-.412-.936-.252c-.39-.324-.258-.72-.126-.85a.66.66 0 0 1-.151-.393M13.55 4.77c-.51-.063-.859.707-.386 1.332c.121-.325.77-.563 1.075-.22c.132-.085.155-.218.1-.327h.026c.196 0 .387.001.427-.387c.223.12.557-.016.557-.398c.176.158.496.184.595-.263c.574.263.793-.154.87-.716c.09-.648-.451-.774-.747-.426c-.38-.159-.718-.159-.89.294c-.327-.185-.837-.089-.938.433c-.446-.104-.86.139-.688.678M10.75 5.967c-.232-.392-.785-.272-.835.052c-.38-.437-1.05-.065-.837.4c-.207-.452-1.029-.265-.814.422c-.53-.4-1.125.144-.642.655c-.322.103-.296.714 0 .82c.422.153.67-.243.71-.572c.284.137.608-.152.608-.506c.228.2.7.051.79-.226c.22.207.517.163.707-.059c.18.199.43.285.688.059c.09.226.465.265.625.117c0 .126.143.395.402.395c.429 0 .883-.437.833-.931c-.044-.433-.45-.444-.665-.316c-.129-.36-.52-.394-.761-.258c-.352-.519-.825-.077-.809-.052"/><path fill="#F1A11E" d="M17.686 8.783a.47.47 0 0 0-.402-.24c.305-.338.17-.893-.391-.977a.585.585 0 0 0-.716-.773c-.065-.465-.445-.62-.922-.484c-.11-.413-.748-.49-1.051-.135c-.613-.53-1.096.188-.915.76c.181.57.787.532.866.255c0 .394.704.578.913.17c-.07.239.234.927.943.691q-.074.132-.108.252l.024-.019c-.017.03-.023.364.346.42c-.015.147-.014.461.477.445c-.295.28-.34.784.047 1.012c-.444.818 1.1.749 1.082 0c-.006-.269-.285-.5-.477-.558c.08-.038.22-.114.291-.218l.022-.036c.082.057.27.172.367.175c-.091.235-.126.725.465.813c-.034.467.289.988.98.762a.623.623 0 0 0 1.145.226q0-.003.016.02c.066.09.32.44.675.32c.611-.207.479-1.331-.207-.93c-.11-.492-.601-.574-.91-.09c.11-.594-.435-.607-.803-.34c.18-.15.328-.438.108-.753h.003c-.086-.078-.261-.208-.49-.16c.171-.183.133-.84-.486-.77c.074-1.047-1.21-.625-.742 0c-.068.025-.117.085-.15.162"/><path fill="#F1A11E" d="m23.817 9.669l-.044-.013c.99.995-.66 1.801-.66.778c-.482.489-.945.126-.734-.528c-.457.513-.967.078-.758-.449c-.608.38-1.09.066-.914-.504l-.007.006c.028-.07.05-.126.064-.15c-.303.09-.805-.264-.506-.822c-.336.047-.78-.111-.492-.68c-.36.143-.694-.07-.572-.516c-.28.258-.715.07-.67-.38c-.151.278-.654.218-.725-.124c-.05.233-.461.347-.716.077c-.074.156-.287.442-.731.156c-.077-.324-.565-.574-.97-.398c-.05-.16-.174-.244-.443-.244c-.186-.247.288-.616.737-.292c-.16-.4.352-.78.814-.286c.086-.462.523-.373.925-.114c.22-.202.634-.274.958.076a.7.7 0 0 1 .962.369c.277-.042.795-.006.813.656c.297.012.828.207.58.89c.268.061.716.33.364.913c.265-.056.606.104.567.52c.28-.104.69.06.687.513c.253-.117.758 0 .832.481c.192-.076.438-.095.64.065M7.305 12.32c.293.007.437.055.523.282c1.146-.536 1.05 1.191.203.718c-.117.254-.887.383-.85-.254c-.223.223-.499.386-.87.112c-.096-.226.047-.573.24-.649c-.562.07-.605-.147-.65-.377c-.03-.144-.06-.294-.217-.382c.322-.098.478-.344.537-.685c0 0 0 .743.556.622c-.148.242.112.715.535.61l.007-.002z"/><path fill="#F1A11E" d="M7.587 12.128c-.51.125-.711-.294-.62-.572c-.428.05-.662-.572-.35-.814c-.394-.32-.258-.781.043-.867c-.32-.782.405-.781.449-.781c-.165-.373-.082-.656.227-.737c.619-.115.772.631.82 1.057l-.004-.008c-.015.266-.254.512-.398.465c.043.227 0 .32-.129.418c.152.121.203.34.098.485a.59.59 0 0 1 .265.546c.771.182.237 1.217-.308.653a1 1 0 0 1-.093.155m3.058-3.948c.681.444 1.109-.075 1.236-.539a.53.53 0 0 1-.244-.258c-.153.137-.496.07-.563-.074c-.156.125-.531.079-.617-.067c-.23.149-.555.164-.656.035c-.117.248-.512.32-.711.262l-.018.055c-.056.172-.107.327-.367.363c-.7.096-.477.79-.071.79c-.366.246-.384.596-.305.866c.126.098.291.16.464.14c-.156.099-.39.407-.172.763c.219.355.762.226.863.113c.102-.113.153-.313.043-.457l.044-.037c.103-.084.253-.206.25-.436c-.004-.256-.103-.338-.257-.466l-.017-.014a.56.56 0 0 0 .148-.664c.098-.063.16-.133.211-.293c.13 0 .293-.07.32-.145c.079.063.237.103.418.063m.349-4.55c-.006-.361-.38-.568-.74-.292c-.009-.451-.582-.561-.807-.192c-.076-.377-.66-.39-.81-.064c-.184-.335-.64-.38-.863-.066a.506.506 0 0 0-.722.066l-.002-.001c-.289.574-.08 1.16.756.993c.097-.246.41-.554.949-.293c.101-.168.477-.353.926-.093c.138-.139.523-.329.933.042c.123-.082.271-.126.38-.1"/><path fill="#F1A11E" d="m6.275 3.442l.01.03a.47.47 0 0 0-.473.255c-.389-.297-.785.113-.68.523c-.472-.552-1.1.464-.394.809l-.005.01c.313.177.803.22 1.166-.17c.912.212 1.37-1.288.376-1.457M4.577 6.156c-.005-.2.094-.376.24-.43c-.184-.136-.172-.376-.129-.537c.26.23.613.28.806.188l.015.045c.068.205.18.548-.048.838c-.269.34-.762.136-.884-.104"/><path fill="#F1A11E" d="m2.798 8.999l.045-.006c-.543-.012-.462-.856.15-.802c-.58-.22-.255-1.076.347-.855c-.05-.392.335-.845.691-.45c-.063-.449.43-.624.727-.312a1 1 0 0 1-.078-.097c.217.219.608.178.839-.003c-.132.192-.138.336.03.547c-.3 0-.683.237-.553.775a.43.43 0 0 1-.685.09c0 .253-.21.475-.457.44c-.053.302-.26.779-1.056.673m-.23 3.854l.002-.013c-.525-.005-.606-.666-.113-.8c-.672-.272-.336-.779.086-.864a1 1 0 0 1-.123.005q.025-.007.048-.01c-.287-.51.184-.76.469-.717c-.117-.655.407-.705.685-.553c.054-.57.55-.413.754-.229c.073-.333.365-.373.502-.352a.404.404 0 0 0 .162.613c-.323.094-.303.456-.254.625c-.35-.104-.538.083-.606.242a.473.473 0 0 1-.558.3c.162.328.049.65-.257.741c.12.612-.038.925-.78 1.01zm25.94 2.406l-.004-.001l-.001.006c-.25-.357-.718-.268-.901-.233c0 0 .539-.367.191-.754c.234.047.496-.523.09-.925c1.015-.243 1.414.84.582 1.023c.182.162.254.47.043.883m.762-3.64l-.012.015c.239.065.333.375.205.603c-.14.13-.395.196-.682.104c-.59-.19-.808-.836-.422-1.258c-.454.035-.917-.573-.665-.902c.205-.267.854-.082 1.181.19l-.078-.042c.255.19.324.344.246.766l.015.005a1.1 1.1 0 0 1-.218.385q.267.051.43.134m-3.571-7.13a.735.735 0 0 1 .809.168c.36-.224.85.005.988.38c.402-.042.791.265.758.69c.35.08.406.482.184.652c-.294-.378-.788-.37-1.032-.249c-.11-.285-.406-.46-.89-.367c.117-.465-.254-.758-.657-.758a.68.68 0 0 0-.16-.516m2.511 1.965h-.01a.6.6 0 0 1 .132.207c.383 0 .774.264.766.684c.554.164.289.816-.18.656c-.078.098-.24.216-.3.246l.053.003c-.3.1-.65.08-.656-.446c-.212.048-.512-.024-.52-.387c-.142.13-.485.23-.659-.095c-.355.282-1.048.067-.624-.81c.184-.381.73-.644 1.151-.167c.216-.093.591-.116.848.109"/><path fill="#F1A11E" d="M28.79 8.272c.252.073.456.288.405.572c.28.123.222.557.134.78c-.396.307-1.154.135-1.015-.328c-.458.343-.907-.049-.733-.405c-.405.21-.771-.223-.571-.54a.436.436 0 0 1-.285-.781c.24.338.54.209.667.091c-.1.235.288.539.48.296c-.128.394.442.731.75.45q.088-.081.168-.135m-7.404-1.564c-.076-.627-.59-.632-.906-.499c.444.054.593.587.444.879c.438.094.556.465.462.848c.318.064.465.288.465.481c.393.004.62.206.667.498c.477-.075.753.197.856.453c.438-.038.504.125.566.28l.017.04c.332 0 .668-.287.454-.74c-.184-.391-.622-.409-.856-.284c-.04-.301-.263-.395-.485-.328a.533.533 0 0 0-.552-.5c.077-.352-.185-.515-.474-.515c0-.564-.381-.641-.658-.613"/><path fill="#F1A11E" d="M23.5 7.297c.242-.29.672-.36.969.102c.398-.18.843-.157.992.453c.305-.118.836.054.742.71c1.367.485-.101 1.657-.36.712c-.226.187-.835.01-.616-.508c-.204.234-.611.06-.586-.352c-.196.219-.557.164-.688-.18c-.177.133-.564.283-.695-.18c-.047-.15-.17-.398-.477-.366c-.516.052 0-.97.719-.391"/><path fill="#F1A11E" d="M23.426 5.727c-.172-.079-.57-.055-.688.296c-.117.352.176.711.504.602c.219.36.64.277.828 0c.082.348.582.422.758.203c.309.594.815.245.867-.055c.528-.09.387-.917-.195-.8c-.256-.482-.68-.38-.89-.293c-.45-.489-1.005-.209-1.184.047m4.23 5.642c.139-.578-.076-.95-.668-.84c-.4.074-.458.649-.138.84c-.292.496-.01.754.334.797c-.363.234-.235.63.08.787c.197.098 1.123.349 1.213-.071c.074-.343-.23-.488-.344-.543q-.04-.018-.042-.025c.238-.678-.155-.9-.435-.945m-1.031 2.411c-.396-.407-.302-.755-.039-.827c.264-.071.406-.03.846.273c.611.42.3.902 0 .978c.606.558-.167 1.022-.807.43c-.504-.467-.374-.882 0-.855m-.305-3.752c.039-.534.8-.623.96-.074c.16.55-1 .609-.96.074"/><path fill="#F1A11E" d="M22.523 6.336c.172-.398-.04-.811-.484-.898c.07-.417-.055-.844-.734-.766c.117-.5-.367-1.031-1.032-.727c-.101-.57-1.125-.606-1.784-.217c0 0 .476.026.613.249c.18-.121.859-.149 1.023.445c.213-.086.82.008.758.648c.328.04.515.516.219.883c.169.021.42.19.414.57c.198-.026.567-.038.68.438c.126.54 1.077-.047.327-.625"/><path fill="#F1A11E" d="M20.703 5.188c.33.056.405.411.219.64c-.197.242-.559.186-.64-.078c-.15-.482-.67-.372-.878-.298c-.268-.559-.796-.494-1.027-.391c-.21-.335-.685-.314-.887-.09c-.232-.227-.41-.216-.606-.203q-.069.005-.142.006c-.055-.593.513-1.234 1.139-.72c.565-.407.994-.085 1.139.127c.71-.24.971.207 1.013.46c.615-.11.698.274.67.547M17.059 6.82c.2-.275.575-.33.873.051c.275-.144.744-.148.83.39c.34-.123.73.218.623.624c.377 0 .618.403.469.718a.54.54 0 0 1 .544.514c.008.5-.418.492-.597.43c-.133-.29-.309-.36-.492-.317c.069-.22.08-.723-.473-.789c0-.289-.112-.594-.535-.656c-.318-.046-.598.059-.678.189q-.014-.064-.02-.124c-.024-.164-.041-.29-.266-.314c-.278-.029-.477-.444-.278-.716M4.95 10.73c-.141-.57.338-.878.7-.596c.36.28.359.634.237.999c-.086.257-.284.43-.558.518c.386.157.523.854.039 1.089c.617.236.45 1.035-.04.998c.523.3.448.957-.035.957c.293 1.027-1.06.835-.845.13c-.47-.13-.36-.633-.19-.788c-.321-.07-.346-.692 0-.796c-.39-.137-.384-.67-.071-.802c-.357-.368-.187-.818.18-.877c-.312-.688.184-.906.582-.832m6.785-5.636c-.066-.287-.54-.597-.973-.14c-.14-.18-.54-.453-.86-.025c-.207-.167-.687-.32-.932.214c-.286-.167-.781-.21-.867.366c-.26-.084-.822-.09-.723.495c-.266-.077-.854 0-.623.68c-.701.475-.081 1.23.623.845c-.38-.506-.032-1.279.723-.943c-.274-.582.597-.879.82-.523c-.11-.403.637-.72.979-.274c0-.264.595-.5.86-.05c.09-.215.653-.348.887.097c.196-.195.684-.148.79.168c.59-.406-.06-1.393-.704-.91"/><path fill="#F1A11E" d="M5.133 9.653c-.332-.194-.108-.635.026-.745c-.627-.322-.37-.914.089-.914c-.296-.663.202-.842.563-.765c-.295-.685.385-.915.766-.673c-.573.39-.37 1.026.05 1.222c0 .25-.222.42-.376.42c.042.41-.077.548-.347.647c.193.684-.424 1.011-.77.808m6.229-5.377c.058-.31-.303-.719-.774-.357c-.126-.215-.521-.447-.902 0c-.162-.16-.532-.364-.863.091c-.243-.196-.764-.219-.859.303c-.267-.088-.736-.182-.724.476c-.255-.072-.795-.028-.667.589c-.31-.037-.605.238-.43.729c.061.17.249.295.43.253c-.005-.224.12-.639.667-.506c-.062-.228.112-.625.724-.56c.007-.196.289-.565.947-.408c.098-.243.46-.491.993-.191c.077-.191.407-.397.886-.074c.134.09.515-.045.572-.345m12.019.269c-.549-.558-1.211-.105-1.037.557c.158.598 1.037.348 1.037.348c.427-.47 1.176-.156 1.333.07c.129-.176.383-.165.6 0c.435-.176.157-1.385-.757-.854c-.532-.853-1.176-.122-1.176-.122m-2.918-.864c.137.123.507.048.507.048c.09.112.312.303.575.034c.33-.335.09-.616-.28-.51c.034.004-.235-.515-.665-.175c-.306.243-.299.457-.137.603"/></g></svg>