<svg xmlns="http://www.w3.org/2000/svg" xmlns:xlink="http://www.w3.org/1999/xlink" width="32" height="32" viewBox="0 0 32 32"><g fill="none"><path fill="#FF6723" d="M6 29.616C6 24.311 10.475 20.01 16 20c2.252 0 4.329.716 6 1.923L19.239 30H6z"/><path fill="#8B5C56" d="M15.5 24.5c-1.383 0-2.5-1.194-2.5-2.671V18.67c0-1.476 1.117-2.67 2.5-2.67s2.5 1.194 2.5 2.671v3.158c0 1.477-1.117 2.671-2.5 2.671"/><path fill="#2D242D" d="M23.839 6.11a2.97 2.97 0 0 0-1.623-1.327a3.17 3.17 0 0 1-1.733-1.356A2.98 2.98 0 0 0 17.928 2c-.41 0-.811.08-1.172.24a1.95 1.95 0 0 1-1.533 0c-.35-.16-.751-.24-1.162-.24a2.99 2.99 0 0 0-2.524 1.387a3.37 3.37 0 0 1-1.773 1.396A3.02 3.02 0 0 0 8.09 6.2a2.98 2.98 0 0 0 .18 3.093c.23.33.35.708.35 1.107v5.208a2.73 2.73 0 0 0 1.692 2.517l11.427-.036a2.73 2.73 0 0 0 1.608-2.481V10.4c0-.389.12-.778.35-1.097a2.95 2.95 0 0 0 .14-3.193"/><path fill="#8B5C56" d="M11.92 12.76a2.09 2.09 0 1 1-4.18 0a2.09 2.09 0 0 1 4.18 0m12.28 0a2.09 2.09 0 1 1-4.18 0a2.09 2.09 0 0 1 4.18 0"/><path fill="#966661" d="M13.706 5.43h1.761a.84.84 0 0 1 .66.53a3.1 3.1 0 0 0 2.83 1.82h1.718a1.85 1.85 0 0 1 1.841 1.9l-.03 1.08h.022l-.368 5.93A4.96 4.96 0 0 1 17.22 21h-2.4c-2.49 0-4.6-1.84-4.92-4.31l-.461-7.128a4.27 4.27 0 0 1 4.267-4.132"/><path fill="#990838" d="M17.767 17.922c-.422-.707-1.145-1.182-1.97-1.182s-1.548.475-1.97 1.182c-.091.151.037.333.183.313h3.564c.147.04.284-.152.193-.313"/><path fill="#372128" d="M15.007 12.117a.35.35 0 0 1 .076.49a2.2 2.2 0 0 1-1.783.894c-.723 0-1.37-.347-1.78-.89a.35.35 0 1 1 .56-.422c.283.374.726.61 1.22.61c.506 0 .947-.237 1.217-.606a.35.35 0 0 1 .49-.076m5.174-1.756c.06.061.14.085.21.085c.1 0 .21-.048.28-.17a.49.49 0 0 0-.06-.596c-.04-.036-.99-.9-2.392-.705c-.2.037-.33.243-.31.474s.19.402.39.377a2.45 2.45 0 0 1 1.882.535m-8.861-.085c.07.11.17.17.28.17c.07 0 .15-.024.21-.085q.002 0 .018-.012c.12-.094.852-.668 1.865-.523c.2.025.36-.133.39-.377c.02-.23-.12-.437-.31-.462c-1.394-.205-2.342.66-2.392.705c-.15.134-.181.402-.06.584"/><path fill="#764C49" d="M23.179 17.894c.071-.76.234-1.51.51-2.22c.407-1.035.845-1.825.845-1.836a.98.98 0 0 0-.377-1.328a.99.99 0 0 0-1.335.375c-.02.04-.285.517-.6 1.217a.114.114 0 0 1-.215-.01c-.479-1.46-.744-3.295-.805-4.056a.883.883 0 0 0-.968-.8a.88.88 0 0 0-.805.962c0 .041.092 1.024.326 2.241c.03.142.051.274.082.406c.01.04-.02.08-.061.08a.08.08 0 0 1-.072-.05a25 25 0 0 1-.713-3.123a.88.88 0 0 0-1.019-.74a.88.88 0 0 0-.744 1.014c.01.071.306 1.551.663 2.95c.01.03-.041.051-.051.02l-.815-2.047a.917.917 0 0 0-1.172-.477c-.459.193-.662.74-.469 1.197l.968 2.23c.03.061-.061.112-.102.05l-.57-1.084a.893.893 0 0 0-1.203-.375a.885.885 0 0 0-.377 1.196c1.009 1.916 2.65 5.04 2.853 5.455c.01.02.02.03.03.04a3.24 3.24 0 0 0 1.631 1.46a3.316 3.316 0 0 0 4.32-1.743q.199-.503.245-1.004"/><path fill="#F95725" d="m23.342 21.21l-4.89 1.307l-.317-1.166a.47.47 0 0 1 .336-.578l3.974-1.054a.47.47 0 0 1 .581.334z"/><path fill="#FF8101" d="M19.195 30H27l-2.374-8.831a.81.81 0 0 0-.989-.568l-5.716 1.521a.807.807 0 0 0-.57.983z"/></g></svg>