<svg xmlns="http://www.w3.org/2000/svg" xmlns:xlink="http://www.w3.org/1999/xlink" width="32" height="32" viewBox="0 0 32 32"><g fill="none"><path fill="#FF6723" d="M25 13.966c-1.631 0-2.646 1.07-2.95 1.606c-.3.512.567 1.838 2.898 1.838c2.33 0 2.85-.52 2.986-1.093c.137-.575-.895-2.351-2.934-2.351"/><path fill="#00A6ED" d="M28.43 19c0-1.668-1.495-2.474-2.544-2.474c-1.134 0-1.943.69-2.205 1.034c.358 1.118 1.163 3.635 1.516 4.754c.441 1.398.957 1.696 1.43 1.988c.472.293.758.063.758-.348v-.665c0-1.709 1.045-1.914 1.045-4.289"/><path fill="#433B6B" d="M10.1 20.911a1.1 1.1 0 0 0-1.1 1.1v6.813a1.1 1.1 0 0 0 1.1 1.1h2.8a1.1 1.1 0 0 0 1.1-1.1v-6.813a1.1 1.1 0 0 0-1.1-1.1zm9.498.971a1.1 1.1 0 0 0-1.1 1.1v5.842a1.1 1.1 0 0 0 1.1 1.1h2.8a1.1 1.1 0 0 0 1.1-1.1v-5.842a1.1 1.1 0 0 0-1.1-1.1z"/><path fill="#8D65C5" d="M7.346 26.77a1.5 1.5 0 0 0 .178-.476h3.96c.04.032.155.124.292.241c.172.146.224.292.224.59v1.644c0 .578-.332 1.155-1.055 1.155h-2.64c-.654 0-1.073-.64-1.073-1.282v-1.358c0-.197-.007-.317.114-.514m18.064.52c0-.276-.03-.294-.162-.417l-.435-.623h-3.448c0 .439-.412.794-.614.794s-.198.132-.198.421v1.202c0 .772.444 1.273 1.29 1.273h2.374c1.004 0 1.193-.773 1.193-1.176z"/><path fill="#608842" d="M10 3.088a1 1 0 0 1 1-1h.57a1 1 0 0 1 1 1v1.978a1 1 0 0 1-1 1H11a1 1 0 0 1-1-1z"/><path fill="#00A6ED" d="m7.34 22.763l.25-1.335l1.41-.25h15.232c.252.37.787 1.155.907 1.34c.15.23.23.421.23.733v2.13c0 .526.155.934.233 1.072c.17.268.117.399-.13.496a1.7 1.7 0 0 1-.62.137c-.665 0-.797-.387-.907-.504s-.23-.082-.289 0c-.242.348-.515.471-.855.471s-.594-.12-.844-.435c-.16-.188-.223-.18-.361 0c-.312.407-.614.435-.798.435s-.265-.085-.265-.326v-1.785c0-.836-.312-1.094-1.171-1.094H13c-.953 0-1 .66-1 1.113v1.465c0 .137 0 .285-.125.176c-.125-.11-.176-.118-.36.046c-.183.165-.406.418-.863.418s-.644-.273-.773-.418l-.005-.005c-.126-.142-.208-.234-.39-.018c-.183.219-.37.441-.836.441c-.464 0-.695-.289-.835-.484s-.25-.113-.336.043s-.188.223-.309.066C7.047 26.535 7 26.261 7 26c0-.43.226-.769.226-1.659v-1.003c0-.35.076-.529.114-.575"/><path fill="#FF6DC6" d="M7.225 19.417c0-.301 0-.469.093-.675c.39-.86.51-1.14.878-1.63H24.06c.092.119.372.487.756 1.01c.48.651.555.913.579 1.483s-.024 1.81-.024 2.223c0 .414.129.64.223.77c.093.129.133.226 0 .289s-.301.14-.793.14s-.762-.383-.867-.496c-.106-.113-.227-.078-.29 0c-.23.29-.496.496-.898.496s-.68-.265-.848-.515c-.085-.117-.165-.112-.25 0c-.144.191-.39.515-.812.515s-.73-.226-.902-.445c-.133-.148-.206-.162-.356 0l-.008.009c-.193.208-.404.436-.832.436c-.433 0-.617-.234-.816-.445c-.176-.195-.234-.157-.367 0c-.203.238-.364.445-.84.445c-.477 0-.652-.222-.844-.473c-.117-.148-.202-.142-.312 0c-.313.403-.547.446-.887.446c-.387 0-.503-.094-.824-.446c-.13-.141-.19-.134-.309 0c-.25.28-.465.446-.867.446s-.554-.163-.78-.404l-.001-.002c-.118-.125-.215-.207-.36-.04c-.195.226-.441.446-.84.446s-.668-.228-.843-.446c-.083-.093-.211-.113-.317 0c-.161.172-.415.473-.878.473c-.462 0-.69-.338-.826-.473c-.135-.135-.244-.114-.311 0c-.068.114-.073.135-.135.218s-.063.057-.156 0c-.094-.109-.225-.15-.225-.545c0-.436.225-.831.225-1.356z"/><path fill="#F8312F" d="M7.22 15.295v1.103c0 .603-.043.762-.099.974a4 4 0 0 0-.065.273c-.086.428-.064.784.05 1.027c.106.225.2.112.275.02l.017-.02q.02-.024.042-.059c.077-.114.188-.278.379-.07c.228.25.42.457.848.457c.39 0 .65-.267.795-.417l.039-.04c.135-.135.218-.147.346 0l.018.021c.132.154.374.436.828.436c.44 0 .682-.284.804-.427l.025-.03c.112-.128.196-.15.343 0l.057.06c.147.16.365.397.765.397c.408 0 .643-.245.796-.405l.05-.052c.152-.152.235-.099.34 0l.046.048c.129.135.392.409.763.409c.423 0 .702-.273.87-.457c.167-.183.255-.09.335 0l.008.01c.09.103.389.447.842.447c.413 0 .632-.239.78-.399l.053-.058c.148-.152.204-.139.348 0l.071.076c.142.154.35.381.754.381c.48 0 .75-.353.842-.48c.092-.129.18-.196.331 0c.152.195.403.48.878.48c.412 0 .655-.292.77-.43q.026-.032.044-.05c.088-.093.207-.168.34 0c.13.167.394.48.829.48c.38 0 .648-.28.789-.427l.053-.054c.12-.116.24-.112.35.024q.02.023.04.052c.117.157.323.435.958.435c.396 0 .601-.136.623-.272c.012-.076-.063-.16-.158-.266a3 3 0 0 1-.127-.148a5 5 0 0 1-.366-.556c-.103-.17-.21-.35-.341-.534a6 6 0 0 0-.24-.314c.452-.236.978-.414 1.528-.414c.963 0 2.302.679 2.515 2.081c.094-.34.11-.738.11-1.162c0-1.266-1.21-2.406-2.613-2.406c-.915 0-1.801.393-2.268 1.202c-.653-.482-1.582-.839-2.993-.839h-2.963c-.845 0-1.256-.239-1.657-.471l-.13-.075q-.105-.067-.176-.12c-.18-.127-.242-.171-.475-.043c-.295.163-.861.029-.861-.693h-6.28c-.446 0-.56.243-.747.651c-.131.289-.13.367-.129.644"/><path fill="#FF8101" d="M4.621 10.74V9.724l.266.116h8.449l.965.976c.172.176.207.172.207.45V12c0 1.75.87 2.164 1.055 2.297c.183.133.124.2 0 .312c-.126.113-.38.364-.82.364c-.442 0-.626-.239-.86-.476c-.13-.138-.231-.138-.352 0c-.224.256-.43.476-.837.476s-.612-.227-.835-.473l-.003-.003c-.114-.124-.237-.117-.334 0c-.21.256-.466.453-.865.453s-.65-.298-.768-.408c-.12-.11-.174-.274-.367-.045c-.192.229-.503.476-.855.476c-.353 0-.64-.23-.833-.43c-.192-.202-.311-.115-.375-.046c-.064.068-.193.412-.371.11c-.179-.302.018-1.35.064-1.858s.018-.925-.865-1.062s-1.258-.44-1.4-.526s-.206-.165-.128-.202c.077-.036-.138-.064-.138-.22"/><path fill="#FCB100" d="M9.646 5.711h3.624c.272.257.857.815 1.02.996c.202.227.21.312.21.538v2.583c0 .461.078.742.137.848v.002c.06.105.162.29-.059.29c-.223 0-.55-.269-.683-.445c-.133-.175-.286-.14-.391 0s-.262.426-.781.426c-.52 0-.68-.238-.82-.402c-.141-.164-.282-.176-.419-.024c-.55.567-1.195.47-1.629-.039c-.119-.119-.199-.144-.328-.023s-.367.49-.859.49s-.75-.389-.836-.49s-.156-.234-.316 0s-.477.49-.885.49c-.522 0-.67-.322-.811-.49c-.118-.14-.217-.136-.322 0c-.28.362-.556.453-.833.539s-.371.005-.462-.217c-.199-.544-.593-.847-.593-2.074c0-1.585 1.05-1.793 1.48-1.793h2.034c.648 0 .933-.127 1.386-.39c.453-.262.747-.815 1.136-.815"/><path fill="#96C34A" d="M8.066 6.77c-.13-.054-.222-.204-.066-.262c.128-.078.194-.183.27-.347c.082-.174.175-.414.364-.758c.369-.668 1.029-.898 1.635-.898h1.182c.307 0 .63-.146.63-.505v-.869c0-.775.529-1.043.919-1.043h.646c.46 0 .844.383.844 1.043v2.387c0 .607.054.799.154.99c.1.192.307.446 0 .446s-.604-.34-.75-.477c-.145-.139-.194-.137-.363.031c-.169.17-.453.392-.829.392a.93.93 0 0 1-.767-.392c-.154-.2-.283-.227-.484 0c-.176.2-.414.392-.806.392c-.313 0-.676-.332-.801-.463c-.146-.145-.246-.106-.356.024c-.614.729-1.291.362-1.422.308"/><path fill="#433B6B" d="M10.097 8.172a.58.58 0 1 1-1.158 0a.58.58 0 0 1 1.158 0"/></g></svg>