<svg xmlns="http://www.w3.org/2000/svg" xmlns:xlink="http://www.w3.org/1999/xlink" width="32" height="32" viewBox="0 0 32 32"><g fill="none"><path fill="#533566" d="M9 18.016a11 11 0 0 1 2.922-1.734l4.089-.317l4.116.337A11 11 0 0 1 23 18.02l2.1 6.02l-2.1 5.962H9L7.019 24.04z"/><path fill="#D3D3D3" d="M18.7 16.112h-5.41v13.89h5.41z"/><path fill="#533566" d="m14.32 19.001l1.68-.33l1.67.33l-.98 2.11l1.36 8.89h-4.12l1.37-8.89z"/><path fill="#F4F4F4" d="M16 15.312h-2.71v4.74c0 .31.36.49.61.29l2.1-1.67l2.1 1.67c.25.2.61.02.61-.29v-4.74z"/><path fill="#321B41" d="m21.22 21.122l-1.36-1.33a.262.262 0 0 1 .19-.45h1.05c.21 0 .35-.22.26-.41l-1.235-2.623a9 9 0 0 0-.696-.245l-.039-.012h-.68v13.94l2.74-7.86c.12-.36.03-.75-.23-1.01m-7.93-5.03h-.85a8 8 0 0 0-.53.2l-1.27 2.69c-.09.19.05.41.26.41h1.05c.24 0 .35.29.19.45l-1.36 1.33c-.26.26-.36.65-.23 1l2.73 7.82h.01zM9 18.002c-2.43 2.03-4.02 5.08-4 8.5v3.5L9 30zm14 .01v11.99L27 30v-3.5c0-3.41-1.56-6.468-4-8.488"/><path fill="#FCB100" d="M16 18.5c-1.107 0-2-.964-2-2.159V13.66c0-1.195.893-2.159 2-2.159s2 .964 2 2.159v2.682c0 1.195-.893 2.159-2 2.159"/><path fill="#F1A11E" d="M20.96 4.23c.52.18.99.54 1.29 1.06c.47.82.4 1.81-.12 2.55c-.18.26-.28.57-.28.88v4.17c0 .93-.59 1.76-1.47 2.06l-1.89.65V8.17a2.37 2.37 0 0 1-.68-1.42c-.09.01-.18.02-.28.02c-.59 0-1.12-.22-1.54-.57a2.32 2.32 0 0 1-1.82.55c-.03.31-.13.63-.3.92c-.11.19-.23.36-.38.5v7.42l-1.89-.65a2.185 2.185 0 0 1-1.47-2.06V8.71c0-.31-.1-.62-.27-.88c-.49-.71-.58-1.67-.15-2.47c.29-.55.77-.94 1.32-1.13c.59-.2 1.08-.6 1.41-1.12l7.14.04c.31.51.81.89 1.38 1.08"/><path fill="#FDBB11" d="M12.77 10.59a1.67 1.67 0 1 1-3.34 0a1.67 1.67 0 0 1 3.34 0m9.79 0a1.67 1.67 0 1 1-3.34 0a1.67 1.67 0 0 1 3.34 0"/><path fill="#FFC83D" d="M10.75 8.188C10.825 6.418 12.334 5 14.178 5h1.307c.282 0 .523.166.634.41c.402.868 1.298 1.414 2.273 1.414h1.44c.804.04 1.438.693 1.418 1.483l-.012.503l-.31 4.834C20.656 15.566 18.976 17 16.974 17h-1.911c-1.992 0-3.682-1.434-3.944-3.356z"/><path fill="#fff" d="M12.18 10.28c.15-.62.71-1.08 1.38-1.08c.7 0 1.27.49 1.4 1.15a.23.23 0 0 1-.23.28h-2.28c-.18 0-.32-.18-.27-.35m7.65 0c-.15-.62-.71-1.08-1.38-1.08c-.7 0-1.27.49-1.4 1.15c-.03.15.08.28.23.28h2.28c.18 0 .31-.17.27-.35"/><path fill="#7D4533" d="M12.86 10.39c0-.5.41-.91.91-.91a.9.9 0 0 1 .91.91q0 .12-.03.24h-1.76a1 1 0 0 1-.03-.24m6.29 0c0-.5-.41-.91-.91-.91c-.51 0-.91.41-.91.91q0 .12.03.24h1.76q.03-.12.03-.24"/><path fill="#000" d="M13.77 9.87a.516.516 0 0 1 .46.76h-.92a.516.516 0 0 1 .46-.76m4.47 0a.516.516 0 0 0-.46.76h.92q.06-.105.06-.24c0-.29-.23-.52-.52-.52"/><path fill="#fff" d="M13.62 10.02a.16.16 0 1 1-.32 0a.16.16 0 0 1 .32 0m4.5 0a.16.16 0 1 1-.32 0a.16.16 0 0 1 .32 0"/><path fill="#ED9200" d="m15.654 10.29l-.496 1.738c-.103.356.14.722.487.722h.73c.345 0 .589-.366.486-.722l-.496-1.738c-.103-.387-.599-.387-.71 0"/><path fill="#990839" d="M16 13.706a3.1 3.1 0 0 1-1.508-.385c-.153-.085-.306.097-.214.246c.367.587.999.982 1.722.982c.724 0 1.356-.395 1.723-.982c.092-.15-.071-.32-.214-.246a3.1 3.1 0 0 1-1.509.385"/><path fill="#D37034" d="M12.345 8.427a.274.274 0 0 0 .33-.01a2.23 2.23 0 0 1 1.5-.354a.267.267 0 0 0 .3-.24a.274.274 0 0 0-.24-.3a2.7 2.7 0 0 0-1.9.465a.274.274 0 0 0 .01.439m7.001-.005a.275.275 0 0 0 .327.005a.273.273 0 0 0 .01-.438a2.73 2.73 0 0 0-1.9-.466a.274.274 0 0 0 .063.544a2.22 2.22 0 0 1 1.5.355"/><path fill="#533566" d="M15.997 2.001c.17-.004 3.133-.072 5.733 1.55c.99.61 1.19 1.96.39 2.79l-.678.718l.008.002l-.4.47c-.74.87-1.82 1.37-2.96 1.37H13.9c-1.14 0-2.22-.5-2.95-1.37l-.4-.47h-.01l-.68-.72c-.8-.84-.61-2.2.39-2.8c2.588-1.542 5.67-1.54 5.74-1.54z"/><path fill="#FCD53F" d="M16.05 5.521c.39 0 2.27.02 4.56.51c.49.1.84.53.84 1.03c-2.92-.76-5.45-.73-5.45-.73s-2.53-.03-5.45.73c0-.5.35-.93.84-1.03c2.29-.48 4.16-.51 4.56-.51z"/><path fill="#F9C23C" d="M16.104 4.271h1.4q.12-.002.18-.112l.55-.974c.04-.071-.01-.164-.09-.164h-1.4c-.08 0-.14.041-.18.113l-.55.974c-.04.071.01.163.09.163"/><path fill="#F9C23C" d="M15.89 4.281h-1.404q-.12-.002-.18-.113l-.542-.971c-.04-.073.01-.166.09-.166h1.405c.08 0 .14.042.18.114l.552.982c.03.062-.02.154-.1.154m6.829 15.501h.64c.13 0 .24.11.25.25c-.01.13-.12.22-.25.22h-.15a.11.11 0 0 0-.1.06l-.09.2c-.06.12-.18.2-.32.2h-1.07c-.14 0-.26-.08-.32-.2l-.09-.2a.11.11 0 0 0-.1-.06h-.16c-.13 0-.24-.12-.23-.25s.12-.22.25-.22h.62c.23 0 .44.13.54.33c0 .02.03.02.04 0c.1-.2.31-.33.54-.33"/><path fill="#FFB02E" d="M16 5.332a.875.875 0 1 0 0-1.75a.875.875 0 0 0 0 1.75"/><path fill="#FFF478" d="m16.058 3.937l.104.227c.009.02.028.03.047.04l.236.03c.047.01.075.068.038.108l-.17.178c-.02.02-.02.04-.02.059l.067.237c.019.05-.038.099-.085.079l-.246-.119a.06.06 0 0 0-.056 0l-.246.119a.063.063 0 0 1-.085-.08l.066-.236c.01-.02 0-.05-.018-.06l-.17-.177c-.038-.04-.02-.099.037-.109l.236-.03c.02 0 .038-.02.048-.039l.103-.227c.029-.05.085-.05.114 0"/></g></svg>