<svg xmlns="http://www.w3.org/2000/svg" xmlns:xlink="http://www.w3.org/1999/xlink" width="32" height="32" viewBox="0 0 32 32"><g fill="none"><path fill="#E39D89" d="M23.718 22.608c-1.252 1.11-2.451 1.752-3.578 2.059c-4.08 1.11-7.08-2.731-8.346-4.005c-1.226-1.219-4.384-3.67-3.629-7.52c.282-1.433 1.086-2.982 2.7-4.596c3.478-3.478 8.987-3.704 12.73-.671c4.62 3.752 4.574 10.792.123 14.733"/><path fill="#FBB8AB" d="m13.26 23.168l-4.874 5.608c-.81.81-2.276.372-3.21-.531l-.68-.761c-.76-.914-1.064-2.063-.254-2.873l5.467-5.003c.81-.81 2.13-.81 2.94 0l.61.61c.8.82.8 2.14 0 2.95"/><path fill="#E39D89" d="M4.188 24.668c.623-.57 2.118-.07 3.148.97c1.043 1.053 1.557 2.613.948 3.217l-.079.075c-.833.592-2.161.154-3.029-.685l-.68-.761c-.743-.893-1.05-2.01-.308-2.816"/><path fill="#E5336D" d="M24.823 21.74c-1.252 1.11-2.45 1.752-3.578 2.059c-4.08 1.11-7.08-2.73-8.346-4.005c-1.226-1.219-4.384-3.67-3.628-7.52c.28-1.433 1.085-2.982 2.7-4.596c3.477-3.478 8.987-3.704 12.729-.67c4.621 3.751 4.574 10.791.123 14.732"/><path fill="#E6E6E6" d="M15.158 9.057a3.158 3.158 0 1 0 0-6.316a3.158 3.158 0 0 0 0 6.316"/></g></svg>