<svg xmlns="http://www.w3.org/2000/svg" xmlns:xlink="http://www.w3.org/1999/xlink" width="32" height="32" viewBox="0 0 32 32"><g fill="none"><rect width="28" height="28" x="2" y="2" fill="#00A6ED" rx="4"/><path fill="#fff" d="M15.343 15.31a1 1 0 0 1 0 1.38l-5.869 6.16c-.623.654-1.724.213-1.724-.69V9.84c0-.903 1.101-1.344 1.724-.69zM17 9.5a.5.5 0 0 1 .5-.5h2a.5.5 0 0 1 .5.5v13a.5.5 0 0 1-.5.5h-2a.5.5 0 0 1-.5-.5zm4.5-.5a.5.5 0 0 0-.5.5v13a.5.5 0 0 0 .5.5h2a.5.5 0 0 0 .5-.5v-13a.5.5 0 0 0-.5-.5z"/></g></svg>