<svg xmlns="http://www.w3.org/2000/svg" xmlns:xlink="http://www.w3.org/1999/xlink" width="32" height="32" viewBox="0 0 32 32"><g fill="none"><path fill="#FFF9BA" d="M23.163 15.925a3.25 3.25 0 0 0-.224-3.24a3.14 3.14 0 0 1-.524-1.77v-.009a3.293 3.293 0 0 0-3.292-3.296a.54.54 0 0 1-.448-.234a3.284 3.284 0 0 0-5.35 0a.59.59 0 0 1-.458.225a3.293 3.293 0 0 0-3.292 3.296v.01a3.2 3.2 0 0 1-.523 1.769a3.3 3.3 0 0 0-.552 1.816c0 .515.112.993.327 1.424a.56.56 0 0 1 0 .459a3.2 3.2 0 0 0-.327 1.404C8.5 19.559 9.94 21 11.717 21h8.566a3.22 3.22 0 0 0 3.217-3.221c0-.506-.112-.983-.327-1.404a.5.5 0 0 1-.01-.45"/><path fill="#633589" d="m24 30l1-3.75l-1-3.75a9.3 9.3 0 0 0-1.5-1H9.355c-.477.27-.93.642-1.355 1l-1 3.75L8 30z"/><path fill="#8B62BF" d="M8 30H4.25a17 17 0 0 1 .639-2.645l.03-.09A11.1 11.1 0 0 1 8 22.5zm19.123-2.674c.283.878.485 1.766.627 2.674H24v-7.5a11 11 0 0 1 3.123 4.826"/><path fill="#774AA6" d="M24 22.5v6.12c1.96 1.31 4.58-.09 4.58-2.44c0-2.03-1.65-3.68-3.68-3.68zm-16 0v6.12c-1.96 1.3-4.58-.1-4.58-2.45c0-2.03 1.65-3.68 3.68-3.67z"/><path fill="#A17FD5" d="m22.5 21.5l-4.5 6c-.97 1.16-3.04 1.16-4 0l-4.624-6.012q.472-.266.975-.48S13.968 21 16 21c2.006 0 5.5.005 5.5.005q.511.22 1 .495"/><path fill="#E4B29A" d="M16 20c2.5 0 4.015.403 5.5 1l-4.278 5.872c-.261.302-.71.498-1.226.498c-.517 0-.961-.197-1.216-.496l-4.438-5.876C11.837 20.398 13.5 20 16 20m-3.5-5.25a1.5 1.5 0 1 1-3 0a1.5 1.5 0 0 1 3 0m10 0a1.5 1.5 0 1 1-3 0a1.5 1.5 0 0 1 3 0"/><path fill="#F3EEF8" d="M13.5 20.085a1 1 0 0 1-.398.799a1 1 0 0 1 .788 1.384a1 1 0 0 1 1.392.782a.998.998 0 0 1 1.586.012a1 1 0 0 1 1.38-.799a1 1 0 0 1 .799-1.38a.998.998 0 0 1 .603-1.798a1 1 0 0 1 .123 1.992a1 1 0 0 1-.992 1.72q.078.18.079.388a1 1 0 0 1-1.798.603a1 1 0 0 1-1.983.012a.998.998 0 0 1-1.789-.615q.002-.211.08-.393a1 1 0 0 1-1.002-1.715a1 1 0 1 1 1.132-.992"/><path fill="#EEBFAA" d="M11 12.502c.043-.903.561-1.257.788-1.367l.051-.024l.051-.024a2.28 2.28 0 0 0 1.172-1.23l.074-.188a.259.259 0 0 1 .456-.057a3.77 3.77 0 0 0 3.124 1.674h3.152c.177 0 1.097.095 1.116 1.438l.016.003l-.128 3.043c-.12 2.83-2.269 4.73-4.872 4.73c-2.613 0-4.751-1.901-4.872-4.73z"/><path fill="#000" d="M13.46 13c.6 0 1.09.41 1.4.88a39 39 0 0 1-.966.286c-.387.111-.773.222-1.174.354l-.51-.46a.444.444 0 0 1 .04-.69c.33-.24.79-.37 1.21-.37m5.205 0c-.6 0-1.09.41-1.4.88c.329.104.647.195.965.286c.388.111.774.222 1.175.354l.51-.46c.21-.19.19-.52-.04-.69c-.33-.24-.79-.37-1.21-.37"/><path fill="#fff" d="M12.21 14.24c.16-.65.74-1.13 1.44-1.13c.72 0 1.32.51 1.47 1.2c.03.15-.09.29-.24.29H12.5c-.19 0-.34-.18-.29-.36m7.705 0a1.48 1.48 0 0 0-1.44-1.13a1.5 1.5 0 0 0-1.47 1.2c-.03.15.09.29.24.29h2.38c.19 0 .34-.18.29-.36"/><path fill="#7D4533" d="M12.92 14.35a.95.95 0 1 1 1.9 0c0 .09-.01.17-.03.25h-1.84c-.02-.08-.03-.16-.03-.25m6.285 0a.95.95 0 1 0-1.9 0c0 .09.01.17.03.25h1.84c.02-.08.03-.16.03-.25"/><path fill="#000" d="M13.87 13.8c.3 0 .54.24.54.54c0 .09-.02.18-.06.25h-.96a.5.5 0 0 1-.06-.25c0-.3.24-.54.54-.54m4.385 0c-.3 0-.54.24-.54.54c0 .09.02.18.06.25h.96c.04-.07.06-.16.06-.25c0-.3-.24-.54-.54-.54"/><path fill="#fff" d="M13.71 13.97a.17.17 0 1 1-.34 0a.17.17 0 0 1 .34 0m4.77 0a.17.17 0 1 1-.34 0a.17.17 0 0 1 .34 0"/><path fill="#990838" d="M16 17.65a3.1 3.1 0 0 1-1.505-.378c-.15-.084-.309.094-.219.241c.369.598.997.987 1.724.987s1.355-.389 1.724-.987c.09-.147-.07-.325-.22-.241A3.2 3.2 0 0 1 16 17.65"/><path fill="#D19479" d="m15.642 14.285l-.494 1.746c-.101.36.146.719.485.719h.733c.348 0 .587-.36.486-.719l-.495-1.746c-.1-.38-.605-.38-.715 0"/><path fill="#37C9CD" d="M10.5 7.5a.5.5 0 1 1-1 0a.5.5 0 0 1 1 0m12 0a.5.5 0 1 1-1 0a.5.5 0 0 1 1 0"/><path fill="#F9C23C" d="m19.424 5.104l-1.942 2.17l3.518.75l-.892-2.78a.74.74 0 0 0 .535-.65a.757.757 0 0 0-.674-.82a.754.754 0 0 0-.545 1.33m-6.838.001l1.932 2.17l-3.518.75l.892-2.78a.74.74 0 0 1-.535-.65a.76.76 0 0 1 .674-.82a.75.75 0 0 1 .822.68c.02.25-.089.49-.267.65"/><path fill="#FFB02E" d="M22.69 4.587a.76.76 0 0 0-.71.69a.9.9 0 0 0 .05.37l-2.534.791a.36.36 0 0 1-.355-.09l-2.83-2.872a.77.77 0 0 0 .425-.79a.76.76 0 0 0-.661-.681a.767.767 0 0 0-.414 1.45l-2.82 2.883a.34.34 0 0 1-.355.09l-2.534-.78a.8.8 0 0 0 .05-.37a.765.765 0 0 0-.71-.691a.76.76 0 0 0-.79.83c.03.35.297.641.632.701c.089.02.187.01.266 0l.907 2.152c.06.14.197.23.345.23H21.34c.148 0 .286-.09.345-.23l.907-2.152c.089.02.178.02.276 0a.78.78 0 0 0 .631-.71a.777.777 0 0 0-.808-.821"/><path fill="#F92F60" d="M16 8a1.25 1.25 0 1 0 0-2.5A1.25 1.25 0 0 0 16 8"/><path fill="#00D1ED" d="M13 7.5a.5.5 0 1 1-1 0a.5.5 0 0 1 1 0m7 0a.5.5 0 1 1-1 0a.5.5 0 0 1 1 0"/><path fill="#A56953" d="M19.4 12.648a.22.22 0 0 0 .132.038c.095 0 .18-.047.227-.142a.265.265 0 0 0-.094-.37c-.029-.018-.9-.501-1.894-.321a.267.267 0 0 0-.218.312c.028.152.17.246.313.218c.736-.13 1.4.2 1.516.257zm-7.17-.095a.28.28 0 0 0 .238.133a.3.3 0 0 0 .132-.029c.01-.01.73-.407 1.534-.265a.256.256 0 0 0 .303-.218c.029-.142-.075-.284-.217-.312c-.954-.182-1.785.263-1.886.317l-.008.005a.273.273 0 0 0-.095.37"/></g></svg>