<svg xmlns="http://www.w3.org/2000/svg" xmlns:xlink="http://www.w3.org/1999/xlink" width="32" height="32" viewBox="0 0 32 32"><g fill="none"><path fill="#4E3233" d="M13 14.75a1.75 1.75 0 1 1-3.5 0a1.75 1.75 0 0 1 3.5 0Zm9.5 0a1.75 1.75 0 1 1-3.5 0a1.75 1.75 0 0 1 3.5 0Z"/><path fill="#0092E7" d="m24 30l-.096-7.068C21.814 21.035 18.907 20 15.912 20C12.899 20 10.1 21.064 8 22.853V30h16Z"/><path fill="#3BC6F6" d="M26.873 27.296c.283.88.485 1.79.627 2.71h-3.76v-7.61a11.207 11.207 0 0 1 3.134 4.9Zm-18.634-4.87v7.58H4.5c.141-.9.354-1.8.637-2.67l.03-.09a11.123 11.123 0 0 1 3.072-4.82Z"/><path fill="#FCD53F" d="M7.5 22v2.477a.5.5 0 0 0 1 .023a.5.5 0 0 0 .495.5a.513.513 0 0 0 .505-.502a.514.514 0 0 0 .5.502a.51.51 0 0 0 .5-.509a.5.5 0 0 0 1 .009a.5.5 0 0 0 .495.5a.513.513 0 0 0 .505-.523V22h-5Zm12 0v2.477a.5.5 0 0 0 1 .023a.5.5 0 0 0 .495.5a.513.513 0 0 0 .505-.502a.514.514 0 0 0 .5.502a.51.51 0 0 0 .5-.509a.5.5 0 0 0 1 .009a.5.5 0 0 0 .495.5a.513.513 0 0 0 .505-.523V22h-5Zm-4 .826h1v7.16h-1v-7.16Z"/><path fill="#FFF478" d="M7 20.75a.75.75 0 0 1 .75-.75h16.5a.75.75 0 0 1 .75.75v1a.75.75 0 0 1-.75.75h-4.5a.747.747 0 0 1-.48-.174A3.991 3.991 0 0 1 15.995 24a3.986 3.986 0 0 1-3.27-1.67a.747.747 0 0 1-.475.17h-4.5a.75.75 0 0 1-.75-.75v-1Zm11 4.75a.5.5 0 1 1-1 0a.5.5 0 0 1 1 0Zm0 3a.5.5 0 1 1-1 0a.5.5 0 0 1 1 0Z"/><path fill="#452829" d="M16 22.5c-1.107 0-2-.809-2-1.811V19.5h4v1.189c0 1.002-.893 1.811-2 1.811Z"/><path fill="#573739" d="m10.5 11.9l.346 5.473A4.189 4.189 0 0 0 14.998 21h2.015a4.188 4.188 0 0 0 4.151-3.627L21.5 11.9h-11Z"/><path fill="#fff" d="M12.01 14.39a1.483 1.483 0 0 1 2.904.08c.03.15-.1.29-.247.29h-2.371a.297.297 0 0 1-.286-.37Zm7.98 0a1.487 1.487 0 0 0-1.442-1.14c-.72 0-1.323.52-1.461 1.22c-.03.15.098.29.246.29h2.371c.188 0 .336-.18.286-.37Z"/><path fill="#7D4533" d="M12.73 14.5c0-.53.425-.96.949-.96c.523 0 .948.43.948.97c0 .08-.01.17-.02.25H12.77a.793.793 0 0 1-.04-.26Zm6.55 0c0-.53-.425-.96-.949-.96a.971.971 0 0 0-.968.96c0 .09.02.18.04.26h1.837c.03-.09.04-.17.04-.26Z"/><path fill="#000" d="M13.679 13.95c.296 0 .543.25.543.55c0 .09-.03.17-.069.26h-.958a.59.59 0 0 1-.06-.26c0-.3.248-.55.544-.55Zm4.652 0a.551.551 0 0 0-.543.55c0 .09.02.17.069.26h.958a.59.59 0 0 0 .06-.26c0-.3-.248-.55-.544-.55Z"/><path fill="#fff" d="M13.52 14.12c0 .094-.074.17-.167.17a.169.169 0 0 1-.168-.17c0-.094.075-.17.168-.17c.093 0 .168.076.168.17Zm4.683 0a.17.17 0 0 1-.168.17a.169.169 0 0 1-.168-.17c0-.094.075-.17.168-.17a.17.17 0 0 1 .168.17Z"/><path fill="#3D2123" d="m15.59 14.244l-.565 1.748c-.111.359.162.718.556.718h.838c.394 0 .667-.36.556-.719l-.566-1.747c-.131-.379-.697-.379-.818 0Z"/><path fill="#290118" d="M16.002 17.907a3.104 3.104 0 0 1-1.51-.386c-.145-.082-.31.091-.213.244c.368.589 1.007.985 1.723.985c.726 0 1.365-.396 1.723-.985c.087-.153-.068-.326-.213-.244a3.103 3.103 0 0 1-1.51.386Z"/><path fill="#37C9CD" d="M10.75 9.5a.75.75 0 1 1-1.5 0a.75.75 0 0 1 1.5 0Zm12 0a.75.75 0 1 1-1.5 0a.75.75 0 0 1 1.5 0Z"/><path fill="#000" d="M19.963 7.498c.238.228.506.428.804.577l.377 2.289L21.5 12s.23 1 .16 1.42c-.069.42-.307.517-.605.537c0 0 .05-.856.09-1.413a.91.91 0 0 0-.308-.757l-.2-.169a1.162 1.162 0 0 1-.386-.876v-.856a.523.523 0 0 0-.398-.517c-.625-.16-1.976-.428-3.853-.428c-1.877 0-3.228.268-3.853.418a.543.543 0 0 0-.398.517v.856c0 .339-.149.657-.397.886l-.179.16a.94.94 0 0 0-.307.756c.04.557.099 1.423.099 1.423a.657.657 0 0 1-.626-.537c-.06-.309.161-1.42.161-1.42l.465-1.636l.268-2.29c.298-.148.566-.338.794-.576l1.004-.996a1.855 1.855 0 0 1 2.145-.348a2.437 2.437 0 0 0 1.638 0c.934-.418 1.718-.08 2.334.527l.815.817Z"/><path fill="#F9C23C" d="M12.11 5.346L11 7.906l3.43-.4l-1.65-2.24c.19-.13.31-.34.31-.59c0-.4-.32-.72-.72-.72a.719.719 0 0 0-.26 1.39Zm7.71 0l1.11 2.56l-3.43-.4l1.65-2.24a.703.703 0 0 1-.31-.59c0-.4.32-.72.72-.72a.719.719 0 0 1 .26 1.39Z"/><path fill="#FFB02E" d="M23.498 5.164c.031-.44-.37-.802-.832-.743a.724.724 0 0 0-.637.606a.66.66 0 0 0 .124.48a.677.677 0 0 0-.35.097l-2.116 1.291a.649.649 0 0 1-.842-.146l-2.342-3.032c-.02-.02-.04-.049-.061-.068c.308-.167.513-.49.472-.851c-.04-.411-.38-.744-.811-.792c-.555-.06-1.027.352-1.027.87c0 .332.195.626.482.773c-.02.02-.04.039-.061.068l-2.342 3.032a.638.638 0 0 1-.842.146l-2.117-1.29a.677.677 0 0 0-.349-.098a.707.707 0 0 0 .124-.48a.724.724 0 0 0-.637-.606c-.473-.059-.863.303-.832.743c.02.245.185.46.41.577a.773.773 0 0 0 .401.079a.53.53 0 0 0-.061.4l1.18 5.68c.013.058.064.1.123.1h10.89c.06 0 .11-.042.122-.1l1.181-5.68a.581.581 0 0 0-.061-.4c.123.01.257 0 .4-.069a.74.74 0 0 0 .411-.587Z"/><path fill="#00D1ED" d="M16 10.627c.69 0 1.25-.547 1.25-1.22c0-.675-.56-1.221-1.25-1.221s-1.25.546-1.25 1.22c0 .674.56 1.221 1.25 1.221Z"/><path fill="#F92F60" d="M13.5 9.5a.75.75 0 1 1-1.5 0a.75.75 0 0 1 1.5 0Zm6.5 0a.75.75 0 1 1-1.5 0a.75.75 0 0 1 1.5 0Z"/></g></svg>