<svg xmlns="http://www.w3.org/2000/svg" xmlns:xlink="http://www.w3.org/1999/xlink" width="32" height="32" viewBox="0 0 32 32"><g fill="none"><path fill="#212121" d="M5 27.99c0 .76.61 1.37 1.37 1.37s1.37-.61 1.37-1.37v-1.37H5zm19.15 0c0 .76.61 1.37 1.37 1.37c.75 0 1.37-.61 1.37-1.37v-1.37h-2.74z"/><path fill="#9B9B9B" d="M27 5a1 1 0 0 1-1.705.71L7.967 9.12l-.193-.98l17.26-3.398A1 1 0 0 1 27 5"/><path fill="#D3D3D3" d="M6.84 11.85a2.04 2.04 0 1 0 0-4.08a2.04 2.04 0 0 0 0 4.08"/><path fill="#9B9B9B" d="M27.38 9.81H4.63C3.18 9.81 2 10.99 2 12.44v12.25c0 1.45 1.18 2.63 2.63 2.63h22.75c1.45 0 2.63-1.18 2.63-2.63V12.43a2.63 2.63 0 0 0-2.63-2.62"/><path fill="#83CBFF" d="M26.32 12.76h-7.87c-.66 0-1.2.54-1.2 1.2v4.83c0 .66.54 1.2 1.2 1.2h7.87c.66 0 1.2-.54 1.2-1.2v-4.83c0-.66-.54-1.2-1.2-1.2"/><path fill="#F8312F" d="M19.88 15.83c-.44 0-.79.36-.79.79v3.36h1.59v-3.36a.807.807 0 0 0-.8-.79"/><path fill="#212121" d="M14.83 14.12a.68.68 0 0 0 0-1.36H5.18a.68.68 0 0 0 0 1.36zm.68 1.84c0 .38-.31.68-.68.68H5.18a.68.68 0 0 1 0-1.36h9.65c.38-.01.68.3.68.68m-.68 3.19a.68.68 0 0 0 0-1.36H5.18a.68.68 0 0 0 0 1.36zm.68 1.84c0 .38-.31.68-.68.68H5.18a.68.68 0 0 1 0-1.36h9.65c.38-.01.68.3.68.68m0 2.51c0 .38-.31.68-.68.68H5.18a.68.68 0 0 1 0-1.36h9.65c.38 0 .68.31.68.68"/><path fill="#F4F4F4" d="M21.04 22.92a1.25 1.25 0 1 1-2.5 0a1.25 1.25 0 0 1 2.5 0m5.58 0a1.25 1.25 0 1 1-2.5 0a1.25 1.25 0 0 1 2.5 0"/></g></svg>