<svg xmlns="http://www.w3.org/2000/svg" xmlns:xlink="http://www.w3.org/1999/xlink" width="32" height="32" viewBox="0 0 32 32"><g fill="none"><path fill="#C68D7B" d="m28.992 16.738l.008.005C29 21.33 26.373 30 16.114 30C3.9 30 3.964 19.017 4.004 12.105l.004-.527A3 3 0 0 1 4 11.36V8.188c0-2.7 2.125-3.459 3.188-3.5c1.074 0 1.782.274 2.251.598c.593-1.715 1.974-2.093 2.754-2.13c1.864 0 2.83.871 3.117 1.401c.616-2.069 2.237-2.515 3.138-2.557c2.193 0 3.208 1.575 3.505 2.328q.018.047.035.116c.402-2.16 1.684-2.335 2.898-2.335c2.192 0 3.348 1.938 3.348 3.266c0 .391 0 .967-.002 1.61c-.002 1.538-.006 3.46.002 4.156c.005.351.006.912.006 1.488c.738 1.332.787 2.916.752 4.109"/><path fill="#A9715F" d="M23.008 5.188c0-1.748.502-2.603.922-2.947c-1.116.205-2.07.99-2.07 3.868c0 1.3.027 2.628.049 3.496c-3.812.126-5.123 1.24-5.565 2.36V5.886c0-2.134.484-3.198.9-3.64C16.17 2.68 15 3.803 15 6.54v4.116c0 .596.047 1.112.132 1.559c-.102 1.021-.601 2.393-2.94 2.393c-.63 0-1.4-.315-2.008-.945v-7.49c0-.986.106-1.74.261-2.31c-.7.561-1.289 1.58-1.289 3.398v3.665c0 1.085.35 1.93.848 2.535c-.444.617-1.278 1.147-2.816 1.147c-.962 0-2.795-.87-3.134-2.612c.046 1.063.649 4.972 3.333 4.972c1.426 0 2.28-.5 2.725-1.063c.286.563 1.344 1.063 2.656 1.063c1.46 0 2.53-1.063 2.53-1.063s.757.684 1.783.954c-2.251.715-4.73 1.999-6.81 4.286a.5.5 0 1 0 .74.672c2.508-2.758 5.654-3.962 8.194-4.475a18.3 18.3 0 0 1 3.17-.355q.345-.007.602-.002c.258.534.447 1.153.628 1.745c.375 1.224.714 2.331 1.551 2.331q.166 0 .328-.015c.785-.277 1.453-.895 1.453-1.75c0-2.058-1.325-3.766-4.55-3.766c-4.196 0-4.293-1.65-4.293-2.969c0-2.796 6.656-2.421 6.656-2.421a6.6 6.6 0 0 0-1.25-.517q-.24-.018-.492-.025z"/></g></svg>