<svg xmlns="http://www.w3.org/2000/svg" xmlns:xlink="http://www.w3.org/1999/xlink" width="32" height="32" viewBox="0 0 32 32"><g fill="none"><path fill="#C68D7B" d="M9.513 13c.004-.94-.554-1.713-1.5-1.75c-.966-.037-1.679.784-1.716 1.75v.636a1.5 1.5 0 0 0-1.258-.577c-.828.042-1.567.614-1.526 1.441V16c-.307-.257-.545-.42-.974-.369c-1.159.14-1.625 1.046-1.526 1.869l1 7.5c.5 2.5 2.568 5 5.5 5c2 0 4.014-1.557 4.5-3.5c.839-3.357 3.086-6.547 3.086-6.547c1-1.5-.086-2.953-1.086-2.953c-.5 0-1.5 0-2 1.5l.5-4.5c.091-.962-.758-1.68-1.5-1.75c-.605-.057-1.143.311-1.5.75M22.5 13c-.005-.94.554-1.713 1.5-1.75c.966-.037 1.679.784 1.716 1.75v.636c.29-.372.751-.602 1.258-.577c.828.042 1.567.614 1.526 1.441V16c.306-.257.545-.42.974-.369c1.159.14 1.625 1.046 1.526 1.869L30 25c-.5 2.5-2.569 5-5.5 5c-2 0-4.014-1.557-4.5-3.5c-.84-3.357-3.086-6.547-3.086-6.547C15.914 18.453 17 17 18 17c.5 0 1.5 0 2 1.5l-.5-4.5c-.091-.962.758-1.68 1.5-1.75c.605-.057 1.143.311 1.5.75"/><path fill="#A9715F" d="M11.168 12.274a1 1 0 0 0-.155-.024c-.59-.056-1.116.293-1.472.716a3 3 0 0 0-.037.225c-.078.65-.228 3.594-.27 4.87a.5.5 0 0 0 1 .033c.042-1.285.19-4.185.262-4.784c.067-.555.358-.816.672-1.036M6.297 13.63V13c.008-.212.049-.418.118-.608c.368.178.648.548.831.879c.21.376.366.828.4 1.233c.075.874.137 2.778.12 3.655a.5.5 0 0 1-1-.02c.017-.842-.044-2.71-.116-3.55a2.25 2.25 0 0 0-.353-.958m-2.834 2.328l.05.041v-1.193c.384.132.705.462.928.765c.255.347.466.776.552 1.174c.184.858.368 2.025.458 2.898a.5.5 0 0 1-.995.102a29 29 0 0 0-.441-2.79a2.25 2.25 0 0 0-.552-.997m8.614 2.363C12.594 17 13.533 17 14.013 17c.192 0 .387.054.57.15l.003.035a1.62 1.62 0 0 0-.981.474c-.308.307-.603.818-.753 1.663a.5.5 0 1 1-.985-.175q.08-.45.21-.825m10.369-5.386c-.356-.41-.87-.74-1.446-.686a1.4 1.4 0 0 0-.17.027c.313.22.601.48.667 1.033c.072.6.22 3.499.263 4.784a.5.5 0 0 0 1-.032c-.042-1.277-.192-4.221-.27-4.872a3 3 0 0 0-.044-.254m-5.036 4.226A1.2 1.2 0 0 1 18 17c.442 0 1.276 0 1.809 1.039q.205.482.318 1.108a.5.5 0 1 1-.985.175c-.15-.845-.445-1.356-.753-1.663a1.63 1.63 0 0 0-.982-.474zM28.5 14.8v1.191a2.25 2.25 0 0 0-.521.964a33 33 0 0 0-.287 1.706l-.111.777l-.033.237l-.012.086a.5.5 0 0 1-.99-.132l.011-.09a104 104 0 0 1 .146-1.024c.09-.604.204-1.331.298-1.77c.085-.397.297-.826.552-1.173c.226-.308.555-.644.947-.772m-2.905-2.416c.07.193.113.4.12.616v.602a2.25 2.25 0 0 0-.372.988c-.034.41-.064 1.293-.084 2.092a186 186 0 0 0-.029 1.356l-.002.118a.5.5 0 0 1-1-.015l.002-.12l.006-.325c.006-.271.013-.642.024-1.04c.02-.788.05-1.705.087-2.152c.035-.405.191-.857.4-1.233c.187-.335.472-.712.848-.887"/><path fill="#46A4FB" d="m15.532 8.752l-.779-2.076A.5.5 0 0 1 15.222 6h1.557a.5.5 0 0 1 .468.676l-.779 2.076a.5.5 0 0 1-.936 0m3.56.543l.685-2.109a.5.5 0 0 1 .787-.236l1.218.97a.5.5 0 0 1-.055.82l-1.903 1.138a.5.5 0 0 1-.732-.583m-6.184 0l-.685-2.109a.5.5 0 0 0-.787-.236l-1.218.97a.5.5 0 0 0 .055.82l1.903 1.138a.5.5 0 0 0 .732-.583"/></g></svg>