<svg xmlns="http://www.w3.org/2000/svg" xmlns:xlink="http://www.w3.org/1999/xlink" width="32" height="32" viewBox="0 0 32 32"><g fill="none"><path fill="#FFB02E" d="M25.897 25.899c6.6-6.6 5.467-14.33 0-19.798S12.7-.499 6.1 6.101S.633 20.431 6.1 25.9s13.197 6.6 19.797 0"/><path fill="#402A32" d="M15.051 5.784a1 1 0 1 1 1.898.633l-.782 2.345l2.345-.782a1 1 0 1 1 .633 1.898l-4.243 1.414a1 1 0 0 1-1.265-1.265zm-9.267 9.267a1 1 0 1 0 .633 1.898l2.345-.782l-.782 2.345a1 1 0 0 0 1.898.633l1.414-4.243a1 1 0 0 0-1.265-1.265z"/><path fill="#BB1D80" d="M22.364 22.364c-6.364 6.364-12.728 0-12.728 0L22.364 9.636s6.364 6.364 0 12.728"/><path fill="#fff" d="m10.697 22.01l-.354-.353l11.314-11.314l.353.354a1 1 0 0 1 0 1.414l-9.9 9.9a1 1 0 0 1-1.413 0"/><path fill="#3F5FFF" d="M11.05 22.364v4.766a2.121 2.121 0 1 1-4.242 0v-4.766a2.121 2.121 0 1 1 4.242 0m11.49-11.49h4.766a2.121 2.121 0 0 0 0-4.243h-4.765a2.121 2.121 0 1 0 0 4.243"/></g></svg>