<svg xmlns="http://www.w3.org/2000/svg" xmlns:xlink="http://www.w3.org/1999/xlink" width="32" height="32" viewBox="0 0 32 32"><g fill="none"><path fill="#FF6723" d="M14.85 28.5h-.92l1.11-4.25h-1.5l-1.11 4.25h-1.2c-.66 0-1.19.53-1.19 1.19c0 .17.14.31.31.31h5.38c.17 0 .31-.14.31-.31c0-.66-.54-1.19-1.19-1.19"/><path fill="#FF822D" d="m5.03 10.25l-1.81-.77a.368.368 0 0 1-.09-.62l2.36-1.98L6 9zm12.9 18.25h.92c.65 0 1.19.53 1.19 1.19c0 .17-.14.31-.31.31h-5.38c-.17 0-.31-.14-.31-.31c0-.66.53-1.19 1.19-1.19h1.2l1.11-4.25h1.5z"/><path fill="#6D4534" d="M5 15v-3l4.36-2.24L13.957 12l.16.31A3.13 3.13 0 0 0 16.895 14c.61 0 1.105-.49 1.105-1.1l9.45 4.1a.81.81 0 0 0-.78.62C25.502 22.43 21.164 26 15.996 26C9.918 26 5 21.08 5 15"/><path fill="#44911B" d="M18 10.74V13a4 4 0 0 0 4 4h6.53c.2 0 .39-.13.44-.33s-.04-.39-.2-.49l-1.84-1.06a.505.505 0 0 1-.21-.66c.13-.26.45-.36.7-.21l1.56.9c.44.25.91.06 1-.44a.67.67 0 0 0-.32-.7l-2.72-1.57a.505.505 0 0 1-.21-.66c.13-.26.45-.36.7-.21l1.56.9c.44.25.91.06 1-.44a.67.67 0 0 0-.32-.7l-2.72-1.57a.505.505 0 0 1-.21-.66c.13-.26.45-.36.7-.21l1.85 1.07c.28.16.62-.09.54-.41C29.16 6.93 26.8 5 23.992 5A6.004 6.004 0 0 0 18 10.74"/><path fill="#FFB02E" d="m13.96 12l-2.069-4l-.391-2.5c-.5-.96-2.34-2-3.5-2c-2.5 0-3 1.84-3 3.5v5z"/><path fill="#F8312F" d="M13.03 4.01c-.49-.49-1.18-.67-1.82-.54c-.15.03-.29-.05-.35-.2A2.01 2.01 0 0 0 9 2c-.7 0-1.31.36-1.67.9c-.09.14-.26.2-.42.16Q6.685 3 6.46 3C5.64 3.02 5 3.72 5 4.54V7a2.996 2.996 0 0 1 5.66-1.38l1.227 2.373L13.04 6.84c.78-.78.78-2.04-.01-2.83"/><path fill="#F8312F" d="M7.25 10.25A2.25 2.25 0 1 0 5 8v1.26c0 .45-.26.87-.66 1.07l-.41.2c-.57.29-.93.87-.93 1.51v.93c0 .54.41 1 .95 1.03c.57.03 1.05-.43 1.05-1v-1.84c0-.5.41-.91.91-.91z"/><path fill="#212121" d="M6.7 8.4a.7.7 0 1 0 0-1.4a.7.7 0 0 0 0 1.4"/><path fill="#A56953" d="M8.11 16c-.55 0-.96.51-.84 1.05c.93 3.98 4.51 6.95 8.77 6.95s7.83-2.97 8.76-6.95a.857.857 0 0 0-.84-1.05z"/></g></svg>