<svg xmlns="http://www.w3.org/2000/svg" xmlns:xlink="http://www.w3.org/1999/xlink" width="32" height="32" viewBox="0 0 32 32"><g fill="none"><path fill="#86D72F" d="M15 30h3.867c3.276 0 5.963-2.545 6.133-5.68a.297.297 0 0 0-.3-.32l-3.506.01A5.27 5.27 0 0 0 17 26.169V22l1.34-.65c.27-.13.27-.52 0-.65L17 20.03v-1.8h-2v6.73l-1.35.67c-.27.13-.27.52 0 .65l1.35.67z"/><path fill="#CA0B4A" d="M14.79 12.13h.86c.04 0 .08-.01.12-.02c.07.03.14.06.22.06h.87c2.13 0 3.86-1.73 3.86-3.86V2.54c0-.28-.22-.5-.5-.5h-.87c-1.57 0-2.91.94-3.52 2.28A3.82 3.82 0 0 0 12.31 2h-.86c-.29 0-.52.23-.52.51v5.76c0 2.13 1.73 3.86 3.86 3.86"/><path fill="#F8312F" d="M11 4.5s3 0 5 3c2-3 5-3 5-3h1.113c.682 0 1.108.646.805 1.258C22.484 6.63 22 7.712 22 9c0 .944.223 1.554.458 2.198c.263.72.542 1.482.542 2.802c0 2.5-1 5-7 5s-7-2.5-7-5c0-1.03.25-1.765.5-2.5s.5-1.47.5-2.5c0-1.201-.36-2.222-.757-3.063c-.318-.672.132-1.437.875-1.437z"/></g></svg>