<svg xmlns="http://www.w3.org/2000/svg" xmlns:xlink="http://www.w3.org/1999/xlink" width="32" height="32" viewBox="0 0 32 32"><g fill="none"><path fill="#FF6723" d="M29.646 7.513c-.41-2.013-1.55-3.06-1.922-3.235c-.496-.661-2.696-2.694-7.872-2.2c-8.343.798-17.67 10.714-17.826 18.949c-.086 4.554 1.89 6.378 1.89 6.378s1.303 2.074 4.899 2.477c12.285 1.375 23.373-9.908 20.83-22.37"/><path fill="#FF6723" d="M22.28 2.837c2.933-.29 4.626.457 5.363 1.238c.79.837.894 2.294.558 3.73c-1.887 8.064-9.935 15.961-17.189 19.243c-2.425 1.097-5.267 1.842-6.973.542c-.996-.759-1.282-3.753-1.162-5C3.9 11.99 12.437 3.812 22.28 2.837"/><path fill="#F9C23C" d="M28.62 12.778c.538-.416.915-.511 1.225-.357c.55.273-.233 3.715-.837 5.232l-.017.044c-.905 2.27-2.87 7.201-9.934 10.746c-1.373.69-6.305 2.126-6.596 1.316c-.313-.875.89-1.803 1.402-2.19c2.005-1.523 5.198-3.584 7.442-5.767c1.68-1.636 4.205-4.99 5.3-6.641c.419-.599 1.407-1.913 2.015-2.383M2.141 17.68l.002-.013c.783-6.657 6.175-11.579 10.066-13.73c3.112-1.722 6.533-1.998 7.347-1.836c-1.271.419-1.007.356-4.511 1.928C8.419 7 5.591 11.854 3.913 15.268c-.467.95-1.368 2.895-1.77 4.35c-.188-.356-.05-1.524-.002-1.938"/><path fill="#F9C23C" d="M22.97 5.655c3.16 2.595 3.61 6.672-3.772 14.11c-6.212 6.26-10.576 6.328-13.201 3.645s-.679-9.197 3.905-13.67C14.486 5.268 20.28 3.446 22.97 5.655"/></g></svg>