<svg xmlns="http://www.w3.org/2000/svg" xmlns:xlink="http://www.w3.org/1999/xlink" width="32" height="32" viewBox="0 0 32 32"><g fill="none"><path fill="#44911B" d="M16 8c-2.5 0-4-2-4-2v4h8V6s-1.5 2-4 2"/><path fill="#44911B" d="M12.25 2h-3.5a.75.75 0 0 0-.75.75V11a2 2 0 0 1-2 2h-.25a.75.75 0 0 0-.75.75v14.035l.216-.125L23.87 7l.13-.362V2.75a.75.75 0 0 0-.75-.75h-3.5a.75.75 0 0 0-.75.75V7a3 3 0 1 1-6 0V2.75a.75.75 0 0 0-.75-.75m11.776 9.322l-.272.114L7.346 29.674L7.244 30H5.75h20.5a.75.75 0 0 0 .75-.75v-15.5a.75.75 0 0 0-.75-.75H26a2 2 0 0 1-1.974-1.678"/><path fill="#FCD53F" d="M7.244 30H5.75a.75.75 0 0 1-.75-.75v-1.465L24 6.638V11q0 .165.026.322z"/></g></svg>