<svg xmlns="http://www.w3.org/2000/svg" xmlns:xlink="http://www.w3.org/1999/xlink" width="32" height="32" viewBox="0 0 32 32"><g fill="none"><path fill="#FFB02E" d="M15.999 29.998c9.334 0 13.999-6.268 13.999-14c0-7.73-4.665-13.998-14-13.998C6.665 2 2 8.268 2 15.999s4.664 13.999 13.999 13.999"/><path fill="#fff" d="M10.42 19.224a4.206 4.206 0 1 0 0-8.411a4.206 4.206 0 0 0 0 8.411m11.148.077a4.244 4.244 0 1 0 0-8.489a4.244 4.244 0 0 0 0 8.49"/><path fill="#402A32" d="M10.017 6.37c-.19.703-.525 1.355-1.065 1.83c-.533.467-1.307.8-2.452.8a.5.5 0 0 0 0 1c1.355 0 2.373-.4 3.112-1.049c.73-.642 1.146-1.49 1.37-2.32a.5.5 0 1 0-.965-.262m11.966.001c.19.703.525 1.355 1.065 1.83c.533.467 1.307.8 2.452.8a.5.5 0 0 1 0 1c-1.355 0-2.373-.4-3.112-1.049c-.73-.642-1.146-1.49-1.37-2.32a.5.5 0 1 1 .965-.262M16 23c-1.286 0-2.014.428-2.293.707a1 1 0 0 1-1.414-1.414C13.013 21.573 14.286 21 16 21c1.64 0 2.981.567 3.707 1.293a1 1 0 0 1-1.414 1.414C18.019 23.433 17.228 23 16 23m-2-8a3 3 0 1 1-6 0a3 3 0 0 1 6 0m10 0a3 3 0 1 1-6 0a3 3 0 0 1 6 0"/><path fill="#3F5FFF" d="M1 19.5a2.5 2.5 0 0 1 5 0v4a2.5 2.5 0 0 1-5 0z"/></g></svg>