<svg xmlns="http://www.w3.org/2000/svg" xmlns:xlink="http://www.w3.org/1999/xlink" width="32" height="32" viewBox="0 0 32 32"><g fill="none"><path fill="#8D65C5" d="M2 6a4 4 0 0 1 4-4h20a4 4 0 0 1 4 4v20a4 4 0 0 1-4 4H6a4 4 0 0 1-4-4z"/><path fill="#fff" d="M25 7v-.1c0-.02 0-.03-.01-.05c0-.02 0-.03-.01-.05c0-.02-.01-.03-.01-.05c0-.01-.01-.03-.01-.04c0-.02-.01-.03-.02-.05c-.01-.01-.01-.03-.02-.04c-.01-.02-.01-.03-.02-.04s-.01-.03-.02-.04a.1.1 0 0 1-.02-.04c-.01-.01-.02-.03-.03-.04c-.01-.02-.02-.03-.03-.04l-.03-.03a1 1 0 0 0-.14-.14c-.01-.01-.02-.02-.03-.02c-.02-.01-.03-.02-.05-.03c-.01-.01-.03-.02-.04-.03a.1.1 0 0 0-.04-.02c-.01-.01-.03-.01-.04-.02c-.02-.01-.03-.01-.05-.02c-.01-.01-.03-.01-.04-.02c-.02-.01-.03-.01-.05-.02c-.01 0-.03-.01-.04-.01c-.02 0-.03-.01-.05-.01s-.03-.01-.05-.01s-.03-.01-.05-.01H15c-.55 0-1 .45-1 1s.45 1 1 1h6.59L13 16.59l-2.29-2.29a.996.996 0 1 0-1.41 1.41L11.59 18L6.3 23.29a.996.996 0 0 0 0 1.41c.19.2.44.3.7.3s.51-.1.71-.29l5.29-5.3l2.29 2.29c.2.2.45.3.71.3s.51-.1.71-.29a.996.996 0 0 0 0-1.41l-2.3-2.3L23 9.41V16c0 .55.45 1 1 1s1-.45 1-1z"/></g></svg>