<svg xmlns="http://www.w3.org/2000/svg" xmlns:xlink="http://www.w3.org/1999/xlink" width="32" height="32" viewBox="0 0 32 32"><g fill="none"><path fill="#CDC4D6" d="m26.217 8.65l1.71 1.97a8.4 8.4 0 0 1 2.07 5.53v12.91c0 .52-.42.94-.94.94h-14.13c-.52 0-.94-.42-.94-.94V16.15c0-2.03.74-4 2.07-5.53l1.71-1.97c.55-.64.48-1.61-.18-2.13a7 7 0 0 1-.584-.52l4.957-.93l5.021.93q-.278.276-.584.52c-.65.53-.73 1.5-.18 2.13M28.392 4a7 7 0 0 0 .485-1.39a.492.492 0 0 0-.48-.61h-12.8c-.32 0-.56.3-.49.61q.173.728.485 1.39l6.368.82z"/><path fill="#B4ACBC" d="m2.151 23l-.144-1.16c-.06-.45.29-.84.74-.84h11.81c.45 0 .8.39.74.84L15.152 23l-6.466.723zm.249 2l.317 2.54A2.81 2.81 0 0 0 5.507 30h6.29a2.81 2.81 0 0 0 2.79-2.46l.316-2.54l-6.217-.824z"/><path fill="#0084CE" d="M15.597 4h12.8c-.35.75-.83 1.42-1.41 2h-9.98a7 7 0 0 1-1.41-2m-.69 21H2.396l-.25-2h13.01z"/></g></svg>