<svg xmlns="http://www.w3.org/2000/svg" xmlns:xlink="http://www.w3.org/1999/xlink" width="32" height="32" viewBox="0 0 32 32"><g fill="none"><path fill="#F8312F" d="M21.2 2H13C9.13 2 6 5.13 6 9h16.96v4.14c.16-.03.33-.05.51-.05c1.56 0 2.82 1.26 2.82 2.82c0 1.12-.65 2.08-1.59 2.54L26.2 23h2V9c0-3.87-3.14-7-7-7"/><path fill="#4E3233" d="M9 16a3 3 0 1 1-6 0a3 3 0 0 1 6 0m18 0a3 3 0 1 1-6 0a3 3 0 0 1 6 0"/><path fill="#573739" d="m6.63 22.746l-.61-9.759A8.53 8.53 0 0 1 7.5 7.545l14.81-.236a8.44 8.44 0 0 1 1.669 5.678l-.679 9.759C23.01 25.819 20.635 28 17.74 28h-5.55c-2.895 0-5.271-2.191-5.56-5.254"/><path fill="#E6E6E6" d="M8.192 12.53c.19.24.47.37.76.37c.2 0 .4-.06.56-.19l.005-.003c.077-.054.933-.652 2.186-.497a.945.945 0 1 0 .22-1.88c-2.07-.25-3.5.83-3.56.88a.95.95 0 0 0-.17 1.32m12.03.19c.17.13.37.19.57.19c.28 0 .56-.13.75-.36a.95.95 0 0 0-.17-1.33c-.06-.05-1.49-1.13-3.56-.88a.945.945 0 1 0 .22 1.88c1.27-.16 2.14.46 2.19.5"/><path fill="#fff" d="M8.013 15.38a2.416 2.416 0 0 1 2.34-1.82c1.17 0 2.15.84 2.36 1.94c.05.25-.14.47-.39.47h-3.85c-.3 0-.53-.29-.46-.59m13.557 0a2.416 2.416 0 0 0-2.34-1.82c-1.17 0-2.15.84-2.36 1.94c-.05.25.14.47.39.47h3.85c.3 0 .53-.29.46-.59"/><path fill="#7D4533" d="M9.163 15.56c0-.85.69-1.54 1.54-1.54c.86 0 1.55.7 1.55 1.54c0 .14-.02.28-.06.41h-2.97c-.04-.13-.06-.27-.06-.41m11.247 0c0-.85-.69-1.54-1.54-1.54s-1.54.7-1.55 1.54c0 .14.02.28.06.41h2.97c.04-.13.06-.27.06-.41"/><path fill="#000" d="M10.713 14.68c.49 0 .88.39.88.88c0 .15-.04.28-.11.41h-1.55a.9.9 0 0 1-.1-.41c0-.49.39-.88.88-.88m8.157 0c-.49 0-.88.39-.88.88c0 .15.04.28.1.41h1.56c.06-.12.1-.26.1-.41c0-.49-.39-.88-.88-.88"/><path fill="#fff" d="M10.453 14.96a.27.27 0 1 1-.54 0a.27.27 0 0 1 .54 0m8.207 0a.27.27 0 1 1-.54 0a.27.27 0 0 1 .54 0"/><path fill="#D3D3D3" d="M24.438 23.69c-.162-1.1-.273-2.22-.333-3.33V8L22.59 9l-.1 10.82c-.01.67-.344 1.3-.888 1.69c-.888.62-2.246.47-2.952-.35a1.86 1.86 0 0 0-1.413-.64h-4.575c-.545 0-1.06.23-1.413.64a2.12 2.12 0 0 1-2.815.35a2.07 2.07 0 0 1-.888-1.69L7.437 9H5.922v10.56c-.05 1.38-.172 2.76-.363 4.13a5.854 5.854 0 0 0 4.005 6.41c1.554.5 3.41.89 5.409.9h.06c1.998-.01 3.854-.4 5.408-.9a5.85 5.85 0 0 0 3.996-6.41"/><path fill="#290118" d="M12 20.03v.07c0 1.71 1.39 3.1 3.1 3.1s3.1-1.39 3.1-3.1v-.07z"/><path fill="#E6E6E6" d="M21.702 20.91a1.056 1.056 0 0 0-1.441 0a.59.59 0 0 1-.767.02l-.828-.691A3.22 3.22 0 0 0 16.6 19.5h-3.2c-.757 0-1.493.262-2.065.739l-.829.69a.59.59 0 0 1-.766-.02a1.056 1.056 0 0 0-1.442 0a.935.935 0 0 0 0 1.372a2.68 2.68 0 0 0 1.84.719a2.64 2.64 0 0 0 1.718-.622l.828-.69a1.1 1.1 0 0 1 .705-.253H16.6c.265 0 .51.087.705.253l.828.69c.49.408 1.104.622 1.718.622a2.68 2.68 0 0 0 1.84-.72a.927.927 0 0 0 .01-1.37"/><path fill="#3D2123" d="m14.383 15.474l-.844 2.852c-.171.582.246 1.174.835 1.174h1.252c.589 0 1.006-.592.835-1.174l-.844-2.852a.638.638 0 0 0-1.234 0"/><path fill="#E6E6E6" d="M20.88 5.8c.38-.25.84-.39 1.34-.36c1.11.06 2.01.95 2.12 2.05c.08 1.29-.94 2.37-2.21 2.37c-.46 0-.88-.13-1.23-.37a.68.68 0 0 0-.75 0c-.35.23-.78.37-1.23.37c-.46 0-.88-.13-1.23-.37a.68.68 0 0 0-.75 0c-.35.23-.78.37-1.23.37c-.46 0-.88-.13-1.23-.37a.68.68 0 0 0-.75 0c-.35.23-.78.37-1.23.37c-.46 0-.88-.14-1.22-.37a.68.68 0 0 0-.75 0c-.35.23-.78.37-1.23.37c-.46 0-.88-.14-1.22-.37a.68.68 0 0 0-.75 0c-.35.23-.78.37-1.23.37c-1.28 0-2.3-1.08-2.21-2.37c.08-1.1.98-1.99 2.09-2.05c.49-.03.95.11 1.33.36c.23.15.53.16.76 0c.35-.23.78-.37 1.23-.37s.87.14 1.22.37c.23.15.53.15.75 0c.35-.23.78-.37 1.23-.37s.87.14 1.2.38c.23.15.53.15.75 0c.35-.23.78-.37 1.23-.37c.46 0 .88.13 1.23.37c.23.15.53.15.75 0c.35-.23.78-.37 1.23-.37c.46 0 .88.13 1.23.37c.23.15.53.14.76-.01m8.15 18.73a2.03 2.03 0 1 1-4.06 0a2.03 2.03 0 0 1 4.06 0"/><path fill="#341A1C" d="M12.76 16.75a.375.375 0 0 0-.53.01l-.002.002l-.016.016l-.079.067a2.4 2.4 0 0 1-1.513.54a.375.375 0 0 0 0 .75a3.15 3.15 0 0 0 2.135-.84l.01-.01l.003-.003l.002-.001v-.001a.375.375 0 0 0-.01-.53m4.68 0a.375.375 0 0 0-.01.53l.002.002l.045.044q.041.039.115.1a3.15 3.15 0 0 0 1.988.709a.375.375 0 0 0 0-.75a2.4 2.4 0 0 1-1.608-.623l-.002-.003a.375.375 0 0 0-.53-.01" opacity=".5"/></g></svg>