<svg xmlns="http://www.w3.org/2000/svg" xmlns:xlink="http://www.w3.org/1999/xlink" width="32" height="32" viewBox="0 0 32 32"><g fill="none"><path fill="#635994" d="M14.367 5.874L10.662 3.3a.883.883 0 0 0-1.218.22L1.77 14.565a.877.877 0 0 0 .22 1.218l3.706 2.575a.877.877 0 0 0 1.219-.22l7.671-11.045a.877.877 0 0 0-.22-1.219Zm2.314 20.102l3.706 2.574a.87.87 0 0 0 1.214-.212l7.671-11.045a.877.877 0 0 0-.22-1.219L25.346 13.5a.877.877 0 0 0-1.218.22L16.46 24.757a.877.877 0 0 0 .22 1.22Z"/><path fill="#998EA4" d="m21.487 12.995l-2.118-2.363l-3.166-1.307l-1.02 1.468l2.337 2.434l2.948 1.236l1.019-1.468Z"/><path fill="#1C1C1C" d="m12.477 13.265l-1.468-1.02l-.51.734l1.468 1.02l.51-.734Zm6.612 4.592l1.468 1.02l-.51.733l-1.468-1.02l.51-.733Zm-5.504 1.628l-.734-.51l-1.53 2.202l.735.51l1.529-2.202Zm-4.29 4.625l.742.515l-1.53 2.201l-.74-.515l1.528-2.201Z"/><path fill="#BCA4EB" d="m12.6 6.822l-2.202-1.529l-1.53 2.202l2.202 1.529l1.53-2.202Zm-4.75 2.14l2.201 1.53l-1.53 2.202l-2.2-1.53l1.528-2.201Zm-.348 5.2l-2.201-1.53l-1.53 2.202l2.202 1.529l1.53-2.202Zm17.58 1.33l2.202 1.53l-1.529 2.202l-2.201-1.53l1.529-2.201Zm-2.548 3.67l2.202 1.53l-1.53 2.201l-2.201-1.529l1.53-2.202Zm-.347 5.199l-2.202-1.53l-1.529 2.202l2.202 1.53l1.53-2.202Z"/><path fill="#B4ACBC" d="m16.137 9.28l5.409 3.756c.33.23.785.154 1.007-.181l.698-1.006a.72.72 0 0 0-.181-1.007l-5.41-3.757a.72.72 0 0 0-1.007.182l-.698 1.005a.72.72 0 0 0 .181 1.007Zm-7.15 18.423a1.34 1.34 0 1 1-2.202-1.53a1.34 1.34 0 0 1 2.202 1.53Zm3.369-1.467l-5.38-3.737a1.038 1.038 0 0 1-.05-1.666a4.468 4.468 0 0 1 7.002 4.863c-.206.672-1 .937-1.572.54Zm-1.826-8.884l5.409 3.757c.33.23.785.153 1.007-.182l3.757-5.409a.72.72 0 0 0-.182-1.007l-5.408-3.757a.72.72 0 0 0-1.008.182l-3.757 5.409a.72.72 0 0 0 .182 1.007Z"/></g></svg>