<svg xmlns="http://www.w3.org/2000/svg" xmlns:xlink="http://www.w3.org/1999/xlink" width="32" height="32" viewBox="0 0 32 32"><g fill="none"><path fill="#9B9B9B" d="m6.44 29.66l12.637-12.637L19 15l-1-1l-2-.042L5.74 24.21a3.36 3.36 0 0 0 0 4.75z"/><path fill="#D3D3D3" d="m13 15l-.05 2.03l12.63 12.63l.64-.63c1.31-1.31 1.3-3.56-.02-4.88L15.98 13.93H14zm4.05 2.03a1.07 1.07 0 1 1-2.14 0a1.07 1.07 0 0 1 2.14 0"/><path fill="#F8312F" d="M15.02 9.53c0 .99-.24 1.95-.65 2.79l1.62 1.62l-3.03 3.1l-1.67-1.65c-.84.41-1.79.65-2.79.65c-3.6 0-6.5-2.92-6.5-6.52S4.9 3 8.5 3s6.52 2.92 6.52 6.53m-9.54-.01c0 1.67 1.36 3.03 3.03 3.03s3.03-1.35 3.03-3.03c0-1.67-1.36-3.03-3.03-3.03S5.48 7.85 5.48 9.52m15.23 5.87l-1.643 1.627l-3.068-3.068l1.631-1.639a6.36 6.36 0 0 1-.65-2.79C16.98 5.92 19.9 3 23.5 3S30 5.92 30 9.52s-2.9 6.52-6.5 6.52c-.99 0-1.95-.24-2.79-.65m-.25-5.87c0 1.68 1.36 3.03 3.03 3.03s3.03-1.36 3.03-3.03s-1.36-3.03-3.03-3.03s-3.03 1.36-3.03 3.03"/></g></svg>