<svg xmlns="http://www.w3.org/2000/svg" xmlns:xlink="http://www.w3.org/1999/xlink" width="32" height="32" viewBox="0 0 32 32"><g fill="none"><path fill="#00A6ED" d="M2 6a4 4 0 0 1 4-4h20a4 4 0 0 1 4 4v20a4 4 0 0 1-4 4H6a4 4 0 0 1-4-4z"/><path fill="#fff" d="M25.835 11.845a.5.5 0 0 0 0-.706l-3.012-3.02a.5.5 0 0 0-.854.354V10h-1.6c-.165 0-.466.024-.726.046c-1.95.165-3.754 1.253-4.692 3.071l-.274.533v.001c-.58 1.13-1.167 2.275-1.806 3.252c-.784 1.2-1.413 1.766-1.84 1.907c-.305.1-.792.161-1.325.184c-.391.017-.699.012-.912.008L8.614 19H6.5a.5.5 0 0 0-.5.5v2a.5.5 0 0 0 .5.5h2.153l.09.002l.278.004c.219.001.502 0 .816-.015c.593-.025 1.42-.097 2.133-.332c1.495-.493 2.61-1.886 3.412-3.114c.734-1.121 1.402-2.426 1.974-3.544l.261-.508c.425-.824 1.267-1.372 2.279-1.458a25 25 0 0 1 .46-.034l.021-.001h1.592v1.512a.5.5 0 0 0 .854.353z"/><path fill="#fff" d="M19.643 21.96c.26.022.561.046.725.046h1.6v1.514a.5.5 0 0 0 .855.353l3.012-3.02a.5.5 0 0 0 0-.706l-3.012-3.02a.5.5 0 0 0-.854.354v1.525h-1.592l-.022-.001l-.106-.007l-.353-.027c-.852-.072-1.556-.437-2.01-1.043c-.116-.153-.36-.164-.464-.002l-1.385 2.149a.24.24 0 0 0 .035.308a5.9 5.9 0 0 0 3.571 1.577M9.632 10c.164 0 .465.024.725.046c1.412.12 2.606.595 3.571 1.59a.47.47 0 0 1 .074.544c-.257.499-.79 1.519-1.206 2.197c-.138.226-.456.202-.577-.033c-.425-.824-1.103-1.223-2.115-1.309a25 25 0 0 0-.46-.034L9.624 13H6.5a.5.5 0 0 1-.5-.5v-2a.5.5 0 0 1 .5-.5z"/></g></svg>