<svg xmlns="http://www.w3.org/2000/svg" xmlns:xlink="http://www.w3.org/1999/xlink" width="32" height="32" viewBox="0 0 32 32"><g fill="none"><path fill="#CA0B4A" d="M11 22v6h2v-6zm13 0v6h2v-6z"/><path fill="#F8312F" d="M3 16a1 1 0 0 1 1 .993V17l.003.058a2.7 2.7 0 0 0 .266.995c.129.256.305.482.551.646c.24.16.605.301 1.18.301h3v2H6c-.925 0-1.685-.234-2.29-.637a3.63 3.63 0 0 1-1.23-1.416A4.7 4.7 0 0 1 2 17.025V17a1 1 0 0 1 1-1m0 8a1 1 0 0 1 1 .993V25l.003.058a2.7 2.7 0 0 0 .266.995c.129.256.305.482.551.646c.24.16.605.301 1.18.301h23a1 1 0 1 1 0 2H6c-.925 0-1.685-.234-2.29-.637a3.63 3.63 0 0 1-1.23-1.416A4.7 4.7 0 0 1 2 25.025V25a1 1 0 0 1 1-1"/><path fill="#E39D89" d="M8 19.897V21.5A1.5 1.5 0 0 0 9.5 23h18a1.5 1.5 0 0 0 1.5-1.5v-1.603a1 1 0 0 1-1 1H9a1 1 0 0 1-1-1"/><path fill="#F3C07B" d="M8 12a1 1 0 0 1 1-1h19a1 1 0 0 1 1 1v1.5l-.5.5h-20l-.5-.5zm0 3l.5-.5h20l.5.5v2l-.5.5h-20L8 17zm.5 3l-.5.5V20a1 1 0 0 0 1 1h19a1 1 0 0 0 1-1v-1.5l-.5-.5z"/><path fill="#F3AD61" d="M29 13.5H8V15h21zm0 3.5H8v1.5h21z"/></g></svg>