<svg xmlns="http://www.w3.org/2000/svg" xmlns:xlink="http://www.w3.org/1999/xlink" width="32" height="32" viewBox="0 0 32 32"><g fill="none"><path fill="#00F397" d="M16.995 3.663V16.06l-.518.32a4.386 4.386 0 0 1-.272 1.837a4.379 4.379 0 0 1-.998 1.563l.067.452l-4.819 4.828l-.396-.326a4.43 4.43 0 0 1-3.245 1.297c-.6-.015-.472-.065-1.018-.315a4.431 4.431 0 0 1-1.438-1.055a4.59 4.59 0 0 1-1.06-3.192c.028-.521-.338-.629-.143-1.103a4.59 4.59 0 0 1 1.06-1.556l2.67-2.67c.818-.816 1.129-1.983 1.13-3.138V3.723a1.65 1.65 0 0 1 1.64-1.71h5.68a1.65 1.65 0 0 1 1.66 1.65Zm10.991 3.98V20.03l-.713.331a4.38 4.38 0 0 1-1.26 3.4l.244.461l-4.81 4.82l-.26-.272a4.43 4.43 0 0 1-4.982.895c-.546-.25-.528-.61-.931-1.055c-.745-.892-1.024-1.6-.96-2.76c.028-.532-.359-1.049-.156-1.53a4.59 4.59 0 0 1 1.049-1.529l2.67-2.67c.818-.816 1.128-1.982 1.13-3.138V7.704a1.649 1.649 0 0 1 1.64-1.71h5.68a1.65 1.65 0 0 1 1.66 1.65Z"/><path fill="#FFF478" d="M8.016 4.007h8.99v.988h-8.99v-.988Zm10.98 3.988h8.989v1.013h-8.99V7.995Zm-1.99-2.001h-8.99v1.024h8.99V5.994Zm2.001 4.014h8.978v.99h-8.978v-.99Z"/><path fill="#5092FF" d="M16.996 16.028H11.99c-.23 0-.31.124-.295.277a.517.517 0 0 1 .002.054c.014.492.112 3.914 3.53 3.914l.138-.134c.775-.75 1.764-1.707 1.631-4.11Zm10.991 3.98h-5.006c-.23 0-.31.125-.295.277l.003.054c.013.492.11 3.915 3.529 3.915c.045-.044.09-.09.138-.135c.775-.75 1.764-1.706 1.631-4.11ZM8.36 21.167c-1.695-1.417-4.313-1.116-5.201-.845c-.774 1.963-.133 3.728.663 4.683c.744.894 1.858 1.512 3.35 1.512c1.716 0 2.696-.86 3.31-1.473c0-.69-.428-2.461-2.122-3.877Zm5.79 3.135c.888-.27 3.507-.571 5.2.845c1.695 1.416 2.122 3.188 2.122 3.877c-.613.614-1.593 1.473-3.308 1.473c-1.493 0-2.606-.618-3.351-1.511c-.796-.956-1.437-2.72-.663-4.684Z"/></g></svg>