<svg xmlns="http://www.w3.org/2000/svg" xmlns:xlink="http://www.w3.org/1999/xlink" width="32" height="32" viewBox="0 0 32 32"><g fill="none"><path fill="#C3EF3C" d="M16 30c7.732 0 14-6.268 14-14S23.732 2 16 2S2 8.268 2 16s6.268 14 14 14Z"/><path fill="#636363" d="M29.973 16.88c-.021.336-.054.668-.098.996c-8.243-.97-14.782-7.508-15.75-15.751c.327-.044.66-.077.995-.098c.923 7.769 7.084 13.93 14.853 14.853ZM16.88 29.973c-.923-7.769-7.084-13.93-14.853-14.853c.021-.335.054-.667.098-.996c8.243.97 14.782 7.508 15.75 15.751c-.328.044-.66.077-.995.098Z"/><path fill="#F8312F" d="M18.57 11.591a.5.5 0 0 1 .393-.392l1.767-.354a.5.5 0 1 1 .197.981l-1.441.288l-.289 1.441a.5.5 0 0 1-.98-.196l.353-1.768Zm3.912 3.392a.5.5 0 0 1 .278-.48l1.616-.8a.5.5 0 1 1 .443.897l-1.317.651l.094 1.467a.5.5 0 0 1-.998.064l-.116-1.799Zm4.498 2.134a.5.5 0 0 1 .118-.542l1.298-1.252a.5.5 0 0 1 .694.72l-1.057 1.02l.535 1.369a.5.5 0 0 1-.932.364l-.656-1.68ZM15.976 7.778a.5.5 0 0 1 .48-.277l1.8.116a.5.5 0 1 1-.065.998l-1.466-.095l-.652 1.318a.5.5 0 0 1-.896-.444l.799-1.616ZM14.56 3.263a.5.5 0 0 1 .534-.153l1.717.548a.5.5 0 1 1-.303.953l-1.4-.447l-.951 1.12a.5.5 0 1 1-.763-.646l1.167-1.375Zm-2.99 16.078a.5.5 0 0 1 .393-.392l1.767-.354a.5.5 0 0 1 .197.981l-1.441.288l-.289 1.441a.5.5 0 0 1-.98-.196l.353-1.768Zm3.03 3.437a.5.5 0 0 1 .481-.277l1.8.116a.5.5 0 1 1-.065.998l-1.466-.095l-.652 1.318a.5.5 0 0 1-.896-.444l.799-1.616Zm1.932 4.267a.5.5 0 0 1 .538-.136l1.7.599a.5.5 0 1 1-.332.943l-1.386-.488l-.984 1.091a.5.5 0 0 1-.743-.67l1.207-1.339Zm-8.781-10.47a.5.5 0 0 1 .277-.48l1.616-.8a.5.5 0 0 1 .444.897l-1.318.651l.095 1.467a.5.5 0 0 1-.998.064l-.116-1.799Zm-4.698-1.501a.5.5 0 0 1 .096-.547l1.245-1.303a.5.5 0 0 1 .723.69l-1.015 1.063l.59 1.346a.5.5 0 1 1-.915.401l-.724-1.65Z"/></g></svg>