<svg xmlns="http://www.w3.org/2000/svg" xmlns:xlink="http://www.w3.org/1999/xlink" width="32" height="32" viewBox="0 0 32 32"><g fill="none"><path fill="#BB1D80" d="m18.26 2.85l4.56 5.05c.61.61.61 1.59.01 2.21l-5.44 4.9c-.61.61-1.6.61-2.21 0l-5.44-4.9c-.61-.61-.61-1.6 0-2.21l4.55-5.05a2.8 2.8 0 0 1 3.97 0M3 9.63a2.36 2.36 0 0 1 .37-1.27l.92-1.7c.47-.87 1.73-.87 2.2 0l.9 1.66c.28.43.43.96.38 1.52c-.05.62-.34 1.16-.78 1.56c-.31.28-.48.69-.48 1.11v3.7c0 1.19.76 2.26 1.88 2.65l4.21 1.48c.59.21.89.85.69 1.43a1.127 1.127 0 0 1-1.43.69l-4.21-1.48a5.07 5.07 0 0 1-3.38-4.77v-3.7c0-.43-.18-.84-.5-1.13C3.3 10.94 3 10.32 3 9.63m26.55 0a2.36 2.36 0 0 0-.37-1.27l-.92-1.7c-.47-.87-1.73-.87-2.2 0l-.9 1.66c-.28.43-.43.96-.38 1.52c.05.62.34 1.16.78 1.56c.31.28.48.69.48 1.11v3.7c0 1.19-.76 2.26-1.88 2.65l-4.21 1.48c-.59.21-.89.85-.69 1.43a1.127 1.127 0 0 0 1.43.69l4.21-1.48a5.07 5.07 0 0 0 3.38-4.77v-3.7c0-.43.18-.84.5-1.13c.47-.44.77-1.06.77-1.75"/><path fill="#BB1D80" d="M10.47 27.06h.05c1.07 0 2.07-.42 2.84-1.18l.725-.725l-.485 1.805c-.12.46-.55.79-1.03.79H5.41c-.62 0-1.12.5-1.12 1.12S4.79 30 5.41 30h7.17c1.5 0 2.81-1.01 3.2-2.46l.505-1.88l.505 1.88c.39 1.45 1.7 2.46 3.2 2.46h7.17c.62 0 1.13-.51 1.13-1.13s-.5-1.12-1.12-1.12H20c-.48 0-.91-.33-1.03-.79l-.481-1.791l.721.721a4 4 0 0 0 2.837 1.17h.005l.007-.002a.1.1 0 0 1 .051.002c1.09-.02 2.1-.46 2.85-1.25l.72-.75c.12-.13.26-.15.34-.15s.22.01.35.14c.44.44 1.15.44 1.59 0s.44-1.15 0-1.59a2.7 2.7 0 0 0-1.97-.8c-.75.01-1.44.31-1.95.85l-.72.75c-.33.35-.77.54-1.25.55s-.93-.17-1.27-.51l-1.02-1.02a1.122 1.122 0 0 0-1.746.195l-.581-2.162l.487-1.813c.16-.6-.2-1.22-.8-1.38c-.3-.08-.605-.03-.855.115a1.12 1.12 0 0 0-.855-.115c-.6.16-.96.78-.8 1.38l.487 1.813l-.579 2.155a1.123 1.123 0 0 0-1.748-.198l-1.02 1.02c-.33.33-.77.51-1.24.51h-.02c-.48-.01-.92-.2-1.25-.55l-.72-.75c-.52-.54-1.21-.84-1.95-.85a2.7 2.7 0 0 0-1.97.8c-.44.44-.44 1.15 0 1.59s1.15.44 1.59 0c.13-.12.27-.14.35-.14c.07 0 .22.02.34.15l.72.76c.75.79 1.76 1.24 2.85 1.25"/><path fill="#FF6DC6" d="M27.68 7.01a.52.52 0 1 1-1.04 0a.52.52 0 0 1 1.04 0m-.77 1.28a.52.52 0 1 1-1.04 0a.52.52 0 0 1 1.04 0m1.42 1.81a1.17 1.17 0 1 1-2.34 0a1.17 1.17 0 0 1 2.34 0m-.4-1.29a.52.52 0 1 0 0-1.04a.52.52 0 0 0 0 1.04M5.39 11.27a1.17 1.17 0 1 0 0-2.34a1.17 1.17 0 0 0 0 2.34m1.29-2.98a.52.52 0 1 1-1.04 0a.52.52 0 0 1 1.04 0m-2.06.52a.52.52 0 1 0 0-1.04a.52.52 0 0 0 0 1.04m1.29-1.8a.52.52 0 1 1-1.04 0a.52.52 0 0 1 1.04 0"/><path fill="#F70A8D" d="M13.63 3.89A2.8 2.8 0 0 1 16.28 2c1.2 0 2.26.76 2.66 1.89l4.18 11.68a4.21 4.21 0 0 1-1.84 4.768V22.5a2.5 2.5 0 0 1-2.5 2.5h-4.96a2.5 2.5 0 0 1-2.5-2.5v-2.143a4.236 4.236 0 0 1-1.87-4.787z"/><path fill="#BB1D80" d="M15.28 12.5a.75.75 0 1 0 0-1.5a.75.75 0 0 0 0 1.5m3 1.12a1.12 1.12 0 1 0 0-2.24a1.12 1.12 0 0 0 0 2.24m-1.75 1.28a1.12 1.12 0 1 1-2.24 0a1.12 1.12 0 0 1 2.24 0"/><path fill="#1C1C1C" d="M14.59 22.65a.75.75 0 1 1-1.5 0a.75.75 0 0 1 1.5 0m4.87 0a.75.75 0 1 1-1.5 0a.75.75 0 0 1 1.5 0"/></g></svg>