<svg xmlns="http://www.w3.org/2000/svg" xmlns:xlink="http://www.w3.org/1999/xlink" width="32" height="32" viewBox="0 0 32 32"><g fill="none"><path fill="#72CCB4" d="M7.96 6h3c.55 0 1 .45 1 1s-.45 1-1 1H8.839l1.246 1.476l-.013-.156c-.02-.21.08-.46.31-.51s.49.1.51.32l.03.32c.02.18.06.36.13.53l.09.22a.4.4 0 0 1 .01.164v.396c0 .94-.54 1-.54 1l-.02 2.284a.33.33 0 0 1 .25-.034l3.84.86l.034.01h6.522l.034-.01l3.84-.86c.38-.09.59.43.25.63l-3.38 2.02c-.09.06-.22.01-.26-.09l-.421-1.06v2.644c0 .79-.09 3.061-.3 4.09c-.39 1.894-2.93 2.496-3.05 2.496c-.13 0-2.79-.64-3.17-2.546c-.2-1.004-.28-3.25-.28-4.04v-2.262l-.27.678c-.04.1-.17.15-.26.09l-3.384-2.023l-.026 2.972l3.57-.569c.11-.03.21.06.21.17v1.57c0 .11-.1.2-.21.18l-3.577-.57l-.042 4.87l-4.02-1.97l1.73-8.88v-.01a1.67 1.67 0 0 0-.42-1.362a.2.2 0 0 0-.04-.038l.004-.013l-.024-.007a.44.44 0 0 1-.29-.53a.44.44 0 0 1 .476-.3l-.316-.09a.44.44 0 0 1-.29-.53a.44.44 0 0 1 .466-.302L7.62 9.18a.427.427 0 0 1 .24-.82l.09.026V8a1.003 1.003 0 0 1-.99-1c0-.55.45-1 1-1m9.21 7.39h1.57c.11 0 .2-.1.18-.21l-.62-3.89c-.06-.39-.62-.39-.68 0L17 13.18c-.03.11.05.21.17.21m3.87 1.09l-1.28-.92c-.09-.07-.1-.2-.02-.27l2.77-2.8c.28-.28.74.05.56.4l-1.76 3.52c-.05.1-.18.14-.27.07m-6.18 0l1.28-.92c.09-.07.1-.2.03-.28l-2.77-2.8c-.28-.28-.74.05-.56.4l1.75 3.53c.05.1.18.14.27.07m6.7 4.3v-1.57c0-.11.1-.2.21-.17l3.89.62c.39.06.39.62 0 .68l-3.89.62a.182.182 0 0 1-.21-.18"/><path fill="#49B59D" d="M18.42 13h-1c-1.92.02-3.42 1.59-3.42 3.51v1.96c0-1.92 1.5-3.48 3.42-3.5l1-.01c1.95-.02 3.58 1.55 3.58 3.5V16.5c0-1.95-1.63-3.52-3.58-3.5M15 16.773V17h1.51c.74 0 1.358-.546 1.471-1.256l-.57.006c-.953.01-1.8.399-2.411 1.023m3.042-1.03l.369-.003A3.58 3.58 0 0 1 21 16.814V17h-1.38c-.765 0-1.412-.54-1.578-1.256M15.5 25.78v-4.315C16.178 22.602 17.881 23 17.995 23c.085 0 1.217-.247 2.005-.94v3.72z"/><path fill="#14A085" d="M8.365 8h2.012l-.031.82c-.205.066-.294.3-.275.5c.02.21.02.26.02.26c.02.19.06.37.13.53c0 0 .014.08.068.21l-.158 4.2c-.01.27-.22.48-.49.48H9.1c-.27 0-.48-.21-.49-.48l-.127-3.346a.445.445 0 0 0 .407-.304a.44.44 0 0 0-.29-.53l-.042-.012a.43.43 0 0 0 .502-.288a.44.44 0 0 0-.29-.53l-.038-.011A.44.44 0 0 0 9.22 9.2a.44.44 0 0 0-.29-.53l-.547-.158zm9.046 5.79l1-.01a3.56 3.56 0 0 1 3.383 2.327a.63.63 0 0 1 .206.48v2.826c0 .29-.174.53-.402.578l1.065 5.526q.136.076.268.163s3.03 2 3.02 3.35v1l-8.31.01l-10.69-.01l.01-1.84c0-1.39-.18-2.77-.53-4.11c-.08-.3-.16-.65-.23-.98c-.23-1.1-.27-2.24-.08-3.36c.16-.89.83-1.74 1.03-1.74l-.2 1.69c0 .68.69 1.31 1.37 1.31c2.125 0 2.188-1.648 2.235-2.887l.005-.113c.575 0 1.843 1.643 2.704 2.921L14 18.846v-2.259c0-.19.076-.356.192-.462a3.425 3.425 0 0 1 3.219-2.335M15 16.773v.884c0 .64.08 2.463.28 3.277c.114.46.387.828.72 1.12v1.899c.337.274.66.501.95.657c.6.33 1.45.42 2 .42h1.01v-2.936c.34-.288.622-.656.74-1.12c.21-.834.3-2.676.3-3.317v-.843a3.58 3.58 0 0 0-2.59-1.074l-1 .01A3.4 3.4 0 0 0 15 16.773"/><path fill="#49B59D" d="M10.48 22.03c-.21-.4-.81-.24-1.1.15l-2.68 3.1c.25 1.14.26 2.71.26 3.37l2.98-3.28c.62-.67.96-1.55.96-2.47zm-2.53 8l8.83-4.29c.17-.09.33.14.19.27l-4.02 4.02zm13.83-2.88l1.06 2.89h1.55l-2.32-3.05c-.12-.15-.36-.02-.29.16" opacity=".54"/><path fill="#FF822D" d="M10.95 6s.44-.49.44-1s-.26-1.14-.6-1.69C10.44 2.76 9.87 2 9.56 2s-.43.6-.52.81s-.3.62-.42.62s-.17-.26-.3-.26c-.25 0-.79 1.2-.79 1.67s.19.94.42 1.16z"/></g></svg>