<svg xmlns="http://www.w3.org/2000/svg" xmlns:xlink="http://www.w3.org/1999/xlink" width="32" height="32" viewBox="0 0 32 32"><g fill="none"><path fill="#B4ACBC" d="M27.988 13.843c-3.903-3.804-10.125-3.787-13.99.03l-2.048.703a4 4 0 0 0-1.922.66l-2.047.704A7.47 7.47 0 0 0 1 23.397c0 1.756.612 3.373 1.623 4.652A7.5 7.5 0 0 0 8.593 31h12.715a9.39 9.39 0 0 0 7.648-3.933c3.017-3.96 2.693-9.652-.968-13.224"/><path fill="#FF822D" d="M10.068 5.221c.8-1.635 3.16-1.627 3.944.016c.296.616 1.048.86 1.656.537l.377-.197c1.464-.782 3.192.466 2.88 2.085l-.08.41A1.19 1.19 0 0 0 19.86 9.47l.424.056c1.648.22 2.304 2.235 1.088 3.356l-.312.293a1.176 1.176 0 0 0-.008 1.721l.312.293c1.208 1.137.536 3.143-1.12 3.349l-.424.055a1.194 1.194 0 0 0-1.032 1.39l.08.41c.296 1.62-1.44 2.852-2.896 2.062l-.377-.205a1.216 1.216 0 0 0-1.664.529c-.8 1.635-3.16 1.627-3.944-.016a1.206 1.206 0 0 0-1.656-.537l-.377.197c-1.464.782-3.192-.466-2.88-2.085l.08-.41A1.19 1.19 0 0 0 4.14 18.53l-.424-.056c-1.648-.22-2.304-2.235-1.088-3.356l.312-.293a1.176 1.176 0 0 0 .008-1.721l-.312-.293c-1.208-1.137-.536-3.143 1.12-3.348l.424-.056a1.194 1.194 0 0 0 1.032-1.39l-.08-.41c-.296-1.62 1.44-2.852 2.896-2.062l.377.205c.608.324 1.36.087 1.664-.529"/><path fill="#F9C23C" d="M12 22a8 8 0 1 0 0-16a8 8 0 0 0 0 16"/><path fill="#F3EEF8" d="M14.575 14.71c3.467-3.557 9.158-3.618 12.715-.15c3.297 3.216 3.587 8.346.862 11.913A8.39 8.39 0 0 1 21.308 30H8.593a6.5 6.5 0 0 1-5.18-2.565A6.48 6.48 0 0 1 2 23.397a6.47 6.47 0 0 1 6.584-6.472a4.04 4.04 0 0 1 5.65-1.847a9 9 0 0 1 .341-.368"/></g></svg>