<svg xmlns="http://www.w3.org/2000/svg" xmlns:xlink="http://www.w3.org/1999/xlink" width="32" height="32" viewBox="0 0 32 32"><g fill="none"><path fill="#F9C23C" d="m27.902 21.242l-6.65 6.65c-1.1 1.1-2.88 1.1-3.98 0l-13.81-13.81l10.63-10.63l13.81 13.82a2.8 2.8 0 0 1 0 3.97Z"/><path fill="#FCD53F" d="M30.003 19.613c0-1.01-.4-1.98-1.12-2.69l-6.46-6.43a.951.951 0 0 0-1.06-.2l-5.89 2.58a5.115 5.115 0 0 0-2.63 2.63l-2.58 5.89c-.16.36-.08.78.2 1.06l6.34 6.41c.71.72 1.69 1.13 2.7 1.13h.13c1.22 0 2.24-.2 2.89-.82l6.64-6.64c.81-.81.84-1.89.84-2.92Z"/><path fill="#F3AD61" d="m15.172 8.813l5.983 5.982l-.71.71l-5.982-5.982l.71-.71ZM18.4 17.68l-6.047-6.047l-.71.71l6.047 6.047l.71-.71Zm-2.797 2.883l-6.09-6.09l-.7.71l6.08 6.08l.71-.7Z"/><path fill="#F9C23C" d="M13.59 14.29a5.09 5.09 0 0 1 .715-.705l11.902 11.902l-.71.71l-11.906-11.906Zm-1.878 3.792l.43-.98l11.226 11.226l-.705.704l-10.95-10.95Zm16.605 5.296L17.1 12.16l.987-.433l10.94 10.94l-.71.71Z"/><path fill="#FFDEA7" d="m20.402 17.003l4.32-4.32a.996.996 0 1 0-1.41-1.41l-12.03 12.03a.996.996 0 1 0 1.41 1.41l4.31-4.31v2.61c0 .55.45 1 1 1s1-.45 1-1v-4.01h4.01c.55 0 1-.45 1-1c0-.56-.45-1-1-1h-2.61Zm-9.869-2.921a5.003 5.003 0 0 1-7.07 0a5.003 5.003 0 0 1 0-7.07l3.55-3.55a5.003 5.003 0 0 1 7.07 0a5.003 5.003 0 0 1 0 7.07l-3.55 3.55Z"/><path fill="#FFB02E" d="M4.172 13.373a4.008 4.008 0 0 1 0-5.66l3.55-3.55a4.008 4.008 0 0 1 5.66 0a814.354 814.354 0 0 1-9.21 9.21Z"/><path fill="#6D4534" d="M11.222 3.043c-.59-.1-1.2.08-1.63.5l-.01.01c-.6.6-.79 1.45-.58 2.21c.04.13-.09.26-.23.22c-.76-.21-1.61-.02-2.2.58c-.6.6-.79 1.44-.58 2.2c.04.14-.09.27-.22.23c-.76-.21-1.61-.02-2.2.58l-.01.01c-.42.43-.6 1.04-.5 1.63c.13.79.5 1.55 1.12 2.16c.227.226.474.42.736.58c.43-.219.464-.32.758-.531c3.448-2.475 7.933-7.43 7.933-7.43s.184-.722.361-1.08a3.471 3.471 0 0 0-.568-.76c-.63-.6-1.39-.97-2.18-1.11Z"/><path fill="#A56953" d="M4.873 13.932c1.55.97 3.61.79 4.96-.56l3.55-3.55a4.004 4.004 0 0 0 .56-4.96c-.86-.45-1.94-.32-2.65.4c-.6.6-.79 1.44-.58 2.2c.04.14-.09.27-.23.23c-.76-.21-1.61-.02-2.2.58c-.6.6-.79 1.44-.58 2.2c.04.14-.09.26-.23.23c-.75-.21-1.6-.02-2.2.58c-.72.71-.85 1.79-.4 2.65Z"/></g></svg>