<svg xmlns="http://www.w3.org/2000/svg" xmlns:xlink="http://www.w3.org/1999/xlink" width="32" height="32" viewBox="0 0 32 32"><g fill="none"><path fill="#212121" d="m13.277 24.953l-2.433-1.414l-2.664 4.64a1.405 1.405 0 0 0 2.43 1.41z"/><path fill="#CA0B4A" d="M18.024 17.585c.49.115.988.168 1.482.163l.314.411l-3.06 2.34c-1.07.82-1.97 1.85-2.65 3.02l-.85 1.47l-2.44-1.41l.85-1.47c.68-1.17 1.11-2.47 1.29-3.81l.5-3.81l.533.07c.24.425.53.825.87 1.189l-.443 3.411c-.03.22.08.44.27.55s.43.09.61-.04z"/><path fill="#F8312F" d="M14.641 5.763c1.947-3.356 6.234-4.51 9.594-2.573c3.36 1.938 4.5 6.226 2.576 9.592l-.001.002l-1.27 2.2l-.001.002c-1.947 3.356-6.234 4.51-9.594 2.573h-.001c-3.356-1.947-4.511-6.235-2.574-9.594l1.27-2.2zm1.298.753l-1.27 2.198a5.53 5.53 0 0 0 2.026 7.546a5.53 5.53 0 0 0 7.546-2.027l1.268-2.196v-.001c1.516-2.655.615-6.025-2.024-7.547a5.53 5.53 0 0 0-7.546 2.027"/><path fill="#D3D3D3" d="M22.408 4.012a5.5 5.5 0 0 0-.887-.205l.769 1.442l-1.77.06l-.791-1.467q-.348.064-.685.172l.706 1.325l-1.77.07l-.367-.697q-.287.195-.55.429l.157.288l-.477.018q-.315.327-.578.71l1.415-.048l.83 1.56l-1.77.06l-.671-1.265l-.03.051l-.377.654l.318.59l-.675.028l-.404.7l1.429-.048l.83 1.57l-1.77.06l-.671-1.265a5.6 5.6 0 0 0-.364.802l.265.493l-.421.018q-.086.344-.129.69l.91-.028l.83 1.56l-1.7.058q.06.345.16.68l1.9-.068l.83 1.57l-1.965.069q.248.354.553.67l1.772-.059l.834 1.57q.427.11.859.148l-.923-1.748l1.77-.06l.892 1.687q.345-.079.675-.201l-.797-1.506l1.77-.06l.426.806q.284-.212.54-.462l-.196-.374l.562-.017q.28-.33.51-.71l-1.422.047l-.83-1.56l1.77-.06l.669 1.253l.41-.71l-.309-.573l.655-.026l.384-.666v-.001l.02-.034l-1.419.047l-.83-1.57l1.77-.06l.66 1.234q.197-.418.32-.851l-.23-.413l.334-.008a6 6 0 0 0 .096-.69l-.79.028l-.83-1.56l1.511-.048a6 6 0 0 0-.191-.68l-1.68.058l-.84-1.58l1.652-.057a5.5 5.5 0 0 0-.624-.67l-1.388.047zM20.11 6.029l.83 1.56l-1.77.06l-.83-1.56zm1.19 2.24l.83 1.56l-1.77.06l-.83-1.56zm-2.28 3.95l-.83-1.56l1.77-.06l.83 1.56zm-.26-3.86l.83 1.57l-1.77.06l-.83-1.57zm-1.35 2.33l.83 1.56l-1.76.06l-.84-1.56zm-.57 2.3l1.77-.06l.83 1.56l-1.77.07zm3.37 1.48l-.83-1.56l1.77-.06l.83 1.56zm1.34-2.34l-.83-1.57l1.77-.06l.83 1.57zm1.35-2.32l-.83-1.56l1.77-.06l.83 1.55zm-1.19-2.25L20.88 6l1.77-.06l.83 1.56z"/><path fill="#C3EF3C" d="M11 16a3 3 0 1 1-6 0a3 3 0 0 1 6 0"/><path fill="#D3D3D3" d="M10.99 15.75a2.8 2.8 0 0 1-1.59-.427a2.37 2.37 0 0 1-.8-.935a3.4 3.4 0 0 1-.344-1.277v-.1a3 3 0 0 0-.5-.001v.135a4 4 0 0 0 .395 1.463c.221.455.558.843.976 1.127a3.3 3.3 0 0 0 1.863.515a3 3 0 0 0 0-.5m-2.746 3.24v-.03l.005-.002q.001-.039-.005-.1a4 4 0 0 0-.395-1.463a2.9 2.9 0 0 0-.976-1.127a3.3 3.3 0 0 0-1.863-.518a3 3 0 0 0 0 .5a2.8 2.8 0 0 1 1.59.427c.344.236.62.558.8.935a3.4 3.4 0 0 1 .344 1.277v.1a3 3 0 0 0 .5.001"/></g></svg>