<svg xmlns="http://www.w3.org/2000/svg" xmlns:xlink="http://www.w3.org/1999/xlink" width="32" height="32" viewBox="0 0 32 32"><g fill="none"><path fill="#FFB02E" d="M28.61 13.409c.502-.708-.005-1.19-.873-1.166l-.13.002c-2.485 0-4.462-2.013-4.462-4.498c0-.227.117-.723.15-.942c.127-.858-.408-1.405-1.17-.991c-1.716.93-3.307 2.605-3.307 4.694c0 3.038 2.485 5.288 5.523 5.288c1.852 0 3.271-.984 4.268-2.387"/><path fill="#44911B" d="M2.945 30h6.13l3.68-1.15L16.433 30c.86 0 1.646-.523 1.957-1.307l5.425-13.808c.163-.406-.148-.841-.593-.841H8.281a.62.62 0 0 0-.593.406L2.07 28.766c-.252.58.208 1.234.875 1.234"/><path fill="#86D72F" d="m18.39 28.679l5.425-13.808c.163-.406-.148-.842-.593-.842H10.786a.62.62 0 0 0-.593.407L4.086 30h5l3.062-.763l4.3.763c.845 0 1.63-.523 1.942-1.321"/><path fill="#1C1C1C" d="M9.096 30h7.337c.06 0 .119-.03.178-.03V16.484h-7.53V30z"/><path fill="#86D72F" d="m7.895 14.16l5.707 14.519c.311.798 1.082 1.306 1.957 1.306h13.488c.668 0 1.127-.653.89-1.263l-5.618-14.315a.62.62 0 0 0-.593-.407H8.296a1 1 0 0 0-.4.16"/><path fill="#44911B" d="M20.984 22.625h-2.98a.95.95 0 0 1-.874-.581l-1.245-3.064c-.252-.61.207-1.263.874-1.263h2.98a.95.95 0 0 1 .874.58l1.245 3.064c.252.61-.207 1.264-.874 1.264"/></g></svg>