<svg xmlns="http://www.w3.org/2000/svg" xmlns:xlink="http://www.w3.org/1999/xlink" width="32" height="32" viewBox="0 0 32 32"><g fill="none"><path fill="#00A6ED" d="m5 11l7-1.013L19 11v14l-7 1.011L5 25z"/><path fill="#F3AD61" d="M4.5 6a2.5 2.5 0 0 0 0 5h15a2.5 2.5 0 0 0 0-5zm0 19a2.5 2.5 0 0 0 0 5h15a2.5 2.5 0 0 0 0-5z"/><path fill="#3F5FFF" d="M19.5 3.25a.75.75 0 0 0 0 1.5c3.1 0 5.03 2.252 5.19 4.43c.078 1.075-.273 2.126-1.129 2.918c-.863.798-2.316 1.402-4.561 1.402H5V15h14c2.505 0 4.364-.677 5.58-1.8c1.222-1.131 1.714-2.643 1.606-4.13C25.97 6.123 23.4 3.25 19.5 3.25M5 16h14v1.5H5zm14 5H5v1.5h14z"/><path fill="#D3D3D3" d="M30 6.75a2.25 2.25 0 0 1-3.206 2.038l-.041.037L8.72 22.823a.56.56 0 0 1-.773-.067A.533.533 0 0 1 8 22L25.5 7.5a.5.5 0 0 1 .104-.073A2.25 2.25 0 1 1 30 6.75m-1.5 0a.75.75 0 1 0-1.5 0a.75.75 0 0 0 1.5 0"/><path fill="#3F5FFF" d="M5 18.5h14V20H5z"/></g></svg>