<svg xmlns="http://www.w3.org/2000/svg" xmlns:xlink="http://www.w3.org/1999/xlink" width="32" height="32" viewBox="0 0 32 32"><g fill="none"><path fill="#FF6723" d="M16.75 11.449v2.058l-1.5-.01V11.44q-.29 1.007-.618 2.054l-1.564-.01c.379-1.205.73-2.372 1.025-3.483h3.844a83 83 0 0 0 .95 3.52l-1.573-.01a85 85 0 0 1-.564-2.061m3.059 5.043v.007h-7.712a618 618 0 0 0-.77 2.381A58 58 0 0 1 7 29h-.49c-.28 0-.51.226-.51.5s.23.5.51.5h5.98c.28 0 .51-.226.51-.5s-.23-.5-.51-.5h-.413a4.004 4.004 0 0 1 3.928-3.188A4.004 4.004 0 0 1 19.933 29h-.424c-.28 0-.509.226-.509.5s.23.5.51.5h5.98c.28 0 .51-.226.51-.5s-.23-.5-.51-.5H25a57 57 0 0 1-2.122-4.378q-.272-.623-.536-1.26a92 92 0 0 1-2.025-5.355a104 104 0 0 1-.508-1.514M15.25 23.5h-2.806l2.806-1.714zm-3.42-1.51q.494-1.324.917-2.662l1.719 1.053zm8.342.015l-2.637-1.615l1.662-1.015c.311.878.637 1.758.975 2.63m-3.422-3.02V18h1.613zm-1.5.006L13.633 18h1.617zm1.5 2.789l2.808 1.72H16.75zM21.397 25c.372.86.754 1.701 1.144 2.51h-1.549A5.52 5.52 0 0 0 18.636 25zm-8.049 0a5.5 5.5 0 0 0-2.35 2.51h-1.55q.613-1.244 1.166-2.51zm3.78-19c.082.583.201 1.256.355 2h-2.91c.146-.699.26-1.367.333-2zm-2.129-2H17l.003-1.007A1.02 1.02 0 0 0 16.005 2h-.01a1 1 0 0 0-1 .993z"/><path fill="#E6E6E6" d="m17.13 6l-.001-.01C17.059 5.456 17 4.998 17 4.5V4h-2v.55c0 .46-.04.95-.1 1.45zm2.217 7.524l-6.78-.044c-.263 0-.473.193-.473.434V16.5h7.715v-2.542c.01-.242-.2-.434-.462-.434M17.94 10H14.1c.18-.69.34-1.36.47-2h2.93c.12.62.27 1.29.44 2"/></g></svg>