<svg xmlns="http://www.w3.org/2000/svg" xmlns:xlink="http://www.w3.org/1999/xlink" width="32" height="32" viewBox="0 0 32 32"><g fill="none"><path fill="#9B9B9B" d="M30.999 10.017a8.47 8.47 0 0 0-8.89-8.006a8.4 8.4 0 0 0-4.425 1.531a2.925 2.925 0 0 1-3.359 0A8.456 8.456 0 0 0 2.542 5.595a8.456 8.456 0 0 0 2.05 11.78c.246.177.506.334.73.466l.01.006l.011.006c.49.273.807.783.839 1.342l.1 1.617v.002a11.2 11.2 0 0 0 3.622 7.562a2.63 2.63 0 0 0 3.71-.148c.393-.425.628-.967.69-1.528v-.007l.461-4.803c.041-.382.237-.916.54-1.343c.328-.46.591-.547.68-.547c.093 0 .364.092.699.555c.311.429.51.96.551 1.336l.459 4.788v.003a2.63 2.63 0 0 0 2.852 2.384a2.57 2.57 0 0 0 1.557-.695a11.2 11.2 0 0 0 3.615-7.557v-.002l.1-1.606v-.002a1.69 1.69 0 0 1 .854-1.353a8.47 8.47 0 0 0 4.327-7.834"/><path fill="#fff" d="M30 10.07a7.47 7.47 0 0 0-7.84-7.06c-1.4.07-2.75.54-3.9 1.35c-1.35.95-3.16.95-4.51 0A7.456 7.456 0 0 0 3.36 6.17a7.456 7.456 0 0 0 1.81 10.39c.21.15.44.29.66.42c.79.44 1.3 1.26 1.35 2.16l.1 1.61c.17 2.64 1.35 5.11 3.3 6.89c.66.61 1.69.57 2.3-.09c.24-.26.39-.6.43-.96l.46-4.8c.12-1.14 1.064-2.79 2.214-2.79s2.126 1.65 2.246 2.79l.46 4.8c.08.9.87 1.56 1.77 1.48c.36-.03.7-.18.96-.43c1.95-1.78 3.13-4.25 3.3-6.89l.1-1.61c.06-.9.57-1.71 1.36-2.16A7.46 7.46 0 0 0 30 10.07"/><path fill="#D3D3D3" d="M24.219 5.157c-.719.104-2.513.5-3.938 1.25c-.28.147-.524.298-.746.45a.5.5 0 0 1-.218.152q-.269.197-.508.385c-.19.146-.37.286-.553.413a7 7 0 0 0-.74.873c-.611.845-1.024 1.783-1.024 2.536a.5.5 0 1 1-1 0c0-.925.42-1.915.966-2.76a5 5 0 0 1-.364.013c-1.524 0-2.52-.704-3.504-1.398a14 14 0 0 0-.996-.664c-1.1-.65-3.313-1.053-4.469-1.25c1.188-.323 3.819-.844 4.844-.344c.443.216.91.526 1.38.839c.888.59 1.792 1.192 2.589 1.192c.728 0 1.423-.547 2.118-1.094c.467-.368.935-.736 1.413-.937c.95-.4 3.562.062 4.75.344"/></g></svg>