<svg xmlns="http://www.w3.org/2000/svg" xmlns:xlink="http://www.w3.org/1999/xlink" width="32" height="32" viewBox="0 0 32 32"><g fill="none"><path fill="#321B41" d="M8.86 25.639a77 77 0 0 0-1.186 1.706l-.069.115c-.182.3-.408.673-.162 1.098c.267.46.848.454 1.018.453h14.832c.318 0 .704-.02.954-.347s.27-.722-.067-1.261c-.155-.248-.96-1.45-1.733-2.602a441 441 0 0 1-1.383-2.071H10.878c-.353.542-1.258 1.829-2.018 2.909m1.832.095c.06-.103.243-.406.305-.506c.077-.125.432-.5.885-.5h8.016c.395 0 .69.23.873.5c.1.149.184.307.237.41c.024.045.042.08.053.096zm-1.303 1.99c.058-.076.195-.265.28-.404c.106-.173.617-.596 1.07-.596h10.549c.211 0 .524.118.664.328l.445.673z"/><path fill="#BEBEBE" d="M18 4h-4v2h-2V4h-2c-.55 0-1-.45-1-1s.45-1 1-1h12c.55 0 1 .45 1 1c0 .56-.44 1-1 1h-2v2h-2z"/><path fill="#F92F60" d="M25 19.78v-4.77H7v4.77c0 2.34 1.92 4.23 4.29 4.23h9.42C23.09 24 25 22.12 25 19.78"/><path fill="#FFB02E" d="M10 21h2c.56 0 1-.44 1-1c0-.55-.45-1-1-1h-2c-.55 0-1 .45-1 1s.45 1 1 1m10 0h2c.56 0 1-.44 1-1c0-.55-.45-1-1-1h-2c-.55 0-1 .45-1 1s.45 1 1 1"/><path fill="#D3D3D3" d="M22.95 5c1.08 0 1.96.82 2.03 1.871q0 .018.01.042l.01.038v8.037A3.014 3.014 0 0 1 21.99 18H10.01A3.014 3.014 0 0 1 7 14.988q.001-2.026.005-4.048q.005-2.025.005-4.049A2.01 2.01 0 0 1 9.03 5zM14.5 20h3c.28 0 .5-.22.5-.5s-.22-.5-.5-.5h-3c-.28 0-.5.22-.5.5s.22.5.5.5"/><path fill="#E6E6E6" d="M14.5 20h3c.28 0 .5-.22.5-.5s-.22-.5-.5-.5h-3c-.28 0-.5.22-.5.5s.22.5.5.5"/><path fill="#00A6ED" d="M23 8.19v6.62c0 .66-.53 1.19-1.19 1.19H10.19C9.53 16 9 15.47 9 14.81V8.19C9 7.53 9.53 7 10.19 7h11.62c.66 0 1.19.53 1.19 1.19"/><path fill="#636363" d="M23 7.83V10H9V7.83c0-.46.37-.83.83-.83h12.35c.45 0 .82.37.82.83"/></g></svg>