<svg xmlns="http://www.w3.org/2000/svg" xmlns:xlink="http://www.w3.org/1999/xlink" width="32" height="32" viewBox="0 0 32 32"><g fill="none"><path fill="#FF9F2E" d="M2 6a4 4 0 0 1 4-4h20a4 4 0 0 1 4 4v20a4 4 0 0 1-4 4H6a4 4 0 0 1-4-4z"/><path fill="#fff" d="M10 9a2 2 0 0 1 2-2h8a2 2 0 0 1 2 2v14a2 2 0 0 1-2 2h-8a2 2 0 0 1-2-2zm10.219.594h-8.375a.25.25 0 0 0-.25.25v12.344c0 .138.112.25.25.25h8.375a.25.25 0 0 0 .25-.25V9.844a.25.25 0 0 0-.25-.25m-13.559.495a.5.5 0 0 1 .093.7a8.3 8.3 0 0 0-1.706 5.055a8.3 8.3 0 0 0 1.942 5.349a.5.5 0 0 1-.766.642a9.3 9.3 0 0 1-2.176-5.991c0-2.128.712-4.091 1.911-5.661a.5.5 0 0 1 .701-.094M8.7 13.107a.5.5 0 0 1 .094.7a3.48 3.48 0 0 0-.716 2.122c0 .856.306 1.638.816 2.246a.5.5 0 0 1-.767.642a4.48 4.48 0 0 1-1.049-2.888c0-1.025.344-1.972.922-2.729a.5.5 0 0 1 .7-.093m14.563.7a.5.5 0 1 1 .795-.607c.578.757.921 1.704.921 2.73a4.48 4.48 0 0 1-1.049 2.887a.5.5 0 0 1-.766-.642c.509-.608.815-1.39.815-2.246c0-.798-.267-1.533-.716-2.122m2.135-3.718a.5.5 0 0 0-.094.7a8.3 8.3 0 0 1 1.706 5.055a8.3 8.3 0 0 1-1.942 5.349a.5.5 0 0 0 .766.642a9.3 9.3 0 0 0 2.176-5.991a9.3 9.3 0 0 0-1.911-5.661a.5.5 0 0 0-.7-.094"/></g></svg>