<svg xmlns="http://www.w3.org/2000/svg" xmlns:xlink="http://www.w3.org/1999/xlink" width="32" height="32" viewBox="0 0 32 32"><g fill="none"><path fill="#D3883E" d="M7.23 14.517a5.14 5.14 0 0 0-4.96 3.41c-.39 1.03-.36 2.18.1 3.18c.32.71.84 1.31 1.5 1.73l8.65 5.21a6.75 6.75 0 0 0 6.89 0l8.65-5.21c.65-.42 1.17-1.02 1.5-1.73c.46-1 .5-2.15.1-3.18a5.14 5.14 0 0 0-4.96-3.42c-5.34.15-11.605.142-17.47.01"/><path fill="#F3C07B" d="m14.07 9.518l-9.55 5.66c-1.4.83-1.4 2.85 0 3.67l9.55 5.66c1.17.69 2.62.69 3.79 0l9.55-5.66c1.4-.83 1.4-2.85 0-3.67l-9.55-5.66a3.73 3.73 0 0 0-3.79 0"/><path fill="#B97028" d="m14.02 11.758l1.46-.86c.3-.18.67-.18.97 0l1.45.86c.41.25.41.85 0 1.09l-1.46.86a.92.92 0 0 1-.96 0l-1.46-.86c-.41-.25-.41-.85 0-1.09m5.22 1.309l-1.46.86c-.41.24-.41.84 0 1.09l1.46.86c.3.18.67.18.96 0l1.46-.86c.41-.24.41-.84 0-1.09l-1.46-.86a.92.92 0 0 0-.96 0m-7.51.151l-1.46.86c-.41.24-.41.84 0 1.09l1.46.86c.3.18.67.18.96 0l1.46-.86c.41-.24.41-.84 0-1.09l-1.46-.86a.92.92 0 0 0-.96 0m2.29 3.029l1.46-.86c.3-.18.67-.18.96 0l1.46.86c.41.25.41.85 0 1.09l-1.46.86a.92.92 0 0 1-.96 0l-1.46-.86c-.41-.25-.41-.85 0-1.09m-7.51.151l1.46-.86c.3-.18.67-.18.96 0l1.46.86c.41.25.41.85 0 1.09l-1.46.86a.92.92 0 0 1-.96 0l-1.46-.86c-.41-.25-.41-.85 0-1.09m5.22 1.309l-1.46.86c-.41.24-.41.84 0 1.09l1.46.86c.3.18.67.18.96 0l1.46-.86c.41-.24.41-.84 0-1.09l-1.46-.86a.92.92 0 0 0-.96 0m3.75 2.17l-1.46.86c-.41.24-.41.84 0 1.09l1.46.86c.3.18.67.18.96 0l1.46-.86c.41-.24.41-.84 0-1.09l-1.46-.86a.92.92 0 0 0-.96 0m3.76-2.32l-1.46.86c-.41.24-.41.84 0 1.09l1.46.86c.3.18.67.18.96 0l1.46-.86c.41-.24.41-.84 0-1.09l-1.46-.86a.92.92 0 0 0-.96 0m2.3-1.46l1.46-.86a.9.9 0 0 1 .96.01l1.46.86c.41.25.41.85 0 1.09l-1.46.86a.92.92 0 0 1-.96 0l-1.46-.87c-.41-.25-.41-.85 0-1.09"/><path fill="#F9C23C" d="m17.32 15.358l-.43-.26c-.57-.34-1.28-.34-1.85 0l-.44.26h-3.2v2.04c0 .4.19.79.58 1.02l3.06 1.81c.57.34 1.28.34 1.85 0l3.06-1.81c.39-.23.58-.63.58-1.02v-2.04z"/><path fill="#FCD53F" d="m15.04 12.588l-3.06 1.82a1.19 1.19 0 0 0 0 2.05l3.06 1.81c.57.34 1.28.34 1.85 0l3.06-1.81c.78-.46.78-1.59 0-2.05l-3.06-1.81c-.57-.35-1.28-.35-1.85-.01"/></g></svg>