<svg xmlns="http://www.w3.org/2000/svg" xmlns:xlink="http://www.w3.org/1999/xlink" width="32" height="32" viewBox="0 0 32 32"><g fill="none"><path fill="#BEBEBE" d="m13.52 2.3l-1.79.94l.18.342l-1.902 3.622L7.86 3.12l-1.79.94l2.796 5.317l-1.857 3.535l-.427-.812L5.56 3.61l-2.8.33l3.1 25.75l2.8-.34l-.393-3.262l1.694-3.221l1.905 3.62l-1.196 2.273l1.79.94l.684-1.303l1.576-.827l-.57-1.085l1.856-3.533l1.86 3.534l-1.096 2.084l1.79.94l.448-.852l.022.042l1.79-.94l-.67-1.274l1.903-3.62l1.634 3.106l-.407 3.378l2.8.34l3.1-25.75l-2.8-.33l-1.044 8.665l-.332.632l-1.86-3.535L25.41 5.06l-1.78-.94l-1.625 3.09l-2.515-4.78l-1.78.94l.111.212l-1.813 3.448L13.52 2.3Zm11.137 15.611l-.545 4.527l-.917-1.744l1.462-2.783ZM7.841 22.554l-.58-4.822l1.558 2.963l-.978 1.859Zm16.022-7.476l-1.81 3.444l-1.86-3.536l1.81-3.446l1.86 3.538Zm-2.953 5.616l-1.903 3.62l-1.859-3.535l1.903-3.62l1.86 3.535Zm-6.044.089l-1.858 3.532l-1.904-3.62l1.858-3.532l1.904 3.62Zm3.045-5.79l-1.903 3.618l-1.904-3.62l1.904-3.618l1.903 3.62Zm2.955-5.618l-1.813 3.445l-1.903-3.619l1.813-3.446l1.903 3.62ZM8.148 15.077l1.858-3.533l1.813 3.448l-1.858 3.532l-1.813-3.447Zm3-5.704l1.904-3.62l1.813 3.448l-1.903 3.62l-1.813-3.448Z"/><path fill="#9B9B9B" d="M4 6h24c1.1 0 2-.9 2-2s-.9-2-2-2H4c-1.1 0-2 .9-2 2s.9 2 2 2Zm3 24h18c1.1 0 2-.9 2-2s-.9-2-2-2H7c-1.1 0-2 .9-2 2s.9 2 2 2Z"/></g></svg>