<svg xmlns="http://www.w3.org/2000/svg" xmlns:xlink="http://www.w3.org/1999/xlink" width="32" height="32" viewBox="0 0 32 32"><g fill="none"><path fill="#008463" d="m29.41 21.61l-.58-.58c-5.681 5.681-17.94 0-17.94 0s-5.681-12.259 0-17.94l-.58-.58c-.68-.68-1.78-.68-2.46 0L6.47 3.89C.51 9.85.51 19.51 6.47 25.46c5.96 5.96 15.62 5.96 21.57 0l1.38-1.38c.67-.69.67-1.79-.01-2.47"/><path fill="#FFF3D7" d="M8.14 23.785c4.95 4.95 13.094 4.946 18.044-.004l2.646-2.675v-.076l-1.19-1.19c-5.064 5.064-14.64 0-14.64 0S6.996 9.324 12.06 4.26l-1.17-1.168h-.09L8.133 5.746c-4.95 4.95-4.942 13.09.008 18.04"/><path fill="#F8312F" d="M9.164 22.742c4.3 4.3 11.364 4.316 15.664.016l2.812-2.832v-.086L12.057 4.264l-.116.021l-2.797 2.797c-4.3 4.3-4.28 11.36.02 15.66"/><path fill="#1C1C1C" d="M13.95 10.76a1.09 1.09 0 1 1-2.18 0a1.09 1.09 0 0 1 2.18 0m-2.43 6.64a1.09 1.09 0 1 0 0-2.18a1.09 1.09 0 0 0 0 2.18m4.08 4.08a1.09 1.09 0 1 0 0-2.18a1.09 1.09 0 0 0 0 2.18m1.35-5.54a1.09 1.09 0 1 0 0-2.18a1.09 1.09 0 0 0 0 2.18m5.28 3.11a1.09 1.09 0 1 1-2.18 0a1.09 1.09 0 0 1 2.18 0"/></g></svg>