<svg xmlns="http://www.w3.org/2000/svg" xmlns:xlink="http://www.w3.org/1999/xlink" width="32" height="32" viewBox="0 0 32 32"><path fill="#785DC8" fill-rule="evenodd" d="M1.969 14.06a1.5 1.5 0 0 1 1.5-1.5c.49 0 .93.155 1.26.308c.348.16.688.373 1.004.598c.631.45 1.291 1.04 1.905 1.64c1.247 1.216 3.195 1.028 4.045-.198c2.089-3.013 6.567-3.05 8.673-.021c.842 1.21 2.79 1.393 4.05.15c.594-.585 1.234-1.16 1.855-1.599c.544-.384 1.36-.878 2.239-.878a1.5 1.5 0 0 1 .065 3l-.077.03a3 3 0 0 0-.496.299c-.43.303-.939.751-1.48 1.285c-2.37 2.337-6.55 2.401-8.619-.575c-.898-1.292-2.835-1.294-3.744.018c-2.048 2.954-6.214 2.97-8.606.635c-.566-.552-1.1-1.021-1.551-1.342a3.5 3.5 0 0 0-.522-.319l-.077-.032a1.5 1.5 0 0 1-1.424-1.498" clip-rule="evenodd"/></svg>