<svg xmlns="http://www.w3.org/2000/svg" xmlns:xlink="http://www.w3.org/1999/xlink" width="32" height="32" viewBox="0 0 32 32"><g fill="none"><path fill="#FFB02E" d="M15.999 29.998c9.334 0 13.999-6.268 13.999-14c0-7.73-4.665-13.998-14-13.998C6.665 2 2 8.268 2 15.999s4.664 13.999 13.999 13.999"/><path fill="#402A32" d="M12.5 5a.5.5 0 0 1 .5.5c0 1.136-.43 2.024-1.105 2.624C11.229 8.715 10.357 9 9.5 9a.5.5 0 0 1 0-1c.643 0 1.27-.215 1.73-.624c.45-.4.77-1.012.77-1.876a.5.5 0 0 1 .5-.5m1.394 6.447a1 1 0 1 0-1.788-.894c-.348.695-1.131 1.184-2.088 1.322c-.969.14-1.848-.12-2.31-.582a1 1 0 0 0-1.415 1.414c1.037 1.037 2.623 1.348 4.011 1.148c1.402-.203 2.868-.964 3.59-2.408m4.212 0a1 1 0 1 1 1.788-.894c.348.695 1.131 1.184 2.088 1.322c.969.14 1.848-.12 2.31-.582a1 1 0 0 1 1.415 1.414c-1.037 1.037-2.623 1.348-4.011 1.148c-1.402-.203-2.868-.964-3.59-2.408M19 5.5a.5.5 0 0 1 1 0c0 .864.32 1.476.77 1.876c.46.409 1.087.624 1.73.624a.5.5 0 0 1 0 1c-.857 0-1.73-.285-2.395-.876C19.431 7.524 19 6.636 19 5.5"/><path fill="#BB1D80" d="M10.343 18a9 9 0 0 0-3.22 5.506C6.987 24.323 7.671 25 8.5 25h15c.829 0 1.513-.677 1.377-1.494A9 9 0 0 0 21.657 18L16 17z"/><path fill="#fff" d="M21.657 18H10.343A8.96 8.96 0 0 1 16 16c2.143 0 4.112.75 5.657 2"/></g></svg>