<svg xmlns="http://www.w3.org/2000/svg" xmlns:xlink="http://www.w3.org/1999/xlink" width="32" height="32" viewBox="0 0 32 32"><g fill="none"><path fill="#FFB02E" d="M4 25.942C4 28.174 5.763 30 7.918 30h16.164C26.237 30 28 28.073 28 25.84V6.43c0-1.3-1.59-1.9-2.485-1L20.974 10h-9.812L6.5 5.43c-.9-.9-2.5-.3-2.5 1v19.512Z"/><path fill="#FF822D" d="m9 10.927l-2.8 2.6c-.5.5-1.4.1-1.4-.6v-5.2c0-.6.9-1 1.4-.5l2.8 2.6c.3.3.3.8 0 1.1Zm14.05 0l2.8 2.6c.5.5 1.4.1 1.4-.6v-5.2c0-.6-.9-1-1.4-.5l-2.8 2.6c-.3.3-.3.8 0 1.1Z"/><path fill="#FF6723" d="M2.724 20.053a.5.5 0 1 0-.448.894l4 2a.5.5 0 1 0 .448-.894l-4-2Zm0 6.894a.5.5 0 1 1-.448-.894l4-2a.5.5 0 1 1 .448.894l-4 2Zm27.223-6.671a.5.5 0 0 0-.67-.223l-4 2a.5.5 0 1 0 .447.894l4-2a.5.5 0 0 0 .223-.67Zm-.671 6.671a.5.5 0 1 0 .448-.894l-4-2a.5.5 0 1 0-.448.894l4 2Z"/><path fill="#FF822D" d="M12 24v6H7.918C5.763 30 4 28.174 4 25.942V20a5 5 0 0 1 8 4Zm12.082 6H20v-6a5 5 0 0 1 8-4v5.84c0 2.233-1.763 4.16-3.918 4.16Z"/><path fill="#F70A8D" d="M17.043 19h-2.086a.5.5 0 0 0-.353.854l1.043 1.042a.5.5 0 0 0 .707 0l1.043-1.042a.5.5 0 0 0-.354-.854Z"/><path fill="#FFB02E" d="M7 20a4 4 0 0 0-4 4v6h8v-6a4 4 0 0 0-4-4Zm18 0a4 4 0 0 0-4 4v6h8v-6a4 4 0 0 0-4-4Z"/><path fill="#BB1D80" d="M14 24a2 2 0 1 1 4 0v1a2 2 0 1 1-4 0v-1Z"/><path fill="#fff" d="M11.5 19a3.5 3.5 0 1 0 0-7a3.5 3.5 0 0 0 0 7Zm9 0a3.5 3.5 0 1 0 0-7a3.5 3.5 0 0 0 0 7Z"/><path fill="#FF6723" d="M5 20.535a3.97 3.97 0 0 1 1-.409V23.5a.5.5 0 0 1-1 0v-2.965Zm3-.409c.355.091.69.23 1 .41V23.5a.5.5 0 0 1-1 0v-3.374Zm15 .409a3.97 3.97 0 0 1 1-.409V23.5a.5.5 0 0 1-1 0v-2.965Zm3-.409c.355.091.69.23 1 .41V23.5a.5.5 0 0 1-1 0v-3.374Z"/></g></svg>