<svg xmlns="http://www.w3.org/2000/svg" xmlns:xlink="http://www.w3.org/1999/xlink" width="32" height="32" viewBox="0 0 32 32"><g fill="none"><path stroke="#636363" stroke-linecap="round" stroke-width="3" d="M6.938 21.595c-.624.5-1.75 4.282-.812 6.94"/><path stroke="#9B9B9B" stroke-linecap="round" stroke-width="3" d="M6.938 21.595c-.625.5.282 5.284 2.376 6.94"/><path stroke="#636363" stroke-linecap="round" stroke-width="4" d="M7.733 16.282c.47 1.939-.613 6.835 5.67 11.712"/><path stroke="#9B9B9B" stroke-linecap="round" stroke-width="4" d="M7.733 16.282c.468 1.939 2.75 7.379 10.503 9.911"/><path stroke="#636363" stroke-linecap="round" stroke-width="4" d="M7.983 13.313c.118.427 4.345 10.067 13.755 9.535"/><path stroke="#9B9B9B" stroke-linecap="round" stroke-width="5" d="M10.766 14.062c.406-.844 4.501 5.315 13.317 4.658"/><path stroke="#636363" stroke-linecap="round" stroke-width="5" d="M11.016 10.967c.157.327 6.868 5.14 15.413 2.924"/><path stroke="#9B9B9B" stroke-linecap="round" stroke-width="6" d="M10.046 9.22c.391.167 9.4 3.132 16.997-1.062"/><path fill="#BEBEBE" fill-rule="evenodd" d="M29.328 4.754a1.5 1.5 0 1 0-1.65-2.506c-6.412 4.223-15.215 3.826-16.8 3.754q-.17-.008-.226-.008l-.074.002l-.075-.001a4.5 4.5 0 0 0-4.497 4.301l-2.99 18.545a1 1 0 1 0 1.975.318L6.85 17.635c.15.531.383 1.075.725 1.61a.658.658 0 1 0 1.109-.71a4.8 4.8 0 0 1-.645-1.563c.38.442.85.86 1.429 1.211a.657.657 0 1 0 .682-1.126a4.7 4.7 0 0 1-1.313-1.192c.59.41 1.302.756 2.147.94a.657.657 0 1 0 .28-1.285a4.7 4.7 0 0 1-1.42-.57q.324.048.66.049a4.502 4.502 0 0 0 4.244-6.005c.73-.038 1.531-.1 2.382-.195c3.614-.408 8.254-1.447 12.2-4.045" clip-rule="evenodd"/><path fill="#DADADA" d="M9.503 13.965A4.502 4.502 0 0 0 13.85 8.29c-.074-.274.251-.513.408-.277a4.502 4.502 0 0 1-6.361 6.154c-.232-.164.018-.48.29-.398c.416.127.858.196 1.316.196"/></g></svg>