<svg xmlns="http://www.w3.org/2000/svg" xmlns:xlink="http://www.w3.org/1999/xlink" width="32" height="32" viewBox="0 0 32 32"><g fill="none"><path fill="#FFB02E" d="M15.999 29.998c9.334 0 13.999-6.268 13.999-14c0-7.73-4.665-13.998-14-13.998C6.665 2 2 8.268 2 15.999s4.664 13.999 13.999 13.999"/><path fill="#fff" d="M18.806 17.17c.89-.33 1.85-.53 2.86-.53s1.97.19 2.85.53a4.22 4.22 0 0 0 1.39-3.13c0-2.35-1.9-4.25-4.25-4.25s-4.25 1.9-4.25 4.25a4.25 4.25 0 0 0 1.4 3.13"/><path fill="#BB1D80" d="M15.999 26c-7 0-7-7-7-7h14s0 7-7 7"/><path fill="#F70A8D" d="M16.016 29c4.2 0 4.87-4.2 5-5.25c.1-.85-.35-1.28-.84-1.57s-1.96-.56-4.16-.56s-3.66.27-4.16.56s-.95.72-.84 1.57c.13 1.05.8 5.25 5 5.25"/><path fill="#fff" d="M22.859 20.43c.09-.46.14-.94.14-1.43h-14c0 .49.05.96.14 1.43z"/><path fill="#402A32" d="M23.931 7.988c.593.562.951 1.24 1.095 1.67a.5.5 0 1 0 .949-.316c-.19-.57-.632-1.392-1.356-2.08C23.888 6.567 22.853 6 21.5 6a.5.5 0 0 0 0 1c1.048 0 1.847.433 2.431.988M10.5 8a.5.5 0 1 1 0 1c-.559 0-1.34.216-2.04.67c-.694.45-1.263 1.104-1.475 1.951a.5.5 0 0 1-.97-.242c.288-1.153 1.052-1.998 1.9-2.548C8.759 8.284 9.726 8 10.5 8m2.092 7.054c-.05-.2-.402-.898-1.498-.898s-1.449.697-1.498.898a1 1 0 1 1-1.941-.483c.224-.904 1.244-2.415 3.439-2.415s3.215 1.511 3.44 2.415a1 1 0 1 1-1.942.483M23.209 14a2 2 0 1 1-4 0a2 2 0 0 1 4 0"/></g></svg>