<svg xmlns="http://www.w3.org/2000/svg" xmlns:xlink="http://www.w3.org/1999/xlink" width="32" height="32" viewBox="0 0 32 32"><g fill="none"><path fill="#E6E6E6" d="M27 17c0-8.96-4.402-11.81-4.402-11.81L16 11.69l-6.598-6.5S5 8.04 5 17v13h22V17Z"/><path fill="#D3D3D3" d="M21.85 12H10.13v10.56h11.72V12Z"/><path fill="#000" d="M23.178 11.924c.208-.435.322-.918.322-1.43c0-.672-.199-1.297-.55-1.818a3.162 3.162 0 0 1-.53-1.77v-.01A3.298 3.298 0 0 0 19.126 3.6a.565.565 0 0 1-.454-.227A3.252 3.252 0 0 0 16 2c-1.098 0-2.074.54-2.67 1.373a.549.549 0 0 1-.455.237A3.298 3.298 0 0 0 9.58 6.905v.01c0 .634-.18 1.24-.53 1.77a3.262 3.262 0 0 0-.55 1.81c0 .51.114.994.322 1.43a.544.544 0 0 1 0 .454A3.213 3.213 0 0 0 11.71 17h8.57c1.771 0 3.21-1.44 3.21-3.21c0-.502-.113-.985-.321-1.411a.583.583 0 0 1 .009-.455Z"/><path fill="#452829" d="M8.975 20.537A10.937 10.937 0 0 1 13.46 18.3c.28-.06.48-.32.48-.61v-2.96c0-1.13.9-2.04 2.02-2.06c1.16-.02 2.1.95 2.1 2.1v2.92c0 .29.2.54.48.61a10.986 10.986 0 0 1 4.294 2.086C21.306 21.965 18.74 23 15.83 23c-2.816 0-5.311-.97-6.854-2.463Z"/><path fill="#F4F4F4" d="M27 29c0-3.42-1.56-6.48-4.01-8.49c-1.53 2-3.9 3.17-6.41 3.17h-1.15c-2.52 0-4.89-1.17-6.41-3.17A10.949 10.949 0 0 0 5 29v1h22v-1Z"/><path fill="#D3D3D3" d="M8.714 20.096a1 1 0 0 1 1.414-.026l.003.003c.236.226.336.54.3.841a.999.999 0 0 1 .89.086l.007.004a.999.999 0 0 1 .467.765a.998.998 0 0 1 .891-.096l.008.003a.998.998 0 0 1 .611.657a.999.999 0 0 1 .856-.27h.009a.998.998 0 0 1 .729.525a.999.999 0 0 1 .786-.434h.006a1 1 0 0 1 .297.032c.092-.032.19-.052.293-.056h.003a1 1 0 0 1 .297.033a.976.976 0 0 1 .293-.056h.006a.997.997 0 0 1 .716.262a.997.997 0 0 1 .627-.435l.008-.002a.997.997 0 0 1 .751.133a.997.997 0 0 1 .54-.539l.008-.003a.996.996 0 0 1 .762-.002a.997.997 0 0 1 .434-.625l.007-.005a.997.997 0 0 1 .747-.139a.997.997 0 0 1 .311-.691l.003-.003a1 1 0 0 1 1.376 1.451l-.003.004a1 1 0 0 1-.892.253a1 1 0 0 1-.456.805l-.009.005a.999.999 0 0 1-.92.086a1 1 0 0 1-.593.708l-.009.004a.999.999 0 0 1-.92-.08a.999.999 0 0 1-.707.591l-.01.002a.999.999 0 0 1-.89-.24a.999.999 0 0 1-.801.458h-.007a.998.998 0 0 1-.296-.032c-.093.032-.19.051-.294.055h-.003a.997.997 0 0 1-.297-.032c-.092.032-.19.052-.293.056h-.007a1 1 0 0 1-.925-.535a1 1 0 0 1-.982.422l-.011-.002a1 1 0 0 1-.802-.707a1 1 0 0 1-1.047.22l-.01-.003a1 1 0 0 1-.647-.853a1 1 0 0 1-1.07.007l-.01-.006a1 1 0 0 1-.462-.968a1 1 0 0 1-1.052-.213l-.004-.003a1 1 0 0 1-.027-1.415Z"/><path fill="#44911B" d="M23.621 24c-.88.01-1.61.75-1.61 1.65v.097a1.68 1.68 0 0 0-.194.034c-.122-.477-.614-.868-1.256-.861l-8.4.1c-.597.006-1.054.354-1.2.786a1.68 1.68 0 0 0-.17-.029v-.097c0-.9-.73-1.64-1.61-1.65h-1.09c-.05 0-.1.05-.09.1c.05.987.86 1.79 1.862 1.81a1.557 1.557 0 0 0-.392.28l-.77.77c-.04.04-.04.1 0 .14c.75.67 1.91.66 2.62-.06l.036-.036L13.495 30h5.851l2.059-3.037l.076.077c.71.72 1.87.73 2.62.06c.04-.04.04-.1 0-.14l-.77-.77a1.555 1.555 0 0 0-.39-.28a1.91 1.91 0 0 0 1.86-1.81c.01-.05-.04-.1-.09-.1h-1.09Z"/><path fill="#F70A8D" d="m14.06 25.233l-2.71 1.12l-.66-1.61c-.41-1.01-.41-2.14.02-3.15a.36.36 0 0 1 .47-.19c1 .41 1.8 1.21 2.21 2.21l.67 1.62Zm4.17.101l2.71 1.12l.66-1.61c.41-1.01.41-2.14-.02-3.15a.36.36 0 0 0-.47-.19c-1 .41-1.8 1.21-2.21 2.21l-.67 1.62Z"/><path fill="#FF6DC6" d="M8.634 22.256c-.122.058-.173.225-.101.381l.731 1.713c.204.47.6 1.126.936 1.44c.813.792 1.799.88 2.734.508c1.017-.401 1.657-1.262 1.555-2.486c-.02-.294-.193-.842-.294-1.135a9.985 9.985 0 0 0-.061-.157a9.424 9.424 0 0 1-.061-.157l-.702-1.644c-.07-.157-.223-.245-.356-.196c-.894.353-1.128 1.919-.935 3.29c.03.234-.213.342-.366.146c-.864-1.106-2.185-2.065-3.08-1.703Zm14.732.1c.122.059.173.225.102.382l-.732 1.713c-.204.47-.6 1.125-.936 1.438c-.813.793-1.799.881-2.734.51c-1.017-.402-1.657-1.263-1.555-2.487c.02-.293.193-.842.294-1.135l.061-.157l.061-.157l.702-1.644c.07-.156.223-.244.355-.196c.895.353 1.129 1.919.936 3.29c-.03.234.213.342.366.146c.864-1.106 2.185-2.065 3.08-1.703Z"/><path fill="#FFF478" d="M12.78 23.159a1.166 1.166 0 0 1 1.502-.86l.591.192l-.05-.597a1.166 1.166 0 1 1 2.324-.02l-.04.567l.572-.213c.64-.243 1.352.132 1.533.81c.17.657-.241 1.334-.912 1.456l-.521.1l.44.527a1.193 1.193 0 0 1-.22 1.73a1.162 1.162 0 0 1-1.673-.365l-.27-.425l-.21.435a1.156 1.156 0 0 1-1.654.425a1.188 1.188 0 0 1-.29-1.72l.41-.535l-.57-.081a1.176 1.176 0 0 1-.963-1.426Z"/><path fill="#FFB02E" d="M16.06 25a1 1 0 1 0 0-2a1 1 0 0 0 0 2Z"/><path fill="#573739" d="M19.911 7.36h-3.172a3.82 3.82 0 0 1-3.144-1.657a.258.258 0 0 0-.455.057l-.076.189c-.236.55-.662.975-1.193 1.212c-.028.01-.066.028-.104.038c-.227.123-.776.483-.795 1.43l.132 3.163c.114 2.803 2.273 4.678 4.896 4.678c2.623 0 4.782-1.875 4.896-4.678l.123-3.012c0-1.325-.928-1.42-1.108-1.42Z"/><path fill="#000" d="M13.396 9.197c.559 0 1.013.388 1.307.824c-.23.07-.455.133-.676.197c-.444.127-.877.25-1.332.409l-.473-.426c-.19-.18-.18-.502.038-.654a1.99 1.99 0 0 1 1.136-.35Zm5.218 0c-.56 0-1.023.388-1.307.824c.247.075.487.144.727.213c.422.121.84.242 1.28.393l.474-.426c.19-.18.18-.502-.038-.654a1.99 1.99 0 0 0-1.136-.35Z"/><path fill="#fff" d="M13.566 9.3c-.653 0-1.202.446-1.354 1.052c-.038.17.095.34.275.34h2.225c.142 0 .256-.132.227-.264A1.401 1.401 0 0 0 13.566 9.3Zm4.868 0c.653 0 1.202.446 1.354 1.052a.281.281 0 0 1-.265.34h-2.226c-.142 0-.255-.132-.227-.264A1.391 1.391 0 0 1 18.434 9.3Z"/><path fill="#7D4533" d="M12.884 10.457a.89.89 0 1 1 1.78 0c0 .075-.009.16-.037.236h-1.714a.956.956 0 0 1-.029-.236Zm6.232 0a.89.89 0 0 0-.89-.89a.875.875 0 0 0-.881.89c0 .085.01.16.028.236h1.714a.956.956 0 0 0 .029-.236Z"/><path fill="#000" d="M13.765 9.945a.51.51 0 0 1 .511.511a.427.427 0 0 1-.066.237h-.9a.513.513 0 0 1 .455-.748Zm4.47 0a.51.51 0 0 0-.511.511c0 .085.018.161.066.237h.9a.513.513 0 0 0-.455-.748Z"/><path fill="#3D2123" d="M13.633 10.106a.16.16 0 1 1-.322 0a.16.16 0 0 1 .322 0Zm4.46 0a.16.16 0 1 1-.322 0a.16.16 0 0 1 .322 0Zm-2.439.184l-.496 1.738c-.103.356.14.722.487.722h.73c.345 0 .589-.366.486-.722l-.496-1.738c-.103-.387-.599-.387-.71 0Z"/><path fill="#290118" d="M16 13.706c-.55 0-1.07-.14-1.508-.385c-.153-.085-.306.096-.214.246c.367.587.999.982 1.722.982c.724 0 1.356-.395 1.723-.982c.092-.15-.071-.32-.214-.246a3.118 3.118 0 0 1-1.509.385Z"/><path fill="#000" d="M19.4 8.648a.217.217 0 0 0 .132.038c.095 0 .18-.047.227-.142a.265.265 0 0 0-.094-.37c-.029-.018-.9-.501-1.894-.321a.267.267 0 0 0-.218.312c.028.152.17.246.313.218c.736-.13 1.4.2 1.516.257l.018.008Zm-7.17-.095a.282.282 0 0 0 .238.133a.3.3 0 0 0 .132-.029c.01-.01.73-.407 1.534-.265a.256.256 0 0 0 .303-.218c.029-.142-.075-.284-.217-.312c-.954-.182-1.785.263-1.886.317l-.008.005a.273.273 0 0 0-.095.37Z"/><path fill="#D3D3D3" d="M8.992 7.31a.723.723 0 0 1-.455-.16a.745.745 0 0 1-.129-1.05c.1-.13 2.454-3.1 7.59-3.1c5.136 0 7.49 2.97 7.59 3.1c.257.33.198.8-.129 1.05a.734.734 0 0 1-1.039-.13c-.01-.02-.524-.65-1.553-1.26c-1.396-.83-3.028-1.26-4.869-1.26c-1.84 0-3.473.43-4.868 1.26c-1.04.62-1.554 1.26-1.554 1.26a.742.742 0 0 1-.584.29Z"/></g></svg>