<svg xmlns="http://www.w3.org/2000/svg" xmlns:xlink="http://www.w3.org/1999/xlink" width="32" height="32" viewBox="0 0 32 32"><g fill="none"><path fill="#573739" d="M18.106 9.89a.77.77 0 0 1 .774.104l2.423 1.888c.02.312.118.704.477.728h.52s.17.36.5.25c.3-.127.568-.322.78-.57c.28-.33.52-.87.41-1.14a2.4 2.4 0 0 0-.7-.69l-.7-.52l-2.29-1.754a3.08 3.08 0 0 0-3.073-.422l-3.28 1.296l.29.731l-.432-.328a5.93 5.93 0 0 1-8.037 1.32c-.058-.284-.2-.66-.538-.823a.39.39 0 0 0-.52.07s-.19-.36-.52-.22a2.4 2.4 0 0 0-.77.63a1.37 1.37 0 0 0-.17 1.2a2 2 0 0 0 .59.66l.404.222a8.23 8.23 0 0 0 11.38-1.65l2.47-.977zm-.186 5.68l-.45-.29q.103.191.172.395l-4.267 3.598l-2.668-.024l-.657.56A7.5 7.5 0 0 0 9 22.07l-2.1 5.62l1.41.93l3.56-6.24l3.76-2.876l2.01 2.827a2 2 0 0 0 2.05.79l6.2-1.39l-.61-1.73l-5.45.48l-2.044-4.02a2.7 2.7 0 0 0-.144-.786z"/><path fill="#452829" d="m13.73 7l1.05 2.05l-2.1 1.1l-1.05-2.1z"/><path fill="#533566" d="M27.364 23.912L25 21.798l.085-1.861l1.144-.408a.49.49 0 0 1 .626.292s1.092 2.995 1.263 3.63c.067.215-.554.639-.755.46M4 27.15h3.19l1.11 1.51l-.54 1a.48.48 0 0 1-.66.2S4.3 28.36 3.74 28c-.18-.12 0-.85.26-.85"/><path fill="#636363" d="m14.64 18.21l2.5 3.44l2.24-1.42a1.2 1.2 0 0 0 .37-1.63l-1.93-3.19z"/><path fill="#9B9B9B" d="m10.701 19.239l2.51 2.46a1.262 1.262 0 0 0 1.91-.16l2.29-3.19s1-1.44.65-2.34a2.5 2.5 0 0 0-.48-1l-4.84 2.48"/><path fill="#3D2123" d="M4.793 10.042a.127.127 0 0 1-.011.177q-.3.264-.51.602a.26.26 0 0 0-.014.168a.22.22 0 0 0 .077.11a.26.26 0 0 0 .112.05a.1.1 0 0 0 .03.001q.146-.143.277-.297a.5.5 0 0 1 .06-.085c.101-.11.184-.068.221-.023a.125.125 0 0 1 .002.158l-.074.09l-.009.02c-.038.088-.08.262-.06.585a.125.125 0 0 1-.25.014a3 3 0 0 1-.003-.273c-.069.064-.164.068-.233.057a.5.5 0 0 1-.39-.336a.5.5 0 0 1 .035-.36q.233-.377.563-.669a.125.125 0 0 1 .177.011" opacity=".51"/><path fill="#8B62BF" d="m12.74 17.52l5.18-1.95c-.473-.857-1.52-2.883-1.92-4.136c-.04-2.182-1.27-2.734-1.27-2.734a2.38 2.38 0 0 0-2.35.42a2.45 2.45 0 0 0-.866 1.331l-.004-.001a8.77 8.77 0 0 0 1.23 7.07"/><path fill="#A17FD5" d="M14.337 11.257a1.5 1.5 0 0 1-.776-2.898l3.38-.906l.777 2.898z"/><path fill="#573739" d="m12.702 3.23l-1.17-.01c-.98 0-1.79.787-1.8 1.774v.498q0 .24-.12.448c-.24.4-.35.439-.36.638c-.03.31.26.389.4.409c.04 0 .07.04.07.08c.02 1.106.22 1.893 1.54 1.903c.81.01 2.09-.389 2.46-1.335l.35-1.276l.4-1.335a1.79 1.79 0 0 0-1.77-1.794"/><path fill="#290118" d="M10.842 7.067a.12.12 0 0 1 .073.153a.64.64 0 0 1-.823.403a.12.12 0 1 1 .08-.226a.4.4 0 0 0 .518-.257a.12.12 0 0 1 .152-.073"/><path fill="#000" d="M10.298 4.683a1.3 1.3 0 0 1 .854.21l.005.004l.002.001h.001a.128.128 0 0 1-.156.203l-.002-.001l-.064-.04a1 1 0 0 0-.196-.083l-.198-.04a1 1 0 0 0-.218 0a.128.128 0 1 1-.028-.254m-.156.877s.22-.37.68-.29c.18.03.31.13.39.22c.07.07.06.19-.03.25l-.32.23z"/><path fill="#fff" d="M10.172 6.02c-.07 0-.13-.07-.13-.15v-.01c0-.33.29-.51.56-.51s.55.19.55.52v.01c0 .08-.06.15-.13.15z"/><path fill="#7D4533" d="M10.072 6.03c-.01-.05-.02-.1-.02-.15c0-.24.15-.43.34-.43s.34.2.33.43c0 .05-.01.11-.02.15z"/><path fill="#000" d="M10.182 6.02a.26.26 0 0 1-.04-.15c0-.14.09-.25.2-.24c.11 0 .19.11.19.25c0 .06-.02.11-.04.15z"/><path fill="#fff" d="M10.284 5.692c0-.044-.027-.08-.06-.08s-.06.035-.06.079s.026.08.059.08s.06-.035.06-.079"/><path fill="#000" d="M9.492 3.01c.17-.61.79-1.19 1.39-.96c.67.23.79.41 1.61.18c1.21-.35 2.99-.14 3.01 1.81c.01.68-.05 1.19-.14 1.57c-.08.32.03.66.27.88c.06.05.12.11.17.18c.29.34.41.8.32 1.24a1.57 1.57 0 0 1-2.02 1.22a.6.6 0 0 1-.12-.04a2.04 2.04 0 0 1-1.4-2.02l.03-1.77c0-.25-.08-.49-.22-.67a.78.78 0 0 0-.5-.29a.8.8 0 0 0-.48.06c-.24.11-.52.16-.81.12c-.14-.02-.28-.05-.41-.11c-.16-.07-.29-.14-.38-.24c-.31-.29-.44-.73-.32-1.16"/></g></svg>