<svg xmlns="http://www.w3.org/2000/svg" xmlns:xlink="http://www.w3.org/1999/xlink" width="32" height="32" viewBox="0 0 32 32"><g fill="none"><path fill="#212121" d="M24.5 15.634a3.7 3.7 0 0 1-.367 1.615a.58.58 0 0 0 0 .516A3.637 3.637 0 0 1 20.857 23h-9.714A3.637 3.637 0 0 1 7.5 19.357c0-.573.137-1.111.367-1.592a.58.58 0 0 0 0-.516a3.73 3.73 0 0 1 .25-3.673l.001-.004c.39-.596.596-1.294.596-2.005v-.011A3.735 3.735 0 0 1 12.45 7.82a.64.64 0 0 0 .515-.263A3.74 3.74 0 0 1 16 6c1.249 0 2.36.619 3.036 1.558a.61.61 0 0 0 .515.263a3.735 3.735 0 0 1 3.735 3.735v.011c0 .71.206 1.41.595 2.005l.003.004c.125.182.227.375.318.58h-.006c.195.453.304.95.304 1.478"/><path fill="#FFD7C2" d="M15 2.62c0-.4-.312-.62-.702-.62l-1.798.1S12.382 2 12 2c-1.106 0-2.44.966-3 1.5L7.5 5L10 6.5c.868.579 1.484.237 2.188-.154c.513-.285 1.073-.596 1.812-.596c1 0 1.2-.198 1.2-.9c.2 0 .7-.35.4-.95c0 0 .456-.175.3-.8c-.054-.215-.326-.48-.9-.48"/><path fill="#FFD7C2" d="M16.933 2.62c0-.4.311-.62.702-.62l1.798.1s.118-.1.5-.1c1.106 0 2.439.966 3 1.5l1.5 1.5l-2.5 1.5c-.868.579-1.484.237-2.189-.154c-.513-.285-1.073-.596-1.811-.596c-1 0-1.2-.198-1.2-.9c-.2 0-.7-.35-.4-.95c0 0-.457-.175-.3-.8c.053-.215.325-.48.9-.48"/><path fill="#F1B99B" d="M10.943 2.518c.01.033.045.052.078.042c.801-.27 1.322-.42 1.482-.46c0 0-.028-.024-.101-.048l-.138.031a15 15 0 0 0-.407.107c-.304.083-.648.183-.872.25a.06.06 0 0 0-.042.078m3.462 1.945a1.1 1.1 0 0 1 .442.088c.219.099.356.238.356.299q.028 0 .062-.009v-.027c-.057-.214-.203-.303-.366-.377a1.2 1.2 0 0 0-.496-.1l-1.404.1a.063.063 0 0 0 .008.125zm.902-.827a.7.7 0 0 0-.304-.073h-2a.062.062 0 1 1 0-.125h2a.84.84 0 0 1 .36.086a.55.55 0 0 1 .297.346c-.034.021-.057.03-.057.03c0-.035-.06-.136-.296-.264m-3.363-.616c.01.033.046.05.079.04c1.53-.448 2.624-.48 2.98-.44q0-.031-.003-.063c-.564-.257-2.513.216-3.017.384a.063.063 0 0 0-.04.079m9.05-.502a.063.063 0 0 1-.078.042a24 24 0 0 0-1.482-.46s.028-.024.1-.048q.06.012.139.031a41 41 0 0 1 1.278.357c.034.01.052.045.043.078M17.53 4.463c-.136 0-.3.024-.442.088c-.218.099-.355.238-.355.299a.3.3 0 0 1-.062-.009v-.027c.056-.214.203-.303.366-.377s.346-.1.496-.1l1.404.1a.062.062 0 1 1-.009.125zm-.902-.827a.7.7 0 0 1 .305-.073h2a.063.063 0 0 0 0-.125h-2a.84.84 0 0 0-.361.086a.55.55 0 0 0-.296.346c.034.021.057.03.057.03c0-.035.059-.136.295-.264m3.364-.616a.063.063 0 0 1-.08.04c-1.53-.448-2.624-.48-2.98-.44l.003-.063c.565-.257 2.514.216 3.017.384c.033.01.05.046.04.079"/><path fill="#774AA6" d="m25.47 6.27l-3.36 2.09l-.88-1.43a.31.31 0 0 1 .1-.43l2.83-1.76c.15-.09.34-.05.43.1zm-18.93.01l3.35 2.08l.89-1.42c.09-.15.05-.34-.1-.43L7.85 4.75a.31.31 0 0 0-.43.1z"/><path fill="#8B62BF" d="m28.67 9.8l-2.36-3.793a1.075 1.075 0 0 0-1.47-.347L22 7.398c-.5.307-.66.963-.35 1.46l2.36 3.793c.64 1.033.69 2.344.12 3.426l-3.27 6.187a.9.9 0 0 1-.379.384A9.2 9.2 0 0 0 16 21.5a9.3 9.3 0 0 0-4.475 1.149a.96.96 0 0 1-.385-.385l-3.27-6.187a3.46 3.46 0 0 1 .12-3.426l2.36-3.794a1.06 1.06 0 0 0-.35-1.46L7.16 5.66a1.066 1.066 0 0 0-1.47.347L3.33 9.801a8.88 8.88 0 0 0-.31 8.808l3.61 6.823c.28.536.87 1.462.87 2.068c0 0-.5 1.25-.499 2.5H25c0-1.25-.499-2.5-.499-2.5c0-.596.62-1.572.9-2.108l3.58-6.773c1.46-2.78 1.35-6.157-.31-8.818"/><path fill="#F4C6AD" d="M16 24.5c-1.1 0-2-.84-2-1.886v-2.228c0-1.037.892-1.886 2-1.886c1.1 0 2 .84 2 1.886v2.228c-.008 1.045-.9 1.886-2 1.886m-3.5-9.167a1.75 1.75 0 1 1-3.5 0a1.75 1.75 0 0 1 3.5 0m10.5 0a1.75 1.75 0 1 1-3.5 0a1.75 1.75 0 0 1 3.5 0"/><path fill="#FFD7C2" d="M10.51 14.1h.012l-.01-.298l-.012-.344c.022-1.068.62-1.481.874-1.62q.026-.008.056-.022q.029-.014.055-.023a2.55 2.55 0 0 0 1.284-1.39l.088-.217c.089-.219.365-.253.498-.058a4.12 4.12 0 0 0 3.442 1.883h3.475c.199 0 1.217.104 1.228 1.608l-.011.482l-.104 2.656C21.252 19.894 18.887 22 16 22s-5.252-2.106-5.386-5.243z"/><path fill="#E5AF93" d="m15.584 15.057l-.578 1.849c-.118.38.165.76.566.76h.856a.588.588 0 0 0 .566-.76l-.578-1.849c-.124-.41-.702-.41-.832 0"/><path fill="#990838" d="M16 18.772c-.552 0-1.07-.13-1.507-.357c-.149-.076-.309.092-.215.227c.364.553.999.92 1.722.92a2.06 2.06 0 0 0 1.722-.92c.094-.14-.066-.303-.215-.227c-.436.227-.95.357-1.507.357"/><path fill="#000" d="M13.07 14.3c.64 0 1.16.44 1.49.94q-.44.134-.868.257c-.47.137-.933.271-1.412.433l-.54-.49c-.22-.2-.21-.56.04-.74c.36-.26.84-.4 1.29-.4m5.95 0c-.64 0-1.16.44-1.49.94q.446.136.875.26c.465.136.923.27 1.405.43l.54-.49c.22-.2.21-.56-.04-.74c-.36-.26-.84-.4-1.29-.4"/><path fill="#fff" d="M11.73 15.61c.17-.69.8-1.2 1.54-1.2c.77 0 1.41.56 1.56 1.28c.03.16-.1.31-.26.31h-2.53c-.21 0-.36-.19-.31-.39m8.63 0c-.17-.69-.8-1.2-1.54-1.2c-.77 0-1.42.56-1.56 1.28c-.03.16.1.31.26.31h2.53c.21 0 .36-.19.31-.39"/><path fill="#7D4533" d="M12.48 15.74c0-.57.46-1.02 1.02-1.02s1.02.45 1.02 1.02c0 .09-.02.18-.04.27h-1.96a.8.8 0 0 1-.04-.27m7.12 0c0-.57-.46-1.02-1.02-1.02s-1.01.45-1.02 1.02c0 .09.02.18.04.27h1.96c.03-.09.04-.18.04-.27"/><path fill="#000" d="M13.5 15.15c.32 0 .58.26.58.58q0 .15-.06.27h-1.03a.5.5 0 0 1-.07-.27c0-.32.26-.58.58-.58m5.08 0a.58.58 0 0 0-.58.58c0 .1.03.19.06.27h1.03c.05-.08.07-.17.07-.27a.58.58 0 0 0-.58-.58"/><path fill="#fff" d="M13.33 15.33a.18.18 0 1 1-.36 0a.18.18 0 0 1 .36 0m5.09 0a.18.18 0 1 1-.36 0a.18.18 0 0 1 .36 0"/><path fill="#212121" d="M19.9 13.73c.05.03.1.04.15.04c.11 0 .21-.05.26-.16c.09-.15.04-.34-.11-.42l-.009-.005c-.11-.059-1.057-.567-2.15-.365c-.17.03-.28.19-.25.36c.04.17.19.28.36.25c.91-.17 1.74.29 1.75.3m-8.171-.11a.33.33 0 0 0 .41.12l.019-.009c.128-.064.896-.447 1.731-.291a.31.31 0 0 0 .11-.61c-1.094-.201-2.04.306-2.15.365l-.01.005c-.14.09-.19.27-.11.42"/></g></svg>