<svg xmlns="http://www.w3.org/2000/svg" xmlns:xlink="http://www.w3.org/1999/xlink" width="32" height="32" viewBox="0 0 32 32"><g fill="none"><path fill="#FFF9BA" d="M24.109 14.656a3.8 3.8 0 0 0 .37-1.618a3.7 3.7 0 0 0-.621-2.06a3.55 3.55 0 0 1-.592-2.01v-.01a3.724 3.724 0 0 0-3.723-3.727a.62.62 0 0 1-.512-.261A3.7 3.7 0 0 0 16 3.413a3.72 3.72 0 0 0-3.03 1.557a.69.69 0 0 1-.533.261A3.724 3.724 0 0 0 8.714 8.96v.01c0 .713-.2 1.406-.592 2.01a3.72 3.72 0 0 0-.25 3.677c.08.16.08.351 0 .512a3.7 3.7 0 0 0-.362 1.597a3.645 3.645 0 0 0 3.643 3.648h9.704a3.645 3.645 0 0 0 3.643-3.648a3.7 3.7 0 0 0-.361-1.597a.5.5 0 0 1-.03-.512"/><path fill="#00A6ED" d="m24.322 30l1.42-4.038l-1.42-4.214a12.18 12.18 0 0 0-8.27-3.248c-3.16 0-6.11 1.223-8.31 3.288l-1 4.174l1 4.038z"/><path fill="#0074BA" d="M16.608 24.622L18 22l-2-.5l-2 .5l1.394 2.622L14.239 30h3.374z"/><path fill="#50E2FF" d="m15.99 21.808l-1.815 1.591c-.242.213-.596.071-.661-.263L12.75 18.9S14 18 16 18s3.25.9 3.25.9l-.764 4.236c-.065.334-.419.476-.66.263z"/><path fill="#0084CE" d="M27.585 27.064c.298.962.516 1.945.665 2.937h-3.989V21.75a12.15 12.15 0 0 1 3.324 5.314M7.739 21.79v8.211H3.75c.15-.982.379-1.945.678-2.897l.03-.09a12.2 12.2 0 0 1 3.28-5.224"/><path fill="#E4B29A" d="M13.5 18.5h5v.5a2.5 2.5 0 0 1-5 0zm-.804-6.138a1.849 1.849 0 1 1-1.848-1.85a1.85 1.85 0 0 1 1.848 1.85m10.427 0a1.849 1.849 0 1 1-1.848-1.85a1.85 1.85 0 0 1 1.848 1.85"/><path fill="#EEBFAA" d="M20.447 9.005h-3.593a4.33 4.33 0 0 1-3.562-1.879a.3.3 0 0 0-.522.06l-.08.211a2.6 2.6 0 0 1-1.335 1.377c-.04.02-.08.04-.12.05c-.262.13-.884.553-.904 1.618l.15 3.587c.131 3.175 2.58 5.305 5.54 5.305c2.97 0 5.41-2.13 5.54-5.305l.14-3.406c0-1.517-1.053-1.618-1.254-1.618"/><path fill="#000" d="M13.03 11.055c.632 0 1.154.442 1.475.934c-.31.096-.61.183-.909.27c-.448.129-.892.256-1.35.413l-.541-.492a.476.476 0 0 1 .04-.733a2.3 2.3 0 0 1 1.285-.392m5.9 0c-.632 0-1.154.442-1.475.934c.31.096.61.183.909.27c.448.129.891.256 1.35.413l.541-.492a.476.476 0 0 0-.04-.733a2.3 2.3 0 0 0-1.285-.392"/><path fill="#fff" d="M11.705 12.361a1.57 1.57 0 0 1 1.525-1.196c.763 0 1.405.553 1.556 1.277c.03.15-.1.301-.261.301h-2.52a.31.31 0 0 1-.3-.382m8.56 0a1.57 1.57 0 0 0-1.525-1.196c-.773 0-1.405.553-1.556 1.277c-.03.15.1.301.261.301h2.519c.2 0 .351-.19.301-.382"/><path fill="#7D4533" d="M12.457 12.472a1 1 0 0 1 1.004-1.005c.552 0 1.003.452 1.024 1.005c0 .1-.02.19-.04.27h-1.947a.9.9 0 0 1-.04-.27m7.054 0a1 1 0 0 0-1.003-1.005c-.562 0-1.014.452-1.024 1.005c0 .1.02.19.04.27h1.947c.03-.09.04-.18.04-.27"/><path fill="#000" d="M13.461 11.909c.311 0 .572.25.572.572c0 .09-.02.181-.05.272h-1.024a.572.572 0 0 1 .502-.844m5.038 0a.57.57 0 0 0-.572.572c0 .068.017.136.034.204l.016.068H19a.572.572 0 0 0-.502-.844"/><path fill="#fff" d="M13.29 12.08a.18.18 0 1 1-.36 0a.18.18 0 0 1 .36 0m5.048 0a.18.18 0 1 1-.361 0a.18.18 0 0 1 .361 0"/><path fill="#00A6ED" d="m23.136 4.016l-4.927-1.658a6.8 6.8 0 0 0-4.357 0L8.875 4.016a1.624 1.624 0 0 0-1.067 1.969l.638 2.281c.04.137.17.234.32.234h14.46a.33.33 0 0 0 .319-.234l.638-2.281c.25-.829-.22-1.687-1.047-1.97"/><path fill="#50E2FF" d="M22.15 8.807c-3.84-.99-7.85-.99-11.69-.01a.803.803 0 0 1-.97-.55c-.13-.44.13-.9.57-1.01a25 25 0 0 1 12.48.01c.44.11.7.57.58 1.01c-.12.41-.55.66-.97.55"/><path fill="#321B41" d="M9.79 8.687a4.57 4.57 0 0 0 3.97 2.29h5.06c1.7 0 3.18-.92 3.97-2.29a23.2 23.2 0 0 0-12.98-.01z"/><path fill="#990838" d="M16.006 16.221c-.629 0-1.223-.16-1.723-.441c-.175-.098-.35.11-.245.282c.42.673 1.141 1.127 1.968 1.127s1.55-.454 1.968-1.127c.105-.172-.081-.368-.244-.282a3.55 3.55 0 0 1-1.724.441"/><path fill="#D19479" d="m15.61 12.303l-.566 1.994c-.117.408.16.827.556.827h.833c.396 0 .674-.42.556-.827l-.566-1.994c-.118-.444-.684-.444-.812 0"/><path fill="#FCD53F" d="M17.25 3.663c0-.214-.302-.292-.431-.117c-.097.127-.302.127-.388 0l-.237-.321c-.097-.127-.302-.127-.388 0l-.237.33c-.097.127-.302.127-.388 0c-.13-.174-.431-.096-.431.118v.818c0 .633.56 1.139 1.26 1.139c.701 0 1.24-.506 1.24-1.14zm3.24 24.362c-.826 0-1.49-.585-1.49-1.314v-1.62c0-.317.294-.575.653-.575h1.686c.359 0 .652.259.652.575v1.61c-.01.73-.685 1.324-1.5 1.324M12.848 26H9.14c-.08 0-.14.052-.14.121v.76c0 .07.06.122.14.122h3.708c.08 0 .14-.052.14-.121v-.761c0-.07-.06-.121-.14-.121"/></g></svg>