<svg xmlns="http://www.w3.org/2000/svg" xmlns:xlink="http://www.w3.org/1999/xlink" width="32" height="32" viewBox="0 0 32 32"><g fill="none"><path fill="#00A6ED" d="M30 16.84V30H12.617A18.07 18.07 0 0 1 30 16.84Z"/><path fill="#E4B29A" d="M21.75 10.5a2.75 2.75 0 1 0 0-5.5a2.75 2.75 0 0 0 0 5.5ZM30 12c-1.657 0-3 1.38-3 3.081v3.838C27 20.62 28.343 22 30 22V12Z"/><path fill="#EEBFAA" d="M30 2h-8.555C21 2.5 20.932 3.515 21 4l.49 9a6.53 6.53 0 0 0 2.172 4.035c1.187 1.039 3.33 1.613 4.908 1.615H30v-4.212l-.542-.633l.542-.622V11.47l-.63-1.506l.63-2.892V2Z"/><path fill="#9B9B9B" d="M15.5 9.815a.785.785 0 0 0-1.56.17a6.895 6.895 0 0 0 1.817 3.961a.785.785 0 1 0 1.147-1.072A5.325 5.325 0 0 1 15.5 9.815Zm-2.987.046a.785.785 0 0 0-1.566.118a9.915 9.915 0 0 0 2.748 6.136a.785.785 0 0 0 1.13-1.09a8.345 8.345 0 0 1-2.312-5.164Z"/><path fill="#fff" d="M26 5.65a2.35 2.35 0 0 0-2.27 1.78a.461.461 0 0 0 .45.57h3.74a.4.4 0 0 0 .39-.46A2.36 2.36 0 0 0 26 5.65Z"/><path fill="#7D4533" d="M26.35 6.1a1.5 1.5 0 0 0-1.5 1.5a1.749 1.749 0 0 0 0 .4h2.9c.032-.131.049-.265.05-.4a1.5 1.5 0 0 0-1.45-1.5Z"/><path fill="#000" d="M27.21 7.6a.86.86 0 1 0-1.62.4h1.52a.91.91 0 0 0 .1-.4Z"/><path fill="#fff" d="M25.84 7.28a.27.27 0 1 0 0-.54a.27.27 0 0 0 0 .54Z"/><path fill="#A56953" d="M26.73 3.508a3.6 3.6 0 0 0-2.465.59a.49.49 0 0 1-.55-.812a4.58 4.58 0 0 1 3.136-.75a.49.49 0 1 1-.122.972Z"/><path fill="#D19479" d="M30 7.007a.629.629 0 0 0-.291.123a.67.67 0 0 0-.233.34l-.847 2.853a.951.951 0 0 0 .135.807a.886.886 0 0 0 .31.272a.848.848 0 0 0 .392.098H30V7.007Z"/><path fill="#990838" d="M30 13.127a4.842 4.842 0 0 1-.25.005a4.839 4.839 0 0 1-2.372-.604a.249.249 0 0 0-.164-.023a.26.26 0 0 0-.144.086a.297.297 0 0 0-.033.333c.292.483.694.881 1.168 1.156a3.073 3.073 0 0 0 1.795.41v-1.363Z"/><path fill="#E4B29A" d="M20.61 14.607a1.5 1.5 0 1 1 2.715 1.279l-2.132 4.523a1.5 1.5 0 1 1-2.713-1.279l2.13-4.523Z"/><path fill="#EEBFAA" d="M20 17.5a2.288 2.288 0 0 0-1.152-.069c-.84-.342-1.786-.112-2.545.41c-1.468-.17-2.368.854-2.803 2.159L12 25l3.585 1a5.3 5.3 0 0 0 .074-.189L18.5 27c.333-.667 1.188-2.04 1.94-2.2l.84-.31A3.17 3.17 0 0 0 23 22.86l.79-1.78a1.29 1.29 0 0 0-.74-1.73a1.33 1.33 0 0 0-1.199.148c-.131-.8-.62-1.588-1.851-1.998Z"/><path fill="#0092E7" d="m18.647 26.342l-5.94-2.639a.5.5 0 0 0-.66.254l-.617 1.39a.5.5 0 0 0 .254.659l5.94 2.639a.5.5 0 0 0 .66-.254l.617-1.39a.5.5 0 0 0-.254-.66Z"/><path fill="#3BC6F6" d="M18.874 30H8.043l1.76-4.056c.169-.385.481-.686.869-.837a1.549 1.549 0 0 1 1.198.028l6.204 2.773c.377.175.672.492.82.885c.148.39.14.823-.02 1.207Z"/><path fill="#FFF9BA" d="m19.5 2l.78 4.25a1.11 1.11 0 0 0 1 .89s-.1-1.44-.16-2.37a1.56 1.56 0 0 1 .52-1.26l.3-.27A2 2 0 0 0 22.61 2H19.5Z"/><path fill="#D6A089" d="M19.472 23.018a1.977 1.977 0 0 1-.405.184a1.707 1.707 0 0 1-1.795-.454a1.178 1.178 0 0 1-.225-.292a1.982 1.982 0 0 1-.555.282a1.707 1.707 0 0 1-1.795-.454a1.176 1.176 0 0 1-.226-1.418l.375-.861a.25.25 0 1 1 .459.2l-.385.882l-.006.01a.678.678 0 0 0 .129.826l.008.008c.405.413.88.463 1.288.331c.426-.137.747-.46.832-.748l.007-.024l.012-.022c.179-.34.307-1.032.197-1.701c-.11-.662-.438-1.233-1.105-1.444a.25.25 0 1 1 .15-.476c.914.288 1.321 1.072 1.448 1.838c.123.746-.006 1.54-.237 1.995a1.376 1.376 0 0 1-.219.411c.01.015.02.032.026.05a.678.678 0 0 0 .168.245l.008.008c.404.414.88.463 1.287.332c.427-.137.748-.461.833-.749l.007-.023l.012-.022c.181-.345.373-1.149.261-1.986c-.11-.824-.508-1.645-1.465-2.099a.25.25 0 0 1 .097-.476a.25.25 0 0 1 .076-.012c.975 0 1.695.221 2.211.59c.518.37.808.873.952 1.392c.143.517.143 1.052.082 1.507c-.06.453-.183.846-.304 1.08c-.166.32-.485.639-.861.855c-.377.216-.845.348-1.308.245a.27.27 0 0 1-.034-.01Zm.094-5.09c.59.549.864 1.265.956 1.952c.122.914-.074 1.81-.304 2.264c-.046.142-.12.28-.217.408c.19-.027.382-.099.564-.203c.308-.177.552-.43.666-.651c.088-.17.198-.505.253-.916a3.33 3.33 0 0 0-.069-1.307a1.983 1.983 0 0 0-.76-1.119c-.27-.192-.623-.345-1.089-.429Z"/></g></svg>