<svg xmlns="http://www.w3.org/2000/svg" xmlns:xlink="http://www.w3.org/1999/xlink" width="32" height="32" viewBox="0 0 32 32"><g fill="none"><path fill="#FCD53F" d="M26.75 16.5a1.75 1.75 0 1 0 0-3.5a1.75 1.75 0 0 0 0 3.5"/><path fill="#0084CE" d="M5.75 14.5a1.75 1.75 0 1 0 0-3.5a1.75 1.75 0 0 0 0 3.5"/><path fill="#86D72F" d="M24.75 6.5a1.75 1.75 0 1 0 0-3.5a1.75 1.75 0 0 0 0 3.5"/><path fill="#F92F60" d="M8.75 5.5a1.75 1.75 0 1 0 0-3.5a1.75 1.75 0 0 0 0 3.5"/><path fill="#E1D8EC" d="M23.525 30v-7.39a10.95 10.95 0 0 0-14.92.03V30h1.9l.736-.432l.736.432h7.995l.76-.432l.759.432z"/><path fill="#F3EEF8" d="m13.5 24l-.5-3.5h6l-.5 3.5z"/><path fill="#F70A8D" d="m14.221 22.66l1.548.93A.47.47 0 0 1 16 24c0-.16.077-.32.23-.41l1.549-.93c.538-.33 1.221.08 1.221.73v1.22c0 .65-.683 1.06-1.221.73l-1.548-.93A.47.47 0 0 1 16 24a.47.47 0 0 1-.23.41l-1.549.93c-.538.33-1.221-.08-1.221-.73v-1.22c0-.65.683-1.06 1.221-.73"/><path fill="#F837A2" d="M15.214 23.48v.9c0 .27.22.48.48.48h.71c.27 0 .48-.22.48-.48v-.9a.48.48 0 0 0-.48-.48h-.71a.48.48 0 0 0-.48.48"/><path fill="#F3EEF8" d="M16.75 26.25a.75.75 0 1 1-1.5 0a.75.75 0 0 1 1.5 0m0 2a.75.75 0 1 1-1.5 0a.75.75 0 0 1 1.5 0"/><path fill="#8D65C5" d="M21.5 21.127V30H20v-9.584q.78.3 1.5.71m-9.5-.647V30h-1.5v-8.78q.72-.428 1.5-.741"/><path fill="#F1A11E" d="M9.058 11c-.09.399-.25.781-.476 1.127l-.002.004a3.52 3.52 0 0 0-.235 3.457a.55.55 0 0 1 0 .485A3.423 3.423 0 0 0 11.429 21h9.142A3.423 3.423 0 0 0 24 17.571c0-.539-.13-1.045-.345-1.498a.55.55 0 0 1 0-.485c.226-.464.345-.981.345-1.52c0-.498-.102-.966-.286-1.391h.006a3.4 3.4 0 0 0-.3-.547l-.002-.003A3.4 3.4 0 0 1 22.942 11L16 10z"/><path fill="#FCB100" d="M15.995 22.5c-1.108 0-1.995-.813-1.995-1.81V19.5h4v1.19c-.01.997-.905 1.81-2.005 1.81"/><path fill="#FDBB11" d="M12.804 14.39a1.68 1.68 0 1 1-3.36 0a1.68 1.68 0 0 1 3.36 0m9.871 0a1.68 1.68 0 1 1-3.36 0a1.68 1.68 0 0 1 3.36 0"/><path fill="#FFC83D" d="M20.089 10.45h-3.316c-1.32 0-2.55-.685-3.287-1.827c-.128-.187-.394-.156-.482.062l-.08.208a2.45 2.45 0 0 1-1.23 1.35a.3.3 0 0 0-.108.04c-.246.126-.816.53-.836 1.569l.138 3.488c.118 3.094 2.381 5.16 5.117 5.16c2.746 0 4.999-2.066 5.117-5.16l.128-3.312c0-1.474-.974-1.578-1.161-1.578"/><path fill="#990839" d="M16 17.653a3.1 3.1 0 0 1-1.51-.381c-.152-.085-.304.095-.213.243A2.03 2.03 0 0 0 16 18.5a2.03 2.03 0 0 0 1.724-.985c.09-.148-.072-.328-.213-.243a3.1 3.1 0 0 1-1.51.38"/><path fill="#ED9200" d="m15.656 14.289l-.493 1.742c-.103.354.14.719.483.719h.735c.345 0 .587-.365.484-.72l-.493-1.741c-.111-.385-.614-.385-.716 0"/><path fill="#000" d="M13.213 12.75c.602 0 1.095.42 1.396.88q-.377.111-.74.214a25 25 0 0 0-1.4.426l-.512-.46a.443.443 0 0 1 .04-.69c.342-.24.794-.37 1.216-.37m5.563 0c-.603 0-1.095.42-1.396.88q.376.111.74.214c.466.132.924.262 1.4.426l.512-.46c.21-.19.19-.53-.04-.69a2.17 2.17 0 0 0-1.216-.37"/><path fill="#fff" d="M12.214 14.08c.16-.63.73-1.09 1.4-1.09c.7 0 1.28.5 1.41 1.16c.02.15-.09.28-.24.28h-2.29c-.19 0-.32-.17-.28-.35m7.72 0c-.16-.63-.73-1.09-1.4-1.09c-.7 0-1.28.5-1.41 1.16c-.02.15.09.28.24.28h2.29c.19 0 .32-.17.28-.35"/><path fill="#7D4533" d="M12.904 14.19c0-.51.41-.92.92-.92s.92.41.91.92q0 .12-.03.24h-1.77a1 1 0 0 1-.03-.24m6.34 0c0-.51-.41-.92-.92-.92s-.92.41-.91.92q0 .12.03.24h1.77c.02-.07.03-.16.03-.24"/><path fill="#000" d="M13.824 13.66c.29 0 .53.24.53.53c0 .09-.03.17-.07.24h-.93a.5.5 0 0 1-.06-.24c0-.29.24-.53.53-.53m4.51 0c-.29 0-.53.24-.53.53c0 .09.02.17.07.24h.93q.06-.105.06-.24c0-.29-.24-.53-.53-.53"/><path fill="#fff" d="M13.674 13.82a.16.16 0 1 1-.32 0a.16.16 0 0 1 .32 0m4.53 0a.16.16 0 1 1-.32 0a.16.16 0 0 1 .32 0"/><path fill="#D37034" d="M12.373 11.806a.282.282 0 0 0 .343.448l.002-.002l.017-.011q.024-.018.077-.05a2.3 2.3 0 0 1 1.41-.292a.282.282 0 0 0 .065-.56a2.85 2.85 0 0 0-1.763.367q-.07.042-.107.069zm7.455.396a.28.28 0 0 0-.052-.396l-.044-.031a2.7 2.7 0 0 0-.497-.257a2.85 2.85 0 0 0-1.373-.178a.282.282 0 1 0 .065.56a2.28 2.28 0 0 1 1.487.34l.017.012l.002.002c.124.095.3.071.395-.052"/><path fill="#FFC83D" d="m2.158 19.247l.292.34a.643.643 0 0 0-.037.882s.215.247.604.699c.46.524 1.115.832 1.81.832L9 22.39v-2.393c0-.956-.338-1.87-.961-2.59l-.542-.616A.824.824 0 0 0 6.33 16.7a.833.833 0 0 0-.092 1.171l.368.411c.071.082.01.216-.103.216l-.946-.01l-1.017-1.192a.655.655 0 0 0-1.082.135a.654.654 0 0 0-1.02.771a.655.655 0 0 0-.281 1.046M27.52 22.22a6.2 6.2 0 0 0-.421 1.54c-.038.24-.103.47-.206.69c-.534 1.14-1.834 1.61-2.901 1.05a2.23 2.23 0 0 1-1.01-1.1c-.01-.01-.02-.02-.02-.03a354 354 0 0 0-1.656-3.96c-.14-.32-.009-.69.29-.83c.3-.15.646-.01.777.31c.006 0 .053.113.13.3l.207.49c.019.04.084.02.066-.03l-.543-1.61c-.113-.33.046-.71.355-.82c.3-.11.627.06.74.38l.449 1.48c.01.02.037.01.037-.01c-.178-1-.318-2.06-.318-2.11c-.028-.34.215-.65.533-.68s.609.23.637.57c0 .02.093 1.03.346 2.23c.01.02.028.04.047.04q.044-.015.046-.06q-.006-.061-.017-.129l-.02-.16c-.112-.88-.131-1.57-.131-1.6c-.01-.34.243-.63.57-.64c.319-.01.59.26.6.61c.01.54.103 1.84.365 2.89c.018.08.112.09.14.02c.243-.48.43-.8.45-.83a.614.614 0 0 1 .888-.21c.3.2.393.63.197.95l-.038.07a15 15 0 0 0-.59 1.19"/><path fill="#CDC4D6" d="M5 22h4v8H5zm18 2.38h4V30h-4z"/><path fill="#D67D00" d="m5.677 18.53l-1.089-1.276a.71.71 0 0 0-1.148.082a.71.71 0 0 0-.873.045a.72.72 0 0 0-.21.786a.718.718 0 0 0-.247 1.12l.305.316c.019.02.046.024.07.015q.022 0 .04-.015a.586.586 0 0 1 .833.064l.654.79a.063.063 0 0 0 .096-.079l-.654-.79a.71.71 0 0 0-.98-.104l-.27-.279a.592.592 0 0 1 .898-.77l1.322 1.549a.062.062 0 1 0 .095-.082l-1.321-1.548a.71.71 0 0 0-.723-.23a.59.59 0 0 1 .174-.648a.586.586 0 0 1 .754-.011q.009.016.027.024l.003.002l.048.05l1.596 1.87a.062.062 0 1 0 .095-.08l-1.596-1.87l-.04-.044a.586.586 0 0 1 .957-.082l1.09 1.277a.062.062 0 1 0 .094-.081"/><path fill="#321B41" d="M10 9.289C10 5.822 12.68 3 15.995 3S21.989 5.822 22 9.289V9.5h1a.75.75 0 0 1 0 1.5H9a.75.75 0 0 1 0-1.5h1z"/><path fill="#C790F1" d="M21.95 8.5H10.048Q10 8.888 10 9.289V9.5h12v-.211q0-.4-.05-.789"/></g></svg>