<svg xmlns="http://www.w3.org/2000/svg" xmlns:xlink="http://www.w3.org/1999/xlink" width="32" height="32" viewBox="0 0 32 32"><g fill="none"><path fill="#FFF9BA" d="M22.97 10.382c-.06-.63-.3-1.2-.66-1.66c-.37-.46-.59-1.03-.64-1.62v-.01a3.107 3.107 0 0 0-3.37-2.82a.54.54 0 0 1-.45-.18a3.09 3.09 0 0 0-2.63-1.08c-1.04.09-1.91.68-2.4 1.52c-.09.15-.24.24-.41.25a3.114 3.114 0 0 0-2.83 3.37v.01c.05.59-.07 1.18-.35 1.71c-.28.51-.42 1.12-.36 1.75c.04.48.19.92.42 1.31c.08.13.09.29.04.43c-.16.42-.23.87-.19 1.35c.15 1.67 1.62 2.9 3.29 2.76l8.06-.71a3.044 3.044 0 0 0 2.34-4.59a.5.5 0 0 1-.04-.43c.15-.41.22-.88.18-1.36"/><path fill="#774AA6" d="m8.32 14.602l-1.602-.88l-1.718.88v1.64h3.32zm15.36 0l1.654-.88l1.676.88v1.64h-3.33z"/><path fill="#EEBFAA" d="m2.14 12.122l.253.294a.596.596 0 0 0-.033.806s.19.22.54.63c.41.48 1.01.75 1.64.75h3.78v-1.81c0-.85-.31-1.68-.87-2.33l-.49-.56a.756.756 0 0 0-1.06-.08c-.31.27-.34.74-.08 1.05l.33.38c.07.07.01.19-.09.19l-.85-.01l-.92-1.07a.587.587 0 0 0-.83-.06a.6.6 0 0 0-.15.19a.6.6 0 0 0-.77 0a.595.595 0 0 0-.147.692a.6.6 0 0 0-.183.108c-.25.21-.28.58-.07.83m27.72.01l-.25.289a.62.62 0 0 1 .04.81s-.19.22-.54.63c-.41.48-1.01.75-1.64.75h-3.78v-1.81c0-.85.31-1.68.87-2.33l.49-.56a.745.745 0 0 1 1.13.97l-.33.37c-.07.07-.01.19.09.19l.848-.009l.921-1.07c.21-.25.58-.27.83-.06a.6.6 0 0 1 .152.197a.59.59 0 0 1 .917.693q.103.035.192.11c.25.21.27.58.06.83"/><path fill="#8B62BF" d="M26.76 15.602h-2.88c-.41 0-.74.33-.74.74v2.44c0 .13-.14.21-.26.15l-2.58-1.39c-.04-.02-.08-.05-.12-.07l-.05-.03c-.62-.31-1.32-.49-2.07-.49h-4.09c-.76 0-1.47.18-2.1.51l-2.77 1.46c-.1.07-.25-.01-.25-.14v-2.44c0-.41-.33-.74-.74-.74H5.24c-.41 0-.74.33-.74.74v5.07c0 1.05.56 2.03 1.46 2.56c.46.27.99.41 1.51.41c.5 0 .99-.12 1.44-.37l1.09-.64v4.82h12v-4.99l1.08.81c.45.25.94.37 1.44.37c.52 0 1.05-.14 1.51-.41a2.98 2.98 0 0 0 1.46-2.56v-5.07a.724.724 0 0 0-.73-.74"/><path fill="#E4B29A" d="M16 19.492c-1.09 0-1.97-.88-1.97-1.97v-2.32c0-1.09.88-1.97 1.97-1.97s1.97.88 1.97 1.97v2.33c0 1.08-.88 1.96-1.97 1.96m-4.864-9.58a1.5 1.5 0 0 0 .454 2.953zm9.341 2.177a1.5 1.5 0 0 0-.074-2.973z"/><path fill="#EEBFAA" d="M11.634 8.27c-.22.144-.652.533-.603 1.36l.389 2.992c.34 2.62 2.52 4.21 4.99 4c2.47-.22 4.34-2.16 4.22-4.8l-.14-3.1a3.4 3.4 0 0 0-.226-1.073l-3.924.343c-1.18.1-2.34-.38-3.09-1.3a.25.25 0 0 0-.43.09l-.06.18a2.12 2.12 0 0 1-1.126 1.309"/><path fill="#000" d="M18.28 9.572c-.53.04-.93.45-1.16.88c.225.048.444.09.662.134c.421.082.836.164 1.277.276l.41-.44c.17-.19.13-.48-.09-.61c-.32-.19-.73-.27-1.1-.24m-4.909.42c.53-.04 1 .28 1.3.67q-.378.154-.741.293c-.363.14-.722.28-1.1.447l-.48-.37a.39.39 0 0 1-.02-.61c.28-.24.67-.39 1.04-.43"/><path fill="#fff" d="M19.48 10.552a1.32 1.32 0 0 0-1.36-.88c-.63.06-1.12.56-1.19 1.17c-.01.13.11.24.24.23l2.09-.18c.16-.01.27-.18.22-.34m-7.11.62c.09-.58.57-1.05 1.18-1.1c.63-.05 1.2.35 1.38.95c.04.13-.06.26-.19.27l-2.09.18c-.17.01-.31-.13-.28-.3"/><path fill="#7D4533" d="M18.86 10.702a.84.84 0 0 0-.91-.76a.84.84 0 0 0-.76.91c0 .08.02.15.05.21l1.61-.14c.01-.07.02-.14.01-.22m-5.86.52c-.04-.47.3-.88.76-.92a.85.85 0 0 1 .9 1l-1.61.14a.8.8 0 0 1-.05-.22"/><path fill="#000" d="M17.984 10.291c-.27.02-.46.26-.44.52c0 .08.03.15.07.22l.85-.07a.48.48 0 0 0-.48-.67m-4.194.371c.26-.02.5.18.52.44c.01.08 0 .16-.04.23l-.85.07a.49.49 0 0 1 .37-.74"/><path fill="#fff" d="M17.86 10.472a.15.15 0 1 1-.3 0a.15.15 0 0 1 .3 0m-4.19.37a.15.15 0 1 1-.3 0a.15.15 0 0 1 .3 0"/><path fill="#D19479" d="m15.55 10.782l-.34 1.58c-.07.32.19.62.52.59l.7-.06c.33-.03.54-.37.41-.68l-.61-1.5c-.12-.32-.6-.28-.68.07"/><path fill="#A56953" d="M18.98 8.997c.03.008.056.015.09.015c.09 0 .19-.05.23-.15c.06-.12.01-.27-.12-.33c-.03-.02-.89-.4-1.81-.15a.25.25 0 0 0-.18.31c.04.14.17.22.31.18c.67-.184 1.331.07 1.443.114l.016.006zm-6.76.485a.26.26 0 0 0 .35.07l.02-.012c.116-.068.713-.422 1.4-.358c.15.01.27-.09.28-.23s-.09-.27-.23-.28c-.945-.089-1.706.423-1.758.458l-.002.002c-.11.08-.14.24-.06.35"/><path fill="#990838" d="M16.26 14.782a.6.6 0 1 0 0-1.2a.6.6 0 0 0 0 1.2"/></g></svg>