<svg xmlns="http://www.w3.org/2000/svg" xmlns:xlink="http://www.w3.org/1999/xlink" width="32" height="32" viewBox="0 0 32 32"><g fill="none"><path fill="#00D26A" d="m19.81 16.2l-.29.39q-.435-.15-.93-.15l-3.03-.24c-1.12.19-2.3 1.52-2.3 3.1s1.52 2.51 2.29 2.91c0 0 2.26 1.07 2.42 2.77c.11 1.23-.48 3.58-4.5 3.02c-.66-.09-1.24-.42-1.47-1.01c-.04-.11.01-.22.12-.27l.76-.31c.85-.34 1.42-1.17 1.42-2.09v-.61c0-.2-.2-.34-.39-.26l-1.69.67c-.48.19-.86.55-1.09 1c-.05.09-.14.15-.23.15s-.19-.06-.23-.15c-.23-.44-.61-.8-1.09-1l-1.69-.67c-.19-.07-.39.06-.39.26v.61c0 .92.56 1.75 1.42 2.09l.85.34c.09.04.16.12.18.22A3.545 3.545 0 0 0 13.46 30h3.13c2.53 0 4.88-1.4 6.02-3.66c.45-.89.74-1.96.74-3.24c0-5.13-3.54-6.9-3.54-6.9"/><path fill="#212121" d="M22.15 8.154a2.05 2.05 0 0 0-.14-2.015a1.96 1.96 0 0 1-.33-1.097v-.01a2.05 2.05 0 0 0-2.052-2.045c-.11 0-.22-.05-.28-.14a2.063 2.063 0 0 0-3.342.01c-.06.09-.17.14-.28.14a2 2 0 0 0-.27.018a3.177 3.177 0 0 0-3.404 3.164h-.01v1.24a1.05 1.05 0 0 1-.72.515a4 4 0 0 0-3.302 3.64q-.001.038-.005.076q-.005.038-.005.075c-.18 2.972 2.151 5.535 5.143 5.525a5.12 5.12 0 0 0 3.76-1.641c.31.062.634.095.964.095c2.691 0 4.873-2.175 4.873-4.857c0-.787-.188-1.531-.521-2.189a2 2 0 0 0-.09-.215c-.04-.09-.04-.2.01-.29"/><path fill="#F4C6AD" d="m25.08 9.52l-.265-.12c-.16-.07-.34-.12-.51-.13v-.62c0-.4.15-.77.43-1.05l.47-.45c.2-.2.53-.2.73 0s.2.53 0 .73l-.46.46c-.08.08-.13.19-.13.31v.99zM7.145 16.74c.07.16.23.26.4.26q.09 0 .18-.03c.22-.1.32-.36.22-.58c-.17-.38.14-.69.2-.74l.06-.04l-.73-.54c-.28.22-.7.84-.33 1.67"/><path fill="#FFD7C2" d="M25.902 7.83a.53.53 0 0 0-.44.53v.26c0 .19-.149.34-.338.34h-.03a.46.46 0 0 1-.46-.45v-.87c0-.28-.209-.52-.478-.54a.517.517 0 0 0-.549.52v.94c0 .3.1.59.29.83l.319.38c.06.07.1.14.09.25l-.39 2.13l-2.882-1.37a5 5 0 0 0-.687-.265l-1.488.153h-4.013a5.1 5.1 0 0 0-1.672 1.112l-2.404 2.41c-.09.09-.2.14-.32.16l-2.713.3c-.08 0-.15.01-.229.03h-.01c-.479.09-.908.37-1.167.8l-.23.37c-.179.2-.11.5.12.65c.08.05.17.07.26.07c.16 0 .319-.08.409-.23l.229-.37a.87.87 0 0 1 .589-.36c.08-.01.16.02.209.08c.06.09.05.2-.02.27l-.33.34a.516.516 0 0 0-.01.71c.09.09.21.13.34.13c.12 0 .25-.05.34-.14l.089-.09c.08-.08.2-.13.31-.13h2.054a2.56 2.56 0 0 0 1.825-.76l1.649-1.644c.015.381.033.79.05 1.024V17c0 .442.286 1 .786 1h5c.5 0 1-.5.944-.89c-.19-.68-.2-1.29-.17-1.71c.021-.244-.095-.753-.21-1.253q-.052-.227-.098-.442l.488.215l3.012 1.27c.659.38 1.517.28 2.065-.29c.31-.32.469-.76.469-1.21V8.34a.53.53 0 0 0-.599-.51"/><path fill="#8B62BF" d="M20.689 13h-1.785a1.44 1.44 0 0 0-1.284.77c-.05.09-.19.09-.24 0a1.46 1.46 0 0 0-1.284-.77h-1.794a.55.55 0 0 0-.552.55v.77c0 .83.672 1.51 1.514 1.51h4.472a1.51 1.51 0 0 0 1.514-1.51v-.77c0-.3-.25-.55-.561-.55"/><path fill="#F4C6AD" d="M15.5 7a1 1 0 1 1-2 0a1 1 0 0 1 2 0m6 0a1 1 0 1 1-2 0a1 1 0 0 1 2 0m-1.114 3.527c-.726.77-1.758 1.21-2.876 1.21c-1.032 0-1.999-.373-2.719-1.046a5.1 5.1 0 0 1 1.974-.401h2.094c.517 0 1.033.081 1.527.237"/><path fill="#FFD7C2" d="M20.337 8.546c.02-.096.038-.192.058-.298c.01-.096.019-.202.028-.307l.077-1.798c-.01-.798-.556-.846-.67-.846h-1.9a2.3 2.3 0 0 1-1.878-.99c-.067-.105-.23-.086-.278.03l-.048.114a1.3 1.3 0 0 1-.69.721l-.058.03c-.143.066-.47.288-.479.855v.182l.067 1.711c.038.51.173.98.403 1.384c.048.077.095.154.153.231c.048.067.105.144.173.212c.536.605 1.332.96 2.214.96c1.274 0 2.357-.74 2.76-1.922c.02-.086.048-.182.067-.269"/><path fill="#212121" d="M20.013 6.098a.195.195 0 0 0-.071-.266l-.001-.001l-.002-.001l-.006-.004l-.021-.01l-.074-.037a2 2 0 0 0-.26-.097a1.8 1.8 0 0 0-.84-.053a.194.194 0 1 0 .073.382c.244-.047.479-.01.656.044a1.6 1.6 0 0 1 .265.105l.013.007l.002.001a.194.194 0 0 0 .265-.07m-4.665-.266a.194.194 0 0 0 .195.336l.002-.001l.013-.007q.018-.01.055-.027c.05-.022.121-.052.21-.078c.177-.053.412-.091.656-.044a.194.194 0 1 0 .073-.382a1.8 1.8 0 0 0-.841.053a2 2 0 0 0-.354.144l-.006.004l-.002.001z"/><path fill="#50E2FF" d="m21.231 3.666l.195.587c.031.096.123.17.226.17l.606.012c.236 0 .329.31.144.459l-.473.395a.255.255 0 0 0-.082.278l.175.598c.072.235-.185.427-.38.288l-.493-.363a.224.224 0 0 0-.277 0l-.504.363c-.195.14-.441-.053-.38-.288l.175-.598a.255.255 0 0 0-.082-.278l-.483-.374c-.185-.15-.092-.459.144-.459l.606-.01a.245.245 0 0 0 .226-.172l.195-.587c.072-.246.39-.246.462-.021"/><path fill="#000" d="M15.914 6.48c.35 0 .63.24.81.51l-.388.114c-.196.057-.388.112-.583.175c-.044.014-.074.007-.104 0a.17.17 0 0 0-.108 0l-.357-.179a.26.26 0 0 1 .02-.4c.2-.14.46-.22.71-.22m2.996 0c-.35 0-.63.24-.81.51l.389.114c.196.057.388.112.583.175a.17.17 0 0 0 .103 0a.16.16 0 0 1 .108 0l.357-.179a.26.26 0 0 0-.02-.4c-.2-.14-.46-.22-.71-.22"/><path fill="#fff" d="M15.256 7.11c.08-.35.4-.61.78-.61c.4 0 .72.28.8.65c.02.08-.05.16-.13.16h-1.29c-.11 0-.19-.1-.16-.2m4.33 0a.796.796 0 0 0-.78-.61c-.39 0-.72.28-.8.65c-.02.08.05.16.13.16h1.29c.11 0 .19-.1.16-.2"/><path fill="#7D4533" d="M15.637 7.17c0-.29.23-.52.52-.52a.516.516 0 0 1 .504.639l-.005.02h-1l-.004-.02c-.008-.041-.015-.076-.015-.12m3.57.001a.514.514 0 1 0-1.03 0c0 .05 0 .09.01.14h1l.004-.021c.008-.041.015-.076.015-.12"/><path fill="#000" d="M16.156 6.87c.17 0 .3.14.3.3c0 .05-.01.1-.05.14h-.52a.3.3 0 0 1-.03-.14c0-.17.14-.3.3-.3m2.541 0a.3.3 0 0 0-.3.3c0 .05.01.1.05.14h.52a.3.3 0 0 0 .03-.14a.3.3 0 0 0-.3-.3"/><path fill="#fff" d="M16.077 6.97a.09.09 0 1 1-.18 0a.09.09 0 0 1 .18 0m2.54 0a.09.09 0 1 1-.18 0a.09.09 0 0 1 .18 0"/><path fill="#E5AF93" d="m17.298 7.211l-.285.948c-.057.196.085.391.276.391h.418c.2 0 .343-.195.276-.39l-.285-.949c-.048-.215-.333-.215-.4 0"/><path fill="#990838" d="M17.5 9.01c-.318 0-.605-.07-.862-.2c-.082-.04-.175.05-.123.13c.205.31.575.52.985.52s.77-.21.985-.52c.052-.08-.04-.17-.123-.13c-.256.13-.544.2-.862.2"/></g></svg>