<svg xmlns="http://www.w3.org/2000/svg" xmlns:xlink="http://www.w3.org/1999/xlink" width="32" height="32" viewBox="0 0 32 32"><g fill="none"><path fill="#26C9FC" d="M2 27.92h28.02v-9.77a3.29 3.29 0 0 0-2.88.6l-1.17.96c-.85.7-2.08.7-2.94 0l-1.17-.96c-1.08-.88-2.68-.95-3.84-.17l-1.18.8c-.79.53-1.83.53-2.62 0l-1.18-.8c-1.16-.79-2.76-.72-3.84.17l-1.17.96c-.85.7-2.08.7-2.94 0l-1.17-.96c-.54-.45-1.23-.69-1.92-.71z"/><path fill="#000" d="m20.673 13.312l.117.018l.29 1.2c.25 1.02-.62 1.96-1.65 1.8l-4.86-.75a1.47 1.47 0 0 1-1.05-2.17l.62-1.11l.225.035c.07-.47.124-.908.173-1.311c.33-2.694.475-3.868 4.012-3.234c3.143.563 2.9 1.711 2.424 3.96c-.1.47-.21.99-.3 1.562"/><path fill="#573739" d="M27.5 13.38a.495.495 0 0 0-.59-.2c-.12-.25-.29-.48-.49-.69c-.19-.2-.51-.2-.71-.01l-.02.02l-.01-.01c-.19-.2-.51-.2-.71-.01c-.12.12-.17.27-.14.43a.51.51 0 0 0-.62.11c-.18.2-.15.5.03.69c.3.32.47.73.47 1.18v.13c0 .09-.1.13-.17.08l-.19-.17a.556.556 0 0 0-.79.04c-.21.23-.19.59.04.79l.85.77c.15.13.23.33.23.53v1.79l-.75-1.05a3.73 3.73 0 0 0-2.84-1.83l-12.8-1.34a.2.2 0 0 1-.18-.23l.86-6l-5.36-.75v.41c0 .67.35 1.3.92 1.66l.67.47c.27.17.42.49.37.81l-.55 3.83a2.39 2.39 0 0 0 1.99 2.69c.03 0 .05.01.08.01l4.44.53c.26.03.44.28.37.53l-1.8 6.77c-.08.32.16.62.48.62h7.85c.29 0 .54-.19.61-.47l1.34-5.07l.17-.6a.559.559 0 0 1 1.03-.14L25 24.21c.02.02.03.04.05.07l.01.01c.3.37.76.6 1.27.6c.89-.01 1.59-.76 1.59-1.65l.01-8.37c0-.54-.15-1.05-.43-1.49"/><path fill="#F9C23C" d="M6.75 9.5a3.75 3.75 0 1 0 0-7.5a3.75 3.75 0 0 0 0 7.5"/><path fill="#FFF478" d="M8.5 4.14c-1.04.27-1.64 1.09-1.84 1.4a2.6 2.6 0 0 1-.99-.27c.22-.37.82-1.25 1.95-1.75c.91-.4 1.65-.37 1.84-.36c-.16-.16-.32-.31-.5-.44c-.38.04-.92.13-1.52.4c-1.24.54-1.9 1.48-2.15 1.91c-.22-.16-.44-.38-.63-.67c.19-.31.82-1.24 1.98-1.85c.38-.2.8-.31 1.1-.37c-.31-.09-.65-.14-.99-.14h-.07c-.08.04-.16.07-.24.12a5.76 5.76 0 0 0-2.02 1.8c-.11-.25-.2-.54-.26-.88c-.13.12-.25.26-.36.4c.1.39.24.72.4 1c.01.03.02.06.04.08c.36.58.81.92 1.19 1.12c.49.26.95.33 1.19.34c.05.17.12.49.14.86c-.94-.02-1.69-.26-2.36-.75c-.91-.68-1.13-1.61-1.13-1.63s-.01-.04-.02-.06c-.09.23-.15.47-.2.72c.19.38.52.89 1.09 1.31c.93.69 1.89.83 2.6.85c-.03.3-.11.62-.27.93c-2.46-.28-3.22-1.46-3.23-1.48a.2.2 0 0 0-.14-.1c.09.35.22.67.39.97c.5.38 1.35.83 2.7 1.02c-.2.23-.45.45-.79.62c.18.07.37.13.57.17c.35-.25.61-.53.79-.83c.01-.01.02-.03.02-.04c.26-.43.36-.88.4-1.26c.06-.67-.09-1.26-.16-1.48c.09-.14.31-.46.66-.74c.2.35.59 1.17.51 2.16c-.1 1.21-.67 1.9-1.09 2.26c.26-.03.52-.08.76-.15c.36-.46.7-1.13.78-2.08c.09-1.14-.36-2.06-.59-2.45a2.2 2.2 0 0 1 .9-.29c.24.47 1.04 2.25.33 3.99c.26-.24.49-.52.68-.83c.2-1.37-.26-2.6-.52-3.17c.43.03.75.16.92.25q-.09-.3-.21-.57c-.39-.12-.97-.21-1.65-.04"/><path fill="#8B62BF" d="M21.51 16.03a3 3 0 0 0-.39-.06l-1.43-.14l-.1.55a2.604 2.604 0 0 1-3.01 2.11a2.604 2.604 0 0 1-2.11-3.01l.022-.222l-1.676-.176l-.896 3.398c0 .03-.01.06-.01.09l-.29 1.06l-1.52 5.73c-.08.32.16.62.48.62h7.85c.29 0 .54-.19.61-.47l1.34-5.07z"/><path fill="#0084CE" d="M29.97 23.42c-.97-.24-2.04-.03-2.83.61l-1.17.96c-.85.7-2.08.7-2.94 0l-1.17-.96c-1.08-.88-2.68-.95-3.84-.17l-1.18.8c-.79.53-1.83.53-2.62 0l-1.18-.8c-1.16-.79-2.76-.72-3.84.17l-1.17.96c-.85.7-2.08.7-2.94 0l-1.17-.96c-.54-.45-1.23-.69-1.92-.71v6.65h27.97z"/><path fill="#573739" d="m20.46 10.437l-1.92-.34c-.77-.14-1.54-.627-1.85-1.327a.157.157 0 0 0-.28-.02l-.07.1c-.2.31-.5.53-.85.61c-.02.01-.04.01-.07.02c-.15.04-.52.21-.64.78l-.26 1.93c-.23 1.71.87 3.08 2.46 3.37c1.59.28 3.1-.62 3.48-2.3l.4-1.81c.14-.81-.141-.942-.4-1.013"/><path fill="#fff" d="M16.14 11.52a.1.1 0 1 0 0-.2a.1.1 0 0 0 0 .2"/><path fill="#00A6ED" d="M19.22 6.84c.93.16 1.74.71 2.23 1.52c.48.8.6 1.76.32 2.66l-.39 1.64c-.077.32-.268.582-.52.754a3.4 3.4 0 0 1-1.19 1.886c-.59.46-1.31.71-2.09.71q-.33 0-.66-.06a3.5 3.5 0 0 1-2.17-1.31a3.36 3.36 0 0 1-.643-2.416a1.24 1.24 0 0 1-.237-.884l.18-1.69c.07-.98.51-1.84 1.25-2.42a3.25 3.25 0 0 1 2.58-.63zm-4.717 5.634c-.074 1.572.99 2.812 2.487 3.076c.19.03.39.05.58.05c1.36 0 2.56-.87 2.89-2.35l.04-.2l.007.001l.463-2.211c.13-.72-.36-1.41-1.08-1.54l-3.47-.61c-.72-.13-1.41.36-1.54 1.08z"/><path fill="#000" d="M16.12 10.72c.34.06.57.34.7.64l-.397.042c-.293.03-.579.06-.884.108l-.24-.31c-.1-.13-.06-.32.09-.39c.22-.1.49-.13.73-.09m3.161.56c-.34-.06-.66.13-.88.36q.18.092.355.179c.263.13.521.259.784.411l.34-.21c.14-.09.16-.28.05-.4c-.17-.17-.41-.29-.65-.34"/><path fill="#fff" d="M15.28 11.33c.16-.35.55-.57.95-.5c.42.08.71.44.72.84c0 .09-.08.16-.17.14l-1.37-.24c-.11-.02-.18-.14-.13-.24m4.61.81a.88.88 0 0 0-.72-.79a.86.86 0 0 0-.96.54c-.03.08.02.17.11.19l1.37.24c.11.02.21-.07.2-.18"/><path fill="#7D4533" d="M15.69 11.47c.05-.3.34-.5.64-.45s.5.34.46.65c-.01.05-.03.1-.05.14l-1.06-.19c0-.05 0-.1.01-.15m3.77.66c.05-.3-.15-.59-.45-.64s-.59.15-.65.44c-.01.05-.01.1-.01.15l1.06.19c.03-.04.04-.09.05-.14"/><path fill="#000" d="M16.29 11.25c.18.03.29.2.26.37a.4.4 0 0 1-.07.14l-.55-.1c-.01-.05-.02-.1-.01-.15c.03-.18.2-.29.37-.26m2.68.47a.325.325 0 0 0-.37.26c-.01.06 0 .11.02.15l.55.1a.35.35 0 0 0 .06-.14a.325.325 0 0 0-.26-.37"/><path fill="#fff" d="M16.18 11.32a.1.1 0 1 1-.2 0a.1.1 0 0 1 .2 0m2.7.47a.1.1 0 1 1-.2 0a.1.1 0 0 1 .2 0"/><path fill="#3D2123" d="m17.39 11.72l-.5.97c-.1.2.02.44.24.48l.47.08c.22.04.42-.15.39-.37l-.14-1.08c-.03-.23-.35-.29-.46-.08"/><path fill="#290118" d="M17.22 13.79c-.33-.06-.62-.19-.85-.37c-.08-.06-.19.02-.15.11c.16.37.49.66.92.73c.43.08.84-.08 1.11-.37c.07-.07-.01-.19-.1-.16c-.28.09-.6.11-.93.06"/><path fill="#000" d="M18.929 10.288a.183.183 0 0 0-.018.364a1.36 1.36 0 0 1 .845.352l.009.009l.001.001a.182.182 0 0 0 .268-.248h-.001l-.002-.003l-.005-.005l-.016-.016l-.058-.052a1.72 1.72 0 0 0-1.024-.402m-3.308-.302h-.002c-.08.012-.126.157-.08.247c.045.09.154.125.244.08l.002-.001l.011-.005l.05-.02a1.37 1.37 0 0 1 .86-.022a.182.182 0 1 0 .108-.35a1.73 1.73 0 0 0-1.186.068z"/></g></svg>