<svg xmlns="http://www.w3.org/2000/svg" xmlns:xlink="http://www.w3.org/1999/xlink" width="32" height="32" viewBox="0 0 32 32"><g fill="none"><path fill="#000" d="M24.25 13.855c0 .56-.127 1.088-.36 1.564a.58.58 0 0 0 0 .497c.233.465.36.983.36 1.543A3.54 3.54 0 0 1 20.711 21H11.29a3.54 3.54 0 0 1-3.539-3.541c0-.55.127-1.078.36-1.543a.6.6 0 0 0 0-.508a3.5 3.5 0 0 1-.36-1.564c0-.74.222-1.427.602-1.998L11 9l9.711-.099l2.937 2.956c.38.57.602 1.258.602 1.998"/><path fill="#4E3233" d="M10.5 16a1.75 1.75 0 1 0 0-3.5a1.75 1.75 0 0 0 0 3.5m11 0a1.75 1.75 0 1 0 0-3.5a1.75 1.75 0 0 0 0 3.5"/><path fill="#8B62BF" d="M8.25 22.504A11.47 11.47 0 0 0 4.543 30H8.25l.949-3.757zM13.75 30h4.5l1.671-5.035l-1.671-5.245a11.6 11.6 0 0 0-4.5 0l-1.221 5.245zm10-7.496l-1.337 3.739L23.75 30h3.707a11.47 11.47 0 0 0-3.707-7.496"/><path fill="#FF6723" d="M13.75 19.72q-.903.18-1.75.495l-.875 4.876L12 30h1.75zm4.5 0q.904.18 1.75.495l.906 4.876l-.906 4.9h-1.75zm-10 2.784A11.5 11.5 0 0 1 10 21.187l.916 4.365L10 29.99H8.25zM22 21.188q.94.576 1.75 1.316v7.486H22l-.508-4.082z"/><path fill="#452829" d="M15.996 22.75c-1.104 0-1.996-.808-1.996-1.808V19.75h4v1.192c-.009.992-.9 1.808-2.004 1.808"/><path fill="#FFF478" d="M12 20.215q-1.053.392-2 .973V30h2zm10 .973a11.5 11.5 0 0 0-2-.973V30h2z"/><path fill="#573739" d="M20.27 10.709h-3.466a4.16 4.16 0 0 1-3.436-1.833a.288.288 0 0 0-.504.053l-.084.212a2.45 2.45 0 0 1-1.292 1.345c-.032.021-.074.032-.116.053c-.252.117-.851.53-.872 1.568l.147 3.485c.126 3.092 2.49 5.158 5.358 5.158s5.232-2.065 5.358-5.158l.137-3.316c-.01-1.472-1.03-1.567-1.23-1.567"/><path fill="#000" d="M12.962 12.5c.58 0 1.06.41 1.36.86q-.41.126-.807.239c-.424.122-.843.243-1.273.391l-.5-.45a.44.44 0 0 1 .04-.68c.33-.23.77-.36 1.18-.36m5.898 0c-.58 0-1.06.41-1.36.86q.41.126.807.239c.424.122.843.243 1.273.391l.5-.45a.44.44 0 0 0-.04-.68a2.13 2.13 0 0 0-1.18-.36"/><path fill="#fff" d="M12.01 13.68a1.483 1.483 0 0 1 2.904.08c.03.15-.1.29-.247.29h-2.371a.297.297 0 0 1-.286-.37m7.98 0a1.49 1.49 0 0 0-1.442-1.14c-.72 0-1.323.52-1.461 1.22c-.03.15.098.29.246.29h2.371c.188 0 .336-.18.286-.37"/><path fill="#7D4533" d="M12.73 13.79c0-.53.425-.96.949-.96c.523 0 .948.43.948.97c0 .08-.01.17-.02.25H12.77a.8.8 0 0 1-.04-.26m6.55 0c0-.53-.425-.96-.949-.96a.97.97 0 0 0-.968.96c0 .09.02.18.04.26h1.837c.03-.09.04-.17.04-.26"/><path fill="#000" d="M13.679 13.24c.296 0 .543.25.543.55c0 .09-.03.17-.069.26h-.958a.6.6 0 0 1-.06-.26c0-.3.248-.55.544-.55m4.652 0a.55.55 0 0 0-.543.55c0 .09.02.17.069.26h.958a.6.6 0 0 0 .06-.26c0-.3-.248-.55-.544-.55"/><path fill="#fff" d="M13.52 13.41c0 .094-.074.17-.167.17a.17.17 0 0 1-.168-.17c0-.094.075-.17.168-.17s.168.076.168.17m4.682 0a.17.17 0 0 1-.168.17a.17.17 0 0 1-.168-.17c0-.094.075-.17.168-.17a.17.17 0 0 1 .168.17"/><path fill="#3D2123" d="m15.59 13.534l-.565 1.748c-.111.359.162.718.556.718h.838c.394 0 .667-.36.556-.718l-.566-1.748c-.131-.379-.697-.379-.818 0"/><path fill="#290118" d="M16.002 17.277a3.1 3.1 0 0 1-1.51-.387c-.145-.08-.31.092-.213.244c.368.59 1.007.986 1.723.986c.726 0 1.365-.397 1.723-.986c.087-.152-.068-.325-.213-.244a3.1 3.1 0 0 1-1.51.386"/><path fill="#FFF478" d="M13.772 3h4.466C20.319 3 22 4.824 22 7.059V9.75h.246c.698 0 1.264.56 1.254 1.24c0 .68-.556 1.24-1.254 1.24H9.754c-.688 0-1.254-.55-1.254-1.24c0-.68.556-1.24 1.254-1.24H10V7.059C10 4.813 11.69 3 13.772 3M10 21.188c.63-.386 1.299-.713 2-.973V30h-2zm10-.973q1.053.392 2 .973V30h-2z"/><path fill="#FCD53F" d="M16.952 2h-1.893C13.92 2 13 2.888 13 3.985V9.75h6V3.985C19.01 2.888 18.09 2 16.952 2"/></g></svg>