<svg xmlns="http://www.w3.org/2000/svg" xmlns:xlink="http://www.w3.org/1999/xlink" width="32" height="32" viewBox="0 0 32 32"><g fill="none"><path fill="#533566" d="M11 30v-2H9.102s-.53.38-1.917 1.2c-.307.18-.14.8-.14.8H11Zm10.01 0L21 28h1.892s.36.38 1.92 1.2c.312.16.142.8.142.8h-3.945Z"/><path fill="#FFD7C2" d="M14.5 14.878L12.323 16L7.86 7.013c-.254-.516-.058-.665.44-.924l.244-.06c-.489.25 2.313 1.51 1.552-.029l4.403 8.878Zm3 0L19.677 16l4.462-8.987c.254-.516.058-.665-.44-.924l-.244-.06c.489.25-2.313 1.51-1.552-.029L17.5 14.878Z"/><path fill="#8B62BF" d="M21.155 13.483a.253.253 0 0 0-.112-.324L18.5 11.8L18 14l.04.07a3.84 3.84 0 0 0-2.04-.6c-.74 0-1.43.22-2.02.59l.03-.06l-.46-2.2l-2.59 1.36a.253.253 0 0 0-.115.325c.293.67 1.155 2.744 1.155 3.865V22h8v-4.65c0-1.122.864-3.198 1.155-3.867Z"/><path fill="#9B9B9B" d="m23.05 20l-3.12 2h-7.81L9 20l.45 3.17l.55.93c2.26 1.35 3.39 1.9 6.02 1.9c2.63 0 3.72-.7 5.98-2.06l.5-.93l.55-3.01Z"/><path fill="#FFD7C2" d="m9.14 28l-.46-5.04h2.93L11 28H9.14ZM21 28l-.53-5.04h2.77L22.86 28H21Z"/><path fill="#9B9B9B" d="M2 6.13A.13.13 0 0 1 2.13 6H3v1h-.87A.13.13 0 0 1 2 6.87v-.74ZM26 6H6v1h20V6Zm3.87 0a.13.13 0 0 1 .13.13v.74a.13.13 0 0 1-.13.13H29V6h.87Z"/><path fill="#533566" d="M8.515 23h2.96a.533.533 0 0 0 .525-.515V21c0-1.101-.899-2-2-2s-2 .899-2 2v1.485c0 .283.232.515.515.515Zm11.591 0h2.798a.593.593 0 0 0 .596-.606V21c0-1.101-.9-2-2-2c-1.101 0-2 .899-2 2v1.394c0 .333.273.606.606.606Z"/><path fill="#FFD7C2" d="M9.75 5.375a.375.375 0 1 0-.75 0V5.5h-.007a.375.375 0 0 0-.736 0H8.23a.375.375 0 0 0-.729.125v.5a.375.375 0 0 0 .729.125h.022a.375.375 0 0 0 .748 0v.125a.375.375 0 1 0 .75 0a.375.375 0 1 0 .75 0v-.75a.375.375 0 0 0-.729-.125H9.75v-.125Zm12.5 0a.375.375 0 0 1 .75 0V5.5h.008a.375.375 0 0 1 .735 0h.028a.375.375 0 0 1 .729.125v.5a.375.375 0 0 1-.729.125h-.022a.375.375 0 0 1-.748 0L23 6.375a.375.375 0 0 1-.75 0a.375.375 0 0 1-.75 0v-.75a.375.375 0 0 1 .729-.125h.021v-.125Z"/><path fill="#F4C6AD" d="M10.625 7.5a.375.375 0 1 1 0-.75a.375.375 0 0 1 0 .75Zm10.75 0a.375.375 0 1 0 0-.75a.375.375 0 0 0 0 .75Z"/><path fill="#533566" d="M5.9 2a.9.9 0 0 0-.9.9v1.5a.9.9 0 0 0-.9-.9h-.2a.9.9 0 0 0-.9.9v4.2a.9.9 0 0 0 .9.9h.2a.9.9 0 0 0 .9-.9v1.5a.9.9 0 0 0 .9.9h.2a.9.9 0 0 0 .9-.9V2.9a.9.9 0 0 0-.9-.9h-.2Zm20 0a.9.9 0 0 0-.9.9v7.2a.9.9 0 0 0 .9.9h.2a.9.9 0 0 0 .9-.9V8.6a.9.9 0 0 0 .9.9h.2a.9.9 0 0 0 .9-.9V4.4a.9.9 0 0 0-.9-.9h-.2a.9.9 0 0 0-.9.9V2.9a.9.9 0 0 0-.9-.9h-.2Z"/><path fill="#212121" d="M19.49 12.678c0 .227-.056.437-.15.62a.218.218 0 0 0 .01.201c.093.184.15.393.15.612c0 .769-.669 1.389-1.498 1.389h-.678c-.311 0-.311-.236-.311-.236l-.02-.681l-1.855-.01s-.01.516-.01.691c0 .201-.15.236-.405.236h-.725c-.83 0-1.498-.62-1.498-1.39c0-.217.056-.427.15-.61a.248.248 0 0 0 0-.202a1.408 1.408 0 0 1-.15-.62c0-.288.094-.559.254-.786a1.34 1.34 0 0 0 .245-.769v-.009c0-.786.688-1.424 1.536-1.424a.27.27 0 0 0 .207-.096A1.588 1.588 0 0 1 15.995 9c.519 0 .97.236 1.253.594a.257.257 0 0 0 .208.096c.848 0 1.535.638 1.535 1.424v.009c0 .28.085.542.245.769c.16.227.255.498.255.786Z"/><path fill="#F4C6AD" d="M14.5 12.82a.75.75 0 1 1-1.5 0a.75.75 0 0 1 1.5 0Zm4.5 0a.75.75 0 1 1-1.5 0a.75.75 0 0 1 1.5 0Z"/><path fill="#FFD7C2" d="M13.443 12.14a.735.735 0 0 1 .377-.56a.118.118 0 0 1 .025-.01a1.134 1.134 0 0 0 .605-.61l.04-.09c.04-.1.17-.11.23-.03c.35.51.93.82 1.56.82h1.57c.083 0 .487.043.543.57l-.053 1.24c-.05 1.39-1.12 2.32-2.42 2.32c-1.29 0-2.36-.93-2.42-2.32l-.057-1.33Z"/><path fill="#000" d="M17.82 12.77c.11.08.11.23.02.32l-.24.21l-.135-.043h-.002a12.907 12.907 0 0 0-.203-.061l-.303-.087l-.037-.01a31.271 31.271 0 0 1-.31-.089a.957.957 0 0 1 .34-.329a.705.705 0 0 1 .145-.059a.62.62 0 0 1 .165-.022a1.03 1.03 0 0 1 .52.143a.695.695 0 0 1 .04.027Zm-3.635 0c-.11.08-.11.23-.02.32l.24.21c.045-.015.09-.03.134-.043l.003-.001c.068-.021.136-.042.203-.061c.1-.03.202-.058.303-.086a24.42 24.42 0 0 0 .347-.099a.957.957 0 0 0-.34-.329a.688.688 0 0 0-.143-.058a.622.622 0 0 0-.167-.023a1.031 1.031 0 0 0-.524.146a.73.73 0 0 0-.036.024Z"/><path fill="#212121" d="M14.322 12.28h.002l.01-.002a1.018 1.018 0 0 1 .211.004a1.1 1.1 0 0 1 .506.194a.137.137 0 0 0 .158-.223a1.374 1.374 0 0 0-.923-.245h-.006l-.001.001h-.002a.137.137 0 0 0 .045.27Zm3.542-.086a.137.137 0 0 0-.105-.163l-.003-.001l-.005-.001a1.282 1.282 0 0 0-.29-.012a1.397 1.397 0 0 0-.644.212a.137.137 0 0 0 .146.232a1.123 1.123 0 0 1 .683-.17l.055.008a.137.137 0 0 0 .163-.105Z"/><path fill="#fff" d="M14.253 13.19a.644.644 0 0 1 .629-.49c.314 0 .582.222.628.517a.103.103 0 0 1-.102.13h-1.035a.128.128 0 0 1-.12-.157Zm3.507 0a.644.644 0 0 0-.628-.49a.629.629 0 0 0-.628.517c-.019.074.037.13.101.13h1.035a.128.128 0 0 0 .12-.157Z"/><path fill="#7D4533" d="M14.567 13.236c0-.231.185-.416.416-.416c.222 0 .407.185.416.416c0 .037-.01.074-.018.11h-.795a.46.46 0 0 1-.019-.11Zm2.879 0a.414.414 0 0 0-.416-.416a.426.426 0 0 0-.416.416c0 .037.01.074.019.11h.795a.46.46 0 0 0 .018-.11Z"/><path fill="#000" d="M14.974 12.996c.139 0 .24.11.24.24c0 .037-.01.074-.037.11h-.416a.239.239 0 0 1 .213-.351Zm2.066 0c-.139 0-.24.11-.24.24c0 .037.009.074.037.11h.415a.239.239 0 0 0-.213-.351Z"/><path fill="#E5AF93" d="m15.82 13.135l-.26.84c-.05.17.08.35.25.35h.38c.18 0 .31-.17.25-.35l-.26-.84c-.04-.18-.3-.18-.36 0Z"/><path fill="#990838" d="M15.993 14.68c-.24 0-.454-.06-.64-.17c-.062-.04-.134.04-.09.11c.16.27.428.45.739.45c.31 0 .578-.18.738-.45c.035-.07-.027-.15-.09-.11a1.35 1.35 0 0 1-.657.17Z"/><path fill="#fff" d="M14.908 13.07a.073.073 0 1 1-.147-.001a.073.073 0 0 1 .147 0Zm2.075 0a.073.073 0 1 1-.147 0a.073.073 0 0 1 .147 0Z"/></g></svg>