<svg xmlns="http://www.w3.org/2000/svg" xmlns:xlink="http://www.w3.org/1999/xlink" width="32" height="32" viewBox="0 0 32 32"><g fill="none"><path fill="#F1A11E" d="M23.59 12.34c.22-.45.34-.95.34-1.48c0-.7-.21-1.35-.57-1.89c-.36-.56-.55-1.2-.55-1.85v-.01a3.43 3.43 0 0 0-3.43-3.43c-.19 0-.36-.09-.47-.24a3.41 3.41 0 0 0-2.79-1.43c-1.15 0-2.17.57-2.79 1.43a.56.56 0 0 1-.46.24a3.43 3.43 0 0 0-3.43 3.43v.01c0 .66-.19 1.3-.55 1.84s-.57 1.19-.57 1.89c0 .53.12 1.04.34 1.48c.07.15.07.33 0 .48c-.22.44-.34.94-.34 1.46c0 1.85 1.5 3.35 3.35 3.35h8.92c1.85 0 3.35-1.5 3.35-3.35c0-.53-.12-1.02-.34-1.46a.52.52 0 0 1-.01-.47"/><path fill="#212121" d="M11.412 16.5h9.175c-1.396-.642-2.95-1-4.587-1s-3.191.358-4.588 1M23 18.5H9L7 24l2 6h14l2-6z"/><path fill="#000" d="M23 30V18.594c-1.37 2.46-3.982 4.126-7 4.126a7.99 7.99 0 0 1-7-4.124V30H5v-3.5c-.01-3.41 1.57-6.47 4-8.5v.013a10.98 10.98 0 0 1 7-2.513c2.661 0 5.099.939 7 2.512V18c2.45 2.02 4 5.09 4 8.5V30z"/><path fill="#000" d="M12.5 29.99v-5.25c0-.28-.22-.5-.5-.5s-.5.22-.5.5v5.25zm4 0v-5.25c0-.28-.22-.5-.5-.5s-.5.22-.5.5v5.25zm4 0v-5.25c0-.28-.22-.5-.5-.5s-.5.22-.5.5v5.25z"/><path fill="#FCB100" d="m16.92 18.28l-.65.58c-.16.14-.39.14-.55 0l-.65-.58a3.45 3.45 0 0 1-1.14-2.55v-3.09c0-1.14.92-2.06 2.06-2.06s2.06.92 2.06 2.06v3.09c0 .97-.41 1.9-1.13 2.55"/><path fill="#FDBB11" d="M13.161 10.66a1.63 1.63 0 1 1-3.26 0a1.63 1.63 0 0 1 3.26 0m9.198 0a1.63 1.63 0 1 1-3.26 0a1.63 1.63 0 0 1 3.26 0"/><path fill="#FFC83D" d="M20.19 7.58h-3.3c-1.31 0-2.53-.65-3.27-1.73a.275.275 0 0 0-.48.05l-.09.21c-.23.57-.68 1.02-1.22 1.27c-.04.01-.08.03-.11.04c-.25.12-.81.5-.83 1.48l.14 3.29c.12 2.92 2.37 4.87 5.1 4.87s4.98-1.95 5.1-4.87l.13-3.13c-.02-1.38-.98-1.47-1.17-1.48"/><path fill="#990839" d="M16.13 13.94c-.54 0-1.05-.13-1.47-.35c-.15-.08-.3.09-.21.23c.36.55.98.92 1.68.92s1.33-.37 1.68-.92c.09-.14-.07-.3-.21-.23c-.43.22-.93.35-1.47.35"/><path fill="#ED9200" d="m15.74 10.57l-.53 1.7c-.11.35.15.7.52.7h.78c.37 0 .63-.35.52-.7l-.53-1.7c-.11-.37-.64-.37-.76 0"/><path fill="#000" d="M13.42 9.5c.59 0 1.07.4 1.37.86q-.38.115-.745.217c-.446.127-.882.251-1.335.413l-.5-.45a.44.44 0 0 1 .03-.68c.33-.23.77-.36 1.18-.36m5.44 0c-.58 0-1.06.41-1.36.86c.267.083.527.157.786.231c.428.122.851.243 1.294.399l.5-.45a.44.44 0 0 0-.04-.68a2.13 2.13 0 0 0-1.18-.36"/><path fill="#fff" d="M12.2 10.7c.16-.63.73-1.1 1.41-1.1c.7 0 1.29.5 1.42 1.17c.03.15-.09.28-.24.28h-2.31c-.19 0-.32-.17-.28-.35m7.88 0c-.16-.63-.73-1.1-1.41-1.1c-.7 0-1.29.5-1.42 1.17c-.03.15.09.28.24.28h2.31c.19 0 .32-.17.28-.35"/><path fill="#7D4533" d="M12.89 10.81c0-.51.42-.93.93-.93s.93.41.93.92c0 .09-.01.17-.04.26h-1.79c-.02-.08-.03-.16-.03-.25m6.5 0c0-.51-.42-.93-.93-.93s-.93.41-.92.93c0 .09.01.17.03.25h1.79c.02-.08.03-.16.03-.25"/><path fill="#000" d="M13.82 10.27a.534.534 0 0 1 .47.78h-.94a.534.534 0 0 1 .47-.78m4.64 0a.534.534 0 0 0-.47.78h.94a.534.534 0 0 0-.47-.78"/><path fill="#fff" d="M13.67 10.44a.17.17 0 1 1-.34 0a.17.17 0 0 1 .34 0m4.65 0a.17.17 0 1 1-.34 0a.17.17 0 0 1 .34 0"/><path fill="#D37034" d="M19.66 8.93c.05.03.09.04.14.04c.1 0 .19-.05.24-.14c.08-.13.03-.3-.1-.38l-.009-.004c-.103-.055-.973-.518-1.97-.336c-.15.02-.25.17-.22.32c.02.15.17.25.32.22c.767-.137 1.46.21 1.58.271zm-7.45-.1c.05.09.14.14.24.14c.05 0 .09-.01.14-.04l.018-.008c.12-.06.814-.399 1.582-.262c.15.03.29-.07.31-.23a.273.273 0 0 0-.22-.32c-.989-.182-1.857.28-1.961.335l-.009.005c-.13.08-.18.25-.1.38"/><path fill="#F9C23C" d="M25.33 13.78a.86.86 0 0 0-.82-.61c-.39 0-.71.25-.82.61l-.58 2.11c-.07.24.11.48.36.48h2.07c.25 0 .43-.24.36-.48z"/><path fill="#1C1C1C" d="M21.345 3.6h2.765v8.08a.86.86 0 1 0 .8 0V2.8h-.01c0-.44-.36-.8-.8-.8H8.14c-.44 0-.8.36-.8.8s.36.8.8.8h2.77l-.88 1.6l4.56.76c1.02.15 2.05.15 3.07-.01l4.55-.76z"/></g></svg>