<svg xmlns="http://www.w3.org/2000/svg" xmlns:xlink="http://www.w3.org/1999/xlink" width="32" height="32" viewBox="0 0 32 32"><g fill="none"><path fill="#FFF9BA" d="M17.45 6.74a1.54 1.54 0 0 0 .17-.74a1.6 1.6 0 0 0-.26-.86a1.56 1.56 0 0 1-.25-.84a1.56 1.56 0 0 0-1.56-1.56a.26.26 0 0 1-.21-.11a1.57 1.57 0 0 0-2.54 0a.26.26 0 0 1-.21.11h-.19a2.42 2.42 0 0 0-2.22 2.42v.46a.76.76 0 0 1-.64.65A3.05 3.05 0 0 0 7 9.08a.5.5 0 0 0 0 .11a3.92 3.92 0 0 0 6.84 2.91h.27a3.71 3.71 0 0 0 3.32-5.37z"/><path fill="#E4B29A" d="M21.23 6.17a.5.5 0 0 1-.5-.5V4.58a1.07 1.07 0 0 1 .27-.76l.55-.55a.524.524 0 0 1 .75.73l-.55.55v1.12a.5.5 0 0 1-.52.5"/><path fill="#EEBFAA" d="M24.34 3.38a.45.45 0 0 0-.61.16l-.36.6a.21.21 0 0 1-.19.11h-.1L22.19 4a1.28 1.28 0 0 0-1.46 1.3v2.37a.92.92 0 0 1-.92.92H16.6v2.14h3.21a3.07 3.07 0 0 0 3.06-3.06V5.3h.31a1.08 1.08 0 0 0 .94-.54l.37-.76a.46.46 0 0 0-.15-.62"/><path fill="#F8312F" d="m16.6 8.59l.68 1.11a2.09 2.09 0 0 1 .08 2.4a1 1 0 0 0-.18.69c.071.817.128 1.613.154 2.33h3.576a15.6 15.6 0 0 0 6.84-1.42A1.55 1.55 0 0 1 30 15.07v.414l-2.25 4.962c0 3.478-17.49 7.518-19.17 9.554a2.68 2.68 0 0 1-2.68-2.69a2.69 2.69 0 0 1 1-2.13a7.58 7.58 0 0 0 3-6v-.62a3.44 3.44 0 0 1 2.056-3.15c-.16-1.689-.48-3.36-.956-4.99a1.48 1.48 0 0 1 1.38-1.83z"/><path fill="#990838" d="M29.09 14.64a.94.94 0 0 0-.87.94v.9A1.52 1.52 0 0 1 26.71 18h-.29a1.32 1.32 0 0 0-1.33 1.3a1.5 1.5 0 0 1-1.5 1.51H22.5A1.49 1.49 0 0 0 21 22.3a1.52 1.52 0 0 1-1.51 1.51h-2A1.49 1.49 0 0 0 16 25.29a1.51 1.51 0 0 1-1.5 1.51h-6a1.63 1.63 0 0 0-1.63 1.63A1.6 1.6 0 0 0 8.51 30h9.88a1.52 1.52 0 0 0 1.51-1.51A1.49 1.49 0 0 1 21.39 27h2a1.52 1.52 0 0 0 1.51-1.51A1.59 1.59 0 0 1 26.51 24h1.09a2.55 2.55 0 0 0 2.4-2.59v-5.86a.92.92 0 0 0-.91-.91"/><path fill="#D19479" d="M20.541 23.38A1.52 1.52 0 0 0 21 22.34l2.607 6.39l-2.548-.692l-2.17-4.228h.6a1.52 1.52 0 0 0 1.052-.43M9.9 28.11l.52-1.31h2.44l-.76 1.438H9.855a1 1 0 0 1 .045-.128"/><path fill="#F8312F" d="m20.929 27.783l2.6.757l.596 1.46h-.68a2.27 2.27 0 0 1-2-1.21zM12.226 28H9.944l-.044.11A1.37 1.37 0 0 0 11.17 30z"/><path fill="#E4B29A" d="M13.11 8.59L15 10.28a.36.36 0 0 0 .6-.26V8.59z"/><path fill="#EEBFAA" d="M11.677 5.435h.006l-.005-.127l-.005-.147c.01-.454.274-.63.386-.69l.025-.01l.024-.009c.255-.117.46-.323.568-.592l.039-.093a.125.125 0 0 1 .22-.024a1.84 1.84 0 0 0 1.521.802h1.536c.088 0 .538.044.543.685l-.005.205l-.046 1.132c-.059 1.336-1.104 2.234-2.38 2.234s-2.322-.898-2.38-2.234z"/><path fill="#000" d="M13.2 5.527a.8.8 0 0 1 .26.273l-.401.125c-.182.057-.359.113-.54.165l-.22-.21a.2.2 0 0 1 0-.31a1 1 0 0 1 .54-.16a.8.8 0 0 1 .36.117m1.752.002a.8.8 0 0 0-.262.271c.31.1.63.2.93.29l.23-.21a.21.21 0 0 0 .05-.24a.2.2 0 0 0-.05-.07a1 1 0 0 0-.54-.16a.8.8 0 0 0-.358.119"/><path fill="#fff" d="M12.516 5.592a.67.67 0 0 1 .404-.142a.66.66 0 0 1 .65.55a.11.11 0 0 1-.11.11h-1.05a.13.13 0 0 1-.13-.16a.67.67 0 0 1 .236-.358m3.118 0a.67.67 0 0 0-.404-.142a.66.66 0 0 0-.65.55a.11.11 0 0 0 .11.11h1.05a.13.13 0 0 0 .13-.16a.67.67 0 0 0-.236-.358"/><path fill="#7D4533" d="M12.716 5.71A.42.42 0 0 1 13 5.58a.42.42 0 0 1 .42.42a.4.4 0 0 1 0 .11h-.82a.4.4 0 0 1 0-.11a.42.42 0 0 1 .116-.29m2.71-.007a.42.42 0 0 0-.296-.123a.42.42 0 0 0-.4.42a.4.4 0 0 0 0 .11h.82a.4.4 0 0 0 0-.11a.42.42 0 0 0-.123-.297"/><path fill="#000" d="M13.19 5.83a.24.24 0 0 1 .07.17a.2.2 0 0 1-.06.11h-.42a.2.2 0 0 1 0-.11a.24.24 0 0 1 .41-.17m1.718.078A.2.2 0 0 0 14.89 6a.2.2 0 0 0 .06.11h.42a.2.2 0 0 0 0-.11a.24.24 0 0 0-.332-.222a.24.24 0 0 0-.13.13"/><path fill="#fff" d="M12.96 5.84a.08.08 0 1 1-.16 0a.08.08 0 0 1 .16 0m2.11 0a.08.08 0 1 1-.16 0a.08.08 0 0 1 .16 0"/><path fill="#990838" d="M14.07 7.43a1.44 1.44 0 0 1-.67-.16a.07.07 0 1 0-.1.1a.92.92 0 0 0 1.54 0a.07.07 0 0 0-.05-.12a.07.07 0 0 0-.05.02a1.5 1.5 0 0 1-.67.16"/><path fill="#D19479" d="m13.9 5.9l-.24.77a.25.25 0 0 0 .23.32h.36a.25.25 0 0 0 .23-.32l-.24-.77a.18.18 0 0 0-.34 0"/><path fill="#A56953" d="M15.67 5.19h.07a.16.16 0 0 0 .17-.08a.14.14 0 0 0-.06-.2a1.45 1.45 0 0 0-.91-.15a.15.15 0 0 0-.12.17a.16.16 0 0 0 .18.12a1.2 1.2 0 0 1 .67.14m-3.345-.023a.2.2 0 0 0 .075.023l.07-.02a1.2 1.2 0 0 1 .71-.12a.15.15 0 0 0 .17-.12a.13.13 0 0 0-.11-.17a1.5 1.5 0 0 0-.92.15a.15.15 0 0 0 .005.257"/><path fill="#E4B29A" d="m6.67 15.38l.51-.23v1a.43.43 0 0 0 .13.3l.44.45a.496.496 0 0 1-.7.7l-.45-.44a1.42 1.42 0 0 1-.42-1v-.6q.26-.05.49-.18"/><path fill="#EEBFAA" d="M12.69 9.55a1.07 1.07 0 0 0-1.43-.5L8.1 10.58a3.86 3.86 0 0 0-1.79 3.27V15a.35.35 0 0 1-.08.26l-.31.37a1.3 1.3 0 0 0-.28.8v.9a.5.5 0 0 0 .54.5a.51.51 0 0 0 .47-.51v-.84a.44.44 0 0 1 .09-.27A.42.42 0 0 1 7 16a.32.32 0 0 1 .32.33v.24a.52.52 0 0 0 .43.52a.5.5 0 0 0 .57-.5v-2.71a1.65 1.65 0 0 1 .75-1.43l3-1.47a1.07 1.07 0 0 0 .62-1.43"/><path fill="#F92F60" d="M17.26 2.83a.67.67 0 0 0-.55.13a.63.63 0 0 0-.32-.45a.64.64 0 0 0-.85.26a.66.66 0 0 0 0 .55a.6.6 0 0 0-.5.19a.62.62 0 0 0 .212 1.022a.6.6 0 0 0 .248.038a.6.6 0 0 0 0 .47a.63.63 0 0 0 .85.27a.62.62 0 0 0 .34-.31a.66.66 0 0 0 .43.1a.63.63 0 0 0 .55-.7a.62.62 0 0 0-.22-.4a.66.66 0 0 0 .28-.39a.63.63 0 0 0-.47-.78"/><path fill="#CA0B4A" d="M16.88 3.25a.36.36 0 0 0-.32.07a.39.39 0 0 0-.27-.3a.4.4 0 0 0-.38.12a.38.38 0 0 0-.06.39a.37.37 0 0 0-.33.17a.36.36 0 0 0 .141.538a.4.4 0 0 0 .179.042a.39.39 0 0 0 .07.34a.38.38 0 0 0 .64-.1a.39.39 0 0 0 .582-.199a.3.3 0 0 0-.002-.161a.38.38 0 0 0-.13-.23a.4.4 0 0 0 .16-.24a.36.36 0 0 0-.28-.44"/></g></svg>