<svg xmlns="http://www.w3.org/2000/svg" xmlns:xlink="http://www.w3.org/1999/xlink" width="32" height="32" viewBox="0 0 32 32"><g fill="none"><path fill="#FCD53F" d="M6 6c4.665-2.332 8.5.5 10 2.5c1.5-2 5.335-4.832 10-2.5c6 3 4.5 10.5 0 15c-2.196 2.196-6.063 6.063-8.891 8.214a1.76 1.76 0 0 1-2.186-.041C12.33 27.08 8.165 23.165 6 21C1.5 16.5 0 9 6 6"/><path fill="#FFB02E" d="M16 8.5v3.049c1.27-2.684 4.425-6.269 9.658-5.712c-4.51-2.03-8.195.712-9.658 2.663m-4.054-2.963C10.26 4.95 8.225 4.887 6 6C0 9 1.5 16.5 6 21c2.165 2.165 6.33 6.08 8.923 8.173a1.76 1.76 0 0 0 2.186.04q.381-.29.785-.619c-2.854-2.142-6.86-5.518-9.035-7.462c-4.957-4.43-6.61-11.814 0-14.768a9.7 9.7 0 0 1 3.087-.827"/><ellipse cx="23.477" cy="12.594" fill="#FFE890" rx="2.836" ry="4.781" transform="rotate(30 23.477 12.594)"/></g></svg>