<svg xmlns="http://www.w3.org/2000/svg" xmlns:xlink="http://www.w3.org/1999/xlink" width="32" height="32" viewBox="0 0 32 32"><g fill="none"><path fill="#8D65C5" d="M27 20.495c0-5.14-3.966-9.322-8.924-9.485L14.357 11v.194C10.164 12.08 7 15.906 7 20.494c0 4.59 3.153 8.405 7.358 9.302v.194h3.212c.07 0 .139.01.208.01c.07 0 .14 0 .209-.01h.089C23.024 29.816 27 25.635 27 20.495"/><path fill="#433B6B" d="M17 30c4.97 0 9-4.253 9-9.5S21.97 11 17 11s-9 4.253-9 9.5s4.03 9.5 9 9.5"/><path fill="#FFB02E" d="M15.008 4.25a1.742 1.742 0 1 1 3.484 0a1.742 1.742 0 0 1-3.484 0M16.75 1.5a2.75 2.75 0 1 0 2.7 3.275a3.99 3.99 0 0 1 3.985 3.995a3.99 3.99 0 0 1-3.995 3.995v1.01a5 5 0 0 0 5.005-5.005a5 5 0 0 0-4.988-5.005A2.75 2.75 0 0 0 16.75 1.5"/><path fill="#BCA4EB" d="M25 20.495c0-5.14-4.084-9.322-9.189-9.485L13.576 11v.194C9.256 12.08 6 15.906 6 20.494c0 4.59 3.247 8.405 7.576 9.302v.194h1.715c.071 0 .143.01.214.01s.143 0 .214-.01h.092C20.916 29.816 25 25.635 25 20.495"/><path fill="#8D65C5" d="M23 20.5a9.5 9.5 0 1 1-19 0a9.5 9.5 0 0 1 19 0m-9.5-5.3c2.92 0 5.3 2.38 5.3 5.3s-2.38 5.3-5.3 5.3s-5.3-2.38-5.3-5.3s2.37-5.3 5.3-5.3m0-1.2a6.5 6.5 0 1 0 .002 13.002A6.5 6.5 0 0 0 13.5 14m.412 3.771c-.178-.361-.665-.361-.824 0l-.57 1.198a.45.45 0 0 1-.346.267l-1.272.19c-.383.057-.533.551-.262.827l.88.894c.13.133.177.333.111.514l-.411 1.188c-.13.4.252.78.627.609l1.468-.666a.43.43 0 0 1 .374 0l1.468.666c.375.171.767-.21.627-.609l-.412-1.188a.49.49 0 0 1 .113-.514l.879-.894c.271-.285.121-.77-.262-.827l-1.272-.19a.48.48 0 0 1-.346-.267z"/></g></svg>