<svg xmlns="http://www.w3.org/2000/svg" xmlns:xlink="http://www.w3.org/1999/xlink" width="24" height="24" viewBox="-4 -2 24 24"><path fill="currentColor" d="M4 0h8a4 4 0 0 1 4 4v12a4 4 0 0 1-4 4H4a4 4 0 0 1-4-4V4a4 4 0 0 1 4-4m0 2a2 2 0 0 0-2 2v12a2 2 0 0 0 2 2h8a2 2 0 0 0 2-2V4a2 2 0 0 0-2-2zm4 15A5 5 0 1 1 8 7a5 5 0 0 1 0 10m0-2a3 3 0 1 0 0-6a3 3 0 0 0 0 6M4 3h4a1 1 0 0 1 1 1v1a1 1 0 0 1-1 1H4a1 1 0 0 1-1-1V4a1 1 0 0 1 1-1m7 0h1a1 1 0 0 1 1 1v1a1 1 0 0 1-1 1h-1a1 1 0 0 1-1-1V4a1 1 0 0 1 1-1M8 13a1 1 0 1 1 0-2a1 1 0 0 1 0 2"/></svg>