<svg xmlns="http://www.w3.org/2000/svg" xmlns:xlink="http://www.w3.org/1999/xlink" width="24" height="24" viewBox="-2 -2 24 24"><path fill="currentColor" d="M10 20C4.477 20 0 15.523 0 10S4.477 0 10 0s10 4.477 10 10s-4.477 10-10 10m0-2a8 8 0 1 0 0-16a8 8 0 0 0 0 16m-3.92-6.4V14a1 1 0 0 1-2 0V6a1 1 0 1 1 2 0v2.509l2.516-2.842c.377-.426.9-.667 1.447-.667c.866 0 1.604.594 1.882 1.425l.671-.758c.377-.426.9-.667 1.447-.667c1.104 0 2 .965 2 2.156v5.688c0 .575-.213 1.125-.591 1.53a1.9 1.9 0 0 1-2.829-.011l-.706-.767c-.1.29-.258.556-.465.778a1.9 1.9 0 0 1-2.829-.011zm7.963 1.244V7.156L11.906 9.57l-.004.948zm-4 0V7.156l-2.567 2.9z"/></svg>