<svg xmlns="http://www.w3.org/2000/svg" xmlns:xlink="http://www.w3.org/1999/xlink" width="24" height="24" viewBox="-2 -2 24 24"><g fill="currentColor"><path d="M8.18 15.008q.18 0 .271-.012a.32.32 0 0 0 .18-.107q.09-.094.09-.274l-.004-.557q-.004-.533-.004-.844l-.188.033a2.4 2.4 0 0 1-.455.028a3.5 3.5 0 0 1-.57-.057a1.3 1.3 0 0 1-.548-.246a1.04 1.04 0 0 1-.36-.503l-.082-.189a2 2 0 0 0-.258-.417a1 1 0 0 0-.357-.312l-.057-.04a.6.6 0 0 1-.106-.1a.5.5 0 0 1-.074-.114q-.024-.057.04-.094a.5.5 0 0 1 .238-.037l.164.025q.165.032.406.196q.24.164.397.426q.189.336.455.512a.96.96 0 0 0 .536.176q.27 0 .467-.04a1.6 1.6 0 0 0 .369-.124q.073-.548.4-.843a5.6 5.6 0 0 1-.839-.148a3.4 3.4 0 0 1-.77-.32a2.2 2.2 0 0 1-.66-.548q-.26-.328-.43-.86a4.1 4.1 0 0 1-.167-1.229q0-.99.647-1.687q-.303-.745.057-1.671q.239-.075.705.11q.467.184.684.316q.217.13.348.22a5.8 5.8 0 0 1 1.573-.212q.81 0 1.573.213l.31-.197q.32-.196.754-.36q.435-.165.664-.09q.37.926.065 1.67q.648.697.648 1.688q0 .696-.168 1.233t-.434.86a2.3 2.3 0 0 1-.664.545a3.3 3.3 0 0 1-.77.32a5.6 5.6 0 0 1-.84.147q.426.368.426 1.163v1.957q0 .14.041.226a.23.23 0 0 0 .131.119q.09.032.16.04t.2.009z"/><path d="M10 18a8 8 0 1 0 0-16a8 8 0 0 0 0 16m0 2C4.477 20 0 15.523 0 10S4.477 0 10 0s10 4.477 10 10s-4.477 10-10 10"/></g></svg>