<svg xmlns="http://www.w3.org/2000/svg" xmlns:xlink="http://www.w3.org/1999/xlink" width="24" height="24" viewBox="-2 -2 24 24"><g fill="currentColor"><path d="M10 18a8 8 0 1 0 0-16a8 8 0 0 0 0 16m0 2C4.477 20 0 15.523 0 10S4.477 0 10 0s10 4.477 10 10s-4.477 10-10 10"/><path d="m13.264 6.833l-.805-.06l-.592-.589l.592.59s.77.056.805.06c.037.002.08.03.088.08l1.091 7.385l-3.09.668L5.65 13.9s.732-5.66.76-5.86c.036-.264.045-.273.325-.36l.902-.28c.194-.82.81-2.432 2.1-2.432c.168 0 .363.09.52.299l.047-.002c.554 0 .868.472 1.047.985l.299-.092a.3.3 0 0 1 .135-.01zm-2.96 1.708s-.257-.15-.779-.15c-1.353 0-2.023.904-2.023 1.838c0 1.11 1.107 1.14 1.107 1.815a.383.383 0 0 1-.4.386c-.434 0-.948-.441-.948-.441l-.262.866s.5.609 1.48.609c.815 0 1.42-.614 1.42-1.568c0-1.213-1.35-1.411-1.35-1.929c0-.095.031-.471.631-.471c.41 0 .743.178.743.178zm.732-2.195c-.123-.373-.313-.698-.598-.733c.071.203.115.46.115.779v.104zm-.952-.67c-.314.135-.674.492-.866 1.233l.997-.308v-.056c0-.385-.052-.67-.13-.87zm-.383-.363c-.926 0-1.447 1.216-1.666 1.962l.788-.244c.187-.978.63-1.468 1.043-1.662a.3.3 0 0 0-.165-.056"/></g></svg>