<svg xmlns="http://www.w3.org/2000/svg" xmlns:xlink="http://www.w3.org/1999/xlink" width="24" height="24" viewBox="-2 -2 24 24"><g fill="currentColor"><path d="M10 18a8 8 0 1 0 0-16a8 8 0 0 0 0 16zm0 2C4.477 20 0 15.523 0 10S4.477 0 10 0s10 4.477 10 10s-4.477 10-10 10z"/><path d="M14.583 10.724a4.64 4.64 0 0 0-5.307-5.307a2.804 2.804 0 0 0-3.858 3.859a4.639 4.639 0 0 0 5.307 5.307a2.804 2.804 0 0 0 3.859-3.859zm-2.38 1.386c-.197.283-.485.503-.862.662c-.377.16-.823.239-1.339.239c-.617 0-1.128-.109-1.532-.327a1.986 1.986 0 0 1-.698-.627c-.179-.262-.27-.518-.27-.768a.51.51 0 0 1 .166-.38a.59.59 0 0 1 .42-.158a.53.53 0 0 1 .353.124a.938.938 0 0 1 .241.359c.079.183.164.335.255.457c.09.12.217.22.381.299c.163.079.38.118.65.118c.371 0 .67-.08.9-.238c.23-.16.341-.354.341-.589a.59.59 0 0 0-.182-.452a1.213 1.213 0 0 0-.48-.269a8.667 8.667 0 0 0-.8-.2a6.263 6.263 0 0 1-1.129-.343a1.83 1.83 0 0 1-.727-.538c-.18-.23-.27-.514-.27-.852c0-.321.095-.61.285-.86c.19-.25.464-.443.822-.577c.357-.134.776-.2 1.257-.2c.385 0 .717.044.999.132c.28.09.515.207.702.355c.186.147.323.303.41.466c.086.163.13.323.13.479a.557.557 0 0 1-.166.392a.548.548 0 0 1-.413.173c-.147 0-.263-.034-.343-.106c-.078-.07-.16-.18-.25-.335a1.488 1.488 0 0 0-.402-.504c-.152-.118-.403-.18-.752-.178c-.324 0-.582.066-.777.195c-.197.131-.29.283-.29.462c0 .111.032.206.096.286a.823.823 0 0 0 .275.211c.117.06.237.107.357.141c.121.034.323.084.603.15c.351.076.67.16.956.253c.286.092.53.204.732.337c.203.133.361.302.475.507c.114.204.17.455.17.749c.001.354-.098.673-.294.955z"/></g></svg>