<svg xmlns="http://www.w3.org/2000/svg" xmlns:xlink="http://www.w3.org/1999/xlink" width="24" height="24" viewBox="-2 -2 24 24"><path fill="currentColor" d="M6 0h8a6 6 0 0 1 6 6v8a6 6 0 0 1-6 6H6a6 6 0 0 1-6-6V6a6 6 0 0 1 6-6m0 2a4 4 0 0 0-4 4v8a4 4 0 0 0 4 4h8a4 4 0 0 0 4-4V6a4 4 0 0 0-4-4zm6 7h3a1 1 0 0 1 0 2h-3a1 1 0 0 1 0-2m-2 4h5a1 1 0 0 1 0 2h-5a1 1 0 0 1 0-2m0-8h5a1 1 0 0 1 0 2h-5a1 1 0 1 1 0-2m-4.172 5.243L7.95 8.12a1 1 0 1 1 1.414 1.415l-2.828 2.828a1 1 0 0 1-1.415 0L3.707 10.95a1 1 0 0 1 1.414-1.414z"/></svg>