<svg xmlns="http://www.w3.org/2000/svg" xmlns:xlink="http://www.w3.org/1999/xlink" width="24" height="24" viewBox="0 0 24 24"><path fill="currentColor" d="M20 8.69V4h-4.69L12 .69L8.69 4H4v4.69L.69 12L4 15.31V20h4.69L12 23.31L15.31 20H20v-4.69L23.31 12L20 8.69zm-2 5.79V18h-3.52L12 20.48L9.52 18H6v-3.52L3.52 12L6 9.52V6h3.52L12 3.52L14.48 6H18v3.52L20.48 12L18 14.48zM12 6.5c-3.03 0-5.5 2.47-5.5 5.5s2.47 5.5 5.5 5.5s5.5-2.47 5.5-5.5s-2.47-5.5-5.5-5.5zm0 9c-1.93 0-3.5-1.57-3.5-3.5s1.57-3.5 3.5-3.5s3.5 1.57 3.5 3.5s-1.57 3.5-3.5 3.5z"/><circle cx="12" cy="12" r="2" fill="currentColor"/></svg>