<svg xmlns="http://www.w3.org/2000/svg" xmlns:xlink="http://www.w3.org/1999/xlink" width="24" height="24" viewBox="0 0 24 24"><path fill="currentColor" d="M10 9c-.55 0-1 .45-1 1s.45 1 1 1s1-.45 1-1s-.45-1-1-1m0 4c-.55 0-1 .45-1 1s.45 1 1 1s1-.45 1-1s-.45-1-1-1M7 9.5c-.28 0-.5.22-.5.5s.22.5.5.5s.5-.22.5-.5s-.22-.5-.5-.5m3 7c-.28 0-.5.22-.5.5s.22.5.5.5s.5-.22.5-.5s-.22-.5-.5-.5m-3-3c-.28 0-.5.22-.5.5s.22.5.5.5s.5-.22.5-.5s-.22-.5-.5-.5m3-6c.28 0 .5-.22.5-.5s-.22-.5-.5-.5s-.5.22-.5.5s.22.5.5.5M14 9c-.55 0-1 .45-1 1s.45 1 1 1s1-.45 1-1s-.45-1-1-1m0-1.5c.28 0 .5-.22.5-.5s-.22-.5-.5-.5s-.5.22-.5.5s.22.5.5.5m3 6c-.28 0-.5.22-.5.5s.22.5.5.5s.5-.22.5-.5s-.22-.5-.5-.5m0-4c-.28 0-.5.22-.5.5s.22.5.5.5s.5-.22.5-.5s-.22-.5-.5-.5M12 2C6.48 2 2 6.48 2 12s4.48 10 10 10s10-4.48 10-10S17.52 2 12 2m0 18c-4.42 0-8-3.58-8-8s3.58-8 8-8s8 3.58 8 8s-3.58 8-8 8m2-3.5c-.28 0-.5.22-.5.5s.22.5.5.5s.5-.22.5-.5s-.22-.5-.5-.5m0-3.5c-.55 0-1 .45-1 1s.45 1 1 1s1-.45 1-1s-.45-1-1-1"/></svg>