<svg xmlns="http://www.w3.org/2000/svg" xmlns:xlink="http://www.w3.org/1999/xlink" width="24" height="24" viewBox="0 0 24 24"><path fill="currentColor" d="m20.22 10l-4.15.01a.975.975 0 0 0-.45.08l-.59.26l-1.83-4.1c-.56-1.26-2.04-1.83-3.3-1.27s-1.83 2.04-1.27 3.3l3.3 7.45l-1.87.39c-.19.05-.99.27-1.36 1.21L8 19.19l6.78 2.67c.49.19 1.05.18 1.53-.04l5.99-2.65c.89-.4 1.37-1.38 1.13-2.32l-1.36-5.34c-.22-.86-.97-1.47-1.85-1.51zm1.27 7.34L15.5 20l-4.92-1.96l4.18-.88l-4.3-9.7c-.11-.25 0-.55.25-.66c.25-.11.55 0 .66.25l2.5 5.65l1.61-.71l4.65.01l1.36 5.34zM2.06 5.56L1 4.5L4.5 1L8 4.5L6.94 5.56L5.32 3.94a10.457 10.457 0 0 0 1.88 8.99L6.13 14A11.974 11.974 0 0 1 3.5 6.5c0-.92.1-1.82.3-2.68L2.06 5.56z"/></svg>