<svg xmlns="http://www.w3.org/2000/svg" xmlns:xlink="http://www.w3.org/1999/xlink" width="24" height="24" viewBox="0 0 24 24"><path fill="currentColor" d="M3.72 6.04c.47.46 1.21.48 1.71.06c.37-.32.69-.51.87-.43c.5.2 0 1.03-.3 1.52c-.25.42-2.86 3.89-2.86 6.31c0 1.28.48 2.34 1.34 2.98c.75.56 1.74.73 2.64.46c1.07-.31 1.95-1.4 3.06-2.77c1.21-1.49 2.83-3.44 4.08-3.44c1.63 0 1.65 1.01 1.76 1.79c-3.78.64-5.38 3.67-5.38 5.37c0 1.7 1.44 3.09 3.21 3.09c1.63 0 4.29-1.33 4.69-6.1h1.21a1.25 1.25 0 0 0 0-2.5h-1.22c-.15-1.65-1.09-4.2-4.03-4.2c-2.25 0-4.18 1.91-4.94 2.84c-.58.73-2.06 2.48-2.29 2.72c-.25.3-.68.84-1.11.84c-.45 0-.72-.83-.36-1.92c.35-1.09 1.4-2.86 1.85-3.52c.78-1.14 1.3-1.92 1.3-3.28C8.95 3.69 7.31 3 6.44 3c-1.09 0-2.04.63-2.7 1.22c-.53.48-.53 1.32-.02 1.82zm10.16 12.51c-.31 0-.74-.26-.74-.72c0-.6.73-2.2 2.87-2.76c-.3 2.69-1.43 3.48-2.13 3.48z"/></svg>