<svg xmlns="http://www.w3.org/2000/svg" xmlns:xlink="http://www.w3.org/1999/xlink" width="24" height="24" viewBox="0 0 24 24"><path fill="currentColor" d="M19.99 9.79c.51-.4.51-1.18 0-1.58l-6.76-5.26c-.72-.56-1.73-.56-2.46 0L9.41 4.02l7.88 7.88l2.7-2.11zm0 3.49l-.01-.01a.991.991 0 0 0-1.22 0l-.05.04l1.4 1.4a.982.982 0 0 0-.12-1.43zm1.45 5.6L4.12 1.56a.996.996 0 1 0-1.41 1.41l3.52 3.52l-2.22 1.72c-.51.4-.51 1.18 0 1.58l6.76 5.26c.72.56 1.73.56 2.46 0l.87-.68l1.42 1.42l-2.92 2.27c-.36.28-.87.28-1.23 0l-6.15-4.78a.991.991 0 0 0-1.22 0a.997.997 0 0 0 0 1.57l6.76 5.26c.72.56 1.73.56 2.46 0l3.72-2.89l3.07 3.07c.39.39 1.02.39 1.41 0c.41-.39.41-1.02.02-1.41z"/></svg>