<svg xmlns="http://www.w3.org/2000/svg" xmlns:xlink="http://www.w3.org/1999/xlink" width="24" height="24" viewBox="0 0 24 24"><path fill="currentColor" d="m16.24 11.51l1.57-1.57l-3.75-3.75l-1.57 1.57l-4.14-4.13c-.78-.78-2.05-.78-2.83 0l-1.9 1.9c-.78.78-.78 2.05 0 2.83l4.13 4.13l-4.6 4.61c-.1.1-.15.22-.15.36v3.04c0 .28.22.5.5.5h3.04c.13 0 .26-.05.35-.15l4.62-4.62l4.13 4.13c1.32 1.32 2.76.07 2.83 0l1.9-1.9c.78-.78.78-2.05 0-2.83l-4.13-4.12zm-7.06-.44L5.04 6.94l1.89-1.9L8.2 6.31l-.47.49a.996.996 0 1 0 1.41 1.41l.48-.48l1.45 1.45l-1.89 1.89zm7.88 7.89l-4.13-4.13l1.9-1.9l1.45 1.45l-.48.48a.996.996 0 1 0 1.41 1.41l.48-.48l1.27 1.27l-1.9 1.9zm3.65-11.92a.996.996 0 0 0 0-1.41l-2.34-2.34c-.47-.47-1.12-.29-1.41 0l-1.83 1.83l3.75 3.75l1.83-1.83z"/></svg>