<svg xmlns="http://www.w3.org/2000/svg" xmlns:xlink="http://www.w3.org/1999/xlink" width="24" height="24" viewBox="0 0 24 24"><path fill="currentColor" d="M19.5 11.97c.93 0 1.78.28 2.5.76V7.97c0-1.1-.9-2-2-2h-6.29l-1.06-1.06l1.06-1.06c.2-.2.2-.51 0-.71s-.51-.2-.71 0l-2.83 2.83c-.2.2-.2.51 0 .71c.2.2.51.2.71 0l1.06-1.06L13 6.68v2.29c0 1.1-.9 2-2 2h-.54a5.98 5.98 0 0 1 1.54 4c0 .34-.04.67-.09 1h3.14c.25-2.24 2.14-4 4.45-4z"/><path fill="currentColor" d="M19.5 12.97c-1.93 0-3.5 1.57-3.5 3.5s1.57 3.5 3.5 3.5s3.5-1.57 3.5-3.5s-1.57-3.5-3.5-3.5zm0 5c-.83 0-1.5-.67-1.5-1.5s.67-1.5 1.5-1.5s1.5.67 1.5 1.5s-.67 1.5-1.5 1.5zM4 8.97h5c0-1.1-.9-2-2-2H4c-.55 0-1 .45-1 1c0 .56.45 1 1 1zm5.83 4.82l-.18-.47l.93-.35a4.92 4.92 0 0 0-2.31-2.43l-.4.89l-.46-.21l.4-.9c-.55-.21-1.17-.35-1.81-.35c-.53 0-1.04.11-1.52.26l.34.91l-.47.18L4 10.4a4.92 4.92 0 0 0-2.43 2.31l.89.4l-.21.46l-.9-.4a4.85 4.85 0 0 0-.35 1.8c0 .53.11 1.04.26 1.52l.91-.34l.18.47l-.93.35a4.92 4.92 0 0 0 2.31 2.43l.4-.89l.46.21l-.4.9c.57.22 1.18.35 1.82.35c.53 0 1.04-.11 1.52-.26l-.35-.91l.47-.18l.35.93a4.92 4.92 0 0 0 2.43-2.31l-.89-.4l.21-.46l.9.4c.22-.57.35-1.18.35-1.82c0-.53-.11-1.04-.26-1.52l-.91.35zm-2.68 3.96c-1.53.63-3.29-.09-3.92-1.62c-.63-1.53.09-3.29 1.62-3.92c1.53-.63 3.29.09 3.92 1.62c.64 1.53-.09 3.28-1.62 3.92z"/></svg>