<svg xmlns="http://www.w3.org/2000/svg" xmlns:xlink="http://www.w3.org/1999/xlink" width="24" height="24" viewBox="0 0 24 24"><path fill="currentColor" d="M19.46 10a1 1 0 0 0-.07 1a7.55 7.55 0 0 1 .52 1.81a8 8 0 0 1-.69 4.73a1 1 0 0 1-.89.53H5.68a1 1 0 0 1-.89-.54A8 8 0 0 1 13 6.06a7.69 7.69 0 0 1 2.11.56a1 1 0 0 0 1-.07a1 1 0 0 0-.17-1.76A10 10 0 0 0 3.35 19a2 2 0 0 0 1.72 1h13.85a2 2 0 0 0 1.74-1a10 10 0 0 0 .55-8.89a1 1 0 0 0-1.75-.11z"/><path fill="currentColor" d="M10.59 12.59a2 2 0 0 0 2.83 2.83l5.66-8.49z"/></svg>