<svg xmlns="http://www.w3.org/2000/svg" xmlns:xlink="http://www.w3.org/1999/xlink" width="24" height="24" viewBox="0 0 24 24"><path fill="currentColor" d="M23 16v-1.5c0-1.4-1.1-2.5-2.5-2.5S18 13.1 18 14.5V16h-1v6h7v-6h-1zm-1 0h-3v-1.5c0-.8.7-1.5 1.5-1.5s1.5.7 1.5 1.5V16z"/><path fill="currentColor" fill-opacity=".3" d="M15.5 14.5c0-2.8 2.2-5 5-5c.36 0 .71.04 1.05.11L23.64 7c-.45-.34-4.93-4-11.64-4C5.28 3 .81 6.66.36 7L12 21.5l3.5-4.36V14.5z"/><path fill="currentColor" d="M15.5 14.5c0-1.34.51-2.53 1.34-3.42C15.62 10.51 13.98 10 12 10c-4.1 0-6.8 2.2-7.2 2.5l7.2 9l3.5-4.38V14.5z"/></svg>