<svg xmlns="http://www.w3.org/2000/svg" xmlns:xlink="http://www.w3.org/1999/xlink" width="24" height="24" viewBox="0 0 24 24"><path fill="currentColor" d="m13.783 15.172l2.121-2.121l5.996 5.996l-2.121 2.121zM17.5 10c1.93 0 3.5-1.57 3.5-3.5c0-.58-.16-1.12-.41-1.6l-2.7 2.7l-1.49-1.49l2.7-2.7c-.48-.25-1.02-.41-1.6-.41C15.57 3 14 4.57 14 6.5c0 .41.08.8.21 1.16l-1.85 1.85l-1.78-1.78l.71-.71l-1.41-1.41L12 3.49a3 3 0 0 0-4.24 0L4.22 7.03l1.41 1.41H2.81l-.71.71l3.54 3.54l.71-.71V9.15l1.41 1.41l.71-.71l1.78 1.78l-7.41 7.41l2.12 2.12L16.34 9.79c.36.13.75.21 1.16.21z"/></svg>