<svg xmlns="http://www.w3.org/2000/svg" xmlns:xlink="http://www.w3.org/1999/xlink" width="24" height="24" viewBox="0 0 24 24"><path fill="currentColor" d="M23 17c0 3.31-2.69 6-6 6v-1.5c2.48 0 4.5-2.02 4.5-4.5H23zM1 7c0-3.31 2.69-6 6-6v1.5C4.52 2.5 2.5 4.52 2.5 7H1zm7.9-3.57L3.42 8.91C.2 12.13.2 17.35 3.42 20.58s8.44 3.22 11.67 0l7.95-7.95l-1.77-1.77l-5.3 5.3l-.71-.71l7.42-7.42l-1.77-1.77l-6.72 6.72l-.71-.71l7.78-7.78l-1.76-1.76l-7.78 7.78l-.7-.71l6.36-6.36l-1.77-1.77l-8.51 8.51a4.003 4.003 0 0 1-.33 5.28l-.71-.71a3 3 0 0 0 0-4.24l-.35-.35l4.95-4.95L8.9 3.43z"/></svg>