<svg xmlns="http://www.w3.org/2000/svg" xmlns:xlink="http://www.w3.org/1999/xlink" width="24" height="24" viewBox="0 0 24 24"><path fill="currentColor" d="M10.94 8.12L7.48 4.66L9 3h6l1.83 2H22v14.17l-5.12-5.12c.08-.34.12-.69.12-1.05c0-2.76-2.24-5-5-5c-.36 0-.71.04-1.06.12zm9.55 15.19L18.17 21H2V5h.17L.69 3.51L2.1 2.1L21 21l.9.9l-1.41 1.41zm-6-5.99l-1.5-1.5c-.32.1-.64.18-.99.18c-1.66 0-3-1.34-3-3c0-.35.08-.67.19-.98l-1.5-1.5A4.74 4.74 0 0 0 7 13c0 2.76 2.24 5 5 5c.91 0 1.76-.25 2.49-.68z"/></svg>