<svg xmlns="http://www.w3.org/2000/svg" xmlns:xlink="http://www.w3.org/1999/xlink" width="24" height="24" viewBox="0 0 24 24"><path fill="currentColor" d="M4 6H2v16h16v-2H4z"/><path fill="currentColor" d="M6 2v16h16V2H6zm7.51 8.16c.41-.73 1.18-1.16 1.63-1.8c.48-.68.21-1.94-1.14-1.94c-.88 0-1.32.67-1.5 1.23l-1.37-.57C11.51 5.96 12.52 5 13.99 5c1.23 0 2.08.56 2.51 1.26c.37.6.58 1.73.01 2.57c-.63.93-1.23 1.21-1.56 1.81c-.13.24-.18.4-.18 1.18h-1.52c.01-.41-.06-1.08.26-1.66zm-.56 3.79c0-.59.47-1.04 1.05-1.04c.59 0 1.04.45 1.04 1.04c0 .58-.44 1.05-1.04 1.05c-.58 0-1.05-.47-1.05-1.05z"/></svg>