<svg xmlns="http://www.w3.org/2000/svg" xmlns:xlink="http://www.w3.org/1999/xlink" width="24" height="24" viewBox="0 0 24 24"><path fill="currentColor" d="M4 17h16v2H4zm13-6.17L15.38 12L13 8.76L12 7.4l-1 1.36L8.62 12L7 10.83L9.08 8H4v6h16V8h-5.08z" opacity=".3"/><path fill="currentColor" d="M20 6h-2.18c.11-.31.18-.65.18-1a2.996 2.996 0 0 0-5.5-1.65l-.5.67l-.5-.68C10.96 2.54 10.05 2 9 2C7.34 2 6 3.34 6 5c0 .35.07.69.18 1H4c-1.11 0-1.99.89-1.99 2L2 19c0 1.11.89 2 2 2h16c1.11 0 2-.89 2-2V8c0-1.11-.89-2-2-2zm-5-2c.55 0 1 .45 1 1s-.45 1-1 1s-1-.45-1-1s.45-1 1-1zM9 4c.55 0 1 .45 1 1s-.45 1-1 1s-1-.45-1-1s.45-1 1-1zm11 15H4v-2h16v2zm0-5H4V8h5.08L7 10.83L8.62 12L11 8.76l1-1.36l1 1.36L15.38 12L17 10.83L14.92 8H20v6z"/></svg>