<svg xmlns="http://www.w3.org/2000/svg" xmlns:xlink="http://www.w3.org/1999/xlink" width="24" height="24" viewBox="0 0 24 24"><path fill="currentColor" d="M7 4v16h10V4zm5 1c1.1 0 2 .9 2 2s-.9 2-2 2a2 2 0 1 1 0-4m0 14c-2.21 0-4-1.79-4-4s1.79-4 4-4s4 1.79 4 4s-1.79 4-4 4" opacity=".3"/><path fill="currentColor" d="M17 2H7c-1.1 0-2 .9-2 2v16c0 1.1.9 1.99 2 1.99L17 22c1.1 0 2-.9 2-2V4c0-1.1-.9-2-2-2M7 20V4h10v16zm5-11c1.1 0 2-.9 2-2s-.9-2-2-2a2 2 0 1 0 0 4m0 2c-2.21 0-4 1.79-4 4s1.79 4 4 4s4-1.79 4-4s-1.79-4-4-4m0 6c-1.1 0-2-.9-2-2s.9-2 2-2s2 .9 2 2s-.9 2-2 2"/></svg>