<svg xmlns="http://www.w3.org/2000/svg" xmlns:xlink="http://www.w3.org/1999/xlink" width="24" height="24" viewBox="0 0 24 24"><path fill="currentColor" d="m14.24 12.01l2.32 2.32c.28-.72.44-1.51.44-2.33s-.16-1.59-.43-2.31l-2.33 2.32zm5.29-5.3l-1.26 1.26c.63 1.21.98 2.57.98 4.02s-.36 2.82-.98 4.02l1.2 1.2a9.936 9.936 0 0 0 1.54-5.31c-.01-1.89-.55-3.67-1.48-5.19zm-3.82 1L10 2H9v7.59L4.41 5L3 6.41L8.59 12L3 17.59L4.41 19L9 14.41V22h1l5.71-5.71l-4.3-4.29l4.3-4.29zM11 5.83l1.88 1.88L11 9.59V5.83zm1.88 10.46L11 18.17v-3.76l1.88 1.88z"/></svg>