<svg xmlns="http://www.w3.org/2000/svg" xmlns:xlink="http://www.w3.org/1999/xlink" width="24" height="24" viewBox="0 0 24 24"><path fill="currentColor" d="M4.01 8.54C5.2 9.23 6 10.52 6 12s-.81 2.77-2 3.46V18h16v-2.54c-1.19-.69-2-1.99-2-3.46s.81-2.77 2-3.46V6H4l.01 2.54zm6.72 1.68L12 7l1.26 3.23l3.47.2l-2.69 2.2l.89 3.37L12 14.12L9.07 16l.88-3.37l-2.69-2.2l3.47-.21z" opacity=".3"/><path fill="currentColor" d="M20 4H4c-1.1 0-1.99.9-1.99 2v4c1.1 0 1.99.9 1.99 2s-.89 2-2 2v4c0 1.1.9 2 2 2h16c1.1 0 2-.9 2-2v-4c-1.1 0-2-.9-2-2s.9-2 2-2V6c0-1.1-.9-2-2-2zm0 4.54c-1.19.69-2 1.99-2 3.46s.81 2.77 2 3.46V18H4v-2.54c1.19-.69 2-1.99 2-3.46c0-1.48-.8-2.77-1.99-3.46L4 6h16v2.54zM9.07 16L12 14.12L14.93 16l-.89-3.36l2.69-2.2l-3.47-.21L12 7l-1.27 3.22l-3.47.21l2.69 2.2z"/></svg>