<svg xmlns="http://www.w3.org/2000/svg" xmlns:xlink="http://www.w3.org/1999/xlink" width="24" height="24" viewBox="0 0 24 24"><path fill="currentColor" d="M12 6c-3.9 0-7 3.1-7 7s3.1 7 7 7s7-3.1 7-7s-3.1-7-7-7zm3.7 10.9L11 14V8h1.5v5.3l4 2.4l-.8 1.2z" opacity=".3"/><path fill="currentColor" d="m22 5.7l-4.6-3.9l-1.3 1.5l4.6 3.9zM12.5 8H11v6l4.7 2.9l.8-1.2l-4-2.4zM12 4c-5 0-9 4-9 9s4 9 9 9s9-4 9-9s-4-9-9-9zm0 16c-3.9 0-7-3.1-7-7s3.1-7 7-7s7 3.1 7 7s-3.1 7-7 7zM7.9 3.4L6.6 1.9L2 5.7l1.3 1.5z"/></svg>