<svg xmlns="http://www.w3.org/2000/svg" xmlns:xlink="http://www.w3.org/1999/xlink" width="24" height="24" viewBox="0 0 24 24"><path fill="currentColor" d="M12 4c-4.41 0-8 3.59-8 8s3.59 8 8 8s8-3.59 8-8s-3.59-8-8-8M7 7h7v2H7zm0 3h7v2H7zm3 5H7v-2h3zm4.05 3.36l-2.83-2.83l1.41-1.41l1.41 1.41L17.59 12L19 13.41z" opacity=".3"/><path fill="currentColor" d="M12 4c4.41 0 8 3.59 8 8s-3.59 8-8 8s-8-3.59-8-8s3.59-8 8-8m0-2C6.48 2 2 6.48 2 12s4.48 10 10 10s10-4.48 10-10S17.52 2 12 2m2 8H7v2h7zm0-3H7v2h7zm-7 8h3v-2H7zm12-1.59L17.59 12l-3.54 3.54l-1.41-1.41l-1.41 1.41l2.83 2.83z"/></svg>