<svg xmlns="http://www.w3.org/2000/svg" xmlns:xlink="http://www.w3.org/1999/xlink" width="24" height="24" viewBox="0 0 24 24"><path fill="currentColor" d="M12 4.14L6 6.39v4.7c0 3.33 1.76 6.44 4.33 8.04c-1.56-4.89 2.5-9.8 7.67-9.05V6.39l-6-2.25z" opacity=".3"/><path fill="currentColor" d="M10.33 19.13C7.76 17.53 6 14.42 6 11.09v-4.7l6-2.25l6 2.25v3.69c.71.1 1.38.31 2 .6V5l-8-3l-8 3v6.09c0 5.05 3.41 9.76 8 10.91c.03-.01.05-.02.08-.02c-.79-.79-1.4-1.76-1.75-2.85z"/><path fill="currentColor" d="M17 12c-2.76 0-5 2.24-5 5s2.24 5 5 5s5-2.24 5-5s-2.24-5-5-5zm3 5.5h-2.5V20h-1v-2.5H14v-1h2.5V14h1v2.5H20v1z"/></svg>